<svg width="70" height="35" fill="none" xmlns="http://www.w3.org/2000/svg"><path fill-rule="evenodd" clip-rule="evenodd" d="M4.98 3.177v2.256h6.677V34.798H16.2V.92H4.98v2.257Zm29.527-2.165c-.12.01-.563.069-.985.13a17.009 17.009 0 0 0-13.838 11.907c-.714 2.341-.884 5.105-.467 7.58.736 4.36 3.16 8.234 6.804 10.876 1.153.835 2.127 1.37 3.506 1.92 1.535.615 2.657.885 5.076 1.224l.835.117 17.28.017L70 34.8v-4.407l-15.475-.003c-8.511-.002-16.226-.024-17.144-.05-1.78-.05-2.514-.123-3.886-.392-2.792-.545-5.161-1.914-6.995-4.041-1.515-1.757-2.462-3.79-2.864-6.148-.16-.943-.175-2.732-.028-3.666.419-2.672 1.557-4.959 3.417-6.862 2.324-2.38 5.242-3.67 8.55-3.78 3.519-.119 6.762 1.152 9.25 3.624a12.298 12.298 0 0 1 3.666 8.252v.341h4.545l-.032-.53c-.12-2.011-.488-3.729-1.16-5.424-1.528-3.857-4.35-6.964-8.067-8.884a17.1 17.1 0 0 0-5.904-1.772c-.672-.076-2.7-.104-3.366-.046ZM0 9.865v2.148h4.98v22.785H9.36V7.718H0v2.147Zm34.687-1.579c-2.162.307-4.057 1.25-5.59 2.781-4.29 4.289-3.565 11.459 1.497 14.786 1.73 1.137 3.415 1.594 6.322 1.713.662.027 8.377.05 17.144.052L70 27.62v-4.296H53.978c-9.47-.001-16.448-.023-17.062-.054-2.383-.12-3.57-.532-4.687-1.63-1.707-1.678-2.1-4.132-1.001-6.256.695-1.344 1.921-2.311 3.463-2.73.63-.173 1.986-.17 2.635.004a5.46 5.46 0 0 1 2.467 1.417 5.314 5.314 0 0 1 1.56 3.227l.038.367H45.7l-.001-.259c-.003-.768-.29-2.139-.628-3.01-1.24-3.19-3.977-5.424-7.427-6.064-.636-.118-2.28-.146-2.957-.05Z" fill="#fff"/></svg>