<svg width="70" height="48" fill="none" xmlns="http://www.w3.org/2000/svg"><path fill-rule="evenodd" clip-rule="evenodd" d="M27.436.502c-.286.287-.301.505-.301 4.23V8.66l-2.654.048-2.653.048-.364.425-.364.424v12.4h-4.375v-7.888l-.37-.371-.37-.372H1.022l-.37.372-.37.371v18.017l.363.425.364.425h14.988l.364-.425.364-.425v-7.706H43.88v13.651l.441.443.441.443h9.075v7.705l.364.425.364.425h14.988l.364-.425.364-.425v-8.98c0-8.857-.004-8.987-.313-9.38l-.312-.4H54.463l-.313.4c-.298.38-.313.582-.313 4.315v3.917H46.294v-6.87c0-6.72-.007-6.877-.313-7.268l-.312-.399H23.514V11.092l1.773.043 1.772.043.076 4.063c.07 3.799.094 4.076.368 4.277.436.32 15.12.32 15.556 0 .274-.2.298-.478.369-4.277l.075-4.063 5.167-.04 5.167-.04v3.918c0 3.735.015 3.938.313 4.318l.313.399H69.656l.313-.4c.308-.392.312-.523.312-9.367 0-8.844-.004-8.974-.313-9.368L69.657.2H54.463l-.313.4c-.298.379-.313.583-.313 4.24v3.84H43.428V4.742c0-3.735-.016-3.953-.302-4.24C42.832.207 42.623.2 35.281.2s-7.55.008-7.845.303Zm13.578 4.316v2.195H29.549V2.622h11.465v2.196Zm26.854 0v2.195H56.25V2.622h11.617v2.196Zm-35.535-.764a1.186 1.186 0 0 0-.082 1.618c.284.352.33.357 3.03.357 2.7 0 2.747-.005 3.03-.357a1.186 1.186 0 0 0-.081-1.618c-.364-.366-.412-.372-2.949-.372-2.536 0-2.584.006-2.948.372Zm26.904-.166c-.386.294-.588.943-.427 1.369.286.756.634.848 3.217.848 2.405 0 2.841-.08 3.233-.593.305-.398.225-1.055-.177-1.458-.365-.367-.407-.372-2.98-.367-1.9.003-2.678.058-2.867.201Zm-18.223 9.485v3.937H29.549V9.436h11.465v3.937Zm26.854 0v3.937H56.25V9.436h11.617v3.937ZM14.31 17.991v2.196H2.695v-4.391h11.616v2.195Zm-8.575-.893c-.19.134-.405.404-.48.6-.17.448.082 1.228.462 1.432.3.161 5.094.209 5.494.055.368-.142.706-.906.597-1.346-.053-.21-.267-.517-.477-.683-.344-.271-.615-.3-2.815-.3-1.99 0-2.5.044-2.78.242Zm8.575 9.525v4.012H2.695V22.61h11.616v4.013Zm53.557 5.905v2.196H56.25v-4.391h11.617v2.195Zm-8.68-.79c-.54.465-.568 1.167-.07 1.7.35.374.377.377 2.974.377 2.582 0 2.627-.005 2.991-.371.45-.451.484-1.12.082-1.618-.28-.348-.362-.36-2.922-.405-2.596-.047-2.64-.042-3.056.317Zm8.68 9.324v3.915l-1.019.096c-.56.054-3.174.097-5.808.098l-4.79.001V37.147h11.617v3.915Z" fill="#6A6A6A"/></svg>