<svg width="70" height="48" fill="none" xmlns="http://www.w3.org/2000/svg"><path fill-rule="evenodd" clip-rule="evenodd" d="M27.155.623c-.286.287-.302.505-.302 4.23v3.928l-2.653.047-2.654.048-.363.425-.364.425v12.4h-4.375V14.236l-.37-.371-.37-.372H.74l-.37.372-.371.372v18.016l.364.425.364.425h14.988l.364-.425.364-.425v-7.706h27.155V38.2l.441.442.441.443h9.075v7.705l.364.425.364.425h14.988l.364-.425.364-.425v-8.98c0-8.857-.004-8.987-.313-9.38l-.312-.4H54.18l-.312.4c-.298.38-.313.582-.313 4.316v3.916H46.013v-6.87c0-6.72-.007-6.877-.313-7.268l-.312-.399H23.233V11.213l1.772.043 1.773.043.075 4.063c.071 3.799.095 4.077.369 4.277.435.32 15.12.32 15.556 0 .274-.2.298-.478.369-4.277l.075-4.063 5.167-.04 5.167-.04v3.918c0 3.735.015 3.938.313 4.318l.312.399h15.194l.312-.399c.309-.393.313-.524.313-9.368 0-8.844-.004-8.974-.313-9.368L69.375.32H54.18l-.312.4c-.298.38-.313.583-.313 4.24V8.8H43.147V4.863c0-3.735-.016-3.953-.302-4.24C42.55.328 42.342.32 35 .32s-7.551.008-7.845.303ZM40.733 4.94v2.195H29.267V2.743h11.466V4.94Zm26.853 0v2.195H55.97V2.743h11.616V4.94Zm-35.535-.764a1.186 1.186 0 0 0-.082 1.618c.284.352.331.357 3.031.357s2.747-.005 3.03-.357a1.186 1.186 0 0 0-.081-1.618c-.365-.366-.413-.372-2.949-.372s-2.584.006-2.949.372Zm26.904-.166c-.385.294-.587.944-.426 1.369.286.756.633.848 3.217.848 2.405 0 2.84-.08 3.233-.593.304-.398.225-1.055-.177-1.458-.365-.367-.407-.372-2.98-.367-1.9.003-2.679.058-2.867.201Zm-18.222 9.485v3.937H29.267V9.557h11.466v3.937Zm26.853 0v3.937H55.97V9.557h11.616v3.937ZM14.03 18.113v2.195H2.414v-4.391H14.03v2.196Zm-8.575-.894c-.19.134-.406.404-.48.6-.17.448.082 1.228.462 1.433.3.16 5.094.207 5.494.054.368-.142.706-.906.596-1.346-.052-.21-.267-.517-.476-.683-.344-.271-.615-.3-2.816-.3-1.989 0-2.498.044-2.78.242Zm8.575 9.525v4.012H2.414V22.732H14.03v4.013Zm53.556 5.905v2.196H55.97v-4.391h11.616v2.195Zm-8.68-.79c-.539.465-.567 1.167-.069 1.7.35.374.376.377 2.974.377 2.581 0 2.626-.005 2.991-.371.45-.451.484-1.12.082-1.618-.28-.348-.363-.359-2.922-.405-2.597-.047-2.64-.042-3.056.317Zm8.68 9.324v3.915l-1.018.096c-.56.054-3.174.098-5.808.098l-4.79.001V37.268h11.616v3.915Z" fill="#fff"/></svg>