<svg width="160" height="160" fill="none" xmlns="http://www.w3.org/2000/svg"><path fill-rule="evenodd" clip-rule="evenodd" d="M5.194.41C3.61.909.912 3.705.427 5.348c-.57 1.926-.57 100.893 0 102.819.523 1.772 3.194 4.444 4.965 4.967.988.292 7.253.393 24.518.393H53.1l1.755 2.455c2.023 2.829 5.914 6.85 8.72 9.009 2.422 1.865 7.177 4.69 9.179 5.455l1.515.579-4.142 4.153-4.143 4.153h-9.199v-4.398c0-2.51-.168-4.968-.392-5.725-.523-1.772-3.194-4.444-4.965-4.967-1.888-.558-33.83-.558-35.717 0-1.772.523-4.443 3.195-4.966 4.967-.55 1.863-.55 23.544 0 25.407.523 1.771 3.194 4.443 4.966 4.967 1.887.558 33.829.558 35.717 0 1.77-.524 4.442-3.196 4.965-4.967.224-.758.392-3.216.392-5.726v-4.397h11.408l5.843-5.815 5.843-5.814 2.4.542c3.078.695 11.997.79 15.457.164 4.615-.834 11.119-3.225 14.381-5.285l1.322-.835 3.319 3.332 3.319 3.331-.691.879c-.38.483-.691 1.331-.692 1.884-.001.889 1.138 2.137 9.916 10.874 10.809 10.759 11.478 11.27 15.692 11.992 8.929 1.53 16.963-6.506 15.434-15.439-.724-4.229-1.224-4.883-11.986-15.696-8.727-8.769-9.988-9.919-10.875-9.919-.551 0-1.399.312-1.883.693l-.881.693-3.272-3.273-3.273-3.273h12.92c14.932 0 15.018-.013 17.322-2.577.767-.853 1.566-2.127 1.777-2.831.553-1.846.553-100.877 0-102.723-.211-.704-1.01-1.978-1.777-2.831-2.54-2.827 4.987-2.58-77.944-2.544C27.232.045 6 .155 5.194.41ZM154.018 5.94l.791.792v100.049l-.791.792-.791.792H141.73c-10.826 0-11.481-.033-11.252-.565.97-2.246 2.147-5.985 2.777-8.822.96-4.326 1.044-12.429.173-16.799-2.653-13.316-11.414-24.997-23.223-30.96l-1.925-.972 6.417-6.426 6.417-6.426.092 3.23.091 3.23H126.434v-6.95c0-9.283.75-8.533-8.53-8.533h-6.947v5.16h6.605l-7.361 7.368-7.36 7.368-2.444-.582c-1.344-.32-3.832-.737-5.528-.926-1.697-.19-3.174-.449-3.284-.577-.108-.127-2.85-4.514-6.093-9.747-3.243-5.234-6.184-9.77-6.535-10.08-.556-.492-1.364-.564-6.246-.564h-5.607v-4.398c0-5.231-.31-6.448-2.161-8.508-2.36-2.626-1.96-2.577-20.995-2.577-12.084 0-16.952.106-17.919.392-1.771.524-4.442 3.196-4.966 4.967-.55 1.864-.55 23.544 0 25.407.524 1.772 3.195 4.444 4.966 4.968.967.285 5.835.392 17.919.392 19.035 0 18.635.049 20.995-2.577 1.852-2.06 2.16-3.277 2.16-8.508v-4.398h8.919l4.881 7.822c3.83 6.138 4.763 7.843 4.328 7.918-11.145 1.921-18.613 5.541-25.581 12.399l-2.536 2.496-1.374-1.523c-2.71-3.005-3.077-3.307-4.008-3.303-.502.003-1.093.12-1.313.26-.221.14-6.857 7.287-14.746 15.881L21.329 88.53l1.847 1.686c1.017.926 1.92 1.683 2.01 1.68.088-.004 6.037-6.445 13.22-14.316l13.059-14.31 1.252 1.227 1.253 1.228-1.136 1.887c-2.75 4.57-4.59 9.337-5.603 14.519-.606 3.101-.788 10.433-.345 13.898l.258 2.016H15.512V28.373h-5.16v36.574c0 35.527.019 36.596.617 37.335l.616.762 18.445.161 18.444.161.724 1.936c.399 1.064.834 2.189.966 2.499.228.535-.92.565-21.573.565H6.777l-.792-.792-.791-.792V6.733l.791-.792.792-.792h146.45l.791.792ZM61.153 16.263l.791.791v22.638l-.791.791-.791.792H27.413l-.791-.792-.792-.791V17.054l.792-.791.791-.792h32.949l.79.792Zm-30.163 6.95v2.58h25.795v-5.161H30.99v2.58Zm0 10.32v2.581h25.795v-5.16H30.99v2.58Zm67.713 18.99c13.352 3.055 24.17 12.881 28.332 25.735 1.44 4.45 1.817 6.947 1.817 12.045 0 2.687-.19 5.638-.447 6.935-3.118 15.745-14.505 27.367-30.399 31.022-3.259.749-12.054.745-15.373-.007-15.767-3.577-27.294-15.337-30.398-31.015-.661-3.336-.572-11.254.165-14.676 2.48-11.526 9.868-21.287 20.075-26.527 4.403-2.26 8.06-3.41 13.492-4.238 2.19-.335 10.062.114 12.737.726ZM84.781 57.24C72.842 59.25 62.6 67.9 58.682 79.283c-2.4 6.97-2.447 14.83-.13 21.645 3.8 11.177 13.341 19.684 24.835 22.146 3.34.715 7.987.912 11.242.477 14.875-1.987 26.662-13.673 28.881-28.633 1.23-8.285-1.18-17.779-6.212-24.474-1.717-2.285-5.878-6.341-8.009-7.808-6.895-4.745-16.2-6.794-24.508-5.396Zm-3.976 13.084-8.381 8.407-2.333-2.52c-1.283-1.386-2.336-2.64-2.338-2.788-.01-.588 2.487-3.255 4.761-5.085 2.514-2.022 6.117-3.997 9.049-4.958 1.678-.551 5.691-1.374 6.981-1.433.425-.019-2.194 2.816-7.739 8.377Zm19.748-6.48c3.436 1.332 7.021 3.698 9.771 6.448 11.116 11.12 11.116 28.902 0 40.021-10.268 10.272-26.189 11.163-37.64 2.105-2.58-2.041-5.73-5.686-6.906-7.993l-.622-1.22h30.323v-5.16H62.958l-.422-1.856c-.62-2.723-.532-9.753.153-12.337.695-2.623 1.827-5.484 2.17-5.484.143 0 1.54 1.457 3.106 3.238 2.835 3.224 3.643 3.774 5.023 3.42.4-.103 5.732-5.205 11.85-11.34 12.693-12.723 11.005-11.666 15.715-9.841Zm27.012 57.104 2.891 2.905-3.301 3.302-3.3 3.301-2.957-2.957-2.956-2.957 3.198-3.234c1.759-1.779 3.274-3.242 3.366-3.25.092-.009 1.469 1.292 3.059 2.89Zm17.64 12.496c8.927 8.947 9.584 9.826 9.597 12.845.021 4.869-3.637 8.53-8.514 8.521-3.061-.006-4.121-.8-13.08-9.801l-8.219-8.258 5.797-5.806c3.189-3.194 5.874-5.807 5.965-5.807.092 0 3.897 3.738 8.454 8.306Zm-94.37-3.643.791.792v22.637l-.791.791-.792.792H17.095l-.791-.792-.792-.791v-22.637l.792-.792.79-.792h32.949l.791.792ZM20.67 136.75v2.581h25.796v-5.161H20.671v2.58Zm0 10.322v2.58h25.796v-5.16H20.671v2.58Z" fill="#2C2C2C"/></svg>