<svg width="70" height="70" fill="none" xmlns="http://www.w3.org/2000/svg"><path fill-rule="evenodd" clip-rule="evenodd" d="M2.272.18C1.58.397.4 1.62.187 2.34c-.25.842-.25 44.14 0 44.983.229.775 1.397 1.944 2.172 2.173.432.128 3.173.172 10.726.172h10.146L24 50.742c.885 1.238 2.588 2.997 3.815 3.942 1.06.815 3.14 2.052 4.016 2.386l.663.253-1.813 1.817-1.812 1.817h-4.024v-1.924c0-1.098-.074-2.173-.172-2.505-.229-.775-1.398-1.944-2.172-2.173-.826-.244-14.8-.244-15.627 0-.775.23-1.943 1.398-2.172 2.173-.24.816-.24 10.3 0 11.116.229.775 1.397 1.944 2.172 2.173.826.244 14.8.244 15.627 0 .774-.229 1.943-1.398 2.172-2.173.098-.332.172-1.407.172-2.505v-1.924h4.99l2.557-2.544 2.556-2.544 1.05.237c1.347.305 5.249.346 6.763.073 2.019-.365 4.864-1.411 6.291-2.313l.579-.365 1.452 1.458 1.452 1.457-.303.384c-.166.212-.302.583-.302.825 0 .389.497.935 4.338 4.757 4.729 4.707 5.021 4.93 6.865 5.247 3.907.669 7.422-2.847 6.752-6.755-.316-1.85-.535-2.136-5.243-6.867-3.818-3.836-4.37-4.34-4.758-4.34-.242 0-.612.137-.824.304l-.386.303-1.431-1.432-1.432-1.432h5.652c6.534 0 6.57-.006 7.579-1.127.335-.374.685-.93.778-1.239.242-.808.242-44.134 0-44.941-.093-.308-.443-.866-.778-1.239C67.93-.114 71.223-.007 34.941.01 11.913.02 2.625.068 2.271.18Zm65.11 2.42.347.345v43.772l-.346.347-.346.346h-5.03c-4.737 0-5.023-.014-4.923-.247.425-.983.94-2.618 1.215-3.86.42-1.892.457-5.437.076-7.35-1.16-5.825-4.994-10.935-10.16-13.544l-.843-.425 2.808-2.812 2.807-2.811.04 1.413.04 1.413h2.248v-3.04c0-4.062.328-3.734-3.732-3.734h-3.04v2.258h2.89l-3.22 3.223-3.22 3.224-1.07-.255a24.39 24.39 0 0 0-2.418-.405c-.742-.083-1.389-.196-1.436-.252-.048-.056-1.248-1.975-2.666-4.265-1.42-2.29-2.706-4.274-2.86-4.41-.243-.215-.596-.247-2.732-.247h-2.453V9.36c0-2.288-.135-2.82-.945-3.722-1.033-1.149-.858-1.127-9.186-1.127-5.287 0-7.416.046-7.84.171-.774.23-1.943 1.398-2.172 2.173-.24.815-.24 10.3 0 11.116.23.775 1.398 1.944 2.173 2.173.423.125 2.552.172 7.84.172 8.327 0 8.152.021 9.184-1.128.81-.9.946-1.433.946-3.722v-1.924h3.902l2.135 3.422c1.676 2.685 2.084 3.431 1.894 3.464-4.876.84-8.144 2.424-11.192 5.425l-1.11 1.092-.6-.667c-1.186-1.314-1.347-1.447-1.754-1.444-.22 0-.478.052-.575.113-.096.062-3 3.188-6.451 6.948L9.33 38.731l.809.738c.444.405.84.736.879.735.038-.002 2.641-2.82 5.783-6.263l5.714-6.26.548.536.548.537-.497.826a19.33 19.33 0 0 0-2.451 6.352c-.266 1.357-.345 4.564-.151 6.08l.112.882H6.786v-30.48H4.53v16c0 15.543.008 16.01.27 16.334l.27.334 8.069.07 8.07.07.316.847c.175.466.365.958.423 1.094.1.234-.403.247-9.438.247H2.965l-.346-.346-.347-.347V2.945L2.62 2.6l.346-.346h64.072l.346.346ZM26.755 7.114l.347.346v9.904l-.347.346-.346.347H11.993l-.346-.347-.346-.346V7.461l.346-.346.346-.347h14.415l.346.347Zm-13.196 3.04v1.13h11.286V9.025H13.558v1.13Zm0 4.516V15.8h11.286v-2.258H13.558v1.129Zm29.625 8.308c5.84 1.336 10.574 5.635 12.395 11.259.63 1.947.795 3.04.795 5.27 0 1.175-.083 2.466-.196 3.033-1.364 6.89-6.346 11.974-13.3 13.573-1.425.328-5.273.326-6.725-.003-6.898-1.565-11.941-6.71-13.3-13.57-.288-1.46-.25-4.923.073-6.42 1.085-5.043 4.317-9.313 8.783-11.606 1.926-.989 3.526-1.491 5.903-1.854.958-.146 4.402.05 5.572.318Zm-6.091 2.064c-5.223.879-9.704 4.663-11.418 9.643-1.05 3.05-1.071 6.489-.057 9.47 1.662 4.89 5.836 8.612 10.865 9.689 1.461.313 3.494.399 4.918.209 6.508-.87 11.665-5.983 12.636-12.527.538-3.625-.517-7.779-2.718-10.708-.751-1-2.572-2.774-3.504-3.416-3.017-2.076-7.088-2.972-10.722-2.36Zm-1.74 5.724-3.666 3.678-1.021-1.103c-.562-.606-1.022-1.155-1.023-1.22-.004-.257 1.088-1.423 2.083-2.224 1.1-.885 2.676-1.749 3.959-2.17.734-.24 2.49-.6 3.054-.626.186-.008-.96 1.232-3.386 3.665Zm8.64-2.835c1.503.582 3.072 1.617 4.275 2.82a12.33 12.33 0 0 1 0 17.51c-4.493 4.494-11.458 4.883-16.468.921-1.128-.893-2.506-2.488-3.021-3.497l-.272-.534h13.266v-2.258H27.544l-.185-.811c-.27-1.192-.232-4.267.067-5.398.305-1.147.8-2.399.95-2.399.062 0 .674.638 1.359 1.417 1.24 1.41 1.593 1.65 2.197 1.496.175-.045 2.508-2.277 5.185-4.961 5.553-5.567 4.814-5.104 6.875-4.306ZM55.81 52.914l1.264 1.272-1.444 1.444-1.444 1.445-1.293-1.294-1.293-1.294 1.399-1.415c.77-.778 1.432-1.418 1.472-1.422.04-.004.643.565 1.339 1.264Zm7.717 5.468c3.906 3.914 4.193 4.299 4.199 5.62.01 2.13-1.591 3.731-3.725 3.727-1.34-.002-1.803-.35-5.722-4.288l-3.596-3.612 2.536-2.54c1.395-1.398 2.57-2.541 2.61-2.541.04 0 1.704 1.635 3.698 3.634ZM22.24 56.788l.346.346v9.904l-.346.346-.346.347H7.479l-.346-.347-.346-.346v-9.904l.346-.346.346-.347h14.415l.346.347Zm-13.196 3.04v1.13h11.285v-2.259H9.044v1.13Zm0 4.516v1.129h11.285v-2.258H9.044v1.129Z" fill="#fff"/></svg>