<svg width="70" height="70" fill="none" xmlns="http://www.w3.org/2000/svg"><path fill-rule="evenodd" clip-rule="evenodd" d="M.336.336 0 .67V69.33l.336.335L.67 70H69.33l.335-.336.336-.335V.67l-.336-.335L69.33 0H.67L.336.336ZM67.813 35v32.813H2.186V2.186h65.626V35ZM7.017 4.347c-1.451.518-2.305 1.418-2.73 2.875-.393 1.354.084 2.907 1.201 3.912 1.992 1.791 5.002 1.243 6.234-1.135.784-1.516.56-3.234-.588-4.51-1.046-1.165-2.738-1.633-4.117-1.142Zm53.923-.104a4.036 4.036 0 0 0-2.124 1.296c-1.328 1.509-1.317 3.766.026 5.356.202.24.745.625 1.205.855 1.5.75 3.208.514 4.465-.616 2.128-1.914 1.586-5.385-1.029-6.582-.817-.374-1.804-.494-2.543-.31ZM8.881 6.508c.78.312 1.152.96 1.067 1.853-.09.934-.624 1.482-1.544 1.586-.873.099-1.47-.226-1.847-1.003-.59-1.22.213-2.54 1.61-2.643.092-.006.413.087.714.207Zm53.488-.077c1.068.296 1.574 1.48 1.074 2.513-.376.777-.974 1.101-1.847 1.003-.897-.1-1.442-.646-1.543-1.543-.097-.859.225-1.464.977-1.836.648-.322.669-.324 1.34-.137Zm-34.704 4.095c-.447.181-.52.384-.595 1.642l-.068 1.162-1.162.034c-.64.02-1.3.066-1.467.105-.498.115-.72.74-.72 2.028v1.155l-1.175.048c-1.038.042-1.204.085-1.435.37-.387.478-.342 1.167.099 1.514.294.232.554.283 1.435.283h1.075V20.098h-.963c-1.008 0-1.671.226-1.823.621-.174.454-.079.977.232 1.269.271.255.474.297 1.435.297h1.12V23.516h-.788c-.962 0-1.643.183-1.89.507-.294.388-.235 1.046.123 1.383.271.255.474.297 1.435.297h1.12v1.367h-1.139c-1.013 0-1.171.035-1.436.317-.292.311-.378.816-.212 1.25.152.395.815.62 1.823.62h.963V30.489h-1.075c-.88 0-1.14.052-1.436.284-.44.346-.485 1.035-.098 1.513.23.285.397.328 1.435.37l1.174.049v1.155c0 1.287.223 1.913.72 2.028.169.038.829.085 1.468.104l1.162.034.068 1.192c.075 1.308.204 1.55.903 1.69.328.065.507.008.818-.26.373-.32.401-.416.447-1.516l.048-1.174h1.202v1.083c0 1.296.055 1.465.557 1.725.556.287.78.25 1.231-.2.376-.375.4-.465.4-1.504v-1.104h1.23v1.019c0 1.199.166 1.638.702 1.86.504.208 1.112-.02 1.331-.502.085-.187.155-.798.155-1.358v-1.019h1.23v1.104c0 1.039.024 1.129.4 1.504.45.45.675.487 1.231.2.502-.26.557-.43.557-1.725v-1.083h1.202l.048 1.174c.045 1.1.074 1.196.447 1.517.31.267.49.324.818.258.699-.14.828-.38.903-1.689l.068-1.192 1.162-.034c.64-.019 1.3-.066 1.467-.104.498-.115.72-.74.72-2.028v-1.155l1.175-.048c1.038-.043 1.204-.086 1.435-.371.387-.478.342-1.167-.099-1.513-.294-.232-.554-.284-1.435-.284h-1.075v-1.23h.964c1.007 0 1.67-.226 1.822-.622.174-.454.079-.977-.232-1.268-.271-.256-.474-.298-1.435-.298h-1.12v-1.367h1.139c1.013 0 1.171-.035 1.436-.316.335-.358.383-.994.103-1.364-.247-.324-.928-.507-1.89-.507h-.787V22.285h1.138c1.013 0 1.171-.035 1.436-.316.292-.312.378-.817.212-1.25-.152-.395-.815-.621-1.822-.621h-.964V18.867h1.1c.985 0 1.135-.035 1.435-.335a1.068 1.068 0 0 0 .074-1.461c-.23-.286-.397-.329-1.435-.371l-1.174-.048v-1.155c0-1.288-.223-1.913-.72-2.028-.169-.039-.829-.086-1.468-.105l-1.162-.034-.068-1.192c-.075-1.308-.204-1.549-.903-1.689-.328-.065-.507-.008-.818.259-.373.32-.402.417-.447 1.516l-.048 1.174h-1.202v-1.082c0-1.296-.055-1.466-.557-1.725-.556-.288-.78-.251-1.231.2-.376.375-.4.465-.4 1.503v1.104h-1.23V12.38c0-.56-.07-1.172-.155-1.358-.219-.482-.827-.71-1.331-.502-.536.222-.702.66-.702 1.86v1.018h-1.23v-1.104c0-1.038-.024-1.128-.4-1.504-.45-.45-.675-.487-1.231-.2-.502.26-.557.43-.557 1.726v1.082h-1.202l-.048-1.174c-.045-1.088-.076-1.197-.432-1.504-.403-.346-.656-.39-1.14-.194ZM44.16 24.678v9.091H25.84V15.587h18.32v9.092Zm-34.117-5.885-.336.335v13.423l.336.336c.211.212.492.336.758.336s.546-.124.758-.336l.336-.336V19.128l-.336-.335a1.101 1.101 0 0 0-.758-.336c-.267 0-.547.124-.758.336Zm4.238 0-.336.335v13.423l.336.336c.211.212.492.336.758.336s.547-.124.758-.336l.336-.336V19.128l-.336-.335a1.101 1.101 0 0 0-.758-.336c-.266 0-.546.124-.758.336Zm39.922 0-.336.335v13.423l.336.336c.211.212.492.336.758.336s.547-.124.758-.336l.336-.336V19.128l-.336-.335a1.101 1.101 0 0 0-.758-.336c-.266 0-.547.124-.758.336Zm4.238 0-.336.335v13.423l.336.336c.212.212.492.336.758.336.267 0 .547-.124.758-.336l.336-.336V19.128l-.336-.335a1.101 1.101 0 0 0-.758-.336c-.266 0-.546.124-.758.336Zm-5.879 20.37c-.276.277-.335.472-.335 1.097 0 .67-.04.78-.327.91-.18.082-.406.296-.502.476-.15.282-.275.327-.91.327-.888 0-1.406.403-1.406 1.093 0 .698.517 1.094 1.43 1.094h.758V45.391h-.623c-.685 0-1.348.278-1.48.621-.17.444-.077.903.25 1.23.276.276.472.336 1.094.336h.758V48.81h-.538c-1.059 0-1.637.412-1.645 1.172-.007.666.47 1.015 1.384 1.015.675 0 .773.037.912.344.087.189.312.414.5.5.31.14.345.237.345.931 0 .913.35 1.37 1.053 1.37.72 0 1.037-.386 1.106-1.347l.06-.84H55.646v.733c0 .986.351 1.454 1.093 1.454s1.094-.468 1.094-1.454v-.734h1.23v.758c0 .94.392 1.43 1.147 1.43.679 0 1.041-.498 1.041-1.432 0-.628.04-.73.344-.869.189-.086.414-.311.5-.5.141-.31.236-.344.945-.344.69 0 .825-.045 1.072-.36.666-.846.124-1.693-1.15-1.799l-.754-.062v-1.197h.758c.623 0 .818-.06 1.094-.336.2-.2.334-.49.331-.717-.008-.723-.574-1.134-1.559-1.134h-.624V44.16h.758c.912 0 1.43-.395 1.43-1.094 0-.675-.521-1.093-1.361-1.093-.623 0-.744-.054-1.237-.547-.485-.486-.547-.62-.547-1.2 0-.36-.09-.783-.202-.942-.427-.61-1.521-.505-1.831.175-.085.186-.154.613-.154.948v.609H57.831v-.61c0-.334-.07-.76-.154-.947-.31-.68-1.405-.784-1.831-.175-.117.166-.203.595-.203 1.01v.722h-1.23v-.694c0-.585-.063-.758-.4-1.094-.493-.493-1-.516-1.452-.064Zm7.458 7.321v3.282H53.456V43.204H60.02v3.28ZM8.7 44.99c-.509.4-.509 1.22 0 1.621l.36.284h37.71l.336-.336c.444-.444.444-1.072 0-1.516l-.336-.336H9.06l-.36.283Zm0 4.239c-.509.4-.509 1.22 0 1.62l.36.284h37.71l.336-.336c.444-.444.444-1.072 0-1.516l-.336-.336H9.06l-.36.284ZM6.737 58.05c-.318.117-.879.482-1.246.813-2.717 2.442-.953 6.962 2.712 6.948 3.489-.012 5.241-4.098 2.902-6.762-.661-.753-1.566-1.138-2.765-1.177-.662-.021-1.23.042-1.603.178Zm53.31.2c-.46.23-1.003.614-1.205.854-1.364 1.614-1.354 3.875.024 5.407 1.93 2.147 5.381 1.587 6.604-1.074 1.553-3.38-2.082-6.858-5.423-5.188Zm-50.59 2.277c.31.309.435.583.49 1.068.099.873-.226 1.47-1.003 1.847-1.567.758-3.15-.811-2.394-2.373.388-.801.861-1.072 1.765-1.009.59.041.806.13 1.143.467Zm53.313-.272c.565.334.983 1.248.863 1.887-.123.653-.837 1.367-1.49 1.49-.678.127-1.586-.313-1.918-.93-.475-.882-.055-2.191.82-2.553.466-.193 1.306-.141 1.725.106Z" fill="#fff"/></svg>