<svg width="70" height="70" fill="none" xmlns="http://www.w3.org/2000/svg"><path fill-rule="evenodd" clip-rule="evenodd" d="M9.392.161C4.469 1.134.972 4.724.136 9.665c-.193 1.145-.095 3.185.208 4.314.779 2.902 2.411 5.183 4.856 6.785 3.678 2.41 8.788 2.375 12.316-.084l.905-.631 2.711 2.706 2.711 2.707-.328.43c-1.618 2.121-2.726 4.716-3.015 7.06l-.104.847-2.293.039-2.292.039V31.95c0-2.292-.135-2.824-.945-3.725-.995-1.107-1.12-1.127-6.93-1.127-3.515 0-5.175.05-5.583.171-.775.23-1.943 1.398-2.172 2.173-.241.815-.241 10.298 0 11.113.229.775 1.397 1.944 2.172 2.173.815.24 10.299.24 11.114 0 .775-.23 1.944-1.398 2.173-2.173.098-.332.171-1.407.171-2.508V36.12l2.293.039 2.292.039.104.834c.263 2.109 1.417 4.947 2.7 6.643l.642.847-3.804 3.81c-2.092 2.096-3.804 3.86-3.804 3.921 0 .178 1.293 1.51 1.465 1.51.086 0 1.87-1.712 3.966-3.804l3.81-3.803.847.64c1.696 1.284 4.535 2.439 6.644 2.702l.834.104.04 2.292.038 2.292H31.95c-1.1 0-2.177.074-2.508.172-.775.229-1.944 1.398-2.173 2.173-.12.407-.172 2.062-.172 5.556s.052 5.149.172 5.557c.229.775 1.398 1.943 2.173 2.172.815.241 10.298.241 11.113 0 .775-.229 1.944-1.397 2.173-2.172.24-.815.24-10.299 0-11.114-.229-.775-1.398-1.943-2.173-2.172-.331-.098-1.407-.172-2.508-.172h-1.927l.039-2.292.039-2.292.846-.105c2.14-.263 4.873-1.38 6.65-2.717l.828-.624 2.857 2.85c1.572 1.567 2.857 2.898 2.857 2.957 0 .059-.097.107-.217.107-.776 0-2.147 1.256-2.44 2.237-.236.786-.23 12.537.007 13.337.23.775 1.398 1.943 2.173 2.172.83.245 17.057.245 17.886 0 .775-.229 1.944-1.397 2.173-2.172.24-.811.242-12.552.003-13.35-.092-.308-.442-.865-.777-1.238-1.027-1.142-.914-1.127-8.71-1.127H53.55l-3.697-3.704-3.697-3.703.641-.847c1.284-1.696 2.438-4.534 2.701-6.643l.104-.834 2.293-.04 2.292-.038v1.927c0 1.1.074 2.176.171 2.508.23.775 1.398 1.944 2.173 2.173.815.24 10.299.24 11.114 0 .775-.23 1.944-1.398 2.173-2.173.237-.805.24-10.3.003-11.092-.092-.308-.442-.865-.777-1.238-.995-1.107-1.12-1.127-6.93-1.127-3.515 0-5.175.05-5.583.171-.775.23-1.943 1.398-2.172 2.173-.098.332-.172 1.407-.172 2.508v1.927l-2.292-.039-2.293-.039-.104-.834c-.263-2.109-1.417-4.948-2.7-6.643l-.642-.847 5.382-5.388 5.382-5.389 4.877-.043 4.876-.044.721-.38c1.07-.564 1.508-.989 2.039-1.976.435-.808.478-.997.482-2.088.003-1.114-.032-1.264-.501-2.116-.55-.999-1.468-1.813-2.386-2.116-.464-.153-.547-.247-.62-.7-.247-1.546-1.872-3.639-3.443-4.435-2.68-1.358-5.645-.92-7.82 1.153-.873.833-1.741 2.336-1.892 3.276-.07.439-.161.546-.597.702-3.086 1.105-3.957 5.088-1.623 7.422.556.556 1.76 1.184 2.272 1.187.175 0 .318.049.318.108 0 .058-2.048 2.15-4.55 4.65l-4.55 4.543-.83-.624c-1.775-1.336-4.51-2.454-6.649-2.718l-.846-.104-.039-2.292-.039-2.292h1.927c1.101 0 2.177-.074 2.508-.172.775-.229 1.944-1.398 2.173-2.173.24-.815.24-10.298 0-11.113C42.5 1.578 41.331.41 40.556.181c-.815-.241-10.298-.241-11.113 0-.775.229-1.944 1.397-2.173 2.172-.24.815-.24 10.298 0 11.113.229.775 1.398 1.944 2.173 2.173.331.098 1.407.172 2.508.172h1.927l-.039 2.292-.039 2.292-.834.104c-2.362.295-4.954 1.399-7.065 3.01l-.438.333-2.707-2.71-2.707-2.711.631-.905c2.46-3.528 2.495-8.638.085-12.316-1.601-2.443-3.861-4.062-6.786-4.86-.96-.262-3.637-.366-4.587-.179ZM13.2 2.477c3.019.628 5.774 3.147 6.715 6.138.625 1.986.475 4.428-.387 6.328l-.402.885-.67-.89c-.767-1.018-1.957-2.026-3.03-2.566L14.691 12l.352-.518c.85-1.254.967-3.053.284-4.4-.515-1.018-.956-1.472-1.943-2.004-.811-.438-.992-.48-2.088-.48s-1.276.042-2.091.482c-1.405.757-2.21 1.948-2.373 3.513-.1.959.183 2.1.715 2.885l.35.514-.957.503c-1.02.536-2.46 1.833-3.088 2.78l-.382.578-.403-.897c-1.536-3.411-.8-7.336 1.877-10.013 2.204-2.203 5.209-3.101 8.257-2.467Zm27.096.136c.284.284.346.486.346 1.128v.783H29.356V3.74c0-.642.062-.844.346-1.128l.346-.347H39.951l.346.347Zm21.639.222c.484.259 1.065.694 1.291.969.407.494.978 1.572.978 1.846 0 .078-.301.284-.67.457-1.299.61-2.333 2.014-2.527 3.431l-.086.63h2.237l.165-.616c.44-1.643 2.502-2.172 3.72-.953 1.173 1.172.702 3.24-.841 3.69-.342.1-2.597.137-6.679.108-5.969-.042-6.174-.052-6.552-.334-.74-.553-.971-1.004-.971-1.896 0-1.397.775-2.145 2.314-2.232l.964-.055.072-1.149c.086-1.372.47-2.296 1.303-3.127.964-.964 2.011-1.35 3.472-1.282.728.035 1.12.146 1.81.513ZM12.189 6.974c1.45.605 1.803 2.506.676 3.633-.915.915-2.222.915-3.137 0-1.745-1.745.18-4.586 2.461-3.633Zm28.454.936v1.129H29.356V6.78H40.643V7.91Zm0 4.168c0 .643-.062.845-.346 1.129l-.346.346H30.049l-.347-.346c-.284-.284-.346-.486-.346-1.129v-.782H40.643v.782Zm-27.73 1.692a8.523 8.523 0 0 1 1.547.598c.917.489 2.315 1.883 2.765 2.755l.35.678-.494.406c-.813.67-1.89 1.27-2.986 1.665-.912.328-1.245.372-2.799.37-1.564-.001-1.883-.045-2.82-.385-1.131-.412-2.17-.994-2.963-1.662l-.492-.415.348-.667c.452-.868 1.855-2.26 2.768-2.747 1.478-.79 3.208-1.005 4.777-.596Zm22.774 9.015c.546.283 1.353 1.21 1.772 2.036.29.574.926 2.111.927 2.241 0 .02-1.524.036-3.387.036-1.862 0-3.386-.016-3.386-.036 0-.129.635-1.665.922-2.23.63-1.245 1.717-2.248 2.436-2.249.179 0 .5.09.716.202Zm-5.36 1.48c-.23.46-.564 1.27-.743 1.799l-.324.963-1.857.04c-1.021.021-1.857-.013-1.857-.077 0-.144.979-1.08 1.878-1.798.683-.544 2.848-1.75 3.155-1.759.097-.002-.008.343-.252.832Zm10.29-.285c.603.304 1.443.82 1.866 1.149.934.723 1.97 1.702 1.97 1.86 0 .065-.836.099-1.857.077l-1.857-.039-.324-.963a17.06 17.06 0 0 0-.742-1.799c-.23-.46-.358-.836-.285-.836.073 0 .626.248 1.229.552Zm-27.41 5.721c.285.285.347.486.347 1.129v.782H2.266v-.782c0-.643.062-.844.347-1.129l.346-.346h9.902l.346.346Zm15.44-.1c0 .137-.059.66-.128 1.165a50.1 50.1 0 0 0-.22 2.01l-.096 1.094h-5.577l.124-.811c.15-.98.301-1.503.796-2.751l.378-.952h2.363c2.158-.001 2.363.02 2.36.246Zm10.356 0c.09.316.328 2.085.444 3.316l.09.953h-9.075l.09-.953c.116-1.231.353-3 .445-3.315.065-.228.38-.247 4.002-.247 3.624 0 3.938.02 4.004.247Zm7.45.707c.495 1.248.646 1.771.796 2.75l.124.812H41.794l-.087-.953a86.664 86.664 0 0 0-.223-2.068c-.074-.614-.135-1.2-.135-1.305 0-.15.48-.189 2.363-.189h2.363l.378.953Zm20.933-.607c.285.285.347.486.347 1.129v.782H56.445v-.782c0-.643.062-.844.347-1.129l.346-.346h9.902l.346.346Zm-53.832 5.297v1.13H2.266V33.87h11.288v1.128Zm54.179 0v1.13H56.445V33.87h11.288v1.128Zm-39.435 2.223a50.1 50.1 0 0 0 .221 2.01c.214 1.563.455 1.41-2.232 1.41h-2.363l-.378-.952c-.495-1.248-.646-1.771-.796-2.75l-.124-.812h5.577l.095 1.093Zm11.15-.142c-.117 1.232-.354 3-.445 3.316-.066.227-.38.247-4.004.247-3.623 0-3.937-.02-4.003-.247-.09-.316-.328-2.084-.444-3.316l-.09-.952h9.075l-.09.952Zm7.793-.098c-.117.771-.477 1.956-.974 3.202l-.183.459h-2.368c-2.691 0-2.45.152-2.236-1.411.069-.504.168-1.41.22-2.01l.096-1.094h5.574l-.13.854Zm-33.687 2.186c0 .642-.062.844-.347 1.128l-.346.347H2.96l-.346-.347c-.285-.284-.347-.486-.347-1.128v-.782h11.288v.782Zm54.179 0c0 .642-.062.844-.347 1.128l-.346.347h-9.902l-.346-.347c-.285-.284-.347-.486-.347-1.128v-.782h11.288v.782Zm-38.149 4.766c.179.53.513 1.339.743 1.799.23.46.357.836.284.836-.296 0-2.376-1.142-3.095-1.7-.933-.723-1.97-1.703-1.97-1.861 0-.064.836-.098 1.857-.077l1.857.04.324.963Zm8.802-.978c0 .175-.863 2.134-1.172 2.66-.438.748-1.366 1.617-1.858 1.74-1.137.286-2.358-.94-3.34-3.353-.221-.545-.403-1.016-.403-1.047 0-.03 1.524-.056 3.386-.056 1.863 0 3.387.025 3.387.056Zm5.894.262c-.403.618-2.313 2.093-3.518 2.717-.672.349-1.285.634-1.362.634-.078 0 .067-.43.322-.953.254-.523.574-1.301.71-1.728.137-.427.276-.824.309-.882.033-.058.89-.106 1.903-.106h1.843l-.207.318ZM7.487 54.269c-2.706.484-4.928 1.496-6.69 3.047l-.553.486.822.809.821.808.437-.415c2.251-2.143 6.08-3.052 9.325-2.214 1.196.309 2.984 1.237 3.862 2.006l.748.654.799-.807.799-.807-.564-.5c-2.232-1.974-4.793-2.98-7.83-3.078-.893-.03-1.782-.024-1.976.01Zm59.9.264.346.346V67.038l-.347.346-.346.347H50.366l-.347-.347-.346-.346v-12.16l.346-.346.347-.346H67.04l.346.346Zm-27.09 2.257c.284.284.346.486.346 1.129v.782H29.356v-.782c0-.643.062-.845.346-1.13l.346-.345H39.951l.346.346Zm11.634 4.168v4.515h13.544V63.216h-2.258V58.7H60.96V63.216h-2.258v-2.258H56.446v2.258h-2.258v-6.772h-2.256v4.514ZM7.416 58.865c-.898.169-2.819 1.108-3.44 1.682l-.477.441.78.78.779.78.48-.366c.263-.201.857-.542 1.32-.758.734-.342 1.01-.392 2.18-.392 1.17 0 1.448.05 2.182.392.462.216 1.056.557 1.32.758l.48.366.793-.793.792-.793-.49-.42c-1.713-1.462-4.34-2.12-6.699-1.677Zm33.227 3.222v1.129H29.356v-2.258H40.643v1.129ZM7.91 63.4c-.272.086-.813.476-1.204.867-.997 1-1.273 2.054-.882 3.377.23.775 1.398 1.943 2.173 2.172 1.323.391 2.377.116 3.375-.882 1.378-1.378 1.42-3.132.107-4.591-.913-1.016-2.232-1.364-3.569-.943Zm1.911 2.42c.7.7.204 1.91-.782 1.91-.58 0-1.129-.548-1.129-1.128 0-.58.549-1.129 1.129-1.129.275 0 .564.128.782.347Zm30.822.435c0 .643-.062.845-.346 1.13l-.346.346H30.049l-.347-.347c-.284-.284-.346-.486-.346-1.129v-.782H40.643v.782Z" fill="#fff"/></svg>