<svg width="70" height="71" fill="none" xmlns="http://www.w3.org/2000/svg"><path fill-rule="evenodd" clip-rule="evenodd" d="M2.265.165A3.559 3.559 0 0 0 .422 1.719l-.38.645-.035 32.328C-.016 56.039.018 67.193.11 67.53c.203.752.86 1.577 1.603 2.014l.656.385 16.86.037 16.861.036V67.673H19.468c-16.439 0-16.624-.003-16.895-.274-.272-.272-.273-.456-.273-32.415S2.3 2.841 2.573 2.57c.27-.27.456-.273 17.7-.273 16.954 0 17.436.007 17.75.261l.323.262.037 11.022.037 11.022h2.184v-4.514H41.8c.658 0 1.429-.065 1.712-.144.724-.201 1.445-.96 1.553-1.637l.087-.544h6.805v4.514h-2.326v1.576c0 1.56-.003 1.577-.351 1.736-.313.142-.511.08-1.801-.56l-1.45-.722-1.698 1.698-1.697 1.697.72 1.45c.642 1.29.704 1.487.561 1.8-.158.348-.176.352-1.736.352h-1.576v4.513h-3.456c-1.9 0-3.666.06-3.924.135-.62.178-1.345.897-1.513 1.5-.074.267-.135 2.04-.135 3.939l-.001 3.453H24.872V36.078H31.575V33.89H18.916c-14.003 0-13.243-.049-13.965.898l-.394.517v13.233c0 13.152.002 13.236.282 13.611.155.208.452.505.66.66.376.28.459.282 18.87.35l18.492.069.038 2.222.037 2.223h-4.521v2.325h22.583l-.04-1.129-.04-1.128-2.222-.038-2.224-.037v-4.507h6c5.995 0 5.999 0 6.45-.308.25-.169.582-.481.74-.693.284-.384.286-.455.322-12.296.036-11.834.034-11.914-.25-12.5-.46-.95-1.01-1.203-2.762-1.263l-1.47-.05v-4.484h-1.484c-1.264 0-1.517-.037-1.71-.25-.125-.138-.227-.324-.227-.413 0-.09.314-.787.696-1.55l.696-1.386-1.7-1.7-1.7-1.7-1.388.695c-.763.383-1.47.696-1.573.696-.103 0-.289-.112-.413-.25-.181-.2-.227-.543-.227-1.71v-1.46h-2.325V17.99l1.06.064c1.24.074 1.961.39 2.63 1.15.634.723.824 1.27.824 2.373v.962h2.326v-.86c0-2.35-1.192-4.31-3.232-5.314-.76-.374-1.099-.453-2.219-.519l-1.32-.077-.076-2.394c-.08-2.596-.186-3.06-.943-4.16-.544-.79-1.391-1.504-2.328-1.962-.715-.35-.895-.374-3.215-.44l-2.457-.071-.084-.41c-.127-.622-.359-.977-.909-1.397-.468-.357-.6-.385-2.05-.428l-1.55-.046v-.827c0-.455-.072-1.065-.16-1.357-.205-.686-.95-1.55-1.668-1.934L38.21.039 20.494.009C5.932-.013 2.687.014 2.265.166Zm3.32 6.95c-.922.626-1.024.896-1.07 2.815-.037 1.586-.013 1.787.274 2.35.207.402.504.72.862.921l.547.307 14.252-.032c14.155-.033 14.254-.035 14.629-.316.85-.634.938-.885.987-2.818.051-1.997-.025-2.304-.746-3.002l-.477-.463-14.402-.035-14.402-.037-.455.31Zm37.344.788v1.094h-2.325V6.81h2.325v1.094ZM11.3 10.126l-.039 1.128-2.223.038-2.223.037V8.997h4.525l-.04 1.129Zm9.03 0-.04 1.128-3.386.037-3.386.036v-2.33h6.851l-.04 1.129Zm4.514 0-.04 1.128-1.128.04-1.129.04V8.997H24.883l-.04 1.129Zm4.514 0-.04 1.128H27.13l-.04-1.128-.04-1.129h2.348l-.04 1.129Zm4.515 0-.04 1.128h-2.189l-.04-1.128-.04-1.129h2.348l-.04 1.129Zm15.83-.902c.397.135.898.46 1.246.808.821.82 1.01 1.554 1.01 3.916v1.893l-3.37-.037-3.371-.036-.175-.593c-.366-1.238-1.148-1.657-3.105-1.661l-1.333-.003v-2.153l1.495-.062c1.322-.054 1.558-.102 2.03-.416.545-.36.99-1.077.99-1.595 0-.279.06-.288 1.958-.288 1.465 0 2.127.058 2.624.227Zm-44.12 6.92c-.919.625-1.02.894-1.07 2.832-.04 1.553-.013 1.816.236 2.304.155.303.483.695.729.87l.448.32h14.388c14.385 0 14.388 0 14.774-.287.213-.157.525-.49.694-.738.281-.412.308-.61.308-2.258 0-1.652-.026-1.845-.31-2.267a3.414 3.414 0 0 0-.774-.773l-.461-.31H6.034l-.453.307Zm37.347.786v1.094h-2.325v-2.188h2.325v1.094ZM11.3 19.153l-.039 1.128-2.223.038-2.223.037v-2.332h4.525l-.04 1.129Zm9.03 0-.04 1.128-3.386.037-3.386.036v-2.33h6.851l-.04 1.129Zm4.514 0-.04 1.128-1.128.04-1.129.04V18.024H24.883l-.04 1.129Zm4.514 0-.04 1.128-1.128.04-1.129.04V18.024H29.397l-.04 1.129Zm4.543.034v1.162h-2.325v-2.325H33.9v1.163ZM5.636 25.124a3.103 3.103 0 0 0-.752.717c-.299.418-.33.613-.365 2.236-.034 1.64-.013 1.82.274 2.312.17.294.485.663.697.821.386.286.414.287 14.717.323l14.331.035.465-.312c.255-.172.604-.52.775-.775.285-.422.311-.615.311-2.267s-.026-1.845-.31-2.267a3.418 3.418 0 0 0-.774-.773l-.461-.311H20.303c-13.743.001-14.256.01-14.667.26Zm48.58.428c.126.916.779 1.87 1.56 2.278.886.464 1.89.43 3.014-.101l.88-.417.526.525.526.526-.43.945c-.368.813-.42 1.066-.373 1.803.093 1.46 1.108 2.522 2.607 2.726l.65.088v2.153h-4.488l-.048-1.273c-.042-1.144-.099-1.377-.558-2.306-.615-1.243-1.408-2.02-2.68-2.621-.845-.4-1.02-.433-2.35-.433-1.331 0-1.503.032-2.358.437a5.698 5.698 0 0 0-2.71 2.717c-.414.86-.458 1.069-.465 2.213l-.007 1.265h-2.291l-2.292.001v-2.151l.616-.084c2.295-.315 3.354-2.431 2.28-4.558l-.417-.825.573-.551.573-.551.821.393c1.488.713 2.953.473 3.867-.635.424-.515.716-1.286.716-1.893 0-.358.005-.36 1.082-.36h1.081l.095.689ZM11.26 28.214v1.094l-2.223.038-2.223.037v-2.339l2.223.038 2.223.038v1.094Zm9.068-.034-.04 1.128-3.385.037-3.386.036v-2.33h6.851l-.04 1.129Zm4.515 0-.04 1.128-1.128.04-1.129.04V27.05H24.883l-.04 1.129Zm4.543.034v1.163H27.06V27.05h2.326v1.163Zm4.514 0v1.163h-2.325V27.05H33.9v1.163Zm20.812 3.853c1.188.646 1.898 2.067 1.7 3.397l-.094.62-3.24-.037-3.24-.037-.118-.562c-.246-1.17.603-2.839 1.749-3.436 1.045-.545 2.177-.526 3.243.055Zm-41.195 8.525v4.513H6.814V36.078H13.517v4.514Zm9.029 0v4.513H15.843V36.078H22.546v4.514Zm-13.543.074v2.262l1.128-.04 1.129-.04.038-2.222.037-2.223H9.003v2.263Zm9.029-.006v2.257h2.325v-4.514h-2.325v2.257Zm9.028 0v2.257h2.326v-4.514H27.06v2.257Zm40.63 6.77v9.027h-4.514v-13.54h-2.189v13.54H58.66V47.43h-2.189V56.457h-2.325v-4.513h-2.189v4.513H33.9V38.403h33.79v9.027Zm-30.164-6.58c-1.1.504-1.437 1.235-1.437 3.123 0 .737.06 1.55.135 1.808.19.665.916 1.36 1.597 1.532l.571.144.046 1.526c.04 1.35.083 1.578.374 1.985.645.905.992.97 5.217.973 3.638.003 3.788-.008 4.376-.305.335-.17.749-.517.919-.772.296-.447.309-.58.309-3.434 0-2.86-.012-2.985-.312-3.43a3.418 3.418 0 0 0-.772-.772c-.44-.296-.585-.311-3.024-.311h-2.563l-.147-.583c-.17-.673-.82-1.356-1.514-1.587-.77-.257-3.133-.193-3.775.102Zm3.078 3.161v1.094h-2.189v-2.188h2.189v1.094Zm6.84 3.351v2.257h-6.84V47.46l.487-.091c.708-.133 1.536-.936 1.72-1.668l.15-.597h4.482v2.257Zm-15.87 1.163v1.094H6.815V47.43h24.76v1.095ZM9.004 53.038v1.094H6.814v-2.188h2.189v1.094Zm4.514 0v1.094h-2.189v-2.188h2.189v1.094Zm4.515 0v1.094h-2.189v-2.188h2.189v1.094Zm4.514 0v1.094h-2.189v-2.188h2.189v1.094Zm4.514 0v1.094h-2.188v-2.188h2.188v1.094Zm4.515 0v1.094h-2.189v-2.188h2.189v1.094Zm0 5.676v2.257H27.06v-2.325h-2.188v2.325h-4.504l-.04-1.129-.04-1.128-1.128-.04-1.128-.04V60.972H13.517v-2.325h-2.189v2.325H6.814v-4.514h24.76v2.257Zm27.086 1.094v1.163h-24.76v-2.325h24.76v1.162Zm4.515 0v1.163h-2.189v-2.325h2.189v1.162Zm4.514 0v1.163h-2.189v-2.325h2.189v1.162Zm-13.543 5.608v2.257h-9.029v-2.166c0-1.191.041-2.207.091-2.257.05-.05 2.082-.09 4.515-.09h4.423v2.256Z" fill="#fff"/></svg>