<svg width="70" height="66" fill="none" xmlns="http://www.w3.org/2000/svg"><path fill-rule="evenodd" clip-rule="evenodd" d="M31.412.558c-.26.261-.348.574-.49 1.747-.335 2.764-.277 2.579-.907 2.861l-.564.252-1.488-1.164c-1.697-1.327-1.96-1.476-2.402-1.365-.175.044-1.35 1.12-2.61 2.39-1.96 1.977-2.291 2.372-2.291 2.73 0 .316.3.812 1.23 2.03.678.886 1.232 1.633 1.232 1.66 0 .025-.097.29-.216.588-.24.6-.134.564-2.452.843-2.573.31-2.53.24-2.53 4.147 0 2.896.096 3.551.558 3.8.141.075.981.23 1.867.342 2.362.301 2.295.278 2.57.887.28.623.385.407-1.227 2.51-.775 1.012-1.032 1.455-1.032 1.774 0 .367.316.744 2.315 2.756 2.877 2.895 2.591 2.832 4.85 1.08l1.611-1.25.571.242.571.243.283 2.096c.247 1.834.321 2.128.597 2.35.287.234.599.256 3.567.256 2.969 0 3.281-.022 3.568-.255.275-.223.35-.517.597-2.351l.282-2.096.577-.245.577-.246 1.605 1.254c2.249 1.757 1.965 1.82 4.844-1.078 2-2.012 2.316-2.389 2.316-2.756 0-.32-.258-.762-1.033-1.774-1.612-2.104-1.506-1.887-1.223-2.514.272-.604.114-.551 2.643-.89.852-.113 1.662-.267 1.799-.34.454-.243.55-.91.55-3.795 0-3.906.042-3.838-2.53-4.147-2.319-.28-2.213-.243-2.453-.843a6.288 6.288 0 0 1-.215-.589c0-.026.554-.773 1.23-1.66.938-1.226 1.232-1.712 1.232-2.034 0-.366-.324-.748-2.364-2.792-1.842-1.845-2.443-2.368-2.718-2.368-.236 0-.913.428-2.034 1.286l-1.68 1.287-.561-.252-.562-.252-.282-2.081c-.247-1.82-.322-2.114-.597-2.337-.287-.233-.6-.255-3.589-.255-3.243 0-3.278.003-3.592.318Zm5.576 2.32c.042.245.152 1.084.243 1.863.104.891.246 1.511.382 1.67.248.286 2.824 1.366 3.26 1.366.159 0 .462-.142.675-.316.213-.174.898-.709 1.524-1.188l1.136-.872L45.5 6.689c.71.709 1.29 1.351 1.29 1.428-.001.077-.49.763-1.087 1.525-.597.76-1.124 1.54-1.172 1.73-.058.232.023.566.247 1.014.184.367.44.994.57 1.392.136.412.371.812.547.928.17.111 1.134.31 2.142.44l1.833.237.038 1.88c.044 2.192.328 1.907-2.215 2.229-1.682.213-2.04.366-2.211.945-.047.16-.302.804-.568 1.432-.577 1.365-.604 1.265.88 3.195l1.048 1.363-1.346 1.354-1.347 1.354-1.498-1.155c-1.68-1.294-1.9-1.356-2.944-.827-.355.18-.911.407-1.236.504-.873.261-1.05.576-1.24 2.208a53.49 53.49 0 0 1-.243 1.86l-.078.445h-3.77l-.077-.445a53.49 53.49 0 0 1-.243-1.86c-.19-1.631-.368-1.947-1.24-2.208a9.12 9.12 0 0 1-1.236-.504c-1.044-.53-1.264-.467-2.944.828l-1.498 1.154-1.346-1.352-1.345-1.353 1.121-1.468c.617-.807 1.156-1.605 1.198-1.773.046-.182-.058-.572-.258-.972a12.143 12.143 0 0 1-.563-1.37c-.127-.387-.341-.805-.477-.928-.163-.147-.802-.296-1.876-.434a52.4 52.4 0 0 1-1.94-.275c-.308-.065-.311-.085-.273-1.946l.038-1.881 1.833-.237c1.008-.13 1.972-.329 2.142-.44.176-.116.411-.516.546-.928.13-.399.387-1.025.57-1.392.224-.448.306-.782.248-1.014-.048-.19-.575-.97-1.172-1.73-.597-.762-1.086-1.448-1.087-1.525-.001-.077.58-.72 1.29-1.428l1.291-1.288 1.137.872c.626.48 1.311 1.014 1.524 1.188.212.174.512.316.665.316.506 0 3.138-1.13 3.324-1.428.097-.157.249-.901.336-1.655.088-.754.194-1.57.236-1.816l.076-.445h3.77l.078.445ZM33.14 9.483c-1.04.253-2.587 1.061-3.398 1.777-.385.34-.983 1.037-1.329 1.548a7.982 7.982 0 0 0 2.17 11.126c4.558 3.052 10.615.777 12.184-4.577.376-1.285.32-3.155-.136-4.522-.434-1.303-1.355-2.72-2.322-3.577-.816-.722-2.575-1.61-3.614-1.824-.947-.195-2.645-.171-3.555.05Zm4.247 2.507c3.746 1.757 4.615 6.491 1.724 9.393-2.298 2.307-5.878 2.294-8.2-.03-3.115-3.119-1.767-8.262 2.541-9.691.336-.112 1.022-.167 1.779-.144 1.05.032 1.367.102 2.156.472Zm-3.12 23.943c-.298.297-.336.455-.336 1.37v1.034H10.446l-.298.317c-.286.305-.297.429-.297 3.21v2.894l.36.284c.474.373.906.359 1.377-.046l.384-.33.044-2.069.044-2.067H33.93v.884c0 1.067.18 1.51.702 1.727.303.126.482.126.785 0 .522-.217.702-.66.702-1.727v-.884h20.933v2.061c0 2.007.009 2.071.336 2.399.54.54 1.313.436 1.653-.222.156-.301.2-.984.2-3.073 0-2.668-.002-2.687-.336-3.022l-.335-.336H36.12v-1.034c0-.915-.039-1.073-.336-1.37a1.101 1.101 0 0 0-.759-.337c-.266 0-.547.125-.758.337Zm-5.12 8.6a3.696 3.696 0 0 0-.745.7c-.284.384-.286.467-.286 9.617s.003 9.234.286 9.617c.158.213.493.528.746.7l.46.313 5-.039c4.923-.038 5.008-.044 5.429-.344.901-.645.871-.295.871-10.247 0-9.951.03-9.602-.871-10.246-.422-.3-.506-.306-5.43-.345l-5-.039-.46.313ZM38.72 54.85v8.428h-8.482V46.422h8.482v8.428ZM.597 46.72c-.575.279-.597.534-.597 7.047v6.235l.336.336.336.336h7.263v.322c0 .19-.42.87-1.026 1.661-1.145 1.495-1.26 1.907-.69 2.477l.336.337h8.644l.336-.337c.564-.564.452-.97-.687-2.483-.562-.748-1.024-1.499-1.026-1.668l-.003-.309h7.263l.336-.336.336-.336-.004-6.345c-.005-6.687.003-6.597-.637-6.938-.397-.212-20.079-.211-20.516 0Zm49.068.08c-.939.47-.957.589-.958 6.217v5.019l-1.094 2.647c-.73 1.766-1.095 2.825-1.095 3.182 0 .632.378 1.228.92 1.453.278.115 3.235.148 11.015.121l10.635-.037.417-.418c.756-.757.715-1.045-.603-4.267l-1.177-2.878v-5.073c0-4.997-.005-5.079-.297-5.451-.599-.762-.516-.756-9.242-.755-7.383 0-8.081.02-8.521.24Zm-30.1 6.817v4.865H2.189v-9.73h17.376v4.865Zm45.97-.685v4.18H50.897v-8.36h14.64v4.18ZM34 58.987c-.848.231-1.535 1.322-1.374 2.181.236 1.263 1.656 1.927 2.802 1.312 1.21-.65 1.265-2.477.098-3.243-.371-.244-1.106-.364-1.526-.25Zm32.778 2.304.785 1.919-9.244.035c-5.084.02-9.269.01-9.299-.02-.03-.03.3-.925.733-1.989l.787-1.934 7.726.035 7.726.035.786 1.92Zm-32.05-.434c.026.132-.043.229-.162.229-.255 0-.408-.224-.288-.419.124-.2.397-.085.45.19Zm-23.097.483c0 .551.083.775.485 1.302l.485.636h-1.648c-.907 0-1.648-.031-1.648-.07 0-.038.184-.325.41-.637.322-.445.41-.71.41-1.232v-.665h1.505v.666Z" fill="#fff"/></svg>