<svg width="70" height="70" fill="none" xmlns="http://www.w3.org/2000/svg"><path fill-rule="evenodd" clip-rule="evenodd" d="M9.04 1.129v1.129h2.26V0H9.04v1.129Zm9.042-.945c-.272.086-.815.477-1.206.868-.992.993-1.275 2.06-.888 3.35.203.676 1.083 1.705 1.665 1.946l.429.178V18.063h2.26V6.526l.429-.178c.582-.24 1.463-1.27 1.666-1.946.365-1.217.11-2.285-.78-3.275C20.741.111 19.42-.237 18.081.184Zm9.041.945v1.129h2.26V0h-2.26v1.129Zm-7.128 1.475c.701.7.205 1.912-.783 1.912-.58 0-1.13-.55-1.13-1.13 0-.58.55-1.128 1.13-1.128.275 0 .565.128.784.346ZM9.04 6.774V9.03H15.821V6.774h-4.52V4.516H9.04v2.258Zm18.084-1.13v1.13h-4.521v11.289h2.26V9.03h2.26v6.774H33.904v-2.258h-4.52V9.031h7.029l.178.429c.393.948 1.82 1.83 2.965 1.83 1.75 0 3.39-1.639 3.39-3.388 0-1.758-1.617-3.386-3.364-3.386-1.17 0-2.593.87-2.991 1.83l-.178.428h-7.029V4.516h-2.26v1.129Zm29.926.135c-3.298.605-5.993 2.361-7.763 5.059-.371.566-.713 1.149-.76 1.295-.076.24-.274.269-2.116.31-2.21.05-2.435.123-3.103 1.017-.261.35-.291.59-.291 2.345 0 1.754.03 1.995.291 2.345.589.787.985.968 2.238 1.02l1.167.049-.465 1.362c-.604 1.768-.897 3.457-1 5.772l-.084 1.87h1.222c.939 0 1.222.045 1.222.193 0 .46 1.036 2.213 1.633 2.763.8.737 2.127 1.374 3.12 1.498l.757.094v4.744l-.954.636c-.524.35-1.317.961-1.761 1.359l-.808.722-5.585-1.586-5.585-1.587V24.836h-8.553l-1.195-1.2c-.657-.659-1.26-1.199-1.342-1.199-.081 0-.99.604-2.019 1.341-1.029.737-1.92 1.34-1.982 1.34-.061 0-.225-.714-.364-1.587-.14-.873-.317-1.953-.396-2.399l-.143-.811h-6.438l-.143.811c-.078.446-.256 1.526-.395 2.399-.14.873-.304 1.588-.366 1.588s-.915-.577-1.895-1.28c-.98-.705-1.877-1.317-1.992-1.361-.134-.052-.643.348-1.432 1.125l-1.224 1.205-1.188.235c-2.899.572-5.16 2.314-6.453 4.97-.926 1.904-.901 1.419-.901 17.402 0 16.2-.038 15.544 1.013 17.64 1.028 2.048 2.868 3.631 5.221 4.49l1.037.378 16.705.038L40.686 70v-9.038h5.651V69.993H65.55V57.162c0-8.361-.053-13.21-.152-13.92-.335-2.405-1.475-5.303-2.693-6.842-.536-.677-.62-.89-.782-1.963-.1-.662-.183-1.271-.184-1.353-.002-.081.585-.526 1.303-.987 3.578-2.296 5.955-5.717 6.76-9.73.134-.669.198-1.992.198-4.093 0-2.822-.03-3.207-.326-4.233-.684-2.367-2.118-4.599-3.806-5.926-1.082-.85-2.7-1.679-3.995-2.045-1.182-.334-3.742-.489-4.823-.29ZM40.339 7.12c.7.7.204 1.911-.783 1.911-.581 0-1.13-.548-1.13-1.129 0-.58.549-1.128 1.13-1.128.275 0 .564.128.783.346Zm20.973 1.143c1.153.343 2.54 1.114 3.432 1.908 1.546 1.376 2.774 3.78 3.006 5.88l.097.883H61.054l-.048-1.543c-.051-1.666-.174-1.98-1.02-2.611-.368-.275-.626-.295-4.7-.362l-4.309-.07.378-.565c1.182-1.765 3.285-3.157 5.531-3.66 1.173-.264 3.293-.196 4.426.14Zm-59.053.953c-.693.218-1.876 1.441-2.088 2.16-.392 1.323-.116 2.378.883 3.375.992.991 2.06 1.274 3.352.888.677-.203 1.707-1.082 1.948-1.664l.178-.428h7.029v4.516h2.26v-6.774H6.533l-.178-.428c-.24-.581-1.271-1.461-1.948-1.664a3.815 3.815 0 0 0-2.147.019Zm1.914 2.42c.7.7.204 1.911-.783 1.911-.581 0-1.13-.549-1.13-1.129s.549-1.129 1.13-1.129c.275 0 .564.128.783.347Zm31.992 3.04v1.129h2.26v-2.258h-2.26v1.129Zm22.604 1.129v1.129H45.206v-2.258H58.769v1.129Zm0 5.645v2.257h.783c.654 0 .844.06 1.148.364.308.308.352.451.286.939-.065.484-.251.75-1.18 1.682L58.706 27.8l.525 3.698c.289 2.035.478 3.742.42 3.795-.057.053-.93.328-1.94.612-1.01.284-1.949.55-2.085.59-.227.067-.247-.084-.247-1.842V32.74h2.26V30.48h-2.49c-3.013 0-3.406-.095-4.366-1.054-.8-.8-1.055-1.442-1.055-2.667v-.795h-2.283l.073-.388c.04-.213.115-.764.166-1.223.12-1.086.544-2.688 1.075-4.063l.425-1.1h9.586v2.259Zm8.999-1.06c-.297 4.197-2.586 7.848-6.268 9.997-.116.068-.195-.18-.264-.826l-.1-.922.708-.748c1.794-1.894 1.927-3.858.368-5.418-.408-.408-.84-.741-.962-.741-.184 0-.22-.212-.22-1.27v-1.27h6.822l-.084 1.198Zm-17.694 1.406c-.7.7-.204 1.911.783 1.911.581 0 1.13-.548 1.13-1.129 0-.58-.549-1.128-1.13-1.128-.275 0-.564.128-.783.346Zm-29.54 1.03c.039.135.205 1.104.37 2.151.165 1.048.348 2.024.405 2.17.061.154.476.403.995.598l.891.334 1.945-1.395 1.946-1.394.922.921.922.92-1.396 1.944-1.397 1.943.335.89c.195.519.445.933.6.994.144.057 1.122.24 2.17.404 1.05.165 2.019.332 2.155.37.212.06.247.25.247 1.328 0 1.188-.017 1.261-.318 1.33-.175.041-1.228.225-2.341.41-1.113.184-2.072.39-2.131.458-.059.068-.245.495-.414.95l-.307.826.473.655c.26.36.518.735.574.832.08.14-.665.173-3.545.162-2.53-.01-3.478-.053-3.097-.143.876-.205 2.159-.96 2.784-1.636.317-.344.777-1.05 1.023-1.568.405-.854.448-1.07.448-2.29 0-1.273-.03-1.408-.528-2.415-.636-1.284-1.454-2.084-2.767-2.706-.855-.404-1.071-.446-2.293-.446-1.274 0-1.41.03-2.417.527-1.286.634-2.087 1.451-2.709 2.763-.404.853-.447 1.071-.447 2.284 0 1.212.043 1.43.447 2.283.246.518.707 1.224 1.024 1.568.625.677 1.907 1.43 2.784 1.636.38.09-.568.133-3.098.143-2.88.011-3.625-.023-3.545-.162.056-.097.314-.47.574-.83l.471-.654-.335-.892c-.197-.521-.446-.936-.6-.997-.146-.058-1.123-.24-2.172-.405-1.05-.165-2.019-.331-2.155-.37-.211-.06-.247-.25-.247-1.32 0-1.071.036-1.261.247-1.321.136-.038 1.106-.205 2.155-.37 1.049-.164 2.026-.347 2.171-.404.155-.061.404-.475.6-.994l.334-.89-1.396-1.943-1.396-1.943.922-.921.922-.921 1.96 1.406 1.96 1.405.875-.35c.49-.198.915-.465.969-.61.052-.142.235-1.116.406-2.163.171-1.048.343-2.017.381-2.152.06-.212.25-.248 1.322-.248s1.263.036 1.322.248Zm15.631 11.042v6.773h-6.048l-.508-.706c-.28-.388-.508-.757-.508-.819 0-.062.716-.227 1.59-.366.874-.14 1.955-.317 2.401-.395l.813-.143v-6.431l-.813-.142c-.446-.079-1.53-.257-2.406-.396-.99-.158-1.58-.313-1.554-.41.022-.086.612-.961 1.311-1.945l1.272-1.788 2.225-.003 2.225-.003v6.774ZM8.161 29.146c.639.896 1.162 1.678 1.162 1.737 0 .06-.715.221-1.59.36-.873.14-1.954.317-2.401.396l-.812.142v6.431l.812.143c.447.078 1.528.256 2.402.395.874.139 1.589.304 1.589.366 0 .063-.228.431-.507.819-.548.761-.53.757-1.753.392-2.183-.652-3.993-2.563-4.587-4.842-.585-2.24.118-4.726 1.804-6.386.727-.716 2.088-1.574 2.503-1.579.119-.001.739.73 1.378 1.627Zm12.094 2.636c1.214.358 2.348 1.91 2.348 3.215 0 1.304-1.134 2.857-2.348 3.215-1.324.39-2.38.115-3.379-.882-1.429-1.428-1.429-3.237 0-4.668.991-.992 2.059-1.27 3.38-.88Zm39.503 5.955c0 .098-3.965 3.366-4.016 3.31-.026-.03-.248-.452-.493-.94l-.445-.887.496-.207c.465-.195 4.12-1.309 4.352-1.327.058-.005.106.018.106.05Zm2.43 2.248c.858 2.008 1.032 3.024 1.018 5.948-.01 2.26-.06 2.852-.31 3.764-.597 2.182-1.84 4.637-3.125 6.169-.768.916-2.243 1.907-3.548 2.383l-1.057.385-6.11.043-6.11.044V54.188h5.5c5.707 0 6-.027 6.63-.609.249-.23 3.551-6.526 3.551-6.77 0-.087-1.973-.998-2.03-.937-.031.034-.732 1.41-1.557 3.06l-1.5 2.999h-4.943v-1.964c0-2.927.41-4.643 1.575-6.603.486-.818 2.341-2.864 2.596-2.864.078 0 .602.921 1.164 2.046.561 1.126 1.07 2.043 1.128 2.038.058-.004 1.569-1.24 3.356-2.746s3.28-2.74 3.32-2.742c.038-.002.242.398.452.889Zm-18.041 1.031c2.098.594 3.864 1.123 3.924 1.175.06.052-.047.376-.238.719-.192.343-.536 1.184-.766 1.867-.23.684-.442 1.268-.473 1.298-.03.03-1.356-.312-2.946-.76l-2.892-.817-.039-1.928-.04-1.929h-2.252v-1.25l.954.273c.524.15 2.67.758 4.768 1.352Zm-39.714.59c.423.257 1.235.637 1.805.845l1.037.378 15.575.038 15.575.04v8.991l-.665.1a4.533 4.533 0 0 0-3.788 3.784l-.1.664h-2.228V45.157h-9.041v11.289h-4.521v11.29h-4.915c-5.293 0-5.81-.056-7.225-.772-.998-.505-2.294-1.763-2.808-2.727-.893-1.673-.875-1.395-.875-13.405V39.914l.703.614c.386.337 1.048.823 1.471 1.079Zm38.91 5.957c1.375.392 2.61.746 2.746.786.219.064.248.278.248 1.827v1.755h-5.651v-2.54c0-1.398.036-2.54.08-2.54.043 0 1.203.32 2.578.712Zm-34.303.98v1.13h11.302v-2.258H9.04v1.129Zm20.344 3.388v4.515h-4.52V47.415h4.52v4.516ZM9.04 53.06v1.128h11.302V51.931H9.04v1.129Zm31.646 3.386v2.258h-1.347c-1.536 0-2.092-.174-2.645-.831a2.238 2.238 0 0 1 0-2.852c.557-.662 1.06-.82 2.614-.827l1.378-.006v2.258Zm22.603 4.798v6.492H48.597V60.99l3.426-.062c3.743-.068 4.33-.173 6.236-1.114 1.72-.85 3.438-2.457 4.423-4.14.295-.504.553-.918.572-.92.02 0 .035 2.919.035 6.49ZM9.04 57.575v1.13H15.821v-2.259h-6.78v1.13Zm25.571 1.242c0 .063.27.389.6.725.673.686 1.712 1.227 2.613 1.362l.601.09v6.741H20.342V58.705h7.135c3.924 0 7.134.051 7.134.113Zm-25.57 3.274v1.129h6.78v-2.258h-6.78v1.129Zm13.562 2.258v1.129h2.26V63.22h-2.26v1.129Zm4.52 0v1.129h2.26V63.22h-2.26v1.129Zm4.521 0v1.129h2.26V63.22h-2.26v1.129Z" fill="#fff"/></svg>