<svg width="62" height="70" fill="none" xmlns="http://www.w3.org/2000/svg"><path fill-rule="evenodd" clip-rule="evenodd" d="M19.255.31c-1.58.724-2.245 1.922-2.25 4.062-.003 1.233-.056 1.51-.338 1.792-.542.541-1.018.414-1.926-.513-1.577-1.611-2.856-2.055-4.523-1.571-.854.247-1.165.484-3.002 2.282-2.3 2.252-2.736 2.95-2.736 4.39 0 1.267.298 1.877 1.586 3.246.9.958 1.084 1.244.991 1.546-.218.711-.395.788-1.816.788-1.724 0-2.723.332-3.58 1.187-1.01 1.008-1.189 1.75-1.18 4.886.008 2.902.13 3.504.913 4.53.72.942 1.88 1.395 3.587 1.4.78.002 1.502.06 1.603.127.184.122.567.764.567.949 0 .054-.456.588-1.013 1.187-1.229 1.318-1.65 2.18-1.654 3.393-.006 1.352.428 2.046 2.639 4.227 1.705 1.681 2.054 1.951 2.519 1.951.735 0 1.516-.775 1.516-1.506 0-.453-.275-.814-1.836-2.41-1.251-1.28-1.837-2-1.837-2.26 0-.237.376-.77 1.006-1.426 1.187-1.234 1.546-1.986 1.546-3.233 0-1.042-.29-1.837-.962-2.632-.779-.923-1.629-1.254-3.426-1.334-2.228-.1-2.17-.018-2.17-3.035 0-3.01-.006-3 1.913-3 1.751 0 2.518-.258 3.454-1.164.59-.571.846-.983 1.054-1.703.466-1.611.13-2.606-1.434-4.245-.627-.657-.98-1.169-.98-1.42 0-.467 3.423-3.97 3.88-3.97.158 0 .804.487 1.436 1.083 1.276 1.202 2.011 1.584 3.047 1.584 1.203 0 2.01-.346 2.926-1.255.971-.964 1.231-1.749 1.231-3.72 0-.654.084-1.21.2-1.326.139-.138.988-.2 2.743-.2 3.119 0 3.067-.031 3.067 1.868 0 2.291.578 3.392 2.203 4.201 1.722.857 3.29.473 5.08-1.243.57-.546 1.136-.992 1.258-.991.123 0 .45.15.724.332 1.132.748 2.421.147 2.421-1.128 0-1.403-2.136-2.487-4.013-2.037-.683.163-1.093.428-2.09 1.35-1.938 1.795-2.487 1.576-2.617-1.046-.067-1.355-.15-1.732-.521-2.364-.243-.413-.648-.914-.9-1.112-.95-.746-1.424-.83-4.612-.827-2.577.003-3.126.05-3.694.31ZM34.78 11.563c-9.635 1.592-17.107 8.663-19.218 18.188-.416 1.878-.498 6.376-.153 8.445.494 2.968 1.59 5.94 3.063 8.308l.674 1.083-.652.661-.653.661-.55-.533-.552-.534-6.54 6.54c-7.527 7.529-7.463 7.444-7.47 9.958-.002 1.213.063 1.551.457 2.352 1.423 2.894 4.812 4.105 7.72 2.76.873-.404 1.84-1.298 7.51-6.949l6.509-6.485-.54-.556-.54-.556.651-.635.652-.636 1.644.939c6.713 3.832 14.905 4.084 21.812.67 9.82-4.852 14.879-15.825 12.207-26.477-2.13-8.484-9.004-15.079-17.684-16.964-1.956-.425-6.446-.554-8.347-.24Zm-13.873.683c-3.948.858-7.03 3.833-8.01 7.733-.184.728-.25 1.585-.21 2.723.053 1.581.078 1.68.524 2.063.632.542 1.497.54 2.044-.007.377-.377.41-.534.41-1.983 0-3.225 1.37-5.621 3.96-6.923.883-.445 2.43-.853 3.23-.853 1.151 0 1.895-1.025 1.477-2.034-.389-.937-1.423-1.154-3.425-.72ZM41.717 14.6A20.2 20.2 0 0 1 58.4 32.051c.495 3.942-.252 8.06-2.115 11.662-4.537 8.773-14.825 12.99-24.257 9.941-6.928-2.239-12.355-8.47-13.613-15.632-.319-1.815-.313-5.254.011-7.113 1.434-8.211 8.214-14.929 16.46-16.31 1.932-.322 4.942-.322 6.83.002Zm-6.602 1.486c-3.883.718-6.935 2.289-9.795 5.041-2.96 2.849-4.913 6.592-5.487 10.515-.31 2.11-.13 5.57.393 7.56 1.39 5.294 5.027 9.663 10.047 12.07 3.215 1.54 6.434 2.116 9.848 1.76 4.498-.468 8.292-2.262 11.448-5.413 7.29-7.279 7.285-18.942-.01-26.292-2.42-2.438-5.256-4.058-8.653-4.942-2.064-.537-5.739-.678-7.791-.299Zm7.178 3.23c1.478.39 3.667 1.379 4.885 2.207 1.148.78 3.134 2.733 3.985 3.92 3.536 4.926 3.787 11.775.626 17.103-1.096 1.847-3.512 4.26-5.362 5.354-4.617 2.73-10.198 2.957-14.985.607a15.854 15.854 0 0 1-8.3-9.922c-.332-1.163-.38-1.696-.372-4.167.01-2.59.05-2.96.461-4.3 1.778-5.785 6.319-9.89 12.218-11.048 1.684-.33 5.13-.206 6.844.246Zm-11.254 3.31c-.495.253-.62.46-1.003 1.65-.726 2.256-1.89 3.656-3.859 4.636-1.07.533-1.488.992-1.493 1.64-.005.684.281 1.112.924 1.38.507.211.654.204 1.373-.07 1.174-.444 2.713-1.544 3.682-2.63 1.483-1.66 2.687-4.438 2.456-5.665-.176-.94-1.189-1.399-2.08-.942Zm11.921.775c-.221.222-.448.615-.503.876-.198.935-.258.966-2.017 1.065-1.857.103-2.57.35-3.394 1.172-.765.764-1.172 1.726-1.176 2.783-.006 1.23.341 1.933 1.588 3.222.593.614 1.079 1.247 1.079 1.407 0 .429-3.49 3.909-3.92 3.909-.197 0-.68-.335-1.095-.76-1.598-1.632-2.88-2.13-4.492-1.743-1.172.28-2.05.97-2.574 2.02-.867 1.737-.407 3.15 1.026 3.15.765 0 1.31-.483 1.475-1.306.11-.544.602-1.028 1.047-1.028.132 0 .713.453 1.29 1.006 1.359 1.303 2.305 1.731 3.572 1.617.52-.047 1.202-.215 1.515-.374.314-.158 1.484-1.203 2.602-2.321 1.847-1.85 2.056-2.121 2.313-3.002.489-1.68.084-2.878-1.494-4.421-.663-.649-.931-1.038-.931-1.35 0-.758.452-.99 1.933-.99.727-.001 1.61-.081 1.96-.178.815-.226 1.915-1.215 2.306-2.072.347-.761.399-2.04.098-2.432-.562-.73-1.608-.849-2.208-.25ZM22.217 52.208l-.538.537-.836-.821-.835-.822.536-.552.536-.553.838.837.837.836-.538.538Zm-3.42 1.84 1.875 1.877-5.383 5.367c-2.96 2.951-5.595 5.445-5.853 5.54a2.757 2.757 0 0 1-3.711-3.111c.1-.55.812-1.33 5.567-6.09 2.998-3.003 5.492-5.46 5.541-5.46.05 0 .934.845 1.965 1.877Z" fill="#fff"/></svg>