<svg width="70" height="70" fill="none" xmlns="http://www.w3.org/2000/svg"><path fill-rule="evenodd" clip-rule="evenodd" d="M45.405.081c-1.449.242-2.936 1.202-3.74 2.413-.988 1.488-.957 1.184-1.012 9.97l-.049 7.897H22.653c-17.89 0-17.955.002-18.804.288-1.324.447-2.41 1.357-3.147 2.636-.71 1.233-.7.973-.702 18.424-.001 10.408.048 16.484.137 16.957.315 1.671 1.548 3.242 3.143 4.004l.89.424 8.069.069 8.07.068.037 2.222.037 2.222h-4.52V70h29.269v-2.325h-4.52l.037-2.222.038-2.222 8.072-.068 8.073-.069.892-.439c1.028-.506 2.001-1.406 2.524-2.334.599-1.064.744-2.11.747-5.38l.002-2.956 2.29-.067c1.918-.056 2.418-.115 3.065-.364 1.477-.569 2.68-1.766 3.29-3.276l.313-.773.037-21.127c.025-14.753-.008-21.342-.112-21.84-.33-1.594-1.488-3.165-2.842-3.856-1.356-.692-1.444-.697-11.711-.677-5.27.01-9.734.045-9.922.076Zm20.728 2.712a3.54 3.54 0 0 1 1.083 1.083c.357.577.42.827.463 1.809l.048 1.139H42.909l.062-1.128c.036-.671.152-1.303.286-1.558.322-.615 1.028-1.28 1.667-1.572.52-.238 1.096-.25 10.545-.219l9.994.033.67.413Zm1.566 22.013V40.6H42.943V9.012H67.7v15.794ZM45.165 18.07l.035 6.735 10.155.035 10.155.035v-13.54H45.13l.035 6.735Zm18.02-.034v4.512H47.457V13.524h15.728v4.513Zm-22.567 5.675v1.162H4.511v13.538h36.107l.001 3.931c0 2.163.06 4.294.133 4.737.276 1.687 1.347 3.255 2.805 4.11 1.185.694 1.894.755 8.79.757l6.325.003v2.188H2.323v-14.52c0-14.215.006-14.533.272-15.083a3.42 3.42 0 0 1 1.941-1.725c.691-.24 1.614-.252 18.405-.256l17.677-.005v1.163Zm0 7.863v4.512H6.836V27.062h33.782v4.513Zm4.542-3.385.04 1.128 10.155.035 10.155.035v-2.326H45.121l.04 1.128Zm-.028 4.547v1.162H65.51v-2.324H45.13v1.162Zm0 4.513v1.162h15.865v-2.325H45.132v1.163Zm18.11-.978c-.038.101-.052.609-.03 1.128l.042.944 1.128.04 1.128.039v-2.336h-1.098c-.796 0-1.118.051-1.17.185ZM4.513 46.274v5.676H20.38l-.036-5.641-.036-5.64-7.898-.036-7.899-.035v5.676Zm18.053-4.512v1.163H38.43V40.6H22.565v1.162Zm-4.514 4.513v3.35H6.837v-6.7h11.215v3.35Zm49.623-1.117c-.043 2.214-.047 2.24-.458 2.902-.256.414-.669.827-1.083 1.083l-.67.414-9.926.038c-11.262.043-10.632.1-11.675-1.06-.793-.882-.919-1.385-.919-3.678v-1.932h24.774l-.043 2.233Zm-45.11 1.117v1.162H38.43v-2.325H22.565v1.163Zm29.406 0v1.162H58.671v-2.325h-6.7v1.163Zm-29.405 4.51v1.165h11.363l-.04-1.129-.04-1.128-5.641-.035-5.642-.036v1.164Zm13.631-1.069c-.05.05-.091.573-.091 1.163v1.07h2.325v-2.324h-1.071c-.59 0-1.113.041-1.163.091Zm22.475 7.6c0 .471-.062 1.075-.136 1.343-.178.641-.982 1.566-1.69 1.944l-.567.303H4.717l-.548-.295c-1.269-.686-1.846-1.682-1.846-3.187v-.962H58.672l-.001.855Zm-20.272 8.137.038 2.222H22.565V65.51c0-1.19.041-2.206.092-2.257.05-.051 3.605-.077 7.899-.057l7.806.035.037 2.222Z" fill="#fff"/></svg>