<svg width="59" height="70" fill="none" xmlns="http://www.w3.org/2000/svg"><path fill-rule="evenodd" clip-rule="evenodd" d="M24.617.083c-6.729.523-12.305 1.842-16.71 3.954C3.536 6.131.844 8.803.201 11.682c-.183.822-.18 45.793.004 46.616 1.092 4.89 8.144 9.067 18.276 10.825 6.753 1.172 14.637 1.17 21.404-.007 5.116-.889 10.228-2.722 13.28-4.762 2.659-1.776 4.387-3.93 4.862-6.057.183-.818.185-45.805.003-46.622C56.785 6.095 48.025 1.605 35.798.279c-2.342-.254-8.942-.37-11.18-.196Zm7.704 2.876c9.607.525 17.602 3.044 21.211 6.684 2.29 2.31 2.291 4.577.002 6.866-6.801 6.802-27.335 8.94-41.188 4.29-1.976-.664-5.04-2.19-6.344-3.161-2.57-1.914-3.52-3.89-2.794-5.823 1.68-4.485 11.181-8.24 22.397-8.852 2.908-.159 3.877-.16 6.716-.004ZM5.596 20.889c8.386 5.164 23.93 6.793 37.02 3.877 4.193-.933 8.964-2.954 11.426-4.838l1.268-.97-.04 4.835-.042 4.835-.367.71c-.534 1.034-1.01 1.594-2.123 2.5-3.463 2.819-9.123 4.738-16.805 5.7-2.832.353-10.796.353-13.634 0-8.966-1.12-15.768-3.807-18.344-7.247-.98-1.309-1.017-1.556-1.017-6.776v-4.572l.852.679a22.23 22.23 0 0 0 1.806 1.266ZM3.86 34.25c1.078.882 1.936 1.416 3.665 2.283 10.736 5.38 29.657 5.73 41.568.769 2.022-.843 4.267-2.147 5.522-3.209l.613-.519.042 1.08c.022.593.022 2.772 0 4.843l-.042 3.763-.392.75c-1.478 2.818-6.111 5.432-12.356 6.968-7.5 1.846-16.996 2.006-24.816.42-7.187-1.457-12.637-4.283-14.272-7.4l-.386-.738-.04-4.824c-.023-2.654-.007-4.825.035-4.825s.429.288.859.64Zm1.908 15.941c3.916 2.384 9.49 4.044 16.332 4.863 2.921.35 11.113.35 14.04 0 8.105-.97 14.504-3.152 18.31-6.245l.857-.697-.04 4.829-.039 4.828-.399.821c-.482.993-1.807 2.36-3.147 3.246-8.619 5.701-26.778 6.976-39.336 2.76-1.976-.663-5.04-2.19-6.344-3.16-1.31-.975-2.115-1.866-2.62-2.898l-.376-.77-.04-4.827-.038-4.829.857.697a21.749 21.749 0 0 0 1.983 1.382Z" fill="#fff"/></svg>