<svg width="70" height="70" fill="none" xmlns="http://www.w3.org/2000/svg"><path fill-rule="evenodd" clip-rule="evenodd" d="M39.98.066C28.32.694 20.502 2.969 18.54 6.304l-.387.66-.04 6.108-.042 6.108H9.676l-4.838 4.838L0 28.856v26.48h18.066l.044 3.85.043 3.848.388.66c1.622 2.759 7.426 4.852 16.141 5.82 6.803.757 15.042.622 21.544-.353 7.203-1.08 11.946-3.018 13.39-5.473l.384-.654V6.963l-.385-.654C67.701 3.054 59.957.725 49.021.117 46.656-.014 41.963-.04 39.98.066Zm8.97 2.31c6.912.404 12.78 1.555 16.247 3.184 1.335.628 2.15 1.241 2.432 1.83.218.457.218.525 0 .982-.728 1.526-5.069 3.2-10.767 4.154-10.331 1.728-23.377 1.165-31.342-1.353-2.77-.876-4.554-1.877-4.995-2.801-.218-.457-.218-.525 0-.98 1.067-2.24 9.239-4.472 18.325-5.007 2.814-.165 7.369-.17 10.1-.01ZM30.72 4.688c-.575.252-1.162.971-1.272 1.557-.05.261-.068 1.177-.041 2.034.052 1.685.173 1.996 1.02 2.629.388.29.479.291 13.65.291 13.17 0 13.261-.002 13.649-.291.902-.674.972-.892.972-3.028s-.07-2.354-.972-3.028c-.387-.288-.504-.291-13.483-.322-10.669-.025-13.173.004-13.524.158Zm25.789 3.192v1.13H31.645v-2.26h24.864v1.13Zm-34.824 4.187c2.93 1.51 7.599 2.647 13.353 3.25l2.258.237v5.626c0 5.264-.016 5.626-.248 5.626-.136 0-1.105-.099-2.154-.219-6.28-.718-11.005-2.032-13.527-3.761-1.042-.715-1.024-.604-1.024-6.335 0-2.807.048-5.082.106-5.055.058.027.615.31 1.236.63Zm46.124 4.464c0 4.72-.02 5.15-.259 5.511-1.135 1.721-6.197 3.467-12.58 4.339l-1.187.162-.667-.657-.667-.657-.72.365c-.396.2-.755.364-.796.364-.041 0-.075-2.342-.075-5.205v-5.206l1.73-.17c5.888-.575 11.12-1.826 13.88-3.319.622-.336 1.178-.619 1.236-.629.059-.01.106 2.286.105 5.102ZM48.597 20.98c0 2.893-.03 5.26-.066 5.26-.037 0-.402-.148-.813-.329l-.745-.33-.461-1.506-.461-1.506h-6.495v-6.85h9.041v5.26ZM18.083 37.258v15.819H2.26V30.479h9.041v-9.04H18.083v15.82ZM9.04 25.677v2.542H3.888l2.54-2.542c1.397-1.398 2.556-2.542 2.577-2.542.02 0 .036 1.144.036 2.542Zm4.521-.847v1.13h2.26V23.7h-2.26v1.13Zm9.648 1.476c3.037 1.185 7.498 2.138 12.229 2.614.804.08 1.551.147 1.66.147.165 0 .197.912.197 5.65 0 5.285-.016 5.649-.248 5.648-.136 0-1.105-.098-2.154-.218-6.28-.718-11.005-2.032-13.527-3.761-1.043-.716-1.024-.6-1.024-6.384V24.85l.797.48c.438.263 1.37.703 2.07.976Zm21.606-.127.394 1.28 1.023.327c.562.18 1.528.581 2.145.89l1.122.563 1.248-.611 1.247-.612 1.793 1.793 1.793 1.792-.611 1.248-.611 1.247.562 1.122c.31.617.71 1.582.89 2.145l.328 1.022 1.28.395 1.28.394v5.208l-1.28.394-1.28.395-.328 1.022c-.18.562-.58 1.528-.89 2.145l-.562 1.122.611 1.247.611 1.248-1.793 1.792-1.793 1.793-1.247-.612-1.248-.61-1.122.562c-.617.309-1.583.71-2.145.89l-1.023.327-.394 1.28-.395 1.279-2.432.038-2.433.039v-4.6h2.084c1.702 0 2.29-.057 3.214-.308 5.398-1.472 9.031-5.907 9.346-11.412.422-7.354-5.7-13.424-13.125-13.013l-1.519.084v-4.661l2.433.038 2.432.04.395 1.278Zm22.993 3.912c0 4.72-.02 5.15-.259 5.51-.57.866-2.351 1.848-4.825 2.661l-1.625.534-.043-.626-.043-.625-1.495-.465-1.495-.466-.553-1.29-.553-1.29.725-1.445.726-1.445-1.28-1.286-1.281-1.286 1.869-.33c3.775-.669 7.378-1.777 9.215-2.834.389-.224.754-.414.812-.422.059-.008.106 2.289.105 5.105Zm-54.247-.742v1.13h2.26v-2.26h-2.26v1.13Zm31.292 2.74c1.603.51 2.795 1.254 4.097 2.556 1.29 1.29 2.033 2.474 2.57 4.096.33.998.375 1.353.375 3.037s-.044 2.039-.374 3.037c-.538 1.622-1.28 2.805-2.571 4.096-1.295 1.294-2.48 2.037-4.097 2.565-.946.31-1.407.372-2.826.385-.932.008-1.87-.033-2.084-.093-.382-.107-.388-.127-.388-1.238v-1.129l.6.108c1.082.194 3.089.11 3.92-.165 2.577-.85 4.444-2.714 5.316-5.306.362-1.08.362-3.444-.002-4.52-1.23-3.64-4.568-5.92-8.198-5.598-.55.049-1.143.128-1.318.176-.31.086-.318.062-.318-1.055 0-1.072.02-1.148.318-1.212.175-.037.445-.1.6-.137.744-.183 3.279.047 4.38.397ZM4.52 33.87v1.13h11.301v-2.26H4.521v1.13Zm39.616 2.799c1.275.596 2.1 1.407 2.732 2.686.498 1.009.528 1.142.528 2.424s-.03 1.415-.528 2.424c-.636 1.286-1.455 2.087-2.767 2.706-.839.396-1.084.445-2.215.447-.701 0-1.509-.082-1.801-.186l-.53-.187V36.574l.46-.143c.865-.27 1.026-.287 2.118-.238.852.039 1.297.145 2.003.475Zm-39.616 1.72v1.13h11.301v-2.26H4.521v1.13Zm18.85 1.532c3.23 1.236 7.81 2.173 12.9 2.64l1.025.094v5.635c0 5.273-.016 5.635-.248 5.635-.136 0-1.105-.098-2.154-.218-6.33-.724-11.135-2.069-13.54-3.789-1.035-.74-1.01-.587-1.01-6.356v-5.152l.803.484c.442.266 1.443.728 2.225 1.027Zm44.44 3.708c0 5.9.073 5.563-1.43 6.564-1.55 1.032-4.425 2.01-8.318 2.833l-.354.075.328-.349.327-.348-.723-1.44-.723-1.44.553-1.291.553-1.29 1.503-.468 1.502-.468V41.117l1.095-.294c1.622-.435 3.37-1.104 4.485-1.716.544-.299 1.037-.55 1.095-.56.059-.01.106 2.277.106 5.08Zm-63.29 2.67v4.52h11.301v-9.04H4.521v4.52Zm9.041 0v2.26H6.781v-4.52H13.562v2.26Zm9.81 7.181c3.23 1.236 7.809 2.173 12.9 2.64l1.024.094V67.5l-1.025-.09c-1.996-.178-5.878-.777-7.677-1.185-4.318-.981-7.424-2.355-8.047-3.56-.167-.322-.204-1.336-.204-5.545v-5.152l.804.483c.442.267 1.443.73 2.225 1.028Zm44.438 3.729c0 5.869.053 5.6-1.298 6.497-2.366 1.57-7.193 2.866-13.253 3.56-1.049.12-2.018.218-2.154.218-.23 0-.247-.33-.247-4.943 0-2.72.034-4.944.075-4.944.041 0 .4.165.797.366l.722.366 1.287-1.269 1.286-1.268 1.978-.317c3.865-.62 7.614-1.715 9.606-2.809.544-.298 1.037-.55 1.095-.56.059-.009.106 2.287.106 5.103ZM48.527 67.601c-.128.127-6.181.206-7.612.099l-1.359-.102v-6.612H46.045l.473-1.518.472-1.519.768-.308.769-.308.037 5.096c.02 2.804.003 5.131-.037 5.172Z" fill="#fff"/></svg>