<svg width="155" height="160" fill="none" xmlns="http://www.w3.org/2000/svg"><path fill-rule="evenodd" clip-rule="evenodd" d="M12.264.525C6.948 1.814 2.257 6.344.66 11.73.265 13.063.2 19.98.2 61.352c0 47.071.013 48.116.62 50.084.797 2.586 2.573 5.322 4.694 7.229 1.795 1.615 3.15 2.403 5.911 3.437 1.664.623 2.44.653 19.597.766l17.865.117-5.298 10.611-5.299 10.611-7.727.002c-4.359.001-8.233.143-8.89.325-1.79.498-3.701 2.146-4.707 4.057-.805 1.531-.887 1.949-.766 3.904.074 1.204.371 2.644.66 3.201.716 1.384 2.357 2.972 3.821 3.699 1.192.593 2.45.606 56.64.606 54.188 0 55.447-.013 56.638-.606 1.465-.727 3.105-2.315 3.822-3.699.288-.557.585-1.997.66-3.201.121-1.955.039-2.373-.766-3.904-1.006-1.911-2.918-3.559-4.708-4.057-.657-.182-4.531-.324-8.89-.325l-7.727-.002-5.298-10.611-5.299-10.611 17.865-.117c17.158-.113 17.933-.143 19.597-.766 2.761-1.034 4.117-1.822 5.912-3.437 2.12-1.907 3.896-4.643 4.693-7.229.607-1.968.62-3.013.62-50.084 0-41.37-.064-48.29-.458-49.62-1.62-5.464-6.302-9.935-11.748-11.22-2.921-.69-127.124-.677-129.971.014ZM142.935 6.33c2.148 1.009 4.013 2.82 5.173 5.025l.869 1.653.083 41.517.082 41.518h-43.3c-23.815 0-43.241-.056-43.17-.123.072-.068 1.929-.864 4.127-1.768 2.54-1.046 4.217-1.928 4.605-2.421.554-.706.61-1.297.61-6.503 0-5.497-.029-5.757-.703-6.51-.441-.494-2.388-1.448-5.23-2.566-2.49-.98-4.654-1.895-4.81-2.034-.155-.139-.654-1.42-1.107-2.846l-.825-2.595 2.743-4.378c2.09-3.336 2.744-4.64 2.746-5.478.004-.89-.531-1.84-2.815-5.004-3.156-4.371-4.36-5.628-5.382-5.617-.384.004-2.87.558-5.524 1.232l-4.826 1.224-2.026-1.466a254.876 254.876 0 0 0-2.328-1.673c-.166-.114-.48-2.634-.696-5.6-.362-4.959-.452-5.45-1.12-6.102-.813-.796-9.861-3.886-11.378-3.886-1.041 0-1.868.78-5.882 5.551l-2.434 2.893h-5.769l-3.342-4.04c-3.424-4.14-3.728-4.404-5.059-4.404h-.772l.095-9.46.095-9.461.87-1.653c1.522-2.894 4.1-4.98 7.009-5.671.673-.16 28.185-.259 64.402-.231l63.226.049 1.763.828Zm-97.42 14.052c-1.433 4.319-2.485 7.963-2.338 8.097.385.353 4.495 1.666 4.668 1.492.08-.08 1.318-3.662 2.75-7.959L53.2 14.2l-2.224-.716c-1.223-.394-2.366-.77-2.539-.835-.173-.066-1.488 3.414-2.921 7.733Zm34.616-4.234v2.671l2.576-.091 2.576-.09.09-2.58.091-2.581h-5.333v2.67Zm10.616-.013v2.659h50.581v-5.317H90.747v2.658ZM35.075 17.2c-4.025 4.155-4.025 4.105.006 8.215l3.033 3.091 1.878-1.88 1.878-1.882-1.7-1.723-1.7-1.724 1.7-1.724 1.7-1.724-1.884-1.887-1.884-1.887-3.027 3.125Zm20.869-1.23-1.863 1.886 1.696 1.72 1.697 1.72-1.7 1.724-1.7 1.724 1.958 1.951 1.958 1.951 2.953-3.03c2.656-2.726 2.952-3.146 2.952-4.192 0-1.05-.292-1.46-3.044-4.252l-3.044-3.09-1.863 1.887Zm13.26 10.8v2.658h72.124V24.11H69.203v2.659Zm0 10.633v2.659h45.272v-5.317H69.203v2.658Zm-36.141 1.273c2.639.859 2.732.922 2.737 1.841.008 1.586.602 8.28.807 9.1.173.689 2.902 2.918 6.906 5.639 1.479 1.005 2.52.959 7.581-.34l4.215-1.082.678.829c.373.456 1.23 1.615 1.902 2.575l1.223 1.745-2.604 4.2c-1.789 2.884-2.604 4.5-2.604 5.16 0 .528.645 2.897 1.432 5.264 1.052 3.16 1.612 4.406 2.108 4.686.371.21 2.572 1.158 4.89 2.107l4.215 1.727.089 3.169.088 3.169-4.46 1.783c-2.452.98-4.76 2.062-5.127 2.404-.368.342-.843 1.245-1.056 2.007l-.387 1.385h-7.609c-4.184 0-7.609-.106-7.608-.235 0-.129.294-1.008.653-1.954 4.558-11.998-1.32-25.973-13.204-31.398-6.384-2.915-14.402-2.941-20.546-.068l-1.717.803-.084-6.227a573.17 573.17 0 0 1 0-12.649l.084-6.42L8.163 40.9c1.374 1.654 2.895 3.408 3.38 3.898l.883.892h10.235l1.025-1.038c.564-.57 2.149-2.397 3.523-4.06 1.374-1.662 2.638-2.973 2.81-2.914.172.06 1.542.509 3.044.998Zm36.14 9.36v2.66H114.476v-5.318H69.203v2.659Zm50.819 21.333-.082 13.383h-5.308l-.084-6.646-.084-6.646h-5.296v13.474l-2.576-.091-2.575-.091-.084-8.066-.083-8.066-2.571.091-2.57.09-.084 8.067-.083 8.065-2.57-.09-2.571-.091-.086-5.395-.085-5.395H87.937v10.946h-5.308v5.32l29.271-.08 29.272-.08.09-2.58.091-2.58h-5.333v-21.58h-5.3l-.082 10.712-.082 10.712-2.573.09-2.572.092-.082-13.383-.081-13.383-2.572-.09-2.573-.091-.081 13.382Zm-96.716-2.972c3.03.92 5.769 2.58 8.08 4.9 6.054 6.07 7.582 14.777 3.948 22.48l-1.07 2.267H5.51v-26.53l1.595-.983c4.853-2.992 10.798-3.774 16.202-2.134Zm125.827 38.705c0 3.069-.121 4.066-.675 5.549-.922 2.469-3.509 5.059-5.974 5.983l-1.804.677H13.963l-1.805-.677c-2.465-.924-5.051-3.514-5.974-5.983-.554-1.483-.675-2.48-.675-5.549v-3.741h143.624v3.741Zm-74.402 1.772c-.12.121-.22 1.323-.22 2.67v2.45h5.645l-.09-2.58-.09-2.58-2.513-.09c-1.382-.049-2.611.009-2.732.13Zm30.221 26.385c2.834 5.676 5.153 10.461 5.153 10.634 0 .209-11.008.314-32.784.314s-32.784-.105-32.784-.314c0-.173 2.319-4.958 5.153-10.634l5.153-10.319H99.8l5.152 10.319Zm27.435 17.089c1.331 1.334 1.037 3.235-.64 4.129-.983.524-107.87.524-108.852 0-1.677-.894-1.97-2.795-.64-4.129l.824-.824h108.484l.824.824Z" fill="#2C2C2C"/></svg>