<svg width="160" height="160" fill="none" xmlns="http://www.w3.org/2000/svg"><path fill-rule="evenodd" clip-rule="evenodd" d="M29.112.506c-1.757.622-4.268 3.264-4.749 4.995-.84 3.028-.234 5.583 1.855 7.817 3.078 3.29 7.585 3.538 10.923.599.79-.695 1.624-1.719 1.854-2.275l.42-1.012H64V21.3H1.636l-.818.819-.818.818V126.355l.818.819.818.818h59.697v16.004H33.636l-.818.819c-.811.811-.818.869-.818 7.183s.007 6.372.818 7.183l.818.819h92.728l.818-.819c.811-.811.818-.869.818-7.183s-.007-6.372-.818-7.183l-.818-.819H98.667v-16.004h59.697l.818-.818.818-.819V22.936l-.818-.818-.818-.819H96V10.63h24.586l.419 1.012c.23.556 1.064 1.58 1.854 2.275 3.225 2.84 7.601 2.694 10.713-.358 5.94-5.826.008-15.569-8.033-13.193-1.491.441-4.872 3.5-4.872 4.408 0 .465-1.536.521-14.182.521H92.303l-.818.819c-.818.818-.818.82-.818 8.002v7.183H69.333v-7.183c0-7.183 0-7.184-.818-8.002l-.818-.819H39.414l-.419-1.011c-.569-1.374-3-3.452-4.597-3.931a8.52 8.52 0 0 0-5.286.153Zm4.736 5.608c1.654 1.654.482 4.516-1.848 4.516-1.37 0-2.667-1.297-2.667-2.667 0-1.37 1.297-2.668 2.667-2.668.65 0 1.333.303 1.848.819Zm96 0c1.654 1.654.482 4.516-1.848 4.516-1.37 0-2.667-1.297-2.667-2.667 0-1.37 1.297-2.668 2.667-2.668.649 0 1.333.303 1.848.819ZM64 39.703v13.07l-3.667 3.716c-4.546 4.61-4.632 4.979-1.852 8.01l1.815 1.978-2.845.167c-3.513.206-4.118.725-4.118 3.538v1.796H26.081l-.419-1.011c-.938-2.266-4.297-4.323-7.058-4.323-4.183 0-7.934 3.783-7.934 8.002 0 4.219 3.751 8.002 7.934 8.002 2.76 0 6.12-2.058 7.058-4.323l.419-1.012h27.252v1.849c0 1.519.147 1.995.819 2.667.734.735 1.095.819 3.527.819h2.71l-1.861 2.057c-2.916 3.223-2.858 3.42 2.569 8.848 5.423 5.425 5.577 5.47 8.706 2.515l2.03-1.918L72 97.1c.243 4.292.106 4.22 8 4.22s7.757.072 8-4.22l.167-2.949 2.03 1.918c3.129 2.954 3.283 2.91 8.706-2.515 5.427-5.428 5.485-5.625 2.569-8.848l-1.861-2.057h2.71c2.432 0 2.793-.084 3.527-.819.672-.672.819-1.148.819-2.667v-1.849h27.252l.419 1.012c.23.556 1.065 1.58 1.854 2.275 3.235 2.848 7.727 2.689 10.736-.381 3.185-3.249 3.175-8.033-.023-11.17-2.233-2.19-5.032-2.887-8.033-2-1.491.441-4.872 3.5-4.872 4.408 0 .465-1.488.522-13.667.522h-13.666v-1.797c0-2.813-.605-3.332-4.118-3.538l-2.845-.167 1.815-1.978c2.78-3.031 2.694-3.4-1.852-8.01L96 52.772V26.634h58.667v85.354H5.333V26.634H64v13.069Zm26.667.002v13.07l-1.066 1.1c-.586.605-1.186 1.1-1.333 1.1-.147 0-.268-1.208-.268-2.683 0-2.404-.085-2.768-.818-3.5-.812-.813-.87-.82-7.182-.82s-6.37.007-7.182.82c-.733.732-.818 1.096-.818 3.5 0 1.475-.105 2.682-.234 2.682s-.729-.48-1.333-1.065l-1.1-1.066V26.634h21.334v13.07Zm-79.182-6.918c-.516.516-.818 1.2-.818 1.849 0 .65.302 1.333.818 1.849.818.818.819.818 8 .818h7.182v22.369l.818.819.818.818h18.06l.819-.818c1.082-1.083 1.082-2.615 0-3.698-.818-.819-.82-.819-8-.819H32V33.605l-.818-.818-.818-.818H12.303l-.818.818Zm117.333 0-.818.818v22.369h-7.182c-7.181 0-7.182 0-8 .82-.516.515-.818 1.198-.818 1.848 0 .65.302 1.333.818 1.849l.818.818h18.061l.818-.818.818-.819V37.303h7.182c7.181 0 7.182 0 8-.818.516-.516.818-1.2.818-1.849 0-.65-.302-1.333-.818-1.849l-.818-.818h-18.061l-.818.818ZM82.667 55.43c0 2.738.572 3.476 3.632 4.676 2.797 1.098 3.315 1.002 5.379-.998l1.512-1.465 1.795 1.818 1.795 1.818-1.379 1.497c-1.876 2.036-1.956 2.605-.775 5.546 1.287 3.204 1.855 3.657 4.578 3.657h2.129v5.335h-2.148c-1.758 0-2.3.136-2.982.75-.852.766-2.536 4.527-2.536 5.662 0 .346.745 1.418 1.656 2.382l1.657 1.752-1.75 1.728c-.963.951-1.89 1.73-2.061 1.73-.17 0-.948-.627-1.728-1.392-1.707-1.676-2.711-1.776-5.526-.547-2.983 1.302-3.248 1.655-3.248 4.324v2.282h-5.334v-2.148c0-1.759-.136-2.3-.75-2.983-.801-.892-4.544-2.537-5.771-2.537-.411 0-1.507.69-2.468 1.554l-1.728 1.554-1.702-1.702-1.701-1.701 1.356-1.471c1.935-2.1 1.983-2.486.704-5.623-1.26-3.09-1.973-3.614-4.929-3.614h-1.677v-5.335h2.121c2.738 0 3.475-.572 4.675-3.632 1.098-2.798 1.001-3.317-.998-5.381L63 61.453l1.812-1.79 1.811-1.789 1.725 1.551c.958.862 2.053 1.55 2.464 1.55 1.227 0 4.97-1.645 5.771-2.536.614-.683.75-1.224.75-2.983v-2.149h5.334v2.122Zm-5.999 9.082c-4.733 1.725-7.645 6.101-7.255 10.903.86 10.596 14.766 13.555 19.893 4.233 1.105-2.01 1.191-2.373 1.187-5.001-.005-2.585-.105-3.02-1.142-4.943-1.902-3.527-4.78-5.351-8.829-5.596-1.654-.1-2.801.02-3.854.404Zm5.442 5.255c3.424 1.431 4.26 5.922 1.596 8.587-2.162 2.162-5.25 2.162-7.412 0-4.122-4.124.426-10.84 5.816-8.587Zm-61.595 3.031c.516.516.818 1.2.818 1.849 0 .65-.302 1.333-.818 1.849s-1.199.818-1.848.818c-.65 0-1.333-.302-1.849-.818s-.818-1.2-.818-1.85c0-.649.302-1.332.818-1.848s1.2-.819 1.849-.819 1.332.303 1.848.819Zm122.667 0c1.653 1.654.482 4.516-1.849 4.516-1.37 0-2.666-1.297-2.666-2.667 0-1.37 1.296-2.668 2.666-2.668.65 0 1.333.303 1.849.819Zm11.485 47.193v2.668H5.333v-5.335h149.334v2.667Zm-61.334 16.004v8.002H66.667v-16.004h26.666v8.002Zm29.334 16.004v2.667H37.333v-5.334h85.334v2.667Z" fill="#2C2C2C"/></svg>