<svg width="70" height="68" fill="none" xmlns="http://www.w3.org/2000/svg"><path fill-rule="evenodd" clip-rule="evenodd" d="M32.953.307c-3.079.602-5.722 2.374-7.42 4.975-1.256 1.922-1.754 3.659-1.754 6.117 0 2.453.499 4.2 1.743 6.1 3.43 5.241 10.414 6.747 15.6 3.364 6.027-3.932 6.92-12.357 1.848-17.427C41.506 1.974 39.826 1.02 37.687.44c-1.102-.3-3.53-.367-4.734-.132Zm3.937 2.27c5.182 1.096 8.397 6.698 6.68 11.635-.499 1.432-1.144 2.46-2.219 3.533-3.577 3.576-9.128 3.575-12.725-.001-3.544-3.524-3.539-9.157.011-12.705 2.193-2.191 5.24-3.1 8.253-2.463ZM30.13 8.74c-1.463.548-2.18 1.958-1.759 3.462.508 1.812 2.791 2.584 4.336 1.466.75-.544 1.095-1.283 1.093-2.34-.003-1.012-.385-1.736-1.2-2.276-.616-.407-1.812-.558-2.47-.312Zm7.91 0c-1.464.548-2.18 1.958-1.76 3.462.509 1.812 2.792 2.584 4.336 1.466.75-.544 1.096-1.283 1.093-2.34-.002-1.012-.384-1.736-1.2-2.276-.616-.407-1.812-.558-2.47-.312Zm-6.574 2.3c.375.452-.176 1.146-.666.838-.488-.308-.314-1.043.248-1.043.136 0 .324.092.418.205Zm7.91 0c.374.452-.177 1.146-.666.838-.489-.308-.315-1.043.247-1.043.136 0 .325.092.418.205ZM18.39 14.289A29.26 29.26 0 0 0 5.678 36.794L5.58 38.5h2.302v-.69c0-3.393 1.091-7.838 2.759-11.237 1.935-3.947 5.007-7.59 8.393-9.954 2.055-1.435 1.914-1.196 1.306-2.218-.288-.484-.59-.88-.672-.882-.082-.002-.657.344-1.278.769Zm31.909.549-.573.898 1.233.87c1.526 1.076 3.8 3.204 4.963 4.646 2.76 3.418 4.813 7.697 5.62 11.709.313 1.55.577 3.763.577 4.829v.711h2.26v-.69c0-.38-.068-1.35-.15-2.153-.707-6.896-3.667-13.13-8.536-17.98-1.348-1.343-4.34-3.738-4.668-3.738-.085 0-.411.404-.726.898ZM33.518 27.293c-.155.04-.625.138-1.044.22-1.12.217-1.427.584-1.428 1.7v.89l-.788.411-.789.412-.768-.377c-1.14-.558-1.442-.51-2.266.365-1.242 1.318-2.213 2.995-2.612 4.508-.234.888-.058 1.234.903 1.776l.765.432v1.742l-.765.432c-.961.542-1.137.889-.903 1.776.404 1.533 1.405 3.26 2.613 4.508.844.873 1.134.92 2.265.365l.768-.377.789.412.788.412v.85c0 1.103.223 1.41 1.243 1.718 1.01.305 3.96.341 5.17.064 1.202-.275 1.497-.621 1.497-1.753v-.898l.844-.403.844-.403.694.377c1.049.57 1.404.513 2.23-.364 1.242-1.318 2.213-2.994 2.612-4.508.234-.887.058-1.234-.903-1.776l-.765-.432V37.63l.765-.432c.961-.542 1.137-.888.903-1.776-.404-1.532-1.405-3.26-2.613-4.508-.846-.874-1.188-.93-2.23-.364l-.693.377-.844-.403-.844-.403v-.86c0-1.09-.223-1.415-1.17-1.704-.725-.222-3.704-.406-4.268-.264Zm2.737 2.262c.369.074.441.154.441.485 0 1.03.488 1.616 2.063 2.474 1.27.692 2.112.808 2.902.4.409-.21.448-.206.76.087.326.306 1.337 2.093 1.337 2.363 0 .076-.189.217-.42.313a3.12 3.12 0 0 0-.77.498c-.34.315-.35.376-.35 2.326 0 1.95.01 2.01.35 2.327.193.178.54.402.77.498.231.096.42.236.42.313 0 .236-.846 1.74-1.252 2.227l-.384.46-.476-.246c-.761-.393-1.854-.238-2.972.423-.505.298-1.07.673-1.254.834-.409.355-.724 1.057-.724 1.611 0 .347-.068.424-.441.499-.568.113-1.94.113-2.507 0-.373-.075-.441-.152-.441-.499 0-.552-.314-1.253-.724-1.617-.185-.164-.749-.54-1.254-.835-1.11-.649-2.215-.807-2.958-.424-.445.23-.471.228-.79-.07-.325-.306-1.337-2.094-1.337-2.364 0-.076.19-.216.42-.312.231-.096.578-.32.77-.498.341-.316.35-.377.35-2.327s-.009-2.01-.35-2.326a3.12 3.12 0 0 0-.77-.498c-.23-.096-.42-.237-.42-.314 0-.236.846-1.74 1.253-2.227.381-.457.387-.458.83-.23.785.407 1.67.299 2.86-.347.583-.316 1.211-.712 1.396-.88.413-.376.724-1.076.724-1.633 0-.321.073-.432.317-.48.517-.099 2.154-.106 2.63-.01Zm-2.579 3.448c-.894.224-2.166.977-2.783 1.646-.317.344-.778 1.05-1.024 1.568-.404.854-.447 1.07-.447 2.291 0 1.273.03 1.409.528 2.415.635 1.285 1.453 2.085 2.766 2.707.853.404 1.072.447 2.285.447 1.214 0 1.433-.043 2.286-.447 1.313-.622 2.13-1.422 2.766-2.707.498-1.008.527-1.14.527-2.422 0-1.28-.029-1.414-.527-2.422-.954-1.93-2.65-3.063-4.734-3.162-.602-.028-1.341.01-1.643.086Zm2.368 2.282c1.214.359 2.347 1.911 2.347 3.216 0 1.75-1.64 3.388-3.39 3.388-1.75 0-3.39-1.639-3.39-3.388 0-.887.324-1.603 1.055-2.335.991-.993 2.058-1.27 3.378-.88Zm-26.89 5.677c-3.943.836-7.132 3.543-8.443 7.168-1.533 4.237-.55 8.744 2.594 11.885 5.072 5.07 13.503 4.177 17.437-1.846 1.256-1.922 1.753-3.658 1.753-6.117 0-2.454-.5-4.201-1.743-6.099-1.603-2.444-3.865-4.064-6.793-4.862-1.1-.3-3.673-.369-4.805-.129Zm47.528-.002c-3.08.602-5.722 2.373-7.421 4.975-1.256 1.922-1.754 3.658-1.754 6.117 0 2.453.5 4.199 1.743 6.099 3.431 5.242 10.415 6.748 15.6 3.364 6.028-3.932 6.92-12.357 1.848-17.426-1.463-1.463-3.144-2.416-5.282-2.997-1.102-.3-3.531-.367-4.734-.132ZM13.18 43.229c1.594.331 3.21 1.228 4.468 2.479 3.547 3.526 3.538 9.14-.02 12.696-3.557 3.555-9.174 3.564-12.703.02-3.577-3.594-3.582-9.158-.011-12.727 2.206-2.205 5.215-3.103 8.266-2.468Zm47.439 0c5.182 1.097 8.397 6.698 6.679 11.636-.499 1.431-1.144 2.46-2.218 3.533-3.578 3.575-9.128 3.575-12.725-.002-3.544-3.524-3.54-9.157.01-12.705 2.193-2.19 5.241-3.1 8.254-2.462Zm-2.848 2.199c-.673.206-1.537 1.13-1.732 1.851-.515 1.913.777 3.576 2.776 3.57 1.584-.004 2.663-1.087 2.667-2.678.004-1.595-.975-2.712-2.477-2.827-.423-.032-.979.006-1.234.084Zm1.377 2.312c.375.452-.176 1.146-.665.838-.49-.308-.315-1.043.247-1.043.136 0 .324.092.418.205Zm-48.834 1.648c-1.131.326-2.01 1.843-1.807 3.122.217 1.376 1.29 2.289 2.695 2.292 1.503.004 2.629-.899 2.835-2.273.32-2.129-1.604-3.752-3.723-3.14Zm1.377 2.304c.375.452-.176 1.146-.665.838-.49-.308-.315-1.043.247-1.043.136 0 .324.093.418.205Zm42.166.524c-1.463.547-2.18 1.958-1.758 3.462.508 1.811 2.791 2.583 4.335 1.465.75-.543 1.096-1.282 1.093-2.339-.002-1.012-.385-1.737-1.2-2.276-.616-.407-1.812-.558-2.47-.312Zm7.91 0c-1.463.547-2.18 1.958-1.759 3.462.508 1.811 2.791 2.583 4.336 1.465.75-.543 1.095-1.282 1.093-2.339-.003-1.012-.385-1.737-1.2-2.276-.616-.407-1.812-.558-2.47-.312Zm-6.574 2.3c.376.451-.176 1.145-.665.837-.489-.308-.315-1.043.247-1.043.136 0 .325.093.418.205Zm7.91 0c.375.451-.176 1.145-.666.837-.488-.308-.314-1.043.248-1.043.136 0 .324.093.418.205Zm-42.796 8.11c-.66 1.098-.772.935 1.417 2.05 8.177 4.16 18.042 4.212 26.256.138 2.52-1.25 2.384-1.076 1.716-2.188l-.56-.93-2.018 1.005c-4.207 2.098-8.524 3.039-13.105 2.857-4.053-.16-7.476-1.04-11.128-2.858l-2.019-1.005-.559.93Z" fill="#fff"/></svg>