<svg width="24" height="20" fill="none" xmlns="http://www.w3.org/2000/svg"><path fill-rule="evenodd" clip-rule="evenodd" d="M12.204.064c-.195.087-.213.112-1.568 2.113-1.022 1.509-1.21 1.761-1.29 1.737-1.051-.322-1.081-.316-2.98.53-1.51.673-1.87.875-2.103 1.18-.171.223-3.945 6.319-4.078 6.587a2.37 2.37 0 0 0-.156.537c-.174 1.039.46 2.099 1.439 2.41l.257.082-.12.165c-.259.354-.289.476-.532 2.144-.131.901-.239 1.696-.239 1.767 0 .359.334.685.7.684.188 0 .386-.096 1.575-.76l1.36-.758.07.11c.655 1.016 2.002 1.307 2.95.637l.239-.169.24.169c.622.44 1.55.476 2.198.086.652-.392 1.08-1.163 1.08-1.948 0-.174.008-.187.105-.156.058.019.181.073.274.121.32.166 1.264.475 1.813.594a9.685 9.685 0 0 0 6.072-.664l.27-.125v.943c0 .77.014.973.076 1.108a.688.688 0 0 0 .576.392c.206.02.306-.024 1.788-.79 1.477-.764 1.576-.823 1.675-1.004l.105-.193-.011-4.534c-.012-4.495-.012-4.535-.108-4.667a1.36 1.36 0 0 0-.227-.232c-.126-.097-.195-.1-2.716-.124l-2.588-.024-2.413-1.217c-1.327-.67-2.42-1.226-2.43-1.236-.01-.01.405-.637.922-1.395.517-.757.964-1.422.992-1.477.076-.144.065-.49-.021-.66-.051-.101-.46-.425-1.319-1.043-.684-.492-1.298-.916-1.363-.942a.659.659 0 0 0-.514.022Zm1.48 2.4c.136.1.155.054-.34.773-.207.301-.349.464-.389.448a8.728 8.728 0 0 1-.58-.4l-.518-.373.077-.122c.042-.067.222-.334.4-.592l.324-.47.455.325.571.41Zm-2.028 2.07c.335.241.516.401.495.437-.018.03-.937 1.383-2.043 3.005l-2.01 2.95h-.845c-.474 0-.839-.02-.83-.044.059-.16 4.62-6.777 4.658-6.756.026.015.285.199.575.408Zm-3.084.638c0 .013-.919 1.372-2.042 3.02C4.533 11.12 4.48 11.19 4.229 11.33c-.642.353-1.16 1.05-1.337 1.797-.08.335-.18.484-.395.592-.353.175-.76.094-.958-.193-.13-.187-.175-.52-.093-.68.17-.33 3.828-6.201 3.932-6.312.079-.083.593-.34 1.436-.716a53.211 53.211 0 0 1 1.43-.624c.137-.045.328-.057.328-.022Zm8.488 3.785 1.054.524h1.666v6.052l-.557.269c-1.258.606-2.188.84-3.523.884-1.53.052-2.74-.251-4.338-1.085l-.61-.319-2.766-.024c-2.76-.024-2.767-.024-2.965-.132-.31-.17-.514-.381-.656-.678-.109-.227-.13-.334-.128-.634.003-.592.285-1.04.815-1.295l.26-.126 2.744-.028c3.04-.031 3.04-.031 3.87-.365.544-.22 1.029-.51 1.51-.906.435-.358.57-.529.608-.765.079-.501-.428-.96-.888-.804-.087.03-.273.158-.414.285-.743.674-1.558 1.036-2.477 1.1-.373.026-.435.02-.403-.037.022-.038.66-.98 1.42-2.096l1.38-2.028 1.672.842c.919.464 2.146 1.079 2.726 1.366Zm5.534 4.279v3.755l-.704.362-.703.361V9.481h1.407v3.755ZM4.199 16.313c.084.035.152.078.151.095 0 .016-.123.203-.272.415-.268.381-.277.389-.942.76-.37.206-.678.369-.685.361-.007-.008.038-.36.1-.784l.114-.77.306-.46.306-.46.385.389c.212.214.453.418.537.454Zm2.826.836c0 .642-.171.924-.597.983-.458.063-.77-.221-.802-.73-.016-.265-.003-.324.11-.5l.129-.2h1.16v.447Zm2.813 0c0 .703-.195.974-.703.974s-.704-.27-.704-.974v-.446h1.407v.446Z" fill="#2C2C2C"/></svg>