<svg width="24" height="24" fill="none" xmlns="http://www.w3.org/2000/svg"><path fill-rule="evenodd" clip-rule="evenodd" d="M1.621.071C1.091.2.562.605.278 1.101-.017 1.616 0 .961 0 11.998c0 11.039-.017 10.383.278 10.898.174.303.522.651.826.825.515.295-.139.278 10.878.279 6.55 0 10.124-.016 10.287-.047.564-.107 1.154-.536 1.45-1.054.298-.52.28.144.28-10.9 0-11.04.018-10.382-.277-10.898-.3-.525-.887-.952-1.45-1.057C22.107.013 18.519-.002 11.959 0 3.416.004 1.856.014 1.62.071Zm9.676 6.278v4.946H1.405V6.657c0-3.172.016-4.68.05-4.77a.787.787 0 0 1 .396-.418c.114-.05 1.02-.063 4.793-.064l4.653-.002v4.946Zm10.952-4.826c.07.053.173.155.226.226.096.129.096.165.109 4.838l.012 4.708h-9.893V1.402l4.708.012c4.672.012 4.71.013 4.838.109ZM6.035 2.953a.68.68 0 0 0-.27.277c-.086.17-.094.276-.094 1.312V5.67H4.544c-1.037 0-1.142.008-1.312.095a.745.745 0 0 0-.374.609c0 .232.166.502.374.608.17.087.275.095 1.312.095h1.127v1.127c0 1.037.008 1.142.095 1.312a.745.745 0 0 0 .608.374.745.745 0 0 0 .61-.374c.086-.17.094-.275.094-1.312V7.076h1.127c1.037 0 1.141-.008 1.312-.095a.745.745 0 0 0 .373-.608.745.745 0 0 0-.373-.61c-.17-.086-.275-.094-1.312-.094H7.078V4.542c0-1.037-.008-1.142-.095-1.312-.173-.339-.596-.463-.948-.277Zm8.438 2.813a.763.763 0 0 0-.363.607c0 .232.165.502.373.608.18.092.271.095 3.143.095 2.87 0 2.962-.003 3.142-.095a.745.745 0 0 0 .374-.608.745.745 0 0 0-.374-.61c-.18-.091-.269-.094-3.152-.092-2.862.002-2.973.006-3.143.095Zm-3.176 11.883v4.947l-4.708-.013c-4.672-.012-4.71-.013-4.838-.109a1.342 1.342 0 0 1-.226-.226c-.096-.129-.096-.165-.109-4.838l-.012-4.708h9.893v4.947Zm11.287-.239c-.012 4.673-.013 4.71-.11 4.838a1.34 1.34 0 0 1-.225.226c-.129.096-.165.097-4.838.11l-4.708.012v-9.894h9.893l-.012 4.708ZM6.035 14.205a.762.762 0 0 0-.364.607c0 .356.347.703.703.703.357 0 .704-.347.704-.704a.744.744 0 0 0-.374-.608.673.673 0 0 0-.669.002Zm8.788.31c-.324.16-.475.592-.316.91.045.088.537.619 1.095 1.18l1.015 1.02-1.015 1.02c-.558.56-1.048 1.087-1.09 1.169-.286.573.351 1.21.924.924.083-.041.61-.532 1.17-1.09l1.02-1.015 1.02 1.015c.56.558 1.086 1.049 1.169 1.09.572.286 1.21-.351.923-.924-.04-.082-.531-.609-1.09-1.17l-1.014-1.02 1.015-1.02c.558-.56 1.048-1.086 1.09-1.169.286-.573-.35-1.21-.924-.924-.083.042-.609.532-1.17 1.09l-1.02 1.015-1.02-1.015c-.56-.558-1.086-1.048-1.169-1.09a.69.69 0 0 0-.613.003Zm-11.6 2.503a.762.762 0 0 0-.365.607c0 .232.166.502.374.608.18.092.271.095 3.142.095 2.872 0 2.963-.003 3.143-.095a.745.745 0 0 0 .373-.608.744.744 0 0 0-.373-.61c-.18-.091-.27-.094-3.152-.092-2.862.002-2.974.006-3.143.095Zm2.812 2.813a.762.762 0 0 0-.364.607c0 .356.347.703.703.703.357 0 .704-.347.704-.703a.744.744 0 0 0-.374-.61.673.673 0 0 0-.669.003Z" fill="#2C2C2C"/></svg>