<svg width="70" height="70" fill="none" xmlns="http://www.w3.org/2000/svg"><path fill-rule="evenodd" clip-rule="evenodd" d="M52.187.103c-.801.05-1.402.154-1.54.267-.276.23-.452.88-.579 2.138-.132 1.316-.18 1.403-.97 1.769l-.695.321-1.286-.8c-1.549-.964-2-1.029-2.61-.376-1.52 1.624-2.42 2.684-2.501 2.945-.12.385.035.672 1.103 2.044l.869 1.117-.218.524c-.12.29-.234.543-.254.564-.02.022-1.16-.455-2.535-1.06-1.375-.604-2.613-1.098-2.75-1.098-.57 0-.953.681-2.958 5.265l-2.034 4.65-.035-8.196c-.039-8.92-.005-8.555-.798-8.753-.385-.097-1.08.216-1.205.544-.047.121-.085 1.284-.085 2.584v2.363l-1.062.094c-4.062.36-8.416 2.106-11.612 4.66-2.35 1.877-4.996 5.011-4.996 5.918 0 .521.505.99 1.065.99.38 0 .525-.127 1.213-1.059 2.958-4.013 6.44-6.467 11.095-7.82.936-.273 3.345-.691 3.989-.693h.308V52.768h-3.3c-4.696 0-4.645.037-4.645-3.307 0-1.6-.046-2.17-.195-2.38-.107-.154-.677-.565-1.267-.914-4.63-2.738-8.07-7.61-9.226-13.065-.36-1.696-.495-4.749-.284-6.387.088-.677.317-1.87.51-2.653.386-1.564.34-1.89-.312-2.187-.467-.212-.644-.191-1.044.123-.279.219-.418.568-.697 1.743-.544 2.296-.678 3.687-.592 6.12.154 4.325 1.352 8.009 3.805 11.698 1.201 1.808 3.987 4.571 5.844 5.797l1.404.927v1.74c0 2.005.175 2.694.898 3.538.26.303.75.685 1.088.848l.616.298v2.763c0 3.016.132 3.869.767 4.95 1.112 1.894 3.124 2.93 5.69 2.93h.94v1.968c0 1.673.036 2.011.24 2.256.366.44.99.506 1.44.153l.375-.294V56.852c0-12.511.001-12.581.273-12.495.389.123 10.15 4.413 10.236 4.498.038.039.017.357-.049.708-.105.566-.176.66-.626.84l-.508.201-1.042-.718c-1.495-1.032-1.587-1.015-3.164.582-1.57 1.59-1.588 1.69-.584 3.117.682.97.697 1.012.545 1.518-.172.572-.181.577-1.657.828-1.574.269-1.644.377-1.644 2.556 0 2.306.04 2.363 1.83 2.685l1.287.231.204.52.205.52-.736 1.068c-.41.596-.735 1.22-.735 1.412 0 .504 2.542 3.026 3.05 3.026.214 0 .805-.3 1.437-.73l1.073-.73.473.213c.26.116.492.222.514.234.022.012.14.566.263 1.23.328 1.786.397 1.834 2.617 1.834 2.238 0 2.364-.074 2.616-1.53.275-1.594.261-1.564.83-1.752.52-.17.538-.164 1.524.529 1.456 1.024 1.554 1.004 3.179-.647.82-.833 1.327-1.457 1.327-1.633 0-.156-.34-.779-.754-1.383l-.754-1.099.212-.53.213-.529 1.17-.182c.709-.11 1.3-.283 1.5-.44.32-.253.33-.316.33-2.15 0-2.31-.04-2.384-1.438-2.658-.901-.176-.697-.189 3.424-.208 3.157-.015 4.464-.067 4.67-.187.157-.091 1.309-1.252 2.56-2.579 1.742-1.85 2.292-2.52 2.356-2.872.046-.252.066-4.419.043-9.258l-.04-8.799-.385-.33-.384-.33H56.45l.35-.786c.191-.432.662-1.508 1.046-2.39l.698-1.604-.567-1.464c-.312-.805-.553-1.47-.535-1.475.017-.006.375-.174.795-.372l.764-.361 1.085.682c1.605 1.01 1.896 1.118 2.355.88.353-.184 2.67-2.671 2.944-3.16.21-.377.01-.805-.97-2.072l-.936-1.212.276-.764.276-.765 1.364-.307c1.685-.38 1.953-.499 2.136-.951.182-.45-.012-4.06-.241-4.488-.2-.372-.318-.408-2.127-.645-.814-.107-1.492-.215-1.508-.24-.015-.025-.17-.357-.342-.738l-.315-.693.834-1.32c.493-.781.833-1.473.833-1.694 0-.393-.46-.883-2.366-2.527-.65-.561-1.042-.8-1.308-.8-.261 0-.777.304-1.643.967l-1.263.968-.783-.26-.782-.26-.366-1.558c-.52-2.212-.37-2.14-3.967-1.92Zm2.197 3.41c.163.703.37 1.398.46 1.544.092.148.498.361.918.482.414.119 1.112.365 1.55.548.503.208.909.297 1.097.238.163-.05.796-.476 1.405-.944l1.107-.851.703.604.703.605-.746 1.155c-.41.636-.782 1.297-.826 1.47-.054.216.116.686.546 1.506.343.656.625 1.274.625 1.373 0 .428.562.684 1.887.859.732.096 1.409.177 1.503.18.12.003.17.284.17.93v.924l-1.403.312c-.791.176-1.503.414-1.63.546-.124.128-.33.6-.457 1.05-.128.449-.35 1.046-.494 1.328-.416.814-.341 1.093.634 2.37l.896 1.172-.266.37a5.656 5.656 0 0 1-.614.696l-.349.324-1.22-.769c-.672-.423-1.353-.769-1.514-.769-.162 0-.717.215-1.234.479-.518.263-1.001.478-1.075.478-.11 0-.448-.75-.933-2.069-.06-.165.083-.303.554-.53.982-.475 2.188-1.672 2.67-2.65 1.488-3.018.308-6.49-2.713-7.981-1.022-.505-1.07-.514-2.624-.514-1.49 0-1.635.025-2.49.429-1.505.712-2.62 1.913-3.136 3.377-.138.389-.3.697-.363.684-.48-.095-2.236-.954-2.236-1.093 0-.097.154-.523.342-.949.188-.425.342-.925.342-1.112 0-.21-.342-.778-.9-1.49l-.9-1.152.57-.68c.314-.375.595-.681.625-.681.03 0 .6.339 1.266.752.667.414 1.366.752 1.553.752.187 0 .799-.23 1.358-.512.56-.282 1.214-.594 1.455-.692.477-.196.645-.565.787-1.736.046-.376.118-.912.16-1.19l.075-.507.845-.04c.465-.023.885-.01.933.028.048.037.221.643.384 1.346ZM9.727 6.67c-.22.22-.4.539-.4.708 0 .367 3.866 4.33 4.34 4.45.163.04.426.034.583-.016.36-.115.739-.83.642-1.214-.118-.47-4.09-4.328-4.456-4.328-.17 0-.488.18-.709.4Zm45.306 3.474c1.882.693 2.997 2.784 2.463 4.618-.284.975-.896 1.811-1.698 2.319-.351.222-.682.404-.736.404-.054 0-.263-.43-.464-.957-.202-.526-.504-1.064-.672-1.197-.169-.132-1.15-.608-2.18-1.057-2.064-.9-2.09-.931-1.67-1.934.354-.847 1-1.52 1.877-1.959.693-.345.996-.416 1.742-.408.496.006 1.099.083 1.338.171Zm-9.64 3.6c3.556 1.554 6.483 2.839 6.504 2.855.022.016-.61 1.506-1.404 3.31-.794 1.805-1.443 3.406-1.443 3.56 0 .152.108.401.24.553.131.153 1.688.91 3.458 1.681 1.77.772 3.24 1.418 3.264 1.435.024.018-.372.991-.881 2.164l-.925 2.132-1.86.002c-1.217.002-1.961.06-2.158.171-.515.29-4.622 4.75-4.795 5.206-.115.305-.165 1.9-.17 5.391-.005 2.727-.04 4.958-.078 4.958-.066 0-1.11-.453-8.628-3.743l-3.288-1.438-.035-9.145-.035-9.145 2.613-5.941c1.437-3.268 2.698-6.14 2.802-6.385.104-.245.226-.445.272-.445.045 0 2.991 1.271 6.547 2.825Zm9.063 8.124c.566 1.452 1.006 2.662.979 2.69-.046.046-3.784-1.562-3.904-1.68-.029-.028.338-.947.815-2.041.576-1.322.903-1.926.974-1.8.06.105.57 1.379 1.136 2.831ZM.834 28.425c-.18.18-.273.456-.273.812 0 .916.173.966 3.395.966 1.702 0 2.892-.057 3.058-.146.59-.315.577-1.452-.021-1.772-.14-.075-1.492-.134-3.068-.134-2.634 0-2.834.018-3.09.274Zm64.54 5.71c-.302.357-.85.942-1.218 1.3l-.667.65-7.356-.035-7.355-.035 1.174-1.265 1.175-1.265h14.796l-.55.65Zm1.894 8.394v7.267l-1.094 1.11-1.094 1.11-.002-1.887c-.002-1.82-.014-1.898-.338-2.222-.415-.415-1.064-.442-1.445-.062-.255.255-.274.456-.274 3.013 0 2.08-.041 2.755-.173 2.806-.095.036-1.883.05-3.974.03l-3.8-.037.343-.505c.622-.914.513-1.226-.93-2.667-1.573-1.57-1.694-1.592-3.167-.57l-1.013.704-.526-.21c-.52-.206-.528-.22-.742-1.352-.309-1.63-.491-1.896-1.302-1.896h-.33v-9.026H63.02v2.735c0 2.553.019 2.753.274 3.009.408.407 1.141.364 1.497-.087.268-.34.284-.533.284-3.34v-2.978l1.042-1.106c.572-.608 1.066-1.105 1.095-1.105.03 0 .055 3.27.055 7.266ZM13.49 46.732c-.835.612-3.751 3.66-3.77 3.939-.046.724.396 1.276 1.023 1.276.345 0 .726-.311 2.38-1.948 1.082-1.072 2.003-2.087 2.045-2.257.127-.505-.067-.973-.495-1.194-.533-.275-.563-.27-1.183.184Zm33.651 3.513c.192 1.188.467 1.614 1.19 1.848.282.091.803.31 1.158.489.356.177.762.323.904.323.141 0 .689-.303 1.216-.673l.96-.673.425.424.425.425-.597.852c-.835 1.192-.85 1.286-.36 2.332.233.495.422.99.422 1.1 0 .11.17.369.377.576.298.297.597.41 1.438.546l1.062.17v.591c0 .659-.007.663-1.34.837-.906.118-1.302.423-1.528 1.176a7.94 7.94 0 0 1-.435 1.098c-.397.778-.329 1.166.384 2.198l.642.93-.403.402-.403.403-1.003-.682c-.552-.374-1.095-.681-1.207-.681-.112 0-.524.145-.914.322-.39.177-.934.395-1.208.484-.728.237-.907.515-1.108 1.727l-.182 1.091-.567.042c-.64.047-.612.09-.876-1.341-.19-1.027-.378-1.296-1.067-1.518a10.148 10.148 0 0 1-1.143-.484c-.355-.177-.79-.323-.966-.323-.176 0-.714.277-1.196.615-.481.339-.936.616-1.01.616-.171 0-.77-.554-.77-.712 0-.065.277-.53.616-1.035.339-.504.616-1.058.616-1.23 0-.173-.145-.605-.323-.96a10.154 10.154 0 0 1-.487-1.146c-.226-.697-.431-.827-1.705-1.073l-1.114-.215-.042-.57c-.047-.638-.133-.586 1.4-.85.933-.162 1.238-.387 1.463-1.08.089-.274.307-.788.485-1.142.178-.355.323-.766.323-.913 0-.147-.307-.718-.682-1.27l-.682-1.001.395-.395.395-.395 1.052.703c.579.386 1.111.702 1.183.702.072 0 .527-.185 1.01-.41.484-.226.98-.41 1.101-.41.122 0 .389-.17.593-.377.289-.293.41-.609.546-1.436l.175-1.06H46.975l.167 1.033Zm-2.025 3.807c-1.473.482-2.564 1.482-3.065 2.808-.234.62-.277.98-.231 1.926.066 1.337.338 1.988 1.24 2.966 2.185 2.366 6.157 1.755 7.596-1.17.33-.67.379-.933.378-2.002 0-.973-.063-1.365-.298-1.875-.42-.91-1.448-1.954-2.337-2.374-.923-.436-2.417-.563-3.283-.28Zm-14.01 5.027v4.26l-1.277-.076c-1.554-.093-2.333-.419-3.11-1.3-.826-.936-.956-1.558-.956-4.57V54.82h5.342v4.26Zm16.767-2.655c2.11 1.484 1.134 4.687-1.428 4.687-1.539 0-2.602-1.075-2.6-2.628.002-2.058 2.334-3.25 4.028-2.059Z" fill="#6A6A6A"/></svg>