<svg width="62" height="71" fill="none" xmlns="http://www.w3.org/2000/svg"><path fill-rule="evenodd" clip-rule="evenodd" d="m10.328.854-.843.852 2.912 2.91 2.911 2.91.843-.852.843-.852-2.912-2.91-2.911-2.91-.843.852ZM48.19 2.92l-2.91 2.913.852.843.852.843 2.909-2.913 2.909-2.913-.852-.843-.852-.843-2.908 2.913ZM29.15 4.087c-7.68.996-13.716 6.523-15.34 14.049-.375 1.741-.375 5.336.002 7.075.776 3.588 2.248 6.224 5.224 9.35 1.771 1.862 2.444 2.818 3.066 4.36.414 1.025.787 2.815.787 3.776 0 .502.086.744.362 1.02l.361.361h15.055l.362-.362c.276-.275.362-.517.362-1.019 0-1.79.84-4.36 1.943-5.94.33-.473 1.274-1.56 2.099-2.415 3.416-3.543 5.13-7.379 5.335-11.932.402-8.986-6.081-16.87-14.975-18.212-1.29-.195-3.578-.25-4.642-.111Zm4.146 2.416c8.37 1.165 14.34 9.229 12.958 17.502-.592 3.539-1.755 5.75-4.618 8.776-2.713 2.869-3.871 4.945-4.37 7.833l-.179 1.032H25.193l-.176-1.032c-.505-2.943-1.694-5.056-4.48-7.96-1.683-1.753-2.276-2.551-3.063-4.127A15.258 15.258 0 0 1 24.29 7.994a15.25 15.25 0 0 1 9.007-1.491Zm-13.581 9.636-.362.362V26.846l.362.361.361.362h22.128l.361-.362.362-.361V16.5l-.362-.362-.361-.362H20.077l-.361.362Zm20.854 5.534v3.538H21.711V18.136h18.86v3.537Zm-38.897 0v1.18H9.924v-2.359H1.673v1.18Zm22.396 0v1.18h4.714v-2.359H24.07v1.18Zm7.072 0v1.18h7.072v-2.359h-7.072v1.18Zm21.216 0v1.18H60.608v-2.359H52.357v1.18ZM2.852 38.375C2.13 38.603.896 39.88.674 40.63c-.258.874-.258 26.067 0 26.94.252.855 1.463 2.043 2.326 2.281.508.141 3.114.173 11.197.136 10.375-.048 10.553-.054 11.713-.378 1.468-.41 3.441-1.343 4.45-2.105l.767-.579.947.662c1.226.858 2.822 1.608 4.297 2.021 1.162.325 1.33.33 11.713.379 8.084.037 10.69.005 11.198-.136.863-.239 2.073-1.426 2.326-2.28.254-.862.258-26.07.004-26.919-.097-.321-.462-.904-.813-1.293-1.075-1.197-.923-1.178-9.352-1.178h-7.34v2.359h14.6l.36.362.362.361V66.94l-.368.368-.368.368-10.498-.045-10.498-.045-1.031-.347c-1.379-.463-2.633-1.102-3.573-1.82l-.774-.592v-5.418h-2.357v5.418l-.773.591c-.94.719-2.195 1.358-3.573 1.821l-1.032.347-10.498.045-10.498.045-.368-.368-.368-.368V41.264l.362-.361.361-.362h14.6v-2.359l-7.404.015c-4.946.01-7.574.07-7.919.178Zm21.217 8.062v1.179h14.144V45.258H24.069v1.179Zm-17.68 1.179v1.18h10.608v-2.36H6.388v1.18Zm38.896 0v1.18h10.608v-2.36H45.285v1.18Zm-19.695 1.56c-.37.37-.378.422-.313 1.892.058 1.297.131 1.648.522 2.483.633 1.354 1.473 2.212 2.814 2.874 1.052.52 1.19.55 2.528.55 1.337 0 1.476-.03 2.528-.55 1.341-.662 2.18-1.52 2.814-2.874.39-.835.464-1.186.522-2.483.065-1.47.056-1.522-.314-1.892l-.38-.38h-10.34l-.38.38Zm9.087 2.218c0 1.585-1.836 3.297-3.536 3.297s-3.536-1.712-3.536-3.297c0-.216.362-.24 3.536-.24s3.536.024 3.536.24ZM6.388 53.512v1.18h12.966v-2.36H6.388v1.18Zm36.54 0v1.18h12.965v-2.36H42.928v1.18Zm-36.54 5.896v1.18h15.323v-2.36H6.388v1.18Zm34.182 0v1.18h15.323v-2.36H40.57v1.18Z" fill="#6A6A6A"/></svg>