<svg width="70" height="47" fill="none" xmlns="http://www.w3.org/2000/svg"><path fill-rule="evenodd" clip-rule="evenodd" d="M15.85.899c-1.524.293-2.421.616-3.617 1.306C6.97 5.24 2.958 13.237.898 24.798.21 28.665.003 30.878 0 34.436c-.003 3.495.144 4.94.7 6.88 1.238 4.327 4.23 6.31 8.22 5.448 3.21-.694 7-3.097 12.386-7.852 2.067-1.825 3.142-2.513 5.093-3.256 5.924-2.258 14.744-1.762 19.534 1.097.524.313 1.763 1.284 2.753 2.159 6.879 6.074 11.369 8.45 15.04 7.962 3.226-.429 5.2-2.907 6.014-7.55.34-1.942.348-7.355.015-10.12-1.014-8.427-3.374-16.43-6.17-20.926-2.483-3.992-5.112-6.246-8.38-7.186-.931-.268-1.416-.315-3.22-.315-2.454.001-3.17.124-8.794 1.505-4.408 1.082-6.667 1.494-8.195 1.494-1.499 0-3.589-.378-8.164-1.475-2.028-.487-4.397-1.015-5.263-1.174C19.497.746 17.137.652 15.85.899Zm6.472 3.587c.905.2 2.626.61 3.826.913 5.395 1.362 7.99 1.748 10.127 1.506 2.026-.23 3.322-.482 7.078-1.38 5.554-1.327 6.145-1.43 8.221-1.426 1.628.003 1.981.047 2.946.368 3 .997 5.211 3.266 7.33 7.522 2.081 4.18 3.52 9.38 4.542 16.421.401 2.763.455 9.166.09 10.845-.814 3.754-2.287 5.01-5.097 4.348-2.61-.615-5.92-2.784-10.496-6.876-2.642-2.363-4.128-3.32-6.474-4.171-2.787-1.01-5.01-1.409-8.46-1.516-3.786-.118-6.572.248-9.796 1.287-2.856.92-4.913 2.195-7.947 4.928-2.324 2.094-5.312 4.28-7.056 5.164-3.375 1.71-5.492 1.582-6.676-.402-.546-.916-.802-1.75-1.081-3.519-.296-1.876-.184-7.416.207-10.212C4.88 19.148 7.58 11.517 10.92 7.603c1.475-1.727 3.489-2.998 5.373-3.39 1.424-.295 3.98-.18 6.028.273Zm-4.267 5.043c-1.002.128-2.124.687-2.858 1.425-.676.68-1.438 2.115-1.438 2.711 0 .373-.213.531-.71.531-.154 0-.665.186-1.137.412-2.2 1.055-3.35 3.447-2.763 5.75.497 1.946 1.752 3.22 3.704 3.756.817.225.837.242.93.787.232 1.37 1.47 2.9 2.865 3.539 2.644 1.212 5.799-.123 6.829-2.89.156-.419.284-.876.284-1.015 0-.19.141-.275.566-.343 1.456-.234 2.956-1.441 3.656-2.944.504-1.08.528-2.91.052-3.954-.795-1.744-2.024-2.742-3.88-3.152-.287-.064-.376-.183-.444-.598-.14-.852-.688-1.857-1.402-2.575-1.12-1.125-2.651-1.644-4.254-1.44Zm30.846.648c-2.133 1.003-2.312 4.034-.315 5.36.499.332.703.38 1.609.378.894-.003 1.117-.055 1.618-.38.32-.207.75-.635.959-.95.33-.502.378-.709.378-1.628 0-.919-.048-1.126-.378-1.627-.59-.896-1.335-1.318-2.416-1.368-.667-.032-1.05.025-1.455.215Zm-29.15 2.727c.569.362.75.825.852 2.186.138 1.842.581 2.273 2.336 2.273 1.134 0 1.672.227 2.06.867.528.87.2 2.165-.652 2.572-.21.1-.904.212-1.545.25-1.756.101-2.192.53-2.192 2.16 0 1.624-.631 2.41-1.934 2.412-1.157 0-1.766-.782-1.766-2.269 0-1.783-.6-2.41-2.302-2.411-1.578-.001-2.356-.605-2.356-1.828 0-1.122.788-1.748 2.22-1.76 1.868-.018 2.334-.477 2.443-2.408.068-1.195.104-1.326.474-1.715.65-.68 1.601-.813 2.362-.33Zm23.254 3.366c-.628.184-1.508 1.014-1.776 1.675-.833 2.06.568 4.257 2.714 4.257 1.296 0 2.258-.597 2.78-1.725.547-1.18.383-2.335-.467-3.283-.848-.944-2.03-1.28-3.25-.924Zm12.2.113c-1.606.74-2.264 2.5-1.524 4.078.553 1.18 1.444 1.74 2.762 1.74 1.624 0 2.96-1.341 2.96-2.972 0-1.326-.558-2.221-1.732-2.778-.828-.392-1.71-.416-2.466-.068Zm-5.963 6.148c-2.766.857-2.676 4.982.126 5.8 1.912.559 3.838-.885 3.847-2.883.006-1.324-.885-2.56-2.109-2.926-.813-.243-1.056-.241-1.864.01Z" fill="#6A6A6A"/></svg>