<svg width="160" height="107" fill="none" xmlns="http://www.w3.org/2000/svg"><path fill-rule="evenodd" clip-rule="evenodd" d="M36.23 1.193c-3.486.67-5.535 1.41-8.268 2.986C15.931 11.119 6.761 29.395 2.054 55.82.479 64.659.008 69.716 0 77.85c-.007 7.986.328 11.289 1.598 15.723C4.43 103.466 11.27 108 20.39 106.028c7.334-1.585 15.999-7.079 28.309-17.948 4.724-4.172 7.183-5.743 11.641-7.442 13.54-5.16 33.702-4.028 44.649 2.508 1.198.715 4.029 2.935 6.293 4.934 15.723 13.883 25.986 19.317 34.377 18.2 7.375-.981 11.888-6.646 13.746-17.257.778-4.44.797-16.813.036-23.132-2.32-19.263-7.713-37.555-14.104-47.832-5.675-9.123-11.684-14.277-19.154-16.425-2.128-.611-3.237-.72-7.36-.718-5.609.002-7.246.282-20.101 3.438C88.648 6.827 83.484 7.769 79.99 7.769c-3.425 0-8.201-.863-18.66-3.372-4.636-1.112-10.05-2.32-12.03-2.683C44.565.843 39.17.628 36.23 1.193Zm14.792 8.199a370.7 370.7 0 0 1 8.744 2.088c12.332 3.113 18.264 3.996 23.147 3.442 4.631-.525 7.595-1.103 16.18-3.154 12.694-3.034 14.045-3.268 18.791-3.26 3.721.006 4.528.107 6.733.84 6.859 2.28 11.912 7.466 16.754 17.194 4.757 9.555 8.045 21.44 10.383 37.535.917 6.314 1.039 20.95.206 24.788-1.861 8.581-5.227 11.452-11.651 9.939-5.966-1.406-13.533-6.364-23.991-15.718-6.039-5.402-9.435-7.59-14.799-9.535-6.37-2.308-11.451-3.22-19.337-3.464-8.652-.27-15.02.567-22.391 2.941-6.527 2.102-11.23 5.02-18.164 11.265-5.312 4.787-12.142 9.784-16.128 11.804-7.714 3.908-12.553 3.616-15.258-.918-1.25-2.095-1.834-4-2.472-8.044-.676-4.29-.42-16.952.472-23.343 2.915-20.886 9.084-38.328 16.721-47.274 3.37-3.95 7.974-6.853 12.28-7.747 3.257-.677 9.1-.413 13.78.62ZM41.27 20.92c-2.29.291-4.855 1.57-6.532 3.256-1.547 1.555-3.287 4.835-3.288 6.198 0 .851-.486 1.214-1.625 1.214-.349 0-1.517.423-2.596.94-5.03 2.413-7.656 7.88-6.315 13.141 1.134 4.45 4.003 7.36 8.465 8.588 1.867.513 1.912.552 2.124 1.798.533 3.133 3.363 6.628 6.55 8.09 6.044 2.77 13.255-.281 15.61-6.605.356-.959.648-2.003.648-2.32 0-.434.323-.63 1.294-.786 3.33-.535 6.757-3.293 8.358-6.727 1.152-2.47 1.207-6.653.119-9.038-1.818-3.986-4.627-6.269-8.869-7.206-.657-.145-.859-.417-1.016-1.366-.321-1.948-1.572-4.246-3.203-5.885-2.56-2.573-6.061-3.758-9.724-3.292Zm70.505 1.481c-4.876 2.293-5.284 9.22-.72 12.252 1.14.758 1.608.868 3.676.862 2.045-.005 2.553-.125 3.699-.867.73-.474 1.716-1.452 2.192-2.174.754-1.146.864-1.618.864-3.719 0-2.1-.11-2.573-.864-3.718-1.35-2.05-3.05-3.014-5.521-3.129-1.526-.071-2.401.059-3.326.493Zm-66.628 6.232c1.3.827 1.712 1.886 1.946 4.997.317 4.21 1.33 5.196 5.34 5.196 2.592 0 3.82.517 4.71 1.982 1.206 1.988.454 4.948-1.493 5.878-.478.228-2.066.485-3.53.57-4.015.233-5.011 1.215-5.011 4.94 0 3.711-1.442 5.51-4.42 5.512-2.644.002-4.036-1.787-4.036-5.186 0-4.075-1.37-5.51-5.261-5.512-3.607-.002-5.387-1.382-5.387-4.178 0-2.565 1.802-3.994 5.074-4.024 4.27-.038 5.335-1.088 5.585-5.502.154-2.732.237-3.032 1.084-3.92 1.483-1.556 3.66-1.86 5.399-.753Zm53.152 7.695c-1.436.42-3.448 2.317-4.06 3.828-1.903 4.709 1.297 9.73 6.203 9.73 2.963 0 5.162-1.364 6.356-3.942 1.25-2.697.873-5.339-1.069-7.504-1.937-2.16-4.639-2.927-7.43-2.112Zm27.885.257c-3.671 1.692-5.175 5.717-3.484 9.322 1.266 2.696 3.302 3.979 6.315 3.979 3.711 0 6.765-3.067 6.765-6.796 0-3.03-1.276-5.077-3.959-6.348-1.892-.897-3.911-.953-5.637-.157Zm-13.631 14.053c-6.322 1.959-6.115 11.387.29 13.258 4.37 1.276 8.772-2.023 8.793-6.59.014-3.027-2.024-5.853-4.82-6.688-1.86-.555-2.414-.552-4.263.02Z" fill="#2C2C2C"/></svg>