<svg width="70" height="69" fill="none" xmlns="http://www.w3.org/2000/svg"><path d="M31.79 12.935c.25-.659.765-1.16 1.339-1.305.83-.21 1.446-.68 1.54.943v1.625c0 1.87.008.955 0 2.666-.013 2.803-.078 2.978-.72 1.931-.27-.44-.617-.984-.77-1.208-.393-.576-1.216-2.44-1.446-3.277-.17-.62-.163-.79.058-1.375ZM28.84 15.102c.128-.363.4-.881.606-1.153.205-.271.398-.494.427-.494.07 0 1.334 1.781 2.021 2.847.918 1.424 2.083 3.7 1.893 3.7-.373 0-3.478-1.91-4.292-2.64-.231-.207-.525-.652-.653-.99-.21-.555-.21-.672-.001-1.27ZM38.28 16.208a141.63 141.63 0 0 0 1.316-1.894c.262-.388.545-.706.63-.707.27-.005 1.101 1.548 1.101 2.058 0 1.168-1.05 2.178-3.885 3.739-.633.348-1.18.606-1.213.572-.121-.122 1.23-2.604 2.052-3.768ZM35.4 18.738c-.128-1.436-.133-3.612-.04-4.308.138-1.16.224-3.212.6-3.017.923 0 2.03.618 2.32 1.067.364.711-.646 3.266-.646 3.338 0 .298-.502 1.3-1.296 2.59l-.846 1.372-.092-1.042ZM28.626 20.057c-.706-.598-1.123-1.662-.94-2.398.045-.184.116-.335.157-.335.137 0 4.03 2.223 4.885 2.79l.844.558-1.665.043c-1.88.047-2.625-.102-3.28-.658ZM37.302 20.092c1.089-.667 3.282-1.937 4.098-2.373.406-.217.788-.395.85-.395.218 0 .1 1.274-.174 1.883-.198.44-.484.74-.994 1.042-.667.395-.842.427-2.598.476-1.036.028-1.884-.006-1.884-.076 0-.07.316-.32.702-.557ZM29.066 21.312c0-.06.648-.13 1.44-.157.793-.026 1.756-.062 2.142-.08.386-.017.702.02.701.081-.001.146-.771.665-1.714 1.154-.712.37-.786.38-1.272.175-.487-.205-1.297-.938-1.297-1.173ZM38.299 22.255c-.488-.256-1.086-.63-1.33-.832l-.443-.366 2.142.089c1.178.049 2.171.114 2.206.145.153.133-.582.893-1.11 1.149l-.579.28-.886-.465Z" fill="#fff"/><path fill-rule="evenodd" clip-rule="evenodd" d="M31.52.05c-1.501.136-3.738.505-5.234.863-1.177.282-3.62 1.042-4.212 1.311-.135.062-.65.279-1.145.482-1.102.454-2.871 1.32-3.038 1.486-.067.068-.154.123-.194.123-.176 0-2.172 1.258-3.433 2.163-1.638 1.177-2.915 2.289-4.572 3.979-1.722 1.758-2.908 3.28-4.607 5.915-.72 1.117-2.019 3.677-2.546 5.018-.118.3-.215.567-.215.592 0 .024-.089.24-.197.478-.108.238-.35.95-.537 1.581l-.497 1.682c-.239.807-.541 2.36-.727 3.732-.091.676-.211 1.544-.267 1.927-.132.92-.132 5.377 0 6.316.055.383.156 1.177.225 1.764.132 1.117.433 2.855.64 3.69.362 1.467.954 3.399 1.165 3.804.062.119.112.245.113.281 0 .12.763 1.983.914 2.231.226.374.195.224-.103-.492-.32-.769-1.095-3.999-1.345-5.602-.38-2.428-.483-3.883-.483-6.783 0-2.889.075-3.856.489-6.26.248-1.44 1.14-4.864 1.34-5.142.033-.045.182-.432.33-.86.149-.43.377-1.01.507-1.293.13-.283.381-.845.559-1.25.177-.404.471-.998.652-1.319.181-.32.33-.608.33-.639 0-.03.12-.24.266-.464.146-.224.478-.759.739-1.187.46-.758.985-1.544 1.35-2.022l.609-.808a9.4 9.4 0 0 1 .521-.656c.05-.045.256-.285.456-.534.946-1.172 2.629-2.858 3.95-3.959.54-.449 1.076-.895 1.19-.992.243-.203.586-.451 1.126-.814.21-.141.426-.299.479-.35.052-.05.383-.271.736-.49.352-.219.659-.42.681-.45a.531.531 0 0 1 .164-.105c.067-.03.435-.236.818-.459 1.976-1.15 4.883-2.41 6.91-2.997.585-.169 1.198-.358 1.363-.42.631-.236 4.313-.88 5.834-1.02 1.172-.108 4.718-.105 5.97.005 1.678.147 4.694.687 5.97 1.068 1.53.457 2.73.843 3.026.974.18.08.636.263 1.013.407.96.368 2.697 1.21 3.887 1.885 1.277.725 3.258 2.025 3.829 2.512.104.089.335.27.514.404 1.515 1.129 4.037 3.604 5.399 5.298.45.561.88 1.113.951 1.226.072.113.208.293.302.4.094.107.287.375.427.595.14.22.274.4.296.4.101 0-1.123-1.948-1.986-3.158-1.392-1.954-3.859-4.58-5.772-6.147l-1.09-.895c-1.166-.962-3.733-2.556-5.807-3.605C46.357 1.853 42.453.697 38.39.164c-1.107-.145-5.682-.22-6.87-.113Zm.144 5.279c-.784.293-1.085.78-1.075 1.737.013 1.172.594 1.8 1.667 1.8.45 0 1.309-.216 1.309-.33 0-.017-.042-.123-.094-.235-.09-.197-.102-.2-.331-.082-.383.199-.978.237-1.275.083-.634-.329-.886-1.437-.475-2.09.257-.407.577-.537 1.189-.481.44.04.484.029.526-.131.025-.096.013-.207-.026-.247-.13-.13-1.09-.146-1.415-.024Zm8.881.34a.672.672 0 0 0 .005.327c.04.161.103.205.292.205.154 0 .271-.057.325-.158.11-.206.108-.216-.044-.369-.163-.164-.516-.167-.578-.006Zm-1.95.286c-.038.218-.099.328-.183.328-.122 0-.341.221-.347.349-.001.034.094.061.212.061.182 0 .206.028.164.185-.028.102-.074.54-.103.973-.05.728-.04.8.117.959.195.195.654.305.956.229.152-.039.205-.106.205-.261 0-.167-.03-.2-.152-.16-.084.026-.255.01-.38-.038l-.227-.087.056-.674c.088-1.055.092-1.064.478-.999.236.04.347.024.398-.056.139-.22.067-.307-.299-.362l-.372-.056.054-.36.054-.359h-.288c-.273 0-.292.018-.344.328Zm-10.899-.069c-.234.235-.025.598.315.547.248-.037.386-.27.27-.457-.11-.176-.447-.228-.585-.09Zm14.576.203c-.11.118-.242.333-.294.478-.076.21-.132.256-.28.228-.138-.027-.2.012-.244.153-.033.104-.028.2.012.215.29.102.291.15.02 1.196-.148.568-.252 1.05-.23 1.072.02.021.145.05.276.066.263.03.229.105.637-1.388.164-.6.203-.67.35-.63.09.027.226.065.302.086.085.024.175-.03.234-.14.109-.204.026-.293-.351-.375-.124-.027-.225-.057-.225-.067 0-.01.04-.134.088-.274.103-.297.32-.393.577-.256.15.081.198.073.29-.052.16-.221.136-.278-.176-.409-.436-.183-.757-.151-.986.097Zm-7.83-.017c-.375.135-.529.258-.667.533-.299.592-.202 1.467.204 1.858.202.193.328.238.752.265.719.045 1.082-.061 1.082-.317 0-.153-.038-.195-.163-.176-.785.115-.864.114-1.05-.007-.207-.137-.44-.601-.347-.694.03-.03.422-.07.87-.089.766-.03.813-.043.813-.207-.002-.865-.738-1.44-1.493-1.166Zm2.038.514c-.027.307-.074.918-.103 1.358l-.054.8h.579l.058-.853c.056-.828.065-.857.309-1.039.138-.102.352-.186.476-.186.158 0 .237-.05.27-.17.068-.258.06-.28-.113-.335-.178-.056-.44.057-.719.31l-.184.17V6.38c0-.17-.04-.26-.116-.26a.786.786 0 0 1-.234-.046c-.093-.036-.129.072-.169.512Zm7.369-.214c-.197.115-.183.459.023.57.394.21.749-.233.407-.51-.21-.17-.236-.174-.43-.06Zm-8.664.243c.098.092.179.216.179.276 0 .123-.35.213-.834.213-.296 0-.318-.015-.266-.185.143-.472.585-.618.92-.304Zm5.213.074c-.02.07-.095.423-.164.784-.07.36-.178.89-.24 1.174-.122.553-.126.544.285.61l.213.034.228-1.237c.126-.68.244-1.28.263-1.33.02-.055-.085-.107-.257-.127-.213-.025-.301 0-.328.092Zm-12.333.145c-.124.019-.225.046-.225.061 0 .024.422 1.93.532 2.403.03.124.103.184.226.183.428-.003.434-.056.135-1.427-.153-.703-.315-1.273-.36-1.266l-.308.046Zm-1.943.526c-.321.128-.65.488-.734.806-.14.525.178 1.392.605 1.654.447.273 1.345.144 1.863-.268.122-.096.125-.13.025-.264-.11-.149-.124-.148-.471.02-.594.29-1.05.229-1.252-.165-.118-.228-.115-.24.09-.318.116-.045.232-.081.255-.081.024 0 .298-.077.608-.172.627-.19.67-.268.402-.71-.306-.503-.874-.708-1.39-.502Zm17.263.666c-.096.373-.248.908-.336 1.191a5.208 5.208 0 0 0-.161.589c0 .085.48.206.548.138.025-.025.153-.426.284-.89.13-.464.287-1.015.347-1.224l.11-.382-.246-.049a2.818 2.818 0 0 0-.309-.05c-.034 0-.141.305-.237.677ZM26.82 7.88c.11.11.2.234.2.274 0 .057-.85.345-1.02.345-.086 0-.039-.465.06-.59.22-.277.502-.288.76-.029Zm-2.284-.015-.236.08.056.665c.03.365.095.823.144 1.018.048.194.072.37.051.391-.02.02-.236-.211-.478-.516-.797-1-.85-1.043-1.137-.924-.137.057-.248.146-.246.196.002.051.054.518.116 1.036.061.52.105.95.096.96-.008.008-.198-.211-.422-.488-.876-1.082-.884-1.089-1.172-.969-.142.06-.257.124-.257.145 0 .05 1.703 1.974 1.8 2.034.107.066.572-.188.568-.31a29.397 29.397 0 0 0-.11-.962c-.06-.473-.101-.87-.092-.882.009-.012.178.17.377.403.198.233.491.57.651.749l.292.325.26-.135c.225-.117.26-.179.257-.441-.006-.417-.209-2.393-.25-2.428-.017-.016-.138.008-.268.053Zm20.607.145c-.604.181-1.099 1.054-.994 1.754.085.57.595.95 1.278.95.289 0 .322-.021.322-.205 0-.173-.038-.205-.242-.205-.359 0-.635-.157-.744-.422-.133-.322.027-.885.336-1.182.2-.192.28-.217.57-.178.186.025.41.11.498.19.154.14.167.139.33-.024l.168-.17-.356-.244c-.401-.275-.815-.369-1.166-.264Zm1.886.917c-.05.19.057.307.284.309.231.002.704.236.757.374.07.181.062.385-.02.513-.053.085-.151.063-.46-.102a1.644 1.644 0 0 0-.785-.21c-.333 0-.414.033-.55.226-.245.35-.279.556-.145.879.15.358.584.573 1.037.512.258-.034.294-.02.26.109-.027.104.037.187.213.279.252.13.252.13.366-.137.063-.148.248-.57.41-.938.164-.368.297-.785.297-.927 0-.354-.443-.8-.947-.952-.529-.16-.661-.148-.717.065Zm2.885.728c-.128.18-.216.231-.335.193-.24-.076-.428.2-.262.384.107.12.086.194-.19.682l-.412.728c-.191.338-.129.684.162.906.347.265.71.358.805.207.111-.176.091-.22-.15-.336-.326-.155-.334-.469-.027-.97.138-.226.251-.427.251-.449 0-.021.062-.11.137-.198.134-.157.14-.158.44-.004.3.153.305.153.449-.006.08-.089.13-.172.112-.185a8.577 8.577 0 0 0-.34-.182c-.169-.087-.307-.17-.307-.184 0-.015.073-.169.162-.344l.161-.317-.241-.084c-.219-.077-.258-.062-.415.16Zm-30.198.563a3.376 3.376 0 0 0-.567.398c-.149.15-.159.202-.074.387l.097.215.378-.334c.447-.394.729-.43 1.01-.13.106.113.15.206.1.206-.158 0-.823.489-.997.734-.228.32-.208.574.069.907.195.235.29.283.558.283a.96.96 0 0 0 .9-.572c.115-.241.147-.262.228-.15.086.117.118.117.354-.005.143-.075.26-.154.26-.176 0-.043-.42-.707-.49-.775a2.849 2.849 0 0 1-.206-.356c-.233-.451-.725-.877-1.001-.866-.123.005-.402.11-.619.234Zm32.023.016c-.234.235-.026.598.315.547.248-.037.386-.27.27-.457-.11-.176-.447-.228-.585-.09Zm-4.32.102c.15.063.299.157.33.209.085.137-.171.486-.398.543-.217.055-.697-.157-.712-.315-.02-.214.026-.35.154-.449.17-.131.288-.13.625.012Zm3.51 1.18c-.23.348-.559.85-.731 1.114l-.314.481.19.155c.26.21.296.2.51-.153.102-.17.21-.326.24-.349.075-.058.99-1.493.96-1.506a3.358 3.358 0 0 1-.231-.194l-.208-.182-.417.634Zm-33.002-.126-.221.17.412.598c.227.33.465.642.528.695.305.253-.028.977-.45.977-.23 0-.349-.123-1.119-1.17-.233-.316-.313-.374-.426-.31-.366.211-.369.217-.21.465.084.13.218.31.3.4.082.09.278.358.435.595.273.413.618.677.883.677.42 0 .947-.533.947-.96 0-.119.016-.118.157.01.147.134.169.134.368.003.116-.076.211-.154.211-.173 0-.041-1.083-1.505-1.513-2.045-.064-.08-.13-.065-.302.068Zm3.087.097c.139.212.088.403-.19.723-.178.204-.563.186-.678-.03-.127-.238.009-.519.351-.728.339-.207.36-.206.517.035Zm30.979.708c-.99.491-1.119 1.838-.225 2.352.907.52 1.982-.107 2.061-1.204.032-.44.016-.492-.24-.783-.474-.542-.999-.662-1.596-.365Zm-37.219.46c-.101.071-.184.161-.184.2 0 .04.221.303.491.585l.49.514-.633.587-.633.588-.484-.485c-.266-.267-.505-.485-.532-.484-.027.001-.139.072-.249.157l-.2.154.462.52c.254.287.806.881 1.227 1.321l.765.8.217-.226.217-.227-.552-.576-.55-.577.64-.588.639-.588.565.591.564.59.22-.216.218-.217-.847-.89c-.466-.49-1.01-1.066-1.209-1.28-.199-.215-.383-.388-.41-.386a1 1 0 0 0-.232.133Zm38.32.03c.246.23.23.623-.043 1.045-.234.363-.618.607-.834.532-.264-.093-.498-.38-.498-.611 0-.275.309-.798.584-.99.265-.185.577-.175.79.024Zm.813 1.758c-.484.512-.88.966-.88 1.007 0 .04.086.155.191.254l.191.18.648-.703c.59-.641.669-.7.888-.657.133.026.326.103.43.17.335.221.241.463-.473 1.22l-.662.701.18.254.181.255.726-.765c.4-.42.766-.884.814-1.029.17-.515-.326-1.09-.941-1.09-.194 0-.206-.017-.122-.174.078-.146.062-.205-.1-.365l-.192-.191-.88.932ZM9.876 17.858c-.227.287-.48.633-.564.769a8.137 8.137 0 0 1-.383.548c-.317.413-1.15 1.86-1.503 2.61-.16.338-.394.822-.522 1.076-.283.56-.979 2.468-1.268 3.476-.254.885-.66 2.818-.82 3.896-.39 2.652-.334 6.81.121 8.858.046.203.159.835.252 1.404.093.57.257 1.388.363 1.819.23.928 1.012 3.211 1.366 3.983.137.3.333.733.434.963.224.506 1.431 2.765 1.508 2.822.03.023.156.217.28.431.123.214.24.39.26.39.02 0-.094-.231-.254-.513-.16-.282-.414-.771-.562-1.087l-.563-1.198c-.336-.717-.585-1.366-1.036-2.698-.416-1.23-.617-2.047-.864-3.515a33.795 33.795 0 0 0-.24-1.324c-.02-.068-.074-.84-.121-1.716-.18-3.354.125-7.109.825-10.178.25-1.098.977-3.419 1.298-4.142.08-.18.295-.683.478-1.116.589-1.394 1.604-3.143 2.663-4.587l.273-.372-.505-.561-.505-.561-.411.523Zm50.233 1.322c.201.463.416.933.478 1.046.062.113.284.648.493 1.19.209.54.434 1.102.5 1.247.067.145.3.79.518 1.435.218.645.432 1.265.477 1.378.045.112.253.87.462 1.681.21.812.415 1.587.456 1.723.12.389.387 1.872.545 3.034.194 1.427.194 4.424 0 6.193-.414 3.76-1.344 7.078-2.84 10.13-1.529 3.122-3.112 5.311-5.605 7.754-1.886 1.847-2.412 2.278-4.16 3.408-.404.262-.754.5-.776.53-.023.029-.372.25-.777.492-.405.241-.755.462-.777.491-.023.029-.409.247-.859.486-.45.238-.854.461-.9.497-.044.035-.43.22-.858.41-.427.189-.96.429-1.186.532-.35.16-1.578.567-3.007.995-1.321.395-3.728.727-6.22.857-2.755.144-5.951-.075-8.315-.568-1.224-.256-3.236-.871-4.026-1.231-.282-.129-.826-.374-1.208-.544-.382-.17-.732-.339-.777-.374a19.842 19.842 0 0 0-.981-.531c-.495-.258-.918-.493-.94-.523-.023-.03-.391-.254-.819-.497-.427-.244-.795-.467-.818-.494-.022-.028-.243-.174-.49-.323-1.977-1.197-4.605-3.685-6.59-6.24-.645-.833-.781-.973-.523-.54.207.346.99 1.518 1.237 1.852.083.112.452.61.818 1.107 1.404 1.901 4.863 4.92 7.389 6.447l.94.572c1.427.876 4.627 2.161 6.502 2.612.584.141 1.173.29 1.308.33.643.196 2.847.516 4.62.67 1.578.138 5.02.14 5.93.003.996-.15 2.582-.477 3.23-.667 3.27-.96 5.536-1.876 7.974-3.226.994-.55 3.28-2.096 3.72-2.517a7.02 7.02 0 0 1 .454-.368c.93-.703 4.01-3.95 4.55-4.8.072-.112.212-.297.311-.41.212-.24 1.556-2.264 1.556-2.342 0-.03.115-.224.256-.433.684-1.018 2.095-4.243 2.589-5.919.96-3.258 1.271-5.514 1.273-9.227.001-2.968-.26-5.434-.761-7.177-.085-.294-.307-1.087-.495-1.764s-.392-1.34-.453-1.476a36.305 36.305 0 0 1-.515-1.354c-.222-.609-.463-1.218-.536-1.353a24.568 24.568 0 0 1-.508-1.107c-.206-.474-.404-.898-.44-.944a17.017 17.017 0 0 1-.496-.902c-.238-.45-.512-.93-.61-1.066a8.685 8.685 0 0 1-.398-.636c-.122-.214-.236-.39-.254-.39-.018 0 .131.379.332.841Zm5.247.164c.132.237.38.763.55 1.17.17.405.382.9.47 1.097.088.198.335.883.549 1.524.213.64.41 1.2.437 1.244.077.124.545 2.018.767 3.106.568 2.777.72 4.634.66 8.093-.049 2.838-.172 4.232-.559 6.302-.275 1.473-.764 3.634-.882 3.896-.04.09-.257.736-.482 1.436a31.439 31.439 0 0 1-2.717 6.06c-.224.38-.407.7-.407.712 0 .026-1.073 1.608-1.332 1.965l-.506.697a5.914 5.914 0 0 1-.418.531c-.05.045-.308.36-.572.698-.795 1.017-3.413 3.576-4.642 4.535-.232.182-.483.389-.557.46-.074.072-.324.26-.555.418-.231.158-.52.365-.642.461-.808.634-4.076 2.533-5.62 3.265-.314.15-1.087.52-1.717.825-.63.304-1.237.592-1.35.639-.458.192.098.141 1.034-.094 2.337-.589 5.19-1.743 7.092-2.87.392-.232.734-.421.76-.421.026 0 .218-.124.427-.275.208-.15.434-.293.502-.318.136-.048 2.185-1.509 2.358-1.68.06-.06.244-.209.409-.332 1.2-.893 3.843-3.595 4.686-4.788.14-.197.296-.395.349-.44.053-.046.284-.367.515-.714.23-.347.51-.753.622-.902.112-.15.304-.456.427-.681.122-.226.303-.521.4-.657.099-.135.338-.56.533-.943.195-.383.383-.734.417-.779.034-.045.217-.433.406-.861.19-.429.446-1 .57-1.271.248-.541.997-2.645 1.242-3.486.218-.752.702-2.842.882-3.814.424-2.285.63-5.685.499-8.248-.148-2.9-.416-4.604-1.22-7.747-.185-.719-1.15-3.5-1.36-3.92a20.284 20.284 0 0 1-.413-.939c-.439-1.058-1.687-3.384-1.817-3.384-.019 0 .073.194.205.43Zm-37.68 5.962v1.236h.491v-.984H29.23v.984h.573v-2.46h-.573v1.066H28.175l-.025-.513c-.023-.491-.033-.514-.249-.539l-.225-.026v1.236Zm2.835-1.17c-.08.08-.063 1.328.024 1.701.154.67.853.974 1.511.661.491-.234.563-.417.571-1.46l.007-.916-.266-.025-.266-.026v.895c0 .999-.077 1.166-.543 1.166-.485 0-.554-.134-.589-1.14-.03-.877-.037-.91-.212-.91-.1 0-.207.024-.237.054Zm3.296.321c-.088.207-.16.388-.16.403 0 .014-.166.382-.369.816-.202.435-.368.807-.368.828 0 .02.11.038.243.038.188 0 .273-.056.37-.246.122-.237.149-.246.68-.246.539 0 .555.006.645.246.075.2.14.246.345.246.139 0 .253-.036.253-.08 0-.043-.106-.293-.234-.553-.13-.261-.36-.778-.512-1.15-.253-.617-.297-.676-.505-.677-.193 0-.252.057-.388.375Zm1.557-.317c0 .032.174.587.387 1.234l.388 1.175.242-.024c.228-.023.258-.07.505-.803l.262-.78.107.288c.058.157.181.508.273.779.15.443.191.494.413.516l.246.024.388-1.175c.213-.647.387-1.202.387-1.234 0-.032-.102-.059-.226-.059-.214 0-.242.046-.517.857l-.291.856-.276-.856c-.258-.801-.29-.857-.492-.857s-.23.05-.446.782c-.126.43-.256.798-.287.818-.032.02-.177-.333-.324-.782-.256-.785-.277-.818-.503-.818-.13 0-.236.027-.236.059Zm4.089 1.172v1.23h1.88v-.205c0-.204-.005-.205-.735-.205h-.736v-.656h.49c.47 0 .491-.01.491-.205 0-.196-.022-.205-.49-.205h-.491v-.493h1.39v-.492h-1.8v1.23Zm2.453 0v1.23h.491v-2.46h-.491v1.23Zm-7.577-.267c.063.124.14.309.171.41.053.173.033.185-.317.185-.205 0-.373-.016-.373-.034 0-.082.325-.787.363-.787.023 0 .093.102.156.226Zm-23.01 3.794v.328h47.434v-.656H11.32v.328Zm20.356 2.66c-.02.02-.298.091-.617.158-1.808.378-3.341 1.582-4.077 3.202-.486 1.07-.652 1.903-.647 3.248.005 1.051.032 1.28.233 1.969.319 1.089.704 1.788 1.347 2.441.684.696 1.02.933 1.753 1.238.936.39 1.68.526 3.08.565 1.354.037 1.899-.036 3.23-.433 1.02-.304.998-.266.698-1.205l-.253-.793-.55.21c-.96.369-1.342.446-2.43.492-1.272.054-1.872-.06-2.662-.507-.633-.358-.814-.517-1.246-1.1-.519-.7-.731-1.466-.773-2.795-.054-1.69.2-2.635.973-3.615.428-.544 1.27-1.084 1.955-1.254.894-.223 2.611-.128 3.307.182.09.04.39.166.668.28l.505.206.083-.216c.205-.536.505-1.43.484-1.448-.216-.176-1.182-.494-2.104-.694-.557-.12-1.075-.167-1.847-.167-.591 0-1.09.017-1.11.036ZM13.61 37.985v6.357h2.208V38.6h6.133v5.74h2.209v-6.1c0-3.355-.023-6.215-.052-6.356l-.05-.257H21.95v5.256l-3.066-.01-3.067-.01v-5.236H13.61v6.357Zm25.68 0v6.357H41.578V31.628h-2.29v6.357Zm8.828-5.844c-.102.282-.215.55-.25.597-.035.046-.264.6-.51 1.23-.581 1.497-2.324 5.857-2.424 6.068-.043.09-.265.643-.494 1.23a43.09 43.09 0 0 1-.537 1.331 8.667 8.667 0 0 0-.233.574c-.06.17-.187.503-.282.74l-.17.43h2.268l.409-1.045c.225-.575.514-1.35.643-1.722l.234-.677h5.234l.397 1.046c.219.575.512 1.35.652 1.722l.254.677h1.21c1.148 0 1.3-.028 1.139-.21-.038-.042-.263-.574-.5-1.18a26.082 26.082 0 0 0-.503-1.23c-.039-.07-.271-.626-.515-1.235l-.822-2.05a34.015 34.015 0 0 0-.58-1.37c-.11-.236-.307-.715-.437-1.067s-.329-.843-.442-1.09c-.113-.249-.35-.821-.529-1.272a34.467 34.467 0 0 0-.5-1.21 13.388 13.388 0 0 1-.255-.594c-.078-.205-.08-.206-1.174-.206h-1.096l-.187.513Zm1.47 2.458c.003.078.092.336.198.574.19.43.387.939.713 1.848.093.26.22.583.283.718.116.249.53 1.347.53 1.404 0 .017-.866.031-1.923.031s-1.922-.017-1.922-.038c0-.05.312-.864.41-1.069.12-.247.886-2.344 1.213-3.316l.288-.856.102.281c.056.155.104.346.108.423ZM11.32 47.541v.328h47.433v-.656H11.32v.328Zm-7.606 3.22c0 .03.106.288.234.571.13.283.355.792.502 1.13.307.704 1.306 2.588 1.632 3.076.12.18.318.5.439.712.12.21.265.433.321.493.057.06.23.293.384.518 1.371 1.993 3.866 4.597 5.863 6.121.309.236.58.452.602.48.056.07 1.333.93 2.153 1.451 1.225.777 2.604 1.486 3.818 1.962.517.203 1 .402 1.075.443.485.264 3.368.984 3.483.87.024-.025-.006-.063-.07-.085-.603-.21-1.93-.732-1.994-.784-.045-.036-.319-.162-.608-.28-.57-.231-2.696-1.36-3.469-1.842-.984-.614-2.48-1.625-2.902-1.96-.24-.192-.461-.348-.491-.348-.03 0-.164-.104-.3-.23a10.515 10.515 0 0 0-.64-.528c-1.945-1.48-5.177-4.7-6.614-6.592-.7-.92-1.219-1.641-1.518-2.109l-.681-1.066a19.271 19.271 0 0 1-.662-1.132c-.299-.566-.557-.97-.557-.872Zm29.156 1.998a2.065 2.065 0 0 0-.123.355c0 .064-.355.972-.532 1.36-.063.138-.279.692-.48 1.231-.202.54-.424 1.092-.494 1.227l-.128.246.46.025c.253.014.505.008.56-.013.055-.021.186-.282.29-.579l.19-.54h1.744l.195.574.195.574h1.105l-.171-.43a28.556 28.556 0 0 1-.286-.752 2.23 2.23 0 0 0-.184-.41c-.038-.049-.264-.606-.502-1.237-.238-.632-.459-1.186-.492-1.23a2.128 2.128 0 0 1-.157-.39l-.1-.308h-.483c-.478 0-.484.003-.607.297Zm3.475 2.082v2.378h.981v-4.757h-.98v2.379Zm-2.62-.41.227.635c.029.076-.103.103-.5.103h-.54l.176-.43c.096-.238.215-.55.263-.695.107-.32.136-.29.375.387Z" fill="#fff"/></svg>