<svg width="70" height="70" fill="none" xmlns="http://www.w3.org/2000/svg"><path d="M31.937 14.052c.244-.643.747-1.132 1.308-1.273.811-.205 1.413-.664 1.505.92v1.585c0 1.826.008.933 0 2.602-.013 2.736-.076 2.906-.704 1.885-.264-.43-.602-.96-.752-1.179-.384-.562-1.188-2.38-1.413-3.198-.167-.606-.16-.772.056-1.342ZM29.054 16.167c.124-.354.39-.86.591-1.125.201-.265.389-.482.418-.482.068 0 1.304 1.738 1.975 2.777.898 1.39 2.035 3.612 1.85 3.612-.365 0-3.4-1.863-4.195-2.576-.226-.203-.513-.637-.638-.966-.205-.542-.206-.657-.001-1.24ZM38.28 17.247c.452-.64 1.03-1.471 1.286-1.85.255-.377.532-.688.614-.69.265-.004 1.078 1.512 1.078 2.01 0 1.139-1.026 2.125-3.797 3.648-.62.34-1.153.591-1.186.559-.119-.12 1.202-2.542 2.005-3.677ZM35.464 19.715c-.124-1.4-.129-3.525-.038-4.204.134-1.132.218-3.134.586-2.944.902 0 1.985.603 2.268 1.04.355.695-.632 3.189-.632 3.259 0 .29-.49 1.269-1.267 2.527l-.826 1.339-.09-1.017ZM28.844 21.003c-.69-.584-1.098-1.623-.92-2.34.045-.18.115-.327.155-.327.133 0 3.938 2.169 4.774 2.721l.825.546-1.628.04c-1.837.047-2.565-.098-3.206-.64ZM37.323 21.036c1.064-.65 3.208-1.89 4.006-2.316.396-.211.77-.384.83-.384.214 0 .1 1.243-.17 1.837-.193.43-.472.722-.97 1.017-.653.385-.824.416-2.54.464-1.013.028-1.841-.005-1.841-.074 0-.068.308-.313.685-.544ZM29.274 22.227c0-.058.633-.127 1.408-.153.774-.026 1.716-.061 2.093-.078.378-.016.686.019.685.079-.001.143-.754.648-1.676 1.126-.695.36-.767.37-1.242.17-.476-.2-1.268-.915-1.268-1.144ZM38.298 23.147c-.477-.25-1.061-.614-1.3-.811l-.433-.358 2.094.087c1.151.047 2.122.111 2.156.141.149.13-.57.872-1.086 1.122l-.565.273-.866-.454Z" fill="#fff"/><path fill-rule="evenodd" clip-rule="evenodd" d="M30.845 1.008c-4.17.451-7.901 1.52-11.544 3.306-1.708.838-4.113 2.25-4.708 2.765-.074.065-.3.23-.502.369-1.909 1.308-4.637 3.912-6.514 6.219-.809.993-2.273 3.049-2.273 3.19 0 .046-.07.163-.158.26-.145.162-1.403 2.33-1.403 2.419 0 .02-.18.404-.399.85-.22.447-.573 1.239-.786 1.76a66.977 66.977 0 0 1-.488 1.172c-.055.123-.254.725-.442 1.339-.189.613-.413 1.341-.5 1.618-.226.723-.676 3.057-.914 4.742-.304 2.15-.28 6.722.048 9.093.259 1.876.613 3.778.852 4.574.083.277.237.804.342 1.172.287 1 .494 1.634.657 2.008.08.184.314.749.518 1.254.41 1.016.576 1.187.233.24-.556-1.533-1.156-4.473-1.518-7.445-.233-1.903-.23-7.058.003-8.756.715-5.195 2.115-9.294 4.598-13.465.997-1.676 1.621-2.556 3.29-4.638.722-.903 3.518-3.65 4.544-4.465 2.668-2.12 5.71-3.953 8.324-5.012.543-.22 1.089-.446 1.211-.502.73-.33 3.789-1.226 5.075-1.487 4.594-.933 8.68-1.004 13.216-.228 2.12.362 4.76 1.08 6.135 1.669.184.079.775.323 1.315.542 1.144.466 3.073 1.435 4.06 2.039l1.227.748c.835.508 2.892 2.072 3.937 2.993 1.654 1.459 1.927 1.734 3.617 3.655.271.307 1.453 1.799 1.771 2.234.376.515-.277-.598-.853-1.453-.516-.767-.988-1.38-2.265-2.948-1.126-1.381-3.677-3.78-5.362-5.041-.477-.357-.884-.69-.904-.738a.153.153 0 0 0-.128-.088c-.08 0-1.077-.62-1.396-.867-.541-.42-3.922-2.165-5.02-2.591-.367-.143-.719-.295-.78-.338-.232-.161-3.613-1.213-4.629-1.44C38.567.898 34.343.63 30.845 1.009Zm.725 5.23c-1.45.644-1.314 3.018.193 3.39.576.143 1.762-.058 1.757-.297-.007-.289-.195-.332-.682-.157-.44.158-.558.162-.874.032-.2-.084-.46-.306-.574-.495-.232-.38-.284-1.281-.096-1.633.19-.355.757-.583 1.298-.522.409.046.483.024.483-.143a.304.304 0 0 0-.176-.266c-.296-.113-.976-.067-1.33.09Zm9.052.25c-.141.142-.073.46.113.532.237.091.535-.196.445-.43-.068-.176-.419-.24-.558-.101ZM38.6 6.85c-.043.195-.162.347-.3.383-.24.063-.186.298.069.298.115 0 .127.095.052.419-.054.23-.099.679-.1.997-.003.685.235.927.914.927.347 0 .422-.04.422-.223 0-.174-.075-.223-.338-.223-.433 0-.497-.176-.374-1.04.096-.673.106-.69.433-.68.306.007.496-.11.5-.311 0-.044-.172-.111-.384-.151-.354-.067-.38-.098-.32-.396.057-.289.034-.323-.22-.323-.222 0-.299.07-.354.323ZM27.684 6.8c-.107.28.045.523.303.486.17-.024.237-.113.237-.313 0-.325-.43-.462-.54-.173Zm14.55.16c-.13.13-.236.337-.236.46 0 .144-.075.223-.211.223-.268 0-.391.299-.174.42.142.08.133.211-.07.98-.31 1.17-.31 1.176-.022 1.285.22.084.26.048.361-.319.514-1.87.436-1.712.82-1.675.45.044.567-.293.138-.401-.323-.081-.382-.405-.114-.628.128-.106.237-.111.437-.02.216.098.279.088.335-.058.096-.252-.064-.373-.581-.443-.358-.048-.495-.012-.683.176Zm-8.222.281c-.34.34-.379.444-.379.996 0 .5.054.68.289.96.27.321.336.342 1.053.342.78 0 .94-.072.824-.374-.051-.132-.129-.147-.343-.065-.442.168-.699.124-.992-.17-.5-.5-.381-.618.619-.618.99 0 1.022-.032.737-.714-.343-.821-1.179-.986-1.808-.357Zm2.474-.017c-.028.138-.076.716-.106 1.283l-.056 1.032h.655v-.82c0-.905.17-1.195.718-1.227.157-.01.286-.05.286-.091 0-.041.03-.154.067-.251.105-.273-.393-.224-.706.07l-.262.247-.065-.247c-.086-.329-.464-.326-.53.004Zm7.37.047c-.13.13-.079.457.083.52.232.089.562-.194.478-.411-.07-.183-.419-.25-.56-.11Zm-8.684.17c.285.286.146.425-.424.425-.584 0-.674-.09-.382-.383.208-.208.618-.229.806-.041Zm5.172.391c-.057.234-.163.776-.234 1.205-.072.43-.14.832-.153.893-.012.061.112.127.276.146.28.032.304-.001.375-.502.042-.295.149-.856.237-1.247.088-.39.145-.723.127-.74a1.604 1.604 0 0 0-.279-.104c-.213-.065-.259-.02-.35.35Zm-12.32-.112c-.127.033-.178.12-.141.239.032.102.104.412.16.688.328 1.631.415 1.805.784 1.57.132-.083.135-.208.013-.807-.18-.895-.453-1.771-.545-1.754-.04.007-.161.036-.271.064Zm-2.288.758c-.388.327-.481.691-.33 1.29.175.689.561.999 1.244.998.707 0 1.395-.358 1.181-.615-.116-.14-.164-.14-.369.004-.13.091-.442.165-.695.165-.384 0-.48-.046-.589-.284-.07-.156-.13-.3-.13-.318 0-.019.34-.123.754-.233.414-.11.795-.237.847-.283.1-.091-.205-.635-.483-.858-.304-.245-1.065-.173-1.43.134Zm17.9-.194c-.093.165-.518 1.544-.62 2.015-.104.474-.101.48.183.446.305-.036.302-.031.758-1.633.172-.607.178-.72.04-.807-.196-.124-.299-.13-.36-.02Zm-16.756.501c.169.24.161.255-.188.382-.585.212-.755.184-.755-.124 0-.5.65-.677.944-.258Zm-2.43-.06c-.15.04-.188.12-.14.295.035.132.094.592.13 1.021l.064.782-.654-.71c-.464-.506-.716-.698-.872-.667-.2.04-.216.123-.184.933.02.49.063.99.095 1.113.042.156-.036.109-.258-.155-1.011-1.204-1.1-1.277-1.366-1.135-.25.134-.248.14.287.718.296.32.696.768.89.995.36.421.53.487.806.312.122-.077.138-.272.076-.902-.044-.442-.106-.874-.139-.96-.13-.337.159-.108.72.573.555.672.605.706.87.585.276-.125.28-.146.216-1.028-.096-1.308-.172-1.85-.26-1.835-.042.007-.169.037-.282.066ZM44.908 9c-1.188.812-.969 2.367.355 2.516.436.05.526.029.526-.122 0-.115-.094-.182-.254-.182-.467 0-.75-.301-.75-.798 0-.89.634-1.346 1.282-.922.26.17.503.14.503-.064 0-.155-.62-.555-.967-.624-.223-.044-.427.013-.695.196Zm2.108.813c0 .095.18.212.433.28.537.145.728.362.637.725l-.07.277-.36-.22c-.404-.246-1.05-.284-1.318-.078-.237.183-.334.604-.212.924.127.334.696.632 1.04.545.206-.051.279-.014.326.165.111.427.379.237.79-.561.473-.922.517-1.408.156-1.747-.468-.438-1.422-.646-1.422-.31Zm2.895.738c-.068.128-.192.206-.275.174-.215-.082-.42.19-.261.348.09.09.025.282-.24.713-.631 1.027-.553 1.628.235 1.825.4.1.518-.205.146-.374-.33-.15-.336-.285-.036-.855.505-.961.53-.984.837-.783.15.1.323.15.382.113.196-.121.114-.35-.174-.481-.27-.123-.275-.142-.116-.45.092-.177.135-.353.097-.392-.149-.148-.477-.059-.595.162Zm-30.223.511c-.59.395-.782.625-.652.78.1.121.186.096.46-.135.236-.199.441-.274.683-.25.478.047.486.317.018.619-.59.379-.787.737-.623 1.13.19.462.585.613 1.069.41.212-.088.444-.289.515-.445.09-.199.168-.251.26-.175.087.072.2.059.335-.04.194-.141.182-.187-.221-.863-.235-.393-.527-.826-.651-.965-.271-.302-.798-.33-1.193-.066Zm32.14-.045c-.2.2-.15.508.094.585.284.09.447-.012.447-.281 0-.276-.364-.481-.54-.304Zm-4.207.231c.142.104.18.222.126.39-.062.195-.164.244-.51.244-.49 0-.722-.248-.543-.583.127-.236.636-.264.927-.05Zm3.03 1.613c-.536.812-.685 1.12-.596 1.229.065.08.185.13.265.111.209-.046 1.483-1.988 1.418-2.16-.158-.409-.397-.228-1.088.82Zm-32.779-.597c-.189.144-.166.203.37.937.569.78.57.784.394 1.126-.303.586-.638.474-1.3-.432-.505-.694-.587-.762-.778-.643-.117.074-.213.165-.213.203 0 .178 1.164 1.623 1.413 1.755.391.207.861-.004 1.091-.489.12-.252.233-.354.344-.312.091.035.24.003.329-.071.167-.14.076-.298-1.033-1.81-.345-.471-.344-.47-.617-.264Zm3.138.036c.116.225.06.449-.18.725-.224.258-.546.248-.689-.02-.152-.285-.044-.537.316-.732.383-.208.434-.206.553.027Zm30.85.858a2.283 2.283 0 0 0-.547.724c-.199.44-.199.468 0 .908.255.565.706.82 1.308.74.518-.07.872-.372 1.143-.973.169-.374.176-.486.054-.782-.342-.824-1.309-1.13-1.958-.617Zm-37.105.367c-.171.19-.155.232.257.679.242.262.44.521.44.575 0 .055-.263.351-.585.66l-.585.56-.53-.52c-.492-.484-.543-.508-.714-.337-.17.17-.151.222.27.72.25.296.8.879 1.223 1.295.736.726.776.75.954.552.176-.194.156-.236-.356-.774l-.543-.568.576-.57c.317-.312.63-.568.695-.568.065 0 .324.226.576.502.497.547.594.587.805.333.148-.177-.043-.415-1.674-2.095-.596-.614-.636-.636-.81-.444Zm38.37-.02c.138.097.248.292.248.438 0 .236-.422.87-.723 1.089-.235.17-.615.079-.79-.19-.233-.355-.056-.956.377-1.28.364-.271.563-.284.888-.056Zm.761 1.845c-.466.496-.848.935-.848.977 0 .041.096.135.212.208.186.116.291.05.858-.546.627-.657.658-.675 1.043-.58.625.155.587.473-.153 1.29-.342.378-.621.723-.621.767 0 .043.082.147.183.23.161.134.266.06.89-.628.557-.612.71-.855.71-1.134.001-.434-.43-.817-.92-.817-.283 0-.312-.025-.194-.167.11-.134.11-.201 0-.335-.076-.092-.178-.167-.225-.167-.048 0-.468.405-.935.902ZM9.928 18.607c-.398.474-1.5 2.045-1.5 2.139 0 .036-.136.278-.302.538-1.056 1.657-2.343 4.898-2.83 7.128-.663 3.028-.693 3.32-.698 6.677-.004 3.353-.012 3.272.695 6.973.179.937.543 2.208.964 3.363l.523 1.435c.17.468 1.615 3.319 1.814 3.58.09.117-.109-.389-.443-1.125-1.24-2.736-1.554-3.781-2.31-7.699-.174-.904-.157-7.553.022-8.535.073-.4.172-1.002.22-1.34.05-.337.146-.864.216-1.17l.304-1.34c.448-1.974 1.425-4.58 2.426-6.471.673-1.27 1.728-2.938 2.002-3.166.255-.211.246-.238-.294-.843l-.479-.537-.33.393Zm50.247 1.391c.484 1.012 1.285 2.984 1.98 4.882.5 1.362 1.218 3.986 1.633 5.97.904 4.316.598 9.042-.908 14.057-.38 1.265-1.61 4.36-1.862 4.687-.071.092-.298.493-.504.892-.206.4-.416.742-.467.763-.051.02-.093.088-.093.151 0 .181-1.404 2.148-2.286 3.2-1.34 1.6-3.209 3.414-4.748 4.607-.643.498-3.145 2.12-4.398 2.851-.88.513-3.103 1.594-3.279 1.594-.063 0-.28.07-.481.156-1.68.716-3.678 1.183-6.5 1.519-2.957.352-7.259.245-9.648-.24-1.788-.363-3.127-.714-3.736-.98a15.67 15.67 0 0 0-.78-.291c-.745-.26-3.014-1.37-4.15-2.03l-1.562-.91c-2.042-1.19-4.186-3.067-6.646-5.818-.591-.661-.62-.68-.334-.221.651 1.048 2.034 2.791 2.712 3.42.388.359.864.804 1.058.988.194.184.502.46.685.613l.995.842c3.2 2.725 7.41 4.805 11.59 5.727 2.915.643 6.576.982 9.324.866 4.562-.195 10.724-2.444 15.278-5.577 2.11-1.452 5.078-4.421 6.697-6.7 1.511-2.127 3.053-5.014 3.728-6.979.222-.647.446-1.258.498-1.358.105-.201.686-2.656.895-3.78.544-2.928.57-8.255.052-10.767-.378-1.83-.527-2.486-.683-3.012-.98-3.295-2.168-6.14-3.553-8.512-.575-.985-.839-1.302-.507-.61Zm5.579.874c0 .06.068.208.15.329.084.121.266.521.406.89l.468 1.227c.58 1.508 1.343 4.324 1.588 5.857.447 2.794.536 4.121.48 7.085-.054 2.797-.119 3.614-.48 6.026-.25 1.668-1.075 4.98-1.451 5.818-.087.194-.157.405-.157.47 0 .066-.07.284-.156.486-.865 2.037-1.467 3.403-1.55 3.516-.056.075-.25.422-.43.77-.528 1.017-2.184 3.539-2.874 4.375-2.307 2.798-5.037 5.367-7.455 7.017-.774.529-1.735 1.1-3.596 2.141-.61.341-3.53 1.787-4.43 2.194-.462.21-.667.454-.282.336.107-.033.471-.133.809-.222 4.779-1.269 9.145-3.652 12.985-7.089 2.043-1.827 4.45-4.815 5.717-7.093 1.436-2.584 2.412-4.864 3.104-7.252.107-.369.257-.87.333-1.116.147-.475.603-3.022.888-4.965.24-1.636.238-6.748-.003-8.368-.264-1.781-.703-4.112-.901-4.798-.766-2.639-1.473-4.53-2.395-6.398-.545-1.104-.768-1.464-.768-1.236ZM27.61 26.163c0 1.153.014 1.227.223 1.227.19 0 .224-.074.224-.502v-.502h1.226v.51c0 .465.022.507.251.474.242-.034.251-.077.251-1.207 0-1.13-.009-1.173-.25-1.207-.23-.033-.252.01-.252.474v.51H28.056v-.502c0-.428-.033-.502-.223-.502-.21 0-.223.074-.223 1.227Zm2.9-.304c0 1.056.13 1.335.71 1.526.439.145.826.032 1.175-.344.199-.213.234-.39.234-1.178 0-.853-.018-.927-.223-.927-.2 0-.223.074-.223.718 0 1.028-.123 1.29-.607 1.29-.508 0-.62-.22-.62-1.22 0-.714-.02-.788-.223-.788-.205 0-.223.074-.223.923Zm3.325-.56c-.37.734-.871 1.872-.871 1.98 0 .2.389.117.532-.112.111-.179.26-.223.744-.223.507 0 .616.036.676.223.039.123.167.223.286.223.118 0 .215-.018.215-.04 0-.063-.62-1.552-.835-2.006-.24-.506-.506-.522-.747-.046Zm1.904.86c.347 1.054.437 1.225.645 1.228.202.003.286-.13.51-.8l.267-.802.285.775c.21.567.346.784.509.808.155.024.24-.043.283-.223.034-.141.184-.583.335-.982.47-1.247.47-1.25.173-1.209-.212.03-.304.169-.485.726-.122.379-.256.722-.297.763-.041.04-.164-.219-.272-.577-.34-1.127-.702-1.236-.932-.279-.073.307-.2.648-.28.758-.13.178-.173.112-.386-.604-.208-.7-.274-.805-.499-.805h-.259l.404 1.224Zm3.694.004v1.227h.948c.873 0 .948-.017.948-.223 0-.2-.075-.223-.725-.223h-.725v-.335c0-.316.025-.334.446-.334.322 0 .446-.047.446-.168 0-.12-.124-.167-.446-.167-.402 0-.446-.028-.446-.28 0-.266.03-.278.669-.278.595 0 .67-.025.67-.223 0-.205-.075-.223-.893-.223h-.892v1.227Zm2.453 0v1.227h.558v-2.454h-.558v1.227Zm-7.509-.118c.143.378.1.453-.26.453-.294 0-.317-.089-.131-.497.166-.366.24-.358.391.044Zm-23.162 3.633v.278h47.512v-.558H11.215v.28Zm21.024 2.58c-1.105.143-1.774.33-2.565.714-1.78.864-2.846 2.334-3.254 4.487-.296 1.555-.039 3.45.65 4.805.349.684 1.513 1.765 2.325 2.157 1.903.92 4.949.96 7.113.093.503-.202.5-.132.068-1.351l-.164-.462-.58.223c-1.444.555-3.638.594-4.823.085-.608-.26-1.453-1.025-1.727-1.562-.553-1.085-.716-2.962-.376-4.343.488-1.986 1.984-3.13 4.09-3.13.697 0 2.246.35 2.786.629.18.092.34.151.36.132.063-.069.614-1.424.613-1.512 0-.047-.238-.179-.53-.292-.29-.113-.63-.25-.752-.303-.485-.213-2.591-.454-3.234-.37ZM13.558 38.77v6.36h2.23V39.44h6.134v5.699l1.088-.032 1.087-.032V32.467l-1.087-.032-1.088-.032v5.26l-3.067-.013-3.067-.014v-5.225h-2.231v6.36Zm25.651 0v6.36H41.551V32.41H39.21v6.36Zm9.098-6.26c-.034.054-.24.569-.457 1.143a32.01 32.01 0 0 1-.55 1.38c-.162.349-2.666 6.548-3.425 8.479-.242.613-.487 1.203-.545 1.31a.955.955 0 0 0-.105.25c0 .032.52.058 1.155.058h1.156l.378-1.03.605-1.646.228-.616 2.638-.03 2.638-.03.17.365c.094.2.349.86.567 1.464.596 1.66.436 1.523 1.789 1.523.642 0 1.167-.02 1.167-.042 0-.12-.349-1.002-.652-1.65a18.55 18.55 0 0 1-.5-1.168c-.166-.456-1.002-2.509-1.97-4.839-.32-.767-.779-1.872-1.02-2.455a80.733 80.733 0 0 1-.728-1.813l-.286-.753h-1.096c-.603 0-1.123.045-1.157.1Zm1.274 2.857c.001.123.081.374.178.558.097.184.24.51.32.725.156.426 1.095 2.833 1.231 3.157.08.19-.026.2-1.826.179-1.304-.015-1.91-.06-1.91-.145.001-.067.155-.524.344-1.015.188-.491.559-1.495.822-2.232.654-1.827.631-1.777.744-1.6.052.083.096.25.097.373Zm-38.345 12.97.035.307L35 48.673l23.728.029v-.67H11.2l.036.306Zm-7.382 3.665c0 .35 2.797 5.503 3.114 5.736.042.03.198.231.347.446 1.71 2.464 4.714 5.36 7.523 7.252.802.54 3.031 1.83 3.587 2.076.36.158.854.379 1.1.49 1.275.577 4.628 1.538 4.628 1.327 0-.055-.055-.1-.123-.1-.067 0-.28-.071-.474-.159a29.83 29.83 0 0 0-1.132-.462c-1.314-.51-3.646-1.737-4.999-2.631-.357-.236-.678-.43-.714-.43-.036 0-.321-.19-.634-.425-.312-.234-.97-.722-1.46-1.085a27.74 27.74 0 0 1-1.343-1.053c-.248-.216-.723-.619-1.056-.895-.928-.77-3.42-3.29-4.302-4.352-1.553-1.867-2.712-3.508-3.522-4.985-.412-.75-.54-.928-.54-.75Zm16.953 3.56v2.399h1.147c1.442 0 1.97-.223 2.47-1.041.588-.961.495-2.42-.196-3.07-.43-.404-1.455-.687-2.49-.687h-.931v2.399Zm9.062-1.99c-.077.03-.14.174-.14.318 0 .248-.207.548-.435.63-.058.02-.14.176-.182.344-.068.274-.045.307.203.307.277 0 .278.005.32 1.224.036 1.06.072 1.246.263 1.394.33.253.669.317 1.233.232.49-.073.506-.088.473-.43-.032-.337-.056-.354-.444-.32-.54.047-.65-.166-.65-1.255v-.845h.44c.476 0 .497-.016.606-.474.073-.304.068-.307-.486-.307h-.56v-.446c0-.391-.031-.445-.25-.438a1.448 1.448 0 0 0-.391.066Zm-18.988.477c0 .058.05.136.11.173.063.04.082-.006.044-.105-.074-.193-.154-.229-.154-.068Zm12.192.132c.506.262.737.674.74 1.325.007 1.044-.576 1.674-1.55 1.674h-.452v-3.125h.509c.28 0 .619.057.753.126Zm2.837.339c-.26.095-.296.157-.236.41.108.45.11.452.713.275.508-.148.59-.147.838.015.334.22.38.628.062.544-.421-.11-1.445.188-1.682.49-.31.393-.298 1.052.026 1.428.322.375 1.033.49 1.522.245.194-.097.371-.127.407-.069.035.056.261.103.503.103h.44v-1.256c0-1.392-.163-1.919-.67-2.172-.329-.165-1.487-.172-1.923-.013Zm6.636-.01c-.394.12-.416.171-.258.59.105.274.11.275.635.117.737-.222 1.15-.066 1.154.436.002.152-.053.185-.222.132-.123-.04-.502-.013-.844.057-.509.106-.658.192-.835.482-.473.777-.114 1.597.75 1.713.315.042.582.002.835-.123.232-.116.385-.142.41-.07.02.064.239.117.484.117h.446l-.037-1.449c-.036-1.407-.045-1.456-.342-1.753-.265-.265-.406-.31-1.06-.333-.415-.015-.917.023-1.116.083Zm4.139.07c-.53.264-.822.874-.821 1.722 0 .85.236 1.31.812 1.584.451.214.957.236 1.565.067.405-.113.422-.136.35-.474-.097-.45-.1-.452-.368-.308-.124.066-.404.12-.62.12-.302 0-.44-.068-.584-.288-.246-.375-.242-1.174.007-1.554.17-.261.253-.293.66-.251.255.026.543.083.64.126.131.06.204-.017.293-.31.115-.373.107-.392-.22-.506-.48-.167-1.304-.133-1.714.071Zm3.194-.007c-.437.311-.554.45-.73.87-.334.802-.118 1.812.488 2.275.517.394 1.613.427 2.101.064.495-.369.722-.852.722-1.537 0-.669-.177-1.098-.623-1.515-.393-.367-1.533-.459-1.958-.157Zm3.346 1.602v1.786h.892v-1.164c0-1.124.01-1.171.294-1.394.328-.259.709-.3.91-.098.089.089.134.563.134 1.395v1.26h.892v-1.15c0-1.003.03-1.181.228-1.395.25-.267.656-.32.865-.11.089.089.134.563.134 1.395v1.26h.893l-.002-1.366c-.002-1.632-.033-1.776-.442-2.017-.426-.252-.958-.235-1.41.045l-.376.232-.294-.232c-.362-.285-.95-.3-1.398-.036-.316.185-.337.185-.441 0-.072-.128-.244-.196-.495-.196h-.384v1.785Zm-1.936-.716c.104.159.188.505.188.772 0 .642-.277 1.06-.7 1.06-.58 0-.867-.513-.755-1.35.078-.583.25-.77.704-.77.28 0 .422.073.563.288ZM27.61 56.678c0 .314-.434.63-.814.593-.36-.035-.5-.26-.37-.599.09-.233 1.184-.227 1.184.007Zm6.47.108a.461.461 0 0 1-.23.398c-.33.177-.82.093-.867-.15-.075-.397.067-.523.59-.523.463 0 .506.023.506.275Z" fill="#fff"/></svg>