<svg width="70" height="70" fill="none" xmlns="http://www.w3.org/2000/svg"><mask id="path-1-inside-1_485_5628" fill="#fff"><path fill-rule="evenodd" clip-rule="evenodd" d="M33.273.2c-.849.312-1.449.862-1.932 1.77-.676 1.271-1.393 1.621-2.441 1.192-.903-.37-2.07-.316-2.994.137-.884.433-1.962 1.555-2.366 2.462-.34.764-.355 2.003-.035 2.76.447 1.055.083 1.813-1.2 2.498-1.416.756-1.973 1.79-1.973 3.662 0 .602.091 1.354.203 1.672l.203.577-7.079.041-7.079.041-.942.448c-1.311.622-2.128 1.423-2.762 2.709l-.527 1.068-.038 18.765-.038 18.765H0l.046 3.505.046 3.505.527 1.067c.634 1.285 1.452 2.087 2.762 2.709l.942.447h61.354l.942-.447c1.31-.622 2.128-1.424 2.762-2.709l.527-1.067.046-3.505.046-3.505H67.727l-.038-18.765-.038-18.765-.527-1.068c-.634-1.286-1.45-2.087-2.762-2.71l-.942-.447-7.079-.041-7.079-.041.203-.577c.112-.318.203-1.07.203-1.672 0-1.872-.557-2.906-1.974-3.662-1.282-.685-1.646-1.443-1.2-2.497.327-.772.306-1.996-.049-2.799-.37-.839-1.663-2.136-2.497-2.505-.823-.365-1.922-.39-2.771-.063-1.088.419-1.865.087-2.436-1.043-.466-.92-1.22-1.634-2.015-1.905-.8-.273-2.72-.277-3.453-.007Zm2.964 2.266c.172.12.45.537.616.925.37.86 1.139 1.546 2.184 1.946.94.36 1.693.369 2.733.028.938-.306 1.297-.213 2.014.526.736.759.819 1.082.516 2.008-.34 1.037-.334 1.794.022 2.727.404 1.055.975 1.705 1.9 2.158 1.026.503 1.19.763 1.19 1.897 0 1.133-.194 1.447-1.142 1.856-.859.37-1.544 1.141-1.944 2.188-.36.943-.367 1.697-.026 2.738.303.926.22 1.25-.516 2.008-.717.739-1.075.832-2.014.525-1.028-.336-1.802-.332-2.721.012-1.02.382-1.827 1.104-2.196 1.963-.408.95-.722 1.144-1.853 1.144s-1.445-.193-1.853-1.144c-.37-.86-1.139-1.546-2.184-1.946-.941-.361-1.694-.369-2.733-.027-.558.183-.875.218-1.128.123-.494-.184-1.267-.949-1.493-1.476-.168-.39-.156-.54.102-1.271.364-1.032.295-1.963-.227-3.067-.412-.872-.972-1.417-1.868-1.816-.837-.372-1.028-.709-1.028-1.81s.191-1.438 1.028-1.81c.896-.4 1.457-.944 1.868-1.816.522-1.105.59-2.035.227-3.067-.258-.731-.27-.88-.102-1.272.226-.526 1-1.29 1.493-1.475.253-.095.57-.06 1.128.123 1.027.338 1.801.335 2.721-.01 1.02-.382 1.827-1.104 2.196-1.963.167-.388.444-.804.616-.925.425-.299 2.049-.299 2.474 0Zm-2.859 4.466c-1.274.24-2.88 1.133-3.93 2.186-3.09 3.094-3.103 8.018-.031 11.095 1.607 1.611 3.29 2.306 5.583 2.306 2.243 0 4.004-.709 5.51-2.217 3.128-3.135 3.155-8.045.061-11.176-1.866-1.888-4.52-2.697-7.193-2.194Zm3.94 2.637c1.272.596 2.095 1.408 2.726 2.687.498 1.01.527 1.143.527 2.425 0 1.282-.029 1.416-.527 2.425-.634 1.286-1.45 2.087-2.762 2.71-.852.404-1.07.446-2.282.446s-1.43-.043-2.282-.447c-1.311-.622-2.128-1.423-2.762-2.71-.497-1.007-.527-1.143-.527-2.417 0-1.222.042-1.439.446-2.293.567-1.199 1.374-2.076 2.426-2.638 1.111-.593 1.72-.727 3.016-.666.847.04 1.298.148 2 .478Zm-3.446 1.905c-.693.219-1.873 1.444-2.085 2.164-.391 1.324-.116 2.38.881 3.38 1.427 1.429 3.237 1.429 4.664 0 1.378-1.382 1.42-3.138.108-4.6-.913-1.017-2.232-1.366-3.568-.944ZM6.792 13.55v1.13h2.256v-2.26H6.792v1.13Zm4.513 0v1.13H13.562v-2.26H11.305v1.13Zm4.513 0v1.13H18.075v-2.26H15.818v1.13Zm36.107 0v1.13H54.182v-2.26H51.925v1.13Zm4.513 0v1.13H58.695v-2.26H56.438v1.13Zm4.514 0v1.13h2.256v-2.26h-2.256v1.13Zm-25.17.347c.7.701.204 1.914-.782 1.914-.275 0-.564-.128-.782-.347a1.14 1.14 0 0 1-.346-.783c0-.275.128-.565.346-.784.218-.218.507-.347.782-.347s.564.129.782.347Zm-12.16 5.821c.09.313.067.629-.077 1.06l-.204.615-7.56.07c-7.357.07-7.569.079-7.948.362-.214.16-.52.467-.68.682-.29.389-.29.45-.29 16.478 0 16.027 0 16.089.29 16.477.16.215.466.522.68.682l.39.291h53.554l.39-.291c.214-.16.52-.467.68-.682.29-.388.29-.45.29-16.477 0-16.028 0-16.09-.29-16.478a4.034 4.034 0 0 0-.68-.682c-.38-.283-.59-.293-7.949-.362l-7.559-.07-.204-.615c-.144-.431-.166-.747-.077-1.06l.127-.445 7.964-.04c5.963-.03 8.123.004 8.598.134.825.225 1.984 1.362 2.226 2.183.131.444.172 4.93.172 18.9v18.317H4.535V40.449c0-13.968.04-18.455.172-18.899.212-.719 1.392-1.944 2.085-2.163.34-.108 3.006-.15 8.598-.135l8.104.021.128.445Zm.358 4.637c1.299 1.812 3.03 2.467 4.867 1.841.692-.235.817-.24 1.306-.054.522.2.67.369 1.455 1.672.642 1.064 1.724 1.562 3.395 1.562 1.868 0 2.898-.559 3.656-1.984.675-1.268 1.39-1.62 2.441-1.197.757.305 2 .31 2.71.013.732-.306 1.657-1.082 2.21-1.853l.452-.63h14.48v30.52H9.048v-30.52h14.48l.452.63ZM11.305 39.55v7.913h3.385v4.521h40.62v-4.521h3.385V31.637H49.668v15.826h3.385v2.26h-9.026v-2.26h3.385V31.637H38.385v15.826h3.385v2.26H28.23v-2.26h3.385V31.637H22.588v15.826h3.385v2.26h-9.026v-2.26h3.385V31.637H11.305v7.913Zm6.77 0v5.652h-4.513V33.898h4.513v5.652Zm11.283 0v5.652h-4.513V33.898h4.513v5.652Zm15.797 0v5.652h-4.513V33.898h4.513v5.652Zm11.283 0v5.652h-4.513V33.898h4.513v5.652Zm11.284 23.404c0 1.1-.074 2.176-.172 2.508-.229.776-1.397 1.947-2.172 2.176-.844.25-59.912.25-60.756 0-.775-.23-1.943-1.4-2.172-2.176-.098-.332-.172-1.409-.172-2.508v-1.927h65.444v1.927Zm-15.797 1.465v1.13H54.182v-2.26H51.925v1.13Zm4.513 0v1.13H58.695v-2.26H56.438v1.13Zm4.514 0v1.13h2.256v-2.26h-2.256v1.13Z"/></mask><path fill-rule="evenodd" clip-rule="evenodd" d="M33.273.2c-.849.312-1.449.862-1.932 1.77-.676 1.271-1.393 1.621-2.441 1.192-.903-.37-2.07-.316-2.994.137-.884.433-1.962 1.555-2.366 2.462-.34.764-.355 2.003-.035 2.76.447 1.055.083 1.813-1.2 2.498-1.416.756-1.973 1.79-1.973 3.662 0 .602.091 1.354.203 1.672l.203.577-7.079.041-7.079.041-.942.448c-1.311.622-2.128 1.423-2.762 2.709l-.527 1.068-.038 18.765-.038 18.765H0l.046 3.505.046 3.505.527 1.067c.634 1.285 1.452 2.087 2.762 2.709l.942.447h61.354l.942-.447c1.31-.622 2.128-1.424 2.762-2.709l.527-1.067.046-3.505.046-3.505H67.727l-.038-18.765-.038-18.765-.527-1.068c-.634-1.286-1.45-2.087-2.762-2.71l-.942-.447-7.079-.041-7.079-.041.203-.577c.112-.318.203-1.07.203-1.672 0-1.872-.557-2.906-1.974-3.662-1.282-.685-1.646-1.443-1.2-2.497.327-.772.306-1.996-.049-2.799-.37-.839-1.663-2.136-2.497-2.505-.823-.365-1.922-.39-2.771-.063-1.088.419-1.865.087-2.436-1.043-.466-.92-1.22-1.634-2.015-1.905-.8-.273-2.72-.277-3.453-.007Zm2.964 2.266c.172.12.45.537.616.925.37.86 1.139 1.546 2.184 1.946.94.36 1.693.369 2.733.028.938-.306 1.297-.213 2.014.526.736.759.819 1.082.516 2.008-.34 1.037-.334 1.794.022 2.727.404 1.055.975 1.705 1.9 2.158 1.026.503 1.19.763 1.19 1.897 0 1.133-.194 1.447-1.142 1.856-.859.37-1.544 1.141-1.944 2.188-.36.943-.367 1.697-.026 2.738.303.926.22 1.25-.516 2.008-.717.739-1.075.832-2.014.525-1.028-.336-1.802-.332-2.721.012-1.02.382-1.827 1.104-2.196 1.963-.408.95-.722 1.144-1.853 1.144s-1.445-.193-1.853-1.144c-.37-.86-1.139-1.546-2.184-1.946-.941-.361-1.694-.369-2.733-.027-.558.183-.875.218-1.128.123-.494-.184-1.267-.949-1.493-1.476-.168-.39-.156-.54.102-1.271.364-1.032.295-1.963-.227-3.067-.412-.872-.972-1.417-1.868-1.816-.837-.372-1.028-.709-1.028-1.81s.191-1.438 1.028-1.81c.896-.4 1.457-.944 1.868-1.816.522-1.105.59-2.035.227-3.067-.258-.731-.27-.88-.102-1.272.226-.526 1-1.29 1.493-1.475.253-.095.57-.06 1.128.123 1.027.338 1.801.335 2.721-.01 1.02-.382 1.827-1.104 2.196-1.963.167-.388.444-.804.616-.925.425-.299 2.049-.299 2.474 0Zm-2.859 4.466c-1.274.24-2.88 1.133-3.93 2.186-3.09 3.094-3.103 8.018-.031 11.095 1.607 1.611 3.29 2.306 5.583 2.306 2.243 0 4.004-.709 5.51-2.217 3.128-3.135 3.155-8.045.061-11.176-1.866-1.888-4.52-2.697-7.193-2.194Zm3.94 2.637c1.272.596 2.095 1.408 2.726 2.687.498 1.01.527 1.143.527 2.425 0 1.282-.029 1.416-.527 2.425-.634 1.286-1.45 2.087-2.762 2.71-.852.404-1.07.446-2.282.446s-1.43-.043-2.282-.447c-1.311-.622-2.128-1.423-2.762-2.71-.497-1.007-.527-1.143-.527-2.417 0-1.222.042-1.439.446-2.293.567-1.199 1.374-2.076 2.426-2.638 1.111-.593 1.72-.727 3.016-.666.847.04 1.298.148 2 .478Zm-3.446 1.905c-.693.219-1.873 1.444-2.085 2.164-.391 1.324-.116 2.38.881 3.38 1.427 1.429 3.237 1.429 4.664 0 1.378-1.382 1.42-3.138.108-4.6-.913-1.017-2.232-1.366-3.568-.944ZM6.792 13.55v1.13h2.256v-2.26H6.792v1.13Zm4.513 0v1.13H13.562v-2.26H11.305v1.13Zm4.513 0v1.13H18.075v-2.26H15.818v1.13Zm36.107 0v1.13H54.182v-2.26H51.925v1.13Zm4.513 0v1.13H58.695v-2.26H56.438v1.13Zm4.514 0v1.13h2.256v-2.26h-2.256v1.13Zm-25.17.347c.7.701.204 1.914-.782 1.914-.275 0-.564-.128-.782-.347a1.14 1.14 0 0 1-.346-.783c0-.275.128-.565.346-.784.218-.218.507-.347.782-.347s.564.129.782.347Zm-12.16 5.821c.09.313.067.629-.077 1.06l-.204.615-7.56.07c-7.357.07-7.569.079-7.948.362-.214.16-.52.467-.68.682-.29.389-.29.45-.29 16.478 0 16.027 0 16.089.29 16.477.16.215.466.522.68.682l.39.291h53.554l.39-.291c.214-.16.52-.467.68-.682.29-.388.29-.45.29-16.477 0-16.028 0-16.09-.29-16.478a4.034 4.034 0 0 0-.68-.682c-.38-.283-.59-.293-7.949-.362l-7.559-.07-.204-.615c-.144-.431-.166-.747-.077-1.06l.127-.445 7.964-.04c5.963-.03 8.123.004 8.598.134.825.225 1.984 1.362 2.226 2.183.131.444.172 4.93.172 18.9v18.317H4.535V40.449c0-13.968.04-18.455.172-18.899.212-.719 1.392-1.944 2.085-2.163.34-.108 3.006-.15 8.598-.135l8.104.021.128.445Zm.358 4.637c1.299 1.812 3.03 2.467 4.867 1.841.692-.235.817-.24 1.306-.054.522.2.67.369 1.455 1.672.642 1.064 1.724 1.562 3.395 1.562 1.868 0 2.898-.559 3.656-1.984.675-1.268 1.39-1.62 2.441-1.197.757.305 2 .31 2.71.013.732-.306 1.657-1.082 2.21-1.853l.452-.63h14.48v30.52H9.048v-30.52h14.48l.452.63ZM11.305 39.55v7.913h3.385v4.521h40.62v-4.521h3.385V31.637H49.668v15.826h3.385v2.26h-9.026v-2.26h3.385V31.637H38.385v15.826h3.385v2.26H28.23v-2.26h3.385V31.637H22.588v15.826h3.385v2.26h-9.026v-2.26h3.385V31.637H11.305v7.913Zm6.77 0v5.652h-4.513V33.898h4.513v5.652Zm11.283 0v5.652h-4.513V33.898h4.513v5.652Zm15.797 0v5.652h-4.513V33.898h4.513v5.652Zm11.283 0v5.652h-4.513V33.898h4.513v5.652Zm11.284 23.404c0 1.1-.074 2.176-.172 2.508-.229.776-1.397 1.947-2.172 2.176-.844.25-59.912.25-60.756 0-.775-.23-1.943-1.4-2.172-2.176-.098-.332-.172-1.409-.172-2.508v-1.927h65.444v1.927Zm-15.797 1.465v1.13H54.182v-2.26H51.925v1.13Zm4.513 0v1.13H58.695v-2.26H56.438v1.13Zm4.514 0v1.13h2.256v-2.26h-2.256v1.13Z" fill="#fff" stroke="#fff" stroke-width="2" mask="url('#path-1-inside-1_485_5628')"/></svg>