<svg width="70" height="66" fill="none" xmlns="http://www.w3.org/2000/svg"><path fill-rule="evenodd" clip-rule="evenodd" d="m45.18 1.136-.336.335v11.76l.335.335.336.334H57.298l.335-.334.336-.335V1.47l-.336-.335L57.298.8H45.515l-.336.335ZM11.073 3.189c-5.92 1.194-9.747 6.75-8.693 12.622.407 2.268 1.525 4.31 3.262 5.957 1.194 1.133 2.317 1.838 3.755 2.361 4.806 1.747 10.072-.021 12.902-4.333 1.205-1.834 1.688-3.523 1.688-5.896 0-2.374-.484-4.064-1.69-5.895-2.456-3.733-6.976-5.673-11.224-4.816ZM55.781 7.35v4.366h-8.75V2.984h8.75v4.367Zm-41.64-2.063c.04.066-.112.197-.339.291-.917.38-1.77 1.76-1.77 2.863 0 1.262 1.096 2.763 2.271 3.11.375.11 1.684.165 3.92.165h3.36l.163.785c.213 1.02.09 2.85-.269 3.991-.82 2.61-3.14 4.926-5.754 5.744-1.3.406-3 .487-4.28.203l-1.043-.232.495-.434c.273-.24.64-.742.815-1.118.57-1.22.365-2.417-.595-3.482-.864-.96-1.362-1.09-4.155-1.09H4.67l-.148-.69c-.361-1.682-.056-3.67.837-5.45 1.116-2.228 3.46-4.056 5.85-4.566 1.012-.215 2.819-.27 2.93-.09Zm21.195.214c-.333.333-.336.356-.336 2.94 0 3.508-.233 3.275 3.281 3.275 2.59 0 2.613-.003 2.946-.335.333-.332.336-.356.336-2.94 0-3.507.232-3.275-3.282-3.275-2.589 0-2.613.003-2.945.335Zm-15.76 2.525c.326.372.703.864.838 1.092l.246.415h-2.885c-2.88 0-2.885 0-3.22-.335a1.099 1.099 0 0 1-.336-.757c0-.265.124-.545.335-.756.327-.326.392-.335 2.382-.335h2.047l.593.676Zm19.799.415v1.092H37.188V7.351H39.374v1.091Zm14.554 7.977-.335.335v6.301l.335.335.336.335h6.314l.335-.335.336-.335v-6.301l-.336-.335-.335-.335h-6.314l-.336.335ZM9.51 18.602c.21.211.335.491.335.757s-.124.545-.336.756c-.292.292-.459.335-1.288.335h-.953l-.593-.676c-.326-.372-.703-.864-.838-1.092l-.246-.415h1.791c1.72 0 1.805.014 2.127.335Zm21.253-.13c-5.202 1.05-8.887 5.524-8.887 10.792 0 .821-.04 1.011-.211 1.011-.116 0-.363.151-.547.335l-.336.335v7.394l.336.334c.184.185.418.335.519.335.131 0 .228.398.341 1.4.188 1.67.557 2.925 1.292 4.4 1 2.004 2.606 3.843 4.385 5.022l.784.519v2.82l-2.427.062c-2.622.066-3.375.236-4.854 1.102-1.065.623-2.255 1.949-2.839 3.163-.68 1.413-.818 2.24-.818 4.878 0 2.116.008 2.172.336 2.499a1.07 1.07 0 0 0 1.46.075c.314-.254.325-.333.392-2.84l.068-2.577.51-1.031c.616-1.242 1.407-2.016 2.678-2.617.91-.43.925-.432 3.483-.479l2.57-.047 1.152 1.105c.738.707 1.263 1.104 1.458 1.104.167 0 1-.228 1.849-.507L35 56.552l1.544.507c.85.28 1.688.507 1.863.507.213 0 .69-.363 1.452-1.104l1.133-1.105 2.576.047c2.563.047 2.579.05 3.488.48 1.27.6 2.063 1.374 2.678 2.616l.51 1.03.069 2.579c.066 2.506.077 2.585.39 2.839.457.368 1.054.332 1.476-.09l.35-.349-.062-2.618c-.068-2.862-.187-3.414-1.061-4.939-.504-.879-1.733-2.134-2.569-2.623-1.473-.861-2.228-1.032-4.848-1.098l-2.426-.062V50.388l.808-.57c1.906-1.34 3.367-3.02 4.36-5.01.735-1.475 1.104-2.73 1.292-4.4.113-1.002.21-1.4.341-1.4.101 0 .335-.15.52-.335l.335-.334v-7.394l-.336-.335c-.184-.184-.43-.335-.547-.335-.17 0-.211-.181-.211-.926 0-1.806-.636-3.39-1.884-4.697-.785-.82-2.208-1.655-3.116-1.824l-.469-.088v-1.902c0-1.837-.011-1.912-.335-2.236l-.336-.335-5.167.013c-3.68.01-5.423.064-6.056.192Zm28.3 1.433v1.637h-3.28v-3.275h3.28v1.638ZM40.47 22.299c0 1.744.017 1.866.313 2.16.231.231.539.337 1.176.403 1 .104 2.299.73 2.832 1.362.7.83 1.04 1.722 1.115 2.92.075 1.197-.068 1.468-.38.717-.233-.562-1.23-1.413-1.885-1.609-.76-.227-16.52-.227-17.28 0-.655.196-1.652 1.047-1.885 1.61-.278.669-.413.48-.41-.576.005-2.086.823-4.313 2.131-5.806.736-.84 2.037-1.797 3.107-2.286 1.402-.64 2.151-.721 6.825-.733l4.34-.01v1.848Zm2.945 8.311.336.335v7.394l-.336.334-.335.335H26.92l-.335-.335-.336-.334v-7.394l.336-.335.335-.335H43.08l.335.335Zm8.328 0-.336.335V47.072l.336.335.335.335H69.33l.335-.335.336-.335V30.945l-.336-.335-.335-.335H52.077l-.335.335ZM.336 32.794 0 33.128v13.944l.336.335.335.335h8.54c4.697 0 8.64-.039 8.761-.085.601-.23.622-.485.622-7.693v-6.836l-.336-.334-.335-.335H.67l-.335.335Zm23.727 1.848v2.183h-1.094V32.46h1.094v2.183Zm22.968 0v2.183h-1.094V32.46h1.094v2.183Zm20.782-1.638v.546h-14.22V32.46h14.22v.545Zm-39.04.881c-.212.211-.335.491-.335.757s.123.545.335.756l.336.335H40.89l.336-.334c.212-.212.336-.491.336-.757s-.125-.546-.336-.757l-.336-.335H29.11l-.336.335Zm-12.367 4.952v4.195l-1.298-1.94c-1.897-2.836-2.073-2.835-3.988.035-.726 1.086-1.36 1.975-1.41 1.975-.051 0-.364-.375-.697-.834-.333-.46-.754-.892-.936-.961-.737-.28-1.007-.064-2.668 2.145l-1.584 2.106H2.188V34.642H16.407v4.195Zm51.407 1.809v4.912h-14.22v-9.825h14.22v4.913ZM4.822 37.093c-.398.37-.5.774-.313 1.225.295.712 1.178.895 1.718.355.949-.946-.425-2.491-1.405-1.58ZM56.278 38.2c-.509.4-.509 1.218 0 1.617.347.272.519.283 4.518.283h4.158l.335-.335c.212-.211.336-.49.336-.757 0-.265-.124-.545-.336-.756l-.335-.335h-4.158c-4 0-4.171.01-4.518.283Zm-31.803 1.222c.233.563 1.23 1.413 1.885 1.61.76.227 16.52.227 17.28 0 .655-.197 1.652-1.047 1.885-1.61.297-.715.459-.491.366.508-.317 3.381-2.121 6.364-4.984 8.236-4.226 2.764-9.931 2.174-13.553-1.4a10.896 10.896 0 0 1-3.245-6.837c-.093-.998.068-1.222.366-.507Zm31.803 2.053c-.509.399-.509 1.218 0 1.617.335.263.538.283 2.878.283 2.49 0 2.52-.004 2.852-.335.212-.211.336-.49.336-.757 0-.265-.124-.545-.336-.756-.332-.332-.362-.335-2.852-.335-2.34 0-2.543.02-2.878.283Zm-41.956 2.381 1.128 1.702H10.8l1.128-1.702c.62-.936 1.16-1.702 1.197-1.702.038 0 .576.766 1.197 1.702Zm-6.273.753c.5.674.36.874-.641.922l-.86.04.514-.688c.284-.38.553-.69.598-.69.045 0 .22.188.39.416Zm23.852 7.116c.906.242 1.49.298 3.099.298 1.609 0 2.193-.056 3.099-.298.614-.165 1.152-.3 1.196-.3.044 0 .08.536.08 1.19v1.19l-.697.705-.697.704-1.49-.492L35 54.231l-1.49.491-1.491.492-.697-.704-.697-.705v-1.19c0-.654.036-1.19.08-1.19.044 0 .582.135 1.196.3Z" fill="#fff"/></svg>