<svg width="70" height="70" fill="none" xmlns="http://www.w3.org/2000/svg"><path fill-rule="evenodd" clip-rule="evenodd" d="m20.64.346-.347.347V16.936H19.162v-8.34l-.348-.346c-.344-.344-.369-.347-3.046-.347-2.678 0-2.703.003-3.047.347l-.347.346v8.322l-4.56.044-4.561.044-.892.482c-.99.536-1.416.975-1.98 2.043L0 20.252v36.27l.381.72c.564 1.069.99 1.508 1.98 2.044l.892.482 12.255.04 12.256.038-.742 2.22-.743 2.218-2.157.07c-2.71.09-2.698.08-2.698 2.063v1.325H9.674l-.347.346c-.46.459-.46 1.107 0 1.566l.347.346h50.652l.347-.347c.46-.458.46-1.106 0-1.565l-.347-.346h-11.75v-1.325c0-1.983.013-1.974-2.698-2.062l-2.157-.07-.743-2.22-.742-2.219 12.256-.039 12.256-.039.89-.482c.99-.536 1.416-.975 1.98-2.043l.382-.72V20.251l-.381-.72c-.565-1.07-.992-1.51-1.969-2.03-.763-.405-1.052-.476-2.179-.535l-1.299-.068.686-.993c2.201-3.19 2.383-7.334.473-10.778-.735-1.325-2.65-3.205-3.957-3.883C59.598.324 58.517.07 56.424.08c-2.1.01-3.228.298-4.973 1.265-1.27.704-3.084 2.514-3.79 3.783-1.917 3.445-1.731 7.587.484 10.796l.698 1.012H35V5.209l-.347-.346c-.344-.344-.37-.347-3.047-.347-2.678 0-2.703.003-3.047.347l-.347.346v11.727H27.081V.692l-.347-.347C26.389.003 26.364 0 23.687 0c-2.678 0-2.703.003-3.047.346Zm4.178 14.896v12.984h-2.262V2.258H24.818v12.984Zm30.546-9.207V9.67l-2.62 2.61c-2.123 2.114-2.647 2.569-2.763 2.397-.315-.464-.815-1.523-1.065-2.258-.367-1.075-.368-3.435-.003-4.516.64-1.89 1.96-3.604 3.443-4.472.773-.452 2.249-1.014 2.69-1.024l.318-.008v3.636Zm3.722-3.307c1.291.467 2.116.986 3.01 1.892.904.917 1.388 1.691 1.847 2.955.576 1.582.831 1.457-2.993 1.457h-3.324V5.716c0-3.817-.124-3.562 1.46-2.988ZM32.737 17.5v10.726H30.475V6.774h2.262V17.5ZM16.9 19.194v9.032h-2.263V10.16H16.9v9.033Zm47.374-7.628c0 .411-.604 1.993-1.052 2.756-.552.94-1.875 2.195-2.856 2.709-1.462.766-2.24.959-3.87.959-1.673 0-2.824-.306-4.033-1.07l-.68-.43 2.603-2.6 2.602-2.6h3.643c3.52 0 3.643.01 3.643.276Zm-51.9 12.144v4.516H11.243v-7.211l-.347-.346c-.344-.344-.369-.346-3.047-.346-2.677 0-2.702.002-3.046.346l-.347.346v8.776l.347.346.347.347h37.076l.347-.347.347-.346v-8.776l-.347-.346c-.344-.344-.369-.346-3.047-.346s-2.702.002-3.047.346l-.347.346v7.211H35V19.193h16.78l.899.365c1.089.442 2.7.765 3.816.765 1.116 0 2.727-.323 3.816-.765.844-.342 1.046-.364 3.284-.364 2.714 0 3.1.095 3.735.926l.407.533.038 15.077.037 15.076H2.192v-14.88c0-10.197.047-15.005.15-15.277.084-.218.29-.548.46-.732.624-.678.879-.712 5.365-.718l4.207-.006v4.517Zm7.92 0v4.516H19.162V19.193H20.293v4.517Zm7.92 0v4.516H27.08V19.193H28.212v4.517Zm20.685.322c-2.297 2.292-2.585 2.63-2.585 3.04 0 .616.537 1.154 1.15 1.154.4 0 .737-.278 2.735-2.258l2.277-2.258H62.59l.347-.347c.219-.218.347-.507.347-.782s-.128-.565-.347-.783l-.347-.346H51.483l-2.585 2.58ZM8.98 25.402v2.823H6.718V22.58H8.98v2.822Zm31.677 0v2.823h-2.263V22.58h2.263v2.822ZM4.802 31.96a1.136 1.136 0 0 0-.347.783c0 .275.128.564.347.783l.347.346H18.467l.347-.346c.46-.459.46-1.107 0-1.566l-.347-.346H5.148l-.346.346Zm15.838 0a1.136 1.136 0 0 0-.347.783c0 .275.128.564.347.783.303.302.474.346 1.35.346.876 0 1.047-.044 1.35-.346.219-.219.347-.508.347-.783s-.128-.564-.347-.783c-.303-.302-.474-.346-1.35-.346-.876 0-1.047.044-1.35.346Zm22.28.967c-.655.206-1.885 1.445-2.06 2.074-.12.438-.811 1.001-6.074 4.953l-5.938 4.46-.657-.587c-1.454-1.298-3.203-1.24-4.609.155l-.74.735-5.813-2.416-5.812-2.416-.287-.61c-.548-1.165-1.864-2.016-3.115-2.016-1.734 0-3.36 1.627-3.36 3.36 0 .915.316 1.623 1.055 2.36 1.441 1.439 3.24 1.43 4.706-.024l.74-.735 5.813 2.416 5.811 2.417.288.61a3.455 3.455 0 0 0 4.126 1.844c.736-.217 1.956-1.404 2.145-2.087.122-.437.812-1 6.075-4.953l5.938-4.459.657.587c1.416 1.264 3.182 1.233 4.548-.082l.683-.656 5.92 3.448c5.476 3.189 5.927 3.48 6.017 3.89.057.26.396.74.823 1.162 1.015 1.008 2.067 1.284 3.396.892.776-.23 1.948-1.398 2.178-2.174.391-1.323.115-2.378-.884-3.375-1.406-1.403-3.218-1.423-4.645-.05l-.683.657-5.92-3.448c-5.476-3.19-5.927-3.481-6.017-3.891-.137-.622-1.398-1.837-2.13-2.053a3.853 3.853 0 0 0-2.176.012Zm1.915 2.42c.219.219.347.508.347.783s-.128.564-.347.783a1.14 1.14 0 0 1-.785.346 1.14 1.14 0 0 1-.784-.346 1.136 1.136 0 0 1-.347-.783c0-.275.129-.564.347-.782a1.14 1.14 0 0 1 .785-.347c.275 0 .565.128.784.346ZM8.633 39.864c.701.7.204 1.911-.785 1.911-.58 0-1.13-.549-1.13-1.129s.55-1.129 1.13-1.129c.276 0 .566.128.785.347Zm54.303 3.387c.219.218.347.507.347.782s-.128.565-.347.783a1.14 1.14 0 0 1-.785.346 1.14 1.14 0 0 1-.784-.346 1.136 1.136 0 0 1-.347-.783c0-.275.128-.564.347-.782a1.14 1.14 0 0 1 .785-.347c.275 0 .565.128.784.347Zm-14.013 1.129a1.136 1.136 0 0 0-.347.782c0 .275.128.564.347.783.338.337.404.346 2.481.346s2.143-.009 2.481-.346c.22-.219.347-.508.347-.783s-.128-.564-.347-.782c-.338-.338-.404-.347-2.481-.347s-2.143.01-2.481.347Zm-22.19 1.129c.702.7.205 1.911-.784 1.911-.58 0-1.13-.548-1.13-1.129 0-.58.55-1.129 1.13-1.129.276 0 .566.128.785.347Zm17.665 2.258a1.136 1.136 0 0 0-.348.782c0 .275.129.565.348.783l.347.346h8.793l.347-.346c.22-.218.347-.508.347-.783s-.128-.564-.347-.782l-.347-.347h-8.793l-.347.347Zm23.387 6.841c-.051 1.667-.174 1.981-1.021 2.612l-.39.291H3.653l-.534-.407c-.744-.566-.928-1.1-.928-2.693v-1.345H67.833l-.048 1.542ZM4.802 54.54a1.136 1.136 0 0 0-.347.783c0 .274.128.564.347.782l.347.347h7.662l.347-.347c.46-.458.46-1.107 0-1.565l-.347-.346H5.149l-.347.346Zm10.181 0a1.136 1.136 0 0 0-.347.783c0 .274.129.564.348.782.303.303.473.347 1.35.347.875 0 1.046-.044 1.35-.347.218-.218.346-.508.346-.782 0-.275-.128-.565-.347-.783-.303-.303-.474-.346-1.35-.346-.876 0-1.046.043-1.35.346Zm25.615 7.592.744 2.223H28.656l.698-2.082c.383-1.145.727-2.162.764-2.26.052-.14 1.109-.17 4.901-.14l4.835.036.744 2.223Zm5.715 5.045v.565H23.687v-1.129h22.626v.564Z" fill="#fff"/></svg>