<svg width="69" height="70" fill="none" xmlns="http://www.w3.org/2000/svg"><path fill-rule="evenodd" clip-rule="evenodd" d="M9.179.21c-1.796.562-2.965 1.87-3.3 3.692-.102.55-.15 5.275-.15 14.793v13.987h2.32l.003-13.977c.001-7.897.057-14.21.127-14.514.17-.738.529-1.186 1.236-1.548l.6-.308h27.177c18.87 0 27.294.045 27.56.146.523.197 1.13.787 1.357 1.32.157.367.187 4.334.185 24.263l-.002 23.824-.305.534c-.391.686-.876 1.04-1.62 1.184-.327.063-6.042.118-12.7.121l-12.107.006v2.333l12.652-.039 12.652-.038.77-.313c1.457-.59 2.52-1.84 2.843-3.343.112-.523.142-7.284.112-24.777l-.042-24.059-.36-.752C67.57 1.455 66.515.564 65.186.21 64.138-.07 10.07-.07 9.179.21Zm1.284 4.535c-.052.053-.096.578-.096 1.167v1.07h2.467l-.04-1.127-.04-1.128-1.097-.039c-.604-.021-1.14.004-1.194.057Zm4.679 1.076v1.162h2.319V4.659h-2.32v1.162Zm4.638 0v1.162h2.319V4.659h-2.32v1.162Zm-9.322 3.577c-.05.05-.09.573-.09 1.162v1.07H63.976V9.307H37.263c-14.692 0-26.755.04-26.805.09Zm.39 6.113c-.18.18-.364.533-.41.786-.047.253-.066 3.084-.044 6.293l.042 5.832.33.353.331.353 7.445-.005c5.637-.003 7.497-.044 7.661-.17.509-.392.534-.662.534-5.705v-4.94l-.399-.4-.399-.4H20.25l-.951-.966c-.523-.532-1.117-1.055-1.32-1.162-.289-.153-1.063-.195-3.587-.195-3.211 0-3.22 0-3.544.326Zm18.607.073-.4.4v6.1c0 6.422.028 6.73.62 6.959.122.046 3.523.085 7.558.085 7.216 0 7.343-.005 7.697-.284l.359-.283v-5.105c0-2.808-.038-5.205-.085-5.326-.202-.528-.744-.621-3.617-.621h-2.76l-1.185-1.163-1.185-1.161h-6.604l-.398.4Zm18.635-.075c-.194.194-.36.565-.412.923-.048.329-.068 3.172-.045 6.317l.043 5.72.383.329.383.33 7.392-.005c5.597-.003 7.446-.045 7.61-.17.508-.392.533-.662.533-5.705v-4.94l-.398-.4-.399-.4h-5.654l-1.203-1.162-1.203-1.161h-3.353c-3.347 0-3.354 0-3.677.324ZM18.15 18.67l1.185 1.162h5.082v6.972H12.824v-9.295H16.966l1.184 1.161Zm18.56 0 1.203 1.162h5.057v6.972H31.375v-9.295h4.133l1.202 1.161Zm18.681 0 1.185 1.162h5.082v6.972H50.063v-9.295H54.206l1.185 1.161ZM14.365 33.011c-.376.323-.384.364-.45 2.13l-.07 1.8-1.06.42-1.06.42-1.135-1.11c-1.263-1.234-1.664-1.458-2.235-1.245-.442.165-5.278 4.938-5.579 5.506-.325.615-.125 1.02 1.14 2.298l1.171 1.185-.44 1.094-.44 1.094-1.752.045c-1.635.042-1.775.067-2.103.377L0 47.356v7.97l.352.331c.328.31.47.335 2.104.38l1.753.047.437 1.087.438 1.087-1.246 1.273c-1.302 1.33-1.41 1.56-1.052 2.24.3.572 5.312 5.493 5.612 5.51.645.04.88-.105 2.038-1.249l1.227-1.213.887.384c.488.212.994.422 1.125.468.21.073.24.288.24 1.806 0 1.723 0 1.724.398 2.123l.398.4h3.756c3.922 0 4.288-.048 4.571-.596.083-.16.167-1.048.186-1.972l.034-1.68 1.117-.451 1.116-.45 1.067 1.085c1.117 1.138 1.631 1.464 2.151 1.365.177-.034 1.5-1.256 3.058-2.823 3.389-3.411 3.305-3.137 1.51-4.943l-1.235-1.242.45-1.117.452-1.116 1.539-.001c1.838-.002 2.375-.173 2.603-.828.211-.608.211-7.173 0-7.78-.228-.655-.765-.826-2.603-.828l-1.54-.001-.45-1.117-.45-1.116 1.234-1.242c1.792-1.804 1.871-1.538-1.459-4.899-1.482-1.496-2.835-2.775-3.007-2.843-.501-.198-1.086.151-2.267 1.355-1.068 1.087-1.085 1.098-1.456.905a13.644 13.644 0 0 0-1.137-.48l-.76-.285v-1.774c0-1.742-.007-1.78-.362-2.109l-.36-.335h-7.721l-.383.33Zm18.238 1.995v1.23H35.666l1.131 1.128 1.131 1.127 2.521.045 2.52.045v6.95H39.56v2.324h2.394c2.487 0 3.054-.108 3.25-.621.047-.122.085-2.512.085-5.313v-5.09l-.316-.298c-.303-.285-.427-.297-3.175-.297H38.94l-1.087-1.096c-.72-.727-1.25-1.142-1.566-1.23-.263-.073-1.2-.133-2.08-.134h-1.603v1.23Zm16.01-1.14c-.159.033-.435.216-.613.406l-.324.345-.04 5.866c-.026 3.885.01 6.051.108 6.413.268 1 .014.97 8.265.928l7.31-.037.33-.384.328-.383V42.1c0-5.164-.042-5.557-.62-5.78-.121-.046-1.482-.084-3.023-.084H57.53l-1.22-1.196-1.22-1.196-3.093-.02c-1.702-.011-3.225.007-3.384.041Zm-27.72 2.766c.054 1.891.14 2.056 1.256 2.414.385.124 1.3.501 2.034.84 1.002.462 1.426.593 1.705.525.204-.05.864-.579 1.465-1.176l1.094-1.085 1.626 1.634 1.625 1.633-1.116 1.165c-1.313 1.37-1.35 1.532-.659 2.919.252.505.595 1.333.76 1.84.498 1.513.521 1.528 2.487 1.608l1.683.068v4.648l-1.664.038c-1.596.037-1.676.053-1.935.383-.15.19-.406.757-.572 1.26a16.575 16.575 0 0 1-.759 1.835c-.69 1.386-.654 1.548.659 2.919l1.116 1.165-1.625 1.633-1.626 1.633-1.094-1.085c-.601-.596-1.26-1.125-1.465-1.175-.279-.068-.703.063-1.705.525-.734.338-1.649.716-2.034.84-1.116.357-1.202.522-1.255 2.414l-.046 1.626h-4.615v-1.553c0-1.853-.138-2.123-1.264-2.48-.392-.125-1.307-.507-2.032-.849-1.018-.48-1.404-.6-1.697-.526-.209.052-.876.582-1.484 1.176L8.65 64.525l-1.625-1.633L5.4 61.26l1.12-1.149c1.333-1.369 1.385-1.612.66-3.065a16.481 16.481 0 0 1-.753-1.821c-.475-1.445-.55-1.49-2.476-1.49H2.319v-4.785h1.613c1.916 0 2.01-.06 2.527-1.58a16.95 16.95 0 0 1 .751-1.8c.694-1.375.633-1.64-.69-2.997l-1.12-1.15 1.626-1.632 1.625-1.633 1.105 1.08c.608.595 1.268 1.123 1.468 1.173.271.068.7-.064 1.697-.524.734-.339 1.656-.719 2.049-.845 1.126-.36 1.263-.63 1.263-2.482v-1.553h4.615l.046 1.626Zm34.29.576c.523.534 1.148 1.057 1.39 1.162.318.137 1.078.19 2.762.19h2.323v6.971H50.063v-9.295h4.168l.951.972Zm-38.57 6.203c-2.659.675-4.944 2.837-5.78 5.47-.415 1.304-.472 3.213-.134 4.475.617 2.303 2.225 4.272 4.306 5.273 3.252 1.562 6.864.93 9.413-1.648 1.367-1.383 2.314-3.69 2.314-5.64 0-3.373-2.417-6.728-5.578-7.742-1.165-.373-3.438-.467-4.54-.188Zm3.371 2.306a5.709 5.709 0 0 1 2.77 1.645c2.116 2.24 2.148 5.661.075 7.882-2.862 3.066-7.694 2.299-9.514-1.51-.395-.829-.424-.992-.424-2.393 0-1.404.028-1.563.426-2.392.766-1.597 1.822-2.548 3.442-3.101 1.04-.355 2.21-.403 3.225-.13Z" fill="#6A6A6A"/></svg>