<svg width="70" height="70" fill="none" xmlns="http://www.w3.org/2000/svg"><g clip-path="url('#clip0_500_8723')" fill="#6A6A6A"><path fill-rule="evenodd" clip-rule="evenodd" d="M8.327.086C6.263.463 4.493 1.411 2.949 2.968 1.653 4.276.911 5.46.375 7.076.044 8.074 0 8.43 0 10.113s.044 2.039.375 3.037c.538 1.622 1.281 2.806 2.574 4.096s2.479 2.033 4.104 2.57c1 .33 1.356.374 3.043.374 1.686 0 2.042-.044 3.042-.374 1.626-.537 2.81-1.28 4.104-2.57 1.293-1.29 2.037-2.474 2.575-4.096.549-1.656.549-4.418 0-6.074-.538-1.622-1.282-2.806-2.575-4.096C15.268 1.009 13.228.108 10.52.01c-.817-.029-1.804.005-2.193.076Zm49.808 0c-2.064.377-3.834 1.325-5.377 2.882-1.297 1.308-2.039 2.492-2.575 4.108-.33.998-.374 1.353-.374 3.037s.043 2.039.374 3.037c.538 1.622 1.282 2.806 2.575 4.096 1.293 1.29 2.478 2.033 4.104 2.57 1 .33 1.356.374 3.042.374 1.687 0 2.043-.044 3.043-.374 1.625-.537 2.81-1.28 4.103-2.57 1.294-1.29 2.037-2.474 2.575-4.096.331-.998.375-1.353.375-3.037s-.044-2.039-.375-3.037c-.538-1.622-1.281-2.806-2.575-4.096C65.076 1.009 63.038.108 60.33.01c-.817-.029-1.804.005-2.194.076ZM31.415 1.28a31.68 31.68 0 0 0-7.575 1.913c-1.727.671-2.849 1.23-2.849 1.417 0 .113.767 1.591.944 1.82.025.03.539-.173 1.143-.455 7.387-3.446 16.343-3.48 23.655-.088.71.328 1.31.572 1.333.54.188-.243.943-1.708.943-1.829 0-.383-4.144-2.006-6.792-2.66-3.06-.755-7.777-1.043-10.802-.658ZM11.59 2.354c2.744.494 5.125 2.643 6.091 5.5.364 1.075.365 3.44.001 4.519-.872 2.59-2.72 4.435-5.323 5.312-1.078.364-3.447.364-4.528.002-3.836-1.287-6.113-4.866-5.55-8.724.37-2.537 1.993-4.752 4.318-5.894 1.673-.823 3.187-1.04 4.99-.715Zm49.808 0c1.38.248 2.983 1.107 4.046 2.168 1.613 1.61 2.308 3.295 2.309 5.591 0 1.687-.304 2.812-1.102 4.075l-.46.729-.615-.933c-.358-.544-.962-1.202-1.447-1.578-.79-.613-.822-.66-.62-.94.725-.998.848-1.398.85-2.765.002-1.568-.254-2.244-1.218-3.216-.816-.822-1.689-1.214-2.856-1.281-1.177-.068-2.022.153-2.864.75-2.09 1.484-2.559 4.323-1.06 6.424l.29.406-.461.286c-.707.438-1.607 1.422-2.062 2.254l-.41.75-.466-.725c-2.532-3.938-1.056-9.21 3.156-11.28 1.673-.823 3.186-1.04 4.99-.715ZM5.5 5.67c-.766.292-1.548 1.086-1.92 1.952-.373.864-.324 1.996.124 2.855.158.305 1.562 1.821 3.118 3.368 2.477 2.463 2.885 2.813 3.275 2.813.39 0 .797-.35 3.274-2.813 1.557-1.547 2.967-3.067 3.134-3.378.402-.746.426-2.313.046-3.037-.719-1.369-1.985-2.075-3.48-1.94-.955.087-1.4.298-2.302 1.09l-.672.592-.672-.591c-.37-.325-.863-.69-1.096-.81-.6-.31-2.134-.365-2.83-.1Zm55.645 1.053c.673.41 1.023 1.068 1.024 1.922 0 .931-.414 1.57-1.305 2.012-2.447 1.212-4.373-2.366-2.097-3.897.619-.417 1.725-.434 2.378-.037ZM8.468 8.842c.966.923 1.264 1.13 1.628 1.13.363 0 .661-.207 1.627-1.13 1.032-.987 1.247-1.13 1.694-1.13.644 0 1.207.514 1.207 1.102 0 .565-.517 1.212-2.674 3.345l-1.854 1.834L8.24 12.16c-2.156-2.133-2.673-2.78-2.673-3.345 0-.588.562-1.102 1.206-1.102.448 0 .662.143 1.694 1.13Zm53.276 4.741c.428.198 1.022.595 1.32.881.555.532 1.227 1.673 1.227 2.08 0 .32-1.848 1.14-3.037 1.347-1.7.295-3.682-.039-5.164-.87l-.547-.307.189-.532c.434-1.23 1.49-2.296 2.718-2.746.913-.335 2.395-.268 3.294.147Zm.92 7.795c-.545.202-1.01.38-1.032.395-.023.015.176.75.44 1.634.266.884.591 2.21.723 2.949.133.738.27 1.485.305 1.66.058.288.125.312.663.24 1.582-.209 1.518-.18 1.517-.67-.002-.701-.62-3.543-1.118-5.15-.247-.796-.463-1.442-.479-1.436l-1.02.378ZM5.598 23.284c-.537 1.853-1.162 5.649-1.162 7.051 0 .064.51.117 1.132.117.689 0 1.132-.058 1.132-.147 0-1.14.644-5.022 1.063-6.408.116-.381.21-.773.21-.87 0-.159-1.518-.767-1.916-.767-.09 0-.296.46-.46 1.024Zm52.538 6.18c-2.065.377-3.835 1.326-5.378 2.882-1.297 1.308-2.039 2.493-2.575 4.109-.33.998-.374 1.353-.374 3.037 0 1.683.043 2.039.374 3.036.538 1.623 1.282 2.806 2.575 4.097 1.293 1.29 2.478 2.033 4.104 2.57 1 .33 1.356.374 3.042.374 1.687 0 2.043-.044 3.043-.374 1.625-.537 2.81-1.28 4.103-2.57 1.294-1.291 2.037-2.474 2.575-4.097.331-.997.375-1.353.375-3.036 0-1.684-.044-2.04-.375-3.037-.538-1.623-1.281-2.806-2.575-4.097-1.974-1.97-4.013-2.871-6.721-2.969-.817-.03-1.804.005-2.194.076Zm-49.809 2.26c-2.064.377-3.834 1.325-5.378 2.882C1.653 35.914.911 37.1.375 38.715.044 39.712 0 40.068 0 41.75c0 1.684.044 2.04.375 3.037.538 1.623 1.281 2.806 2.574 4.097 1.293 1.29 2.479 2.033 4.104 2.57 1 .33 1.356.374 3.043.374 1.686 0 2.042-.044 3.042-.374 1.626-.537 2.81-1.28 4.104-2.57 1.293-1.291 2.037-2.474 2.575-4.097.33-.998.374-1.353.374-3.037 0-1.683-.043-2.039-.374-3.036-.538-1.623-1.282-2.806-2.575-4.097-1.974-1.97-4.014-2.872-6.722-2.969-.817-.03-1.804.005-2.193.076Zm50.445.494v.494h2.264v-.495c0-.598.143-.618 1.384-.2 2.242.756 4.215 2.725 4.972 4.963.42 1.24.399 1.382-.2 1.382h-.496v2.26h.496c.599 0 .62.142.2 1.38-.757 2.238-2.73 4.208-4.972 4.964-1.241.418-1.384.398-1.384-.2v-.495h-2.264v.495c0 .598-.142.618-1.383.2-2.242-.756-4.216-2.726-4.973-4.963-.419-1.24-.398-1.382.201-1.382h.495v-2.26h-.514c-.5 0-.511-.01-.437-.458.119-.718.64-2 1.062-2.616 1.127-1.642 2.425-2.659 4.198-3.29 1.134-.402 1.351-.367 1.351.22Zm-47.181 1.775c2.744.493 5.125 2.642 6.091 5.498.364 1.076.365 3.441.001 4.52-.872 2.59-2.72 4.436-5.323 5.313-1.078.363-3.447.364-4.528.001-3.836-1.287-6.113-4.866-5.55-8.724.37-2.536 1.993-4.752 4.318-5.894 1.673-.822 3.187-1.039 4.99-.714Zm47.181 2.824c0 1.797.059 3.085.148 3.251.11.205 4.716 2.672 4.988 2.672.087 0 1-1.973.94-2.03-.034-.03-.905-.477-1.937-.992l-1.875-.935V33.842h-2.264v2.975ZM8.964 35.661c0 .634-.035.703-.43.866-.95.394-1.834 1.821-1.834 2.965 0 1.744 1.643 3.39 3.383 3.39.595 0 1.145.542 1.145 1.13 0 .58-.55 1.13-1.132 1.13-.472 0-1.132-.532-1.132-.913 0-.178-.206-.218-1.132-.218-1.264 0-1.27.006-.966 1.016.203.677 1.085 1.707 1.668 1.948.395.164.43.233.43.867v.69h2.264v-.69c0-.634.034-.703.429-.867.951-.393 1.835-1.82 1.835-2.964 0-1.744-1.643-3.39-3.384-3.39-.594 0-1.144-.543-1.144-1.13 0-.58.55-1.13 1.132-1.13.472 0 1.132.532 1.132.912 0 .179.205.218 1.132.218 1.263 0 1.269-.005.965-1.015-.203-.677-1.085-1.707-1.668-1.949-.395-.163-.43-.232-.43-.866v-.69H8.965v.69Zm24.904 4.96v1.13h2.264v-2.26h-2.264v1.13Zm-6.445 3.737-.347.347v7.216h-2.981c-1.8 0-3.09.058-3.257.147-.343.184-2.818 5.082-2.818 5.578 0 .199.156.517.347.708.285.285.488.347 1.132.347h.785v9.476l.347.346c.348.347.348.347 3.396.347 2.656 0 3.049.028 3.049.218 0 .12.156.375.347.565l.348.347H42.23l.347-.347c.19-.19.347-.445.347-.565 0-.19.393-.218 3.049-.218 3.048 0 3.049 0 3.396-.347l.347-.346V58.7h.785c.644 0 .847-.062 1.132-.347.19-.19.347-.51.347-.708 0-.496-2.475-5.394-2.818-5.578-.167-.089-1.456-.147-3.257-.147h-2.98v-7.216l-.348-.347-.347-.347H27.77l-.347.347ZM40.66 57.006V67.74h-2.264v-1.926c0-2.29-.136-2.823-.948-3.725-1.34-1.489-3.34-1.52-4.788-.074-.922.92-1.056 1.403-1.056 3.8v1.925H29.34V46.271h11.32v10.735Zm-9.056-7.345v1.13h2.264v-2.26h-2.264v1.13Zm4.528 0v1.13h2.264v-2.26h-2.264v1.13Zm18.814 1.922a30.611 30.611 0 0 1-1.565 1.462l-.935.811.369.488c.202.269.51.668.685.887l.318.398.673-.548a40.367 40.367 0 0 0 1.787-1.606l1.113-1.059-.83-.741c-.457-.408-.865-.742-.908-.742-.042 0-.36.292-.707.65Zm-40.358 1.248c-.37.42-.672.791-.672.823 0 .033.51.49 1.135 1.015l1.135.956.315-.395c.174-.218.488-.627.7-.91l.383-.514-.667-.507c-.366-.28-.82-.672-1.009-.872-.189-.2-.412-.364-.495-.363-.084.001-.455.346-.825.767Zm17.016 1.35v1.13h2.264v-2.26h-2.264v1.13Zm4.528 0v1.13h2.264v-2.26h-2.264v1.13Zm-9.056 1.13v1.13h-6.088l.57-1.13.569-1.13h4.949v1.13Zm21.367 0 .569 1.13h-6.088v-2.26h4.949l.57 1.13ZM31.604 58.7v1.13h2.264v-2.26h-2.264v1.13Zm4.528 0v1.13h2.264v-2.26h-2.264v1.13Zm-9.056 3.954v3.955h-4.528V58.701h4.528v3.954Zm20.376 0v3.955h-4.528V58.701h4.528v3.954Zm-11.667.912c.334.334.347.417.347 2.26v1.913h-2.264v-1.913c0-1.843.013-1.926.347-2.26A1.14 1.14 0 0 1 35 63.22c.276 0 .566.128.785.347Z"/><path d="M22.757 16.164c.122-.566.52-1.01 1.074-1.202m-1.074 1.202 19.61 15.867c3.586-.013 3.641-.014 3.852-.113l.106.227c.364-.17.635-.432.81-.789l.13-.269.026-.052V16.117l-.025-.052-.132-.269a1.647 1.647 0 0 0-.81-.788l-.214-.1-.05-.023h-.055l-10.924-.01c-5.195-.006-7.93-.008-9.396.002a40.2 40.2 0 0 0-1.402.025c-.248.011-.357.027-.452.06m-1.074 1.202c-.01.047-.014.123-.017.202-.004.089-.008.21-.01.366-.007.31-.011.761-.014 1.367-.006 1.21-.007 3.044-.001 5.62l.014 7.26v.057l.026.051.13.27c.175.356.446.619.81.788m-.938-15.98L38.98 32.292v2.998h1.73c.942 0 1.446.001 1.736.014.144.006.248.016.332.034.093.019.154.046.21.075.155.079.28.21.366.351a.95.95 0 0 1 .146.486c0 .173-.06.344-.146.485a.951.951 0 0 1-.365.351.6.6 0 0 1-.13.05 1.212 1.212 0 0 1-.2.032 14.31 14.31 0 0 1-.931.029c-.995.012-2.918.012-6.718.012s-5.723 0-6.718-.012a14.31 14.31 0 0 1-.932-.03 1.215 1.215 0 0 1-.2-.03.601.601 0 0 1-.129-.05.951.951 0 0 1-.365-.352.951.951 0 0 1-.146-.485.95.95 0 0 1 .146-.486.951.951 0 0 1 .365-.35v-.001a.779.779 0 0 1 .21-.075 2.14 2.14 0 0 1 .333-.034c.29-.013.794-.014 1.736-.014h1.73v-2.998l-3.388-.012c-1.79-.006-2.706-.01-3.198-.024a4.356 4.356 0 0 1-.505-.034.841.841 0 0 1-.254-.078m.136-17.183.082.236-.082-.236Zm-.136 17.183.106-.227m-.106.227.106-.227m0 0a1.397 1.397 0 0 1-.69-.672l8.18 2.547v-1.749l-3.639-.013c-3.585-.013-3.64-.014-3.851-.113Zm21.6-8.342v6.797H24.619V16.78h20.784v6.796Zm-8.334 10.215v1.5h-4.114v-3h4.114v1.5Z" stroke="#6A6A6A" stroke-width=".5"/></g><defs><clipPath id="clip0_500_8723"><path fill="#fff" d="M0 0h70v70H0z"/></clipPath></defs></svg>