<svg width="160" height="160" fill="none" xmlns="http://www.w3.org/2000/svg"><path fill-rule="evenodd" clip-rule="evenodd" d="M5.367.423C3.732.94.943 3.83.441 5.527c-.588 1.992-.588 117.606 0 119.598.541 1.831 3.301 4.593 5.131 5.134 1.027.303 8.083.405 28.072.405 16.79 0 26.7.119 26.7.32 0 .175-1.261 4.938-2.802 10.584-1.54 5.645-2.97 10.902-3.178 11.681l-.377 1.417h-5.972V160h63.973v-5.334h-5.972l-.377-1.417c-.207-.779-1.637-6.036-3.178-11.681-1.541-5.646-2.801-10.409-2.801-10.584 0-.201 9.933-.32 26.762-.32 30.437 0 28.794.14 31.312-2.662.793-.882 1.619-2.199 1.837-2.926.572-1.911.572-117.589 0-119.5-.218-.727-1.044-2.044-1.837-2.925C155.112-.268 162.56-.017 79.859.02 27.417.047 6.201.162 5.367.424ZM153.818 6.14l.818.818v99.705h-34.652V103.068l-3.082-1.349a722.62 722.62 0 0 0-4.587-1.991c-1.361-.581-1.59-.85-2.399-2.822l-.895-2.18 1.841-4.59 1.841-4.59-4.465-4.467-4.465-4.467-4.554 1.828-4.554 1.829-2.21-.878c-2.02-.8-2.267-1.008-2.855-2.387-.354-.83-1.252-2.901-1.995-4.601l-1.351-3.09-6.318.09-6.317.09-1.915 4.481-1.915 4.481-2.181.924-2.182.925-4.598-1.846-4.598-1.846-4.464 4.467-4.466 4.467 1.846 4.6 1.845 4.6-.92 2.172-.918 2.17-4.567 1.997-4.567 1.997v3.581H5.367V6.958l.818-.818.818-.819H153l.818.819ZM18.695 11.09c-1.636.517-4.425 3.406-4.926 5.104-.579 1.96-.579 40.3 0 42.26.54 1.83 3.3 4.592 5.131 5.133 1.024.303 7.747.406 26.513.406 28.62 0 27.182.129 29.69-2.663.793-.882 1.619-2.198 1.837-2.926.563-1.879.563-40.281 0-42.16-.218-.728-1.044-2.044-1.837-2.926-2.513-2.797-1.037-2.668-29.896-2.629-17.46.024-25.709.149-26.512.402Zm88.128.03C94.6 13.474 85.251 22.915 83.133 35.043c-1.613 9.236 1.484 18.967 8.163 25.65 5.245 5.248 11.86 8.127 19.609 8.534l3.748.197V42.658H141.407l-.196-3.75c-.702-13.36-9.111-23.775-22.06-27.323-3.052-.836-9.202-1.069-12.328-.466Zm-35.636 5.687c.672.672.818 1.149.818 2.667v1.849h-53.31v-1.849c0-1.518.146-1.995.818-2.667l.817-.818h50.04l.817.818Zm47.853.28c3.914 1.247 6.774 3.01 9.803 6.04 3.726 3.728 6.089 8.178 6.67 12.56l.217 1.637H113.159l-7.916-7.915c-4.353-4.353-7.915-8.031-7.915-8.174 0-.513 4.042-2.861 6.418-3.728 3.385-1.235 5.213-1.504 9.241-1.36 2.515.09 4.217.354 6.053.94Zm-17.634 16.15 7.916 7.915v22.593l-1.692-.224c-2.219-.295-5.495-1.501-7.884-2.903-2.752-1.615-7.051-5.997-8.573-8.737-3.544-6.385-4.09-13.818-1.507-20.505.943-2.44 3.083-6.053 3.586-6.053.132 0 3.8 3.562 8.154 7.915Zm-29.4 8.602v15.183l-.819.819-.817.818H20.33l-.817-.819-.818-.818V26.656h53.31V41.84Zm-44.317-4.014-4.824 4.836 4.91 4.913 4.911 4.913 1.912-1.913 1.912-1.913-2.987-3.001-2.986-3.002 2.908-2.924c1.6-1.608 2.909-3.076 2.909-3.263 0-.431-3.079-3.48-3.514-3.48-.18 0-2.497 2.175-5.15 4.834Zm28.227-3.24c-.863.877-1.57 1.737-1.57 1.91 0 .174 1.309 1.631 2.909 3.24l2.908 2.923-2.986 3.002-2.987 3.002 1.912 1.912 1.912 1.913 4.91-4.913 4.91-4.913-4.824-4.836c-2.653-2.659-4.981-4.835-5.174-4.835-.192 0-1.056.718-1.92 1.595Zm-13.045 8.264c-1.466 3.676-2.475 6.648-2.31 6.805.16.153 1.238.66 2.396 1.128l2.105.848.445-1.07c2.698-6.49 4.79-12.085 4.589-12.275-.19-.18-4.345-1.961-4.575-1.961-.026 0-1.219 2.936-2.65 6.525Zm77.113 18.524v13.381l3.582-.189c4.207-.223 6.697-.833 9.954-2.44 5.9-2.909 10.568-8.6 12.3-14.99.294-1.087.62-3.59.725-5.56l.189-3.584h-26.75v13.382Zm20.991-7.267c0 1.118-1.183 4.406-2.229 6.193-1.201 2.054-3.814 4.773-5.83 6.068-1.867 1.198-5.554 2.626-6.783 2.626h-.818V53.325h15.66v.781ZM13.364 74.66v2.667H45.35v-5.334H13.364v2.667Zm71.133 3.97 1.663 3.964 4.203 1.721 4.203 1.721 3.782-1.52c2.08-.838 3.934-1.522 4.119-1.522.455 0 3.857 3.384 3.857 3.837 0 .197-.684 2.062-1.521 4.143l-1.52 3.784 1.72 4.202 1.719 4.202 4.049 1.737 4.049 1.737-6.914.013-6.913.014v-.779c0-.428-.313-1.741-.694-2.917-2.885-8.891-11.12-14.96-20.297-14.96-7.582 0-14.829 4.24-18.49 10.822-1.212 2.175-2.501 5.815-2.501 7.055v.779l-6.914-.014-6.914-.013 4.05-1.737 4.049-1.737L55 98.96l1.719-4.202-1.52-3.784c-.836-2.081-1.52-3.936-1.52-4.121 0-.456 3.382-3.859 3.834-3.859.198 0 2.062.685 4.143 1.522l3.784 1.522 4.198-1.71 4.199-1.71 1.666-3.976 1.665-3.975h5.665l1.663 3.964Zm-71.133 6.698v2.666H37.353v-5.333H13.364v2.667Zm106.62 0v2.666h26.656v-5.333h-26.656v2.667ZM13.364 95.995v2.667H37.353v-5.334H13.364v2.667Zm70.455-2.156a16.323 16.323 0 0 1 7.676 4.517c1.84 1.929 3.61 5.098 4.034 7.223l.216 1.084H64.258l.217-1.084c.424-2.125 2.193-5.294 4.033-7.223 3.997-4.193 9.888-5.93 15.311-4.517Zm36.165 2.156v2.667h26.656v-5.334h-26.656v2.667Zm34.652 21.85c0 5.766-.012 5.861-.818 6.667l-.818.819H7.002l-.817-.819c-.806-.806-.818-.901-.818-6.667v-5.849h149.269v5.849Zm-60.29 14.236c.208.779 1.638 6.036 3.18 11.682 1.54 5.646 2.8 10.409 2.8 10.584 0 .2-7.596.319-20.324.319-12.728 0-20.325-.119-20.325-.319 0-.175 1.26-4.938 2.801-10.584 1.54-5.646 2.97-10.903 3.178-11.682l.377-1.417H93.97l.377 1.417Z" fill="#2C2C2C"/></svg>