<svg width="160" height="160" fill="none" xmlns="http://www.w3.org/2000/svg"><path fill-rule="evenodd" clip-rule="evenodd" d="M33.33.47c-6.605 1.262-11.808 4.044-16.57 8.86-4.153 4.202-6.828 8.976-8.274 14.77-.765 3.067-.766 10.718 0 13.783 3.1 12.417 12.8 21.496 25.202 23.586l2.274.383.086 7.776.086 7.775-2.505.204C17.824 78.893 6.76 83.025 2.252 89.324-.088 92.594 0 91.377 0 120.123c0 28.11-.097 26.582 1.853 29.406 2.462 3.567 10.35 7.178 19.433 8.896 6.43 1.217 9.41 1.467 17.416 1.461 10.334-.007 16.878-.875 24.505-3.249 7.631-2.376 11.977-5.405 13.699-9.548.406-.978.499-2.754.499-9.605v-8.406l7.82.086 7.82.087.238 1.908c.55 4.419 2.658 9.974 5.298 13.964 1.557 2.356 5.183 6.199 7.611 8.07 10.069 7.755 23.832 8.986 35.394 3.166 3.304-1.663 4.873-2.787 7.815-5.599 5.544-5.299 8.901-11.594 10.094-18.928 2.363-14.527-5.023-28.704-18.474-35.459-2.649-1.33-7.046-2.672-9.917-3.027l-1.935-.239-.083-18.15-.084-18.15h12.141c8.589 0 12.529-.114 13.468-.392 1.771-.524 4.443-3.197 4.967-4.97.561-1.901.561-44.166 0-46.068-.524-1.773-3.196-4.446-4.967-4.97-1.789-.528-20.974-.549-22.726-.024-1.846.554-3.268 1.903-6.455 6.126l-2.893 3.832h-11.482c-8.073 0-11.877.116-12.81.392-1.772.524-4.444 3.197-4.967 4.97-.243.822-.392 3.495-.392 7.022v5.694l-11.67-.085-11.67-.084-.383-2.275c-.57-3.387-1.338-5.776-2.788-8.675A31.458 31.458 0 0 0 45.757.81C42.88.104 36.211-.08 33.331.47Zm120.689 5.5c.791.792.791.793.791 7.744v6.953H98.047v-1.79c0-1.47.142-1.93.792-2.581l.791-.792h25.492l3.431-4.598c1.888-2.53 3.722-4.853 4.076-5.163.584-.512 1.58-.565 10.621-.565h9.977l.792.792ZM30.126 8.594c-1.619 2.415-3.25 5.538-4.159 7.958l-.575 1.533h-8.98l.583-1.013c1.033-1.793 5.251-6.03 7.483-7.515 1.885-1.254 6.79-3.535 7.048-3.278.05.05-.58 1.092-1.4 2.315Zm12.98 3.107c.78 1.192 1.851 3.08 2.378 4.195l.96 2.028-3.87.09c-2.13.05-5.622.05-7.763 0l-3.893-.09 1.32-2.636c1.41-2.818 3.575-5.978 5.418-7.908l1.132-1.187 1.449 1.67c.796.92 2.087 2.646 2.868 3.838Zm8.94-2.758c2.12 1.269 7.406 6.388 8.365 8.101l.583 1.041h-8.98l-.575-1.533c-.907-2.418-2.54-5.543-4.154-7.951-.817-1.22-1.486-2.27-1.486-2.334 0-.3 4.487 1.623 6.247 2.676Zm82.123 3.98v2.58h5.161v-5.162h-5.161v2.581Zm10.321 0v2.58h5.16v-5.162h-5.16v2.581ZM23.641 25.264c-.331 2.594-.331 8.861 0 11.455l.258 2.017h-9.724l-.32-.841c-.175-.463-.49-2.205-.701-3.872-.392-3.106-.05-7.957.702-9.934l.32-.842H23.898l-.258 2.017Zm24.96.565c.625 3.953.436 9.52-.419 12.347-.16.53-.827.564-9.583.484l-9.41-.085-.383-2.42c-.626-3.954-.437-9.52.418-12.348.16-.53.828-.564 9.583-.484l9.41.086.383 2.42Zm15.221-.807c.597 2.16.597 9.78 0 11.94l-.446 1.613-4.928.089-4.928.089.251-2.187c.139-1.202.252-3.71.252-5.574 0-1.864-.113-4.372-.252-5.575l-.252-2.186 4.929.088 4.928.09.446 1.613Zm90.988 12.922V50.06l-.791.792-.792.793H99.63l-.791-.793-.792-.791V25.83H154.81v12.115ZM30.963 30.993v2.581h5.16v-5.163h-5.16v2.582Zm10.32 0v2.581h5.16v-5.163h-5.16v2.582Zm51.604 10.853c0 5.551.129 8.709.392 9.6.523 1.772 3.195 4.445 4.967 4.97.939.277 4.878.392 13.467.392h12.141l-.084 18.15-.083 18.15-1.907.238c-10.783 1.347-20.893 8.852-25.673 19.057-1.387 2.961-2.463 6.564-2.823 9.453l-.238 1.909-7.82.086-7.82.087v-14.791c0-12.135-.086-15.08-.479-16.403-1.437-4.84-7.2-9.27-15.647-12.024-4.88-1.59-10.012-2.504-17.503-3.113l-2.505-.204.086-7.775.087-7.775 2.502-.423c7.645-1.291 14.652-5.537 19.347-11.721 2.965-3.906 6.037-11.461 6.046-14.87.002-.46.1-.931.218-1.05.118-.118 5.415-.215 11.772-.215h11.557v8.272Zm10.32 2.054v2.582h5.161v-5.163h-5.161V43.9Zm10.321 0v2.582h5.16v-5.163h-5.16V43.9Zm10.321 0v2.582h5.16v-5.163h-5.16V43.9Zm-97.882 1.533c.908 2.42 2.54 5.544 4.16 7.959.819 1.223 1.45 2.263 1.402 2.31-.269.27-5.024-1.925-6.956-3.21-2.311-1.538-6.529-5.755-7.578-7.579l-.582-1.013h8.98l.574 1.533Zm19.981-.323c-1.254 3.01-4.535 7.97-6.493 9.815l-.913.86-1.931-2.36c-1.924-2.353-4.668-6.81-5.288-8.588l-.327-.937h15.456l-.504 1.21Zm14.463-.197c-1.05 1.824-5.266 6.041-7.577 7.579-1.933 1.285-6.688 3.48-6.957 3.21-.048-.047.584-1.087 1.403-2.31 1.619-2.415 3.251-5.539 4.16-7.96l.574-1.532h8.98l-.583 1.013Zm-10.52 38.495c12.832 1.89 22.354 7.053 22.354 12.122 0 5.063-9.456 10.155-22.576 12.155-4.583.699-16.374.788-20.964.158-7.108-.975-14.417-3.264-18.34-5.746-6.898-4.363-6.898-8.772 0-13.135 4.014-2.538 11.753-4.933 18.34-5.675 1.685-.19 3.572-.404 4.193-.476 2.335-.272 13.834.132 16.992.597Zm-26.669 4.8c-.62.195-1.86 1.088-2.752 1.983-2.28 2.286-2.909 4.697-2.016 7.722.524 1.772 3.195 4.445 4.967 4.969 1.878.555 28.687.555 30.565 0 1.771-.524 4.443-3.197 4.966-4.97.845-2.858.28-5.27-1.769-7.549-2.333-2.596-2.233-2.583-18.618-2.545-9.375.022-14.598.154-15.343.39Zm30.17 5.532c.5.5.792 1.161.792 1.79 0 .628-.292 1.29-.792 1.79l-.791.791H24.805l-.791-.792c-.5-.5-.792-1.16-.792-1.79 0-.628.293-1.29.792-1.788l.791-.793h27.796l.791.793Zm78.048 4.867c5.588.975 10.867 3.749 14.997 7.882 8.779 8.783 10.83 21.895 5.165 33.018-.639 1.254-1.303 2.327-1.476 2.384-.173.058-.736-.657-1.252-1.589-.515-.931-2.19-2.942-3.723-4.469-2.219-2.209-3.358-3.058-5.589-4.164l-2.802-1.389 1.264-1.373c5.452-5.918 5.032-15.539-.927-21.226-8.651-8.256-22.638-4.205-25.668 7.434-1.228 4.714.138 10.247 3.404 13.792l1.265 1.373-2.802 1.389c-2.231 1.106-3.371 1.955-5.589 4.164-1.533 1.527-3.209 3.538-3.724 4.469-.515.932-1.079 1.647-1.252 1.589-.173-.057-.837-1.13-1.476-2.384-5.67-11.134-3.622-24.227 5.165-33.018 6.647-6.651 15.712-9.506 25.02-7.882Zm-120.957 9.419c6.77 3.378 15.1 5.142 25.801 5.462 14.043.42 26.964-2.452 34.59-7.69l1.371-.941v9.709l-1.131 1.254c-2.813 3.115-10.517 5.9-20.316 7.345-5.447.803-18.742.803-24.19 0-9.798-1.445-17.502-4.23-20.315-7.345l-1.132-1.254v-9.709l1.37.941c.755.518 2.533 1.521 3.952 2.228Zm120.8 1.737c2.181 1.163 3.166 2.19 4.423 4.609.727 1.401.857 2.06.863 4.391.007 2.512-.085 2.914-1.089 4.776-1.22 2.265-2.232 3.243-4.663 4.506-1.404.731-2.05.857-4.388.857s-2.984-.126-4.389-.857c-2.43-1.263-3.442-2.241-4.663-4.506-1.004-1.864-1.095-2.261-1.085-4.776.012-3.236.777-5.172 2.872-7.267 3.22-3.219 8.04-3.908 12.119-1.733ZM13.224 125.345c4.174 1.393 8.05 2.267 13.26 2.99 5.01.695 18.194.793 23.185.171 8.197-1.02 15.52-3.032 20.238-5.559l2.338-1.253v8.361l-1.131 1.254c-2.813 3.115-10.517 5.9-20.316 7.345-5.447.803-18.742.803-24.19 0-9.798-1.445-17.502-4.23-20.315-7.345l-1.132-1.254v-8.361l2.338 1.261c1.286.693 3.863 1.769 5.725 2.39Zm121.629 9.929c2.846 1.071 4.642 2.164 6.502 3.954 1.744 1.68 3.88 4.826 4.45 6.557.369 1.116.342 1.195-.708 2.095-1.778 1.524-5.195 3.695-7.243 4.601-3.776 1.672-6.688 2.244-11.425 2.244-4.995 0-8.046-.652-12.124-2.588-2.578-1.224-7.552-4.786-7.547-5.405.006-.742 1.539-3.632 2.834-5.345 1.785-2.361 3.973-4.122 6.699-5.392 3.209-1.496 4.717-1.718 10.944-1.615 4.926.082 5.7.173 7.618.894Zm-121.629 5.56c4.163 1.389 8.036 2.263 13.26 2.993 5.578.78 18.86.78 24.439 0 7.76-1.084 14.614-3.028 18.984-5.384l2.338-1.26v8.361l-1.131 1.254c-2.813 3.115-10.517 5.9-20.316 7.345-5.447.803-18.742.803-24.19 0-9.798-1.445-17.502-4.23-20.315-7.345l-1.132-1.254v-8.361l2.338 1.26c1.286.694 3.863 1.769 5.725 2.391Z" fill="#2C2C2C"/></svg>