<svg width="70" height="70" fill="none" xmlns="http://www.w3.org/2000/svg"><path fill-rule="evenodd" clip-rule="evenodd" d="M15.167.184c-.716.225-1.937 1.49-2.156 2.232-.256.867-.256 29.29 0 30.157.236.801 1.444 2.01 2.246 2.246.431.127 2.406.177 7.025.177h6.425l-.767 2.297-.767 2.297-1.336.042-1.337.042v2.323h21v-2.323l-1.337-.041-1.336-.043-.767-2.297-.767-2.297h6.452c7.434 0 7.392.006 8.444-1.165.347-.386.709-.961.804-1.28.25-.83.25-29.282 0-30.113-.095-.318-.457-.894-.804-1.28-1.13-1.257.54-1.167-21.251-1.15C21.34.018 15.527.07 15.167.184Zm39.308 2.5.358.359V27.996H15.167V3.043l.358-.358.358-.358h38.234l.358.358ZM32.585 5.79c-.306 1.396-.416 1.614-.87 1.728-.272.068-.63-.078-1.47-.602l-1.11-.692-1.527 1.528-1.527 1.527.682 1.124c.508.836.66 1.214.593 1.478-.113.451-.339.565-1.726.872l-1.13.25v4.317l1.13.25c1.387.306 1.613.42 1.726.871.067.264-.085.642-.593 1.479l-.682 1.123 1.527 1.528 1.528 1.527 1.11-.692c.84-.523 1.197-.67 1.47-.602.453.114.563.332.869 1.728l.247 1.13h4.336l.247-1.13c.306-1.393.416-1.614.865-1.727.264-.066.642.086 1.478.594l1.124.682 1.518-1.519 1.519-1.519-.668-1.1c-.367-.605-.668-1.194-.668-1.309 0-.47.404-.718 1.642-1.01l1.275-.3V12.999l-1.275-.301c-1.238-.292-1.642-.54-1.642-1.01 0-.115.3-.704.668-1.309l.668-1.1L42.4 7.76l-1.518-1.519-1.124.683c-.836.508-1.214.66-1.478.593-.449-.113-.56-.333-.865-1.727l-.247-1.13h-4.336l-.247 1.13Zm-9.614.142c-.788 1-1.957 3.235-2.386 4.562-.427 1.32-.752 3.332-.751 4.65 0 1.687.501 4.46.881 4.883.062.069.463.01.892-.13 1.34-.437 1.28-.34.967-1.556-.631-2.449-.452-5.444.467-7.819.37-.956 1.216-2.402 2.12-3.626.224-.303.206-.341-.449-.948-1.035-.958-.998-.958-1.74-.016Zm22.484-.002c-.755.65-.796.72-.6.99.117.161.45.637.74 1.057l.529.765.818-.458c1.313-.734 1.297-.662.424-1.875-.425-.59-.846-1.096-.937-1.125-.09-.03-.529.262-.974.646ZM35.43 7.55c.082.305.19.758.24 1.007.082.413.214.503 1.536 1.05.795.328 1.493.596 1.552.596.059 0 .494-.234.967-.52.74-.446.89-.49 1.067-.313.176.177.133.326-.314 1.066-.285.474-.52.91-.52.968 0 .058.269.757.597 1.552.546 1.322.636 1.454 1.05 1.536 1.215.244 1.562.392 1.562.67s-.347.427-1.562.67c-.414.083-.504.214-1.05 1.536-.328.795-.596 1.494-.596 1.552 0 .06.234.494.52.968.446.74.49.89.313 1.066-.177.177-.326.133-1.067-.313-.473-.286-.908-.52-.967-.52-.059 0-.757.269-1.552.597-1.322.546-1.454.636-1.536 1.05-.243 1.215-.392 1.562-.67 1.562s-.427-.347-.67-1.565c-.083-.416-.214-.505-1.524-1.05-.788-.326-1.485-.594-1.55-.594-.063 0-.5.238-.97.528-.766.473-.878.505-1.078.305-.199-.199-.167-.31.306-1.077.29-.47.528-.902.528-.96 0-.056-.269-.754-.597-1.549-.546-1.322-.636-1.453-1.05-1.536-1.215-.243-1.562-.392-1.562-.67s.347-.426 1.562-.67c.414-.082.504-.214 1.05-1.536.328-.795.597-1.492.597-1.55 0-.056-.238-.488-.528-.958-.473-.767-.505-.879-.306-1.078.2-.2.312-.168 1.078.305.47.29.907.528.97.528.064 0 .762-.267 1.55-.594 1.31-.544 1.44-.634 1.524-1.05.243-1.218.392-1.564.67-1.564.201 0 .323.156.43.555Zm13.06 2.828c-.241.085-.642.237-.89.338l-.453.184.275 1.074c.943 3.686.126 7.822-2.141 10.84l-.654.872.619.635c.998 1.025 1.03 1.026 1.761.093.752-.957 1.877-3.038 2.296-4.245 1-2.884 1.1-6.812.235-9.31-.221-.637-.39-.715-1.048-.481ZM6.524 12.793l-1.857 1.862v11.483c0 10.323-.023 11.484-.229 11.484-.397 0-1.735 1.479-1.927 2.131-.404 1.368-.12 2.458.911 3.489 1.476 1.475 3.347 1.475 4.823 0 1.03-1.031 1.315-2.121.911-3.489-.193-.652-1.53-2.131-1.928-2.131-.205 0-.228-1.114-.228-10.978V15.666l1.531-1.526c.842-.84 1.531-1.595 1.531-1.68 0-.193-1.344-1.528-1.538-1.528-.079 0-.979.837-2 1.861Zm54.1-1.164c-.377.384-.687.763-.687.842 0 .079.69.83 1.532 1.67L63 15.665v10.978c0 9.864-.023 10.978-.228 10.978-.398 0-1.735 1.479-1.928 2.131-.404 1.368-.12 2.458.911 3.489.756.755 1.494 1.089 2.412 1.089.917 0 1.656-.334 2.41-1.09 1.488-1.486 1.477-3.341-.026-4.854-.419-.42-.864-.765-.99-.765-.205 0-.228-1.161-.228-11.488V14.646l-1.861-1.857c-1.024-1.022-1.929-1.857-2.01-1.857-.083 0-.46.314-.837.697Zm-26.79.223c-.716.225-1.937 1.49-2.157 2.232-.404 1.368-.119 2.458.912 3.489 1.475 1.475 3.347 1.475 4.822 0 1.425-1.426 1.468-3.239.112-4.747-.944-1.05-2.308-1.41-3.69-.975Zm1.975 2.5c.723.724.21 1.976-.809 1.976-.284 0-.583-.132-.809-.358a1.175 1.175 0 0 1-.358-.809c0-.284.133-.583.358-.809.226-.225.525-.358.809-.358.284 0 .583.133.809.358Zm-12.952 7.82-.987.593.258.437c.142.24.539.795.883 1.234.7.892.67.893 1.701-.062.653-.605.673-.646.452-.948-.127-.174-.469-.66-.76-1.082a16.843 16.843 0 0 0-.544-.765c-.01 0-.46.267-1.003.593Zm31.976 8.966c0 .664-.064.873-.358 1.167l-.358.358H15.883l-.358-.358c-.294-.294-.358-.503-.358-1.167v-.809h39.666v.809Zm-15.226 6.228.767 2.297H29.625l.719-2.15c.395-1.184.75-2.235.788-2.337.054-.144.911-.176 3.888-.146l3.82.04.767 2.296ZM6.642 40.022c.723.723.21 1.975-.809 1.975-.6 0-1.166-.567-1.166-1.167 0-.6.567-1.167 1.166-1.167.284 0 .583.133.809.359Zm58.333 0c.226.225.358.524.358.808 0 .284-.132.583-.358.809a1.175 1.175 0 0 1-.808.358c-.284 0-.583-.132-.809-.358A1.175 1.175 0 0 1 63 40.83c0-.284.132-.583.358-.808.226-.226.525-.359.809-.359.284 0 .583.133.808.359Zm-27.642 4.5c-.715.225-1.936 1.489-2.156 2.232-.407 1.38-.12 2.454.939 3.52.418.42.864.765.99.765.2 0 .227.46.227 3.905v3.904l1.314 1.308 1.313 1.307.835-.835.835-.835-.982-.99-.981-.989v-3.387c0-2.977.027-3.388.228-3.388.397 0 1.735-1.479 1.928-2.131.404-1.368.119-2.458-.912-3.489-1.026-1.026-2.22-1.326-3.578-.898Zm-8.208.944c-.378.384-.688.763-.688.843 0 .08.427.568.948 1.084l.948.94v3.395c0 2.984-.027 3.395-.228 3.395-.125 0-.57.345-.99.766-1.058 1.066-1.345 2.14-.938 3.52.237.8 1.445 2.01 2.246 2.246 1.368.404 2.458.119 3.488-.912 1.03-1.03 1.316-2.12.912-3.488-.193-.653-1.53-2.132-1.928-2.132-.202 0-.228-.459-.228-3.904v-3.905l-1.28-1.273c-.703-.7-1.345-1.273-1.427-1.273-.081 0-.457.314-.835.698ZM4.667 46.855c-.716.225-1.937 1.49-2.156 2.233-.128.432-.178 2.456-.178 7.255V63H0v1.988c0 1.135.076 2.247.177 2.59.237.8 1.445 2.008 2.246 2.245.448.133 3.391.178 11.604.178 12.527 0 11.898.056 12.996-1.165.837-.932.977-1.482.977-3.848V63h-2.333v-6.656c0-4.72-.05-6.824-.174-7.234-.095-.318-.457-.894-.804-1.28-1.082-1.204-.734-1.167-10.751-1.15-5.941.01-8.925.067-9.271.176Zm34.642.167c.225.226.358.525.358.809 0 .284-.133.583-.358.809a1.175 1.175 0 0 1-.809.358c-.284 0-.583-.133-.809-.358a1.175 1.175 0 0 1-.358-.81c0-.283.133-.582.358-.808.226-.226.525-.358.809-.358.284 0 .583.132.809.358Zm7.358-.167c-.716.225-1.937 1.49-2.156 2.233-.128.432-.178 2.456-.178 7.255V63H42v1.988c0 1.135.076 2.247.177 2.59.237.8 1.445 2.008 2.246 2.245.448.133 3.391.178 11.604.178 12.527 0 11.898.056 12.996-1.165.837-.932.977-1.482.977-3.848V63h-2.333v-6.656c0-4.72-.05-6.824-.174-7.234-.095-.318-.457-.894-.804-1.28-1.082-1.204-.734-1.167-10.751-1.15-5.941.01-8.925.067-9.271.176Zm-23.692 2.5.358.359v13.285H4.667V49.714l.358-.358.358-.358h17.234l.358.358Zm42 0 .358.359v13.285H46.667V49.714l.358-.358.358-.358h17.234l.358.358ZM32.31 57.524c.723.723.21 1.976-.809 1.976-.6 0-1.167-.568-1.167-1.167 0-.6.568-1.167 1.167-1.167.284 0 .583.132.809.358Zm-6.642 8.618c0 .664-.064.873-.358 1.167l-.358.358H3.05l-.359-.358c-.294-.294-.358-.503-.358-1.167v-.809h23.334v.81Zm42 0c0 .664-.064.873-.358 1.167l-.358.358H45.05l-.359-.358c-.294-.294-.358-.503-.358-1.167v-.809h23.334v.81Z" fill="#fff"/></svg>