<svg width="71" height="70" fill="none" xmlns="http://www.w3.org/2000/svg"><path fill-rule="evenodd" clip-rule="evenodd" d="M8.762.242C6.376.882 4.504 2.78 3.875 5.196c-.28 1.07-.313 13-.04 13.924.23.775 1.4 1.944 2.175 2.173.399.117 1.892.171 4.764.171h4.183v27.734l-.746.736c-.717.709-.774.736-1.525.736-1.412 0-1.739.257-6.78 5.321-4.188 4.207-4.647 4.714-5.066 5.603-.872 1.85-.704 4.167.42 5.784.801 1.152 1.786 1.893 3.116 2.343 1.343.456 2.968.348 4.31-.287.843-.4 1.348-.83 3.667-3.123 1.48-1.463 2.727-2.66 2.772-2.66.046 0 .124.217.174.483.32 1.704 2.139 3.95 3.98 4.912 1.946 1.018.518.963 23.802.92l20.928-.037.824-.314c3.164-1.206 5.143-3.73 5.412-6.904.08-.954.065-1.03-.28-1.375-.359-.358-.41-.366-2.279-.366h-1.912V33.617c0-18.014-.05-27.611-.144-28.111-.473-2.494-2.49-4.614-5.014-5.271C59.397-.083 9.943-.076 8.762.242Zm3.533 2.448c.97.456 1.58 1.038 2.107 2.01l.484.892.042 6.807.041 6.808H6.617l-.353-.353-.354-.353.042-6.455.042-6.454.35-.706A4.812 4.812 0 0 1 9.38 2.398c.693-.182 2.234-.027 2.914.292Zm48.543-.025c1.006.5 1.6 1.07 2.123 2.034l.484.893.037 27.689.037 27.689H29.201l-.323.323c-.248.248-.345.548-.414 1.291-.314 3.356-3.511 5.747-6.702 5.011-2.368-.545-4.278-2.715-4.5-5.111l-.088-.955.94-.973c1.117-1.156 1.494-1.905 1.498-2.973l.003-.777 3.86-3.857 3.861-3.857.692.346c2.367 1.185 5.599 1.63 8.456 1.165 3.809-.62 7.16-2.672 9.525-5.834.727-.972 1.76-3.038 2.135-4.273l.295-.972h4.032l.177.428c.241.581 1.27 1.46 1.947 1.663 1.585.475 3.283-.246 4.096-1.738.318-.583.316-2.384-.004-2.973-.586-1.083-1.894-1.895-3.05-1.895-1.169 0-2.591.87-2.989 1.83l-.177.428h-3.636v-1.11c0-1.107-.302-3.24-.57-4.035-.138-.406-.09-.47 1.588-2.152l1.73-1.733h3.146l.178.428c.24.581 1.27 1.46 1.947 1.663 1.584.475 3.283-.246 4.096-1.739.318-.582.315-2.383-.004-2.973-.587-1.082-1.894-1.894-3.05-1.894-1.17 0-2.592.87-2.99 1.83l-.177.427h-4.105L48.9 27.684l-1.725 1.704-.44-.752a16.946 16.946 0 0 0-.928-1.395l-.488-.643 2.731-2.727 2.731-2.727.46.16c2.002.698 4.37-1.05 4.37-3.226 0-.887-.323-1.602-1.054-2.333-1.428-1.427-3.24-1.427-4.668 0-.978.977-1.297 2.16-.894 3.315l.16.459-2.728 2.73-2.728 2.73-.643-.488a17 17 0 0 0-1.396-.927l-.753-.44 1.706-1.724 1.705-1.724v-4.103l.428-.178c.96-.397 1.83-1.819 1.83-2.987 0-1.156-.812-2.463-1.895-3.049-.604-.327-2.39-.321-3.003.01-1.471.795-2.185 2.498-1.711 4.08.203.677 1.083 1.706 1.664 1.946l.428.178v3.144l-1.729 1.724-1.73 1.723-.634-.19c-1.201-.36-3.125-.552-4.622-.46l-1.448.089V17.83l.428-.177c.96-.397 1.83-1.82 1.83-2.988 0-1.155-.812-2.462-1.895-3.048-.604-.327-2.39-.322-3.003.01-1.471.794-2.186 2.497-1.711 4.08.202.676 1.082 1.705 1.664 1.946l.428.177v2.183c0 2.12-.008 2.185-.305 2.263-.659.172-3.058 1.443-3.896 2.064-3.712 2.747-5.964 7.222-5.962 11.843.002 1.973.592 4.556 1.405 6.15l.315.618-1.954 1.956-1.954 1.957-.07-20.777-.071-20.778-.329-.813a9.964 9.964 0 0 0-.803-1.519l-.475-.705 22.33.037 22.33.038.64.318ZM49.964 4.718c-.693.218-1.874 1.441-2.087 2.16-.39 1.323-.115 2.377.883 3.374.972.973 1.328 1.054 4.619 1.054 3.306 0 3.758-.11 4.674-1.127 1.265-1.407 1.265-3.111 0-4.519-.926-1.028-1.359-1.13-4.761-1.112-1.63.008-3.044.08-3.328.17Zm6.43 2.42c.218.218.346.507.346.782 0 .274-.128.564-.347.782-.343.344-.368.346-3.041.346s-2.698-.002-3.041-.346a1.136 1.136 0 0 1-.347-.782c0-.275.128-.564.347-.783.343-.343.368-.346 3.041-.346s2.698.003 3.041.346ZM43.97 11.651c.7.7.204 1.911-.782 1.911-.58 0-1.13-.549-1.13-1.129s.55-1.128 1.13-1.128c.275 0 .564.128.782.346ZM31.55 13.91c.7.7.204 1.91-.782 1.91-.275 0-.565-.127-.783-.346a1.137 1.137 0 0 1-.347-.782c0-.275.128-.564.347-.782.218-.219.508-.347.783-.347s.564.128.782.347Zm21.456 3.386c.7.7.205 1.91-.782 1.91-.58 0-1.13-.548-1.13-1.128 0-.58.55-1.129 1.13-1.129.275 0 .564.128.782.347ZM37.263 24.13c7.038 1.886 10.935 9.153 8.612 16.063-1.165 3.464-4.198 6.495-7.664 7.66-8.96 3.01-17.895-4.574-16.28-13.817.885-5.058 4.901-9.15 9.915-10.098 1.473-.28 3.992-.19 5.417.192Zm-5.085 2.051c-3.044.646-5.699 2.657-7.038 5.331-.865 1.728-1.078 2.681-1.063 4.767.01 1.503.067 1.93.383 2.892.531 1.617 1.273 2.8 2.566 4.092 1.847 1.847 3.907 2.807 6.403 2.984 6.132.435 11.235-4.646 10.839-10.79-.097-1.506-.619-3.207-1.38-4.506-.683-1.163-2.54-2.984-3.699-3.627-2.08-1.155-4.837-1.605-7.01-1.143Zm26.474.145c.7.7.204 1.91-.783 1.91-.58 0-1.13-.548-1.13-1.128 0-.58.55-1.129 1.13-1.129.275 0 .565.128.783.347Zm-23.006 2.061c1.362.246 3.017 1.126 4.044 2.153 1.583 1.582 2.295 3.319 2.295 5.598 0 2.263-.713 4.016-2.263 5.565-1.55 1.549-3.303 2.261-5.568 2.261-2.28 0-4.017-.712-5.6-2.294-3.337-3.334-2.95-8.917.817-11.77 1.854-1.405 4-1.922 6.275-1.512Zm20.747 9.226c.219.218.347.507.347.782s-.128.564-.347.782a1.138 1.138 0 0 1-.782.347c-.275 0-.565-.128-.783-.346a1.136 1.136 0 0 1-.347-.783c0-.275.128-.564.347-.782.218-.219.508-.346.783-.346s.564.127.782.346Zm-32.546 8.849 1.436 1.435-3.47 3.467-3.468 3.467-1.446-1.446-1.446-1.445 3.456-3.457c1.901-1.901 3.467-3.457 3.48-3.457.012 0 .668.646 1.458 1.436Zm19.342 4.35v1.128h18.068v-2.258H43.189v1.13ZM15.276 55.01c1.885 1.888 2.08 2.13 2.08 2.576 0 .46-.31.803-4.552 5.029-2.504 2.494-4.775 4.651-5.046 4.793-.686.358-2.424.357-3.106-.002-.69-.363-1.382-1.044-1.738-1.71-.402-.75-.426-2.446-.045-3.174.142-.272 2.3-2.542 4.796-5.044 4.24-4.252 4.57-4.55 5.034-4.55.452 0 .685.188 2.577 2.082Zm29.247-.614c-1.425.62-1.761 2.512-.645 3.627 1.586 1.586 4.184.166 3.767-2.058-.25-1.33-1.838-2.128-3.123-1.57Zm6.775 0c-1.424.62-1.76 2.512-.645 3.627 1.586 1.586 4.185.166 3.768-2.058-.25-1.33-1.839-2.128-3.123-1.57Zm6.776 0c-1.424.62-1.76 2.512-.645 3.627 1.586 1.586 4.185.166 3.767-2.058-.25-1.33-1.838-2.128-3.122-1.57Zm9.817 9.024c0 .106-.223.638-.495 1.183-.602 1.202-1.45 2.018-2.726 2.622l-.943.447-17.629.037c-14.226.031-17.602.004-17.492-.14.075-.1.336-.434.578-.744.55-.703 1.264-2.261 1.386-3.023l.092-.575h18.614c15.639 0 18.615.03 18.615.193Z" fill="#fff"/></svg>