<svg width="154" height="160" fill="none" xmlns="http://www.w3.org/2000/svg"><path fill-rule="evenodd" clip-rule="evenodd" d="m62.575.924-.916.913v11.61h-2.611c-3.739 0-3.76.029-4.937 7.065-.767 4.58-1.054 5.689-1.59 6.137-.359.301-.903.547-1.21.547-.305 0-2.794-.843-5.53-1.873s-5.37-1.874-5.852-1.875c-1.129-.002-1.953.858-3.513 3.67l-1.254 2.26-8.153-.076-8.153-.075-.088-4.13-.087-4.129 1.214-.617c3.808-1.936 5.342-6.935 3.292-10.721-1.59-2.937-4.573-4.544-7.819-4.213-2.893.296-5.491 2.209-6.63 4.882-.597 1.401-.643 4.174-.095 5.778.5 1.463 2.503 3.715 3.77 4.238l.909.375.101 6.25.102 6.248.88.754.88.754h16.898v.739c0 1.084.759 1.876 5.285 5.51 2.247 1.805 4.094 3.457 4.104 3.672.014.3-1.457.39-6.36.39-3.508 0-9.347.093-12.977.205l-6.599.205-.225-.708c-.124-.39-.73-1.265-1.348-1.946C9.119 37.31.189 40.658.201 47.959c.01 6.591 7.167 10.256 12.6 6.452.989-.691 1.656-1.514 2.716-3.35.14-.242 3.465-.42 10.708-.572l10.504-.22-1.254 1.032c-2.601 2.138-3.292 2.978-3.292 4.001 0 .664.864 2.478 2.665 5.588l2.665 4.606V77.17l-6.893.09-6.893.089-.352-.847c-.514-1.237-3.106-3.53-4.537-4.013-5.929-2.004-11.866 3.216-10.513 9.242.779 3.466 3.986 6.117 7.473 6.177.992.017 2.36-.157 3.04-.386 1.43-.484 4.023-2.777 4.537-4.013l.353-.848H41.33l.756-.877c.753-.872.757-.916.76-8.124l.003-7.248 4.027-1.484c2.215-.816 4.244-1.484 4.51-1.484.264 0 .775.246 1.135.546.535.449.822 1.557 1.589 6.138 1.069 6.383 1.409 7.065 3.526 7.065h1.2v13.436h-4.373c-4.17 0-4.413.035-5.252.754l-.88.754-.085 20.104-.085 20.105-11.91 11.883c-11.45 11.426-11.909 11.929-11.909 13.061 0 .832.225 1.4.77 1.943l.77.767h87.48l.864-.741c.652-.558.865-1.023.865-1.888 0-1.088-.486-1.632-9.314-10.433l-9.313-9.284v-14.276l2.983-4.944 2.982-4.943 3.995 2.336c2.197 1.285 6.019 3.347 8.495 4.584l4.5 2.248h18.073l.809-.758.809-.758V105.235l2.744-2.793 2.744-2.794.108-4.51.108-4.509h2.53c2.129 0 2.74-.123 3.86-.776 1.723-1.007 2.79-3.062 2.567-4.948-.086-.725-2.044-5.538-4.402-10.819l-4.248-9.512.872-1.268c3.286-4.774 4.359-9.362 3.766-16.1-.722-8.206-3.21-15.24-7.857-22.214-2.534-3.803-8.534-9.81-12.268-12.28-3.59-2.377-13.463-7.39-14.554-7.39-.61 0-1.232.404-2.174 1.412l-1.318 1.41-8.895-.082-8.894-.084-.157-3.387C93.41-.437 94.962.01 77.75.01H63.492l-.917.913ZM88.312 8.12c0 1.539.17 3.166.375 3.617.734 1.606 1.376 1.71 10.585 1.71 4.665 0 8.482.08 8.482.179 0 .098-1.905 2.83-4.233 6.07-2.329 3.241-4.234 6.113-4.234 6.384 0 .427-.676.491-5.153.491-4.832 0-5.164-.038-5.346-.609-.355-1.115-1.932-2.516-2.832-2.516-.467 0-3.11.844-5.873 1.875-2.763 1.031-5.272 1.875-5.575 1.875-1.417 0-1.785-.885-2.784-6.693-1.098-6.385-1.434-7.056-3.535-7.056h-1.2V5.322h21.323V8.12ZM18.15 11.608c.312.373.549 1.174.549 1.85 0 2.825-4.014 3.401-5.035.723-.385-1.008.367-2.827 1.337-3.23 1.02-.426 2.506-.116 3.15.657Zm102.386 2.122c5.091 2.55 8.041 4.56 11.437 7.793 7.234 6.888 11.644 16.138 12.42 26.055.484 6.174-.425 9.703-3.476 13.49-1.442 1.792-1.629 2.213-1.507 3.398.031.305 2.078 5.086 4.548 10.624l4.491 10.071-3.806.156c-2.094.086-3.998.279-4.231.429-.943.606-1.301 2.334-1.301 6.28v3.916h-1.188c-2.874 0-6.524-1.482-9.319-3.784-.817-.673-1.791-1.3-2.165-1.393-1.683-.421-3.56 1.459-3.136 3.142.509 2.021 5.994 5.625 10.169 6.682 1.99.503 2.166.608 1.687 1.004-1.187.981-1.378 2.227-1.378 8.977v6.523l-6.35.196-6.35.195-4.471-2.209c-3.975-1.965-14.176-7.859-16.7-9.649l-.945-.672.083-8.914.083-8.914 6.094-2.426c3.817-1.52 6.307-2.688 6.663-3.126.508-.624.57-1.377.57-6.898V68.48l-3.92-5.235-3.92-5.234V27.346l5.659-7.887c3.112-4.338 5.725-7.887 5.805-7.887.081 0 2.085.971 4.454 2.158Zm-54.33 6.045c.1.558.513 2.978.917 5.377.627 3.736.839 4.446 1.475 4.945 1.106.869 4.35 2.712 5.106 2.9.389.098 2.709-.605 5.648-1.71 2.743-1.032 5.09-1.814 5.214-1.737.125.076.866 1.264 1.647 2.638l1.421 2.499-4.067 3.336c-2.236 1.834-4.2 3.584-4.364 3.889-.491.915-.37 6.29.159 7.043.25.357 2.222 2.093 4.38 3.858l3.924 3.208-.835 1.446c-1.304 2.257-2.278 3.79-2.408 3.79-.066 0-1.934-.683-4.151-1.517-6.903-2.596-5.945-2.53-9.233-.639-1.588.914-2.962 1.928-3.097 2.289-.135.356-.547 2.475-.918 4.71-.37 2.234-.752 4.449-.849 4.921l-.176.86H59.84l-.335-1.953c-.185-1.074-.579-3.43-.875-5.234-.61-3.712-.9-4.143-3.888-5.78-2.911-1.594-2.603-1.611-8.15.444-2.797 1.036-5.192 1.819-5.323 1.738-.13-.08-.87-1.259-1.644-2.62l-1.406-2.474 3.011-2.45c1.657-1.349 3.614-2.997 4.35-3.663l1.34-1.212v-3.105c0-1.708-.143-3.372-.318-3.698-.175-.326-2.139-2.082-4.364-3.903l-4.046-3.312 1.416-2.403c.778-1.323 1.511-2.507 1.629-2.632.118-.126 2.256.552 4.751 1.506 2.496.953 5.032 1.747 5.635 1.763 1.056.029 3.673-1.279 5.612-2.802.765-.602.934-1.293 2.222-9.067l.376-2.265h6.186l.185 1.016Zm43.743 12.096v5.324h5.346l-.086-5.234-.086-5.234-2.587-.09-2.587-.091v5.325Zm-10.975 5.48v5.469l-6.35-.01-6.35-.009.965-.85a266.67 266.67 0 0 1 3.685-3.12c2.527-2.109 2.72-2.352 2.717-3.437-.001-.642-.282-1.59-.625-2.105-.343-.515-.624-1.043-.625-1.172-.001-.128 1.48-.234 3.29-.234h3.293v5.469Zm-39.04-2.237c-3.076 1.015-5.393 3.017-6.695 5.783-1.13 2.404-1.184 6.3-.116 8.616 1.079 2.342 2.633 4.018 4.825 5.202 1.867 1.008 2.165 1.073 4.965 1.071 2.64 0 3.165-.099 4.614-.858 2.362-1.24 3.61-2.45 4.822-4.676.99-1.82 1.069-2.169 1.069-4.776 0-2.389-.126-3.078-.83-4.577-1.717-3.647-5.121-5.906-9.187-6.096-1.284-.06-2.74.07-3.467.31Zm5.5 5.613c3.61 1.902 3.689 7.186.138 9.19-2.562 1.446-5.902.488-7.268-2.085-1.157-2.18-.883-4.285.788-6.066 1.738-1.85 4.074-2.234 6.342-1.039Zm44.515 4.762v2.668l2.587-.09 2.587-.091.091-2.578.091-2.578h-5.356v2.669Zm-100.68.288c2.276 1.173 1.342 4.855-1.232 4.855-2.642 0-3.442-3.595-1.097-4.935.837-.478 1.275-.463 2.33.08Zm89.705 7.667v5.313H95.68c-1.81 0-3.292-.067-3.292-.15 0-.081.281-.608.626-1.171.673-1.1.808-2.448.333-3.332-.162-.302-1.714-1.717-3.45-3.144-1.734-1.427-3.153-2.648-3.153-2.712 0-.063 2.751-.116 6.114-.116h6.115v5.312Zm10.975 2.669v2.669l2.587-.091 2.587-.09.091-2.579.091-2.578h-5.356v2.669Zm22.093-1.902c-.715.713-.77.99-.77 3.906v3.14l-2.901.004c-3.238.005-4.255.352-4.888 1.668-.51 1.059-.276 2.156.64 3.006.625.58 1.093.633 5.615.633 2.712 0 5.161-.087 5.44-.194 1.118-.427 1.425-1.796 1.425-6.368 0-5.666-.391-6.562-2.862-6.562-.569 0-1.228.298-1.699.767ZM79.96 65.321c2.736 1.03 5.363 1.872 5.838 1.872 1.085 0 2.311-.945 2.824-2.176l.394-.948 6.782.01 6.782.012 2.273 3.071 2.274 3.072v4.459H96.466v5.289l2.9.09 2.9.09-2.351.902c-4.55 1.746-5.564 2.323-5.931 3.372-.188.536-.34 2.149-.34 3.584v2.61H64.48V77.192h2.372c3.818 0 3.733.13 5.018-7.656.686-4.153.94-5.09 1.5-5.54.37-.297.885-.542 1.144-.545.259-.003 2.71.838 5.445 1.868Zm-4.818 12.028v2.656H80.473v-5.312H75.142v2.656Zm10.662 0v2.656H91.135v-5.312H85.804v2.656Zm-67.83.836c1.6 1.498.488 4.32-1.702 4.32-1.445 0-2.148-.433-2.545-1.567-.38-1.086-.027-2.407.813-3.042.828-.627 2.616-.477 3.433.289Zm51.761 37.291.081 19.379-2.59 2.95-2.588 2.951-.085-6.314-.085-6.315h-5.632v19.218l-3.2 3.671-3.198 3.672H33.293L43.4 144.599l10.106-10.088v-19.077c0-10.491.096-19.172.214-19.29.118-.117 3.751-.176 8.074-.13l7.86.084.081 19.378Zm10.738-10.883v8.651l5.33 5.343c3.68 3.688 5.332 5.558 5.332 6.036v.692H75.142V95.942H80.473v8.651Zm13.17-3.386c0 3.058.146 5.684.349 6.263.236.675.893 1.344 2.038 2.074.93.592 1.69 1.142 1.69 1.222 0 .254-3.835 6.56-4.282 7.041-.37.399-.912-.02-4.031-3.12l-3.603-3.58V95.942h7.84v5.265Zm-34.586 5.556c-.121.121-.22 1.321-.22 2.667v2.448H64.505l-.091-2.578-.091-2.578-2.523-.09c-1.388-.049-2.623.01-2.744.131Zm-.084 10.834c-.091.238-.124 1.474-.073 2.747l.093 2.315H64.324V117.346l-2.592-.09c-1.982-.07-2.631.01-2.759.341Zm21.5 25.06v12.031H70.099c-5.706 0-10.327-.113-10.27-.252.058-.138 3.35-3.946 7.317-8.462 3.967-4.515 7.384-8.515 7.593-8.888.22-.391.386-1.903.392-3.569l.011-2.89H80.473v12.03Zm10.662-7.436v4.594l7.438 7.436 7.439 7.437H85.804v-24.061H91.135v4.594Z" fill="#2C2C2C"/></svg>