<svg width="68" height="70" fill="none" xmlns="http://www.w3.org/2000/svg"><path fill-rule="evenodd" clip-rule="evenodd" d="m27.689.404-.401.4V5.883h-1.142c-1.636 0-1.645.013-2.16 3.091-.336 2.004-.461 2.489-.695 2.685-.158.132-.396.24-.53.24s-1.223-.37-2.42-.82c-1.197-.451-2.349-.82-2.56-.82-.494-.002-.854.375-1.537 1.605l-.548.988-3.567-.032-3.567-.033-.039-1.807-.038-1.806.532-.27c1.665-.847 2.337-3.034 1.44-4.691-.696-1.285-2-1.988-3.421-1.843a3.588 3.588 0 0 0-2.9 2.136c-.262.613-.282 1.826-.042 2.528.218.64 1.095 1.625 1.649 1.854l.398.164.044 2.734.045 2.734.384.33.385.33H14.392v.323c0 .474.332.82 2.312 2.41.983.79 1.792 1.513 1.796 1.607.006.131-.637.17-2.782.17-1.535 0-4.09.041-5.678.09l-2.887.09-.098-.31c-.055-.17-.32-.553-.59-.851C4.302 16.323.395 17.788.4 20.982c.005 2.884 3.136 4.487 5.513 2.823.432-.303.724-.663 1.188-1.466.061-.106 1.516-.183 4.685-.25l4.595-.096-.548.451c-1.138.936-1.44 1.303-1.44 1.75 0 .291.378 1.085 1.165 2.446l1.166 2.014v5.108l-3.015.039-3.016.04-.154-.372c-.225-.54-1.359-1.544-1.985-1.755-2.594-.877-5.191 1.407-4.6 4.043.341 1.517 1.744 2.677 3.27 2.703.434.007 1.033-.069 1.33-.17.626-.21 1.76-1.214 1.985-1.755l.154-.37H18.394l.332-.384c.329-.382.33-.401.332-3.555l.001-3.17 1.762-.65c.97-.357 1.857-.65 1.973-.65.116 0 .34.108.497.24.234.196.36.68.695 2.685.467 2.792.616 3.09 1.542 3.09h.525v5.88H24.14c-1.824 0-1.93.015-2.298.33l-.384.33-.038 8.795-.037 8.795-5.21 5.2c-5.01 4.998-5.21 5.218-5.21 5.713 0 .364.098.613.336.85l.337.336H49.909l.378-.324c.285-.244.378-.448.378-.826 0-.476-.212-.714-4.075-4.564l-4.074-4.062v-6.246l1.305-2.163 1.305-2.163 1.747 1.022a77.703 77.703 0 0 0 3.717 2.006l1.969.983h7.907l.353-.331.355-.332v-6.96l1.2-1.222 1.2-1.222.048-1.973.047-1.973h1.107c.931 0 1.199-.053 1.688-.34.754-.44 1.221-1.339 1.124-2.164-.038-.317-.895-2.423-1.926-4.733l-1.859-4.162.382-.555c1.437-2.088 1.907-4.095 1.647-7.044-.315-3.59-1.404-6.667-3.437-9.718-1.109-1.664-3.734-4.292-5.367-5.373-1.571-1.04-5.89-3.232-6.368-3.232-.266 0-.539.176-.95.617l-.578.617-3.89-.036-3.892-.036-.069-1.483c-.102-2.2.577-2.004-6.954-2.004H28.09l-.401.4Zm11.26 3.149c0 .673.074 1.385.164 1.582.321.703.602.748 4.63.748 2.042 0 3.712.035 3.712.078S46.62 7.2 45.603 8.617c-1.019 1.418-1.852 2.675-1.852 2.793 0 .187-.296.215-2.255.215-2.114 0-2.26-.017-2.339-.267-.155-.487-.845-1.1-1.239-1.1-.204 0-1.36.369-2.57.82-1.208.451-2.306.82-2.438.82-.62 0-.781-.387-1.218-2.928-.48-2.793-.628-3.087-1.547-3.087h-.525V2.329h9.329v1.224ZM8.253 5.078c.136.164.24.514.24.81 0 1.236-1.756 1.488-2.203.316-.168-.44.161-1.237.585-1.413.447-.186 1.097-.05 1.378.287Zm44.794.929c2.227 1.116 3.518 1.995 5.004 3.41a17.618 17.618 0 0 1 5.433 11.398c.212 2.702-.186 4.245-1.52 5.903-.631.783-.713.967-.66 1.486.014.133.91 2.225 1.99 4.648l1.965 4.406-1.666.068c-.916.038-1.748.122-1.85.188-.413.265-.57 1.021-.57 2.747v1.713h-.52c-1.256 0-2.853-.648-4.076-1.655-.358-.294-.784-.569-.947-.61-.737-.184-1.558.639-1.373 1.375.223.885 2.623 2.461 4.45 2.924.87.22.947.266.737.439-.519.43-.603.974-.603 3.927v2.854l-2.778.086-2.778.085-1.956-.966c-1.739-.86-6.202-3.438-7.306-4.222l-.414-.294.037-3.9.036-3.9 2.666-1.06c1.67-.665 2.76-1.177 2.916-1.369.221-.273.249-.602.249-3.017v-2.712l-1.715-2.29-1.715-2.29V11.964l2.476-3.45c1.361-1.899 2.504-3.451 2.54-3.451.035 0 .912.425 1.948.944ZM29.277 8.65c.045.245.225 1.303.401 2.353.275 1.634.368 1.945.646 2.164.484.38 1.903 1.186 2.234 1.269.17.042 1.185-.265 2.47-.75 1.201-.45 2.228-.793 2.282-.759.054.034.379.553.72 1.154l.622 1.094-1.779 1.459c-.978.802-1.838 1.568-1.91 1.701-.214.4-.161 2.753.07 3.082.11.156.972.916 1.917 1.688l1.716 1.403-.365.633c-.57.987-.997 1.658-1.054 1.658-.028 0-.846-.299-1.816-.664-3.02-1.135-2.6-1.106-4.039-.28-.695.4-1.296.844-1.355 1.002-.059.156-.24 1.083-.402 2.06-.161.978-.329 1.947-.371 2.154l-.077.376h-2.694l-.147-.855c-.08-.47-.253-1.5-.383-2.29-.267-1.623-.393-1.812-1.7-2.528-1.274-.698-1.14-.705-3.566.194-1.224.453-2.272.796-2.329.76-.057-.034-.38-.55-.719-1.145l-.615-1.083 1.317-1.072c.725-.59 1.581-1.311 1.904-1.602l.585-.53v-1.36c0-.747-.062-1.475-.139-1.617-.076-.143-.936-.911-1.91-1.708l-1.77-1.449.62-1.051c.34-.579.662-1.097.713-1.152.052-.055.987.242 2.079.66 1.092.416 2.2.764 2.465.77.462.013 1.607-.559 2.455-1.225.335-.264.409-.566.972-3.967l.165-.99h2.706l.081.443Zm19.138 5.292v2.33h2.339l-.038-2.29-.037-2.29-1.132-.04-1.132-.04v2.33Zm-4.801 2.398v2.393l-2.779-.004-2.778-.004.423-.372c.232-.205.957-.82 1.612-1.365 1.105-.923 1.19-1.03 1.188-1.504 0-.281-.123-.695-.273-.92-.15-.226-.273-.457-.273-.514-.001-.056.647-.102 1.439-.102h1.44v2.392Zm-17.08-.979c-1.346.444-2.36 1.32-2.93 2.53-.494 1.052-.517 2.757-.05 3.77.472 1.025 1.152 1.758 2.11 2.276.817.441.948.47 2.173.469 1.155-.001 1.384-.044 2.018-.376 1.034-.542 1.58-1.072 2.11-2.046.433-.796.468-.949.468-2.09 0-1.044-.055-1.346-.364-2.002-.75-1.595-2.24-2.584-4.019-2.667-.562-.026-1.198.031-1.517.136Zm2.406 2.456c1.579.832 1.613 3.144.06 4.02-1.12.633-2.582.214-3.18-.911-.506-.954-.386-1.875.345-2.654.76-.81 1.783-.978 2.775-.455Zm19.475 2.083v1.168l1.132-.04 1.132-.04.04-1.127.04-1.128h-2.344V19.9Zm-44.047.126c.995.514.587 2.124-.54 2.124-1.155 0-1.505-1.572-.48-2.158.367-.21.558-.203 1.02.034Zm39.245 3.355v2.324h-1.44c-.792 0-1.44-.03-1.44-.065 0-.036.123-.267.273-.513.295-.481.354-1.07.146-1.457-.07-.133-.75-.752-1.509-1.376-.759-.625-1.38-1.158-1.38-1.186 0-.028 1.204-.051 2.675-.051h2.675v2.324Zm4.802 1.167v1.168l1.132-.04 1.132-.04.04-1.127.04-1.128h-2.344v1.167Zm9.666-.831c-.313.311-.337.433-.337 1.708V26.8l-1.27.002c-1.416.002-1.86.154-2.138.73-.223.463-.12.942.28 1.314.274.255.478.278 2.457.278 1.187 0 2.258-.039 2.38-.085.49-.187.623-.786.623-2.786 0-2.48-.17-2.871-1.252-2.871-.249 0-.537.13-.743.335Zm-22.786 4.86c1.197.45 2.346.82 2.554.82.475 0 1.011-.414 1.235-.953l.173-.415 2.967.005 2.967.005.995 1.343.994 1.344v1.951h-4.664v2.314l1.269.04 1.269.039-1.029.395c-1.99.764-2.434 1.016-2.595 1.475-.082.234-.149.94-.149 1.568v1.141H28.522v-5.879h1.039c1.67 0 1.633.057 2.195-3.349.3-1.817.411-2.227.656-2.423.162-.13.388-.237.5-.239.114 0 1.186.367 2.383.817Zm-2.108 5.262v1.162h2.332v-2.324h-2.332v1.162Zm4.665 0v1.162h2.332v-2.324h-2.332v1.162Zm-29.676.366c.7.655.213 1.89-.745 1.89-.632 0-.94-.19-1.113-.686-.166-.475-.012-1.053.355-1.33.363-.275 1.145-.209 1.503.126ZM30.822 50.52l.035 8.478-1.133 1.29-1.133 1.292-.037-2.763-.037-2.762h-2.464v8.407l-1.4 1.607-1.399 1.606h-8.376l4.422-4.414 4.421-4.414v-8.345c0-4.59.042-8.388.094-8.44.051-.051 1.641-.077 3.532-.057l3.44.037.035 8.478Zm4.697-4.762v3.785l2.333 2.338c1.609 1.613 2.332 2.432 2.332 2.64v.303h-6.997V41.974h2.332v3.785Zm5.762-1.48c0 1.337.064 2.486.153 2.739.103.295.39.588.892.907.406.26.739.5.739.535 0 .111-1.678 2.87-1.874 3.08-.162.175-.398-.008-1.763-1.364l-1.576-1.567v-6.635H41.28v2.304Zm-15.131 2.43c-.053.053-.097.578-.097 1.167v1.07h2.48l-.04-1.127-.039-1.128-1.104-.04c-.607-.02-1.147.005-1.2.058Zm-.037 4.74c-.04.104-.054.645-.032 1.202l.04 1.012h2.333V51.34l-1.134-.04c-.867-.03-1.151.005-1.207.15Zm9.406 10.964v5.263h-4.538c-2.497 0-4.519-.05-4.493-.11.025-.06 1.465-1.727 3.2-3.702 1.736-1.976 3.231-3.726 3.323-3.889.096-.17.168-.832.171-1.561l.005-1.265h2.332v5.264Zm4.665-3.254v2.01l3.254 3.254 3.255 3.253H37.852V57.149h2.332v2.01Z" fill="#fff"/></svg>