<svg width="70" height="70" fill="none" xmlns="http://www.w3.org/2000/svg"><path fill-rule="evenodd" clip-rule="evenodd" d="M15.25.196c-.662.242-1.362.893-1.75 1.627-.756 1.429-.056 3.484 1.453 4.265.565.292 1.735.383 2.343.182l.515-.17 3.483 3.47c1.916 1.908 3.57 3.667 3.675 3.91.131.302.19.995.19 2.222v1.782l-1.264.006c-1.73.008-2.415.159-2.808.616-.237.276-.299.468-.235.731.186.759-.598.716 13.755.743l13.315.024.549.294a3.9 3.9 0 0 1 1.618 1.62l.294.548.024 13.321c.028 14.672-.031 13.738.866 13.738.896 0 1.212-.78 1.223-3.02l.006-1.266h8.991l.239.376c.723 1.141 1.636 1.701 2.79 1.712 1.418.013 2.57-.786 3.088-2.143.573-1.5-.264-3.353-1.809-4-.569-.239-1.836-.237-2.41.003-.631.264-1.385.958-1.652 1.523l-.227.478h-9.01V40.48l2.404-.043 2.405-.043.34-.395c.37-.431.35-.899-.054-1.349-.19-.21-.505-.24-2.656-.24h-2.44v-2.324l8.1-.001c5.031 0 8.29-.053 8.598-.139 1.026-.285 1.026-1.624 0-1.91-.309-.085-3.567-.138-8.597-.138h-8.1v-2.326h2.44c2.15 0 2.465-.028 2.655-.24.405-.45.424-.917.054-1.348l-.34-.395-2.405-.043-2.404-.043v-2.284l2.153-.048c1.933-.043 2.216-.08 2.768-.366.392-.203 1.941-1.64 4.258-3.95l3.642-3.63.445.156c1.576.55 3.34-.299 4.023-1.934.734-1.756-.55-3.897-2.561-4.274-.908-.17-1.837.162-2.639.945-.956.934-1.26 2.074-.86 3.224l.155.445-3.47 3.487c-1.91 1.918-3.67 3.573-3.911 3.678-.303.132-.996.192-2.222.192h-1.781l-.001-1.129c-.002-2.328-.459-3.669-1.66-4.87-1.2-1.201-2.54-1.658-4.867-1.66h-1.128V8.487l.376-.238c1.14-.724 1.7-1.637 1.71-2.79.014-1.42-.785-2.574-2.14-3.092-1.5-.573-3.352.265-4 1.81-.238.57-.236 1.838.004 2.413.264.63.957 1.384 1.522 1.652l.477.227v9.014H40.49l-.043-2.406-.043-2.405-.395-.34c-.43-.37-.898-.351-1.348.054-.21.19-.24.505-.24 2.656v2.441h-2.323l-.001-8.104c0-5.032-.053-8.292-.139-8.6-.285-1.027-1.623-1.027-1.908 0-.086.308-.139 3.568-.139 8.6v8.104h-2.325v-2.44c0-2.152-.028-2.467-.24-2.657-.449-.405-.916-.424-1.347-.054l-.395.34-.043 2.405-.043 2.406h-2.283l-.048-2.154c-.043-1.934-.08-2.217-.366-2.77-.203-.391-1.639-1.941-3.947-4.26l-3.629-3.643.155-.446c.25-.717.184-1.637-.173-2.404C18.541.334 16.8-.372 15.251.196Zm1.614 1.992c.734.39.863 1.222.28 1.805-.453.453-1.006.466-1.505.037-.993-.855.072-2.456 1.225-1.842Zm27.364 2.165c.41.156.742.827.649 1.315-.085.441-.654.874-1.15.874-.554 0-1.068-.544-1.068-1.13 0-.494.181-.8.615-1.037.344-.188.508-.192.954-.022ZM67.642 15.65c.962 1.077-.633 2.496-1.656 1.474-.412-.413-.465-.934-.14-1.397.453-.647 1.257-.681 1.796-.077Zm-49.516 5.418c-.458.394-.608 1.079-.616 2.81l-.006 1.266H8.513l-.239-.377c-.723-1.14-1.636-1.7-2.79-1.711-1.418-.013-2.57.786-3.089 2.143-.572 1.5.265 3.353 1.81 4 .568.239 1.836.237 2.41-.003.631-.264 1.385-.958 1.652-1.523l.227-.478h9.01v2.308l-2.405.043-2.404.043-.34.395c-.37.431-.351.899.054 1.349.19.21.505.239 2.655.239h2.44v2.325l-8.1.001c-5.03 0-8.288.053-8.597.139-1.026.285-1.026 1.624 0 1.909.309.086 3.567.138 8.597.139h8.1v2.326h-2.44c-2.15 0-2.465.028-2.655.24-.405.45-.424.917-.054 1.348l.34.395 2.405.043 2.404.043v2.284l-2.153.048c-1.933.043-2.216.08-2.769.366-.39.203-1.94 1.64-4.257 3.95l-3.642 3.63-.445-.156c-1.576-.55-3.34.299-4.024 1.934-.816 1.954.808 4.257 3.004 4.26a3.24 3.24 0 0 0 2.892-1.74c.295-.57.386-1.738.185-2.35l-.17-.515 3.468-3.484c1.907-1.917 3.666-3.571 3.908-3.676.303-.132.995-.192 2.221-.192h1.782v1.129c.002 2.327.46 3.668 1.66 4.87 1.2 1.201 2.541 1.658 4.868 1.66h1.128v8.996l-.376.239c-1.14.724-1.7 1.637-1.711 2.79-.013 1.42.786 2.573 2.142 3.092 1.5.573 3.351-.265 3.998-1.81.239-.57.237-1.838-.003-2.413-.264-.63-.957-1.384-1.522-1.652l-.477-.227v-9.014h2.306l.043 2.405.043 2.406.395.34c.43.37.898.351 1.348-.054.21-.19.24-.505.24-2.657V52.5h2.323l.001 8.104c0 5.032.053 8.292.139 8.6.285 1.027 1.623 1.027 1.908 0 .086-.308.138-3.568.139-8.6v-8.104h2.325v4.904l.36.283c.469.37.768.358 1.238-.046l.384-.33.043-2.406.043-2.405h2.282l.048 2.154c.044 1.934.081 2.217.367 2.77.203.391 1.639 1.941 3.947 4.259l3.629 3.644-.156.445c-.69 1.984.887 4.203 3.006 4.229 1.965.024 3.64-2.055 3.144-3.9-.486-1.805-2.116-2.81-3.894-2.4l-.691.16-3.471-3.458c-1.91-1.902-3.557-3.656-3.663-3.898-.131-.303-.19-.996-.19-2.223V52.5l1.264-.006c1.73-.008 2.415-.159 2.808-.616.237-.276.299-.468.234-.731-.185-.759.6-.716-13.754-.743l-13.315-.024-.549-.294a3.9 3.9 0 0 1-1.618-1.62l-.294-.548-.025-13.321c-.026-14.36.016-13.576-.742-13.762-.263-.064-.455-.003-.73.235Zm13.038 2.03c-1.928.314-3.297 1.847-3.297 3.69 0 .779-.025.844-.363.966-1.167.425-2.373 1.435-2.864 2.397-.683 1.34-.637 3.101.114 4.33l.398.654-.395.783c-1.097 2.173-.704 4.386 1.084 6.104.671.645.823.871.823 1.23 0 1.062 1.272 2.686 2.545 3.25 1.764.78 3.949.476 5.336-.742l.458-.402.458.402c1.387 1.218 3.572 1.522 5.335.742 1.236-.547 2.546-2.185 2.546-3.183 0-.278.122-.447.479-.668 1.383-.855 2.247-2.816 1.976-4.483-.13-.802-.589-1.823-.976-2.173-.316-.287-.316-.626 0-.913 1.014-.917 1.328-3.4.609-4.807-.552-1.08-1.754-2.134-2.84-2.49-.393-.128-.41-.168-.436-.994-.1-3.22-3.83-4.862-6.638-2.922l-.513.354-.513-.354c-1.026-.709-2.135-.966-3.326-.772ZM6.297 25.52c.6.762.086 1.811-.886 1.811-1.199 0-1.57-1.644-.474-2.105.554-.233 1.026-.131 1.36.294Zm26.872-.079c.24.142.5.426.574.63.075.204.223.617.327.917.134.38.303.585.562.676.598.21 1.081-.04 1.303-.676.105-.3.252-.713.328-.917.448-1.218 3.052-1.271 3.626-.074.466.974.322 1.316-.659 1.564-.99.25-1.414.576-1.468 1.132-.032.32.045.542.273.786.337.36.416.362 1.89.054 1.913-.4 3.859.965 3.859 2.706 0 .867-.163 1.156-1.206 2.146-.594.563-.876.934-.876 1.152 0 .219.282.59.876 1.153.481.457.95.978 1.04 1.159.291.578.204 1.58-.197 2.264l-.362.619-.781-.792c-.756-.766-1.806-1.393-2.334-1.393-.472 0-.977.525-.977 1.019 0 .498.15.662 1.068 1.169 1.503.83 1.73 2.437.497 3.515-1.152 1.008-3.172.803-4.08-.413-.265-.356-.292-.609-.355-3.35-.09-3.925-.017-5.091.356-5.59.401-.538.974-.841 1.914-1.014.443-.081.913-.244 1.045-.362.306-.274.313-1.094.013-1.426-.374-.414-1.801-.309-3.09.227-.2.083-.238.024-.238-.361 0-.659-.224-1.348-.508-1.564-.313-.237-.86-.237-1.172 0-.415.315-.508 1.006-.508 3.794v2.69l-.54-.262c-.297-.143-.685-.26-.863-.26-.484 0-.92.478-.92 1.01 0 .5.16.676 1.115 1.222 1.05.6 1.208.99 1.208 2.995 0 1.545-.029 1.75-.308 2.165-.897 1.331-3.02 1.547-4.194.427-.899-.859-.974-1.865-.216-2.894.638-.864.292-1.78-.672-1.78-.373 0-.552.102-.881.501-.36.437-.442.478-.636.317-.433-.36-.777-1.254-.784-2.038-.012-1.405.912-2.568 2.5-3.147.448-.164.876-.413.952-.555.223-.416.16-.938-.153-1.25-.243-.243-.396-.278-.947-.213a4.414 4.414 0 0 0-1.238.375c-.56.286-.588.287-.764.046-.535-.732-.478-1.844.145-2.785.415-.628 1.465-1.174 2.514-1.307.54-.069.786-.177.991-.439.349-.443.344-.541-.066-1.425-.335-.723-.34-.974-.033-1.598.166-.336.752-.716 1.33-.861.48-.12 1.206.013 1.72.316Zm31.972 17.294c.353.135.65.839.55 1.297-.186.845-1.374 1.13-1.945.465-.815-.948.195-2.223 1.395-1.762ZM4.02 52.859c.452.453.465 1.006.036 1.506-.854.993-2.455-.073-1.841-1.226.39-.734 1.221-.863 1.805-.28Zm22.992 10.917c.56.56.442 1.446-.238 1.798-.521.27-1.144.137-1.434-.306-.754-1.152.708-2.456 1.672-1.492Zm27.355 2.177c.993.855-.072 2.456-1.225 1.842-.734-.391-.863-1.222-.28-1.805.453-.453 1.006-.466 1.505-.037Z" fill="#6A6A6A"/></svg>