<svg width="70" height="52" fill="none" xmlns="http://www.w3.org/2000/svg"><path fill-rule="evenodd" clip-rule="evenodd" d="M2.562.586C1.601.916.943 1.466.425 2.37L0 3.116v45.012l.361.764c.508 1.075 1.232 1.812 2.288 2.328l.907.443h62.882l.77-.358c1.083-.504 1.826-1.223 2.345-2.271l.447-.9V3.115l-.425-.748c-.234-.411-.683-.945-1-1.186-1.2-.918 1.306-.854-33.634-.85C4.637.338 3.257.349 2.562.587ZM67.42 2.17c.367.213.699.55.868.878.27.526.274.805.272 20.427l-.003 19.893-.309.541a2.62 2.62 0 0 1-.854.848l-.545.306-22.226.003-22.226.002v-2.176h43.136l.384-.328.384-.328V23.472c0-18.26-.007-18.771-.26-19.05l-.262-.286H4.22l-.26.286c-.254.279-.261.79-.261 19.05v18.764l.384.328c.375.32.442.328 2.842.328h2.459v2.19l-3.265-.041L2.855 45l-.484-.366c-1.008-.764-.933.945-.933-21.18 0-19.563.005-19.881.273-20.403.163-.317.506-.669.856-.877l.584-.347 31.837-.002h31.837l.595.345Zm-2.557 21.276v17.95l-21.404-.007-21.404-.007-.411-.634c-.288-.445-.631-.748-1.146-1.013l-.735-.378h-3.77c-2.464 0-3.953.054-4.3.157-.627.187-1.548.932-1.837 1.488l-.205.394H5.137v-35.9h59.726v17.95ZM41.301 8.216c-.33.327-.342.522-.06.921.193.274.327.302 1.435.302 1.133 0 1.237-.023 1.434-.321.157-.238.178-.41.082-.662-.17-.444-.383-.512-1.6-.512-.834 0-1.066.048-1.29.272Zm6.336-.065a.703.703 0 0 0-.093 1.075c.188.186.868.213 5.384.213 3.837 0 5.21-.042 5.332-.163.09-.09.164-.32.163-.51-.005-.778.173-.751-5.37-.792-4.481-.033-5.146-.012-5.416.177Zm-26.146 2.357c-.686.318-1.205.97-1.424 1.784-.181.678-.087 1.752.202 2.302.436.828 1.541 1.512 2.432 1.506.93-.006 2.1-.812 2.427-1.672.253-.663.18-2.212-.13-2.818-.596-1.159-2.26-1.681-3.507-1.102Zm9.358 1.005c-.128.094-1.023 2.113-1.99 4.488-.967 2.374-1.786 4.345-1.82 4.379-.035.034-.447-.664-.917-1.55-.47-.887-.95-1.65-1.068-1.694-.117-.045-1.098-.081-2.179-.081-2.123 0-2.395.084-2.395.74 0 .567.333.683 2.174.755l1.722.069 1.058 2.04c.581 1.121 1.175 2.117 1.319 2.212.174.116.368.134.586.054.273-.1.647-.913 2.34-5.069l2.014-4.949 7.043-.068c5.693-.055 7.087-.104 7.27-.255.316-.26.293-.924-.038-1.1-.414-.22-14.819-.192-15.12.03Zm-7.345.636c1 .992.047 2.748-1.248 2.3-.834-.288-1.089-1.541-.463-2.28.483-.57 1.15-.578 1.71-.02Zm9.606 3.709c-.401.398-.18.836 1.029 2.041l1.193 1.19-1.468 1.479c-.806.812-1.467 1.582-1.467 1.71 0 .445.274.76.66.76.307 0 .95-.572 3.556-3.168 1.75-1.743 3.181-3.268 3.181-3.39 0-.122-.158-.345-.351-.496-.497-.388-.805-.232-2.029 1.03l-1.029 1.06-1.209-1.19c-1.224-1.204-1.666-1.424-2.066-1.026Zm-22.626 1.324c-.23.426-.18.533.637 1.383l.779.81-.71.714c-.723.726-.894 1.216-.546 1.562.348.346.842.175 1.589-.55l.735-.715.57.629c.781.858 1.111 1.017 1.54.738.54-.352.436-.827-.352-1.61-.377-.373-.685-.71-.685-.749 0-.038.308-.393.685-.788.715-.751.831-1.115.47-1.474-.376-.372-.773-.244-1.527.496l-.724.71-.723-.71c-.567-.556-.818-.71-1.16-.71-.29 0-.483.088-.578.264Zm31.729-.015c-.362.398-.272.672.478 1.46l.705.74-.705.74c-.388.406-.705.838-.705.96 0 .46.276.747.716.747.345 0 .565-.142 1.092-.708l.66-.709.718.69c.848.813 1.069.91 1.456.641.498-.346.37-.844-.42-1.639l-.71-.714.778-.81c.428-.446.779-.88.779-.965 0-.398-.3-.681-.72-.681-.342 0-.592.153-1.16.709l-.723.71-.723-.71c-.767-.752-1.146-.867-1.516-.46Zm10.116 5.865c-1.068.442-1.724 2.443-1.028 3.134.33.327.526.34.929.06.242-.168.304-.344.304-.857 0-.7.172-.972.61-.969.438.003.657.206.657.61 0 .286-.31.678-1.387 1.75-1.026 1.023-1.387 1.472-1.387 1.727 0 .607.201.67 2.124.67 1.927 0 2.123-.062 2.123-.68 0-.525-.246-.68-1.085-.68h-.756l.768-.781c.946-.964 1.073-1.204 1.072-2.031 0-1.21-.87-2.09-2.054-2.074-.339.005-.74.06-.89.121Zm-31.193 2.853a2.502 2.502 0 0 0-1.72 2.607c.186 1.92 2.636 2.87 4.061 1.574.435-.395.831-1.275.835-1.851.004-.68-.499-1.607-1.08-1.989-.555-.365-1.525-.522-2.096-.34Zm3.012 4.596c-3.435 3.405-4.764 4.808-4.764 5.028 0 .366.567.775.919.664.136-.043 2.328-2.146 4.87-4.673 4.916-4.889 5.03-5.035 4.317-5.53-.167-.117-.366-.212-.44-.212-.076 0-2.281 2.125-4.902 4.723Zm20.099-4.526c-1.17.426-2.136 2.003-1.7 2.776a.72.72 0 0 0 1.357-.353c0-.183.178-.506.4-.727.39-.386.44-.397 1.774-.397 1.253 0 1.406.028 1.757.328.326.278.384.431.384 1.01 0 .678-.009.692-1.267 1.966-1.337 1.354-1.515 1.735-1.017 2.182.138.124.407.225.597.225.893 0 1.866 1.21 1.696 2.108-.154.814-.59 1.02-2.161 1.02-1.323 0-1.374-.012-1.763-.398-.221-.22-.4-.544-.4-.727 0-.774-1.008-1.03-1.34-.34-.402.835.5 2.315 1.683 2.764.465.176.932.216 2.08.177 1.678-.058 2.115-.229 2.833-1.11.36-.442.429-.654.474-1.456.066-1.153-.257-1.917-1.134-2.683l-.586-.513.735-.815c.886-.982 1.054-1.436.985-2.655-.045-.795-.115-1.008-.474-1.45-.728-.893-1.151-1.055-2.859-1.096-1.062-.025-1.668.023-2.054.164Zm-21.713 1.57c.363.361.362 1.103-.002 1.43-.631.568-1.642.136-1.642-.702 0-.572.41-1 .96-1 .228 0 .532.122.684.273Zm12.304 2.517c-.117.254-.117.425 0 .68l.156.34h4.121l.157-.34c.116-.255.116-.426 0-.68l-.157-.34h-4.12l-.157.34Zm-8.331 1.444c-.438.172-1.065.762-1.314 1.234-.245.467-.248 1.482-.006 2.058.398.946 1.557 1.548 2.663 1.384.497-.074.763-.22 1.208-.662.958-.951 1.067-2.18.29-3.263-.528-.738-1.934-1.11-2.841-.751ZM28.15 33.1c.15.15.274.428.274.618 0 .448-.574 1.014-1.028 1.014-.415 0-1.027-.553-1.027-.927 0-.143.128-.421.284-.618.356-.45 1.089-.492 1.497-.087Zm6.802-.023c-.302.33-.286.644.047.975.245.244.457.272 2.024.272 1.91 0 2.36-.14 2.36-.735 0-.65-.345-.76-2.353-.76-1.62 0-1.88.03-2.078.248Zm-15.188 7.909c.853.384 1.119 1.037 1.122 2.755l.003 1.326H10.868l.045-1.621c.043-1.509.07-1.647.388-1.99.64-.688.902-.73 4.52-.732 3.036-.002 3.413.023 3.944.262ZM35 46.496h32.26l.665-.372.665-.372-.049 1.13c-.041.975-.105 1.224-.462 1.797a3.53 3.53 0 0 1-1.086 1.077l-.67.412H3.677l-.67-.412A3.531 3.531 0 0 1 1.92 48.68c-.357-.573-.42-.822-.462-1.797l-.049-1.13.665.372.665.372H35Z" fill="#fff"/></svg>