<svg width="70" height="70" fill="none" xmlns="http://www.w3.org/2000/svg"><path fill-rule="evenodd" clip-rule="evenodd" d="M14.708.273c-.28.15-.71.52-.954.822l-.445.55-.046 2.553-.046 2.553-4.66.044-4.66.045-.766.404c-1.003.529-1.68 1.135-2.222 1.99C-.051 10.747 0 9.43 0 32.077c0 20.157.005 20.568.294 21.485.526 1.669 1.645 2.847 3.36 3.541l.83.336 10.846.044c5.965.024 10.847.09 10.849.147.001.056-.207 1.371-.462 2.921l-.465 2.819-1.424.05c-1.25.043-1.497.098-2.016.44-.867.576-1.136 1.248-1.136 2.845 0 1.598.269 2.27 1.137 2.845l.591.391 12.364.041c13.74.046 13.227.08 13.992-.924.767-1.006.805-3.59.068-4.625-.509-.715-1.386-1.037-2.823-1.037h-1.254l-.467-2.832c-.257-1.557-.466-2.877-.464-2.934.001-.057 4.883-.123 10.848-.147l10.846-.044.83-.336c1.716-.694 2.834-1.873 3.36-3.54.276-.875.295-1.34.295-7.152V39.2h-2.24c0 .468.034 1.164.034 5.609v4.613h-3.676V32.04c0-17.322-.001-17.386-.307-18.018-.169-.349-.516-.783-.772-.966-.45-.32-.593-.333-4.252-.375-2.083-.024-3.788-.09-3.788-.147-.009-.606-1.66-9.249-1.83-9.577-.336-.65-1.16-1.217-1.883-1.294-.752-.081-5.347.725-5.97 1.048-1.005.52-1.477 1.69-1.212 3.009.088.441.16.857.16.925 0 .067-1.513.122-3.362.122h-3.364l-.074-.664a3.324 3.324 0 0 0-.448-1.228c-.653-.987-.943-1.05-4.853-1.05H28.71l-.055-1.092c-.048-.952-.112-1.163-.498-1.64C27.255-.02 27.392 0 20.956 0c-5.31 0-5.778.02-6.248.273ZM26.437 6.14l.039 3.861H15.442v-3.8c0-2.09.044-3.844.1-3.9.054-.054 2.52-.082 5.477-.06l5.378.038.04 3.861Zm25.432 1.214c.34 1.9.606 3.585.589 3.743-.028.253-.323.338-2.438.706-1.324.23-2.441.385-2.483.344-.124-.124-1.335-7.188-1.264-7.373.068-.179 3.98-.944 4.609-.902.36.024.377.082.987 3.482ZM35.258 27.763l.037 21.66h-6.619V27.824c0-11.88.046-21.644.102-21.699.055-.055 1.527-.083 3.272-.061l3.17.04.038 21.658Zm20.488-20.61c-.397.505-.385.828.05 1.333l.355.413 4.78.074 4.78.073.63.444c.394.277.786.74 1.042 1.23l.411.787V24.48c-.034 12.9-.034 12.824-.034 14.72H70V24.478c0-12.575-.01-13.003-.295-13.909-.527-1.67-1.683-2.888-3.329-3.504-.743-.278-1.133-.299-5.562-.299h-4.763l-.305.388Zm-42.51 22.044v20.225H8.088l.037-17.246.037-17.246 1.618-.092c.89-.05 1.632-.1 1.649-.11.017-.01.165-.164.33-.34.387-.416.383-1.006-.01-1.427-.297-.32-.39-.33-2.316-.285-2.31.054-2.696.215-3.243 1.345-.306.632-.307.686-.307 18.725 0 17.876.003 18.096.293 18.407.162.173.51.355.772.403.264.048 3.545.068 7.293.043l9.055-.005v-2.172h-7.854v-7.795H26.47v7.795h-3.175v2.172h22.446l22.09.038-.073.652c-.097.858-.727 1.909-1.42 2.367-.306.203-.948.432-1.426.51-1.189.196-58.648.194-59.839-.001-1.158-.19-1.93-.738-2.457-1.749l-.41-.786V32.118c0-18.08.026-20.571.225-21.046.351-.843.882-1.446 1.57-1.786.6-.298.842-.313 4.932-.313h4.302v20.224Zm31.47-20.114c0 .06.198 1.202.439 2.537.322 1.783.44 2.886.441 4.155l.002 1.729H37.493l.04-2.317.04-2.317 2.868-.084c1.578-.047 2.882-.097 2.899-.11.357-.295.63-.752.63-1.056 0-.212-.134-.53-.3-.707-.288-.311-.404-.322-3.234-.322H37.5V8.973h3.603c1.982 0 3.603.05 3.603.11Zm-18.235 4.229v1.103H15.442v-2.206H26.47v1.103Zm26.604.993c.702 3.516 4.257 24.31 4.17 24.39-.2.181-4.767.91-4.882.779-.153-.173-4.49-24.892-4.386-24.997.07-.07 4.26-.887 4.77-.93.096-.008.242.331.328.758Zm8.8 17.871.038 17.246h-.452c-.388 0-.438-.042-.356-.301.053-.166.094-.58.092-.92-.002-.34-1.298-7.944-2.88-16.899a4745.518 4745.518 0 0 1-2.876-16.367c0-.046 1.44-.067 3.199-.045l3.198.04.038 17.246Zm-35.404-6.362v9.194H15.442V16.62H26.47v9.193Zm19.117-5v1.102H37.5V19.71h8.088v1.103Zm-14.405-.488c-.294.315-.3.48-.3 7.327 0 6.846.006 7.012.3 7.327.403.432 1.203.432 1.606 0 .293-.315.3-.48.3-7.327 0-6.846-.007-7.012-.3-7.327-.196-.21-.475-.322-.803-.322-.329 0-.608.112-.803.322Zm14.405 10.71v6.913H37.5V24.123h8.088v6.913Zm6.17 18.203c.005.138-.485.183-1.978.183h-1.986l.013-11.215.014-11.216 1.965 11.032c1.081 6.067 1.968 11.114 1.972 11.215ZM26.471 38.317v1.103H15.442v-2.206H26.47v1.103Zm19.117 2.942v1.103H37.5v-2.206h8.088v1.103ZM57.795 41c.001.061.266 1.598.589 3.415.668 3.764.692 4.062.329 4.157-1.088.284-4.465.744-4.585.624-.136-.136-1.334-6.52-1.334-7.11 0-.246.2-.322 1.434-.54.789-.14 1.864-.339 2.39-.441 1.216-.238 1.176-.235 1.177-.105Zm-12.207 5.994v2.427H37.5v-4.854h8.088v2.427Zm-3.62 13.055c.227 1.395.447 2.719.49 2.941l.079.405H32.76v2.124H47.04v2.215H23.015v-2.06l3.75-.08c2.063-.043 5.995-.075 5.995-.075v-2.124h-5.297l.079-.405c.043-.222.264-1.546.49-2.941l.413-2.538h13.11l.413 2.538Z" fill="#6A6A6A"/></svg>