<svg width="52" height="70" fill="none" xmlns="http://www.w3.org/2000/svg"><path fill-rule="evenodd" clip-rule="evenodd" d="M32.957 1.028c.162 2.105-.427 4.822-1.488 6.867-.665 1.28-2.063 2.672-4.3 4.28-5.376 3.862-6.974 5.242-8.436 7.285-1.59 2.223-2.207 3.786-2.207 5.591 0 2.564 1.362 5.472 4.068 8.686.93 1.106 3.21 3.322 3.694 3.593.104.058-.079-.47-.407-1.175-1.915-4.113-3.215-8.956-3.07-11.442.047-.822.147-1.209.462-1.793.492-.911 2.246-2.652 4.66-4.624 5.547-4.532 7.279-6.48 8.272-9.306.33-.94.371-1.25.375-2.9.004-2.182-.186-3.029-1.092-4.858L32.878 0l.08 1.028Zm4.134 14.566c-3.842 1.736-6.834 3.636-8.84 5.616-1.087 1.072-1.49 1.58-1.854 2.329-.444.916-.464 1.024-.456 2.463.016 2.538.716 4.38 2.603 6.843 1.54 2.01 1.626 2.212 1.54 3.62a8.019 8.019 0 0 1-.49 2.33c-.23.638-.396 1.181-.37 1.207.092.092 2.04-1.832 2.636-2.603 1.217-1.575 1.787-3.376 1.545-4.88-.168-1.043-.632-2.094-1.59-3.592-1.354-2.119-1.695-2.9-1.691-3.883.004-.939.373-1.96 1.09-3.014.689-1.01 3.383-3.622 5.566-5.394a321.832 321.832 0 0 0 2.053-1.674c.274-.238-.174-.076-1.742.633Zm8.615 21.922c-1.108.17-3.502.964-3.502 1.162 0 .066.244.12.54.12 1.4 0 3.71.775 4.633 1.555.587.495 1.145 1.643 1.138 2.338-.021 1.953-2.375 4.798-6.502 7.859-.52.386-.915.702-.876.702.33 0 3.207-.966 4.343-1.457 2.133-.923 3.264-1.642 4.513-2.866 2.025-1.987 2.39-3.775 1.317-6.448-.73-1.814-2.203-2.862-4.18-2.971-.557-.031-1.197-.028-1.424.006ZM14.304 38.53c-2.155.136-3.752.364-5.385.768-2.638.654-3.538 1.494-3.01 2.809.522 1.3 3.068 2.278 7.253 2.787 3.9.474 11.321.402 15.242-.147 4.441-.622 8.861-2.01 10.865-3.413.529-.37.53-.373.12-.294-4.963.946-8.662 1.277-15.791 1.41-6.034.114-11.312-.224-12.52-.8-1.292-.618.539-1.825 4.212-2.778.793-.206 1.468-.399 1.5-.429.066-.063-.294-.05-2.486.087Zm-.936 8.465c-1.59.512-2.61 1.243-2.61 1.872 0 .965 1.897 2.002 4.732 2.585 4.022.828 8.584.785 14.836-.139 1.653-.244 6.754-1.234 7.19-1.395.283-.104.195-.197-.967-1.008a64.067 64.067 0 0 0-1.439-.986c-.088-.052-.582.004-1.098.123-4.048.94-10.122 1.537-13.847 1.362-5.848-.273-7.78-.963-6.37-2.276.234-.218.404-.393.377-.39a24.53 24.53 0 0 0-.804.252Zm1.612 7.345c-1.495.361-2.161.928-2.161 1.838 0 2.035 4.02 3.34 10.848 3.521 3.187.084 5.24-.07 7.827-.589 1.612-.323 5.017-1.35 5.141-1.55.031-.05-.741-.574-1.716-1.164-1.62-.981-1.818-1.067-2.29-.986-5.059.867-5.746.946-8.207.943-3.57-.005-7.591-.506-8.274-1.033-.218-.168-.222-.814-.006-1.03.218-.217-.116-.202-1.162.05Zm-6.418 4.943c-2.769.201-6.153.843-7.187 1.362-1.889.95-1.652 2.618.527 3.707 1.971.986 5.887 1.628 11.977 1.964 3.802.21 14.523.091 17.477-.194 7.176-.693 12.536-1.874 15.393-3.392 1.493-.793 1.938-1.65 1.34-2.582l-.307-.479-.085.484c-.046.266-.131.56-.189.652-.31.5-2.81 1.297-6.059 1.933-9.436 1.846-21.644 2.142-31.445.762-3.29-.463-5.704-1.195-5.814-1.764-.124-.64 1.335-1.393 4.028-2.08 1.707-.434 1.745-.475.344-.373ZM50.58 63.99c-.685.586-3.814 2.092-5.38 2.59-2.992.95-5.334 1.372-9.245 1.669-2.469.187-20.024.246-23.48.08-1.7-.083-1.75-.078-1.03.101C14.56 69.208 22.948 70 28.08 70c6.127.001 13.663-.795 17.07-1.803 2.696-.798 5.042-2.371 5.824-3.905.45-.882.363-.949-.393-.301Z" fill="#fff"/></svg>