<svg width="53" height="70" fill="none" xmlns="http://www.w3.org/2000/svg"><path fill-rule="evenodd" clip-rule="evenodd" d="M33.098 1.028c.162 2.105-.428 4.822-1.489 6.867-.665 1.28-2.062 2.672-4.3 4.28-5.375 3.862-6.973 5.242-8.435 7.285-1.59 2.223-2.207 3.786-2.207 5.591 0 2.564 1.362 5.472 4.067 8.686.931 1.106 3.21 3.322 3.695 3.593.104.058-.08-.47-.407-1.175-1.916-4.113-3.215-8.956-3.07-11.442.047-.822.147-1.209.462-1.793.491-.911 2.246-2.652 4.659-4.624 5.548-4.532 7.28-6.48 8.273-9.306.33-.94.37-1.25.374-2.9.005-2.182-.185-3.029-1.091-4.858L33.019 0l.079 1.028Zm4.133 14.566c-3.841 1.736-6.834 3.636-8.84 5.616-1.086 1.072-1.49 1.58-1.853 2.329-.445.916-.465 1.024-.456 2.463.015 2.538.715 4.38 2.603 6.843 1.54 2.01 1.626 2.212 1.54 3.62a8.018 8.018 0 0 1-.49 2.33c-.23.638-.397 1.182-.37 1.207.092.092 2.04-1.832 2.636-2.603 1.216-1.575 1.787-3.376 1.545-4.879-.168-1.045-.633-2.095-1.59-3.593-1.355-2.119-1.695-2.9-1.691-3.883.003-.939.372-1.96 1.09-3.014.689-1.01 3.383-3.622 5.566-5.394a321.832 321.832 0 0 0 2.053-1.674c.274-.238-.174-.076-1.743.633Zm8.616 21.922c-1.109.17-3.502.964-3.502 1.162 0 .066.243.12.54.12 1.4 0 3.71.775 4.633 1.555.587.495 1.145 1.643 1.138 2.338-.021 1.953-2.375 4.798-6.502 7.859-.52.386-.915.702-.876.702.33 0 3.207-.965 4.342-1.457 2.133-.923 3.265-1.642 4.513-2.866 2.026-1.987 2.391-3.775 1.317-6.448-.729-1.814-2.202-2.862-4.18-2.971-.556-.031-1.197-.028-1.423.006ZM14.445 38.53c-2.156.136-3.753.364-5.385.768-2.638.654-3.538 1.494-3.01 2.809.522 1.3 3.067 2.278 7.253 2.787 3.9.474 11.32.402 15.242-.147 4.44-.622 8.86-2.01 10.864-3.413.53-.37.53-.373.121-.294-4.964.946-8.662 1.277-15.791 1.41-6.034.114-11.313-.224-12.52-.8-1.292-.618.538-1.825 4.212-2.778.793-.206 1.468-.399 1.499-.429.066-.063-.293-.05-2.485.087Zm-.937 8.465c-1.59.512-2.608 1.243-2.608 1.872 0 .965 1.896 2.002 4.73 2.585 4.022.828 8.584.785 14.837-.139 1.653-.244 6.754-1.234 7.19-1.395.283-.104.194-.197-.967-1.008a64.595 64.595 0 0 0-1.44-.986c-.087-.052-.581.004-1.098.124-4.047.938-10.121 1.536-13.846 1.361-5.849-.273-7.78-.963-6.371-2.276.234-.218.404-.393.378-.39a24.76 24.76 0 0 0-.805.252Zm1.613 7.345c-1.495.361-2.162.928-2.162 1.838 0 2.035 4.02 3.34 10.848 3.521 3.187.085 5.24-.07 7.827-.589 1.613-.323 5.018-1.35 5.142-1.55.031-.05-.742-.574-1.717-1.164-1.62-.981-1.817-1.067-2.29-.986-5.058.867-5.745.946-8.206.943-3.571-.005-7.591-.506-8.274-1.033-.218-.168-.223-.814-.007-1.03.218-.217-.115-.202-1.161.05Zm-6.419 4.943c-2.768.201-6.153.843-7.186 1.363-1.89.949-1.652 2.617.527 3.706 1.971.986 5.887 1.628 11.976 1.964 3.802.21 14.524.091 17.478-.194 7.176-.693 12.536-1.874 15.392-3.392 1.494-.793 1.939-1.65 1.34-2.582l-.307-.479-.084.484c-.047.266-.132.56-.19.652-.31.5-2.809 1.297-6.058 1.933-9.436 1.846-21.644 2.142-31.446.762-3.29-.463-5.704-1.195-5.814-1.764-.123-.64 1.335-1.393 4.03-2.08 1.706-.434 1.743-.475.342-.373Zm42.02 4.709c-.685.586-3.814 2.092-5.38 2.59-2.992.95-5.334 1.372-9.245 1.669-2.47.187-20.025.247-23.481.08-1.7-.083-1.749-.078-1.03.101 3.115.777 11.504 1.568 16.635 1.57 6.126 0 13.663-.796 17.07-1.804 2.695-.798 5.041-2.371 5.823-3.905.45-.882.364-.949-.393-.301Z" fill="#6A6A6A"/></svg>