<svg width="64" height="70" fill="none" xmlns="http://www.w3.org/2000/svg"><path fill-rule="evenodd" clip-rule="evenodd" d="M28.711.127c-2.532.419-6.402 1.53-7.827 2.248-1.213.611-1.826 1.667-1.74 2.996.045.691.227 1.181 1.11 3 .643 1.322 1.057 2.345 1.057 2.61 0 .524-.184.702-1.842 1.788-1.384.906-3.236 2.422-4.256 3.483-.801.834-1.159 1.01-1.662.818-.199-.075-1.184-.784-2.19-1.576-1.006-.791-2.059-1.535-2.34-1.652-.797-.333-2.189-.207-2.897.26-1.305.863-3.84 5.465-5.234 9.499-.788 2.282-.712 3.33.318 4.402.641.668.993.81 3.29 1.334 2.746.626 2.942.697 3.17 1.137.156.3.166.585.054 1.46-.137 1.07-.065 6.066.101 7.052.067.394.02.563-.237.853-.274.309-.673.443-2.702.91-1.31.303-2.636.69-2.947.86-.713.393-1.41 1.414-1.536 2.254-.071.476-.02.897.202 1.65C1.732 49.344 4.751 55 6.206 56.005c.461.32.77.417 1.46.46.48.031 1.093-.016 1.36-.104.268-.088 1.338-.841 2.378-1.674 1.04-.832 2.025-1.575 2.189-1.651.48-.222.88-.032 1.936.918 1.132 1.018 1.58 1.135 2.157.56.596-.596.438-.98-.915-2.226-1.075-.99-1.555-1.26-2.422-1.361-1.136-.134-1.64.11-3.869 1.873-2.79 2.208-2.885 2.206-4.315-.072-1.118-1.782-2.566-4.807-3.226-6.74-.502-1.472-.552-1.726-.41-2.07.224-.538.45-.629 2.954-1.195 2.496-.564 2.999-.778 3.67-1.56.724-.846.843-1.453.642-3.275-.116-1.048-.137-2.289-.066-3.95.057-1.333.102-2.736.1-3.12-.003-1.159-.746-2.26-1.828-2.712-.274-.114-1.472-.425-2.663-.692-2.322-.52-2.748-.703-2.884-1.243-.225-.898 1.506-5.174 3.375-8.332.98-1.657 1.421-2.13 1.988-2.13.48 0 .694.141 3.01 1.99 1.613 1.288 2.002 1.478 3.016 1.478 1.068 0 1.513-.239 2.883-1.546a31.244 31.244 0 0 1 4.582-3.625c1.623-1.053 2.059-1.711 2.059-3.111 0-.818-.073-1.024-1.097-3.107-.603-1.227-1.096-2.403-1.096-2.614 0-.617.394-.926 1.85-1.448 2.327-.835 6.711-1.848 7.063-1.631.081.05.132 2.576.132 6.637v6.556l-.583.145c-2.72.681-5.243 1.807-7.263 3.241-.619.44-1.712 1.384-2.43 2.1-2.818 2.81-4.632 6.196-5.498 10.262-.436 2.049-.437 5.474-.001 7.527.87 4.1 2.648 7.422 5.495 10.266 2.605 2.602 5.828 4.428 9.286 5.262l.994.24v6.752c0 4.186-.05 6.782-.133 6.833-.342.21-4.746-.797-6.92-1.584-1.329-.481-1.855-.879-1.855-1.403 0-.183.534-1.464 1.186-2.846 1.065-2.256 1.187-2.597 1.2-3.344.018-1.171-.355-1.684-2.033-2.788-1.477-.973-1.999-1.094-2.43-.562-.262.323-.33.907-.14 1.206.06.094.626.525 1.256.958.63.432 1.202.878 1.27.991.088.146-.223.956-1.07 2.79-.695 1.502-1.223 2.834-1.263 3.181-.15 1.336.664 2.703 1.949 3.269 1.923.847 6.078 1.953 8.243 2.194 1.032.114 1.899-.215 2.397-.913.292-.41.335-.636.376-2.002l.046-1.54h9.916l.235.663c.34.957 1.186 1.847 2.255 2.372.76.374 1.059.445 1.877.447 1.467.004 2.303-.338 3.326-1.358.733-.732.885-.976 1.148-1.839.234-.772.282-1.168.211-1.767a4.821 4.821 0 0 0-2.437-3.658c-.668-.37-.837-.402-2.097-.402-1.177 0-1.467.047-2.052.335-1.129.554-2.005 1.599-2.45 2.917-.076.225-.405.239-4.984.205l-4.903-.036-.037-2.77-.037-2.772H54.56l.313.754c.402.968 1.317 1.904 2.31 2.365.64.296.988.364 1.884.367.97.003 1.207-.05 2.016-.447 1.574-.774 2.432-2.079 2.538-3.86.05-.833.003-1.18-.247-1.84-.372-.986-1.29-2.012-2.252-2.519-.61-.322-.84-.363-2.058-.363-1.262 0-1.428.032-2.103.406-.936.517-1.871 1.555-2.177 2.415l-.239.67-11.102-.034-11.101-.035-.075-1.045c-.12-1.704-.523-2.062-3.133-2.782-5.713-1.578-10.352-6.04-12.118-11.655-1.168-3.713-1.12-7.822.134-11.305 1.614-4.487 4.818-8.085 9.002-10.11 1.023-.496 2.843-1.127 4.3-1.491.66-.165 1.329-.678 1.62-1.241.125-.24.201-.781.201-1.42v-1.034l11.134.002 11.135.003.32.74c.448 1.033 1.09 1.727 2.102 2.275.806.437.953.47 2.1.467 1.01-.002 1.35-.06 1.88-.32.973-.48 1.827-1.304 2.258-2.18.335-.68.384-.94.384-2.014 0-1.072-.05-1.332-.383-2.012-.485-.986-1.511-1.918-2.535-2.304-.624-.235-.99-.283-1.81-.236-1.233.07-2.074.412-2.91 1.182-.537.493-1.338 1.81-1.338 2.2 0 .102-3.302.135-11.134.11l-11.134-.034-.037-2.772-.037-2.77h9.856l.368.818c.43.955 1.399 1.93 2.359 2.372.512.236.902.297 1.88.297 1.082 0 1.322-.047 1.957-.38.968-.508 1.761-1.326 2.198-2.267.293-.63.36-.974.36-1.867 0-.894-.067-1.237-.36-1.868-.437-.94-1.23-1.759-2.198-2.266-.635-.334-.875-.38-1.957-.38-.978-.001-1.368.06-1.88.296-.96.442-1.93 1.417-2.358 2.372l-.368.82H32.3l-.048-1.267C32.197 1.19 31.92.655 30.986.231c-.607-.275-1.102-.298-2.275-.104ZM47.663 2.62c.783.326 1.602 1.527 1.602 2.347 0 .82-.82 2.02-1.602 2.347-1.01.422-2.313.053-3.003-.85-.35-.46-.395-.629-.395-1.497 0-.869.045-1.038.395-1.497.69-.904 1.992-1.272 3.003-.85Zm12.51 7.738c1.884.855 1.877 3.617-.012 4.53-1.758.85-3.785-.54-3.6-2.468.17-1.77 1.98-2.802 3.611-2.062ZM30.697 23.93c-3.964.57-7.496 3.406-8.902 7.148-2.093 5.567.633 11.92 6.1 14.214 2.135.896 1.697.868 13.697.868 12.302 0 11.768.04 14.183-1.087 3.923-1.83 6.372-5.7 6.372-10.067 0-4.409-2.455-8.26-6.44-10.104-2.08-.963-2.45-.981-7.329-1.05H44.6v1.962h3.5c4.986.063 5.17.16 7.06 1.086 1.39.68 3.16 2.424 3.884 3.823a9.144 9.144 0 0 1-6.86 13.313c-1.305.188-19.722.182-21.086-.008-2.087-.29-3.769-1.122-5.252-2.6-1.08-1.075-1.81-2.27-2.295-3.753-.301-.922-.358-1.343-.358-2.669s.057-1.746.358-2.669c.957-2.928 3.097-5.068 6.052-6.05 1.088-.363.856-.42 5.617-.473h9.38v-1.961h-4.215l-4.432-.02c-2.437-.012-4.801.032-5.254.097Zm-1.925 5.801-.336.336v9.605l.336.336c.33.328.383.336 2.542.336 2.158 0 2.212-.008 2.541-.337.432-.43.44-1.024.02-1.419-.287-.269-.465-.297-1.85-.297h-1.533v-2.327h1.169c1.827 0 2.457-.415 2.198-1.446-.129-.513-.809-.744-2.198-.744h-1.17v-2.326h1.553c1.445 0 1.572-.022 1.85-.317.395-.42.38-.982-.039-1.4-.329-.329-.383-.336-2.541-.336-2.159 0-2.212.007-2.542.336Zm9.32 0-.337.336v9.605l.336.336c.43.428 1.026.439 1.416.024.259-.275.298-.497.333-1.869l.039-1.557 1.576 1.803c.866.992 1.714 1.84 1.884 1.884.502.13.974-.063 1.196-.491.292-.564.117-.934-1.067-2.255-1.49-1.662-1.428-1.538-.884-1.764 1.81-.756 2.597-2.902 1.68-4.583-.767-1.408-1.676-1.805-4.135-1.805-1.624 0-1.717.016-2.038.336Zm10.775-.074c-.28.279-.286.398-.286 5.207 0 4.886.002 4.923.3 5.2.376.35.943.358 1.363.018.302-.244.327-.37.37-1.9l.044-1.637 1.12-.061c1.29-.07 2.131-.388 2.805-1.06 1.342-1.341 1.436-3.356.223-4.771-.874-1.02-1.336-1.177-3.644-1.233-1.89-.047-2.025-.032-2.295.237Zm-6.754 2.132c.486.408.596.854.353 1.432-.228.54-.887.827-1.898.827h-.758v-2.6h.949c.811 0 1.008.05 1.354.34Zm10.805-.077c.63.383.832 1.086.504 1.755-.327.668-.978.991-1.998.992h-.788v-3.011h.925c.67 0 1.044.073 1.357.264Zm7.638 23.049c.731.556 1.087 1.338 1.013 2.225-.177 2.138-2.55 3.08-4.172 1.658-.874-.767-1.1-1.84-.61-2.904.465-1.014 1.24-1.46 2.432-1.4.667.033.943.12 1.337.42Zm-12.666 7.476c1.487.758 1.777 2.783.57 3.988-1.207 1.206-3.235.916-3.994-.57-.32-.628-.359-1.755-.077-2.293.21-.4.809-.996 1.245-1.236.452-.25 1.666-.19 2.256.111Z" fill="#fff"/></svg>