<svg width="70" height="70" fill="none" xmlns="http://www.w3.org/2000/svg"><path fill-rule="evenodd" clip-rule="evenodd" d="M32.234.035c-.28.033-1.143.129-1.916.212-5.358.579-11.397 2.77-15.924 5.779C1.056 14.889-3.649 30.583 2.978 44.098c3.821 7.793 11.019 13.933 19.769 16.864l1.68.564.074 3.497c.08 3.838.086 3.863 1.077 4.603.386.288.588.301 4.76.301 4.171 0 4.372-.013 4.758-.3.967-.722 1-.848 1.05-3.862l.045-2.755.612-.075c.336-.041 1.17-.115 1.851-.165 1.493-.107 4.131-.543 5.66-.935.613-.157 1.125-.272 1.138-.256.012.016 1.123 1.803 2.468 3.97 1.344 2.167 2.575 4.055 2.734 4.196.265.233.767.255 5.97.255h5.681l.358-.358c.206-.206.359-.528.359-.758 0-.27-1.172-2.275-3.587-6.14-1.972-3.156-3.564-5.794-3.538-5.862.026-.068.737-.641 1.58-1.274 11.915-8.949 15.84-24.082 9.549-36.817C62.078 8.777 51.958 1.858 39.895.244c-1.216-.163-6.77-.314-7.66-.209Zm7.806 2.6c3.82.563 7.201 1.598 10.506 3.214 3.577 1.75 6.354 3.728 9.007 6.416 4.508 4.568 7.313 10.353 7.982 16.465 1.049 9.56-3.443 19.147-11.863 25.323-.572.42-1.08.765-1.13.766-.193.007-1.64-2.534-1.474-2.589.484-.161 3.764-2.485 4.821-3.416 2.114-1.862 4.17-4.487 5.353-6.837.64-1.272 1.432-3.567 1.763-5.11.364-1.695.373-5.404.017-7.173-1.942-9.652-10.71-17.085-22.282-18.89-2.307-.36-7.304-.364-9.557-.009-3.502.552-6.274 1.425-9.339 2.94-6.96 3.44-11.656 9.198-13.016 15.959-.393 1.95-.354 5.486.083 7.458.792 3.58 2.4 6.7 4.964 9.631 1.755 2.006 4.933 4.434 7.48 5.715l1.146.576v2.99c0 1.645-.02 2.99-.046 2.99-.175 0-2.732-.94-3.748-1.378-4.589-1.98-9.132-5.394-12.151-9.13-2.91-3.6-4.991-8.062-5.82-12.477-.428-2.285-.467-6.679-.077-8.83 1.06-5.848 3.752-10.96 7.986-15.167 5.466-5.431 12.753-8.785 20.933-9.634 1.765-.183 6.657-.069 8.463.197Zm.824 10.311c9.338.956 17.11 5.89 20.47 12.995 3.234 6.84 1.734 14.383-4.003 20.127-1.626 1.629-2.579 2.373-4.624 3.614l-1.269.77-.846-.837c-.465-.46-.797-.877-.738-.926.06-.048.502-.205.984-.348 1.025-.306 2.827-1.176 3.822-1.848.386-.26 1.292-1.073 2.014-1.808 1.85-1.88 3.012-3.963 3.68-6.595.37-1.449.369-7.118 0-8.569-.682-2.687-1.88-4.8-3.818-6.742-1.53-1.533-3.178-2.61-5.003-3.27-2.417-.875-2.67-.89-14.663-.846-10.739.038-10.894.043-11.291.34a4.166 4.166 0 0 0-.704.704c-.299.4-.302.536-.374 15.572l-.073 15.17-1.166-.666c-1.677-.955-3.62-2.481-5.051-3.967-8.972-9.309-6.412-22.703 5.633-29.472 4.848-2.724 11.206-3.993 17.02-3.398Zm8.59 8.34c3.19.954 5.357 2.513 7.017 5.048.714 1.089 1.136 2.06 1.565 3.605.35 1.26.35 6.476 0 7.735-.43 1.545-.85 2.516-1.564 3.606-2.063 3.148-5.294 5.048-9.057 5.326-1.42.105-1.903.412-1.903 1.211 0 .513.191.721 1.744 1.897 1.192.903 2.507 2.271 3.437 3.576.614.862 8.973 14.197 8.973 14.315 0 .033-1.728.06-3.84.06h-3.841l-5.152-8.248c-5.615-8.99-5.892-9.357-7.559-10.011-.677-.266-1.209-.341-2.764-.39-1.907-.06-1.93-.056-2.298.313l-.373.372v17.964h-7.004V20.954l10.907.045c9.63.04 11.002.074 11.712.286Zm-15.257 7.041-.358.359v12.577l.358.358.358.358h5.302c4.29 0 5.466-.042 6.16-.223 3.747-.976 6.06-4.802 5.108-8.454a7.124 7.124 0 0 0-5.13-5.115c-.667-.174-1.909-.218-6.138-.218h-5.301l-.358.358Zm12.307 2.549c1.025.555 1.467 1.014 2.038 2.113.33.633.388.931.39 1.985.003 1.136-.038 1.318-.492 2.16-.55 1.021-1.004 1.46-2.11 2.044l-.745.393-4.706.046-4.705.046V30.286l4.706.045 4.705.046.92.499ZM38.06 51.462c.715.205 1.537.816 1.962 1.46l.369.557-.32.086c-.177.047-1.126.087-2.109.088l-1.787.002V51.32h.694c.382 0 .918.064 1.191.142Zm4.897 6.156c.767 1.219 1.061 1.806.943 1.88-.447.275-4.278.887-6.74 1.075l-.985.076v-4.66l1.787-.016c.983-.01 2.215-.061 2.736-.115.522-.053.992-.078 1.046-.054.053.023.599.84 1.212 1.814Z" fill="#fff"/></svg>