<svg width="70" height="68" fill="none" xmlns="http://www.w3.org/2000/svg"><path fill-rule="evenodd" clip-rule="evenodd" d="M6.631 1.526c-2.91.355-5.435.663-5.611.687-.257.034.575.749 4.143 3.565L9.628 9.3l5.31 1.436 5.309 1.436.036 7.888.037 7.888-.319.063c-1.462.29-9.211 2.471-9.739 2.742-1.455.747-2.639 2.093-3.123 3.551l-.252.758H0V37.2h6.908l.28.522c.505.936 1.674 1.616 2.777 1.616.322 0 4.798-1.11 5.68-1.409.107-.036-.365.491-1.049 1.172-3.316 3.3-5.714 7.358-6.898 11.67-.326 1.19-.669 3.137-.862 4.904l-.084.768H0V67.134h69.983V56.443h-6.75l-.093-.902c-.265-2.575-.843-5.113-1.62-7.116-2.578-6.64-7.747-12.015-14.465-15.045-1.617-.73-4.503-1.697-5.538-1.857-.33-.05-.6-.135-.6-.187 0-.051 3.127-.913 6.95-1.914 4.952-1.297 7.258-1.842 8.027-1.896 1.153-.08 2.513-.485 3.536-1.053.835-.464 2.055-1.638 2.581-2.484l.423-.681 2.312-.003c2.816-.003 3.237-.104 4.183-1 1.428-1.352 1.428-3.067 0-4.42-.946-.896-1.367-.996-4.183-1l-2.312-.002-.423-.683c-.583-.94-1.89-2.137-2.86-2.619-1.163-.578-2.061-.823-3.497-.956-1.034-.095-5.037-1.169-22.157-5.944C22.005 3.475 12.45.859 12.262.867c-.186.008-2.72.305-5.63.66Zm4.03 1.972c-.573 1.71-1.023 2.827-1.137 2.822-.142-.006-3.39-2.513-3.296-2.545.158-.054 3.655-.486 4.046-.5.39-.015.455.023.388.223ZM32.17 8.54c10.205 2.84 18.602 5.206 18.661 5.26.059.052-.15.273-.463.49-.652.45-1.727 1.728-2.159 2.565-.2.39-.361.548-.511.504-.12-.036-8.248-2.234-18.061-4.884-9.814-2.65-17.875-4.85-17.914-4.886-.039-.037.265-1.03.676-2.205.614-1.753.79-2.125.983-2.072L32.169 8.54Zm-8.304 4.612.968.273v13.296l-.907.229a20.28 20.28 0 0 0-1.129.31c-.2.072-.222-.63-.222-7.15 0-5.332.042-7.23.161-7.23.089 0 .597.122 1.129.272Zm13.495 3.633 10.058 2.709-.04.6-.04.6-10.09 2.703a5833.404 5833.404 0 0 1-10.123 2.707c-.019.003-.035-2.701-.035-6.009 0-3.307.048-6.014.106-6.016.058-.001 4.632 1.216 10.164 2.706Zm20.267-1.524c1.273.564 2.097 1.331 2.728 2.541.498.954.527 1.08.527 2.293s-.029 1.34-.527 2.293c-.634 1.217-1.451 1.974-2.763 2.563-.852.382-1.07.423-2.283.423-1.212 0-1.43-.04-2.283-.423-1.312-.589-2.129-1.346-2.763-2.563-.498-.953-.527-1.081-.527-2.286 0-1.156.042-1.36.446-2.169.567-1.133 1.374-1.963 2.427-2.495 1.112-.56 1.72-.688 3.017-.629.847.038 1.298.14 2.001.452Zm-3.447 1.802c-.692.207-1.873 1.365-2.086 2.046-.39 1.252-.115 2.251.882 3.196 1.428 1.352 3.238 1.352 4.666 0 1.379-1.306 1.42-2.967.108-4.35-.913-.961-2.233-1.291-3.57-.892Zm1.911 2.291c.7.663.204 1.81-.782 1.81-.58 0-1.129-.52-1.129-1.069 0-.55.549-1.069 1.129-1.069.275 0 .564.121.782.328Zm11.288 0c.218.207.346.481.346.741s-.128.535-.346.741c-.334.317-.414.328-2.293.328H63.14v-2.138h1.946c1.879 0 1.959.012 2.293.328Zm-19.17 3.982c.43.837 1.506 2.115 2.159 2.566.384.265.513.424.393.485-.098.05-3.83 1.055-8.292 2.232-6.26 1.653-8.386 2.163-9.312 2.23-3.935.291-7.51 1.226-11.005 2.879-1.082.511-2.377.907-6.716 2.053-2.957.78-5.47 1.42-5.584 1.42-.115 0-.356-.15-.535-.33-.283-.286-.316-.42-.243-1.003.18-1.44 1.17-2.77 2.471-3.32.363-.153 4.66-1.34 9.549-2.638a7207.404 7207.404 0 0 0 22.786-6.076c2.134-.574 3.915-1.049 3.958-1.055.043-.006.21.244.37.557ZM33.863 35.062V37.2h2.258v-4.295l.81.084c2.588.269 3.968.524 5.825 1.08 1.043.312 1.106.352.99.63-.068.163-.447 1.035-.841 1.938-.395.902-.718 1.66-.718 1.682 0 .023.45.213.998.422.841.32 1.018.35 1.125.188.07-.105.456-.959.86-1.896.402-.937.787-1.704.853-1.704.543 0 3.855 1.965 5.528 3.28l.969.76-1.602 1.522-1.602 1.522.81.766.808.766 1.607-1.517 1.606-1.517.803.917c1.383 1.579 3.463 4.722 3.463 5.232 0 .06-.889.46-1.975.888-1.087.428-1.976.832-1.976.899 0 .115.69 1.737.776 1.825.035.035 1.521-.526 3.623-1.366l.518-.208.362 1.034c.714 2.037 1.212 5.04 1.212 7.308v1.141h6.772v6.415h-2.258v-2.138H63.21v2.138H60.953V60.719h-2.258V64.996H56.438v-2.138H54.18v2.138H51.923V60.719h-2.258V64.996H47.408v-2.138H45.15v2.138h-2.258V60.719H40.636V64.996H38.378v-2.138H36.12v2.138H33.863V62.79l1.235-.004c1.084-.003 1.348-.055 2.176-.423 1.273-.566 2.122-1.338 2.725-2.48.272-.516.495-1.02.495-1.12 0-.152 1.157-.183 6.864-.183h6.865l-.084-1.703c-.171-3.471-1.136-6.398-3.028-9.188-2.812-4.146-7.384-7.073-12.563-8.04-1.74-.325-5.159-.324-6.983.002-1.317.236-1.404.236-1.899.014a3.696 3.696 0 0 0-2.4-.185c-.881.232-2.052 1.31-2.24 2.061-.112.45-.288.63-1.255 1.281-1.381.93-3.704 3.195-4.652 4.538-2.038 2.885-3.109 5.995-3.277 9.517l-.082 1.703h6.864c5.398 0 6.865.036 6.865.167 0 .404.873 1.86 1.467 2.447l.65.641v3.16h-2.258v-2.138H27.09v2.138H24.833V60.719h-2.258V64.996H20.318v-2.138H18.06v2.138H15.803V60.719h-2.258V64.996H11.288v-2.138H9.03v2.138H6.773V60.719H4.515V64.996H2.258V58.58h6.729l.085-1.904c.101-2.27.492-4.534 1.086-6.29.41-1.21.452-1.277.747-1.166.171.064 1.092.423 2.045.797.953.373 1.753.68 1.777.68.023 0 .224-.426.445-.946.338-.796.37-.965.199-1.065-.112-.066-1.013-.432-2.002-.814-.99-.382-1.8-.746-1.8-.81 0-.513 2.075-3.65 3.463-5.235l.804-.917 1.606 1.517 1.606 1.517.81-.766.808-.766-1.6-1.52-1.6-1.521.852-.672c.47-.37 1.28-.961 1.801-1.313 1.013-.685 3.554-2.058 3.809-2.058.084 0 .483.767.886 1.704.403.937.79 1.79.859 1.896.106.162.284.133 1.125-.188.549-.21.998-.404.998-.432 0-.045-.864-2.046-1.472-3.41l-.222-.497 1.376-.4a27.357 27.357 0 0 1 4.691-.93c1.916-.205 1.694-.466 1.694 1.99ZM28.92 41.78c.17.167 1.343 2.588 2.607 5.379l2.297 5.075-.447.15c-.246.084-.708.277-1.026.431l-.577.28-2.343-5.175c-1.288-2.846-2.342-5.312-2.342-5.48 0-.17.156-.455.346-.636.444-.42 1.073-.43 1.485-.024Zm9.739.08c3.179.688 5.928 2.134 8.266 4.349 2.8 2.65 4.336 5.671 4.917 9.666l.083.568H46.21c-4.737 0-5.716-.031-5.716-.182 0-.464-1.042-2.112-1.664-2.634-.581-.487-1.628-1.052-2.29-1.236-.205-.056-5.024-10.474-4.9-10.591.03-.029.495-.11 1.033-.18 1.45-.19 4.575-.064 5.987.24Zm-10.907 7.786 2.331 5.155-.333.82-.333.818-5.67.002-5.67.002.069-.5c.502-3.636 1.75-6.34 4.138-8.968.902-.993 2.807-2.582 3.019-2.52.065.02 1.167 2.356 2.449 5.191Zm8.28 4.822c1.213.339 2.345 1.809 2.345 3.044 0 1.656-1.638 3.207-3.387 3.207-1.748 0-3.386-1.55-3.386-3.207 0-.84.323-1.517 1.054-2.21.99-.94 2.055-1.203 3.374-.834ZM34.21 56.77c-.7.663-.204 1.81.782 1.81.275 0 .565-.12.783-.328.218-.206.346-.48.346-.74 0-.261-.128-.535-.346-.742a1.168 1.168 0 0 0-.783-.328c-.274 0-.564.122-.782.328Z" fill="#fff"/></svg>