<svg width="160" height="160" fill="none" xmlns="http://www.w3.org/2000/svg"><path fill-rule="evenodd" clip-rule="evenodd" d="M75.313.486c-4.622 1.001-8.291 3.042-11.72 6.518-2.862 2.903-4.499 5.513-5.698 9.087-.812 2.42-.842 2.77-.952 10.879-.125 9.243-.034 9.884 1.793 12.539 1.125 1.634 3.304 3.233 5.138 3.769 1.112.325 1.412.62 2.258 2.22.537 1.014 1.556 2.499 2.266 3.3.983 1.109 1.29 1.712 1.29 2.538v1.083l-6.918 2.595c-7.56 2.836-9.139 3.755-11.233 6.542-2.162 2.878-2.474 4.56-2.474 13.319v7.624h61.875v-7.624c0-8.732-.315-10.444-2.441-13.273-2.343-3.119-3.788-3.892-14.981-8.019l-3.204-1.181v-1.074c0-.816.311-1.426 1.29-2.53.71-.801 1.73-2.286 2.266-3.3.846-1.6 1.146-1.895 2.258-2.22 3.01-.88 5.928-3.956 6.693-7.056.232-.94.318-4.21.249-9.531l-.104-8.1-.977-2.738c-1.244-3.484-2.576-5.694-5.052-8.38-5.473-5.94-13.894-8.66-21.623-6.987Zm9.202 5.301c4.834 1.26 9.374 4.907 11.515 9.25 1.256 2.55 2.08 5.764 2.09 8.146l.005 1.467-1.364-.603c-.816-.362-2.668-.721-4.61-.896-4.786-.43-7.366-1.537-10.51-4.507L80 17.094l-1.64 1.55c-3.145 2.97-5.725 4.077-10.512 4.507-1.941.175-3.793.534-4.609.896l-1.364.603.005-1.467c.009-2.223.789-5.451 1.86-7.696 2.303-4.824 6.472-8.276 11.729-9.71 2.127-.58 6.799-.575 9.046.01ZM38.671 25.851l-1.794 1.793 2.884 2.896 2.883 2.895h-6.109c-7.472 0-8.793.296-10.953 2.457-2.547 2.546-2.457 1.505-2.457 28.382V87.81H28.438V40.282l.767-.767c.763-.764.792-.767 7.103-.767h6.336l-2.886 2.898-2.887 2.899 1.881 1.862 1.882 1.861 6.01-6.01 6.01-6.01-6.095-6.095-6.095-6.096-1.793 1.794Zm42.856-.721c1.877 1.263 4.486 2.293 7.01 2.768l1.819.343-.1 6.581c-.092 6.087-.153 6.69-.804 8.012-1.642 3.33-4.914 5.702-8.446 6.12-3.395.402-7.461-1.492-9.504-4.428-1.547-2.223-1.814-3.742-1.814-10.311v-5.982l1.796-.338c2.521-.475 5.127-1.51 6.872-2.73l1.535-1.073c.025-.018.761.45 1.636 1.038Zm-17.152 8.52v4.277l-.943-.903c-1.075-1.03-1.701-2.945-1.421-4.345.218-1.09 1.596-3.307 2.056-3.307.187 0 .308 1.675.308 4.278Zm33.128-2.24c.947 1.956.67 3.836-.8 5.415l-1.061 1.141-.009-4.308c-.008-4.138.015-4.295.587-3.99.327.176.904.96 1.283 1.742Zm10.935 4.657v2.68h6.832c6.44 0 6.881.038 7.657.648l.823.648V73.58l-2.898-2.887-2.899-2.886-1.861 1.88-1.86 1.88 5.928 5.935c3.26 3.264 6.071 5.934 6.246 5.934.176 0 2.987-2.67 6.247-5.934l5.928-5.934-1.861-1.88-1.861-1.881-2.888 2.876-2.888 2.876-.088-17.171c-.087-16.923-.098-17.19-.764-18.422-.797-1.473-2.329-2.98-3.856-3.793-.96-.51-2.002-.594-8.516-.684l-7.421-.104v2.682ZM79.137 53.97c1.625.099 3.317.018 4.179-.199.796-.2 1.505-.307 1.576-.236.147.147-4.656 8.318-4.892 8.322-.145.002-4.697-7.527-4.964-8.21-.073-.187.172-.216.625-.075.41.128 1.974.307 3.476.398Zm-5.406 7.714c1.385 2.302 2.519 4.243 2.519 4.312 0 .21-4.977 2.567-5.106 2.42-.17-.196-3.337-9.773-3.249-9.826.339-.204 2.653-1.039 2.945-1.063.204-.016 1.505 1.854 2.89 4.157Zm16.935-3.643c.842.299 1.479.686 1.416.86a735.66 735.66 0 0 0-1.61 4.846c-.822 2.492-1.55 4.593-1.615 4.669-.13.147-5.107-2.21-5.107-2.42 0-.267 5.048-8.499 5.212-8.499.095 0 .862.245 1.704.544ZM65.622 68.27l2.548 7.646 5.915-2.96L80 69.996l5.915 2.96 5.915 2.96 2.548-7.646c1.402-4.206 2.71-7.647 2.906-7.647.916 0 4.724 1.773 5.816 2.708.671.574 1.549 1.712 1.951 2.528.673 1.367.73 1.874.73 6.483v5H54.219l.006-5c.006-4.587.066-5.123.73-6.483.953-1.952 2.743-3.44 5.305-4.411 1.146-.435 2.248-.798 2.448-.808.204-.01 1.492 3.364 2.914 7.63Zm48.158 20.713c-.168.645-.584 2.274-.924 3.621-.34 1.347-.695 2.525-.788 2.618-.093.094-1.664-.714-3.49-1.795l-3.321-1.966-6.897 6.898-6.897 6.897 1.965 3.321c1.081 1.826 1.894 3.392 1.806 3.48-.088.088-1.794.593-3.79 1.123l-3.632.964v19.534l3.516.858c1.934.473 3.634.966 3.779 1.096.145.131-.594 1.687-1.64 3.458-1.048 1.771-1.904 3.299-1.904 3.396 0 .096 3.078 3.252 6.841 7.012l6.841 6.836 3.173-1.917c1.746-1.055 3.301-1.917 3.457-1.917.293 0 .357.195 1.562 4.766l.72 2.734h19.452l.898-3.516c.494-1.933 1.01-3.641 1.146-3.794.139-.156 1.722.58 3.594 1.672l3.344 1.951 6.867-6.867 6.867-6.867-1.954-3.342c-1.082-1.852-1.83-3.454-1.678-3.592.152-.138 1.858-.636 3.791-1.109l3.516-.858V114.13l-2.422-.64c-1.332-.352-3.02-.794-3.75-.983-.73-.19-1.328-.473-1.328-.63 0-.158.863-1.714 1.917-3.46l1.917-3.173-6.836-6.841c-3.76-3.763-6.916-6.842-7.012-6.842-.097 0-1.625.857-3.396 1.904s-3.327 1.785-3.457 1.64c-.131-.144-.624-1.844-1.096-3.778l-.859-3.516h-19.591l-.307 1.172ZM0 126.406V160h51.563V92.811H0v33.595Zm130.318-30.704c.386 1.59.807 3.008.937 3.152.13.143 1.294.72 2.586 1.283l2.351 1.021 2.604-1.517c1.433-.834 2.745-1.517 2.916-1.517.382 0 7.976 7.541 7.976 7.921 0 .15-.695 1.423-1.543 2.828l-1.543 2.554.996 2.544.996 2.544 2.968.743 2.969.742.085 5.83.085 5.829-1.178.307c-.649.169-2.001.517-3.006.773-1.005.257-1.854.512-1.885.567-.032.055-.502 1.191-1.045 2.524l-.987 2.425 1.584 2.69 1.583 2.691-4.062 4.062-4.061 4.061-2.683-1.584-2.683-1.585-2.436.992a132.198 132.198 0 0 0-2.536 1.05c-.054.031-.309.879-.566 1.884a900.07 900.07 0 0 1-.772 3l-.305 1.171h-11.494l-.472-1.64c-.259-.902-.631-2.274-.827-3.047-.352-1.393-.379-1.416-2.899-2.402l-2.543-.996-2.554 1.542c-1.405.849-2.674 1.543-2.819 1.543-.381 0-7.93-7.584-7.93-7.966 0-.176.683-1.492 1.517-2.925l1.517-2.605-1.021-2.35c-.562-1.293-1.14-2.457-1.283-2.586-.144-.13-1.562-.552-3.152-.937l-2.89-.701v-11.424l2.578-.673c1.418-.37 2.828-.772 3.133-.894.306-.122 1.034-1.321 1.617-2.664l1.062-2.441-1.539-2.558c-.846-1.407-1.538-2.697-1.538-2.866-.001-.408 7.555-7.973 7.963-7.972.174 0 1.468.692 2.875 1.538l2.558 1.539 2.381-1.036c1.31-.569 2.454-1.108 2.542-1.196.089-.088.371-.983.627-1.988.257-1.005.605-2.354.772-2.999l.305-1.172h11.468l.701 2.89Zm-83.756 30.704v28.281H5.314V98.124h41.25v28.282Zm-36.25-20.626v2.657H41.25V103.124H10.313v2.656Zm110.782-2.361c-2.675.433-4.291.97-6.741 2.24-6.854 3.553-10.974 10.315-11.024 18.09-.023 3.714.428 5.641 2.174 9.291 2.254 4.711 6.28 8.3 11.609 10.349 1.914.737 2.521.811 6.638.817 4.14.007 4.729-.065 6.823-.828 3.241-1.18 5.462-2.591 7.837-4.982 2.4-2.416 3.806-4.629 4.969-7.823.762-2.094.834-2.684.828-6.824-.006-4.117-.081-4.724-.817-6.638-1.244-3.235-2.706-5.476-5.193-7.96-1.811-1.808-2.858-2.549-5.156-3.645-1.587-.758-3.518-1.525-4.291-1.706-2.062-.481-5.865-.671-7.656-.381Zm6.549 5.496c7.962 2.074 13.037 10.107 11.387 18.022-1.222 5.857-6.236 10.871-12.092 12.092-9.299 1.939-18.5-5.53-18.5-15.018 0-10.114 9.54-17.614 19.205-15.096Zm-68.505 8.978-6.013 6.019 6.093 6.087 6.094 6.088 1.792-1.792 1.793-1.793-2.958-2.97-2.958-2.97H82.5V121.249H62.981l2.954-2.966 2.954-2.967-1.7-1.721c-.934-.947-1.775-1.721-1.869-1.721-.093 0-2.875 2.709-6.182 6.019Zm-48.825-1.8v2.682l2.578-.091 2.578-.091v-5l-2.578-.091-2.579-.091v2.682Zm10.312 0v2.656H41.25v-5.312H20.625v2.656Zm100.65-2.173c-2.215.613-3.442 1.398-5.146 3.293-4.439 4.938-2.817 12.791 3.293 15.943 2.067 1.066 5.78 1.185 8.225.263 2.523-.951 4.821-3.25 5.773-5.773.922-2.445.803-6.158-.263-8.225-2.275-4.408-7.345-6.757-11.882-5.501Zm5.131 5.539c1.413.79 2.656 2.88 2.656 4.464 0 1.613-1.262 3.606-2.799 4.419-1.639.867-2.867.9-4.575.125-1.491-.678-2.591-2.073-2.839-3.604-.719-4.431 3.677-7.575 7.557-5.404Zm-116.094 6.947v2.656H41.25V123.749H10.313v2.657Zm0 10.312v2.657H41.25V134.062H10.313v2.656Zm0 10.313v2.656h20.626v-5.312H10.311v2.656Zm25.938 0v2.656h5v-5.312h-5v2.656Z" fill="#2C2C2C"/></svg>