<svg width="70" height="66" fill="none" xmlns="http://www.w3.org/2000/svg"><path fill-rule="evenodd" clip-rule="evenodd" d="M1.227.392C.781.603.53.838.301 1.26c-.288.529-.311.718-.274 2.208.036 1.416.079 1.677.327 1.992.384.486 1.116.94 1.516.94.18 0 .355.073.391.161.036.089.05 5.018.03 10.956l-.035 10.795-1.128-1.018L0 26.275V65.902h22.316c21.876 0 22.31-.005 22.045-.243-.148-.134-7.098-6.3-15.445-13.704-8.347-7.403-15.196-13.51-15.221-13.572-.026-.063 6.869-.111 15.688-.111h15.734v9.165c0 10.164-.014 9.984.886 10.973.265.291.748.65 1.072.798.581.264.73.268 10.463.268 10.886 0 10.404.034 11.35-.81.254-.226.608-.7.786-1.053l.323-.643L70 42.632C70 26.446 70.07 27.52 68.943 26.49c-1-.913-1.218-.941-7.24-.941h-5.238V19.252h4.573c4.582 0 5.567-.074 6.433-.482a4.297 4.297 0 0 0 2.01-1.929l.45-.862v-2.122c0-1.968-.023-2.168-.32-2.73-.48-.908-1.266-1.671-2.16-2.097l-.8-.38-5.099-.04-5.098-.04.04-1.047.04-1.048.428-.083c.606-.115 1.209-.555 1.468-1.069.17-.335.222-.834.222-2.104 0-1.826-.124-2.172-1-2.783l-.387-.268L29.552.135 1.84.102l-.612.29Zm55.238 2.924v1.028H2.325V2.288h54.14v1.028ZM54.14 7.557v1.028H34.657l-4.22 2.645c-2.32 1.455-4.166 2.691-4.1 2.747.065.057 1.978 1.266 4.252 2.689l4.134 2.586h19.418V25.549H35v2.185H45.371l-.127.416c-.07.23-.127.692-.127 1.028v.612H35v2.184h10.117v4.241l-16.987-.004-16.987-.005-3.316-2.96-3.315-2.96V6.529H54.14v1.028Zm6.836 4.241v1.028H36.094V10.77H60.977v1.028Zm5.828-.677c.726.487.87.958.87 2.83 0 1.514-.027 1.703-.307 2.09-.61.84-.915.957-2.641 1.005l-1.563.043v-6.34l1.606.042c1.4.038 1.662.08 2.035.33Zm-32.899 2.8v2.251l-1.675-1.047c-.92-.576-1.727-1.092-1.792-1.148-.088-.075 3.233-2.308 3.432-2.308.02 0 .035 1.014.035 2.252Zm-17.971-.934c-.03.088-.464 3.11-.967 6.714-.502 3.605-.956 6.756-1.008 7.003l-.095.449-1.558-1.83-1.558-1.83H6.836v2.056l1.401.006 1.402.006 2.868 3.391c1.578 1.865 2.891 3.37 2.918 3.345.035-.033 2.485-17.038 2.485-17.251 0-.02 1.292-.035 2.871-.035h2.871v-2.185H19.82c-2.947 0-3.845.037-3.885.16Zm45.042 3.052v1.028H36.094v-2.056H60.977v1.028Zm-40.642 3.18-.784.737 2.425 2.282 2.425 2.283-2.425 2.282-2.425 2.282.784.738.785.738 2.428-2.28 2.429-2.28 2.428 2.28 2.428 2.28.785-.738.785-.738-2.426-2.282-2.425-2.282 2.425-2.283 2.426-2.282-.785-.738-.785-.738-2.428 2.28-2.428 2.28-2.429-2.28-2.428-2.28-.785.738ZM35 22.4v1.093H51.953v-2.185H35V22.4Zm32.36 5.613.316.28v28.496l-.336.315-.335.316h-9.31c-9.854 0-9.932-.005-10.169-.584-.046-.115-.085-6.567-.085-14.34V28.364l.336-.315.336-.316h18.93l.316.28Zm-17.64 1.862c-.05.047-.091 1.956-.091 4.241v4.156h15.86V29.79h-7.84c-4.31 0-7.879.038-7.929.085ZM20.986 47.844 38.62 63.477c.264.234-.16.24-18.012.24H2.323V61.66h2.188v-2.185H2.324V57.42h2.188v-2.185H2.324V53.18h2.188v-2.185H2.324v-2.056h2.188v-2.185H2.324v-2.056h2.188v-2.185H2.324v-2.056h2.188v-2.184H2.324v-6.995l.65.587c.357.323 8.463 7.514 18.012 15.98Zm42.178-13.75v2.121H51.953v-4.24h11.211v2.12Zm-11.21 7.385v1.023l-1.129.037-1.128.038-.04 1.06-.04 1.06H51.954v2.056h2.188v-2.056h2.324v-2.185H54.14v-2.056h-2.188v1.023ZM6.835 50.336v9.14h10.353c10.078 0 10.345-.006 10.083-.238-.149-.13-4.701-4.164-10.116-8.963-5.416-4.8-9.953-8.806-10.084-8.903-.223-.167-.236.317-.236 8.964Zm51.874-7.65c-.04.095-.053.572-.03 1.06l.04.887 3.385.034 3.383.035v-2.19h-3.353c-2.69 0-3.368.035-3.425.174Zm-43.422 8.842 6.378 5.655c.262.23.093.237-6.186.237H9.023v-5.655c0-3.11.035-5.654.078-5.654s2.827 2.438 6.187 5.417Zm34.34-1.562v1.028h6.837v-2.056h-6.836v1.028Zm10.118.064-.742.707.742.707.743.707-.713.678-.714.68.79.733.788.734.714-.67.713-.671.724.671.724.672.811-.77.812-.772-.712-.677-.712-.678.715-.672.714-.672-.783-.736-.783-.736-.724.672-.724.672-.673-.642c-.371-.354-.74-.643-.82-.643-.081 0-.482.318-.89.706ZM49.63 54.207v1.028h6.836V53.18h-6.836v1.028Z" fill="#fff"/></svg>