<svg width="70" height="70" fill="none" xmlns="http://www.w3.org/2000/svg"><path fill-rule="evenodd" clip-rule="evenodd" d="m21.34.358-.357.358v19.568l.358.358.358.358h26.58l.358-.358.358-.358v-8.639l4.778.06c5.338.067 5.595.105 7.696 1.135 2.84 1.392 5.014 4.042 5.858 7.14.357 1.307.357 4.233 0 5.54-.844 3.098-3.019 5.748-5.858 7.14-2.078 1.019-2.39 1.067-7.404 1.135-2.468.033-4.487.01-4.487-.05 0-.061.657-1.859 1.46-3.995.802-2.136 1.458-4.03 1.458-4.209 0-.179-.16-.486-.358-.683l-.358-.358H38.53c-11.192 0-13.297.032-13.546.206-.198.139-.847 1.683-1.964 4.667l-1.668 4.46h-4.546c-4.923 0-5.97.108-7.984.826-3.48 1.24-6.543 4.189-7.847 7.556-1.373 3.547-1.295 7.197.228 10.639 1.267 2.863 4.236 5.674 7.22 6.835 2.167.843 3.26.974 8.146.976l4.414.002V69.285l.358.357.358.358h26.58l.358-.358.358-.358v-8.617H51.417l.185.911c.684 3.36 3.662 6.307 7.108 7.037 4.697.994 9.434-1.795 10.897-6.417.256-.808.323-1.371.323-2.698s-.067-1.89-.323-2.698c-.46-1.452-1.269-2.754-2.448-3.938-2.924-2.936-7.552-3.527-11.158-1.425-1.154.672-2.68 2.174-3.333 3.279-.53.898-1.193 2.71-1.193 3.265 0 .343-.028.35-1.24.35h-1.24V49.715l-.358-.357-.358-.358h-26.58l-.358.358-.358.358v8.639l-4.778-.06c-5.338-.067-5.595-.105-7.696-1.135-2.855-1.4-5.003-4.017-5.858-7.14-.358-1.306-.358-4.23-.001-5.54.845-3.098 3.02-5.748 5.859-7.14 2.077-1.019 2.39-1.067 7.404-1.135 2.467-.033 4.486-.01 4.486.05 0 .061-.656 1.859-1.459 3.995-.802 2.136-1.459 4.03-1.459 4.209 0 .179.161.486.358.683l.358.358h13.251c11.192 0 13.297-.032 13.546-.206.197-.139.847-1.683 1.963-4.667l1.669-4.46 4.598-.002c5.088-.002 6.145-.126 8.33-.976C66.494 33.267 70 28.103 70 22.75c0-5.543-3.651-10.74-8.845-12.59-1.998-.713-3.075-.827-7.8-.827h-4.36V.715l-.358-.357L48.279 0h-26.58l-.358.358ZM46.66 10.5v8.167H23.317V2.333H46.66V10.5ZM25.651 5.833V7H44.326V4.667H25.651v1.166Zm0 4.667v1.167H44.326V9.333H25.651V10.5Zm0 4.667v1.166H44.326V14H25.651v1.167ZM49.578 26.93c0 .053-1.362 3.728-3.027 8.166l-3.026 8.07H31.962c-6.36 0-11.563-.044-11.563-.098 0-.053 1.362-3.728 3.027-8.166l3.027-8.07h11.563c6.36 0 11.562.044 11.562.098Zm-20.425 3.402V31.5h16.34v-2.333h-16.34v1.166ZM26.819 35v1.167h16.34v-2.334h-16.34V35Zm-2.335 4.667v1.166h16.34V38.5h-16.34v1.167ZM46.66 59.5v8.167H23.317V51.333H46.66V59.5Zm15.678-6.777c3.736.973 6.059 4.8 5.114 8.426-.98 3.757-4.797 6.08-8.435 5.133-3.753-.977-6.082-4.8-5.136-8.43.982-3.77 4.796-6.082 8.457-5.129Zm-36.687 2.11V56H44.326v-2.333H25.651v1.166Zm35.71 3.46-1.857 1.857-.7-.69c-.386-.379-.767-.69-.847-.69-.192 0-1.522 1.352-1.522 1.547 0 .083.583.72 1.295 1.417 1.854 1.814 1.66 1.862 4.714-1.171 1.35-1.34 2.453-2.508 2.453-2.594 0-.194-1.342-1.532-1.537-1.532-.078 0-.977.836-1.999 1.857ZM25.651 59.5v1.167H44.326v-2.334H25.651V59.5Zm0 4.667v1.166H44.326V63H25.651v1.167Z" fill="#6A6A6A"/></svg>