<svg width="97" height="62" fill="none" xmlns="http://www.w3.org/2000/svg"><g clip-path="url('#clip0_236_683')" fill="#fff"><path d="M24.377 34.322a7.119 7.119 0 0 1-.69-5.386 9.607 9.607 0 0 0 1.088 1.827.957.957 0 0 0 .181 1.334 9.646 9.646 0 0 0-.579 2.225Zm.902-8.293a8.488 8.488 0 0 1 3.66.846.958.958 0 0 0-.039.256c0 .09.016.174.039.256a9.481 9.481 0 0 0-3.127 3.03.944.944 0 0 0-.272-.043c-.16 0-.31.043-.442.113a9.154 9.154 0 0 1-1.217-2.164 7.085 7.085 0 0 1 1.398-2.294Zm4.529-2.285a9.185 9.185 0 0 1 2.333 1.97.957.957 0 0 0-.23.541c-.43.082-.85.198-1.257.338a.95.95 0 0 0-1.518-.088 8.866 8.866 0 0 0-3.448-.893 7 7 0 0 1 4.12-1.868Zm6.213 2.666a9.157 9.157 0 0 0-2.24-.316.957.957 0 0 0-1.294-.636 9.617 9.617 0 0 0-1.932-1.745 7.02 7.02 0 0 1 5.466 2.697Zm-3.713 10.868a9.34 9.34 0 0 1-.384.453 7.026 7.026 0 0 1-7.189-2.845c.075-.915.283-1.79.602-2.608a.947.947 0 0 0 .723-.133 9.179 9.179 0 0 0 6.103 2.327c.049 0 .097-.003.145-.004v-.428c-.048 0-.096.004-.145.004a8.768 8.768 0 0 1-5.81-2.203.958.958 0 0 0-.172-1.215 9.049 9.049 0 0 1 2.96-2.863.95.95 0 0 0 .718.332.947.947 0 0 0 .637-.249 9.15 9.15 0 0 1 3.192 4.803h.427a9.58 9.58 0 0 0-3.372-5.146.957.957 0 0 0 .074-.372c0-.047-.006-.093-.013-.138a8.76 8.76 0 0 1 1.16-.312c.136.366.484.629.896.629.118 0 .23-.025.334-.064a9.052 9.052 0 0 1 1.11 4.353c0 .356-.023.706-.065 1.05h.435a9.48 9.48 0 0 0-1.12-5.64.96.96 0 0 0 .247-.487 8.726 8.726 0 0 1 2.623.458 7.074 7.074 0 0 1 1.11 3.814c0 .528-.059 1.04-.167 1.535a9.06 9.06 0 0 1-.643.43c.11.05.21.12.3.216.018.02.037.042.055.065.038-.025.078-.048.117-.073-.017.053-.037.105-.055.158.054.08.107.17.16.278l.286.607a7.775 7.775 0 0 0 .55-1.75h.003l.023-.14c.01-.055.02-.11.028-.166a7.945 7.945 0 0 0 .086-1.16 7.831 7.831 0 0 0-.754-3.361l-.004-.01-.091-.182-.072-.14a6.91 6.91 0 0 0-.105-.187c-.019-.033-.036-.067-.056-.1h-.001c-1.357-2.304-3.851-3.85-6.707-3.85-.366 0-.726.027-1.08.076-.12.017-.239.036-.357.059l-.037.007a7.9 7.9 0 0 0-.296.063l-.038.008v.001a7.774 7.774 0 0 0-4.032 2.443h-.006c-.032.037-.061.077-.092.114a7.93 7.93 0 0 0-.186.228c-.032.041-.066.08-.098.12h.006a7.841 7.841 0 0 0-.735 1.176l-.033.068a8.29 8.29 0 0 0-.147.317l-.07.163-.017.04v.003a7.84 7.84 0 0 0-.57 2.944c0 1.78.591 3.421 1.587 4.736v.002c.03.04.062.078.092.117.038.047.074.095.112.14a7.752 7.752 0 0 0 6.526 2.814c0 .002-.001.002-.002.002.02 0 .04-.004.06-.005a7.59 7.59 0 0 0 .25-.023l.114-.012c.083-.01.166-.023.248-.035l.07-.01v-.001c.187-.031.37-.07.552-.115v-1.126ZM33.334 48.144v1.373h.622c.23 0 .408-.06.534-.179.126-.119.189-.288.189-.509 0-.218-.063-.387-.189-.506s-.304-.179-.534-.179h-.622Zm-.494-.406h1.116c.41 0 .72.093.928.28.21.183.316.454.316.811 0 .36-.105.633-.316.817-.209.185-.518.277-.928.277h-.622v1.467h-.494v-3.652ZM36.578 48.966a.675.675 0 0 0-.573.283c-.14.188-.21.446-.21.773 0 .328.069.587.208.776a.68.68 0 0 0 .575.281c.24 0 .43-.094.57-.284.14-.189.21-.447.21-.773 0-.324-.07-.581-.21-.77a.672.672 0 0 0-.57-.286Zm0-.382c.391 0 .7.127.923.382.224.254.335.606.335 1.056 0 .449-.111.801-.335 1.057-.224.254-.532.382-.923.382-.394 0-.702-.128-.925-.382-.222-.256-.334-.608-.334-1.056 0-.45.112-.803.334-1.057.223-.255.532-.382.925-.382ZM40.169 48.755v.421a1.68 1.68 0 0 0-.385-.156 1.418 1.418 0 0 0-.387-.054c-.292 0-.519.093-.68.279-.162.184-.243.443-.243.778 0 .334.081.594.243.78.161.184.388.276.68.276.13 0 .26-.017.387-.051.129-.036.257-.09.385-.16v.417a1.842 1.842 0 0 1-.392.132c-.134.03-.277.044-.429.044-.413 0-.74-.13-.984-.39-.243-.258-.365-.608-.365-1.048 0-.447.122-.799.367-1.055.247-.256.584-.384 1.012-.384.138 0 .274.015.406.044.132.028.26.07.385.127ZM42.423 48.755v.421a1.686 1.686 0 0 0-.384-.156 1.42 1.42 0 0 0-.387-.054c-.292 0-.52.093-.68.279-.163.184-.243.443-.243.778 0 .334.08.594.242.78.162.184.389.276.68.276.131 0 .26-.017.388-.051.128-.036.257-.09.384-.16v.417a1.842 1.842 0 0 1-.392.132c-.134.03-.276.044-.428.044-.413 0-.741-.13-.984-.39-.243-.258-.365-.608-.365-1.048 0-.447.122-.799.367-1.055.246-.256.584-.384 1.011-.384.139 0 .275.015.407.044.132.028.26.07.384.127ZM45.11 48.65v2.74h-.448v-2.2l-1.322 2.2h-.578v-2.74h.448v2.194l1.32-2.194h.58ZM47.868 48.65v2.74h-.448v-2.199l-1.322 2.2h-.578v-2.74h.448v2.194l1.32-2.194h.58Zm-1.939-1.066h.29a.412.412 0 0 0 .144.277c.08.06.19.09.333.09.14 0 .25-.03.328-.09a.423.423 0 0 0 .15-.277h.288c-.016.233-.09.408-.218.526-.13.117-.312.176-.548.176-.237 0-.42-.059-.549-.176-.129-.117-.201-.293-.218-.526ZM50.254 48.755v.421a1.685 1.685 0 0 0-.384-.156 1.42 1.42 0 0 0-.387-.054c-.292 0-.52.093-.68.279-.162.184-.243.443-.243.778 0 .334.08.594.242.78.162.184.389.276.681.276.13 0 .26-.017.387-.051.129-.036.257-.09.384-.16v.417a1.844 1.844 0 0 1-.392.132 1.99 1.99 0 0 1-.428.044c-.413 0-.741-.13-.984-.39-.244-.258-.365-.608-.365-1.048 0-.447.122-.799.367-1.055.247-.256.584-.384 1.011-.384.14 0 .275.015.407.044.132.028.26.07.384.127ZM50.593 48.65h.448v1.287l1.27-1.287h.554l-1.048 1.06L53 51.39h-.505l-.972-1.382-.482.49v.892h-.448v-2.74ZM55.392 48.65v2.74h-.448v-2.2l-1.322 2.2h-.578v-2.74h.448v2.194l1.32-2.194h.58ZM58.15 48.65v2.74h-.447v-2.199l-1.322 2.2h-.578v-2.74h.448v2.194l1.32-2.194h.58Zm-1.938-1.066h.288a.414.414 0 0 0 .145.277c.08.06.191.09.333.09.14 0 .25-.03.328-.09a.423.423 0 0 0 .15-.277h.289c-.017.233-.09.408-.218.526-.13.117-.312.176-.55.176-.235 0-.418-.059-.547-.176-.13-.117-.202-.293-.218-.526ZM32.495 53.662h2.627v.36H34.03v2.38h-.443v-2.38h-1.092v-.36ZM37.447 54.92v.22h-2.072c.02.31.113.546.28.709.167.161.4.242.7.242.173 0 .34-.021.502-.064.163-.042.324-.106.485-.19v.425c-.162.069-.328.12-.498.157a2.49 2.49 0 0 1-.516.053c-.438 0-.784-.127-1.04-.381-.255-.255-.383-.599-.383-1.032 0-.449.121-.804.363-1.067.243-.264.57-.396.982-.396.368 0 .66.119.873.357.216.236.324.558.324.966Zm-.45-.133c-.004-.246-.074-.443-.209-.59a.687.687 0 0 0-.533-.22c-.252 0-.454.071-.605.213-.15.142-.237.342-.26.6l1.606-.003ZM40.066 53.662l-.992 1.333 1.043 1.407h-.531l-.798-1.077-.799 1.076h-.531l1.065-1.433-.974-1.306h.531l.727.976.727-.976h.532Z"/><path d="M40.075 53.662h.453v1.118h1.462v-1.118h.453v2.74h-.453v-1.263h-1.462v1.262h-.453v-2.739ZM43.878 53.977a.675.675 0 0 0-.573.284c-.14.188-.21.445-.21.773s.069.586.207.776a.68.68 0 0 0 .576.28c.24 0 .43-.094.57-.283.14-.19.21-.447.21-.773 0-.325-.07-.581-.21-.77a.671.671 0 0 0-.57-.287Zm0-.381c.391 0 .699.127.923.381.223.255.335.607.335 1.057 0 .449-.112.8-.335 1.057-.224.254-.532.381-.923.381-.394 0-.702-.127-.926-.381-.222-.256-.333-.608-.333-1.057 0-.45.111-.802.333-1.057.224-.254.532-.381.926-.381ZM45.185 56.401v-.374c.298-.045.492-.17.584-.377.11-.288.166-.802.166-1.54v-.448h1.853v2.74h-.45v-2.38h-.953v.271c0 .705-.072 1.215-.215 1.532-.154.337-.482.53-.985.576ZM49.315 53.977a.676.676 0 0 0-.573.284c-.14.188-.21.445-.21.773s.07.586.208.776a.68.68 0 0 0 .575.28c.24 0 .43-.094.57-.283.141-.19.211-.447.211-.773 0-.325-.07-.581-.21-.77a.671.671 0 0 0-.571-.287Zm0-.381c.392 0 .7.127.923.381.224.255.336.607.336 1.057 0 .449-.112.8-.336 1.057-.224.254-.531.381-.923.381-.393 0-.702-.127-.925-.381-.222-.256-.333-.608-.333-1.057 0-.45.11-.802.332-1.057.224-.254.533-.381.926-.381ZM50.925 56.401v-2.739h1.934v.36h-1.481v2.38h-.453ZM55.55 53.662v2.74h-.448v-2.2l-1.322 2.2h-.578v-2.74h.449v2.194l1.319-2.194h.58ZM57.548 56.401V55.25h-.84a.883.883 0 0 1-.624-.233c-.15-.14-.226-.36-.226-.66v-.695h.451v.653c0 .191.043.335.128.43.086.097.214.145.384.145h.727v-1.228h.45v2.74h-.45ZM60.848 54.92v.22h-2.071c.02.31.113.546.279.709.168.161.401.242.7.242.173 0 .34-.021.502-.064.163-.042.325-.106.485-.19v.425c-.162.069-.328.12-.497.157-.17.036-.342.053-.517.053-.437 0-.784-.127-1.04-.381-.255-.255-.382-.599-.382-1.032 0-.449.12-.804.362-1.067.243-.264.57-.396.982-.396.369 0 .66.119.874.357.215.236.323.558.323.966Zm-.45-.133c-.004-.246-.073-.443-.208-.59a.689.689 0 0 0-.534-.22c-.252 0-.453.071-.605.213-.15.142-.237.342-.26.6l1.607-.003ZM63.142 53.767v.42a1.716 1.716 0 0 0-.385-.156 1.43 1.43 0 0 0-.386-.054c-.293 0-.52.093-.68.28-.162.184-.243.443-.243.777s.08.595.242.78c.162.185.389.277.68.277.131 0 .26-.017.388-.051.129-.036.256-.09.384-.16v.416a1.844 1.844 0 0 1-.392.132 1.98 1.98 0 0 1-.428.044c-.413 0-.741-.13-.984-.389-.244-.259-.365-.608-.365-1.049 0-.447.122-.798.367-1.054.246-.256.584-.384 1.011-.384.139 0 .274.014.407.044.132.028.26.07.384.127ZM63.481 53.662h.448v1.287l1.271-1.287h.553l-1.047 1.06 1.182 1.68h-.504l-.972-1.382-.483.489v.892h-.448v-2.739ZM68.28 53.662v2.74h-.449v-2.2l-1.322 2.2h-.577v-2.74h.448v2.194l1.32-2.194h.58ZM71.038 53.662v2.74h-.448v-2.2l-1.322 2.2h-.578v-2.74h.448v2.194l1.32-2.194h.58ZM69.1 52.596h.29a.41.41 0 0 0 .144.276c.08.06.19.09.333.09.14 0 .25-.03.328-.09a.422.422 0 0 0 .15-.276h.288c-.016.233-.089.408-.218.526-.129.117-.312.176-.548.176-.237 0-.42-.059-.549-.177-.128-.117-.201-.292-.218-.525ZM33.962 61.666c-.127.326-.251.539-.372.638-.12.1-.282.15-.485.15h-.36v-.377h.265c.124 0 .22-.03.289-.088.068-.059.144-.197.227-.416l.081-.206-1.109-2.695h.477l.857 2.143.857-2.143h.478l-1.205 2.994ZM35.277 58.672h.453v1.118h1.462v-1.118h.453v2.74h-.453v-1.263H35.73v1.263h-.453v-2.74ZM40.365 58.672v2.74h-.448v-2.2l-1.323 2.2h-.577v-2.74h.448v2.194l1.32-2.194h.58ZM41.232 60.15v.902h.641c.206 0 .363-.039.47-.115a.391.391 0 0 0 .162-.338.384.384 0 0 0-.162-.335c-.107-.077-.264-.115-.47-.115h-.641Zm0-1.119v.759h.592a.78.78 0 0 0 .416-.1.32.32 0 0 0 .162-.284.304.304 0 0 0-.162-.277.795.795 0 0 0-.416-.098h-.592Zm-.45-.36h1.072c.321 0 .568.06.742.177a.57.57 0 0 1 .259.501.583.583 0 0 1-.132.402.624.624 0 0 1-.392.183c.207.039.368.12.482.245a.659.659 0 0 1 .172.464.654.654 0 0 1-.284.568c-.188.133-.457.2-.806.2h-1.114v-2.74ZM45.748 59.927v.22h-2.072c.02.31.113.546.28.71.167.16.4.242.7.242.172 0 .34-.022.501-.064.164-.042.325-.106.485-.19v.425c-.161.068-.327.12-.497.156-.17.036-.342.054-.516.054-.438 0-.785-.127-1.041-.381-.255-.255-.382-.6-.382-1.033 0-.448.121-.803.362-1.066.244-.264.57-.397.982-.397.369 0 .66.12.874.358.216.236.324.558.324.966Zm-.451-.132c-.003-.247-.073-.443-.208-.59a.687.687 0 0 0-.534-.22c-.251 0-.453.07-.605.213-.15.142-.236.342-.26.6l1.607-.003ZM46.464 60.998v1.453h-.453V58.67h.453v.416a.93.93 0 0 1 .357-.363c.146-.08.318-.12.52-.12.332 0 .602.133.81.397.208.264.313.611.313 1.042 0 .43-.105.778-.313 1.042a.982.982 0 0 1-.81.396c-.202 0-.374-.039-.52-.117a.947.947 0 0 1-.357-.365Zm1.532-.956c0-.331-.068-.59-.205-.778a.652.652 0 0 0-.561-.284.658.658 0 0 0-.563.284c-.136.188-.203.447-.203.778 0 .33.068.591.203.78a.66.66 0 0 0 .563.281.654.654 0 0 0 .56-.28c.138-.19.206-.45.206-.781ZM50.733 58.775v.42a1.717 1.717 0 0 0-.385-.156 1.416 1.416 0 0 0-.386-.054c-.293 0-.52.093-.681.279-.162.184-.242.444-.242.778s.08.594.242.78c.161.185.388.277.68.277.13 0 .26-.017.387-.052.13-.036.257-.089.385-.159v.416a1.834 1.834 0 0 1-.392.132c-.134.03-.277.044-.429.044-.413 0-.74-.13-.984-.389-.243-.259-.364-.609-.364-1.05 0-.446.122-.797.367-1.053.246-.257.583-.385 1.01-.385.14 0 .275.015.407.045.132.027.26.07.385.127ZM53.42 58.672v2.74h-.449v-2.2l-1.322 2.2h-.578v-2.74h.448v2.194l1.32-2.194h.58ZM53.553 58.672h2.627v.36h-1.092v2.38h-.443v-2.38h-1.092v-.36ZM58.504 59.927v.22h-2.071c.02.31.112.546.28.71.167.16.4.242.7.242.172 0 .34-.022.501-.064.163-.042.325-.106.485-.19v.425c-.162.068-.327.12-.497.156a2.49 2.49 0 0 1-.517.054c-.437 0-.784-.127-1.04-.381-.255-.255-.382-.6-.382-1.033 0-.448.12-.803.362-1.066.243-.264.57-.397.982-.397.369 0 .66.12.874.358.216.236.323.558.323.966Zm-.45-.132c-.004-.247-.073-.443-.208-.59a.687.687 0 0 0-.534-.22c-.252 0-.453.07-.605.213-.15.142-.236.342-.26.6l1.607-.003ZM58.488 58.672h2.627v.36h-1.092v2.38h-.443v-2.38h-1.092v-.36Z"/><path fill-rule="evenodd" clip-rule="evenodd" d="M28.51.026c-1.863.182-2.475.26-3.515.451-6.128 1.12-11.64 4.025-16.068 8.468C2.96 14.931-.232 22.957.013 31.36c.029.983.095 2.148.146 2.59.806 6.867 3.702 13.031 8.4 17.88 2.596 2.678 5.2 4.58 8.47 6.186 3.923 1.926 7.853 2.933 12.092 3.096l1.412.055-.033-1.035c-.027-.88-.06-1.072-.22-1.286-.33-.447-.615-.544-1.903-.65-8.078-.663-15.2-4.615-20.081-11.142-3.773-5.045-5.817-11.907-5.387-18.09.284-4.091 1.112-7.198 2.863-10.746 1.36-2.755 2.93-4.938 5.157-7.175 3.586-3.601 7.723-5.991 12.598-7.278 7.4-1.954 15.315-.71 21.806 3.426 2.04 1.3 4.698 3.644 6.296 5.552 3.735 4.46 5.902 9.775 6.388 15.667.111 1.355.2 1.622.642 1.939.255.182.416.212 1.293.24l1.001.032v-.836c0-2.416-.567-5.826-1.398-8.42-1.566-4.883-3.935-8.795-7.5-12.377-4.911-4.935-10.932-7.893-17.9-8.793C33.115.06 29.32-.053 28.51.026Zm.2 6.918c-6.758.486-13.046 3.95-17.128 9.435-3.889 5.225-5.444 11.64-4.391 18.11.376 2.311 1.023 4.322 2.095 6.514 2.304 4.708 6.023 8.455 10.68 10.76 3.115 1.543 5.88 2.266 9.412 2.462l1.135.064v-.84c-.001-.997-.099-1.405-.414-1.72-.288-.29-.6-.372-1.878-.498-8.175-.802-15.343-6.833-17.63-14.831-.6-2.101-.816-3.649-.816-5.844 0-3.306.637-6.118 2.047-9.04 2.914-6.04 8.509-10.275 15.13-11.454 1.572-.28 4.497-.346 6.123-.138a20.595 20.595 0 0 1 11.95 5.851c1.771 1.77 2.997 3.46 4.023 5.547 1.187 2.416 1.913 5 2.08 7.403.063.902.27 1.408.678 1.653.23.139.498.181 1.292.208l1.002.034-.001-.479c-.002-.797-.168-2.468-.362-3.633-.519-3.11-1.778-6.294-3.54-8.946-1.032-1.553-1.785-2.485-2.995-3.702-4.9-4.93-11.548-7.416-18.492-6.916Zm-.24 6.967c-5.115.664-9.657 3.616-12.29 7.988-.941 1.565-1.69 3.448-2.042 5.146-.608 2.922-.43 6.167.488 8.871 2.187 6.449 8.134 11.036 14.718 11.353l1.19.057-.033-1.023c-.025-.795-.068-1.077-.193-1.268-.234-.358-.65-.578-1.213-.643-7.327-.844-12.766-7.146-12.441-14.417.255-5.722 4.05-10.769 9.461-12.581 1.552-.52 2.494-.666 4.309-.67 1.816-.004 2.565.102 4.139.585 5.242 1.61 9.058 6.28 9.698 11.869.064.565.284.982.64 1.217.191.125.472.168 1.265.193l1.02.033-.057-1.194c-.099-2.06-.67-4.247-1.617-6.193-2.469-5.07-7.285-8.557-12.825-9.285-1.089-.143-3.255-.163-4.217-.038Zm47.812 19.46c-.887.232-1.703.639-2.213 1.102l-.428.389.388.526c.898 1.214 1.091 1.3 1.837.825.655-.416 1.307-.612 2.04-.612 1.156 0 1.964.384 2.58 1.227.26.357.671 1.31.671 1.558 0 .04-1.201.072-2.67.072h-2.67v2.143h5.36l-.058.335c-.093.531-.553 1.398-.96 1.806-.633.635-1.127.834-2.176.877-1.07.044-1.502-.07-2.29-.607-.567-.387-.609-.4-.852-.27-.212.114-1.294 1.244-1.294 1.352 0 .14.762.867 1.215 1.158 1.287.83 3.738 1.084 5.371.56 1.916-.616 3.33-2.145 3.888-4.203.253-.93.278-2.91.049-3.776-.475-1.794-1.59-3.217-3.108-3.97-.456-.224-1.109-.468-1.451-.54-.89-.186-2.428-.164-3.23.047Zm-43.099 6.248v6.34h2.581l.002-4.175V37.61l1.692 3.303c1.08 2.11 1.78 3.377 1.935 3.505.2.164.353.2.848.2 1.07.002.771.429 3.749-5.356l.85-1.652.001 4.174.002 4.174h2.581V33.28h-1.33c-.812 0-1.42.04-1.556.103-.175.08-.63.9-2.087 3.772-1.024 2.019-1.929 3.831-2.01 4.027l-.148.358-.284-.626c-.156-.344-1.054-2.156-1.996-4.026-1.353-2.685-1.76-3.422-1.94-3.504-.141-.064-.736-.104-1.559-.104h-1.33v6.34Zm16.644 0v6.34h1.25c1.354 0 1.542-.049 1.969-.506.272-.291 4.347-7.23 4.695-7.993l.23-.506-.028 4.502-.028 4.502h2.949V33.28h-1.205c-1.27 0-1.65.095-2.013.504-.207.232-4.42 7.474-4.68 8.046-.118.258-.222.468-.23.468-.009 0-.005-2.028.009-4.509l.024-4.509h-2.942v6.34Zm13.53-.008v6.347h2.936V41.79l1.357-.055c2.11-.085 3.198-.44 4.1-1.336.844-.839 1.262-2.267 1.056-3.615-.202-1.322-.889-2.285-2.05-2.873-1.013-.514-1.38-.563-4.53-.608l-2.87-.04v6.348Zm25.678-5.952c-.084.208-1.105 2.85-2.27 5.87-1.166 3.02-2.204 5.705-2.307 5.967l-.188.475 1.379-.028c1.72-.036 1.666.004 2.213-1.638l.387-1.16 2.41-.023 2.41-.024.371 1.14c.3.918.43 1.197.674 1.43l.302.29h1.292c.71 0 1.292-.03 1.292-.066 0-.036-1.089-2.889-2.42-6.34l-2.42-6.273h-2.973l-.152.38ZM68.65 35.612c.49.136 1.066.73 1.203 1.24.13.485.069 1.21-.137 1.618-.407.804-.82.993-2.289 1.042l-1.135.039v-4.04l1.002.001c.55 0 1.16.045 1.356.1Zm22.16.77c.032.135.397 1.234.81 2.441.413 1.208.75 2.223.75 2.255 0 .032-.76.059-1.69.059-.93 0-1.692-.03-1.692-.067-.003-.17 1.654-4.998 1.704-4.969.031.019.084.145.117.28Z"/></g><defs><clipPath id="clip0_236_683"><path fill="#fff" d="M0 0h97v62H0z"/></clipPath></defs></svg>