<svg width="64" height="71" fill="none" xmlns="http://www.w3.org/2000/svg"><path fill-rule="evenodd" clip-rule="evenodd" d="M5.033.189A5.722 5.722 0 0 0 .93 4.121C.742 4.752.72 8.2.72 35S.742 65.248.93 65.88c.596 2.002 2.254 3.54 4.281 3.97.513.109 5.178.154 15.894.154 16.547 0 15.96.026 17.445-.78 1.293-.703 2.372-2.186 2.695-3.705.103-.485.154-3.145.154-8.043 0-6.896.014-7.316.24-7.274.169.03.38.456.717 1.445l.478 1.402H49.003l.478-1.387.478-1.386.79-.24c.435-.133 1.334-.499 1.999-.814l1.208-.573 1.276.64 1.276.64 2.183-2.18 2.182-2.178-.642-1.275-.642-1.276.542-1.105c.298-.607.678-1.517.844-2.02l.303-.918 1.36-.445 1.36-.445v-6.174l-1.36-.445-1.36-.445-.303-.917a19.493 19.493 0 0 0-.844-2.022l-.542-1.104.642-1.276.642-1.276-2.182-2.178-2.183-2.178-1.276.64-1.276.64-1.208-.574c-.665-.315-1.564-.681-1.999-.814l-.79-.24-.478-1.386-.478-1.387H42.834l-.478 1.402c-.337.99-.548 1.414-.718 1.445-.225.042-.24-.378-.24-7.274 0-4.898-.05-7.558-.153-8.043-.323-1.519-1.402-3.002-2.695-3.705-1.487-.808-.881-.781-17.554-.768C9.326.017 5.556.059 5.033.189Zm32.188 2.457c1.23.579 1.835 1.601 1.887 3.19l.03.928H2.979l-.042-.518c-.068-.816.227-1.94.666-2.546.4-.55 1.202-1.15 1.713-1.28.146-.037 7.231-.074 15.744-.082l15.477-.015.685.323Zm1.954 12.217-.036 5.843-.593.326c-.584.322-.6.323-1.13.085l-.537-.242v-9.53H5.239v45.122h31.64V49.125l.537-.242c.53-.238.546-.237 1.13.085l.593.326.036 4.68.036 4.681H2.91V9.021h36.3l-.036 5.842Zm-4.52 2.28.037 3.542-1.862 1.875-1.861 1.876.642 1.276.642 1.277-.446.895a19.405 19.405 0 0 0-.818 1.988l-.372 1.094-1.389.478-1.39.477V38.08l1.39.476 1.39.478.371 1.093c.205.602.572 1.497.818 1.99l.446.894-.642 1.276-.643 1.277 1.86 1.873 1.86 1.874v4.832H7.43V13.53l13.595.035 13.594.035.036 3.542Zm13.1 3.226c.22.64.414 1.183.433 1.208.02.025.518.167 1.109.316.981.249 3.311 1.275 4.162 1.833.34.222.383.212 1.494-.345l1.144-.575 1.018 1.017 1.018 1.017-.568 1.128-.568 1.128.491.823a15.613 15.613 0 0 1 1.584 3.779c.147.561.284 1.032.303 1.046.02.014.56.204 1.2.423l1.164.397v2.872l-1.164.397c-.64.219-1.18.41-1.2.423-.02.014-.156.485-.303 1.047a15.614 15.614 0 0 1-1.584 3.778l-.491.823.568 1.128.568 1.128-1.018 1.017-1.018 1.017-1.144-.575c-1.111-.557-1.155-.567-1.494-.345-.85.558-3.18 1.584-4.162 1.832-.59.15-1.09.292-1.108.317-.02.025-.215.568-.434 1.207l-.398 1.163H44.48l-.399-1.163c-.219-.639-.413-1.181-.432-1.206-.018-.023-.393-.134-.834-.246a14.647 14.647 0 0 1-3.681-1.498l-1.092-.624-1.153.567-1.153.567-1.014-1.013-1.015-1.013.568-1.15.568-1.152-.629-1.094c-.708-1.231-1.085-2.16-1.44-3.545l-.243-.947-1.217-.42-1.216-.42v-2.872l1.216-.42 1.217-.42.243-.947c.355-1.384.733-2.314 1.44-3.545l.63-1.094-.569-1.151-.568-1.15 1.016-1.016 1.017-1.015 1.14.573 1.14.572.49-.29c1.52-.904 2.98-1.512 4.609-1.919.524-.13.57-.184.802-.927.136-.433.33-.99.432-1.237l.185-.449 1.41.04 1.408.038.398 1.162Zm-3.032 3.426c-4.484.457-8.241 3.598-9.646 8.065-.28.887-.321 1.298-.321 3.14 0 2.337.2 3.28 1.056 4.986 3.056 6.088 10.738 8.143 16.398 4.386 3.451-2.29 5.426-6.551 4.929-10.637-.753-6.196-6.219-10.572-12.416-9.94Zm-25.962 2.15-.783.79 1.232 1.224c.678.673 1.232 1.271 1.232 1.33 0 .057-2.403.105-5.341.105H9.759v2.188h16.228l-3.216-3.214c-1.77-1.767-3.22-3.213-3.222-3.213a82.4 82.4 0 0 0-.788.79Zm29.995.5c2.644.844 4.777 2.958 5.759 5.706.319.893.358 1.205.358 2.849 0 1.644-.04 1.956-.358 2.849-.979 2.739-3.096 4.84-5.759 5.716-.96.316-1.367.371-2.769.38-1.808.01-2.633-.17-4.109-.901-1.814-.898-3.114-2.228-4.054-4.147-2.281-4.662-.177-10.183 4.657-12.224 1.884-.796 4.227-.88 6.275-.227Zm-4.002 4.205c-.746.206-1.878.946-2.308 1.508-1.314 1.72-1.314 3.964 0 5.684.482.63 1.606 1.32 2.494 1.53 2.026.48 4.237-.627 5.133-2.57.416-.904.416-2.7 0-3.604-.408-.884-1.264-1.77-2.142-2.213-.852-.43-2.285-.581-3.176-.335Zm2.404 2.47c.649.437.984 1.077.984 1.88 0 .807-.335 1.442-.998 1.892-.395.268-.606.311-1.3.269-1.44-.089-2.205-.955-2.088-2.363.105-1.267.91-1.977 2.245-1.983.502-.002.828.084 1.157.305ZM14.278 35v1.094h2.192v-2.188H14.28V35Zm4.52 0v1.094h2.192v-2.188H18.8V35Zm4.52 0v1.094h2.192v-2.188H23.32V35Zm-13.56 4.512v1.094h5.343c2.938 0 5.341.045 5.341.1 0 .055-.555.656-1.233 1.337l-1.234 1.236.791.782.791.781 3.215-3.212 3.216-3.212H9.759v1.094ZM39.18 62.996c-.07 2.288-.319 3.128-1.139 3.847-1.02.895-.02.848-17.255.806L5.17 67.611l-.583-.378c-.767-.498-1.349-1.32-1.53-2.165-.08-.376-.147-1.45-.147-2.386v-1.703h36.331l-.062 2.017ZM17.703 64.33v1.163h6.711v-2.325h-6.711v1.162Z" fill="#fff"/></svg>