<svg width="64" height="71" fill="none" xmlns="http://www.w3.org/2000/svg"><path fill-rule="evenodd" clip-rule="evenodd" d="M2.966.348 2.62.695v9.468h2.26V2.26h7.911V.002H3.313l-.347.346ZM27.593.212c-2.698.685-4.916 2.927-5.549 5.61-.333 1.412-.277 3.254.135 4.464.318.936.327 1.026.106 1.096-1.69.53-2.714 1.785-2.714 3.324 0 1.296 1.008 2.708 2.243 3.143.34.12 1.077.218 1.637.218h1.02l.162.54c.242.806 1.2 2.205 2.075 3.027.728.686.774.768.774 1.403v.675H16.875l-.347.346c-.285.285-.347.486-.347 1.13v.782H9.735c-4.649 0-6.61.047-7.028.171C1.493 26.5.359 28.052.359 29.357c0 1.305 1.134 2.857 2.348 3.215.419.124 2.38.172 7.028.172h6.446v.782c0 .643.062.845.347 1.13.347.346.347.346 3.39.346h3.044V55.76l.346.346c.285.285.487.346 1.13.346h.784v6.775h-.796c-1.226 0-1.87.253-2.67 1.053-.998.998-1.274 2.053-.883 3.376.23.775 1.4 1.944 2.176 2.173.428.127 2.799.172 8.98.172 9.603 0 9.282.035 10.328-1.127.893-.993 1.146-2.058.779-3.281-.093-.308-.443-.866-.779-1.239-.716-.796-1.524-1.127-2.751-1.127h-.823v-6.775h.784c.643 0 .845-.061 1.13-.346l.346-.346V35h3.044c3.043 0 3.044 0 3.39-.345.285-.285.347-.487.347-1.13v-.782h6.473c7.45 0 7.38.01 8.402-1.128.897-.996 1.145-2.05.775-3.301-.23-.776-1.4-1.945-2.175-2.174-.42-.123-2.38-.171-7.028-.171h-6.447v-.783c0-.643-.062-.845-.347-1.129l-.346-.346H36.523v-.658c0-.626.047-.704.986-1.636.92-.915 1.98-2.605 1.98-3.159 0-.145.25-.192 1.008-.192 1.443 0 2.05-.222 2.882-1.054.732-.731 1.055-1.446 1.055-2.334 0-1.497-1.172-2.928-2.696-3.293l-.364-.087.328-1.45c.675-2.976.556-5.89-.307-7.593-1.234-2.431-4.44-2.957-6.53-1.07-.312.28-.603.51-.648.51-.044 0-.381-.203-.748-.45C31.909.194 29.4-.248 27.593.212Zm23.622.919V2.26h7.91V10.163h2.26V.695L61.04.348l-.347-.346h-9.477v1.129ZM31.48 2.723c.42.192 1.124.675 1.563 1.072 1.136 1.028 1.37 1 2.767-.329.607-.578 1.271-1.093 1.475-1.144 1.022-.257 2.02.413 2.36 1.586.271.933.239 3.773-.058 5.111-.128.574-.263 1.074-.3 1.112-.038.037-1.35-.956-2.917-2.208-3.099-2.475-3.352-2.597-4.02-1.93-.23.23-.347.506-.347.82 0 .26-.166.803-.367 1.208-.57 1.142-1.065 1.362-4.022 1.786-1.354.194-2.595.384-2.756.422-.658.154-1.011-2.577-.538-4.168.708-2.383 2.821-3.873 5.309-3.744.764.04 1.314.16 1.85.406Zm4.342 7.617 1.834 1.446-.037 2.69-.036 2.689-.528 1.066c-.636 1.284-1.454 2.084-2.767 2.705-.853.404-1.072.447-2.285.447-1.214 0-1.433-.043-2.286-.447-1.313-.621-2.131-1.421-2.767-2.705l-.527-1.067-.05-2.428-.048-2.427.402-.08c.221-.044 1.13-.183 2.02-.309.89-.126 1.95-.354 2.359-.507.853-.319 1.985-1.274 2.383-2.013.15-.279.324-.507.386-.507s.938.651 1.947 1.447Zm-11.73 4.34v1.128h-.784c-.942 0-1.476-.408-1.476-1.129 0-.72.534-1.129 1.476-1.129h.784v1.13Zm17.735-.783c.218.218.347.507.347.782 0 .721-.535 1.13-1.477 1.13h-.784V13.55h.784c.643 0 .845.062 1.13.347Zm-28.4.947c-.39.072-1.219.379-1.845.68-2.15 1.036-3.878 3.277-4.29 5.567-.28 1.547-.316 1.492.962 1.492h1.114l.094-.757c.124-.991.762-2.317 1.5-3.116.728-.79 2.252-1.576 3.31-1.708l.779-.097v-2.226l-.46.016a9.817 9.817 0 0 0-1.165.149Zm35.527.93v1.131l.78.097c1.057.132 2.581.918 3.31 1.708.737.8 1.375 2.125 1.499 3.116l.094.757H56.902l-.098-.866a7.961 7.961 0 0 0-6.983-6.976l-.867-.098v1.131ZM13.921 19.38c-.694.218-1.876 1.442-2.089 2.16-.307 1.039-.303 1.043.928 1.043 1.096 0 1.1-.001 1.262-.433.104-.274.322-.492.596-.595.432-.163.433-.166.433-1.261 0-1.229-.037-1.258-1.13-.914Zm35.033.914c0 1.095.001 1.098.433 1.26.274.104.492.322.596.596.163.432.166.433 1.263.433.922 0 1.099-.037 1.099-.231 0-1.067-1.13-2.563-2.217-2.932-1.154-.393-1.174-.379-1.174.874ZM32.003 23.64c.582 0 1.336-.05 1.675-.11l.615-.11-.05 1.124c-.056 1.205-.245 1.612-1.023 2.192-.547.408-1.887.408-2.434 0-.778-.58-.968-.987-1.023-2.192l-.05-1.124.615.11c.338.06 1.092.11 1.675.11Zm-4.055 3.082c.424.926 1.146 1.666 2.117 2.17.632.327.907.382 1.938.382 1.03 0 1.305-.055 1.937-.383.971-.503 1.693-1.243 2.117-2.17l.346-.752H45.564v6.774H42.52c-3.043 0-3.043 0-3.39.346l-.347.347v9.468H25.222v-9.468l-.347-.347c-.347-.346-.347-.346-3.39-.346H18.44V25.97H27.602l.346.753ZM16.18 29.357v1.129H3.313l-.347-.347a1.136 1.136 0 0 1-.346-.782c0-.275.128-.564.346-.783l.347-.346h12.868v1.129Zm44.858-.783c.218.218.347.508.347.783s-.129.564-.347.782l-.347.347H47.824v-2.258h12.868l.347.346ZM30.872 49.68v4.517h-5.65V45.163h5.65v4.516Zm7.911 0v4.517h-5.65V45.163h5.65v4.516Zm-7.91 12.42v5.645h-7.218l-.347-.347c-.458-.458-.458-1.107 0-1.565.327-.326.439-.346 1.914-.346 1.475 0 1.587-.02 1.913-.347l.347-.346v-8.34h3.39V62.1Zm5.65-1.476v4.17l.347.346c.326.327.438.347 1.913.347s1.587.02 1.914.346c.218.219.346.508.346.783s-.128.564-.346.782l-.347.347H33.133v-11.29h3.39v4.17ZM2.62 64.575v4.734l.346.346.347.347h9.478v-2.258H4.88V59.84H2.62v4.734Zm56.505-.783v3.952h-7.91v2.258H60.693l.346-.347.347-.346v-9.468h-2.26v3.951Z" fill="#fff"/></svg>