<svg width="67" height="71" fill="none" xmlns="http://www.w3.org/2000/svg"><path fill-rule="evenodd" clip-rule="evenodd" d="M15.618.193c-1.791.562-2.957 1.87-3.293 3.694-.098.534-.148 4.018-.148 10.265v9.456l-5.565 3.859C2.434 30.364.959 31.459.696 31.858c-.925 1.405-.76 3.257.396 4.42.207.206 2.785 2.044 5.73 4.084l5.355 3.707v10.626c0 7.06.05 10.898.148 11.437.288 1.58 1.206 2.76 2.694 3.46l.764.361 17.072.036c15.216.033 17.152.013 17.81-.18 1.774-.517 2.938-1.824 3.28-3.68.099-.54.148-4.342.148-11.428V44.08l5.342-3.705c2.938-2.037 5.534-3.91 5.769-4.16.71-.76.926-1.308.929-2.37.002-.808-.06-1.073-.4-1.69-.459-.835-.225-.657-7.115-5.42l-4.525-3.128v-9.457c0-6.246-.05-9.73-.148-10.264-.34-1.848-1.494-3.15-3.258-3.676-.646-.193-2.581-.216-17.61-.208-13.565.008-16.998.045-17.459.19Zm7.242 4.086c1.35 1.39 2.104 2.06 2.586 2.293l.68.33h14.018l.787-.402c.602-.306 1.207-.846 2.565-2.29l1.778-1.89h2.271c2.087 0 2.32.024 2.871.307.706.362 1.063.811 1.233 1.55.069.294.126 4.475.127 9.29l.004 8.753-.477.382c-.392.314-.476.472-.476.896 0 .408.098.61.476.978l.477.464v17.85l-.443.337c-.243.185-4.361 3.054-9.152 6.375-7.474 5.182-8.768 6.032-9.118 5.99-.267-.033-3.465-2.169-9.254-6.182-4.865-3.373-8.953-6.226-9.084-6.34-.223-.195-.238-.803-.238-9.12v-8.91l.476-.464c.378-.368.476-.57.476-.978 0-.424-.084-.582-.476-.896l-.476-.382.003-8.754c.002-4.814.059-8.995.127-9.29.17-.738.527-1.187 1.233-1.549.55-.282.787-.308 2.85-.31l2.25-.002 1.906 1.964Zm18.842-1.584c-1.842 2.118-1.1 1.95-8.567 1.95-7.467 0-6.725.168-8.566-1.95l-.327-.376h17.787l-.328.376Zm-9.614 7.13c-.449.292-.857.636-.905.764-.19.495-.087 1.046.259 1.393.294.296.426.336.85.26.277-.05.656-.09.843-.09.187 0 .567.04.843.09.425.076.556.035.85-.26.346-.347.448-.898.26-1.393-.109-.284-1.633-1.294-1.953-1.294-.126 0-.597.238-1.047.53Zm5.995 3.295c-.612.255-.903 1.064-.592 1.647.235.443 2.866 2.187 3.297 2.187.433 0 1.048-.526 1.073-.917.054-.855.003-.92-1.62-2.033-1.373-.942-1.698-1.075-2.158-.884Zm-12.026.873c-1.534 1.03-1.686 1.196-1.686 1.829 0 .582.546 1.132 1.124 1.132.431 0 3.058-1.761 3.297-2.21.209-.393.034-1.161-.32-1.41-.558-.393-1.05-.26-2.415.659Zm6.602 2.48c-.225.103-2.49 1.502-5.033 3.108-2.994 1.89-4.685 3.038-4.796 3.258-.128.254-.17 1.707-.172 5.835l-.002 5.498.306.345c.362.407 9.845 6.372 10.131 6.372.29 0 .403-.067 5.282-3.111 2.47-1.541 4.66-2.98 4.865-3.199l.374-.396-.002-5.503c-.001-4.128-.044-5.588-.172-5.845-.113-.226-1.801-1.365-5-3.372-2.655-1.667-4.951-3.064-5.1-3.105-.15-.041-.457.01-.681.114Zm-13.267 2.129c-1.531 1.084-1.69 1.256-1.69 1.84 0 .573.35.982.942 1.101.345.07.613-.05 1.66-.741.687-.453 1.374-.95 1.528-1.105.397-.4.379-1.234-.035-1.625-.546-.515-1.101-.392-2.405.53Zm25.062-.511c-.39.418-.398 1.222-.016 1.606.512.515 2.74 1.907 3.051 1.907.442 0 .989-.482 1.094-.964.13-.6-.147-.938-1.618-1.968-1.448-1.015-1.988-1.14-2.51-.581Zm-7.81 2.982a536.083 536.083 0 0 1 3.539 2.238c.02.02-1.556 1.035-3.505 2.256l-3.543 2.222-3.55-2.226-3.55-2.226.726-.449c.4-.247 1.982-1.247 3.516-2.222a279.2 279.2 0 0 1 2.828-1.785c.021-.007 1.614.98 3.539 2.192Zm-7.767 6.785 3.023 1.884.005 3.868.005 3.868-.32-.175c-.177-.096-1.738-1.066-3.47-2.155l-3.15-1.98V25.407l.442.284c.243.155 1.803 1.13 3.465 2.167Zm12.424 1.45v3.876l-3.358 2.109c-1.846 1.16-3.409 2.13-3.472 2.155-.063.025-.1-1.696-.08-3.825l.037-3.87 3.402-2.151a390.024 390.024 0 0 1 3.437-2.16c.018-.004.034 1.735.034 3.867Zm-29.124 4.553v7.333l-.374-.242c-1.931-1.249-9.052-6.291-9.215-6.525-.294-.421-.261-.85.096-1.26.291-.335 9.176-6.606 9.39-6.628.057-.006.103 3.289.103 7.322Zm46.508-4.25c2.452 1.696 4.627 3.266 4.833 3.49.205.224.374.559.374.744 0 .186-.169.52-.374.741-.319.343-9.195 6.577-9.365 6.577-.033 0-.06-3.293-.06-7.318 0-4.024.03-7.317.067-7.317.037 0 2.073 1.387 4.525 3.083ZM23.068 51.626c4.527 3.14 8.444 5.803 8.706 5.918.774.342 1.745.367 2.518.067.374-.146 4.385-2.837 8.914-5.98 4.528-3.142 8.313-5.745 8.41-5.783.142-.056.168 1.282.135 7.094-.035 6.36-.065 7.21-.265 7.574-.291.531-.766.97-1.246 1.153-.264.1-5.591.146-17.105.146s-16.84-.045-17.105-.146c-.48-.183-.955-.622-1.246-1.153-.2-.365-.23-1.213-.265-7.574-.033-5.896-.008-7.15.14-7.093.099.038 3.883 2.638 8.41 5.777Zm-7.501 12.326c.496.156 3.523.188 17.568.188 17.354 0 17.259.003 18.407-.477.21-.088.237-.009.232.702-.013 1.77-.343 2.502-1.358 3.024l-.6.307H16.454l-.599-.307c-1.016-.522-1.354-1.255-1.36-2.956-.003-.775.022-.858.235-.77.13.055.508.185.838.289Z" fill="#6A6A6A"/></svg>