<svg width="70" height="70" fill="none" xmlns="http://www.w3.org/2000/svg"><path fill-rule="evenodd" clip-rule="evenodd" d="M15.307.15C10.45 1.18 6.969 4.71 6.037 9.55c-.113.589-.206 1.813-.206 2.72v1.65l-.518.097c-.668.125-1.62 1.063-1.743 1.715-.05.265-.07 1.736-.044 3.268l.046 2.785.42.55c.599.786 1.126.958 2.932.958 1.34 0 1.55.034 1.62.256.6 1.91 1.83 3.69 3.303 4.78l.987.73-.04.843-.038.844-4.292 1.96c-4.53 2.07-5.5 2.63-6.44 3.711-.751.867-1.67 2.77-1.868 3.87C.07 40.765 0 42.492 0 44.127c0 2.96.001 2.973.358 3.33l.358.358H34.27l.371-.371.371-.372-.06-3.46c-.055-3.03-.1-3.56-.36-4.27-.694-1.88-1.717-3.274-3.065-4.175-.463-.31-2.76-1.442-5.106-2.517l-4.264-1.954v-1.64l.933-.677c1.385-1.006 2.572-2.603 3.144-4.233l.273-.779 1.751-.073c1.89-.078 2.196-.194 2.855-1.077.276-.369.305-.643.348-3.275.03-1.799-.013-3.074-.113-3.412-.188-.637-1.034-1.392-1.698-1.516l-.46-.087-.075-2.14c-.1-2.89-.566-4.527-1.85-6.494-1.641-2.52-3.961-4.179-7-5.01-1.135-.31-3.79-.38-4.96-.132Zm4.154 2.344c4.256.892 7.385 4.839 7.348 9.269l-.01 1.094-.201-.948c-.546-2.559-2.522-5.092-4.882-6.256-2.795-1.38-5.65-1.38-8.445 0-2.382 1.175-4.325 3.666-4.88 6.256l-.204.948-.01-1.094c-.042-5.194 4.088-9.428 9.243-9.473a11.53 11.53 0 0 1 2.041.204ZM43.457 3.67c-3.405.74-6.378 3.738-7.087 7.145-.276 1.328-.306 7.986-.04 8.887.237.801 1.444 2.01 2.245 2.247.354.105 1.495.178 2.784.178h2.184l2.97-2.336 2.969-2.335h6.022l2.957 2.335 2.958 2.336h2.183c2.685 0 3.15-.123 4.12-1.09 1.078-1.075 1.12-1.317 1.057-6.075-.05-3.898-.062-4.029-.439-5.072-.873-2.416-2.514-4.322-4.643-5.395-2.045-1.03-2.22-1.047-11.29-1.037-6.265.007-8.221.054-8.95.212Zm17.69 2.333a7.12 7.12 0 0 1 5.11 5.132c.164.63.218 1.71.218 4.388v3.552l-.358.358c-.342.343-.437.358-2.15.352l-1.793-.007-2.55-2.035c-1.404-1.12-2.782-2.15-3.062-2.292-.433-.218-1.008-.264-3.79-.302-2.174-.03-3.484.012-3.885.124-.408.114-1.507.876-3.38 2.344l-2.775 2.174h-1.766c-1.68 0-1.782-.017-2.123-.358l-.358-.358v-3.552c0-2.678.054-3.758.218-4.388.65-2.499 2.583-4.461 5.047-5.125 1.196-.322 16.166-.328 17.398-.007ZM19.165 7.17a7.117 7.117 0 0 1 5.327 6.918c0 .936-.005.946-.275.663-.151-.158-.452-.83-.668-1.492-.672-2.059-1.121-2.12-3.354-.464-1.908 1.416-2.391 1.674-3.83 2.042-.87.223-1.606.283-3.486.283h-2.382v-.991c0-4.645 4.3-8.098 8.668-6.96ZM43.15 9.28v1.168h-2.332v2.335h2.332v2.336h2.333v-2.336h2.332V10.45h-2.332V8.114H43.15V9.28Zm5.831 0v1.168h2.333V8.114H48.98V9.28Zm4.665 0v1.168h2.333V8.114h-2.333V9.28Zm5.831 0v1.168h-2.332v2.335h2.332v2.336h2.333v-2.336h2.332V10.45H61.81V8.114h-2.333V9.28Zm2.333 2.336v1.167h-2.333V10.45h2.333v1.168ZM22.812 16.66c.281.215.758.476 1.059.58l.547.188.04 2.086c.048 2.424-.094 3.263-.778 4.633-.868 1.738-2.567 3.085-4.538 3.6-3.636.948-7.45-1.378-8.428-5.139-.146-.557-.218-1.55-.218-2.979v-2.143l2.88-.07c3.187-.079 3.912-.216 5.648-1.073.561-.276 1.348-.756 1.75-1.066l.728-.563.399.777c.219.428.629.954.91 1.17ZM8.164 18.623v2.335H5.83V16.287h2.333v2.336Zm20.992 0v2.335h-2.333V16.287h2.333v2.336ZM12.828 19.79v1.168h2.333v-2.335h-2.333v1.167Zm6.998 0v1.168h2.332v-2.335h-2.332v1.167Zm30.467 2.545c-4.857 1.032-8.338 4.562-9.27 9.4-.113.59-.205 1.814-.205 2.72v1.65l-.519.098c-.668.125-1.62 1.062-1.742 1.715-.05.265-.07 1.735-.045 3.267l.046 2.785.42.551c.6.786 1.127.958 2.933.958 1.339 0 1.55.033 1.62.255.6 1.911 1.83 3.691 3.303 4.78l.987.73-.04.844-.039.844-4.29 1.96c-4.532 2.07-5.502 2.63-6.44 3.711-.752.866-1.672 2.77-1.87 3.87-.085.477-.155 2.204-.155 3.839 0 2.96.001 2.973.357 3.33l.358.358h33.556l.37-.371.372-.372-.061-3.46c-.054-3.03-.099-3.56-.36-4.27-.693-1.88-1.716-3.274-3.064-4.175-.463-.31-2.761-1.443-5.106-2.517l-4.264-1.955V51.241l.933-.678c1.385-1.005 2.571-2.603 3.143-4.232l.274-.779 1.75-.073c1.89-.079 2.197-.194 2.856-1.077.276-.37.305-.643.348-3.275.03-1.8-.013-3.075-.113-3.413-.189-.636-1.034-1.39-1.699-1.516l-.46-.086-.074-2.14c-.1-2.89-.567-4.527-1.85-6.495-1.642-2.519-3.962-4.178-7.001-5.009-1.134-.31-3.79-.38-4.959-.133Zm4.155 2.345c4.255.891 7.384 4.838 7.348 9.268l-.01 1.095-.202-.949c-.337-1.582-1.283-3.267-2.546-4.538-3.65-3.673-9.455-3.671-13.127.005-1.268 1.27-2.187 2.913-2.534 4.533l-.204.95-.009-1.096c-.043-5.194 4.087-9.427 9.243-9.473.561-.005 1.48.087 2.041.205Zm-.298 4.675a7.117 7.117 0 0 1 5.327 6.919c0 .935-.004.946-.274.662-.151-.158-.452-.83-.668-1.492-.673-2.058-1.122-2.12-3.355-.463-1.908 1.416-2.39 1.673-3.828 2.042-.872.223-1.608.282-3.487.282h-2.382v-.99c0-4.645 4.3-8.098 8.667-6.96Zm-36.657.871c.682 0 1.492-.053 1.802-.119l.563-.119-.053 1.168c-.057 1.252-.252 1.672-1.056 2.273-.564.421-1.947.421-2.511 0-.804-.601-1-1.02-1.056-2.273l-.053-1.168.563.12c.31.065 1.12.118 1.801.118Zm-4.081 3.432c.266.643 1.192 1.537 2.072 1.998.666.35.938.405 2.01.405 1.07 0 1.343-.055 2.009-.405.88-.461 1.805-1.355 2.072-1.998.1-.242.241-.44.314-.44.272 0 7.653 3.417 8.228 3.81.854.582 1.493 1.363 2.012 2.46.442.935.453 1.01.503 3.473l.051 2.518H27.99V40.808h-2.332V45.48H9.33V40.808H6.997V45.48H2.304l.05-2.518c.051-2.47.06-2.536.51-3.484.525-1.112 1.268-1.994 2.14-2.54.67-.42 7.798-3.702 8.062-3.712.09-.004.246.191.346.433Zm44.386 5.188c.282.215.759.476 1.06.58l.546.187.041 2.087c.047 2.423-.094 3.263-.778 4.633-.869 1.738-2.567 3.085-4.539 3.599-3.635.948-7.45-1.377-8.428-5.138-.145-.557-.217-1.55-.217-2.98v-2.143l2.879-.07c3.188-.078 3.913-.216 5.649-1.072.56-.277 1.348-.757 1.749-1.066l.729-.564.398.778c.22.428.63.954.911 1.169ZM43.15 40.808v2.336h-2.332V38.473h2.332v2.335Zm20.992 0v2.336H61.81V38.473h2.332v2.335Zm-16.327 1.168v1.168h2.332v-2.336h-2.332v1.168Zm6.997 0v1.168h2.333v-2.336h-2.333v1.168Zm-46.342 8.4c-3.404.739-6.378 3.737-7.086 7.145-.276 1.327-.306 7.985-.04 8.886.236.802 1.444 2.011 2.244 2.248.355.105 1.496.177 2.784.177h2.184l2.97-2.335 2.97-2.335h6.021l2.958 2.335 2.957 2.335h2.183c2.685 0 3.15-.123 4.12-1.09 1.078-1.074 1.12-1.317 1.058-6.075-.051-3.898-.063-4.028-.44-5.071-.873-2.416-2.513-4.322-4.643-5.395-2.045-1.031-2.22-1.047-11.29-1.037-6.265.007-8.221.053-8.95.211Zm44.01 2.036c.681 0 1.492-.053 1.802-.119l.562-.119-.053 1.167c-.057 1.253-.251 1.672-1.055 2.273-.565.422-1.947.422-2.512 0-.804-.6-.998-1.02-1.055-2.273l-.053-1.167.562.119c.31.066 1.12.12 1.802.12Zm-26.319.297a7.121 7.121 0 0 1 5.11 5.132c.163.63.217 1.71.217 4.388v3.552l-.358.358c-.342.342-.437.358-2.15.351l-1.793-.006-2.55-2.035c-1.404-1.12-2.781-2.151-3.062-2.292-.433-.218-1.008-.264-3.79-.302-2.174-.03-3.484.012-3.885.124-.407.114-1.507.876-3.38 2.343l-2.775 2.175H5.98c-1.68 0-1.783-.017-2.123-.358l-.358-.358v-3.552c0-2.678.053-3.758.217-4.388.65-2.5 2.583-4.462 5.047-5.125 1.197-.322 16.167-.329 17.398-.008Zm-17.997 3.28v1.167H5.83v2.335h2.333v2.335h2.332v-2.335h2.332v-2.335h-2.332V54.82H8.164v1.168Zm5.83 0v1.167h2.333V54.82h-2.332v1.168Zm4.666 0v1.167h2.332V54.82H18.66v1.168Zm5.83 0v1.167h-2.332v2.335h2.333v2.335h2.332v-2.335h2.333v-2.335h-2.333V54.82h-2.332v1.168Zm23.909-.146c.266.644 1.192 1.537 2.072 1.999.666.35.938.404 2.009.404s1.343-.054 2.01-.404c.88-.462 1.805-1.355 2.071-1.999.1-.241.242-.439.315-.439.272 0 7.653 3.417 8.228 3.809.854.582 1.493 1.363 2.011 2.46.443.935.453 1.01.504 3.474l.05 2.518h-4.693V62.994h-2.332V67.665H44.316V62.994h-2.332V67.665H37.29l.051-2.518c.05-2.47.06-2.536.509-3.485.525-1.111 1.269-1.993 2.14-2.54.67-.42 7.799-3.701 8.063-3.712.09-.003.246.192.346.433Zm-21.576 2.48v1.168h-2.332v-2.335h2.332v1.167Z" fill="#6A6A6A"/></svg>