<svg width="63" height="70" fill="none" xmlns="http://www.w3.org/2000/svg"><mask id="path-1-outside-1_485_3347" maskUnits="userSpaceOnUse" x="-.359" y="0" width="63" height="70" fill="#000"><path fill="#fff" d="M-.359 0h63v70h-63z"/><path fill-rule="evenodd" clip-rule="evenodd" d="M23.348 1.283c-1.398.482-2.468 1.578-2.781 2.85-.076.308-.399.594-1.218 1.08-.613.363-1.605 1.16-2.205 1.77-1.718 1.75-2.702 3.643-3.145 6.054l-.235 1.277-1.031.19c-5.929 1.09-9.899 6.896-8.67 12.68.126.599.228 1.159.226 1.244-.002.086-.354.392-.782.682-.944.64-2.027 2.038-2.509 3.244-.3.75-.357 1.18-.357 2.68 0 2.1.28 2.995 1.402 4.486.517.685 2.013 1.948 2.519 2.126.02.006-.11.392-.288.858-.688 1.795-.526 4.056.423 5.925.922 1.815 3.059 3.429 5.1 3.852l.834.173-.07 1.898c-.085 2.31.154 3.493 1.09 5.395.524 1.066.922 1.594 2.062 2.737 1.175 1.177 1.643 1.527 2.781 2.077.845.408 1.872.758 2.684.915 1.253.243 1.323.278 1.479.748.616 1.857 2.838 3.116 4.753 2.692.423-.093 1.039-.347 1.37-.564l.6-.395.88.392c1.944.868 4.018.868 5.962 0l.878-.392.602.396c.33.218.956.472 1.39.565 1.923.41 4.117-.84 4.732-2.695.156-.469.226-.504 1.48-.747.811-.157 1.838-.507 2.683-.915 1.139-.55 1.607-.9 2.782-2.077 1.14-1.143 1.537-1.671 2.062-2.737.935-1.902 1.174-3.086 1.089-5.395l-.07-1.898.835-.173c2.04-.423 4.178-2.037 5.1-3.852.95-1.873 1.11-4.13.42-5.935-.198-.514-.265-.876-.17-.907.467-.156 1.872-1.378 2.439-2.121 1.081-1.42 1.367-2.345 1.367-4.432 0-1.5-.058-1.93-.358-2.68-.482-1.206-1.564-2.604-2.51-3.244-.427-.29-.779-.596-.78-.682-.003-.085.099-.645.226-1.243 1.228-5.787-2.749-11.593-8.691-12.685l-1.01-.186-.235-1.277c-.444-2.41-1.428-4.305-3.146-6.054-.6-.61-1.597-1.41-2.218-1.778-.965-.572-1.15-.752-1.284-1.25-.678-2.512-4.083-3.719-6.192-2.194l-.605.437-.568-.29c-1.9-.973-4.559-.973-6.459 0l-.568.29-.601-.435c-.547-.395-1.755-.776-2.424-.763-.145.003-.627.13-1.07.283Zm2.57 1.842c.586.433 1.117 1.262 1.117 1.744 0 .97 1.157 1.535 1.57.766.171-.32.12-1.318-.097-1.88-.104-.273.478-.596 1.464-.812l.49-.107-.001 5.49c0 3.48-.063 5.72-.17 6.114-.138.503-.723 1.177-3.07 3.534-2.617 2.63-2.975 2.934-3.694 3.143-1.826.53-2.878 1.837-3 3.727-.116 1.81.64 3.129 2.245 3.912.985.48 2.232.568 3.237.227.761-.259 1.88-1.273 2.32-2.102.47-.886.47-2.703 0-3.589-.356-.672-1.628-1.936-1.947-1.936-.105 0 .975-1.172 2.402-2.604 1.76-1.768 2.696-2.829 2.911-3.303.302-.663.318-.997.321-6.656l.004-5.957.489.107c.987.216 1.569.539 1.464.812-.217.562-.268 1.56-.097 1.88.413.77 1.57.205 1.57-.766 0-.482.531-1.31 1.118-1.744.232-.172.75-.336 1.168-.37a2.44 2.44 0 0 1 2.3 1.193c.303.513.324.826.368 5.455l.047 4.91-.672.257c-1.575.6-2.693 2.197-2.683 3.831.008 1.172.305 1.949 1.055 2.76.96 1.04 1.669 1.354 3.063 1.354 1.393 0 2.102-.313 3.062-1.353.763-.826 1.052-1.601 1.044-2.798-.012-1.628-1.155-3.255-2.646-3.766l-.604-.207-.041-3.9c-.025-2.295.017-3.9.101-3.9.079 0 .567.318 1.086.706 1.003.753 2.145 2.147 2.775 3.386.487.96.986 2.894.986 3.825 0 1.046.28 1.35 1.359 1.478.495.059 1.163.174 1.484.258l.584.15-.001 2.054c0 1.13-.078 2.333-.174 2.675-.138.5-.73 1.184-3.029 3.497-2.711 2.729-2.904 2.89-3.77 3.14-1.91.557-3.084 2.2-2.965 4.154.073 1.188.395 1.938 1.164 2.705.768.767 1.52 1.089 2.712 1.162 3.758.228 5.754-4.235 3.113-6.964-.305-.316-.695-.65-.867-.743-.284-.154-.096-.386 2.198-2.705 1.38-1.395 2.64-2.781 2.8-3.08.235-.439.307-1.008.373-2.93l.081-2.384.972.648c3.215 2.144 4.678 6.266 3.574 10.07-.218.753-.315 1.366-.245 1.555.064.172.439.474.833.67 2.13 1.062 3.475 3.71 3.05 6.01-.344 1.864-1.462 3.357-3.222 4.302-1.26.677-1.299.789-.708 2.069.274.591.497 1.262.497 1.49v.415H45.31l-.209-.632c-.514-1.556-2.146-2.683-3.89-2.686-2.32-.004-4.12 1.796-4.094 4.095.013 1.183.306 1.949 1.064 2.786C40.2 50 43.876 49.31 45.04 46.48l.297-.724 5.764.04 5.763.04-.05.389c-.029.213-.215.75-.415 1.192-.865 1.913-2.785 3.194-4.935 3.292-1.705.078-1.831.24-1.444 1.848.333 1.389.365 3.16.078 4.392-.814 3.493-3.913 6.402-7.372 6.92l-.737.11v-1.581l.773-.332c.93-.4 2.062-1.558 2.351-2.406.115-.337.206-.997.203-1.468-.02-2.772-2.622-4.645-5.388-3.878-1.577.437-2.828 2.176-2.825 3.926.004 1.71.899 3.056 2.527 3.804l.835.383-.059 1.575c-.048 1.315-.118 1.671-.422 2.162-.716 1.155-2.396 1.535-3.426.774-.581-.43-1.112-1.26-1.112-1.74 0-.623-.41-1.1-.946-1.1-.625 0-.85.5-.678 1.504.071.413.133.816.137.895.015.297-1.548.697-2.718.697s-2.734-.4-2.719-.697c.005-.08.066-.482.137-.895.172-1.004-.053-1.503-.677-1.503-.522 0-.947.472-.947 1.052 0 .522-.38 1.178-.968 1.672l-.512.43-.043-8.999c-.024-4.95 0-9.173.05-9.387.146-.604 5.931-6.336 6.524-6.463 1.25-.27 2.667-1.493 3.06-2.643.465-1.365.123-3.065-.847-4.21-1.286-1.518-3.913-1.737-5.584-.465-1.435 1.092-2 3.295-1.26 4.921.336.743 1.302 1.798 1.783 1.95.16.05.29.14.29.2s-1.127 1.226-2.504 2.593-2.656 2.765-2.843 3.106c-.336.617-.34.7-.383 9.993l-.043 9.37-.474-.278c-.602-.353-1.032-1.046-1.165-1.875-.057-.358-.183-.714-.28-.791-.096-.078-.759-.218-1.472-.312-.714-.095-1.362-.212-1.441-.26-.083-.052-.144-2.454-.144-5.728v-5.64l.601-.18c.876-.26 1.942-1.268 2.353-2.221.277-.643.337-1.021.287-1.833-.073-1.188-.395-1.939-1.164-2.705-.768-.767-1.52-1.09-2.711-1.162-3.206-.195-5.298 3.09-3.822 6 .46.903 1.045 1.434 2.029 1.837l.713.293v5.246c0 2.885-.046 5.245-.102 5.245-.316 0-1.735-1.098-2.483-1.922-2.095-2.308-2.809-5.423-1.969-8.6.353-1.335.169-1.536-1.49-1.631-2.177-.126-3.946-1.284-4.892-3.2-.475-.964-.512-1.149-.512-2.595 0-1.47.03-1.617.54-2.614.643-1.258.604-1.377-.673-2.063-1.76-.945-2.878-2.438-3.222-4.302-.425-2.3.92-4.948 3.05-6.01.394-.196.769-.498.833-.67.07-.19-.026-.802-.245-1.555-.943-3.25-.075-6.644 2.297-8.98.564-.555 1.319-1.171 1.676-1.369l.65-.36.004 3.857c.003 3.545.03 3.913.321 4.555.216.475 1.15 1.535 2.911 3.303 1.427 1.433 2.508 2.604 2.402 2.604-.32 0-1.59 1.265-1.947 1.936-.471.887-.47 2.703 0 3.59 1.123 2.115 3.523 2.906 5.601 1.846 1.595-.814 2.342-2.198 2.193-4.062-.137-1.727-1.246-3.042-2.992-3.549-.72-.208-1.077-.512-3.695-3.143-2.345-2.357-2.93-3.03-3.068-3.534-.1-.367-.17-2.133-.17-4.307l-.002-3.685.585-.151c.32-.084.989-.2 1.483-.258 1.094-.13 1.358-.429 1.362-1.542.007-2.507 1.64-5.618 3.765-7.175.45-.33 1.237-.81 1.747-1.067.893-.448.936-.497 1.11-1.272.23-1.033.557-1.52 1.282-1.913.724-.393 1.893-.342 2.502.108Zm16.66 13.286c2.017 1.238 1.027 4.479-1.368 4.479-1.812 0-3.021-1.932-2.207-3.524.691-1.352 2.248-1.768 3.574-.955Zm-16.66 6.609c1.483 1.096 1.494 3.029.023 4.116-1.012.747-2.656.416-3.384-.68-1.138-1.717.162-3.976 2.192-3.807.418.035.936.2 1.168.37Zm19.75 6.515c.73.346 1.185 1.04 1.272 1.942.126 1.308-.557 2.28-1.843 2.626-1.71.46-3.421-1.223-2.963-2.914.44-1.622 2.03-2.366 3.533-1.654ZM19.08 32.853c1.765.898 1.745 3.473-.033 4.379-1.58.804-3.54-.386-3.54-2.151 0-1.905 1.891-3.084 3.573-2.228Zm13.584 3.504c1.045.68 1.36 2.35.63 3.336-.519.699-1.258 1.092-2.054 1.092-1.809 0-3.021-1.932-2.21-3.52.38-.744.62-.956 1.39-1.237.73-.266 1.505-.152 2.244.329Zm9.53 6.35c1.6.666 1.991 2.76.746 4.002-1.75 1.746-4.617.182-4.157-2.267.275-1.464 1.982-2.332 3.412-1.736Zm-23.58 3.204c1.24.355 2.05 1.74 1.724 2.949-.346 1.283-1.321 1.964-2.632 1.839-1.34-.129-2.199-1.084-2.199-2.446 0-1.099.574-1.882 1.665-2.27.73-.26.778-.262 1.442-.072Zm24.02 10.34c1.044.68 1.36 2.351.628 3.337-.518.698-1.257 1.091-2.053 1.091-1.809 0-3.021-1.931-2.21-3.519.38-.744.62-.956 1.39-1.237.73-.266 1.505-.153 2.244.329Z"/></mask><path fill-rule="evenodd" clip-rule="evenodd" d="M23.348 1.283c-1.398.482-2.468 1.578-2.781 2.85-.076.308-.399.594-1.218 1.08-.613.363-1.605 1.16-2.205 1.77-1.718 1.75-2.702 3.643-3.145 6.054l-.235 1.277-1.031.19c-5.929 1.09-9.899 6.896-8.67 12.68.126.599.228 1.159.226 1.244-.002.086-.354.392-.782.682-.944.64-2.027 2.038-2.509 3.244-.3.75-.357 1.18-.357 2.68 0 2.1.28 2.995 1.402 4.486.517.685 2.013 1.948 2.519 2.126.02.006-.11.392-.288.858-.688 1.795-.526 4.056.423 5.925.922 1.815 3.059 3.429 5.1 3.852l.834.173-.07 1.898c-.085 2.31.154 3.493 1.09 5.395.524 1.066.922 1.594 2.062 2.737 1.175 1.177 1.643 1.527 2.781 2.077.845.408 1.872.758 2.684.915 1.253.243 1.323.278 1.479.748.616 1.857 2.838 3.116 4.753 2.692.423-.093 1.039-.347 1.37-.564l.6-.395.88.392c1.944.868 4.018.868 5.962 0l.878-.392.602.396c.33.218.956.472 1.39.565 1.923.41 4.117-.84 4.732-2.695.156-.469.226-.504 1.48-.747.811-.157 1.838-.507 2.683-.915 1.139-.55 1.607-.9 2.782-2.077 1.14-1.143 1.537-1.671 2.062-2.737.935-1.902 1.174-3.086 1.089-5.395l-.07-1.898.835-.173c2.04-.423 4.178-2.037 5.1-3.852.95-1.873 1.11-4.13.42-5.935-.198-.514-.265-.876-.17-.907.467-.156 1.872-1.378 2.439-2.121 1.081-1.42 1.367-2.345 1.367-4.432 0-1.5-.058-1.93-.358-2.68-.482-1.206-1.564-2.604-2.51-3.244-.427-.29-.779-.596-.78-.682-.003-.085.099-.645.226-1.243 1.228-5.787-2.749-11.593-8.691-12.685l-1.01-.186-.235-1.277c-.444-2.41-1.428-4.305-3.146-6.054-.6-.61-1.597-1.41-2.218-1.778-.965-.572-1.15-.752-1.284-1.25-.678-2.512-4.083-3.719-6.192-2.194l-.605.437-.568-.29c-1.9-.973-4.559-.973-6.459 0l-.568.29-.601-.435c-.547-.395-1.755-.776-2.424-.763-.145.003-.627.13-1.07.283Zm2.57 1.842c.586.433 1.117 1.262 1.117 1.744 0 .97 1.157 1.535 1.57.766.171-.32.12-1.318-.097-1.88-.104-.273.478-.596 1.464-.812l.49-.107-.001 5.49c0 3.48-.063 5.72-.17 6.114-.138.503-.723 1.177-3.07 3.534-2.617 2.63-2.975 2.934-3.694 3.143-1.826.53-2.878 1.837-3 3.727-.116 1.81.64 3.129 2.245 3.912.985.48 2.232.568 3.237.227.761-.259 1.88-1.273 2.32-2.102.47-.886.47-2.703 0-3.589-.356-.672-1.628-1.936-1.947-1.936-.105 0 .975-1.172 2.402-2.604 1.76-1.768 2.696-2.829 2.911-3.303.302-.663.318-.997.321-6.656l.004-5.957.489.107c.987.216 1.569.539 1.464.812-.217.562-.268 1.56-.097 1.88.413.77 1.57.205 1.57-.766 0-.482.531-1.31 1.118-1.744.232-.172.75-.336 1.168-.37a2.44 2.44 0 0 1 2.3 1.193c.303.513.324.826.368 5.455l.047 4.91-.672.257c-1.575.6-2.693 2.197-2.683 3.831.008 1.172.305 1.949 1.055 2.76.96 1.04 1.669 1.354 3.063 1.354 1.393 0 2.102-.313 3.062-1.353.763-.826 1.052-1.601 1.044-2.798-.012-1.628-1.155-3.255-2.646-3.766l-.604-.207-.041-3.9c-.025-2.295.017-3.9.101-3.9.079 0 .567.318 1.086.706 1.003.753 2.145 2.147 2.775 3.386.487.96.986 2.894.986 3.825 0 1.046.28 1.35 1.359 1.478.495.059 1.163.174 1.484.258l.584.15-.001 2.054c0 1.13-.078 2.333-.174 2.675-.138.5-.73 1.184-3.029 3.497-2.711 2.729-2.904 2.89-3.77 3.14-1.91.557-3.084 2.2-2.965 4.154.073 1.188.395 1.938 1.164 2.705.768.767 1.52 1.089 2.712 1.162 3.758.228 5.754-4.235 3.113-6.964-.305-.316-.695-.65-.867-.743-.284-.154-.096-.386 2.198-2.705 1.38-1.395 2.64-2.781 2.8-3.08.235-.439.307-1.008.373-2.93l.081-2.384.972.648c3.215 2.144 4.678 6.266 3.574 10.07-.218.753-.315 1.366-.245 1.555.064.172.439.474.833.67 2.13 1.062 3.475 3.71 3.05 6.01-.344 1.864-1.462 3.357-3.222 4.302-1.26.677-1.299.789-.708 2.069.274.591.497 1.262.497 1.49v.415H45.31l-.209-.632c-.514-1.556-2.146-2.683-3.89-2.686-2.32-.004-4.12 1.796-4.094 4.095.013 1.183.306 1.949 1.064 2.786C40.2 50 43.876 49.31 45.04 46.48l.297-.724 5.764.04 5.763.04-.05.389c-.029.213-.215.75-.415 1.192-.865 1.913-2.785 3.194-4.935 3.292-1.705.078-1.831.24-1.444 1.848.333 1.389.365 3.16.078 4.392-.814 3.493-3.913 6.402-7.372 6.92l-.737.11v-1.581l.773-.332c.93-.4 2.062-1.558 2.351-2.406.115-.337.206-.997.203-1.468-.02-2.772-2.622-4.645-5.388-3.878-1.577.437-2.828 2.176-2.825 3.926.004 1.71.899 3.056 2.527 3.804l.835.383-.059 1.575c-.048 1.315-.118 1.671-.422 2.162-.716 1.155-2.396 1.535-3.426.774-.581-.43-1.112-1.26-1.112-1.74 0-.623-.41-1.1-.946-1.1-.625 0-.85.5-.678 1.504.071.413.133.816.137.895.015.297-1.548.697-2.718.697s-2.734-.4-2.719-.697c.005-.08.066-.482.137-.895.172-1.004-.053-1.503-.677-1.503-.522 0-.947.472-.947 1.052 0 .522-.38 1.178-.968 1.672l-.512.43-.043-8.999c-.024-4.95 0-9.173.05-9.387.146-.604 5.931-6.336 6.524-6.463 1.25-.27 2.667-1.493 3.06-2.643.465-1.365.123-3.065-.847-4.21-1.286-1.518-3.913-1.737-5.584-.465-1.435 1.092-2 3.295-1.26 4.921.336.743 1.302 1.798 1.783 1.95.16.05.29.14.29.2s-1.127 1.226-2.504 2.593-2.656 2.765-2.843 3.106c-.336.617-.34.7-.383 9.993l-.043 9.37-.474-.278c-.602-.353-1.032-1.046-1.165-1.875-.057-.358-.183-.714-.28-.791-.096-.078-.759-.218-1.472-.312-.714-.095-1.362-.212-1.441-.26-.083-.052-.144-2.454-.144-5.728v-5.64l.601-.18c.876-.26 1.942-1.268 2.353-2.221.277-.643.337-1.021.287-1.833-.073-1.188-.395-1.939-1.164-2.705-.768-.767-1.52-1.09-2.711-1.162-3.206-.195-5.298 3.09-3.822 6 .46.903 1.045 1.434 2.029 1.837l.713.293v5.246c0 2.885-.046 5.245-.102 5.245-.316 0-1.735-1.098-2.483-1.922-2.095-2.308-2.809-5.423-1.969-8.6.353-1.335.169-1.536-1.49-1.631-2.177-.126-3.946-1.284-4.892-3.2-.475-.964-.512-1.149-.512-2.595 0-1.47.03-1.617.54-2.614.643-1.258.604-1.377-.673-2.063-1.76-.945-2.878-2.438-3.222-4.302-.425-2.3.92-4.948 3.05-6.01.394-.196.769-.498.833-.67.07-.19-.026-.802-.245-1.555-.943-3.25-.075-6.644 2.297-8.98.564-.555 1.319-1.171 1.676-1.369l.65-.36.004 3.857c.003 3.545.03 3.913.321 4.555.216.475 1.15 1.535 2.911 3.303 1.427 1.433 2.508 2.604 2.402 2.604-.32 0-1.59 1.265-1.947 1.936-.471.887-.47 2.703 0 3.59 1.123 2.115 3.523 2.906 5.601 1.846 1.595-.814 2.342-2.198 2.193-4.062-.137-1.727-1.246-3.042-2.992-3.549-.72-.208-1.077-.512-3.695-3.143-2.345-2.357-2.93-3.03-3.068-3.534-.1-.367-.17-2.133-.17-4.307l-.002-3.685.585-.151c.32-.084.989-.2 1.483-.258 1.094-.13 1.358-.429 1.362-1.542.007-2.507 1.64-5.618 3.765-7.175.45-.33 1.237-.81 1.747-1.067.893-.448.936-.497 1.11-1.272.23-1.033.557-1.52 1.282-1.913.724-.393 1.893-.342 2.502.108Zm16.66 13.286c2.017 1.238 1.027 4.479-1.368 4.479-1.812 0-3.021-1.932-2.207-3.524.691-1.352 2.248-1.768 3.574-.955Zm-16.66 6.609c1.483 1.096 1.494 3.029.023 4.116-1.012.747-2.656.416-3.384-.68-1.138-1.717.162-3.976 2.192-3.807.418.035.936.2 1.168.37Zm19.75 6.515c.73.346 1.185 1.04 1.272 1.942.126 1.308-.557 2.28-1.843 2.626-1.71.46-3.421-1.223-2.963-2.914.44-1.622 2.03-2.366 3.533-1.654ZM19.08 32.853c1.765.898 1.745 3.473-.033 4.379-1.58.804-3.54-.386-3.54-2.151 0-1.905 1.891-3.084 3.573-2.228Zm13.584 3.504c1.045.68 1.36 2.35.63 3.336-.519.699-1.258 1.092-2.054 1.092-1.809 0-3.021-1.932-2.21-3.52.38-.744.62-.956 1.39-1.237.73-.266 1.505-.152 2.244.329Zm9.53 6.35c1.6.666 1.991 2.76.746 4.002-1.75 1.746-4.617.182-4.157-2.267.275-1.464 1.982-2.332 3.412-1.736Zm-23.58 3.204c1.24.355 2.05 1.74 1.724 2.949-.346 1.283-1.321 1.964-2.632 1.839-1.34-.129-2.199-1.084-2.199-2.446 0-1.099.574-1.882 1.665-2.27.73-.26.778-.262 1.442-.072Zm24.02 10.34c1.044.68 1.36 2.351.628 3.337-.518.698-1.257 1.091-2.053 1.091-1.809 0-3.021-1.931-2.21-3.519.38-.744.62-.956 1.39-1.237.73-.266 1.505-.153 2.244.329Z" fill="#fff"/><path clip-rule="evenodd" d="M23.348 1.283c-1.398.482-2.468 1.578-2.781 2.85-.076.308-.399.594-1.218 1.08-.613.363-1.605 1.16-2.205 1.77-1.718 1.75-2.702 3.643-3.145 6.054l-.235 1.277-1.031.19c-5.929 1.09-9.899 6.896-8.67 12.68.126.599.228 1.159.226 1.244-.002.086-.354.392-.782.682-.944.64-2.027 2.038-2.509 3.244-.3.75-.357 1.18-.357 2.68 0 2.1.28 2.995 1.402 4.486.517.685 2.013 1.948 2.519 2.126.02.006-.11.392-.288.858-.688 1.795-.526 4.056.423 5.925.922 1.815 3.059 3.429 5.1 3.852l.834.173-.07 1.898c-.085 2.31.154 3.493 1.09 5.395.524 1.066.922 1.594 2.062 2.737 1.175 1.177 1.643 1.527 2.781 2.077.845.408 1.872.758 2.684.915 1.253.243 1.323.278 1.479.748.616 1.857 2.838 3.116 4.753 2.692.423-.093 1.039-.347 1.37-.564l.6-.395.88.392c1.944.868 4.018.868 5.962 0l.878-.392.602.396c.33.218.956.472 1.39.565 1.923.41 4.117-.84 4.732-2.695.156-.469.226-.504 1.48-.747.811-.157 1.838-.507 2.683-.915 1.139-.55 1.607-.9 2.782-2.077 1.14-1.143 1.537-1.671 2.062-2.737.935-1.902 1.174-3.086 1.089-5.395l-.07-1.898.835-.173c2.04-.423 4.178-2.037 5.1-3.852.95-1.873 1.11-4.13.42-5.935-.198-.514-.265-.876-.17-.907.467-.156 1.872-1.378 2.439-2.121 1.081-1.42 1.367-2.345 1.367-4.432 0-1.5-.058-1.93-.358-2.68-.482-1.206-1.564-2.604-2.51-3.244-.427-.29-.779-.596-.78-.682-.003-.085.099-.645.226-1.243 1.228-5.787-2.749-11.593-8.691-12.685l-1.01-.186-.235-1.277c-.444-2.41-1.428-4.305-3.146-6.054-.6-.61-1.597-1.41-2.218-1.778-.965-.572-1.15-.752-1.284-1.25-.678-2.512-4.083-3.719-6.192-2.194l-.605.437-.568-.29c-1.9-.973-4.559-.973-6.459 0l-.568.29-.601-.435c-.547-.395-1.755-.776-2.424-.763-.145.003-.627.13-1.07.283Zm2.57 1.842c.586.433 1.117 1.262 1.117 1.744 0 .97 1.157 1.535 1.57.766.171-.32.12-1.318-.097-1.88-.104-.273.478-.596 1.464-.812l.49-.107-.001 5.49c0 3.48-.063 5.72-.17 6.114-.138.503-.723 1.177-3.07 3.534-2.617 2.63-2.975 2.934-3.694 3.143-1.826.53-2.878 1.837-3 3.727-.116 1.81.64 3.129 2.245 3.912.985.48 2.232.568 3.237.227.761-.259 1.88-1.273 2.32-2.102.47-.886.47-2.703 0-3.589-.356-.672-1.628-1.936-1.947-1.936-.105 0 .975-1.172 2.402-2.604 1.76-1.768 2.696-2.829 2.911-3.303.302-.663.318-.997.321-6.656l.004-5.957.489.107c.987.216 1.569.539 1.464.812-.217.562-.268 1.56-.097 1.88.413.77 1.57.205 1.57-.766 0-.482.531-1.31 1.118-1.744.232-.172.75-.336 1.168-.37a2.44 2.44 0 0 1 2.3 1.193c.303.513.324.826.368 5.455l.047 4.91-.672.257c-1.575.6-2.693 2.197-2.683 3.831.008 1.172.305 1.949 1.055 2.76.96 1.04 1.669 1.354 3.063 1.354 1.393 0 2.102-.313 3.062-1.353.763-.826 1.052-1.601 1.044-2.798-.012-1.628-1.155-3.255-2.646-3.766l-.604-.207-.041-3.9c-.025-2.295.017-3.9.101-3.9.079 0 .567.318 1.086.706 1.003.753 2.145 2.147 2.775 3.386.487.96.986 2.894.986 3.825 0 1.046.28 1.35 1.359 1.478.495.059 1.163.174 1.484.258l.584.15-.001 2.054c0 1.13-.078 2.333-.174 2.675-.138.5-.73 1.184-3.029 3.497-2.711 2.729-2.904 2.89-3.77 3.14-1.91.557-3.084 2.2-2.965 4.154.073 1.188.395 1.938 1.164 2.705.768.767 1.52 1.089 2.712 1.162 3.758.228 5.754-4.235 3.113-6.964-.305-.316-.695-.65-.867-.743-.284-.154-.096-.386 2.198-2.705 1.38-1.395 2.64-2.781 2.8-3.08.235-.439.307-1.008.373-2.93l.081-2.384.972.648c3.215 2.144 4.678 6.266 3.574 10.07-.218.753-.315 1.366-.245 1.555.064.172.439.474.833.67 2.13 1.062 3.475 3.71 3.05 6.01-.344 1.864-1.462 3.357-3.222 4.302-1.26.677-1.299.789-.708 2.069.274.591.497 1.262.497 1.49v.415H45.31l-.209-.632c-.514-1.556-2.146-2.683-3.89-2.686-2.32-.004-4.12 1.796-4.094 4.095.013 1.183.306 1.949 1.064 2.786C40.2 50 43.876 49.31 45.04 46.48l.297-.724 5.764.04 5.763.04-.05.389c-.029.213-.215.75-.415 1.192-.865 1.913-2.785 3.194-4.935 3.292-1.705.078-1.831.24-1.444 1.848.333 1.389.365 3.16.078 4.392-.814 3.493-3.913 6.402-7.372 6.92l-.737.11v-1.581l.773-.332c.93-.4 2.062-1.558 2.351-2.406.115-.337.206-.997.203-1.468-.02-2.772-2.622-4.645-5.388-3.878-1.577.437-2.828 2.176-2.825 3.926.004 1.71.899 3.056 2.527 3.804l.835.383-.059 1.575c-.048 1.315-.118 1.671-.422 2.162-.716 1.155-2.396 1.535-3.426.774-.581-.43-1.112-1.26-1.112-1.74 0-.623-.41-1.1-.946-1.1-.625 0-.85.5-.678 1.504.071.413.133.816.137.895.015.297-1.548.697-2.718.697s-2.734-.4-2.719-.697c.005-.08.066-.482.137-.895.172-1.004-.053-1.503-.677-1.503-.522 0-.947.472-.947 1.052 0 .522-.38 1.178-.968 1.672l-.512.43-.043-8.999c-.024-4.95 0-9.173.05-9.387.146-.604 5.931-6.336 6.524-6.463 1.25-.27 2.667-1.493 3.06-2.643.465-1.365.123-3.065-.847-4.21-1.286-1.518-3.913-1.737-5.584-.465-1.435 1.092-2 3.295-1.26 4.921.336.743 1.302 1.798 1.783 1.95.16.05.29.14.29.2s-1.127 1.226-2.504 2.593-2.656 2.765-2.843 3.106c-.336.617-.34.7-.383 9.993l-.043 9.37-.474-.278c-.602-.353-1.032-1.046-1.165-1.875-.057-.358-.183-.714-.28-.791-.096-.078-.759-.218-1.472-.312-.714-.095-1.362-.212-1.441-.26-.083-.052-.144-2.454-.144-5.728v-5.64l.601-.18c.876-.26 1.942-1.268 2.353-2.221.277-.643.337-1.021.287-1.833-.073-1.188-.395-1.939-1.164-2.705-.768-.767-1.52-1.09-2.711-1.162-3.206-.195-5.298 3.09-3.822 6 .46.903 1.045 1.434 2.029 1.837l.713.293v5.246c0 2.885-.046 5.245-.102 5.245-.316 0-1.735-1.098-2.483-1.922-2.095-2.308-2.809-5.423-1.969-8.6.353-1.335.169-1.536-1.49-1.631-2.177-.126-3.946-1.284-4.892-3.2-.475-.964-.512-1.149-.512-2.595 0-1.47.03-1.617.54-2.614.643-1.258.604-1.377-.673-2.063-1.76-.945-2.878-2.438-3.222-4.302-.425-2.3.92-4.948 3.05-6.01.394-.196.769-.498.833-.67.07-.19-.026-.802-.245-1.555-.943-3.25-.075-6.644 2.297-8.98.564-.555 1.319-1.171 1.676-1.369l.65-.36.004 3.857c.003 3.545.03 3.913.321 4.555.216.475 1.15 1.535 2.911 3.303 1.427 1.433 2.508 2.604 2.402 2.604-.32 0-1.59 1.265-1.947 1.936-.471.887-.47 2.703 0 3.59 1.123 2.115 3.523 2.906 5.601 1.846 1.595-.814 2.342-2.198 2.193-4.062-.137-1.727-1.246-3.042-2.992-3.549-.72-.208-1.077-.512-3.695-3.143-2.345-2.357-2.93-3.03-3.068-3.534-.1-.367-.17-2.133-.17-4.307l-.002-3.685.585-.151c.32-.084.989-.2 1.483-.258 1.094-.13 1.358-.429 1.362-1.542.007-2.507 1.64-5.618 3.765-7.175.45-.33 1.237-.81 1.747-1.067.893-.448.936-.497 1.11-1.272.23-1.033.557-1.52 1.282-1.913.724-.393 1.893-.342 2.502.108Zm16.66 13.286c2.017 1.238 1.027 4.479-1.368 4.479-1.812 0-3.021-1.932-2.207-3.524.691-1.352 2.248-1.768 3.574-.955Zm-16.66 6.609c1.483 1.096 1.494 3.029.023 4.116-1.012.747-2.656.416-3.384-.68-1.138-1.717.162-3.976 2.192-3.807.418.035.936.2 1.168.37Zm19.75 6.515c.73.346 1.185 1.04 1.272 1.942.126 1.308-.557 2.28-1.843 2.626-1.71.46-3.421-1.223-2.963-2.914.44-1.622 2.03-2.366 3.533-1.654ZM19.08 32.853c1.765.898 1.745 3.473-.033 4.379-1.58.804-3.54-.386-3.54-2.151 0-1.905 1.891-3.084 3.573-2.228Zm13.584 3.504c1.045.68 1.36 2.35.63 3.336-.519.699-1.258 1.092-2.054 1.092-1.809 0-3.021-1.932-2.21-3.52.38-.744.62-.956 1.39-1.237.73-.266 1.505-.152 2.244.329Zm9.53 6.35c1.6.666 1.991 2.76.746 4.002-1.75 1.746-4.617.182-4.157-2.267.275-1.464 1.982-2.332 3.412-1.736Zm-23.58 3.204c1.24.355 2.05 1.74 1.724 2.949-.346 1.283-1.321 1.964-2.632 1.839-1.34-.129-2.199-1.084-2.199-2.446 0-1.099.574-1.882 1.665-2.27.73-.26.778-.262 1.442-.072Zm24.02 10.34c1.044.68 1.36 2.351.628 3.337-.518.698-1.257 1.091-2.053 1.091-1.809 0-3.021-1.931-2.21-3.519.38-.744.62-.956 1.39-1.237.73-.266 1.505-.153 2.244.329Z" stroke="#fff" mask="url('#path-1-outside-1_485_3347')"/></svg>