<svg width="70" height="68" fill="none" xmlns="http://www.w3.org/2000/svg"><path fill-rule="evenodd" clip-rule="evenodd" d="M28.553.492c-.455.171-6.664 3.79-6.968 4.06-.44.391-.701 1.049-.7 1.757 0 .477.19.917 1.011 2.356l1.011 1.77-.518.763c-.286.42-.723 1.179-.973 1.687l-.454.924h-1.947c-2.09 0-2.5.087-3.112.66-.74.692-.77.898-.768 5.257.002 3.896.01 4.024.308 4.544.584 1.02.802 1.1 3.278 1.176l2.201.069.502.958c.276.527.723 1.287.994 1.689l.492.73-.964 1.665c-1.171 2.022-1.313 2.72-.75 3.68.31.526.697.791 3.746 2.561 2.758 1.6 3.524 1.986 4.046 2.036 1.363.131 1.799-.212 3.058-2.408l.932-1.625H36.993l.932 1.623c1.262 2.194 1.705 2.542 3.063 2.409.507-.05 1.236-.404 3.45-1.675 3.87-2.223 4.011-2.318 4.372-2.96.597-1.061.361-1.822-1.503-4.859l-.257-.42.501-.743c.276-.41.728-1.176 1.004-1.703l.501-.958 2.176-.069c2.002-.063 2.212-.094 2.625-.388.246-.176.57-.558.718-.85.252-.493.271-.816.271-4.497 0-2.47-.055-4.113-.145-4.353-.199-.524-.79-1.132-1.322-1.36-.306-.131-1.042-.189-2.408-.189h-1.966l-.332-.715c-.183-.393-.617-1.154-.966-1.69l-.634-.976.96-1.677c1.026-1.79 1.218-2.471.938-3.322a2.35 2.35 0 0 0-.53-.823c-.206-.192-1.851-1.199-3.657-2.236C41.062.232 40.728.123 39.645.699c-.539.287-.744.546-1.643 2.077l-1.027 1.75-1.986.001-1.985.002-.754-1.284C30.983 1.085 30.897.973 30.285.676c-.56-.271-1.294-.35-1.732-.184Zm1.824 4.182c1.284 2.26 1.394 2.367 2.328 2.29.915-.077 3.654-.077 4.57 0 .927.077 1.04-.032 2.26-2.18.536-.947 1.03-1.792 1.096-1.878.084-.11 1.008.356 3.093 1.56 1.636.944 2.993 1.731 3.016 1.75.022.018-.49.948-1.137 2.067-.902 1.56-1.162 2.12-1.11 2.396.038.198.374.763.746 1.254.66.87 1.801 2.97 1.801 3.31 0 .093.152.332.336.531l.336.363h4.806v6.982l-2.225.002c-2.392.002-2.774.087-3.072.684-.093.188-.416.852-.718 1.476a17.08 17.08 0 0 1-1.317 2.188c-.599.82-.753 1.131-.698 1.406.039.195.567 1.212 1.175 2.262.946 1.634 1.074 1.93.896 2.061-.434.32-5.827 3.373-5.87 3.322-.025-.029-.555-.936-1.177-2.014-.69-1.197-1.252-2.017-1.441-2.102-.214-.098-.737-.095-1.688.008-1.005.11-1.771.11-2.823-.002-1.23-.13-1.49-.122-1.753.053-.17.112-.803 1.075-1.405 2.138-.792 1.397-1.152 1.913-1.297 1.859-.11-.042-1.48-.817-3.045-1.724-2.697-1.563-2.836-1.663-2.688-1.944.085-.162.588-1.035 1.116-1.938.613-1.05.962-1.796.965-2.066.004-.302-.2-.694-.707-1.369-.391-.52-.96-1.47-1.264-2.11-.859-1.808-.874-1.834-1.233-2.015-.228-.116-1.059-.172-2.563-.173l-2.226-.002v-6.982l2.363-.005c1.652-.003 2.429-.055 2.583-.172.122-.093.527-.815.901-1.605s.998-1.854 1.387-2.365c.389-.512.746-1.084.793-1.273.068-.27-.17-.786-1.113-2.418-.66-1.142-1.144-2.097-1.078-2.124.067-.026 1.416-.804 2.997-1.729 1.582-.924 2.915-1.661 2.962-1.638.047.024.552.864 1.122 1.866Zm2.558 4.688c-2.723.557-5.209 2.236-6.715 4.538-3.985 6.091-.737 14.25 6.368 15.994 1.263.31 3.54.31 4.803 0 4.428-1.087 7.65-4.836 8.074-9.394.18-1.94-.407-4.466-1.448-6.23-.604-1.025-2.575-3-3.58-3.59-2.307-1.352-5.01-1.827-7.502-1.318Zm3.766 2.326c2.789.585 5.147 2.72 6.047 5.475.485 1.483.517 3.396.081 4.792-.827 2.649-2.846 4.679-5.467 5.495-1.008.315-1.302.347-2.677.294-1.127-.043-1.764-.139-2.357-.355-3.855-1.408-6.136-5.33-5.358-9.215.345-1.718 1.03-2.998 2.264-4.23 2.067-2.061 4.66-2.845 7.467-2.256Zm-3.218 2.34c-2.823.756-4.715 3.64-4.256 6.49.303 1.88 1.566 3.577 3.287 4.42.855.418.98.44 2.475.44 1.496 0 1.62-.023 2.475-.44 2.304-1.128 3.662-3.644 3.283-6.086-.542-3.491-3.902-5.722-7.264-4.823Zm2.543 2.31a3.405 3.405 0 0 1 2.42 3.285c-.004 1.107-.336 1.868-1.13 2.581-.953.857-2.165 1.13-3.445.774-.734-.204-1.825-1.242-2.122-2.02-.717-1.874.287-4.034 2.145-4.61.81-.252 1.312-.254 2.132-.01ZM2.285 36.248c-.823.284-1.552.916-1.989 1.725L0 38.52v26.56l.374.636c.206.35.575.805.822 1.013.895.754 1.147.801 4.645.857 3.713.059 4.434-.038 5.472-.736l.697-.47 15.085-.002c16.641-.003 16.09.024 17.956-.865 1.386-.661 22.75-13.68 23.513-14.329a4.55 4.55 0 0 0 1.027-1.333c.507-1.032.548-2.621.093-3.612-.728-1.585-2.255-2.584-3.948-2.584-.887 0-1.78.274-12.262 3.764-11.813 3.934-12.772 4.2-12.502 3.457.06-.17.111-.893.111-1.609 0-1.181-.04-1.386-.442-2.233-.552-1.167-1.819-2.512-2.913-3.095-1.566-.834-1.722-.856-6.779-.963-3.894-.083-4.779-.139-5.409-.342-1.103-.355-2.26-.97-3.424-1.816-2.304-1.678-4.309-2.339-7.477-2.462l-2.068-.08-.255-.474c-.14-.261-.501-.685-.802-.942-.907-.776-1.485-.873-5.205-.868-2.835.004-3.398.04-4.024.256Zm7.811 2.447.312.312.036 12.557c.028 9.461-.003 12.654-.126 12.95-.281.68-.747.771-3.95.771-3.066 0-3.658-.1-3.96-.664-.103-.192-.148-4.105-.148-12.85 0-13.675-.037-13.003.733-13.324.162-.067 1.756-.109 3.543-.093 3.179.029 3.255.036 3.56.341Zm7.139 2.296c1.245.334 2.242.825 3.44 1.692 1.52 1.101 2.392 1.567 3.906 2.086l1.302.446 4.656.086c4.38.08 4.702.103 5.437.39 1.014.397 2.053 1.34 2.514 2.282.309.63.357.882.31 1.616-.032.51-.153 1.02-.293 1.233l-.237.362h-3.95c-4.43 0-5.655.138-7.4.835-1.05.42-2.868 1.475-3.323 1.929-.368.368-.324 1.143.088 1.555.502.502 1.01.434 2.117-.282 1.066-.69 1.835-1.045 2.994-1.385.666-.196 1.793-.244 7.494-.32l6.71-.09 11.092-3.722c7.356-2.469 11.281-3.722 11.654-3.722 1.535 0 2.506 1.897 1.602 3.13-.243.331-21.09 13.167-22.942 14.126-1.612.834-1.119.81-17.051.813l-14.55.002V40.6l1.814.088c.998.048 2.175.184 2.616.303Z" fill="#6A6A6A"/></svg>