<svg width="70" height="70" fill="none" xmlns="http://www.w3.org/2000/svg"><path fill-rule="evenodd" clip-rule="evenodd" d="m10.103 5.645.036 5.645 2.842.037 2.842.037v6.7h11.232v12.454H29.384V15.875H18.015v-4.516h5.616V0H10.067l.036 5.645Zm18.08 0 .037 5.645 2.842.037 2.842.037v19.154h2.192V11.364l2.842-.037 2.842-.037.036-5.645L41.852 0H28.148l.036 5.645Zm18.186.034v5.68h5.616v4.516H40.616v14.643H42.945V18.064h11.232v-6.7l2.842-.037 2.843-.037.035-5.645L59.933 0H46.369v5.68Zm-24.93 0v3.353H12.4V2.326h9.04V5.68Zm18.081 0v3.353h-9.04V2.326h9.04V5.68Zm18.081 0v3.353h-9.04V2.326h9.04V5.68ZM14.62 5.645l.04 1.13 2.226.037 2.226.037V4.516h-4.532l.04 1.13Zm18.111-.948c-.04.104-.054.613-.031 1.133l.04.944h4.521V4.585l-2.229-.038c-1.79-.03-2.243 0-2.3.15Zm18.16.986v1.166l2.225-.037 2.226-.038.04-1.129.04-1.129h-4.532v1.167ZM8.318 16.133c-1.538.531-2.872 1.801-3.5 3.33l-.297.723-.036 19.242-.037 19.242-.952.08c-1.57.132-2.65.795-3.249 1.998-.355.713-.325 2.523.064 3.784.724 2.348 2.795 4.42 5.164 5.165L6.44 70h57.12l.965-.303c2.367-.745 4.439-2.817 5.163-5.165.389-1.261.42-3.071.064-3.784-.6-1.203-1.679-1.866-3.251-1.998l-.955-.08V39.764c0-20.586.03-19.76-.76-21.106-.52-.889-1.492-1.77-2.494-2.264l-.916-.45-2.436-.046-2.434-.045V18.04l2.157.049c2.436.054 2.883.193 3.729 1.155.882 1.004.825-.392.825 20.439V58.71H6.783V39.683c0-20.831-.057-19.435.826-20.44.845-.961 1.292-1.1 3.728-1.154l2.158-.049v-2.165l-2.226.004c-1.791.004-2.368.054-2.95.255Zm1.804 4.519a3.11 3.11 0 0 0-.753.718l-.327.458-.036 16.432-.036 16.432.317.599c.217.41.505.698.913.914l.597.315h48.404l.596-.315c.41-.216.697-.504.914-.914l.317-.6-.036-16.442-.036-16.442-.383-.503c-.725-.948-.402-.913-8.308-.913h-7.13v2.19h13.561v31.613H54.182l-.037-3.233-.037-3.233-1.488-.474c-1.042-.332-1.507-.546-1.551-.714-.035-.131-.263-.696-.508-1.254l-.445-1.014.719-1.449.719-1.448-2.987-2.981-2.986-2.982-1.434.768c-.788.422-1.47.73-1.516.685-.046-.046-.595-.288-1.22-.538l-1.137-.454-.548-1.548-.548-1.549h-8.356l-.548 1.548-.548 1.549-1.136.454c-.626.25-1.172.489-1.215.531-.042.043-.724-.266-1.514-.686l-1.438-.764-2.988 2.984-2.989 2.983.72 1.448.718 1.449-.445 1.014c-.245.558-.473 1.123-.508 1.254-.043.167-.513.385-1.55.72l-1.49.481-.036 3.226-.037 3.227H11.303V22.58h13.56v-2.19h-7.157c-6.786.001-7.179.015-7.583.26Zm27.874 15.716.416 1.335.862.25c.474.137 1.458.53 2.188.871l1.326.622 1.2-.638 1.2-.638 1.813 1.807 1.813 1.808-.618 1.229-.618 1.229.618 1.314c.34.724.725 1.698.855 2.166l.236.852 1.349.418 1.348.419v4.782H47.236l.125-.856c.069-.47.089-1.415.045-2.1-.346-5.37-4.061-9.871-9.324-11.297-1.57-.426-4.595-.426-6.164 0-5.263 1.425-8.978 5.927-9.323 11.297-.045.685-.025 1.63.044 2.1l.125.856H18.015v-4.782l1.348-.419 1.349-.418.236-.852c.13-.468.514-1.442.854-2.166l.619-1.314-.618-1.23-.618-1.228 1.819-1.813 1.819-1.814 1.192.645 1.194.644 1.327-.622c.73-.342 1.715-.735 2.19-.872l.861-.25.416-1.335.416-1.334h5.162l.416 1.334Zm-.5 5.773c2.908.743 5.288 2.693 6.61 5.415.807 1.664 1.08 2.982 1.003 4.846-.033.804-.106 1.537-.162 1.627-.073.118-.76.165-2.407.165h-2.306l.207-.705c.326-1.113.189-2.722-.328-3.824-.994-2.124-2.795-3.272-5.13-3.272-3.05 0-5.414 2.239-5.574 5.277-.04.75.01 1.346.148 1.82l.207.704h-2.306c-1.647 0-2.334-.047-2.407-.165-.056-.09-.129-.823-.162-1.628-.101-2.458.603-4.701 2.094-6.666 1.224-1.614 3.403-3.048 5.445-3.582 1.379-.361 3.68-.367 5.068-.012Zm-1.61 6.594c2.032.564 3.068 2.867 2.118 4.71l-.35.68h-5.326l-.341-.684c-1.28-2.569 1.128-5.474 3.9-4.706Zm-9.9 13.378c.072 1.239.472 2.085 1.277 2.698.947.722 1.026.73 7.736.73s6.79-.008 7.736-.73c.805-.613 1.206-1.459 1.277-2.698l.063-1.077h22.94l.377.297c.365.286.375.33.312 1.334-.084 1.33-.54 2.366-1.485 3.363-.732.773-2.098 1.575-2.682 1.575h-.32v-4.38h-6.712V67.743H54.176v-4.516h-6.712v4.52l-20.58-.036-20.582-.036-.787-.387c-1.136-.557-2.16-1.549-2.703-2.62-.372-.73-.471-1.107-.521-1.97-.06-1.035-.05-1.077.315-1.364l.377-.297h22.94l.063 1.077Zm15.862-.55c0 .694-.242 1.362-.553 1.529-.153.081-2.615.134-6.296.134s-6.143-.053-6.296-.134c-.311-.167-.553-.835-.553-1.529v-.527H41.85v.527Zm10.136 5.084v1.095h-2.328v-2.19h2.328v1.095Zm9.04 0v1.095H58.698v-2.19H61.026v1.095Z" fill="#fff"/></svg>