<svg width="70" height="66" fill="none" xmlns="http://www.w3.org/2000/svg"><path fill-rule="evenodd" clip-rule="evenodd" d="M4.63.242C2.421.674.531 2.629.11 4.918c-.09.49-.126 8.5-.102 23.175L.044 50.52l.36.858c.672 1.597 1.708 2.635 3.302 3.309l.856.361 11.739.038 11.74.038v3.873c.002 3.775.01 3.89.323 4.559.399.85.93 1.395 1.73 1.77.615.287.644.288 18.679.324 20.126.04 18.996.09 20.079-.89.303-.275.686-.75.85-1.058l.298-.558V44.618c0-18.047-.007-18.538-.265-19.06a4.564 4.564 0 0 0-.721-.992c-.808-.81-1.176-.931-3.053-1.009l-1.71-.07-.07-9.468c-.06-8.412-.093-9.532-.296-10.036-.545-1.357-1.603-2.573-2.742-3.151C59.6.048 61.25.09 32.084.106 17.29.114 4.97.175 4.63.242Zm55.258 2.554c.67.359 1.335.998 1.662 1.598.216.394.24 1.24.274 9.796l.038 9.365h-3.415l-.042-5.043c-.041-4.988-.045-5.048-.356-5.55a3.055 3.055 0 0 0-.822-.823l-.506-.316H7.437l-.485.302c-.266.166-.62.545-.787.842l-.303.54v34.158l.308.454c.17.25.482.583.695.74.382.284.502.288 10.746.356l10.36.069.039 1.752.038 1.753-11.606-.037c-11.017-.036-11.63-.05-12.086-.293-.669-.357-1.34-1.019-1.689-1.666l-.296-.549-.036-22.391c-.035-22.12-.032-22.4.24-23.127A3.57 3.57 0 0 1 4.571 2.7c.659-.259 1.293-.264 27.712-.236l27.038.028.566.304ZM7.47 6.183c-.42.32-.562.961-.316 1.438.291.564.952.744 2.507.683 1.092-.043 1.288-.09 1.598-.381.47-.444.478-1.133.017-1.595-.32-.32-.416-.336-1.95-.332-1.128.003-1.688.06-1.856.187Zm6.916.117c-.332.36-.405.705-.264 1.244.144.55.79.78 2.188.78 1.798 0 2.284-.27 2.284-1.27 0-.31-.107-.566-.317-.764-.289-.272-.461-.299-1.961-.299-1.53 0-1.664.022-1.93.309Zm7.008.028c-.6.601-.393 1.55.403 1.853.504.192 4.85.185 5.405-.009.591-.207.907-.823.711-1.388-.263-.757-.377-.784-3.404-.788-2.77-.005-2.78-.004-3.115.332Zm9.31 0c-.436.436-.438 1.04-.006 1.542l.33.385 12.983.041c9.228.03 13.135-.003 13.508-.111.4-.117.57-.263.717-.617.214-.514.154-.808-.259-1.268l-.277-.309H31.04l-.337.337Zm-14.437 10.16v2.402H8.19v-4.802h8.077v2.4Zm39.77 0v2.333l-18.654.035-18.652.035v-4.805l18.652.035 18.653.035v2.332Zm-39.77 7.067v2.333H8.19v-4.665h8.077v2.332Zm39.809-1.2-.04 1.132-12.81.068-12.812.069-.674.414c-.41.253-.857.694-1.146 1.132l-.473.718h-9.39v-4.665H56.116l-.04 1.132Zm11.227 3.811c.164.153.331.416.372.584.04.167.057 8.315.036 18.105l-.038 17.8-.312.313-.312.312h-36.02l-.331-.385-.33-.385V26.614l.335-.363.336-.363h17.983c17.876 0 17.985.002 18.28.278Zm-51.036 4.387v2.333H8.19v-4.665h8.077v2.332Zm11.773 0v2.333H18.731v-4.665H28.04v2.332Zm17.386-2.067c-.458.14-1.213.536-1.679.881-.485.36-1.259 1.514-1.471 2.194-.09.29-.39 2.79-.665 5.557l-.5 5.03-2.052.075c-1.129.042-2.161.126-2.295.188-.596.276-.693 1.282-.174 1.802.325.325.401.337 2.236.337 1.045 0 1.93.029 1.965.064.065.066-1.033 11.417-1.189 12.279-.112.622-.94 1.447-1.642 1.635-1.393.372-2.689-.537-2.928-2.054-.204-1.292-1.15-1.746-1.955-.94-.397.399-.414.459-.329 1.201.18 1.56 1.248 3.038 2.685 3.713.62.292.957.355 1.916.358.979.004 1.287-.054 1.938-.36a4.755 4.755 0 0 0 2.558-3.067c.08-.302.398-3.172.708-6.38.31-3.208.592-5.97.626-6.14.062-.307.078-.31 2.599-.31 2.51 0 2.54-.003 2.872-.336.375-.376.446-1.084.15-1.476-.322-.424-.898-.52-3.109-.52-2.17 0-2.181-.002-2.183-.309-.003-.687.853-9.126.974-9.599a2.281 2.281 0 0 1 3.266-1.484c.686.35 1.06.89 1.25 1.805.2.95.563 1.354 1.22 1.354 1.594 0 1.439-2.568-.259-4.27-.96-.963-1.93-1.361-3.272-1.344-.505.006-1.073.059-1.261.116Zm-29.16 9.066v2.332H8.19V35.22h8.077v2.333Zm11.774 0v2.332H18.731V35.22H28.04v2.333ZM16.267 44.55v2.333H8.19v-4.666h8.077v2.333Zm11.773 0v2.333H18.731v-4.666H28.04v2.333Zm32.24 2.53c-.226.103-1.394 1.18-2.596 2.392l-2.186 2.206-2.348-2.329c-2.244-2.226-2.372-2.33-2.89-2.33-.715 0-1.137.432-1.137 1.16 0 .496.13.657 2.323 2.873L53.77 53.4l-2.35 2.362c-2.15 2.16-2.351 2.403-2.351 2.843 0 .665.491 1.176 1.13 1.176.44 0 .686-.204 2.853-2.364l2.373-2.363 2.154 2.139c2.367 2.35 2.661 2.588 3.193 2.588.533 0 1.083-.612 1.083-1.203 0-.438-.209-.692-2.354-2.865l-2.355-2.385 2.355-2.374c2.042-2.059 2.354-2.431 2.354-2.803 0-.471-.445-1.064-.89-1.182-.15-.04-.458.01-.684.112Z" fill="#fff"/></svg>