<svg width="70" height="70" fill="none" xmlns="http://www.w3.org/2000/svg"><path fill-rule="evenodd" clip-rule="evenodd" d="M5.952.322c-.808.376-1.59 1.23-1.815 1.98-.109.363-.159 2.215-.159 5.88v5.35H2.63c-1.156 0-1.399.04-1.708.284l-.36.283v3.143c0 1.79.058 3.252.134 3.394.202.378.878.552 2.141.552h1.141v2.871h-1.41c-2.19 0-2.006-.605-2.006 6.58 0 4.912.034 5.992.194 6.211.165.227.413.276 1.674.334l1.48.069.039 1.47.039 1.469H2.572c-2.102 0-2.01-.175-2.01 3.788 0 3.978-.101 3.78 1.97 3.846l1.446.047v2.846H2.63c-1.156 0-1.399.04-1.708.283l-.36.284V57.705l.336.335c.311.312.433.335 1.708.335h1.372v4.394c0 2.938.053 4.568.159 4.922.205.686.95 1.55 1.666 1.934l.566.303 18.913.036 22.32-.033v-.491c-.003-.47-.003-.14 0-.84v-.56l-22.089-.095H6.827l-.4-.4-.4-.399V58.395l2.063-.044c2.785-.06 2.583.239 2.583-3.825V51.39l-.335-.335c-.325-.326-.395-.336-2.323-.336H6.028V47.882l.774-.064c1.277-.106 1.275-.1 1.275-3.858 0-3.14-.003-3.177-.316-3.47-.24-.227-.485-.298-1.025-.298h-.708v-3.008h.751c.57 0 .818-.066 1.025-.273.265-.265.273-.456.273-6.265v-5.992l-.316-.297c-.24-.227-.485-.298-1.025-.298h-.708v-2.871h.458c.63 0 1.297-.252 1.458-.552.076-.142.133-1.604.133-3.394V14.1l-.36-.283c-.252-.199-.559-.284-1.024-.284h-.665V2.847l.4-.4.399-.399H35.4l.036 16.806c.035 16.733.037 16.808.317 17.184.637.854.888.941 2.7.941 1.538 0 1.699-.025 2.124-.328.253-.18.574-.58.714-.889.244-.536.255-1.267.258-17.137l.003-16.577H43.735l.036 16.714.036 16.713.313.503c.188.303.555.62.922.799.532.257.795.29 2.035.249 1.574-.052 1.907-.194 2.503-1.07l.307-.453V25.08c0-9.741-.015-10.443-.24-10.72-.36-.446-1.087-.423-1.49.047l-.32.371v20.231l-.99-.04-.99-.04-.035-16.44-.035-16.441h2.04l.04 4.634c.037 4.335.056 4.653.3 4.922.34.375 1.079.383 1.447.014.263-.263.273-.456.273-4.922V2.048H66.578l.4.4.398.4v64.299l-.399.399-.4.4-9.458.094H47.6c-.002.14-.002.28 0 .56-.002.42-.002.42 0 .84.002.24-.002.28 0 .49.168.042 4.61.058 9.87.037l9.564-.04.566-.302c.716-.383 1.461-1.248 1.666-1.934.229-.762.229-64.627 0-65.389-.224-.75-1.007-1.604-1.815-1.98L66.762 0H6.642l-.69.322Zm33.551 18.2v16.475h-2.049V2.048h2.049v16.474ZM53.316 5.955c-.587.494-.737 1.133-.674 2.875.062 1.682.253 2.142 1.026 2.465.68.284 10.007.27 10.56-.016.865-.447.962-.735.962-2.837v-1.91l-.464-.465-.465-.464H53.734l-.418.352ZM13.703 7.833c-.367.39-.38.917-.036 1.343.23.284.378.323 1.216.323 1.14 0 1.529-.25 1.529-.978 0-.748-.378-1.004-1.48-1.004-.797 0-.975.045-1.229.316Zm6.408.044c-.697.887-.064 1.69 1.331 1.69.922 0 1.392-.37 1.392-1.095 0-.737-.35-.955-1.524-.955-.827 0-.943.035-1.199.36Zm6.422 0c-.7.89-.064 1.69 1.342 1.69.895 0 1.43-.418 1.41-1.104-.02-.706-.41-.946-1.538-.946-.843 0-.958.034-1.214.36Zm36.608.667v.89l-4.202-.036-4.201-.036-.04-.854-.041-.855h8.484v.891Zm-5.365 4.855c-1.31.33-2.445 1.237-3.11 2.481-.396.744-.468 1.028-.515 2.027-.076 1.62.264 2.503 1.395 3.635 1.133 1.134 2.013 1.471 3.644 1.396.925-.043 1.332-.133 1.932-.426.928-.455 1.785-1.359 2.27-2.393.31-.66.364-.96.364-2.007 0-1.073-.05-1.33-.385-2.015-.81-1.65-2.338-2.683-4.107-2.777-.535-.028-1.205.007-1.488.079Zm-40.283.389c-.229.185-.316.398-.316.77 0 .73.404 1.025 1.406 1.025.873 0 1.306-.226 1.437-.75.1-.398-.206-1.088-.54-1.216-.49-.188-1.669-.087-1.987.171Zm5.564.028c-.47.37-.49 1.05-.044 1.47.469.44 1.836.429 2.256-.02.42-.447.393-1.092-.063-1.45-.26-.205-.558-.284-1.074-.284s-.815.079-1.075.284Zm36.912 1.706c2.136.893 2.426 3.658.518 4.949-.558.377-.778.444-1.468.444-1.21 0-2.063-.511-2.601-1.561-.397-.775-.302-2.03.213-2.808.684-1.034 2.2-1.5 3.337-1.024ZM6.027 17.36v1.778H2.612V15.583h3.416v1.777Zm7.31 1.909c-.384.16-.98.822-1.153 1.279-.094.25-.145 2.422-.145 6.193v5.807l.335.336c.428.428.951.428 1.379 0l.335-.336V21.186l7.276.035 7.276.036V40.124l-7.276.035-7.276.035v-2.126c0-2.076-.008-2.135-.335-2.462-.43-.431-.952-.428-1.387.008l-.345.345.043 2.424c.04 2.305.06 2.447.371 2.884.663.93.905.97 5.991.973l4.543.003v4.76l.533.662c.292.364 1.091 1.214 1.776 1.89l1.244 1.227v7.183l-4.953.002c-3.66.002-5.039.046-5.282.171-.527.271-.866.847-.937 1.594-.066.686-.072.694-.535.694-.549 0-1.205.307-1.325.621-.308.804.212 1.43 1.188 1.43h.64v.551c0 .78.319 1.448.846 1.77.447.275.603.277 13.669.243l13.216-.035.438-.438c.374-.374.446-.557.497-1.264l.06-.827h.667c.786 0 1.213-.331 1.213-.942 0-.646-.394-.998-1.204-1.076l-.709-.068v-.543c0-.298-.092-.737-.205-.975-.41-.865-.127-.833-7.993-.908l-7.173-.068-.069-3.977-.068-3.977-1.742-1.818-1.742-1.818v-4.064h1.904c1.047 0 2.077-.066 2.288-.145.696-.263 1.25-.93 1.41-1.698.097-.472.133-3.834.107-10.197-.038-9.294-.045-9.503-.32-9.971a2.903 2.903 0 0 0-.737-.786l-.457-.308-7.802.008c-4.291.005-7.925.06-8.075.123Zm4.487 3.964c-1.043.249-1.815 1.012-2.102 2.08-.091.337-.128 2.505-.103 5.985.04 5.29.05 5.468.326 5.842.158.212.49.524.738.694.428.291.582.307 3.007.307 2.426 0 2.579-.015 3.008-.307.971-.662 1.015-.807 1.096-3.633.086-2.987.04-2.854 1.852-5.374 1.276-1.775 1.424-2.076 1.42-2.897-.007-1.265-.94-2.411-2.18-2.677-.781-.168-6.376-.183-7.062-.02Zm6.891 2.133c.167.117.304.351.304.52 0 .17-.518 1.02-1.15 1.89-1.928 2.652-2.13 3.247-2.13 6.292v2.023h-4.099v-5.05c0-2.833.057-5.199.13-5.389.07-.187.24-.368.375-.403.136-.035 1.601-.071 3.257-.08 2.52-.013 3.059.019 3.313.197ZM6.028 30.622v4.511H2.612V26.11h3.416v4.512Zm47.325-3.942c-.291.141-.596.648-.596.99 0 .1.127.343.283.54.25.318.38.361 1.1.361.683 0 .87-.054 1.15-.336.185-.184.336-.427.336-.54 0-.384-.303-.87-.636-1.023-.41-.186-1.244-.182-1.637.008Zm4.775-.022c-.613.247-.757.979-.306 1.553.248.315.382.36 1.078.36.896 0 1.303-.24 1.448-.851.07-.299.006-.455-.325-.786-.337-.337-.523-.412-1.005-.405-.325.005-.725.063-.89.129Zm4.783 0c-.614.247-.758.979-.307 1.553.25.317.381.36 1.093.36.628 0 .872-.062 1.083-.273.719-.72.117-1.786-.998-1.77-.315.006-.707.064-.871.13ZM56 31.75c-.554.42-.49 1.564.1 1.79.495.19 1.4.09 1.762-.194a.924.924 0 0 0 0-1.484c-.413-.325-1.496-.39-1.862-.112Zm4.024.108c-.402.374-.402 1.118 0 1.493.413.385 1.445.383 1.937-.005a.924.924 0 0 0 0-1.484c-.492-.387-1.524-.39-1.937-.004Zm-11.542 7.925c-.193.152-.39.46-.44.684-.088.402-.103.409-.973.409-1.551 0-2.088.539-2.208 2.22-.06.84-.093.924-.365.924-.428 0-.894.552-.894 1.058 0 .466.517.993.975.993.211 0 .255.106.255.618 0 .58-.026.624-.415.702-1.107.221-1.042 1.961.073 1.961.319 0 .342.046.342.684 0 .575-.04.683-.255.683-.468 0-.975.526-.975 1.012 0 .507.468 1.039.913 1.039.248 0 .288.105.346.924.118 1.652.7 2.22 2.27 2.22.801 0 .824.01.911.409.098.444.648.959 1.026.959.381 0 .935-.523.981-.926.04-.341.1-.377.692-.415.609-.04.65-.02.65.292 0 .554.437.967 1.024.967.584 0 1.025-.412 1.025-.959 0-.3.054-.327.683-.327.664 0 .683.011.683.4 0 .433.53.968.957.968.377 0 .927-.515 1.025-.96.088-.403.1-.408 1-.409 1.52-.001 2.08-.55 2.182-2.138.059-.924.088-1.005.364-1.005.428 0 .894-.552.894-1.059 0-.465-.517-.992-.975-.992-.215 0-.255-.108-.255-.684 0-.637.023-.683.342-.683 1.115 0 1.18-1.74.073-1.961-.389-.078-.415-.122-.415-.702 0-.512.044-.618.255-.618.468 0 .975-.527.975-1.012 0-.507-.468-1.039-.913-1.039-.252 0-.287-.103-.345-.996-.104-1.62-.645-2.148-2.198-2.148H56.9l-.157-.525c-.15-.5-.57-.843-1.036-.843-.378 0-.9.56-.9.967 0 .39-.019.4-.683.4-.64 0-.683-.021-.683-.347 0-.451-.572-1.02-1.025-1.02-.456 0-1.025.57-1.025 1.027 0 .339-.03.354-.649.314-.593-.038-.652-.074-.692-.415-.046-.403-.6-.926-.981-.926-.13 0-.394.124-.586.275ZM6.028 44.02v1.777H2.612v-3.554h3.416v1.777Zm51.92 4.375v5.469H46.882V42.926H57.95v5.469Zm-8.763-2.883c-.319.258-.322.293-.322 2.866 0 2.867.02 2.94.846 3.105.351.07.5.02.784-.264.35-.35.35-.351.35-2.824 0-2.444-.003-2.477-.335-2.809-.402-.402-.884-.43-1.323-.074Zm5.137.074c-.332.332-.336.365-.336 2.809 0 2.473 0 2.473.35 2.824.284.283.436.335.787.267.85-.164.913-.38.913-3.112 0-2.422-.004-2.457-.336-2.788-.184-.184-.494-.335-.689-.335-.195 0-.505.15-.69.335Zm-38.977 1.796c-2.57 1.282-2.546 4.87.042 6.25.86.46 2.247.416 3.177-.099 1.196-.661 1.811-1.699 1.809-3.049-.002-1.386-.893-2.749-2.136-3.268-.759-.317-2.074-.242-2.891.166Zm18.173 0c-2.571 1.282-2.547 4.87.041 6.25.86.46 2.247.416 3.178-.099 1.52-.84 2.165-2.486 1.649-4.207-.211-.705-1.06-1.657-1.797-2.013-.868-.42-2.147-.392-3.071.069Zm-15.593 2.096c.558.558.558 1.333.001 1.957-.338.379-.492.446-1.013.446-1.358 0-1.947-1.55-.943-2.482.523-.485 1.428-.448 1.955.08Zm18.173 0c1.187 1.188-.393 3.115-1.783 2.173-1.21-.822-.681-2.573.778-2.573.487 0 .684.079 1.005.4Zm-27.474 5.07v1.776H2.612V52.77h6.012v1.777Zm33.338 6.972v1.504H17.368v-3.008h24.594v1.504Zm8.905 1.957c-.42.447-.392 1.092.064 1.45.346.274.517.284 4.627.284 4.11 0 4.28-.01 4.627-.283.45-.355.493-1.087.087-1.494-.263-.262-.456-.274-4.69-.274h-4.417l-.297.317Z" fill="#fff"/></svg>