<svg width="70" height="70" fill="none" xmlns="http://www.w3.org/2000/svg"><path fill-rule="evenodd" clip-rule="evenodd" d="M12.736.221c-.768.273-1.867 1.429-2.077 2.186-.368 1.325-.103 2.442.811 3.42 1.347 1.44 3.319 1.547 4.78.262.345-.304.71-.752.81-.996l.184-.442H28v4.667H.716l-.358.359-.358.357v45.247l.358.358.358.358H26.833V62.998H14.715l-.357.358c-.355.355-.358.381-.358 3.143 0 2.762.003 2.788.358 3.143l.358.358h40.568l.358-.358c.355-.355.358-.38.358-3.143 0-2.762-.003-2.788-.358-3.143l-.358-.358H43.167V55.997H69.285l.357-.358.358-.358V10.035l-.358-.358-.358-.359H42V4.651h10.756l.184.442c.1.244.465.692.81.996 1.412 1.242 3.326 1.178 4.688-.157 2.599-2.549.003-6.811-3.515-5.772-.652.193-2.131 1.531-2.131 1.928 0 .204-.672.229-6.205.229h-6.204l-.358.358c-.358.358-.358.358-.358 3.5v3.143h-9.334V6.176c0-3.143 0-3.143-.358-3.501l-.358-.358H17.244l-.183-.443c-.25-.6-1.313-1.51-2.012-1.72a3.727 3.727 0 0 0-2.313.067Zm2.073 2.454c.723.723.21 1.976-.809 1.976-.6 0-1.167-.568-1.167-1.167 0-.6.567-1.167 1.167-1.167.284 0 .583.132.809.358Zm42 0c.723.723.21 1.976-.809 1.976-.6 0-1.167-.568-1.167-1.167 0-.6.568-1.167 1.167-1.167.284 0 .583.132.809.358ZM28 17.37v5.718l-1.604 1.626c-1.99 2.017-2.027 2.178-.81 3.504l.793.866-1.244.073c-1.537.09-1.802.317-1.802 1.547v.787H11.41l-.183-.443c-.41-.991-1.88-1.891-3.088-1.891-1.83 0-3.47 1.655-3.47 3.5 0 1.846 1.64 3.501 3.47 3.501 1.208 0 2.678-.9 3.088-1.891l.183-.443h11.923v.81c0 .664.064.872.358 1.166.322.322.48.358 1.544.358h1.185l-.814.9c-1.276 1.41-1.25 1.497 1.124 3.872 2.372 2.373 2.44 2.392 3.809 1.1l.888-.84.073 1.29c.106 1.879.046 1.847 3.5 1.847s3.394.032 3.5-1.846l.073-1.29.888.839c1.369 1.292 1.437 1.273 3.81-1.1 2.373-2.375 2.399-2.462 1.123-3.872l-.814-.9h1.185c1.064 0 1.222-.036 1.544-.358.294-.294.358-.502.358-1.167v-.809H58.59l.183.443c.1.243.466.691.811.995 1.415 1.247 3.38 1.177 4.697-.166 1.393-1.422 1.389-3.515-.01-4.887-.977-.958-2.202-1.263-3.514-.875-.653.193-2.132 1.53-2.132 1.928 0 .204-.65.229-5.98.229h-5.978v-.787c0-1.23-.265-1.457-1.802-1.547l-1.244-.073.794-.866c1.216-1.326 1.178-1.487-.81-3.504L42 23.088V11.652h25.667v37.342H2.333V11.653H28v5.718Zm11.667 0v5.72l-.466.48c-.257.265-.52.481-.584.481-.064 0-.117-.528-.117-1.173 0-1.052-.037-1.211-.358-1.532-.355-.355-.38-.358-3.142-.358-2.761 0-2.787.003-3.142.358-.32.32-.358.48-.358 1.532 0 .645-.046 1.173-.102 1.173-.057 0-.32-.21-.584-.466l-.48-.466V11.652h9.333v5.719ZM5.025 14.345a1.176 1.176 0 0 0-.358.81c0 .283.132.582.358.808.358.358.358.358 3.5.358h3.142V26.107l.358.358.358.358h7.901l.358-.358c.474-.474.474-1.144 0-1.618-.358-.358-.358-.358-3.5-.358H14V14.702l-.358-.358-.358-.358H5.383l-.358.358Zm51.333 0-.358.358V24.49h-3.142c-3.142 0-3.142 0-3.5.358a1.176 1.176 0 0 0-.358.809c0 .284.132.583.358.809l.358.358h7.901l.358-.358.358-.358V16.32h3.142c3.142 0 3.142 0 3.5-.358.226-.226.358-.525.358-.809 0-.284-.132-.583-.358-.809l-.358-.358h-7.901l-.358.358ZM36.167 24.25c0 1.198.25 1.52 1.589 2.046 1.223.48 1.45.438 2.353-.437l.661-.64.786.795.785.795-.603.655c-.821.89-.856 1.14-.339 2.427.563 1.401.811 1.6 2.003 1.6h.931V33.825h-.94c-.769 0-1.005.059-1.304.328-.373.335-1.11 1.98-1.11 2.477 0 .151.326.62.725 1.042l.725.766-.766.756c-.421.416-.827.757-.902.757-.074 0-.415-.274-.756-.609-.747-.733-1.186-.777-2.417-.24-1.305.57-1.421.725-1.421 1.893v.998h-2.334v-.94c0-.77-.06-1.006-.328-1.305-.35-.39-1.988-1.11-2.525-1.11-.18 0-.66.302-1.08.68l-.756.68-.744-.744-.744-.745.593-.644c.847-.918.868-1.087.308-2.46-.551-1.352-.863-1.58-2.156-1.58h-.734V31.49h.928c1.198 0 1.52-.251 2.045-1.59.48-1.224.438-1.45-.437-2.354l-.64-.661.792-.783.793-.783.754.678c.42.377.898.679 1.078.679.537 0 2.175-.72 2.525-1.11.269-.299.328-.536.328-1.305v-.94h2.334v.928Zm-2.625 3.973c-2.07.755-3.344 2.67-3.174 4.77.376 4.636 6.46 5.93 8.703 1.853.484-.88.522-1.038.52-2.188-.002-1.132-.046-1.321-.5-2.163-.832-1.543-2.09-2.341-3.863-2.448-.723-.044-1.225.008-1.686.176Zm2.381 2.3c1.498.626 1.864 2.59.698 3.756-.946.946-2.296.946-3.242 0-1.804-1.804.186-4.742 2.544-3.756ZM8.975 31.849c.226.225.358.524.358.808 0 .285-.132.584-.358.81a1.175 1.175 0 0 1-.808.358c-.284 0-.583-.133-.809-.359A1.176 1.176 0 0 1 7 32.657c0-.284.132-.583.358-.808.226-.226.525-.358.809-.358.284 0 .583.132.808.358Zm53.667 0c.723.723.21 1.976-.809 1.976-.6 0-1.166-.568-1.166-1.168s.567-1.166 1.166-1.166c.284 0 .583.132.809.358Zm5.025 20.647v1.167H2.333v-2.334h65.334v1.167Zm-26.834 7.001v3.501H29.167V55.997h11.666v3.5ZM53.667 66.5v1.167H16.333v-2.334h37.334V66.5Z" fill="#fff"/></svg>