<svg width="70" height="70" fill="none" xmlns="http://www.w3.org/2000/svg"><path fill-rule="evenodd" clip-rule="evenodd" d="M26.337.137c-1.095.261-2.684 1.198-3.458 2.037-.394.427-.966 1.303-1.271 1.948l-.555 1.171-.055 5.734-.055 5.735-7.84.052-7.84.053-1.172.555c-1.63.772-2.647 1.766-3.436 3.362L0 22.11v23.008l.655 1.325c.79 1.596 1.805 2.59 3.436 3.363l1.172.555 5.035.056 5.035.056.053 7.143.053 7.143.655 1.325c.789 1.596 1.805 2.59 3.436 3.362l1.172.555h22.982l1.172-.555c1.63-.772 2.647-1.766 3.436-3.362l.655-1.324.055-5.745.055-5.744 7.84-.052 7.84-.052 1.172-.555c1.63-.773 2.647-1.767 3.436-3.363L70 47.923V24.915l-.655-1.325c-.79-1.596-1.805-2.59-3.436-3.363l-1.172-.555-5.035-.056-5.035-.055-.053-7.144-.053-7.143-.655-1.325c-.789-1.595-1.805-2.59-3.436-3.362L49.298.032l-11.14-.03c-6.37-.016-11.432.041-11.822.135Zm22.59 2.826c.964.285 2.417 1.738 2.702 2.701.3 1.014.306 24.004.007 25.002-.26.865-1.334 2.1-2.202 2.53-.626.312-1.422.334-14.706.417l-14.045.088-1.325.655c-1.597.789-2.592 1.804-3.364 3.434l-.555 1.172-.058 4.34-.057 4.34H10.84c-3.007 0-4.721-.07-5.206-.213-.963-.285-2.417-1.738-2.701-2.7-.305-1.032-.305-21.2 0-22.23.284-.964 1.738-2.416 2.701-2.701.544-.16 4.672-.213 16.719-.213h15.996l.43-.43c.272-.272.431-.632.431-.973 0-.342-.159-.701-.43-.973l-.43-.43H23.771v-5.197c0-3.567.067-5.422.213-5.918.264-.893 1.733-2.413 2.594-2.685.914-.287 21.377-.302 22.348-.016ZM29.64 7.207c-1.77.77-2.188 3.122-.801 4.508 1.971 1.97 5.201.206 4.682-2.558-.31-1.653-2.285-2.645-3.88-1.95Zm34.726 15.398c.963.284 2.417 1.737 2.701 2.7.305 1.03.305 21.2 0 22.23-.284.963-1.738 2.416-2.701 2.7-.544.161-4.672.214-16.719.214H31.651l-.43.43c-.57.57-.57 1.375 0 1.945l.43.43h14.577v5.197c0 3.567-.067 5.423-.213 5.918-.285.963-1.738 2.416-2.702 2.7-1.031.305-21.209.305-22.24 0-.964-.284-2.417-1.737-2.702-2.7-.3-1.013-.306-24.004-.007-25.002.26-.864 1.334-2.1 2.202-2.53.626-.311 1.422-.334 14.697-.417l14.035-.088 1.172-.555c1.63-.772 2.647-1.766 3.436-3.361l.655-1.325.058-4.35.057-4.35h4.484c3.007 0 4.721.07 5.206.214ZM38.06 57.709c-1.77.77-2.188 3.122-.801 4.508 1.971 1.97 5.201.206 4.683-2.558-.31-1.653-2.285-2.645-3.882-1.95Z" fill="#fff"/></svg>