<svg width="62" height="70" fill="none" xmlns="http://www.w3.org/2000/svg"><path fill-rule="evenodd" clip-rule="evenodd" d="M21.494.246C20.174.713 19.03 2.04 17.31 5.1c-1.551 2.761-1.87 2.983-5.362 3.722-3.662.775-4.877 1.353-5.757 2.738-.804 1.266-.913 2.514-.515 5.909.286 2.444.218 3.434-.296 4.3-.206.35-1.083 1.399-1.947 2.332C.446 27.33-.12 29.078 1.044 31.47c.47.964.885 1.5 2.894 3.73 2.032 2.257 2.124 2.585 1.72 6.157-.485 4.307-.042 5.883 2.038 7.243l.367.24-3.31 5.72c-1.821 3.147-3.338 5.908-3.372 6.136-.078.526.315 1.136.813 1.26.253.064 2.073-.353 5.363-1.229 2.739-.729 5.003-1.297 5.03-1.263.028.035.64 2.27 1.358 4.967 1.117 4.194 1.363 4.953 1.695 5.244.466.407.98.434 1.408.075.172-.145 1.704-2.675 3.404-5.621l3.09-5.357.906-.248c.498-.137 1.938-.704 3.2-1.26 3.423-1.51 3.73-1.503 7.432.175.994.45 2.236.931 2.761 1.069l.954.25 3 5.213c1.651 2.867 3.184 5.4 3.407 5.628.682.698 1.61.443 1.925-.528.087-.27.703-2.52 1.369-5.002.665-2.481 1.245-4.547 1.288-4.59.043-.043 2.271.51 4.952 1.23 2.68.719 5.014 1.308 5.185 1.308.393 0 .941-.503 1.059-.97.112-.444.254-.176-3.577-6.745-2.21-3.791-3.13-5.497-2.987-5.542.113-.036.59-.446 1.06-.911 1.38-1.37 1.581-2.624 1.107-6.899-.355-3.196-.219-3.587 2.143-6.133 2.256-2.432 3.075-3.868 3.075-5.395 0-1.619-.707-2.875-3.106-5.523-.894-.988-1.763-2.1-1.93-2.474-.343-.765-.385-2.306-.113-4.15.243-1.65.2-3.844-.093-4.75-.332-1.03-1.3-2.091-2.39-2.624-.472-.231-1.617-.586-2.545-.788-4.294-.938-4.683-1.095-5.53-2.23-.318-.426-.932-1.425-1.365-2.22-1.836-3.376-3.298-4.644-5.37-4.657-1.089-.007-2 .274-4.607 1.424-3.464 1.527-3.849 1.519-7.573-.17-2.79-1.264-4.243-1.523-5.685-1.013Zm3.642 2.829c.675.283 1.79.764 2.477 1.068.688.305 1.783.665 2.434.799 1.138.235 1.234.232 2.456-.069.699-.172 2.12-.701 3.157-1.175 1.038-.474 2.313-.974 2.834-1.11.934-.246.956-.244 1.607.1.774.41 1.228 1.009 2.675 3.522 2.126 3.696 2.81 4.153 7.752 5.175 2.099.434 3.055.86 3.528 1.573.287.433.34.714.337 1.81a19.788 19.788 0 0 1-.16 2.355c-.087.581-.16 1.735-.164 2.565-.009 2.396.437 3.248 3.41 6.518 1.413 1.555 1.895 2.361 1.9 3.182.007.986-.322 1.476-2.917 4.347-2.288 2.531-2.66 3.72-2.284 7.285.575 5.444.51 5.53-5.115 6.72-3.593.76-4.365 1.404-6.765 5.655-.625 1.106-1.206 1.924-1.635 2.301-.59.518-.755.585-1.438.583-.773-.003-1.456-.245-4.399-1.557-3.187-1.422-4.343-1.358-8.463.465-1.77.784-2.465 1.016-3.173 1.064-.877.058-.929.04-1.589-.54-.447-.393-1.016-1.191-1.651-2.316-2.387-4.226-3.16-4.88-6.684-5.646-3.123-.679-3.63-.817-4.26-1.162-1.196-.654-1.36-1.639-.938-5.594.411-3.858.074-4.716-3.293-8.389-1.424-1.553-1.91-2.376-1.91-3.236 0-.825.428-1.534 1.916-3.174 2.868-3.158 3.392-4.124 3.407-6.28.004-.705-.077-1.997-.182-2.872-.105-.874-.164-2.11-.132-2.744.049-.975.116-1.217.433-1.556.59-.632 1.31-.923 3.331-1.348 2.875-.605 3.619-.82 4.575-1.328 1.181-.627 1.916-1.507 3.394-4.07 1.386-2.403 1.688-2.806 2.45-3.276.684-.422 1.428-.336 3.079.355Zm3.192 7.704c-2.016.316-3.537.802-5.44 1.737-5.586 2.745-9.369 7.829-10.383 13.951-.236 1.426-.227 4.57.018 5.972 1.368 7.848 7.603 14.114 15.396 15.47 1.664.29 4.775.285 6.471-.01 4.627-.806 8.987-3.504 11.845-7.33 1.647-2.205 3.01-5.38 3.49-8.13.244-1.402.253-4.546.017-5.972-.796-4.81-3.414-9.16-7.265-12.073-1.518-1.149-4.44-2.633-6.064-3.08-2.638-.727-5.61-.924-8.085-.535Zm4.997 2.356c3.527.49 6.53 1.96 9.158 4.485a16.236 16.236 0 0 1 .203 23.342c-2.055 2.043-4.511 3.453-7.426 4.263-1.365.379-1.716.414-4.136.414-2.423 0-2.771-.035-4.156-.417-9.924-2.74-15.047-13.574-10.732-22.696.876-1.853 1.59-2.902 2.95-4.333 3.734-3.933 8.909-5.784 14.139-5.058Zm7.923 8.543c-.124.044-3.03 2.872-6.457 6.285l-6.23 6.204-3.593-3.568c-2.424-2.407-3.737-3.604-4.035-3.678-.848-.213-1.618.592-1.397 1.46.05.199 1.984 2.246 4.297 4.549 3.881 3.865 4.245 4.187 4.728 4.188.488 0 .976-.454 7.36-6.837 6.088-6.086 6.839-6.888 6.839-7.306 0-.677-.132-.93-.616-1.18-.452-.233-.535-.244-.895-.117ZM12.456 50.015c2.084.45 2.963.84 3.536 1.568.238.302.962 1.48 1.609 2.617 1.108 1.948 2.045 3.156 2.968 3.827l.402.291-2.128 3.679-2.128 3.678-1.09-4.055c-1.237-4.606-1.215-4.541-1.585-4.74-.46-.245-.786-.184-4.866.912-2.166.581-3.968 1.029-4.003.993-.12-.12 5.174-9.142 5.365-9.142.106 0 .97.167 1.92.372Zm42.057 4.18c1.436 2.499 2.58 4.573 2.543 4.61-.037.037-1.834-.413-3.994-1.002-3.93-1.07-4.323-1.15-4.78-.975-.399.153-.589.696-1.67 4.772-.567 2.138-1.07 3.886-1.119 3.885-.049 0-1.022-1.614-2.164-3.584-2.068-3.571-2.073-3.583-1.737-3.8.874-.562 1.924-1.905 3.086-3.945 1.419-2.491 1.877-3.047 2.873-3.487.586-.259 3.649-.997 4.2-1.012.083-.002 1.326 2.04 2.762 4.539Z" fill="#fff"/></svg>