<svg width="64" height="64" fill="none" xmlns="http://www.w3.org/2000/svg"><path fill-rule="evenodd" clip-rule="evenodd" d="m1.042.685-.323.323v61.986l.323.324.324.323H51.75l.324-.323.323-.324V20.865l5.801-5.806c5.4-5.404 5.8-5.837 5.8-6.26 0-.413-.217-.671-2.41-2.864-2.187-2.187-2.45-2.41-2.86-2.41-.416 0-.736.283-3.92 3.458l-3.466 3.458-5.046-5.04L41.25.361H1.366l-.324.324Zm43.511 6.004 4.217 4.219h-6.92V5.635h-2.109V12.37l.324.324.324.323h8.383l-12.359 12.36-12.358 12.36-1.122 3.358c-.616 1.847-1.12 3.496-1.12 3.664 0 .394.558.953.952.953.168 0 1.817-.505 3.664-1.121l3.359-1.122 10.25-10.249 10.25-10.249v38.561H2.828V2.471h37.508l4.217 4.218Zm15.558.793L61.426 8.8 45.31 24.916 29.195 41.031l-1.35-1.351-1.352-1.351 16.083-16.084C51.422 13.4 58.69 6.162 58.728 6.162c.037 0 .66.594 1.383 1.32ZM14.003 9.818 11.27 12.55l-.633-.623c-.348-.343-.693-.623-.765-.623-.174 0-1.375 1.22-1.375 1.397 0 .075.526.652 1.17 1.281 1.724 1.688 1.356 1.834 5.317-2.115 1.798-1.792 3.269-3.322 3.269-3.4 0-.174-1.215-1.382-1.39-1.382-.07 0-1.357 1.23-2.86 2.733Zm-7.687-1.75-.324.323v9.253l.324.323.323.324h9.253l.323-.324c.312-.312.324-.389.324-2.11v-1.785h-2.11v2.109H8.101V9.853h3.164V7.744H8.952c-2.28 0-2.317.005-2.636.324Zm7.687 15.46-2.733 2.733-.633-.623c-.348-.343-.693-.624-.765-.624-.174 0-1.375 1.222-1.375 1.398 0 .075.526.652 1.17 1.28 1.724 1.689 1.356 1.835 5.317-2.114 1.798-1.793 3.269-3.323 3.269-3.4 0-.174-1.215-1.383-1.39-1.383-.07 0-1.357 1.23-2.86 2.733Zm-7.687-1.75-.324.324v9.252l.324.324.323.323h9.253l.323-.323c.312-.312.324-.39.324-2.11v-1.785h-2.11v2.109H8.101v-6.328h3.164v-2.109H8.952c-2.28 0-2.317.004-2.636.323Zm0 13.711-.324.324v9.252l.324.323.323.324h9.253l.323-.324.324-.323v-9.253l-.324-.323-.323-.324H6.639l-.323.324Zm8.113 4.95v3.164H8.101v-6.328h6.328v3.164Zm11.514 2.073c-.703.236-1.295.411-1.317.39-.021-.022.15-.615.382-1.318l.422-1.279.895.89.896.889-1.277.428ZM6.317 49.2l-.324.323v9.253l.324.323.323.324h9.253l.323-.324.324-.323v-9.253l-.324-.323-.323-.324H6.639l-.323.324Zm8.113 4.95v3.163H8.101v-6.328h6.328v3.164Zm23.203 4.218v1.055h2.109v-2.11h-2.109v1.055Zm4.219 0v1.055h2.109v-2.11h-2.109v1.055Zm4.218 0v1.055h2.11v-2.11h-2.11v1.055Z" fill="#fff"/></svg>