<svg width="160" height="160" fill="none" xmlns="http://www.w3.org/2000/svg"><path fill-rule="evenodd" clip-rule="evenodd" d="M19.033.197c-4.719.86-8.764 3.028-12.291 6.587-2.964 2.99-4.66 5.697-5.886 9.39C.1 18.454 0 19.267 0 23.115c0 3.849.1 4.66.856 6.942 1.23 3.708 2.93 6.413 5.886 9.363 2.955 2.95 5.664 4.647 9.38 5.874 2.285.755 3.099.855 6.954.855 3.855 0 4.669-.1 6.954-.855 3.715-1.227 6.425-2.924 9.38-5.874 2.956-2.95 4.656-5.655 5.885-9.364 1.255-3.783 1.255-10.098 0-13.882-1.23-3.708-2.93-6.413-5.885-9.363C34.897 2.306 30.235.247 24.046.024c-1.868-.067-4.123.01-5.013.173Zm113.848 0c-4.718.86-8.764 3.028-12.291 6.587-2.964 2.99-4.661 5.697-5.885 9.39-.757 2.28-.857 3.093-.857 6.941 0 3.849.1 4.66.857 6.942 1.229 3.708 2.929 6.413 5.885 9.363 2.955 2.95 5.665 4.647 9.38 5.874 2.285.755 3.099.855 6.954.855 3.855 0 4.669-.1 6.954-.855 3.715-1.227 6.425-2.924 9.38-5.874 2.956-2.95 4.656-5.655 5.886-9.364.756-2.28.856-3.092.856-6.94 0-3.849-.1-4.661-.856-6.942-1.23-3.708-2.93-6.413-5.886-9.363-4.512-4.505-9.174-6.564-15.364-6.787-1.867-.067-4.123.01-5.013.173ZM71.805 2.924c-6.067.772-11.749 2.206-17.314 4.371-3.947 1.536-6.51 2.811-6.51 3.24 0 .258 1.752 3.637 2.157 4.158.056.072 1.231-.394 2.61-1.038 16.885-7.877 37.356-7.954 54.07-.202 1.621.751 2.992 1.308 3.047 1.237.43-.556 2.155-3.905 2.155-4.182 0-.876-9.472-4.586-15.525-6.08C89.503 2.7 78.72 2.043 71.805 2.923ZM26.493 5.381c6.273 1.128 11.714 6.04 13.923 12.569.832 2.458.833 7.865.003 10.33-1.993 5.92-6.22 10.139-12.168 12.144-2.463.83-7.88.831-10.35.003-8.768-2.942-13.973-11.123-12.685-19.94.846-5.798 4.557-10.862 9.87-13.473 3.825-1.88 7.283-2.374 11.407-1.633Zm113.848 0c3.154.567 6.819 2.53 9.247 4.954 3.687 3.68 5.277 7.532 5.277 12.78.001 3.856-.695 6.428-2.518 9.314l-1.052 1.666-1.405-2.132c-.819-1.243-2.198-2.747-3.307-3.607-1.806-1.4-1.878-1.51-1.416-2.147 1.656-2.282 1.937-3.197 1.941-6.322.005-3.582-.581-5.129-2.783-7.35-1.864-1.879-3.86-2.774-6.528-2.929-2.69-.155-4.623.352-6.547 1.718-4.778 3.39-5.848 9.878-2.421 14.681l.661.927-1.054.654c-1.615 1.002-3.672 3.252-4.711 5.152l-.938 1.715-1.066-1.657c-5.786-9-2.414-21.054 7.214-25.784 3.824-1.88 7.282-2.374 11.406-1.633ZM12.568 12.96c-1.749.665-3.536 2.482-4.389 4.46-.851 1.976-.739 4.563.284 6.527.363.697 3.57 4.162 7.128 7.698 5.661 5.629 6.594 6.43 7.485 6.43s1.823-.801 7.485-6.43c3.557-3.536 6.78-7.011 7.163-7.721.918-1.705.972-5.288.105-6.942-1.643-3.129-4.538-4.743-7.953-4.434-2.185.198-3.203.68-5.264 2.492l-1.536 1.352-1.536-1.352c-.845-.743-1.972-1.576-2.504-1.851-1.372-.71-4.88-.834-6.468-.23Zm127.189 2.407c1.538.936 2.339 2.439 2.341 4.393.001 2.127-.947 3.588-2.982 4.597-5.593 2.77-9.996-5.408-4.795-8.907 1.415-.952 3.945-.99 5.436-.083Zm-120.4 4.844c2.207 2.11 2.888 2.583 3.719 2.583s1.512-.473 3.72-2.583c2.36-2.256 2.85-2.583 3.872-2.583 1.471 0 2.758 1.175 2.758 2.52 0 1.291-1.182 2.77-6.111 7.645l-4.24 4.192-4.238-4.192c-4.93-4.876-6.11-6.354-6.11-7.645 0-1.345 1.285-2.52 2.757-2.52 1.022 0 1.513.327 3.873 2.583Zm53.675 8.863c-.704.703-.794 1.072-.794 3.245v2.453l-1.165.486-1.165.485-1.884-1.793c-2.8-2.666-2.817-2.66-8.145 2.658-5.327 5.317-5.333 5.336-2.663 8.13l1.797 1.88-.487 1.163-.486 1.163h-2.457c-2.177 0-2.547.09-3.251.792-.788.786-.794.843-.794 6.956s.006 6.17.794 6.956c.703.702 1.074.792 3.25.792h2.458l.486 1.163.487 1.162-1.797 1.88c-2.67 2.795-2.664 2.813 2.663 8.131 5.328 5.318 5.346 5.323 8.145 2.658l1.884-1.793 1.165.485 1.165.486v2.452c0 2.174.09 2.543.794 3.245.787.786.844.793 6.968.793s6.181-.007 6.968-.793c.704-.702.794-1.071.794-3.245v-2.452l1.165-.486 1.165-.485 1.884 1.793c2.8 2.665 2.817 2.66 8.145-2.658 5.327-5.318 5.333-5.336 2.663-8.13l-1.797-1.88.487-1.163.486-1.163h2.457c2.178 0 2.548-.09 3.251-.792.788-.786.794-.843.794-6.956 0-6.114-.006-6.17-.794-6.956-.703-.702-1.073-.792-3.251-.792h-2.457l-.486-1.163-.487-1.162 1.797-1.881c2.67-2.794 2.664-2.813-2.663-8.13-5.328-5.318-5.346-5.324-8.145-2.658l-1.884 1.793-1.165-.485-1.165-.486v-2.453c0-2.173-.09-2.542-.794-3.245-.787-.786-.844-.792-6.968-.792s-6.181.006-6.968.792Zm68.097 1.974c.978.453 2.337 1.36 3.019 2.015 1.266 1.215 2.802 3.822 2.802 4.753 0 .733-4.223 2.606-6.942 3.078-3.883.675-8.414-.088-11.802-1.99l-1.249-.7.43-1.217c.993-2.81 3.406-5.246 6.213-6.275 2.088-.765 5.475-.614 7.529.336Zm-58.541 4.426c0 2.544.472 3.247 2.668 3.965.934.305 2.385.897 3.223 1.317.84.42 1.828.762 2.198.762.368 0 1.4-.68 2.291-1.513l1.62-1.513 1.823 1.82 1.822 1.818-1.516 1.617c-.834.89-1.516 1.92-1.516 2.288 0 .369.344 1.355.764 2.193.42.837 1.014 2.285 1.32 3.217.719 2.192 1.423 2.664 3.972 2.664h2.03v5.166h-2.03c-2.55 0-3.254.472-3.972 2.663-.306.932-.9 2.38-1.32 3.218-.42.837-.764 1.824-.764 2.193 0 .368.683 1.398 1.516 2.287l1.516 1.618-1.822 1.819-1.822 1.818-1.62-1.513c-.892-.832-1.923-1.513-2.292-1.513-.37 0-1.359.344-2.198.763-.838.42-2.29 1.012-3.223 1.317-2.196.718-2.668 1.42-2.668 3.965v2.026H77.413V77.91c0-2.545-.473-3.248-2.67-3.965a28.541 28.541 0 0 1-3.222-1.317c-.84-.42-1.828-.763-2.198-.763-.368 0-1.4.681-2.291 1.513l-1.62 1.513-1.823-1.819-1.822-1.818 1.516-1.618c.834-.89 1.516-1.919 1.516-2.287 0-.369-.344-1.356-.764-2.193a28.47 28.47 0 0 1-1.32-3.218c-.719-2.191-1.423-2.663-3.972-2.663h-2.03v-5.166h2.03c2.55 0 3.253-.472 3.972-2.664.306-.932.9-2.38 1.32-3.217.42-.837.764-1.824.764-2.193 0-.368-.682-1.398-1.516-2.288l-1.516-1.617 1.822-1.819 1.822-1.819 1.62 1.514c.892.831 1.923 1.512 2.292 1.512.37 0 1.359-.343 2.198-.762a28.56 28.56 0 0 1 3.223-1.317c2.196-.718 2.669-1.42 2.669-3.965v-2.027H82.588v2.027Zm-5.622 8.643c-2.047.513-4.96 2.234-6.374 3.765-.726.786-1.781 2.4-2.344 3.586-.927 1.953-1.024 2.448-1.024 5.24 0 2.911.068 3.221 1.208 5.524 1.455 2.938 3.328 4.768 6.335 6.19 1.954.924 2.454 1.022 5.233 1.022 2.779 0 3.28-.098 5.233-1.022 3.007-1.422 4.88-3.252 6.335-6.19 1.141-2.305 1.208-2.61 1.208-5.54s-.067-3.235-1.208-5.54c-2.186-4.414-6.069-7.004-10.84-7.231-1.38-.066-3.072.023-3.762.196Zm66.265 4.747c-1.245.462-2.306.868-2.358.904-.052.034.402 1.716 1.008 3.736.606 2.02 1.349 5.052 1.651 6.74.302 1.686.616 3.394.697 3.795.133.656.285.711 1.515.548 3.616-.478 3.471-.414 3.467-1.534-.005-1.6-1.415-8.097-2.555-11.769-.565-1.82-1.057-3.297-1.094-3.284l-2.331.864Zm-60.843.472c1.777.524 4.456 3.199 4.981 4.972.896 3.027.264 5.44-2.021 7.722-3.272 3.266-7.424 3.266-10.696 0-3.272-3.267-3.272-7.406 0-10.68 2.27-2.27 4.713-2.905 7.736-2.014ZM12.795 53.22c-1.226 4.237-2.656 12.912-2.656 16.118 0 .146 1.164.267 2.587.267 1.575 0 2.587-.132 2.587-.336 0-2.608 1.473-11.48 2.432-14.647.264-.872.48-1.767.48-1.988 0-.364-3.471-1.754-4.38-1.754-.205 0-.677 1.053-1.05 2.34Zm120.086 14.128c-4.718.86-8.764 3.028-12.291 6.587-2.964 2.99-4.661 5.697-5.885 9.39-.757 2.28-.857 3.093-.857 6.941 0 3.849.1 4.66.857 6.941 1.229 3.709 2.929 6.414 5.885 9.364 2.955 2.95 5.665 4.647 9.38 5.874 2.285.755 3.099.855 6.954.855 3.855 0 4.669-.1 6.954-.855 3.715-1.227 6.425-2.924 9.38-5.874 2.956-2.95 4.656-5.655 5.886-9.364.756-2.28.856-3.092.856-6.94 0-3.849-.1-4.661-.856-6.942-1.23-3.709-2.93-6.413-5.886-9.363-4.512-4.505-9.174-6.564-15.364-6.787-1.867-.067-4.123.01-5.013.173ZM19.033 72.513c-4.719.86-8.764 3.029-12.291 6.587-2.964 2.99-4.66 5.697-5.886 9.39C.1 90.772 0 91.585 0 95.433c0 3.848.1 4.66.856 6.941 1.23 3.709 2.93 6.413 5.886 9.363 2.955 2.95 5.664 4.647 9.38 5.875 2.285.754 3.099.855 6.954.855 3.855 0 4.669-.101 6.954-.855 3.715-1.228 6.425-2.925 9.38-5.875 2.956-2.95 4.656-5.654 5.885-9.363.757-2.281.857-3.093.857-6.941 0-3.849-.1-4.66-.857-6.941-1.23-3.71-2.93-6.413-5.885-9.364-4.513-4.504-9.175-6.564-15.364-6.786-1.868-.068-4.123.01-5.013.172Zm115.304 1.127v1.13H139.512v-1.13c0-1.367.325-1.414 3.162-.457 5.125 1.727 9.635 6.228 11.365 11.343.958 2.833.911 3.158-.458 3.158h-1.132v5.165h1.132c1.369 0 1.416.325.458 3.157-1.73 5.115-6.24 9.617-11.365 11.344-2.837.957-3.162.91-3.162-.457v-1.13H134.337v1.13c0 1.367-.326 1.414-3.163.457-5.125-1.727-9.635-6.229-11.365-11.344-.958-2.832-.911-3.157.458-3.157h1.132v-5.165h-1.174c-1.145 0-1.17-.027-1-1.05.272-1.639 1.463-4.571 2.428-5.978 2.574-3.753 5.542-6.078 9.595-7.518 2.592-.921 3.089-.84 3.089.502ZM26.493 77.698c6.273 1.128 11.714 6.04 13.923 12.568.832 2.459.833 7.865.003 10.331-1.993 5.92-6.22 10.138-12.168 12.143-2.463.831-7.88.832-10.35.003-8.768-2.941-13.973-11.122-12.685-19.94.846-5.798 4.557-10.861 9.87-13.473 3.825-1.879 7.283-2.374 11.407-1.632Zm107.844 6.456c0 4.107.133 7.05.337 7.43.251.468 10.78 6.108 11.402 6.108.199 0 2.286-4.51 2.147-4.64-.077-.07-2.069-1.091-4.426-2.267l-4.285-2.137V77.353H134.337v6.8ZM20.489 81.51c0 1.45-.079 1.607-.982 1.98-2.174.899-4.194 4.162-4.194 6.775 0 3.986 3.756 7.748 7.734 7.748 1.36 0 2.616 1.242 2.616 2.583 0 1.327-1.257 2.583-2.587 2.583-1.08 0-2.588-1.215-2.588-2.084 0-.408-.469-.499-2.587-.499-2.888 0-2.9.013-2.207 2.322.464 1.548 2.48 3.902 3.813 4.453.903.374.981.531.981 1.981v1.575H25.663v-1.575c0-1.45.079-1.607.982-1.981 2.174-.898 4.193-4.161 4.193-6.775 0-3.986-3.755-7.748-7.733-7.748-1.36 0-2.617-1.24-2.617-2.583 0-1.327 1.258-2.582 2.588-2.582 1.08 0 2.587 1.214 2.587 2.084 0 .408.47.498 2.588.498 2.888 0 2.9-.012 2.207-2.322-.464-1.547-2.48-3.902-3.813-4.453-.903-.373-.982-.53-.982-1.98v-1.576H20.488v1.576Zm56.924 11.338v2.583H82.588v-5.166H77.413v2.583Zm-14.731 8.541-.794.792v16.494h-6.814c-4.116 0-7.063.134-7.444.337-.784.419-6.442 11.616-6.442 12.75 0 .454.357 1.181.794 1.617.652.651 1.114.793 2.588.793h1.793v21.659l.794.793c.794.792.795.792 7.763.792 6.069 0 6.968.065 6.968.499 0 .274.357.856.794 1.291l.793.793h33.05l.793-.793c.437-.435.794-1.017.794-1.291 0-.434.899-.499 6.969-.499 6.967 0 6.968 0 7.762-.792l.794-.793v-21.659h1.793c1.474 0 1.936-.142 2.588-.793.436-.436.794-1.163.794-1.617 0-1.134-5.658-12.331-6.442-12.75-.381-.203-3.328-.337-7.444-.337h-6.814v-16.494l-.794-.792-.793-.793h-33.05l-.793.793Zm30.255 28.909v24.536H87.762v-4.402c0-5.236-.31-6.454-2.167-8.516-3.064-3.402-7.632-3.473-10.943-.168-2.108 2.104-2.414 3.206-2.414 8.684v4.402H67.063v-49.072h25.874v24.536Zm-20.7-16.788v2.583h5.176v-5.166H72.238v2.583Zm10.35 0v2.583H87.763v-5.166h-5.174v2.583Zm43.003 4.394c-.793.818-2.402 2.322-3.577 3.342l-2.136 1.853.842 1.116c.463.614 1.168 1.525 1.568 2.026l.725.91 1.539-1.252c.846-.688 2.683-2.34 4.083-3.671l2.545-2.42-1.898-1.696c-1.044-.932-1.977-1.696-2.073-1.696-.097 0-.825.669-1.618 1.488Zm-92.245 2.851c-.845.962-1.536 1.809-1.536 1.883 0 .073 1.167 1.117 2.593 2.318l2.594 2.185.721-.903a97.833 97.833 0 0 0 1.598-2.078l.876-1.175-1.523-1.16c-.837-.638-1.876-1.535-2.307-1.993-.431-.459-.94-.832-1.132-.83-.191.003-1.04.791-1.884 1.753Zm38.893 3.086v2.583H77.413v-5.166H72.238v2.583Zm10.35 0v2.583h5.174v-5.166h-5.174v2.583Zm-20.7 2.583v2.582H47.973l1.3-2.582 1.302-2.583H61.888v2.583Zm48.838 0 1.301 2.582H98.112v-5.165H109.425l1.301 2.583Zm-38.488 7.748v2.582H77.413v-5.165H72.238v2.583Zm10.35 0v2.582h5.174v-5.165h-5.174v2.583Zm-20.7 9.039v9.04h-10.35v-18.079h10.35v9.039Zm46.574 0v9.04h-10.35v-18.079h10.35v9.039Zm-26.669 2.084c.765.763.794.953.794 5.166v4.373h-5.174v-4.373c0-4.213.029-4.403.794-5.166.5-.5 1.163-.792 1.793-.792.63 0 1.293.292 1.793.792Z" fill="#2C2C2C"/></svg>