<svg width="70" height="70" fill="none" xmlns="http://www.w3.org/2000/svg"><path fill-rule="evenodd" clip-rule="evenodd" d="M50.529.358c-.336.336-.358.455-.358 1.928v1.57l-.984-.963c-1.15-1.126-1.526-1.349-2.055-1.217-.44.11-5.313 4.864-5.66 5.522-.33.629-.14 1.052 1.005 2.233l1.036 1.069h-1.562c-1.464 0-1.584.023-1.92.358l-.358.358v7.901l.358.358c.336.336.456.358 1.928.358h1.57l-.964.985c-1.125 1.15-1.348 1.525-1.216 2.055.11.44 4.863 5.314 5.52 5.66.63.331 1.052.141 2.233-1.004l1.069-1.037v1.563c0 1.464.022 1.585.358 1.92l.358.358h7.9l.357-.358c.336-.335.358-.456.358-1.92v-1.563l1.069 1.037c1.181 1.145 1.604 1.335 2.233 1.005.657-.346 5.411-5.22 5.52-5.661.132-.53-.09-.906-1.216-2.055l-.964-.985h1.57c1.473 0 1.592-.022 1.928-.358l.358-.358v-7.901l-.358-.358c-.336-.336-.455-.358-1.928-.358h-1.57l.964-.984c1.126-1.15 1.348-1.526 1.217-2.056-.11-.44-4.864-5.314-5.522-5.66-.628-.331-1.051-.14-2.232 1.005L59.502 3.84V2.278c0-1.464-.022-1.585-.358-1.92L58.786 0h-7.9l-.357.358Zm6.644 2.96c.004 1.223.356 2.065 1.036 2.474 1.167.702 2.108.536 3.29-.581l.788-.747 1.625 1.625 1.625 1.625-.747.79c-1.117 1.18-1.283 2.122-.58 3.29.408.68 1.25 1.032 2.473 1.036l.984.003V17.5l-.984.003c-1.223.004-2.065.357-2.474 1.037-.702 1.167-.536 2.109.581 3.29l.747.789-1.625 1.625-1.625 1.625-.788-.746c-1.182-1.117-2.123-1.284-3.29-.582-.68.41-1.032 1.251-1.036 2.475l-.004.984h-4.665l-.003-.984c-.004-1.224-.357-2.066-1.037-2.475-1.167-.702-2.108-.535-3.29.582l-.788.746-1.625-1.625-1.624-1.625.746-.789c1.117-1.181 1.283-2.123.581-3.29-.409-.68-1.25-1.033-2.474-1.037l-.984-.003v-4.667l.984-.003c1.223-.004 2.065-.357 2.474-1.037.702-1.167.536-2.108-.581-3.29l-.746-.789L45.76 6.09l1.625-1.625.789.747c1.18 1.117 2.122 1.283 3.289.581.68-.409 1.033-1.25 1.037-2.474l.003-.985h4.665l.004.985Zm-3.704 6.168c-.923.232-2.236 1.01-2.873 1.701-.328.355-.803 1.084-1.057 1.62-.418.882-.462 1.106-.462 2.367 0 1.315.031 1.455.545 2.495.656 1.328 1.5 2.154 2.855 2.796.881.418 1.107.462 2.36.462 1.252 0 1.478-.044 2.359-.462 1.355-.642 2.2-1.468 2.855-2.796.515-1.041.545-1.179.545-2.502 0-1.324-.03-1.462-.545-2.503-.985-1.994-2.735-3.164-4.887-3.266-.62-.03-1.384.01-1.695.088ZM2.348 11.857c-.716.226-1.936 1.49-2.156 2.233-.256.869-.256 37.451 0 38.32.237.801 1.445 2.01 2.246 2.246.444.131 3.082.177 10.17.177h9.569v7h-3.141c-4.165 0-3.858-.279-3.858 3.5 0 2.762.003 2.787.358 3.142.25.25.52.358.895.358.424 0 .67.123 1.17.584l.633.583H22.62l.633-.583.632-.584H36.797l.633.584.633.583H42.45l.633-.583c.5-.46.746-.584 1.17-.584.375 0 .644-.107.894-.358.355-.355.358-.38.358-3.142 0-3.779.308-3.5-3.857-3.5h-3.141v-7h9.014c10.297 0 9.921.04 11.004-1.165.347-.385.709-.961.804-1.28.126-.421.173-3.177.173-10.15v-9.571H57.17V51.785l-.357.357-.358.358H3.064l-.358-.358-.358-.358V14.716l.358-.358.358-.358H37.34v-2.333l-17.24.014c-12.125.011-17.393.063-17.752.176Zm53.565-.013c1.253.37 2.423 1.974 2.423 3.323 0 1.807-1.693 3.5-3.5 3.5-1.806 0-3.499-1.693-3.499-3.5 0-.917.334-1.656 1.089-2.413 1.023-1.025 2.124-1.313 3.487-.91Zm-36.46 5.918c-.965.345-1.816.909-2.314 1.532-.546.686-7.319 13.29-7.6 14.147-.577 1.75.29 3.723 2.048 4.664l.603.322h8.82c8.773 0 8.825-.002 9.413-.316 1.757-.941 2.634-2.928 2.06-4.67-.341-1.038-7.097-13.506-7.725-14.257-1.168-1.398-3.57-2.042-5.305-1.422Zm2.651 2.347c.32.148.724.425.897.616.473.524 7.212 13.113 7.297 13.633.097.586-.276 1.303-.826 1.587-.643.333-16.28.333-16.923 0-.55-.284-.923-1-.826-1.587.085-.52 6.824-13.108 7.297-13.632.421-.466 1.364-.886 1.99-.886.281 0 .773.12 1.094.269Zm-2.26 6.724v3.5h2.333v-7h-2.333v3.5ZM31.508 24.5v1.167H38.507v21H31.508v-5.834h-2.332v5.834H22.176v-5.834h-2.333v5.834H12.845v-5.834h-2.332v5.834H5.847V49H53.67v-2.333h-3.499V32.216l-.358-.358-.358-.358H40.84V24.049l-.358-.358-.358-.358h-8.616V24.5Zm-11.306 7.358c-.723.723-.21 1.975.809 1.975.284 0 .582-.132.808-.358.226-.225.358-.524.358-.808 0-.284-.132-.583-.358-.809a1.175 1.175 0 0 0-.808-.358c-.284 0-.583.132-.809.358Zm27.636 8.392v6.417H40.84V33.833H47.839v6.417ZM29.175 56.809c0 1.903.014 1.988.358 2.333.474.474 1.144.474 1.617 0 .345-.345.358-.43.358-2.333v-1.976h4.666v7H24.51v-7h4.665v1.976Zm13.997 8.524V66.5h-25.66v-2.333h25.66v1.166Z" fill="#fff"/></svg>