<svg width="70" height="70" fill="none" xmlns="http://www.w3.org/2000/svg"><g clip-path="url('#clip0_500_8352')" fill="#fff"><path fill-rule="evenodd" clip-rule="evenodd" d="M8.327.086C6.263.463 4.493 1.411 2.949 2.968 1.653 4.276.911 5.46.375 7.076.044 8.074 0 8.43 0 10.113s.044 2.039.375 3.037c.538 1.622 1.281 2.806 2.574 4.096s2.479 2.033 4.104 2.57c1 .33 1.356.374 3.043.374 1.686 0 2.042-.044 3.042-.374 1.626-.537 2.81-1.28 4.104-2.57 1.293-1.29 2.037-2.474 2.575-4.096.549-1.656.549-4.418 0-6.074-.538-1.622-1.282-2.806-2.575-4.096C15.268 1.009 13.228.108 10.52.01c-.817-.029-1.804.005-2.193.076Zm49.808 0c-2.064.377-3.834 1.325-5.377 2.882-1.297 1.308-2.039 2.492-2.575 4.108-.33.998-.374 1.353-.374 3.037s.043 2.039.374 3.037c.538 1.622 1.282 2.806 2.575 4.096 1.293 1.29 2.478 2.033 4.104 2.57 1 .33 1.356.374 3.042.374 1.687 0 2.043-.044 3.043-.374 1.625-.537 2.81-1.28 4.103-2.57 1.294-1.29 2.037-2.474 2.575-4.096.331-.998.375-1.353.375-3.037s-.044-2.039-.375-3.037c-.538-1.622-1.281-2.806-2.575-4.096C65.076 1.009 63.038.108 60.33.01c-.817-.029-1.804.005-2.194.076ZM31.415 1.28a31.68 31.68 0 0 0-7.575 1.913c-1.727.671-2.849 1.23-2.849 1.417 0 .113.767 1.591.944 1.82.025.03.539-.173 1.143-.455 7.387-3.446 16.343-3.48 23.655-.088.71.328 1.31.572 1.333.54.188-.243.943-1.708.943-1.829 0-.383-4.144-2.006-6.792-2.66-3.06-.755-7.777-1.043-10.802-.658ZM11.59 2.354c2.744.494 5.125 2.643 6.091 5.5.364 1.075.365 3.44.001 4.519-.872 2.59-2.72 4.435-5.323 5.312-1.078.364-3.447.364-4.528.002-3.836-1.287-6.113-4.866-5.55-8.724.37-2.537 1.993-4.752 4.318-5.894 1.673-.823 3.187-1.04 4.99-.715Zm49.808 0c1.38.248 2.983 1.107 4.046 2.168 1.613 1.61 2.308 3.295 2.309 5.591 0 1.687-.304 2.812-1.102 4.075l-.46.729-.615-.933c-.358-.544-.962-1.202-1.447-1.578-.79-.613-.822-.66-.62-.94.725-.998.848-1.398.85-2.765.002-1.568-.254-2.244-1.218-3.216-.816-.822-1.689-1.214-2.856-1.281-1.177-.068-2.022.153-2.864.75-2.09 1.484-2.559 4.323-1.06 6.424l.29.406-.461.286c-.707.438-1.607 1.422-2.062 2.254l-.41.75-.466-.725c-2.532-3.938-1.056-9.21 3.156-11.28 1.673-.823 3.186-1.04 4.99-.715ZM5.5 5.67c-.766.292-1.548 1.086-1.92 1.952-.373.864-.324 1.996.124 2.855.158.305 1.562 1.821 3.118 3.368 2.477 2.463 2.885 2.813 3.275 2.813.39 0 .797-.35 3.274-2.813 1.557-1.547 2.967-3.067 3.134-3.378.402-.746.426-2.313.046-3.037-.719-1.369-1.985-2.075-3.48-1.94-.955.087-1.4.298-2.302 1.09l-.672.592-.672-.591c-.37-.325-.863-.69-1.096-.81-.6-.31-2.134-.365-2.83-.1Zm55.645 1.053c.673.41 1.023 1.068 1.024 1.922 0 .931-.414 1.57-1.305 2.012-2.447 1.212-4.373-2.366-2.097-3.897.619-.417 1.725-.434 2.378-.037ZM8.468 8.842c.966.923 1.264 1.13 1.628 1.13.363 0 .661-.207 1.627-1.13 1.032-.987 1.247-1.13 1.694-1.13.644 0 1.207.514 1.207 1.102 0 .565-.517 1.212-2.674 3.345l-1.854 1.834L8.24 12.16c-2.156-2.133-2.673-2.78-2.673-3.345 0-.588.562-1.102 1.206-1.102.448 0 .662.143 1.694 1.13Zm53.276 4.741c.428.198 1.022.595 1.32.881.555.532 1.227 1.673 1.227 2.08 0 .32-1.848 1.14-3.037 1.347-1.7.295-3.682-.039-5.164-.87l-.547-.307.189-.532c.434-1.23 1.49-2.296 2.718-2.746.913-.335 2.395-.268 3.294.147Zm.92 7.795c-.545.202-1.01.38-1.032.395-.023.015.176.75.44 1.634.266.884.591 2.21.723 2.949.133.738.27 1.485.305 1.66.058.288.125.312.663.24 1.582-.209 1.518-.18 1.517-.67-.002-.701-.62-3.543-1.118-5.15-.247-.796-.463-1.442-.479-1.436l-1.02.378ZM5.598 23.284c-.537 1.853-1.162 5.649-1.162 7.051 0 .064.51.117 1.132.117.689 0 1.132-.058 1.132-.147 0-1.14.644-5.022 1.063-6.408.116-.381.21-.773.21-.87 0-.159-1.518-.767-1.916-.767-.09 0-.296.46-.46 1.024Zm52.538 6.18c-2.065.377-3.835 1.326-5.378 2.882-1.297 1.308-2.039 2.493-2.575 4.109-.33.998-.374 1.353-.374 3.037 0 1.683.043 2.039.374 3.036.538 1.623 1.282 2.806 2.575 4.097 1.293 1.29 2.478 2.033 4.104 2.57 1 .33 1.356.374 3.042.374 1.687 0 2.043-.044 3.043-.374 1.625-.537 2.81-1.28 4.103-2.57 1.294-1.291 2.037-2.474 2.575-4.097.331-.997.375-1.353.375-3.036 0-1.684-.044-2.04-.375-3.037-.538-1.623-1.281-2.806-2.575-4.097-1.974-1.97-4.013-2.871-6.721-2.969-.817-.03-1.804.005-2.194.076Zm-49.809 2.26c-2.064.377-3.834 1.325-5.378 2.882C1.653 35.914.911 37.1.375 38.715.044 39.712 0 40.068 0 41.75c0 1.684.044 2.04.375 3.037.538 1.623 1.281 2.806 2.574 4.097 1.293 1.29 2.479 2.033 4.104 2.57 1 .33 1.356.374 3.043.374 1.686 0 2.042-.044 3.042-.374 1.626-.537 2.81-1.28 4.104-2.57 1.293-1.291 2.037-2.474 2.575-4.097.33-.998.374-1.353.374-3.037 0-1.683-.043-2.039-.374-3.036-.538-1.623-1.282-2.806-2.575-4.097-1.974-1.97-4.014-2.872-6.722-2.969-.817-.03-1.804.005-2.193.076Zm50.445.494v.494h2.264v-.495c0-.598.143-.618 1.384-.2 2.242.756 4.215 2.725 4.972 4.963.42 1.24.399 1.382-.2 1.382h-.496v2.26h.496c.599 0 .62.142.2 1.38-.757 2.238-2.73 4.208-4.972 4.964-1.241.418-1.384.398-1.384-.2v-.495h-2.264v.495c0 .598-.142.618-1.383.2-2.242-.756-4.216-2.726-4.973-4.963-.419-1.24-.398-1.382.201-1.382h.495v-2.26h-.514c-.5 0-.511-.01-.437-.458.119-.718.64-2 1.062-2.616 1.127-1.642 2.425-2.659 4.198-3.29 1.134-.402 1.351-.367 1.351.22Zm-47.181 1.775c2.744.493 5.125 2.642 6.091 5.498.364 1.076.365 3.441.001 4.52-.872 2.59-2.72 4.436-5.323 5.313-1.078.363-3.447.364-4.528.001-3.836-1.287-6.113-4.866-5.55-8.724.37-2.536 1.993-4.752 4.318-5.894 1.673-.822 3.187-1.039 4.99-.714Zm47.181 2.824c0 1.797.059 3.085.148 3.251.11.205 4.716 2.672 4.988 2.672.087 0 1-1.973.94-2.03-.034-.03-.905-.477-1.937-.992l-1.875-.935V33.842h-2.264v2.975ZM8.964 35.661c0 .634-.035.703-.43.866-.95.394-1.834 1.821-1.834 2.965 0 1.744 1.643 3.39 3.383 3.39.595 0 1.145.542 1.145 1.13 0 .58-.55 1.13-1.132 1.13-.472 0-1.132-.532-1.132-.913 0-.178-.206-.218-1.132-.218-1.264 0-1.27.006-.966 1.016.203.677 1.085 1.707 1.668 1.948.395.164.43.233.43.867v.69h2.264v-.69c0-.634.034-.703.429-.867.951-.393 1.835-1.82 1.835-2.964 0-1.744-1.643-3.39-3.384-3.39-.594 0-1.144-.543-1.144-1.13 0-.58.55-1.13 1.132-1.13.472 0 1.132.532 1.132.912 0 .179.205.218 1.132.218 1.263 0 1.269-.005.965-1.015-.203-.677-1.085-1.707-1.668-1.949-.395-.163-.43-.232-.43-.866v-.69H8.965v.69Zm24.904 4.96v1.13h2.264v-2.26h-2.264v1.13Zm-6.445 3.737-.347.347v7.216h-2.981c-1.8 0-3.09.058-3.257.147-.343.184-2.818 5.082-2.818 5.578 0 .199.156.517.347.708.285.285.488.347 1.132.347h.785v9.476l.347.346c.348.347.348.347 3.396.347 2.656 0 3.049.028 3.049.218 0 .12.156.375.347.565l.348.347H42.23l.347-.347c.19-.19.347-.445.347-.565 0-.19.393-.218 3.049-.218 3.048 0 3.049 0 3.396-.347l.347-.346V58.7h.785c.644 0 .847-.062 1.132-.347.19-.19.347-.51.347-.708 0-.496-2.475-5.394-2.818-5.578-.167-.089-1.456-.147-3.257-.147h-2.98v-7.216l-.348-.347-.347-.347H27.77l-.347.347ZM40.66 57.006V67.74h-2.264v-1.926c0-2.29-.136-2.823-.948-3.725-1.34-1.489-3.34-1.52-4.788-.074-.922.92-1.056 1.403-1.056 3.8v1.925H29.34V46.271h11.32v10.735Zm-9.056-7.345v1.13h2.264v-2.26h-2.264v1.13Zm4.528 0v1.13h2.264v-2.26h-2.264v1.13Zm18.814 1.922a30.611 30.611 0 0 1-1.565 1.462l-.935.811.369.488c.202.269.51.668.685.887l.318.398.673-.548a40.367 40.367 0 0 0 1.787-1.606l1.113-1.059-.83-.741c-.457-.408-.865-.742-.908-.742-.042 0-.36.292-.707.65Zm-40.358 1.248c-.37.42-.672.791-.672.823 0 .033.51.49 1.135 1.015l1.135.956.315-.395c.174-.218.488-.627.7-.91l.383-.514-.667-.507c-.366-.28-.82-.672-1.009-.872-.189-.2-.412-.364-.495-.363-.084.001-.455.346-.825.767Zm17.016 1.35v1.13h2.264v-2.26h-2.264v1.13Zm4.528 0v1.13h2.264v-2.26h-2.264v1.13Zm-9.056 1.13v1.13h-6.088l.57-1.13.569-1.13h4.949v1.13Zm21.367 0 .569 1.13h-6.088v-2.26h4.949l.57 1.13ZM31.604 58.7v1.13h2.264v-2.26h-2.264v1.13Zm4.528 0v1.13h2.264v-2.26h-2.264v1.13Zm-9.056 3.954v3.955h-4.528V58.701h4.528v3.954Zm20.376 0v3.955h-4.528V58.701h4.528v3.954Zm-11.667.912c.334.334.347.417.347 2.26v1.913h-2.264v-1.913c0-1.843.013-1.926.347-2.26A1.14 1.14 0 0 1 35 63.22c.276 0 .566.128.785.347Z"/><path d="M39.68 17.553c-.398-1.44-1.425-2.641-2.741-3.188-.608-.253-1.032-.334-1.749-.339-.736-.005-1.238.09-1.872.356-1.382.582-2.464 1.903-2.769 3.38-.089.43-.098.753-.098 2.75v2.003h-.685l.001-1.953c0-.605.006-1.193.015-1.653.01-.47.022-.784.033-.86a5.447 5.447 0 0 1 1.554-3.134c1.28-1.279 3.03-1.813 4.829-1.474 1.938.366 3.626 1.963 4.12 3.904.163.643.194 1.097.194 3.29v1.88h-.679l-.017-2.128c-.016-2.25-.02-2.417-.136-2.834Zm0 0-.24.067m.24-.067-.24.067m0 0c.104.376.11.498.126 2.77l.018 2.375-8.79-4.953c.289-1.396 1.315-2.65 2.62-3.2.601-.252 1.069-.34 1.774-.336.688.005 1.08.08 1.655.32 1.24.515 2.217 1.653 2.597 3.024Zm3.258 7.08c-.083-.123-.149-.2-.227-.267a1.888 1.888 0 0 0-.348-.222l-.166-.088-6.72-.009c-1.864-.002-3.573 0-4.824.005a219.945 219.945 0 0 0-1.911.017 5.291 5.291 0 0 0-.11.004h-.01a1.524 1.524 0 0 0-.89.784l-.118.238-.013 4.718c-.007 2.362-.01 3.553.001 4.197.011.626.036.706.075.834l.002.009c.042.136.071.207.112.272.043.069.107.142.235.272.212.214.332.293.499.354l.244.089h13.269l.243-.09c.164-.062.295-.148.496-.35l.161-10.767Zm0 0c.015.022.029.041.04.06m-.04-.06.04.06m0 0c.066.095.098.14.125.218m-.124-.219.124.22m0 0c.034.096.063.25.081.578m-.08-.578.08.578m0 0c.034.607.031 1.725.024 3.988m-.024-3.988.024 3.988m0 0-.001.56m.001-.56-.001.56m0 0-.003 1.08m.003-1.08-.003 1.08m0 0c-.005 2.002-.007 2.987-.055 3.52m.055-3.52-.055 3.52m0 0c-.028.308-.07.424-.11.49m.11-.49-.11.49m0 0a.534.534 0 0 1-.088.106m.089-.106-.089.106m0 0-.063.06m.063-.06-.063.06m0 0-.013.012m.013-.012-.013.012m0 0-.098.094.098-.094Zm-7.03-5.551a.68.68 0 0 0-.177-.157.612.612 0 0 0-.882.409c-.053.235.038.473.295.65.058.04.08.047.102.052.033.006.086.009.217 0l.446-.954Zm0 0c.071.083.106.15.112.174m-.111-.174.11.174m0 0a.891.891 0 0 1-.003.299m.004-.299-.004.299m0 0c-.01.06-.023.117-.037.163m.037-.163-.037.163m0 0a.471.471 0 0 1-.02.054m.02-.054-.02.054m0 0a.137.137 0 0 1-.01.018m.01-.018-.01.018m0 0a.58.58 0 0 1-.196.184.718.718 0 0 1-.29.063l.486-.247Zm-2.687-18.387.077.237-2.473 1.495c-1.028.979-1.672 2.132-1.99 3.563l-.244-.055c-.106.477-.114.714-.134 2.944l-.02 2.224-.133.034a2.725 2.725 0 0 0-1.345.764c-.401.395-.635.785-.806 1.339-.055.177-.077.357-.089 1.042-.012.692-.013 1.93-.013 4.248v4.963l.012.036.11.345c.165.523.466 1.003.856 1.36.412.378.759.568 1.286.703.218.056.388.08 1.288.092.905.012 2.57.013 5.798.013 3.227 0 4.893 0 5.798-.013.9-.013 1.07-.036 1.288-.092a2.725 2.725 0 0 0 1.295-.707c.384-.358.684-.84.848-1.356l.11-.345.011-.037v-4.938c0-2.263-.002-3.496-.013-4.2-.012-.695-.033-.898-.083-1.08-.292-1.055-1.172-1.924-2.204-2.153l-.085-.019-.021-2.195c-.013-1.302-.022-2.003-.067-2.493-.046-.505-.13-.793-.282-1.266l-.238.076.238-.076c-.797-2.487-2.977-4.356-5.53-4.734a8.75 8.75 0 0 0-1.781-.046l.026.25-.026-.25a8.201 8.201 0 0 0-1.464.327Zm4.15 4.135c.32.262.647.689.844 1.111.145.312.211.468.247.843.04.4.042 1.03.042 2.28v2.003H32.036v-2.003c.001-1.27.004-1.903.046-2.306.04-.379.111-.54.274-.876l-.225-.11.225.11c.206-.426.682-.965 1.101-1.245.653-.435 1.551-.603 2.347-.436.402.085.98.364 1.306.629Zm-2.77 15.942.008.002v.622c0 .437.007.73.057.931.028.11.071.206.142.289.07.08.153.133.23.172.113.059.232.1.365.099a.797.797 0 0 0 .366-.101l-.115-.222.115.222a.68.68 0 0 0 .23-.183.752.752 0 0 0 .134-.294c.05-.206.061-.503.061-.934l.001-.613.125-.054-.099-.23.1.23c.436-.189.829-.59 1.047-1.048.072-.153.124-.271.152-.414.027-.137.03-.286.03-.495a2.59 2.59 0 0 0-.03-.493 1.683 1.683 0 0 0-.15-.411 2.138 2.138 0 0 0-1.883-1.251c-.33-.014-.52.008-.79.101l.082.236-.081-.236c-1.653.57-1.995 2.734-.604 3.793.145.11.365.238.507.282Z" stroke="#fff" stroke-width=".5"/></g><defs><clipPath id="clip0_500_8352"><path fill="#fff" d="M0 0h70v70H0z"/></clipPath></defs></svg>