<svg width="24" height="24" fill="none" xmlns="http://www.w3.org/2000/svg"><path fill-rule="evenodd" clip-rule="evenodd" d="M8.34.051A9.586 9.586 0 0 0 2.793 2.78C-.037 5.609-.8 9.901.888 13.482c1.396 2.96 4.178 5.008 7.373 5.427a9.48 9.48 0 0 0 6.737-1.691c.23-.166.435-.301.455-.301.02 0 1.588 1.55 3.484 3.446 3.633 3.632 3.637 3.636 4.057 3.637.207 0 .612-.17.736-.31.135-.152.27-.5.27-.697 0-.42-.003-.423-3.634-4.06-1.895-1.896-3.444-3.463-3.444-3.48 0-.018.137-.226.304-.463 1.165-1.647 1.756-3.485 1.758-5.472a9.403 9.403 0 0 0-2.8-6.757C14.752 1.337 12.985.435 10.967.097 10.33-.01 9.007-.033 8.34.05Zm2.252 2.018c2.138.344 3.963 1.5 5.122 3.246.862 1.298 1.258 2.596 1.263 4.142.003.744-.05 1.195-.221 1.878a7.51 7.51 0 0 1-5.413 5.416c-.682.17-1.133.224-1.877.221-1.545-.005-2.842-.401-4.14-1.264a7.457 7.457 0 0 1-3.315-6.216c0-1.262.258-2.319.845-3.455.948-1.836 2.632-3.202 4.664-3.785.857-.246 2.186-.325 3.072-.183Z" fill="#2C2C2C"/></svg>