<svg width="70" height="71" fill="none" xmlns="http://www.w3.org/2000/svg"><path fill-rule="evenodd" clip-rule="evenodd" d="M2.348.187C1.633.413.412 1.677.193 2.42c-.257.872-.257 51.453 0 52.324.237.801 1.444 2.01 2.245 2.246.45.133 3.536.178 12.281.178 7.346 0 11.681.051 11.681.14 0 .076-.551 2.16-1.225 4.63-.674 2.47-1.3 4.77-1.39 5.11l-.166.62h-2.612v2.334h27.988v-2.333h-2.613l-.165-.62c-.09-.341-.716-2.641-1.39-5.111-.674-2.47-1.226-4.554-1.226-4.63 0-.089 4.346-.14 11.709-.14 13.316 0 12.597.06 13.699-1.165.346-.386.708-.962.803-1.28.25-.836.25-51.445 0-52.281-.095-.319-.457-.895-.803-1.28C67.86-.115 71.12-.005 34.939.012c-22.944.01-32.226.06-32.59.175Zm64.947 2.501.358.358v43.62h-15.16v-1.572l-1.348-.59a324.56 324.56 0 0 0-2.007-.871c-.596-.254-.696-.372-1.05-1.235l-.391-.954.805-2.008.805-2.008-1.953-1.954-1.953-1.954-1.993.8-1.992.8-.967-.384c-.883-.35-.992-.441-1.249-1.045-.155-.363-.548-1.27-.873-2.013l-.591-1.352-2.764.04-2.764.04-.837 1.96-.838 1.96-.955.404-.954.405-2.012-.808-2.011-.807-1.954 1.954-1.953 1.954.807 2.013.807 2.012-.402.95-.402.95-1.998.874-1.998.873V46.667H2.348V3.047l.358-.359.358-.358h63.874l.357.358ZM8.18 4.854c-.715.226-1.936 1.49-2.155 2.233-.253.857-.253 17.631 0 18.488.236.802 1.444 2.01 2.245 2.246.448.133 3.39.178 11.599.178 12.521 0 11.892.056 12.99-1.165.346-.386.708-.962.803-1.28.246-.822.246-17.623 0-18.445-.095-.319-.457-.895-.803-1.28-1.1-1.224-.454-1.167-13.08-1.15-7.639.01-11.248.064-11.599.175Zm38.556.013c-5.347 1.03-9.438 5.16-10.364 10.467-.706 4.04.649 8.298 3.57 11.221 2.296 2.297 5.19 3.556 8.58 3.734l1.64.087V18.665h11.705l-.086-1.641c-.307-5.845-3.986-10.401-9.651-11.953-1.335-.366-4.026-.468-5.394-.204Zm-15.59 2.488c.293.294.357.503.357 1.167v.809H8.18v-.81c0-.663.064-.872.358-1.166l.358-.358h21.892l.357.358Zm20.935.122c1.712.546 2.964 1.317 4.289 2.643 1.63 1.63 2.664 3.578 2.918 5.495l.095.716h-9.875l-3.463-3.463c-1.905-1.904-3.463-3.513-3.463-3.576 0-.224 1.769-1.252 2.808-1.63 1.48-.541 2.28-.659 4.043-.596 1.1.04 1.845.155 2.648.411Zm-7.715 7.066 3.463 3.463v9.884l-.74-.098c-.97-.129-2.404-.656-3.45-1.27-1.203-.706-3.084-2.623-3.75-3.822-1.55-2.794-1.79-6.046-.66-8.971.413-1.068 1.35-2.648 1.57-2.648.057 0 1.663 1.558 3.567 3.462Zm-12.863 3.764v6.642l-.358.358-.357.358H8.895l-.358-.358-.358-.358V11.664h23.323v6.643ZM12.114 16.55l-2.11 2.115 2.148 2.15 2.148 2.149.837-.837.836-.837-1.307-1.313-1.306-1.313 1.272-1.28c.7-.703 1.273-1.345 1.273-1.427 0-.189-1.347-1.523-1.538-1.523-.078 0-1.092.952-2.253 2.115Zm12.35-1.418c-.378.384-.688.76-.688.836 0 .076.573.713 1.273 1.417l1.272 1.279-1.306 1.313-1.307 1.313.837.837.836.837 2.148-2.15 2.149-2.149-2.111-2.116c-1.16-1.163-2.18-2.115-2.264-2.115-.084 0-.462.314-.84.698Zm-5.708 3.616c-.641 1.608-1.083 2.908-1.01 2.977.07.067.541.289 1.048.493l.92.371.195-.468c1.18-2.84 2.096-5.287 2.008-5.37-.083-.08-1.9-.858-2.002-.858-.011 0-.533 1.284-1.16 2.855Zm33.737 8.104v5.854l1.567-.083c1.84-.097 2.93-.364 4.355-1.067 2.581-1.273 4.624-3.762 5.381-6.559.129-.475.272-1.57.317-2.432l.083-1.568H52.493v5.855Zm9.184-3.18c0 .49-.518 1.928-.975 2.71-.526.898-1.67 2.088-2.551 2.655-.817.524-2.43 1.148-2.968 1.148h-.358v-6.854h6.852v.341Zm-55.83 8.993v1.167H19.84v-2.334H5.847v1.167Zm31.12 1.737.728 1.734 1.839.753 1.839.753 1.654-.666c.91-.366 1.721-.665 1.802-.665.2 0 1.688 1.48 1.688 1.678 0 .087-.3.903-.666 1.813l-.665 1.656.753 1.838.752 1.839 1.771.76 1.772.76-3.025.005-3.025.006v-.34c0-.188-.136-.762-.303-1.277-1.262-3.89-4.865-6.545-8.88-6.545-3.317 0-6.488 1.855-8.09 4.734-.53.952-1.094 2.545-1.094 3.087v.34l-3.025-.005-3.024-.006 1.771-.76 1.772-.76.752-1.838.752-1.838-.665-1.656c-.366-.91-.665-1.722-.665-1.803 0-.2 1.48-1.688 1.678-1.688.086 0 .901.3 1.812.666l1.655.666 1.837-.749 1.837-.748.729-1.739.729-1.74h2.478l.727 1.735Zm-31.12 2.93V38.5H16.342v-2.334H5.847v1.167Zm46.646 0V38.5H64.154v-2.334h-11.66v1.167ZM5.847 42v1.167H16.342v-2.334H5.847V42Zm30.824-.944a7.142 7.142 0 0 1 3.358 1.977c.805.844 1.58 2.23 1.765 3.16l.094.474H28.113l.095-.474c.185-.93.96-2.316 1.764-3.16 1.749-1.835 4.326-2.595 6.699-1.977ZM52.493 42v1.167H64.154v-2.334h-11.66V42Zm15.16 9.56c0 2.522-.005 2.563-.358 2.916l-.357.358H3.064l-.358-.358c-.353-.353-.358-.394-.358-2.917V49h65.305v2.56Zm-26.376 6.227c.09.341.716 2.641 1.39 5.111.674 2.47 1.226 4.554 1.226 4.63 0 .088-3.324.14-8.892.14-5.569 0-8.892-.052-8.892-.14 0-.076.551-2.16 1.225-4.63.674-2.47 1.3-4.77 1.39-5.11l.166-.62H41.112l.165.62Z" fill="#6A6A6A"/></svg>