<svg width="70" height="71" fill="none" xmlns="http://www.w3.org/2000/svg"><path fill-rule="evenodd" clip-rule="evenodd" d="M2.342.193C1.627.418.406 1.683.187 2.426c-.25.843-.25 10.649 0 11.492.236.8 1.444 2.01 2.245 2.246.33.098.97.178 1.422.178h.822v2.334h-.822c-.452 0-1.092.08-1.422.177C1.632 19.09.423 20.3.187 21.1c-.25.843-.25 10.649 0 11.492.236.8 1.444 2.01 2.245 2.246.33.098.97.178 1.422.178h.822v2.334h-.822c-.452 0-1.092.08-1.422.177-.8.237-2.009 1.446-2.245 2.247-.25.843-.25 10.649 0 11.492.236.8 1.444 2.01 2.245 2.246.449.133 3.46.178 11.921.178h11.32l.002 4.924c.001 4.858.006 4.933.344 5.658 1.664 3.576 11.738 6.015 23.57 5.706 10.804-.282 18.573-2.49 20.069-5.706l.342-.735V27.502l-.342-.735c-1.38-2.963-8.013-5.047-17.928-5.634l-3.004-.178-.172-.415c-.24-.577-1.314-1.487-2-1.692-.315-.095-.942-.172-1.394-.172h-.821v-2.334h.821c.452 0 1.092-.08 1.422-.178.8-.237 2.009-1.445 2.245-2.247.25-.842.25-10.648 0-11.491-.236-.801-1.444-2.01-2.245-2.247-.82-.242-43.47-.23-44.24.014Zm43.972 2.501.358.358v10.24l-.358.357-.358.358H3.058L2.7 13.65l-.358-.358V3.052l.358-.358.358-.358h42.898l.358.358ZM5.034 5.03c-.356.355-.358.38-.358 3.143 0 3.75-.249 3.501 3.5 3.501 3.747 0 3.499.249 3.499-3.501s.248-3.502-3.5-3.502c-2.761 0-2.787.003-3.142.359Zm9.332 0c-.355.355-.358.38-.358 3.143 0 3.75-.248 3.501 3.5 3.501s3.5.249 3.5-3.501.248-3.502-3.5-3.502c-2.762 0-2.787.003-3.142.359Zm8.974.809v1.167h16.332V4.67H23.34v1.168Zm18.665 0v1.167h2.334V4.67h-2.333v1.168ZM9.343 8.172v1.167H7.009V7.005h2.333v1.167Zm9.332 0v1.167h-2.333V7.005h2.333v1.167Zm4.666 2.334v1.167h16.332V9.34H23.34v1.167Zm18.665 0v1.167h2.334V9.34h-2.333v1.167Zm-30.33 7.003v1.167H7.009v-2.334h4.666v1.167Zm23.331 0v1.167H14.008v-2.334H35.007v1.167Zm7 0v1.167h-4.667v-2.334h4.667v1.167Zm1.005 3.661c-9.027.578-15.676 2.768-16.992 5.597-.319.684-.343.916-.344 3.325l-.001 2.59H3.058l-.358-.359-.358-.358V21.726l.358-.358.358-.358 20.896.021c12.237.013 20.134.07 19.057.14ZM5.033 23.703c-.355.355-.357.38-.357 3.143 0 3.75-.249 3.501 3.5 3.501 3.747 0 3.499.249 3.499-3.501s.248-3.502-3.5-3.502c-2.761 0-2.787.003-3.142.359Zm9.333 0c-.355.355-.358.38-.358 3.143 0 3.75-.248 3.501 3.5 3.501 2.76 0 2.786-.003 3.141-.358s.358-.38.358-3.143c0-3.75.249-3.502-3.5-3.502-2.76 0-2.786.003-3.141.359Zm38.066-.21c4.181.278 7.816.88 10.656 1.765 2.67.832 4.582 1.981 4.582 2.755 0 1.005-2.962 2.47-6.78 3.352-1.708.395-4.545.84-6.709 1.051-2.461.241-10.224.241-12.686 0-5.307-.519-9.814-1.644-12.208-3.047-1.472-.864-1.63-1.578-.527-2.378 3.607-2.614 13.946-4.142 23.672-3.497Zm-43.09 3.353v1.167H7.009v-2.334h2.333v1.167Zm9.332 0v1.167h-2.333v-2.334h2.333v1.167Zm10.645 5.132c2.682 1.277 6.23 2.117 11.411 2.7 3.124.35 11.092.35 14.216 0 5.899-.664 9.193-1.52 12.614-3.278.06-.03.11 1.895.11 4.28v4.334l-.491.464c-.652.614-2.307 1.407-4.102 1.963-9.8 3.04-27.463 2.309-33.782-1.397-1.35-.791-1.288-.53-1.288-5.416 0-2.356.049-4.259.11-4.228.06.031.6.291 1.202.578Zm-17.644 4.205v1.167H7.009v-2.334h4.666v1.167Zm13.999 0v1.167H14.008v-2.334h11.666v1.167Zm20.998 3.501v1.167h2.333v-2.334h-2.333v1.167ZM25.674 45.52v5.835H3.058l-.358-.358-.358-.358V40.4l.358-.358.358-.358h22.616v5.836Zm-20.64-3.143c-.356.355-.358.38-.358 3.143 0 3.75-.249 3.501 3.5 3.501 3.747 0 3.499.249 3.499-3.501s.248-3.502-3.5-3.502c-2.761 0-2.787.003-3.142.359Zm9.332 0c-.355.355-.358.38-.358 3.143 0 3.75-.248 3.501 3.5 3.501 2.76 0 2.786-.003 3.141-.358s.358-.38.358-3.143c0-3.75.249-3.502-3.5-3.502-2.76 0-2.786.003-3.141.359Zm14.953 1.272c2.682 1.278 6.23 2.117 11.411 2.7 1.661.186 3.459.25 7.108.25 5.104 0 7.326-.16 11.045-.791 3.657-.622 6-1.36 8.677-2.736.06-.031.11 1.894.11 4.279v4.335l-.491.463c-1.416 1.336-5.848 2.716-10.766 3.352-5.955.77-13.813.631-19.365-.344-4.03-.708-7.35-1.875-8.55-3.008l-.491-.463V47.35c0-2.385.049-4.31.11-4.28.06.031.6.291 1.202.578Zm-19.977 1.87v1.168H7.009v-2.334h2.333v1.167Zm9.332 0v1.168h-2.333v-2.334h2.333v1.167Zm27.998 7.004v1.167h2.333v-2.335h-2.333v1.168ZM29.319 55.32c2.682 1.278 6.23 2.117 11.411 2.7 1.661.186 3.459.25 7.108.25 5.104 0 7.326-.16 11.045-.791 3.657-.621 6-1.36 8.677-2.736.06-.031.11 1.894.11 4.279v4.335l-.491.463c-1.657 1.563-6.867 3.01-12.998 3.61-2.493.244-10.236.242-12.686-.003-5.507-.55-10.182-1.738-12.38-3.145-.44-.28-.868-.64-.953-.8-.178-.334-.223-8.83-.046-8.74.06.032.602.291 1.203.578Zm17.353 7.707v1.167h2.333v-2.335h-2.333v1.168Z" fill="#fff"/></svg>