<svg width="70" height="70" fill="none" xmlns="http://www.w3.org/2000/svg"><path fill-rule="evenodd" clip-rule="evenodd" d="M10.092 1.45c-.389 1.448-.602 1.802-1.085 1.802-.141 0-.834-.328-1.538-.728l-1.282-.729-2.199 2.199L1.79 6.193l.729 1.281c.76 1.339.845 1.645.552 2.022-.132.17-2.611.956-3.015.956-.034 0-.044 1.412-.023 3.137l.038 3.137 1.411.389c1.364.376 1.765.623 1.765 1.086 0 .117-.323.781-.718 1.476l-.719 1.264 2.219 2.221 2.218 2.221 1.327-.766c1.233-.712 1.354-.753 1.707-.584.283.136.43.364.574.889.106.388.288 1.04.403 1.447l.21.741h6.27l.395-1.47c.351-1.304.44-1.488.787-1.631.402-.167.56-.099 2.629 1.138l.43.258 2.207-2.218 2.206-2.218-.774-1.33c-.702-1.205-.759-1.364-.613-1.717.143-.345.33-.434 1.631-.784l1.47-.396V14.687H33.882v.795c0 .438.077 1.057.172 1.377.229.775 1.398 1.945 2.174 2.174.832.246 19.323.246 20.155 0 .776-.23 1.945-1.399 2.174-2.174.095-.32.172-.946.172-1.39v-.81l2.372.05 2.373.049 1.066.527c1.285.635 2.085 1.453 2.707 2.765l.447.943V29.58l-.447.943c-.622 1.312-1.422 2.13-2.707 2.764l-1.067.528-8.019.04-8.02.041v-.8c0-.441-.076-1.063-.17-1.383-.23-.775-1.4-1.944-2.175-2.173-.832-.247-19.323-.247-20.155 0-.776.229-1.946 1.398-2.175 2.174-.094.32-.171.938-.171 1.376v.795h-7.669c-4.824 0-7.978.056-8.505.151C3.417 34.577.69 37.304.15 40.3c-.2 1.113-.2 10.906 0 12.018.364 2.021 1.946 4.263 3.726 5.282 1.548.885 2.175 1.026 4.912 1.098l2.505.066v.78c0 .428.078 1.04.172 1.36.23.775 1.399 1.945 2.174 2.174.833.246 19.324.246 20.156 0 .775-.23 1.945-1.399 2.174-2.174.094-.32.172-.94.172-1.378v-.798l4.553.038 4.553.037.037.353c.27 2.532 1.674 5.358 3.616 7.273 4.85 4.784 12.65 4.758 17.467-.059 4.847-4.847 4.843-12.673-.01-17.525a12.35 12.35 0 0 0-17.457-.069c-1.942 1.916-3.347 4.741-3.616 7.274l-.037.353-4.553.037-4.553.038v-.798c0-.438-.078-1.059-.172-1.378-.23-.776-1.399-1.945-2.174-2.174-.832-.246-19.324-.246-20.156 0-.775.229-1.945 1.398-2.174 2.174-.094.32-.171.945-.171 1.39v.81l-2.365-.05c-2.313-.05-2.386-.06-3.308-.497-1.312-.62-2.13-1.42-2.765-2.706l-.527-1.067V40.436l.527-1.067c.635-1.285 1.452-2.085 2.765-2.707l.943-.446 8.012-.041 8.012-.041v.8c0 .441.077 1.063.171 1.383.23.775 1.399 1.945 2.174 2.174.833.246 19.324.246 20.156 0 .776-.23 1.945-1.399 2.174-2.174.095-.32.172-.936.172-1.37v-.79l8.153-.041 8.153-.042.934-.364c1.348-.525 2.09-.996 3-1.906.863-.863 1.593-2.06 2.014-3.306.24-.704.264-1.281.264-6.211 0-4.941-.024-5.506-.265-6.212-.754-2.216-2.163-3.867-4.085-4.79-1.464-.702-2.338-.857-4.853-.857H58.73v-.795c0-1.137-.249-1.819-.946-2.594-1.055-1.174-.59-1.128-11.451-1.128-7.064 0-9.673.044-10.104.172-.776.229-1.945 1.398-2.175 2.174-.094.32-.171.938-.171 1.376v.795H27.105V10.463l-.6-.157c-1.991-.52-2.294-.645-2.476-1.023-.17-.35-.128-.473.583-1.705l.766-1.327-2.217-2.213-2.217-2.214-1.236.714c-.68.393-1.347.714-1.481.714-.497 0-.735-.376-1.118-1.765L16.72.076 13.601.038 10.482 0l-.39 1.45Zm5.158 1.838c.163.562.325 1.12.358 1.24.034.12.673.458 1.428.755 1.525.602 1.315.623 2.911-.288l.678-.386.98.98.979.98-.641 1.124-.64 1.123.415.924c.23.508.476 1.114.549 1.347.121.387.238.453 1.36.76l1.229.336-.04 1.42-.04 1.42-1.09.293c-.599.161-1.147.356-1.218.432-.07.077-.208.393-.306.704-.098.31-.331.87-.518 1.244l-.341.68.631 1.085.632 1.085-.991 1.005-.991 1.005-1.105-.626-1.104-.625-.61.31c-.335.172-.928.419-1.317.549l-.707.237-.329 1.049-.384 1.225c-.04.125-.457.176-1.447.176h-1.393l-.341-1.223c-.311-1.116-.38-1.236-.765-1.356-.233-.073-.84-.32-1.348-.549l-.923-.416-1.124.641-1.123.64-.98-.979-.98-.98.386-.677c.912-1.6.891-1.396.301-2.879-.29-.73-.55-1.353-.58-1.385-.028-.032-.576-.197-1.217-.366l-1.165-.308-.04-1.407-.04-1.406 1.264-.325c1.127-.291 1.274-.366 1.357-.696.05-.204.3-.82.554-1.37l.462-1-.634-1.098-.635-1.099.995-.995.996-.995 1.107.64 1.108.64.641-.325c.353-.178.96-.429 1.35-.556l.707-.231.34-1.264.339-1.263h2.752l.298 1.024ZM12.199 6.99c-2.75.598-4.81 2.784-5.287 5.61-.557 3.3 1.663 6.636 5.017 7.54 1.72.463 3.813.107 5.375-.915 1.377-.901 2.253-2.072 2.748-3.671.708-2.293.112-4.777-1.58-6.586-.965-1.03-2.13-1.696-3.47-1.98-1.151-.244-1.674-.244-2.803.002Zm3.279 2.534c.902.413 1.73 1.226 2.18 2.138.285.581.341.903.339 1.965-.003 1.099-.053 1.366-.376 1.977a5.11 5.11 0 0 1-2.092 2.065c-.527.273-.852.33-1.906.332-1.062.002-1.385-.053-1.966-.34a4.573 4.573 0 0 1-2.293-5.61c.275-.801 1.11-1.843 1.84-2.294 1.23-.76 2.92-.852 4.274-.233Zm40.646.991c.343.344.346.368.346 3.042 0 2.673-.003 2.698-.346 3.041l-.347.347H36.834l-.347-.347c-.343-.343-.346-.368-.346-3.041 0-2.674.003-2.698.346-3.042l.347-.346H55.777l.347.346ZM38.4 13.558v1.13h2.259v-2.26h-2.26v1.13Zm4.517 0v1.13h2.259v-2.26h-2.259v1.13Zm4.518 0v1.13h2.259v-2.26h-2.26v1.13Zm4.517 0v1.13h2.26v-2.26h-2.26v1.13ZM44.83 31.974c.344.344.347.368.347 3.042 0 2.673-.003 2.698-.347 3.041l-.346.347H25.539l-.346-.347c-.344-.343-.347-.368-.347-3.041 0-2.674.003-2.698.347-3.042l.346-.346h18.944l.346.346Zm-17.724 3.042v1.129h2.26v-2.259h-2.26v1.13Zm4.518 0v1.129h2.259v-2.259h-2.259v1.13Zm4.518 0v1.129H38.4v-2.259h-2.26v1.13Zm4.517 0v1.129h2.26v-2.259h-2.26v1.13Zm19.977 12.903c1.602.51 2.793 1.253 4.094 2.554 1.29 1.29 2.032 2.473 2.57 4.095.33.997.373 1.352.373 3.035s-.044 2.038-.374 3.035c-.537 1.622-1.279 2.804-2.569 4.094-1.29 1.29-2.472 2.032-4.094 2.57-.997.33-1.353.373-3.035.373-1.683 0-2.038-.044-3.036-.374-1.622-.537-2.804-1.279-4.094-2.569-1.29-1.29-2.032-2.472-2.57-4.094-.33-.997-.373-1.353-.373-3.035 0-1.664.045-2.043.358-2.988.559-1.684 1.3-2.882 2.573-4.154 1.558-1.558 3.327-2.505 5.377-2.88 1.239-.226 3.536-.065 4.8.338Zm-2.363 8.516-4.056 4.056-.678-.667c-.372-.368-.741-.668-.82-.668-.18 0-1.471 1.306-1.471 1.49 0 .076.667.803 1.483 1.616l1.483 1.478 4.87-4.867c2.678-2.678 4.87-4.935 4.87-5.016 0-.184-1.302-1.477-1.488-1.477-.075 0-1.962 1.825-4.193 4.055Zm-24.737-1.874c.344.344.347.369.347 3.042s-.003 2.698-.347 3.041l-.346.347H14.245l-.346-.347c-.344-.343-.347-.368-.347-3.041s.003-2.698.347-3.042l.346-.346H33.19l.346.346Zm-17.724 3.042v1.13h2.259v-2.26h-2.259v1.13Zm4.518 0v1.13h2.259v-2.26h-2.26v1.13Zm4.517 0v1.13h2.26v-2.26h-2.26v1.13Zm4.518 0v1.13h2.259v-2.26h-2.259v1.13Z" fill="#fff"/></svg>