<svg width="70" height="68" fill="none" xmlns="http://www.w3.org/2000/svg"><path fill-rule="evenodd" clip-rule="evenodd" d="M38.04.387c-.606.276-1.536 1.209-1.692 1.697-.091.287-.178.298-2.418.298h-2.324v9.034h-1.392c-1.234 0-2.024.135-2.886.493-.23.095-.247-.075-.247-2.475V6.857l-1.803.084c-2.042.095-3.636.368-5.233.896C13.33 10.06 8.434 15.595 7.044 22.538c-.305 1.525-.342 5.65-.064 7.23.657 3.73 1.886 6.932 3.774 9.834.412.634 1.555 2.222 2.54 3.529l1.788 2.375-.894.187c-1.504.314-3.627 1.004-4.91 1.596-1.132.523-1.257.551-1.784.404-.357-.099-1.594-.141-3.349-.113-3.046.048-3.15.075-3.853 1.016-.286.382-.292.534-.292 7.991 0 7.458.006 7.61.292 7.992.703.94.807.968 3.853 1.016 1.755.028 2.992-.014 3.35-.114.522-.145.652-.118 1.674.354 1.52.702 3.705 1.395 5.397 1.71 1.275.239 2.198.264 9.404.264 8.545 0 8.184.027 9.924-.736l.803-.352.54.421c.855.666 1.272.738 4.258.738 3.3 0 3.656-.08 4.631-1.054 1.14-1.138 1.358-2.402.654-3.796l-.403-.796.402-.797c.273-.539.403-1.01.403-1.462 0-.451-.13-.923-.403-1.462l-.402-.796.402-.797c.705-1.394.488-2.656-.653-3.797-.392-.392-.935-.782-1.207-.868-.41-.13-.124-.158 1.68-.17 2.669-.018 3.119-.137 4.052-1.069 1.431-1.428 1.431-3.24 0-4.667-.88-.88-1.43-1.054-3.309-1.054-.788 0-1.433-.037-1.433-.083 0-.045.215-.346.479-.67 1.3-1.598 2.729-4.244 3.52-6.517.27-.776.822-2.904 1.226-4.729.404-1.824.766-3.428.804-3.564.067-.234-.542-.247-11.393-.247H27.08v-6.759l-2.677-.044c-2.929-.048-3.05-.08-3.749-1.015-.409-.547-.409-1.886 0-2.433.656-.876.916-.968 2.906-1.018l1.835-.047.298.379c.552.7 1.03 1.084 1.811 1.456.671.319 1.006.377 2.44.423l1.661.053v6.746H51.97v-2.415c0-2.177.023-2.406.23-2.326.128.049.812.123 1.521.165 2.335.137 2.266.099 4.94 2.73 1.308 1.287 2.479 2.55 2.6 2.807.123.257.448.638.723.847l.499.38h3.076c3.386 0 3.43-.01 4.15-.972.284-.38.291-.545.291-6.862s-.007-6.482-.292-6.863c-.71-.95-.78-.967-4.087-1.014l-3.015-.043-1.471-1.51c-.81-.83-1.944-2.177-2.52-2.992-3.48-4.92-8.587-8.084-14.239-8.823-2.346-.307-5.604-.28-6.336.052Zm6.275 2.216c4.278.627 8.411 2.909 11.093 6.125a44.784 44.784 0 0 1 1.73 2.248c.463.651 1.526 1.9 2.362 2.774l1.52 1.59v9.108l-1.55-1.51c-2.047-1.991-2.699-2.311-5.083-2.492-2.806-.213-4.726-.8-6.801-2.078-1.956-1.205-4.667-4.323-4.667-5.367 0-.507.386-1.134.844-1.37.947-.49 1.84-.107 2.51 1.075.502.886 1.722 2.082 2.556 2.507 1.004.51 2.111.72 3.807.72h1.596v-2.259h-1.459c-1.568 0-2.759-.257-3.194-.691-.14-.14-.297-.533-.35-.875-.054-.341-.39-1.225-.747-1.962-.542-1.12-.838-1.527-1.798-2.47-1.426-1.403-2.171-1.802-5.4-2.891-1.395-.47-2.616-.962-2.713-1.091-.256-.341-.218-.706.106-1.03.255-.254.471-.282 2.209-.282 1.06 0 2.602.1 3.43.22ZM36.752 5.04c.45.67 1.072.984 3.663 1.85 2.563.855 3.685 1.367 4.2 1.913l.295.314-.79.082c-2.094.215-3.631 2.083-3.419 4.154.191 1.863 2.755 5.046 5.486 6.813.436.282 1.407.794 2.157 1.137l1.363.624v3.04H33.87V18.21l-2.677-.044c-2.93-.048-3.05-.08-3.749-1.015-.409-.547-.409-1.886 0-2.433.7-.935.82-.967 3.749-1.015l2.677-.044V4.64h1.308c1.278 0 1.314.01 1.575.4ZM24.819 12.53v3.37l-1.732.064c-1.998.073-2.74.334-3.716 1.308-.918.917-1.254 1.764-1.26 3.18-.003 1.1.036 1.273.477 2.089.536.993.982 1.422 2.044 1.967.635.326.933.378 2.455.433l1.732.062V29.485H9.275l-.112-.53c-.22-1.043-.124-4.964.154-6.246.72-3.319 2.27-6.157 4.67-8.553C16.894 11.255 20.2 9.71 24.641 9.18c.137-.016.177.736.177 3.35Zm42.99 9.05v5.647h-4.525V15.934h4.525v5.646Zm-42.99 12.414v2.25l2.677.044c2.929.048 3.05.08 3.749 1.016.409.546.409 1.886 0 2.432-.7.935-.82.968-3.749 1.016l-2.677.044v4.5h-7.076l-2.535-3.39c-3.227-4.312-4.418-6.433-5.289-9.42l-.216-.742h15.116v2.25Zm22.276-1.932-.56 2.457c-.578 2.547-1.35 4.594-2.411 6.385-.824 1.392-1.132 1.815-2.632 3.615-1.668 2.002-3.013 4.273-3.866 6.529-.25.663-.464 1.023-.606 1.023-.906 0-2.374.987-2.724 1.83l-.178.429H25.935l.388-.53c.214-.29.424-.573.467-.627.043-.053 1.058-.262 2.254-.464 2.448-.413 2.995-.599 3.67-1.245.779-.745 1.072-1.444 1.078-2.569.007-1.121-.262-1.81-.989-2.536-.853-.852-1.33-.988-3.636-1.038l-2.086-.046V43.07l1.732-.062c1.522-.054 1.82-.107 2.455-.432 1.062-.546 1.508-.975 2.044-1.968.439-.812.48-.993.48-2.089s-.041-1.277-.48-2.09c-.536-.992-.982-1.421-2.044-1.967-.635-.325-.933-.378-2.455-.432l-1.732-.062v-2.225h20.086l-.073.318ZM31.193 47.966c.463.462.525.938.203 1.559-.264.51-.559.6-3.467 1.06-1.283.203-2.464.423-2.624.489-.175.071-.363.357-.47.712-.215.718-1.138 1.754-1.92 2.154-.36.184-.951.317-1.597.36l-1.025.066V56.628l1.116-.077 1.116-.076.065 2.562c.055 2.149.114 2.694.366 3.385.343.943 1.053 2.234 1.376 2.501.12.1.285.304.365.454.144.269.063.273-4.427.206-3.916-.058-4.756-.108-5.846-.354-1.493-.336-3.485-1.025-4.631-1.602l-.813-.41V49.936l1.166-.544c1.925-.896 4.153-1.522 6.187-1.74.273-.029 3.634-.063 7.47-.075l6.976-.023.414.413Zm15.904-.066c.22.218.347.508.347.782 0 .275-.128.565-.347.783l-.347.347h-6.12l.391-.67c.215-.37.523-.877.685-1.128l.294-.457 2.375-.002c2.334-.002 2.381.004 2.722.345Zm-40.38 8.687v6.776H2.192V49.812h4.525v6.775Zm35.855-1.912c.219.219.347.508.347.783s-.128.564-.347.783c-.344.343-.369.346-3.047.346s-2.702-.003-3.047-.346a1.136 1.136 0 0 1-.347-.783c0-.275.129-.564.347-.783.345-.343.37-.346 3.047-.346 2.678 0 2.703.003 3.047.346Zm-8.185 2.478.307.564-.307.563-.306.564h-4.632l-4.63.002v-2.259l4.63.002h4.632l.306.564Zm8.185 2.04c.219.218.347.507.347.782s-.128.565-.347.783c-.344.344-.369.346-3.047.346s-2.702-.002-3.047-.346a1.136 1.136 0 0 1-.347-.783c0-.275.129-.564.347-.782.345-.344.37-.347 3.047-.347 2.678 0 2.703.003 3.047.347Zm-8.175 2.494.315.58-.28.392c-.153.216-.363.732-.465 1.148-.183.742-.205.765-1.164 1.25-.914.462-1.066.494-2.325.494-1.219 0-1.437-.043-2.291-.447-1.28-.605-2.128-1.42-2.731-2.623-.273-.545-.496-1.078-.496-1.184 0-.159.8-.192 4.56-.191h4.56l.317.581Zm8.175 2.023c.219.218.347.507.347.782s-.128.565-.347.783c-.344.344-.369.347-3.047.347s-2.702-.003-3.047-.347a1.136 1.136 0 0 1-.347-.783c0-.275.129-.564.347-.782.345-.344.37-.347 3.047-.347 2.678 0 2.703.003 3.047.347Z" fill="#fff"/></svg>