<svg width="58" height="70" fill="none" xmlns="http://www.w3.org/2000/svg"><path fill-rule="evenodd" clip-rule="evenodd" d="M4.566.106c-.85.202-2.094.934-2.699 1.59-.307.333-.754 1.018-.992 1.521l-.434.915v61.774l.512 1.035c.616 1.246 1.41 2.022 2.682 2.626L4.55 70h48.622l.915-.433c1.274-.603 2.067-1.38 2.683-2.626l.511-1.035V4.132l-.433-.915c-.603-1.273-1.38-2.066-2.626-2.682L53.187.024 29.143.002C14.932-.01 4.88.032 4.565.106Zm48.317 2.207c.752.222 1.887 1.356 2.109 2.109.242.82.242 60.36 0 61.18-.222.752-1.357 1.887-2.11 2.109-.818.242-47.223.242-48.042 0-.752-.222-1.887-1.357-2.11-2.109-.241-.82-.241-60.36 0-61.18.207-.698 1.354-1.885 2.026-2.097.724-.228 47.356-.24 48.127-.012ZM5.092 5.769l-.336.336v54.527l.336.336.336.336H52.295l.336-.336.336-.336V6.105l-.336-.336-.336-.336H5.428l-.336.336Zm45.684 27.6v25.744H6.947V7.624h43.829v25.744ZM23.059 11.354c-.187.17-1.401 1.818-2.699 3.663-1.297 1.846-2.452 3.464-2.566 3.595-.193.225-.259.191-.997-.513-.612-.584-.886-.754-1.217-.754-.578 0-1.1.53-1.1 1.117 0 .378.195.638 1.336 1.776 1.48 1.477 1.894 1.688 2.474 1.255.403-.3 6.404-8.701 6.512-9.117.155-.59-.457-1.33-1.1-1.33-.167 0-.457.139-.643.308Zm-11.393 2.083-.336.336V24.48l.336.336.336.336H22.71l.337-.336c.327-.327.336-.391.336-2.403 0-2.011-.01-2.075-.336-2.402-.445-.445-1.075-.445-1.52 0-.31.31-.336.438-.336 1.643v1.307h-7.67V15.292h2.403c2.37 0 2.408-.004 2.74-.336.212-.212.336-.492.336-.76 0-.266-.124-.547-.336-.758l-.336-.337h-6.326l-.336.337Zm15.34 2.19a1.103 1.103 0 0 0-.336.76c0 .267.124.547.336.76l.336.335h19.474l.336-.336c.212-.212.337-.492.337-.76 0-.266-.125-.546-.337-.758l-.336-.337H27.342l-.336.337Zm0 4.383a1.103 1.103 0 0 0-.336.759c0 .267.124.547.336.76l.336.335h11.804l.336-.336c.212-.212.337-.492.337-.759s-.125-.547-.337-.76l-.336-.336H27.342l-.336.337Zm15.34 0c-.68.679-.198 1.855.76 1.855.563 0 1.095-.533 1.095-1.096 0-.563-.532-1.096-1.095-1.096-.267 0-.548.125-.76.337ZM23.06 26.693c-.187.17-1.401 1.818-2.699 3.663-1.297 1.845-2.452 3.463-2.566 3.595-.193.224-.259.19-.997-.514-.612-.583-.886-.753-1.217-.753-.578 0-1.1.53-1.1 1.116 0 .379.195.638 1.336 1.776 1.477 1.474 1.895 1.688 2.469 1.26.4-.3 6.41-8.709 6.517-9.121.155-.591-.457-1.33-1.1-1.33-.167 0-.457.138-.643.308Zm-11.393 2.082-.336.336v10.706l.336.336.336.336H22.71l.337-.336c.327-.327.336-.39.336-2.402s-.01-2.076-.336-2.403a1.104 1.104 0 0 0-.76-.336c-.267 0-.547.124-.76.336-.31.31-.336.438-.336 1.643v1.307h-7.67V30.63h2.403c2.37 0 2.408-.005 2.74-.336.212-.212.336-.493.336-.76s-.124-.547-.336-.76l-.336-.335h-6.326l-.336.336Zm15.34 2.19a1.103 1.103 0 0 0-.336.76c0 .267.124.548.336.76l.336.336h19.474l.336-.336c.212-.212.337-.493.337-.76s-.125-.547-.337-.76l-.336-.335H27.342l-.336.336Zm0 4.383a1.103 1.103 0 0 0-.336.76c0 .266.124.547.336.759l.336.336h11.804l.336-.336c.212-.212.337-.493.337-.76 0-.266-.125-.547-.337-.759l-.336-.336H27.342l-.336.336Zm15.34 0a1.103 1.103 0 0 0-.336.76c0 .266.124.547.336.759.212.212.493.336.76.336s.547-.124.76-.336c.211-.212.335-.493.335-.76 0-.266-.124-.547-.336-.759a1.104 1.104 0 0 0-.76-.336c-.266 0-.547.124-.759.336ZM23.06 42.03c-.187.17-1.401 1.818-2.699 3.663-1.297 1.845-2.452 3.463-2.566 3.595-.193.224-.259.19-.997-.513-.612-.584-.886-.754-1.217-.754-.578 0-1.1.53-1.1 1.116 0 .38.195.639 1.336 1.777 1.477 1.474 1.895 1.687 2.469 1.259.4-.3 6.41-8.709 6.517-9.12.155-.592-.457-1.331-1.1-1.331-.167 0-.457.138-.643.308Zm-11.393 2.082-.336.336v10.706l.336.336.336.337H22.71l.337-.337c.327-.327.336-.39.336-2.402s-.01-2.076-.336-2.403a1.104 1.104 0 0 0-.76-.336c-.267 0-.547.124-.76.336-.31.31-.336.438-.336 1.644v1.307h-7.67V45.967h2.403c2.37 0 2.408-.005 2.74-.336.212-.212.336-.493.336-.76 0-.266-.124-.547-.336-.759l-.336-.336h-6.326l-.336.336Zm15.34 2.191a1.103 1.103 0 0 0-.336.76c0 .266.124.547.336.759l.336.336h19.474l.336-.336c.212-.212.337-.493.337-.76 0-.266-.125-.547-.337-.759l-.336-.336H27.342l-.336.336Zm0 4.382a1.103 1.103 0 0 0-.336.76c0 .266.124.547.336.759l.336.336h11.804l.336-.336c.212-.212.337-.493.337-.76 0-.266-.125-.547-.337-.759l-.336-.336H27.342l-.336.336Zm15.34 0a1.103 1.103 0 0 0-.336.76c0 .266.124.547.336.759.212.212.493.336.76.336s.547-.124.76-.336c.211-.212.335-.493.335-.76 0-.266-.124-.547-.336-.759a1.104 1.104 0 0 0-.76-.336c-.266 0-.547.124-.759.336ZM24.815 63.831a1.103 1.103 0 0 0-.336.76c0 .267.124.547.336.76l.336.335h7.42l.337-.336c.212-.212.336-.492.336-.76 0-.266-.124-.547-.336-.759l-.336-.336H25.15l-.336.337Z" fill="#6A6A6A"/></svg>