<svg width="160" height="154" fill="none" xmlns="http://www.w3.org/2000/svg"><path fill-rule="evenodd" clip-rule="evenodd" d="M65.264.21C64.224.6 50.03 8.871 49.338 9.49c-1.005.894-1.603 2.396-1.602 4.016.002 1.09.433 2.095 2.313 5.385l2.31 4.045-1.185 1.744c-.652.96-1.652 2.695-2.223 3.857l-1.037 2.112h-4.452c-4.776 0-5.714.199-7.112 1.506-1.693 1.582-1.762 2.055-1.757 12.018.005 8.904.025 9.197.705 10.385 1.335 2.335 1.833 2.513 7.494 2.69l5.03.156 1.147 2.19c.63 1.205 1.653 2.942 2.272 3.86l1.125 1.67-2.205 3.806c-2.676 4.62-3 6.215-1.713 8.41.707 1.204 1.592 1.81 8.563 5.855 6.304 3.659 8.053 4.539 9.248 4.653 3.114.3 4.11-.485 6.989-5.503l2.13-3.715h9.176l2.133 3.709c2.883 5.015 3.896 5.812 7 5.507 1.16-.114 2.824-.922 7.887-3.83 8.844-5.079 9.167-5.297 9.991-6.764 1.364-2.426.826-4.166-3.434-11.106l-.589-.959 1.147-1.7c.631-.937 1.663-2.688 2.293-3.893l1.147-2.19 4.974-.157c4.574-.144 5.056-.215 5.998-.886.563-.402 1.302-1.277 1.643-1.944.574-1.126.619-1.865.619-10.28 0-5.645-.126-9.399-.333-9.947-.453-1.2-1.804-2.59-3.022-3.11-.699-.3-2.382-.431-5.503-.431h-4.495l-.758-1.634c-.417-.9-1.41-2.638-2.207-3.865l-1.45-2.23 2.196-3.832c2.344-4.091 2.784-5.65 2.142-7.595-.197-.595-.741-1.44-1.211-1.88-.469-.44-4.231-2.74-8.359-5.112-8.507-4.886-9.27-5.135-11.745-3.82-1.233.657-1.701 1.249-3.756 4.749l-2.348 4-4.538.002-4.54.004-1.72-2.934C70.817 1.563 70.621 1.308 69.222.63c-1.282-.62-2.959-.8-3.96-.422Zm4.168 9.56c2.937 5.163 3.188 5.41 5.321 5.232 2.093-.175 8.352-.175 10.445 0 2.12.177 2.379-.073 5.166-4.984 1.228-2.164 2.355-4.095 2.506-4.292.192-.25 2.306.815 7.071 3.566 3.739 2.158 6.84 3.958 6.892 4 .053.041-1.117 2.168-2.597 4.726-2.063 3.563-2.656 4.844-2.536 5.475.086.454.853 1.744 1.704 2.868 1.506 1.99 4.117 6.786 4.117 7.564 0 .213.346.76.767 1.216l.768.828h10.986v15.959l-5.087.004c-5.467.005-6.339.2-7.021 1.565-.213.428-.952 1.946-1.642 3.374-.689 1.428-2.044 3.678-3.011 5.001-1.367 1.873-1.721 2.584-1.595 3.213.089.445 1.297 2.77 2.685 5.17 2.163 3.736 2.456 4.41 2.049 4.711-.991.733-13.319 7.71-13.417 7.594-.057-.067-1.267-2.14-2.69-4.605-1.579-2.736-2.862-4.609-3.294-4.805-.488-.222-1.685-.216-3.86.02-2.296.25-4.046.249-6.45-.005-2.813-.296-3.405-.279-4.008.12-.389.257-1.834 2.457-3.211 4.889-1.81 3.193-2.632 4.372-2.964 4.248-.252-.095-3.384-1.868-6.96-3.94-6.166-3.572-6.483-3.802-6.145-4.443.196-.372 1.344-2.366 2.551-4.431 1.402-2.398 2.2-4.105 2.207-4.722.008-.69-.456-1.587-1.617-3.13-.895-1.188-2.195-3.359-2.89-4.822-1.961-4.133-1.997-4.191-2.816-4.606-.523-.265-2.42-.392-5.86-.396l-5.087-.004v-15.96l5.4-.01c3.776-.006 5.552-.125 5.905-.394.278-.212 1.205-1.862 2.06-3.667.854-1.805 2.28-4.238 3.17-5.407.888-1.17 1.704-2.478 1.812-2.909.155-.616-.388-1.796-2.544-5.527-1.506-2.61-2.615-4.794-2.463-4.854.152-.06 3.235-1.84 6.85-3.952 3.615-2.114 6.661-3.798 6.769-3.744.107.055 1.261 1.974 2.564 4.265Zm5.848 10.714c-6.225 1.272-11.906 5.111-15.348 10.372-9.108 13.923-1.685 32.57 14.554 36.558 2.888.71 8.091.71 10.979 0 10.122-2.485 17.486-11.054 18.454-21.473.412-4.434-.93-10.206-3.308-14.24-1.382-2.342-5.885-6.856-8.184-8.204-5.273-3.09-11.451-4.177-17.147-3.013Zm8.608 5.316c6.374 1.338 11.765 6.219 13.822 12.516 1.108 3.388 1.181 7.76.185 10.952-1.89 6.053-6.506 10.693-12.496 12.56-2.304.719-2.976.792-6.119.672-2.576-.098-4.032-.318-5.387-.812-8.811-3.217-14.025-12.184-12.246-21.064.786-3.926 2.352-6.851 5.173-9.665 4.726-4.714 10.654-6.505 17.068-5.16Zm-7.356 5.35c-6.453 1.727-10.776 8.32-9.727 14.834.692 4.295 3.578 8.175 7.513 10.1 1.954.956 2.24 1.007 5.658 1.007s3.703-.05 5.657-1.007c5.266-2.576 8.368-8.328 7.503-13.908-1.239-7.98-8.92-13.08-16.604-11.025Zm5.813 5.279c3.291.982 5.538 4.032 5.53 7.508-.007 2.532-.767 4.27-2.581 5.9-2.18 1.959-4.95 2.58-7.876 1.768-1.677-.465-4.17-2.837-4.849-4.615-1.64-4.284.657-9.223 4.902-10.54 1.851-.575 3-.58 4.873-.021ZM5.221 81.938c-1.88.649-3.546 2.094-4.545 3.942L0 87.132v60.707l.855 1.453c.47.799 1.315 1.842 1.878 2.316 2.046 1.725 2.623 1.831 10.618 1.959 8.486.135 10.134-.087 12.507-1.683l1.594-1.073 34.478-.005c38.039-.006 36.777.055 41.043-1.978 3.168-1.51 52.002-31.268 53.745-32.751.876-.746 1.816-1.965 2.347-3.047 1.159-2.359 1.253-5.992.213-8.256-1.664-3.622-5.155-5.907-9.025-5.907-2.026 0-4.068.626-28.026 8.605-27.002 8.992-29.195 9.598-28.578 7.901.14-.388.256-2.042.256-3.677 0-2.701-.093-3.168-1.01-5.104-1.264-2.667-4.158-5.742-6.66-7.075-3.578-1.907-3.935-1.957-15.493-2.202-8.902-.189-10.925-.316-12.365-.78-2.522-.814-5.167-2.217-7.825-4.153-5.267-3.835-9.85-5.344-17.09-5.627l-4.728-.184-.583-1.083c-.32-.595-1.145-1.564-1.833-2.152-2.074-1.775-3.395-1.995-11.898-1.983-6.48.009-7.767.09-9.198.585Zm17.855 5.593.712.713.084 28.702c.062 21.625-.009 28.924-.29 29.601-.642 1.553-1.706 1.761-9.028 1.761-7.007 0-8.361-.227-9.052-1.518-.235-.439-.338-9.382-.338-29.371 0-31.257-.085-29.723 1.677-30.455.369-.153 4.012-.249 8.096-.212 7.268.065 7.442.082 8.139.78Zm16.317 5.247c2.847.764 5.125 1.885 7.861 3.868 3.475 2.517 5.47 3.583 8.931 4.769l2.974 1.019 10.643.195c10.012.183 10.748.236 12.427.893 2.32.907 4.694 3.061 5.748 5.216.704 1.438.815 2.016.709 3.693-.075 1.168-.351 2.331-.67 2.817l-.543.829h-9.03c-10.126 0-12.924.315-16.911 1.908-2.403.959-6.558 3.371-7.597 4.41-.84.84-.74 2.612.202 3.553 1.147 1.148 2.307.993 4.837-.643 2.437-1.576 4.195-2.389 6.845-3.168 1.522-.447 4.098-.557 17.13-.731l15.337-.206 25.352-8.507c16.814-5.642 25.785-8.507 26.638-8.507 3.509 0 5.727 4.336 3.66 7.155-.555.757-48.203 30.095-52.438 32.288-3.684 1.907-2.556 1.853-38.974 1.858l-33.258.005V91.886l4.147.2c2.281.11 4.972.421 5.98.692Z" fill="#2C2C2C"/></svg>