<svg width="68" height="70" fill="none" xmlns="http://www.w3.org/2000/svg"><path fill-rule="evenodd" clip-rule="evenodd" d="M17.685.25c-.636.395-.725.915-.726 4.266v2.956l-1.252.792c-4.132 2.618-7.852 6.63-10.221 11.022l-.695 1.288-1.748 1.02c-.961.56-1.886 1.166-2.056 1.346l-.307.329v10.697c0 10.325.009 10.707.261 11.019.244.3.372.326 1.917.371l1.656.049.779 1.524c4.024 7.868 11.581 13.643 20.215 15.446 2.33.486 4.532.678 7.05.614l2.184-.056v6.38l.336.336.335.335h15.403c16.67 0 15.731.149 16.415-.466.145-2.283.068-6.016.068-7.432h-1.93V67.933H54.714V50.846H65.372l-.003 3.771v7.47h1.93V49.763l-.261-.454c-.397-.445-.406-.447-1.95-.515l-1.55-.068-.069-1.115c-.102-1.663-.606-2.098-2.429-2.098-1.048 0-1.078-.01-1.212-.376-.127-.346-.075-.445.65-1.228 1.095-1.184 1.22-1.982.45-2.896l-.354-.42.21-.923c.582-2.559.816-7.11.493-9.596l-.132-1.016.938-.966c1.453-1.498 2.365-3.016 3.03-5.041.398-1.211.106-1.873-.828-1.873-.627 0-.736.127-1.152 1.35-1.136 3.339-3.607 5.763-6.914 6.784-.438.135-1.444.262-2.41.305-2.07.091-3.274-.15-4.951-.991-5.47-2.742-7.37-9.239-4.247-14.52.654-1.107 2.333-2.76 3.499-3.446a10.497 10.497 0 0 1 6.286-1.373c1.323.136 3.158.736 4.23 1.383 2.214 1.334 3.98 3.707 4.647 6.242.302 1.15.505 1.395 1.154 1.395 1.087 0 1.254-.818.572-2.797-1.065-3.088-3.3-5.607-6.308-7.112-2.996-1.5-6.78-1.602-10.143-.276l-.625.246-1.085-.659c-3.34-2.031-7.689-3.478-11.788-3.922l-1.54-.167V2.483c0-1.36-.221-1.98-.82-2.29-.36-.186-.814-.216-2.744-.18l-2.312.043-.379.38c-.36.36-.382.456-.447 1.967l-.069 1.59-1.162.238c-.64.131-1.333.283-1.54.337l-.376.098V.949l-.399-.446-.398-.447-2.372-.038c-2.164-.035-2.409-.015-2.807.232Zm3.925 3.498v1.708h-2.6V2.038h2.6v1.71Zm9.849 0v1.708h-2.6V2.038h2.6v1.71Zm5.78 2.458c2.694.56 5.608 1.626 7.799 2.85l.883.494-1.246 1.27c-1.466 1.495-2.353 2.91-2.95 4.702-1.037 3.117-.853 6.274.536 9.178 1.015 2.122 2.347 3.67 4.252 4.944 2.29 1.53 4.455 2.13 7.303 2.025 2.101-.079 3.038-.308 5.231-1.281.276-.122.36 1.073.27 3.832-.084 2.6-.334 4.55-.577 4.498a6.07 6.07 0 0 1-.546-.191c-.686-.268-1.33-.056-2.172.714-.738.674-.767.686-1.237.53l-.481-.158v-.953c0-1.052-.198-1.573-.768-2.021-.331-.26-.54-.286-2.363-.284-2.16.003-2.46.077-2.943.725-.22.296-.297.636-.335 1.464l-.05 1.078-.47.156c-.46.151-.492.137-1.2-.531-1.363-1.289-2.076-1.147-3.953.786-1.833 1.888-1.888 2.319-.483 3.781.772.804.796.85.65 1.267l-.15.432H41.15c-1.85 0-2.44.554-2.441 2.29l-.001.991h-1.503c-1.466 0-1.513.01-1.949.399l-.447.399-.038 5.598-.039 5.599-.63.086c-1.15.157-4.237.09-5.949-.131-7.808-1.007-14.982-5.434-19.363-11.95-.69-1.028-1.955-3.296-1.955-3.44 0-.042.947.026 2.106 0 1.86 0 2.066.034 5.804-.006v-2.01c-.479 0-3.88-.013-7.796-.013H2.73l.035-9.602.035-9.601 5.047-2.976c2.776-1.636 5.1-2.975 5.164-2.975.065 0 .117.768.117 1.706 0 1.693.003 1.71.4 2.154.728.815 1.006.728 5.723-1.789 2.276-1.214 4.169-2.208 4.206-2.208.037 0 .068.799.068 1.775 0 1.768.001 1.777.399 2.221.736.823 1.007.739 5.731-1.783 2.28-1.217 4.174-2.213 4.206-2.213.033 0 .06 5.69.06 12.646v12.645H24.46c-8.613 0-9.279.012-9.713.012v2.011c.434.04.56.006 10.058 0 5.353.022 9.933.004 10.178-.04.245-.045.568-.213.718-.374.27-.289.273-.491.273-14.362v-14.07l-.465-.464c-.494-.493-1.177-.62-1.733-.323-.259.138-.264.041-.264-4.94v-5.08l1.095.095c.602.053 1.787.24 2.633.416ZM26.775 12.8l-.036 6.66-.547.308-.547.307-.068-1.852-.069-1.853-.447-.398c-.312-.279-.59-.399-.923-.399h-.477V6.831l.719-.206c.996-.286 1.757-.455 2.121-.471l.31-.014-.036 6.66Zm-5.165-.726v4.568l-1.162.628c-.639.345-1.224.627-1.3.627-.09 0-.138-1.79-.138-5.195V7.507h2.6v4.568Zm9.816.18L31.39 17l-1.265.663-1.265.664V7.507h2.602l-.036 4.747Zm-14.468 2.282v4.567l-.854.47-.855.469-.07-1.722c-.074-1.867-.186-2.214-.817-2.54-.763-.395-.786-.387-3.788 1.384-1.066.629-1.976 1.143-2.023 1.143-.288 0 1.956-2.86 3.468-4.418 1.194-1.232 4.546-3.921 4.886-3.921.03 0 .053 2.055.053 4.568Zm35.704-3.474c-.262.261-.273.455-.273 4.57v4.296l.36.283c.342.27.529.284 3.7.284h3.34l.335-.336c.184-.184.336-.495.336-.69 0-.194-.151-.505-.336-.69-.334-.333-.353-.335-3.01-.335h-2.673v-3.26c0-3.365-.084-4.011-.553-4.262-.402-.215-.931-.155-1.226.14ZM6.104 26.665c-.59.342-.636.794-.636 6.068 0 5.324.03 5.595.676 5.94.154.082 1.336.141 2.846.141h2.582l.368-.383.367-.384V27.31l-.4-.4-.4-.399-2.575.004c-1.576.003-2.673.061-2.828.15Zm9.202.245-.4.4v10.705l.4.4.4.399h2.602c2.553 0 2.61-.006 2.986-.33l.384-.33.039-5.235c.028-3.773-.006-5.344-.122-5.623-.307-.74-.498-.786-3.31-.786h-2.579l-.4.4Zm9.54-.245c-.589.342-.637.798-.637 5.997 0 5.242.047 5.675.663 6.004.17.091 1.272.148 2.866.148h2.59l.36-.36.36-.36V27.217l-.42-.354c-.42-.354-.425-.354-2.976-.35-1.56.003-2.652.061-2.806.15Zm-14.59 5.997v4.101H7.518v-8.202h2.736v4.101Zm9.438 0v4.101h-2.736v-8.202h2.736v4.101Zm9.303 0v4.101H26.26v-8.202H28.997v4.101Zm23.255 6.679c0 1.3.293 1.71 1.642 2.298.564.247 1.247.45 1.518.452.514.004 1.243-.435 1.894-1.143l.335-.363.787.778.787.779-.745.803c-1.043 1.126-1.103 1.553-.45 3.19.455 1.144.918 1.429 2.323 1.429h1.074V48.8l-2.77-.037-2.77-.037-.089-.895a4.798 4.798 0 0 0-2.647-3.825c-.587-.288-.878-.336-2.052-.337-1.233-.001-1.439.036-2.09.379-1.516.797-2.463 2.211-2.597 3.872l-.07.874h-5.571v-1.23h1.074c1.425 0 1.86-.277 2.37-1.51.394-.95.477-1.748.234-2.225-.084-.164-.453-.608-.821-.986l-.668-.688.816-.807.816-.807.815.777c1.012.964 1.398 1.004 2.939.302 1.324-.603 1.59-.985 1.59-2.293v-.923h2.326v.937Zm.295 6.703c.734.466 1.21 1.321 1.21 2.178v.572h-5.335v-.538c0-.721.202-1.215.726-1.768.58-.612 1.1-.827 2.017-.833.608-.004.884.073 1.382.39Zm-11.376 7.617v2.816l.465.465.466.465h5.253l.465-.465.465-.465v-5.632H52.662v17.089H36.794V50.845H41.17v2.816Zm5.062-.56v2.255h-3.01V50.845h3.01V53.1Z" fill="#6A6A6A"/></svg>