<svg width="70" height="71" fill="none" xmlns="http://www.w3.org/2000/svg"><path fill-rule="evenodd" clip-rule="evenodd" d="M29.16 5.369c-5.102 5.097-5.37 5.391-5.37 5.863 0 .286.11.635.26.82.259.32.292.323 3.35.364l3.088.042v2.173h2.328l-.01-1.538c-.006-.846-.072-1.774-.147-2.061-.204-.785-.637-.913-3.089-.913h-2.02l3.725-3.725L35 2.669l3.725 3.725 3.725 3.725h-1.995c-2.077 0-2.77.128-2.997.552-.073.138-.134 1.085-.134 2.105v1.855h2.188v-2.173l3.088-.042c3.058-.04 3.091-.044 3.35-.364.15-.185.26-.534.26-.82 0-.472-.268-.766-5.37-5.863C35.861.395 35.434.002 35 .002c-.434 0-.862.393-5.84 5.367Zm1.766 11.863c-.354.33-.425.597-.471 1.77l-.035.884-.957.356c-.527.196-1.227.496-1.557.666l-.6.31-.984-.978c-1.024-1.017-1.444-1.191-2.06-.854-.51.279-4.985 4.902-5 5.166-.038.636.09.865.995 1.784l.959.973-.31.6c-.17.329-.47 1.03-.666 1.556l-.356.957-.884.035c-1.173.046-1.44.117-1.77.47-.264.285-.277.47-.277 4.075 0 4.641-.08 4.461 2.047 4.545l.884.035.356.957c.196.526.496 1.227.666 1.557l.31.6-.959.972c-.905.919-1.033 1.148-.995 1.784.015.264 4.49 4.887 5 5.166.616.337 1.036.163 2.06-.854l.985-.978.6.31c.329.17 1.03.47 1.556.666l.957.356.035.884c.046 1.173.117 1.44.47 1.77.285.264.47.277 4.075.277 4.641 0 4.461.081 4.545-2.047l.035-.884.957-.356a17.615 17.615 0 0 0 1.557-.666l.6-.31.984.978c1.024 1.017 1.444 1.191 2.06.854.51-.279 4.985-4.902 5-5.166.038-.636-.09-.865-.995-1.784l-.959-.973.31-.6c.17-.329.47-1.03.666-1.556l.356-.957.885-.035c1.172-.046 1.44-.117 1.769-.47.264-.285.277-.47.277-4.075 0-4.641.081-4.461-2.046-4.545l-.885-.035-.356-.957a17.615 17.615 0 0 0-.666-1.557l-.31-.6.959-.972c.905-.919 1.033-1.148.995-1.784-.015-.264-4.49-4.887-5-5.166-.616-.337-1.036-.163-2.06.854l-.985.978-.6-.31c-.329-.17-1.03-.47-1.556-.666l-.957-.356-.035-.884c-.046-1.173-.117-1.44-.47-1.77-.285-.264-.47-.277-4.075-.277-3.605 0-3.79.013-4.074.277Zm6.398 3.018c.038.572.148 1.134.244 1.25.096.116.712.378 1.367.581.656.204 1.787.678 2.514 1.053.981.507 1.404.658 1.64.587.176-.052.705-.472 1.175-.933l.856-.838 1.466 1.466 1.466 1.466-.838.856c-.46.47-.88 1-.933 1.175-.071.236.08.659.587 1.64.375.727.85 1.864 1.057 2.528.448 1.441.64 1.606 1.985 1.702l.956.069-.038 2.203-.037 2.203-1.04.068c-.57.038-1.133.147-1.25.244-.115.096-.377.712-.58 1.367-.204.656-.678 1.787-1.053 2.514-.507.981-.658 1.404-.587 1.64.052.176.472.704.933 1.175l.838.856-1.466 1.466-1.466 1.466-.856-.838c-.47-.46-1-.88-1.175-.933-.236-.07-.66.08-1.64.584-.727.375-1.87.857-2.538 1.073-1.446.467-1.597.643-1.692 1.972l-.069.956-2.203-.038-2.203-.037-.068-1.055c-.045-.687-.14-1.123-.274-1.249-.112-.106-.728-.362-1.367-.569-.639-.207-1.757-.681-2.484-1.054-.98-.503-1.404-.654-1.64-.583-.176.052-.705.472-1.175.933l-.856.838-1.466-1.466-1.466-1.466.838-.856c.46-.47.88-1 .933-1.174.071-.237-.08-.66-.587-1.641-.375-.727-.85-1.865-1.057-2.528-.448-1.441-.64-1.606-1.985-1.702l-.956-.069.038-2.203.037-2.203 1.04-.068c.57-.038 1.133-.147 1.25-.244.115-.096.377-.712.58-1.367.204-.656.678-1.787 1.053-2.514.507-.981.658-1.404.587-1.64-.052-.176-.472-.704-.933-1.175l-.838-.856 1.466-1.466 1.466-1.466.856.838c.47.46 1 .88 1.174.933.237.071.66-.08 1.641-.587.727-.375 1.865-.851 2.528-1.057 1.441-.448 1.606-.64 1.702-1.985l.069-.956 2.203.038 2.203.037.068 1.04Zm-3.438 3.557c-3.063.252-6.172 2.032-7.99 4.576-2.403 3.361-2.814 7.722-1.076 11.392 1.197 2.525 2.975 4.273 5.576 5.48 1.495.694 2.842.981 4.604.981 2.954 0 5.607-1.055 7.775-3.093 1.48-1.39 2.775-3.668 3.228-5.68.302-1.34.302-3.583 0-4.922-.453-2.012-1.747-4.29-3.228-5.68-2.427-2.282-5.49-3.334-8.89-3.054Zm-28.52 5.355C.405 34.13 0 34.57 0 35c0 .43.4.866 5.23 5.717 2.876 2.889 5.403 5.328 5.616 5.421.485.212.958.128 1.28-.227.22-.243.252-.608.289-3.335l.04-3.062h2.174v-2.188h-1.855c-1.02 0-1.967.06-2.105.134-.424.227-.552.92-.552 2.997v1.995l-3.725-3.725-3.725-3.725 3.725-3.725 3.725-3.726v2.021c0 2.447.127 2.878.912 3.095.288.08 1.216.146 2.062.147h1.538V30.49h-2.173l-.041-3.088c-.041-3.058-.045-3.091-.365-3.35-.185-.15-.534-.261-.82-.261-.472 0-.766.27-5.863 5.371Zm52.584-5.11c-.32.259-.324.292-.364 3.35l-.042 3.088h-2.173v2.325l1.538-.001c.846 0 1.774-.066 2.062-.147.785-.217.912-.648.912-3.095v-2.02l3.725 3.725 3.725 3.725-3.725 3.725-3.725 3.726v-1.996c0-2.077-.128-2.77-.552-2.997-.138-.074-1.085-.134-2.105-.134H55.37v2.188h2.173l.042 3.062c.036 2.727.068 3.092.288 3.335.322.355.795.439 1.28.227.213-.093 2.74-2.532 5.616-5.42C69.6 35.865 70 35.43 70 35c0-.431-.404-.87-5.367-5.838-5.097-5.102-5.391-5.371-5.863-5.371-.286 0-.635.111-.82.261Zm-20.056 2.435c2.745.946 4.694 2.91 5.669 5.714.337.968.38 1.285.38 2.801 0 1.515-.043 1.833-.38 2.801-.974 2.8-2.9 4.745-5.676 5.728-1.073.38-1.33.418-2.887.418s-1.814-.038-2.887-.418c-2.775-.983-4.702-2.928-5.676-5.728-.337-.968-.38-1.285-.38-2.801 0-1.516.043-1.833.38-2.801 1.099-3.159 3.457-5.275 6.717-6.03 1.324-.305 3.324-.172 4.74.316Zm-4.444 2.021c-1.554.59-2.833 2.245-2.878 3.725l-.015.513 1.061.04c1.128.043 1.088.065 1.26-.714.128-.58 1.005-1.403 1.616-1.517 1.452-.273 2.716.747 2.716 2.191 0 1.058-.784 2.03-1.77 2.192-.759.126-1.255.345-1.402.62-.072.136-.132.835-.132 1.554v1.308h2.188v-.611c0-.606.007-.615.74-.962a4.91 4.91 0 0 0 2.255-2.255c.505-1.072.505-2.62 0-3.692-.43-.909-1.28-1.785-2.148-2.212-.803-.394-2.672-.49-3.491-.18Zm.456 13.262v1.162h2.188v-2.325h-2.188v1.163Zm-3.418 14.69v1.086l-3.088.041c-3.058.041-3.091.045-3.35.365-.15.185-.26.534-.26.82 0 .472.268.766 5.37 5.863 4.978 4.974 5.406 5.367 5.84 5.367.434 0 .862-.393 5.84-5.367 5.102-5.097 5.37-5.391 5.37-5.863 0-.286-.11-.635-.26-.82-.259-.32-.292-.323-3.35-.364l-3.088-.042v-2.173h-2.188v1.855c0 1.02.06 1.967.134 2.105.227.424.92.552 2.997.552h1.995l-3.725 3.725L35 67.335l-3.725-3.725-3.726-3.725h2.021c2.452 0 2.885-.128 3.09-.913.074-.287.14-1.215.146-2.06l.01-1.539h-2.328v1.087Z" fill="#fff"/></svg>