<svg width="70" height="70" fill="none" xmlns="http://www.w3.org/2000/svg"><path fill-rule="evenodd" clip-rule="evenodd" d="M23.23.072c-2.904.217-6.72 1.274-9.328 2.582-3.342 1.676-6.97 4.765-9.093 7.743C.343 16.662-1.063 24.08.804 31.524 2.342 37.66 6.419 43.187 12.01 46.717c1.165.735 3.554 1.84 5.13 2.373 6.242 2.11 12.99 1.707 18.884-1.126.828-.398 1.813-.916 2.19-1.153l.684-.429L50.324 57.78c8.565 8.541 11.581 11.469 12.043 11.686 3.28 1.542 6.948-.391 7.564-3.987.187-1.09-.01-2.253-.555-3.297-.267-.511-3.227-3.562-11.653-12.011L46.43 38.843l.452-.785c5.215-9.067 4.58-19.837-1.657-28.155C44.14 8.46 41.647 6.01 40.17 4.94 35.166 1.313 29.27-.38 23.23.072Zm5.541 2.865a22.74 22.74 0 0 1 10.4 4.545c3.747 2.934 6.683 7.443 7.88 12.101 1.134 4.413.85 9.388-.781 13.71-2.287 6.06-7.634 11.228-13.667 13.21-3.057 1.006-5.163 1.313-8.194 1.198-2.897-.11-4.757-.484-7.401-1.487-3.821-1.451-7.424-4.227-9.99-7.697-4.415-5.972-5.562-14.077-2.984-21.09 1.25-3.4 3.429-6.613 6.097-8.989 5.15-4.586 11.941-6.59 18.64-5.5ZM22.203 5.52C14.794 6.693 8.713 11.818 6.35 18.878c-.626 1.87-.912 3.387-1.009 5.35-.094 1.9.038 2.37.749 2.666.363.152.567.162.923.045.698-.23.835-.57.94-2.326.282-4.718 1.905-8.418 5.071-11.565 3.557-3.535 8.117-5.319 12.955-5.069 1.724.09 1.726.09 2.156-.273.364-.306.43-.456.43-.972 0-.784-.42-1.208-1.319-1.332-1.007-.138-3.847-.071-5.044.118ZM33.835 18.5c-1.286.426-2.045 1.084-2.551 2.212-.384.855-.425 2.378-.082 3.027l.226.426-1.316 1.466c-1.075 1.199-1.367 1.45-1.601 1.384-1.24-.356-2.588-.137-3.58.58l-.539.39-2.258-1.05-2.258-1.05-.1-.793c-.179-1.417-.98-2.602-2.2-3.25-.818-.435-2.65-.438-3.463-.006-.864.46-1.327.907-1.769 1.705-.352.637-.403.868-.404 1.828 0 .786.073 1.262.26 1.676l.26.577-1.321 1.731c-1.077 1.412-1.32 1.817-1.32 2.201 0 .685.618 1.27 1.341 1.27.625 0 .84-.203 2.412-2.28l.95-1.253.966.07c.775.056 1.12.012 1.736-.22.422-.16.878-.413 1.013-.562.135-.15.319-.271.409-.271.09 0 1.141.461 2.337 1.025l2.173 1.026.145.856c.197 1.161.522 1.776 1.318 2.491 1.965 1.768 4.938 1.21 6.156-1.156.42-.812.512-2.237.197-3.024-.263-.656-.36-.48 1.263-2.272 1.083-1.194 1.16-1.251 1.507-1.116.202.078.751.141 1.221.14 1.865-.005 3.527-1.374 3.808-3.136.086-.536.088-.537 1.065-.785 2.763-.702 3.236-.987 3.236-1.948 0-.604-.624-1.271-1.187-1.27-.213.002-1.126.21-2.03.462l-1.641.46-.548-.549c-.3-.302-.817-.67-1.147-.818-.76-.34-1.975-.428-2.684-.194Zm1.886 2.83c1.028.808.226 2.507-1.069 2.265-.974-.183-1.335-1.327-.668-2.12.433-.515 1.187-.578 1.737-.145Zm-19.409 2.929c.536.224.76.57.76 1.175 0 .577-.2.913-.7 1.17-.76.394-1.672-.089-1.834-.971-.1-.547.18-1.04.756-1.328.57-.286.456-.281 1.018-.046Zm11.994 5.808c.213.27.265.481.208.834-.263 1.62-2.555 1.527-2.545-.103.008-1.286 1.527-1.761 2.337-.731Zm17.573 12.065.952.96-1.88 1.88-1.879 1.878-.973-.973-.972-.973 1.827-1.853c1.006-1.019 1.86-1.859 1.9-1.866.04-.007.5.42 1.025.947Zm11.933 11.94c6.324 6.328 9.125 9.22 9.271 9.575.597 1.446-.23 3.131-1.734 3.536-.693.187-1.375.073-2.093-.35-.3-.178-4.55-4.33-9.44-9.228l-8.895-8.904 1.845-1.848c1.014-1.017 1.876-1.848 1.915-1.848.039 0 4.148 4.08 9.131 9.067Z" fill="#fff"/></svg>