<svg width="48" height="70" fill="none" xmlns="http://www.w3.org/2000/svg"><path fill-rule="evenodd" clip-rule="evenodd" d="M14.077.291c-.987.38-2.17 1.483-2.66 2.483-.346.704-.392.956-.392 2.132 0 1.148.05 1.442.371 2.125.49 1.047 1.339 1.872 2.483 2.414l.933.442 3.682.047 3.683.048v6.14l-4.712.04-4.712.04-.268.331c-.229.283-.268.566-.268 1.925v1.594l-5.624.04-5.623.04-.268.33c-.26.32-.268.717-.268 11.683 0 11.164.004 11.356.28 11.632.272.272.468.28 6.349.28h6.067l4.524 4.527 4.523 4.526v6.78l-3.683.048-3.682.047-.912.434c-1.11.53-1.966 1.362-2.485 2.42-.344.7-.39.953-.39 2.127 0 1.176.046 1.428.391 2.132.5 1.018 1.667 2.096 2.73 2.522.801.321.854.323 8.359.37 4.957.03 7.89-.006 8.532-.106 2.116-.329 3.59-1.612 4.24-3.69.072-.228.477-.245 5.903-.245 5.639 0 5.835-.01 6.106-.281.276-.276.28-.468.28-11.632 0-10.965-.008-11.362-.267-11.682l-.268-.331-6.921-.04-6.922-.038-4.453-4.45-4.454-4.452V26.25l4.641-.042 4.642-.042.338-.394.338-.394v-4.125c0-4.368-.041-4.687-.653-4.965-.228-.104-1.838-.156-4.824-.156h-4.482v-6.15l3.682-.048 3.682-.048.873-.403c1.033-.476 2.145-1.58 2.591-2.572.234-.52.305-.96.313-1.938.01-1.157-.028-1.345-.45-2.2C34.41 1.628 33.41.684 32.336.282c-.746-.28-1.031-.289-9.147-.282-8.05.007-8.405.019-9.111.29Zm17.999 2.264c1.07.726 1.522 1.933 1.188 3.173-.226.84-1.152 1.746-2.004 1.96-.838.212-15.222.23-15.974.022-1.893-.526-2.75-2.641-1.734-4.282a2.759 2.759 0 0 1 1.037-1.002l.618-.327h16.196l.673.456Zm.06 18.559v2.876H14.321v-5.753H32.136v2.877Zm-19.915 2.7c.005 1.781.085 2.022.753 2.276.236.09 2.082.146 4.793.146h4.41v6.804l-4.453 4.456-4.453 4.456H2.538V22.166h9.679l.004 1.649Zm15.006 23.26-4.068 4.07-4.033-4.035-4.032-4.033 4.066-4.07 4.067-4.07 4.034 4.034 4.034 4.034-4.068 4.07Zm18.236 6.877v9.893h-5.12c-4.517 0-5.12-.026-5.12-.216 0-.69-1.132-2.247-2.071-2.85-1.153-.74-1.955-.863-5.604-.863H24.28V53.11l4.523-4.526 4.523-4.527h12.136v9.894Zm-13.677 8.432c1.21.631 1.85 2.08 1.475 3.334-.245.82-.62 1.293-1.38 1.74l-.656.386h-7.996c-7.918 0-8.002-.003-8.557-.302-1.432-.771-1.998-2.347-1.352-3.769.302-.663 1.13-1.433 1.67-1.552.21-.047.446-.107.524-.134.077-.027 3.643-.037 7.925-.023 7.596.026 7.8.034 8.347.32Z" fill="#fff"/></svg>