<svg width="70" height="70" fill="none" xmlns="http://www.w3.org/2000/svg"><path fill-rule="evenodd" clip-rule="evenodd" d="M10.38.198C5.4 1.098 1.352 5.223.465 10.3c-.703 4.019.636 8.09 3.62 11.007l1.1 1.076-.49.476c-.671.65-1.295 1.654-1.727 2.78-.355.927-.363 1.02-.413 5.344-.056 4.91.053 5.953.82 7.838.89 2.19 2.827 4.351 4.844 5.407l1.079.564.002 1.569.001 1.568-.812.536c-1.07.708-2.735 2.323-3.512 3.408-.789 1.102-1.666 2.968-2.06 4.384-.289 1.037-.31 1.459-.358 7.421L2.507 70l13.525-.04 13.525-.04.966-.328c1.16-.392 10.45-4.608 10.984-4.984.333-.235.662-.264 2.948-.264 1.564 0 2.79-.065 3.127-.166.677-.203 1.706-1.083 1.947-1.664l.177-.429h8.825c6.515 0 8.976-.045 9.405-.171 1.213-.359 2.345-1.912 2.345-3.217 0-1.305-1.132-2.858-2.345-3.216-.394-.116-1.818-.172-4.418-.172h-3.836l-.347-.346c-.283-.284-.346-.487-.346-1.119v-.772l3.501-.046 3.502-.046 1.066-.527c1.284-.635 2.084-1.453 2.706-2.765l.447-.943V16.701l-.447-.944c-.618-1.305-1.426-2.135-2.643-2.716-.552-.263-1.115-.514-1.25-.558-.167-.053-.248-.225-.248-.522 0-.556-.343-1.938-.733-2.954-.548-1.426-1.562-2.973-2.725-4.158a12.321 12.321 0 0 0-17.52-.15c-1.943 1.914-3.347 4.74-3.616 7.272l-.038.353-7.94.037-7.94.036v-.476c0-.922-.438-2.973-.86-4.032-1.282-3.207-3.933-5.852-7.102-7.082-2.035-.79-4.525-1.014-6.769-.609Zm5.344 2.513c1.602.51 2.793 1.253 4.094 2.555 1.29 1.29 2.032 2.472 2.568 4.094.33.997.374 1.352.374 3.035 0 1.68-.044 2.04-.373 3.038-.656 1.99-2.014 3.88-3.657 5.09l-.824.606-.809-.38-.809-.378-3.74.004c-3.457.005-3.8.027-4.531.303l-.79.298-.48-.361c-3.553-2.671-5.039-7.16-3.734-11.275.5-1.574 1.246-2.771 2.547-4.086 1.54-1.556 3.305-2.504 5.364-2.88 1.24-.227 3.536-.065 4.8.337Zm-3.741 5.944-1.76 5.295-.674-1.342-.674-1.342H4.784v2.259h2.68L9.02 16.63c.855 1.708 1.58 3.105 1.613 3.105.032 0 .746-2.064 1.586-4.587.84-2.524 1.56-4.588 1.602-4.588.042 0 .38.92.753 2.047l.677 2.047h5.344v-2.251l-1.86-.04-1.86-.039-1.49-4.482c-.82-2.465-1.525-4.482-1.566-4.482-.041 0-.867 2.383-1.835 5.295ZM56.377 3.84c1.602.51 2.793 1.254 4.094 2.555 1.29 1.29 2.032 2.472 2.569 4.094.33.997.373 1.352.373 3.035s-.043 2.038-.373 3.035c-.537 1.622-1.279 2.805-2.569 4.095-1.29 1.29-2.472 2.032-4.094 2.568-.997.33-1.352.374-3.035.374-1.682 0-2.037-.044-3.035-.374-1.621-.537-2.804-1.279-4.094-2.569-1.29-1.29-2.031-2.472-2.568-4.094-.33-.997-.374-1.352-.374-3.035 0-1.682.044-2.038.374-3.035.534-1.615 1.275-2.799 2.568-4.106 1.54-1.556 3.306-2.504 5.365-2.88 1.239-.227 3.536-.065 4.8.337Zm-9.81 5.167v1.13h2.259v-2.26h-2.26v1.13Zm4.517 0v1.13h9.034v-2.26h-9.034v1.13Zm-4.517 4.517v1.13h2.259v-2.26h-2.26v1.13Zm4.517 0v1.13h9.034v-2.26h-9.034v1.13Zm-10.055 1.553c.269 2.532 1.673 5.358 3.615 7.273 6.835 6.742 18.406 3.462 20.75-5.882.126-.503.229-1.054.229-1.223 0-.923 1.872.575 2.236 1.788.119.397.164 3.87.164 12.636v12.088H21.414l.091-.67c.055-.403-.08-2.364-.34-4.916-.236-2.335-.43-4.32-.43-4.411 0-.116.395-.167 1.29-.167 1.73 0 2.296-.188 3.161-1.053 1.428-1.429 1.428-3.24 0-4.669-.879-.879-1.427-1.053-3.303-1.053-1.05 0-1.43-.047-1.43-.177 0-.097-.187-.571-.415-1.053l-.415-.877.93-.74c1.817-1.447 3.496-4.05 4.084-6.333l.255-.987 8.05.037 8.049.036.038.353Zm-12.53 2.964v1.13H39.79v-2.259H28.5v1.13Zm18.068 0v1.13h2.259v-2.259h-2.26v1.13Zm4.517 0v1.13h9.034v-2.259h-9.034v1.13ZM28.499 22.56v1.13H39.79v-2.26H28.5v1.13Zm-12.51.171c.632.187 2.064 1.482 2.064 1.867 0 .181-.196.22-1.104.22-2.185 0-2.989.571-4.195 2.976l-.773 1.542H4.745l.072-1.26c.085-1.493.58-2.716 1.507-3.722.625-.677 1.906-1.432 2.782-1.637.85-.2 6.197-.188 6.884.014Zm12.51 4.346v1.13H39.79v-2.26H28.5v1.13Zm-4.864.347c.218.218.346.508.346.783 0 .274-.128.564-.346.782l-.346.347H14.52l.494-.98c.271-.539.606-1.045.743-1.125.153-.09 1.658-.147 3.89-.15l3.642-.004.346.347Zm18.415 1.912v1.13h23.714v-2.26H42.05v1.13ZM28.499 34.98V39.5H39.79v-9.035H28.5v4.517Zm-20.806-3.07c-.316.494-.65 1.783-.65 2.506 0 1.355.694 2.916 1.756 3.945l.502.486v1.682c0 1.93.027 1.91-1.19.913-1.597-1.307-2.72-3.105-3.115-4.98-.123-.588-.208-1.773-.21-2.928l-.002-1.941h3.112l-.203.317Zm10.783-.154c0 .09.197 2.106.436 4.48.467 4.617.458 4.923-.167 5.717-.59.75-1.208.933-3.157.933h-1.77v2.259h2.259V46.232l-1.235.088c-.68.048-1.696.21-2.259.358l-1.023.27v-9.052l-.973-1.004c-1.653-1.705-1.736-3.193-.262-4.7l.588-.6h3.781c2.772 0 3.782.044 3.782.164Zm19.057 3.224v2.26h-6.776v-4.518h6.776v2.258Zm4.517-1.129v1.13h23.714v-2.26H42.05v1.13Zm0 4.517v1.13h2.259V37.24h-2.26v1.13Zm4.517 0v1.13H65.764V37.24H46.566v1.13Zm21.456 7.572c0 1.098-.074 2.174-.172 2.505-.229.776-1.398 1.945-2.174 2.174-.444.132-5.226.172-20.279.172H25.701l-.825-.794c-1.496-1.441-3.713-2.717-5.613-3.232l-.928-.25v-.805c0-.803.002-.806.566-1.06.31-.14.636-.34.723-.445.13-.158 4.24-.19 24.278-.19h24.12v1.925Zm-13.551 1.463v1.13h2.259v-2.26h-2.26v1.13Zm4.517 0v1.13h2.259v-2.26h-2.26v1.13Zm4.517 0v1.13h2.259v-2.26h-2.26v1.13Zm-46.018 1.28c4.06.656 7.504 3.667 8.727 7.633.314 1.02 1.075 5.968.962 6.262-.038.1-.36.292-.715.427-.355.136-.645.304-.645.373 0 .105.805 1.797.915 1.923.02.022 1.514-.63 3.321-1.45 1.808-.82 3.305-1.471 3.328-1.448.093.092 1.178 2.522 1.217 2.722.051.267-3.895 2.099-5.173 2.4-2.356.556-4.759-.123-6.515-1.841-1.144-1.12-1.544-1.96-2.582-5.423-.474-1.585-.889-2.907-.92-2.94-.121-.12-2.06.549-2.06.71.006.484 1.763 5.96 2.198 6.848.298.608.854 1.403 1.357 1.94l.852.912H4.784l.001-4.553c.001-5.002.08-5.796.75-7.58 1.099-2.917 3.5-5.292 6.437-6.364 1.861-.68 3.63-.856 5.516-.551Zm16.657 7.593v3.226l-2.337 1.072c-1.526.7-2.356 1.013-2.393.903-.032-.093-.19-1.122-.353-2.287-.342-2.45-.677-3.799-1.27-5.107-.233-.512-.423-.954-.423-.982 0-.028 1.525-.051 3.388-.051h3.388v3.226Zm11.292-2.062v1.165h-2.293c-2.023 0-2.404.038-3.227.322-1.09.377-1.99.921-2.878 1.74l-.636.586V53.05h9.034v1.164Zm11.293-.369c0 .438.077 1.057.172 1.376.229.776 1.398 1.945 2.174 2.174.393.117 1.818.172 4.417.172h3.837l.346.346c.219.219.347.508.347.783s-.128.565-.347.783l-.346.347h-8.758c-6.913 0-8.759-.038-8.759-.177 0-.426-.874-1.964-1.468-2.584l-.649-.678V53.051h9.034v.795ZM45.35 57.74c.367.108.844.434 1.292.882 1.07 1.07 1.381 2.443.707 3.117-.333.334-.416.346-2.258.346h-1.912v-.61c0-1.244-.877-2.792-1.889-3.333-.785-.42-.424-.527 1.873-.555.91-.01 1.859.055 2.188.153Zm-5.272 2.3c.796.412 1.066 1.465.58 2.263-.204.334-.662.61-2.062 1.243-.99.448-1.816.794-1.835.77-.02-.023-.322-.687-.672-1.474l-.638-1.431 1.711-.79c1.814-.836 2.252-.924 2.916-.58Z" fill="#6A6A6A"/></svg>