<svg width="80" height="74" viewBox="0 0 80 74" fill="none" xmlns="http://www.w3.org/2000/svg">
<path fill-rule="evenodd" clip-rule="evenodd" d="M0.486639 0.891263L0.0478694 1.26315L0.00752639 27.9143C-0.018118 44.7418 0.0225378 54.7095 0.117766 54.9561C0.200641 55.1709 0.461933 55.4715 0.698518 55.6243C1.10555 55.8871 2.08551 55.904 19.0007 55.943C28.8303 55.9655 36.8726 56.014 36.8726 56.0507C36.8726 56.0874 34.5154 59.5111 31.6343 63.6588C25.8318 72.0122 25.9132 71.8568 26.853 72.7826C27.3966 73.318 28.3501 73.4036 28.867 72.9633C29.0412 72.8151 31.586 69.2275 34.5223 64.9911C37.4585 60.7546 39.9235 57.2884 40 57.2884C40.0765 57.2884 42.5432 60.7546 45.4815 64.9911C48.4198 69.2275 50.9744 72.8135 51.1584 72.96C52.0721 73.6866 53.604 72.9389 53.604 71.7662C53.604 71.2754 52.907 70.1965 48.3657 63.6588C45.4846 59.5111 43.1274 56.0874 43.1274 56.0507C43.1274 56.014 51.1697 55.9655 60.9993 55.943C77.9145 55.904 78.8945 55.8871 79.3015 55.6243C79.5381 55.4715 79.7994 55.1709 79.8822 54.9561C79.9775 54.7095 80.0181 44.7418 79.9925 27.9143L79.9521 1.26315L79.5134 0.891263L79.0746 0.519531H40H0.925409L0.486639 0.891263ZM76.9029 5.44925V7.2979H40H3.09705V5.44925V3.60061H40H76.9029V5.44925ZM76.9029 31.5614V52.7438H40H3.09705V31.5614V10.379H40H76.9029V31.5614ZM38.5037 13.8942C37.0712 14.3821 36.0418 15.5057 35.5535 17.1142C35.4048 17.6039 35.2561 18.0914 35.2228 18.1972C35.186 18.3146 34.8827 18.3898 34.4464 18.3898C33.4852 18.3898 32.9634 18.9097 32.9634 19.8672C32.9634 20.8097 33.4441 21.3213 34.4331 21.4311L35.1889 21.5149L35.1219 23.38C35.0694 24.8394 34.9837 25.4015 34.7276 25.9637C34.1567 27.2169 33.5249 27.3227 32.5805 26.3235C31.8319 25.5317 31.3312 25.4377 30.5048 25.9343C29.6104 26.4714 29.6262 27.6182 30.5424 28.6727C32.596 31.0362 36.4814 30.1475 37.6598 27.0447C38.1359 25.7905 38.2799 24.8674 38.2799 23.0675V21.4709H38.8981C39.7153 21.4709 40.286 21.1985 40.559 20.6782C40.9215 19.9876 40.84 19.3477 40.3248 18.8401C39.9496 18.4705 39.7364 18.3898 39.1353 18.3898C38.5317 18.3898 38.4196 18.3469 38.4978 18.1461C38.55 18.012 38.5927 17.8441 38.5927 17.7728C38.5927 17.4701 39.4275 16.6952 39.7536 16.6952C39.96 16.6952 40.3994 16.9813 40.8186 17.3884C41.734 18.2775 42.2917 18.3195 43.0648 17.5579C43.7339 16.8987 43.7511 16.3795 43.1357 15.4235C42.5934 14.5809 41.7601 13.9989 40.7818 13.7796C39.812 13.5619 39.4213 13.5816 38.5037 13.8942ZM10.6539 14.9538C9.57211 15.1613 9.11083 16.7238 9.90127 17.5026C10.3657 17.9601 10.882 18.0817 12.3613 18.0817H13.4551L13.3836 19.9688C13.3259 21.4949 13.2305 22.0918 12.8854 23.0884C12.4229 24.4239 11.4526 26.0429 10.4085 27.2209C9.86843 27.8303 9.74975 28.0759 9.74975 28.5846C9.74975 29.0899 9.84404 29.288 10.257 29.6514C11.2096 30.4901 12.0399 30.1738 13.4455 28.4367C14.4783 27.1604 15.7312 24.7593 16.1557 23.2425C16.3064 22.7042 16.45 21.4333 16.4997 20.1999L16.5848 18.0817H17.9721H19.3594V22.3671C19.3594 27.3844 19.4468 27.8812 20.514 28.9326C22.4308 30.8212 25.4762 30.3126 26.7348 27.894C26.9887 27.4059 27.0744 26.9526 27.0852 26.0416C27.0993 24.8667 27.0863 24.8237 26.5889 24.3856C25.4849 23.4132 24.0504 24.0905 24.0504 25.5842C24.0504 26.8014 23.3633 27.4076 22.7455 26.735C22.5182 26.4875 22.4867 25.9477 22.4867 22.2864V18.1194L23.8742 18.0539C25.4807 17.9783 25.9641 17.7486 26.238 16.9307C26.3925 16.4696 26.3766 16.296 26.1348 15.8085C25.6707 14.8729 25.5783 14.8624 17.8739 14.8763C14.0898 14.8829 10.8407 14.9179 10.6539 14.9538ZM41.2681 21.3778C40.7815 21.6434 40.4816 22.1917 40.4746 22.8281C40.4702 23.2314 40.6299 23.5054 41.2389 24.1398L42.0087 24.9417L41.2389 25.7368C40.321 26.6847 40.2183 27.3157 40.8596 28.0665C41.5993 28.9326 42.4261 28.8345 43.5574 27.7461L44.2219 27.1068L44.8865 27.7461C45.7347 28.562 46.2859 28.7759 46.9681 28.5541C47.6159 28.3435 47.9748 27.8088 47.9748 27.0542C47.9748 26.5591 47.8622 26.3559 47.2711 25.7844C46.8841 25.4102 46.5675 25.0389 46.5675 24.9594C46.5675 24.8801 46.8841 24.4815 47.2711 24.0739C47.8616 23.4518 47.9748 23.234 47.9748 22.7185C47.9748 21.7899 47.4294 21.2398 46.5088 21.2398C45.8668 21.2398 45.7214 21.3137 45.0152 21.9989L44.2329 22.7581L43.3768 21.9604C42.4645 21.1105 41.9951 20.9808 41.2681 21.3778ZM56.1651 23.5409C55.526 23.8149 55.1677 24.339 55.1677 25.0001C55.1677 25.4855 55.4159 25.7797 57.9023 28.2431L60.637 30.9524L58.1262 33.4136C55.0569 36.4225 54.8516 36.7513 55.3949 37.7865C55.8043 38.5665 55.9855 38.5841 63.1225 38.5372L69.7374 38.4938L70.1145 38.0615C70.4631 37.6624 70.4918 37.5022 70.4918 35.9644C70.4918 34.3707 70.4742 34.282 70.0797 33.8931C69.7588 33.5772 69.5144 33.4871 68.9779 33.4871C68.1116 33.4871 67.5718 33.9655 67.4262 34.8631L67.3244 35.4898H63.9461H60.5676L62.307 33.7566C64.1977 31.873 64.3935 31.6007 64.3935 30.8535C64.3935 30.4245 64.1323 30.0962 62.4859 28.4555L60.5784 26.5546H63.9541H67.3296L67.4322 27.0932C67.4886 27.3894 67.7014 27.8226 67.9052 28.056C68.2111 28.4065 68.4028 28.4803 69.0063 28.4803C69.6131 28.4803 69.8012 28.407 70.1145 28.048C70.4631 27.6489 70.4918 27.4888 70.4918 25.9509C70.4918 24.3777 70.4701 24.2645 70.0987 23.8986C69.8825 23.6855 69.4867 23.468 69.2192 23.4153C68.9516 23.3626 66.0149 23.3223 62.693 23.3255C57.9581 23.3303 56.5478 23.3768 56.1651 23.5409ZM34.8961 33.5579C34.4644 33.856 34.3904 34.0634 33.2596 38.1484L32.2892 41.6544L32.0091 41.2008C31.8552 40.9513 31.5894 40.6735 31.4183 40.5834C31.2282 40.4831 29.8847 40.4195 27.9579 40.4195H24.8082L24.3511 40.8698C23.7272 41.4846 23.7269 42.2328 24.3502 42.9204L24.8065 43.4235L27.1188 43.5006L29.4314 43.5776L30.0851 46.1896C30.6378 48.3972 30.8035 48.8561 31.1563 49.1551C31.857 49.7488 33.0526 49.5918 33.4538 48.8533C33.5554 48.6663 34.3915 45.8081 35.3116 42.5021L36.9847 36.4911L42.6124 36.4141C48.5116 36.3334 48.4509 36.3406 49.0253 35.6438C49.13 35.5167 49.2181 35.1276 49.2207 34.7789C49.2245 34.2957 49.1278 34.0489 48.8135 33.7391L48.4012 33.333H41.8117C36.2873 33.333 35.1695 33.3694 34.8961 33.5579ZM39.1023 39.42C38.4773 39.6829 38.034 40.5093 38.1899 41.1209C38.2495 41.355 38.75 42.0075 39.302 42.5708L40.3057 43.595L39.4371 44.4337C38.3584 45.4751 38.0656 45.9975 38.191 46.6562C38.3442 47.4607 39.2324 48.0572 40.0225 47.8862C40.2948 47.8273 40.9435 47.3678 41.5496 46.8044L42.6035 45.8249L43.5239 46.7412C44.6291 47.8416 45.2097 48.0806 45.9942 47.7577C46.648 47.4885 46.8802 47.1133 46.8802 46.3261C46.8802 45.812 46.7553 45.618 45.8371 44.7065L44.7939 43.6708L45.8371 42.5815C46.7939 41.5821 46.8802 41.4367 46.8802 40.8228C46.8802 40.3089 46.7867 40.0611 46.4772 39.7564C45.6619 38.953 44.8194 39.149 43.4845 40.4524L42.5016 41.4122L41.4463 40.3951C40.2858 39.2769 39.8616 39.1003 39.1023 39.42ZM53.7213 45.0534C52.9076 45.5204 52.8106 46.8438 53.5406 47.5198L53.9415 47.8911L58.8157 47.9378C61.4964 47.9635 63.9264 47.9415 64.2155 47.8891C65.0205 47.7429 65.4881 47.1909 65.4881 46.3864C65.4881 45.8519 65.3986 45.6305 65.0494 45.301L64.611 44.887L59.3029 44.8917C55.9895 44.8946 53.8921 44.9554 53.7213 45.0534ZM68.1327 45.0845C67.5529 45.5231 67.3359 46.5696 67.6897 47.221C67.7828 47.3921 68.1053 47.6335 68.4068 47.7577C69.9198 48.3805 71.1578 46.6147 70.087 45.3611C69.7524 44.9693 69.5693 44.888 69.0315 44.892C68.6736 44.8946 68.2692 44.9813 68.1327 45.0845Z" fill="#2C2C2C"/>
</svg>
