<svg width="80" height="81" viewBox="0 0 80 81" fill="none" xmlns="http://www.w3.org/2000/svg">
<path fill-rule="evenodd" clip-rule="evenodd" d="M13.2188 1.30712C12.2825 1.67293 11.5223 2.38377 11.0562 3.32963C10.7284 3.99468 10.7031 4.2772 10.6553 7.80765L10.6044 11.5758L7.99938 11.6642C5.11064 11.7623 4.399 11.921 3.08946 12.7588C1.5876 13.7198 0.488812 15.3384 0.162911 17.0697C-0.0544079 18.2243 -0.0542517 58.4554 0.163068 59.6087C0.676448 62.3333 3.07383 64.5491 5.90352 64.914C6.48283 64.9887 11.9308 65.0521 18.0103 65.0549L29.0637 65.0601V65.3978C29.0637 65.7441 28.3507 71.6209 28.2013 72.5052L28.1184 72.9968L26.8993 73.0522C25.8435 73.1003 25.6015 73.1679 25.0901 73.558C24.2493 74.1994 24.0643 74.7654 24.0643 76.6967V78.3424H22.7363H21.4083V79.6707V80.9989H40H58.5917V79.6707V78.3424H57.2637H55.9357V76.6967C55.9357 74.7654 55.7507 74.1994 54.9099 73.558C54.3985 73.1679 54.1565 73.1003 53.1007 73.0522L51.8816 72.9968L51.7987 72.5052C51.6493 71.6209 50.9363 65.7441 50.9363 65.3978V65.0601L61.9897 65.0549C68.0692 65.0521 73.5172 64.9887 74.0965 64.914C76.9262 64.5491 79.3236 62.3333 79.8369 59.6087C80.0543 58.4554 80.0544 18.2243 79.8371 17.0697C79.5112 15.3384 78.4124 13.7198 76.9105 12.7588C75.601 11.921 74.8894 11.7623 72.0006 11.6642L69.3956 11.5758L69.3419 7.80765C69.2822 3.61918 69.2402 3.41464 68.2029 2.26642C67.8344 1.85842 67.3235 1.51651 66.7759 1.31165C65.9291 0.994751 65.7306 0.992407 39.955 0.999752C14.7252 1.00678 13.9654 1.01553 13.2188 1.30712ZM65.8538 3.8042C66.5181 4.05672 66.7158 4.79022 66.7158 7.00352V8.9618H40H13.2843V7.00352C13.2843 4.84616 13.485 4.05844 14.0976 3.81264C14.6036 3.60934 65.32 3.60106 65.8538 3.8042ZM15.973 6.3444L16.0183 7.63357L17.3072 7.67889L18.5962 7.72436V6.38972V5.05524H17.2619H15.9275L15.973 6.3444ZM21.4083 6.38972V7.72436L22.6973 7.67889L23.9862 7.63357L24.0315 6.3444L24.0769 5.05524H22.7426H21.4083V6.38972ZM26.7202 6.38972V7.72436L28.0092 7.67889L29.2981 7.63357L29.3434 6.3444L29.3888 5.05524H28.0545H26.7202V6.38972ZM66.6376 28.6254V45.5543L66.1992 45.9315L65.7609 46.3086H40H14.2391L13.8008 45.9315L13.3624 45.5545L13.3205 28.7844C13.2975 19.5609 13.313 11.925 13.3549 11.8159C13.4161 11.6562 18.6396 11.6251 40.0344 11.6569L66.6376 11.6964V28.6254ZM10.6638 30.0963C10.7038 44.9454 10.7238 45.9564 10.9878 46.543C11.3781 47.4102 12.128 48.1553 13.0499 48.592L13.8311 48.9619H40H66.1689L66.9501 48.592C67.872 48.1553 68.6219 47.4102 69.0122 46.543C69.2762 45.9564 69.2962 44.9447 69.3362 30.0777L69.3789 14.2375L71.836 14.3018C74.0596 14.3599 74.3655 14.4022 75.0553 14.7487C75.4745 14.9593 76.0561 15.4103 76.3476 15.7511C77.3811 16.9585 77.3396 16.1625 77.3396 34.7736V51.6215H40H2.66044V34.77C2.66044 16.4774 2.63373 17.0634 3.51894 15.9025C4.04997 15.2062 5.00612 14.6021 5.83759 14.4377C6.19536 14.3669 7.41804 14.3013 8.55463 14.2919L10.6211 14.2747L10.6638 30.0963ZM17.3463 15.603V16.9312H18.6743H20.0022V15.603V14.2747H18.6743H17.3463V15.603ZM22.6582 15.603V16.9312H25.3141H27.9701V15.603V14.2747H25.3141H22.6582V15.603ZM37.5003 15.9052C34.8617 16.4665 32.6011 17.6516 30.6701 19.4858L30.0113 20.1116L30.9045 20.9364C31.3958 21.3902 31.8523 21.7644 31.9192 21.7683C31.9859 21.7722 32.5132 21.3834 33.0909 20.9045C35.6219 18.8064 39.0181 17.9158 42.031 18.5602C44.9366 19.1817 47.2968 20.7751 48.8621 23.1719L49.5189 24.1776L48.5962 25.0128C47.2604 26.222 46.7961 27.2414 46.7961 28.9658C46.7961 30.1543 46.8509 30.4079 47.3104 31.3422C48.1799 33.1102 49.6763 34.1078 51.6582 34.2404C53.62 34.3717 55.3019 33.5466 56.3882 31.9196C58.2172 29.1802 57.1879 25.5935 54.1695 24.1877C53.7231 23.9799 53.2054 23.8091 53.0192 23.8083C52.4067 23.8055 52.1766 23.6214 51.7721 22.8106C50.423 20.106 47.5632 17.5861 44.62 16.5085C42.6241 15.7777 39.3882 15.5036 37.5003 15.9052ZM17.3463 20.994V22.4004H20.0022H22.6582V20.994V19.5877H20.0022H17.3463V20.994ZM26.8368 23.8202C25.5001 24.1352 24.1374 25.1281 23.3998 26.3242C23.2616 26.5485 23.0294 27.1414 22.884 27.6416C22.042 30.5384 24.1877 33.831 27.1791 34.2323C27.6745 34.2989 27.8179 34.4061 28.0434 34.8792C28.9484 36.7773 31.213 39.2666 33.0158 40.3445C34.2186 41.0638 35.8242 41.6956 37.2622 42.0156C38.8715 42.3737 42.0865 42.2664 43.6318 41.8029C45.7687 41.1621 47.9989 39.8513 49.3593 38.4367C49.9698 37.8018 49.9681 37.7974 48.7271 36.7581L47.9702 36.1243L47.1214 36.8802C45.1597 38.6269 43.1675 39.4419 40.5809 39.5557C37.9823 39.6701 36.1368 39.1711 34.0661 37.7943C32.8574 36.9905 31.4713 35.5276 30.8676 34.4182L30.4722 33.6913L31.0971 33.2777C31.8804 32.759 32.5496 31.8448 32.9799 30.705C33.9821 28.0501 32.3562 24.8226 29.5854 23.9666C28.5024 23.6321 27.7947 23.5944 26.8368 23.8202ZM29.1728 26.6345C30.9054 27.4733 31.1271 29.9266 29.5773 31.1089C28.3093 32.0763 26.3375 31.6041 25.6416 30.1663C25.252 29.3613 25.2304 28.8414 25.5544 28.0655C25.8781 27.2908 26.2112 26.9423 26.9546 26.6009C27.7723 26.2252 28.3457 26.234 29.1728 26.6345ZM52.9276 26.5473C53.7022 26.8711 54.0506 27.2042 54.392 27.9477C54.7676 28.7656 54.7588 29.3391 54.3584 30.1663C53.6625 31.6041 51.6907 32.0763 50.4227 31.1089C48.8787 29.931 49.0927 27.4907 50.8149 26.6381C51.6085 26.2451 52.1489 26.222 52.9276 26.5473ZM55.9357 37.011V38.3392H59.9978H64.0598V37.011V35.6827H59.9978H55.9357V37.011ZM55.9357 42.3239V43.6521H59.9978H64.0598V42.3239V40.9957H59.9978H55.9357V42.3239ZM77.3396 56.5153C77.3396 59.8947 76.8724 60.982 75.032 61.8858L74.1368 62.3255H40H5.86321L4.968 61.8858C3.12758 60.982 2.66044 59.8947 2.66044 56.5153V54.278H40H77.3396V56.5153ZM70.7258 57.0387C70.6684 57.0959 70.6216 57.6936 70.6216 58.3669V59.5909H71.9495H73.2775V58.2627V56.9344H72.0537C71.3805 56.9344 70.783 56.9813 70.7258 57.0387ZM48.1941 65.4117C48.3166 65.9796 49.0615 72.1672 49.0615 72.6177V73.0295H40H30.9385V72.6177C30.9385 72.1672 31.6834 65.9796 31.8059 65.4117L31.8818 65.0601H40H48.1182L48.1941 65.4117ZM53.2798 77.0142V78.3424H40H26.7202V77.0142V75.686H40H53.2798V77.0142Z" fill="black"/>
</svg>
