<svg width="80" height="80" viewBox="0 0 80 80" fill="none" xmlns="http://www.w3.org/2000/svg">
<path fill-rule="evenodd" clip-rule="evenodd" d="M2.67817 0.217833C1.86043 0.475667 0.46569 1.92033 0.214934 2.76933C-0.0716446 3.73967 -0.0716446 17.5937 0.214934 18.564C0.48535 19.4795 1.86559 20.8602 2.78081 21.1307C3.20235 21.2552 4.56776 21.3333 6.32455 21.3333H9.1825L9.0942 21.7083C8.73697 23.2255 8.17648 26.3108 8.17648 26.7608C8.17648 27.1547 8.30011 27.4065 8.61551 27.6545C9.03388 27.9838 9.25631 28 13.3715 28H17.6887L18.0976 27.5908C18.3443 27.3442 18.5066 26.9895 18.5066 26.6972C18.5066 26.297 17.9251 23.1358 17.5889 21.7083L17.5006 21.3333H20.3586C22.1153 21.3333 23.4808 21.2552 23.9023 21.1307C24.8175 20.8602 26.1978 19.4795 26.4682 18.564C26.7548 17.5937 26.7548 3.73967 26.4682 2.76933C26.1978 1.85383 24.8175 0.473167 23.9023 0.202667C22.9806 -0.0696667 3.54624 -0.0558335 2.67817 0.217833ZM48.4066 0.409167L47.9975 0.818167V8.40917V16H47.0737C46.3147 16 46.0765 16.0732 45.7407 16.4092C45.5158 16.6342 45.3335 16.9903 45.3359 17.2008C45.338 17.4112 45.6716 18.8958 46.077 20.4998C46.638 22.7192 46.9002 23.4862 47.1743 23.7082C47.5117 23.9813 48.5002 24 62.6597 24C76.8191 24 77.8077 23.9813 78.1451 23.7082C78.4192 23.4862 78.6814 22.7192 79.2424 20.4998C79.6478 18.8958 79.9813 17.4112 79.9835 17.2008C79.9858 16.9903 79.8036 16.6342 79.5786 16.4092C79.2429 16.0732 79.0046 16 78.2457 16H77.3218V8.40917V0.818167L76.9128 0.409167L76.5039 0H62.6597H48.8154L48.4066 0.409167ZM23.5959 3.07583L24.0049 3.48483V8.40917V13.3333H13.3416H2.67817V8.40917V3.48483L3.08722 3.07583L3.49609 2.66667H13.3416H23.187L23.5959 3.07583ZM74.656 9.33333V16H69.7333H64.8105L64.4016 16.4092C64.1767 16.6342 63.9926 16.9342 63.9926 17.0758C63.9926 17.2867 63.7508 17.3333 62.6597 17.3333C61.5685 17.3333 61.3268 17.2867 61.3268 17.0758C61.3268 16.9342 61.1427 16.6342 60.9177 16.4092L60.5088 16H55.586H50.6634V9.33333V2.66667H62.6597H74.656V9.33333ZM24.0049 16.9242C24.0049 17.6833 23.9318 17.9217 23.5959 18.2575L23.187 18.6667H13.3416H3.49609L3.08722 18.2575C2.75132 17.9217 2.67817 17.6833 2.67817 16.9242V16H13.3416H24.0049V16.9242ZM58.6609 18.9242C58.6609 19.0658 58.845 19.3658 59.07 19.5908C59.4755 19.9967 59.5047 20 62.6597 20C65.8147 20 65.8439 19.9967 66.2494 19.5908C66.4743 19.3658 66.6584 19.0658 66.6584 18.9242C66.6584 18.6975 67.2741 18.6667 71.8044 18.6667H76.9504L76.6157 20L76.281 21.3333H62.6597H49.0384L48.7037 20L48.3689 18.6667H53.515C58.0453 18.6667 58.6609 18.6975 58.6609 18.9242ZM15.0117 22.2917C15.1187 22.8187 15.3023 23.7188 15.4197 24.2917L15.6335 25.3333H13.3416H11.0496L11.2634 24.2917C11.3808 23.7188 11.5644 22.8187 11.6714 22.2917L11.8657 21.3333H13.3416H14.8174L15.0117 22.2917ZM38.0839 25.4492C37.0879 25.5807 35.063 26.1573 34.0977 26.5847C27.1476 29.6608 23.7235 37.5197 26.1658 44.7898C27.5405 48.8822 31.1206 52.4633 35.2116 53.8385C44.4678 56.9498 53.9834 50.5763 54.6137 40.843C55.0858 33.5537 49.7946 26.846 42.5797 25.5875C41.23 25.352 39.2759 25.292 38.0839 25.4492ZM65.3255 30.9242V35.1818L64.9165 35.5908L64.5076 36H60.2513H55.9951V37.3333V38.6667H60.2974C65.3727 38.6667 65.7462 38.591 66.8749 37.3353C67.2711 36.8945 67.6843 36.2363 67.7933 35.8727C67.9239 35.4363 67.9914 33.7577 67.9914 30.939V26.6667H66.6584H65.3255V30.9242ZM38.6671 30.4167C38.6671 32.0338 38.6269 32.3333 38.4098 32.3333C37.8903 32.3333 36.0012 31.788 36.0012 31.6382C36.0012 31.1115 38.1023 28.5 38.5258 28.5C38.6034 28.5 38.6671 29.3625 38.6671 30.4167ZM42.5339 29.4632C43.3843 30.355 43.9988 31.2673 43.9988 31.6382C43.9988 31.788 42.1097 32.3333 41.5902 32.3333C41.3731 32.3333 41.3329 32.0338 41.3329 30.4167C41.3329 29.3625 41.3966 28.5 41.4742 28.5C41.5519 28.5 42.0287 28.9335 42.5339 29.4632ZM33.6661 30.1713C33.5667 30.3572 33.4104 30.463 33.3189 30.4065C33.2116 30.3402 33.2219 30.2202 33.3477 30.0685C33.6428 29.7128 33.8719 29.7868 33.6661 30.1713ZM46.6523 30.0685C46.7781 30.2202 46.7884 30.3402 46.6811 30.4065C46.5896 30.463 46.4334 30.3572 46.3339 30.1713C46.1281 29.7868 46.3572 29.7128 46.6523 30.0685ZM12.0086 32.939C12.0086 35.7672 12.1664 36.3358 13.2526 37.4223C14.4176 38.5877 14.7866 38.6667 19.0675 38.6667H22.672V37.3333V36H19.0823C15.4929 36 15.4924 36 15.0835 35.5908C14.6895 35.1968 14.6745 35.099 14.6745 32.9242V30.6667H13.3416H12.0086V32.939ZM32.3817 33.0035C32.4528 33.0615 32.3592 33.7405 32.1736 34.5127C31.9878 35.2848 31.7874 36.5355 31.7281 37.2917L31.6201 38.6667H29.8738H28.1273L28.242 37.8025C28.4154 36.4953 29.2477 34.5123 30.1809 33.183L31.0161 31.9933L31.6342 32.4458C31.9743 32.6947 32.3105 32.9457 32.3817 33.0035ZM49.8215 33.1863C50.7525 34.5127 51.5848 36.4965 51.758 37.8025L51.8727 38.6667H50.1262H48.3799L48.2719 37.2917C48.2126 36.5355 48.0127 35.2868 47.8276 34.5172C47.6425 33.7475 47.514 33.0948 47.542 33.0668C47.6181 32.9907 48.9081 32.0247 48.9512 32.0113C48.9717 32.0052 49.3633 32.5338 49.8215 33.1863ZM37.8277 34.9315L38.6671 35.043V36.8548V38.6667H36.5011H34.3351V38.0307C34.3351 37.3683 34.5757 35.8548 34.8471 34.8097L35.0047 34.2027L35.9966 34.5113C36.5421 34.6812 37.3661 34.8703 37.8277 34.9315ZM45.401 35.9787C45.5461 36.744 45.6649 37.6618 45.6649 38.0183V38.6667H43.4989H41.3329V36.8525V35.0383L42.2077 34.9222C42.6887 34.8582 43.4948 34.6758 43.9988 34.517C44.6316 34.3177 44.9495 34.2838 45.0261 34.4077C45.0873 34.5065 45.2559 35.2133 45.401 35.9787ZM14.6745 41.5512C13.8567 41.809 12.462 43.2537 12.2112 44.1027C12.0753 44.563 12.0086 46.1938 12.0086 49.061V53.3333H13.3416H14.6745V49.0758V44.8182L15.0835 44.4092C15.4924 44 15.4929 44 19.0823 44H22.672V42.6667V41.3333L18.9648 41.3503C16.776 41.3603 15.0187 41.4427 14.6745 41.5512ZM31.7281 42.7083C31.7874 43.4647 31.9878 44.7152 32.1736 45.4873C32.3592 46.2595 32.4528 46.9385 32.3817 46.9965C32.3105 47.0543 31.9743 47.3053 31.6342 47.5542L31.0161 48.0067L30.1809 46.817C29.2477 45.4877 28.4154 43.5047 28.242 42.1975L28.1273 41.3333H29.8738H31.6201L31.7281 42.7083ZM38.6671 43.1452V44.957L37.8277 45.0685C37.3661 45.1297 36.5421 45.3188 35.9966 45.4887L35.0047 45.7973L34.8471 45.1903C34.5757 44.1452 34.3351 42.6317 34.3351 41.9693V41.3333H36.5011H38.6671V43.1452ZM45.6649 41.9693C45.6649 42.6317 45.4243 44.1452 45.1529 45.1903L44.9953 45.7973L44.0034 45.4887C43.4579 45.3188 42.6339 45.1297 42.1723 45.0685L41.3329 44.957V43.1452V41.3333H43.4989H45.6649V41.9693ZM51.8297 41.715C51.8297 42.9487 50.8232 45.4257 49.6647 47.0427L48.9776 48.002L48.3626 47.5518C48.0244 47.3043 47.6895 47.0543 47.6183 46.9965C47.5472 46.9385 47.6408 46.2595 47.8264 45.4873C48.0122 44.7152 48.2126 43.4647 48.2719 42.7083L48.3799 41.3333H50.1049C51.7914 41.3333 51.8297 41.3418 51.8297 41.715ZM55.9951 42.6667V44H60.2513H64.5076L64.9165 44.4092C65.3105 44.8032 65.3255 44.901 65.3255 47.0758V49.3333H66.6584H67.9914V47.061C67.9914 44.358 67.8318 43.7292 66.8749 42.6647C65.7462 41.409 65.3727 41.3333 60.2974 41.3333H55.9951V42.6667ZM38.6671 49.5833C38.6671 50.6375 38.6034 51.5 38.5258 51.5C38.1009 51.5 36.0012 48.8882 36.0012 48.3595C36.0012 48.196 37.6406 47.712 38.2922 47.6832C38.6602 47.667 38.6671 47.7018 38.6671 49.5833ZM42.9231 47.937C43.5148 48.0855 43.9988 48.2768 43.9988 48.3618C43.9988 48.8885 41.8977 51.5 41.4742 51.5C41.3966 51.5 41.3329 50.6375 41.3329 49.5833C41.3329 47.3967 41.2235 47.5098 42.9231 47.937ZM33.7543 50.1365C33.613 50.278 33.1704 49.7988 33.2794 49.6225C33.3449 49.5165 33.4725 49.5675 33.609 49.7543C33.7316 49.9218 33.7969 50.0938 33.7543 50.1365ZM46.6523 49.9315C46.3572 50.2872 46.1281 50.2132 46.3339 49.8287C46.4334 49.6428 46.5896 49.537 46.6811 49.5935C46.7884 49.6598 46.7781 49.7798 46.6523 49.9315ZM55.9951 52.2178C55.1773 52.4757 53.7826 53.9203 53.5318 54.7693C53.3864 55.2617 53.3292 57.492 53.3292 62.6667C53.3292 67.8413 53.3864 70.0717 53.5318 70.564C53.8022 71.4795 55.1825 72.8602 56.0977 73.1307C56.5192 73.2552 57.8847 73.3333 59.6414 73.3333H62.4994L62.4111 73.7083C62.0539 75.2255 61.4934 78.3108 61.4934 78.7608C61.4934 79.1547 61.617 79.4065 61.9324 79.6545C62.3508 79.9838 62.5732 80 66.6884 80H71.0056L71.4145 79.5908C71.6612 79.3442 71.8235 78.9895 71.8235 78.6972C71.8235 78.297 71.242 75.1358 70.9058 73.7083L70.8175 73.3333H73.6754C75.4322 73.3333 76.7977 73.2552 77.2192 73.1307C78.1344 72.8602 79.5146 71.4795 79.7851 70.564C80.0716 69.5937 80.0716 55.7397 79.7851 54.7693C79.5146 53.8538 78.1344 52.4732 77.2192 52.2027C76.2975 51.9303 56.8631 51.9442 55.9951 52.2178ZM76.9128 55.0758L77.3218 55.4848V60.4092V65.3333H66.6584H55.9951V60.4092V55.4848L56.4041 55.0758L56.813 54.6667H66.6584H76.5039L76.9128 55.0758ZM3.08722 56.4092L2.67817 56.8182V64.4092V72H1.75429C0.99536 72 0.7571 72.0732 0.42137 72.4092C0.196439 72.6342 0.0141623 72.9903 0.0164949 73.2008C0.0186609 73.4112 0.352225 74.8958 0.7576 76.4998C1.31859 78.7192 1.58085 79.4862 1.85493 79.7082C2.19232 79.9813 3.18085 80 17.3403 80C31.4998 80 32.4883 79.9813 32.8257 79.7082C33.0998 79.4862 33.362 78.7192 33.923 76.4998C34.3284 74.8958 34.662 73.4112 34.6641 73.2008C34.6665 72.9903 34.4842 72.6342 34.2593 72.4092C33.9235 72.0732 33.6853 72 32.9263 72H32.0025V64.4092V56.8182L31.5934 56.4092L31.1846 56H17.3403H3.49609L3.08722 56.4092ZM29.3366 65.3333V72H24.414H19.4912L19.0823 72.4092C18.8574 72.6342 18.6732 72.9342 18.6732 73.0758C18.6732 73.2867 18.4315 73.3333 17.3403 73.3333C16.2492 73.3333 16.0074 73.2867 16.0074 73.0758C16.0074 72.9342 15.8233 72.6342 15.5984 72.4092L15.1895 72H10.2667H5.34402V65.3333V58.6667H17.3403H29.3366V65.3333ZM77.3218 68.9242C77.3218 69.6833 77.2487 69.9217 76.9128 70.2575L76.5039 70.6667H66.6584H56.813L56.4041 70.2575C56.0682 69.9217 55.9951 69.6833 55.9951 68.9242V68H66.6584H77.3218V68.9242ZM68.3286 74.2917C68.4356 74.8188 68.6192 75.7188 68.7366 76.2917L68.9504 77.3333H66.6584H64.3665L64.5803 76.2917C64.6977 75.7188 64.8813 74.8188 64.9883 74.2917L65.1826 73.3333H66.6584H68.1343L68.3286 74.2917ZM13.3416 74.9242C13.3416 75.0658 13.5257 75.3658 13.7506 75.5908C14.1561 75.9967 14.1853 76 17.3403 76C20.4953 76 20.5245 75.9967 20.93 75.5908C21.155 75.3658 21.3391 75.0658 21.3391 74.9242C21.3391 74.6975 21.9547 74.6667 26.485 74.6667H31.6311L31.2964 76L30.9616 77.3333H17.3403H3.71902L3.38429 76L3.04956 74.6667H8.19564C12.7259 74.6667 13.3416 74.6975 13.3416 74.9242Z" fill="black"/>
</svg>
