<svg width="80" height="80" viewBox="0 0 80 80" fill="none" xmlns="http://www.w3.org/2000/svg">
<path fill-rule="evenodd" clip-rule="evenodd" d="M6.25652 0.262345C3.49943 0.906766 1.06623 3.17201 0.237895 5.86525C0.0331984 6.53094 0 9.99026 0 30.6757C0 54.2112 0.00663963 54.7334 0.321457 55.7177C0.735061 57.0106 1.65619 58.3782 2.75595 59.3321C3.68696 60.1395 4.39028 60.5337 5.82219 61.0507C6.68502 61.362 7.08745 61.3772 15.9866 61.4335L25.2525 61.4921L22.5043 66.7976L19.7561 72.1031L15.7485 72.104C13.4876 72.1045 11.4781 72.1753 11.1377 72.2666C10.2091 72.5156 9.21749 73.3394 8.69587 74.2951C8.27822 75.0604 8.23563 75.2697 8.29846 76.247C8.33717 76.849 8.49117 77.5692 8.64065 77.8473C9.01263 78.5395 9.86332 79.3332 10.623 79.6971C11.241 79.9933 11.8936 80 40 80C68.1064 80 68.759 79.9933 69.377 79.6971C70.1367 79.3332 70.9874 78.5395 71.3594 77.8473C71.5088 77.5692 71.6628 76.849 71.7015 76.247C71.7644 75.2697 71.7218 75.0604 71.3041 74.2951C70.7825 73.3394 69.7909 72.5156 68.8624 72.2666C68.5219 72.1753 66.5124 72.1045 64.2515 72.104L60.2439 72.1031L57.4957 66.7976L54.7475 61.4921L64.0134 61.4335C72.9126 61.3772 73.315 61.362 74.1778 61.0507C75.6097 60.5337 76.313 60.1395 77.244 59.3321C78.3438 58.3782 79.2649 57.0106 79.6785 55.7177C79.9934 54.7334 80 54.2112 80 30.6757C80 9.99026 79.9668 6.53094 79.7621 5.86525C78.9221 3.1337 76.4939 0.898009 73.6692 0.255152C72.1542 -0.089654 7.73328 -0.0827735 6.25652 0.262345ZM74.0321 3.16497C75.1464 3.66944 76.1135 4.57516 76.7151 5.6776L77.166 6.50389L77.2087 27.2626L77.2517 48.0214H54.7932C42.441 48.0214 32.365 47.9937 32.4021 47.9598C32.4392 47.9258 33.4023 47.528 34.5422 47.0758C35.8598 46.5529 36.7299 46.112 36.9309 45.8653C37.2183 45.5125 37.247 45.2169 37.247 42.6141C37.247 39.8655 37.2324 39.7352 36.8826 39.3585C36.6538 39.1121 35.6444 38.6348 34.17 38.0758C32.8785 37.5862 31.756 37.1286 31.6753 37.0592C31.5947 36.9896 31.3362 36.3491 31.1011 35.6357L30.6734 34.3386L32.0959 32.1493C33.1798 30.4813 33.5189 29.8294 33.5203 29.4106C33.5219 28.9655 33.2447 28.4903 32.0601 26.9086C30.4233 24.7229 29.7985 24.0943 29.2687 24.0998C29.0696 24.1018 27.7804 24.3791 26.4036 24.7159L23.9004 25.3281L22.8496 24.5949C22.2716 24.1914 21.7281 23.815 21.6419 23.7583C21.5558 23.7014 21.3934 22.4416 21.2811 20.9587C21.0933 18.4792 21.0465 18.2339 20.7004 17.9075C20.2784 17.5097 15.5854 15.9646 14.7989 15.9646C14.2585 15.9646 13.8298 16.3546 11.7479 18.7402L10.4855 20.1867H8.98947H7.49344L5.75984 18.1663C3.98364 16.0967 3.82624 15.9646 3.13587 15.9646H2.73555L2.78478 11.2342L2.83401 6.50389L3.28486 5.6776C4.07449 4.23035 5.41166 3.18749 6.92049 2.8419C7.2698 2.76184 21.5391 2.71258 40.3239 2.7265L73.1174 2.75089L74.0321 3.16497ZM23.5033 10.1909C22.7598 12.3504 22.2141 14.1723 22.2904 14.2396C22.49 14.4158 24.6215 15.0724 24.7117 14.9855C24.7532 14.9453 25.3951 13.1547 26.1381 11.0062L27.4889 7.09983L26.3355 6.74204C25.7012 6.54517 25.1085 6.35721 25.0186 6.32437C24.9286 6.29153 24.2468 8.03151 23.5033 10.1909ZM41.4575 8.07389V9.40948L42.7935 9.36398L44.1296 9.31863L44.1765 8.02854L44.2236 6.73845H42.8405H41.4575V8.07389ZM46.9636 8.06763V9.39682H60.081H73.1984V8.06763V6.73845H60.081H46.9636V8.06763ZM18.0883 8.59946C16.0005 10.6769 16.0005 10.6519 18.0912 12.7068L19.6643 14.2527L20.6382 13.3123L21.6123 12.3717L20.7307 11.5098L19.8491 10.6478L20.7307 9.78588L21.6123 8.92394L20.6353 7.98053L19.6583 7.03712L18.0883 8.59946ZM28.9122 7.98413L27.9457 8.92722L28.8257 9.7876L29.7056 10.6478L28.824 11.5098L27.9423 12.3717L28.9581 13.3472L29.9736 14.3226L31.5049 12.8077C32.8828 11.4447 33.0364 11.2344 33.0364 10.7116C33.0364 10.1864 32.8845 9.98182 31.4575 8.5857L29.8785 7.04088L28.9122 7.98413ZM35.7895 13.3844V14.7136H54.4939H73.1984V13.3844V12.0552H54.4939H35.7895V13.3844ZM35.7895 18.7011V20.0303H47.5304H59.2713V18.7011V17.3719H47.5304H35.7895V18.7011ZM17.0445 19.3377C18.4133 19.767 18.4617 19.7982 18.4641 20.258C18.4683 21.0508 18.7765 24.3982 18.8829 24.8075C18.9725 25.1524 20.388 26.2668 22.4645 27.6275C23.2316 28.1302 23.7715 28.1067 26.3968 27.4572L28.583 26.9163L28.9347 27.331C29.1283 27.559 29.5721 28.1383 29.9211 28.6182L30.5556 29.491L29.205 31.5906C28.2769 33.0332 27.8542 33.8405 27.8542 34.1706C27.8542 34.4348 28.1885 35.6194 28.5971 36.803C29.1423 38.3832 29.4329 39.0057 29.6902 39.1457C29.8828 39.2506 31.0243 39.7248 32.2267 40.1995L34.413 41.0627L34.4589 42.6472L34.5048 44.2318L32.1917 45.1233C30.9195 45.6137 29.7226 46.1546 29.532 46.3255C29.3414 46.4964 29.0951 46.9479 28.9846 47.3288L28.7838 48.0214H24.8372C22.6667 48.0214 20.8907 47.9687 20.8909 47.9041C20.8909 47.8395 21.0434 47.3998 21.2298 46.9267C23.5938 40.9282 20.5454 33.9403 14.3812 31.2278C11.0698 29.7706 6.91142 29.7574 3.7247 31.194L2.83401 31.5955L2.79028 28.4817C2.76615 26.7691 2.76615 23.9232 2.79028 22.1575L2.83401 18.9471L4.12955 20.4502C4.84211 21.2769 5.63109 22.1539 5.88292 22.3992L6.34073 22.845H8.99498H11.6491L12.1809 22.3262C12.4734 22.0408 13.2955 21.1273 14.0081 20.2961C14.7206 19.465 15.3765 18.8093 15.4656 18.8392C15.5547 18.8689 16.2653 19.0933 17.0445 19.3377ZM35.7895 24.0179V25.347H47.5304H59.2713V24.0179V22.6887H47.5304H35.7895V24.0179ZM62.1475 34.6842L62.1053 41.3755H60.7287H59.3522L59.3085 38.0525L59.2648 34.7295H57.8915H56.5182V38.0978V41.4663L55.1822 41.4208L53.8461 41.3755L53.8029 37.3425L53.7597 33.3096L52.4264 33.355L51.0931 33.4003L51.0499 37.4332L51.0066 41.4661L49.6734 41.4208L48.3401 41.3755L48.2957 38.678L48.2515 35.9805H46.8787H45.5061V38.7171V41.4536H44.1296H42.753V42.7836V44.1136L57.9352 44.0737L73.1174 44.0338L73.1644 42.7437L73.2115 41.4536H71.8283H70.4453V36.0587V30.6638H69.0709H67.6965L67.6539 36.0196L67.6113 41.3755L66.2771 41.4208L64.9428 41.4663L64.9006 34.7749L64.8583 28.0836L63.524 28.0382L62.1898 27.9927L62.1475 34.6842ZM11.9838 33.1981C13.5551 33.658 14.976 34.4884 16.1751 35.6478C19.3145 38.6833 20.1075 43.0365 18.2227 46.8877L17.6679 48.0214H10.2104H2.75304V41.3889V34.7564L3.58024 34.2649C6.09765 32.7692 9.18089 32.3778 11.9838 33.1981ZM77.247 52.5503C77.247 54.085 77.1841 54.5833 76.8967 55.3248C76.4183 56.5594 75.0769 57.8547 73.7984 58.3166L72.8624 58.6549H40H7.13765L6.20162 58.3166C4.92308 57.8547 3.5817 56.5594 3.10332 55.3248C2.81587 54.5833 2.75304 54.085 2.75304 52.5503V50.6797H40H77.247V52.5503ZM38.6565 53.4366C38.5938 53.4971 38.5425 54.0978 38.5425 54.7716V55.9965H40.0065H41.4706L41.4235 54.7064L41.3765 53.4163L40.0735 53.3714C39.3568 53.3467 38.7192 53.376 38.6565 53.4366ZM54.3315 66.629C55.8015 69.4668 57.004 71.8593 57.004 71.9458C57.004 72.0502 51.2944 72.1031 40 72.1031C28.7056 72.1031 22.996 72.0502 22.996 71.9458C22.996 71.8593 24.1985 69.4668 25.6685 66.629L28.3411 61.4696H40H51.6589L54.3315 66.629ZM68.561 75.1736C69.2515 75.8406 69.0989 76.7907 68.2293 77.238C67.7195 77.5 12.2805 77.5 11.7707 77.238C10.9011 76.7907 10.7485 75.8406 11.439 75.1736L11.8661 74.7615H40H68.1339L68.561 75.1736Z" fill="black"/>
</svg>
