<svg width="650" height="650" viewBox="0 0 650 650" fill="none" xmlns="http://www.w3.org/2000/svg">
<path fill-rule="evenodd" clip-rule="evenodd" d="M294.827 0.968191C228.331 7.38502 167.483 32.8086 115.999 75.6851C100.311 88.7501 79.9286 110.09 66.6614 127.341C33.1036 170.975 10.0644 226.296 2.88004 280.487C-0.0464845 302.563 -0.854183 333.144 0.972983 352.719C7.35452 421.099 32.2911 481.345 76.1479 534.34C83.908 543.717 106.516 566.245 116.346 574.396C161.607 611.925 214.993 636.511 271.214 645.718C301.743 650.717 338.133 651.384 367.399 647.481C453.387 636.015 529.784 591.989 583.016 523.228C614.839 482.121 637.368 430.567 645.842 379.458C649.303 358.589 649.983 349.729 650 325.285C650.014 302.843 649.572 295.491 647.218 279.098C637.125 208.808 605.073 144.769 554.925 94.696C500.182 40.0345 428.988 7.11764 351.426 0.607738C340.015 -0.350029 306.258 -0.135429 294.827 0.968191ZM340.127 30.4687C405.864 34.1143 465.324 57.6209 515.386 99.7557C527.8 110.204 553.585 136.695 551.89 137.261C551.564 137.369 547.109 136.691 541.991 135.753C522.855 132.245 503.159 129.988 485.654 129.294L474.735 128.862L473.633 125.541C471.329 118.605 464.718 110.413 457.599 105.671C449.054 99.9815 436.141 97.8353 426.166 100.448L421.041 101.791L418.527 99.3147C392.037 73.2237 367.729 54.5163 338.231 37.5189C327.163 31.1417 325.215 29.8297 326.772 29.8033C327.345 29.7936 333.355 30.0929 340.127 30.4687ZM301.991 38.4301C338.548 56.4833 369.947 77.9994 397.447 103.84L405.965 111.845L403.609 115.079C400.388 119.5 397.797 124.815 396.572 129.519C396.008 131.684 395.374 133.628 395.162 133.84C394.951 134.051 389.054 135.372 382.059 136.775C366.903 139.815 351.998 143.787 336.842 148.828C327.734 151.856 325.629 152.347 325.163 151.544C322.679 147.258 317.321 141.402 313.153 138.418C299.229 128.448 280.43 128.314 266.515 138.088C263.798 139.996 260.599 142.771 259.407 144.255L257.239 146.953L246.08 142.526C209.993 128.21 167.792 118.108 128.544 114.394L119.56 113.544L124.377 109.041C165.497 70.6046 216.67 44.9991 272.951 34.6998C289.321 31.7036 288.035 31.5382 301.991 38.4301ZM125.722 132.262C164.321 135.68 203.912 145.134 240.439 159.655L249.338 163.193L249.378 170.965C249.411 177.39 249.719 179.604 251.154 183.737L252.889 188.736L245.093 193.995C200.915 223.795 163.306 262.728 135.494 307.451C130.143 316.055 129.113 317.342 127.862 316.981C127.067 316.751 123.76 316.383 120.513 316.162C113.782 315.704 107.539 316.88 100.914 319.853C97.3336 321.46 96.7599 321.549 96.012 320.617C78.1147 298.3 58.2526 268.028 47.091 246.055L43.1839 238.363L45.4701 231.47C49.628 218.933 53.8622 208.77 60.784 194.711C71.0262 173.911 81.4412 157.602 96.2773 139.131L102.986 130.779L108.451 130.997C111.456 131.118 119.228 131.687 125.722 132.262ZM499.697 148.209C521.083 150.084 545.315 154.059 562.894 158.574C570.599 160.553 570.043 160.017 577.848 173C605.552 219.082 619.862 270.938 619.834 325.148C619.823 347.099 617.714 366.903 613.2 387.446C609.057 406.3 609.951 404.467 602.797 408.767C586.427 418.604 567.483 428.223 550.047 435.549C540.877 439.403 520.349 447.176 519.344 447.176C519.04 447.176 518.014 445.691 517.062 443.877C514.675 439.329 506.428 431.261 501.608 428.759C499.413 427.619 497.618 426.374 497.621 425.992C497.623 425.61 498.534 420.61 499.645 414.88C505.217 386.145 507.322 365.481 507.817 334.661C508.397 298.576 506.335 276.439 499.643 246.921C493.763 220.984 482.914 191.798 471.39 170.916L467.841 164.484L470.19 160.917C471.482 158.955 473.252 155.052 474.124 152.243L475.709 147.136L481.627 147.14C484.881 147.142 493.013 147.623 499.697 148.209ZM399.399 157.38C402.911 164.706 410.415 172.262 417.768 175.878C427.659 180.742 440.064 181.426 449.961 177.654C454.301 176 453.678 175.351 459.819 187.921C487.754 245.099 496.495 311.374 486.089 387.098C484.588 398.02 481.573 414.786 480.999 415.41C480.73 415.702 479.945 413.514 479.253 410.549C469.459 368.538 451.107 325.786 427.149 289.169C406.746 257.986 379.533 227.537 351.426 204.441C344.525 198.769 330.33 187.924 328.38 186.833C327.486 186.333 327.491 185.8 328.427 182.499C329.013 180.43 329.701 176.799 329.955 174.431L330.416 170.125L336.29 167.999C350.719 162.778 367.318 158.185 385.456 154.395C391.567 153.118 396.624 152.056 396.692 152.036C396.761 152.015 397.979 154.419 399.399 157.38ZM325.643 207.104C345.448 221.833 370.842 245.802 386.095 264.165C422.886 308.456 446.884 355.632 460.819 411.06C462.308 416.981 463.731 423.127 463.981 424.718C464.428 427.552 464.375 427.65 461.406 429.508C455.917 432.942 451.869 436.781 448.768 441.491C444.976 447.249 442.935 452.688 441.978 459.575C441.573 462.497 441.169 464.959 441.08 465.049C440.992 465.139 435.785 465.742 429.508 466.391C415.529 467.836 375.975 468.056 363.232 466.76C318.253 462.183 282.831 453.179 245.172 436.747C216.197 424.105 185.223 405.232 160.836 385.362C156.851 382.115 153.31 379.267 152.966 379.034C152.623 378.801 153.308 376.694 154.49 374.353C158.855 365.705 159.879 355.176 157.27 345.762C155.445 339.176 153.015 334.7 148.688 329.957L145.264 326.205L146.605 323.687C149.048 319.098 163.125 298.277 169.393 289.981C188.776 264.328 215.24 238.096 241.005 219.001C250.028 212.313 263.263 203.393 264.163 203.393C264.511 203.393 266.58 204.468 268.761 205.781C282.463 214.032 299.3 213.52 312.389 204.452C314.761 202.809 316.962 201.43 317.278 201.387C317.594 201.344 321.358 203.917 325.643 207.104ZM42.7561 275.278C53.392 293.262 66.8253 312.851 78.5786 327.514C81.3988 331.033 83.7059 334.211 83.7059 334.576C83.7059 334.942 82.9288 336.789 81.9787 338.681C78.9953 344.621 77.9716 350.066 78.3043 358.228C78.6355 366.373 80.0266 371.199 83.8712 377.548C85.9796 381.031 91.2972 386.839 94.4418 389.094C95.771 390.047 95.7092 390.365 91.7966 402.637C84.8921 424.297 78.9592 449.558 75.6673 471.311C75.0173 475.609 74.2909 479.125 74.0527 479.125C73.5631 479.125 64.2786 462.599 60.5271 455.051C33.6224 400.919 24.1893 335.999 34.455 275.625C35.8169 267.619 36.4364 264.906 36.8066 265.329C36.9163 265.453 39.5928 269.93 42.7561 275.278ZM147.078 397.403C168.879 415.141 190.948 429.691 215.205 442.32C282.467 477.337 361.307 492.024 436.994 483.636C441.849 483.098 445.868 482.722 445.928 482.801C445.987 482.88 446.906 484.341 447.97 486.049C449.034 487.756 451.427 490.764 453.289 492.731L456.672 496.309L452.712 505.601C443.108 528.132 425.764 559.8 411.676 580.527C404.016 591.797 393.035 606.412 389.186 610.461L386.15 613.656L377.122 615.177C358.95 618.24 352.225 618.829 331.091 619.212C299.459 619.785 277.906 617.349 250.033 610.049C192.383 594.952 138.656 561.042 100.333 515.566C90.1298 503.457 89.9124 503.088 90.3576 498.651C93.7251 465.112 101.685 428.151 111.684 399.627L112.647 396.876L118.143 396.786C124.448 396.684 129.774 395.567 134.75 393.305C136.66 392.437 138.613 391.701 139.092 391.67C139.57 391.638 143.163 394.219 147.078 397.403ZM599.308 433.459C598.213 436.98 592.179 450.217 587.491 459.383C565.88 501.641 533.687 538.473 493.515 566.899C489.924 569.441 486.851 571.384 486.686 571.219C486.521 571.054 487.028 565.189 487.814 558.186C489.194 545.876 490.54 524.958 490.86 510.821L491.016 503.97L495.345 502.404C509.978 497.111 519.542 485.413 522.222 469.53L522.962 465.143L535.81 460.456C553.683 453.936 567.066 448.115 584.076 439.465C592.097 435.385 598.915 432.013 599.227 431.972C599.54 431.93 599.576 432.6 599.308 433.459ZM472.397 520.97C472.159 529.469 471.486 541.424 470.903 547.536C469.508 562.158 466.433 582.715 465.466 583.889C462.872 587.038 418.73 606.048 417.311 604.629C417.077 604.396 417.818 603.019 418.955 601.569C422.32 597.279 434.505 578.768 440.121 569.414C450.392 552.311 462.802 528.078 469.555 511.941C471.033 508.408 472.376 505.517 472.537 505.517C472.699 505.517 472.636 512.471 472.397 520.97Z" fill="white" fill-opacity="0.2"/>
</svg>
