<svg width="1600" height="1964" viewBox="0 0 1600 1964" fill="none" xmlns="http://www.w3.org/2000/svg">
<g clip-path="url(#clip0_335_136)">
<g filter="url(#filter0_f_335_136)">
<path d="M94.4698 1027.17C68.825 1059.29 21.9903 1064.55 -10.1383 1038.91C-42.2669 1013.26 -47.523 966.426 -21.8781 934.297C3.76675 902.168 50.6014 896.912 82.73 922.557C114.859 948.202 120.115 995.037 94.4698 1027.17Z" fill="#196BB1"/>
<path d="M353.595 126.999C327.95 159.128 281.115 164.384 248.987 138.739C216.858 113.094 211.602 66.2596 237.247 34.131C262.892 2.00243 309.726 -3.25368 341.855 22.3912C373.984 48.036 379.24 94.8707 353.595 126.999Z" fill="#196BB1"/>
<path d="M1266 2560.59C1240.36 2592.72 1193.52 2597.97 1161.39 2572.33C1129.26 2546.68 1124.01 2499.85 1149.65 2467.72C1175.3 2435.59 1222.13 2430.33 1254.26 2455.98C1286.39 2481.62 1291.65 2528.46 1266 2560.59Z" fill="#196BB1"/>
<path d="M-30.9217 1664.33C-56.5666 1696.46 -103.401 1701.71 -135.53 1676.07C-167.658 1650.42 -172.915 1603.59 -147.27 1571.46C-121.625 1539.33 -74.7902 1534.08 -42.6616 1559.72C-10.533 1585.37 -5.27686 1632.2 -30.9217 1664.33Z" fill="#196BB1"/>
<path d="M-196.461 366.942C-216.072 391.511 -251.886 395.531 -276.455 375.92C-301.024 356.309 -305.044 320.494 -285.433 295.925C-265.822 271.357 -230.007 267.337 -205.438 286.948C-180.87 306.559 -176.85 342.373 -196.461 366.942Z" fill="#196BB1"/>
<path d="M603.659 933.886C584.048 958.455 548.234 962.474 523.665 942.863C499.096 923.253 495.076 887.438 514.687 862.869C534.298 838.3 570.113 834.281 594.682 853.891C619.251 873.502 623.27 909.317 603.659 933.886Z" fill="#196BB1"/>
<path d="M1660.46 1855.84C1640.85 1880.41 1605.03 1884.43 1580.46 1864.82C1555.9 1845.21 1551.88 1809.39 1571.49 1784.83C1591.1 1760.26 1626.91 1756.24 1651.48 1775.85C1676.05 1795.46 1680.07 1831.27 1660.46 1855.84Z" fill="#196BB1"/>
<path d="M480.984 2050.52C461.374 2075.09 425.559 2079.11 400.99 2059.5C376.421 2039.89 372.402 2004.08 392.012 1979.51C411.623 1954.94 447.438 1950.92 472.007 1970.53C496.576 1990.14 500.595 2025.96 480.984 2050.52Z" fill="#196BB1"/>
<path d="M462.238 1417.07C442.628 1441.64 406.813 1445.66 382.244 1426.05C357.675 1406.44 353.656 1370.62 373.266 1346.05C392.877 1321.48 428.692 1317.46 453.261 1337.07C477.83 1356.69 481.849 1392.5 462.238 1417.07Z" fill="#196BB1"/>
<path d="M1824.28 2582.67C1804.67 2607.24 1768.85 2611.26 1744.28 2591.65C1719.72 2572.04 1715.7 2536.23 1735.31 2511.66C1754.92 2487.09 1790.73 2483.07 1815.3 2502.68C1839.87 2522.29 1843.89 2558.11 1824.28 2582.67Z" fill="#196BB1"/>
<path d="M1092.04 2065.44C1072.43 2090.01 1036.62 2094.03 1012.05 2074.42C987.481 2054.81 983.462 2018.99 1003.07 1994.42C1022.68 1969.85 1058.5 1965.84 1083.07 1985.45C1107.64 2005.06 1111.66 2040.87 1092.04 2065.44Z" fill="#196BB1"/>
<path d="M266.561 572.934C252.985 589.944 228.19 592.726 211.181 579.149C194.171 565.573 191.389 540.778 204.965 523.769C218.542 506.759 243.337 503.977 260.346 517.553C277.355 531.13 280.138 555.925 266.561 572.934Z" fill="#196BB1"/>
<path d="M603.206 1762.64C589.629 1779.65 564.834 1782.44 547.825 1768.86C530.816 1755.28 528.033 1730.49 541.61 1713.48C555.187 1696.47 579.981 1693.69 596.991 1707.26C614 1720.84 616.783 1745.63 603.206 1762.64Z" fill="#196BB1"/>
<path d="M1049.01 1237.82C1035.43 1254.83 1010.64 1257.61 993.63 1244.03C976.621 1230.46 973.838 1205.66 987.415 1188.65C1000.99 1171.64 1025.79 1168.86 1042.8 1182.44C1059.8 1196.01 1062.59 1220.81 1049.01 1237.82Z" fill="#196BB1"/>
<path d="M115.851 1317.62C102.275 1334.63 77.4799 1337.41 60.4707 1323.83C43.4614 1310.25 40.6788 1285.46 54.2555 1268.45C67.8322 1251.44 92.627 1248.66 109.636 1262.24C126.645 1275.81 129.428 1300.61 115.851 1317.62Z" fill="#196BB1"/>
<path d="M797.308 1426.82C783.732 1443.83 758.937 1446.61 741.928 1433.03C724.918 1419.46 722.136 1394.66 735.713 1377.65C749.289 1360.64 774.084 1357.86 791.093 1371.44C808.103 1385.01 810.885 1409.81 797.308 1426.82Z" fill="#196BB1"/>
<path d="M-379.579 989.391C-393.156 1006.4 -417.951 1009.18 -434.96 995.607C-451.969 982.03 -454.752 957.235 -441.175 940.226C-427.599 923.217 -402.804 920.434 -385.794 934.011C-368.785 947.587 -366.003 972.382 -379.579 989.391Z" fill="#196BB1"/>
<path d="M1461.08 2122.47C1447.51 2139.48 1422.71 2142.26 1405.7 2128.68C1388.69 2115.11 1385.91 2090.31 1399.49 2073.3C1413.06 2056.29 1437.86 2053.51 1454.87 2067.09C1471.88 2080.67 1474.66 2105.46 1461.08 2122.47Z" fill="#196BB1"/>
<path d="M-236.859 331.843L303.615 84.2595M557.543 899.136L302.003 87.8864M-234.338 331.853L233.894 550.973M-232.73 335.41L-414.48 958.96M34.8166 979.305L235.387 556.771M47.6969 995.131L563.454 904.848M50.3706 996L421.138 1379.34M51.1969 997.764L82.4235 1287.11M418.181 1384.32L78.6406 1290.33M-90.4917 1616.31L86.3931 1293.64M-89.1017 1615.02L410.094 1388.27M-86.0525 1615.36L439.542 2012.48M1048.72 2032.79L437.66 2017.87M1207.43 2516.54L436.098 2017.39M1206.21 2514.96L1045.94 2030.73M1209.23 2511.02L1781.19 2544.03M1427.3 2104.08L1783.36 2545.14M1422.46 2104.3L1603.78 1832.22M1427.61 2107.37L1206.24 2522.27M1424.39 2108.91L1053.69 2037.11M569.491 1733.78L435.769 2007.99M1023.23 1208.74L568.847 902.076M1018.34 1209.71L1046.31 2025.31M1018.07 1208.57L1427.69 2104.71M1017.48 1207.71L1609.76 1810.44M1778.1 2547.67L1618.38 1824.12M1017.12 1212.22L759.406 1403.15M420.484 1375.07L567.659 898.707M419.959 1385.81L764.612 1403.21M422.6 1387.71L569.069 1760.08M762.945 1404.44L571.568 1731.24M1046.05 2031.01L767.739 1405.51M1047.22 2032.35L572.07 1740.48M561.499 896.18L240.284 554.635M37.4199 983.59L-409.254 967.671M-90.5529 1619.08L-411.837 965.993M94.4698 1027.17C68.825 1059.29 21.9903 1064.55 -10.1383 1038.91C-42.2669 1013.26 -47.523 966.426 -21.8781 934.297C3.76675 902.168 50.6014 896.912 82.73 922.557C114.859 948.202 120.115 995.037 94.4698 1027.17ZM353.595 126.999C327.95 159.128 281.115 164.384 248.987 138.739C216.858 113.094 211.602 66.2596 237.247 34.131C262.892 2.00243 309.726 -3.25368 341.855 22.3912C373.984 48.036 379.24 94.8707 353.595 126.999ZM1266 2560.59C1240.36 2592.72 1193.52 2597.97 1161.39 2572.33C1129.26 2546.68 1124.01 2499.85 1149.65 2467.72C1175.3 2435.59 1222.13 2430.33 1254.26 2455.98C1286.39 2481.62 1291.65 2528.46 1266 2560.59ZM-30.9217 1664.33C-56.5666 1696.46 -103.401 1701.71 -135.53 1676.07C-167.658 1650.42 -172.915 1603.59 -147.27 1571.46C-121.625 1539.33 -74.7902 1534.08 -42.6616 1559.72C-10.533 1585.37 -5.27686 1632.2 -30.9217 1664.33ZM-196.461 366.942C-216.072 391.511 -251.886 395.531 -276.455 375.92C-301.024 356.309 -305.044 320.494 -285.433 295.925C-265.822 271.357 -230.007 267.337 -205.438 286.948C-180.87 306.559 -176.85 342.373 -196.461 366.942ZM603.659 933.886C584.048 958.455 548.234 962.474 523.665 942.863C499.096 923.253 495.076 887.438 514.687 862.869C534.298 838.3 570.113 834.281 594.682 853.891C619.251 873.502 623.27 909.317 603.659 933.886ZM1660.46 1855.84C1640.85 1880.41 1605.03 1884.43 1580.46 1864.82C1555.9 1845.21 1551.88 1809.39 1571.49 1784.83C1591.1 1760.26 1626.91 1756.24 1651.48 1775.85C1676.05 1795.46 1680.07 1831.27 1660.46 1855.84ZM480.984 2050.52C461.374 2075.09 425.559 2079.11 400.99 2059.5C376.421 2039.89 372.402 2004.08 392.012 1979.51C411.623 1954.94 447.438 1950.92 472.007 1970.53C496.576 1990.14 500.595 2025.96 480.984 2050.52ZM462.238 1417.07C442.628 1441.64 406.813 1445.66 382.244 1426.05C357.675 1406.44 353.656 1370.62 373.266 1346.05C392.877 1321.48 428.692 1317.46 453.261 1337.07C477.83 1356.69 481.849 1392.5 462.238 1417.07ZM1824.28 2582.67C1804.67 2607.24 1768.85 2611.26 1744.28 2591.65C1719.72 2572.04 1715.7 2536.23 1735.31 2511.66C1754.92 2487.09 1790.73 2483.07 1815.3 2502.68C1839.87 2522.29 1843.89 2558.11 1824.28 2582.67ZM1092.04 2065.44C1072.43 2090.01 1036.62 2094.03 1012.05 2074.42C987.481 2054.81 983.462 2018.99 1003.07 1994.42C1022.68 1969.85 1058.5 1965.84 1083.07 1985.45C1107.64 2005.06 1111.66 2040.87 1092.04 2065.44ZM266.561 572.934C252.985 589.944 228.19 592.726 211.181 579.149C194.171 565.573 191.389 540.778 204.965 523.769C218.542 506.759 243.337 503.977 260.346 517.553C277.355 531.13 280.138 555.925 266.561 572.934ZM603.206 1762.64C589.629 1779.65 564.834 1782.44 547.825 1768.86C530.816 1755.28 528.033 1730.49 541.61 1713.48C555.187 1696.47 579.981 1693.69 596.991 1707.26C614 1720.84 616.783 1745.63 603.206 1762.64ZM1049.01 1237.82C1035.43 1254.83 1010.64 1257.61 993.63 1244.03C976.621 1230.46 973.838 1205.66 987.415 1188.65C1000.99 1171.64 1025.79 1168.86 1042.8 1182.44C1059.8 1196.01 1062.59 1220.81 1049.01 1237.82ZM115.851 1317.62C102.275 1334.63 77.4799 1337.41 60.4707 1323.83C43.4614 1310.25 40.6788 1285.46 54.2555 1268.45C67.8322 1251.44 92.627 1248.66 109.636 1262.24C126.645 1275.81 129.428 1300.61 115.851 1317.62ZM797.308 1426.82C783.732 1443.83 758.937 1446.61 741.928 1433.03C724.918 1419.46 722.136 1394.66 735.713 1377.65C749.289 1360.64 774.084 1357.86 791.093 1371.44C808.103 1385.01 810.885 1409.81 797.308 1426.82ZM-379.579 989.391C-393.156 1006.4 -417.951 1009.18 -434.96 995.607C-451.969 982.03 -454.752 957.235 -441.175 940.226C-427.599 923.217 -402.804 920.434 -385.794 934.011C-368.785 947.587 -366.003 972.382 -379.579 989.391ZM1461.08 2122.47C1447.51 2139.48 1422.71 2142.26 1405.7 2128.68C1388.69 2115.11 1385.91 2090.31 1399.49 2073.3C1413.06 2056.29 1437.86 2053.51 1454.87 2067.09C1471.88 2080.67 1474.66 2105.46 1461.08 2122.47Z" stroke="#196BB1" stroke-width="6"/>
</g>
</g>
<defs>
<filter id="filter0_f_335_136" x="-460.785" y="-4.87109" width="2308.5" height="2619.96" filterUnits="userSpaceOnUse" color-interpolation-filters="sRGB">
<feFlood flood-opacity="0" result="BackgroundImageFix"/>
<feBlend mode="normal" in="SourceGraphic" in2="BackgroundImageFix" result="shape"/>
<feGaussianBlur stdDeviation="4" result="effect1_foregroundBlur_335_136"/>
</filter>
<clipPath id="clip0_335_136">
<rect width="1600" height="1964" fill="white"/>
</clipPath>
</defs>
</svg>
