<svg width="97" height="62" viewBox="0 0 97 62" fill="none" xmlns="http://www.w3.org/2000/svg">
<g clip-path="url(#clip0_236_683)">
<path d="M24.377 34.3224C23.782 33.2835 23.4398 32.0793 23.4398 30.7943C23.4398 30.1511 23.5267 29.5285 23.6866 28.9362C23.9826 29.5883 24.3491 30.2 24.7749 30.7626C24.655 30.9234 24.5815 31.1208 24.5815 31.3374C24.5815 31.6473 24.7297 31.9202 24.956 32.0966C24.6798 32.801 24.4823 33.5464 24.377 34.3224ZM25.2793 26.0292C26.5863 26.0357 27.8257 26.3377 28.9388 26.875C28.9162 26.957 28.9003 27.0418 28.9003 27.131C28.9003 27.2201 28.9162 27.3047 28.9387 27.3866C27.6805 28.1358 26.608 29.1753 25.8119 30.4177C25.7252 30.3918 25.6352 30.3736 25.5401 30.3736C25.3795 30.3736 25.2307 30.417 25.0978 30.4872C24.6016 29.8304 24.1891 29.1046 23.8814 28.323C24.1987 27.4668 24.6788 26.6918 25.2793 26.0292ZM29.8075 23.7444C30.6929 24.2672 31.4807 24.9357 32.1412 25.7148C32.0127 25.8624 31.9302 26.0486 31.9105 26.255C31.4801 26.3371 31.0615 26.4526 30.6541 26.5925C30.4819 26.336 30.1899 26.1673 29.8589 26.1673C29.5685 26.1673 29.3114 26.2998 29.1356 26.505C28.08 25.9906 26.9173 25.6741 25.6885 25.6123C26.7913 24.5802 28.2214 23.8969 29.8075 23.7444ZM36.0209 26.4104C35.3043 26.2164 34.5544 26.1069 33.7814 26.0937C33.6705 25.6848 33.3022 25.3826 32.8602 25.3823C32.7277 25.3823 32.6016 25.4093 32.4871 25.4582C31.9263 24.7931 31.277 24.2047 30.5555 23.7125C32.7726 23.7336 34.7432 24.7835 36.0209 26.4104ZM32.3082 37.2781C32.1845 37.4325 32.0578 37.5842 31.9245 37.7305C31.4607 37.827 30.9799 37.8785 30.487 37.8785C28.1116 37.8785 26.0124 36.6956 24.7357 34.8854C24.8096 33.9708 25.0181 33.0962 25.3365 32.2782C25.4023 32.2925 25.4702 32.3007 25.5401 32.3007C25.7321 32.3007 25.9099 32.2429 26.0597 32.1451C27.697 33.593 29.8284 34.4717 32.1627 34.4717C32.2115 34.4717 32.2597 34.4689 32.3082 34.468V34.04C32.2597 34.0409 32.2115 34.0439 32.1627 34.0439C29.9431 34.0439 27.9149 33.2128 26.3538 31.841C26.4441 31.6942 26.4987 31.5227 26.4987 31.3374C26.4987 31.0541 26.3751 30.8022 26.1815 30.6258C26.9387 29.4543 27.9509 28.4717 29.1402 27.7626C29.3159 27.9644 29.5711 28.0946 29.8589 28.0946C30.1046 28.0946 30.3264 27.9989 30.4958 27.846C32.0157 29.0267 33.1536 30.705 33.688 32.6486H34.1154C33.5704 30.5639 32.3643 28.763 30.7429 27.5033C30.7911 27.3888 30.8174 27.2631 30.8174 27.131C30.8174 27.0836 30.8105 27.0382 30.8038 26.9926C31.1803 26.8637 31.5674 26.758 31.9642 26.6806C32.1 27.0471 32.4483 27.3097 32.8602 27.3097C32.9781 27.3097 33.0897 27.2854 33.1939 27.2463C33.9008 28.5404 34.3043 30.0227 34.3043 31.5994C34.3043 31.955 34.2807 32.3047 34.2394 32.6486H34.6744C34.7126 32.3041 34.7335 31.9544 34.7335 31.5994C34.7335 29.9352 34.3049 28.371 33.5538 27.0085C33.6786 26.8763 33.7669 26.709 33.8011 26.5223C34.7159 26.5405 35.5968 26.7005 36.4243 26.98C37.1261 28.0814 37.5347 29.3895 37.5347 30.7943C37.5347 31.3216 37.4753 31.8346 37.3668 32.3294C37.1591 32.482 36.9445 32.6252 36.7241 32.7598C36.8339 32.8083 36.9345 32.8787 37.0239 32.9749C37.0424 32.9947 37.0606 33.0173 37.0788 33.0398C37.1173 33.0154 37.157 32.992 37.1955 32.9667C37.1785 33.02 37.1591 33.0724 37.1409 33.1251C37.1949 33.2043 37.2482 33.2957 37.3004 33.4026L37.5874 34.0098C37.8354 33.4581 38.0224 32.8723 38.1376 32.2608C38.1385 32.2605 38.1388 32.2602 38.1397 32.2596C38.1482 32.2136 38.1549 32.1667 38.1631 32.1204C38.1722 32.0646 38.1825 32.0098 38.1907 31.9537C38.2082 31.838 38.2231 31.7216 38.2352 31.6043H38.2349C38.2622 31.3377 38.2764 31.0678 38.2764 30.7943C38.2764 29.5909 38.0055 28.4513 37.5229 27.4326C37.5229 27.4326 37.5235 27.4328 37.5235 27.4329C37.522 27.4296 37.5201 27.4264 37.5186 27.423C37.4895 27.3617 37.458 27.3017 37.4277 27.2414C37.4034 27.1944 37.3804 27.1469 37.3555 27.1005C37.3219 27.0374 37.2867 26.9756 37.2513 26.9138C37.2322 26.8806 37.2149 26.8466 37.1952 26.8138C37.1949 26.8135 37.1943 26.8134 37.1937 26.8131C35.8375 24.5102 33.3428 22.9648 30.4873 22.9648C30.1207 22.9648 29.7605 22.9908 29.4075 23.04H29.4073C29.4073 23.04 29.4069 23.04 29.4068 23.04C29.287 23.0571 29.1683 23.0763 29.0504 23.0985C29.038 23.1007 29.0257 23.1033 29.0132 23.1059C28.9139 23.1252 28.8152 23.1463 28.7171 23.1693C28.7044 23.1722 28.6914 23.1744 28.6786 23.1774C28.6791 23.1778 28.6795 23.1778 28.6799 23.1782C27.0906 23.5581 25.6921 24.4291 24.6468 25.6208C24.6449 25.6208 24.643 25.6208 24.6412 25.6211C24.6088 25.6578 24.58 25.6978 24.5485 25.7352C24.4853 25.81 24.4238 25.886 24.3634 25.9631C24.3314 26.004 24.2965 26.0423 24.2654 26.0838C24.2673 26.0837 24.269 26.0836 24.2709 26.0834C23.9936 26.4526 23.7463 26.8459 23.5366 27.2619C23.5363 27.2611 23.536 27.2602 23.5358 27.2594C23.5245 27.2816 23.5144 27.3044 23.5034 27.3269C23.4785 27.3776 23.454 27.4289 23.4301 27.4802C23.4049 27.5344 23.3805 27.5892 23.3564 27.644C23.3328 27.6981 23.3091 27.7523 23.2867 27.8072C23.281 27.8209 23.2746 27.8342 23.2691 27.8479C23.2693 27.8487 23.2696 27.8492 23.2698 27.85C22.9024 28.7591 22.6982 29.7525 22.6982 30.7943C22.6982 32.5746 23.2902 34.2151 24.286 35.5303C24.286 35.5306 24.2858 35.5312 24.2858 35.5315C24.3159 35.5711 24.3476 35.6095 24.3783 35.6485C24.4156 35.6957 24.4519 35.7436 24.4901 35.7899C24.5621 35.8773 24.6358 35.9632 24.7115 36.0473V36.047C26.1368 37.6293 28.1964 38.6237 30.4873 38.6237C30.665 38.6237 30.8411 38.6161 31.016 38.6042C31.0151 38.6045 31.0148 38.6051 31.0142 38.6054C31.0342 38.6042 31.0542 38.6014 31.0745 38.5999C31.1579 38.5938 31.2406 38.5862 31.3234 38.5774C31.3616 38.5734 31.3997 38.5688 31.4379 38.5646C31.5213 38.5542 31.6041 38.5423 31.6865 38.5298C31.7092 38.5259 31.7326 38.5238 31.7553 38.5201C31.7559 38.5192 31.7562 38.5189 31.7568 38.5186C31.9433 38.4878 32.1266 38.4482 32.3082 38.4043V37.2781Z" fill="white"/>
<path d="M33.3342 48.1444V49.5168H33.9563C34.1863 49.5168 34.3643 49.4571 34.4901 49.338C34.6156 49.2192 34.6786 49.0495 34.6786 48.8292C34.6786 48.6108 34.6156 48.442 34.4901 48.3229C34.3643 48.2041 34.1863 48.1444 33.9563 48.1444H33.3342ZM32.8398 47.7383H33.9563C34.3661 47.7383 34.6753 47.8312 34.8841 48.0173C35.0948 48.2013 35.2 48.4722 35.2 48.8292C35.2 49.1896 35.0948 49.462 34.8841 49.6463C34.6753 49.8306 34.3661 49.9226 33.9563 49.9226H33.3342V51.3904H32.8398V47.7383Z" fill="white"/>
<path d="M36.5779 48.9657C36.3363 48.9657 36.1454 49.0601 36.005 49.2493C35.8647 49.437 35.7943 49.6947 35.7943 50.0225C35.7943 50.3503 35.8637 50.6087 36.0026 50.7979C36.1429 50.9855 36.3348 51.079 36.5779 51.079C36.8177 51.079 37.008 50.9846 37.1484 50.7954C37.2887 50.6062 37.3588 50.3485 37.3588 50.0225C37.3588 49.6978 37.2887 49.441 37.1484 49.2518C37.008 49.0611 36.8177 48.9657 36.5779 48.9657ZM36.5779 48.584C36.9695 48.584 37.2772 48.7113 37.5009 48.9657C37.7246 49.2201 37.8362 49.5723 37.8362 50.0225C37.8362 50.471 37.7246 50.8231 37.5009 51.079C37.2772 51.3334 36.9695 51.4608 36.5779 51.4608C36.1845 51.4608 35.8762 51.3334 35.6525 51.079C35.4306 50.8231 35.3193 50.471 35.3193 50.0225C35.3193 49.5723 35.4306 49.2201 35.6525 48.9657C35.8762 48.7113 36.1845 48.584 36.5779 48.584Z" fill="white"/>
<path d="M40.1685 48.7552V49.1762C40.0412 49.1058 39.913 49.0537 39.7838 49.0196C39.6565 48.9837 39.5277 48.9657 39.397 48.9657C39.1048 48.9657 38.8781 49.0586 38.7165 49.2445C38.555 49.4288 38.474 49.688 38.474 50.0225C38.474 50.3567 38.555 50.6169 38.7165 50.8027C38.8781 50.987 39.1048 51.079 39.397 51.079C39.5277 51.079 39.6565 51.062 39.7838 51.0279C39.913 50.9919 40.0412 50.9389 40.1685 50.8688V51.2847C40.0427 51.3435 39.912 51.3873 39.7765 51.4166C39.6429 51.4461 39.5001 51.4608 39.3482 51.4608C38.9351 51.4608 38.6071 51.331 38.364 51.0717C38.1206 50.8125 37.999 50.4627 37.999 50.0225C37.999 49.5756 38.1215 49.224 38.3664 48.9681C38.6129 48.7122 38.9499 48.584 39.3776 48.584C39.5162 48.584 39.6517 48.5989 39.7838 48.6282C39.9163 48.6559 40.0442 48.6982 40.1685 48.7552Z" fill="white"/>
<path d="M42.4231 48.7552V49.1762C42.2958 49.1058 42.1675 49.0537 42.0387 49.0196C41.9114 48.9837 41.7823 48.9657 41.6519 48.9657C41.3597 48.9657 41.1327 49.0586 40.9711 49.2445C40.8095 49.4288 40.7289 49.688 40.7289 50.0225C40.7289 50.3567 40.8095 50.6169 40.9711 50.8027C41.1327 50.987 41.3597 51.079 41.6519 51.079C41.7823 51.079 41.9114 51.062 42.0387 51.0279C42.1675 50.9919 42.2958 50.9389 42.4231 50.8688V51.2847C42.2973 51.3435 42.1666 51.3873 42.0311 51.4166C41.8974 51.4461 41.7547 51.4608 41.6028 51.4608C41.19 51.4608 40.8617 51.331 40.6186 51.0717C40.3755 50.8125 40.2539 50.4627 40.2539 50.0225C40.2539 49.5756 40.3761 49.224 40.621 48.9681C40.8674 48.7122 41.2045 48.584 41.6322 48.584C41.771 48.584 41.9065 48.5989 42.0387 48.6282C42.1709 48.6559 42.2991 48.6982 42.4231 48.7552Z" fill="white"/>
<path d="M45.1097 48.6504V51.3901H44.6617V49.1908L43.3395 51.3901H42.7617V48.6504H43.2097V50.8445L44.5295 48.6504H45.1097Z" fill="white"/>
<path d="M47.8682 48.6505V51.3902H47.4202V49.1913L46.0983 51.3902H45.5205V48.6505H45.9685V50.8446L47.288 48.6505H47.8682ZM45.9291 47.584H46.2183C46.2362 47.7065 46.2844 47.7985 46.3626 47.8606C46.4426 47.9209 46.5536 47.9511 46.6957 47.9511C46.8361 47.9511 46.9452 47.9209 47.0237 47.8606C47.1019 47.8003 47.1519 47.708 47.1731 47.584H47.462C47.4457 47.8173 47.3729 47.9925 47.2441 48.1101C47.1149 48.2274 46.9322 48.2862 46.6957 48.2862C46.459 48.2862 46.2762 48.2274 46.1471 48.1101C46.0182 47.9925 45.9455 47.8173 45.9291 47.584Z" fill="white"/>
<path d="M50.2541 48.7552V49.1762C50.1268 49.1058 49.9986 49.0537 49.8698 49.0196C49.7424 48.9837 49.6133 48.9657 49.483 48.9657C49.1908 48.9657 48.9637 49.0586 48.8022 49.2445C48.6406 49.4288 48.56 49.688 48.56 50.0225C48.56 50.3567 48.6406 50.6169 48.8022 50.8027C48.9637 50.987 49.1908 51.079 49.483 51.079C49.6133 51.079 49.7424 51.062 49.8698 51.0279C49.9986 50.9919 50.1268 50.9389 50.2541 50.8688V51.2847C50.1283 51.3435 49.9977 51.3873 49.8625 51.4166C49.7285 51.4461 49.5857 51.4608 49.4339 51.4608C49.021 51.4608 48.6927 51.331 48.4496 51.0717C48.2065 50.8125 48.085 50.4627 48.085 50.0225C48.085 49.5756 48.2074 49.224 48.452 48.9681C48.6985 48.7122 49.0356 48.584 49.4633 48.584C49.6021 48.584 49.7376 48.5989 49.8698 48.6282C50.0019 48.6559 50.1301 48.6982 50.2541 48.7552Z" fill="white"/>
<path d="M50.5928 48.6504H51.0408V49.9369L52.3115 48.6504H52.865L51.8171 49.7093L52.9996 51.3901H52.4952L51.5231 50.0079L51.0408 50.4972V51.3901H50.5928V48.6504Z" fill="white"/>
<path d="M55.3919 48.6504V51.3901H54.9439V49.1908L53.6217 51.3901H53.0439V48.6504H53.492V50.8445L54.8118 48.6504H55.3919Z" fill="white"/>
<path d="M58.1507 48.6505V51.3902H57.7027V49.1913L56.3808 51.3902H55.8027V48.6505H56.2511V50.8446L57.5706 48.6505H58.1507ZM56.2116 47.584H56.5005C56.5187 47.7065 56.5669 47.7985 56.6451 47.8606C56.7251 47.9209 56.8361 47.9511 56.9779 47.9511C57.1186 47.9511 57.2277 47.9209 57.3062 47.8606C57.3844 47.8003 57.4342 47.708 57.4554 47.584H57.7446C57.7282 47.8173 57.6554 47.9925 57.5266 48.1101C57.3975 48.2274 57.2147 48.2862 56.9779 48.2862C56.7415 48.2862 56.5587 48.2274 56.4296 48.1101C56.3008 47.9925 56.228 47.8173 56.2116 47.584Z" fill="white"/>
<path d="M32.4951 53.6621H35.1223V54.0216H34.0301V56.4015H33.587V54.0216H32.4951V53.6621Z" fill="white"/>
<path d="M37.4467 54.9191V55.1393H35.3754C35.3951 55.4492 35.4882 55.6856 35.6546 55.8486C35.8225 56.01 36.0559 56.0908 36.3548 56.0908C36.5279 56.0908 36.6952 56.0697 36.8568 56.0271C37.0199 55.9847 37.1814 55.9214 37.3415 55.8364V56.262C37.1799 56.3305 37.0141 56.3826 36.8444 56.4186C36.6746 56.4545 36.5024 56.4725 36.3278 56.4725C35.8904 56.4725 35.5437 56.3451 35.2872 56.0908C35.0326 55.8364 34.9053 55.4924 34.9053 55.0586C34.9053 54.6102 35.0262 54.2547 35.2678 53.9921C35.5109 53.7279 35.8383 53.5957 36.2496 53.5957C36.6182 53.5957 36.9098 53.7148 37.1235 53.9531C37.3391 54.1895 37.4467 54.5115 37.4467 54.9191ZM36.9962 54.7872C36.9929 54.5407 36.9235 54.3442 36.788 54.1974C36.6543 54.0508 36.4764 53.9774 36.2545 53.9774C36.0029 53.9774 35.8013 54.0484 35.6497 54.1901C35.4994 54.332 35.413 54.5319 35.3903 54.7896L36.9962 54.7872Z" fill="white"/>
<path d="M40.0655 53.6621L39.074 54.9952L40.117 56.4015H39.5856L38.7875 55.3255L37.9894 56.4015H37.458L38.5232 54.9681L37.5486 53.6621H38.08L38.8072 54.6379L39.5344 53.6621H40.0655Z" fill="white"/>
<path d="M40.0752 53.6621H40.5281V54.7799H41.9897V53.6621H42.4429V56.4015H41.9897V55.1393H40.5281V56.4015H40.0752V53.6621Z" fill="white"/>
<path d="M43.8777 53.9774C43.6361 53.9774 43.4452 54.0719 43.3048 54.2611C43.1645 54.4487 43.0941 54.7064 43.0941 55.0342C43.0941 55.3617 43.1636 55.6204 43.3024 55.8096C43.4427 55.9969 43.6346 56.0908 43.8777 56.0908C44.1178 56.0908 44.3078 55.9963 44.4482 55.8071C44.5885 55.6179 44.6589 55.3602 44.6589 55.0342C44.6589 54.7095 44.5885 54.4527 44.4482 54.2635C44.3078 54.0728 44.1178 53.9774 43.8777 53.9774ZM43.8777 53.5957C44.2694 53.5957 44.577 53.723 44.8007 53.9774C45.0244 54.2318 45.1363 54.584 45.1363 55.0342C45.1363 55.4827 45.0244 55.8349 44.8007 56.0908C44.577 56.3451 44.2694 56.4725 43.8777 56.4725C43.4843 56.4725 43.176 56.3451 42.9523 56.0908C42.7304 55.8349 42.6191 55.4827 42.6191 55.0342C42.6191 54.584 42.7304 54.2318 42.9523 53.9774C43.176 53.723 43.4843 53.5957 43.8777 53.5957Z" fill="white"/>
<path d="M45.1855 56.4015V56.0274C45.4826 55.9817 45.6769 55.8562 45.7685 55.6505C45.8794 55.362 45.9349 54.8484 45.9349 54.1096V53.6621H47.7882V56.4015H47.3377V54.0216H46.3853V54.293C46.3853 54.9977 46.3135 55.508 46.1698 55.8245C46.0164 56.162 45.6884 56.3543 45.1855 56.4015Z" fill="white"/>
<path d="M49.3149 53.9774C49.0736 53.9774 48.8827 54.0719 48.742 54.2611C48.6017 54.4487 48.5316 54.7064 48.5316 55.0342C48.5316 55.3617 48.6011 55.6204 48.7396 55.8096C48.8799 55.9969 49.0718 56.0908 49.3149 56.0908C49.555 56.0908 49.745 55.9963 49.8854 55.8071C50.026 55.6179 50.0961 55.3602 50.0961 55.0342C50.0961 54.7095 50.026 54.4527 49.8854 54.2635C49.745 54.0728 49.555 53.9774 49.3149 53.9774ZM49.3149 53.5957C49.7069 53.5957 50.0145 53.723 50.2382 53.9774C50.4616 54.2318 50.5735 54.584 50.5735 55.0342C50.5735 55.4827 50.4616 55.8349 50.2382 56.0908C50.0145 56.3451 49.7069 56.4725 49.3149 56.4725C48.9218 56.4725 48.6132 56.3451 48.3895 56.0908C48.1676 55.8349 48.0566 55.4827 48.0566 55.0342C48.0566 54.584 48.1676 54.2318 48.3895 53.9774C48.6132 53.723 48.9218 53.5957 49.3149 53.5957Z" fill="white"/>
<path d="M50.9248 56.4015V53.6621H52.859V54.0216H51.3777V56.4015H50.9248Z" fill="white"/>
<path d="M55.5502 53.6621V56.4015H55.1021V54.2026L53.7802 56.4015H53.2021V53.6621H53.6505V55.8562L54.97 53.6621H55.5502Z" fill="white"/>
<path d="M57.548 56.4015V55.2496H56.7081C56.4583 55.2496 56.2503 55.1719 56.0836 55.0172C55.9336 54.8767 55.8584 54.6568 55.8584 54.3567V53.6621H56.3091V54.315C56.3091 54.506 56.3516 54.6495 56.4365 54.7457C56.5229 54.8417 56.6511 54.8898 56.8208 54.8898H57.548V53.6621H57.9985V56.4015H57.548Z" fill="white"/>
<path d="M60.848 54.9191V55.1393H58.7768C58.7965 55.4492 58.8896 55.6856 59.056 55.8486C59.2239 56.01 59.4573 56.0908 59.7562 56.0908C59.9293 56.0908 60.0966 56.0697 60.2582 56.0271C60.4212 55.9847 60.5828 55.9214 60.7429 55.8364V56.262C60.5813 56.3305 60.4155 56.3826 60.2457 56.4186C60.076 56.4545 59.9038 56.4725 59.7292 56.4725C59.2918 56.4725 58.945 56.3451 58.6886 56.0908C58.434 55.8364 58.3066 55.4924 58.3066 55.0586C58.3066 54.6102 58.4276 54.2547 58.6692 53.9921C58.9123 53.7279 59.2397 53.5957 59.651 53.5957C60.0199 53.5957 60.3112 53.7148 60.5249 53.9531C60.7404 54.1895 60.848 54.5115 60.848 54.9191ZM60.3976 54.7872C60.3943 54.5407 60.3248 54.3442 60.1897 54.1974C60.0557 54.0508 59.8777 53.9774 59.6559 53.9774C59.4043 53.9774 59.2027 54.0484 59.0511 54.1901C58.9008 54.332 58.8144 54.5319 58.7916 54.7896L60.3976 54.7872Z" fill="white"/>
<path d="M63.1418 53.7669V54.1876C63.0145 54.1176 62.8866 54.0655 62.7575 54.031C62.6301 53.9954 62.5013 53.9774 62.3707 53.9774C62.0785 53.9774 61.8517 54.0703 61.6902 54.2562C61.5286 54.4405 61.4477 54.6997 61.4477 55.0342C61.4477 55.3684 61.5286 55.6286 61.6902 55.8144C61.8517 55.9988 62.0785 56.0908 62.3707 56.0908C62.5013 56.0908 62.6301 56.0737 62.7575 56.0396C62.8866 56.0036 63.0145 55.9506 63.1418 55.8806V56.2964C63.0163 56.3549 62.8857 56.3991 62.7502 56.4283C62.6165 56.4579 62.4734 56.4725 62.3219 56.4725C61.9087 56.4725 61.5807 56.3427 61.3376 56.0834C61.0942 55.8242 60.9727 55.4745 60.9727 55.0342C60.9727 54.5873 61.0951 54.2358 61.34 53.9799C61.5865 53.7237 61.9236 53.5957 62.3513 53.5957C62.4898 53.5957 62.6253 53.6103 62.7575 53.6399C62.8896 53.6676 63.0178 53.7099 63.1418 53.7669Z" fill="white"/>
<path d="M63.4814 53.6621H63.9295V54.9486L65.2002 53.6621H65.7534L64.7055 54.7211L65.888 56.4015H65.3836L64.4117 55.0196L63.9295 55.5089V56.4015H63.4814V53.6621Z" fill="white"/>
<path d="M68.2796 53.6621V56.4015H67.8313V54.2026L66.5094 56.4015H65.9316V53.6621H66.3797V55.8562L67.6992 53.6621H68.2796Z" fill="white"/>
<path d="M71.0384 53.6623V56.402H70.5904V54.2027L69.2682 56.402H68.6904V53.6623H69.1385V55.8563L70.4583 53.6623H71.0384ZM69.0993 52.5957H69.3882C69.4061 52.7182 69.4543 52.8102 69.5328 52.872C69.6128 52.9323 69.7238 52.9628 69.8656 52.9628C70.006 52.9628 70.1154 52.9323 70.1939 52.872C70.2721 52.8117 70.3219 52.7197 70.3431 52.5957H70.6319C70.6156 52.8291 70.5431 53.0042 70.414 53.1215C70.2852 53.2391 70.1024 53.2979 69.8656 53.2979C69.6289 53.2979 69.4461 53.2391 69.3173 53.1215C69.1885 53.0042 69.1157 52.8291 69.0993 52.5957Z" fill="white"/>
<path d="M33.9621 61.6659C33.8348 61.9919 33.7108 62.2049 33.5899 62.3042C33.4693 62.4038 33.3077 62.4535 33.1052 62.4535H32.7454V62.0769H33.0097C33.1337 62.0769 33.2301 62.0474 33.2986 61.9889C33.3671 61.9301 33.4432 61.7915 33.5262 61.573L33.6072 61.3674L32.498 58.6719H32.9755L33.8324 60.8145L34.6893 58.6719H35.1668L33.9621 61.6659Z" fill="white"/>
<path d="M35.2773 58.6719H35.7302V59.7896H37.1919V58.6719H37.6448V61.4116H37.1919V60.1491H35.7302V61.4116H35.2773V58.6719Z" fill="white"/>
<path d="M40.3646 58.6719V61.4116H39.9166V59.2123L38.5944 61.4116H38.0166V58.6719H38.4646V60.8659L39.7844 58.6719H40.3646Z" fill="white"/>
<path d="M41.2317 60.1491V61.0518H41.8731C42.0789 61.0518 42.2356 61.0134 42.3433 60.9369C42.4512 60.8586 42.5048 60.7462 42.5048 60.5994C42.5048 60.4525 42.4512 60.3407 42.3433 60.2643C42.2356 60.1875 42.0789 60.1491 41.8731 60.1491H41.2317ZM41.2317 59.0314V59.7896H41.8243C41.9941 59.7896 42.1329 59.7561 42.2405 59.6894C42.3481 59.6208 42.4021 59.5264 42.4021 59.4055C42.4021 59.2848 42.3481 59.1928 42.2405 59.1291C42.1329 59.064 41.9941 59.0314 41.8243 59.0314H41.2317ZM40.7812 58.6719H41.8537C42.1753 58.6719 42.4224 58.7304 42.5955 58.848C42.7685 58.9652 42.8549 59.1325 42.8549 59.3494C42.8549 59.5173 42.811 59.651 42.7228 59.7506C42.6346 59.8484 42.5042 59.9097 42.3311 59.934C42.5385 59.973 42.6991 60.0547 42.8134 60.1787C42.9277 60.3026 42.9847 60.4574 42.9847 60.6432C42.9847 60.8879 42.8901 61.0771 42.7006 61.2108C42.513 61.3445 42.2444 61.4116 41.8952 61.4116H40.7812V58.6719Z" fill="white"/>
<path d="M45.7475 59.9269V60.1472H43.6762C43.6956 60.457 43.7887 60.6934 43.9554 60.8564C44.1233 61.0178 44.3567 61.0986 44.6556 61.0986C44.8284 61.0986 44.9957 61.0772 45.1573 61.0349C45.3207 60.9926 45.4822 60.9289 45.6423 60.8442V61.2698C45.4807 61.3383 45.3149 61.3904 45.1451 61.4264C44.9754 61.4623 44.8032 61.4803 44.6286 61.4803C44.1912 61.4803 43.8441 61.353 43.588 61.0986C43.3334 60.8442 43.2061 60.4999 43.2061 60.0664C43.2061 59.618 43.327 59.2625 43.5683 58.9999C43.8117 58.7357 44.1388 58.6035 44.5501 58.6035C44.919 58.6035 45.2103 58.7226 45.4243 58.9606C45.6398 59.197 45.7475 59.5193 45.7475 59.9269ZM45.297 59.7947C45.2937 59.5485 45.2243 59.352 45.0888 59.2052C44.9551 59.0584 44.7771 58.9852 44.5553 58.9852C44.3037 58.9852 44.1021 59.0559 43.9505 59.1979C43.8002 59.3398 43.7138 59.5397 43.6908 59.7971L45.297 59.7947Z" fill="white"/>
<path d="M46.4636 60.9983V62.4512H46.0107V58.6696H46.4636V59.0855C46.5582 58.9225 46.6773 58.8015 46.821 58.7232C46.9665 58.6434 47.1393 58.6035 47.3402 58.6035C47.6731 58.6035 47.9432 58.7357 48.1505 58.9999C48.3594 59.264 48.4639 59.6113 48.4639 60.0418C48.4639 60.4722 48.3594 60.8198 48.1505 61.0839C47.9432 61.3481 47.6731 61.4803 47.3402 61.4803C47.1393 61.4803 46.9665 61.441 46.821 61.3627C46.6773 61.2829 46.5582 61.1613 46.4636 60.9983ZM47.9962 60.0418C47.9962 59.7109 47.9277 59.4517 47.7907 59.264C47.6552 59.0748 47.4682 58.9804 47.2299 58.9804C46.9917 58.9804 46.804 59.0748 46.6667 59.264C46.5315 59.4517 46.4636 59.7109 46.4636 60.0418C46.4636 60.3729 46.5315 60.6331 46.6667 60.8223C46.804 61.0096 46.9917 61.1034 47.2299 61.1034C47.4682 61.1034 47.6552 61.0096 47.7907 60.8223C47.9277 60.6331 47.9962 60.3729 47.9962 60.0418Z" fill="white"/>
<path d="M50.7326 58.7747V59.1954C50.6053 59.1254 50.4771 59.0733 50.3483 59.0389C50.221 59.0029 50.0918 58.9852 49.9615 58.9852C49.6693 58.9852 49.4422 59.0782 49.2807 59.264C49.1191 59.4483 49.0385 59.7076 49.0385 60.0418C49.0385 60.3763 49.1191 60.6361 49.2807 60.8223C49.4422 61.0066 49.6693 61.0986 49.9615 61.0986C50.0918 61.0986 50.221 61.0815 50.3483 61.0471C50.4771 61.0114 50.6053 60.9584 50.7326 60.8881V61.3039C50.6068 61.3627 50.4765 61.4069 50.341 61.4361C50.207 61.4654 50.0642 61.4803 49.9124 61.4803C49.4995 61.4803 49.1712 61.3505 48.9281 61.0913C48.685 60.832 48.5635 60.4823 48.5635 60.0418C48.5635 59.5951 48.6859 59.2436 48.9306 58.9877C49.177 58.7315 49.5141 58.6035 49.9418 58.6035C50.0806 58.6035 50.2161 58.6181 50.3483 58.6477C50.4804 58.6754 50.6087 58.7178 50.7326 58.7747Z" fill="white"/>
<path d="M53.4193 58.6719V61.4116H52.9713V59.2123L51.649 61.4116H51.0713V58.6719H51.5193V60.8659L52.8391 58.6719H53.4193Z" fill="white"/>
<path d="M53.5527 58.6719H56.1799V59.0314H55.0878V61.4116H54.6446V59.0314H53.5527V58.6719Z" fill="white"/>
<path d="M58.5043 59.9269V60.1472H56.433C56.4524 60.457 56.5455 60.6934 56.7122 60.8564C56.8801 61.0178 57.1136 61.0986 57.4124 61.0986C57.5852 61.0986 57.7525 61.0772 57.9141 61.0349C58.0775 60.9926 58.2391 60.9289 58.3991 60.8442V61.2698C58.2375 61.3383 58.0717 61.3904 57.902 61.4264C57.7322 61.4623 57.5601 61.4803 57.3855 61.4803C56.948 61.4803 56.601 61.353 56.3448 61.0986C56.0902 60.8442 55.9629 60.4999 55.9629 60.0664C55.9629 59.618 56.0838 59.2625 56.3251 58.9999C56.5685 58.7357 56.8956 58.6035 57.3069 58.6035C57.6758 58.6035 57.9672 58.7226 58.1812 58.9606C58.3967 59.197 58.5043 59.5193 58.5043 59.9269ZM58.0538 59.7947C58.0505 59.5485 57.9811 59.352 57.8456 59.2052C57.7119 59.0584 57.534 58.9852 57.3118 58.9852C57.0605 58.9852 56.8589 59.0559 56.7071 59.1979C56.557 59.3398 56.4706 59.5397 56.4476 59.7971L58.0538 59.7947Z" fill="white"/>
<path d="M58.4883 58.6719H61.1155V59.0314H60.0233V61.4116H59.5801V59.0314H58.4883V58.6719Z" fill="white"/>
<path fill-rule="evenodd" clip-rule="evenodd" d="M28.5105 0.0262201C26.6467 0.208283 26.0354 0.286679 24.9948 0.476958C18.8668 1.59782 13.3554 4.50243 8.92691 8.94516C2.96026 14.931 -0.23182 22.9575 0.0131221 31.3594C0.0417818 32.3416 0.107645 33.5069 0.159446 33.9489C0.965032 40.8156 3.86108 46.9802 8.55949 51.8289C11.1549 54.5074 13.7595 56.4099 17.0289 58.0151C20.9518 59.9414 24.8823 60.9476 29.1214 61.1115L30.5332 61.166L30.5004 60.1311C30.4725 59.2507 30.4398 59.0585 30.2809 58.8446C29.9491 58.398 29.6648 58.3011 28.377 58.1951C20.2987 57.5316 13.1771 53.58 8.29605 47.0533C4.52284 42.0077 2.47919 35.1456 2.90881 28.9639C3.19318 24.8716 4.02092 21.7653 5.77238 18.217C7.13238 15.4618 8.70126 13.2788 10.9291 11.0419C14.5154 7.44069 18.6523 5.05086 23.527 3.76391C30.9266 1.81033 38.8418 3.05387 45.3326 7.18969C47.3721 8.48931 50.0311 10.8342 51.6292 12.7425C55.364 17.2024 57.531 22.5172 58.0169 28.4094C58.1285 29.7639 58.2173 30.0314 58.6595 30.3478C58.9139 30.5299 59.0754 30.5597 59.9515 30.5877L60.953 30.6197L60.9527 29.7842C60.9527 27.3679 60.3864 23.9582 59.555 21.3641C57.9893 16.4806 55.6195 12.5693 52.055 8.98729C47.1435 4.05159 41.1228 1.09413 34.1546 0.194354C33.1146 0.060061 29.3207 -0.0529802 28.5105 0.0262201ZM28.7101 6.94405C21.9523 7.43033 15.6639 10.8943 11.5816 16.3792C7.69337 21.6036 6.13801 28.0186 7.19085 34.4897C7.56682 36.8004 8.21363 38.8111 9.28611 41.0027C11.5899 45.711 15.3085 49.4576 19.966 51.7631C23.0814 53.3055 25.8469 54.0288 29.3783 54.2253L30.5132 54.2886L30.5126 53.4496C30.512 52.4522 30.414 52.0443 30.0993 51.7287C29.8113 51.4396 29.4983 51.3567 28.2213 51.2315C20.0464 50.4291 12.8782 44.3983 10.5918 36.3998C9.99121 34.2986 9.77493 32.7513 9.77493 30.5558C9.77493 27.2502 10.4117 24.4376 11.8216 21.5158C14.7361 15.4757 20.3306 11.2409 26.9529 10.0619C28.5238 9.78214 31.4486 9.71634 33.0755 9.92414C37.6024 10.5021 41.8025 12.559 45.0241 15.7755C46.7964 17.545 48.022 19.2344 49.0477 21.3219C50.2348 23.7378 50.9614 26.3224 51.1284 28.7254C51.1911 29.6274 51.3985 30.1328 51.8059 30.3776C52.0369 30.5165 52.3039 30.5594 53.0981 30.5862L54.0996 30.6197L54.0987 30.1414C54.0975 29.3442 53.9311 27.6734 53.7368 26.5081C53.2181 23.3971 51.9587 20.214 50.1972 17.5619C49.1654 16.0085 48.4121 15.0775 47.2017 13.86C42.3011 8.93059 35.6536 6.4444 28.7101 6.94405ZM28.4698 13.9112C23.3547 14.575 18.8132 17.5269 16.1808 21.8989C15.2386 23.4637 14.4909 25.3474 14.1377 27.0455C13.5301 29.9674 13.7087 33.2117 14.626 35.9163C16.813 42.3648 22.7596 46.9515 29.3439 47.269L30.5332 47.3262L30.5007 46.3035C30.4756 45.5078 30.4328 45.226 30.308 45.035C30.0744 44.6773 29.6588 44.4571 29.0949 44.3922C21.7677 43.5483 16.3289 37.2461 16.6538 29.9755C16.9094 24.2528 20.7046 19.2062 26.1152 17.394C27.6672 16.8743 28.6085 16.7279 30.424 16.7239C32.2404 16.72 32.9894 16.8259 34.5629 17.309C39.8049 18.9185 43.6215 23.5895 44.2608 29.1778C44.3254 29.7434 44.5451 30.1604 44.9013 30.3947C45.092 30.5201 45.3727 30.5631 46.1659 30.588L47.1853 30.6206L47.1287 29.4275C47.0304 27.367 46.4594 25.18 45.5121 23.2341C43.0434 18.1649 38.2265 14.6774 32.6869 13.9489C31.5984 13.8057 29.4317 13.7864 28.4698 13.9112ZM76.2817 33.3701C75.3948 33.6031 74.5794 34.0095 74.0689 34.4735L73.6409 34.8619L74.0295 35.3878C74.927 36.6018 75.1201 36.6883 75.8661 36.2133C76.5206 35.7966 77.1732 35.6007 77.9062 35.6007C79.0623 35.6007 79.8704 35.9852 80.4857 36.8284C80.7464 37.1855 81.1572 38.1381 81.1572 38.3861C81.1572 38.4257 79.9556 38.458 78.4869 38.458H75.8167V39.5294V40.6009H78.4966H81.1769L81.1187 40.936C81.0259 41.4673 80.5655 42.3343 80.159 42.7419C79.526 43.3768 79.0317 43.5763 77.9832 43.6193C76.9137 43.6632 76.4809 43.5486 75.6933 43.0118C75.1256 42.6246 75.0844 42.6115 74.841 42.7422C74.6288 42.8562 73.5472 43.9861 73.5472 44.0939C73.5472 44.2344 74.309 44.961 74.7618 45.2525C76.0495 46.0815 78.4997 46.3364 80.1335 45.8115C82.0487 45.1962 83.463 43.6674 84.0214 41.6089C84.2736 40.6795 84.2991 38.6987 84.0696 37.8331C83.5949 36.0394 82.48 34.6158 80.9617 33.8639C80.5061 33.6385 79.8531 33.3951 79.5106 33.3235C78.6206 33.137 77.0832 33.1593 76.2817 33.3701ZM33.1834 39.6187V45.9584H34.4738H35.7645L35.7657 41.7841L35.7669 37.6098L37.4581 40.9134C38.5381 43.0231 39.2374 44.2895 39.3929 44.4178C39.5921 44.5817 39.7461 44.6182 40.2414 44.6185C41.3111 44.6195 41.0122 45.0469 43.9898 39.2616L44.8398 37.6098L44.8413 41.7841L44.8431 45.9584H46.1335H47.4242V39.6187V33.2793H46.0932C45.2817 33.2793 44.6749 33.3192 44.5382 33.3817C44.3629 33.4618 43.9086 34.2828 42.4514 37.1541C41.4269 39.1727 40.5224 40.985 40.4408 41.1815L40.2932 41.5386L40.0092 40.9131C39.8531 40.5692 38.9546 38.7574 38.0125 36.8872C36.6596 34.2015 36.2522 33.4654 36.0725 33.3832C35.9318 33.3189 35.3371 33.2793 34.5141 33.2793H33.1834V39.6187ZM49.8274 39.6187V45.9584H51.0778C52.4312 45.9584 52.6186 45.9102 53.0457 45.453C53.3176 45.1617 57.3931 38.2237 57.7408 37.4603L57.9711 36.9536L57.9433 41.456L57.9151 45.9584H59.3895H60.8639V39.6187V33.2793H59.6586C58.3895 33.2793 58.0096 33.3743 57.6459 33.7832C57.4389 34.0153 53.2263 41.2571 52.9653 41.8289C52.8477 42.0866 52.7444 42.2974 52.7356 42.2974C52.7271 42.2974 52.731 40.2685 52.7447 37.7884L52.7692 33.2793H51.2981H49.8274V39.6187ZM63.3562 39.6105V45.9584H64.8245H66.2931V43.874V41.7896L67.6505 41.7348C69.76 41.6498 70.8479 41.2952 71.75 40.3992C72.5942 39.5605 73.0116 38.1317 72.8058 36.7839C72.6039 35.4615 71.917 34.4985 70.7557 33.9105C69.7427 33.3975 69.3759 33.3481 66.2264 33.3034L63.3562 33.2625V39.6105ZM89.0348 33.6586C88.9514 33.8673 87.9296 36.5092 86.7641 39.5294C85.5986 42.5497 84.5607 45.2345 84.4576 45.4959L84.27 45.9709L85.6489 45.9425C87.3691 45.9066 87.3149 45.9468 87.8623 44.3048L88.2488 43.1459L90.6583 43.1221L93.0682 43.0984L93.4401 44.238C93.7393 45.1559 93.8705 45.4347 94.1139 45.6684L94.4162 45.9584H95.7081C96.4186 45.9584 97 45.9285 97 45.8923C97 45.8557 95.9112 43.003 94.5802 39.5526L92.1606 33.2793H90.6738H89.187L89.0348 33.6586ZM68.6514 35.6117C69.1407 35.7478 69.7169 36.3422 69.8542 36.8525C69.9846 37.3366 69.923 38.0619 69.7166 38.4702C69.3104 39.2741 68.8967 39.4627 67.428 39.5124L66.2931 39.5507V37.5309V35.5114L67.2947 35.512C67.8451 35.5124 68.4559 35.5571 68.6514 35.6117ZM90.8102 36.3812C90.8435 36.5168 91.2082 37.6156 91.621 38.8232C92.0339 40.0309 92.3716 41.0456 92.3716 41.0779C92.3716 41.1102 91.6107 41.1367 90.6808 41.1367C89.7505 41.1367 88.989 41.1066 88.9887 41.0697C88.9863 40.9003 90.6429 36.0717 90.6929 36.1012C90.7244 36.1198 90.7771 36.2456 90.8102 36.3812Z" fill="white"/>
</g>
<defs>
<clipPath id="clip0_236_683">
<rect width="97" height="62" fill="white"/>
</clipPath>
</defs>
</svg>
