<svg width="70" height="48" viewBox="0 0 70 48" fill="none" xmlns="http://www.w3.org/2000/svg">
<path fill-rule="evenodd" clip-rule="evenodd" d="M27.4364 0.502067C27.1502 0.789318 27.1347 1.00676 27.1347 4.73225V8.65943L24.4812 8.70713L21.8277 8.75467L21.4639 9.17957L21.1002 9.60447V15.8044V22.0043H18.9127H16.7252V18.0604V14.1164L16.3548 13.7449L15.9846 13.3731H8.50323H1.02183L0.651616 13.7449L0.28125 14.1164V23.1247V32.1327L0.64528 32.5576L1.00946 32.9825H8.50323H15.997L16.3612 32.5576L16.7252 32.1327V28.2799V24.4271H30.3028H43.8804V31.2528V38.0785L44.3214 38.5212L44.7623 38.9638H49.2998H53.8373V42.8166V46.6694L54.2013 47.0943L54.5655 47.5192H62.0593H69.553L69.9172 47.0943L70.2812 46.6694V37.6886C70.2812 28.8323 70.2769 28.7022 69.9685 28.3088L69.6559 27.9098H62.0593H54.4626L54.15 28.3088C53.8519 28.689 53.8373 28.8913 53.8373 32.6244V36.541H50.0657H46.2942V29.6716C46.2942 22.9513 46.2874 22.7936 45.9814 22.4033L45.6689 22.0043H34.5914H23.514V16.5482V11.0922L25.2866 11.1348L27.0593 11.1775L27.1347 15.2405C27.2053 19.0397 27.2291 19.3174 27.503 19.5182C27.9386 19.8377 42.6239 19.8377 43.0595 19.5182C43.3334 19.3174 43.3572 19.0397 43.4278 15.2405L43.5032 11.1775L48.6703 11.1376L53.8373 11.0978V15.0164C53.8373 18.7514 53.8519 18.9537 54.15 19.3339L54.4626 19.7329H62.0593H69.6559L69.9685 19.3339C70.2769 18.9405 70.2812 18.8103 70.2812 9.96607C70.2812 1.12185 70.2769 0.991621 69.9685 0.598221L69.6559 0.199219H62.0593H54.4626L54.15 0.598221C53.8524 0.977993 53.8373 1.18166 53.8373 4.83809V8.67896H48.6325H43.4278V4.74194C43.4278 1.00676 43.4123 0.789318 43.1261 0.502067C42.8323 0.207244 42.6233 0.199219 35.2812 0.199219C27.9392 0.199219 27.7302 0.207244 27.4364 0.502067ZM41.014 4.81765V7.0133H35.2812H29.5485V4.81765V2.622H35.2812H41.014V4.81765ZM67.8675 4.81765V7.0133H62.0593H56.2511V4.81765V2.622H62.0593H67.8675V4.81765ZM32.3326 4.05372C31.8831 4.50481 31.8491 5.17395 32.2507 5.67153C32.5347 6.02359 32.5814 6.02904 35.2812 6.02904C37.9811 6.02904 38.0278 6.02359 38.3118 5.67153C38.7134 5.17395 38.6794 4.50481 38.2299 4.05372C37.8657 3.68803 37.8177 3.68197 35.2812 3.68197C32.7448 3.68197 32.6968 3.68803 32.3326 4.05372ZM59.2365 3.88836C58.8513 4.18228 58.6489 4.83143 58.81 5.25663C59.0965 6.0133 59.4436 6.10475 62.0273 6.10475C64.4319 6.10475 64.8682 6.0248 65.2603 5.51223C65.5647 5.11414 65.485 4.45681 65.0833 4.05372C64.7184 3.68727 64.676 3.68197 62.1038 3.68682C60.2025 3.6903 59.4246 3.74496 59.2365 3.88836ZM41.014 13.3731V17.3101H35.2812H29.5485V13.3731V9.43608H35.2812H41.014V13.3731ZM67.8675 13.3731V17.3101H62.0593H56.2511V13.3731V9.43608H62.0593H67.8675V13.3731ZM14.3114 17.9915V20.1872H8.50323H2.69504V17.9915V15.7959H8.50323H14.3114V17.9915ZM5.73627 17.0983C5.54664 17.2315 5.3306 17.5017 5.25608 17.6982C5.08651 18.146 5.3383 18.9263 5.71817 19.1304C6.01763 19.2912 10.8123 19.3385 11.212 19.1846C11.5798 19.0429 11.9184 18.2789 11.8085 17.8391C11.7558 17.6287 11.5416 17.3215 11.3323 17.1563C10.9885 16.8848 10.7168 16.8559 8.51651 16.8559C6.52769 16.8559 6.01793 16.9004 5.73627 17.0983ZM14.3114 26.6227V30.6354H8.50323H2.69504V26.6227V22.61H8.50323H14.3114V26.6227ZM67.8675 32.5282V34.7239H62.0593H56.2511V32.5282V30.3326H62.0593H67.8675V32.5282ZM59.1872 31.7377C58.6483 32.2028 58.6201 32.9053 59.1187 33.438C59.4687 33.812 59.4945 33.8153 62.0925 33.8153C64.6737 33.8153 64.7187 33.8097 65.0833 33.4436C65.5327 32.9927 65.5668 32.3235 65.1655 31.8258C64.8857 31.4784 64.8027 31.4669 62.2432 31.4209C59.6465 31.3742 59.6029 31.3786 59.1872 31.7377ZM67.8675 41.0617V44.977L66.8491 45.0734C66.2891 45.1266 63.6753 45.1705 61.0409 45.1711L56.2511 45.1721V41.1594V37.1467H62.0593H67.8675V41.0617Z" fill="#6A6A6A"/>
</svg>
