<svg width="70" height="70" viewBox="0 0 70 70" fill="none" xmlns="http://www.w3.org/2000/svg">
<path fill-rule="evenodd" clip-rule="evenodd" d="M2.27223 0.179341C1.57985 0.397648 0.398949 1.62084 0.186637 2.33969C-0.0622123 3.18216 -0.0622123 46.4806 0.186637 47.3231C0.415595 48.0982 1.58423 49.2672 2.35913 49.4963C2.79137 49.624 5.5321 49.6679 13.0855 49.6679H23.2311L23.9993 50.7422C24.8842 51.9799 26.5865 53.7388 27.8142 54.6837C28.8738 55.4993 30.9539 56.7355 31.8297 57.0701L32.4927 57.3234L30.6804 59.1403L28.8682 60.9572H26.8558H24.8436V59.0332C24.8436 57.935 24.7699 56.8598 24.672 56.5284C24.4431 55.7532 23.2744 54.5842 22.4995 54.3552C21.6737 54.1112 7.69923 54.1112 6.8734 54.3552C6.0985 54.5842 4.92986 55.7532 4.70091 56.5284C4.46024 57.3435 4.46024 66.8287 4.70091 67.6438C4.92986 68.419 6.0985 69.588 6.8734 69.817C7.69923 70.061 21.6737 70.061 22.4995 69.817C23.2744 69.588 24.4431 68.419 24.672 67.6438C24.7699 67.3123 24.8436 66.2372 24.8436 65.139V63.215H27.339H29.8342L32.3907 60.6713L34.9472 58.1275L35.9968 58.3644C37.3436 58.6687 41.2459 58.7102 42.7596 58.4365C44.7785 58.0715 47.6241 57.0257 49.0513 56.1243L49.6297 55.759L51.0818 57.2166L52.5338 58.674L52.2315 59.0584C52.0652 59.27 51.9291 59.6408 51.9288 59.8826C51.9284 60.2716 52.4263 60.8179 56.2667 64.6402C60.9957 69.3471 61.2884 69.5708 63.1321 69.8867C67.0387 70.556 70.5535 67.0401 69.8844 63.1322C69.5676 61.2819 69.3492 60.996 64.6407 56.265C60.8226 52.4288 60.271 51.9257 59.8829 51.9257C59.6415 51.9257 59.2707 52.0622 59.0588 52.2288L58.6735 52.5319L57.2419 51.0999L55.8103 49.6679H61.4625C67.9955 49.6679 68.0329 49.6623 69.041 48.5406C69.3764 48.1674 69.7263 47.6101 69.8185 47.3022C70.0605 46.4943 70.0605 3.16847 69.8185 2.36058C69.7263 2.05266 69.3764 1.49539 69.041 1.12214C67.9296 -0.114463 71.2229 -0.00693248 34.9403 0.0092959C11.9139 0.0195974 2.62561 0.0680003 2.27223 0.179341ZM67.3828 2.5992L67.7291 2.9455V24.8314V46.7173L67.3828 47.0636L67.0366 47.41H62.007C57.2704 47.41 56.9838 47.3956 57.0842 47.163C57.5086 46.1804 58.0235 44.5445 58.2991 43.3031C58.7192 41.4106 58.7559 37.8657 58.3749 35.9539C57.2141 30.1279 53.381 25.0177 48.2148 22.409L47.3725 21.9835L50.1799 19.172L52.9872 16.3607L53.0274 17.7737L53.0676 19.1867H54.1913H55.3149V16.1464C55.3149 12.0849 55.643 12.4131 51.5829 12.4131H48.5435V13.5421V14.671H49.9883H51.4332L48.2131 17.8944L44.9929 21.1179L43.9237 20.863C43.3357 20.7229 42.2472 20.5405 41.505 20.4578C40.7627 20.3749 40.1163 20.2615 40.0687 20.2056C40.021 20.1497 38.8212 18.2307 37.4026 15.941C35.9838 13.6514 34.6974 11.6671 34.5436 11.5312C34.3003 11.3161 33.9467 11.2842 31.8109 11.2842H29.3578V9.36023C29.3578 7.0716 29.2227 6.53917 28.4125 5.63786C27.3802 4.48917 27.5548 4.51062 19.2273 4.51062C13.9403 4.51062 11.8106 4.55719 11.3877 4.68222C10.6128 4.91125 9.44414 6.08026 9.21518 6.85541C8.97451 7.6705 8.97451 17.1558 9.21518 17.9709C9.44414 18.746 10.6128 19.915 11.3877 20.1441C11.8106 20.2691 13.9403 20.3157 19.2273 20.3157C27.5548 20.3157 27.3802 20.3371 28.4125 19.1884C29.2227 18.2871 29.3578 17.7547 29.3578 15.4661V13.5421H31.3087H33.2596L35.3951 16.9641C37.071 19.6494 37.4787 20.3952 37.2886 20.428C32.4126 21.2688 29.1454 22.8524 26.0967 25.8526L24.9872 26.9446L24.3864 26.2782C23.2009 24.9637 23.0403 24.8314 22.6326 24.8335C22.4132 24.8348 22.1548 24.886 22.0581 24.9472C21.9615 25.0086 19.0584 28.1352 15.6068 31.8951L9.33128 38.7313L10.1396 39.4688C10.5843 39.8744 10.9798 40.2052 11.0186 40.2039C11.0574 40.2025 13.6602 37.3842 16.8025 33.9409L22.5159 27.6801L23.0638 28.217L23.6117 28.754L23.1148 29.5798C21.9114 31.5794 21.1067 33.6646 20.6636 35.9317C20.3984 37.2886 20.3187 40.4964 20.5127 42.0123L20.6254 42.8943H13.706H6.7865V27.6537V12.4131H5.65793H4.52936V28.4142C4.52936 43.9572 4.53712 44.4248 4.79895 44.7484L5.06854 45.0816L13.1379 45.1521L21.2072 45.2227L21.5242 46.0694C21.6987 46.5351 21.8888 47.0273 21.9468 47.163C22.0467 47.3969 21.5441 47.41 12.5086 47.41H2.96475L2.61856 47.0636L2.27223 46.7173V24.8314V2.9455L2.61856 2.5992L2.96475 2.25276H35.0007H67.0366L67.3828 2.5992ZM26.7544 7.11493L27.1007 7.46123V12.4131V17.3651L26.7544 17.7114L26.4082 18.0578H19.2007H11.9933L11.6471 17.7114L11.3008 17.3651V12.4131V7.46123L11.6471 7.11493L11.9933 6.76849H19.2007H26.4082L26.7544 7.11493ZM13.5579 10.1553V11.2842H19.2007H24.8436V10.1553V9.02635H19.2007H13.5579V10.1553ZM13.5579 14.671V15.7999H19.2007H24.8436V14.671V13.5421H19.2007H13.5579V14.671ZM43.1828 22.9788C49.0238 24.3152 53.7568 28.6144 55.5777 34.2378C56.208 36.1846 56.3729 37.2773 56.3729 39.5075C56.3729 40.683 56.2897 41.974 56.1773 42.5415C54.8133 49.4301 49.8311 54.5145 42.8778 56.1138C41.452 56.4416 37.6039 56.4397 36.1521 56.1105C29.2537 54.5457 24.2109 49.4006 22.8526 42.5415C22.5636 41.0819 22.6025 37.6179 22.9249 36.1207C24.0101 31.0783 27.2421 26.8079 31.7078 24.5153C33.6341 23.5263 35.234 23.0237 37.6105 22.661C38.5691 22.5147 42.0128 22.711 43.1828 22.9788ZM37.0915 25.0426C31.8685 25.9219 27.3882 29.7058 25.6735 34.6861C24.6235 37.7358 24.6029 41.1745 25.6166 44.1561C27.2793 49.0461 31.4532 52.7679 36.4819 53.8446C37.9434 54.1575 39.9761 54.244 41.4004 54.0536C47.9078 53.1842 53.0647 48.0715 54.0358 41.5266C54.5736 37.902 53.5192 33.7484 51.3179 30.8194C50.5666 29.8197 48.7461 28.0449 47.814 27.4034C44.7972 25.3271 40.7261 24.4309 37.0915 25.0426ZM35.3524 30.7669L31.6855 34.4446L30.6647 33.3422C30.1033 32.736 29.643 32.1872 29.642 32.1226C29.6377 31.8652 30.7299 30.6987 31.725 29.898C32.8247 29.0131 34.4011 28.149 35.6838 27.7285C36.4179 27.4876 38.1737 27.1275 38.7381 27.1019C38.924 27.0936 37.7781 28.334 35.3524 30.7669ZM43.9918 27.9321C45.4951 28.5144 47.0638 29.5495 48.2667 30.7529C53.1301 35.6177 53.1301 43.3972 48.2667 48.2621C43.7743 52.756 36.8091 53.1455 31.7995 49.183C30.6705 48.29 29.2927 46.6954 28.7778 45.6857L28.5056 45.1521H35.1389H41.7721V44.0232V42.8943H34.658H27.544L27.3594 42.0828C27.0886 40.8911 27.1267 37.8159 27.4263 36.6852C27.7305 35.5376 28.2256 34.2862 28.3757 34.2862C28.4382 34.2862 29.0497 34.9236 29.7348 35.7027C30.9748 37.1132 31.3285 37.3539 31.9324 37.1987C32.107 37.1538 34.4399 34.9215 37.1167 32.238C42.6697 26.6712 41.9312 27.1338 43.9918 27.9321ZM55.8096 52.9145L57.0745 54.1857L55.6305 55.6302L54.1865 57.0746L52.893 55.7809L51.5997 54.4871L52.9988 53.072C53.7683 52.2937 54.4309 51.6539 54.4714 51.6501C54.5118 51.6464 55.114 52.2154 55.8096 52.9145ZM63.5273 58.3818C67.4329 62.2961 67.7204 62.6808 67.726 64.0013C67.7352 66.1315 66.1345 67.7334 64.0009 67.7293C62.6619 67.7268 62.1982 67.3794 58.2787 63.4415L54.6826 59.8287L57.2191 57.2884C58.6143 55.8912 59.7885 54.748 59.8287 54.748C59.8688 54.748 61.5333 56.3832 63.5273 58.3818ZM22.2401 56.7879L22.5864 57.1342V62.0861V67.038L22.2401 67.3843L21.8939 67.7307H14.6865H7.47902L7.13283 67.3843L6.7865 67.038V62.0861V57.1342L7.13283 56.7879L7.47902 56.4414H14.6865H21.8939L22.2401 56.7879ZM9.04363 59.8282V60.9572H14.6865H20.3293V59.8282V58.6993H14.6865H9.04363V59.8282ZM9.04363 64.3439V65.4729H14.6865H20.3293V64.3439V63.215H14.6865H9.04363V64.3439Z" fill="#6A6A6A"/>
</svg>
