<svg width="70" height="70" viewBox="0 0 70 70" fill="none" xmlns="http://www.w3.org/2000/svg">
<path fill-rule="evenodd" clip-rule="evenodd" d="M15.2137 0.186995C14.4868 0.503201 14.423 0.760597 14.3481 3.6803L14.2798 6.34726L12.7753 6.43069C11.9479 6.47665 11.0452 6.58579 10.7694 6.67345C8.96991 7.24446 7.24446 8.96991 6.67345 10.7694C6.58579 11.0452 6.47665 11.9479 6.43069 12.7753L6.34726 14.2798L3.6803 14.3481C0.738304 14.4236 0.498141 14.4851 0.181114 15.2437C-0.065614 15.8344 -0.0621948 16.0483 0.20327 16.6078C0.575551 17.392 0.99693 17.4938 3.87451 17.4938H6.42071L6.38392 20.6736L6.34726 23.8535L3.69713 23.8907C0.715737 23.9325 0.431535 24.0168 0.123398 24.9503C-0.0872232 25.5888 0.051322 26.1256 0.549975 26.6037L0.962328 26.9991L3.68906 27.0436L6.41565 27.088V30.2234V33.3588L3.98803 33.3665C1.23477 33.3752 0.762512 33.4775 0.300102 34.1654C-0.0958396 34.7542 -0.0958396 35.2458 0.300102 35.8345C0.762512 36.5225 1.23477 36.6248 3.98803 36.6335L6.41565 36.6412V39.7766V42.912L3.68906 42.9564L0.962328 43.0009L0.549975 43.3963C0.051322 43.8744 -0.0872232 44.4112 0.123398 45.0497C0.431535 45.9832 0.715737 46.0675 3.69713 46.1093L6.34726 46.1465L6.38392 49.3264L6.42071 52.5062H3.87451C0.99693 52.5062 0.575551 52.608 0.20327 53.3922C-0.0621948 53.9517 -0.065614 54.1656 0.181114 54.7563C0.498141 55.5149 0.738304 55.5764 3.6803 55.6518L6.34726 55.7202L6.43069 57.2247C6.47665 58.0521 6.58579 58.9548 6.67345 59.2306C7.24446 61.0301 8.96991 62.7555 10.7694 63.3265C11.0452 63.4142 11.9479 63.5233 12.7753 63.5693L14.2798 63.6527L14.3481 66.3197C14.4236 69.2617 14.4851 69.5019 15.2437 69.8189C15.8344 70.0656 16.0483 70.0622 16.6078 69.7967C17.392 69.4244 17.4938 69.0031 17.4938 66.1255V63.5793L20.6736 63.6161L23.8535 63.6527L23.8907 66.3029C23.9325 69.2843 24.0168 69.5685 24.9503 69.8766C25.5888 70.0872 26.1256 69.9487 26.6037 69.45L26.9991 69.0377L27.0436 66.3109L27.088 63.5843H30.213H33.3379L33.3826 66.2417C33.4335 69.2702 33.507 69.4967 34.5622 69.8695C35.0673 70.0478 35.1748 70.045 35.6031 69.8406C36.501 69.4125 36.5675 69.1751 36.6174 66.2235L36.6621 63.5843H39.787H42.912L42.9564 66.3109L43.0009 69.0377L43.3963 69.45C43.8744 69.9487 44.4112 70.0872 45.0497 69.8766C45.9832 69.5685 46.0675 69.2843 46.1093 66.3029L46.1465 63.6527L49.3264 63.6161L52.5062 63.5793V66.1255C52.5062 69.0031 52.608 69.4244 53.3922 69.7967C53.9517 70.0622 54.1656 70.0656 54.7563 69.8189C55.5149 69.5019 55.5764 69.2617 55.6518 66.3197L55.7202 63.6527L57.2247 63.5693C58.0521 63.5233 58.9548 63.4142 59.2306 63.3265C61.0301 62.7555 62.7555 61.0301 63.3265 59.2306C63.4142 58.9548 63.5233 58.0521 63.5693 57.2247L63.6527 55.7202L66.3197 55.6518C69.2617 55.5764 69.5019 55.5149 69.8189 54.7563C70.0656 54.1656 70.0622 53.9517 69.7967 53.3922C69.4244 52.608 69.0031 52.5062 66.1255 52.5062H63.5793L63.6161 49.3264L63.6527 46.1465L66.3029 46.1093C69.2843 46.0675 69.5685 45.9832 69.8766 45.0497C70.0872 44.4112 69.9487 43.8744 69.45 43.3963L69.0377 43.0009L66.3109 42.9564L63.5843 42.912V39.787V36.6621L66.2417 36.6174C69.257 36.5668 69.4984 36.4899 69.8587 35.4662C70.0218 35.0026 70.0187 34.8649 69.8358 34.4294C69.448 33.5058 69.1963 33.4328 66.2235 33.3826L63.5843 33.3379V30.213V27.088L66.3109 27.0436L69.0377 26.9991L69.45 26.6037C69.9487 26.1256 70.0872 25.5888 69.8766 24.9503C69.5685 24.0168 69.2843 23.9325 66.3029 23.8907L63.6527 23.8535L63.6161 20.6736L63.5793 17.4938H66.1255C69.0031 17.4938 69.4244 17.392 69.7967 16.6078C70.0622 16.0483 70.0656 15.8344 69.8189 15.2437C69.5019 14.4851 69.2617 14.4236 66.3197 14.3481L63.6527 14.2798L63.5693 12.7753C63.5233 11.9479 63.4142 11.0452 63.3265 10.7694C62.7555 8.96991 61.0301 7.24446 59.2306 6.67345C58.9548 6.58579 58.0521 6.47665 57.2247 6.43069L55.7202 6.34726L55.6518 3.6803C55.5764 0.738304 55.5149 0.498141 54.7563 0.181114C54.1656 -0.065614 53.9517 -0.0621948 53.3922 0.20327C52.608 0.575551 52.5062 0.99693 52.5062 3.87451V6.42071L49.3264 6.38392L46.1465 6.34726L46.1093 3.69713C46.0675 0.715737 45.9832 0.431535 45.0497 0.123398C44.4112 -0.0872232 43.8744 0.051322 43.3963 0.549975L43.0009 0.962328L42.9564 3.68906L42.912 6.41565H39.787H36.6621L36.6174 3.77645C36.5675 0.824877 36.501 0.58745 35.6031 0.159368C35.1748 -0.0449621 35.0673 -0.0478343 34.5622 0.13051C33.507 0.503338 33.4335 0.729824 33.3826 3.75826L33.3379 6.41565H30.213H27.088L27.0436 3.68906L26.9991 0.962328L26.6037 0.549975C26.1256 0.051322 25.5888 -0.0872232 24.9503 0.123398C24.0168 0.431535 23.9325 0.715737 23.8907 3.69713L23.8535 6.34726L20.6736 6.38392L17.4938 6.42071V3.87451C17.4938 0.99693 17.392 0.575551 16.6078 0.20327C16.0584 -0.057408 15.7828 -0.0605536 15.2137 0.186995ZM58.3029 9.72842C59.0431 9.94835 60.0517 10.9569 60.2716 11.6971C60.5145 12.5151 60.5145 57.4849 60.2716 58.3029C60.0517 59.0431 59.0431 60.0517 58.3029 60.2716C57.4849 60.5145 12.5151 60.5145 11.6971 60.2716C10.9569 60.0517 9.94835 59.0431 9.72842 58.3029C9.48553 57.4849 9.48553 12.5151 9.72842 11.6971C9.93398 11.005 10.9491 9.95135 11.6128 9.74101C12.3364 9.51165 57.532 9.49948 58.3029 9.72842ZM13.8541 12.8001C13.6952 12.8318 13.3875 13.0433 13.1703 13.27L12.7753 13.6822V35.0063V56.3305L13.2224 56.7776L13.6695 57.2247H35H56.3305L56.7776 56.7776L57.2247 56.3305V35V13.6695L56.7776 13.2224L56.3305 12.7753L35.2367 12.7589C23.6352 12.7499 14.0129 12.7685 13.8541 12.8001ZM54.079 35V54.079H35H15.921L15.8858 35.1368C15.8665 24.7185 15.8801 16.1174 15.9159 16.0231C15.9679 15.8865 19.8629 15.8587 35.0301 15.8864L54.079 15.921V35Z" fill="#6A6A6A"/>
</svg>
