<svg width="70" height="71" viewBox="0 0 70 71" fill="none" xmlns="http://www.w3.org/2000/svg">
<path fill-rule="evenodd" clip-rule="evenodd" d="M2.2651 0.164581C1.50736 0.436484 0.849629 0.991095 0.421581 1.719L0.0423704 2.36401L0.00707593 34.6919C-0.0163169 56.0391 0.0184304 67.193 0.109266 67.5301C0.31173 68.2822 0.968098 69.1067 1.71243 69.5441L2.36797 69.9294L19.2286 69.9656L36.0892 70.002V68.8373V67.6726H19.468C3.02913 67.6726 2.84377 67.6696 2.57318 67.3991C2.30108 67.1271 2.29957 66.9432 2.29957 34.9841C2.29957 3.02503 2.30108 2.84121 2.57318 2.56917C2.8439 2.2985 3.02913 2.29563 20.2736 2.29563C37.2274 2.29563 37.7094 2.30274 38.0235 2.557L38.3464 2.81851L38.383 13.8407L38.4196 24.863H39.5116H40.6037V22.6063V20.3495L41.8007 20.3487C42.4591 20.3483 43.2297 20.2836 43.5133 20.2048C44.2375 20.0038 44.9579 19.2444 45.0661 18.5679L45.1531 18.0244H48.5556H51.9581V20.2811V22.5379H50.7953H49.6325V24.1136C49.6325 25.6734 49.6289 25.6912 49.2808 25.8497C48.9678 25.9923 48.7695 25.9305 47.4795 25.2891L46.0298 24.5683L44.3321 26.2656L42.6345 27.9629L43.3554 29.4123C43.997 30.7021 44.0588 30.9003 43.9161 31.2132C43.7576 31.5613 43.7398 31.5648 42.1797 31.5648H40.6037V33.8216V36.0783H37.1485C35.2482 36.0783 33.4824 36.1388 33.2244 36.2128C32.6044 36.3906 31.8787 37.1101 31.7111 37.7136C31.6369 37.9801 31.5761 39.7524 31.5757 41.6518L31.5748 45.1053H28.2232H24.8716V40.5918V36.0783H28.2232H31.5748V34.9841V33.89H18.9164C4.91314 33.89 5.67348 33.8411 4.95104 34.788L4.55678 35.3047V48.5381C4.55678 61.6902 4.55856 61.7737 4.83886 62.1491C4.99399 62.3569 5.29085 62.6537 5.49865 62.8088C5.87471 63.0896 5.95802 63.0911 24.3686 63.1592L42.8609 63.2276L42.8985 65.4501L42.9361 67.6726H40.6755H38.4148V68.8352V69.9978H49.7063H60.998L60.9582 68.8694L60.9185 67.741L58.6955 67.7034L56.4725 67.6658V65.4125V63.1592H62.4714C68.4674 63.1592 68.4707 63.159 68.9227 62.8514C69.1714 62.6822 69.5037 62.37 69.6611 62.1576C69.9457 61.7737 69.9476 61.7035 69.9837 49.8616C70.02 38.0283 70.0183 37.9481 69.7346 37.3622C69.2741 36.4111 68.7234 36.1591 66.9719 36.0987L65.5013 36.0481V33.8064V31.5648H64.0177C62.7542 31.5648 62.5006 31.5278 62.3077 31.3147C62.1832 31.1771 62.0813 30.9914 62.0813 30.9019C62.0813 30.8125 62.3946 30.1152 62.7773 29.3525L63.4734 27.9658L61.7728 26.2656L60.0722 24.5654L58.6852 25.2613C57.9224 25.644 57.2144 25.9572 57.1118 25.9572C57.0092 25.9572 56.8234 25.8446 56.6989 25.707C56.518 25.5072 56.4725 25.1636 56.4725 23.9974V22.5379H55.3097H54.1469V20.2636V17.9893L55.2071 18.0526C56.4466 18.1266 57.1683 18.4424 57.8364 19.2031C58.4709 19.9257 58.6613 20.4734 58.6613 21.5761V22.5379H59.8241H60.9869V21.6776C60.9869 19.3278 59.7952 17.3687 57.7551 16.3645C56.9945 15.9902 56.6563 15.911 55.5365 15.8452L54.2153 15.7677L54.1404 13.3742C54.0593 10.7784 53.9538 10.3137 53.1967 9.21342C52.6534 8.42397 51.806 7.70988 50.8687 7.25183C50.1537 6.90238 49.9739 6.87776 47.6542 6.81115L45.197 6.74072L45.1129 6.3304C44.9855 5.70932 44.7544 5.35426 44.204 4.93409C43.736 4.57671 43.6049 4.54949 42.1539 4.50641L40.6037 4.46045V3.63326C40.6037 3.17835 40.5322 2.56767 40.4448 2.2762C40.2393 1.59029 39.4931 0.72521 38.7764 0.341975L38.2096 0.0388878L20.494 0.00961857C5.93244 -0.0144533 2.68699 0.0131746 2.2651 0.164581ZM5.58415 7.11506C4.66348 7.74134 4.56116 8.01119 4.51574 9.9301C4.47826 11.5158 4.50179 11.7172 4.78934 12.2794C4.9955 12.6822 5.29263 13.0002 5.65118 13.2014L6.19838 13.5085L20.4498 13.4755C34.6045 13.4428 34.7039 13.4406 35.079 13.1605C35.9293 12.5258 36.017 12.2755 36.0661 10.3425C36.117 8.34505 36.0408 8.03841 35.3201 7.33991L34.8429 6.87749L20.4409 6.84152L6.03915 6.80541L5.58415 7.11506ZM42.9293 7.90328V8.99745H41.7665H40.6037V7.90328V6.8091H41.7665H42.9293V7.90328ZM11.2997 10.1258L11.26 11.2542L9.03699 11.2918L6.81398 11.3294V10.1634V8.99745H9.07666H11.3395L11.2997 10.1258ZM20.3285 10.1258L20.2888 11.2542L16.903 11.2907L13.5172 11.3274V10.1623V8.99745H16.9427H20.3683L20.3285 10.1258ZM24.8429 10.1258L24.8032 11.2542L23.6746 11.2939L22.546 11.3337V10.1655V8.99745H23.7143H24.8827L24.8429 10.1258ZM29.3573 10.1258L29.3176 11.2542H28.2232H27.1288L27.0892 10.1258L27.0493 8.99745H28.2232H29.3971L29.3573 10.1258ZM33.8717 10.1258L33.832 11.2542H32.7376H31.6432L31.6036 10.1258L31.5638 8.99745H32.7376H33.9115L33.8717 10.1258ZM49.7014 9.22395C50.0994 9.35949 50.6001 9.68405 50.9479 10.032C51.769 10.8529 51.9581 11.5859 51.9581 13.9485V15.8408L48.5873 15.8042L45.2166 15.7677L45.0416 15.1753C44.6759 13.9366 43.8945 13.5183 41.9375 13.5139L40.6037 13.5109V12.4343V11.3577L42.0992 11.296C43.4212 11.2416 43.6566 11.1935 44.1297 10.8804C44.6741 10.5201 45.1181 9.80345 45.1181 9.28454C45.1181 9.00634 45.1785 8.99745 47.0773 8.99745C48.542 8.99745 49.2043 9.05462 49.7014 9.22395ZM5.58141 16.1438C4.66307 16.7686 4.56157 17.0377 4.51205 18.9761C4.47237 20.5287 4.49946 20.7924 4.7483 21.2801C4.90288 21.5831 5.23079 21.9747 5.47704 22.1503L5.92478 22.4695H20.313C34.6977 22.4695 34.7013 22.4694 35.0875 22.1834C35.2999 22.0259 35.6121 21.6937 35.7814 21.4451C36.0623 21.0326 36.0892 20.8347 36.0892 19.187C36.0892 17.535 36.0627 17.3416 35.7782 16.9196C35.6072 16.6657 35.2594 16.318 35.0055 16.1471L34.5439 15.8361H20.2888H6.03368L5.58141 16.1438ZM42.9293 16.9302V18.0244H41.7665H40.6037V16.9302V15.8361H41.7665H42.9293V16.9302ZM11.2997 19.1528L11.26 20.2811L9.03699 20.3188L6.81398 20.3564V19.1904V18.0244H9.07666H11.3395L11.2997 19.1528ZM20.3285 19.1528L20.2888 20.2811L16.903 20.3177L13.5172 20.3543V19.1893V18.0244H16.9427H20.3683L20.3285 19.1528ZM24.8429 19.1528L24.8032 20.2811L23.6746 20.3208L22.546 20.3606V19.1924V18.0244H23.7143H24.8827L24.8429 19.1528ZM29.3573 19.1528L29.3176 20.2811L28.189 20.3208L27.0604 20.3606V19.1924V18.0244H28.2287H29.3971L29.3573 19.1528ZM33.9004 19.187V20.3495H32.7376H31.5748V19.187V18.0244H32.7376H33.9004V19.187ZM5.636 25.1236C5.40179 25.2662 5.06321 25.5891 4.88359 25.8411C4.58537 26.2592 4.5535 26.4543 4.51916 28.0772C4.48455 29.7166 4.50575 29.8968 4.79276 30.3894C4.9639 30.6832 5.27772 31.0525 5.49017 31.2101C5.87567 31.4959 5.90385 31.4966 20.2074 31.5326L34.5385 31.5685L35.0028 31.2557C35.2582 31.0837 35.6072 30.7352 35.7782 30.4813C36.0627 30.0592 36.0892 29.8659 36.0892 28.2139C36.0892 26.562 36.0627 26.3686 35.7782 25.9465C35.6072 25.6927 35.2594 25.345 35.0055 25.174L34.5439 24.863L20.3028 24.8636C6.55981 24.864 6.04667 24.8731 5.636 25.1236ZM54.216 25.5517C54.342 26.4676 54.9949 27.4213 55.7758 27.83C56.662 28.2938 57.6663 28.26 58.7897 27.7287L59.6705 27.3122L60.196 27.8375L60.7216 28.363L60.2929 29.3082C59.9242 30.1211 59.8718 30.3737 59.9189 31.1114C60.0118 32.5713 61.0274 33.633 62.5259 33.8368L63.1757 33.9252V35.0018V36.0783H60.9318H58.6877L58.6404 34.8054C58.5977 33.661 58.5413 33.4281 58.0819 32.4995C57.4666 31.2556 56.6739 30.4798 55.4027 29.8778C54.5573 29.4773 54.3814 29.4449 53.0525 29.4449C51.7209 29.4449 51.5488 29.4767 50.6939 29.8816C49.5054 30.4445 48.5676 31.3846 47.9832 32.599C47.5698 33.4582 47.5259 33.6677 47.5193 34.8124L47.5121 36.0767L45.2207 36.0775L42.9293 36.0783V35.0027V33.9272L43.5453 33.8428C45.8401 33.5282 46.8987 31.4116 45.8249 29.285L45.4082 28.4597L45.9814 27.9086L46.5545 27.3575L47.3753 27.7511C48.8626 28.4644 50.3284 28.2235 51.2415 27.1161C51.6661 26.601 51.9581 25.8298 51.9581 25.2233C51.9581 24.8645 51.9625 24.863 53.0396 24.863H54.1212L54.216 25.5517ZM11.26 28.2139V29.3081L9.03699 29.3457L6.81398 29.3833V28.2139V27.0445L9.03699 27.0821L11.26 27.1197V28.2139ZM20.3285 28.1797L20.2888 29.3081L16.903 29.3446L13.5172 29.3813V28.2162V27.0514H16.9427H20.3683L20.3285 28.1797ZM24.8429 28.1797L24.8032 29.3081L23.6746 29.3478L22.546 29.3876V28.2194V27.0514H23.7143H24.8827L24.8429 28.1797ZM29.386 28.2139V29.3765H28.2232H27.0604V28.2139V27.0514H28.2232H29.386V28.2139ZM33.9004 28.2139V29.3765H32.7376H31.5748V28.2139V27.0514H32.7376H33.9004V28.2139ZM54.7124 32.0667C55.9 32.7129 56.6105 34.1338 56.4112 35.4635L56.3182 36.0832L53.0785 36.0466L49.8388 36.0099L49.7203 35.4481C49.4735 34.278 50.323 32.609 51.469 32.0118C52.5144 31.467 53.6456 31.4862 54.7124 32.0667ZM13.5172 40.5918V45.1053H10.1656H6.81398V40.5918V36.0783H10.1656H13.5172V40.5918ZM22.546 40.5918V45.1053H19.1944H15.8428V40.5918V36.0783H19.1944H22.546V40.5918ZM9.00279 40.6656V42.928L10.1314 42.8882L11.26 42.8485L11.2976 40.626L11.3352 38.4034H10.169H9.00279V40.6656ZM18.0316 40.6602V42.9169H19.1944H20.3572V40.6602V38.4034H19.1944H18.0316V40.6602ZM27.0604 40.6602V42.9169H28.2232H29.386V40.6602V38.4034H28.2232H27.0604V40.6602ZM67.6901 47.4304V56.4573H65.4329H63.1757V49.6871V42.9169H62.0813H60.9869V49.6871V56.4573H59.8241H58.6613V51.9439V47.4304H57.5669H56.4725V51.9439V56.4573H55.3097H54.1469V54.2006V51.9439H53.0525H51.9581V54.2006V56.4573H42.9293H33.9004V47.4304V38.4034H50.7953H67.6901V47.4304ZM37.5256 40.8491C36.4251 41.3543 36.0892 42.0847 36.0892 43.9733C36.0892 44.7097 36.1497 45.5232 36.2237 45.7812C36.4146 46.446 37.1397 47.1418 37.8207 47.3133L38.392 47.4571L38.4376 48.9825C38.478 50.3323 38.521 50.5607 38.8117 50.9683C39.457 51.8729 39.8039 51.9374 44.0289 51.9409C47.6669 51.9437 47.817 51.9333 48.4054 51.6361C48.7405 51.4668 49.1537 51.1193 49.3236 50.8636C49.6204 50.4169 49.6325 50.2836 49.6325 47.4304C49.6325 44.5693 49.6213 44.4452 49.3214 44.0004C49.1504 43.7466 48.8026 43.3989 48.5487 43.2279C48.1095 42.932 47.9635 42.9169 45.5245 42.9169H42.9617L42.815 42.3344C42.6454 41.6609 41.9942 40.978 41.3015 40.7469C40.5316 40.4902 38.1682 40.554 37.5256 40.8491ZM40.6037 44.0111V45.1053H39.5093H38.4148V44.0111V42.9169H39.5093H40.6037V44.0111ZM47.4437 47.362V49.6187H44.0237H40.6037V48.5397V47.4609L41.0907 47.3695C41.7987 47.2367 42.6271 46.4343 42.8113 45.7024L42.9617 45.1053H45.2027H47.4437V47.362ZM31.5748 48.5246V49.6187H19.1944H6.81398V48.5246V47.4304H19.1944H31.5748V48.5246ZM9.00279 53.038V54.1322H7.90839H6.81398V53.038V51.9439H7.90839H9.00279V53.038ZM13.5172 53.038V54.1322H12.4228H11.3284V53.038V51.9439H12.4228H13.5172V53.038ZM18.0316 53.038V54.1322H16.9372H15.8428V53.038V51.9439H16.9372H18.0316V53.038ZM22.546 53.038V54.1322H21.4516H20.3572V53.038V51.9439H21.4516H22.546V53.038ZM27.0604 53.038V54.1322H25.966H24.8716V53.038V51.9439H25.966H27.0604V53.038ZM31.5748 53.038V54.1322H30.4804H29.386V53.038V51.9439H30.4804H31.5748V53.038ZM31.5748 58.7141V60.9708H29.3176H27.0604V59.8083V58.6457H25.966H24.8716V59.8083V60.9708H22.6199H20.3683L20.3285 59.8424L20.2888 58.7141L19.1602 58.6744L18.0316 58.6346V59.8028V60.9708H15.7744H13.5172V59.8083V58.6457H12.4228H11.3284V59.8083V60.9708H9.07119H6.81398V58.7141V56.4573H19.1944H31.5748V58.7141ZM58.6613 59.8083V60.9708H46.2809H33.9004V59.8083V58.6457H46.2809H58.6613V59.8083ZM63.1757 59.8083V60.9708H62.0813H60.9869V59.8083V58.6457H62.0813H63.1757V59.8083ZM67.6901 59.8083V60.9708H66.5957H65.5013V59.8083V58.6457H66.5957H67.6901V59.8083ZM54.1469 65.4159V67.6726H49.6325H45.1181V65.5071C45.1181 64.316 45.1591 63.3005 45.2093 63.2504C45.2594 63.2002 47.2909 63.1592 49.7237 63.1592H54.1469V65.4159Z" fill="#6A6A6A"/>
</svg>
