<svg width="70" height="50" viewBox="0 0 70 50" fill="none" xmlns="http://www.w3.org/2000/svg">
<path fill-rule="evenodd" clip-rule="evenodd" d="M0.578017 0.442604C0.346892 0.53582 0 1.22242 0 1.58666C0 1.74681 0.179733 2.05781 0.399514 2.27791L0.799027 2.67802H3.88484H6.97065V5.62097V8.56392H4.98265C3.0541 8.56392 2.98453 8.57391 2.6591 8.89996C2.22459 9.33497 2.22241 9.93643 2.65322 10.4384C2.98234 10.8218 2.98617 10.8226 4.97677 10.8696L6.97065 10.9166V12.0673V13.2179H5.00397C3.27156 13.2179 2.99874 13.2491 2.71459 13.4795L2.39189 13.7411L2.35293 18.892L2.31398 24.043L2.71828 24.4479L3.12258 24.8528H5.04661H6.97065V26.0163V27.1798H5.04661H3.12258L2.72306 27.5799C2.29662 28.007 2.22623 28.3835 2.48251 28.8656C2.79209 29.4477 2.99259 29.4979 5.02296 29.5024L6.97065 29.5068V30.6703V31.8338H5.04661H3.12258L2.72306 32.2339L2.32355 32.634V37.6497C2.32355 40.9809 2.37316 42.7583 2.47116 42.9417C2.73905 43.4428 3.42204 43.6056 5.25778 43.6056H6.97065V46.0589C6.97065 48.4987 6.97256 48.5147 7.32451 48.9334C7.74562 49.4347 8.40004 49.5008 8.90315 49.0932C9.22503 48.8323 9.22599 48.8228 9.29419 45.0209L9.36253 41.2102H12.2328H15.1031L15.1714 45.0209C15.2396 48.8228 15.2406 48.8323 15.5624 49.0932C15.875 49.3465 16.2972 49.3546 29.184 49.3546H42.4829L42.8368 48.9334L43.1907 48.5124V44.8237V41.1351L45.48 41.1726L47.7694 41.2102L47.8378 45.0209C47.906 48.8228 47.9069 48.8323 48.2288 49.0932C48.5335 49.3401 48.835 49.3546 53.6466 49.3546C58.4583 49.3546 58.7598 49.3401 59.0645 49.0932C59.3863 48.8323 59.3873 48.8228 59.4555 45.0209L59.5238 41.2102L62.1208 41.1362C65.014 41.054 65.4276 40.954 66.8842 39.9857C68.3073 39.0398 69.3673 37.4983 69.7693 35.7906C70.074 34.4964 70.0782 12.8999 69.774 11.6082C69.2044 9.18865 67.4648 7.29037 65.0692 6.47442L64.1709 6.16849L36.7326 6.1314L9.29419 6.09417V3.50629V0.918404L8.93404 0.634786C8.58797 0.362118 8.42122 0.351441 4.66282 0.361844C2.51176 0.36773 0.673556 0.40414 0.578017 0.442604ZM64.9331 8.94103C65.9494 9.44256 66.6487 10.1378 67.138 11.1333L67.5879 12.0486V23.6865V35.3242L67.223 36.1039C66.7782 37.0542 65.8983 37.9624 64.9875 38.4112L64.3076 38.7463L36.8692 38.7819L9.43087 38.8173L9.406 35.7705C9.39233 34.0946 9.37689 27.2871 9.37183 20.6428L9.36253 8.562L36.8351 8.59718L64.3076 8.63236L64.9331 8.94103ZM21.8004 11.1176C20.4804 11.3994 19.0102 12.0105 17.6673 12.8352C16.1991 13.7369 14.2475 15.755 13.4062 17.2414C10.5758 22.2419 11.2806 28.3559 15.1557 32.4194C17.1333 34.4931 19.2834 35.6845 22.2636 36.3578C23.3765 36.6092 26.5892 36.4506 27.8734 36.0809C32.6195 34.7146 36.0493 31.0059 37.0546 26.1532C38.2311 20.4743 35.243 14.5905 29.8894 12.0443C28.2318 11.256 26.4949 10.889 24.4823 10.9021C23.5162 10.9083 22.336 11.0031 21.8004 11.1176ZM49.8218 11.118C45.0762 12.1363 41.3139 15.7843 40.0327 20.6095C39.5983 22.2454 39.5939 24.95 40.0229 26.6839C40.9752 30.5334 43.6781 33.7994 47.2347 35.3983C47.7544 35.632 48.7945 35.9794 49.5463 36.1705C50.7833 36.4849 51.0946 36.5114 52.8266 36.4494C54.9232 36.3743 56.1435 36.1132 57.731 35.3998C61.2895 33.8009 63.9961 30.5313 64.9463 26.6839C65.3661 24.984 65.3672 22.3988 64.9488 20.7052C63.7841 15.991 60.237 12.4178 55.5366 11.2237C54.4715 10.953 53.9043 10.893 52.5015 10.9021C51.5314 10.9083 50.3585 11.0029 49.8218 11.118ZM26.0729 13.954C26.9763 15.3078 27.3851 17.6899 26.9398 19.0065C26.7553 19.5522 26.7447 19.5545 25.8892 19.2344C25.7036 19.165 25.5 18.8411 25.3047 18.3045C24.7331 16.7345 23.5196 15.409 21.6551 14.3177L20.7556 13.7914L21.893 13.5127C22.6968 13.3159 23.4114 13.2418 24.3289 13.2602L25.6274 13.2863L26.0729 13.954ZM54.0081 13.8339C54.6511 14.7756 54.9694 15.785 55.0442 17.119C55.1112 18.3163 54.9306 19.5144 54.6832 19.5144C54.4226 19.5144 53.5627 19.0829 53.5154 18.9283C52.9038 16.9266 51.5095 15.2956 49.5471 14.2861C48.7621 13.8823 48.742 13.8592 49.0687 13.7345C49.8988 13.4176 51.1472 13.2369 52.342 13.2607L53.6342 13.2863L54.0081 13.8339ZM29.8558 14.6668C30.8134 15.2451 32.0205 16.253 32.4078 16.7975C32.672 17.1692 32.6744 17.2178 32.4676 18.026C32.03 19.7367 30.7785 21.4736 29.5203 22.1164L28.9864 22.3892L28.732 21.8073L28.4777 21.2255L28.8586 20.4042C29.5771 18.8548 29.6503 16.5804 29.0375 14.8412C28.9286 14.5317 28.8393 14.2555 28.8393 14.2273C28.8393 14.0983 29.1041 14.2127 29.8558 14.6668ZM58.1128 14.8402C59.5866 15.8039 60.5489 16.8062 60.5489 17.3779C60.5489 18.4763 59.6701 20.225 58.6082 21.2394C57.388 22.4051 57.0304 22.496 56.7065 21.7232C56.5183 21.274 56.5129 21.1489 56.6698 20.869C57.5506 19.299 57.6445 16.8113 56.9133 14.4156C56.8005 14.0462 57.0135 14.1214 58.1128 14.8402ZM6.97065 19.0354V22.5258H5.80887H4.6471V19.0354V15.5449H5.80887H6.97065V19.0354ZM19.3103 15.8303C20.2654 16.151 20.8556 16.4765 21.6829 17.1389C22.2476 17.5908 23.0988 18.7327 23.0988 19.0381C23.0988 19.1267 22.8669 19.3039 22.5833 19.4319C22.0795 19.6594 22.0505 19.6568 21.309 19.3169C19.8482 18.6472 18.1367 18.519 16.4015 18.9497C15.8377 19.0897 15.2626 19.2522 15.1234 19.3108C14.8793 19.4137 14.8789 19.401 15.1085 18.9527C15.8463 17.512 17.5988 15.5449 18.1446 15.5449C18.3182 15.5449 18.8427 15.6733 19.3103 15.8303ZM48.1819 16.2252C49.3743 16.8056 50.4218 17.7261 50.853 18.5726C50.9987 18.8588 51.1181 19.1168 51.1181 19.146C51.1181 19.1752 50.8771 19.3079 50.5827 19.4408C50.0533 19.6799 50.0394 19.6787 49.3184 19.3325C47.8193 18.6124 45.594 18.5108 43.7774 19.0796L42.9291 19.3451L43.2638 18.6836C43.6602 17.9002 44.6571 16.615 45.3568 15.9854C45.8077 15.5794 45.9154 15.5435 46.471 15.6139C46.8092 15.6567 47.5792 15.9317 48.1819 16.2252ZM34.643 21.0201C34.7666 21.4342 34.9038 22.4254 34.9481 23.2227L35.0286 24.6724L34.565 25.0208C33.0476 26.161 30.8816 26.626 29.2912 26.1529L28.6 25.9473L28.8197 25.3356C28.9979 24.8393 29.1172 24.7069 29.4519 24.6346C31.0035 24.2997 33.0426 22.4868 33.9409 20.6437C34.0968 20.3237 34.268 20.1081 34.3214 20.1646C34.3747 20.221 34.5195 20.6061 34.643 21.0201ZM62.6658 21.1906C63.015 22.7286 63.0942 24.3603 62.8383 24.7514C62.5484 25.1946 61.1804 25.8989 60.1262 26.1477C59.012 26.4108 58.1826 26.4123 57.3105 26.1529L56.6193 25.9473L56.837 25.3411C57.0303 24.8027 57.1214 24.7162 57.6511 24.5676C59.0192 24.184 60.9137 22.5083 61.8087 20.8902C62.0535 20.4478 62.2958 20.1119 62.3475 20.1438C62.399 20.1757 62.5423 20.6467 62.6658 21.1906ZM19.6236 21.1739C19.9589 21.2584 20.2613 21.3732 20.2956 21.4287C20.33 21.4844 20.2604 21.7787 20.1412 22.0829C19.9541 22.5598 19.8402 22.6593 19.3136 22.807C17.9199 23.1978 16.2002 24.71 15.2317 26.3963C14.8588 27.0457 14.6723 27.2602 14.5972 27.1257C14.3457 26.6757 14.0501 24.9657 14.0307 23.8484C14.0109 22.7121 14.0303 22.6219 14.35 22.3625C15.6516 21.3068 18.027 20.7713 19.6236 21.1739ZM47.9873 21.292L48.3418 21.4553L48.1251 22.0589C47.9897 22.4356 47.8248 22.6627 47.6863 22.6627C47.2406 22.6627 45.5645 23.6257 44.8978 24.2648C44.0597 25.0684 43.5847 25.683 43.061 26.6424L42.6599 27.3766L42.5137 26.9915C42.2868 26.3938 41.9606 24.3511 41.9606 23.5284C41.9606 22.9307 42.0234 22.7242 42.285 22.4622C42.7273 22.0192 43.8545 21.4643 44.7998 21.2242C45.6847 20.9995 47.4325 21.0367 47.9873 21.292ZM25.7064 21.742C25.9601 21.9132 26.3128 22.2674 26.4905 22.5291C26.7604 22.927 26.8043 23.1341 26.7583 23.7938C26.6642 25.1397 25.8041 25.9479 24.4659 25.9479C23.8229 25.9479 23.5909 25.8785 23.1397 25.5512C22.5652 25.1344 22.142 24.3268 22.142 23.6472C22.142 23.0729 22.7002 22.0869 23.2215 21.7399C23.8715 21.3073 25.0638 21.3084 25.7064 21.742ZM53.578 21.636C53.7959 21.7488 54.1465 22.0674 54.3571 22.3439C54.6807 22.7688 54.7401 22.9773 54.7401 23.6893C54.7401 24.4014 54.6807 24.6099 54.3571 25.0347C53.854 25.6953 53.3361 25.9479 52.4849 25.9479C51.6336 25.9479 51.1157 25.6953 50.6126 25.0347C50.2875 24.6078 50.2297 24.4028 50.2297 23.6758C50.2297 22.7183 50.4624 22.2779 51.2534 21.7388C51.7948 21.3697 52.9641 21.318 53.578 21.636ZM48.2511 25.6402C48.4739 26.1358 48.4713 26.1741 48.176 26.7692C48.0079 27.1079 47.7932 27.7328 47.6989 28.1578C47.476 29.1616 47.5923 31.5399 47.9073 32.4229C48.0364 32.7847 48.1117 33.1107 48.0748 33.1478C48.0019 33.2207 46.7558 32.5145 46.1994 32.0849C46.0105 31.9392 45.5262 31.4996 45.1234 31.1082L44.3908 30.3965L44.4636 29.6857C44.5482 28.8562 45.166 27.4861 45.8395 26.6338C46.3089 26.0397 47.8097 24.9161 47.9483 25.0549C47.9881 25.0946 48.1244 25.358 48.2511 25.6402ZM20.2859 25.6497C20.513 26.1541 20.5116 26.1896 20.2452 26.6421C19.5231 27.8691 19.3412 30.1703 19.8186 32.0398C19.9691 32.6289 20.0749 33.1283 20.0537 33.1495C19.9246 33.2788 18.1343 32.0689 17.3285 31.3075L16.3708 30.4028L16.451 29.725C16.6172 28.3192 17.7754 26.4453 19.0531 25.5148C19.7677 24.9944 20.0023 25.0201 20.2859 25.6497ZM28.1378 28.2059C29.4329 28.7515 31.0918 28.8142 32.7689 28.3808C33.4643 28.2012 34.0331 28.074 34.0331 28.0986C34.0331 28.1229 33.7859 28.5505 33.4837 29.0486C32.8215 30.1404 31.97 31.1795 31.4107 31.5782C31.0344 31.8465 30.9394 31.8579 30.2876 31.7118C28.6457 31.3437 26.8996 30.1429 26.154 28.8688C25.9588 28.5353 25.822 28.2425 25.85 28.2183C26.1103 27.9918 26.7752 27.7391 26.9942 27.7837C27.1445 27.8142 27.6591 28.0042 28.1378 28.2059ZM55.6837 28.0565C57.192 28.7694 59.2599 28.8577 61.0898 28.2873C61.5751 28.1359 61.9871 28.027 62.0051 28.045C62.0232 28.0631 61.8302 28.4455 61.5762 28.8949C61.0776 29.7774 60.1366 30.9387 59.4536 31.5142C59.0455 31.8581 58.9971 31.8665 58.3112 31.7128C56.6329 31.3366 54.7293 30.0086 54.1014 28.7758C53.9535 28.4857 53.8522 28.2316 53.8763 28.2112C54.0042 28.1027 54.7576 27.7375 54.8636 27.7328C54.9314 27.7298 55.3005 27.8754 55.6837 28.0565ZM22.9389 28.0501C23.3135 28.186 23.4353 28.3375 23.6279 28.9071C24.1521 30.458 25.6968 32.1786 27.3676 33.0728L28.2243 33.5314L27.4042 33.7909C26.8918 33.9531 25.9848 34.0781 24.9868 34.1241L23.3895 34.1976L22.9703 33.5356C22.0378 32.0631 21.6452 30.0519 22.0007 28.5678C22.1799 27.8197 22.229 27.7926 22.9389 28.0501ZM51.0782 28.0954C51.2763 28.1429 51.4346 28.3389 51.5389 28.6662C51.8524 29.65 52.52 30.7211 53.311 31.5088C53.9949 32.1903 54.4883 32.5421 56.0384 33.4539C56.3839 33.6572 53.9179 34.1608 52.577 34.1608H51.4045L50.9921 33.5604C50.3046 32.5597 49.9984 31.6131 49.9242 30.2596C49.8836 29.5197 49.921 28.7899 50.0179 28.4323C50.1595 27.9094 50.2156 27.8483 50.4777 27.93C50.642 27.9812 50.9122 28.0557 51.0782 28.0954ZM6.97065 37.6512V41.1417H5.80887H4.6471V37.6512V34.1608H5.80887H6.97065V37.6512ZM40.8671 44.1531V47.0276H39.0903H37.3135V45.6526C37.3135 44.3751 37.2897 44.2537 36.9779 43.9416C36.5215 43.4844 35.7818 43.4844 35.3255 43.9416C35.0137 44.2537 34.9899 44.3751 34.9899 45.6526V47.0276H33.8406H32.6912L32.6446 45.578C32.6018 44.2485 32.5712 44.1068 32.2753 43.867C31.8151 43.4942 31.0914 43.528 30.6784 43.9416C30.3666 44.2537 30.3428 44.3751 30.3428 45.6526V47.0276H29.181H28.0193V45.7888C28.0193 44.0343 27.7641 43.6056 26.7196 43.6056C26.3884 43.6056 26.1842 43.705 25.979 43.9663C25.7359 44.2758 25.6957 44.5184 25.6957 45.6773V47.0276H24.5339H23.3722V45.8845C23.3722 44.6185 23.198 43.9422 22.8201 43.7396C22.3888 43.5084 21.7025 43.5856 21.3649 43.9032C21.0739 44.1771 21.0486 44.3138 21.0486 45.6142V47.0276H19.2718H17.495V44.1531V41.2786H29.181H40.8671V44.1531ZM57.132 44.1531V47.0276H55.9702H54.8084V45.6526C54.8084 44.3751 54.7846 44.2537 54.4729 43.9416C54.0165 43.4844 53.2768 43.4844 52.8204 43.9416C52.5086 44.2537 52.4849 44.3751 52.4849 45.6526V47.0276H51.3231H50.1613V44.1531V41.2786H53.6466H57.132V44.1531Z" fill="#6A6A6A"/>
</svg>
