<svg width="70" height="70" viewBox="0 0 70 70" fill="none" xmlns="http://www.w3.org/2000/svg">
<path fill-rule="evenodd" clip-rule="evenodd" d="M14.6437 0.227444C13.6831 0.559659 12.8804 1.13628 12.3912 1.8453C11.6109 2.97666 11.5861 3.16623 11.5861 7.98259V12.4012L7.57209 12.4446L3.55809 12.4881L2.65082 12.934C1.59477 13.4529 0.869299 14.1947 0.361294 15.2755L0 16.0441V36.1493V56.2546L0.322628 56.9023C0.73438 57.7287 1.55144 58.5437 2.37275 58.9472L3.0165 59.2635L14.7054 59.2999L26.3943 59.3364V61.7776V64.2188L25.4688 64.2867C23.1677 64.4553 21.338 66.2693 21.2078 68.511C21.161 69.3149 21.1902 69.448 21.4696 69.7077L21.7842 70H34.996H48.2079L48.5443 69.6642C48.9667 69.2431 48.9786 68.7027 48.593 67.4578C48.0479 65.6972 46.1383 64.2556 44.351 64.2556H43.6706V61.7968V59.3379L55.3596 59.3007L67.0485 59.2635L67.7778 58.8606C68.6575 58.3744 69.2416 57.7377 69.6759 56.7917L70 56.0854L69.9639 35.9281L69.9279 15.7706L69.5623 15.0867C68.8558 13.7647 67.3969 12.7233 65.924 12.4894L65.348 12.398L65.307 7.79276L65.266 3.1877L64.9027 2.50385C64.4111 1.57901 63.6372 0.829507 62.7294 0.399364L61.9753 0.0419832L38.666 0.0114834C16.5168 -0.0175119 15.3212 -0.00684379 14.6437 0.227444ZM56.802 2.60643L56.4908 3.1877L56.4522 11.1413L56.4138 19.095L56.7792 19.3817C57.2626 19.761 57.73 19.7442 58.1423 19.3328C58.4726 19.0034 58.4789 18.9549 58.4789 16.7263V14.4554L62.2838 14.4975C66.5564 14.5448 66.5853 14.5511 67.4453 15.6123L67.8712 16.1378L67.9072 31.4435L67.9433 46.749H63.2111H58.4789V35.0737C58.4789 23.469 58.4771 23.3961 58.1947 23.0379C57.8707 22.627 57.1988 22.5493 56.7569 22.8715C56.4979 23.0604 56.489 23.3844 56.4222 34.8731L56.3536 46.6807L54.7708 46.719L53.1881 46.7573L53.0184 45.9375C52.7153 44.4744 51.6674 43.4964 50.2581 43.3612L49.6103 43.2992L49.0484 41.9223L48.4865 40.5454L48.8416 40.1254C49.3641 39.5073 49.5667 38.9221 49.5653 38.0343C49.5642 37.4015 49.4784 37.0933 49.135 36.4913C48.5923 35.5392 46.9028 33.8844 46.0563 33.4756C44.8782 32.9068 43.5016 33.1051 42.5637 33.9791L42.2109 34.3077L41.3297 33.9132C40.845 33.6962 40.2172 33.4442 39.9343 33.3531C39.4646 33.2019 39.4199 33.1441 39.4171 32.6852C39.4137 32.1056 38.9903 31.0972 38.5547 30.6311C38.0685 30.1108 37.2939 29.7916 36.1622 29.6451C32.9055 29.2236 30.9124 30.2582 30.5747 32.5457C30.4853 33.1507 30.4492 33.1937 29.8429 33.4204C29.4921 33.5517 28.9133 33.8043 28.5564 33.9819L27.9077 34.305L27.2942 33.8379C26.2593 33.05 25.0421 32.931 23.8912 33.5053C23.2546 33.8229 21.5677 35.3944 21.0365 36.1645C20.1852 37.3987 20.1693 38.7187 20.9914 39.9108L21.4688 40.6031L20.9357 41.9323L20.4026 43.2614L19.7254 43.3455C18.2169 43.5329 17.1659 44.5584 16.9518 46.0519L16.8617 46.6807L9.42258 46.7161L1.98348 46.7514L2.02009 31.512L2.0567 16.2728L2.46804 15.6919C3.24863 14.5897 3.44648 14.5452 7.78119 14.4993L11.5861 14.4591V28.9415C11.5861 43.2814 11.5888 43.4266 11.8621 43.6734C12.2404 44.0149 12.9039 43.9908 13.2734 43.6223L13.5742 43.3223L13.6428 23.4601C13.6937 8.71007 13.7525 3.52757 13.8709 3.32447C14.1083 2.91772 14.7615 2.33289 15.151 2.17847C15.3725 2.09053 22.857 2.03938 36.3035 2.03377L57.1134 2.02515L56.802 2.60643ZM61.7264 2.17068C61.9387 2.25069 62.2897 2.48142 62.5063 2.68356C63.2521 3.37904 63.2779 3.56245 63.2779 8.17544V12.4197H60.8784H58.4789V8.18871C58.4789 5.53181 58.5332 3.81452 58.6248 3.57271C59.0759 2.38185 60.5357 1.7218 61.7264 2.17068ZM17.2523 4.41303C17.0129 4.51697 16.7044 4.77328 16.5667 4.98281C16.3314 5.34101 16.3143 5.93624 16.2787 14.9565C16.237 25.5284 16.2252 25.3627 17.0566 25.9207L17.5226 26.2335L25.0778 26.2314C30.846 26.2299 32.7131 26.189 32.9717 26.0586C33.1579 25.9645 33.451 25.6793 33.623 25.4249L33.9356 24.9621L33.9353 15.3058C33.9352 6.38662 33.9168 5.61305 33.6954 5.17087C33.2064 4.19447 33.3771 4.21334 25.0918 4.21909C19.1046 4.22319 17.6044 4.26039 17.2523 4.41303ZM38.3664 4.7596C37.7316 5.01878 37.5823 5.90013 38.092 6.378C38.4093 6.67521 38.4126 6.67534 45.3537 6.67534H52.2981L52.5777 6.37595C52.9287 6.00025 52.9359 5.43484 52.5952 5.01509L52.3332 4.69217L45.4996 4.66468C41.7238 4.6495 38.5319 4.69204 38.3664 4.7596ZM31.8789 15.2235V24.1819H25.0918H18.3046V15.2235V6.26503H25.0918H31.8789V15.2235ZM38.1114 9.74652C37.6795 10.1772 37.6714 10.7707 38.092 11.165C38.4093 11.4622 38.413 11.4623 45.3352 11.4623H52.2609L52.5592 11.1458C52.9546 10.7258 52.9391 10.1639 52.5206 9.74652L52.1842 9.41075H45.316H38.4479L38.1114 9.74652ZM38.1114 14.5335C37.6795 14.9642 37.6714 15.5576 38.092 15.9519C38.4093 16.2491 38.413 16.2493 45.3352 16.2493H52.2609L52.5592 15.9328C52.9546 15.5128 52.9391 14.9509 52.5206 14.5335L52.1842 14.1977H45.316H38.4479L38.1114 14.5335ZM38.1114 19.3204C37.9263 19.5051 37.7748 19.8155 37.7748 20.0104C37.7748 20.2053 37.9263 20.5158 38.1114 20.7005L38.4479 21.0362H45.316H52.1842L52.5206 20.7005C52.7057 20.5158 52.8572 20.2053 52.8572 20.0104C52.8572 19.8155 52.7057 19.5051 52.5206 19.3204L52.1842 18.9847H45.316H38.4479L38.1114 19.3204ZM38.0728 24.0881C37.6774 24.5081 37.6929 25.07 38.1114 25.4874L38.4479 25.8232H42.2868C44.848 25.8232 46.2389 25.7718 46.4657 25.6686C47.1614 25.3526 47.2233 24.2678 46.5657 23.9167C46.3921 23.824 44.8626 23.7716 42.3324 23.7716H38.3711L38.0728 24.0881ZM35.9923 31.7012C37.1457 31.8669 37.3627 32.113 37.3655 33.2582C37.3685 34.5349 37.5115 34.7109 38.9439 35.2021C39.6206 35.434 40.6295 35.8546 41.1857 36.1365C42.3873 36.7453 42.6084 36.722 43.511 35.8925C43.8627 35.5693 44.259 35.2658 44.3917 35.2181C44.9184 35.0284 46.0168 35.7851 46.9941 37.0109C47.7251 37.9275 47.6948 38.3363 46.8243 39.2951C46.4472 39.7104 46.1387 40.1739 46.1387 40.3254C46.1387 40.4766 46.3767 41.0761 46.6678 41.6574C46.9588 42.2386 47.3632 43.2175 47.5669 43.8324C47.7703 44.4473 48.0236 45.0223 48.1296 45.11C48.2356 45.1978 48.7103 45.2985 49.1844 45.3337C50.4785 45.4302 50.6401 45.4868 50.8666 45.9236C51.3022 46.7638 51.3476 46.749 48.3283 46.749C46.2454 46.749 45.5712 46.7077 45.5384 46.5781C45.5147 46.4841 45.3628 45.8596 45.2008 45.1905C44.3067 41.4946 41.3595 38.4973 37.6376 37.4991C36.3972 37.1664 33.6404 37.1609 32.4273 37.4887C31.3866 37.7699 29.7997 38.4937 28.9596 39.0702C26.7832 40.5639 25.0572 43.2516 24.6028 45.8544L24.4466 46.749H21.7184H18.9902V46.3625C18.9902 45.7122 19.4593 45.4176 20.5913 45.3574C21.8116 45.2926 22.0308 45.1161 22.4035 43.8985C22.5567 43.3976 22.9313 42.4755 23.2357 41.8494C23.5401 41.2231 23.7892 40.5588 23.7892 40.3731C23.7892 40.1685 23.5188 39.7113 23.1036 39.2135C22.7076 38.739 22.4181 38.2556 22.4181 38.0693C22.4181 37.4943 24.1752 35.5678 24.9889 35.2506C25.4258 35.0803 25.926 35.3064 26.6904 36.0197C27.0489 36.3542 27.4378 36.628 27.5545 36.628C27.6711 36.628 28.337 36.3592 29.0343 36.0304C29.7316 35.7017 30.7114 35.2989 31.2117 35.1355C31.7119 34.972 32.2144 34.7332 32.3282 34.6048C32.4583 34.4579 32.5549 34.0033 32.5886 33.3791C32.6539 32.1671 32.9149 31.8316 33.8986 31.695C34.8654 31.5606 35.0178 31.5611 35.9923 31.7012ZM36.7464 39.4317C40.0343 40.118 42.8271 42.9791 43.3416 46.1883L43.4318 46.7511L35.0159 46.7159L26.6 46.6807L26.6479 46.205C26.7929 44.7648 27.8394 42.8687 29.2052 41.5719C31.2338 39.6456 34.004 38.8594 36.7464 39.4317ZM67.9397 52.3249C67.9397 55.8352 67.9384 55.8511 67.6053 56.3401C66.9056 57.3671 69.9209 57.2804 34.9292 57.2804H3.53698L3.08368 56.9726C2.05698 56.2756 2.06136 56.2944 2.01598 52.3469L1.97512 48.8006H34.9575H67.9397V52.3249ZM41.5454 61.7938V64.1873L34.9982 64.2228L28.451 64.2582V61.7938V59.3293L34.9982 59.3647L41.5454 59.4003V61.7938ZM45.3042 66.5747C45.8172 66.8357 46.55 67.5696 46.55 67.8222C46.55 67.8984 41.9517 67.9484 34.9561 67.9484H23.3624L23.61 67.5251C23.871 67.0789 24.367 66.6688 24.906 66.4535C25.097 66.3772 29.2216 66.321 35.0037 66.3158C44.4441 66.3075 44.7965 66.3164 45.3042 66.5747Z" fill="#6A6A6A"/>
</svg>
