<svg width="70" height="70" viewBox="0 0 70 70" fill="none" xmlns="http://www.w3.org/2000/svg">
<path fill-rule="evenodd" clip-rule="evenodd" d="M31.3905 0.346821C31.0823 0.655217 31.0437 0.815277 31.042 1.79485L31.0401 2.89606L30.2306 3.15007C29.7853 3.28979 28.9295 3.63336 28.3286 3.9135L27.2361 4.42278L26.4671 3.69481C25.8201 3.08226 25.6132 2.9667 25.1644 2.9667C24.6602 2.9667 24.4856 3.11221 21.9806 5.61964C19.4757 8.1272 19.3303 8.30196 19.3303 8.80672C19.3303 9.25596 19.4458 9.46307 20.0577 10.1107L20.7849 10.8804L20.2762 11.974C19.9963 12.5756 19.6531 13.4322 19.5135 13.8779L19.2597 14.6883L18.1596 14.6903C17.1811 14.6919 17.0212 14.7305 16.7131 15.0391C16.5226 15.2298 16.3666 15.4841 16.3666 15.6041C16.3666 15.7961 15.8625 15.8224 12.1844 15.8224C9.31325 15.8224 7.82011 15.8762 7.42128 15.9942C6.64606 16.2235 5.47694 17.3938 5.24789 18.1698C5.11664 18.6143 5.07628 23.4634 5.07628 38.7601V58.7689H4.28116C3.05757 58.7689 2.41388 59.0232 1.61086 59.8237C0.649203 60.7822 0.51259 61.3128 0.581602 63.8239C0.634526 65.7558 0.643417 65.8023 1.16009 66.8488C1.79249 68.1296 2.6116 68.9316 3.92184 69.5529L4.86459 70H35.5602H66.2557L67.1985 69.5529C68.5087 68.9316 69.3278 68.1296 69.9602 66.8488C70.4769 65.8023 70.4858 65.7558 70.5387 63.8239C70.6043 61.4317 70.4674 60.847 69.6207 59.9043C68.8982 59.0999 68.095 58.7689 66.8657 58.7689H66.044V38.7601C66.044 23.7109 66.0024 18.6124 65.8762 18.1907C65.7839 17.8824 65.4339 17.3245 65.0983 16.9509C64.1237 15.8658 63.8881 15.8224 58.9624 15.8224C55.2604 15.8224 54.7537 15.7961 54.7537 15.6041C54.7537 15.4841 54.5978 15.2298 54.4072 15.0391C54.0991 14.7305 53.9392 14.6919 52.9607 14.6903L51.8606 14.6883L51.6068 13.8779C51.4672 13.4322 51.124 12.5756 50.8441 11.974L50.3354 10.8804L51.0626 10.1107C51.6745 9.46307 51.79 9.25596 51.79 8.80672C51.79 8.30196 51.6446 8.1272 49.1397 5.61964C46.6347 3.11221 46.4601 2.9667 45.9559 2.9667C45.5072 2.9667 45.3002 3.08226 44.6545 3.69354L43.8868 4.42038L42.64 3.84061C41.9543 3.52161 41.0969 3.18129 40.7348 3.08438L40.0763 2.90807V1.80079C40.0763 0.813582 40.0387 0.655923 39.7298 0.346821L39.3835 0H35.5602H31.7368L31.3905 0.346821ZM37.8182 3.18949C37.8182 4.02807 37.8584 4.15889 38.2307 4.53156C38.4577 4.75873 38.7641 4.9445 38.9117 4.9445C39.4237 4.9445 41.2553 5.65241 42.5894 6.36597C44.1641 7.20823 44.3586 7.20188 45.3016 6.27867L45.9402 5.6534L47.5262 7.24553L49.1122 8.83766L48.4814 9.45742C47.5588 10.3638 47.5515 10.5979 48.3965 12.1811C49.1074 13.5128 49.8142 15.346 49.8142 15.858C49.8142 16.0058 49.9998 16.3125 50.2267 16.5396C50.599 16.9123 50.7297 16.9526 51.5674 16.9526H52.4956V19.2129V21.4733H51.5674C50.7297 21.4733 50.599 21.5135 50.2267 21.8862C49.9998 22.1134 49.8142 22.4201 49.8142 22.5678C49.8142 23.0798 49.1074 24.9131 48.3965 26.2447C47.5515 27.8279 47.5588 28.062 48.4814 28.9684L49.1122 29.5882L47.5262 31.1803L45.9402 32.7724L45.3016 32.1472C44.3586 31.224 44.1641 31.2176 42.5894 32.0599C41.2553 32.7734 39.4237 33.4813 38.9117 33.4813C38.7641 33.4813 38.4577 33.6671 38.2307 33.8943C37.8584 34.2669 37.8182 34.3978 37.8182 35.2363V36.1655H35.5602H33.3021V35.2363C33.3021 34.3978 33.2619 34.2669 32.8896 33.8943C32.6626 33.6671 32.3562 33.4813 32.2086 33.4813C31.6966 33.4813 29.865 32.7734 28.5309 32.0599C26.9562 31.2176 26.7617 31.224 25.8187 32.1472L25.1801 32.7724L23.5941 31.1803L22.0081 29.5882L22.6389 28.9684C23.5615 28.062 23.5688 27.8279 22.7238 26.2447C22.0129 24.9131 21.3061 23.0798 21.3061 22.5678C21.3061 22.4201 21.1205 22.1134 20.8936 21.8862C20.5213 21.5135 20.3906 21.4733 19.5529 21.4733H18.6247V19.2129V16.9526H19.5529C20.3906 16.9526 20.5213 16.9123 20.8936 16.5396C21.1205 16.3125 21.3061 16.0058 21.3061 15.858C21.3061 15.3455 22.0133 13.512 22.7262 12.1766C23.5676 10.6003 23.5612 10.4056 22.6389 9.46165L22.0143 8.8224L23.6048 7.23479L25.1954 5.64718L25.8145 6.27867C26.72 7.20216 26.9538 7.20951 28.5355 6.36357C29.8657 5.65199 31.6972 4.9445 32.2086 4.9445C32.3562 4.9445 32.6626 4.75873 32.8896 4.53156C33.2619 4.15889 33.3021 4.02807 33.3021 3.18949V2.26034H35.5602H37.8182V3.18949ZM34.0077 6.87314C27.9033 7.80073 23.5348 12.5267 23.1886 18.5772C22.8526 24.4518 26.7037 29.6831 32.5259 31.2604C34.0347 31.6691 36.9851 31.6907 38.4414 31.3038C45.6862 29.3785 49.6326 22.1659 47.2782 15.1529C46.1371 11.7535 43.1344 8.70274 39.7791 7.53344C37.9877 6.90916 35.582 6.63382 34.0077 6.87314ZM38.5474 9.50644C40.2534 10.0505 41.4146 10.7751 42.7606 12.1351C44.0877 13.4763 44.9462 14.951 45.4002 16.67C45.7322 17.9265 45.7293 20.5184 45.3949 21.7513C45.1057 22.8173 44.3305 24.4688 43.8343 25.0757L43.4879 25.4995L43.3986 25.0757C42.9364 22.8817 42.3503 21.6767 41.1528 20.4585L40.4654 19.7591L40.691 19.2388C41.357 17.703 41.3449 16.0835 40.6562 14.6102C40.0701 13.3564 39.2538 12.5292 37.9819 11.9C36.9743 11.4015 36.8409 11.3724 35.5602 11.3724C34.2794 11.3724 34.146 11.4015 33.1384 11.9C31.8538 12.5354 31.0538 13.3534 30.4322 14.6668C30.0265 15.524 29.986 15.7334 29.9905 16.9526C29.9944 18.0466 30.0564 18.4317 30.3253 19.036L30.6552 19.7774L30.0654 20.3504C28.8904 21.4919 28.325 22.6027 27.6963 25.005L27.5669 25.4995L26.9815 24.6019C24.9974 21.5594 24.9045 17.4895 26.7437 14.1742C27.3881 13.0128 29.2091 11.1558 30.3748 10.4715C31.3322 9.90934 32.7609 9.36955 33.7767 9.18603C35.016 8.96198 37.3272 9.11724 38.5474 9.50644ZM36.6022 13.7338C37.3775 13.9631 38.5466 15.1334 38.7756 15.9094C39.1666 17.234 38.8909 18.29 37.8936 19.2884C36.4658 20.7176 34.6545 20.7176 33.2267 19.2884C31.7989 17.8591 31.7989 16.0476 33.2267 14.6152C34.2167 13.6221 35.2831 13.3437 36.6022 13.7338ZM16.3666 19.2129V20.3431H13.326C10.2856 20.3431 10.2852 20.3431 9.93888 20.6899L9.59241 21.0366V38.4258V55.8151L9.93888 56.1618L10.2852 56.5086H35.5602H60.8351L61.1814 56.1618L61.5279 55.8151V38.4258V21.0366L61.1814 20.6899C60.8351 20.3431 60.8347 20.3431 57.7943 20.3431H54.7537V19.2129V18.0827H58.9234H63.0932L63.4395 18.4296L63.786 18.7762V38.7727V58.7689H35.5602H7.33434V38.7727V18.7762L7.68082 18.4296L8.02715 18.0827H12.1969H16.3666V19.2129ZM33.2315 22.0447C34.1497 22.4983 34.3147 22.5328 35.569 22.5328C36.842 22.5328 36.9784 22.5031 37.9682 22.0104L39.0178 21.488L39.5557 22.0104C39.8515 22.2977 40.3258 23.0022 40.6096 23.5759C41.1089 24.585 41.126 24.6704 41.1302 26.1895L41.1347 27.7598L40.0763 28.2849C38.4935 29.0703 37.4518 29.3058 35.5602 29.3058C33.6685 29.3058 32.6268 29.0703 31.044 28.2849L29.9856 27.7598L29.9902 26.2059C29.9946 24.7647 30.0269 24.5834 30.4367 23.7082C30.846 22.8346 31.9671 21.4046 32.1598 21.5106C32.2059 21.5358 32.6882 21.7763 33.2315 22.0447ZM16.3666 22.8217C16.3666 22.9418 16.5226 23.1961 16.7131 23.3868C17.0219 23.696 17.1794 23.7336 18.1656 23.7336H19.2717L19.4479 24.3928C19.5447 24.7553 19.8847 25.6135 20.2033 26.2999L20.7825 27.5479L20.0564 28.3164C19.4458 28.9628 19.3303 29.17 19.3303 29.6191C19.3303 30.1239 19.4757 30.2986 21.9806 32.8062C24.4856 35.3136 24.6602 35.4591 25.1644 35.4591C25.6132 35.4591 25.8201 35.3436 26.4671 34.731L27.2361 34.003L28.3286 34.5123C28.9295 34.7925 29.7853 35.136 30.2306 35.2758L31.0401 35.5298L31.042 36.631C31.0437 37.6106 31.0823 37.7706 31.3905 38.079L31.7368 38.4258H35.5602H39.3835L39.7298 38.079C40.0387 37.7699 40.0763 37.6122 40.0763 36.625V35.5178L40.7348 35.3414C41.0969 35.2445 41.9543 34.9042 42.64 34.5852L43.8868 34.0055L44.6545 34.7323C45.3002 35.3436 45.5072 35.4591 45.9559 35.4591C46.4601 35.4591 46.6347 35.3136 49.1397 32.8062C51.6446 30.2986 51.79 30.1239 51.79 29.6191C51.79 29.1699 51.6745 28.9628 51.0626 28.3152L50.3354 27.5454L50.8441 26.4518C51.124 25.8503 51.4672 24.9936 51.6068 24.5479L51.8606 23.7376L52.9607 23.7356C53.9392 23.7339 54.0991 23.6953 54.4072 23.3868C54.5978 23.1961 54.7537 22.9418 54.7537 22.8217C54.7537 22.6339 55.0691 22.6034 57.0118 22.6034H59.2698V38.4258V54.2482H35.5602H11.8505V38.4258V22.6034H14.1085C16.0512 22.6034 16.3666 22.6339 16.3666 22.8217ZM22.0118 40.8708C21.3191 41.0894 20.1377 42.3139 19.9253 43.0335C19.693 43.8204 19.693 48.8536 19.9253 49.6405C20.1544 50.4165 21.3235 51.5868 22.0987 51.8161C22.9604 52.071 25.7668 52.0378 26.5716 51.7633C27.6566 51.3933 28.786 49.8962 28.786 48.8282C28.786 48.6338 28.6076 48.5974 27.6569 48.5974C26.7327 48.5974 26.5279 48.6369 26.5279 48.8156C26.5279 48.9357 26.3719 49.19 26.1814 49.3807C25.8553 49.7072 25.7435 49.7276 24.2698 49.7276C22.7962 49.7276 22.6844 49.7072 22.3582 49.3807C22.0146 49.0369 22.0118 49.0121 22.0118 46.337C22.0118 43.6619 22.0146 43.6372 22.3582 43.2933C22.6844 42.9669 22.7962 42.9465 24.2698 42.9465C25.7435 42.9465 25.8553 42.9669 26.1814 43.2933C26.3719 43.4841 26.5279 43.7383 26.5279 43.8584C26.5279 44.0371 26.7327 44.0767 27.6569 44.0767C28.6076 44.0767 28.786 44.0402 28.786 43.8459C28.786 42.7778 27.6566 41.2808 26.5716 40.9108C25.7968 40.6465 22.8059 40.6203 22.0118 40.8708ZM30.2615 41.033L29.915 41.3797V46.6839V51.9879H31.044H32.1731V49.7276V47.4672H33.1181C34.2455 47.4672 34.8448 47.8081 35.6517 48.9086C36.1573 49.5979 36.6892 51.0022 36.6892 51.6473C36.6892 51.9789 36.7191 51.9879 37.8182 51.9879H38.9472L38.9451 51.5994C38.9393 50.5157 38.1525 48.3688 37.4372 47.4844L37.1662 47.1495L37.8851 46.4253C39.2905 45.0099 39.3081 43.1234 37.9289 41.7153C37.0313 40.7988 36.5291 40.6862 33.341 40.6862C30.6273 40.6862 30.6054 40.6886 30.2615 41.033ZM40.4227 41.033L40.0763 41.3797V46.6839V51.9879H41.2053H42.3343L42.3404 49.3391L42.3463 46.6902L43.6117 49.1844C44.7103 51.3498 44.9334 51.6983 45.3045 51.8277C45.7882 51.9965 46.2377 51.8728 46.5884 51.4744C46.716 51.3294 47.3319 50.1937 47.9569 48.9506L49.0936 46.6902L49.1011 49.3391L49.1085 51.9879H50.2376H51.3666V46.6839V41.3797L51.0201 41.033C50.6303 40.6427 50.027 40.5795 49.5987 40.8841C49.4456 40.993 48.5274 42.6777 47.5584 44.6278C46.5894 46.578 45.7628 48.1736 45.7214 48.1736C45.6801 48.1736 44.8535 46.578 43.8845 44.6278C42.9155 42.6777 41.9973 40.993 41.8442 40.8841C41.4159 40.5795 40.8125 40.6427 40.4227 41.033ZM36.3427 43.2933C36.5612 43.5119 36.6892 43.8015 36.6892 44.0767C36.6892 44.3519 36.5612 44.6415 36.3427 44.86C36.0091 45.1941 35.9262 45.2069 34.0846 45.2069H32.1731V44.0767V42.9465H34.0846C35.9262 42.9465 36.0091 42.9592 36.3427 43.2933ZM27.6569 61.8252C27.6569 62.263 27.7341 62.8827 27.8285 63.2026C28.0576 63.9786 29.2267 65.1489 30.0019 65.3782C30.8171 65.6192 40.3032 65.6192 41.1184 65.3782C41.8936 65.1489 43.0627 63.9786 43.2918 63.2026C43.3862 62.8827 43.4634 62.263 43.4634 61.8252V61.0293H55.5363H67.6093L67.9556 61.3761C68.2822 61.7028 68.3021 61.8136 68.3021 63.3022C68.3021 64.1707 68.2249 65.1431 68.1305 65.4629C67.9014 66.2389 66.7323 67.4092 65.9571 67.6385C65.1124 67.8883 6.00787 67.8883 5.16321 67.6385C4.38799 67.4092 3.21888 66.2389 2.98983 65.4629C2.89541 65.1431 2.81822 64.1707 2.81822 63.3022C2.81822 61.8136 2.83811 61.7028 3.16469 61.3761L3.51102 61.0293H15.584H27.6569V61.8252ZM41.2053 61.8126C41.2053 62.4561 41.1434 62.6581 40.8588 62.9428L40.5125 63.2896H35.5602H30.6078L30.2615 62.9428C29.9769 62.6581 29.915 62.4561 29.915 61.8126V61.0293H35.5602H41.2053V61.8126Z" fill="#6A6A6A"/>
</svg>
