<svg width="59" height="70" viewBox="0 0 59 70" fill="none" xmlns="http://www.w3.org/2000/svg">
<path fill-rule="evenodd" clip-rule="evenodd" d="M25.432 0.0829812C18.7029 0.605557 13.1265 1.925 8.72052 4.03706C4.3518 6.13133 1.65926 8.8032 1.01663 11.6816C0.832965 12.5039 0.83692 57.4754 1.02072 58.2983C2.11222 63.1877 9.16448 67.3646 19.2961 69.1228C26.0496 70.2946 33.9338 70.2923 40.7009 69.1163C45.8164 68.2273 50.9283 66.3944 53.9808 64.3544C56.639 62.5781 58.3678 60.4242 58.8428 58.2968C59.0254 57.4788 59.0276 12.4922 58.845 11.6746C57.5993 6.09479 48.8395 1.60472 36.6128 0.278707C34.2704 0.0246739 27.6703 -0.0908457 25.432 0.0829812ZM33.1358 2.95893C42.7428 3.48396 50.7371 6.00336 54.3466 9.64332C56.6372 11.9533 56.6379 14.2204 54.3485 16.5095C47.547 23.3105 27.0131 25.4486 13.1604 20.7985C11.1844 20.1351 8.12098 18.609 6.81664 17.638C4.24558 15.7241 3.29726 13.7481 4.0221 11.8149C5.70332 7.33005 15.2038 3.57526 26.4191 2.96303C29.3273 2.80426 30.296 2.80371 33.1358 2.95893ZM6.41085 20.8881C14.7965 26.0534 30.3405 27.6818 43.4304 24.7663C47.623 23.8325 52.3947 21.8119 54.8564 19.928L56.1242 18.9578L56.0836 23.7931L56.043 28.6284L55.6759 29.3383C55.1416 30.3716 54.6657 30.9316 53.5524 31.838C50.0892 34.657 44.4293 36.5764 36.7478 37.5371C33.9151 37.8913 25.9512 37.8914 23.114 37.5373C14.1479 36.4183 7.34555 33.7312 4.76917 30.2908C3.78921 28.9822 3.75199 28.7346 3.75199 23.5152V18.9432L4.60419 19.6217C5.07297 19.9949 5.8859 20.5647 6.41085 20.8881ZM4.67427 34.2514C5.752 35.1326 6.61075 35.6674 8.33969 36.5338C19.0754 41.9137 37.9964 42.2636 49.9071 37.3026C51.9298 36.4601 54.1743 35.1562 55.4294 34.0943L56.043 33.5752L56.084 34.6543C56.1067 35.2479 56.1067 37.4273 56.084 39.4975L56.043 43.2614L55.6504 44.0101C54.1726 46.8293 49.539 49.4427 43.2941 50.9791C35.7936 52.8245 26.2979 52.9853 18.478 51.3994C11.2916 49.942 5.84172 47.1156 4.20659 43.9982L3.82016 43.2614L3.77953 38.4367C3.75731 35.7832 3.7734 33.612 3.81553 33.612C3.85766 33.612 4.24408 33.8997 4.67427 34.2514ZM6.58238 50.1921C10.4984 52.5758 16.0726 54.2356 22.9146 55.0552C25.836 55.4051 34.0276 55.4049 36.9537 55.0548C45.0591 54.0852 51.4585 51.9027 55.264 48.8101L56.1211 48.1134L56.0821 52.9417L56.043 57.7698L55.6439 58.591C55.1612 59.5842 53.8361 60.9507 52.4961 61.8372C43.8779 67.5385 25.718 68.8127 13.1604 64.5974C11.1844 63.934 8.12098 62.4078 6.81664 61.4369C5.50657 60.4617 4.70154 59.5713 4.19663 58.5392L3.82016 57.7698L3.78103 52.9417L3.74203 48.1134L4.59914 48.8101C5.07065 49.1932 5.96307 49.8151 6.58238 50.1921Z" fill="#6A6A6A"/>
</svg>
