<svg width="70" height="68" viewBox="0 0 70 68" fill="none" xmlns="http://www.w3.org/2000/svg">
<path fill-rule="evenodd" clip-rule="evenodd" d="M32.9534 0.307474C29.8742 0.909356 27.2315 2.68098 25.5322 5.28246C24.2767 7.20442 23.779 8.9409 23.779 11.3995C23.779 13.8521 24.2778 15.5983 25.5216 17.4984C28.9526 22.7403 35.9363 24.2464 41.1222 20.8629C47.1491 16.9309 48.0423 8.50572 42.9697 3.43616C41.5063 1.97366 39.8259 1.0203 37.6871 0.439312C36.5853 0.139923 34.1562 0.0723104 32.9534 0.307474ZM36.8901 2.57611C42.0721 3.6733 45.2873 9.27473 43.5691 14.2122C43.0711 15.6436 42.4258 16.6716 41.3512 17.7454C37.7736 21.3208 32.2231 21.3201 28.6261 17.7437C25.0822 14.2199 25.087 8.58688 28.637 5.03897C30.8296 2.84783 33.8776 1.93823 36.8901 2.57611ZM30.1286 8.74046C28.6656 9.28771 27.9491 10.6984 28.3704 12.202C28.8781 14.0138 31.1615 14.7857 32.706 13.6675C33.4561 13.1244 33.8014 12.3853 33.7988 11.3287C33.7961 10.3163 33.414 9.5919 32.5982 9.05241C31.983 8.64546 30.7865 8.49443 30.1286 8.74046ZM38.0381 8.74046C36.5751 9.28771 35.8586 10.6984 36.2799 12.202C36.7876 14.0138 39.071 14.7857 40.6155 13.6675C41.3656 13.1244 41.7109 12.3853 41.7082 11.3287C41.7056 10.3163 41.3235 9.5919 40.5077 9.05241C39.8925 8.64546 38.696 8.49443 38.0381 8.74046ZM31.4648 11.0399C31.84 11.4917 31.2889 12.1858 30.7995 11.8778C30.3105 11.5699 30.4847 10.8349 31.0467 10.8349C31.183 10.8349 31.3711 10.9271 31.4648 11.0399ZM39.3742 11.0399C39.7495 11.4917 39.1984 12.1858 38.709 11.8778C38.22 11.5699 38.3942 10.8349 38.9562 10.8349C39.0925 10.8349 39.2806 10.9271 39.3742 11.0399ZM18.3911 14.2888C10.8836 19.4219 6.18998 27.7302 5.67756 36.7936L5.58095 38.5012H6.73206H7.88317V37.8104C7.88317 34.418 8.9744 29.9732 10.6417 26.5736C12.5773 22.6274 15.6492 18.9847 19.0351 16.6203C21.0898 15.1854 20.9491 15.4245 20.341 14.402C20.0533 13.9184 19.7509 13.5214 19.669 13.5198C19.5871 13.5181 19.012 13.8642 18.3911 14.2888ZM50.2996 14.838L49.7269 15.7358L50.9598 16.6054C52.4863 17.6822 54.7592 19.8099 55.9233 21.2518C58.6823 24.6696 60.7364 28.9487 61.5438 32.9607C61.8558 34.5107 62.1197 36.7235 62.1197 37.7899V38.5012H63.2496H64.3795V37.8104C64.3795 37.4304 64.3122 36.4618 64.2298 35.6577C63.5232 28.7622 60.5635 22.5276 55.6938 17.6772C54.3462 16.3348 51.3549 13.9403 51.0256 13.9403C50.9413 13.9403 50.6146 14.3443 50.2996 14.838ZM33.5184 27.2934C33.363 27.3325 32.8928 27.4311 32.4736 27.5127C31.3544 27.7302 31.0468 28.097 31.0464 29.2139L31.046 30.1025L30.2576 30.5142L29.4692 30.926L28.7011 30.5495C27.5607 29.9905 27.2592 30.0391 26.4349 30.9141C25.1929 32.2324 24.2216 33.9087 23.8228 35.4219C23.5887 36.3097 23.7649 36.6564 24.7256 37.1983L25.4913 37.6301V38.5012V39.3722L24.7256 39.804C23.7649 40.3459 23.5887 40.6926 23.8228 41.5805C24.2267 43.1127 25.2277 44.8396 26.4359 46.0882C27.2802 46.9608 27.5696 47.0074 28.7011 46.4528L29.4692 46.0764L30.2576 46.4881L31.046 46.8999L31.0464 47.7506C31.0468 48.8534 31.2687 49.16 32.2892 49.4679C33.2996 49.7726 36.2484 49.8093 37.4586 49.5322C38.6606 49.2568 38.9562 48.9109 38.9562 47.7791V46.8812L39.8002 46.4781L40.6441 46.0749L41.3376 46.4521C42.3869 47.0228 42.7423 46.9648 43.568 46.0882C44.8099 44.77 45.7812 43.0936 46.1801 41.5805C46.4141 40.6926 46.238 40.3459 45.2773 39.804L44.5116 39.3722V38.5012V37.6301L45.2773 37.1983C46.238 36.6564 46.4141 36.3097 46.1801 35.4219C45.7761 33.8897 44.7752 32.1628 43.567 30.9141C42.7209 30.0397 42.3789 29.9839 41.3376 30.5502L40.6441 30.9274L39.8002 30.5243L38.9562 30.1211V29.2611C38.9562 28.1711 38.7327 27.8456 37.7857 27.5565C37.0606 27.335 34.0817 27.1514 33.5184 27.2934ZM36.2549 29.5555C36.6236 29.6292 36.6963 29.7091 36.6963 30.0404C36.6963 31.0709 37.1839 31.6556 38.7586 32.5138C40.0296 33.2063 40.8715 33.3225 41.6612 32.9146C42.0698 32.7033 42.1095 32.7078 42.4219 33.0012C42.7471 33.3065 43.7584 35.0944 43.7584 35.364C43.7584 35.4402 43.5694 35.5808 43.3385 35.6765C43.1075 35.7721 42.7611 35.9962 42.5685 36.1745C42.2276 36.4904 42.2184 36.5513 42.2184 38.5012C42.2184 40.4511 42.2276 40.5119 42.5685 40.8278C42.7611 41.0061 43.1075 41.2302 43.3385 41.3258C43.5694 41.4215 43.7584 41.5625 43.7584 41.6392C43.7584 41.8753 42.9125 43.3799 42.5063 43.8662L42.1221 44.326L41.6464 44.0802C40.8847 43.6866 39.7923 43.8417 38.6737 44.5026C38.1688 44.801 37.6045 45.1765 37.4196 45.3373C37.0113 45.6924 36.6963 46.3938 36.6963 46.9483C36.6963 47.2949 36.6278 47.3723 36.2549 47.4468C35.6871 47.5603 34.3157 47.5603 33.7479 47.4468C33.375 47.3723 33.3065 47.2949 33.3065 46.9483C33.3065 46.3959 32.9928 45.6948 32.5832 45.3315C32.3984 45.1675 31.8341 44.7917 31.3292 44.4964C30.219 43.847 29.1142 43.6886 28.3713 44.0725C27.926 44.3026 27.8995 44.3004 27.5809 44.0011C27.2558 43.6958 26.2445 41.9079 26.2445 41.6383C26.2445 41.5621 26.4335 41.4215 26.6644 41.3258C26.8953 41.2302 27.2418 41.0061 27.4343 40.8278C27.7753 40.5119 27.7844 40.4511 27.7844 38.5012C27.7844 36.5513 27.7753 36.4904 27.4343 36.1745C27.2418 35.9962 26.8953 35.7721 26.6644 35.6765C26.4335 35.5808 26.2445 35.4398 26.2445 35.3632C26.2445 35.127 27.0904 33.6224 27.4966 33.1362C27.8784 32.6793 27.8836 32.6777 28.3268 32.9068C29.112 33.3126 29.9966 33.2049 31.1879 32.5587C31.7705 32.2427 32.3984 31.8466 32.5832 31.6785C32.9965 31.3026 33.3065 30.603 33.3065 30.0463C33.3065 29.7248 33.3801 29.6139 33.6243 29.5669C34.1414 29.4674 35.7785 29.4602 36.2549 29.5555ZM33.6763 33.0029C32.7825 33.2274 31.5105 33.9797 30.893 34.6492C30.5759 34.9931 30.1152 35.6988 29.8694 36.2173C29.4646 37.0711 29.4224 37.2875 29.4224 38.5085C29.4224 39.781 29.4521 39.9167 29.9499 40.9234C30.5852 42.2082 31.403 43.0084 32.7161 43.63C33.5694 44.034 33.788 44.0768 35.0014 44.0768C36.2148 44.0768 36.4335 44.034 37.2867 43.63C38.5998 43.0084 39.4176 42.2082 40.0529 40.9234C40.5513 39.9155 40.5804 39.7821 40.5804 38.5012C40.5804 37.2202 40.5513 37.0868 40.0529 36.079C39.0985 34.149 37.4029 33.0165 35.3191 32.9174C34.7171 32.8887 33.9778 32.9273 33.6763 33.0029ZM36.0443 35.2851C37.2582 35.6435 38.3912 37.1962 38.3912 38.5012C38.3912 40.2502 36.7515 41.8889 35.0014 41.8889C33.2513 41.8889 31.6116 40.2502 31.6116 38.5012C31.6116 37.614 31.9348 36.8982 32.6661 36.1658C33.657 35.1735 34.7242 34.8952 36.0443 35.2851ZM9.15434 40.9623C5.21132 41.7981 2.02238 44.5053 0.71082 48.1297C-0.822208 52.3668 0.161393 56.8738 3.30471 60.0154C8.37738 65.0849 16.8078 64.1923 20.7422 58.1691C21.9977 56.2471 22.4954 54.5106 22.4954 52.052C22.4954 49.598 21.9958 47.851 20.7516 45.9531C19.1491 43.5089 16.8867 41.8894 13.9586 41.0909C12.8598 40.7913 10.2864 40.7224 9.15434 40.9623ZM56.6819 40.9599C53.6027 41.5618 50.9599 43.3334 49.2607 45.9349C48.0052 47.8569 47.5075 49.5934 47.5075 52.052C47.5075 54.5045 48.0063 56.2508 49.2501 58.1508C52.6811 63.3928 59.6648 64.8989 64.8507 61.5154C70.8776 57.5834 71.7708 49.1582 66.6981 44.0886C65.2347 42.6261 63.5544 41.6728 61.4156 41.0918C60.3138 40.7924 57.8847 40.7248 56.6819 40.9599ZM13.1797 43.2286C14.7739 43.5601 16.3901 44.4569 17.6483 45.7078C21.195 49.2344 21.1864 54.8485 17.6288 58.4039C14.0712 61.9593 8.45365 61.9679 4.92488 58.4234C1.34753 54.8299 1.34273 49.266 4.91401 45.6969C7.11991 43.4925 10.1285 42.5941 13.1797 43.2286ZM60.6186 43.2286C65.8006 44.3258 69.0158 49.9272 67.2976 54.8646C66.7995 56.2961 66.1542 57.3241 65.0797 58.3979C61.502 61.9733 55.9515 61.9726 52.3546 58.3962C48.8107 54.8724 48.8155 49.2393 52.3654 45.6914C54.5581 43.5003 57.606 42.5907 60.6186 43.2286ZM57.771 45.4278C57.098 45.6336 56.2336 46.5577 56.0393 47.2791C55.5237 49.1925 56.8161 50.8553 58.8145 50.8498C60.3992 50.8454 61.4779 49.762 61.482 48.1705C61.4861 46.576 60.507 45.459 59.0046 45.3443C58.5816 45.312 58.0265 45.3496 57.771 45.4278ZM59.148 47.74C59.5232 48.1918 58.9721 48.8859 58.4827 48.5779C57.9937 48.27 58.1679 47.535 58.7299 47.535C58.8662 47.535 59.0543 47.6272 59.148 47.74ZM10.3141 49.3883C9.18301 49.7142 8.30464 51.2315 8.50675 52.51C8.7244 53.8863 9.79713 54.7987 11.2021 54.8024C12.7049 54.8062 13.8308 53.9032 14.037 52.5289C14.3565 50.4001 12.4332 48.7775 10.3141 49.3883ZM11.691 51.6923C12.0663 52.1442 11.5152 52.8382 11.0258 52.5302C10.5368 52.2224 10.711 51.4874 11.273 51.4874C11.4093 51.4874 11.5974 51.5795 11.691 51.6923ZM53.8571 52.216C52.3941 52.7633 51.6776 54.174 52.0989 55.6775C52.6065 57.4894 54.89 58.2612 56.4344 57.143C57.1846 56.6 57.5299 55.8609 57.5272 54.8042C57.5245 53.7919 57.1425 53.0675 56.3267 52.528C55.7114 52.121 54.515 51.97 53.8571 52.216ZM61.7666 52.216C60.3036 52.7633 59.5871 54.174 60.0084 55.6775C60.516 57.4894 62.7995 58.2612 64.3439 57.143C65.0941 56.6 65.4394 55.8609 65.4367 54.8042C65.434 53.7919 65.052 53.0675 64.2362 52.528C63.6209 52.121 62.4245 51.97 61.7666 52.216ZM55.1932 54.5154C55.5685 54.9673 55.0174 55.6613 54.528 55.3533C54.039 55.0454 54.2132 54.3105 54.7751 54.3105C54.9114 54.3105 55.0996 54.4026 55.1932 54.5154ZM63.1027 54.5154C63.478 54.9673 62.9269 55.6613 62.4375 55.3533C61.9485 55.0454 62.1226 54.3105 62.6846 54.3105C62.8209 54.3105 63.0091 54.4026 63.1027 54.5154ZM20.3071 62.6256C19.6474 63.7239 19.5348 63.5613 21.7244 64.6751C29.9011 68.8352 39.7663 68.8876 47.9798 64.8145C50.4998 63.5647 50.3639 63.738 49.6957 62.6256L49.1367 61.6952L47.1183 62.7012C42.9106 64.7987 38.5939 65.7396 34.0127 65.5579C29.9604 65.3971 26.5371 64.518 22.8845 62.6998L20.8662 61.6952L20.3071 62.6256Z" fill="#6A6A6A"/>
</svg>
