<svg width="70" height="70" viewBox="0 0 70 70" fill="none" xmlns="http://www.w3.org/2000/svg">
<path fill-rule="evenodd" clip-rule="evenodd" d="M55.3688 0.140971C54.9961 0.246274 53.3607 1.8088 47.9818 7.19904L41.0732 14.122H25.1179H9.16261L9.12241 8.82403L9.08207 3.52591L8.75923 3.26369C8.11354 2.73895 6.1468 3.01052 4.37615 3.86901C3.10678 4.48449 1.55861 6.04317 0.908816 7.3598C-0.0791348 9.36194 -0.0238916 7.76427 0.0187714 33.137L0.0571955 55.9275L0.37922 56.8886C1.02286 58.809 2.56898 60.6239 4.28316 61.4711C6.04192 62.3405 5.30106 62.3074 23.0285 62.3096L39.1627 62.3116L36.124 65.3664C32.7711 68.7369 32.6047 68.9861 33.2637 69.6477L33.6146 70H51.4717H69.3287L69.6643 69.6629L70 69.326V51.4628C70 40.2897 69.9508 33.507 69.8685 33.3527C69.7961 33.217 69.5563 33.0309 69.3356 32.939C68.7594 32.6994 68.4119 32.9252 66.7182 34.6401L65.2825 36.0939L65.2141 25.4549L65.1457 14.816L64.8345 14.5033C64.5263 14.1938 64.4817 14.1902 60.3992 14.1486L56.2751 14.1066L59.3037 11.0596C61.2662 9.0853 62.4065 7.83278 62.5426 7.50204C62.8381 6.78441 62.8099 5.67797 62.4789 4.99137C62.3157 4.65281 61.3617 3.58756 60.1176 2.35467C58.4776 0.729269 57.9134 0.253413 57.4856 0.134106C56.8356 -0.0471198 56.0247 -0.0445113 55.3688 0.140971ZM58.8161 3.9334C61.2044 6.33148 61.1894 6.24897 59.5425 7.92861L58.3835 9.11083L56.0214 6.73938L53.6595 4.36779L54.837 3.2041C56.5099 1.55055 56.4277 1.53545 58.8161 3.9334ZM7.09934 20.918C7.09934 36.4549 7.10248 36.6411 7.37282 36.9125C7.89325 37.4351 8.74706 37.2098 8.99934 36.4831C9.10423 36.1809 9.15044 33.0314 9.15044 26.1833V16.3187H24.0169H38.8833L35.9133 19.3119C34.2798 20.9582 32.9433 22.4072 32.9433 22.5318C32.9433 23.2794 33.6884 23.864 34.3197 23.6121C34.5028 23.5389 37.8519 20.262 41.7621 16.3298L48.8717 9.18044L51.2319 11.5474L53.5922 13.9143L42.9611 24.589L32.3298 35.2639L29.9719 32.8995L27.6141 30.5352L29.8002 28.3257C32.1828 25.9175 32.3094 25.692 31.6504 25.0306C30.974 24.3512 30.7972 24.4607 27.9117 27.3471L25.2589 30.0008L23.5217 34.9325L21.7847 39.8643L19.8307 39.933C17.9828 39.9979 17.8626 40.0192 17.6158 40.3258C17.2712 40.7538 17.2854 41.2826 17.6522 41.6747L17.9496 41.9924H32.5632H47.1768L47.5123 41.6553C47.915 41.2511 47.9421 40.7665 47.5867 40.3258L47.3253 40.0016L36.9687 39.933L26.6122 39.8643L29.6752 38.787L32.7382 37.7097L43.4042 27.0142L54.0704 16.3187H58.6166H63.163V27.2661V38.2135L55.6422 45.7691C49.1475 52.2941 48.1215 53.3794 48.1215 53.725C48.1215 54.2664 48.6057 54.7605 49.1364 54.7605C49.5101 54.7605 50.5727 53.7405 58.7527 45.528L67.9489 36.2955V40.846V45.3965L66.8008 45.4448C65.4547 45.5017 65.0773 45.7274 65.0773 46.4756C65.0773 47.2715 65.4375 47.4841 66.7866 47.4841H67.9489V49.0629V50.6418H66.8295C65.5146 50.6418 65.0773 50.9022 65.0773 51.6855C65.0773 52.422 65.5708 52.7012 66.8734 52.7012H67.9489V54.28V55.8589H66.7866C65.4375 55.8589 65.0773 56.0714 65.0773 56.8673C65.0773 57.6155 65.4547 57.8413 66.8008 57.8981L67.9489 57.9464V59.4285V60.9106L66.8008 60.9589C65.4547 61.0157 65.0773 61.2414 65.0773 61.9897C65.0773 62.7856 65.4375 62.9981 66.7866 62.9981H67.9489V65.4694V67.9406H52.1919H36.4348L41.7996 62.5479C44.8548 59.4768 47.1643 57.0495 47.1643 56.9099C47.1643 56.6198 46.912 56.1066 46.6994 55.9639C46.6167 55.9085 46.3379 55.8622 46.0798 55.8609C45.6557 55.859 45.399 56.0699 43.4081 58.0556L41.2057 60.2522H24.1812C5.84843 60.2522 6.42985 60.2735 5.02019 59.5514C4.21507 59.1391 3.1128 57.9795 2.67988 57.0897C1.68919 55.0537 1.98278 52.8295 3.48802 50.9666C4.39488 49.8442 6.36736 48.857 7.70277 48.857C8.15251 48.857 8.41642 48.7691 8.69838 48.5257L9.08207 48.1943V44.0674C9.08207 40.0018 9.07756 39.9361 8.78206 39.6393C8.41355 39.2694 7.75186 39.2453 7.37459 39.5881C7.1126 39.8262 7.09934 40.0052 7.09934 43.3126V46.787L6.51819 46.9374C4.85132 47.3685 3.89933 47.844 2.75782 48.8161L2.03993 49.4274V30.0838C2.03993 16.7157 2.08602 10.4902 2.18884 9.93102C2.46096 8.45306 3.41007 6.96015 4.59985 6.13818C5.3068 5.64983 6.32962 5.21406 6.79167 5.20445L7.09934 5.198V20.918ZM54.6156 8.21733L56.9361 10.5502L55.9841 11.5134L55.032 12.4767L52.6717 10.1098L50.3113 7.74285L51.2296 6.81366C51.7347 6.30265 52.1811 5.88446 52.2215 5.88446C52.262 5.88446 53.3394 6.9342 54.6156 8.21733ZM30.1705 36.3899C30.0786 36.4484 29.4269 36.6901 28.7223 36.9271L27.4411 37.3579L26.4782 36.3912L25.5153 35.4244L26.0354 33.9588L26.5555 32.4932L28.4465 34.3883C29.7257 35.6702 30.2834 36.3178 30.1705 36.3899ZM55.1996 55.2772C49.6218 60.8775 49.3522 61.1714 49.3522 61.6513C49.3522 62.0313 49.4404 62.224 49.7125 62.4389C50.064 62.7166 50.2123 62.7235 55.8594 62.7235C59.9715 62.7235 61.7472 62.6772 61.9955 62.5636C62.2166 62.4625 62.3978 62.2227 62.4883 61.9114C62.5811 61.5924 62.6168 59.3992 62.5896 55.6751L62.5476 49.9309L62.2248 49.6685C62.0473 49.5242 61.7097 49.4061 61.4745 49.4061C61.0935 49.4061 60.4111 50.0447 55.1996 55.2772ZM60.5649 56.8199V60.6641H56.7029H52.8408L56.6678 56.8199C58.7726 54.7056 60.5105 52.9757 60.5298 52.9757C60.549 52.9757 60.5649 54.7056 60.5649 56.8199Z" fill="#6A6A6A"/>
</svg>
