<svg width="70" height="70" viewBox="0 0 70 70" fill="none" xmlns="http://www.w3.org/2000/svg">
<path fill-rule="evenodd" clip-rule="evenodd" d="M52.187 0.103483C51.386 0.15217 50.7845 0.256519 50.6471 0.370304C50.3709 0.599242 50.1949 1.2494 50.0681 2.50843C49.9358 3.82434 49.8882 3.91105 49.098 4.27661L48.4027 4.59813L47.1169 3.79795C45.5682 2.83419 45.1173 2.76937 44.5063 3.4224C42.9869 5.0463 42.0869 6.1062 42.0059 6.36673C41.8863 6.75185 42.0415 7.03946 43.1091 8.41131L43.9778 9.52755L43.76 10.0524C43.6402 10.3411 43.5259 10.5948 43.5061 10.6162C43.4863 10.6376 42.3453 10.1606 40.9705 9.55627C39.5957 8.95192 38.3582 8.45753 38.2205 8.45753C37.6509 8.45753 37.2679 9.13942 35.263 13.7228L33.2292 18.3727L33.1939 10.1766C33.1554 1.25624 33.1888 1.62235 32.3961 1.42377C32.0107 1.32722 31.3169 1.64027 31.1911 1.96754C31.1444 2.08925 31.1061 3.25241 31.1061 4.55218V6.91541L30.0445 7.00937C25.9817 7.3685 21.6283 9.11535 18.4317 11.6688C16.0818 13.5461 13.4362 16.6804 13.4362 17.5872C13.4362 18.1081 13.9411 18.5778 14.5012 18.5778C14.8802 18.5778 15.0264 18.4501 15.7136 17.518C18.6723 13.5048 22.1532 11.0512 26.809 9.69713C27.7455 9.42471 30.1541 9.00704 30.7979 9.0054L31.1061 9.00458V30.8863V52.7681H27.8051C23.1097 52.7681 23.1615 52.805 23.1615 49.461C23.1615 47.8617 23.1148 47.2919 22.9662 47.0801C22.8587 46.9269 22.2886 46.5162 21.6992 46.1675C17.0697 43.4286 13.6299 38.5574 12.4728 33.1017C12.1131 31.4058 11.9776 28.353 12.1894 26.7151C12.2769 26.0382 12.5063 24.8444 12.6992 24.0622C13.0849 22.4984 13.0383 22.1714 12.3874 21.8752C11.9203 21.6628 11.7432 21.6836 11.3434 21.9976C11.0641 22.2168 10.9245 22.5659 10.6461 23.7413C10.1021 26.0369 9.96761 27.4283 10.0542 29.8606C10.2083 34.186 11.4063 37.8695 13.8591 41.5594C15.0604 43.3667 17.8463 46.1301 19.7029 47.3561L21.1069 48.2832V50.0226C21.1069 52.0282 21.2818 52.7171 22.005 53.5606C22.2649 53.8637 22.7546 54.2457 23.0934 54.4094L23.7094 54.7071V57.4698C23.7094 60.4864 23.8414 61.3389 24.4763 62.4204C25.5876 64.3139 27.6001 65.3501 30.1659 65.3501H31.1061V67.318C31.1061 68.9912 31.142 69.329 31.3458 69.5741C31.7115 70.0139 32.3365 70.0804 32.7862 69.7273L33.1607 69.4331V56.8518C33.1607 44.3409 33.1622 44.271 33.4341 44.3572C33.8226 44.4803 43.5843 48.7699 43.6695 48.855C43.7082 48.8937 43.6865 49.2123 43.6211 49.5631C43.5158 50.129 43.4451 50.2237 42.9946 50.4027L42.4868 50.6044L41.4454 49.8856C39.9502 48.8536 39.8577 48.8707 38.2807 50.4683C36.7113 52.0583 36.6928 52.1573 37.6972 53.5853C38.3787 54.5541 38.3939 54.5967 38.2421 55.1029C38.0703 55.675 38.0609 55.6798 36.5851 55.9313C35.0114 56.1996 34.9414 56.3083 34.9414 58.4875C34.9414 60.7927 34.9804 60.85 36.7703 61.1718L38.0579 61.4032L38.2624 61.923L38.4669 62.4429L37.7314 63.5112C37.3213 64.107 36.996 64.7317 36.996 64.9232C36.996 65.4273 39.5377 67.9486 40.0459 67.9486C40.2603 67.9486 40.8511 67.6485 41.4831 67.219L42.5564 66.4892L43.0294 66.7016C43.2895 66.8184 43.5206 66.924 43.5429 66.9361C43.5652 66.9483 43.6834 67.5019 43.8056 68.1664C44.134 69.9519 44.2029 70 46.4227 70C48.6607 70 48.7872 69.926 49.0388 68.4699C49.3141 66.8764 49.3 66.9061 49.8698 66.7184C50.3888 66.5473 50.4074 66.5538 51.3928 67.2469C52.8485 68.2709 52.9475 68.2507 54.5718 66.6001C55.3917 65.7668 55.8986 65.1429 55.8986 64.9671C55.8986 64.8106 55.5595 64.1881 55.145 63.5839L54.3914 62.4851L54.6035 61.9556L54.8157 61.4262L55.9855 61.2444C56.6949 61.1343 57.2854 60.9605 57.4858 60.8032C57.8067 60.5512 57.8163 60.4885 57.8163 58.654C57.8163 56.344 57.7764 56.2704 56.3781 55.9965C55.4765 55.8199 55.6807 55.8075 59.8024 55.7879C62.959 55.773 64.2657 55.7206 64.4717 55.6011C64.6291 55.5098 65.7807 54.3492 67.0311 53.0222C68.7735 51.1728 69.3239 50.5024 69.3881 50.1502C69.4342 49.8976 69.4536 45.7315 69.4313 40.8922L69.3907 32.0934L69.0064 31.7634L68.622 31.4334H62.5361H56.45L56.7991 30.647C56.9912 30.2146 57.4622 29.1389 57.8459 28.2568L58.5435 26.6529L57.9766 25.189C57.6647 24.3838 57.424 23.7199 57.4417 23.7138C57.4593 23.7076 57.8174 23.5402 58.2372 23.3418L59.0006 22.9809L60.0864 23.6634C61.6911 24.6722 61.9823 24.7809 62.441 24.5421C62.7939 24.3585 65.1108 21.8716 65.3852 21.3821C65.5958 21.0063 65.3953 20.5781 64.4155 19.3108L63.4789 18.0992L63.7551 17.3346L64.0313 16.5699L65.3949 16.2629C67.0798 15.8835 67.3482 15.7641 67.5312 15.312C67.7135 14.8615 67.5195 11.2524 67.2899 10.824C67.0904 10.4519 66.972 10.4159 65.1631 10.1788C64.3493 10.072 63.6708 9.96423 63.6552 9.9392C63.6397 9.91404 63.4854 9.58184 63.3127 9.20096L62.9984 8.50827L63.8317 7.18757C64.3246 6.40653 64.6651 5.71452 64.6651 5.49392C64.6651 5.10142 64.2058 4.61099 62.2987 2.96671C61.6482 2.40586 61.257 2.16652 60.9906 2.16652C60.7298 2.16652 60.2138 2.47054 59.3476 3.13438L58.0848 4.1021L57.3022 3.84171L56.5197 3.58132L56.1538 2.02416C55.634 -0.187818 55.7835 -0.115471 52.187 0.103483ZM54.384 3.51335C54.547 4.21643 54.7541 4.91118 54.8443 5.05711C54.9357 5.20494 55.342 5.41815 55.7617 5.53864C56.176 5.65762 56.8741 5.90407 57.3128 6.08651C57.8152 6.29534 58.2209 6.38369 58.4086 6.32515C58.5725 6.27414 59.205 5.84923 59.8141 5.38096L60.9214 4.52975L61.6244 5.13438L62.3273 5.739L61.5808 6.89435C61.1703 7.52974 60.7988 8.19112 60.7554 8.36399C60.701 8.58034 60.8709 9.04957 61.301 9.87041C61.6445 10.5262 61.9256 11.1439 61.9256 11.2432C61.9256 11.6713 62.4884 11.9272 63.8131 12.1017C64.5454 12.1981 65.2216 12.2792 65.3157 12.2819C65.4353 12.2853 65.4869 12.5656 65.4869 13.2116V14.1364L64.0829 14.4482C63.2918 14.6238 62.5804 14.8619 62.4533 14.9936C62.3292 15.122 62.1232 15.5945 61.9956 16.0437C61.8679 16.4927 61.6459 17.0903 61.502 17.3716C61.0859 18.186 61.1606 18.4654 62.1364 19.7421L63.0319 20.9141L62.766 21.2845C62.6199 21.4883 62.3435 21.801 62.1519 21.9796L61.8034 22.3042L60.5827 21.5352C59.9112 21.1122 59.2299 20.766 59.0687 20.766C58.9075 20.766 58.3522 20.9814 57.8348 21.2447C57.3173 21.508 56.8339 21.7234 56.7604 21.7234C56.6501 21.7234 56.3119 20.9736 55.8269 19.654C55.7661 19.4887 55.9096 19.3514 56.3809 19.1235C57.3628 18.649 58.5694 17.4518 59.0517 16.4734C60.5395 13.4561 59.3588 9.98337 56.3383 8.49295C55.3157 7.98844 55.2672 7.97887 53.7142 7.97887C52.2246 7.97887 52.0787 8.00403 51.2246 8.40802C49.7193 9.12014 48.6039 10.3208 48.0875 11.7848C47.9504 12.1737 47.7871 12.4819 47.7249 12.4694C47.2448 12.374 45.4885 11.515 45.4885 11.3757C45.4885 11.2793 45.6426 10.8526 45.8309 10.4274C46.0193 10.0022 46.1734 9.50156 46.1734 9.31489C46.1734 9.10468 45.8307 8.53726 45.273 7.82433L44.3727 6.67307L44.9433 5.99255C45.2572 5.61824 45.5384 5.31203 45.5681 5.31203C45.598 5.31203 46.1678 5.65051 46.8344 6.06421C47.5011 6.47792 48.1998 6.8164 48.3872 6.8164C48.5744 6.8164 49.1856 6.58568 49.7452 6.30355C50.3048 6.02154 50.9593 5.71014 51.1996 5.61181C51.6773 5.41624 51.8449 5.04712 51.9874 3.87604C52.0332 3.49994 52.1048 2.96425 52.1465 2.68567L52.2222 2.17897L53.0674 2.13862C53.5323 2.11633 53.952 2.12891 54.0002 2.16652C54.0484 2.20413 54.2211 2.81012 54.384 3.51335ZM9.72736 6.66911C9.5071 6.88902 9.32698 7.20754 9.32698 7.37685C9.32698 7.7435 13.1928 11.7079 13.6661 11.8265C13.8302 11.8677 14.0928 11.8606 14.2497 11.8108C14.6105 11.6964 14.9885 10.9819 14.8916 10.5967C14.7737 10.1278 10.8012 6.26936 10.4362 6.26936C10.2666 6.26936 9.94761 6.4492 9.72736 6.66911ZM55.0335 10.1432C56.9153 10.8359 58.0301 12.9266 57.4961 14.7611C57.2121 15.7362 56.6 16.5721 55.7977 17.08C55.447 17.3021 55.116 17.4838 55.062 17.4838C55.0079 17.4838 54.799 17.0532 54.5977 16.5271C54.3963 16.001 54.0939 15.4626 53.9255 15.3305C53.7572 15.1985 52.7763 14.7224 51.7455 14.2727C49.6817 13.3722 49.6554 13.3418 50.0753 12.3388C50.4298 11.4917 51.0755 10.8183 51.9532 10.3804C52.6462 10.0347 52.949 9.96368 53.6947 9.9723C54.1911 9.97804 54.7937 10.0549 55.0335 10.1432ZM45.393 13.7439C48.9487 15.2975 51.8755 16.5818 51.897 16.5981C51.9187 16.6142 51.2868 18.104 50.493 19.9085C49.6993 21.7131 49.0499 23.3144 49.0499 23.4671C49.0499 23.6197 49.1578 23.8691 49.2896 24.0215C49.4213 24.1737 50.9778 24.9301 52.7482 25.7021C54.5186 26.4743 55.9873 27.1201 56.0118 27.1374C56.0363 27.1548 55.64 28.1284 55.131 29.3011L54.2058 31.4334L52.3469 31.4354C51.1286 31.4367 50.3847 31.4956 50.1879 31.6064C49.6727 31.8963 45.5656 36.3558 45.3934 36.8123C45.2784 37.1174 45.2277 38.7128 45.2222 42.2033C45.218 44.9301 45.1835 47.1609 45.1455 47.1609C45.0795 47.1609 44.0342 46.7075 36.5166 43.4183L33.2292 41.9799L33.194 32.8348L33.1588 23.6896L35.7716 17.7488C37.2088 14.4814 38.4696 11.6081 38.5736 11.3637C38.6777 11.1193 38.8 10.9192 38.8455 10.9192C38.8909 10.9192 41.8373 12.1903 45.393 13.7439ZM54.456 21.867C55.0219 23.3189 55.4624 24.5294 55.435 24.5569C55.3891 24.6027 51.6512 22.9948 51.5313 22.8778C51.5023 22.8494 51.869 21.9305 52.3461 20.8359C52.9219 19.5143 53.2493 18.9095 53.3202 19.0361C53.3791 19.141 53.8902 20.4148 54.456 21.867ZM0.834498 28.4246C0.653142 28.6057 0.560547 28.8805 0.560547 29.2374C0.560547 30.1532 0.734095 30.2025 3.9559 30.2025C5.65809 30.2025 6.84813 30.1461 7.01401 30.0574C7.60437 29.7419 7.59095 28.6045 6.99305 28.285C6.85293 28.2101 5.50098 28.1511 3.92549 28.1511C1.29104 28.1511 1.09064 28.1689 0.834498 28.4246ZM65.3738 34.1344C65.0715 34.4918 64.5237 35.0768 64.1565 35.4349L63.4889 36.0857L56.1334 36.0503L48.778 36.0149L49.9524 34.7498L51.1268 33.4848H58.5252H65.9233L65.3738 34.1344ZM67.2676 42.5292V49.7957L66.1739 50.9058L65.0801 52.0159L65.0781 50.1293C65.0761 48.3098 65.0641 48.2306 64.7397 47.9069C64.3247 47.4924 63.6761 47.4645 63.2953 47.8447C63.0396 48.1 63.0214 48.3005 63.0214 50.8577C63.0214 52.9388 62.9797 53.6132 62.8484 53.6636C62.7532 53.7 60.9648 53.7135 58.8743 53.6934L55.0734 53.6571L55.4175 53.1515C56.0392 52.2383 55.9303 51.9265 54.4867 50.4853C52.9144 48.9153 52.793 48.8934 51.3204 49.9157L50.3072 50.6189L49.7812 50.4099C49.2608 50.203 49.2531 50.1889 49.0389 49.057C48.7303 47.4265 48.548 47.1609 47.7374 47.1609H47.4062V42.6478V38.1347H55.2138H63.0214V40.8699C63.0214 43.4228 63.0396 43.6233 63.2953 43.8786C63.7032 44.2859 64.4363 44.2434 64.7921 43.7918C65.0596 43.4524 65.076 43.2591 65.076 40.4525V37.4736L66.1176 36.3681C66.6904 35.7601 67.1835 35.2627 67.2134 35.2627C67.2432 35.2627 67.2676 38.5326 67.2676 42.5292ZM13.491 46.7319C12.6562 47.3436 9.73982 50.3915 9.72174 50.671C9.67476 51.3953 10.1172 51.9475 10.7443 51.9475C11.0892 51.9475 11.47 51.6356 13.1234 49.999C14.206 48.9272 15.1267 47.9117 15.1693 47.7424C15.2961 47.2375 15.1017 46.769 14.6738 46.5479C14.1411 46.2729 14.1108 46.2776 13.491 46.7319ZM47.1422 50.2449C47.3341 51.4326 47.6088 51.8591 48.3329 52.0931C48.6143 52.184 49.1352 52.4039 49.4905 52.5817C49.8458 52.7594 50.2522 52.9049 50.3936 52.9049C50.535 52.9049 51.0825 52.6021 51.6102 52.232L52.5699 51.5591L52.9948 51.9832L53.4195 52.4075L52.823 53.2595C51.988 54.452 51.9735 54.5461 52.4636 55.5917C52.6955 56.0865 52.8852 56.5816 52.8852 56.6916C52.8852 56.8019 53.0548 57.061 53.2619 57.2677C53.5602 57.5653 53.8592 57.6789 54.7001 57.8142L55.7617 57.9849V58.5755C55.7617 59.2339 55.7554 59.2379 54.4214 59.4117C53.5157 59.5296 53.12 59.8346 52.8944 60.5884C52.7972 60.9132 52.6012 61.4073 52.4591 61.6863C52.0625 62.4641 52.1302 62.8515 52.8429 63.8836L53.4854 64.814L53.0824 65.2164L52.6794 65.6187L51.6758 64.9374C51.124 64.5627 50.5807 64.256 50.4687 64.256C50.3568 64.256 49.9454 64.401 49.5548 64.5781C49.1641 64.7553 48.6207 64.9731 48.3473 65.062C47.6189 65.299 47.4405 65.5767 47.2388 66.7891L47.0572 67.8802L46.4898 67.9216C45.8498 67.9686 45.8779 68.0116 45.6141 66.581C45.4248 65.5544 45.2358 65.2854 44.5474 65.0631C44.2739 64.9747 43.7595 64.757 43.4042 64.5792C43.0488 64.4016 42.6139 64.256 42.4379 64.256C42.2618 64.256 41.7237 64.533 41.2423 64.8715C40.7608 65.2099 40.3059 65.4869 40.2313 65.4869C40.0609 65.4869 39.4616 64.9326 39.4616 64.7749C39.4616 64.7105 39.739 64.245 40.078 63.7403C40.417 63.2358 40.6944 62.6818 40.6944 62.5092C40.6944 62.3367 40.5486 61.9053 40.3707 61.5505C40.1926 61.1957 39.9737 60.6795 39.8842 60.4035C39.6584 59.7068 39.4527 59.5774 38.1788 59.3314L37.0645 59.1163L37.0226 58.5452C36.9759 57.908 36.8896 57.9604 38.423 57.6955C39.3565 57.5344 39.661 57.3094 39.8861 56.6151C39.9746 56.3421 40.1926 55.8284 40.3707 55.4737C40.5486 55.1189 40.6944 54.7082 40.6944 54.5612C40.6944 54.414 40.3873 53.8428 40.012 53.2918L39.3295 52.2897L39.725 51.8949L40.1204 51.5001L41.1723 52.2025C41.7507 52.5888 42.2831 52.9049 42.3552 52.9049C42.4274 52.9049 42.882 52.7202 43.3654 52.4946C43.8488 52.2689 44.3441 52.0843 44.466 52.0843C44.5879 52.0843 44.8546 51.915 45.0587 51.7082C45.348 51.4147 45.4681 51.0992 45.6049 50.2722L45.7803 49.2123H46.3779H46.9754L47.1422 50.2449ZM45.1168 54.0517C43.6444 54.5338 42.5528 55.5341 42.0521 56.8601C41.8177 57.4806 41.7746 57.8403 41.821 58.7856C41.8866 60.123 42.159 60.7744 43.0614 61.7518C45.2461 64.118 49.2184 63.5067 50.6566 60.5829C50.9862 59.9128 51.0359 59.6494 51.0353 58.5805C51.0348 57.6067 50.9725 57.2149 50.7369 56.7045C50.3169 55.7949 49.2892 54.7509 48.4001 54.331C47.477 53.895 45.9834 53.768 45.1168 54.0517ZM31.1061 59.0792V63.3389L29.8299 63.2629C28.2762 63.1703 27.4965 62.8445 26.7194 61.9631C25.894 61.0268 25.764 60.4051 25.764 57.3931V54.8195H28.4351H31.1061V59.0792ZM47.8742 56.424C49.9842 57.908 49.0082 61.1105 46.446 61.1105C44.9073 61.1105 43.844 60.0363 43.8455 58.4834C43.8475 56.4248 46.1801 55.2324 47.8742 56.424Z" fill="#6A6A6A"/>
</svg>
