<svg width="70" height="47" viewBox="0 0 70 47" fill="none" xmlns="http://www.w3.org/2000/svg">
<path fill-rule="evenodd" clip-rule="evenodd" d="M15.8506 0.898685C14.3257 1.19168 13.429 1.51538 12.2335 2.20492C6.96969 5.24092 2.95786 13.2372 0.898438 24.7982C0.209681 28.6652 0.00334199 30.8777 5.37179e-05 34.4363C-0.00323456 37.9305 0.143505 39.3754 0.699086 41.3156C1.93808 45.6431 4.93068 47.6263 8.92045 46.764C12.1294 46.0705 15.9201 43.6671 21.3057 38.9117C23.3727 37.0867 24.4482 36.3991 26.3989 35.6557C32.3228 33.3982 41.1432 33.8937 45.9327 36.753C46.4566 37.0659 47.6955 38.0373 48.6858 38.9117C55.5648 44.9858 60.0546 47.3628 63.7257 46.8744C66.9523 46.4451 68.9267 43.9665 69.7397 39.3242C70.0799 37.3819 70.0882 31.9688 69.7553 29.2042C68.7406 20.7767 66.3808 12.7736 63.5849 8.27774C61.1023 4.28606 58.4734 2.03157 55.205 1.09186C54.274 0.824197 53.7891 0.776833 51.9852 0.777384C49.5312 0.77821 48.815 0.90075 43.1907 2.28161C38.7835 3.36356 36.5241 3.77552 34.9958 3.77552C33.4972 3.77552 31.4075 3.39798 26.8317 2.30061C24.8036 1.81417 22.4353 1.28586 21.5687 1.12656C19.4971 0.745577 17.1374 0.651537 15.8506 0.898685ZM22.3222 4.48557C23.2265 4.68535 24.9479 5.09648 26.1476 5.3994C31.5427 6.76139 34.1381 7.14733 36.2745 6.90514C38.3006 6.67548 39.5973 6.42269 43.3535 5.5251C48.907 4.19808 49.4979 4.0955 51.5742 4.09908C53.2021 4.1017 53.5552 4.14576 54.5199 4.46657C57.5206 5.46438 59.7314 7.73305 61.85 11.989C63.9311 16.1694 65.3693 21.3689 66.3922 28.4103C66.7935 31.173 66.8468 37.5764 66.4827 39.2554C65.6681 43.0094 64.1955 44.2655 61.3853 43.6034C58.7751 42.9883 55.4645 40.8194 50.8891 36.7267C48.2471 34.3635 46.7612 33.4062 44.4146 32.5555C41.6281 31.5455 39.4047 31.147 35.9549 31.0397C32.1694 30.922 29.3832 31.288 26.1585 32.3266C23.303 33.2463 21.2455 34.5224 18.2119 37.2552C15.8876 39.3491 12.8998 41.5356 11.1558 42.4191C7.7808 44.1288 5.66383 44.0013 4.48046 42.0174C3.93393 41.1009 3.67785 40.2678 3.39903 38.4981C3.10336 36.6218 3.21544 31.0819 3.60565 28.2856C4.88081 19.1483 7.5798 11.5174 10.921 7.60321C12.3956 5.87566 14.4097 4.60522 16.2937 4.21391C17.7182 3.91802 20.2743 4.03327 22.3222 4.48557ZM18.0553 9.52931C17.0535 9.65681 15.9313 10.2162 15.1972 10.954C14.5205 11.6339 13.7593 13.0691 13.7592 13.6653C13.759 14.0377 13.5465 14.1964 13.0481 14.1964C12.8954 14.1964 12.3842 14.3817 11.9121 14.608C9.71197 15.6633 8.56258 18.0552 9.1494 20.3572C9.64579 22.304 10.9007 23.5771 12.8531 24.1141C13.6698 24.3388 13.6895 24.3556 13.7822 24.9007C14.0151 26.2715 15.2533 27.8006 16.648 28.4399C19.2922 29.6518 22.4469 28.3171 23.4768 25.5507C23.633 25.1312 23.7608 24.6742 23.7608 24.5353C23.7608 24.3458 23.9021 24.26 24.3266 24.1917C25.7834 23.9577 27.2829 22.7508 27.9835 21.2484C28.4873 20.1682 28.5113 18.3378 28.0353 17.2943C27.24 15.5505 26.011 14.5519 24.1554 14.1417C23.8679 14.0782 23.7795 13.9594 23.7108 13.5443C23.5701 12.692 23.0228 11.6865 22.3093 10.9695C21.1891 9.84379 19.6578 9.3254 18.0553 9.52931ZM48.9012 10.1774C46.7678 11.1802 46.5894 14.2112 48.5859 15.5376C49.0849 15.8691 49.2895 15.917 50.1946 15.9147C51.089 15.9122 51.3115 15.86 51.8126 15.5352C52.1321 15.328 52.5637 14.9001 52.7716 14.5842C53.1017 14.0829 53.1498 13.8761 53.1498 12.9572C53.1498 12.0384 53.1017 11.8313 52.7718 11.3305C52.1811 10.4335 51.4371 10.0119 50.3563 9.96151C49.6887 9.9304 49.3059 9.98726 48.9012 10.1774ZM19.7513 12.9037C20.3199 13.2656 20.5004 13.7288 20.6027 15.0899C20.7414 16.9319 21.1845 17.3631 22.9388 17.3631C24.0728 17.3631 24.6106 17.5895 24.9994 18.2304C25.5272 19.1001 25.1984 20.395 24.3466 20.8019C24.1375 20.9018 23.4426 21.0139 22.8023 21.0511C21.0456 21.1533 20.6096 21.5828 20.6096 23.2124C20.6096 24.8362 19.9788 25.6229 18.6757 25.6238C17.5192 25.6248 16.9103 24.8422 16.9103 23.355C16.9103 21.5724 16.3109 20.9444 14.6085 20.9436C13.0304 20.9427 12.2519 20.339 12.2519 19.1159C12.2519 17.9935 13.0401 17.3682 14.4715 17.3554C16.3395 17.3385 16.8057 16.8792 16.9149 14.9481C16.9825 13.753 17.0188 13.6218 17.3893 13.2331C18.0383 12.5524 18.9904 12.4196 19.7513 12.9037ZM43.0055 16.2705C42.377 16.4541 41.4971 17.2838 41.2295 17.9452C40.3964 20.0051 41.7968 22.202 43.9429 22.2017C45.2392 22.2016 46.2011 21.605 46.7237 20.4772C47.2704 19.2972 47.1058 18.1415 46.2558 17.1942C45.4084 16.2495 44.2265 15.9137 43.0055 16.2705ZM55.205 16.3827C53.5989 17.123 52.941 18.8839 53.681 20.4611C54.2345 21.6404 55.1254 22.2019 56.4434 22.2019C58.0673 22.2019 59.4034 20.86 59.4034 19.2288C59.4034 17.9027 58.8452 17.0076 57.6712 16.4512C56.8433 16.059 55.9603 16.0345 55.205 16.3827ZM49.2417 22.5311C46.4758 23.3879 46.566 27.5125 49.3684 28.3313C51.2803 28.8897 53.2061 27.4462 53.2153 25.4478C53.2213 24.124 52.3299 22.8874 51.1064 22.5223C50.2928 22.2794 50.0503 22.2806 49.2417 22.5311Z" fill="#6A6A6A"/>
</svg>
