<svg width="70" height="70" viewBox="0 0 70 70" fill="none" xmlns="http://www.w3.org/2000/svg">
<path d="M31.8095 13.8121C32.0584 13.155 32.5709 12.6545 33.1425 12.5103C33.9703 12.3013 34.5842 11.8314 34.6779 13.4514V15.0715C34.6779 16.9374 34.686 16.0243 34.6779 17.7307C34.6645 20.5274 34.5998 20.7012 33.96 19.6573C33.6906 19.2178 33.3457 18.6756 33.1933 18.4525C32.8011 17.8778 31.9816 16.0189 31.7519 15.1832C31.5818 14.5642 31.589 14.3946 31.8095 13.8121Z" fill="#6A6A6A"/>
<path d="M28.87 15.9733C28.9964 15.6119 29.2676 15.0946 29.4727 14.8237C29.6776 14.5527 29.8691 14.3311 29.8984 14.3311C29.9682 14.3311 31.2283 16.1075 31.9125 17.1701C32.8275 18.5911 33.9877 20.862 33.7988 20.862C33.4266 20.862 30.3325 18.9569 29.5218 18.2285C29.2914 18.0215 28.9988 17.5772 28.8714 17.2412C28.6615 16.6869 28.6614 16.5695 28.87 15.9733Z" fill="#6A6A6A"/>
<path d="M38.2768 17.077C38.7373 16.4239 39.3273 15.5736 39.5878 15.1872C39.8483 14.8008 40.1302 14.4836 40.2144 14.4822C40.4838 14.4774 41.3128 16.0267 41.3128 16.5349C41.3128 17.6997 40.2665 18.7074 37.4412 20.2642C36.8097 20.6122 36.2658 20.8692 36.2322 20.8355C36.1113 20.7137 37.4582 18.2379 38.2768 17.077Z" fill="#6A6A6A"/>
<path d="M35.4057 19.6003C35.2788 18.1684 35.274 15.9972 35.3664 15.3029C35.5039 14.1458 35.5896 12.0991 35.9638 12.2943C36.8835 12.2943 37.9877 12.9104 38.2768 13.3578C38.6388 14.0675 37.6325 16.6161 37.6325 16.6878C37.6325 16.985 37.1324 17.9848 36.3405 19.2708L35.4979 20.6393L35.4057 19.6003Z" fill="#6A6A6A"/>
<path d="M28.6559 20.9163C27.9525 20.3195 27.5365 19.2582 27.7185 18.5242C27.764 18.3404 27.8346 18.1902 27.8754 18.1902C28.0119 18.1902 31.8912 20.4073 32.7433 20.9724L33.5841 21.5299L31.9249 21.5719C30.0518 21.6193 29.309 21.4704 28.6559 20.9163Z" fill="#6A6A6A"/>
<path d="M37.3012 20.9506C38.3862 20.2853 40.5719 19.0185 41.3852 18.5834C41.7895 18.3672 42.1703 18.1902 42.2317 18.1902C42.4494 18.1902 42.3327 19.4612 42.0591 20.0685C41.8613 20.5078 41.5766 20.8065 41.0687 21.1075C40.4039 21.5014 40.2296 21.5335 38.4789 21.5819C37.4467 21.6105 36.602 21.5767 36.602 21.5066C36.602 21.4365 36.9166 21.1864 37.3012 20.9506Z" fill="#6A6A6A"/>
<path d="M29.0942 22.1676C29.0942 22.1085 29.74 22.0383 30.5295 22.0117C31.319 21.985 32.2794 21.9491 32.6641 21.932C33.0487 21.9149 33.3629 21.9511 33.3623 22.0123C33.361 22.1584 32.594 22.6752 31.6537 23.1637C30.9446 23.5321 30.8713 23.5422 30.3868 23.3381C29.9018 23.1337 29.0942 22.4025 29.0942 22.1676Z" fill="#6A6A6A"/>
<path d="M38.2949 23.1083C37.8091 22.8535 37.2129 22.4802 36.97 22.2789L36.5284 21.913L38.663 22.0019C39.837 22.0507 40.8263 22.1159 40.8613 22.1466C41.0131 22.2801 40.2811 23.0378 39.7541 23.293L39.1782 23.5719L38.2949 23.1083Z" fill="#6A6A6A"/>
<path fill-rule="evenodd" clip-rule="evenodd" d="M32.8337 0.877747C32.6674 0.890553 32.0209 0.939125 31.3971 0.985727C25.0493 1.46024 18.5507 4.00812 13.3315 8.06849C9.14299 11.3272 5.88489 15.333 3.53455 20.114C1.81711 23.6075 0.761599 27.1001 0.283259 30.8726C-0.418599 36.4066 0.195924 42.3549 1.99238 47.4168C2.38944 48.5357 3.07413 50.1896 3.12086 50.1427C3.13334 50.1302 2.97583 49.5577 2.77084 48.8704C1.74565 45.4328 1.28107 42.2716 1.2109 38.255C1.15563 35.0937 1.31253 33.1463 1.83079 30.5598C2.43216 27.5588 3.31065 24.9918 4.70545 22.16C6.5013 18.5139 8.3829 15.8882 11.2789 12.987C13.6583 10.6032 15.9594 8.84573 18.7719 7.26428C29.0509 1.48463 41.8631 1.41962 52.1069 7.0953C55.0879 8.74699 57.5458 10.6115 60.0202 13.0983C61.3727 14.4576 62.1274 15.331 63.2506 16.8367C63.6471 17.3682 63.9867 17.8029 64.0053 17.8029C64.1241 17.8029 62.5126 15.3772 61.6895 14.3172C57.9335 9.47997 53.1438 5.79454 47.5787 3.45981C44.8434 2.31226 41.2812 1.38954 38.3158 1.06029C36.5979 0.869562 34.0476 0.784694 32.8337 0.877747ZM31.9642 6.12742C31.2473 6.27367 30.8285 6.64997 30.6332 7.32332C30.4824 7.84337 30.5354 8.3672 30.7929 8.90233C31.0738 9.4858 31.5571 9.77064 32.2659 9.77064C32.6476 9.77064 33.2662 9.61099 33.4379 9.46815C33.5871 9.3441 33.4265 8.98425 33.2551 9.05851C32.9146 9.20589 32.3538 9.31084 32.1306 9.26886C31.81 9.20861 31.4444 8.90263 31.3112 8.58316C31.1599 8.22027 31.1787 7.43614 31.3462 7.12319C31.5677 6.70945 31.9004 6.56897 32.5417 6.61868C33.0719 6.65975 33.0821 6.65717 33.1178 6.47C33.1419 6.34361 33.1129 6.25829 33.0317 6.21615C32.8397 6.11666 32.2551 6.06809 31.9642 6.12742ZM40.5546 6.55639C40.4237 6.89814 40.6458 7.18131 40.965 7.07977C41.1493 7.02112 41.2385 6.70097 41.1128 6.54919C40.9883 6.39885 40.613 6.4037 40.5546 6.55639ZM38.6721 6.56487C38.6523 6.59844 38.6124 6.73681 38.5834 6.87222C38.5458 7.04795 38.4884 7.11849 38.383 7.11849C38.2993 7.11849 38.2075 7.19237 38.171 7.28899C38.091 7.50116 38.1303 7.57315 38.3263 7.57315C38.4526 7.57315 38.4719 7.60929 38.4377 7.78153C38.3257 8.34599 38.2475 9.18225 38.2879 9.38457C38.3598 9.74458 38.5646 9.8737 39.12 9.90917L39.6131 9.94061L39.5883 9.72404C39.5706 9.56939 39.5203 9.50551 39.4122 9.5005C39.0613 9.48414 38.9976 9.45989 38.9188 9.31235C38.8587 9.19983 38.8587 8.99637 38.9186 8.57354C39.0561 7.60179 39.0226 7.66059 39.4309 7.67453C39.7671 7.68605 39.7903 7.67461 39.7903 7.49737C39.7903 7.33317 39.75 7.30285 39.4879 7.27004C39.1864 7.23231 39.1854 7.23102 39.18 6.89117C39.175 6.56707 39.1632 6.54904 38.9414 6.52698C38.8131 6.51418 38.6919 6.53123 38.6721 6.56487ZM27.6973 6.78288C27.5454 6.93511 27.548 6.98808 27.717 7.1973C27.9873 7.53185 28.4641 7.19935 28.2606 6.81827C28.1618 6.6333 27.8652 6.61466 27.6973 6.78288ZM42.4368 6.84373C42.2142 6.94186 42.0989 7.10076 41.9487 7.51632C41.8949 7.66537 41.8214 7.7247 41.6907 7.7247C41.5094 7.7247 41.3763 7.90209 41.4581 8.03462C41.4815 8.07258 41.5496 8.10358 41.6095 8.10358C41.7658 8.10358 41.7469 8.25505 41.4584 9.31546C41.3167 9.83612 41.2105 10.2719 41.2225 10.2839C41.2345 10.2959 41.3525 10.3368 41.4849 10.3749C41.7705 10.4569 41.7456 10.5037 42.1001 9.21309C42.3506 8.30052 42.3759 8.26824 42.733 8.40426C42.8907 8.46435 42.9395 8.45154 43.0026 8.33348C43.1255 8.10335 43.0976 8.0572 42.7771 7.96097C42.6108 7.91103 42.4747 7.85958 42.4747 7.84662C42.4747 7.83367 42.5121 7.71553 42.5578 7.58398C42.6536 7.30877 42.9166 7.20586 43.1972 7.33392C43.3497 7.40356 43.3916 7.39371 43.4562 7.27277C43.5636 7.07159 43.559 7.05976 43.3253 6.94011C42.9928 6.76985 42.6811 6.73605 42.4368 6.84373ZM34.2146 7.0431C33.818 7.25898 33.6183 7.68113 33.6183 8.3031C33.6183 8.87225 33.7649 9.18596 34.1534 9.44837C34.4564 9.65304 35.2155 9.68449 35.6331 9.50967C35.8627 9.41351 35.8862 9.37903 35.827 9.22551C35.7898 9.12943 35.7136 9.06404 35.6577 9.08018C35.3521 9.16861 34.7326 9.17429 34.5757 9.09018C34.3868 8.98887 34.2326 8.71524 34.2326 8.4814C34.2326 8.3478 34.3023 8.33409 35.0833 8.31446L35.934 8.29302L35.9071 7.98991C35.8748 7.62634 35.7514 7.37128 35.4881 7.12478C35.2149 6.86912 34.6059 6.83002 34.2146 7.0431ZM36.477 7.32286C36.4524 7.52306 36.4093 8.11707 36.3814 8.64295L36.3305 9.59901L36.5859 9.63728C36.9046 9.68502 36.952 9.61432 36.9542 9.08866C36.9581 8.21239 37.0344 7.88368 37.2736 7.71296C37.3955 7.62604 37.5925 7.54996 37.7113 7.54398C37.9664 7.53109 37.9772 7.52147 38.042 7.2511C38.0882 7.05802 38.0748 7.04272 37.8586 7.04272C37.5985 7.04272 37.3264 7.1632 37.2345 7.319C37.1374 7.48396 37.0422 7.43781 37.0165 7.21321C36.9968 7.04173 36.9508 7.00074 36.7571 6.98187C36.5282 6.95952 36.5204 6.96906 36.477 7.32286ZM43.8033 7.31331C43.738 7.37886 43.6845 7.47873 43.6845 7.53526C43.6845 7.68325 43.8985 7.87625 44.0626 7.87625C44.2236 7.87625 44.4406 7.68416 44.4406 7.54163C44.4406 7.41106 44.1925 7.19427 44.0431 7.19427C43.9766 7.19427 43.8687 7.24784 43.8033 7.31331ZM35.1593 7.47843C35.2243 7.5514 35.2892 7.67924 35.3033 7.76259C35.3268 7.90096 35.2814 7.91611 34.7808 7.93642C34.1696 7.9612 34.1099 7.90156 34.3894 7.54549C34.5767 7.30687 34.9752 7.27217 35.1593 7.47843ZM40.3956 7.5176C40.2935 7.81866 39.9221 9.96835 39.9652 10.009C39.9938 10.0358 40.1236 10.0802 40.2537 10.1076L40.4902 10.1575L40.7354 8.86187C40.8703 8.14919 40.968 7.55557 40.9526 7.54269C40.9372 7.52973 40.8126 7.49775 40.6759 7.47168C40.5101 7.44001 40.4167 7.45531 40.3956 7.5176ZM27.9645 7.79214C27.8763 7.84966 27.8998 8.03894 28.1083 8.9484C28.4424 10.4063 28.4361 10.3916 28.6926 10.3309C28.8076 10.3037 28.9261 10.2598 28.9559 10.2333C28.9857 10.2067 28.8826 9.63993 28.7269 8.97379C28.4594 7.82957 28.4333 7.76153 28.2569 7.74296C28.1541 7.73213 28.0225 7.75425 27.9645 7.79214ZM25.9332 8.33053C25.2055 8.77518 25.1938 9.96744 25.9106 10.6421C26.126 10.8448 26.2026 10.8692 26.6196 10.867C26.9923 10.8651 27.1703 10.819 27.498 10.6396C27.9555 10.3892 27.9986 10.3256 27.8463 10.124C27.7455 9.9904 27.7279 9.99267 27.4075 10.1808C26.9433 10.4535 26.5743 10.4431 26.281 10.1491C26.1561 10.024 26.0667 9.88264 26.0825 9.8352C26.0983 9.78769 26.4499 9.64668 26.8638 9.5218C27.2777 9.39684 27.628 9.28484 27.6424 9.27287C27.7328 9.1974 27.5204 8.7307 27.2809 8.47837C27.0186 8.20209 26.966 8.17936 26.5883 8.17966C26.314 8.17981 26.0986 8.22944 25.9332 8.33053ZM43.5777 8.24437C43.4918 8.38364 42.9217 10.5514 42.9425 10.6596C42.9618 10.7601 43.3673 10.9473 43.4298 10.8847C43.4718 10.8426 44.1342 8.37736 44.11 8.35311C44.0422 8.28529 43.6073 8.1964 43.5777 8.24437ZM26.7743 8.71532C26.8839 8.80163 26.9736 8.91787 26.9736 8.97356C26.9736 9.10139 26.0626 9.41844 25.9679 9.32357C25.8438 9.19915 25.9932 8.78928 26.2047 8.6741C26.4754 8.52679 26.5412 8.53156 26.7743 8.71532ZM24.4394 8.81481C24.3001 8.91688 24.2997 8.94726 24.4222 9.89113C24.4916 10.4253 24.5389 10.8718 24.5274 10.8833C24.5159 10.8949 24.2194 10.564 23.8685 10.1481C23.5177 9.73223 23.2034 9.39184 23.1702 9.39184C23.137 9.39177 23.0071 9.44496 22.8816 9.50998C22.6922 9.60811 22.6603 9.66274 22.6933 9.83202C22.7804 10.2787 22.9073 11.5218 22.8697 11.5594C22.8477 11.5815 22.5493 11.2562 22.2066 10.8367C21.8639 10.4171 21.5697 10.0737 21.5527 10.0737C21.4492 10.0737 21.0701 10.3214 21.0897 10.3762C21.1028 10.4125 21.4367 10.8069 21.8318 11.2524C22.2269 11.698 22.6191 12.1467 22.7035 12.2495C22.8564 12.4359 22.8575 12.4361 23.1383 12.3019C23.4621 12.1471 23.458 12.1772 23.3088 11.0601C23.2505 10.6233 23.2134 10.2552 23.2263 10.2423C23.2392 10.2293 23.5291 10.5442 23.8706 10.9419C24.212 11.3397 24.5065 11.665 24.525 11.665C24.5436 11.665 24.6814 11.6137 24.8313 11.5509L25.1039 11.4368L25.0593 11.0394C25.0347 10.8209 24.9734 10.2073 24.923 9.67593C24.8254 8.64644 24.7799 8.56535 24.4394 8.81481ZM44.8442 9.05184C44.2289 9.42147 43.9367 10.4616 44.2868 11.0369C44.5433 11.4585 45.515 11.8063 45.7257 11.5518C45.8667 11.3816 45.7598 11.2104 45.5128 11.2104C45.3929 11.2104 45.1792 11.1326 45.0378 11.0374C44.8225 10.8924 44.7771 10.812 44.7575 10.5404C44.7245 10.086 44.9836 9.57045 45.3275 9.40609C45.5846 9.28325 45.5989 9.28522 45.9712 9.49345C46.3197 9.6885 46.362 9.69623 46.4725 9.5856C46.6352 9.42245 46.5249 9.25719 46.1045 9.03448C45.6716 8.80496 45.2453 8.81087 44.8442 9.05184ZM47.067 9.66448C47.0365 9.69509 47.0115 9.79967 47.0115 9.89696C47.0115 10.0356 47.0528 10.0737 47.203 10.0737C47.743 10.0737 48.2117 10.4963 48.074 10.8592C48.0324 10.969 47.9838 11.0588 47.9661 11.0588C47.9484 11.0588 47.7519 10.9739 47.5294 10.8702C47.1048 10.672 46.6475 10.6265 46.4025 10.758C46.2029 10.865 46.0286 11.2267 46.0286 11.5334C46.0286 11.9886 46.6459 12.4014 47.1697 12.2964C47.3567 12.2589 47.3896 12.2762 47.3896 12.4114C47.3896 12.5115 47.4738 12.6141 47.6169 12.6882L47.8442 12.806L48.2307 11.9893C48.4455 11.5352 48.6336 11.0195 48.6542 10.8281C48.6863 10.5311 48.6619 10.4486 48.4778 10.2292C48.1785 9.87294 47.2357 9.49543 47.067 9.66448ZM49.9107 10.5284C49.8152 10.6904 49.7189 10.7557 49.5754 10.7557C49.4647 10.7557 49.3291 10.8102 49.2739 10.8767C49.1894 10.9787 49.1939 11.0091 49.3025 11.0699C49.3733 11.1097 49.4312 11.1714 49.4312 11.2071C49.4312 11.2427 49.2589 11.5653 49.0482 11.924C48.8376 12.2826 48.6462 12.6941 48.6228 12.8384C48.5862 13.0649 48.6161 13.1366 48.8426 13.3636C49.2346 13.7564 49.7337 13.8296 49.7337 13.4943C49.7337 13.4015 49.664 13.331 49.5421 13.3004C49.4367 13.2738 49.3125 13.1687 49.2662 13.0667C49.1924 12.9044 49.2269 12.8027 49.5421 12.2542C49.7402 11.9093 49.9299 11.5972 49.9637 11.5607C49.998 11.5236 50.1457 11.569 50.2989 11.6639C50.5615 11.8265 50.5788 11.828 50.7203 11.6996C50.9027 11.5343 50.9065 11.4608 50.7356 11.4037C50.6628 11.3794 50.521 11.2959 50.4203 11.2181L50.2375 11.0768L50.4045 10.793C50.4964 10.637 50.5617 10.5012 50.5496 10.4912C50.4748 10.4297 50.1849 10.3011 50.121 10.3011C50.079 10.3011 49.9844 10.4034 49.9107 10.5284ZM19.807 11.0331C19.6708 11.1004 19.4156 11.2847 19.2399 11.4426L18.9206 11.7297L19.0907 11.9037L19.2609 12.0776L19.3742 11.9154C19.5316 11.6903 19.9599 11.4377 20.1844 11.4377C20.3653 11.4377 20.6219 11.6413 20.6219 11.7848C20.6219 11.8233 20.4671 11.9371 20.2778 12.0377C19.8129 12.2848 19.5633 12.5952 19.5633 12.9261C19.5633 13.8826 20.6712 14.0976 21.1815 13.2401C21.286 13.0644 21.3818 12.9736 21.4116 13.022C21.4861 13.1429 21.6408 13.1234 21.8309 12.9692L21.998 12.8336L21.5345 12.0646C21.2795 11.6417 20.9673 11.2083 20.8406 11.1015C20.5698 10.8731 20.1828 10.8475 19.807 11.0331ZM51.7428 11.1021C51.5155 11.33 51.6699 11.665 52.0021 11.665C52.3069 11.665 52.4374 11.4229 52.2704 11.1674C52.1322 10.9561 51.9154 10.9293 51.7428 11.1021ZM47.5105 11.2569C47.8098 11.3992 47.8425 11.5901 47.6077 11.8254C47.3313 12.1023 46.6335 11.923 46.6335 11.575C46.6335 11.1437 46.996 11.0122 47.5105 11.2569ZM50.6039 12.8937L49.8811 13.9762L50.0763 14.1467C50.1836 14.2405 50.2951 14.3163 50.3239 14.3152C50.3849 14.313 51.7753 12.2257 51.7753 12.1364C51.7753 12.1036 51.6744 12.0169 51.5511 11.9438L51.3268 11.8111L50.6039 12.8937ZM17.9105 12.2736C17.8125 12.3554 17.7487 12.4652 17.7688 12.5174C17.7889 12.5695 18.0069 12.885 18.2531 13.2184C18.4994 13.5519 18.7255 13.865 18.7555 13.9144C18.8415 14.0561 18.5914 14.5888 18.3874 14.6982C18.1105 14.8466 17.9392 14.7159 17.3359 13.8957C17.0466 13.5024 16.7718 13.1806 16.7253 13.1806C16.6788 13.1806 16.5694 13.2572 16.4822 13.3511L16.3238 13.5215L16.9179 14.3252C17.7105 15.3973 18.0172 15.5464 18.5933 15.1398C18.7045 15.0614 18.8541 14.8435 18.9257 14.6555C19.0482 14.3339 19.064 14.3209 19.1913 14.4363C19.3163 14.5498 19.3412 14.5484 19.5182 14.4192C19.6236 14.3423 19.7109 14.2573 19.7122 14.2303C19.7158 14.1566 18.194 12.1193 18.1376 12.1222C18.1108 12.1236 18.0086 12.1918 17.9105 12.2736ZM21.0338 12.4469C21.1258 12.7101 20.9806 13.0082 20.6774 13.1787C20.4275 13.3192 20.243 13.2307 20.1314 12.9169C20.0637 12.7264 20.0845 12.6829 20.3555 12.448C20.7074 12.1433 20.9276 12.1429 21.0338 12.4469ZM52.1156 12.983C51.8187 13.1133 51.4061 13.5344 51.2748 13.8412C51.1379 14.1608 51.1419 14.6486 51.2837 14.9233C51.5345 15.4092 52.239 15.7144 52.7902 15.5758C53.294 15.4491 53.8316 14.7281 53.84 14.1678C53.8531 13.2998 52.8944 12.641 52.1156 12.983ZM14.743 13.577L14.5796 13.7513L15.0647 14.2892L15.5498 14.8272L14.9566 15.4057C14.6302 15.7239 14.346 15.9843 14.3248 15.9843C14.3037 15.9843 14.0629 15.7541 13.7897 15.4728L13.293 14.9613L13.0881 15.1655L12.8832 15.3696L13.3794 15.9233C13.6522 16.2277 14.194 16.8094 14.5833 17.2159L15.2911 17.955L15.5137 17.7696L15.7364 17.5843L15.1972 16.9859L14.658 16.3874L15.1636 15.8971C15.9501 15.1344 15.8425 15.1464 16.4288 15.755C16.7108 16.0478 16.9812 16.2874 17.0295 16.2874C17.0778 16.2874 17.1892 16.2107 17.2771 16.1169L17.4369 15.9464L16.2747 14.6961C15.6354 14.0084 15.0661 13.4361 15.0093 13.4243C14.9527 13.4124 14.8329 13.4812 14.743 13.577ZM53.102 13.5939C53.3248 13.8172 53.3373 14.0746 53.1437 14.4528C52.9521 14.8272 52.6899 15.0622 52.3985 15.1206C52.1987 15.1606 52.1217 15.1307 51.9295 14.9381C51.8031 14.8114 51.6997 14.6336 51.6997 14.5429C51.6997 14.2822 51.9205 13.8835 52.2022 13.6357C52.5264 13.3504 52.8443 13.3357 53.102 13.5939ZM53.8696 15.359L52.9771 16.307L53.1455 16.4866C53.2381 16.5854 53.3519 16.6662 53.3981 16.6662C53.4445 16.6662 53.7502 16.3729 54.0776 16.0144L54.6729 15.3626L54.9802 15.4118C55.1492 15.4389 55.3479 15.5159 55.4217 15.5829C55.6776 15.8149 55.5851 16.0324 54.9133 16.7778C54.5598 17.17 54.2706 17.523 54.2706 17.5624C54.2706 17.6017 54.363 17.6946 54.476 17.7688L54.6813 17.9036L55.2765 17.266C56.0019 16.4889 56.1603 16.248 56.1606 15.9216C56.161 15.5883 55.8323 15.2595 55.3769 15.1374C55.0833 15.0587 55.0373 15.0212 55.0708 14.8873C55.0968 14.7839 55.0506 14.6753 54.9361 14.5706L54.7621 14.4112L53.8696 15.359ZM9.76076 18.8827C8.6964 20.3374 8.11946 21.2691 7.42925 22.6484C5.70954 26.0846 4.80912 29.6181 4.59172 33.7838C4.47459 36.0273 4.59422 37.7438 5.07815 40.763C5.59627 43.9954 6.69488 47.0843 8.39969 50.1023C9.19092 51.5029 9.30291 51.5989 8.6871 50.3486C7.09995 47.1262 6.30538 44.5915 5.91098 41.4925C5.64292 39.3866 5.70735 34.789 6.03748 32.4655C6.70592 27.7606 8.46737 23.1485 10.7994 19.9964C11.0495 19.6584 11.2438 19.3528 11.231 19.3173C11.1922 19.2091 10.3323 18.2575 10.2734 18.2575C10.243 18.2575 10.0123 18.5388 9.76076 18.8827ZM59.8685 19.4778C59.8671 19.503 60.0225 19.859 60.2136 20.2689C61.7148 23.4881 63.1676 27.9164 63.7551 31.0637C64.2235 33.5729 64.3267 35.9989 64.0729 38.5409C63.2992 46.2927 60.3892 52.3444 54.9932 57.4235C53.823 58.525 52.8375 59.3021 51.3531 60.294C45.8328 63.9825 41.9277 65.2954 35.7681 65.5333C31.0013 65.7175 27.0215 65.093 23.4575 63.6015C21.8924 62.9465 18.7527 61.1955 17.1815 60.1014C15.1238 58.6686 12.6296 56.2406 11.0352 54.1185C10.2902 53.1269 10.4928 53.5527 11.3866 54.8573C12.6834 56.75 13.333 57.5466 14.4258 58.5843C17.0618 61.0873 19.3245 62.7674 21.8407 64.0902C26.0563 66.3061 31.4529 67.4493 37.1887 67.3414C39.2511 67.3026 39.9809 67.2029 42.1344 66.6652C45.9787 65.7053 50.0238 63.8891 52.9229 61.8211C55.4013 60.0534 57.8903 57.5704 59.7062 55.0545C62.1571 51.6588 63.8791 47.745 64.6608 43.794C65.44 39.8561 65.4686 35.1548 64.736 31.4425C64.1889 28.6704 63.0688 25.4124 61.7126 22.6491C60.9955 21.1878 59.8795 19.2687 59.8685 19.4778ZM65.5406 20.5687C68.2629 26.5916 69.2193 32.1212 68.7059 38.8686C68.2063 45.4346 66.1399 51.4621 62.7113 56.3543C60.6583 59.2838 57.5729 62.3924 54.6037 64.523C53.0549 65.6344 50.3696 67.1319 47.1628 68.6726C46.3934 69.0423 45.7498 69.3585 45.7324 69.3755C45.5309 69.5723 46.6759 69.3041 48.3768 68.756C50.8982 67.9435 52.938 66.9925 55.2536 65.5499C63.3443 60.5094 68.5367 52.0532 69.7293 41.9754C70.6096 34.536 69.3431 27.5813 65.9274 21.0995C65.3734 20.0482 65.1942 19.8022 65.5406 20.5687ZM27.7077 24.9731C27.6782 25.0027 27.6541 25.5667 27.6541 26.2267V27.4264H27.8773C28.0984 27.4264 28.1009 27.4217 28.1231 26.9528L28.1456 26.4792L28.6901 26.457L29.2346 26.4348L29.2572 26.9117L29.2798 27.3885L29.5256 27.4122L29.7713 27.436V26.2233C29.7713 25.4531 29.7422 24.9925 29.6914 24.9611C29.6475 24.9338 29.5284 24.9325 29.4268 24.958C29.2545 25.0014 29.242 25.0378 29.242 25.4989V25.9933L28.6938 25.9711L28.1456 25.9488L28.1078 25.4562C28.0753 25.0331 28.0482 24.9606 27.9157 24.9416C27.8308 24.9294 27.7372 24.9436 27.7077 24.9731ZM32.1658 24.9764C32.1381 25.0041 32.1154 25.3924 32.1154 25.8394C32.1154 26.8128 32.0294 26.9869 31.5483 26.9869C31.0657 26.9869 30.9812 26.814 30.9812 25.8267V25.0016H30.7086H30.4359L30.4628 25.8954C30.4926 26.8858 30.5673 27.087 31.0042 27.354C31.4538 27.6287 32.1162 27.4796 32.4454 27.0297C32.5708 26.8583 32.603 26.6693 32.6307 25.9414C32.6573 25.2471 32.6423 25.0466 32.56 24.9944C32.4353 24.9152 32.2359 24.9061 32.1658 24.9764ZM34.0276 24.9865C33.9362 25.0447 32.9472 27.21 32.9472 27.3518C32.9472 27.3929 33.051 27.4264 33.1779 27.4264C33.3664 27.4264 33.4232 27.3847 33.4878 27.1991C33.5668 26.9721 33.5677 26.9718 34.171 26.9718C34.7727 26.9718 34.7754 26.9727 34.8607 27.1991C34.9318 27.3881 34.9882 27.4264 35.1944 27.4264C35.3309 27.4264 35.4425 27.4082 35.4425 27.386C35.4425 27.2685 34.4328 25.0317 34.3583 24.9842C34.2458 24.9124 34.1427 24.9132 34.0276 24.9865ZM36.9781 25.0189C36.9445 25.07 36.814 25.4135 36.6881 25.7822C36.5623 26.151 36.4262 26.4529 36.3857 26.4531C36.3452 26.4533 36.2129 26.1268 36.0918 25.7275L35.8716 25.0016H35.6192C35.4804 25.0016 35.3662 25.0271 35.3656 25.0584C35.3649 25.0897 35.5435 25.6367 35.7625 26.2739L36.1608 27.4325L36.3877 27.4105C36.6025 27.3897 36.628 27.3492 36.8696 26.6465C37.01 26.2383 37.1461 25.9253 37.1721 25.9508C37.1981 25.9764 37.3241 26.3103 37.4522 26.6929C37.6757 27.3611 37.6944 27.3894 37.9248 27.4122C38.0567 27.4254 38.1646 27.4209 38.1646 27.4025C38.1646 27.384 38.3508 26.8363 38.5784 26.1852L38.9924 25.0016H38.7347H38.4769L38.229 25.7594C38.0928 26.1761 37.9573 26.5171 37.9279 26.5171C37.8986 26.5171 37.7647 26.1847 37.6302 25.7783C37.4959 25.3719 37.3484 25.0144 37.3027 24.9838C37.1779 24.9004 37.0467 24.9145 36.9781 25.0189ZM41.9643 24.976C41.8942 25.0043 41.8697 25.3264 41.8697 26.2203V27.4264H42.1344H42.399V26.2221C42.399 25.1938 42.3816 25.0111 42.2794 24.9718C42.1455 24.9203 42.1005 24.9209 41.9643 24.976ZM39.4501 26.214V27.4264H40.3624H41.2749L41.2509 27.218C41.2271 27.0103 41.2252 27.0096 40.561 26.9877L39.895 26.9657L39.9183 26.6846L39.9416 26.4034L40.3809 26.3806C40.809 26.3583 40.8198 26.3524 40.7968 26.1532C40.7747 25.9607 40.748 25.9475 40.3385 25.9261C39.9126 25.9038 39.9037 25.8988 39.9037 25.6798V25.4562H40.4647C41.1478 25.4562 41.2648 25.4163 41.2648 25.1829C41.2648 25.0017 41.2641 25.0016 40.3574 25.0016H39.4501V26.214ZM34.4885 26.4556C34.4251 26.5583 33.8543 26.5284 33.8562 26.4224C33.8571 26.3703 33.9292 26.1742 34.0164 25.9867L34.1749 25.6457L34.3507 26.0199C34.4474 26.2257 34.5094 26.4217 34.4885 26.4556ZM11.3213 29.6997V30.003L35.0077 29.984L58.6941 29.9649V29.6997V29.4345L35.0077 29.4154L11.3213 29.3964V29.6997ZM31.7825 32.3624C30.9632 32.4677 30.3932 32.6374 29.6579 32.9949C27.917 33.8413 26.8844 35.2492 26.434 37.3909C26.379 37.652 26.3411 38.3296 26.3448 38.9822C26.3502 39.944 26.3808 40.2321 26.5441 40.8557C26.9781 42.5131 27.9452 43.7564 29.3227 44.4279C30.2064 44.8587 30.995 45.0657 32.0965 45.1561C33.0553 45.2347 34.4341 45.1494 35.1661 44.9661C35.9597 44.7673 36.8187 44.4488 36.8613 44.3375C36.9158 44.1951 36.4912 42.8761 36.3767 42.8321C36.3271 42.813 36.054 42.8812 35.77 42.9837C34.8434 43.3177 34.1101 43.4461 33.1362 43.4448C31.6741 43.4428 30.8364 43.1438 29.9658 42.3133C29.052 41.4415 28.6606 40.2286 28.7339 38.4952C28.7968 37.0054 29.135 36.056 29.8965 35.2318C31.0799 33.9509 33.177 33.6772 35.4044 34.5133C35.7903 34.6582 36.1231 34.7767 36.1439 34.7767C36.1648 34.7767 36.3089 34.4298 36.4643 34.0059C36.7893 33.1192 36.8038 33.159 36.0519 32.8753C34.714 32.3705 33.1657 32.1845 31.7825 32.3624ZM13.7158 32.4782C13.688 32.5059 13.6654 35.3666 13.6654 38.8352C13.6654 43.8155 13.6852 45.1474 13.7599 45.1688C13.8119 45.1837 14.2878 45.1854 14.8176 45.1726L15.7808 45.1493L15.8006 42.331L15.8204 39.5127L18.8575 39.4929L21.8945 39.473L21.9026 42.2587C21.91 44.786 21.9226 45.0532 22.0392 45.1407C22.1099 45.1937 22.214 45.2193 22.2706 45.1975C22.3271 45.1758 22.7621 45.158 23.2372 45.158H24.1011L24.0818 38.8117L24.0624 32.4655L23.0899 32.4442C22.4375 32.43 22.083 32.4517 22.0124 32.5104C21.9266 32.5818 21.9074 33.061 21.9074 35.1296V37.6615L18.8639 37.6399L15.8204 37.6183L15.8081 35.1023C15.8014 33.7185 15.7739 32.5506 15.747 32.507C15.6931 32.4197 13.8009 32.3928 13.7158 32.4782ZM39.3493 32.4782C39.3215 32.5059 39.2988 35.3663 39.2988 38.8345C39.2988 44.7789 39.3064 45.1419 39.4312 45.168C39.5039 45.1833 40.0058 45.1788 40.5465 45.158L41.5295 45.1201L41.5488 38.8354C41.5641 33.8578 41.5484 32.5382 41.4732 32.4904C41.3586 32.4175 39.4209 32.4063 39.3493 32.4782ZM48.3175 32.5223C48.277 32.5745 47.6893 33.9981 47.0114 35.686C46.3335 37.3739 45.2048 40.1834 44.5031 41.9295C43.8015 43.6755 43.244 45.1207 43.2644 45.1411C43.322 45.1988 45.4551 45.1574 45.5086 45.0976C45.5349 45.0682 45.8174 44.3466 46.1365 43.494C46.4557 42.6413 46.7532 41.8997 46.7979 41.8459C46.861 41.7696 47.4305 41.748 49.3875 41.748C51.9982 41.748 52.0777 41.7575 52.0777 42.069C52.0777 42.1455 52.126 42.2836 52.185 42.3759C52.244 42.4681 52.5048 43.1063 52.7646 43.794C53.0244 44.4817 53.2632 45.0746 53.2955 45.1117C53.345 45.1687 55.6292 45.1856 55.6853 45.1294C55.6959 45.1188 55.5559 44.7543 55.3742 44.3194C55.1924 43.8845 54.0495 41.1077 52.8344 38.1487C51.6193 35.1896 50.5769 32.6919 50.5179 32.5981C50.4155 32.4352 50.366 32.4276 49.4009 32.4276C48.6828 32.4276 48.3699 32.455 48.3175 32.5223ZM49.5772 35.5344C49.5806 35.6386 49.6392 35.8262 49.7074 35.9512C49.9094 36.3214 51.3065 39.9622 51.2703 40.0242C51.2214 40.1078 48.4615 40.0935 48.3036 40.0088C48.2157 39.9616 48.0723 39.9663 47.8908 40.022C47.7133 40.0766 47.5865 40.0813 47.5402 40.0349C47.4939 39.9885 47.7016 39.3464 48.1143 38.2598C48.47 37.3235 48.8785 36.2164 49.0222 35.7996C49.1657 35.3829 49.3034 34.9907 49.328 34.9282C49.3819 34.7914 49.5676 35.2432 49.5772 35.5344ZM11.3717 48.088C11.344 48.1157 11.3213 48.2692 11.3213 48.429V48.7194H34.9807C56.4852 48.7194 58.6442 48.7085 58.686 48.5996C58.7695 48.3814 58.7336 48.1301 58.6122 48.0834C58.4482 48.0203 11.4346 48.0249 11.3717 48.088ZM3.91194 52.0536C4.40503 53.3149 5.38432 55.2282 6.22879 56.5801C8.90071 60.8577 12.3798 64.1603 17.0033 66.8081C18.753 67.8102 21.1581 68.7762 23.0265 69.2275C24.3498 69.5471 24.3386 69.4261 22.9948 68.8838C18.5063 67.0728 14.0592 64.0508 10.2212 60.2036C7.70214 57.6785 5.89979 55.3529 4.38945 52.6789C3.79399 51.6247 3.69213 51.4912 3.91194 52.0536Z" fill="#6A6A6A"/>
<path d="M30.8 55.1601C30.8 54.7107 30.785 54.2311 30.8786 53.9875C31.1157 53.3696 33.7886 53.3486 33.7886 53.9646C33.7886 54.258 33.9301 54.3846 33.2458 54.3846C32.8714 54.3846 32.1408 54.3846 31.92 54.3846C31.9012 54.4601 31.7508 54.7136 31.92 55.0201C32.1408 55.0201 32.6285 55.145 32.9 55.3001C33.88 55.8601 33.88 56.2801 33.74 57.312C33.528 58.1565 32.5184 58.4958 31.5 58.2401C30.7907 58.0621 30.8786 58.1738 30.8786 57.5401C31.0338 57.4131 31.27 57.4646 31.6721 57.4646C32.2021 57.4646 32.7168 57.333 32.8162 57.1723C33.18 56.4201 32.5021 55.8601 31.64 55.8601C30.94 55.7201 30.8786 55.8601 30.8 55.1601Z" fill="#6A6A6A"/>
<path d="M35.3014 54.5998C35.4628 54.3072 35.8334 53.9326 36.1414 53.7601C37.1214 53.4801 37.94 53.3401 38.78 53.7601C38.8149 53.9447 38.78 54.0401 38.78 54.3201C38.64 54.3201 38.17 54.3201 37.8 54.3201C35.98 54.3201 35.5814 55.4401 36.2814 56.9801C36.4722 57.3998 37.054 57.4646 37.3919 57.4646C37.5956 57.4646 38.0234 57.4394 38.1286 57.3998C38.22 57.1198 38.1772 56.8398 38.1286 56.6998C38.08 56.5598 37.8858 56.5601 37.52 56.5601C36.96 56.5598 37.1 56.2311 37.1 56.0001C37.1 55.7067 37.4443 55.7846 38.1286 55.7846C38.78 56.0001 38.92 55.8598 38.92 57.1198C38.92 58.3798 38.78 58.2401 37.3919 58.3801C36.3769 58.3801 35.516 57.9266 35.28 57.312C34.9891 56.5537 34.9307 55.0646 35.3014 54.5998Z" fill="#6A6A6A"/>
</svg>
