<svg width="70" height="70" viewBox="0 0 70 70" fill="none" xmlns="http://www.w3.org/2000/svg">
<path d="M31.7682 13.8314C32.0174 13.1752 32.5306 12.6755 33.103 12.5314C33.9318 12.3227 34.5466 11.8535 34.6404 13.4712V15.0889C34.6404 16.952 34.6485 16.0403 34.6404 17.7442C34.627 20.5368 34.5622 20.7103 33.9215 19.6679C33.6518 19.2291 33.3064 18.6877 33.1538 18.4649C32.7611 17.891 31.9405 16.0348 31.7105 15.2004C31.5401 14.5824 31.5473 14.413 31.7682 13.8314Z" fill="#6A6A6A"/>
<path d="M28.8247 15.9893C28.9513 15.6284 29.2228 15.1119 29.4282 14.8414C29.6334 14.5708 29.8252 14.3495 29.8545 14.3495C29.9244 14.3495 31.1862 16.1233 31.8713 17.1844C32.7875 18.6033 33.9492 20.8708 33.7601 20.8708C33.3875 20.8708 30.2892 18.9685 29.4774 18.2413C29.2467 18.0345 28.9537 17.5909 28.8262 17.2554C28.616 16.7019 28.6158 16.5847 28.8247 15.9893Z" fill="#6A6A6A"/>
<path d="M38.2442 17.0914C38.7052 16.4393 39.2961 15.5902 39.5568 15.2044C39.8177 14.8186 40.1 14.5019 40.1843 14.5004C40.4541 14.4957 41.2842 16.0427 41.2842 16.5502C41.2842 17.7132 40.2365 18.7194 37.4075 20.274C36.7751 20.6214 36.2304 20.8781 36.1968 20.8444C36.0758 20.7228 37.4244 18.2506 38.2442 17.0914Z" fill="#6A6A6A"/>
<path d="M35.3692 19.611C35.2422 18.1812 35.2373 16.0133 35.3299 15.32C35.4675 14.1645 35.5533 12.1208 35.928 12.3157C36.849 12.3157 37.9547 12.9309 38.2442 13.3777C38.6066 14.0864 37.5989 16.6312 37.5989 16.7028C37.5989 16.9995 37.0982 17.9979 36.3053 19.282L35.4615 20.6485L35.3692 19.611Z" fill="#6A6A6A"/>
<path d="M28.6104 20.9251C27.906 20.3291 27.4895 19.2694 27.6717 18.5365C27.7172 18.353 27.788 18.203 27.8288 18.203C27.9654 18.203 31.85 20.4169 32.7032 20.9811L33.5452 21.5378L31.8837 21.5797C30.0081 21.627 29.2643 21.4783 28.6104 20.9251Z" fill="#6A6A6A"/>
<path d="M37.2673 20.9593C38.3537 20.295 40.5423 19.03 41.3567 18.5956C41.7615 18.3797 42.1428 18.203 42.2043 18.203C42.4223 18.203 42.3054 19.4722 42.0315 20.0785C41.8334 20.5172 41.5483 20.8154 41.0398 21.116C40.3741 21.5093 40.1995 21.5413 38.4465 21.5897C37.4129 21.6183 36.5671 21.5845 36.5671 21.5145C36.5671 21.4446 36.8821 21.1948 37.2673 20.9593Z" fill="#6A6A6A"/>
<path d="M29.0492 22.1745C29.0492 22.1155 29.6959 22.0454 30.4864 22.0189C31.277 21.9922 32.2387 21.9563 32.6239 21.9393C33.0091 21.9222 33.3236 21.9584 33.323 22.0195C33.3217 22.1653 32.5537 22.6814 31.6122 23.1691C30.9021 23.537 30.8287 23.5471 30.3436 23.3433C29.8579 23.1392 29.0492 22.4091 29.0492 22.1745Z" fill="#6A6A6A"/>
<path d="M38.2623 23.1139C37.7758 22.8594 37.1788 22.4866 36.9356 22.2857L36.4934 21.9203L38.6308 22.0091C39.8064 22.0578 40.797 22.1229 40.8321 22.1536C40.9841 22.2868 40.2511 23.0435 39.7234 23.2982L39.1467 23.5767L38.2623 23.1139Z" fill="#6A6A6A"/>
<path fill-rule="evenodd" clip-rule="evenodd" d="M32.5854 0.871042C25.6161 1.26889 19.1633 3.63292 13.6576 7.80542C12.2536 8.86944 11.3323 9.67665 10.0314 10.9825C3.59523 17.4432 0 26.1567 0 35.2947C0 39.8611 0.855647 44.5957 2.36992 48.4087C2.6692 49.1623 3.38752 50.7988 3.40815 50.7741C3.41571 50.7649 3.2682 50.2924 3.0803 49.724C1.38795 44.6051 0.790515 38.3805 1.47108 32.9594C3.16344 19.4786 12.8012 8.14089 25.8465 4.28437C34.5012 1.72586 43.8548 2.68002 51.7848 6.93031C56.6247 9.52433 60.9731 13.4238 63.9549 17.8437C64.5888 18.7835 64.7355 18.9701 64.4717 18.5014C62.8783 15.67 61.053 13.2585 58.7561 10.9503C52.9491 5.11463 45.4126 1.61989 37.1599 0.935805C36.0422 0.843171 33.6633 0.809474 32.5854 0.871042ZM31.7844 6.15629C30.8998 6.43657 30.5183 7.03409 30.5809 8.04067C30.6556 9.23903 31.2948 9.82628 32.4389 9.74768C32.8483 9.71956 33.5658 9.50447 33.5658 9.40983C33.5658 9.39574 33.5246 9.28538 33.4742 9.16462L33.3827 8.94503L33.1306 9.07381C32.3356 9.48023 31.5106 9.19269 31.2847 8.43038C31.1189 7.871 31.2006 7.24911 31.4815 6.93256C31.7541 6.62535 32.335 6.49419 32.8136 6.63174C33.0605 6.7027 33.0975 6.67733 33.1488 6.40212C33.1852 6.20639 33.1808 6.2022 32.8727 6.13593C32.4707 6.04956 32.0991 6.05651 31.7844 6.15629ZM40.6134 6.44947C40.486 6.52376 40.4637 6.88008 40.579 6.99564C40.6202 7.03697 40.7412 7.0708 40.8478 7.0708C41.0867 7.0708 41.1915 6.97277 41.1915 6.74955C41.1915 6.44233 40.8919 6.28688 40.6134 6.44947ZM38.5884 6.8046C38.5415 7.06341 38.5129 7.10462 38.3687 7.12134C38.2525 7.13487 38.1914 7.18717 38.1639 7.29646C38.1156 7.48944 38.1623 7.57186 38.3199 7.57186C38.4663 7.57186 38.4656 7.54217 38.3398 8.46814C38.2094 9.42743 38.2608 9.65379 38.6484 9.8301C38.9192 9.9533 39.4102 9.98963 39.5558 9.89718C39.602 9.86781 39.6298 9.76772 39.6183 9.6717C39.5996 9.515 39.5723 9.49783 39.3237 9.48612C39.0228 9.4719 38.8788 9.34394 38.8788 9.09072C38.8788 8.95919 38.9497 8.40488 39.0378 7.84757L39.0685 7.65354L39.394 7.70508C39.7516 7.76177 39.788 7.74504 39.8493 7.49633C39.8945 7.31319 39.8959 7.31394 39.363 7.22813L39.1284 7.1903L39.1685 6.8487L39.2085 6.5071H38.9254H38.6423L38.5884 6.8046ZM27.7259 6.73076C27.6097 6.84726 27.5965 7.13976 27.7027 7.24617C27.744 7.28751 27.8649 7.32133 27.9715 7.32133C28.2104 7.32133 28.3153 7.22331 28.3153 7.00008C28.3153 6.79007 28.1678 6.63236 27.9715 6.63236C27.8905 6.63236 27.78 6.67664 27.7259 6.73076ZM42.3459 6.87388C42.1791 6.97584 42.0365 7.21429 41.9149 7.59466C41.8875 7.68022 41.8353 7.70333 41.7195 7.68116C41.5937 7.65704 41.5427 7.68698 41.4702 7.82747C41.3542 8.05232 41.3557 8.07274 41.4884 8.07387C41.7709 8.07637 41.7703 8.13819 41.4774 9.20446C41.3222 9.76916 41.2155 10.2503 41.2403 10.2737C41.265 10.297 41.3938 10.3455 41.5264 10.3813C41.734 10.4375 41.7717 10.4318 41.7979 10.3402C41.8146 10.2817 41.9457 9.811 42.0892 9.29428C42.3727 8.27335 42.341 8.31313 42.7886 8.41572C42.9542 8.45361 42.9892 8.4377 43.0543 8.29452C43.167 8.0465 43.1548 8.02896 42.8118 7.94647C42.5124 7.87451 42.4966 7.86079 42.5347 7.70533C42.639 7.28005 42.842 7.17145 43.1929 7.35327C43.3717 7.44591 43.3775 7.44378 43.4776 7.2498C43.574 7.06297 43.5733 7.04787 43.4639 6.98298C43.0563 6.74109 42.6311 6.69963 42.3459 6.87388ZM34.2846 7.00071C33.827 7.21128 33.6135 7.60907 33.6085 8.26083C33.603 8.95374 33.812 9.3249 34.3295 9.54149C34.6043 9.65655 35.2407 9.66193 35.5972 9.5522C35.8258 9.48186 35.8465 9.45762 35.8376 9.27066C35.8322 9.15811 35.8158 9.05395 35.801 9.03917C35.7863 9.02439 35.5937 9.05652 35.3732 9.11063C35.032 9.19431 34.9354 9.19669 34.7253 9.12636C34.4673 9.03999 34.2817 8.80342 34.2429 8.51136L34.2221 8.35478L35.0816 8.33737L35.941 8.31995V8.05213C35.941 7.66174 35.687 7.18942 35.3858 7.01981C35.0833 6.84945 34.6304 6.84162 34.2846 7.00071ZM36.4784 7.21172C36.4604 7.35816 36.4296 7.77385 36.4101 8.13556C36.3906 8.49727 36.3579 8.98343 36.3373 9.21598L36.2999 9.63876H36.6113H36.9226L36.9628 9.12203C36.9848 8.83787 37.0031 8.47359 37.0033 8.31263C37.0036 8.09109 37.0421 7.97403 37.162 7.83135C37.3361 7.62397 37.6855 7.4791 37.87 7.53779C37.9945 7.57737 38.0636 7.43977 38.0654 7.14909C38.0671 6.86179 37.4232 7.01029 37.1609 7.35766C37.0761 7.47002 37.07 7.46294 37.0681 7.25087C37.0663 7.04731 37.0459 7.01975 36.8708 6.98468C36.5371 6.91778 36.513 6.93188 36.4784 7.21172ZM43.7565 7.3172C43.6052 7.60042 43.7693 7.88503 44.0838 7.88503C44.2552 7.88503 44.4419 7.68686 44.4419 7.50497C44.4419 7.22707 43.886 7.07474 43.7565 7.3172ZM35.1625 7.47509C35.2469 7.55965 35.316 7.70057 35.316 7.78826C35.316 7.94653 35.3122 7.94766 34.7847 7.94766C34.2885 7.94766 34.2534 7.93908 34.2534 7.81757C34.2534 7.74605 34.3356 7.60512 34.4361 7.50441C34.6692 7.27078 34.9475 7.25957 35.1625 7.47509ZM40.1616 8.67634C40.0322 9.36067 39.9227 9.94666 39.9182 9.97848C39.9099 10.0388 40.4313 10.1708 40.4811 10.121C40.519 10.083 41.0085 7.55539 40.9829 7.52977C40.9719 7.51875 40.8356 7.49225 40.6799 7.4709L40.3969 7.43206L40.1616 8.67634ZM28.1121 7.70984C27.9824 7.74435 27.8777 7.81137 27.8777 7.85998C27.8777 7.95054 28.4305 10.3388 28.4579 10.3662C28.4662 10.3746 28.6047 10.3534 28.7656 10.319C28.9419 10.2813 29.0487 10.2271 29.0342 10.1825C29.0211 10.1418 28.8946 9.60118 28.7531 8.98111C28.4502 7.65354 28.4445 7.63255 28.3892 7.64095C28.3657 7.64452 28.2411 7.67552 28.1121 7.70984ZM26.1366 8.1992C25.4452 8.49257 25.1964 9.21173 25.5026 10.0317C25.7365 10.6581 26.1641 10.9375 26.7898 10.8728C27.1143 10.8393 27.6773 10.6021 27.8917 10.4085C27.9935 10.3166 27.9924 10.3011 27.8713 10.1307L27.743 9.9503L27.5645 10.0777C27.2956 10.2695 26.8711 10.4018 26.6532 10.3615C26.4563 10.3251 26.2618 10.155 26.1351 9.90852C26.0668 9.77574 26.089 9.76365 26.7992 9.54594C27.8775 9.21542 27.7904 9.29578 27.5635 8.84087C27.3167 8.34601 27.0898 8.17897 26.6317 8.15498C26.4403 8.14496 26.2176 8.16481 26.1366 8.1992ZM43.4987 8.40852C43.4606 8.5512 43.3056 9.11721 43.1544 9.66625C43.003 10.2153 42.8792 10.683 42.8792 10.7055C42.8792 10.774 43.3913 10.9046 43.4429 10.8493C43.5089 10.7786 44.1382 8.44403 44.1123 8.36624C44.101 8.33204 43.9738 8.26922 43.8298 8.22657L43.568 8.14915L43.4987 8.40852ZM26.8103 8.73615C26.9161 8.82534 27.0026 8.93532 27.0026 8.98055C27.0026 9.02796 26.818 9.11903 26.5672 9.19544C26.3276 9.26828 26.0885 9.34451 26.0359 9.3648C25.9635 9.39261 25.9403 9.35791 25.941 9.22269C25.9422 8.97741 26.0682 8.74849 26.2538 8.65441C26.482 8.53879 26.5961 8.55552 26.8103 8.73615ZM24.518 8.74617C24.2781 8.86555 24.2807 8.82766 24.4361 9.98324C24.501 10.4655 24.5478 10.8664 24.5402 10.8742C24.528 10.8866 23.5732 9.77223 23.3095 9.43796C23.2107 9.3125 23.2103 9.3125 22.9501 9.44553C22.6498 9.59905 22.66 9.50854 22.8092 10.7035C22.8715 11.203 22.9176 11.6182 22.9116 11.6261C22.9055 11.6341 22.6128 11.2888 22.2611 10.8589C21.9093 10.4289 21.5977 10.0772 21.5687 10.0772C21.5396 10.0772 21.3998 10.1292 21.258 10.1928L21.0002 10.3085L21.8212 11.2419C22.2727 11.7553 22.6926 12.2285 22.7542 12.2935C22.8641 12.4092 22.8722 12.4092 23.1528 12.2935C23.485 12.1566 23.4749 12.215 23.3455 11.1757C23.214 10.119 23.204 10.1397 23.6117 10.6257C23.8094 10.8613 24.0948 11.1973 24.2459 11.3723L24.5208 11.6905L24.8085 11.5647C24.9668 11.4955 25.1011 11.4352 25.1072 11.4308C25.1509 11.3984 24.8326 8.67477 24.7836 8.66174C24.7493 8.6526 24.6298 8.69062 24.518 8.74617ZM45.1097 8.88472C44.5653 9.05928 44.1293 9.74298 44.1296 10.4217C44.1298 10.872 44.262 11.125 44.6214 11.3634C44.8433 11.5105 45.6479 11.7144 45.7123 11.6398C45.7256 11.6244 45.7532 11.5238 45.7736 11.4162C45.8099 11.2249 45.8047 11.2199 45.5315 11.1824C44.9132 11.0975 44.6456 10.7811 44.7602 10.2702C44.8427 9.90257 44.9645 9.68354 45.1945 9.48963C45.4556 9.26947 45.6779 9.28244 46.0599 9.53999L46.3779 9.75444L46.5143 9.56253C46.648 9.37432 46.6483 9.36893 46.5307 9.28075C46.0325 8.90714 45.5014 8.75914 45.1097 8.88472ZM47.0469 9.62517C47.0332 9.64985 47.0042 9.74467 46.9824 9.8358C46.9403 10.0129 47.0164 10.0759 47.2754 10.0786C47.4958 10.0808 47.9244 10.3049 48.0367 10.4767C48.1247 10.6111 48.1294 10.6714 48.0669 10.861C48.0262 10.9846 47.9745 11.0759 47.9519 11.0639C47.1639 10.6425 46.7202 10.5573 46.3914 10.764C46.2776 10.8356 46.144 10.9913 46.0945 11.11C45.8211 11.7657 46.2699 12.3041 47.0734 12.2844C47.4107 12.2761 47.4225 12.2813 47.395 12.4256C47.3711 12.5506 47.4054 12.5916 47.6029 12.6743C47.7329 12.7288 47.8566 12.7515 47.8778 12.7249C47.8989 12.6983 48.0801 12.3327 48.2803 11.9125C48.811 10.7988 48.8158 10.3837 48.3021 10.0108C47.9732 9.77204 47.1124 9.50761 47.0469 9.62517ZM49.9019 10.5184C49.7588 10.7352 49.7108 10.7664 49.569 10.7352C49.4485 10.7087 49.371 10.7348 49.2839 10.8312C49.1656 10.9622 49.1659 10.9649 49.3136 11.0765L49.4629 11.1893L49.0463 11.8996C48.6921 12.5036 48.6298 12.6539 48.6298 12.9045C48.6298 13.1713 48.6536 13.2196 48.8832 13.4164C49.0921 13.5956 49.6099 13.8135 49.6741 13.7491C49.6834 13.7398 49.7089 13.6425 49.7308 13.5331C49.7612 13.3808 49.7487 13.3341 49.6774 13.3341C49.5092 13.3341 49.2548 13.0825 49.2548 12.9162C49.2548 12.7967 49.8276 11.7015 49.9844 11.5211C50.0058 11.4964 50.1596 11.5746 50.5162 11.7917C50.5981 11.8415 50.6493 11.8218 50.7485 11.7023C50.8185 11.618 50.8767 11.5306 50.8779 11.508C50.8791 11.4855 50.7464 11.3897 50.5831 11.2953C50.4198 11.2009 50.2757 11.1149 50.263 11.1043C50.2502 11.0937 50.3135 10.9589 50.4036 10.8048C50.4937 10.6507 50.5675 10.5089 50.5675 10.4896C50.5675 10.4596 50.1557 10.2651 50.0919 10.2651C50.0794 10.2651 49.9939 10.3791 49.9019 10.5184ZM19.7207 11.0741C19.5488 11.1739 19.2966 11.3713 19.1603 11.5127L18.9125 11.7699L19.0766 11.9343L19.2406 12.0987L19.4435 11.8671C19.6508 11.6306 20.0418 11.3925 20.223 11.3925C20.2786 11.3925 20.4097 11.4782 20.5143 11.5831L20.7045 11.7737L20.3376 11.9911C19.7917 12.3147 19.5643 12.5977 19.5649 12.9531C19.5653 13.2699 19.7164 13.5572 19.9513 13.6878C20.1464 13.7962 20.5315 13.7929 20.7477 13.6809C20.9709 13.5652 21.2398 13.2481 21.2923 13.0389L21.3324 12.8786L21.4368 13.0172L21.5412 13.1559L21.7716 13.0196C21.8985 12.9447 22.0022 12.8609 22.0022 12.8334C22.0022 12.806 21.7841 12.422 21.5177 11.9801C21.1985 11.4506 20.9609 11.1279 20.8209 11.034C20.5145 10.8283 20.1192 10.8427 19.7207 11.0741ZM51.7335 11.0686C51.6766 11.1316 51.6301 11.2444 51.6301 11.3191C51.6301 11.4896 51.8397 11.7057 52.0051 11.7057C52.1661 11.7057 52.3801 11.4912 52.3801 11.3299C52.3801 11.1599 52.1629 10.9541 51.9835 10.9541C51.9029 10.9541 51.7904 11.0056 51.7335 11.0686ZM47.4924 11.2415C47.6711 11.3307 47.8171 11.4223 47.8169 11.445C47.8168 11.4678 47.7619 11.5765 47.6949 11.6866C47.5335 11.9519 47.2296 12.0154 46.8979 11.853C46.5937 11.7041 46.5481 11.4684 46.779 11.2371C46.977 11.0387 47.0876 11.0394 47.4924 11.2415ZM50.6025 12.8733C50.0934 13.6388 49.8914 13.9926 49.9341 14.0438C49.9678 14.084 50.0778 14.1656 50.1788 14.225L50.3624 14.3329L51.0899 13.2388C51.4902 12.637 51.8176 12.1342 51.8176 12.1214C51.8176 12.1086 51.7083 12.0256 51.5749 11.9371L51.3321 11.7762L50.6025 12.8733ZM17.9393 12.2442C17.8189 12.3303 17.7279 12.4286 17.7369 12.4626C17.7459 12.4967 17.9906 12.8459 18.2806 13.2386C18.7584 13.8857 18.8029 13.9698 18.7555 14.1357C18.6295 14.5758 18.3526 14.8094 18.0792 14.7063C18.0015 14.6769 17.6797 14.3019 17.3641 13.8728L16.7903 13.0927L16.5535 13.2604C16.4233 13.3526 16.3162 13.4422 16.3154 13.4595C16.3147 13.4768 16.5814 13.8507 16.908 14.2903C17.6952 15.35 17.9676 15.5065 18.5016 15.2057C18.7487 15.0666 19.0019 14.6936 19.0019 14.4687C19.0019 14.3136 19.0796 14.2977 19.1894 14.4302C19.2952 14.5579 19.3762 14.5458 19.5908 14.37C19.7567 14.2341 19.7653 14.209 19.6846 14.0952C19.1939 13.404 18.2138 12.0882 18.1893 12.0879C18.1721 12.0877 18.0596 12.1581 17.9393 12.2442ZM21.0254 12.3567C21.1621 12.6111 21.1266 12.7613 20.8683 13.0201C20.637 13.2519 20.3662 13.2727 20.2243 13.0696C20.0335 12.7967 20.144 12.5701 20.6253 12.2476C20.8434 12.1016 20.896 12.1158 21.0254 12.3567ZM51.9989 13.0204C51.7111 13.1728 51.3959 13.5328 51.239 13.8884C50.8844 14.6914 51.5321 15.6217 52.4418 15.616C52.8321 15.6135 53.0749 15.5057 53.3739 15.202C53.9511 14.6157 54.0207 13.8919 53.5514 13.3564C53.1561 12.9052 52.489 12.7608 51.9989 13.0204ZM14.7674 13.5377L14.5713 13.7412L15.0684 14.2836L15.5655 14.826L14.9658 15.3797C14.6359 15.6842 14.346 15.9409 14.3215 15.95C14.297 15.9591 14.0724 15.7407 13.8224 15.4646C13.5724 15.1885 13.3437 14.9626 13.3144 14.9626C13.243 14.9626 12.8763 15.274 12.8763 15.3346C12.8763 15.3729 14.5388 17.1952 15.1642 17.8425L15.3144 17.9979L15.5447 17.7671L15.7749 17.5363L15.2189 16.9583L14.6628 16.3804L15.2853 15.7922L15.9078 15.204L16.4551 15.7794L17.0024 16.3548L17.2208 16.1879C17.341 16.0961 17.4392 15.9914 17.4392 15.9553C17.4392 15.881 15.0767 13.3341 15.0078 13.3341C14.9835 13.3341 14.8753 13.4258 14.7674 13.5377ZM53.0561 13.5531C53.3135 13.7702 53.3482 13.9674 53.1912 14.3231C53.0326 14.6824 52.7919 14.9489 52.5208 15.0651C52.2488 15.1817 51.931 15.0551 51.785 14.772C51.6461 14.503 51.7039 14.2335 51.9776 13.8743C52.3513 13.3839 52.7238 13.273 53.0561 13.5531ZM53.8345 15.3573L52.9449 16.3092L53.1677 16.5284L53.3904 16.7476L54.0336 16.0652L54.6768 15.3829L54.9797 15.4171C55.3072 15.4541 55.568 15.6712 55.568 15.9067C55.568 15.9764 55.2709 16.351 54.8831 16.7705L54.1983 17.5113L54.4207 17.7245L54.6432 17.9377L55.2974 17.2487C55.9596 16.5514 56.193 16.213 56.193 15.9506C56.193 15.5434 55.6762 15.0879 55.2144 15.0879C54.9836 15.0879 54.9651 15.0525 55.1013 14.8722C55.1847 14.7617 55.1777 14.7342 55.0251 14.5747C54.9326 14.478 54.8271 14.4004 54.7906 14.4021C54.754 14.404 54.3238 14.8338 53.8345 15.3573ZM9.9026 18.6736C9.47549 19.219 8.38163 20.8736 7.98747 21.5704C5.75763 25.5123 4.56345 30.2526 4.56345 35.1618C4.56345 36.9824 4.64664 37.8977 5.05912 40.6175C5.61793 44.3018 7.03594 47.9812 9.2686 51.5404C9.47393 51.8677 9.67157 52.1636 9.70789 52.1981C9.74421 52.2325 9.7312 52.1902 9.67901 52.1041C9.35786 51.5741 8.57347 50.0638 8.23137 49.3169C6.36056 45.2321 5.67062 41.8251 5.77069 37.1661C5.85139 33.4115 6.07603 31.5945 6.80779 28.7787C7.68738 25.394 9.2826 21.9641 11.0134 19.7362C11.315 19.3479 11.3177 19.3405 11.207 19.2005C10.9383 18.8604 10.3497 18.2195 10.306 18.2195C10.2797 18.2195 10.0981 18.4238 9.9026 18.6736ZM59.6934 19.1917C59.6934 19.2097 59.8026 19.4422 59.9362 19.7084C60.8167 21.4631 62.1085 24.8321 62.7877 27.1448C64.1714 31.8568 64.4845 35.2361 63.9395 39.5775C63.003 47.0368 59.7697 53.2113 54.2724 58.0379C52.9841 59.1691 51.305 60.3556 49.1923 61.6277C44.6208 64.3804 40.3191 65.5127 34.4096 65.5189C32.6513 65.5207 31.4898 65.4521 29.8779 65.2511C25.868 64.7512 22.767 63.5491 18.2574 60.7467C15.5782 59.0817 12.8883 56.5409 10.7323 53.6386C10.4253 53.2252 10.1583 52.8729 10.1391 52.8557C9.92516 52.6635 11.771 55.4178 12.6107 56.5437C13.2044 57.3397 13.5444 57.7167 14.4365 58.5681C17.6364 61.6219 20.369 63.511 23.576 64.8863C26.3336 66.0689 29.4801 66.8327 32.9693 67.1665C34.3086 67.2946 37.0812 67.4025 37.8162 67.355C41.1227 67.1414 45.3299 65.9251 48.9736 64.1293C52.0747 62.6009 54.4678 60.8646 56.8832 58.3904C61.0917 54.0794 63.8711 48.666 64.8159 42.9399C65.1824 40.7184 65.2231 40.1571 65.2231 37.3227C65.2231 34.5934 65.1771 33.9003 64.876 32.0928C64.2236 28.1764 62.2813 23.1096 60.176 19.8323C59.779 19.2142 59.6934 19.1006 59.6934 19.1917ZM65.4397 20.4117C67.6915 25.1147 68.8211 30.1713 68.8186 35.5365C68.8163 40.5805 67.95 45.3949 66.2886 49.5965C64.0207 55.3324 60.4153 60.0345 55.2554 63.9866C53.4225 65.3904 50.3251 67.1493 46.6452 68.8761C46.1209 69.1221 45.692 69.3558 45.692 69.3954C45.692 69.4885 45.8951 69.4496 47.02 69.1405C50.4214 68.2059 53.3369 66.8536 56.3493 64.8131C63.0564 60.27 67.6464 53.1419 69.3124 44.6821C70.229 40.0275 70.2292 34.8949 69.313 30.4349C68.5968 26.9484 67.338 23.5508 65.6446 20.5332C64.9269 19.2542 64.8691 19.2199 65.4397 20.4117ZM27.6277 26.1739V27.4266H27.8751H28.1225L28.1408 26.9412L28.159 26.4558H28.7216H29.2841L29.3024 26.9412L29.3206 27.4266H29.568H29.8154V26.1739V24.9213H29.5654H29.3154V25.4223V25.9234H28.7216H28.1278V25.4223V24.9213H27.8777H27.6277V26.1739ZM30.503 25.832C30.503 26.8678 30.5864 27.146 30.9568 27.3449C31.2583 27.5068 31.9408 27.4978 32.1666 27.3288C32.5671 27.0291 32.5951 26.9399 32.6182 25.8876L32.6394 24.9213H32.3885H32.1376L32.1173 25.8037C32.097 26.6822 32.0961 26.6868 31.9215 26.8372C31.6435 27.0765 31.2128 27.0051 31.0724 26.6965C31.033 26.6097 31.003 26.1937 31.003 25.7326V24.9213H30.753H30.503V25.832ZM33.4712 26.0604C33.1966 26.6869 32.9518 27.2506 32.9271 27.3131C32.888 27.4121 32.9167 27.4266 33.1521 27.4266C33.4087 27.4266 33.4266 27.4145 33.52 27.1761L33.6182 26.9255H34.1864H34.7544L34.8545 27.1761C34.95 27.4153 34.9669 27.4266 35.2298 27.4266H35.5052L35.4195 27.223C35.3724 27.1111 35.1273 26.5474 34.8748 25.9704L34.4158 24.9213H34.1931H33.9705L33.4712 26.0604ZM35.3303 24.9996C35.3456 25.0427 35.5384 25.6062 35.7589 26.2518L36.1598 27.4258L36.3891 27.4262L36.6183 27.4266L36.8209 26.8159C37.1873 25.712 37.1363 25.7269 37.4382 26.6347L37.7016 27.4266H37.9312H38.1609L38.5824 26.2145C38.8142 25.5479 39.0038 24.9826 39.0038 24.9583C39.0038 24.934 38.8854 24.9227 38.7408 24.9334L38.4777 24.9526L38.2251 25.7497C38.0862 26.188 37.9576 26.5474 37.9394 26.5482C37.9212 26.5491 37.7857 26.1833 37.6382 25.7355L37.37 24.9213H37.1695H36.969L36.6865 25.778L36.4039 26.6348L36.1299 25.778L35.8557 24.9213H35.5792C35.3848 24.9213 35.3108 24.9445 35.3303 24.9996ZM39.4414 26.1739V27.4266H40.379H41.3166V27.2074V26.9882H40.629H39.9414V26.675V26.3618H40.379H40.8165V26.1426V25.9234H40.379H39.9414V25.6729V25.4223H40.5977H41.254V25.1718V24.9213H40.3477H39.4414V26.1739ZM41.8791 26.1739V27.4266H42.1291H42.3792V26.1739V24.9213H42.1291H41.8791V26.1739ZM34.3631 26.0028C34.5611 26.4628 34.553 26.4871 34.2013 26.4871C34.0351 26.4871 33.8833 26.4712 33.8639 26.4518C33.8238 26.4115 34.1293 25.6723 34.1855 25.6739C34.2056 25.6745 34.2855 25.8225 34.3631 26.0028ZM11.3136 29.6814V29.9946H35.0034H58.6933V29.6814V29.3682H35.0034H11.3136V29.6814ZM32.1282 32.2894C32.0422 32.302 31.7609 32.3434 31.5031 32.3814C29.5346 32.671 27.9011 33.8284 27.0486 35.5376C26.5784 36.4804 26.3158 37.6809 26.3158 38.8885C26.3158 41.5073 27.4147 43.4857 29.4091 44.4576C30.4216 44.951 31.5049 45.1694 32.9407 45.1699C33.9585 45.1702 34.5805 45.1 35.4097 44.8913C35.9813 44.7474 36.8583 44.4211 36.9134 44.3319C36.9338 44.2989 36.8329 43.9183 36.6892 43.4863C36.471 42.8303 36.411 42.7082 36.3251 42.7456C34.9446 43.3475 33.137 43.5775 31.8781 43.3116C30.734 43.0699 29.7362 42.3117 29.2633 41.3245C29.1247 41.0354 28.965 40.6297 28.9083 40.423C28.7699 39.9189 28.7106 38.1819 28.8116 37.5973C29.1842 35.4417 30.4969 34.1998 32.5823 34.0303C33.5027 33.9554 34.7863 34.1996 35.733 34.6297C35.9601 34.7329 36.152 34.8173 36.1596 34.8173C36.1672 34.8173 36.3088 34.4485 36.4743 33.9978C36.8183 33.0607 36.8527 33.1638 36.0973 32.8687C34.8934 32.3984 33.1334 32.1416 32.1282 32.2894ZM13.6263 38.7945V45.1518H14.7514H15.8766V42.302V39.4522H18.9081H21.9397V42.302V45.1518H23.0335H24.1274V38.7945V32.4373H23.0335H21.9397V35.0365V37.6358H18.9081H15.8766V35.0365V32.4373H14.7514H13.6263V38.7945ZM39.2539 38.7945V45.1518H40.4102H41.5666V38.7945V32.4373H40.4102H39.2539V38.7945ZM48.2971 32.4828C48.2734 32.5219 43.4419 44.5133 43.2489 45.0123L43.1938 45.1546L44.3594 45.1375L45.525 45.1205L46.1554 43.4453L46.7858 41.7701L49.3879 41.7699L51.9899 41.7696L52.0569 41.9419C52.0937 42.0366 52.3046 42.5792 52.5255 43.1476C52.7465 43.7159 53.0081 44.3992 53.1069 44.6657L53.2865 45.1504L54.4897 45.1511C55.1515 45.1515 55.693 45.129 55.693 45.101C55.693 45.073 54.5285 42.2193 53.1052 38.7593L50.5175 32.4686L49.4219 32.4515C48.8193 32.4421 48.3132 32.4562 48.2971 32.4828ZM49.503 35.1758C49.5458 35.3404 49.6901 35.7568 49.8236 36.1013C50.6713 38.2885 51.31 39.9817 51.2933 39.9984C51.2827 40.009 50.4164 40.0103 49.3682 40.0012L47.4623 39.9846L48.1401 38.1995C48.5129 37.2177 48.9359 36.057 49.0801 35.62C49.2243 35.183 49.361 34.8369 49.3838 34.8511C49.4065 34.8652 49.4602 35.0114 49.503 35.1758ZM11.3136 48.3461V48.6593H35.0034H58.6933V48.3461V48.0329H35.0034H11.3136V48.3461ZM3.5986 51.2272C3.69805 51.5841 4.49457 53.387 4.93998 54.2632C7.01944 58.3542 9.92204 61.8158 13.5302 64.508C15.0044 65.6079 16.7521 66.6984 18.2207 67.4346C20.0062 68.3296 23.4127 69.45 24.1349 69.3796C24.3037 69.3631 24.1178 69.2709 23.0931 68.8627C19.2237 67.3211 15.5354 64.9776 11.9387 61.7751C8.59509 58.798 5.86639 55.3972 3.96383 51.836C3.73899 51.415 3.5746 51.1411 3.5986 51.2272ZM31.7345 51.5856L31.5597 51.6119L31.5782 53.2103L31.5968 54.8086L31.748 54.9311C31.8629 55.0243 31.9752 55.0493 32.2168 55.0351C32.5338 55.0166 32.5344 55.0161 32.5344 54.8002C32.5344 54.621 32.5076 54.5774 32.3782 54.5469L32.2219 54.5099L32.2052 53.0251L32.1884 51.5404L32.0489 51.5498C31.9721 51.5549 31.8307 51.571 31.7345 51.5856ZM40.1784 51.585C40.0132 51.6102 40.0086 51.6227 39.9909 52.0897L39.9727 52.5685L39.648 52.5511C39.2475 52.5296 38.8277 52.7011 38.6424 52.9619C38.2148 53.5636 38.3488 54.6793 38.8818 54.9554C39.1342 55.0863 39.5583 55.0714 39.8008 54.9233C39.9665 54.822 40.0039 54.8163 40.0039 54.8922C40.0039 54.9624 40.0826 54.9852 40.3238 54.9852C40.6249 54.9852 40.6414 54.977 40.6059 54.8443C40.5852 54.7668 40.5678 53.9918 40.5674 53.1219C40.5664 51.3763 40.6028 51.5202 40.1784 51.585ZM29.7217 51.7831C28.9477 51.9877 28.5134 52.6795 28.5796 53.6026C28.6508 54.5974 29.297 55.1135 30.3693 55.0323C30.5976 55.015 30.864 54.9635 30.9615 54.9179C31.1148 54.8462 31.1336 54.8095 31.1009 54.6459C31.0464 54.3726 31.0015 54.3524 30.6896 54.4609C30.3386 54.583 29.8641 54.545 29.6389 54.3768C29.3376 54.1518 29.2212 53.8732 29.2256 53.3881C29.2316 52.7274 29.4293 52.4307 29.9597 52.2871C30.1806 52.2272 30.3747 52.2566 30.903 52.4301C30.9339 52.4403 30.9964 52.3411 31.0417 52.2097L31.1242 51.9709L30.9027 51.8781C30.6369 51.7668 29.9823 51.7142 29.7217 51.7831ZM33.6596 52.5875C33.4317 52.643 33.1163 52.9315 32.9978 53.1929C32.8305 53.5622 32.8397 54.1305 33.0189 54.4866C33.3241 55.093 34.2935 55.2506 34.8085 54.7775C35.2643 54.3589 35.3125 53.3703 34.9 52.9054C34.6503 52.624 34.0947 52.4816 33.6596 52.5875ZM35.7011 53.5916C35.7244 54.6814 35.7728 54.8375 36.1326 54.9869C36.3831 55.0909 36.8245 55.0324 37.0604 54.864C37.2531 54.7266 37.2537 54.7266 37.2537 54.8557C37.2537 54.9685 37.2921 54.9852 37.5506 54.9853L37.8475 54.9854L37.8292 53.7953L37.811 52.6052H37.5011H37.1911V53.4517V54.2981L36.988 54.4222C36.7346 54.5771 36.5532 54.5803 36.4195 54.4323C36.3339 54.3374 36.3161 54.1703 36.3161 53.4614V52.6052H35.998H35.68L35.7011 53.5916ZM34.3894 53.2329C34.621 53.5452 34.6131 54.1863 34.3749 54.425C34.2549 54.5453 33.984 54.5835 33.7874 54.5079C33.4277 54.3696 33.412 53.2341 33.7676 53.0841C33.9601 53.0028 34.2746 53.0782 34.3894 53.2329ZM39.9727 53.7011V54.3273L39.7428 54.4508C39.2714 54.704 38.9303 54.3174 39.031 53.6441C39.0963 53.2079 39.2903 53.031 39.6763 53.0559L39.9727 53.0749V53.7011ZM40.2224 57.1376C39.9887 57.4952 40.4892 57.881 40.7756 57.5639C40.8324 57.5009 40.879 57.3902 40.879 57.3179C40.879 56.994 40.402 56.863 40.2224 57.1376ZM23.5699 57.2806C23.1721 57.4792 22.9177 57.8392 22.8109 58.3546C22.6295 59.2304 23.0254 60.079 23.7231 60.3098C24.0054 60.4031 24.9608 60.3632 25.201 60.2481C25.348 60.1776 25.3611 60.1479 25.3085 60.0036C25.2757 59.9132 25.2374 59.8067 25.2236 59.767C25.205 59.7135 25.136 59.7169 24.9598 59.7799C24.1125 60.0826 23.4312 59.657 23.4233 58.82C23.419 58.3615 23.5201 58.058 23.7508 57.8365C23.9863 57.6105 24.4266 57.5568 24.8526 57.7023C25.016 57.7581 25.1557 57.8037 25.1631 57.8037C25.1704 57.8037 25.1934 57.7359 25.2142 57.653C25.235 57.5701 25.2677 57.461 25.287 57.4106C25.3437 57.2625 24.8794 57.1148 24.3571 57.1148C23.9901 57.1148 23.8376 57.1469 23.5699 57.2806ZM38.5507 57.3475C38.3936 57.3714 38.3788 57.3971 38.3788 57.6445C38.3788 57.8813 38.3591 57.9204 38.2225 57.9547C38.0932 57.9873 38.0662 58.0317 38.0662 58.212C38.0662 58.4009 38.0864 58.4301 38.2176 58.4301H38.3688L38.3895 59.2499C38.4098 60.0595 38.4122 60.0716 38.5854 60.2207C38.7287 60.344 38.8296 60.3717 39.1365 60.3717C39.6436 60.3717 39.7515 60.3084 39.6942 60.0447C39.6697 59.9318 39.6233 59.8442 39.5912 59.8502C39.5591 59.8561 39.463 59.8785 39.3777 59.8999C39.2844 59.9234 39.1735 59.9029 39.0994 59.8485C38.9934 59.7707 38.9728 59.6658 38.9518 59.0976L38.9274 58.4371L39.2617 58.4179C39.5952 58.3988 39.5961 58.3982 39.6339 58.1639L39.6717 57.929H39.3065H38.9413V57.6158C38.9413 57.28 38.9511 57.2868 38.5507 57.3475ZM26.4629 57.9261C25.95 58.0486 25.6266 58.525 25.6289 59.1545C25.6306 59.6155 25.7904 59.9878 26.0731 60.1896C26.3831 60.4107 27.0623 60.433 27.4043 60.2332C27.7495 60.0315 27.9406 59.6465 27.9389 59.1562C27.9356 58.2362 27.3181 57.7216 26.4629 57.9261ZM29.4041 58.0227C29.235 58.1087 29.0895 58.1792 29.081 58.1793C29.0724 58.1794 29.0654 58.1232 29.0654 58.0543C29.0654 57.9475 29.0237 57.929 28.7841 57.929H28.5028V59.1538V60.3786L28.7997 60.3595L29.0966 60.3404L29.1279 59.4972L29.1591 58.6539L29.3715 58.5107C29.6193 58.3436 29.686 58.336 29.8504 58.4563C29.9589 58.5358 29.9739 58.6409 29.9932 59.4584L30.0147 60.3717H30.2883H30.562L30.5794 59.5171C30.5963 58.6861 30.6011 58.6595 30.753 58.5515C31.0159 58.3646 31.1706 58.3475 31.3124 58.4895C31.4295 58.6068 31.4406 58.6942 31.4406 59.4948V60.3717H31.7531H32.0656L32.0653 59.5105C32.0651 59.0369 32.037 58.5486 32.0029 58.4254C31.8526 57.8833 31.2856 57.725 30.7548 58.0769C30.5092 58.2399 30.4791 58.2464 30.4249 58.1493C30.3591 58.0316 30.0106 57.8664 29.8281 57.8664C29.764 57.8664 29.5732 57.9367 29.4041 58.0227ZM33.5995 57.9877C33.3039 58.1419 33.3158 58.1405 33.3158 58.023C33.3158 57.9517 33.2384 57.929 32.9951 57.929H32.6743L32.7131 58.1639C32.7344 58.2931 32.7522 59.054 32.7525 59.855L32.7532 61.3112H33.0345H33.3158V60.8414V60.3717H33.7252C34.1845 60.3717 34.4109 60.2806 34.6451 60.0018C34.9634 59.6227 35.0191 58.7576 34.7533 58.3197C34.5016 57.9051 34.0222 57.7671 33.5995 57.9877ZM42.5902 57.9344C42.4827 57.9656 42.3598 58.0335 42.3168 58.0853C42.2086 58.2161 42.1291 58.203 42.1291 58.0543C42.1291 57.9453 42.0874 57.929 41.8088 57.929H41.4884L41.5275 58.1247C41.549 58.2324 41.5666 58.782 41.5666 59.3461V60.3717H41.8479H42.1291V59.5304V58.6891L42.3048 58.5638C42.557 58.3838 42.7639 58.3461 42.9105 58.4534C43.0238 58.5364 43.0373 58.6304 43.0558 59.4616L43.076 60.3782L43.3683 60.3593L43.6605 60.3404V59.3667C43.6605 58.2708 43.6134 58.1197 43.2201 57.9551C42.9828 57.8557 42.8733 57.8522 42.5902 57.9344ZM44.9107 57.9568C44.4557 58.1233 44.1915 58.5881 44.1922 59.2203C44.1927 59.6812 44.295 59.9637 44.5393 60.1787C44.722 60.3394 44.8112 60.3717 45.0722 60.3717C45.2446 60.3717 45.4686 60.3287 45.5701 60.2761C45.7514 60.1822 45.7545 60.1833 45.7545 60.3429C45.7545 60.771 45.398 60.9417 44.8421 60.7798C44.6489 60.7235 44.4791 60.6894 44.4645 60.704C44.4499 60.7186 44.4124 60.8202 44.381 60.9298C44.3291 61.1109 44.3393 61.1358 44.4923 61.203C44.5849 61.2437 44.9138 61.2776 45.2232 61.2784C45.7064 61.2797 45.8133 61.2602 45.9812 61.1402C46.3455 60.8798 46.3795 60.7182 46.3795 59.2476V57.9231L46.0514 57.9356C45.8709 57.9425 45.5967 57.9295 45.442 57.9067C45.256 57.8793 45.076 57.8962 44.9107 57.9568ZM35.441 58.8392C35.441 59.8227 35.5 60.0865 35.7608 60.2695C35.9689 60.4156 36.4862 60.4031 36.7224 60.2464C36.9581 60.09 37.0036 60.09 37.0036 60.2464C37.0036 60.3532 37.0453 60.3717 37.2849 60.3717H37.5662V59.1504V57.929H37.2537H36.9411V58.77C36.9411 59.6039 36.9397 59.6121 36.7764 59.7408C36.595 59.8838 36.2582 59.9128 36.141 59.7955C36.0897 59.7441 36.066 59.4378 36.066 58.8247V57.929H35.7535H35.441V58.8392ZM40.2057 59.1347L40.2227 60.3404L40.5196 60.3595L40.8165 60.3786V59.1538V57.929H40.5026H40.1888L40.2057 59.1347ZM27.012 58.4351C27.2781 58.5778 27.4088 59.2745 27.2343 59.6201C27.1909 59.7062 27.0801 59.8128 26.9882 59.8569C26.6023 60.0424 26.2533 59.713 26.2528 59.1629C26.2523 58.5632 26.6105 58.2198 27.012 58.4351ZM34.1092 58.5186C34.268 58.6554 34.2846 58.7083 34.2846 59.0777C34.2846 59.3944 34.2552 59.5252 34.1532 59.6625C33.9856 59.888 33.7455 59.9767 33.5189 59.8969C33.3471 59.8363 33.347 59.836 33.347 59.2189V58.6015L33.5648 58.4845C33.8458 58.3335 33.8983 58.3367 34.1092 58.5186ZM45.6556 58.4055C45.7365 58.4366 45.7545 58.5555 45.7545 59.0595C45.7545 59.6252 45.7431 59.6836 45.6155 59.7731C45.3951 59.9279 45.0974 59.8978 44.9465 59.7056C44.713 59.4083 44.8149 58.6091 45.1079 58.4384C45.2364 58.3636 45.5047 58.3474 45.6556 58.4055Z" fill="#6A6A6A"/>
</svg>
