<svg width="70" height="69" viewBox="0 0 70 69" fill="none" xmlns="http://www.w3.org/2000/svg">
<path d="M31.8095 12.9723C32.0584 12.3152 32.5709 11.8147 33.1425 11.6704C33.9703 11.4614 34.5842 10.9915 34.6779 12.6116V14.2317C34.6779 16.0976 34.686 15.1845 34.6779 16.8909C34.6645 19.6876 34.5998 19.8614 33.96 18.8175C33.6906 18.378 33.3457 17.8358 33.1933 17.6127C32.8011 17.0379 31.9816 15.179 31.7519 14.3433C31.5818 13.7244 31.589 13.5547 31.8095 12.9723Z" fill="#6A6A6A"/>
<path d="M28.87 15.1334C28.9964 14.772 29.2676 14.2547 29.4727 13.9839C29.6776 13.7128 29.8691 13.4912 29.8984 13.4912C29.9682 13.4912 31.2283 15.2676 31.9125 16.3302C32.8275 17.7513 33.9877 20.0221 33.7988 20.0221C33.4266 20.0221 30.3325 18.117 29.5218 17.3887C29.2914 17.1816 28.9988 16.7374 28.8714 16.4013C28.6615 15.8471 28.6614 15.7297 28.87 15.1334Z" fill="#6A6A6A"/>
<path d="M38.2768 16.2372C38.7373 15.5841 39.3273 14.7337 39.5878 14.3474C39.8483 13.961 40.1302 13.6438 40.2144 13.6423C40.4838 13.6376 41.3128 15.1869 41.3128 15.6951C41.3128 16.8598 40.2665 17.8675 37.4412 19.4244C36.8097 19.7723 36.2658 20.0294 36.2322 19.9957C36.1113 19.8738 37.4582 17.398 38.2768 16.2372Z" fill="#6A6A6A"/>
<path d="M35.4057 18.7605C35.2788 17.3286 35.274 15.1574 35.3664 14.4631C35.5039 13.3059 35.5896 11.2592 35.9638 11.4544C36.8835 11.4544 37.9877 12.0705 38.2768 12.518C38.6388 13.2277 37.6325 15.7763 37.6325 15.848C37.6325 16.1451 37.1324 17.145 36.3405 18.431L35.4979 19.7995L35.4057 18.7605Z" fill="#6A6A6A"/>
<path d="M28.6559 20.0765C27.9525 19.4796 27.5365 18.4183 27.7185 17.6844C27.764 17.5006 27.8346 17.3504 27.8754 17.3504C28.0119 17.3504 31.8912 19.5675 32.7433 20.1326L33.5841 20.6901L31.9249 20.7321C30.0518 20.7794 29.309 20.6305 28.6559 20.0765Z" fill="#6A6A6A"/>
<path d="M37.3012 20.1107C38.3862 19.4455 40.5719 18.1786 41.3852 17.7436C41.7895 17.5273 42.1703 17.3504 42.2317 17.3504C42.4494 17.3504 42.3327 18.6214 42.0591 19.2286C41.8613 19.668 41.5766 19.9666 41.0687 20.2676C40.4039 20.6616 40.2296 20.6936 38.4789 20.742C37.4467 20.7707 36.602 20.7368 36.602 20.6668C36.602 20.5967 36.9166 20.3466 37.3012 20.1107Z" fill="#6A6A6A"/>
<path d="M29.0942 21.3277C29.0942 21.2686 29.74 21.1984 30.5295 21.1719C31.319 21.1451 32.2794 21.1092 32.6641 21.0922C33.0487 21.0751 33.3629 21.1113 33.3623 21.1725C33.361 21.3185 32.594 21.8353 31.6537 22.3238C30.9446 22.6922 30.8713 22.7023 30.3868 22.4982C29.9018 22.2938 29.0942 21.5627 29.0942 21.3277Z" fill="#6A6A6A"/>
<path d="M38.2949 22.2685C37.8091 22.0136 37.2129 21.6403 36.97 21.439L36.5284 21.0732L38.663 21.1621C39.837 21.2109 40.8263 21.2761 40.8613 21.3068C41.0131 21.4402 40.2811 22.198 39.7541 22.4531L39.1782 22.732L38.2949 22.2685Z" fill="#6A6A6A"/>
<path fill-rule="evenodd" clip-rule="evenodd" d="M32.8337 0.0379032C32.6674 0.0507093 32.0209 0.0992818 31.3971 0.145884C25.0493 0.620392 18.5507 3.16828 13.3315 7.22865C9.14298 10.4873 5.88489 14.4931 3.53455 19.2742C1.81711 22.7676 0.761599 26.2603 0.283259 30.0327C-0.418599 35.5668 0.195924 41.515 1.99238 46.5769C2.38944 47.6958 3.07413 49.3497 3.12086 49.3029C3.13334 49.2904 2.97583 48.7178 2.77084 48.0305C1.74565 44.593 1.28107 41.4317 1.2109 37.4152C1.15563 34.2539 1.31253 32.3064 1.83079 29.7199C2.43216 26.719 3.31065 24.152 4.70545 21.3202C6.5013 17.674 8.3829 15.0483 11.2789 12.1471C13.6583 9.76335 15.9594 8.00588 18.7719 6.42444C29.0509 0.644791 41.8631 0.579776 52.1069 6.25546C55.0879 7.90715 57.5458 9.77169 60.0202 12.2585C61.3727 13.6178 62.1274 14.4912 63.2506 15.9969C63.6471 16.5283 63.9866 16.963 64.0053 16.963C64.1241 16.963 62.5126 14.5374 61.6895 13.4774C57.9335 8.64013 53.1438 4.95469 47.5787 2.61997C44.8434 1.47242 41.2812 0.549693 38.3158 0.220447C36.5979 0.0297194 34.0476 -0.0551496 32.8337 0.0379032ZM31.9642 5.28758C31.2473 5.43382 30.8285 5.81013 30.6332 6.48347C30.4824 7.00352 30.5354 7.52736 30.7929 8.06249C31.0738 8.64596 31.5571 8.9308 32.2659 8.9308C32.6476 8.9308 33.2662 8.77114 33.4379 8.62831C33.5871 8.50426 33.4265 8.1444 33.2551 8.21866C32.9146 8.36605 32.3538 8.471 32.1306 8.42902C31.81 8.36878 31.4444 8.06279 31.3112 7.74332C31.1599 7.38043 31.1787 6.5963 31.3462 6.28335C31.5677 5.86961 31.9004 5.72912 32.5417 5.77883C33.0719 5.8199 33.0821 5.81733 33.1178 5.63016C33.1419 5.50377 33.1129 5.41844 33.0317 5.37631C32.8397 5.27682 32.2551 5.22824 31.9642 5.28758ZM40.5546 5.71654C40.4237 6.05829 40.6458 6.34147 40.965 6.23993C41.1493 6.18128 41.2385 5.86112 41.1128 5.70935C40.9883 5.55901 40.613 5.56386 40.5546 5.71654ZM38.6721 5.72503C38.6523 5.7586 38.6124 5.89697 38.5834 6.03238C38.5458 6.2081 38.4884 6.27865 38.383 6.27865C38.2993 6.27865 38.2075 6.35253 38.171 6.44915C38.091 6.66132 38.1303 6.7333 38.3263 6.7333C38.4526 6.7333 38.4719 6.76945 38.4377 6.94169C38.3257 7.50614 38.2475 8.3424 38.2879 8.54473C38.3598 8.90474 38.5646 9.03386 39.12 9.06932L39.6131 9.10077L39.5883 8.8842C39.5706 8.72954 39.5203 8.66566 39.4122 8.66066C39.0613 8.6443 38.9976 8.62005 38.9188 8.47251C38.8587 8.35998 38.8587 8.15653 38.9186 7.7337C39.0561 6.76195 39.0226 6.82075 39.4309 6.83469C39.7671 6.84621 39.7903 6.83477 39.7903 6.65753C39.7903 6.49332 39.75 6.46301 39.4879 6.4302C39.1864 6.39246 39.1854 6.39118 39.18 6.05132C39.175 5.72723 39.1632 5.70919 38.9414 5.68714C38.8131 5.67434 38.6919 5.69139 38.6721 5.72503ZM27.6973 5.94304C27.5454 6.09527 27.548 6.14824 27.717 6.35746C27.9873 6.69201 28.4641 6.3595 28.2606 5.97843C28.1618 5.79346 27.8652 5.77482 27.6973 5.94304ZM42.4368 6.00389C42.2142 6.10202 42.0989 6.26092 41.9487 6.67647C41.8949 6.82552 41.8214 6.88486 41.6907 6.88486C41.5094 6.88486 41.3763 7.06225 41.4581 7.19478C41.4815 7.23274 41.5496 7.26374 41.6095 7.26374C41.7658 7.26374 41.7469 7.41521 41.4584 8.47562C41.3167 8.99627 41.2105 9.43206 41.2225 9.44411C41.2345 9.45608 41.3525 9.497 41.4848 9.53504C41.7704 9.61711 41.7456 9.66386 42.1001 8.37325C42.3506 7.46068 42.3759 7.4284 42.733 7.56441C42.8907 7.6245 42.9395 7.6117 43.0026 7.49364C43.1255 7.26351 43.0976 7.21736 42.7771 7.12113C42.6108 7.07119 42.4747 7.01974 42.4747 7.00678C42.4747 6.99382 42.5121 6.87569 42.5578 6.74414C42.6536 6.46892 42.9166 6.36602 43.1972 6.49408C43.3497 6.56372 43.3916 6.55387 43.4562 6.43293C43.5636 6.23174 43.559 6.21992 43.3253 6.10027C42.9928 5.93001 42.6811 5.89621 42.4368 6.00389ZM34.2146 6.20325C33.818 6.41914 33.6183 6.84128 33.6183 7.46325C33.6183 8.03241 33.7649 8.34612 34.1534 8.60853C34.4564 8.8132 35.2155 8.84465 35.6331 8.66983C35.8627 8.57367 35.8862 8.53919 35.827 8.38567C35.7898 8.28959 35.7136 8.22419 35.6577 8.24033C35.3521 8.32877 34.7326 8.33445 34.5757 8.25034C34.3868 8.14903 34.2326 7.8754 34.2326 7.64155C34.2326 7.50796 34.3023 7.49425 35.0833 7.47462L35.934 7.45318L35.9071 7.15007C35.8748 6.7865 35.7513 6.53144 35.4881 6.28494C35.2149 6.02927 34.6059 5.99017 34.2146 6.20325ZM36.477 6.48302C36.4524 6.68322 36.4094 7.27722 36.3814 7.80311L36.3305 8.75917L36.5859 8.79744C36.9046 8.84518 36.952 8.77448 36.9542 8.24882C36.9581 7.37255 37.0344 7.04383 37.2736 6.87311C37.3955 6.7862 37.5925 6.71012 37.7113 6.70413C37.9664 6.69125 37.9772 6.68163 38.042 6.41126C38.0882 6.21818 38.0748 6.20287 37.8586 6.20287C37.5985 6.20287 37.3264 6.32336 37.2345 6.47915C37.1374 6.64412 37.0422 6.59797 37.0165 6.37337C36.9968 6.20189 36.9508 6.16089 36.7571 6.14203C36.5282 6.11967 36.5204 6.12922 36.477 6.48302ZM43.8033 6.47347C43.7379 6.53902 43.6845 6.63889 43.6845 6.69542C43.6845 6.84341 43.8985 7.03641 44.0626 7.03641C44.2236 7.03641 44.4406 6.84432 44.4406 6.70178C44.4406 6.57122 44.1925 6.35443 44.0431 6.35443C43.9766 6.35443 43.8687 6.408 43.8033 6.47347ZM35.1593 6.63858C35.2243 6.71156 35.2892 6.83939 35.3033 6.92274C35.3268 7.06111 35.2814 7.07627 34.7808 7.09657C34.1696 7.12135 34.1099 7.06172 34.3894 6.70565C34.5767 6.46703 34.9752 6.43232 35.1593 6.63858ZM40.3956 6.67776C40.2935 6.97882 39.9221 9.1285 39.9652 9.16912C39.9938 9.19594 40.1236 9.24035 40.2537 9.26778L40.4902 9.31764L40.7354 8.02202C40.8703 7.30935 40.968 6.71573 40.9526 6.70284C40.9372 6.68989 40.8126 6.65791 40.6759 6.63184C40.5101 6.60017 40.4167 6.61547 40.3956 6.67776ZM27.9645 6.9523C27.8763 7.00981 27.8998 7.1991 28.1083 8.10856C28.4424 9.56649 28.4361 9.55171 28.6926 9.49109C28.8076 9.46389 28.9261 9.41994 28.9559 9.39342C28.9857 9.36689 28.8826 8.80009 28.7269 8.13394C28.4593 6.98973 28.4333 6.92168 28.2569 6.90312C28.1541 6.89228 28.0225 6.91441 27.9645 6.9523ZM25.9332 7.49068C25.2055 7.93534 25.1938 9.12759 25.9106 9.80223C26.126 10.005 26.2026 10.0293 26.6196 10.0271C26.9923 10.0252 27.1703 9.97916 27.498 9.7998C27.9555 9.54936 27.9986 9.48571 27.8463 9.28415C27.7455 9.15055 27.7279 9.15283 27.4075 9.34098C26.9433 9.61362 26.5743 9.60324 26.281 9.3093C26.1561 9.18412 26.0667 9.0428 26.0825 8.99537C26.0983 8.94785 26.4499 8.80684 26.8638 8.68196C27.2777 8.557 27.628 8.44501 27.6424 8.43303C27.7328 8.35756 27.5204 7.89086 27.2809 7.63852C27.0186 7.36224 26.966 7.33951 26.5883 7.33981C26.314 7.33997 26.0986 7.3896 25.9332 7.49068ZM43.5777 7.40453C43.4918 7.5438 42.9217 9.7116 42.9425 9.81981C42.9618 9.92021 43.3673 10.1075 43.4298 10.0449C43.4718 10.0027 44.1342 7.53751 44.11 7.51327C44.0422 7.44545 43.6073 7.35656 43.5777 7.40453ZM26.7743 7.87547C26.8839 7.96178 26.9736 8.07802 26.9736 8.13372C26.9736 8.26155 26.0626 8.5786 25.9679 8.48373C25.8438 8.3593 25.9932 7.94943 26.2047 7.83425C26.4754 7.68694 26.5412 7.69172 26.7743 7.87547ZM24.4394 7.97497C24.3001 8.07704 24.2997 8.10742 24.4222 9.05129C24.4916 9.58543 24.5389 10.032 24.5274 10.0435C24.5159 10.055 24.2194 9.72418 23.8685 9.30824C23.5177 8.89239 23.2034 8.552 23.1702 8.552C23.137 8.55193 23.0071 8.60512 22.8816 8.67013C22.6922 8.76826 22.6603 8.8229 22.6933 8.99218C22.7804 9.43888 22.9073 10.6819 22.8697 10.7196C22.8477 10.7417 22.5493 10.4164 22.2066 9.99682C21.8639 9.57725 21.5697 9.23391 21.5527 9.23391C21.4492 9.23391 21.0701 9.48154 21.0897 9.53633C21.1028 9.5727 21.4367 9.96704 21.8318 10.4126C22.2269 10.8582 22.6191 11.3068 22.7035 11.4097C22.8564 11.5961 22.8575 11.5962 23.1383 11.4621C23.4621 11.3073 23.4579 11.3374 23.3088 10.2203C23.2505 9.78343 23.2134 9.41539 23.2263 9.40243C23.2392 9.38948 23.5291 9.70432 23.8706 10.1021C24.212 10.4998 24.5065 10.8252 24.525 10.8252C24.5436 10.8252 24.6814 10.7738 24.8313 10.7111L25.1039 10.597L25.0592 10.1996C25.0347 9.98106 24.9733 9.36742 24.923 8.83608C24.8254 7.80659 24.7799 7.72551 24.4394 7.97497ZM44.8442 8.212C44.2289 8.58163 43.9367 9.6218 44.2868 10.197C44.5433 10.6186 45.515 10.9664 45.7257 10.712C45.8667 10.5418 45.7598 10.3705 45.5128 10.3705C45.3929 10.3705 45.1792 10.2927 45.0378 10.1975C44.8225 10.0526 44.7771 9.97219 44.7575 9.70054C44.7245 9.24611 44.9836 8.7306 45.3275 8.56625C45.5846 8.44341 45.5989 8.44538 45.9712 8.65362C46.3197 8.84866 46.362 8.85639 46.4725 8.74576C46.6352 8.58261 46.5249 8.41735 46.1045 8.19464C45.6716 7.96512 45.2453 7.97103 44.8442 8.212ZM47.067 8.82464C47.0365 8.85526 47.0115 8.95983 47.0115 9.05712C47.0115 9.19579 47.0528 9.23391 47.203 9.23391C47.743 9.23391 48.2117 9.65651 48.074 10.0193C48.0324 10.1291 47.9838 10.219 47.9661 10.219C47.9484 10.219 47.7519 10.134 47.5294 10.0303C47.1048 9.83216 46.6475 9.78669 46.4025 9.91816C46.2029 10.0252 46.0286 10.3868 46.0286 10.6936C46.0286 11.1488 46.6459 11.5615 47.1697 11.4566C47.3567 11.4191 47.3896 11.4363 47.3896 11.5715C47.3896 11.6717 47.4738 11.7742 47.6169 11.8484L47.8442 11.9662L48.2307 11.1494C48.4455 10.6954 48.6336 10.1797 48.6542 9.98826C48.6863 9.69121 48.6619 9.60877 48.4778 9.3894C48.1785 9.0331 47.2357 8.65559 47.067 8.82464ZM49.9107 9.68856C49.8152 9.85057 49.7189 9.91589 49.5754 9.91589C49.4647 9.91589 49.3291 9.97037 49.2739 10.0369C49.1894 10.1389 49.1939 10.1692 49.3025 10.2301C49.3733 10.2698 49.4312 10.3315 49.4312 10.3672C49.4312 10.4029 49.2589 10.7255 49.0482 11.0841C48.8376 11.4428 48.6462 11.8542 48.6228 11.9986C48.5862 12.2251 48.6161 12.2968 48.8426 12.5237C49.2346 12.9165 49.7337 12.9897 49.7337 12.6544C49.7337 12.5617 49.664 12.4912 49.5421 12.4605C49.4367 12.434 49.3125 12.3288 49.2662 12.2268C49.1924 12.0646 49.2269 11.9628 49.5421 11.4144C49.7402 11.0695 49.9299 10.7574 49.9637 10.7209C49.998 10.6837 50.1457 10.7291 50.2989 10.8241C50.5615 10.9867 50.5788 10.9881 50.7203 10.8598C50.9027 10.6944 50.9065 10.621 50.7356 10.5638C50.6628 10.5395 50.521 10.456 50.4203 10.3783L50.2375 10.237L50.4045 9.95317C50.4964 9.79715 50.5617 9.66136 50.5496 9.65136C50.4748 9.58983 50.1849 9.46123 50.121 9.46123C50.079 9.46123 49.9844 9.56353 49.9107 9.68856ZM19.807 10.1933C19.6708 10.2606 19.4156 10.4449 19.2399 10.6027L18.9206 10.8898L19.0907 11.0638L19.2609 11.2378L19.3742 11.0756C19.5316 10.8504 19.9599 10.5979 20.1844 10.5979C20.3653 10.5979 20.6219 10.8015 20.6219 10.9449C20.6219 10.9834 20.4671 11.0972 20.2778 11.1979C19.8129 11.445 19.5633 11.7553 19.5633 12.0863C19.5633 13.0428 20.6712 13.2578 21.1815 12.4003C21.286 12.2246 21.3818 12.1338 21.4116 12.1821C21.4861 12.3031 21.6408 12.2836 21.8309 12.1294L21.998 11.9937L21.5345 11.2248C21.2795 10.8019 20.9673 10.3684 20.8406 10.2617C20.5698 10.0333 20.1828 10.0077 19.807 10.1933ZM51.7428 10.2623C51.5155 10.4901 51.6699 10.8252 52.0021 10.8252C52.3069 10.8252 52.4374 10.583 52.2704 10.3276C52.1322 10.1162 51.9154 10.0894 51.7428 10.2623ZM47.5105 10.4171C47.8098 10.5594 47.8425 10.7503 47.6077 10.9855C47.3313 11.2625 46.6335 11.0831 46.6335 10.7352C46.6335 10.3039 46.996 10.1724 47.5105 10.4171ZM50.6039 12.0538L49.8811 13.1364L50.0763 13.3069C50.1836 13.4007 50.2951 13.4764 50.3239 13.4754C50.3849 13.4732 51.7753 11.3859 51.7753 11.2966C51.7753 11.2637 51.6744 11.177 51.5511 11.104L51.3268 10.9713L50.6039 12.0538ZM17.9105 11.4338C17.8125 11.5156 17.7487 11.6253 17.7688 11.6775C17.7889 11.7297 18.0069 12.0452 18.2531 12.3786C18.4994 12.712 18.7255 13.0252 18.7555 13.0745C18.8415 13.2162 18.5914 13.7489 18.3874 13.8584C18.1105 14.0068 17.9392 13.8761 17.3359 13.0559C17.0466 12.6625 16.7718 12.3407 16.7253 12.3407C16.6788 12.3407 16.5694 12.4174 16.4822 12.5112L16.3238 12.6817L16.9179 13.4854C17.7105 14.5575 18.0172 14.7065 18.5933 14.3C18.7045 14.2215 18.8541 14.0036 18.9257 13.8156C19.0482 13.4941 19.064 13.4811 19.1913 13.5965C19.3163 13.7099 19.3412 13.7085 19.5182 13.5793C19.6236 13.5024 19.7109 13.4174 19.7122 13.3904C19.7158 13.3168 18.194 11.2795 18.1376 11.2824C18.1108 11.2838 18.0086 11.3519 17.9105 11.4338ZM21.0338 11.6071C21.1258 11.8702 20.9806 12.1684 20.6774 12.3388C20.4275 12.4794 20.243 12.3909 20.1314 12.0771C20.0637 11.8865 20.0845 11.8431 20.3555 11.6082C20.7074 11.3034 20.9276 11.303 21.0338 11.6071ZM52.1156 12.1432C51.8187 12.2735 51.4061 12.6946 51.2748 13.0013C51.1379 13.321 51.1419 13.8087 51.2837 14.0834C51.5345 14.5694 52.239 14.8745 52.7902 14.7359C53.294 14.6092 53.8316 13.8882 53.84 13.328C53.8531 12.4599 52.8944 11.8012 52.1156 12.1432ZM14.743 12.7372L14.5796 12.9115L15.0647 13.4494L15.5498 13.9873L14.9566 14.5659C14.6302 14.8841 14.346 15.1444 14.3248 15.1444C14.3037 15.1444 14.0629 14.9143 13.7897 14.6329L13.293 14.1214L13.0881 14.3257L12.8832 14.5298L13.3794 15.0834C13.6522 15.3879 14.194 15.9695 14.5833 16.3761L15.2911 17.1152L15.5137 16.9298L15.7364 16.7444L15.1972 16.146L14.658 15.5476L15.1636 15.0573C15.9501 14.2945 15.8425 14.3066 16.4288 14.9152C16.7108 15.208 16.9812 15.4475 17.0295 15.4475C17.0778 15.4475 17.1892 15.3708 17.2771 15.277L17.4369 15.1065L16.2747 13.8562C15.6354 13.1686 15.0661 12.5962 15.0093 12.5844C14.9527 12.5726 14.8329 12.6413 14.743 12.7372ZM53.102 12.7541C53.3248 12.9773 53.3373 13.2347 53.1437 13.613C52.9521 13.9874 52.6899 14.2223 52.3985 14.2807C52.1987 14.3207 52.1217 14.2908 51.9295 14.0983C51.8031 13.9716 51.6997 13.7937 51.6997 13.703C51.6997 13.4423 51.9205 13.0437 52.2022 12.7958C52.5264 12.5106 52.8443 12.4958 53.102 12.7541ZM53.8696 14.5192L52.9771 15.4672L53.1455 15.6467C53.2381 15.7456 53.3519 15.8264 53.3981 15.8264C53.4445 15.8264 53.7502 15.5331 54.0776 15.1746L54.6729 14.5228L54.9801 14.5719C55.1491 14.5991 55.3479 14.6761 55.4217 14.743C55.6776 14.9751 55.5851 15.1925 54.9133 15.9379C54.5598 16.3302 54.2706 16.6832 54.2706 16.7225C54.2706 16.7619 54.363 16.8548 54.476 16.9289L54.6813 17.0637L55.2765 16.4262C56.0019 15.649 56.1603 15.4081 56.1606 15.0818C56.161 14.7485 55.8323 14.4196 55.3769 14.2976C55.0833 14.2188 55.0373 14.1813 55.0708 14.0475C55.0967 13.9441 55.0506 13.8355 54.9361 13.7307L54.7621 13.5713L53.8696 14.5192ZM9.76076 18.0428C8.6964 19.4975 8.11946 20.4293 7.42925 21.8085C5.70954 25.2447 4.80912 28.7782 4.59172 32.9439C4.47459 35.1874 4.59422 36.904 5.07815 39.9231C5.59627 43.1556 6.69488 46.2445 8.39969 49.2624C9.19092 50.6631 9.30291 50.7591 8.6871 49.5088C7.09994 46.2864 6.30538 43.7517 5.91098 40.6526C5.64292 38.5468 5.70735 33.9491 6.03748 31.6257C6.70592 26.9207 8.46737 22.3086 10.7994 19.1566C11.0495 18.8186 11.2438 18.513 11.231 18.4774C11.1922 18.3692 10.3323 17.4177 10.2734 17.4177C10.243 17.4177 10.0123 17.699 9.76076 18.0428ZM59.8685 18.638C59.8671 18.6632 60.0225 19.0191 60.2136 19.4291C61.7148 22.6483 63.1676 27.0765 63.7551 30.2238C64.2235 32.7331 64.3267 35.159 64.0729 37.7011C63.2992 45.4529 60.3892 51.5046 54.9932 56.5837C53.823 57.6851 52.8374 58.4623 51.3531 59.4541C45.8328 63.1427 41.9277 64.4556 35.7681 64.6935C31.0013 64.8777 27.0215 64.2532 23.4575 62.7617C21.8924 62.1067 18.7527 60.3556 17.1815 59.2616C15.1238 57.8287 12.6296 55.4008 11.0352 53.2786C10.2902 52.2871 10.4928 52.7129 11.3866 54.0174C12.6834 55.9102 13.333 56.7067 14.4258 57.7445C17.0618 60.2475 19.3245 61.9276 21.8407 63.2503C26.0563 65.4662 31.4529 66.6095 37.1887 66.5016C39.2511 66.4628 39.9809 66.3631 42.1344 65.8254C45.9787 64.8655 50.0238 63.0492 52.9229 60.9813C55.4013 59.2135 57.8903 56.7306 59.7062 54.2147C62.1571 50.8189 63.8791 46.9051 64.6608 42.9542C65.44 39.0162 65.4686 34.315 64.736 30.6027C64.1889 27.8306 63.0688 24.5726 61.7126 21.8092C60.9955 20.348 59.8795 18.4289 59.8685 18.638ZM65.5406 19.7289C68.2629 25.7518 69.2193 31.2813 68.7059 38.0287C68.2063 44.5948 66.1399 50.6222 62.7113 55.5145C60.6583 58.4439 57.5729 61.5526 54.6037 63.6832C53.0549 64.7946 50.3696 66.2921 47.1628 67.8327C46.3934 68.2024 45.7498 68.5187 45.7324 68.5356C45.5309 68.7325 46.6759 68.4642 48.3768 67.9162C50.8982 67.1036 52.938 66.1526 55.2536 64.7101C63.3443 59.6696 68.5367 51.2133 69.7293 41.1355C70.6096 33.6962 69.3431 26.7415 65.9274 20.2597C65.3734 19.2084 65.1942 18.9624 65.5406 19.7289ZM27.7077 24.1333C27.6782 24.1628 27.6541 24.7269 27.6541 25.3868V26.5866H27.8773C28.0984 26.5866 28.1009 26.5819 28.1231 26.113L28.1456 25.6394L28.6901 25.6172L29.2346 25.595L29.2572 26.0718L29.2798 26.5487L29.5256 26.5724L29.7713 26.5962V25.3834C29.7713 24.6132 29.7422 24.1527 29.6914 24.1212C29.6475 24.094 29.5284 24.0926 29.4268 24.1182C29.2545 24.1615 29.242 24.198 29.242 24.6591V25.1535L28.6938 25.1312L28.1456 25.1089L28.1078 24.6164C28.0753 24.1933 28.0482 24.1208 27.9157 24.1017C27.8308 24.0895 27.7372 24.1038 27.7077 24.1333ZM32.1658 24.1365C32.1381 24.1642 32.1154 24.5526 32.1154 24.9995C32.1154 25.9729 32.0294 26.1471 31.5483 26.1471C31.0657 26.1471 30.9812 25.9742 30.9812 24.9869V24.1617H30.7086H30.4359L30.4628 25.0555C30.4926 26.0459 30.5673 26.2472 31.0042 26.5141C31.4538 26.7889 32.1162 26.6398 32.4454 26.1898C32.5708 26.0185 32.603 25.8294 32.6307 25.1016C32.6573 24.4073 32.6423 24.2068 32.56 24.1546C32.4353 24.0754 32.2359 24.0663 32.1658 24.1365ZM34.0276 24.1467C33.9362 24.2049 32.9472 26.3702 32.9472 26.5119C32.9472 26.553 33.051 26.5866 33.1779 26.5866C33.3664 26.5866 33.4232 26.5449 33.4878 26.3592C33.5668 26.1322 33.5677 26.1319 34.171 26.1319C34.7727 26.1319 34.7754 26.1328 34.8607 26.3592C34.9318 26.5482 34.9882 26.5866 35.1944 26.5866C35.3309 26.5866 35.4425 26.5684 35.4425 26.5462C35.4425 26.4287 34.4328 24.1918 34.3583 24.1443C34.2458 24.0726 34.1427 24.0733 34.0276 24.1467ZM36.9781 24.179C36.9445 24.2302 36.814 24.5737 36.6881 24.9424C36.5623 25.3111 36.4262 25.613 36.3857 25.6132C36.3452 25.6135 36.2129 25.2869 36.0918 24.8877L35.8716 24.1617H35.6192C35.4804 24.1617 35.3662 24.1873 35.3656 24.2186C35.3649 24.2499 35.5435 24.7968 35.7625 25.434L36.1608 26.5926L36.3876 26.5707C36.6025 26.5498 36.628 26.5094 36.8696 25.8066C37.01 25.3985 37.1461 25.0855 37.1721 25.111C37.1981 25.1365 37.3241 25.4705 37.4522 25.8531C37.6757 26.5213 37.6944 26.5496 37.9247 26.5724C38.0567 26.5855 38.1646 26.581 38.1646 26.5626C38.1646 26.5441 38.3508 25.9964 38.5784 25.3454L38.9924 24.1617H38.7347H38.4769L38.229 24.9195C38.0928 25.3363 37.9573 25.6773 37.9279 25.6773C37.8986 25.6773 37.7647 25.3448 37.6302 24.9385C37.4959 24.5321 37.3484 24.1746 37.3027 24.1439C37.1779 24.0605 37.0467 24.0747 36.9781 24.179ZM41.9643 24.1361C41.8942 24.1645 41.8697 24.4865 41.8697 25.3805V26.5866H42.1344H42.399V25.3823C42.399 24.354 42.3816 24.1712 42.2794 24.132C42.1455 24.0804 42.1005 24.081 41.9643 24.1361ZM39.4501 25.3742V26.5866H40.3624H41.2749L41.2509 26.3782C41.2271 26.1704 41.2252 26.1697 40.561 26.1478L39.895 26.1259L39.9183 25.8447L39.9416 25.5636L40.3809 25.5407C40.809 25.5184 40.8198 25.5126 40.7968 25.3134C40.7747 25.1208 40.748 25.1077 40.3385 25.0862C39.9126 25.0639 39.9037 25.0589 39.9037 24.8399V24.6164H40.4647C41.1478 24.6164 41.2648 24.5765 41.2648 24.3431C41.2648 24.1619 41.2641 24.1617 40.3574 24.1617H39.4501V25.3742ZM34.4885 25.6157C34.4251 25.7185 33.8543 25.6886 33.8562 25.5825C33.8571 25.5305 33.9292 25.3344 34.0164 25.1468L34.1749 24.8058L34.3507 25.18C34.4474 25.3858 34.5094 25.5819 34.4885 25.6157ZM11.3213 28.8599V29.1632L35.0077 29.1442L58.6941 29.1251V28.8599V28.5946L35.0077 28.5755L11.3213 28.5565V28.8599ZM31.7825 31.5225C30.9632 31.6279 30.3932 31.7976 29.6579 32.155C27.917 33.0015 26.8844 34.4094 26.434 36.5511C26.379 36.8121 26.3411 37.4897 26.3448 38.1424C26.3502 39.1042 26.3808 39.3923 26.5441 40.0159C26.9781 41.6732 27.9452 42.9166 29.3227 43.5881C30.2064 44.0189 30.995 44.2259 32.0965 44.3162C33.0553 44.3949 34.4341 44.3096 35.1661 44.1263C35.9597 43.9275 36.8187 43.609 36.8613 43.4976C36.9158 43.3553 36.4912 42.0363 36.3767 41.9923C36.3271 41.9732 36.054 42.0414 35.77 42.1438C34.8434 42.4779 34.1101 42.6063 33.1362 42.605C31.6741 42.603 30.8364 42.304 29.9658 41.4735C29.052 40.6017 28.6606 39.3888 28.7339 37.6554C28.7968 36.1656 29.135 35.2162 29.8965 34.3919C31.0799 33.111 33.177 32.8374 35.4044 33.6734C35.7903 33.8183 36.1231 33.9368 36.1439 33.9368C36.1648 33.9368 36.3089 33.59 36.4643 33.166C36.7893 32.2794 36.8038 32.3192 36.0519 32.0355C34.714 31.5306 33.1657 31.3446 31.7825 31.5225ZM13.7158 31.6383C13.688 31.6661 13.6654 34.5267 13.6654 37.9954C13.6654 42.9757 13.6852 44.3076 13.7599 44.329C13.8119 44.3438 14.2878 44.3456 14.8176 44.3327L15.7808 44.3095L15.8006 41.4912L15.8204 38.6728L18.8575 38.653L21.8945 38.6332L21.9026 41.4189C21.91 43.9461 21.9226 44.2134 22.0392 44.3008C22.1099 44.3539 22.214 44.3794 22.2706 44.3577C22.3271 44.3359 22.7621 44.3181 23.2372 44.3181H24.1011L24.0818 37.9719L24.0624 31.6257L23.0899 31.6044C22.4375 31.5901 22.083 31.6119 22.0124 31.6705C21.9266 31.7419 21.9074 32.2212 21.9074 34.2897V36.8216L18.8639 36.8L15.8204 36.7784L15.8081 34.2624C15.8014 32.8787 15.7739 31.7108 15.747 31.6671C15.6931 31.5798 13.8009 31.5529 13.7158 31.6383ZM39.3493 31.6383C39.3215 31.6661 39.2988 34.5264 39.2988 37.9946C39.2988 43.9391 39.3064 44.3021 39.4312 44.3282C39.5039 44.3435 40.0058 44.339 40.5465 44.3181L41.5295 44.2802L41.5488 37.9956C41.5641 33.018 41.5484 31.6983 41.4732 31.6505C41.3586 31.5776 39.4209 31.5665 39.3493 31.6383ZM48.3175 31.6825C48.277 31.7346 47.6893 33.1582 47.0114 34.8461C46.3335 36.534 45.2048 39.3436 44.5031 41.0896C43.8015 42.8356 43.244 44.2808 43.2644 44.3012C43.322 44.359 45.4551 44.3176 45.5086 44.2577C45.5349 44.2284 45.8174 43.5068 46.1365 42.6542C46.4557 41.8015 46.7532 41.0598 46.7979 41.006C46.861 40.9297 47.4305 40.9082 49.3875 40.9082C51.9982 40.9082 52.0777 40.9177 52.0777 41.2291C52.0777 41.3057 52.126 41.4437 52.185 41.536C52.244 41.6283 52.5048 42.2665 52.7646 42.9542C53.0244 43.6418 53.2632 44.2348 53.2955 44.2718C53.345 44.3289 55.6292 44.3458 55.6853 44.2896C55.6959 44.2789 55.5559 43.9145 55.3742 43.4796C55.1924 43.0447 54.0495 40.2679 52.8343 37.3089C51.6193 34.3498 50.5769 31.8521 50.5179 31.7583C50.4155 31.5954 50.366 31.5878 49.4009 31.5878C48.6828 31.5878 48.3699 31.6151 48.3175 31.6825ZM49.5772 34.6946C49.5806 34.7988 49.6392 34.9863 49.7074 35.1114C49.9094 35.4815 51.3065 39.1224 51.2703 39.1843C51.2214 39.268 48.4615 39.2536 48.3036 39.1689C48.2157 39.1218 48.0723 39.1264 47.8908 39.1822C47.7133 39.2367 47.5865 39.2414 47.5402 39.1951C47.4939 39.1486 47.7016 38.5066 48.1143 37.4199C48.47 36.4837 48.8785 35.3766 49.0221 34.9598C49.1657 34.543 49.3034 34.1509 49.328 34.0884C49.3819 33.9515 49.5676 34.4034 49.5772 34.6946ZM11.3717 47.2481C11.344 47.2759 11.3213 47.4293 11.3213 47.5891V47.8796H34.9807C56.4852 47.8796 58.6442 47.8687 58.686 47.7597C58.7695 47.5416 58.7336 47.2903 58.6122 47.2436C58.4482 47.1805 11.4346 47.185 11.3717 47.2481ZM3.91194 51.2137C4.40503 52.475 5.38432 54.3884 6.22879 55.7403C8.90071 60.0178 12.3798 63.3204 17.0033 65.9683C18.753 66.9703 21.1581 67.9364 23.0265 68.3876C24.3498 68.7073 24.3386 68.5862 22.9948 68.044C18.5063 66.233 14.0592 63.2109 10.2212 59.3637C7.70214 56.8386 5.89979 54.5131 4.38945 51.839C3.79399 50.7849 3.69213 50.6514 3.91194 51.2137ZM23.3209 52.8656L23.0332 52.8904L23.0563 54.4838C23.0793 56.0653 23.0808 56.0782 23.2625 56.2255C23.3923 56.3307 23.5353 56.3673 23.754 56.3513C24.0276 56.3312 24.0651 56.305 24.0863 56.1202C24.1053 55.9552 24.07 55.8965 23.9162 55.8379L23.7221 55.7641V54.3269C23.7221 53.5365 23.6967 52.8787 23.6654 52.8652C23.6342 52.8517 23.4792 52.8518 23.3209 52.8656ZM31.7754 52.866C31.4844 52.9025 31.4374 52.9849 31.436 53.4608L31.4349 53.8513L31.0569 53.8543C30.3095 53.86 29.9131 54.3239 29.9131 55.1928C29.9131 56.0181 30.2846 56.4327 30.9343 56.3325C31.1056 56.306 31.4415 56.2877 31.6806 56.2919L32.1154 56.2994V54.5946C32.1154 53.6569 32.0899 52.878 32.0587 52.8636C32.0275 52.8493 31.9 52.8503 31.7754 52.866ZM43.8168 52.9626C43.6648 53.0514 43.6392 53.4113 43.7752 53.5476C43.9172 53.6899 44.1941 53.6545 44.3172 53.4783C44.4402 53.3023 44.4076 53.1217 44.2266 52.9755C44.0864 52.8623 43.9937 52.8594 43.8168 52.9626ZM21.0005 53.1531C20.3947 53.4163 20.072 53.9513 20.0677 54.6992C20.0608 55.8939 20.8334 56.5223 22.079 56.3352C22.567 56.2618 22.6929 56.1505 22.591 55.8821C22.5246 55.7069 22.4787 55.6769 22.3408 55.7188C21.937 55.8413 21.5522 55.8477 21.2863 55.7363C20.8399 55.5494 20.6116 54.922 20.7723 54.3239C20.9416 53.6936 21.4449 53.4421 22.1026 53.6591C22.4464 53.7725 22.4471 53.7724 22.5206 53.5789C22.6244 53.3052 22.5624 53.205 22.2329 53.1133C21.8298 53.0011 21.3118 53.0178 21.0005 53.1531ZM34.7241 53.1487C34.3562 53.3361 34.2326 53.5383 34.2326 53.9535C34.2326 54.3993 34.3814 54.5816 34.9981 54.8914C35.7112 55.2495 35.8462 55.4891 35.473 55.7341C35.3092 55.8417 35.2185 55.8501 34.9248 55.785C34.7312 55.7421 34.5182 55.6831 34.4514 55.6539C34.3627 55.6152 34.3045 55.6621 34.2362 55.8275C34.1187 56.1116 34.1666 56.1894 34.5189 56.2874C35.1913 56.4746 35.9627 56.2958 36.1637 55.9062C36.3262 55.5913 36.3053 55.0625 36.1211 54.8279C36.0369 54.7206 35.7546 54.5318 35.4937 54.4083C34.9485 54.1501 34.8057 54.0101 34.8726 53.799C34.9363 53.5976 35.2682 53.5357 35.6996 53.6445C36.0986 53.7452 36.0838 53.7511 36.1523 53.4651C36.1976 53.2763 36.1749 53.242 35.9386 53.1431C35.5959 52.9995 35.0118 53.0023 34.7241 53.1487ZM25.3101 53.8662C24.6987 53.9728 24.3758 54.4285 24.3828 55.1747C24.3901 55.9577 24.8809 56.4198 25.6288 56.3478C26.0214 56.31 26.2977 56.1495 26.5475 55.8143C26.7466 55.547 26.7604 54.7687 26.5722 54.4159C26.3456 53.9913 25.8446 53.7731 25.3101 53.8662ZM37.5805 53.87C37.0179 53.9894 36.718 54.42 36.7117 55.1171C36.7072 55.6268 36.9092 56.0369 37.261 56.2321C37.4657 56.3457 37.6284 56.3701 38.0162 56.3451C38.6752 56.3026 38.851 56.2066 38.7735 55.9315C38.7387 55.8079 38.6718 55.7334 38.6097 55.7494C38.3236 55.8232 37.9267 55.8497 37.7547 55.8064C37.565 55.7588 37.2941 55.3697 37.3863 55.2774C37.4123 55.2512 37.7554 55.2298 38.1487 55.2298H38.8639L38.829 54.8078C38.8007 54.4661 38.7509 54.3427 38.5672 54.1585C38.3109 53.9018 37.9408 53.7935 37.5805 53.87ZM45.811 53.8728C45.2374 53.9933 44.8946 54.4684 44.8945 55.1438C44.8943 55.8911 45.3278 56.3665 46.0098 56.3665C46.3884 56.3665 46.7847 56.2302 46.7847 56.1001C46.7847 55.8094 46.7016 55.7598 46.2946 55.8078C45.7498 55.872 45.5749 55.7059 45.5749 55.1246C45.5749 54.4728 45.8726 54.2459 46.4917 54.426C46.6667 54.4769 46.6998 54.4564 46.7708 54.2523C46.8155 54.1238 46.8219 54.0026 46.7852 53.9798C46.6357 53.8873 46.0492 53.8228 45.811 53.8728ZM48.0323 53.8473C47.7058 53.9057 47.4789 54.0372 47.3058 54.2685C47.1495 54.4772 47.125 54.594 47.125 55.129C47.125 55.6847 47.1443 55.7688 47.314 55.9508C47.6925 56.3567 48.1956 56.4675 48.8425 56.2874C49.1841 56.1924 49.2268 56.1324 49.1316 55.8813C49.0663 55.7093 49.0347 55.6953 48.8615 55.7613C48.3433 55.9587 47.7677 55.7603 47.7677 55.3841C47.7677 55.2479 47.83 55.2335 48.5049 55.2136L49.2422 55.192L49.2251 54.9042C49.2033 54.5363 49.0029 54.1122 48.7993 54.003C48.5867 53.8889 48.2181 53.8141 48.0323 53.8473ZM27.2004 54.8169C27.2004 55.527 27.2301 55.8252 27.3175 55.9946C27.5061 56.3603 28.0116 56.4751 28.4421 56.2502C28.5935 56.171 28.6874 56.1592 28.7408 56.2127C28.7836 56.2556 28.9524 56.2907 29.1158 56.2907H29.4131L29.3662 56.0065C29.3404 55.8503 29.3189 55.3046 29.3185 54.7941L29.3177 53.8659H29.0152H28.7127V54.6939C28.7127 55.4982 28.707 55.5264 28.5135 55.679C28.2972 55.8495 28.1336 55.8739 27.9566 55.762C27.8685 55.7063 27.8375 55.4864 27.8179 54.7781L27.7927 53.8659H27.4965H27.2004V54.8169ZM39.3744 55.0783V56.2907H39.7147H40.055V55.5068C40.055 54.6313 40.1186 54.5019 40.5973 54.4038C40.7754 54.3673 40.8554 54.302 40.8872 54.1672C40.9146 54.0507 40.9513 54.014 40.9854 54.0693C41.0366 54.1523 41.7941 56.2163 41.7941 56.2728C41.7941 56.2872 41.953 56.2886 42.1471 56.2759L42.5001 56.2528L42.9032 55.1629C43.125 54.5633 43.3064 54.0263 43.3064 53.9694C43.3064 53.8994 43.2099 53.8659 43.0089 53.8659H42.7113L42.4635 54.6236C42.3272 55.0404 42.1961 55.3814 42.1722 55.3814C42.1483 55.3814 42.0172 55.0404 41.8809 54.6236L41.6331 53.8659H41.0097C40.5787 53.8659 40.341 53.9002 40.2395 53.9771C40.0507 54.1203 39.9794 54.1209 39.9794 53.9795C39.9794 53.8975 39.8954 53.8659 39.6769 53.8659H39.3744V55.0783ZM43.7349 53.9164C43.7072 53.9442 43.6845 54.4897 43.6845 55.1288V56.2907H44.0248H44.365V55.0783V53.8659H44.0752C43.9157 53.8659 43.7626 53.8886 43.7349 53.9164ZM25.7738 54.3963C25.8796 54.3963 26.0662 54.8816 26.0662 55.1566C26.0662 55.4029 25.95 55.6838 25.8091 55.7781C25.6545 55.8815 25.3343 55.8369 25.2051 55.6939C24.8058 55.2517 25.1165 54.2041 25.5998 54.3632C25.6552 54.3814 25.7335 54.3963 25.7738 54.3963ZM31.3152 54.3665C31.4109 54.4033 31.4349 54.5373 31.4349 55.0357C31.4349 55.6176 31.4227 55.6654 31.2517 55.7572C30.8179 55.9897 30.4678 55.6027 30.5509 54.9823C30.6131 54.5172 30.9666 54.2325 31.3152 54.3665ZM38.1194 54.4844C38.2804 54.7149 38.2106 54.7752 37.7821 54.7752C37.3814 54.7752 37.3194 54.6963 37.5336 54.4591C37.7024 54.2722 37.9794 54.2842 38.1194 54.4844ZM48.4612 54.4459C48.7162 54.6772 48.6336 54.7752 48.1836 54.7752C47.7369 54.7752 47.6807 54.7108 47.9189 54.4721C48.1029 54.2877 48.2774 54.2793 48.4612 54.4459Z" fill="#6A6A6A"/>
</svg>
