<svg width="70" height="66" viewBox="0 0 70 66" fill="none" xmlns="http://www.w3.org/2000/svg">
<path fill-rule="evenodd" clip-rule="evenodd" d="M45.1794 1.13578L44.8438 1.47064V7.35067V13.2307L45.1794 13.5656L45.5149 13.9006H51.4062H57.2976L57.6331 13.5656L57.9688 13.2307V7.35067V1.47064L57.6331 1.13578L57.2976 0.800781H51.4062H45.5149L45.1794 1.13578ZM11.0742 3.1889C5.15416 4.38303 1.32699 9.93938 2.38068 15.8109C2.78783 18.0795 3.90592 20.121 5.6432 21.7682C6.83744 22.9005 7.96045 23.6065 9.39791 24.129C14.2043 25.8761 19.4698 24.1079 22.3002 19.7964C23.5046 17.9618 23.9881 16.2729 23.9881 13.9006C23.9881 11.5262 23.5037 9.83581 22.2986 8.0047C19.8416 4.27154 15.3217 2.33223 11.0742 3.1889ZM55.7812 7.35067V11.7173H51.4062H47.0312V7.35067V2.98408H51.4062H55.7812V7.35067ZM14.1405 5.288C14.1817 5.35432 14.0294 5.48545 13.8022 5.57934C12.8848 5.95868 12.0312 7.33853 12.0312 8.44232C12.0312 9.70386 13.128 11.2049 14.303 11.5513C14.6779 11.6619 15.9869 11.7173 18.2239 11.7173H21.5821L21.7459 12.5019C21.9589 13.5216 21.8356 15.3516 21.4771 16.4932C20.6578 19.1025 18.337 21.4189 15.7227 22.2367C14.4237 22.643 12.7229 22.7237 11.4434 22.4396L10.3999 22.2079L10.8955 21.7737C11.168 21.5349 11.5344 21.0319 11.7098 20.6561C12.2793 19.4355 12.075 18.2395 11.1151 17.1739C10.251 16.2146 9.75256 16.0839 6.95967 16.0839H4.67113L4.52307 15.3949C4.16158 13.7124 4.4666 11.7244 5.35965 9.94334C6.4765 7.7161 8.81959 5.88827 11.2109 5.37847C12.2221 5.16301 14.0286 5.1072 14.1405 5.288ZM35.3356 5.50237C35.0027 5.83451 35 5.85839 35 8.44232C35 11.9498 34.767 11.7173 38.2812 11.7173C40.8702 11.7173 40.8941 11.7145 41.2269 11.3823C41.5598 11.0501 41.5625 11.0263 41.5625 8.44232C41.5625 4.93485 41.7955 5.16737 38.2812 5.16737C35.6923 5.16737 35.6684 5.1701 35.3356 5.50237ZM19.5757 8.02722C19.9017 8.39934 20.2792 8.89058 20.4143 9.11887L20.66 9.53397H17.7749C14.8941 9.53397 14.8895 9.53342 14.5544 9.19897C14.3428 8.98787 14.2188 8.70814 14.2188 8.44232C14.2188 8.1765 14.3428 7.89677 14.5544 7.68567C14.8807 7.35981 14.9458 7.35067 16.9363 7.35067H18.9827L19.5757 8.02722ZM39.375 8.44232V9.53397H38.2812H37.1875V8.44232V7.35067H38.2812H39.375V8.44232ZM53.9294 16.4189L53.5938 16.7537V19.9046V23.0555L53.9294 23.3904L54.2649 23.7254H57.4219H60.5788L60.9144 23.3904L61.25 23.0555V19.9046V16.7537L60.9144 16.4189L60.5788 16.0839H57.4219H54.2649L53.9294 16.4189ZM9.50811 18.6022C9.71975 18.8133 9.84375 19.093 9.84375 19.3588C9.84375 19.6246 9.71975 19.9044 9.50811 20.1155C9.21607 20.4071 9.04914 20.4505 8.21994 20.4505H7.26728L6.67434 19.7739C6.34826 19.4018 5.97078 18.9105 5.8357 18.6823L5.59002 18.2672H7.38131C9.10082 18.2672 9.186 18.2805 9.50811 18.6022ZM30.7617 18.472C25.5603 19.5212 21.875 23.9964 21.875 29.2639C21.875 30.0852 21.8352 30.2753 21.6638 30.2753C21.5476 30.2753 21.3015 30.4261 21.1169 30.6103L20.7812 30.9451V34.6419V38.3386L21.1169 38.6735C21.3015 38.8577 21.535 39.0085 21.636 39.0085C21.7675 39.0085 21.8643 39.4056 21.977 40.4071C22.165 42.0771 22.5337 43.3325 23.2694 44.8079C24.2689 46.8118 25.8747 48.6513 27.6541 49.8298L28.4375 50.3489V51.7592V53.1695L26.0107 53.2306C23.389 53.2965 22.6362 53.4675 21.1571 54.3326C20.0921 54.9557 18.9021 56.2816 18.3181 57.4961C17.6386 58.9095 17.5 59.736 17.5 62.3737C17.5 64.4899 17.5075 64.5457 17.8356 64.873C18.2428 65.2795 18.8468 65.3104 19.2963 64.9475C19.6101 64.6944 19.6211 64.6147 19.6875 62.109L19.7559 59.5308L20.2665 58.4997C20.8815 57.2578 21.6732 56.4843 22.9441 55.8833C23.8532 55.4535 23.8693 55.4512 26.427 55.4045L28.9967 55.3574L30.1495 56.462C30.8874 57.169 31.4118 57.5665 31.6068 57.5665C31.7744 57.5665 32.6065 57.3382 33.4558 57.0593L35 56.5519L36.5442 57.0593C37.3935 57.3382 38.2316 57.5665 38.4066 57.5665C38.6202 57.5665 39.0979 57.2031 39.8587 56.4619L40.9925 55.3573L43.5676 55.4044C46.1314 55.4512 46.1465 55.4533 47.0559 55.8833C48.3268 56.4843 49.1185 57.2578 49.7335 58.4997L50.2441 59.5308L50.3125 62.109C50.3789 64.6147 50.3899 64.6944 50.7037 64.9475C51.1596 65.3156 51.7571 65.2797 52.1787 64.8587L52.5287 64.5095L52.4668 61.8908C52.399 59.0294 52.2804 58.4775 51.406 56.952C50.9022 56.0733 49.6729 54.8181 48.8372 54.3292C47.3642 53.4678 46.6088 53.2965 43.9893 53.2306L41.5625 53.1695V51.7787V50.3881L42.3715 49.8187C44.2771 48.4773 45.738 46.7979 46.7306 44.8079C47.4663 43.3325 47.835 42.0771 48.023 40.4071C48.1357 39.4056 48.2325 39.0085 48.364 39.0085C48.465 39.0085 48.6985 38.8577 48.8831 38.6735L49.2188 38.3386V34.6419V30.9451L48.8831 30.6103C48.6985 30.4261 48.4524 30.2753 48.3362 30.2753C48.1664 30.2753 48.125 30.0935 48.125 29.3488C48.125 27.5426 47.4895 25.9586 46.2409 24.6521C45.4564 23.8312 44.0329 22.9975 43.1252 22.8277L42.6562 22.7398V20.8384C42.6562 19.0016 42.6449 18.9257 42.3206 18.6022L41.9851 18.2672L36.8177 18.28C33.1389 18.2891 31.3945 18.3444 30.7617 18.472ZM59.0625 19.9046V21.5421H57.4219H55.7812V19.9046V18.2672H57.4219H59.0625V19.9046ZM40.4688 22.2987C40.4688 24.0433 40.4864 24.1648 40.7818 24.4597C41.013 24.6904 41.3208 24.7958 41.9578 24.8622C42.9573 24.9665 44.2565 25.5912 44.79 26.2238C45.4896 27.0536 45.8305 27.9461 45.9054 29.1442C45.9802 30.3409 45.8367 30.6115 45.5254 29.8613C45.292 29.2991 44.295 28.4484 43.6397 28.2525C42.8794 28.0251 27.1206 28.0251 26.3603 28.2525C25.705 28.4484 24.708 29.2991 24.4746 29.8613C24.1966 30.531 24.0624 30.3424 24.0648 29.286C24.0699 27.2004 24.8876 24.9729 26.1964 23.4795C26.9324 22.6399 28.2332 21.6828 29.3032 21.1939C30.705 20.5533 31.4541 20.473 36.1279 20.4612L40.4688 20.4505V22.2987ZM43.4144 30.6103L43.75 30.9451V34.6419V38.3386L43.4144 38.6735L43.0788 39.0085H35H26.9212L26.5856 38.6735L26.25 38.3386V34.6419V30.9451L26.5856 30.6103L26.9212 30.2753H35H43.0788L43.4144 30.6103ZM51.7419 30.6103L51.4062 30.9451V39.0085V47.0718L51.7419 47.4067L52.0774 47.7417H60.7031H69.3288L69.6644 47.4067L70 47.0718V39.0085V30.9451L69.6644 30.6103L69.3288 30.2753H60.7031H52.0774L51.7419 30.6103ZM0.335645 32.7936L0 33.1284V40.1001V47.0718L0.335645 47.4067L0.671152 47.7417H9.21115C13.9081 47.7417 17.8507 47.7035 17.9724 47.6569C18.5731 47.4269 18.5938 47.1717 18.5938 39.9642V33.1284L18.2581 32.7936L17.9226 32.4586H9.29688H0.671152L0.335645 32.7936ZM24.0625 34.6419V36.8252H23.5156H22.9688V34.6419V32.4586H23.5156H24.0625V34.6419ZM47.0312 34.6419V36.8252H46.4844H45.9375V34.6419V32.4586H46.4844H47.0312V34.6419ZM67.8125 33.0044V33.5502H60.7031H53.5938V33.0044V32.4586H60.7031H67.8125V33.0044ZM28.7731 33.8852C28.5615 34.0963 28.4375 34.3761 28.4375 34.6419C28.4375 34.9077 28.5615 35.1874 28.7731 35.3985L29.1087 35.7335H35H40.8913L41.2269 35.3985C41.4385 35.1874 41.5625 34.9077 41.5625 34.6419C41.5625 34.3761 41.4385 34.0963 41.2269 33.8852L40.8913 33.5502H35H29.1087L28.7731 33.8852ZM16.4062 38.8372V43.0324L15.1078 41.0913C13.211 38.2559 13.0349 38.2574 11.1196 41.1265C10.3943 42.2131 9.75967 43.1022 9.70936 43.1022C9.65891 43.1022 9.34555 42.7266 9.01291 42.2676C8.68041 41.8086 8.25904 41.3763 8.0768 41.3068C7.34016 41.0261 7.07027 41.2431 5.40914 43.4519L3.82498 45.5584H3.00617H2.1875V40.1001V34.6419H9.29688H16.4062V38.8372ZM67.8125 40.6459V45.5584H60.7031H53.5938V40.6459V35.7335H60.7031H67.8125V40.6459ZM4.82166 37.0934C4.42449 37.4627 4.32113 37.867 4.50857 38.3186C4.80402 39.0303 5.68668 39.2127 6.22686 38.6735C7.17555 37.7266 5.8018 36.1821 4.82166 37.0934ZM56.2782 38.1997C55.7694 38.5991 55.7694 39.4178 56.2782 39.8172C56.6247 40.0893 56.7969 40.1001 60.7961 40.1001H64.9538L65.2894 39.7651C65.501 39.554 65.625 39.2743 65.625 39.0085C65.625 38.7427 65.501 38.4629 65.2894 38.2518L64.9538 37.9168H60.7961C56.7969 37.9168 56.6247 37.9276 56.2782 38.1997ZM24.4746 39.4225C24.708 39.9847 25.705 40.8353 26.3603 41.0313C27.1206 41.2586 42.8794 41.2586 43.6397 41.0313C44.295 40.8353 45.292 39.9847 45.5254 39.4225C45.8225 38.7066 45.984 38.931 45.8906 39.9296C45.5742 43.3113 43.7696 46.2943 40.9072 48.166C36.6812 50.9295 30.9758 50.3403 27.3541 46.7663C25.4715 44.9081 24.3551 42.5559 24.1094 39.9296C24.016 38.931 24.1775 38.7066 24.4746 39.4225ZM56.2782 41.4746C55.7694 41.8741 55.7694 42.6928 56.2782 43.0922C56.613 43.3551 56.8161 43.3751 59.1555 43.3751C61.6457 43.3751 61.6762 43.3715 62.0081 43.0401C62.2197 42.829 62.3438 42.5492 62.3438 42.2834C62.3438 42.0176 62.2197 41.7379 62.0081 41.5268C61.6762 41.1953 61.6457 41.1918 59.1555 41.1918C56.8161 41.1918 56.613 41.2117 56.2782 41.4746ZM14.3218 43.8561L15.4503 45.5584H13.125H10.7997L11.9282 43.8561C12.5489 42.9198 13.0874 42.1538 13.125 42.1538C13.1626 42.1538 13.7011 42.9198 14.3218 43.8561ZM8.04945 44.6096C8.54861 45.2834 8.4093 45.4835 7.40797 45.5309L6.54719 45.5717L7.06248 44.8828C7.34604 44.5038 7.61469 44.1938 7.65967 44.1938C7.70479 44.1938 7.88006 44.3809 8.04945 44.6096ZM31.901 51.7248C32.807 51.9672 33.3914 52.0235 35 52.0235C36.6086 52.0235 37.193 51.9672 38.099 51.7248C38.713 51.5604 39.2514 51.426 39.2953 51.426C39.339 51.426 39.375 51.9613 39.375 52.6157V53.8054L38.6781 54.5096L37.9813 55.214L36.4906 54.7225L35 54.2308L33.5094 54.7225L32.0187 55.214L31.3219 54.5096L30.625 53.8054V52.6157C30.625 51.9613 30.661 51.426 30.7047 51.426C30.7486 51.426 31.287 51.5604 31.901 51.7248Z" fill="#6A6A6A"/>
</svg>
