<svg width="70" height="71" viewBox="0 0 70 71" fill="none" xmlns="http://www.w3.org/2000/svg">
<path fill-rule="evenodd" clip-rule="evenodd" d="M7.8957 0.125429C7.49547 0.183682 7.13781 0.26149 7.10099 0.298411C7.03995 0.359263 7.41526 1.9909 7.53462 2.18385C7.56227 2.22857 7.95715 2.20532 8.41199 2.13203L9.23913 1.99897V0.992256C9.23913 -0.146694 9.33618 -0.0840644 7.8957 0.125429ZM11.2942 0.783719C11.2166 1.05926 11.1167 1.50437 11.0722 1.77307L10.9913 2.26152L11.786 2.55402C12.223 2.71483 12.5914 2.83339 12.6046 2.81766C12.6178 2.8018 12.8209 2.40552 13.0559 1.93716L13.4833 1.08552L12.9694 0.824333C12.6869 0.680614 12.2262 0.50011 11.9456 0.422986C11.4364 0.283096 11.4352 0.28378 11.2942 0.783719ZM36.7512 1.42136V2.44695H39.2834H41.8156V1.42136V0.395774H39.2834H36.7512V1.42136ZM43.8688 1.42136V2.44695H51.397H58.9251V1.42136V0.395774H51.397H43.8688V1.42136ZM4.06098 1.63277C3.59861 1.94127 3.19482 2.23527 3.16375 2.28614C3.13282 2.33701 3.41095 2.708 3.78216 3.11057L4.45682 3.84257L5.13354 3.38406C5.5057 3.1319 5.80984 2.86402 5.80957 2.78881C5.80916 2.7136 5.6048 2.29653 5.35528 1.86195L4.90153 1.07198L4.06098 1.63277ZM14.6719 3.05793L14.0136 3.81331L14.587 4.4783L15.1605 5.14342L15.9639 4.58961C16.4058 4.28494 16.7673 3.98875 16.7673 3.93145C16.7673 3.87402 16.444 3.48416 16.0487 3.06476L15.3301 2.30255L14.6719 3.05793ZM1.40435 4.39557C1.17084 4.75233 0.615942 5.82455 0.615942 5.91863C0.615942 5.95391 0.939244 6.10488 1.33454 6.2542C1.72984 6.40353 2.15539 6.56626 2.28049 6.61589C2.45446 6.68481 2.59093 6.54055 2.86222 6.00109C3.05713 5.61328 3.21659 5.24831 3.21659 5.18992C3.21659 5.09488 1.79458 4.08789 1.66031 4.08789C1.63019 4.08789 1.51494 4.22627 1.40435 4.39557ZM8.14413 4.27796C7.73008 4.36999 7.13685 4.57771 6.82601 4.73962C6.00968 5.16462 5.0046 6.22685 4.59644 7.09601C4.29038 7.74773 4.24316 8.0312 4.24316 9.21583C4.24316 10.403 4.29011 10.6832 4.59917 11.3417C6.47205 15.3308 12.0062 15.3308 13.8791 11.3417C14.1882 10.6832 14.2351 10.403 14.2351 9.21583C14.2351 8.0312 14.1879 7.74773 13.8818 7.09601C13.1988 5.64145 11.7482 4.53532 10.1324 4.2368C9.17781 4.06054 9.11759 4.06177 8.14413 4.27796ZM17.1779 6.20265C16.9145 6.30234 16.5354 6.44811 16.3356 6.5266L15.9723 6.66922L16.1837 7.50692L16.3949 8.34462L17.2996 8.25218C17.7973 8.20131 18.2463 8.12036 18.2975 8.07236C18.4846 7.89651 17.9906 5.99124 17.7631 6.01189C17.7048 6.01722 17.4414 6.1031 17.1779 6.20265ZM10.1381 6.33981C10.9426 6.57911 11.5678 7.11597 11.9783 7.91989C12.423 8.79096 12.3286 10.1431 11.7664 10.9534C11.2453 11.7043 10.1353 12.2926 9.23913 12.2926C8.34301 12.2926 7.23294 11.7043 6.71185 10.9534C6.37884 10.4733 6.29493 10.1951 6.2514 9.42655C6.205 8.60594 6.24524 8.40055 6.56827 7.80763C6.98875 7.0357 7.52928 6.58513 8.33849 6.33201C9.07899 6.10037 9.33714 6.1016 10.1381 6.33981ZM47.9751 7.23302V8.32698H50.9863H53.9976V7.23302V6.13906H50.9863H47.9751V7.23302ZM36.7902 9.03942C36.341 10.3397 34.8395 14.7431 33.4537 18.8244C31.621 24.2218 30.8966 26.194 30.7971 26.0573C30.7218 25.9541 29.9255 24.5363 29.0274 22.9067C28.1295 21.2771 27.3422 19.9612 27.278 19.9827C27.2138 20.004 25.792 22.5438 24.1185 25.6267L21.0759 31.2318L12.4542 31.3001L3.83253 31.3685L2.94284 31.7917C1.8121 32.3294 0.961828 33.1789 0.423631 34.3085L0 35.1974V50.5812V65.965L0.317689 66.7509C0.942118 68.2957 2.48581 69.5451 4.15912 69.8602C5.17734 70.0519 64.7663 70.0519 65.7846 69.8602C67.294 69.576 68.766 68.4955 69.439 67.1775C70.0161 66.0473 70.0278 65.6802 69.9849 50.1026L69.9437 35.1974L69.52 34.3085C68.9818 33.1789 68.1316 32.3294 67.0008 31.7917L66.1111 31.3685L56.7525 31.3001L47.394 31.2318L42.5678 19.0206C39.9135 12.3045 37.7114 6.7793 37.6743 6.74225C37.6374 6.70533 37.2395 7.73898 36.7902 9.03942ZM61.0945 6.82429C59.6043 7.05936 58.0888 7.82759 57.0209 8.88901C56.3286 9.57724 55.4399 10.8874 55.3072 11.4155C55.2231 11.7507 55.1783 11.7691 54.6415 11.691C53.8733 11.5792 52.625 11.7984 51.8346 12.184C51.0152 12.5839 49.9119 13.6831 49.5151 14.4951C48.2615 17.0609 49.3806 20.2031 51.9743 21.3997L52.8342 21.7964L57.8986 21.8393C61.2949 21.868 63.2335 21.8308 63.7842 21.7262C66.6678 21.1784 69.1837 18.6511 69.7475 15.736C70.1079 13.8717 69.6602 11.6787 68.5901 10.0682C67.0064 7.68469 63.9703 6.37057 61.0945 6.82429ZM21.6949 8.94234V9.96792H25.6643H29.6337V8.94234V7.91675H25.6643H21.6949V8.94234ZM0.068438 9.27599V10.3999L0.444847 10.3295C0.651941 10.2906 1.11376 10.2205 1.47142 10.1735L2.12158 10.0878V9.20749C2.12158 8.38592 2.10091 8.32685 1.81361 8.32575C1.64416 8.32521 1.18234 8.28582 0.787037 8.23837L0.068438 8.15209V9.27599ZM63.4421 8.93249C68.6225 10.0423 69.3823 17.0311 64.5701 19.3086L63.6474 19.7452L58.6514 19.789C53.2122 19.8367 52.9443 19.8084 52.1395 19.1025C50.6435 17.7903 50.6941 15.4625 52.243 14.3416C53.3292 13.5554 54.3651 13.4976 55.7636 14.1449C56.1693 14.3327 56.5279 14.4597 56.5605 14.427C56.5932 14.3945 56.7151 13.9469 56.8315 13.4328C57.3654 11.0745 58.9628 9.39332 61.1152 8.92415C62.1141 8.70645 62.3914 8.70755 63.4421 8.93249ZM16.2223 10.8451C16.1354 11.263 16.0636 11.6497 16.0627 11.7044C16.0602 11.8654 17.7576 12.4519 17.8779 12.3317C18.0664 12.1434 18.4398 10.4896 18.3191 10.378C18.2561 10.3198 17.794 10.2301 17.2924 10.1788L16.3801 10.0854L16.2223 10.8451ZM1.57407 12.1407C1.08474 12.3284 0.664944 12.4947 0.641264 12.5102C0.597875 12.5385 1.32469 13.99 1.54205 14.3093C1.62828 14.4358 1.87192 14.3297 2.48498 13.8984L3.31158 13.3168L2.88767 12.558L2.46377 11.7993L1.57407 12.1407ZM43.5952 27.1978C46.698 35.0572 49.2674 41.5646 49.3049 41.6586C49.3582 41.7922 48.7266 41.8295 46.4156 41.8295H43.4581V42.8551V43.8807H48.3857H53.3132V42.8551V41.8295H52.4449H51.5765L49.967 37.7613C49.0818 35.5238 48.3264 33.6163 48.2885 33.5223C48.2343 33.3881 49.0023 33.3513 51.8614 33.3513H55.5032V47.2309V61.1106H32.7134H9.92351V47.2309V33.3513H14.9251H19.9267L19.2709 34.5562C18.9102 35.2188 17.876 37.1258 16.9726 38.7938L15.3301 41.8265L13.8587 41.828L12.3873 41.8295V42.8551V43.8807H17.3148H22.2424V42.8551V41.8295H19.9725C18.5781 41.8295 17.7202 41.7788 17.7483 41.698C17.8686 41.3506 27.2487 24.1895 27.3181 24.1895C27.3621 24.1894 28.2828 25.7907 29.3642 27.7478C30.5306 29.8589 31.368 31.2355 31.4228 31.1322C31.4737 31.0365 32.9194 26.8157 34.6357 21.7526C36.4268 16.4686 37.7982 12.6239 37.8549 12.7274C37.9091 12.8267 40.4922 19.3384 43.5952 27.1978ZM14.5243 14.0158L13.9922 14.6194L14.6893 15.3558L15.3865 16.0923L16.0769 15.3629C16.4566 14.9619 16.7673 14.5771 16.7673 14.508C16.7673 14.3706 15.3303 13.3786 15.1611 13.3994C15.1035 13.4065 14.817 13.684 14.5243 14.0158ZM3.83896 15.3376C3.49595 15.7293 3.23575 16.112 3.26052 16.1882C3.31267 16.3483 4.71251 17.3522 4.88374 17.3522C5.08933 17.3522 5.90141 15.5389 5.72347 15.4772C5.63423 15.4462 5.31394 15.2419 5.01185 15.0232L4.46243 14.6256L3.83896 15.3376ZM11.8388 15.8914C11.4253 16.0443 11.0642 16.1865 11.0365 16.2075C11.0087 16.2282 11.0922 16.6784 11.2221 17.2079C11.4505 18.1397 11.4698 18.1678 11.8201 18.0858C12.409 17.9477 13.4823 17.4647 13.4823 17.3377C13.4823 17.273 13.2818 16.8585 13.0365 16.4167L12.5908 15.6132L11.8388 15.8914ZM7.28276 17.1662C7.16574 17.6821 7.1129 18.1487 7.16532 18.203C7.21761 18.2573 7.70557 18.343 8.24979 18.3935L9.23913 18.4854V17.4402V16.3949L8.86273 16.3934C8.65563 16.3926 8.26334 16.3551 7.99082 16.31L7.4952 16.2281L7.28276 17.1662ZM37.9186 23.3155C37.4691 23.4984 37.0544 23.6951 36.9969 23.7525C36.9148 23.8346 39.6445 30.7999 39.8415 31.0108C39.9155 31.0902 41.5364 30.4624 41.6243 30.3202C41.6792 30.2318 38.9165 23.1873 38.7554 23.0051C38.7447 22.9929 38.3681 23.1325 37.9186 23.3155ZM3.90097 24.2578V25.2834H7.32287H10.7448V24.2578V23.2322H7.32287H3.90097V24.2578ZM12.7979 24.2578V25.2834H13.9614H15.1248V24.2578V23.2322H13.9614H12.7979V24.2578ZM24.7403 33.3773C24.2809 34.2225 23.9357 34.9638 23.9733 35.0245C24.0109 35.0854 24.4025 35.3172 24.8436 35.5395L25.6454 35.9439L25.9091 35.5023C26.4431 34.608 27.3068 32.9723 27.3065 32.8559C27.3062 32.7626 26.186 32.095 25.6656 31.878C25.6162 31.8574 25.1998 32.5319 24.7403 33.3773ZM41.5491 32.6113C41.1391 32.7972 40.775 32.9779 40.7402 33.0127C40.6898 33.0629 41.3527 34.9413 41.4771 35.101C41.4944 35.1231 41.9209 34.9763 42.425 34.7747C43.2608 34.4404 43.3343 34.3791 43.2593 34.0802C43.1208 33.5291 42.5219 32.2568 42.4049 32.2653C42.3442 32.2695 41.9592 32.4253 41.5491 32.6113ZM7.87037 47.2443V61.1374L6.05677 61.0858C4.53553 61.0425 4.15487 60.9874 3.69565 60.7438C2.99416 60.3717 2.6183 59.9638 2.26995 59.1961C1.9962 58.5928 1.99073 58.3599 1.98854 47.2993C1.98703 39.7588 2.03439 35.8446 2.13143 35.4953C2.31704 34.8279 3.12844 33.9267 3.83253 33.6065C4.2693 33.4078 4.73317 33.3567 6.1252 33.3543L7.87037 33.3513V47.2443ZM66.1111 33.6065C66.8152 33.9267 67.6266 34.8279 67.8122 35.4953C67.9093 35.8446 67.9566 39.7588 67.9551 47.2993C67.9529 58.3599 67.9475 58.5928 67.6737 59.1961C67.3263 59.9616 66.9516 60.3695 66.248 60.7478C65.7284 61.0271 65.4933 61.0444 61.6284 61.0839L57.5564 61.1256V47.2385V33.3513L61.56 33.3543C65.1374 33.3571 65.6219 33.3839 66.1111 33.6065ZM12.2504 36.3597V37.4627L13.7903 37.424L15.3301 37.3853V36.3597V35.3341L13.7903 35.2954L12.2504 35.2567V36.3597ZM29.4604 37.8672C27.7134 38.3081 26.1953 39.708 25.6396 41.391C25.3243 42.346 25.1814 44.8301 25.3616 46.2223C25.4362 46.7992 25.6652 47.6405 25.8742 48.1057C26.3859 49.2446 27.6655 50.4479 28.8078 50.864L29.6337 51.1648V54.0181V56.8715H30.7287H31.8237V54.0261V51.1807L32.7476 50.8175C33.2915 50.6036 33.6914 50.5116 33.7197 50.5938C33.8373 50.9344 34.6882 51.911 35.2214 52.3173C35.5426 52.5619 36.1105 52.8704 36.4836 53.0028L37.1618 53.2435V55.0575V56.8715H38.2569H39.3519V55.0575V53.2435L40.0394 52.9995C41.4116 52.5127 42.8173 50.9842 43.2011 49.5616C43.4478 48.6472 43.2981 46.9301 42.8967 46.0683C41.8327 43.7841 39.1943 42.6185 36.7692 43.3612C36.2177 43.5301 36.072 43.3795 36.0689 42.637C36.0638 41.4491 35.134 39.7003 34.0808 38.8977C33.1779 38.2097 32.1644 37.8409 31.0291 37.7871C30.4499 37.7597 29.744 37.7957 29.4604 37.8672ZM31.836 39.9658C32.6214 40.2463 33.2891 40.8407 33.6648 41.594C33.975 42.2157 34.0137 42.46 34.0137 43.7914C34.0137 45.1095 33.9728 45.373 33.673 45.9866C33.4855 46.3701 33.2925 46.9916 33.2439 47.3677C33.1953 47.7437 33.0563 48.1655 32.9348 48.3047C32.7335 48.5356 32.0762 48.9403 31.9024 48.9403C31.863 48.9403 31.8137 47.9711 31.7929 46.7865L31.7552 44.6328H30.7287H29.7021L29.6645 46.7865C29.6437 47.9711 29.5944 48.9403 29.555 48.9403C29.3462 48.9403 28.6906 48.4977 28.3061 48.0972C27.5479 47.3077 27.4437 46.8677 27.4437 44.4588C27.4437 42.412 27.4628 42.2551 27.7925 41.594C28.3525 40.4714 29.4611 39.7904 30.7287 39.7904C31.0674 39.7904 31.5658 39.8693 31.836 39.9658ZM3.90097 44.9746V48.9403H4.92754H5.95411V44.9746V41.009H4.92754H3.90097V44.9746ZM61.4463 44.2768C59.7571 45.0434 59.0423 47.0294 59.8744 48.6452C61.1064 51.0376 64.5265 50.9355 65.6462 48.4727C66.1466 47.3719 65.8117 45.688 64.9315 44.8806C64.0397 44.0621 62.5051 43.7965 61.4463 44.2768ZM39.1559 45.3121C41.4279 45.9881 42.0368 49.0672 40.198 50.5813C39.3969 51.2411 39.3519 51.1829 39.3519 49.4872V47.983H38.2569H37.1618V49.4872C37.1618 50.3145 37.128 50.9914 37.0866 50.9914C36.8366 50.9914 36.1668 50.5146 35.8692 50.1247C35.2383 49.2984 35.1877 48.9412 35.5885 48.1441C35.7831 47.7569 35.9786 47.1344 36.0229 46.7609C36.1182 45.9572 36.4509 45.5859 37.3183 45.3156C38.099 45.0721 38.3477 45.0717 39.1559 45.3121ZM63.4919 46.4291C64.2284 47.165 63.7355 48.3112 62.6824 48.3112C61.6553 48.3112 61.2025 47.0653 61.9851 46.3927C62.4852 45.963 63.0387 45.9764 63.4919 46.4291ZM48.855 48.1641C48.8149 48.2684 48.8008 48.7472 48.8236 49.2281L48.8648 50.1026H50.5757H52.2867V49.077V48.0514L50.6072 48.013C49.2755 47.9825 48.9128 48.0138 48.855 48.1641ZM13.0717 50.2393V51.2649H19.1626H25.2536V50.2393V49.2137H19.1626H13.0717V50.2393ZM3.90097 52.1538V53.3161H4.92754H5.95411V52.1538V50.9914H4.92754H3.90097V52.1538ZM43.7319 53.7263V54.8203H46.6747H49.6176V53.7263V52.6324H46.6747H43.7319V53.7263ZM18.6836 54.6152V55.6408H21.7633H24.843V54.6152V53.5896H21.7633H18.6836V54.6152ZM14.0298 57.8287V58.9226H16.7673H19.5048V57.8287V56.7347H16.7673H14.0298V57.8287ZM2.58942 62.4895C3.77655 63.1892 2.28624 63.1585 34.9718 63.1585C67.6574 63.1585 66.1671 63.1892 67.3542 62.4895C67.6202 62.3328 67.8651 62.2045 67.8983 62.2045C67.9317 62.2045 67.9576 62.9276 67.956 63.8113C67.9535 65.132 67.9033 65.5276 67.6737 66.0334C67.3263 66.7989 66.9516 67.2068 66.248 67.585L65.7005 67.8794H34.9718H4.24316L3.69565 67.585C2.99211 67.2068 2.61734 66.7989 2.26995 66.0334C2.04041 65.5276 1.99018 65.132 1.98771 63.8113C1.98607 62.9276 2.01194 62.2045 2.04534 62.2045C2.0786 62.2045 2.32347 62.3328 2.58942 62.4895Z" fill="#6A6A6A"/>
</svg>
