<svg width="70" height="58" viewBox="0 0 70 58" fill="none" xmlns="http://www.w3.org/2000/svg">
<mask id="path-1-outside-1_437_2047" maskUnits="userSpaceOnUse" x="0" y="0.283203" width="70" height="57" fill="black">
<rect fill="white" y="0.283203" width="70" height="57"/>
<path fill-rule="evenodd" clip-rule="evenodd" d="M17.3037 1.48791C17.2129 1.60064 17.0745 2.13614 16.9963 2.67817L16.854 3.66358L15.9892 4.01641L15.1242 4.36923L14.5172 3.88648C13.2294 2.86226 13.139 2.89353 11.0414 5.08782C9.29031 6.9199 9.24814 7.06333 10.1117 8.25345C10.4178 8.67522 10.6409 9.08661 10.6078 9.16764C10.5746 9.24867 10.4135 9.64002 10.25 10.0373L9.95249 10.7598L8.96322 10.9173C7.80695 11.1014 7.61991 11.2854 7.61991 12.2394V12.9063L5.85731 12.9676C4.27525 13.0226 4.01991 13.0686 3.36422 13.4158C2.37869 13.9375 1.60895 14.7876 1.26431 15.7344C0.982152 16.5099 0.979802 16.6648 1.01644 32.178L1.05335 47.8386L1.36522 48.4388C1.83014 49.3335 2.40011 49.9374 3.22114 50.4051L3.95646 50.8239L10.4193 50.8647L16.8822 50.9056V53.0325V55.1596H15.3138C13.97 55.1596 13.7127 55.1968 13.5167 55.4196C13.2311 55.744 13.2276 56.0028 13.5031 56.4072L13.7182 56.7233H25.7298H37.7414L37.9565 56.4072C38.2399 55.9914 38.2284 55.6828 37.9189 55.3948C37.7154 55.2055 37.3648 55.1596 36.1217 55.1596H34.5774V53.0325V50.9056L41.0403 50.8647L47.5031 50.8239L48.2385 50.4051C49.0595 49.9374 49.6295 49.3335 50.0944 48.4388L50.4063 47.8386L50.4444 38.0058L50.4827 28.1731L52.8348 26.8823C54.1283 26.1724 55.2157 25.5915 55.2511 25.5915C55.2865 25.5915 55.2995 30.9169 55.2802 37.4259L55.2448 49.2602L54.0006 49.298C52.2027 49.3527 52.2725 49.2042 52.2725 52.9783C52.2725 56.024 52.2727 56.0256 52.6119 56.3743L52.9512 56.7233H60.6683C67.4293 56.7233 68.4235 56.6958 68.6927 56.5019C68.9947 56.2844 69 56.2263 69 53.081C69 51.1471 68.9433 49.7724 68.8569 49.6062C68.7308 49.3641 68.5575 49.3312 67.4054 49.3312H66.0969V36.4087V23.4861L66.5924 22.8763C67.2548 22.061 67.8515 20.816 68.1006 19.7291C68.7133 17.057 67.9666 14.4091 66.0416 12.4265C64.3836 10.7193 62.6119 10.0133 60.2907 10.1353C57.5454 10.2794 55.3583 11.6845 53.968 14.1969C53.5865 14.8859 53.41 15.0349 52.0642 15.803C51.2484 16.2685 50.5603 16.6284 50.5352 16.6026C50.5101 16.5767 50.2339 16.0304 49.9214 15.3886C49.4724 14.4661 49.221 14.1278 48.7215 13.7746C47.547 12.9435 47.5069 12.9398 39.6704 12.9398H32.5037V12.2937C32.5037 11.3649 32.1254 11.0176 30.9735 10.8891L30.0845 10.79L29.7267 9.89263L29.3688 8.99507L29.9686 8.17071C30.2985 7.71724 30.5683 7.21928 30.5683 7.0639C30.5683 6.75543 27.3673 3.33066 26.9526 3.19533C26.6676 3.10236 26.3027 3.28289 25.4882 3.91974L24.9008 4.37904L24.1748 4.07298C23.1361 3.63501 23.1492 3.65121 23.0418 2.67234C22.8875 1.26573 22.9259 1.28321 19.9881 1.28321C17.9638 1.28321 17.4366 1.32344 17.3037 1.48791ZM21.5087 3.45106C21.733 4.9805 21.7295 4.97453 22.6193 5.26452C22.9235 5.3636 23.5283 5.62786 23.9632 5.85161C24.3982 6.07551 24.8392 6.2586 24.9431 6.2586C25.0469 6.2586 25.4739 6.0067 25.8921 5.6988L26.6523 5.139L27.6629 6.18511L28.6734 7.23122L28.2584 7.77553C27.4724 8.80657 27.4683 8.83955 27.9928 9.98716C28.2527 10.5556 28.5085 11.2309 28.5612 11.4876C28.6834 12.0832 29.0564 12.3236 30.0499 12.4473L30.8448 12.5461V14.0098V15.4736L30.2573 15.5649C28.9719 15.7643 28.8975 15.7976 28.7088 16.2581C27.3987 19.4543 27.4327 19.1534 28.2595 20.2377L28.6755 20.7833L27.6449 21.8431L26.6144 22.9027L25.9992 22.4245C25.1137 21.736 24.9724 21.7107 24.1647 22.0971C23.771 22.2855 23.0801 22.589 22.6296 22.7716C21.7449 23.1304 21.6809 23.2291 21.5157 24.4898L21.4272 25.1651H20.0002H18.5729L18.4769 24.3477C18.3607 23.3617 18.1324 22.9581 17.6159 22.8271C17.4024 22.7729 16.747 22.5061 16.1593 22.2343C14.9731 21.6856 14.9467 21.6888 13.9336 22.5055L13.4043 22.9323L12.3885 21.8947L11.3727 20.8571L11.9346 20.0377C12.5567 19.1306 12.5577 19.2041 11.9045 17.6309C11.0906 15.6703 11.1874 15.7649 9.79255 15.5714L9.13119 15.4797L9.17045 14.0329L9.20971 12.5862L10.1025 12.4221C10.9984 12.2576 11.4907 11.903 11.4907 11.4222C11.4907 11.3085 11.7085 10.7308 11.9746 10.1386C12.2407 9.5462 12.4584 8.98625 12.4584 8.89414C12.4584 8.80202 12.2083 8.38196 11.9027 7.96075L11.3471 7.19483L12.3485 6.1581C12.8994 5.58792 13.3559 5.12137 13.3631 5.12137C13.3703 5.12137 13.7097 5.37725 14.1174 5.68999C14.525 6.00272 14.9427 6.2586 15.0455 6.2586C15.1484 6.2586 15.5285 6.10436 15.8905 5.91573C16.2524 5.72709 16.8766 5.46254 17.2776 5.32763C18.1166 5.04546 18.3346 4.76101 18.4705 3.77091C18.5241 3.37998 18.5967 3.01209 18.6318 2.95352C18.6669 2.89495 19.3087 2.84691 20.0578 2.84691H21.4199L21.5087 3.45106ZM19.1256 8.39205C17.48 8.6421 15.786 9.95759 15.0079 11.5894C14.6327 12.3762 14.6012 12.5636 14.6012 14.006C14.6012 15.4049 14.6402 15.6553 14.9717 16.3825C16.0172 18.6763 18.5969 20.0936 20.9185 19.6496C23.3248 19.1894 25.0767 17.3622 25.4899 14.8818C26.1105 11.1562 22.8454 7.8267 19.1256 8.39205ZM21.8583 10.4655C23.3195 11.2833 24.0214 12.6254 23.9 14.3698C23.8515 15.0663 23.7315 15.513 23.469 15.9735C21.6104 19.2347 16.9724 18.5047 16.1716 14.8252C15.8645 13.4139 16.451 11.781 17.6126 10.8136C18.7394 9.87514 20.5397 9.72744 21.8583 10.4655ZM62.2085 11.9597C63.7824 12.3245 65.3865 13.6796 66.0999 15.2476C67.7495 18.8721 65.7464 23.1073 61.9738 23.9721C58.6064 24.7442 55.3067 22.4133 54.7337 18.858C54.3174 16.2743 55.6737 13.6155 58.0153 12.4255C59.4154 11.714 60.5866 11.5838 62.2085 11.9597ZM59.4801 14.6907C56.7093 15.7657 56.6482 19.9463 59.3861 21.1207C60.0649 21.4118 61.3178 21.424 61.9656 21.1457C64.454 20.0765 64.737 16.4647 62.4463 15.0085C61.9048 14.6642 61.5984 14.5749 60.8601 14.5462C60.3569 14.5266 59.7359 14.5917 59.4801 14.6907ZM7.61991 15.6327C7.61991 16.8182 7.79216 17.0039 9.02502 17.1473C9.92899 17.2525 9.96023 17.2789 10.3815 18.2952L10.6862 19.0307L10.1207 19.8008C9.2498 20.987 9.28229 21.0874 11.1779 23.0609C12.0702 23.9899 12.9468 24.7879 13.126 24.8341C13.3668 24.8963 13.6627 24.7652 14.2617 24.3309C14.7071 24.0078 15.1188 23.7435 15.1766 23.7435C15.2342 23.7435 15.6351 23.8846 16.0674 24.057L16.8535 24.3703L17.0159 25.4065C17.2441 26.8613 17.2634 26.8709 19.9453 26.8709C21.14 26.8709 22.2754 26.8092 22.4682 26.7337C22.8412 26.588 22.94 26.332 23.0838 25.1408L23.1723 24.4075L24.029 24.0143L24.8858 23.6211L25.4805 24.0863C26.3027 24.7291 26.667 24.9099 26.9526 24.8167C27.3663 24.6816 30.5683 21.2566 30.5683 20.9489C30.5683 20.7941 30.3195 20.3246 30.0153 19.9054C29.7112 19.4862 29.4624 19.0668 29.4624 18.9734C29.4624 18.88 29.6142 18.4504 29.7998 18.0189L30.1373 17.2343L30.9973 17.1317C32.1981 16.9884 32.5037 16.6583 32.5037 15.505V14.6457H39.6968C47.5853 14.6457 47.4653 14.6336 48.1739 15.4996C48.5496 15.9588 49.2913 17.3359 49.2059 17.4158C49.1818 17.4384 48.2714 17.9665 47.1828 18.5896L45.2036 19.7223L44.82 19.3278C44.3804 18.8758 43.4186 18.5617 42.888 18.6969C42.6891 18.7477 41.6763 19.2891 40.6373 19.9004L38.7482 21.0116L35.5914 21.2553C33.8552 21.3893 32.3275 21.5575 32.1967 21.629C31.9347 21.7721 29.4624 29.3798 29.4624 30.0427C29.4624 30.3477 29.6746 30.5779 30.6029 31.2794C31.9393 32.2894 32.286 32.4188 32.6482 32.0426C32.7898 31.8956 33.484 30.6878 34.1909 29.3586L35.476 26.942L37.6187 26.5589C38.7973 26.3481 39.9244 26.1722 40.1236 26.168C40.4401 26.1611 40.5906 26.3467 41.323 27.6482L42.1604 29.1361L40.6363 31.0955L39.112 33.0546L36.1228 33.1257C33.2236 33.1946 33.1291 33.2062 32.9837 33.5065C32.7697 33.9482 33.0622 36.6041 33.3584 36.9086C33.6694 37.2283 41.4602 38.869 41.8367 38.694C41.9896 38.6228 42.8835 37.3545 43.8232 35.8754L45.5318 33.1863L47.1462 32.232C48.0341 31.7071 48.8051 31.2777 48.8594 31.2777C48.9138 31.2777 48.942 33.4687 48.9219 36.1465L48.8856 41.0152H25.7298H2.57403L2.53863 29.0925C2.51541 21.2295 2.55191 16.9843 2.64605 16.625C2.82397 15.9451 3.35358 15.2864 4.00775 14.9308C4.41363 14.7104 4.80652 14.6571 6.06467 14.6519L7.61991 14.6457V15.6327ZM61.6731 16.469C61.8632 16.61 62.1357 16.9672 62.2785 17.263C62.4965 17.7144 62.5136 17.8854 62.3852 18.3259C62.0606 19.4401 60.9787 20.0032 59.9838 19.5759C58.6143 18.9875 58.5838 16.9753 59.9345 16.3309C60.5696 16.028 61.1395 16.0733 61.6731 16.469ZM53.1037 18.164C53.1064 19.8244 53.6966 21.4891 54.7836 22.9033C55.0884 23.2997 55.3169 23.6416 55.2914 23.6631C55.1089 23.8158 49.3819 26.8709 49.2782 26.8709C49.1409 26.8709 46.0481 21.4691 46.0561 21.243C46.0604 21.1228 52.7694 17.2263 52.9983 17.2113C53.0554 17.2076 53.1027 17.6362 53.1037 18.164ZM46.0767 24.7581C47.6856 27.5989 48.5131 29.1941 48.4565 29.346C48.4086 29.4739 47.9259 29.8424 47.3834 30.1648C46.841 30.4872 46.1442 30.9007 45.8348 31.0837L45.2726 31.4164L42.6609 26.7726C41.2245 24.2183 40.1089 22.1071 40.1819 22.0806C40.2548 22.0542 40.9366 21.651 41.6969 21.1848C42.4573 20.7184 43.1988 20.3516 43.3448 20.3698C43.5349 20.3935 44.3107 21.6398 46.0767 24.7581ZM39.0331 23.6324C39.3119 24.1184 39.5258 24.5308 39.5085 24.5486C39.4912 24.5665 38.3646 24.7739 37.0049 25.0096C35.6453 25.2454 34.4841 25.4888 34.4242 25.5505C34.3645 25.6122 33.788 26.6541 33.1434 27.866C32.4988 29.0779 31.9199 30.0694 31.8573 30.0694C31.7947 30.0694 31.6067 29.9697 31.4397 29.8481L31.1359 29.6267L32.182 26.3478L33.2283 23.069L35.1815 22.9321C36.2559 22.8568 37.4479 22.7846 37.8305 22.7718L38.5262 22.7485L39.0331 23.6324ZM58.1479 25.3286C58.8575 25.6112 59.227 25.6589 60.7054 25.6589C62.4326 25.6589 62.6205 25.621 64.196 24.953C64.4254 24.8557 64.438 25.489 64.438 37.0931V49.3358L60.6708 49.298L56.9037 49.2602L56.8683 37.0537C56.8349 25.4701 56.8454 24.8511 57.0757 24.9226C57.2092 24.9641 57.6917 25.1467 58.1479 25.3286ZM43.6865 31.9174L44.0171 32.5585L42.5951 34.7612C41.7279 36.1044 41.085 36.9639 40.9476 36.9639C40.8236 36.9639 39.3863 36.6766 37.7535 36.3254C36.1207 35.9743 34.738 35.6865 34.6811 35.6857C34.6241 35.685 34.5774 35.4751 34.5774 35.2191V34.7535L36.9241 34.8088C38.2146 34.8392 39.4122 34.8263 39.5853 34.7799C39.7731 34.7296 40.5116 33.8987 41.4204 32.7149C43.1239 30.4958 42.9795 30.5467 43.6865 31.9174ZM48.9294 44.96C48.8912 46.9713 48.8483 47.3435 48.5971 47.8386C48.2704 48.4824 47.6364 48.98 46.8734 49.1912C46.5318 49.2858 39.2069 49.3221 25.432 49.2976L4.50943 49.2602L3.90835 48.9063C3.538 48.6883 3.16654 48.3062 2.94065 47.9113C2.59144 47.3004 2.57181 47.1604 2.52758 44.96L2.48113 42.65H25.7272H48.9734L48.9294 44.96ZM25.0852 45.1344C24.683 45.424 24.5745 45.9778 24.8232 46.4721C25.2953 47.411 26.5792 47.1864 26.777 46.1305C26.9502 45.2061 25.8693 44.5697 25.0852 45.1344ZM32.9185 53.0272V55.1596H25.7298H18.5411V53.0272V50.8949H25.7298H32.9185V53.0272ZM67.4793 52.9562V55.0174H60.7054H53.9315V52.9562V50.8949H60.7054H67.4793V52.9562Z"/>
</mask>
<path fill-rule="evenodd" clip-rule="evenodd" d="M17.3037 1.48791C17.2129 1.60064 17.0745 2.13614 16.9963 2.67817L16.854 3.66358L15.9892 4.01641L15.1242 4.36923L14.5172 3.88648C13.2294 2.86226 13.139 2.89353 11.0414 5.08782C9.29031 6.9199 9.24814 7.06333 10.1117 8.25345C10.4178 8.67522 10.6409 9.08661 10.6078 9.16764C10.5746 9.24867 10.4135 9.64002 10.25 10.0373L9.95249 10.7598L8.96322 10.9173C7.80695 11.1014 7.61991 11.2854 7.61991 12.2394V12.9063L5.85731 12.9676C4.27525 13.0226 4.01991 13.0686 3.36422 13.4158C2.37869 13.9375 1.60895 14.7876 1.26431 15.7344C0.982152 16.5099 0.979802 16.6648 1.01644 32.178L1.05335 47.8386L1.36522 48.4388C1.83014 49.3335 2.40011 49.9374 3.22114 50.4051L3.95646 50.8239L10.4193 50.8647L16.8822 50.9056V53.0325V55.1596H15.3138C13.97 55.1596 13.7127 55.1968 13.5167 55.4196C13.2311 55.744 13.2276 56.0028 13.5031 56.4072L13.7182 56.7233H25.7298H37.7414L37.9565 56.4072C38.2399 55.9914 38.2284 55.6828 37.9189 55.3948C37.7154 55.2055 37.3648 55.1596 36.1217 55.1596H34.5774V53.0325V50.9056L41.0403 50.8647L47.5031 50.8239L48.2385 50.4051C49.0595 49.9374 49.6295 49.3335 50.0944 48.4388L50.4063 47.8386L50.4444 38.0058L50.4827 28.1731L52.8348 26.8823C54.1283 26.1724 55.2157 25.5915 55.2511 25.5915C55.2865 25.5915 55.2995 30.9169 55.2802 37.4259L55.2448 49.2602L54.0006 49.298C52.2027 49.3527 52.2725 49.2042 52.2725 52.9783C52.2725 56.024 52.2727 56.0256 52.6119 56.3743L52.9512 56.7233H60.6683C67.4293 56.7233 68.4235 56.6958 68.6927 56.5019C68.9947 56.2844 69 56.2263 69 53.081C69 51.1471 68.9433 49.7724 68.8569 49.6062C68.7308 49.3641 68.5575 49.3312 67.4054 49.3312H66.0969V36.4087V23.4861L66.5924 22.8763C67.2548 22.061 67.8515 20.816 68.1006 19.7291C68.7133 17.057 67.9666 14.4091 66.0416 12.4265C64.3836 10.7193 62.6119 10.0133 60.2907 10.1353C57.5454 10.2794 55.3583 11.6845 53.968 14.1969C53.5865 14.8859 53.41 15.0349 52.0642 15.803C51.2484 16.2685 50.5603 16.6284 50.5352 16.6026C50.5101 16.5767 50.2339 16.0304 49.9214 15.3886C49.4724 14.4661 49.221 14.1278 48.7215 13.7746C47.547 12.9435 47.5069 12.9398 39.6704 12.9398H32.5037V12.2937C32.5037 11.3649 32.1254 11.0176 30.9735 10.8891L30.0845 10.79L29.7267 9.89263L29.3688 8.99507L29.9686 8.17071C30.2985 7.71724 30.5683 7.21928 30.5683 7.0639C30.5683 6.75543 27.3673 3.33066 26.9526 3.19533C26.6676 3.10236 26.3027 3.28289 25.4882 3.91974L24.9008 4.37904L24.1748 4.07298C23.1361 3.63501 23.1492 3.65121 23.0418 2.67234C22.8875 1.26573 22.9259 1.28321 19.9881 1.28321C17.9638 1.28321 17.4366 1.32344 17.3037 1.48791ZM21.5087 3.45106C21.733 4.9805 21.7295 4.97453 22.6193 5.26452C22.9235 5.3636 23.5283 5.62786 23.9632 5.85161C24.3982 6.07551 24.8392 6.2586 24.9431 6.2586C25.0469 6.2586 25.4739 6.0067 25.8921 5.6988L26.6523 5.139L27.6629 6.18511L28.6734 7.23122L28.2584 7.77553C27.4724 8.80657 27.4683 8.83955 27.9928 9.98716C28.2527 10.5556 28.5085 11.2309 28.5612 11.4876C28.6834 12.0832 29.0564 12.3236 30.0499 12.4473L30.8448 12.5461V14.0098V15.4736L30.2573 15.5649C28.9719 15.7643 28.8975 15.7976 28.7088 16.2581C27.3987 19.4543 27.4327 19.1534 28.2595 20.2377L28.6755 20.7833L27.6449 21.8431L26.6144 22.9027L25.9992 22.4245C25.1137 21.736 24.9724 21.7107 24.1647 22.0971C23.771 22.2855 23.0801 22.589 22.6296 22.7716C21.7449 23.1304 21.6809 23.2291 21.5157 24.4898L21.4272 25.1651H20.0002H18.5729L18.4769 24.3477C18.3607 23.3617 18.1324 22.9581 17.6159 22.8271C17.4024 22.7729 16.747 22.5061 16.1593 22.2343C14.9731 21.6856 14.9467 21.6888 13.9336 22.5055L13.4043 22.9323L12.3885 21.8947L11.3727 20.8571L11.9346 20.0377C12.5567 19.1306 12.5577 19.2041 11.9045 17.6309C11.0906 15.6703 11.1874 15.7649 9.79255 15.5714L9.13119 15.4797L9.17045 14.0329L9.20971 12.5862L10.1025 12.4221C10.9984 12.2576 11.4907 11.903 11.4907 11.4222C11.4907 11.3085 11.7085 10.7308 11.9746 10.1386C12.2407 9.5462 12.4584 8.98625 12.4584 8.89414C12.4584 8.80202 12.2083 8.38196 11.9027 7.96075L11.3471 7.19483L12.3485 6.1581C12.8994 5.58792 13.3559 5.12137 13.3631 5.12137C13.3703 5.12137 13.7097 5.37725 14.1174 5.68999C14.525 6.00272 14.9427 6.2586 15.0455 6.2586C15.1484 6.2586 15.5285 6.10436 15.8905 5.91573C16.2524 5.72709 16.8766 5.46254 17.2776 5.32763C18.1166 5.04546 18.3346 4.76101 18.4705 3.77091C18.5241 3.37998 18.5967 3.01209 18.6318 2.95352C18.6669 2.89495 19.3087 2.84691 20.0578 2.84691H21.4199L21.5087 3.45106ZM19.1256 8.39205C17.48 8.6421 15.786 9.95759 15.0079 11.5894C14.6327 12.3762 14.6012 12.5636 14.6012 14.006C14.6012 15.4049 14.6402 15.6553 14.9717 16.3825C16.0172 18.6763 18.5969 20.0936 20.9185 19.6496C23.3248 19.1894 25.0767 17.3622 25.4899 14.8818C26.1105 11.1562 22.8454 7.8267 19.1256 8.39205ZM21.8583 10.4655C23.3195 11.2833 24.0214 12.6254 23.9 14.3698C23.8515 15.0663 23.7315 15.513 23.469 15.9735C21.6104 19.2347 16.9724 18.5047 16.1716 14.8252C15.8645 13.4139 16.451 11.781 17.6126 10.8136C18.7394 9.87514 20.5397 9.72744 21.8583 10.4655ZM62.2085 11.9597C63.7824 12.3245 65.3865 13.6796 66.0999 15.2476C67.7495 18.8721 65.7464 23.1073 61.9738 23.9721C58.6064 24.7442 55.3067 22.4133 54.7337 18.858C54.3174 16.2743 55.6737 13.6155 58.0153 12.4255C59.4154 11.714 60.5866 11.5838 62.2085 11.9597ZM59.4801 14.6907C56.7093 15.7657 56.6482 19.9463 59.3861 21.1207C60.0649 21.4118 61.3178 21.424 61.9656 21.1457C64.454 20.0765 64.737 16.4647 62.4463 15.0085C61.9048 14.6642 61.5984 14.5749 60.8601 14.5462C60.3569 14.5266 59.7359 14.5917 59.4801 14.6907ZM7.61991 15.6327C7.61991 16.8182 7.79216 17.0039 9.02502 17.1473C9.92899 17.2525 9.96023 17.2789 10.3815 18.2952L10.6862 19.0307L10.1207 19.8008C9.2498 20.987 9.28229 21.0874 11.1779 23.0609C12.0702 23.9899 12.9468 24.7879 13.126 24.8341C13.3668 24.8963 13.6627 24.7652 14.2617 24.3309C14.7071 24.0078 15.1188 23.7435 15.1766 23.7435C15.2342 23.7435 15.6351 23.8846 16.0674 24.057L16.8535 24.3703L17.0159 25.4065C17.2441 26.8613 17.2634 26.8709 19.9453 26.8709C21.14 26.8709 22.2754 26.8092 22.4682 26.7337C22.8412 26.588 22.94 26.332 23.0838 25.1408L23.1723 24.4075L24.029 24.0143L24.8858 23.6211L25.4805 24.0863C26.3027 24.7291 26.667 24.9099 26.9526 24.8167C27.3663 24.6816 30.5683 21.2566 30.5683 20.9489C30.5683 20.7941 30.3195 20.3246 30.0153 19.9054C29.7112 19.4862 29.4624 19.0668 29.4624 18.9734C29.4624 18.88 29.6142 18.4504 29.7998 18.0189L30.1373 17.2343L30.9973 17.1317C32.1981 16.9884 32.5037 16.6583 32.5037 15.505V14.6457H39.6968C47.5853 14.6457 47.4653 14.6336 48.1739 15.4996C48.5496 15.9588 49.2913 17.3359 49.2059 17.4158C49.1818 17.4384 48.2714 17.9665 47.1828 18.5896L45.2036 19.7223L44.82 19.3278C44.3804 18.8758 43.4186 18.5617 42.888 18.6969C42.6891 18.7477 41.6763 19.2891 40.6373 19.9004L38.7482 21.0116L35.5914 21.2553C33.8552 21.3893 32.3275 21.5575 32.1967 21.629C31.9347 21.7721 29.4624 29.3798 29.4624 30.0427C29.4624 30.3477 29.6746 30.5779 30.6029 31.2794C31.9393 32.2894 32.286 32.4188 32.6482 32.0426C32.7898 31.8956 33.484 30.6878 34.1909 29.3586L35.476 26.942L37.6187 26.5589C38.7973 26.3481 39.9244 26.1722 40.1236 26.168C40.4401 26.1611 40.5906 26.3467 41.323 27.6482L42.1604 29.1361L40.6363 31.0955L39.112 33.0546L36.1228 33.1257C33.2236 33.1946 33.1291 33.2062 32.9837 33.5065C32.7697 33.9482 33.0622 36.6041 33.3584 36.9086C33.6694 37.2283 41.4602 38.869 41.8367 38.694C41.9896 38.6228 42.8835 37.3545 43.8232 35.8754L45.5318 33.1863L47.1462 32.232C48.0341 31.7071 48.8051 31.2777 48.8594 31.2777C48.9138 31.2777 48.942 33.4687 48.9219 36.1465L48.8856 41.0152H25.7298H2.57403L2.53863 29.0925C2.51541 21.2295 2.55191 16.9843 2.64605 16.625C2.82397 15.9451 3.35358 15.2864 4.00775 14.9308C4.41363 14.7104 4.80652 14.6571 6.06467 14.6519L7.61991 14.6457V15.6327ZM61.6731 16.469C61.8632 16.61 62.1357 16.9672 62.2785 17.263C62.4965 17.7144 62.5136 17.8854 62.3852 18.3259C62.0606 19.4401 60.9787 20.0032 59.9838 19.5759C58.6143 18.9875 58.5838 16.9753 59.9345 16.3309C60.5696 16.028 61.1395 16.0733 61.6731 16.469ZM53.1037 18.164C53.1064 19.8244 53.6966 21.4891 54.7836 22.9033C55.0884 23.2997 55.3169 23.6416 55.2914 23.6631C55.1089 23.8158 49.3819 26.8709 49.2782 26.8709C49.1409 26.8709 46.0481 21.4691 46.0561 21.243C46.0604 21.1228 52.7694 17.2263 52.9983 17.2113C53.0554 17.2076 53.1027 17.6362 53.1037 18.164ZM46.0767 24.7581C47.6856 27.5989 48.5131 29.1941 48.4565 29.346C48.4086 29.4739 47.9259 29.8424 47.3834 30.1648C46.841 30.4872 46.1442 30.9007 45.8348 31.0837L45.2726 31.4164L42.6609 26.7726C41.2245 24.2183 40.1089 22.1071 40.1819 22.0806C40.2548 22.0542 40.9366 21.651 41.6969 21.1848C42.4573 20.7184 43.1988 20.3516 43.3448 20.3698C43.5349 20.3935 44.3107 21.6398 46.0767 24.7581ZM39.0331 23.6324C39.3119 24.1184 39.5258 24.5308 39.5085 24.5486C39.4912 24.5665 38.3646 24.7739 37.0049 25.0096C35.6453 25.2454 34.4841 25.4888 34.4242 25.5505C34.3645 25.6122 33.788 26.6541 33.1434 27.866C32.4988 29.0779 31.9199 30.0694 31.8573 30.0694C31.7947 30.0694 31.6067 29.9697 31.4397 29.8481L31.1359 29.6267L32.182 26.3478L33.2283 23.069L35.1815 22.9321C36.2559 22.8568 37.4479 22.7846 37.8305 22.7718L38.5262 22.7485L39.0331 23.6324ZM58.1479 25.3286C58.8575 25.6112 59.227 25.6589 60.7054 25.6589C62.4326 25.6589 62.6205 25.621 64.196 24.953C64.4254 24.8557 64.438 25.489 64.438 37.0931V49.3358L60.6708 49.298L56.9037 49.2602L56.8683 37.0537C56.8349 25.4701 56.8454 24.8511 57.0757 24.9226C57.2092 24.9641 57.6917 25.1467 58.1479 25.3286ZM43.6865 31.9174L44.0171 32.5585L42.5951 34.7612C41.7279 36.1044 41.085 36.9639 40.9476 36.9639C40.8236 36.9639 39.3863 36.6766 37.7535 36.3254C36.1207 35.9743 34.738 35.6865 34.6811 35.6857C34.6241 35.685 34.5774 35.4751 34.5774 35.2191V34.7535L36.9241 34.8088C38.2146 34.8392 39.4122 34.8263 39.5853 34.7799C39.7731 34.7296 40.5116 33.8987 41.4204 32.7149C43.1239 30.4958 42.9795 30.5467 43.6865 31.9174ZM48.9294 44.96C48.8912 46.9713 48.8483 47.3435 48.5971 47.8386C48.2704 48.4824 47.6364 48.98 46.8734 49.1912C46.5318 49.2858 39.2069 49.3221 25.432 49.2976L4.50943 49.2602L3.90835 48.9063C3.538 48.6883 3.16654 48.3062 2.94065 47.9113C2.59144 47.3004 2.57181 47.1604 2.52758 44.96L2.48113 42.65H25.7272H48.9734L48.9294 44.96ZM25.0852 45.1344C24.683 45.424 24.5745 45.9778 24.8232 46.4721C25.2953 47.411 26.5792 47.1864 26.777 46.1305C26.9502 45.2061 25.8693 44.5697 25.0852 45.1344ZM32.9185 53.0272V55.1596H25.7298H18.5411V53.0272V50.8949H25.7298H32.9185V53.0272ZM67.4793 52.9562V55.0174H60.7054H53.9315V52.9562V50.8949H60.7054H67.4793V52.9562Z" fill="#6A6A6A"/>
<path fill-rule="evenodd" clip-rule="evenodd" d="M17.3037 1.48791C17.2129 1.60064 17.0745 2.13614 16.9963 2.67817L16.854 3.66358L15.9892 4.01641L15.1242 4.36923L14.5172 3.88648C13.2294 2.86226 13.139 2.89353 11.0414 5.08782C9.29031 6.9199 9.24814 7.06333 10.1117 8.25345C10.4178 8.67522 10.6409 9.08661 10.6078 9.16764C10.5746 9.24867 10.4135 9.64002 10.25 10.0373L9.95249 10.7598L8.96322 10.9173C7.80695 11.1014 7.61991 11.2854 7.61991 12.2394V12.9063L5.85731 12.9676C4.27525 13.0226 4.01991 13.0686 3.36422 13.4158C2.37869 13.9375 1.60895 14.7876 1.26431 15.7344C0.982152 16.5099 0.979802 16.6648 1.01644 32.178L1.05335 47.8386L1.36522 48.4388C1.83014 49.3335 2.40011 49.9374 3.22114 50.4051L3.95646 50.8239L10.4193 50.8647L16.8822 50.9056V53.0325V55.1596H15.3138C13.97 55.1596 13.7127 55.1968 13.5167 55.4196C13.2311 55.744 13.2276 56.0028 13.5031 56.4072L13.7182 56.7233H25.7298H37.7414L37.9565 56.4072C38.2399 55.9914 38.2284 55.6828 37.9189 55.3948C37.7154 55.2055 37.3648 55.1596 36.1217 55.1596H34.5774V53.0325V50.9056L41.0403 50.8647L47.5031 50.8239L48.2385 50.4051C49.0595 49.9374 49.6295 49.3335 50.0944 48.4388L50.4063 47.8386L50.4444 38.0058L50.4827 28.1731L52.8348 26.8823C54.1283 26.1724 55.2157 25.5915 55.2511 25.5915C55.2865 25.5915 55.2995 30.9169 55.2802 37.4259L55.2448 49.2602L54.0006 49.298C52.2027 49.3527 52.2725 49.2042 52.2725 52.9783C52.2725 56.024 52.2727 56.0256 52.6119 56.3743L52.9512 56.7233H60.6683C67.4293 56.7233 68.4235 56.6958 68.6927 56.5019C68.9947 56.2844 69 56.2263 69 53.081C69 51.1471 68.9433 49.7724 68.8569 49.6062C68.7308 49.3641 68.5575 49.3312 67.4054 49.3312H66.0969V36.4087V23.4861L66.5924 22.8763C67.2548 22.061 67.8515 20.816 68.1006 19.7291C68.7133 17.057 67.9666 14.4091 66.0416 12.4265C64.3836 10.7193 62.6119 10.0133 60.2907 10.1353C57.5454 10.2794 55.3583 11.6845 53.968 14.1969C53.5865 14.8859 53.41 15.0349 52.0642 15.803C51.2484 16.2685 50.5603 16.6284 50.5352 16.6026C50.5101 16.5767 50.2339 16.0304 49.9214 15.3886C49.4724 14.4661 49.221 14.1278 48.7215 13.7746C47.547 12.9435 47.5069 12.9398 39.6704 12.9398H32.5037V12.2937C32.5037 11.3649 32.1254 11.0176 30.9735 10.8891L30.0845 10.79L29.7267 9.89263L29.3688 8.99507L29.9686 8.17071C30.2985 7.71724 30.5683 7.21928 30.5683 7.0639C30.5683 6.75543 27.3673 3.33066 26.9526 3.19533C26.6676 3.10236 26.3027 3.28289 25.4882 3.91974L24.9008 4.37904L24.1748 4.07298C23.1361 3.63501 23.1492 3.65121 23.0418 2.67234C22.8875 1.26573 22.9259 1.28321 19.9881 1.28321C17.9638 1.28321 17.4366 1.32344 17.3037 1.48791ZM21.5087 3.45106C21.733 4.9805 21.7295 4.97453 22.6193 5.26452C22.9235 5.3636 23.5283 5.62786 23.9632 5.85161C24.3982 6.07551 24.8392 6.2586 24.9431 6.2586C25.0469 6.2586 25.4739 6.0067 25.8921 5.6988L26.6523 5.139L27.6629 6.18511L28.6734 7.23122L28.2584 7.77553C27.4724 8.80657 27.4683 8.83955 27.9928 9.98716C28.2527 10.5556 28.5085 11.2309 28.5612 11.4876C28.6834 12.0832 29.0564 12.3236 30.0499 12.4473L30.8448 12.5461V14.0098V15.4736L30.2573 15.5649C28.9719 15.7643 28.8975 15.7976 28.7088 16.2581C27.3987 19.4543 27.4327 19.1534 28.2595 20.2377L28.6755 20.7833L27.6449 21.8431L26.6144 22.9027L25.9992 22.4245C25.1137 21.736 24.9724 21.7107 24.1647 22.0971C23.771 22.2855 23.0801 22.589 22.6296 22.7716C21.7449 23.1304 21.6809 23.2291 21.5157 24.4898L21.4272 25.1651H20.0002H18.5729L18.4769 24.3477C18.3607 23.3617 18.1324 22.9581 17.6159 22.8271C17.4024 22.7729 16.747 22.5061 16.1593 22.2343C14.9731 21.6856 14.9467 21.6888 13.9336 22.5055L13.4043 22.9323L12.3885 21.8947L11.3727 20.8571L11.9346 20.0377C12.5567 19.1306 12.5577 19.2041 11.9045 17.6309C11.0906 15.6703 11.1874 15.7649 9.79255 15.5714L9.13119 15.4797L9.17045 14.0329L9.20971 12.5862L10.1025 12.4221C10.9984 12.2576 11.4907 11.903 11.4907 11.4222C11.4907 11.3085 11.7085 10.7308 11.9746 10.1386C12.2407 9.5462 12.4584 8.98625 12.4584 8.89414C12.4584 8.80202 12.2083 8.38196 11.9027 7.96075L11.3471 7.19483L12.3485 6.1581C12.8994 5.58792 13.3559 5.12137 13.3631 5.12137C13.3703 5.12137 13.7097 5.37725 14.1174 5.68999C14.525 6.00272 14.9427 6.2586 15.0455 6.2586C15.1484 6.2586 15.5285 6.10436 15.8905 5.91573C16.2524 5.72709 16.8766 5.46254 17.2776 5.32763C18.1166 5.04546 18.3346 4.76101 18.4705 3.77091C18.5241 3.37998 18.5967 3.01209 18.6318 2.95352C18.6669 2.89495 19.3087 2.84691 20.0578 2.84691H21.4199L21.5087 3.45106ZM19.1256 8.39205C17.48 8.6421 15.786 9.95759 15.0079 11.5894C14.6327 12.3762 14.6012 12.5636 14.6012 14.006C14.6012 15.4049 14.6402 15.6553 14.9717 16.3825C16.0172 18.6763 18.5969 20.0936 20.9185 19.6496C23.3248 19.1894 25.0767 17.3622 25.4899 14.8818C26.1105 11.1562 22.8454 7.8267 19.1256 8.39205ZM21.8583 10.4655C23.3195 11.2833 24.0214 12.6254 23.9 14.3698C23.8515 15.0663 23.7315 15.513 23.469 15.9735C21.6104 19.2347 16.9724 18.5047 16.1716 14.8252C15.8645 13.4139 16.451 11.781 17.6126 10.8136C18.7394 9.87514 20.5397 9.72744 21.8583 10.4655ZM62.2085 11.9597C63.7824 12.3245 65.3865 13.6796 66.0999 15.2476C67.7495 18.8721 65.7464 23.1073 61.9738 23.9721C58.6064 24.7442 55.3067 22.4133 54.7337 18.858C54.3174 16.2743 55.6737 13.6155 58.0153 12.4255C59.4154 11.714 60.5866 11.5838 62.2085 11.9597ZM59.4801 14.6907C56.7093 15.7657 56.6482 19.9463 59.3861 21.1207C60.0649 21.4118 61.3178 21.424 61.9656 21.1457C64.454 20.0765 64.737 16.4647 62.4463 15.0085C61.9048 14.6642 61.5984 14.5749 60.8601 14.5462C60.3569 14.5266 59.7359 14.5917 59.4801 14.6907ZM7.61991 15.6327C7.61991 16.8182 7.79216 17.0039 9.02502 17.1473C9.92899 17.2525 9.96023 17.2789 10.3815 18.2952L10.6862 19.0307L10.1207 19.8008C9.2498 20.987 9.28229 21.0874 11.1779 23.0609C12.0702 23.9899 12.9468 24.7879 13.126 24.8341C13.3668 24.8963 13.6627 24.7652 14.2617 24.3309C14.7071 24.0078 15.1188 23.7435 15.1766 23.7435C15.2342 23.7435 15.6351 23.8846 16.0674 24.057L16.8535 24.3703L17.0159 25.4065C17.2441 26.8613 17.2634 26.8709 19.9453 26.8709C21.14 26.8709 22.2754 26.8092 22.4682 26.7337C22.8412 26.588 22.94 26.332 23.0838 25.1408L23.1723 24.4075L24.029 24.0143L24.8858 23.6211L25.4805 24.0863C26.3027 24.7291 26.667 24.9099 26.9526 24.8167C27.3663 24.6816 30.5683 21.2566 30.5683 20.9489C30.5683 20.7941 30.3195 20.3246 30.0153 19.9054C29.7112 19.4862 29.4624 19.0668 29.4624 18.9734C29.4624 18.88 29.6142 18.4504 29.7998 18.0189L30.1373 17.2343L30.9973 17.1317C32.1981 16.9884 32.5037 16.6583 32.5037 15.505V14.6457H39.6968C47.5853 14.6457 47.4653 14.6336 48.1739 15.4996C48.5496 15.9588 49.2913 17.3359 49.2059 17.4158C49.1818 17.4384 48.2714 17.9665 47.1828 18.5896L45.2036 19.7223L44.82 19.3278C44.3804 18.8758 43.4186 18.5617 42.888 18.6969C42.6891 18.7477 41.6763 19.2891 40.6373 19.9004L38.7482 21.0116L35.5914 21.2553C33.8552 21.3893 32.3275 21.5575 32.1967 21.629C31.9347 21.7721 29.4624 29.3798 29.4624 30.0427C29.4624 30.3477 29.6746 30.5779 30.6029 31.2794C31.9393 32.2894 32.286 32.4188 32.6482 32.0426C32.7898 31.8956 33.484 30.6878 34.1909 29.3586L35.476 26.942L37.6187 26.5589C38.7973 26.3481 39.9244 26.1722 40.1236 26.168C40.4401 26.1611 40.5906 26.3467 41.323 27.6482L42.1604 29.1361L40.6363 31.0955L39.112 33.0546L36.1228 33.1257C33.2236 33.1946 33.1291 33.2062 32.9837 33.5065C32.7697 33.9482 33.0622 36.6041 33.3584 36.9086C33.6694 37.2283 41.4602 38.869 41.8367 38.694C41.9896 38.6228 42.8835 37.3545 43.8232 35.8754L45.5318 33.1863L47.1462 32.232C48.0341 31.7071 48.8051 31.2777 48.8594 31.2777C48.9138 31.2777 48.942 33.4687 48.9219 36.1465L48.8856 41.0152H25.7298H2.57403L2.53863 29.0925C2.51541 21.2295 2.55191 16.9843 2.64605 16.625C2.82397 15.9451 3.35358 15.2864 4.00775 14.9308C4.41363 14.7104 4.80652 14.6571 6.06467 14.6519L7.61991 14.6457V15.6327ZM61.6731 16.469C61.8632 16.61 62.1357 16.9672 62.2785 17.263C62.4965 17.7144 62.5136 17.8854 62.3852 18.3259C62.0606 19.4401 60.9787 20.0032 59.9838 19.5759C58.6143 18.9875 58.5838 16.9753 59.9345 16.3309C60.5696 16.028 61.1395 16.0733 61.6731 16.469ZM53.1037 18.164C53.1064 19.8244 53.6966 21.4891 54.7836 22.9033C55.0884 23.2997 55.3169 23.6416 55.2914 23.6631C55.1089 23.8158 49.3819 26.8709 49.2782 26.8709C49.1409 26.8709 46.0481 21.4691 46.0561 21.243C46.0604 21.1228 52.7694 17.2263 52.9983 17.2113C53.0554 17.2076 53.1027 17.6362 53.1037 18.164ZM46.0767 24.7581C47.6856 27.5989 48.5131 29.1941 48.4565 29.346C48.4086 29.4739 47.9259 29.8424 47.3834 30.1648C46.841 30.4872 46.1442 30.9007 45.8348 31.0837L45.2726 31.4164L42.6609 26.7726C41.2245 24.2183 40.1089 22.1071 40.1819 22.0806C40.2548 22.0542 40.9366 21.651 41.6969 21.1848C42.4573 20.7184 43.1988 20.3516 43.3448 20.3698C43.5349 20.3935 44.3107 21.6398 46.0767 24.7581ZM39.0331 23.6324C39.3119 24.1184 39.5258 24.5308 39.5085 24.5486C39.4912 24.5665 38.3646 24.7739 37.0049 25.0096C35.6453 25.2454 34.4841 25.4888 34.4242 25.5505C34.3645 25.6122 33.788 26.6541 33.1434 27.866C32.4988 29.0779 31.9199 30.0694 31.8573 30.0694C31.7947 30.0694 31.6067 29.9697 31.4397 29.8481L31.1359 29.6267L32.182 26.3478L33.2283 23.069L35.1815 22.9321C36.2559 22.8568 37.4479 22.7846 37.8305 22.7718L38.5262 22.7485L39.0331 23.6324ZM58.1479 25.3286C58.8575 25.6112 59.227 25.6589 60.7054 25.6589C62.4326 25.6589 62.6205 25.621 64.196 24.953C64.4254 24.8557 64.438 25.489 64.438 37.0931V49.3358L60.6708 49.298L56.9037 49.2602L56.8683 37.0537C56.8349 25.4701 56.8454 24.8511 57.0757 24.9226C57.2092 24.9641 57.6917 25.1467 58.1479 25.3286ZM43.6865 31.9174L44.0171 32.5585L42.5951 34.7612C41.7279 36.1044 41.085 36.9639 40.9476 36.9639C40.8236 36.9639 39.3863 36.6766 37.7535 36.3254C36.1207 35.9743 34.738 35.6865 34.6811 35.6857C34.6241 35.685 34.5774 35.4751 34.5774 35.2191V34.7535L36.9241 34.8088C38.2146 34.8392 39.4122 34.8263 39.5853 34.7799C39.7731 34.7296 40.5116 33.8987 41.4204 32.7149C43.1239 30.4958 42.9795 30.5467 43.6865 31.9174ZM48.9294 44.96C48.8912 46.9713 48.8483 47.3435 48.5971 47.8386C48.2704 48.4824 47.6364 48.98 46.8734 49.1912C46.5318 49.2858 39.2069 49.3221 25.432 49.2976L4.50943 49.2602L3.90835 48.9063C3.538 48.6883 3.16654 48.3062 2.94065 47.9113C2.59144 47.3004 2.57181 47.1604 2.52758 44.96L2.48113 42.65H25.7272H48.9734L48.9294 44.96ZM25.0852 45.1344C24.683 45.424 24.5745 45.9778 24.8232 46.4721C25.2953 47.411 26.5792 47.1864 26.777 46.1305C26.9502 45.2061 25.8693 44.5697 25.0852 45.1344ZM32.9185 53.0272V55.1596H25.7298H18.5411V53.0272V50.8949H25.7298H32.9185V53.0272ZM67.4793 52.9562V55.0174H60.7054H53.9315V52.9562V50.8949H60.7054H67.4793V52.9562Z" stroke="#6A6A6A" mask="url(#path-1-outside-1_437_2047)"/>
</svg>
