<svg width="70" height="68" viewBox="0 0 70 68" fill="none" xmlns="http://www.w3.org/2000/svg">
<path fill-rule="evenodd" clip-rule="evenodd" d="M24.3893 0.411301C24.1278 0.570297 23.7837 0.913599 23.6243 1.17442C23.3532 1.61795 23.3344 1.91398 23.3339 5.7645L23.3333 9.88064L23.6914 10.2376L24.0492 10.5947H35H45.9508L46.3086 10.2376L46.6667 9.88064L46.6664 5.83723C46.6662 1.31974 46.6239 1.09311 45.6607 0.451304L45.1652 0.121094L35.0149 0.121676C25.1437 0.122112 24.8515 0.130113 24.3893 0.411301ZM44.3333 5.35791V8.26726H43.1667H42V6.87878C42 5.59837 41.9721 5.46236 41.642 5.13317L41.2841 4.77605H35H28.7159L28.358 5.13317C28.0279 5.46236 28 5.59837 28 6.87878V8.26726H26.8333H25.6667V5.35791V2.44857H35H44.3333V5.35791ZM39.6667 7.68539V8.26726H35H30.3333V7.68539V7.10352H35H39.6667V7.68539ZM1.38542 10.8001C0.849042 11.0378 0.362542 11.5502 0.155604 12.0952C0.0513333 12.3696 0 15.5301 0 21.6664V30.8279L0.358021 31.1849L0.715896 31.542H8.16667H15.6174L15.9753 31.1849L16.3333 30.8279V25.9481V21.0684H20.797H25.2605L28.2345 23.5509C29.87 24.9163 31.2063 26.0783 31.2037 26.133C31.2012 26.1877 31.0536 26.3961 30.8755 26.5961C30.5737 26.9355 30.4598 26.9599 29.1667 26.9617C27.9177 26.9633 27.6853 27.0087 26.8071 27.422C25.591 27.9944 24.6533 28.8452 24.1211 29.8591C23.7736 30.521 23.6199 30.6679 23.1209 30.8147C19.8807 31.7682 17.3641 35.3063 17.5249 38.6821L17.5729 39.6889L16.1672 39.6885C15.0361 39.6882 14.7047 39.7379 14.4706 39.9428C14.3106 40.0827 13.572 41.0156 12.8291 42.0157C12.0862 43.0158 11.4276 43.8909 11.3657 43.9604C11.3035 44.0301 10.8949 43.8827 10.4576 43.6331C10.0202 43.3836 9.50629 43.1807 9.31554 43.1825C9.12479 43.1842 7.00073 44.3158 4.59535 45.6972C1.05248 47.7319 0.195563 48.2837 0.0828334 48.6034C-0.119437 49.177 0.129646 49.7566 0.689792 50.0164L1.1604 50.2346L1.16346 55.0779L1.16667 59.9214L1.52469 60.2784L1.88256 60.6355H9.33333H16.7841L17.142 60.2784L17.5 59.9214L17.5032 55.0779L17.5063 50.2346L17.9769 50.0164C18.5386 49.7558 18.7858 49.1775 18.583 48.5981C18.4724 48.2821 17.9223 47.8998 15.9663 46.7794C14.554 45.9706 13.497 45.2751 13.5068 45.1614C13.5163 45.0516 14.0273 44.2989 14.6422 43.4887L15.7606 42.0157H17.0316H18.3025L18.6598 42.6873C19.112 43.5378 20.4671 44.9171 21.3671 45.4433C22.6189 46.175 23.8796 46.5458 25.4115 46.6325L26.8333 46.7129V55.9123V65.1118L27.2408 65.8897C27.5374 66.456 27.8419 66.7873 28.3593 67.1066L29.0704 67.5452L34.7696 67.5869C41.0836 67.6332 41.202 67.6191 42.1426 66.7063C43.2024 65.6779 43.16 66.1292 43.1635 55.8714L43.1667 46.6706H44.0877C47.8364 46.6706 51.0727 44.3501 52.1426 40.8951C53.5042 36.4979 50.7717 31.7489 46.2292 30.618C45.6458 30.4727 45.4151 30.3434 45.3832 30.1438C45.359 29.9926 45.1713 29.3734 44.9658 28.7675L44.5925 27.666L46.0106 24.3671L47.4286 21.0684H49.3809H51.3333V23.6187C51.3333 26.517 51.4267 26.901 52.2903 27.5588C52.8233 27.9648 52.9019 27.9795 54.7725 28.0255L56.7042 28.0729L56.3522 29.1056C55.9097 30.403 55.9107 30.7389 56.358 31.1849L56.7159 31.542H60.6667H64.6174L64.9753 31.1849C65.4226 30.7389 65.4236 30.403 64.9811 29.1056L64.6291 28.0729L66.5752 28.0255C68.6879 27.974 68.9462 27.8853 69.6264 26.9765C69.9176 26.5874 69.9271 26.4028 69.9271 21.0828V15.5907L69.5068 15.0411C68.7514 14.0531 68.9557 14.0739 60.4542 14.1185C52.9961 14.1577 52.8032 14.1658 52.4102 14.4586C51.5369 15.1092 51.4102 15.433 51.357 17.1509L51.3075 18.7409H48.7845C46.5919 18.7409 46.2226 18.7742 45.9649 18.9955C45.8017 19.1356 45.0978 20.592 44.4007 22.2321C43.7036 23.8723 43.0875 25.2987 43.0315 25.4018C42.9565 25.5402 42.7789 25.4679 42.3555 25.1266C41.6293 24.5413 39.8927 23.7262 39.1036 23.6004L38.5 23.5041V22.1312C38.5 21.3762 38.439 20.6448 38.3647 20.506C38.2901 20.3672 36.7151 19.2487 34.8647 18.0205L31.5 15.7873V14.3548V12.9222H30.3333H29.1667V14.8229C29.1667 15.8682 29.2276 16.837 29.302 16.9758C29.3765 17.1146 30.9515 18.2331 32.802 19.4613L36.1667 21.6945V22.5834V23.4725L35.4213 23.6491C35.0115 23.7461 34.3172 23.9895 33.8784 24.19L33.0808 24.5541L29.5865 21.6475L26.0921 18.7409H21.2204H16.3486L16.3045 15.4197L16.2604 12.0987L15.8401 11.5494C15.1044 10.588 15.154 10.5942 8.13487 10.6004C3.20075 10.6049 1.7274 10.6484 1.38542 10.8001ZM14 18.7409V24.5596H8.16667H2.33333V18.7409V12.9222H8.16667H14V18.7409ZM6.70906 14.3197C3.90819 15.3349 2.72052 18.3505 4.10287 20.9373C4.62481 21.9143 5.09017 22.3593 6.18231 22.9253C6.81362 23.2524 7.11608 23.3122 8.16667 23.3167C9.31933 23.3218 9.47275 23.2857 10.3542 22.8021C13.7185 20.9561 13.5918 16.1701 10.1354 14.534C9.18342 14.0833 7.62942 13.9862 6.70906 14.3197ZM9.08965 16.6118C10.5995 17.2411 10.9508 19.1641 9.77083 20.341C8.80615 21.3033 7.49992 21.3103 6.54529 20.3582C4.74192 18.5592 6.73181 15.6292 9.08965 16.6118ZM67.6667 19.3228V22.2321H60.6667H53.6667V19.3228V16.4134H60.6667H67.6667V19.3228ZM67.6667 25.1415V25.7233H60.6667H53.6667V25.1415V24.5596H60.6667H67.6667V25.1415ZM36.1667 28.269C36.1667 30.3501 36.1363 30.6692 35.9384 30.6692C35.5412 30.6692 34.2035 32.1447 34.0107 32.7954C33.6067 34.1593 33.8915 35.2466 34.9221 36.2747C35.6774 37.028 36.416 37.3607 37.3333 37.3607C38.2506 37.3607 38.9893 37.028 39.7445 36.2747C41.2313 34.7916 41.221 32.9416 39.7176 31.4329C39.299 31.013 38.8538 30.6692 38.7282 30.6692C38.5303 30.6692 38.5 30.3501 38.5 28.269C38.5 26.3373 38.5389 25.8688 38.6992 25.8688C39.1771 25.8688 40.9863 26.9349 41.5577 27.5535C42.4057 28.4709 43.0058 29.8099 43.1212 31.0413C43.2464 32.3796 43.4961 32.6268 44.8496 32.7516C46.9303 32.9435 48.7005 34.209 49.6322 36.1708C50.0496 37.0496 50.0938 37.2747 50.0938 38.5244C50.0938 39.7742 50.0496 39.9993 49.6322 40.8781C48.9965 42.2166 48.161 43.0739 46.8736 43.7085C45.9605 44.1587 45.624 44.2438 44.5038 44.3075L43.1982 44.3817L43.146 43.1507C43.0779 41.5449 42.6081 40.7065 41.4342 40.0946L40.6542 39.6882H35.0658C31.4994 39.6882 29.3288 39.7438 29.0668 39.8418C27.5918 40.3936 26.8333 41.5683 26.8333 43.3009V44.3834L25.5119 44.3084C24.3743 44.2436 24.0427 44.1603 23.1264 43.7085C21.839 43.0739 21.0035 42.2166 20.3678 40.8781C19.9504 39.9993 19.9062 39.7742 19.9062 38.5244C19.9062 37.2747 19.9504 37.0496 20.3678 36.1708C21.1848 34.4506 22.6581 33.2466 24.4315 32.8502C25.3189 32.6519 25.6187 32.3926 25.8453 31.6274C25.9557 31.2547 26.2954 30.7596 26.7555 30.3006C27.8364 29.2224 28.8982 28.9777 30.4197 29.4562C31.1361 29.6813 31.213 29.6813 31.5588 29.4554C31.7626 29.3222 32.1498 28.8698 32.419 28.4501C32.6884 28.0304 33.1613 27.466 33.4702 27.1957C34.0194 26.7153 35.6226 25.8691 35.9844 25.8689C36.1229 25.8688 36.1667 26.4457 36.1667 28.269ZM14 28.0508V29.2145H8.16667H2.33333V28.0508V26.8871H8.16667H14V28.0508ZM62.3582 28.669L62.5472 29.2145H60.6636C59.2199 29.2145 58.7949 29.1721 58.844 29.0327C58.8792 28.9328 58.9749 28.6686 59.0565 28.4457L59.205 28.0406L60.6871 28.0821L62.1692 28.1235L62.3582 28.669ZM38.142 33.0629C38.3677 33.2879 38.5 33.5861 38.5 33.8695C38.5 34.1529 38.3677 34.4511 38.142 34.6761C37.9164 34.9013 37.6174 35.0332 37.3333 35.0332C37.0492 35.0332 36.7503 34.9013 36.5247 34.6761C35.8012 33.9546 36.3138 32.7058 37.3333 32.7058C37.6174 32.7058 37.9164 32.8377 38.142 33.0629ZM24.5 36.197V37.3607H25.6667H26.8333V36.197V35.0332H25.6667H24.5V36.197ZM29.1667 36.197V37.3607H30.3333H31.5V36.197V35.0332H30.3333H29.1667V36.197ZM43.1667 36.197V37.3607H44.3333H45.5V36.197V35.0332H44.3333H43.1667V36.197ZM57.1549 39.9548C56.1995 40.2036 54.7362 40.9794 54.2844 41.4766C54.062 41.7214 54.0988 41.7889 54.873 42.5612L55.6986 43.3847L56.0334 43.071C56.5454 42.5911 57.6979 42.1383 58.6189 42.0549C59.66 41.9608 60.8258 42.2824 61.6801 42.8998L62.3102 43.3551L63.1257 42.5417L63.9412 41.7282L63.4341 41.3C62.3163 40.3557 60.4177 39.6811 58.9225 39.6966C58.4781 39.7011 57.6826 39.8174 57.1549 39.9548ZM40.5417 42.3066C40.7686 42.5329 40.8333 42.7914 40.8333 43.4703V44.3431H35H29.1667V43.4703C29.1667 41.9397 28.8623 42.0157 35 42.0157C40.0556 42.0157 40.2608 42.0264 40.5417 42.3066ZM57.5127 43.5202C57.1013 43.7163 56.7156 43.9563 56.6555 44.0535C56.587 44.1639 56.8435 44.5267 57.3406 45.0226C58.0991 45.7792 58.1535 45.807 58.5362 45.633C58.85 45.4904 59.0371 45.4884 59.3967 45.6238C59.8415 45.7913 59.8812 45.7724 60.6261 45.0386C61.0495 44.6216 61.3958 44.2317 61.3958 44.1724C61.3958 44.113 61.0979 43.8903 60.7337 43.6775C59.7603 43.1084 58.5048 43.0472 57.5127 43.5202ZM11.2629 46.7797L13.0165 47.7616L11.1749 47.8023C10.1621 47.8248 8.51594 47.8248 7.51683 47.8023L5.70048 47.7616L7.40746 46.7839C8.34648 46.2461 9.20339 45.8044 9.31204 45.802C9.42054 45.7997 10.2985 46.2397 11.2629 46.7797ZM40.8333 53.653V60.6355H35H29.1667V53.653V46.6706H35H40.8333V53.653ZM53.0724 47.9772C52.946 48.051 52.2406 49.0169 51.5047 50.1236L50.1667 52.1357V55.4467V58.7576L50.5247 59.1146C50.8318 59.4211 51.018 59.4717 51.8372 59.4717C52.606 59.4717 52.7917 59.516 52.7917 59.6994C52.7917 60.0956 54.2709 61.43 54.9232 61.6223C56.3022 62.0288 57.3771 61.7428 58.4427 60.6862C58.8637 60.2687 59.2083 59.8246 59.2083 59.6994C59.2083 59.5181 59.3865 59.4717 60.0833 59.4717C60.7801 59.4717 60.9583 59.5181 60.9583 59.6994C60.9583 59.8246 61.3029 60.2687 61.724 60.6862C62.7896 61.7428 63.8645 62.0288 65.2435 61.6223C65.8958 61.43 67.375 60.0956 67.375 59.6994C67.375 59.516 67.5606 59.4717 68.3295 59.4717C69.1486 59.4717 69.3349 59.4211 69.642 59.1146C69.9969 58.7607 70 58.7336 70 56.0032C70 53.5966 69.9678 53.2092 69.7448 52.9349C69.5605 52.7081 69.0037 52.4995 67.7396 52.1837C66.7771 51.9431 65.743 51.6817 65.4417 51.6027C64.9553 51.4754 64.7636 51.2656 63.7382 49.739C63.1028 48.7928 62.4746 47.9772 62.342 47.9266C61.9614 47.7808 53.328 47.8281 53.0724 47.9772ZM33.2886 49.2224C31.9722 49.5759 30.1875 50.6369 30.1875 51.0656C30.1875 51.1485 30.5187 51.5365 30.9237 51.9278L31.6597 52.6393L32.2726 52.2187C32.6096 51.9874 33.1994 51.6919 33.5832 51.5618C34.9328 51.1049 36.4563 51.3464 37.7274 52.2187L38.3403 52.6393L39.0763 51.9278C39.4813 51.5365 39.8125 51.1485 39.8125 51.0656C39.8125 50.8406 38.9896 50.1931 38.19 49.7889C36.6686 49.0199 34.8323 48.8077 33.2886 49.2224ZM15.1667 54.2349V58.308H14H12.8333V55.7558C12.8333 52.2785 13.0592 52.4893 9.33333 52.4893C5.60744 52.4893 5.83333 52.2785 5.83333 55.7558V58.308H4.66667H3.5V54.2349V50.1618H9.33333H15.1667V54.2349ZM56 50.7437V51.3256H54.7584H53.5167L53.9028 50.7437C54.2802 50.1748 54.3077 50.1618 55.1444 50.1618H56V50.7437ZM61.5972 50.7437L61.9832 51.3256H60.1583H58.3333V50.7437V50.1618H59.7723H61.2112L61.5972 50.7437ZM33.9062 52.6649C33.6656 52.7487 33.25 52.9801 32.9828 53.179L32.4968 53.5407L33.3085 54.3124C34.082 55.0479 34.1409 55.0764 34.5602 54.9186C34.8899 54.7944 35.1113 54.795 35.4445 54.9204C35.8693 55.0804 35.9247 55.0539 36.6887 54.3274L37.4885 53.5671L37.1515 53.2513C36.4465 52.5905 34.9137 52.3136 33.9062 52.6649ZM65.8475 54.1075L67.6667 54.5619V55.8531C67.6667 56.6169 67.6072 57.1443 67.5208 57.1443C67.4406 57.1443 67.375 57.0418 67.375 56.9166C67.375 56.5203 65.8958 55.186 65.2435 54.9937C63.8645 54.5872 62.7896 54.8732 61.724 55.9297C61.3029 56.3472 60.9583 56.7914 60.9583 56.9166C60.9583 57.0979 60.7801 57.1443 60.0833 57.1443C59.3865 57.1443 59.2083 57.0979 59.2083 56.9166C59.2083 56.5203 57.7291 55.186 57.0768 54.9937C55.6978 54.5872 54.6229 54.8732 53.5573 55.9297C53.1363 56.3472 52.7917 56.7914 52.7917 56.9166C52.7917 57.0418 52.726 57.1443 52.6458 57.1443C52.5567 57.1443 52.5 56.4654 52.5 55.3987V53.653H58.2642H64.0284L65.8475 54.1075ZM10.5 56.5624V58.308H9.33333H8.16667V56.5624V54.8168H9.33333H10.5V56.5624ZM34.1504 56.3171C33.4262 57.0862 33.9602 58.308 35.0204 58.308C35.6936 58.308 36.1667 57.8192 36.1667 57.1239C36.1667 56.0911 34.8569 55.567 34.1504 56.3171ZM56.8086 57.5014C57.0344 57.7264 57.1667 58.0246 57.1667 58.308C57.1667 58.5914 57.0344 58.8896 56.8086 59.1146C56.583 59.3398 56.2841 59.4717 56 59.4717C55.7159 59.4717 55.417 59.3398 55.1913 59.1146C54.9656 58.8896 54.8333 58.5914 54.8333 58.308C54.8333 58.0246 54.9656 57.7264 55.1913 57.5014C55.417 57.2762 55.7159 57.1443 56 57.1443C56.2841 57.1443 56.583 57.2762 56.8086 57.5014ZM64.9753 57.5014C65.2011 57.7264 65.3333 58.0246 65.3333 58.308C65.3333 58.5914 65.2011 58.8896 64.9753 59.1146C64.7497 59.3398 64.4507 59.4717 64.1667 59.4717C63.8826 59.4717 63.5836 59.3398 63.358 59.1146C63.1323 58.8896 63 58.5914 63 58.308C63 58.0246 63.1323 57.7264 63.358 57.5014C63.5836 57.2762 63.8826 57.1443 64.1667 57.1443C64.4507 57.1443 64.7497 57.2762 64.9753 57.5014ZM40.8333 63.8358C40.8333 65.3664 41.1377 65.2904 35 65.2904C28.8623 65.2904 29.1667 65.3664 29.1667 63.8358V62.9629H35H40.8333V63.8358Z" fill="#6A6A6A"/>
</svg>
