<svg width="70" height="70" viewBox="0 0 70 70" fill="none" xmlns="http://www.w3.org/2000/svg">
<path fill-rule="evenodd" clip-rule="evenodd" d="M15.2509 0.195547C14.5883 0.438186 13.8879 1.0891 13.4995 1.82345C12.7438 3.25179 13.4444 5.30711 14.9533 6.08769C15.5178 6.3797 16.6876 6.47052 17.2963 6.2696L17.8114 6.09945L21.2943 9.56916C23.2099 11.4776 24.8633 13.2371 24.9686 13.4792C25.1002 13.782 25.1598 14.4751 25.1598 15.7017V17.4842L23.8952 17.4902C22.1646 17.4983 21.4801 17.6485 21.0867 18.1061C20.8498 18.3816 20.7881 18.5742 20.8525 18.837C21.038 19.5955 20.2537 19.5531 34.6073 19.5796L47.922 19.6042L48.4707 19.8981C49.168 20.2718 49.7155 20.8196 50.089 21.5173L50.3828 22.0662L50.4074 35.3873C50.4345 50.0593 50.3757 49.1248 51.2725 49.1248C52.1693 49.1248 52.4853 48.3448 52.4958 46.1044L52.5018 44.8392H56.9975H61.4932L61.7317 45.2154C62.455 46.3561 63.368 46.9163 64.5212 46.9271C65.9399 46.9402 67.0926 46.1407 67.6105 44.7843C68.1833 43.2836 67.3457 41.4311 65.8013 40.7836C65.2325 40.5452 63.9647 40.5471 63.3901 40.7873C62.7595 41.051 62.0063 41.7451 61.7385 42.3097L61.5118 42.7876H57.0068H52.5018V41.6338V40.4801L54.9064 40.437L57.311 40.394L57.6506 39.9986C58.0207 39.5678 58.0019 39.1002 57.5966 38.6502C57.4066 38.4393 57.0916 38.4108 54.9414 38.4108H52.5018V37.2482V36.0856L60.6019 36.0848C65.632 36.0844 68.8904 36.0317 69.1989 35.946C70.2245 35.6609 70.2245 34.3219 69.1989 34.0369C68.8904 33.9511 65.632 33.8985 60.6019 33.898L52.5018 33.8972V32.7346V31.572H54.9414C57.0916 31.572 57.4066 31.5436 57.5966 31.3327C58.0019 30.8827 58.0207 30.4151 57.6506 29.9842L57.311 29.5888L54.9064 29.5459L52.5018 29.5028V28.361V27.2193L54.655 27.1712C56.5882 27.1279 56.8711 27.0905 57.4234 26.8045C57.8147 26.6018 59.364 25.1648 61.6808 22.8555L65.3232 19.2252L65.7683 19.3806C67.344 19.9302 69.1085 19.082 69.7914 17.447C70.5249 15.6909 69.2418 13.5503 67.2297 13.1726C66.3223 13.0024 65.3933 13.3353 64.5912 14.118C63.6345 15.0518 63.3301 16.1924 63.7305 17.3417L63.8858 17.7872L60.4153 21.274C58.5065 23.1917 56.7469 24.8469 56.505 24.9523C56.2023 25.084 55.5094 25.1436 54.2834 25.1436H52.5018L52.501 24.0152C52.4994 21.6874 52.0425 20.3464 50.8418 19.1451C49.641 17.9438 48.3006 17.4867 45.9739 17.485L44.8461 17.4842V12.9864V8.4885L45.222 8.24996C46.3622 7.52629 46.9221 6.6129 46.9329 5.45907C46.9461 4.03975 46.1469 2.88646 44.7911 2.36836C43.2911 1.79527 41.4395 2.63329 40.7923 4.17844C40.554 4.74743 40.556 6.01588 40.796 6.59074C41.0596 7.22169 41.7534 7.97518 42.3177 8.24313L42.7954 8.4699V12.9771V17.4842H41.6421H40.489L40.4459 15.0785L40.403 12.6727L40.0078 12.333C39.5771 11.9627 39.1097 11.9815 38.6599 12.387C38.4491 12.5771 38.4207 12.8923 38.4207 15.0435V17.4842H37.2587H36.0966L36.0958 9.38027C36.0954 4.34777 36.0428 1.08787 35.957 0.779167C35.6721 -0.24692 34.3337 -0.24692 34.0488 0.779167C33.9631 1.08787 33.9105 4.34777 33.9101 9.38027L33.9093 17.4842H32.7472H31.5852V15.0435C31.5852 12.8923 31.5567 12.5771 31.3459 12.387C30.8962 11.9815 30.4288 11.9627 29.9981 12.333L29.6029 12.6727L29.56 15.0785L29.5169 17.4842H28.3756H27.2345L27.1864 15.33C27.1432 13.3959 27.1057 13.1129 26.8199 12.5603C26.6173 12.1688 25.181 10.6188 22.8728 8.30085L19.2442 4.65674L19.3995 4.2114C19.6494 3.49402 19.5831 2.5742 19.2263 1.80744C18.5406 0.334101 16.8 -0.371659 15.2509 0.195547ZM16.8637 2.18768C17.5978 2.57885 17.7266 3.4099 17.1437 3.99325C16.691 4.44597 16.1382 4.45938 15.6388 4.02963C14.646 3.17533 15.7112 1.57356 16.8637 2.18768ZM44.2281 4.35269C44.6387 4.50889 44.9698 5.18046 44.8767 5.66779C44.7925 6.10902 44.2233 6.54219 43.7278 6.54219C43.1731 6.54219 42.6587 5.99823 42.6587 5.41202C42.6587 4.91812 42.8401 4.61229 43.2739 4.37499C43.6177 4.18678 43.7818 4.18295 44.2281 4.35269ZM67.6425 15.6505C68.6041 16.7273 67.0088 18.1465 65.9864 17.1237C65.5742 16.7111 65.5215 16.1896 65.8457 15.7268C66.2985 15.08 67.1025 15.0459 67.6425 15.6505ZM18.1257 21.0685C17.6682 21.4622 17.5181 22.147 17.5101 23.8784L17.504 25.1436H13.0083H8.51263L8.27421 24.7675C7.55087 23.6268 6.63792 23.0665 5.48464 23.0557C4.066 23.0426 2.91326 23.8422 2.3954 25.1986C1.82259 26.6993 2.66021 28.5518 4.20462 29.1993C4.77334 29.4377 6.04118 29.4358 6.61578 29.1956C7.24642 28.9319 7.99956 28.2377 8.26737 27.6731L8.49404 27.1952H12.999H17.504V28.3491V29.5028L15.0995 29.5459L12.6949 29.5888L12.3553 29.9842C11.9852 30.4151 12.0039 30.8827 12.4093 31.3327C12.5993 31.5436 12.9143 31.572 15.0645 31.572H17.504V32.7346V33.8972L9.40398 33.898C4.37387 33.8985 1.11552 33.9511 0.806966 34.0369C-0.218633 34.3219 -0.218633 35.6609 0.806966 35.946C1.11552 36.0317 4.37387 36.0844 9.40398 36.0848L17.504 36.0856V37.2482V38.4108H15.0645C12.9143 38.4108 12.5993 38.4393 12.4093 38.6502C12.0039 39.1002 11.9852 39.5678 12.3553 39.9986L12.6949 40.394L15.0995 40.437L17.504 40.4801V41.6219V42.7635L15.3509 42.8117C13.4176 42.8549 13.1348 42.8924 12.5825 43.1784C12.1912 43.3811 10.6419 44.818 8.32506 47.1274L4.6827 50.7576L4.23757 50.6023C2.66185 50.0527 0.897331 50.9008 0.214465 52.5359C-0.601694 54.4901 1.02201 56.793 3.21785 56.7957C4.44168 56.7972 5.55682 56.1265 6.11009 55.0561C6.40456 54.4864 6.49643 53.3178 6.29478 52.7065L6.12471 52.1912L9.59277 48.7066C11.5003 46.7901 13.2589 45.1359 13.5009 45.0306C13.8036 44.8989 14.4964 44.8392 15.7224 44.8392H17.504L17.5049 45.9676C17.5065 48.2954 17.9634 49.6365 19.1641 50.8378C20.3648 52.0391 21.7053 52.4962 24.032 52.4978L25.1598 52.4986V56.9965V61.4944L24.7839 61.7329C23.6437 62.4566 23.0837 63.37 23.0729 64.5238C23.0598 65.9431 23.859 67.0964 25.2148 67.6145C26.7148 68.1876 28.5664 67.3496 29.2135 65.8044C29.4518 65.2354 29.4499 63.967 29.2098 63.3921C28.9463 62.7612 28.2525 62.0077 27.6881 61.7397L27.2105 61.513V57.0058V52.4986H28.3638H29.5169L29.56 54.9044L29.6029 57.3101L29.9981 57.6499C30.4288 58.0201 30.8962 58.0014 31.3459 57.5958C31.5567 57.4057 31.5852 57.0906 31.5852 54.9394V52.4986H32.7472H33.9093L33.9101 60.6026C33.9105 65.6351 33.9631 68.895 34.0488 69.2037C34.3337 70.2298 35.6721 70.2298 35.957 69.2037C36.0428 68.895 36.0954 65.6351 36.0958 60.6026L36.0966 52.4986H37.2587H38.4207V54.9506V57.4027L38.7809 57.6861C39.2498 58.0551 39.5494 58.0439 40.0194 57.6399L40.403 57.3101L40.4459 54.9044L40.489 52.4986H41.6302H42.7714L42.8195 54.6529C42.8627 56.587 42.9001 56.87 43.186 57.4226C43.3886 57.814 44.8249 59.3641 47.1331 61.682L50.7616 65.3261L50.6063 65.7714C49.9153 67.7548 51.4932 69.9741 53.6125 69.9999C55.577 70.0237 57.2528 67.9454 56.7564 66.1008C56.2702 64.2947 54.6396 63.2894 52.8622 63.6999L52.1706 63.8595L48.6996 60.4017C46.7906 58.4999 45.1426 56.7458 45.0373 56.5037C44.9057 56.2009 44.8461 55.5077 44.8461 54.2811V52.4986L46.1106 52.4926C47.8412 52.4846 48.5257 52.3344 48.9192 51.8767C49.1561 51.6013 49.2178 51.4087 49.1534 51.1458C48.9679 50.3874 49.7522 50.4298 35.3986 50.4033L22.0838 50.3786L21.5352 50.0847C20.8379 49.711 20.2903 49.1632 19.9168 48.4656L19.6231 47.9167L19.5984 34.5956C19.5719 20.2352 19.6143 21.0198 18.8562 20.8342C18.5935 20.7698 18.401 20.8315 18.1257 21.0685ZM31.1641 23.0972C29.2365 23.4119 27.8667 24.9454 27.8667 26.7886C27.8667 27.5666 27.8423 27.6316 27.5044 27.7545C26.3374 28.1792 25.1308 29.1887 24.6399 30.1514C23.957 31.4907 24.0034 33.2522 24.7539 34.4817L25.1524 35.1345L24.7572 35.9178C23.6602 38.0914 24.0529 40.3035 25.8406 42.0215C26.512 42.6667 26.6636 42.8933 26.6636 43.2518C26.6636 44.3143 27.9357 45.9384 29.2094 46.502C30.9726 47.2823 33.158 46.9785 34.5448 45.7604L35.0029 45.358L35.4611 45.7604C36.8478 46.9785 39.0333 47.2823 40.7964 46.502C42.0319 45.9552 43.3423 44.3169 43.3423 43.319C43.3423 43.0411 43.4635 42.8717 43.8207 42.6508C45.204 41.7956 46.0681 39.8355 45.797 38.1684C45.6665 37.366 45.2081 36.3451 44.8212 35.9947C44.5046 35.7081 44.5046 35.3689 44.8212 35.0824C45.8346 34.1648 46.1489 31.6828 45.4298 30.2754C44.8779 29.1953 43.6758 28.1413 42.5903 27.7858C42.1966 27.657 42.1791 27.6171 42.1537 26.7907C42.0542 23.5707 38.3239 21.9289 35.5156 23.8691L35.0029 24.2234L34.4903 23.8691C33.4639 23.16 32.3554 22.9027 31.1641 23.0972ZM6.29697 25.5206C6.89617 26.2827 6.38323 27.332 5.41136 27.332C4.21228 27.332 3.84193 25.6878 4.93725 25.227C5.49134 24.9938 5.96285 25.0957 6.29697 25.5206ZM33.1691 25.4422C33.4099 25.5843 33.6681 25.8676 33.7433 26.0718C33.8183 26.276 33.9656 26.6885 34.0704 26.9886C34.2036 27.3691 34.3734 27.5737 34.632 27.6647C35.23 27.875 35.713 27.6244 35.9354 26.9886C36.0403 26.6885 36.1875 26.276 36.2626 26.0718C36.7106 24.8536 39.3153 24.8009 39.889 25.9983C40.3554 26.9722 40.2113 27.3142 39.23 27.5617C38.2394 27.8114 37.8164 28.1376 37.7615 28.694C37.73 29.0135 37.8075 29.2363 38.0349 29.4797C38.3716 29.8399 38.4513 29.8423 39.9245 29.5344C41.8375 29.1346 43.784 30.4993 43.784 32.2402C43.784 33.1075 43.6215 33.3962 42.5778 34.3858C41.9839 34.9489 41.7017 35.3201 41.7017 35.5385C41.7017 35.757 41.9839 36.1282 42.5778 36.6913C43.0595 37.148 43.528 37.6695 43.6188 37.85C43.9093 38.4278 43.822 39.4306 43.4215 40.1142L43.0591 40.733L42.2778 39.9409C41.522 39.1746 40.472 38.5476 39.9445 38.5476C39.4716 38.5476 38.9675 39.0733 38.9675 39.5666C38.9675 40.0654 39.1168 40.229 40.035 40.736C41.5375 41.5659 41.7646 43.1729 40.5315 44.2514C39.38 45.2586 37.3597 45.0538 36.4527 43.8382C36.1867 43.4816 36.1598 43.2291 36.0966 40.4872C36.0061 36.563 36.0805 35.3966 36.4527 34.898C36.8545 34.3598 37.4269 34.0566 38.3666 33.8842C38.8099 33.803 39.2803 33.6399 39.4118 33.5221C39.7175 33.2482 39.725 32.4276 39.4248 32.0958C39.0508 31.6823 37.6239 31.7871 36.3359 32.3225C36.1357 32.4057 36.0966 32.3467 36.0966 31.9619C36.0966 31.3031 35.8728 30.6138 35.5891 30.3985C35.2761 30.1609 34.7298 30.1609 34.4167 30.3985C34.0017 30.7134 33.9093 31.4045 33.9093 34.1917V36.8815L33.369 36.6203C33.0719 36.4767 32.6837 36.3592 32.5062 36.3592C32.0221 36.3592 31.5852 36.8383 31.5852 37.3691C31.5852 37.8703 31.7461 38.0464 32.7011 38.5916C33.7514 39.1911 33.9093 39.5826 33.9093 41.5867C33.9093 43.1317 33.88 43.3377 33.6012 43.7516C32.7042 45.0834 30.5817 45.2995 29.4073 44.1786C28.508 43.3204 28.4328 42.3137 29.1913 41.285C29.8287 40.4206 29.483 39.505 28.5192 39.505C28.146 39.505 27.9666 39.607 27.6375 40.0063C27.2781 40.4427 27.1958 40.4838 27.0024 40.3232C26.5685 39.9629 26.2246 39.0695 26.2179 38.2851C26.2059 36.8802 27.1301 35.7172 28.7188 35.1375C29.1662 34.9743 29.5944 34.7248 29.6702 34.5832C29.893 34.1667 29.8293 33.645 29.5174 33.333C29.2741 33.0896 29.1206 33.0551 28.5699 33.1203C28.2084 33.1632 27.6514 33.3317 27.3317 33.4947C26.7719 33.7806 26.7441 33.7822 26.5678 33.5408C26.0327 32.8088 26.0905 31.6965 26.7126 30.7562C27.1279 30.1284 28.1784 29.5822 29.2271 29.4492C29.7676 29.3805 30.0126 29.272 30.2182 29.0104C30.5667 28.5672 30.5622 28.4689 30.1521 27.5849C29.8166 26.8622 29.8115 26.6112 30.1192 25.9868C30.2847 25.6513 30.8714 25.2712 31.4485 25.126C31.9287 25.0052 32.6547 25.1386 33.1691 25.4422ZM65.1413 42.7358C65.4937 42.871 65.7918 43.5746 65.6912 44.0332C65.5055 44.8784 64.3174 45.1622 63.7462 44.4978C62.9314 43.5501 63.941 42.275 65.1413 42.7358ZM4.01952 52.8592C4.47203 53.312 4.48542 53.8652 4.05588 54.3648C3.20199 55.3581 1.60098 54.2923 2.21481 53.1393C2.6058 52.4048 3.43645 52.276 4.01952 52.8592ZM27.0115 63.7764C27.5714 64.3364 27.4542 65.2224 26.7738 65.5744C26.2527 65.8441 25.6298 65.7109 25.3396 65.2678C24.5856 64.1163 26.0477 62.812 27.0115 63.7764ZM54.3671 65.9532C55.3599 66.8075 54.2946 68.4093 53.1422 67.7952C52.408 67.404 52.2793 66.573 52.8622 65.9896C53.3148 65.5369 53.8677 65.5235 54.3671 65.9532Z" fill="#6A6A6A"/>
</svg>
