<svg width="53" height="70" viewBox="0 0 53 70" fill="none" xmlns="http://www.w3.org/2000/svg">
<path fill-rule="evenodd" clip-rule="evenodd" d="M33.0977 1.02763C33.2595 3.13285 32.6705 5.85022 31.6093 7.89481C30.9444 9.1759 29.5466 10.5672 27.3088 12.1748C21.9337 16.0366 20.3356 17.4169 18.8739 19.4603C17.284 21.6827 16.6668 23.2462 16.6668 25.0511C16.6668 27.6146 18.0287 30.5227 20.7344 33.7367C21.6655 34.8428 23.9447 37.0595 24.4288 37.33C24.533 37.3883 24.3498 36.8593 24.0216 36.1548C22.1062 32.0418 20.8069 27.1995 20.9513 24.7126C20.999 23.8914 21.099 23.5042 21.4141 22.9197C21.9054 22.0088 23.6596 20.2677 26.073 18.2962C31.6209 13.7638 33.3526 11.8159 34.3461 8.99032C34.6764 8.05055 34.7167 7.73907 34.7201 6.08998C34.7246 3.90758 34.5345 3.06114 33.6287 1.23168L33.0188 0L33.0977 1.02763ZM37.2314 15.5945C33.3899 17.3295 30.3974 19.2304 28.3913 21.21C27.3046 22.2825 26.9011 22.7894 26.5375 23.5388C26.0933 24.4548 26.0734 24.5628 26.0821 26.0022C26.0973 28.5404 26.7975 30.3815 28.6846 32.8449C30.2252 34.8559 30.3107 35.057 30.2241 36.4659C30.1741 37.2796 30.0254 37.9873 29.7347 38.7951C29.505 39.4333 29.3383 39.9766 29.3641 40.0024C29.4566 40.0945 31.4056 38.1704 32.001 37.3992C33.2172 35.824 33.7875 34.0229 33.5459 32.52C33.3781 31.4755 32.9133 30.4253 31.9558 28.9272C30.6014 26.8084 30.2607 26.0261 30.2646 25.0442C30.2682 24.1054 30.6375 23.0847 31.3554 22.0301C32.0437 21.0192 34.7377 18.4083 36.921 16.6363C37.9784 15.7781 38.9022 15.0249 38.9739 14.9623C39.2477 14.7237 38.7998 14.8861 37.2314 15.5945ZM45.8466 37.5164C44.7382 37.6859 42.3451 38.4797 42.3451 38.6778C42.3451 38.7439 42.5882 38.798 42.8854 38.798C44.2848 38.798 46.5947 39.5731 47.5181 40.3526C48.1048 40.8479 48.6632 41.9957 48.6556 42.6909C48.6345 44.6441 46.2808 47.4889 42.1538 50.5496C41.6332 50.9358 41.239 51.2517 41.2777 51.2517C41.6075 51.2517 44.4851 50.2866 45.6202 49.7954C47.7533 48.8721 48.8851 48.1532 50.1331 46.9289C52.1588 44.9416 52.5241 43.1539 51.4504 40.4813C50.7215 38.6666 49.2481 37.6191 47.2705 37.5095C46.7139 37.4786 46.0732 37.4817 45.8466 37.5164ZM14.445 38.5292C12.2892 38.6648 10.6922 38.8927 9.05982 39.2972C6.42169 39.9511 5.52212 40.7906 6.04997 42.1056C6.57205 43.4059 9.11722 44.3839 13.3025 44.8928C17.2024 45.3668 24.6236 45.2955 28.5447 44.7462C32.9859 44.1241 37.4058 42.7355 39.4091 41.3331C39.9386 40.9623 39.9393 40.9604 39.5301 41.0386C34.5662 41.9852 30.8678 42.3157 23.7386 42.4495C17.7048 42.5628 12.4264 42.2251 11.2193 41.6485C9.92657 41.031 11.7571 39.8237 15.4309 38.8707C16.2239 38.665 16.8986 38.472 16.93 38.442C16.9963 38.3787 16.6368 38.3913 14.445 38.5292ZM13.5085 46.9936C11.9182 47.506 10.8995 48.2372 10.8995 48.8662C10.8995 49.8315 12.7959 50.8678 15.6309 51.4513C19.6522 52.2792 24.2144 52.2363 30.4671 51.312C32.1196 51.0677 37.2205 50.078 37.6575 49.9168C37.9401 49.8127 37.8511 49.72 36.6897 48.9094C35.9862 48.4185 35.3386 47.9746 35.2507 47.9228C35.1628 47.8711 34.6685 47.9268 34.1522 48.0466C30.1046 48.9852 24.0307 49.5827 20.3057 49.4085C14.4575 49.135 12.5254 48.4448 13.935 47.1325C14.1695 46.9142 14.3394 46.7388 14.3126 46.7429C14.2857 46.7469 13.9239 46.8598 13.5085 46.9936ZM15.1207 54.3394C13.6262 54.7004 12.9592 55.2672 12.9592 56.1766C12.9592 58.2122 16.9797 59.5174 23.8073 59.6981C26.9943 59.7826 29.047 59.6281 31.6343 59.1091C33.2466 58.7857 36.652 57.7592 36.776 57.5592C36.8071 57.5093 36.0345 56.9853 35.0594 56.3946C33.4399 55.4138 33.2415 55.3284 32.7693 55.4094C27.7109 56.276 27.0235 56.3549 24.5625 56.3518C20.992 56.3473 16.9715 55.8456 16.2892 55.3192C16.0707 55.1508 16.0664 54.505 16.2823 54.2898C16.5003 54.0725 16.1668 54.0867 15.1207 54.3394ZM8.70239 59.282C5.93366 59.4834 2.54921 60.125 1.51562 60.6445C-0.373308 61.5937 -0.136299 63.2618 2.04251 64.351C4.01397 65.3366 7.93011 65.9789 14.0193 66.3154C17.8213 66.5255 28.5426 66.406 31.497 66.1208C38.6731 65.4277 44.0331 64.2467 46.8894 62.7294C48.3826 61.9362 48.8279 61.0784 48.2299 60.1472L47.9223 59.6682L47.8377 60.1518C47.7913 60.4179 47.7063 60.7113 47.6489 60.8038C47.3389 61.3037 44.8391 62.1013 41.5898 62.7371C32.1539 64.5833 19.946 64.8793 10.1442 63.4995C6.85382 63.0364 4.44048 62.304 4.33049 61.7352C4.20676 61.0953 5.66548 60.3424 8.35909 59.6558C10.0659 59.2209 10.1034 59.18 8.70239 59.282ZM50.7214 63.991C50.0366 64.5771 46.908 66.0832 45.3424 66.5802C42.3501 67.5304 40.0078 67.9534 36.0971 68.2498C33.6279 68.4371 16.0722 68.4966 12.6159 68.3294C10.9165 68.2472 10.8671 68.2522 11.586 68.4314C14.7015 69.2081 23.0898 69.9991 28.2205 70.0001C34.3474 70.0013 41.8838 69.2051 45.2906 68.1967C47.9863 67.3988 50.3322 65.826 51.1141 64.2924C51.5643 63.4097 51.478 63.3434 50.7214 63.991Z" fill="#6A6A6A"/>
</svg>
