<svg width="70" height="70" viewBox="0 0 70 70" fill="none" xmlns="http://www.w3.org/2000/svg">
<path fill-rule="evenodd" clip-rule="evenodd" d="M6.48201 0.138147C5.14041 0.408279 3.49461 1.32629 2.41564 2.40624C-1.95246 6.77756 -0.147472 13.9647 5.82544 15.9834C6.93884 16.3597 9.38099 16.3597 10.4944 15.9834C13.2516 15.0515 15.3241 12.9173 15.9921 10.3221L16.2493 9.32308H22.449H28.6486L27.961 10.0216C27.5829 10.4059 27.2735 10.7704 27.2735 10.8317C27.2735 10.9845 28.6884 12.3894 28.8422 12.3894C28.9102 12.3894 29.7956 11.5501 30.8096 10.5245L32.6535 8.65943L32.8168 9.6119C33.3122 12.5025 35.5191 14.9731 38.5081 15.9834C39.6215 16.3597 42.0637 16.3597 43.1771 15.9834C45.9342 15.0515 48.0068 12.9173 48.6748 10.3221L48.932 9.32308L52.6567 9.32425C56.6478 9.32542 57.659 9.42675 59.3725 9.9971C61.2109 10.6092 62.506 11.4354 64.0415 12.9761C66.4591 15.4019 67.6869 18.3027 67.6869 21.5885C67.6869 24.8744 66.4591 27.7752 64.0415 30.2009C62.0691 32.1799 59.9804 33.2682 57.3299 33.6981C56.7334 33.7947 52.7285 33.8523 46.5384 33.8528L36.6953 33.854L37.3829 33.1555C37.7609 32.7711 38.0704 32.3909 38.0704 32.3103C38.0704 32.1198 36.7195 30.7876 36.5261 30.7876C36.4447 30.7876 35.5483 31.6269 34.5343 32.6526L32.6903 34.5177L32.527 33.5652C32.1099 31.1314 30.3528 28.8132 28.1035 27.7293C24.2725 25.8831 19.9435 27.0984 17.6388 30.667C17.0963 31.5071 16.4765 33.0658 16.4765 33.5903C16.4765 33.8276 16.325 33.854 14.9636 33.854C10.7639 33.854 7.11465 35.324 4.28541 38.1554C-1.40999 43.8552 -1.4094 53.056 4.28687 58.7565C5.53844 60.0091 6.74712 60.8462 8.51315 61.6835C10.4795 62.6156 11.8798 62.9208 14.6279 63.0165L16.9377 63.0966L16.2365 63.8092L15.5353 64.5216L16.3736 65.3592L17.212 66.1969L19.0968 64.2967L20.9816 62.3965L21.1446 63.3476C21.6398 66.2369 23.8473 68.7078 26.8357 69.7178C27.9491 70.0941 30.3913 70.0941 31.5047 69.7178C34.2619 68.7859 36.3344 66.6517 37.0024 64.0565L37.2596 63.0575H43.4593H49.6589L48.9713 63.756C48.5932 64.1404 48.2838 64.5048 48.2838 64.5661C48.2838 64.7189 49.6987 66.1239 49.8525 66.1239C49.9205 66.1239 50.8059 65.2845 51.8199 64.2589L53.6638 62.3938L53.8271 63.3463C54.3225 66.2369 56.5294 68.7075 59.5184 69.7178C60.6318 70.0941 63.074 70.0941 64.1874 69.7178C66.1411 69.0575 67.9139 67.6947 68.8101 66.1645C70.7474 62.8561 70.2674 58.8282 67.6163 56.149C64.4327 52.9313 59.319 52.9277 56.1086 56.1406C54.9516 57.2984 54.0848 58.9291 53.8271 60.4324L53.6638 61.3849L51.8199 59.5198C50.8059 58.4942 49.9048 57.6548 49.8175 57.6548C49.6255 57.6548 48.2838 58.9962 48.2838 59.188C48.2838 59.2628 48.5932 59.6383 48.9713 60.0227L49.6589 60.7212H43.4269C37.5157 60.7212 37.195 60.7076 37.195 60.4575C37.195 59.9285 36.5731 58.3711 36.0199 57.5144C33.1664 53.0962 27.1264 52.4374 23.4259 56.1406C22.2689 57.2984 21.4021 58.9291 21.1444 60.4324L20.9812 61.3849L19.1372 59.5198C18.1232 58.4942 17.2221 57.6548 17.1348 57.6548C16.9428 57.6548 15.6011 58.9962 15.6011 59.188C15.6011 59.2628 15.913 59.6455 16.2941 60.0383L16.9872 60.7526L14.7256 60.6771C13.0324 60.6208 12.1952 60.5241 11.3937 60.2925C6.68715 58.9324 3.2365 55.0858 2.47809 50.354C1.88542 46.6568 3.08855 42.8095 5.69646 40.0618C8.08667 37.5437 10.7433 36.3839 14.4703 36.2315C16.3887 36.1531 16.4765 36.1618 16.4765 36.4335C16.4765 36.9814 17.0896 38.527 17.6531 39.3993C18.7262 41.061 20.1952 42.1842 22.1668 42.8506C23.2802 43.2269 25.7223 43.2269 26.8357 42.8506C29.9674 41.7921 32.1086 39.2879 32.5962 36.1136L32.6865 35.5259L34.5731 37.4278L36.4595 39.3297L37.2978 38.492L38.1362 37.6544L37.422 36.9287L36.7078 36.203L47.2013 36.1533C57.3709 36.1053 57.7307 36.0942 58.8619 35.792C61.4857 35.0912 63.8893 33.7287 65.7004 31.9155C70.1502 27.4603 71.2695 20.6935 68.4784 15.1194C66.5471 11.2619 63.108 8.49881 58.8619 7.39288C57.8389 7.12639 57.1492 7.08098 53.281 7.02491C49.2308 6.96636 48.8674 6.94051 48.8674 6.71024C48.8674 6.19276 48.2397 4.6276 47.6923 3.77997C44.8388 -0.638228 38.7988 -1.29706 35.0983 2.40624C33.9413 3.56401 33.0745 5.19473 32.8168 6.69798L32.6535 7.65045L30.8096 5.78537C29.7956 4.75974 28.8945 3.92044 28.8072 3.92044C28.6152 3.92044 27.2735 5.26175 27.2735 5.45362C27.2735 5.52838 27.5829 5.90394 27.961 6.28825L28.6486 6.9868H22.4166C16.5054 6.9868 16.1847 6.97322 16.1847 6.72309C16.1847 6.19407 15.5628 4.63665 15.0096 3.77997C13.5129 1.46252 11.2459 0.156983 8.52468 0.0451335C7.80245 0.015492 6.88325 0.0572531 6.48201 0.138147ZM10.557 2.87203C11.8735 3.48866 12.7253 4.32709 13.3782 5.64928C13.8931 6.69185 13.9232 6.82983 13.9232 8.15494C13.9232 9.48005 13.8931 9.61804 13.3782 10.6606C12.7219 11.9897 11.8771 12.8174 10.5207 13.4605C9.63924 13.8784 9.41338 13.9226 8.15991 13.9226C6.90644 13.9226 6.68058 13.8784 5.79917 13.4605C4.4427 12.8174 3.59791 11.9897 2.94163 10.6606C2.42731 9.6192 2.39667 9.47888 2.39667 8.16253C2.39667 6.89948 2.4403 6.67564 2.85846 5.79238C3.44471 4.55386 4.27943 3.64724 5.36817 3.06653C6.51746 2.45355 7.14631 2.31483 8.48805 2.37878C9.36377 2.42055 9.83023 2.53166 10.557 2.87203ZM43.2397 2.87203C44.5562 3.48866 45.408 4.32709 46.0609 5.64928C46.5758 6.69185 46.6058 6.82983 46.6058 8.15494C46.6058 9.48005 46.5758 9.61804 46.0609 10.6606C45.4046 11.9897 44.5598 12.8174 43.2033 13.4605C42.3219 13.8784 42.0961 13.9226 40.8426 13.9226C39.5891 13.9226 39.3633 13.8784 38.4819 13.4605C37.1254 12.8174 36.2806 11.9897 35.6243 10.6606C35.11 9.6192 35.0794 9.47888 35.0794 8.16253C35.0794 6.89948 35.123 6.67564 35.5412 5.79238C36.1274 4.55386 36.9621 3.64724 38.0509 3.06653C39.2002 2.45355 39.829 2.31483 41.1707 2.37878C42.0465 2.42055 42.5129 2.53166 43.2397 2.87203ZM26.8983 29.7392C28.2148 30.3559 29.0666 31.1943 29.7195 32.5165C30.2344 33.5591 30.2645 33.697 30.2645 35.0221C30.2645 36.3473 30.2344 36.4852 29.7195 37.5278C29.0633 38.8569 28.2185 39.6846 26.862 40.3277C25.9806 40.7456 25.7547 40.7898 24.5013 40.7898C23.2478 40.7898 23.0219 40.7456 22.1405 40.3277C20.784 39.6846 19.9393 38.8569 19.283 37.5278C18.7687 36.4864 18.738 36.3461 18.738 35.0297C18.738 33.7667 18.7816 33.5428 19.1998 32.6596C19.786 31.4211 20.6208 30.5144 21.7095 29.9337C22.8588 29.3207 23.4877 29.182 24.8294 29.246C25.7051 29.2877 26.1716 29.3989 26.8983 29.7392ZM31.5673 56.6064C32.8838 57.2231 33.7356 58.0615 34.3885 59.3837C34.9034 60.4263 34.9335 60.5642 34.9335 61.8894C34.9335 63.2145 34.9034 63.3524 34.3885 64.395C33.7322 65.7241 32.8874 66.5518 31.531 67.1949C30.6495 67.6128 30.4237 67.657 29.1702 67.657C27.9167 67.657 27.6909 67.6128 26.8095 67.1949C25.453 66.5518 24.6082 65.7241 23.9519 64.395C23.4376 63.3536 23.407 63.2133 23.407 61.8969C23.407 60.6339 23.4506 60.41 23.8688 59.5268C24.455 58.2883 25.2897 57.3816 26.3785 56.8009C27.5278 56.188 28.1566 56.0492 29.4984 56.1132C30.3741 56.155 30.8405 56.2661 31.5673 56.6064ZM64.25 56.6064C65.5665 57.2231 66.4183 58.0615 67.0712 59.3837C67.5861 60.4263 67.6161 60.5642 67.6161 61.8894C67.6161 63.2145 67.5861 63.3524 67.0712 64.395C66.4149 65.7241 65.5701 66.5518 64.2136 67.1949C63.3322 67.6128 63.1064 67.657 61.8529 67.657C60.5994 67.657 60.3736 67.6128 59.4922 67.1949C58.1357 66.5518 57.2909 65.7241 56.6346 64.395C56.1203 63.3536 56.0897 63.2133 56.0897 61.8969C56.0897 60.6339 56.1333 60.41 56.5515 59.5268C57.1377 58.2883 57.9724 57.3816 59.0612 56.8009C60.2105 56.188 60.8393 56.0492 62.181 56.1132C63.0568 56.155 63.5232 56.2661 64.25 56.6064Z" fill="#6A6A6A"/>
</svg>
