<svg width="70" height="54" viewBox="0 0 70 54" fill="none" xmlns="http://www.w3.org/2000/svg">
<mask id="path-1-outside-1_485_5150" maskUnits="userSpaceOnUse" x="-1" y="0.333984" width="72" height="53" fill="black">
<rect fill="white" x="-1" y="0.333984" width="72" height="53"/>
<path fill-rule="evenodd" clip-rule="evenodd" d="M2.56233 1.58971C1.60096 1.91934 0.943288 2.469 0.425342 3.37536L0 4.11989V26.6258V49.1317L0.360959 49.8959C0.868767 50.9709 1.59315 51.7082 2.6489 52.224L3.55589 52.6673H34.9971H66.4384L67.2082 52.309C68.2911 51.8049 69.0338 51.0858 69.5534 50.0377L70 49.1374V26.6286V4.11989L69.5751 3.37196C69.3412 2.96059 68.8916 2.42671 68.5759 2.1856C67.3748 1.26837 69.8814 1.33174 34.9408 1.33663C4.63671 1.34085 3.25671 1.35159 2.56233 1.58971ZM67.4197 3.17382C67.7867 3.38732 68.1189 3.72348 68.2879 4.0523C68.5579 4.57775 68.5616 4.85666 68.5595 24.4785L68.5571 44.3721L68.2484 44.9133C68.0752 45.2167 67.7001 45.5891 67.3945 45.7609L66.8493 46.0675L44.6233 46.0698L22.3973 46.0719V44.984V43.8961H43.9649H65.5326L65.917 43.568L66.3014 43.2397V24.4761C66.3014 6.21504 66.2944 5.70455 66.0404 5.42604L65.7794 5.13979H35H4.22055L3.95959 5.42604C3.70562 5.70455 3.69863 6.21504 3.69863 24.4761V43.2397L4.08301 43.568C4.45836 43.8885 4.52452 43.8961 6.92548 43.8961H9.38356V44.991V46.0857L6.11918 46.0449L2.85466 46.0039L2.37123 45.6376C1.36301 44.8738 1.43836 46.5828 1.43836 24.458C1.43836 4.89447 1.4426 4.5768 1.71068 4.05516C1.8737 3.7379 2.21712 3.38596 2.56685 3.17804L3.15068 2.83059L34.9879 2.82923L66.8252 2.82801L67.4197 3.17382ZM64.863 24.45V42.4003L43.4589 42.3929L22.0548 42.3855L21.6438 41.7515C21.3558 41.3071 21.013 41.0041 20.4981 40.7389L19.7633 40.3605H15.9934C13.5286 40.3605 12.0399 40.4151 11.6929 40.5184C11.066 40.7048 10.1453 41.4503 9.85589 42.0059L9.65055 42.4003H7.3937H5.13699V24.45V6.49966H35H64.863V24.45ZM41.3014 9.21941C40.9716 9.54673 40.9588 9.7416 41.2407 10.141C41.434 10.415 41.5684 10.4433 42.6759 10.4433C43.8095 10.4433 43.9132 10.42 44.1101 10.1217C44.2667 9.88425 44.2882 9.711 44.1922 9.46024C44.0219 9.01583 43.8086 8.94743 42.5915 8.94743C41.7579 8.94743 41.5262 8.99625 41.3014 9.21941ZM47.637 9.15536C47.2784 9.40612 47.2337 9.92151 47.544 10.2297C47.7321 10.4164 48.4118 10.4433 52.9275 10.4433C56.7648 10.4433 58.1382 10.4013 58.2603 10.2801C58.3507 10.1904 58.4237 9.96081 58.4226 9.77015C58.4178 8.99231 58.5963 9.01869 53.053 8.97762C48.5715 8.94444 47.9074 8.9662 47.637 9.15536ZM21.491 11.5119C20.8055 11.83 20.286 12.4811 20.0675 13.2956C19.8856 13.9739 19.9797 15.0481 20.2693 15.598C20.7049 16.4254 21.81 17.1097 22.7011 17.1037C23.631 17.0976 24.8011 16.2916 25.1282 15.432C25.3805 14.769 25.3085 13.2195 24.9973 12.6138C24.4019 11.4552 22.7389 10.9326 21.491 11.5119ZM30.8486 12.5171C30.7215 12.6107 29.8262 14.6301 28.8589 17.0047C27.8918 19.3794 27.0726 21.35 27.0385 21.3837C27.0045 21.4176 26.5921 20.7198 26.1221 19.8332C25.6522 18.9466 25.1715 18.1846 25.0541 18.1399C24.9367 18.0952 23.9562 18.0586 22.8753 18.0586C20.7522 18.0586 20.4795 18.1429 20.4795 18.7996C20.4795 19.366 20.8132 19.4818 22.6536 19.5544L24.3762 19.6224L25.4336 21.6622C26.0152 22.7841 26.6086 23.78 26.7525 23.8752C26.9274 23.991 27.1214 24.0088 27.3388 23.929C27.6115 23.8288 27.9864 23.0164 29.6782 18.8604L31.6927 13.911L38.7364 13.843C44.4285 13.788 45.8234 13.7392 46.0064 13.5884C46.3219 13.3283 46.2986 12.6636 45.9679 12.4879C45.5544 12.2682 31.1492 12.296 30.8486 12.5171ZM23.5037 13.1526C24.5036 14.1451 23.5512 15.9011 22.2562 15.4531C21.4218 15.1644 21.1674 13.9116 21.793 13.1735C22.2764 12.6032 22.9421 12.595 23.5037 13.1526ZM33.1096 16.8619C32.709 17.2595 32.93 17.6981 34.1385 18.9033L35.3316 20.0934L33.8645 21.5714C33.0575 22.3843 32.3973 23.1544 32.3973 23.2827C32.3973 23.7271 32.6708 24.042 33.0566 24.042C33.3645 24.042 34.0067 23.4699 36.6134 20.8736C38.363 19.1311 39.7945 17.6057 39.7945 17.4839C39.7945 17.362 39.6362 17.1388 39.4425 16.9875C38.9459 16.5997 38.6381 16.756 37.4141 18.0178L36.3851 19.0785L35.1762 17.8886C33.9521 16.6839 33.5101 16.4643 33.1096 16.8619ZM10.4842 18.1856C10.2547 18.6115 10.304 18.7187 11.121 19.569L11.8996 20.3793L11.1895 21.093C10.467 21.8193 10.2958 22.3094 10.6438 22.6549C10.9925 23.001 11.4859 22.8301 12.233 22.1042L12.9678 21.3903L13.5386 22.0185C14.319 22.8773 14.649 23.0354 15.0777 22.7567C15.6179 22.4053 15.514 21.9296 14.726 21.1474C14.3493 20.7734 14.0411 20.4363 14.0411 20.3981C14.0411 20.3599 14.3493 20.0051 14.726 19.6096C15.4414 18.8589 15.5573 18.4952 15.1958 18.1362C14.8201 17.7635 14.423 17.8924 13.6686 18.6319L12.9452 19.3412L12.2218 18.6319C11.6545 18.0757 11.4041 17.9226 11.0622 17.9226C10.7712 17.9226 10.5789 18.0102 10.4842 18.1856ZM42.213 18.1713C41.8508 18.5685 41.9408 18.843 42.6911 19.6306L43.3959 20.3704L42.6911 21.1101C42.3034 21.517 41.9863 21.9494 41.9863 22.071C41.9863 22.5304 42.2619 22.8181 42.7021 22.8181C43.0471 22.8181 43.2668 22.6755 43.7938 22.1095L44.4534 21.401L45.1719 22.0905C46.0199 22.9043 46.2405 23.0016 46.6281 22.7322C47.1262 22.3858 46.9985 21.8878 46.2078 21.093L45.4977 20.3793L46.2763 19.569C46.7044 19.1234 47.0548 18.6889 47.0548 18.6036C47.0548 18.206 46.7553 17.9226 46.3351 17.9226C45.9931 17.9226 45.7427 18.0757 45.1755 18.6319L44.4521 19.3412L43.7286 18.6319C42.9615 17.8799 42.5834 17.765 42.213 18.1713ZM52.3288 24.0364C51.2615 24.4776 50.6053 26.4788 51.3014 27.1697C51.6311 27.497 51.8274 27.5098 52.2297 27.23C52.4716 27.0619 52.5342 26.8856 52.5342 26.3732C52.5342 25.6735 52.7058 25.4007 53.1438 25.4039C53.5823 25.4072 53.8014 25.6101 53.8014 26.013C53.8014 26.3004 53.4916 26.6916 52.4144 27.7647C51.3878 28.7873 51.0274 29.2356 51.0274 29.4906C51.0274 30.0979 51.2284 30.1614 53.1507 30.1614C55.0785 30.1614 55.274 30.0989 55.274 29.4815C55.274 28.9558 55.0279 28.8016 54.1892 28.8016H53.4333L54.2011 28.0196C55.1473 27.056 55.2741 26.8157 55.2734 25.9888C55.2725 24.7781 54.4022 23.8996 53.2192 23.9151C52.8801 23.9196 52.4795 23.9742 52.3288 24.0364ZM21.1358 26.8892C20.0301 27.2408 19.3041 28.3411 19.4159 29.4958C19.6018 31.4167 22.0523 32.3667 23.477 31.0702C23.9118 30.6747 24.3084 29.7952 24.3121 29.2185C24.3164 28.5387 23.813 27.6117 23.2323 27.2302C22.6768 26.8652 21.707 26.7075 21.1358 26.8892ZM24.1484 31.4847C20.713 34.89 19.3836 36.2928 19.3836 36.5131C19.3836 36.8785 19.9508 37.2883 20.303 37.1772C20.4395 37.1342 22.6308 35.0311 25.1727 32.5037C30.0893 27.6154 30.2033 27.4693 29.49 26.9735C29.3226 26.8571 29.1244 26.7618 29.0495 26.7618C28.9745 26.7618 26.769 28.8871 24.1484 31.4847ZM44.2466 26.9589C43.077 27.385 42.1112 28.962 42.5467 29.7348C42.9242 30.4047 43.9041 30.15 43.9041 29.382C43.9041 29.1993 44.0825 28.8757 44.3045 28.6551C44.6938 28.2686 44.7432 28.2576 46.0777 28.2576C47.3314 28.2576 47.4838 28.286 47.8348 28.5858C48.161 28.8644 48.2192 29.0172 48.2192 29.5965C48.2192 30.2744 48.2103 30.2882 46.9521 31.5618C45.6148 32.9156 45.4373 33.2965 45.9355 33.744C46.0733 33.8678 46.3415 33.9691 46.5316 33.9691C47.4251 33.9691 48.3981 35.178 48.2282 36.0769C48.0744 36.8905 47.6374 37.0968 46.0668 37.0968C44.7442 37.0968 44.6934 37.0854 44.3045 36.6993C44.0825 36.4787 43.9041 36.1551 43.9041 35.9724C43.9041 35.1976 42.896 34.9415 42.5637 35.6321C42.1618 36.467 43.0633 37.9472 44.247 38.396C44.7116 38.5722 45.1792 38.612 46.3273 38.5727C48.0047 38.5154 48.4423 38.3439 49.1595 37.4631C49.5197 37.0206 49.5888 36.8092 49.6344 36.0071C49.7 34.8538 49.3771 34.09 48.5001 33.3237L47.9137 32.8113L48.6488 31.9963C49.5351 31.0137 49.7034 30.56 49.634 29.3408C49.5888 28.5458 49.519 28.333 49.1595 27.8913C48.4323 26.9981 48.009 26.8357 46.3014 26.7952C45.2388 26.7699 44.633 26.8182 44.2466 26.9589ZM22.5342 28.5296C22.8973 28.89 22.8963 29.6322 22.5325 29.9591C21.9005 30.5267 20.8904 30.0945 20.8904 29.2564C20.8904 28.6845 21.3003 28.2576 21.8493 28.2576C22.0777 28.2576 22.3821 28.3785 22.5342 28.5296ZM34.8381 31.0454C34.7214 31.2997 34.7214 31.471 34.8381 31.7253L34.9941 32.0653H37.0548H39.1155L39.2715 31.7253C39.3882 31.471 39.3882 31.2997 39.2715 31.0454L39.1155 30.7054H37.0548H34.9941L34.8381 31.0454ZM26.5068 32.4897C26.0693 32.6624 25.4418 33.2522 25.1933 33.7243C24.9478 34.1907 24.9447 35.2063 25.1868 35.7817C25.5851 36.7279 26.7441 37.3303 27.8496 37.1657C28.3466 37.0918 28.6126 36.946 29.0584 36.5036C30.0162 35.5527 30.1255 34.3236 29.3488 33.2406C28.8195 32.5027 27.4144 32.1315 26.5068 32.4897ZM28.1507 34.1051C28.3014 34.2547 28.4247 34.5327 28.4247 34.7231C28.4247 35.1713 27.8514 35.7369 27.3973 35.7369C26.9822 35.7369 26.3699 35.1841 26.3699 34.8095C26.3699 34.6666 26.4977 34.3885 26.6538 34.1914C27.0096 33.7424 27.7427 33.7001 28.1507 34.1051ZM34.9527 34.0818C34.6515 34.4123 34.6667 34.7261 35 35.057C35.2453 35.3005 35.4566 35.329 37.0242 35.329C38.9338 35.329 39.3836 35.1889 39.3836 34.5943C39.3836 33.9445 39.0393 33.8331 37.031 33.8331C35.4112 33.8331 35.1511 33.8642 34.9527 34.0818ZM19.7649 41.9907C20.6177 42.375 20.8836 43.0275 20.8874 44.7461L20.8904 46.0719H15.8789H10.8675L10.9132 44.4507C10.9558 42.9419 10.9827 42.8038 11.3014 42.4615C11.9419 41.7734 12.2026 41.7312 15.8219 41.7286C18.8566 41.7266 19.2342 41.7516 19.7649 41.9907ZM35 47.4998H67.2603L67.9249 47.1276L68.5896 46.7556L68.5414 47.8864C68.4999 48.8609 68.4358 49.1095 68.0786 49.6829C67.8218 50.0951 67.4089 50.505 66.9934 50.76L66.3229 51.1715H35H3.67712L3.00658 50.76C2.5911 50.505 2.17822 50.0951 1.92137 49.6829C1.56425 49.1095 1.50014 48.8609 1.45863 47.8864L1.41041 46.7556L2.07507 47.1276L2.73973 47.4998H35Z"/>
</mask>
<path fill-rule="evenodd" clip-rule="evenodd" d="M2.56233 1.58971C1.60096 1.91934 0.943288 2.469 0.425342 3.37536L0 4.11989V26.6258V49.1317L0.360959 49.8959C0.868767 50.9709 1.59315 51.7082 2.6489 52.224L3.55589 52.6673H34.9971H66.4384L67.2082 52.309C68.2911 51.8049 69.0338 51.0858 69.5534 50.0377L70 49.1374V26.6286V4.11989L69.5751 3.37196C69.3412 2.96059 68.8916 2.42671 68.5759 2.1856C67.3748 1.26837 69.8814 1.33174 34.9408 1.33663C4.63671 1.34085 3.25671 1.35159 2.56233 1.58971ZM67.4197 3.17382C67.7867 3.38732 68.1189 3.72348 68.2879 4.0523C68.5579 4.57775 68.5616 4.85666 68.5595 24.4785L68.5571 44.3721L68.2484 44.9133C68.0752 45.2167 67.7001 45.5891 67.3945 45.7609L66.8493 46.0675L44.6233 46.0698L22.3973 46.0719V44.984V43.8961H43.9649H65.5326L65.917 43.568L66.3014 43.2397V24.4761C66.3014 6.21504 66.2944 5.70455 66.0404 5.42604L65.7794 5.13979H35H4.22055L3.95959 5.42604C3.70562 5.70455 3.69863 6.21504 3.69863 24.4761V43.2397L4.08301 43.568C4.45836 43.8885 4.52452 43.8961 6.92548 43.8961H9.38356V44.991V46.0857L6.11918 46.0449L2.85466 46.0039L2.37123 45.6376C1.36301 44.8738 1.43836 46.5828 1.43836 24.458C1.43836 4.89447 1.4426 4.5768 1.71068 4.05516C1.8737 3.7379 2.21712 3.38596 2.56685 3.17804L3.15068 2.83059L34.9879 2.82923L66.8252 2.82801L67.4197 3.17382ZM64.863 24.45V42.4003L43.4589 42.3929L22.0548 42.3855L21.6438 41.7515C21.3558 41.3071 21.013 41.0041 20.4981 40.7389L19.7633 40.3605H15.9934C13.5286 40.3605 12.0399 40.4151 11.6929 40.5184C11.066 40.7048 10.1453 41.4503 9.85589 42.0059L9.65055 42.4003H7.3937H5.13699V24.45V6.49966H35H64.863V24.45ZM41.3014 9.21941C40.9716 9.54673 40.9588 9.7416 41.2407 10.141C41.434 10.415 41.5684 10.4433 42.6759 10.4433C43.8095 10.4433 43.9132 10.42 44.1101 10.1217C44.2667 9.88425 44.2882 9.711 44.1922 9.46024C44.0219 9.01583 43.8086 8.94743 42.5915 8.94743C41.7579 8.94743 41.5262 8.99625 41.3014 9.21941ZM47.637 9.15536C47.2784 9.40612 47.2337 9.92151 47.544 10.2297C47.7321 10.4164 48.4118 10.4433 52.9275 10.4433C56.7648 10.4433 58.1382 10.4013 58.2603 10.2801C58.3507 10.1904 58.4237 9.96081 58.4226 9.77015C58.4178 8.99231 58.5963 9.01869 53.053 8.97762C48.5715 8.94444 47.9074 8.9662 47.637 9.15536ZM21.491 11.5119C20.8055 11.83 20.286 12.4811 20.0675 13.2956C19.8856 13.9739 19.9797 15.0481 20.2693 15.598C20.7049 16.4254 21.81 17.1097 22.7011 17.1037C23.631 17.0976 24.8011 16.2916 25.1282 15.432C25.3805 14.769 25.3085 13.2195 24.9973 12.6138C24.4019 11.4552 22.7389 10.9326 21.491 11.5119ZM30.8486 12.5171C30.7215 12.6107 29.8262 14.6301 28.8589 17.0047C27.8918 19.3794 27.0726 21.35 27.0385 21.3837C27.0045 21.4176 26.5921 20.7198 26.1221 19.8332C25.6522 18.9466 25.1715 18.1846 25.0541 18.1399C24.9367 18.0952 23.9562 18.0586 22.8753 18.0586C20.7522 18.0586 20.4795 18.1429 20.4795 18.7996C20.4795 19.366 20.8132 19.4818 22.6536 19.5544L24.3762 19.6224L25.4336 21.6622C26.0152 22.7841 26.6086 23.78 26.7525 23.8752C26.9274 23.991 27.1214 24.0088 27.3388 23.929C27.6115 23.8288 27.9864 23.0164 29.6782 18.8604L31.6927 13.911L38.7364 13.843C44.4285 13.788 45.8234 13.7392 46.0064 13.5884C46.3219 13.3283 46.2986 12.6636 45.9679 12.4879C45.5544 12.2682 31.1492 12.296 30.8486 12.5171ZM23.5037 13.1526C24.5036 14.1451 23.5512 15.9011 22.2562 15.4531C21.4218 15.1644 21.1674 13.9116 21.793 13.1735C22.2764 12.6032 22.9421 12.595 23.5037 13.1526ZM33.1096 16.8619C32.709 17.2595 32.93 17.6981 34.1385 18.9033L35.3316 20.0934L33.8645 21.5714C33.0575 22.3843 32.3973 23.1544 32.3973 23.2827C32.3973 23.7271 32.6708 24.042 33.0566 24.042C33.3645 24.042 34.0067 23.4699 36.6134 20.8736C38.363 19.1311 39.7945 17.6057 39.7945 17.4839C39.7945 17.362 39.6362 17.1388 39.4425 16.9875C38.9459 16.5997 38.6381 16.756 37.4141 18.0178L36.3851 19.0785L35.1762 17.8886C33.9521 16.6839 33.5101 16.4643 33.1096 16.8619ZM10.4842 18.1856C10.2547 18.6115 10.304 18.7187 11.121 19.569L11.8996 20.3793L11.1895 21.093C10.467 21.8193 10.2958 22.3094 10.6438 22.6549C10.9925 23.001 11.4859 22.8301 12.233 22.1042L12.9678 21.3903L13.5386 22.0185C14.319 22.8773 14.649 23.0354 15.0777 22.7567C15.6179 22.4053 15.514 21.9296 14.726 21.1474C14.3493 20.7734 14.0411 20.4363 14.0411 20.3981C14.0411 20.3599 14.3493 20.0051 14.726 19.6096C15.4414 18.8589 15.5573 18.4952 15.1958 18.1362C14.8201 17.7635 14.423 17.8924 13.6686 18.6319L12.9452 19.3412L12.2218 18.6319C11.6545 18.0757 11.4041 17.9226 11.0622 17.9226C10.7712 17.9226 10.5789 18.0102 10.4842 18.1856ZM42.213 18.1713C41.8508 18.5685 41.9408 18.843 42.6911 19.6306L43.3959 20.3704L42.6911 21.1101C42.3034 21.517 41.9863 21.9494 41.9863 22.071C41.9863 22.5304 42.2619 22.8181 42.7021 22.8181C43.0471 22.8181 43.2668 22.6755 43.7938 22.1095L44.4534 21.401L45.1719 22.0905C46.0199 22.9043 46.2405 23.0016 46.6281 22.7322C47.1262 22.3858 46.9985 21.8878 46.2078 21.093L45.4977 20.3793L46.2763 19.569C46.7044 19.1234 47.0548 18.6889 47.0548 18.6036C47.0548 18.206 46.7553 17.9226 46.3351 17.9226C45.9931 17.9226 45.7427 18.0757 45.1755 18.6319L44.4521 19.3412L43.7286 18.6319C42.9615 17.8799 42.5834 17.765 42.213 18.1713ZM52.3288 24.0364C51.2615 24.4776 50.6053 26.4788 51.3014 27.1697C51.6311 27.497 51.8274 27.5098 52.2297 27.23C52.4716 27.0619 52.5342 26.8856 52.5342 26.3732C52.5342 25.6735 52.7058 25.4007 53.1438 25.4039C53.5823 25.4072 53.8014 25.6101 53.8014 26.013C53.8014 26.3004 53.4916 26.6916 52.4144 27.7647C51.3878 28.7873 51.0274 29.2356 51.0274 29.4906C51.0274 30.0979 51.2284 30.1614 53.1507 30.1614C55.0785 30.1614 55.274 30.0989 55.274 29.4815C55.274 28.9558 55.0279 28.8016 54.1892 28.8016H53.4333L54.2011 28.0196C55.1473 27.056 55.2741 26.8157 55.2734 25.9888C55.2725 24.7781 54.4022 23.8996 53.2192 23.9151C52.8801 23.9196 52.4795 23.9742 52.3288 24.0364ZM21.1358 26.8892C20.0301 27.2408 19.3041 28.3411 19.4159 29.4958C19.6018 31.4167 22.0523 32.3667 23.477 31.0702C23.9118 30.6747 24.3084 29.7952 24.3121 29.2185C24.3164 28.5387 23.813 27.6117 23.2323 27.2302C22.6768 26.8652 21.707 26.7075 21.1358 26.8892ZM24.1484 31.4847C20.713 34.89 19.3836 36.2928 19.3836 36.5131C19.3836 36.8785 19.9508 37.2883 20.303 37.1772C20.4395 37.1342 22.6308 35.0311 25.1727 32.5037C30.0893 27.6154 30.2033 27.4693 29.49 26.9735C29.3226 26.8571 29.1244 26.7618 29.0495 26.7618C28.9745 26.7618 26.769 28.8871 24.1484 31.4847ZM44.2466 26.9589C43.077 27.385 42.1112 28.962 42.5467 29.7348C42.9242 30.4047 43.9041 30.15 43.9041 29.382C43.9041 29.1993 44.0825 28.8757 44.3045 28.6551C44.6938 28.2686 44.7432 28.2576 46.0777 28.2576C47.3314 28.2576 47.4838 28.286 47.8348 28.5858C48.161 28.8644 48.2192 29.0172 48.2192 29.5965C48.2192 30.2744 48.2103 30.2882 46.9521 31.5618C45.6148 32.9156 45.4373 33.2965 45.9355 33.744C46.0733 33.8678 46.3415 33.9691 46.5316 33.9691C47.4251 33.9691 48.3981 35.178 48.2282 36.0769C48.0744 36.8905 47.6374 37.0968 46.0668 37.0968C44.7442 37.0968 44.6934 37.0854 44.3045 36.6993C44.0825 36.4787 43.9041 36.1551 43.9041 35.9724C43.9041 35.1976 42.896 34.9415 42.5637 35.6321C42.1618 36.467 43.0633 37.9472 44.247 38.396C44.7116 38.5722 45.1792 38.612 46.3273 38.5727C48.0047 38.5154 48.4423 38.3439 49.1595 37.4631C49.5197 37.0206 49.5888 36.8092 49.6344 36.0071C49.7 34.8538 49.3771 34.09 48.5001 33.3237L47.9137 32.8113L48.6488 31.9963C49.5351 31.0137 49.7034 30.56 49.634 29.3408C49.5888 28.5458 49.519 28.333 49.1595 27.8913C48.4323 26.9981 48.009 26.8357 46.3014 26.7952C45.2388 26.7699 44.633 26.8182 44.2466 26.9589ZM22.5342 28.5296C22.8973 28.89 22.8963 29.6322 22.5325 29.9591C21.9005 30.5267 20.8904 30.0945 20.8904 29.2564C20.8904 28.6845 21.3003 28.2576 21.8493 28.2576C22.0777 28.2576 22.3821 28.3785 22.5342 28.5296ZM34.8381 31.0454C34.7214 31.2997 34.7214 31.471 34.8381 31.7253L34.9941 32.0653H37.0548H39.1155L39.2715 31.7253C39.3882 31.471 39.3882 31.2997 39.2715 31.0454L39.1155 30.7054H37.0548H34.9941L34.8381 31.0454ZM26.5068 32.4897C26.0693 32.6624 25.4418 33.2522 25.1933 33.7243C24.9478 34.1907 24.9447 35.2063 25.1868 35.7817C25.5851 36.7279 26.7441 37.3303 27.8496 37.1657C28.3466 37.0918 28.6126 36.946 29.0584 36.5036C30.0162 35.5527 30.1255 34.3236 29.3488 33.2406C28.8195 32.5027 27.4144 32.1315 26.5068 32.4897ZM28.1507 34.1051C28.3014 34.2547 28.4247 34.5327 28.4247 34.7231C28.4247 35.1713 27.8514 35.7369 27.3973 35.7369C26.9822 35.7369 26.3699 35.1841 26.3699 34.8095C26.3699 34.6666 26.4977 34.3885 26.6538 34.1914C27.0096 33.7424 27.7427 33.7001 28.1507 34.1051ZM34.9527 34.0818C34.6515 34.4123 34.6667 34.7261 35 35.057C35.2453 35.3005 35.4566 35.329 37.0242 35.329C38.9338 35.329 39.3836 35.1889 39.3836 34.5943C39.3836 33.9445 39.0393 33.8331 37.031 33.8331C35.4112 33.8331 35.1511 33.8642 34.9527 34.0818ZM19.7649 41.9907C20.6177 42.375 20.8836 43.0275 20.8874 44.7461L20.8904 46.0719H15.8789H10.8675L10.9132 44.4507C10.9558 42.9419 10.9827 42.8038 11.3014 42.4615C11.9419 41.7734 12.2026 41.7312 15.8219 41.7286C18.8566 41.7266 19.2342 41.7516 19.7649 41.9907ZM35 47.4998H67.2603L67.9249 47.1276L68.5896 46.7556L68.5414 47.8864C68.4999 48.8609 68.4358 49.1095 68.0786 49.6829C67.8218 50.0951 67.4089 50.505 66.9934 50.76L66.3229 51.1715H35H3.67712L3.00658 50.76C2.5911 50.505 2.17822 50.0951 1.92137 49.6829C1.56425 49.1095 1.50014 48.8609 1.45863 47.8864L1.41041 46.7556L2.07507 47.1276L2.73973 47.4998H35Z" fill="#6A6A6A"/>
<path fill-rule="evenodd" clip-rule="evenodd" d="M2.56233 1.58971C1.60096 1.91934 0.943288 2.469 0.425342 3.37536L0 4.11989V26.6258V49.1317L0.360959 49.8959C0.868767 50.9709 1.59315 51.7082 2.6489 52.224L3.55589 52.6673H34.9971H66.4384L67.2082 52.309C68.2911 51.8049 69.0338 51.0858 69.5534 50.0377L70 49.1374V26.6286V4.11989L69.5751 3.37196C69.3412 2.96059 68.8916 2.42671 68.5759 2.1856C67.3748 1.26837 69.8814 1.33174 34.9408 1.33663C4.63671 1.34085 3.25671 1.35159 2.56233 1.58971ZM67.4197 3.17382C67.7867 3.38732 68.1189 3.72348 68.2879 4.0523C68.5579 4.57775 68.5616 4.85666 68.5595 24.4785L68.5571 44.3721L68.2484 44.9133C68.0752 45.2167 67.7001 45.5891 67.3945 45.7609L66.8493 46.0675L44.6233 46.0698L22.3973 46.0719V44.984V43.8961H43.9649H65.5326L65.917 43.568L66.3014 43.2397V24.4761C66.3014 6.21504 66.2944 5.70455 66.0404 5.42604L65.7794 5.13979H35H4.22055L3.95959 5.42604C3.70562 5.70455 3.69863 6.21504 3.69863 24.4761V43.2397L4.08301 43.568C4.45836 43.8885 4.52452 43.8961 6.92548 43.8961H9.38356V44.991V46.0857L6.11918 46.0449L2.85466 46.0039L2.37123 45.6376C1.36301 44.8738 1.43836 46.5828 1.43836 24.458C1.43836 4.89447 1.4426 4.5768 1.71068 4.05516C1.8737 3.7379 2.21712 3.38596 2.56685 3.17804L3.15068 2.83059L34.9879 2.82923L66.8252 2.82801L67.4197 3.17382ZM64.863 24.45V42.4003L43.4589 42.3929L22.0548 42.3855L21.6438 41.7515C21.3558 41.3071 21.013 41.0041 20.4981 40.7389L19.7633 40.3605H15.9934C13.5286 40.3605 12.0399 40.4151 11.6929 40.5184C11.066 40.7048 10.1453 41.4503 9.85589 42.0059L9.65055 42.4003H7.3937H5.13699V24.45V6.49966H35H64.863V24.45ZM41.3014 9.21941C40.9716 9.54673 40.9588 9.7416 41.2407 10.141C41.434 10.415 41.5684 10.4433 42.6759 10.4433C43.8095 10.4433 43.9132 10.42 44.1101 10.1217C44.2667 9.88425 44.2882 9.711 44.1922 9.46024C44.0219 9.01583 43.8086 8.94743 42.5915 8.94743C41.7579 8.94743 41.5262 8.99625 41.3014 9.21941ZM47.637 9.15536C47.2784 9.40612 47.2337 9.92151 47.544 10.2297C47.7321 10.4164 48.4118 10.4433 52.9275 10.4433C56.7648 10.4433 58.1382 10.4013 58.2603 10.2801C58.3507 10.1904 58.4237 9.96081 58.4226 9.77015C58.4178 8.99231 58.5963 9.01869 53.053 8.97762C48.5715 8.94444 47.9074 8.9662 47.637 9.15536ZM21.491 11.5119C20.8055 11.83 20.286 12.4811 20.0675 13.2956C19.8856 13.9739 19.9797 15.0481 20.2693 15.598C20.7049 16.4254 21.81 17.1097 22.7011 17.1037C23.631 17.0976 24.8011 16.2916 25.1282 15.432C25.3805 14.769 25.3085 13.2195 24.9973 12.6138C24.4019 11.4552 22.7389 10.9326 21.491 11.5119ZM30.8486 12.5171C30.7215 12.6107 29.8262 14.6301 28.8589 17.0047C27.8918 19.3794 27.0726 21.35 27.0385 21.3837C27.0045 21.4176 26.5921 20.7198 26.1221 19.8332C25.6522 18.9466 25.1715 18.1846 25.0541 18.1399C24.9367 18.0952 23.9562 18.0586 22.8753 18.0586C20.7522 18.0586 20.4795 18.1429 20.4795 18.7996C20.4795 19.366 20.8132 19.4818 22.6536 19.5544L24.3762 19.6224L25.4336 21.6622C26.0152 22.7841 26.6086 23.78 26.7525 23.8752C26.9274 23.991 27.1214 24.0088 27.3388 23.929C27.6115 23.8288 27.9864 23.0164 29.6782 18.8604L31.6927 13.911L38.7364 13.843C44.4285 13.788 45.8234 13.7392 46.0064 13.5884C46.3219 13.3283 46.2986 12.6636 45.9679 12.4879C45.5544 12.2682 31.1492 12.296 30.8486 12.5171ZM23.5037 13.1526C24.5036 14.1451 23.5512 15.9011 22.2562 15.4531C21.4218 15.1644 21.1674 13.9116 21.793 13.1735C22.2764 12.6032 22.9421 12.595 23.5037 13.1526ZM33.1096 16.8619C32.709 17.2595 32.93 17.6981 34.1385 18.9033L35.3316 20.0934L33.8645 21.5714C33.0575 22.3843 32.3973 23.1544 32.3973 23.2827C32.3973 23.7271 32.6708 24.042 33.0566 24.042C33.3645 24.042 34.0067 23.4699 36.6134 20.8736C38.363 19.1311 39.7945 17.6057 39.7945 17.4839C39.7945 17.362 39.6362 17.1388 39.4425 16.9875C38.9459 16.5997 38.6381 16.756 37.4141 18.0178L36.3851 19.0785L35.1762 17.8886C33.9521 16.6839 33.5101 16.4643 33.1096 16.8619ZM10.4842 18.1856C10.2547 18.6115 10.304 18.7187 11.121 19.569L11.8996 20.3793L11.1895 21.093C10.467 21.8193 10.2958 22.3094 10.6438 22.6549C10.9925 23.001 11.4859 22.8301 12.233 22.1042L12.9678 21.3903L13.5386 22.0185C14.319 22.8773 14.649 23.0354 15.0777 22.7567C15.6179 22.4053 15.514 21.9296 14.726 21.1474C14.3493 20.7734 14.0411 20.4363 14.0411 20.3981C14.0411 20.3599 14.3493 20.0051 14.726 19.6096C15.4414 18.8589 15.5573 18.4952 15.1958 18.1362C14.8201 17.7635 14.423 17.8924 13.6686 18.6319L12.9452 19.3412L12.2218 18.6319C11.6545 18.0757 11.4041 17.9226 11.0622 17.9226C10.7712 17.9226 10.5789 18.0102 10.4842 18.1856ZM42.213 18.1713C41.8508 18.5685 41.9408 18.843 42.6911 19.6306L43.3959 20.3704L42.6911 21.1101C42.3034 21.517 41.9863 21.9494 41.9863 22.071C41.9863 22.5304 42.2619 22.8181 42.7021 22.8181C43.0471 22.8181 43.2668 22.6755 43.7938 22.1095L44.4534 21.401L45.1719 22.0905C46.0199 22.9043 46.2405 23.0016 46.6281 22.7322C47.1262 22.3858 46.9985 21.8878 46.2078 21.093L45.4977 20.3793L46.2763 19.569C46.7044 19.1234 47.0548 18.6889 47.0548 18.6036C47.0548 18.206 46.7553 17.9226 46.3351 17.9226C45.9931 17.9226 45.7427 18.0757 45.1755 18.6319L44.4521 19.3412L43.7286 18.6319C42.9615 17.8799 42.5834 17.765 42.213 18.1713ZM52.3288 24.0364C51.2615 24.4776 50.6053 26.4788 51.3014 27.1697C51.6311 27.497 51.8274 27.5098 52.2297 27.23C52.4716 27.0619 52.5342 26.8856 52.5342 26.3732C52.5342 25.6735 52.7058 25.4007 53.1438 25.4039C53.5823 25.4072 53.8014 25.6101 53.8014 26.013C53.8014 26.3004 53.4916 26.6916 52.4144 27.7647C51.3878 28.7873 51.0274 29.2356 51.0274 29.4906C51.0274 30.0979 51.2284 30.1614 53.1507 30.1614C55.0785 30.1614 55.274 30.0989 55.274 29.4815C55.274 28.9558 55.0279 28.8016 54.1892 28.8016H53.4333L54.2011 28.0196C55.1473 27.056 55.2741 26.8157 55.2734 25.9888C55.2725 24.7781 54.4022 23.8996 53.2192 23.9151C52.8801 23.9196 52.4795 23.9742 52.3288 24.0364ZM21.1358 26.8892C20.0301 27.2408 19.3041 28.3411 19.4159 29.4958C19.6018 31.4167 22.0523 32.3667 23.477 31.0702C23.9118 30.6747 24.3084 29.7952 24.3121 29.2185C24.3164 28.5387 23.813 27.6117 23.2323 27.2302C22.6768 26.8652 21.707 26.7075 21.1358 26.8892ZM24.1484 31.4847C20.713 34.89 19.3836 36.2928 19.3836 36.5131C19.3836 36.8785 19.9508 37.2883 20.303 37.1772C20.4395 37.1342 22.6308 35.0311 25.1727 32.5037C30.0893 27.6154 30.2033 27.4693 29.49 26.9735C29.3226 26.8571 29.1244 26.7618 29.0495 26.7618C28.9745 26.7618 26.769 28.8871 24.1484 31.4847ZM44.2466 26.9589C43.077 27.385 42.1112 28.962 42.5467 29.7348C42.9242 30.4047 43.9041 30.15 43.9041 29.382C43.9041 29.1993 44.0825 28.8757 44.3045 28.6551C44.6938 28.2686 44.7432 28.2576 46.0777 28.2576C47.3314 28.2576 47.4838 28.286 47.8348 28.5858C48.161 28.8644 48.2192 29.0172 48.2192 29.5965C48.2192 30.2744 48.2103 30.2882 46.9521 31.5618C45.6148 32.9156 45.4373 33.2965 45.9355 33.744C46.0733 33.8678 46.3415 33.9691 46.5316 33.9691C47.4251 33.9691 48.3981 35.178 48.2282 36.0769C48.0744 36.8905 47.6374 37.0968 46.0668 37.0968C44.7442 37.0968 44.6934 37.0854 44.3045 36.6993C44.0825 36.4787 43.9041 36.1551 43.9041 35.9724C43.9041 35.1976 42.896 34.9415 42.5637 35.6321C42.1618 36.467 43.0633 37.9472 44.247 38.396C44.7116 38.5722 45.1792 38.612 46.3273 38.5727C48.0047 38.5154 48.4423 38.3439 49.1595 37.4631C49.5197 37.0206 49.5888 36.8092 49.6344 36.0071C49.7 34.8538 49.3771 34.09 48.5001 33.3237L47.9137 32.8113L48.6488 31.9963C49.5351 31.0137 49.7034 30.56 49.634 29.3408C49.5888 28.5458 49.519 28.333 49.1595 27.8913C48.4323 26.9981 48.009 26.8357 46.3014 26.7952C45.2388 26.7699 44.633 26.8182 44.2466 26.9589ZM22.5342 28.5296C22.8973 28.89 22.8963 29.6322 22.5325 29.9591C21.9005 30.5267 20.8904 30.0945 20.8904 29.2564C20.8904 28.6845 21.3003 28.2576 21.8493 28.2576C22.0777 28.2576 22.3821 28.3785 22.5342 28.5296ZM34.8381 31.0454C34.7214 31.2997 34.7214 31.471 34.8381 31.7253L34.9941 32.0653H37.0548H39.1155L39.2715 31.7253C39.3882 31.471 39.3882 31.2997 39.2715 31.0454L39.1155 30.7054H37.0548H34.9941L34.8381 31.0454ZM26.5068 32.4897C26.0693 32.6624 25.4418 33.2522 25.1933 33.7243C24.9478 34.1907 24.9447 35.2063 25.1868 35.7817C25.5851 36.7279 26.7441 37.3303 27.8496 37.1657C28.3466 37.0918 28.6126 36.946 29.0584 36.5036C30.0162 35.5527 30.1255 34.3236 29.3488 33.2406C28.8195 32.5027 27.4144 32.1315 26.5068 32.4897ZM28.1507 34.1051C28.3014 34.2547 28.4247 34.5327 28.4247 34.7231C28.4247 35.1713 27.8514 35.7369 27.3973 35.7369C26.9822 35.7369 26.3699 35.1841 26.3699 34.8095C26.3699 34.6666 26.4977 34.3885 26.6538 34.1914C27.0096 33.7424 27.7427 33.7001 28.1507 34.1051ZM34.9527 34.0818C34.6515 34.4123 34.6667 34.7261 35 35.057C35.2453 35.3005 35.4566 35.329 37.0242 35.329C38.9338 35.329 39.3836 35.1889 39.3836 34.5943C39.3836 33.9445 39.0393 33.8331 37.031 33.8331C35.4112 33.8331 35.1511 33.8642 34.9527 34.0818ZM19.7649 41.9907C20.6177 42.375 20.8836 43.0275 20.8874 44.7461L20.8904 46.0719H15.8789H10.8675L10.9132 44.4507C10.9558 42.9419 10.9827 42.8038 11.3014 42.4615C11.9419 41.7734 12.2026 41.7312 15.8219 41.7286C18.8566 41.7266 19.2342 41.7516 19.7649 41.9907ZM35 47.4998H67.2603L67.9249 47.1276L68.5896 46.7556L68.5414 47.8864C68.4999 48.8609 68.4358 49.1095 68.0786 49.6829C67.8218 50.0951 67.4089 50.505 66.9934 50.76L66.3229 51.1715H35H3.67712L3.00658 50.76C2.5911 50.505 2.17822 50.0951 1.92137 49.6829C1.56425 49.1095 1.50014 48.8609 1.45863 47.8864L1.41041 46.7556L2.07507 47.1276L2.73973 47.4998H35Z" stroke="#6A6A6A" mask="url(#path-1-outside-1_485_5150)"/>
</svg>
