<svg width="70" height="70" viewBox="0 0 70 70" fill="none" xmlns="http://www.w3.org/2000/svg">
<path fill-rule="evenodd" clip-rule="evenodd" d="M36.1222 0.177075C35.4297 0.39538 34.2485 1.61857 34.0362 2.33741C33.921 2.72717 33.8646 4.10798 33.8646 6.53558V10.1529H26.467H19.0696L18.7247 9.39994C18.3023 8.47704 17.5828 7.73732 16.6102 7.22578C15.9701 6.88922 15.7175 6.83954 14.6747 6.84589C13.2587 6.85436 12.4093 7.1905 11.4965 8.10337C10.5837 9.01624 10.2476 9.86576 10.2391 11.2818C10.2327 12.3248 10.2824 12.5774 10.6189 13.2175C11.1304 14.1902 11.8701 14.9098 12.7929 15.3323L13.5458 15.6772V17.9951V20.3132H12.0019H10.4578L10.1338 21.3194C9.70728 22.644 9.50085 22.7414 8.35058 22.1606C7.87535 21.9207 7.40477 21.7244 7.30473 21.7244C7.06923 21.7244 1.41102 27.3855 1.41102 27.6211C1.41102 27.7198 1.6073 28.1893 1.84717 28.6646C2.42795 29.8149 2.33059 30.0214 1.00606 30.448L0 30.772V34.9892V39.2064L1.00606 39.5304C2.33059 39.957 2.42795 40.1635 1.84717 41.3138C1.6073 41.7891 1.41102 42.2597 1.41102 42.3598C1.41102 42.5953 7.07163 48.254 7.30727 48.254C7.4059 48.254 7.87535 48.0577 8.35058 47.8178C9.50085 47.237 9.70728 47.3344 10.1338 48.659L10.4578 49.6652H12.0019H13.5458V51.9833V54.3012L12.7929 54.6461C11.8701 55.0686 11.1304 55.7882 10.6189 56.7609C10.2828 57.4 10.2326 57.6552 10.2377 58.6965C10.2426 59.7112 10.301 60.0071 10.617 60.6167C11.1677 61.6796 11.5957 62.1228 12.5862 62.6558C13.3956 63.0913 13.5829 63.1345 14.6747 63.137C15.7125 63.1394 15.9732 63.0876 16.6102 62.7526C17.5828 62.2411 18.3023 61.5013 18.7247 60.5784L19.0696 59.8255H26.467H33.8646V63.4428C33.8646 65.8704 33.921 67.2512 34.0362 67.641C34.2652 68.4161 35.4341 69.5851 36.2091 69.8141C37.0479 70.062 66.8035 70.062 67.6422 69.8141C68.4173 69.5851 69.5862 68.4161 69.8152 67.641C70.0592 66.8153 70.0627 41.5551 69.819 40.7416C69.7267 40.4337 69.3768 39.8764 69.0413 39.5032C68.0115 38.3578 68.1563 38.376 60.0845 38.376H53.0545V34.9892V31.6024H60.058C65.1443 31.6024 67.2205 31.5554 67.6422 31.4308C68.4173 31.2018 69.5862 30.0328 69.8152 29.2577C70.0592 28.432 70.0627 3.17182 69.819 2.35829C69.7267 2.05038 69.3768 1.49311 69.0413 1.11987C67.9568 -0.0865281 69.1494 -0.00933811 51.8653 0.00703125C41.1783 0.0171915 36.4683 0.067993 36.1222 0.177075ZM67.3828 2.59692C67.7292 2.94321 67.7292 2.94364 67.7292 5.98368V9.02401H51.9257H36.1222V5.98368C36.1222 2.94364 36.1222 2.94321 36.4686 2.59692L36.8149 2.25048H51.9257H67.0365L67.3828 2.59692ZM38.3799 5.63724V6.76616H39.5087H40.6375V5.63724V4.50832H39.5087H38.3799V5.63724ZM42.8951 5.63724V6.76616H44.024H45.1528V5.63724V4.50832H44.024H42.8951V5.63724ZM47.4104 5.63724V6.76616H48.5392H49.6681V5.63724V4.50832H48.5392H47.4104V5.63724ZM15.5677 9.21649C17.0174 9.82229 17.3708 11.7231 16.2434 12.8508C15.3281 13.766 14.0212 13.766 13.1059 12.8508C11.361 11.1056 13.2863 8.26325 15.5677 9.21649ZM67.7292 19.9668V28.6519L67.3828 28.9981L67.0365 29.3446H51.9257H36.8149L36.4686 28.9981L36.1222 28.6519V19.9668V11.2818H51.9257H67.7292V19.9668ZM33.8646 20.5438C33.8646 26.5169 33.9102 28.8311 34.0362 29.2577C34.2652 30.0328 35.4341 31.2018 36.2091 31.4308C36.6309 31.5554 38.7071 31.6024 43.7934 31.6024H50.7969V34.9892V38.376H43.7934C38.7071 38.376 36.6309 38.4229 36.2091 38.5476C35.4341 38.7766 34.2652 39.9456 34.0362 40.7207C33.9102 41.1473 33.8646 43.4615 33.8646 49.4346V57.5676H26.467H19.0696L18.7258 56.8268C18.288 55.8834 17.4875 55.0829 16.5443 54.645L15.8035 54.3012V51.9833V49.6652H17.3474H18.8915L19.2155 48.659C19.642 47.3344 19.8485 47.237 20.9987 47.8178C21.474 48.0577 21.9434 48.254 22.042 48.254C22.2777 48.254 27.9383 42.5953 27.9383 42.3598C27.9383 42.2597 27.742 41.7891 27.5021 41.3138C26.9214 40.1635 27.0187 39.957 28.3432 39.5304L29.3493 39.2064V34.9892V30.772L28.3432 30.448C27.0187 30.0214 26.9214 29.8149 27.5021 28.6646C27.742 28.1893 27.9383 27.7198 27.9383 27.6211C27.9383 27.3855 22.2801 21.7244 22.0446 21.7244C21.9445 21.7244 21.474 21.9207 20.9987 22.1606C19.8485 22.7414 19.642 22.644 19.2155 21.3194L18.8915 20.3132H17.3474H15.8035V17.9951V15.6772L16.5443 15.3334C16.9516 15.1443 17.5318 14.7427 17.8335 14.441C18.1352 14.1393 18.5368 13.5592 18.7258 13.1516L19.0696 12.4108H26.467H33.8646V20.5438ZM38.3799 20.3132V27.0867H44.024H49.6681V20.3132V13.5397H44.024H38.3799V20.3132ZM51.9257 14.6686V15.7975H58.6986H65.4715V14.6686V13.5397H58.6986H51.9257V14.6686ZM47.4104 20.3132V24.8289H44.024H40.6375V20.3132V15.7975H44.024H47.4104V20.3132ZM51.9257 19.1843V20.3132H56.441H60.9562V19.1843V18.0554H56.441H51.9257V19.1843ZM63.2139 19.1843V20.3132H64.3427H65.4715V19.1843V18.0554H64.3427H63.2139V19.1843ZM17.5701 23.3565L17.8495 24.142L19.0136 24.6072L20.1775 25.0723L20.9112 24.7324L21.6448 24.3926L23.4576 26.2055L25.2703 28.0184L24.9305 28.752L24.5906 29.4858L25.0557 30.6499L25.5209 31.8141L26.3063 32.0935L27.0917 32.3729V34.9892V37.6055L26.3063 37.8849L25.5209 38.1643L25.0557 39.3285L24.5906 40.4925L24.9305 41.2263L25.2703 41.96L23.4576 43.7729L21.6448 45.5858L20.9112 45.246L20.1775 44.9061L19.0136 45.3712L17.8495 45.8364L17.5701 46.6219L17.2907 47.4073H14.6747H12.0586L11.7792 46.6215L11.4998 45.8354L10.3445 45.3667L9.18915 44.8979L8.44681 45.2419L7.70447 45.5858L5.89173 43.7729L4.07899 41.96L4.41876 41.2263L4.75868 40.4925L4.29361 39.3285L3.82839 38.1643L3.04301 37.8849L2.25764 37.6055V34.9892V32.3729L3.04301 32.0935L3.82839 31.8141L4.29361 30.6499L4.75868 29.4858L4.41876 28.752L4.07899 28.0184L5.89173 26.2055L7.70447 24.3926L8.44681 24.7365L9.18915 25.0805L10.3445 24.6117L11.4998 24.1429L11.7792 23.3569L12.0586 22.5711H14.6747H17.2907L17.5701 23.3565ZM51.9257 23.7V24.8289H58.6986H65.4715V23.7V22.5711H58.6986H51.9257V23.7ZM12.7139 26.176C11.1564 26.514 9.5285 27.425 8.32194 28.6339C4.7917 32.1713 4.76263 37.7994 8.25689 41.2688C9.98243 42.9821 11.8724 43.848 14.1678 43.9767C18.286 44.2075 22.0631 41.5763 23.3213 37.5998C23.5686 36.8183 23.6338 36.2732 23.6338 34.9892C23.6338 33.7052 23.5686 33.1601 23.3213 32.3786C21.8998 27.8862 17.281 25.1852 12.7139 26.176ZM16.2914 28.4317C19.905 29.3731 22.151 33.0757 21.237 36.5848C20.5997 39.0319 18.7251 40.9126 16.2914 41.5467C12.7664 42.4649 9.06019 40.2247 8.11776 36.6061C6.86125 31.7814 11.4671 27.1751 16.2914 28.4317ZM13.6164 30.596C12.3151 30.9379 11.1722 31.8766 10.5865 33.0841C10.3082 33.6579 10.2435 34.0137 10.2398 34.9892C10.2356 36.089 10.2751 36.2626 10.7146 37.0778C11.2485 38.0682 11.6913 38.4958 12.7547 39.0484C13.3692 39.3677 13.6518 39.4229 14.6747 39.4229C15.6975 39.4229 15.9801 39.3677 16.5946 39.0484C17.658 38.4958 18.1008 38.0682 18.6347 37.0778C19.0737 36.2636 19.1139 36.0876 19.1111 34.9892C19.1084 33.9699 19.0516 33.6815 18.7335 33.069C18.1836 32.0108 17.7527 31.5619 16.7985 31.0534C15.889 30.5685 14.4874 30.367 13.6164 30.596ZM15.5677 32.9238C17.0174 33.5296 17.3708 35.4305 16.2434 36.5581C14.6581 38.1435 12.0603 36.7235 12.4774 34.4994C12.7267 33.1709 14.2727 32.3827 15.5677 32.9238ZM67.3828 40.9802C67.7292 41.3265 67.7292 41.327 67.7292 44.367V47.4073H51.9257H36.1222V44.367C36.1222 41.327 36.1222 41.3265 36.4686 40.9802L36.8149 40.6338H51.9257H67.0365L67.3828 40.9802ZM38.3799 44.0206V45.1495H39.5087H40.6375V44.0206V42.8916H39.5087H38.3799V44.0206ZM42.8951 44.0206V45.1495H44.024H45.1528V44.0206V42.8916H44.024H42.8951V44.0206ZM47.4104 44.0206V45.1495H48.5392H49.6681V44.0206V42.8916H48.5392H47.4104V44.0206ZM67.7292 58.3501V67.0352L67.3828 67.3815L67.0365 67.7279H51.9257H36.8149L36.4686 67.3815L36.1222 67.0352V58.3501V49.6652H51.9257H67.7292V58.3501ZM38.3799 53.0519V54.1809H45.1528H51.9257V53.0519V51.923H45.1528H38.3799V53.0519ZM54.1833 58.6965V65.4701H59.8274H65.4715V58.6965V51.923H59.8274H54.1833V58.6965ZM63.2139 58.6965V63.2122H59.8274H56.441V58.6965V54.1809H59.8274H63.2139V58.6965ZM15.5677 56.6312C17.0174 57.237 17.3708 59.1378 16.2434 60.2655C14.6581 61.8509 12.0603 60.4308 12.4774 58.2067C12.7267 56.8783 14.2727 56.09 15.5677 56.6312ZM38.3799 57.5676V58.6965H39.5087H40.6375V57.5676V56.4387H39.5087H38.3799V57.5676ZM42.8951 57.5676V58.6965H47.4104H51.9257V57.5676V56.4387H47.4104H42.8951V57.5676ZM38.3799 62.0833V63.2122H45.1528H51.9257V62.0833V60.9544H45.1528H38.3799V62.0833Z" fill="#6A6A6A"/>
</svg>
