<svg width="70" height="70" viewBox="0 0 70 70" fill="none" xmlns="http://www.w3.org/2000/svg">
<path fill-rule="evenodd" clip-rule="evenodd" d="M21.3409 0.358021L20.9827 0.715896V10.5V20.2841L21.3409 20.642L21.6989 21H34.9888H48.2786L48.6366 20.642L48.9948 20.2841V15.9648V11.6455L53.7729 11.7052C59.1106 11.772 59.368 11.8099 61.4689 12.8399C64.3083 14.232 66.4827 16.8817 67.3275 19.9792C67.684 21.2869 67.684 24.2131 67.3275 25.5208C66.4827 28.6183 64.3083 31.268 61.4689 32.6601C59.3915 33.6786 59.0781 33.7266 54.0647 33.7947C51.5971 33.8282 49.5784 33.8056 49.5784 33.7447C49.5784 33.6837 50.2349 31.8862 51.0373 29.75C51.8397 27.6138 52.4963 25.7199 52.4963 25.541C52.4963 25.3622 52.3351 25.0549 52.1381 24.858L51.7801 24.5H38.5294C27.3378 24.5 25.2328 24.5321 24.9838 24.7065C24.7864 24.8446 24.1369 26.3887 23.0203 29.3732L21.3519 33.8333H16.8065C11.8831 33.8333 10.8368 33.9415 8.82231 34.6592C5.34123 35.8994 2.27946 38.8477 0.975293 42.2151C-0.398026 45.7616 -0.319971 49.412 1.20289 52.8536C2.46956 55.7169 5.43913 58.5277 8.42357 59.6889C10.5901 60.5318 11.6829 60.6626 16.5694 60.6648L20.9827 60.6667V64.9753V69.2841L21.3409 69.642L21.6989 70H34.9888H48.2786L48.6366 69.642L48.9948 69.2841V64.9753V60.6667H50.2057H51.4166L51.6022 61.5781C52.2865 64.9372 55.2638 67.885 58.7097 68.6147C63.4067 69.6093 68.1436 66.82 69.6068 62.1979C69.8626 61.3903 69.93 60.8269 69.93 59.5C69.93 58.1731 69.8626 57.6097 69.6068 56.8021C69.1472 55.35 68.338 54.0485 67.1588 52.8643C64.2352 49.9284 59.6068 49.337 56.0013 51.4389C54.8475 52.1115 53.3209 53.6133 52.6683 54.7178C52.1375 55.6162 51.475 57.4289 51.475 57.9827C51.475 58.3255 51.4473 58.3333 50.2349 58.3333H48.9948V54.0247V49.7159L48.6366 49.358L48.2786 49H34.9888H21.6989L21.3409 49.358L20.9827 49.7159V54.0352V58.3545L16.2046 58.2948C10.8669 58.228 10.6095 58.1901 8.50863 57.1601C5.65403 55.7605 3.5063 53.1427 2.6512 50.0208C2.29346 48.7145 2.29288 45.7893 2.65003 44.4792C3.49477 41.3817 5.6692 38.732 8.50863 37.3399C10.586 36.3214 10.8994 36.2734 15.9129 36.2053C18.3802 36.1718 20.3992 36.1944 20.3992 36.2553C20.3992 36.3163 19.7426 38.1138 18.9402 40.25C18.1378 42.3862 17.4812 44.2801 17.4812 44.459C17.4812 44.6378 17.6425 44.9451 17.8394 45.142L18.1974 45.5H31.4482C42.6397 45.5 44.7447 45.4679 44.9937 45.2935C45.1911 45.1554 45.8406 43.6113 46.9572 40.6268L48.6257 36.1667L53.2236 36.1648C58.3121 36.1626 59.3691 36.0388 61.5539 35.1889C66.4931 33.2674 70 28.1027 70 22.75C70 17.207 66.3488 12.0095 61.1552 10.1592C59.1569 9.44738 58.0802 9.33333 53.3556 9.33333H48.9948V5.02469V0.715896L48.6366 0.358021L48.2786 0H34.9888H21.6989L21.3409 0.358021ZM46.6604 10.5V18.6667H34.9888H23.3171V10.5V2.33333H34.9888H46.6604V10.5ZM25.6514 5.83333V7H34.9888H44.3261V5.83333V4.66667H34.9888H25.6514V5.83333ZM25.6514 10.5V11.6667H34.9888H44.3261V10.5V9.33333H34.9888H25.6514V10.5ZM25.6514 15.1667V16.3333H34.9888H44.3261V15.1667V14H34.9888H25.6514V15.1667ZM49.5784 26.9306C49.5784 26.984 48.2163 30.659 46.5514 35.0973L43.5247 43.1667H31.9619C25.6024 43.1667 20.3992 43.1229 20.3992 43.0694C20.3992 43.016 21.7612 39.341 23.4261 34.9027L26.4528 26.8333H38.0157C44.3751 26.8333 49.5784 26.8771 49.5784 26.9306ZM29.1529 30.3333V31.5H37.3231H45.4933V30.3333V29.1667H37.3231H29.1529V30.3333ZM26.8186 35V36.1667H34.9888H43.1589V35V33.8333H34.9888H26.8186V35ZM24.4842 39.6667V40.8333H32.6544H40.8246V39.6667V38.5H32.6544H24.4842V39.6667ZM46.6604 59.5V67.6667H34.9888H23.3171V59.5V51.3333H34.9888H46.6604V59.5ZM62.3381 52.7233C66.0745 53.6961 68.3967 57.5225 67.4518 61.1489C66.4727 64.9063 62.6552 67.2297 59.0168 66.2824C55.2639 65.3053 52.935 61.482 53.8811 57.8511C54.863 54.0827 58.6772 51.7701 62.3381 52.7233ZM25.6514 54.8333V56H34.9888H44.3261V54.8333V53.6667H34.9888H25.6514V54.8333ZM61.3612 58.2938L59.5041 60.15L58.8036 59.4605C58.4185 59.0812 58.0374 58.7708 57.9569 58.7708C57.7649 58.7708 56.4355 60.122 56.4355 60.3171C56.4355 60.4001 57.0179 61.0378 57.7297 61.734C59.5842 63.548 59.3903 63.5962 62.4439 60.5628C63.7934 59.2225 64.8974 58.0552 64.8974 57.9689C64.8974 57.7748 63.5548 56.4375 63.3598 56.4375C63.2819 56.4375 62.3825 57.2728 61.3612 58.2938ZM25.6514 59.5V60.6667H34.9888H44.3261V59.5V58.3333H34.9888H25.6514V59.5ZM25.6514 64.1667V65.3333H34.9888H44.3261V64.1667V63H34.9888H25.6514V64.1667Z" fill="#6A6A6A"/>
</svg>
