<svg width="70" height="70" viewBox="0 0 70 70" fill="none" xmlns="http://www.w3.org/2000/svg">
<path fill-rule="evenodd" clip-rule="evenodd" d="M28.2944 0.185864C26.3604 0.660252 24.884 1.68768 23.5016 3.5208L23.1548 3.98069L22.4347 3.82625C21.3935 3.60301 19.576 3.63502 18.7091 3.89205C17.6096 4.21802 16.9754 4.58051 16.1674 5.34462C14.8981 6.54495 14.1823 7.9729 13.9877 9.69303C13.8964 10.4995 13.8889 10.5113 13.4655 10.5113C13.2291 10.5113 12.5758 10.6388 12.0135 10.7946C7.12135 12.1502 4.63476 17.2663 6.20069 22.754C6.26676 22.9855 6.1141 23.1062 5.2089 23.5392C1.72573 25.205 -0.24868 28.6346 0.0251905 32.5436C0.18032 34.7573 1.0561 36.8181 2.50863 38.3869L3.36075 39.3072L2.7141 40.0291C1.86116 40.9814 1.39796 41.8589 1.06842 43.1473C0.586065 45.0332 0.792221 46.893 1.69071 48.7609C2.52587 50.4972 4.37758 52.0883 5.96198 52.4312C6.20657 52.4842 6.40657 52.5641 6.40657 52.6087C6.40657 52.6531 6.30685 53.2177 6.1851 53.863C5.89973 55.3743 5.99248 57.3956 6.40835 58.7297C6.89262 60.2828 7.47319 61.2359 8.6695 62.4406C10.5388 64.3229 12.6633 65.1512 15.5721 65.1311C16.7109 65.1233 17.444 65.0407 18.2273 64.8318C18.8224 64.6731 19.3212 64.5433 19.3354 64.5433C19.3498 64.5433 19.5688 64.9587 19.822 65.4666C20.496 66.8183 22.1591 68.4554 23.5064 69.0938C26.2229 70.3808 29.2167 70.2815 31.706 68.8215C32.7552 68.2063 33.9487 67.071 34.5782 66.0894L35.0343 65.3784L35.54 66.1578C36.2668 67.2775 37.6793 68.5381 38.8558 69.1169C41.2652 70.3026 43.9482 70.2941 46.4886 69.0928C47.8355 68.4559 49.4983 66.8194 50.173 65.4666C50.4262 64.9589 50.6452 64.5433 50.6596 64.5433C50.6738 64.5433 51.1726 64.6731 51.7676 64.8318C52.5509 65.0407 53.284 65.1233 54.4229 65.1311C56.3211 65.1442 57.4352 64.8994 59.0664 64.1108C59.9865 63.6658 60.446 63.3261 61.3255 62.4406C62.5218 61.2359 63.1024 60.2828 63.5866 58.7297C64.0025 57.3956 64.0952 55.3743 63.8099 53.863C63.6881 53.2177 63.5884 52.6531 63.5884 52.6087C63.5884 52.5641 63.7885 52.4851 64.033 52.4334C64.9375 52.2421 66.3231 51.3874 67.0736 50.5583C69.7794 47.5685 69.8735 42.9235 67.2869 40.0358L66.6342 39.3072L67.4863 38.3869C69.5063 36.2052 70.4047 33.0145 69.8283 30.0688C69.5389 28.5893 68.6278 26.708 67.6976 25.6687C66.9263 24.8071 65.4954 23.7951 64.4108 23.3444C63.8118 23.0956 63.7177 23.0079 63.7887 22.7658C64.135 21.5847 64.2991 20.1795 64.2289 18.9923C64.0755 16.3929 63.3107 14.5816 61.6857 12.9689C61.0872 12.3751 60.2991 11.7561 59.8255 11.5081C58.923 11.0356 57.1964 10.5113 56.5427 10.5113C56.1289 10.5113 56.1251 10.5045 55.9575 9.45119C55.5382 6.81662 53.7715 4.66259 51.4389 3.94211C50.4396 3.63352 48.7013 3.58154 47.5603 3.82625L46.8401 3.98069L46.5018 3.51848C46.3159 3.26432 45.7578 2.65588 45.2618 2.16644C42.5147 -0.543362 38.1045 -0.740066 35.6989 1.73993L35.0793 2.37861L34.5024 1.80176C33.0298 0.32922 30.4488 -0.342692 28.2944 0.185864ZM31.7213 2.5355C32.5352 2.89649 33.2985 3.57688 33.6718 4.27438L33.9715 4.83453L34.0071 30.1792L34.0428 55.5238L33.3231 54.9508C31.7016 53.6596 29.3586 52.9557 27.1364 53.0921C25.655 53.183 23.9483 53.6905 23.0059 54.3203C22.413 54.7165 22.3392 54.8221 22.3023 55.3287C22.2674 55.806 22.3186 55.9398 22.6286 56.1837C23.1163 56.5672 23.3622 56.5494 24.3297 56.0611C28.451 53.9808 33.5482 56.1766 33.9729 60.2153C34.0314 60.7723 33.9889 61.3992 33.8466 62.0763C33.0834 65.7075 30.2773 68.0237 26.9264 67.788C24.2588 67.6006 22.1585 65.9271 21.3206 63.3215C20.8321 61.8022 20.555 61.7078 18.6354 62.4068C14.6295 63.8657 10.5836 62.4973 8.88304 59.1088C8.12996 57.6082 7.9918 55.0527 8.56567 53.2378C8.97209 51.9525 10.3765 50.265 11.7417 49.4216C12.0803 49.2123 12.4323 48.9435 12.5239 48.8242C12.9848 48.2243 12.4239 47.1696 11.6453 47.1722C10.841 47.175 8.83584 48.6716 7.97798 49.9094C7.59098 50.4678 7.57442 50.4756 6.96567 50.3842C5.67703 50.191 4.34146 49.1699 3.67908 47.8715C3.01643 46.5727 2.84269 44.7063 3.25514 43.3167C3.46786 42.5998 4.18086 41.6024 4.92983 40.974L5.57333 40.4341L6.67675 40.6564C7.28359 40.7787 8.35541 40.8787 9.05842 40.8787C10.1446 40.8787 10.391 40.836 10.6973 40.5951C10.9729 40.3784 11.0577 40.1902 11.0577 39.7956C11.0577 38.9242 10.7568 38.7729 8.82066 38.6706C6.4706 38.5465 5.5706 38.2383 4.42286 37.1648C2.84748 35.6913 2.02245 33.4797 2.21219 31.2387C2.47416 28.1438 4.44379 25.8746 7.67593 24.9435C8.57319 24.6851 8.94214 24.2803 8.8301 23.6776C8.79166 23.4705 8.59097 22.8395 8.38427 22.2752C8.05719 21.3823 8.00657 21.0365 7.99412 19.6078C7.98195 18.2183 8.02887 17.8242 8.29946 17.0408C8.68837 15.9148 9.52175 14.6343 10.2313 14.0722C11.3847 13.1589 13.2139 12.5746 14.9477 12.5659C15.3094 12.564 15.5899 12.4656 15.8027 12.2658C16.0806 12.0046 16.1193 11.8393 16.1193 10.9122C16.1193 8.72675 16.9922 7.11208 18.6235 6.27999C19.4481 5.85922 19.6546 5.81148 20.6019 5.82215C21.1837 5.82858 21.8971 5.91681 22.1875 6.01817C22.7027 6.19805 22.7165 6.22035 22.768 6.95477C22.935 9.33916 23.8317 10.4032 24.9396 9.53176C25.279 9.26488 25.3078 9.17542 25.2375 8.60843C25.1946 8.26317 25.0989 7.7037 25.0245 7.36514C24.8485 6.56438 24.9793 5.35597 25.2996 4.82263C25.9253 3.78056 27.5075 2.59952 28.6684 2.30789C29.469 2.10694 31.0143 2.22212 31.7213 2.5355ZM42.2757 2.695C43.3032 3.18539 44.501 4.36261 45.0257 5.39769C45.2166 5.77455 45.4657 6.15989 45.5793 6.25414C45.8891 6.51116 46.4579 6.47492 47.4462 6.13486C48.05 5.92707 48.6748 5.82598 49.3931 5.81955C50.3378 5.81135 50.549 5.86046 51.3715 6.27999C52.9968 7.10894 53.8757 8.72812 53.8757 10.8931C53.8757 12.1773 54.1404 12.5615 55.0281 12.5659C56.7739 12.5744 58.6051 13.1548 59.7522 14.0632C60.9678 15.0259 61.908 17.022 62.0423 18.9254C62.1294 20.1603 61.853 21.8493 61.4006 22.8463C60.8264 24.1114 61.0859 24.5648 62.6669 25.0577C65.0725 25.8076 66.7483 27.4034 67.5023 29.6619C67.8125 30.5911 67.849 32.8336 67.5701 33.834C67.0811 35.5883 65.8293 37.2443 64.3408 38.1058C63.0177 38.8717 63.0412 39.6813 64.4114 40.527C66.4837 41.806 67.3791 43.9968 66.8137 46.4055C66.233 48.8802 64.4874 50.4539 62.3234 50.4539C60.9277 50.4539 60.7159 50.9303 61.2876 52.7832C62.89 57.9771 60.5113 62.1867 55.5574 62.9234C54.2843 63.1129 52.8347 62.9347 51.3909 62.4113C49.4423 61.7051 49.1642 61.7982 48.6743 63.3215C47.8365 65.9271 45.7362 67.6006 43.0686 67.788C40.5428 67.9657 38.1623 66.6228 37.074 64.4065C36.4361 63.1077 36.2337 61.9339 36.231 59.5163L36.2287 57.4302H38.9481H41.6674L41.8345 57.8338C42.0577 58.3722 42.8283 59.1501 43.4557 59.4702C46.3493 60.9463 49.5895 57.8369 48.2187 54.8996C48.0432 54.5234 47.6516 53.9923 47.3488 53.7193C45.6232 52.164 42.7863 52.7627 41.8185 54.8865L41.6567 55.2416H38.9426H36.2287V49.4964V43.7512H39.9157H43.6028L45.0114 44.2954L46.4202 44.8394L46.4295 46.1079C46.4366 47.0839 46.5096 47.5573 46.7468 48.1623C47.1761 49.2572 48.1976 50.3354 49.3358 50.8952C50.1893 51.315 50.3363 51.3431 51.6847 51.3431C52.9996 51.3431 53.1938 51.3085 53.9423 50.9409C56.6233 49.6247 57.7047 46.3358 56.3143 43.7273C55.2534 41.737 52.8579 40.5479 50.7853 40.9826C49.683 41.2138 48.6489 41.7279 48.0188 42.3579L47.469 42.9077L45.7474 42.2351L44.0258 41.5626H40.1273H36.2287V38.2113V34.8599H44.2205H52.2121L52.4378 35.5393C52.9301 37.0215 54.315 38.34 55.8906 38.8265C57.946 39.4614 59.8582 38.9142 61.3717 37.2582C63.2695 35.1819 63.1586 32.0916 61.1128 30.0459C60.7418 29.6749 60.085 29.206 59.6535 29.0037C58.958 28.6777 58.7057 28.636 57.4325 28.636C56.1411 28.636 55.9185 28.6741 55.2271 29.0136C54.102 29.5661 53.2897 30.3442 52.8037 31.3348C52.5723 31.8065 52.3515 32.3002 52.3129 32.4319C52.2471 32.6564 51.7436 32.6713 44.2356 32.6713H36.2287V29.4567V26.2421H40.1253H44.0217L45.7345 25.5589L47.4473 24.8756L48.0062 25.4181C49.9908 27.3438 53.1304 27.3637 55.2435 25.4639C57.9496 23.0311 57.2631 18.4941 53.9423 16.8638C53.1938 16.4963 52.9996 16.4617 51.6847 16.4617C50.3363 16.4617 50.1893 16.4897 49.3358 16.9095C48.1976 17.4694 47.1761 18.5476 46.7468 19.6424C46.5096 20.2475 46.4366 20.7209 46.4295 21.6969L46.4202 22.9653L45.0114 23.5094L43.6028 24.0535H39.9157H36.2287V18.6503V13.2471L38.5201 13.249L40.8114 13.2511L41.1808 13.9208C42.525 16.3584 46.0395 16.2953 47.3377 13.8104C48.2453 12.073 47.5497 9.97017 45.7745 9.08569C44.0261 8.21447 41.8936 8.96312 41.043 10.7467L40.8292 11.1953H38.5199H36.2108L36.254 7.9465C36.2943 4.89896 36.3158 4.66259 36.6002 4.13102C36.996 3.39112 37.9101 2.61895 38.6868 2.36835C39.6833 2.04689 41.2086 2.18573 42.2757 2.695ZM45.1311 11.3215C45.4272 11.6175 45.531 11.8512 45.531 12.2212C45.531 12.9162 44.9265 13.5207 44.2314 13.5207C43.5363 13.5207 42.9318 12.9162 42.9318 12.2212C42.9318 11.8512 43.0356 11.6175 43.3317 11.3215C43.8835 10.7697 44.5793 10.7697 45.1311 11.3215ZM26.5303 12.6429C25.5049 12.9185 24.6165 13.4303 23.5384 14.3663C22.4577 15.3047 21.6957 15.7093 21.0097 15.7093C20.3023 15.7093 19.936 15.537 19.139 14.8291C18.3897 14.1639 18.0137 14.0702 17.509 14.4236C16.4782 15.1456 17.1843 16.4874 19.1288 17.5022C19.6321 17.7649 19.9566 17.8241 20.9072 17.8266C21.932 17.8292 22.1756 17.7788 22.9592 17.4022C23.4483 17.1672 24.2485 16.6231 24.7376 16.193C26.4592 14.6788 27.6796 14.3379 29.3816 14.8958L30.3496 15.2132L30.7242 14.9343C31.5361 14.3299 31.4459 13.463 30.5228 12.996C29.4046 12.4302 27.8366 12.2916 26.5303 12.6429ZM52.8883 18.7943C54.5161 19.4742 55.2014 21.5158 54.3359 23.106C53.259 25.0845 50.3758 25.2359 49.125 23.3798C47.7332 21.3148 49.1343 18.5872 51.5887 18.5831C52.0237 18.5825 52.6085 18.6775 52.8883 18.7943ZM25.4838 19.1913C24.7566 19.9183 25.1784 20.8239 26.3448 21.0404C27.2807 21.2142 27.7916 21.4879 28.1685 22.0171C28.4896 22.4678 28.664 23.5152 28.5162 24.104C28.312 24.918 27.0993 25.8218 26.202 25.8288C25.7154 25.8326 25.148 26.3888 25.148 26.8619C25.148 27.0794 25.3121 27.3849 25.5647 27.6374C25.9556 28.0282 26.0253 28.0483 26.6933 27.9612C28.2046 27.7642 29.5658 26.8424 30.2785 25.533C30.8058 24.5641 30.9188 22.9305 30.534 21.839C30.1675 20.7995 28.9039 19.5341 27.8446 19.1458C26.7477 18.7436 25.9154 18.7596 25.4838 19.1913ZM51.1828 20.6347C50.5348 20.8958 50.3977 21.8193 50.9284 22.3498C51.4675 22.889 52.2415 22.7855 52.5812 22.1286C52.8687 21.5725 52.8322 21.3477 52.3815 20.8968C51.9695 20.4851 51.7005 20.4261 51.1828 20.6347ZM12.2912 23.6766C11.8554 23.9043 11.6468 24.4789 11.8191 24.9768C11.9212 25.2716 12.2309 25.4916 13.2512 25.9937C14.7041 26.7089 15.6874 27.5538 16.4451 28.7383C16.8569 29.3819 17.4946 30.9335 17.4837 31.2648C17.4818 31.3236 17.2338 31.4854 16.9325 31.6243C15.3782 32.3411 13.6022 34.1928 13.6022 35.0966C13.6022 35.6809 14.0354 36.091 14.6527 36.091C14.9956 36.091 15.2579 35.8976 16.1081 35.0169C17.7884 33.2771 19.7187 32.5733 21.813 32.9375C24.6536 33.4311 26.6938 35.5501 27.0883 38.4164C27.2811 39.8172 27.5402 40.1947 28.3083 40.1947C28.9425 40.1947 29.3887 39.7045 29.3887 39.0078C29.3887 37.4595 28.5176 35.0955 27.496 33.8715C25.7945 31.8329 23.6127 30.7684 20.9784 30.6912L19.6131 30.6513L19.3936 29.9118C18.7091 27.6065 16.7636 25.2889 14.6145 24.2187C13.2672 23.5479 12.7631 23.4303 12.2912 23.6766ZM58.6338 30.9686C59.7865 31.4501 60.5015 32.5513 60.4946 33.834C60.4877 35.083 59.865 36.0631 58.7481 36.5832C57.8842 36.9853 57.0249 37 56.2013 36.6267C54.9762 36.0713 54.381 35.1629 54.3717 33.834C54.3627 32.5683 55.0687 31.4648 56.2013 30.9743C56.826 30.7037 57.9931 30.7009 58.6338 30.9686ZM56.7519 33.0572C56.2657 33.5433 56.2249 33.9951 56.6217 34.4995C57.1814 35.2112 58.5269 34.751 58.5269 33.8478C58.5269 33.4149 58.0221 32.8443 57.5385 32.7309C57.2401 32.6607 57.0832 32.7258 56.7519 33.0572ZM20.4148 39.8976C18.7133 41.1316 17.7829 43.3421 18.1451 45.2901C18.6001 47.7362 20.3718 49.4966 22.8111 49.9262C23.7926 50.0991 24.8955 49.9451 25.9623 49.4862C26.7219 49.1595 26.9727 48.8402 26.9551 48.2232C26.9309 47.3699 26.1588 47.0137 25.2268 47.4258C23.8331 48.0423 22.4685 47.8656 21.4388 46.9354C19.767 45.4251 19.9104 42.9646 21.7468 41.6496C22.4193 41.1681 22.6231 40.7043 22.3994 40.1643C22.0851 39.4053 21.2487 39.2929 20.4148 39.8976ZM52.5973 43.2711C53.8854 43.6537 54.6987 44.7766 54.6935 46.1657C54.6866 47.9984 53.4546 49.2228 51.6174 49.2228C49.6258 49.2228 48.153 47.3401 48.663 45.4462C48.9492 44.3832 49.6351 43.6396 50.6689 43.2714C51.3683 43.0222 51.7589 43.0222 52.5973 43.2711ZM50.9284 45.455C50.2936 46.0895 50.6146 47.0819 51.5105 47.255C51.8804 47.3264 52.0176 47.2717 52.3815 46.9079C52.7452 46.5441 52.7999 46.4069 52.7285 46.037C52.5555 45.1412 51.563 44.8203 50.9284 45.455ZM45.5939 55.1798C46.3066 55.518 46.5359 56.2671 46.153 57.0074C45.5672 58.1402 43.7526 57.6822 43.7526 56.4016C43.7526 55.7763 43.9341 55.4372 44.4058 55.1813C44.8841 54.9218 45.0496 54.9215 45.5939 55.1798Z" fill="#6A6A6A"/>
</svg>
