<svg width="70" height="71" viewBox="0 0 70 71" fill="none" xmlns="http://www.w3.org/2000/svg">
<path fill-rule="evenodd" clip-rule="evenodd" d="M20.8203 0.167989C18.8321 0.65648 17.2411 2.18351 16.632 4.18768C16.4806 4.68589 16.4396 6.02606 16.4386 10.5237L16.437 16.228L15.307 16.8147C11.0034 19.0491 7.98813 23.2241 7.23764 27.9874L7.06218 29.1005H5.31177H3.56136V30.2591V31.4178L5.29999 31.4561L7.03848 31.4944L7.27956 32.8597C8.4359 39.4094 13.4172 44.2852 19.9876 45.2985L21.0257 45.4586L21.0641 47.1971L21.1024 48.9356H22.2626H23.4228V47.1847V45.4338L24.6213 45.2618C27.8198 44.8025 30.8088 43.2272 33.1756 40.7533C35.3032 38.5293 36.6548 35.8758 37.125 32.9991C37.2111 32.4725 37.3081 31.9031 37.3406 31.7338C37.3981 31.4334 37.4422 31.426 39.183 31.426H40.9667L40.9269 30.2974L40.8872 29.1689L39.1065 29.1005C37.3287 29.0322 37.3258 29.0315 37.2899 28.6901C37.0379 26.2846 36.0704 23.7031 34.6542 21.6574C33.8247 20.4589 31.9354 18.5963 30.6985 17.7574C28.9719 16.5864 26.2828 15.5586 24.3131 15.3164L23.4913 15.2153L23.4228 13.4373L23.3543 11.6592L22.2282 11.6196L21.1023 11.5799L21.0639 13.3979L21.0257 15.2159L20.1651 15.3107C19.6919 15.3628 19.1833 15.4439 19.0351 15.4908C18.7725 15.5742 18.7656 15.4966 18.7656 12.4208V9.26534H28.08H37.3943V8.10259V6.93984H28.08H18.7656V5.9407C18.7656 5.1358 18.8358 4.8012 19.1263 4.21901C19.5664 3.33696 20.4711 2.63343 21.4366 2.42222C21.9146 2.31757 26.1604 2.28515 35.4824 2.31484L48.8434 2.35724L49.5698 2.7337L50.2961 3.11016L50.9338 2.4069C51.8615 1.38354 51.8579 1.41186 51.1194 0.93855C49.6013 -0.0343298 50.7614 0.0344777 35.4081 0.00739243C24.1767 -0.0124427 21.4319 0.0177888 20.8203 0.167989ZM0.687616 4.78999C0.0262993 5.12418 0.00410926 5.30789 0.00205463 10.4691C-0.000136977 15.5357 0.0434212 15.935 0.622553 16.1569C0.744461 16.2035 3.66382 16.2418 7.10998 16.2418H13.3758L13.6737 15.9253C13.9683 15.6119 13.9715 15.556 13.9715 10.533C13.9715 7.74146 13.9331 5.35782 13.8864 5.23607C13.6585 4.64293 13.3415 4.61421 7.02684 4.6164C2.48966 4.6179 0.944445 4.66017 0.687616 4.78999ZM40.4105 4.78889C39.7281 5.13594 39.727 5.14743 39.7249 12.7946C39.7226 20.6803 39.7126 20.5826 40.561 20.8781C40.8677 20.9848 44.7794 21.0296 53.7876 21.0296C67.4682 21.0296 67.2949 21.038 67.6549 20.3662C67.7556 20.1782 67.8028 17.752 67.8028 12.7703V5.45043L67.4723 5.06659L67.1418 4.68274L53.946 4.6495C43.5339 4.62324 40.6785 4.65265 40.4105 4.78889ZM11.6429 10.4281V13.9163H6.98574H2.32858V10.4281V6.93984H6.98574H11.6429V10.4281ZM65.4415 12.7878L65.4057 18.6357H53.7628H42.1199L42.0842 12.7878L42.0486 6.93984H53.7628H65.4771L65.4415 12.7878ZM4.65716 10.4281V11.5908H6.98574H9.31433V10.4281V9.26534H6.98574H4.65716V10.4281ZM44.4714 9.35658C44.4211 9.40665 44.38 9.92989 44.38 10.5193V11.5908H46.7086H49.0372V10.4281V9.26534H46.8C45.5694 9.26534 44.5215 9.30638 44.4714 9.35658ZM51.5027 10.4281V11.5908H57.3242H63.1457V10.4281V9.26534H57.3242H51.5027V10.4281ZM44.4714 14.0076C44.4211 14.0577 44.38 14.5809 44.38 15.1703V16.2418H53.7628H63.1457V15.0791V13.9163H53.8542C48.7438 13.9163 44.5215 13.9574 44.4714 14.0076ZM21.0942 18.7041V19.7985H22.2585H23.4228V18.6853V17.5722L24.1794 17.6609C25.3524 17.7986 27.3471 18.4965 28.6074 19.21C30.0136 20.0063 31.9427 21.7851 32.8056 23.0815C33.9091 24.7394 34.6166 26.5346 34.9215 28.4507L35.0247 29.1005H33.881H32.7371V30.2632V31.426H33.8329H34.9287V31.9578C34.9287 32.6402 34.346 34.6669 33.8316 35.7737C33.2783 36.9641 32.2185 38.4547 31.236 39.4242L30.4085 40.2406V39.6886C30.4085 37.872 29.5482 35.6096 28.3308 34.2249C27.9152 33.752 26.4521 32.5953 26.1309 32.4856C26.0197 32.4476 26.1716 32.1922 26.5513 31.7789C28.5996 29.5492 28.522 26.1695 26.3706 23.9171C24.4527 21.9089 21.414 21.5578 19.0699 23.0736C18.0647 23.7235 17.4616 24.418 16.9306 25.5374C16.5353 26.3702 16.5055 26.5383 16.5055 27.9377C16.5055 29.3407 16.5346 29.5038 16.9354 30.3485C17.1718 30.8468 17.5879 31.5007 17.8599 31.8015C18.1321 32.1022 18.3547 32.3812 18.3547 32.4213C18.3547 32.4615 18.0898 32.6493 17.766 32.8389C17.0225 33.2741 15.8255 34.498 15.2465 35.415C14.6651 36.3357 14.2653 37.5601 14.1182 38.8695C14.0531 39.4498 13.9561 39.9669 13.9027 40.0184C13.8493 40.0701 13.4348 39.7123 12.9817 39.2233C11.2054 37.3061 10.1732 35.3429 9.64992 32.8876C9.32405 31.3581 9.28241 31.426 10.5471 31.426H11.6429V30.2632V29.1005H10.5342H9.42555L9.52239 28.3823C9.76758 26.5619 10.8639 24.0309 12.1049 22.4201C13.3392 20.8183 15.2906 19.3172 17.1571 18.5341C18.305 18.0524 19.8921 17.6274 20.5806 17.6173L21.0942 17.6098V18.7041ZM51.5104 29.2715L51.5234 35.1878L48.3544 37.9921L45.1853 40.7964L44.0476 41.0183C40.7847 41.6545 38.2904 44.1195 37.5954 47.3945C37.4874 47.9035 37.398 49.0323 37.3966 49.903C37.3932 52.2577 37.2694 52.5311 35.5668 53.9465C34.8305 54.5584 34.9686 55.4976 35.8488 55.8649C36.6212 56.1872 45.4695 56.0625 46.5716 55.7138C49.6682 54.7341 51.7735 52.4403 52.4366 49.3241L52.6802 48.1793L61.0754 38.6792C65.6928 33.4541 69.5886 28.9484 69.7325 28.6664C70.0506 28.044 70.0958 26.1872 69.8098 25.5053C69.5358 24.8525 68.9501 24.2178 68.2336 23.797C67.6754 23.4694 67.4545 23.4235 66.4331 23.4235C65.4112 23.4235 65.1934 23.4688 64.6524 23.7933C64.3134 23.9967 61.7554 26.1777 58.9679 28.64L53.8998 33.1172L53.8638 28.2361L53.8279 23.3551H52.6625H51.4973L51.5104 29.2715ZM23.627 24.7822C26.3291 25.9096 26.3319 29.9449 23.6313 31.17C22.4301 31.715 20.6036 31.3495 19.6983 30.3831C18.5677 29.1761 18.4498 27.1253 19.4387 25.8697C20.4152 24.6299 22.17 24.1741 23.627 24.7822ZM67.2979 26.011C67.6995 26.3828 67.8713 26.8943 67.7527 27.3661C67.682 27.6473 51.6471 45.9426 51.3954 46.0292C51.208 46.0936 47.3561 42.1303 47.4533 41.9731C47.5564 41.8066 64.4932 26.8512 65.3995 26.1266C66.0972 25.5686 66.7752 25.5273 67.2979 26.011ZM24.6641 34.3857C26.3261 35.1655 27.5894 36.8142 27.9401 38.6612C28.0171 39.0661 28.08 39.9321 28.08 40.5856V41.7738L27.1711 42.1465C26.2248 42.5346 24.2646 43.0509 23.731 43.0525C23.437 43.0535 23.4228 43.0031 23.4228 41.9591V40.8648H22.2585H21.0942V41.9591C21.0942 42.9698 21.0728 43.0535 20.8145 43.0535C20.2146 43.0535 18.4462 42.613 17.4998 42.2279C16.9529 42.0054 16.4902 41.823 16.4713 41.8227C16.4524 41.8226 16.437 41.0946 16.437 40.2052C16.437 38.0107 16.7993 36.9634 18.0001 35.6867C19.2507 34.3569 20.4471 33.8783 22.3955 33.9285C23.5981 33.9595 23.8749 34.0154 24.6641 34.3857ZM47.6951 45.7552L50.2542 48.3201L50.1293 48.9694C49.6715 51.3499 47.6463 53.2189 45.1334 53.5802C44.022 53.74 39.1728 53.7731 39.1795 53.6208C39.1819 53.5643 39.3032 53.1797 39.4489 52.7659C39.6522 52.1887 39.7155 51.6312 39.7208 50.372C39.7288 48.4573 39.9712 47.1507 40.4976 46.1847C40.9322 45.3873 42.1835 44.1762 42.9574 43.8038C43.5054 43.5401 44.5636 43.2159 44.9293 43.1994C45.043 43.1944 46.2877 44.3445 47.6951 45.7552ZM16.437 49.5457V52.4923H8.6189H0.800758L0.400379 52.8921L0 53.292V58.2361C0 63.2825 0.0253405 63.5529 0.535985 63.9444C0.703369 64.0727 3.81326 64.1121 14.0483 64.1154C27.2176 64.1198 27.3462 64.1172 27.6415 63.8424C27.8055 63.6898 27.9738 63.4283 28.0154 63.261C28.0572 63.0938 28.0734 60.7509 28.0513 58.0546L28.0115 53.1523L27.6271 52.8222L27.2428 52.4923H23.0069H18.7711L18.7341 49.5854L18.6971 46.6785L17.5671 46.6389L16.437 46.5991V49.5457ZM51.4718 56.0147L51.4343 58.306L40.9214 58.341L30.4085 58.3761V59.538V60.6999H40.9724H51.536L51.4797 62.7942C51.4271 64.746 51.3976 64.9414 51.0435 65.6642C50.8344 66.0907 50.4363 66.6278 50.1585 66.8576C49.1269 67.7113 49.6069 67.6867 34.7797 67.6455C19.5883 67.6032 20.7957 67.6928 19.6921 66.5264L19.134 65.9365L18.1965 66.4763C17.6808 66.7732 17.2589 67.0888 17.2589 67.1777C17.2589 67.4837 18.4614 68.7033 19.1949 69.1412C20.6829 70.0294 20.18 70.0019 34.9389 70.0019C43.4128 70.0019 48.5853 69.951 49.0528 69.8631C51.4411 69.4136 53.3834 67.3145 53.7033 64.8369C53.7687 64.3296 53.8243 61.6216 53.8268 58.819L53.8313 53.7234H52.6703H51.5093L51.4718 56.0147ZM25.7514 58.306V61.7943H14.04H2.32858V58.306V54.8178H14.04H25.7514V58.306ZM4.65716 58.306V59.4688H7.60213H10.5471V58.306V57.1433H7.60213H4.65716V58.306ZM12.8757 58.306V59.4688H18.1492H23.4228V58.306V57.1433H18.1492H12.8757V58.306ZM33.9699 64.1882V65.3509H35.1342H36.2985V64.1882V63.0254H35.1342H33.9699V64.1882Z" fill="#6A6A6A"/>
</svg>
