<svg width="64" height="71" viewBox="0 0 64 71" fill="none" xmlns="http://www.w3.org/2000/svg">
<path fill-rule="evenodd" clip-rule="evenodd" d="M5.0333 0.189041C3.07011 0.675404 1.51057 2.16977 0.930231 4.12055C0.742309 4.75199 0.71875 8.20096 0.71875 35C0.71875 61.799 0.742309 65.248 0.930231 65.8794C1.52605 67.8824 3.1842 69.4203 5.21122 69.85C5.72403 69.9587 10.3888 70.0039 21.1052 70.0039C37.6518 70.0039 37.0657 70.0301 38.5496 69.2238C39.8426 68.5214 40.922 67.0376 41.2448 65.5191C41.3478 65.0341 41.3988 62.374 41.3988 57.4759C41.3988 50.5803 41.4126 50.16 41.6384 50.2017C41.8077 50.2328 42.0187 50.6577 42.3563 51.6473L42.8343 53.0489H45.9188H49.0032L49.4812 51.6624L49.9594 50.2759L50.7494 50.0357C51.1839 49.9034 52.0832 49.5374 52.7479 49.2221L53.9563 48.6488L55.2324 49.2885L56.5084 49.9283L58.6906 47.7499L60.8728 45.5714L60.231 44.2956L59.589 43.0197L60.1311 41.9154C60.4292 41.3081 60.8091 40.3985 60.9754 39.8941L61.2777 38.977L62.6382 38.5318L63.9988 38.0868V35V31.9132L62.6382 31.4682L61.2777 31.0229L60.9754 30.1059C60.8091 29.6015 60.4292 28.6919 60.1311 28.0845L59.589 26.9803L60.231 25.7044L60.8728 24.4285L58.6906 22.2501L56.5084 20.0717L55.2324 20.7114L53.9563 21.3512L52.7479 20.7779C52.0832 20.4626 51.1839 20.0965 50.7494 19.9643L49.9594 19.7241L49.4812 18.3376L49.0032 16.9511H45.9188H42.8343L42.3563 18.3526C42.0187 19.3423 41.8077 19.7671 41.6384 19.7983C41.4126 19.84 41.3988 19.4197 41.3988 12.5241C41.3988 7.626 41.3478 4.96584 41.2448 4.48085C40.922 2.96242 39.8426 1.47858 38.5496 0.776177C37.0633 -0.0315105 37.6689 -0.00498411 20.9957 0.00773215C9.32538 0.0166198 5.55638 0.0594176 5.0333 0.189041ZM37.2212 2.6456C38.4513 3.22481 39.0563 4.24744 39.1083 5.8356L39.1388 6.76444H21.0588H2.97875L2.93588 6.24635C2.86849 5.43046 3.16284 4.30528 3.6021 3.70009C4.00178 3.14919 4.80387 2.54975 5.31463 2.41999C5.46119 2.3828 12.5461 2.34575 21.0588 2.33781L36.5363 2.32332L37.2212 2.6456ZM39.1745 14.8633L39.1388 20.706L38.5461 21.0323C37.9618 21.3541 37.9459 21.3553 37.4161 21.1167L36.8787 20.8748V16.1099V11.345H21.0588H5.23875V33.9061V56.4672H21.0588H36.8787V52.7962V49.1251L37.4161 48.8833C37.9459 48.6447 37.9618 48.6459 38.5461 48.9676L39.1388 49.2939L39.1748 53.9744L39.2108 58.655H21.0605H2.91027V33.8377V9.02055H21.0603H39.2101L39.1745 14.8633ZM34.6553 17.143L34.6919 20.6846L32.8302 22.5603L30.9685 24.4359L31.6106 25.7125L32.2529 26.9889L31.8068 27.8838C31.5615 28.3759 31.1936 29.2708 30.9891 29.8725L30.6175 30.9663L29.2282 31.4437L27.8388 31.9209V35V38.0791L29.2282 38.5563L30.6175 39.0336L30.9891 40.1275C31.1936 40.7291 31.5615 41.6241 31.8068 42.1162L32.2529 43.0111L31.6106 44.2875L30.9685 45.5641L32.8279 47.4373L34.6872 49.3106V51.7266V54.1427H21.0588H7.43027V33.8371V13.5314L21.0245 13.5663L34.6188 13.6011L34.6553 17.143ZM47.7552 20.3695C47.9743 21.0087 48.1693 21.5519 48.1885 21.5768C48.2078 21.6016 48.7065 21.7442 49.2968 21.8935C50.2782 22.1419 52.6083 23.1676 53.4591 23.7257C53.7985 23.9483 53.8415 23.9384 54.9526 23.3808L56.0966 22.8065L57.1149 23.8231L58.1333 24.8397L57.5651 25.9678L56.997 27.0957L57.488 27.9185C58.1438 29.0177 58.7447 30.4515 59.0717 31.6975C59.2191 32.2593 59.3556 32.7302 59.3749 32.744C59.3944 32.7578 59.9342 32.948 60.5745 33.1667L61.7388 33.5643V35V36.4357L60.5745 36.8333C59.9342 37.052 59.3944 37.2422 59.3749 37.256C59.3556 37.2698 59.2191 37.7407 59.0717 38.3025C58.7447 39.5484 58.1438 40.9822 57.488 42.0814L56.997 42.9043L57.5651 44.0322L58.1333 45.1603L57.1149 46.1769L56.0966 47.1935L54.9526 46.6192C53.8415 46.0616 53.7985 46.0516 53.4591 46.2743C52.6083 46.8324 50.2782 47.858 49.2968 48.1065C48.7065 48.2558 48.2078 48.3984 48.1885 48.4232C48.1693 48.448 47.9743 48.9913 47.7552 49.6305L47.3569 50.7928H45.9188H44.4806L44.0823 49.6305C43.8632 48.9913 43.6689 48.4486 43.6504 48.4245C43.6319 48.4006 43.2565 48.2896 42.816 48.178C41.5449 47.8559 40.3124 47.3544 39.1346 46.6804L38.043 46.0555L36.8901 46.6227L35.7374 47.19L34.7226 46.1769L33.7078 45.1638L34.2761 44.0131L34.8442 42.8622L34.2154 41.7683C33.5075 40.5369 33.1298 39.6072 32.7747 38.2231L32.5319 37.2757L31.3153 36.8557L30.0988 36.4357V35V33.5643L31.3153 33.1442L32.5319 32.7243L32.7747 31.7769C33.1298 30.3927 33.5075 29.4631 34.2154 28.2317L34.8442 27.1378L34.2761 25.9869L33.7078 24.8361L34.7244 23.8213L35.7409 22.8065L36.8814 23.379L38.0218 23.9513L38.5118 23.6601C40.0303 22.7574 41.4909 22.1495 43.1196 21.7424C43.6444 21.6111 43.6903 21.5582 43.9224 20.8155C44.0577 20.3822 44.252 19.8255 44.3539 19.5785L44.5392 19.1291L45.9481 19.1683L47.3569 19.2072L47.7552 20.3695ZM44.7234 23.7951C40.2385 24.2524 36.4818 27.3932 35.0768 31.8599C34.7978 32.7469 34.7557 33.1583 34.7557 35C34.7557 37.3365 34.9554 38.2793 35.812 39.986C38.8677 46.0742 46.5495 48.129 52.2102 44.3724C55.6613 42.082 57.6358 37.8208 57.139 33.7352C56.3857 27.5387 50.9202 23.1629 44.7234 23.7951ZM18.7608 25.9448L17.978 26.7344L19.2102 27.9587C19.8879 28.6322 20.4424 29.2305 20.4424 29.2885C20.4424 29.3465 18.0386 29.3939 15.1006 29.3939H9.75875V30.4878V31.5816H17.8731H25.9875L22.7709 28.3684C21.0018 26.6011 19.5518 25.1551 19.5489 25.1551C19.5459 25.1551 19.1913 25.5105 18.7608 25.9448ZM48.7561 26.4458C51.3996 27.2892 53.5328 29.4026 54.5146 32.1511C54.8336 33.0443 54.8727 33.356 54.8727 35C54.8727 36.6439 54.8336 36.9557 54.5146 37.8488C53.536 40.588 51.419 42.6896 48.7561 43.5651C47.7965 43.8806 47.389 43.9364 45.9872 43.9444C44.179 43.955 43.354 43.7741 41.8781 43.0439C40.064 42.1464 38.7637 40.8161 37.8244 38.8969C35.543 34.2352 37.6465 28.7139 42.4815 26.6725C44.3655 25.877 46.7078 25.7925 48.7561 26.4458ZM44.7545 30.6499C44.008 30.856 42.8762 31.5955 42.4463 32.1582C41.1322 33.8781 41.1322 36.1219 42.4463 37.8417C42.928 38.4722 44.0517 39.1619 44.9402 39.3726C46.9656 39.8527 49.1774 38.7447 50.0729 36.8016C50.4894 35.8979 50.4894 34.1021 50.0729 33.1984C49.6653 32.3137 48.8087 31.4289 47.9306 30.9855C47.079 30.5553 45.646 30.404 44.7545 30.6499ZM47.1581 33.1203C47.8069 33.5569 48.1419 34.1968 48.1419 35C48.1419 35.8074 47.8072 36.4419 47.1441 36.8916C46.7485 37.1598 46.5381 37.2035 45.8444 37.1608C44.4048 37.0725 43.6386 36.2056 43.7556 34.7976C43.8608 33.5315 44.6653 32.8213 46.0012 32.8154C46.5032 32.8131 46.8291 32.8991 47.1581 33.1203ZM14.2788 35V36.0939H15.3745H16.4703V35V33.9061H15.3745H14.2788V35ZM18.7987 35V36.0939H19.8945H20.9903V35V33.9061H19.8945H18.7987V35ZM23.3188 35V36.0939H24.4145H25.5103V35V33.9061H24.4145H23.3188V35ZM9.75875 39.5122V40.6061H15.1006C18.0386 40.6061 20.4424 40.6511 20.4424 40.706C20.4424 40.761 19.8872 41.3625 19.2088 42.0426L17.9752 43.2792L18.7662 44.0607L19.5572 44.842L22.7722 41.6302L25.9875 38.4183H17.8731H9.75875V39.5122ZM39.1794 62.9963C39.1093 65.2835 38.8604 66.1242 38.0401 66.8431C37.0197 67.7376 38.0192 67.6909 20.7848 67.649L5.17027 67.611L4.58746 67.2328C3.82002 66.7348 3.23844 65.9122 3.0571 65.0678C2.97628 64.6919 2.91027 63.6183 2.91027 62.6819V60.9794H21.0757H39.2412L39.1794 62.9963ZM17.703 64.3294V65.4917H21.0588H24.4145V64.3294V63.1672H21.0588H17.703V64.3294Z" fill="#6A6A6A"/>
</svg>
