<svg width="70" height="70" viewBox="0 0 70 70" fill="none" xmlns="http://www.w3.org/2000/svg">
<path fill-rule="evenodd" clip-rule="evenodd" d="M20.7986 0.113704C19.8907 0.330053 18.5684 1.11058 17.9248 1.80988C17.5974 2.16574 17.1217 2.89615 16.868 3.43272L16.4064 4.40856L16.3662 17.3895L16.3259 30.3703L15.637 30.2685C14.7773 30.1413 13.3738 29.4074 12.8908 28.8324C12.69 28.5932 12.3515 28.0619 12.1386 27.6514C11.8086 27.0153 11.7516 26.7226 11.7516 25.6637C11.7516 24.5844 11.8058 24.3169 12.1668 23.6185C12.3951 23.1766 12.975 22.4374 13.4553 21.9761C14.2582 21.2048 14.3213 21.0986 14.2369 20.6614C14.1193 20.052 13.6618 19.6743 13.0415 19.6743C12.6452 19.6743 12.3759 19.8398 11.6221 20.5462C10.5919 21.5114 9.90213 22.6615 9.5568 23.9899C8.54166 27.8941 11.2575 31.9397 15.3243 32.5812L16.3335 32.7404V36.214V39.6877H15.8329C15.271 39.6877 15.3119 39.766 14.9396 37.9782C14.6504 36.5893 14.4421 36.3371 13.271 35.9599C12.8299 35.8178 11.9451 35.4484 11.3048 35.1391C10.554 34.7764 10.0363 34.6094 9.84643 34.6689C9.6847 34.7194 9.05353 35.0807 8.44395 35.4713C7.83437 35.8621 7.27889 36.1817 7.20933 36.1817C7.13991 36.1817 6.77548 35.8781 6.39952 35.5072L5.71586 34.8328L6.4459 33.7177C7.54358 32.0408 7.53673 32.0883 6.88062 30.718C6.56912 30.0674 6.16765 29.0905 5.98856 28.5474C5.80948 28.0042 5.55369 27.5023 5.42011 27.432C5.28652 27.3619 4.53738 27.1572 3.75543 26.9773L2.33356 26.6502V25.6637V24.6772L3.74872 24.3495C4.52717 24.1694 5.28171 23.9482 5.42565 23.8582C5.56944 23.7683 5.82829 23.2666 6.00067 22.7436C6.17319 22.2205 6.56912 21.26 6.88062 20.6094C7.53673 19.2391 7.54358 19.2866 6.4459 17.6097L5.71586 16.4946L6.39952 15.8202C6.77548 15.4492 7.13991 15.1457 7.20933 15.1457C7.27889 15.1457 7.83437 15.4653 8.44395 15.8561C9.05353 16.2467 9.6847 16.608 9.84643 16.6585C10.0363 16.718 10.554 16.551 11.3048 16.1884C11.9451 15.8792 12.9019 15.4831 13.431 15.3084C14.0703 15.0972 14.4501 14.8819 14.5627 14.6664C14.8831 14.0533 15.588 10.4471 15.4556 10.0981C15.2987 9.68465 14.763 9.30235 14.3404 9.30235C13.6403 9.30235 13.2923 9.85557 12.954 11.5066L12.6371 13.0536L11.3602 13.5941L10.0833 14.1348L8.7098 13.2524C7.85041 12.7004 7.18031 12.3701 6.91971 12.3701C6.58225 12.3701 6.1764 12.6975 4.78296 14.0933C3.38137 15.4973 3.06272 15.8945 3.06272 16.2379C3.06272 16.5041 3.38909 17.1704 3.94793 18.0454L4.83328 19.4313L4.39928 20.3929C4.16055 20.9215 3.92532 21.4911 3.87647 21.6585C3.80457 21.9048 3.55914 22.0106 2.58672 22.2144C1.9261 22.3527 1.17258 22.5331 0.912124 22.6152C0.0772313 22.8782 0.000231493 23.1359 0.000231493 25.6637C0.000231493 28.6584 -0.0764768 28.5553 2.56281 29.1079L3.73997 29.3543L4.28217 30.6396L4.82438 31.9247L3.94355 33.3005C3.39245 34.1614 3.06272 34.8326 3.06272 35.0937C3.06272 35.4317 3.38953 35.8383 4.78296 37.2341C6.1764 38.6299 6.58225 38.9573 6.91971 38.9573C7.18031 38.9573 7.85041 38.627 8.7098 38.0749L10.0833 37.1926L11.3602 37.7332L12.6371 38.2738L12.954 39.8208C13.3697 41.8497 13.5461 42.025 15.1708 42.025H16.3252L16.3659 53.829L16.4064 65.633L16.9511 66.7366C17.6071 68.0662 18.4516 68.8943 19.8072 69.5376L20.7814 70H35.0001H49.2188L50.193 69.5376C51.5486 68.8943 52.3932 68.0662 53.0491 66.7366L53.5938 65.633L53.634 52.6443L53.6743 39.6557L54.3587 39.7584C55.1278 39.874 56.1798 40.3658 56.83 40.9138C57.0685 41.1149 57.4859 41.6939 57.7575 42.2002C58.1987 43.0234 58.2514 43.2445 58.2556 44.292C58.2599 45.3255 58.2043 45.5776 57.7823 46.4366C57.4568 47.0992 57.0725 47.6042 56.5784 48.0187C56.1793 48.3534 55.8148 48.7782 55.7686 48.9625C55.6704 49.3542 56.0305 50.13 56.3712 50.2611C57.0282 50.5136 57.4503 50.3493 58.3781 49.4798C59.4083 48.5146 60.0981 47.3645 60.4434 46.0362C61.4585 42.132 58.7427 38.0863 54.6759 37.4449L53.6667 37.2856V33.8121V30.3384H54.1674C54.7292 30.3384 54.6883 30.2601 55.0606 32.0478C55.3498 33.4368 55.5582 33.6889 56.7292 34.0661C57.1703 34.2083 58.0551 34.5777 58.6955 34.887C59.4462 35.2497 59.9639 35.4167 60.1538 35.3572C60.3155 35.3067 60.9467 34.9454 61.5563 34.5548C62.1658 34.164 62.7212 33.8444 62.7903 33.8444C62.9625 33.8444 64.1667 35.0405 64.1667 35.2114C64.1667 35.2871 63.8476 35.8486 63.4575 36.4593C63.0675 37.0699 62.7069 37.7021 62.6564 37.8641C62.5971 38.0543 62.7638 38.5729 63.1257 39.325C63.4344 39.9664 63.8334 40.9355 64.0122 41.4787C64.191 42.0218 64.4465 42.5235 64.5801 42.5932C64.7137 42.663 65.4627 42.865 66.2448 43.0419L67.6667 43.3637V44.3624V45.361L66.2448 45.6828C65.4627 45.8597 64.7137 46.0618 64.5801 46.1316C64.4465 46.2013 64.1907 46.7029 64.0117 47.2461C63.8326 47.7892 63.4311 48.766 63.1196 49.4167C62.4635 50.787 62.4566 50.7395 63.5543 52.4164L64.2844 53.5314L63.6007 54.2059C63.2247 54.5768 62.8603 54.8804 62.7909 54.8804C62.7213 54.8804 62.1658 54.5607 61.5563 54.17C60.9467 53.7793 60.3155 53.4181 60.1538 53.3675C59.9639 53.3081 59.4462 53.475 58.6955 53.8376C58.0551 54.1469 57.0983 54.5429 56.5692 54.7176C55.9299 54.9289 55.5501 55.1442 55.4376 55.3597C55.1172 55.9728 54.4122 59.579 54.5446 59.928C54.7015 60.3414 55.2372 60.7237 55.6598 60.7237C56.3629 60.7237 56.7076 60.1718 57.051 58.4962C57.3179 57.1932 57.4235 56.9112 57.6707 56.8389C57.8346 56.7911 58.406 56.5538 58.9405 56.3117L59.9121 55.8714L61.2871 56.7637C62.1558 57.3274 62.8158 57.656 63.0795 57.656C63.4181 57.656 63.8221 57.3303 65.2172 55.9328C66.6188 54.5287 66.9375 54.1315 66.9375 53.7881C66.9375 53.5222 66.6129 52.8581 66.0586 51.9904L65.1796 50.6144L65.7281 49.3144C66.0718 48.4999 66.3591 48.0131 66.4977 48.0108C66.6193 48.0088 67.3387 47.8522 68.0963 47.6627C70.0264 47.1802 70 47.226 70 44.3624C70 41.4987 70.0264 41.5446 68.0963 41.062C67.3387 40.8726 66.6193 40.716 66.4977 40.7139C66.3591 40.7116 66.0712 40.2235 65.7262 39.4058L65.1758 38.1014L66.0567 36.7256C66.6078 35.8647 66.9375 35.1934 66.9375 34.9324C66.9375 34.5944 66.6107 34.1878 65.2172 32.792C63.8238 31.3961 63.418 31.0688 63.0805 31.0688C62.8196 31.0688 62.1472 31.4008 61.2805 31.9575L59.897 32.8463L58.9329 32.4095C58.4026 32.1694 57.8346 31.9336 57.6707 31.8858C57.4235 31.8135 57.3179 31.5316 57.051 30.2285C56.6299 28.1735 56.4578 28.001 54.8294 28.001H53.675L53.6343 16.197L53.5938 4.39307L53.0491 3.28941C52.3932 1.95991 51.5486 1.13176 50.193 0.488407L49.2188 0.0260534L35.2918 0.00238782C27.1884 -0.011344 21.128 0.0352567 20.7986 0.113704ZM48.9102 2.46798C49.7113 2.70508 50.9194 3.91523 51.156 4.71767C51.4139 5.59183 51.4139 64.4342 51.156 65.3084C50.9194 66.1108 49.7113 67.321 48.9102 67.5581C48.0454 67.814 21.9548 67.814 21.09 67.5581C20.2889 67.321 19.0809 66.1108 18.8442 65.3084C18.5863 64.4342 18.5863 5.59183 18.8442 4.71767C19.0636 3.97352 20.2844 2.70727 21.0002 2.48128C21.7659 2.23951 48.0959 2.22695 48.9102 2.46798ZM30.6915 4.98632C30.4657 5.21231 30.3335 5.51178 30.3335 5.79635C30.3335 6.08092 30.4657 6.38039 30.6915 6.60638L31.0493 6.96501H35.0001H38.9509L39.3087 6.60638C39.5345 6.38039 39.6668 6.08092 39.6668 5.79635C39.6668 5.51178 39.5345 5.21231 39.3087 4.98632L38.9509 4.62768H35.0001H31.0493L30.6915 4.98632ZM58.6914 9.66098C57.9899 10.3635 58.3434 11.542 59.3119 11.7294C59.7036 11.8052 59.8523 11.7475 60.2233 11.3759C60.528 11.0707 60.6667 10.789 60.6667 10.4755C60.6667 9.87032 60.1019 9.30235 59.5 9.30235C59.2159 9.30235 58.917 9.43485 58.6914 9.66098ZM58.6914 14.3357C57.9899 15.0382 58.3434 16.2166 59.3119 16.404C59.7036 16.4799 59.8523 16.4222 60.2233 16.0505C60.528 15.7454 60.6667 15.4637 60.6667 15.1502C60.6667 14.545 60.1019 13.977 59.5 13.977C59.2159 13.977 58.917 14.1095 58.6914 14.3357ZM58.6914 19.0103C57.9899 19.7128 58.3434 20.8913 59.3119 21.0787C59.7036 21.1545 59.8523 21.0968 60.2233 20.7252C60.528 20.42 60.6667 20.1384 60.6667 19.8249C60.6667 19.2197 60.1019 18.6517 59.5 18.6517C59.2159 18.6517 58.917 18.7842 58.6914 19.0103ZM25.9993 31.8401C23.5754 34.2681 23.3335 34.5561 23.3335 35.013C23.3335 35.47 23.5754 35.7579 25.9993 38.186C28.3681 40.5588 28.7182 40.8564 29.1413 40.8564C29.7767 40.8564 30.3335 40.3018 30.3335 39.6691C30.3335 39.26 30.0647 38.9275 28.2619 37.106L26.1902 35.013L28.2619 32.9201C30.0647 31.0986 30.3335 30.7661 30.3335 30.3569C30.3335 29.7242 29.7767 29.1697 29.1413 29.1697C28.7182 29.1697 28.3681 29.4673 25.9993 31.8401ZM35.4453 29.4262C35.1906 29.6329 34.8901 30.6353 33.9018 34.5757C33.2269 37.2668 32.673 39.6195 32.6707 39.8038C32.6652 40.2786 33.2908 40.8564 33.8107 40.8564C34.7172 40.8564 34.7795 40.7093 36.0984 35.4504C36.7733 32.7593 37.3272 30.4066 37.3295 30.2222C37.3394 29.3914 36.1221 28.8772 35.4453 29.4262ZM40.0248 29.5283C39.793 29.7605 39.6668 30.0526 39.6668 30.3569C39.6668 30.7661 39.9355 31.0986 41.7383 32.9201L43.81 35.013L41.7383 37.106C39.9355 38.9275 39.6668 39.26 39.6668 39.6691C39.6668 40.3018 40.2235 40.8564 40.8589 40.8564C41.282 40.8564 41.6321 40.5588 44.0009 38.186C46.4248 35.7579 46.6667 35.47 46.6667 35.013C46.6667 34.5561 46.4248 34.2681 44.0009 31.8401C41.6321 29.4673 41.282 29.1697 40.8589 29.1697C40.5477 29.1697 40.2585 29.294 40.0248 29.5283ZM10.1148 48.8911C9.32989 49.205 9.07774 50.3524 9.67099 50.9107C10.2428 51.4487 11.1016 51.3152 11.4535 50.6334C11.7509 50.0574 11.7204 49.6966 11.3387 49.2762C10.9495 48.8473 10.5437 48.7196 10.1148 48.8911ZM10.1148 53.5658C9.32989 53.8797 9.07774 55.027 9.67099 55.5854C10.2428 56.1234 11.1016 55.9899 11.4535 55.3081C11.7509 54.7321 11.7204 54.3713 11.3387 53.9508C10.9495 53.5219 10.5437 53.3943 10.1148 53.5658ZM10.1148 58.2404C9.32989 58.5544 9.07774 59.7017 9.67099 60.26C10.2428 60.7981 11.1016 60.6645 11.4535 59.9828C11.7509 59.4068 11.7204 59.0459 11.3387 58.6255C10.9495 58.1966 10.5437 58.0689 10.1148 58.2404Z" fill="#6A6A6A"/>
</svg>
