<svg width="67" height="71" viewBox="0 0 67 71" fill="none" xmlns="http://www.w3.org/2000/svg">
<path fill-rule="evenodd" clip-rule="evenodd" d="M15.6181 0.192643C13.8269 0.755187 12.6608 2.06368 12.3254 3.8874C12.2273 4.42068 12.1769 7.90535 12.1769 14.1515V23.6082L6.61169 27.4669C2.43407 30.3636 0.959104 31.4585 0.696038 31.858C-0.229387 33.2633 -0.0632189 35.1155 1.09247 36.2771C1.29865 36.4841 3.87692 38.3222 6.82208 40.3615L12.1769 44.0694V54.6952C12.1769 61.7544 12.2266 65.5933 12.3248 66.1325C12.6125 67.7118 13.5311 68.8917 15.0185 69.5927L15.7833 69.9531L32.855 69.9893C48.0709 70.0217 50.0068 70.0022 50.6652 69.8099C52.4393 69.2915 53.6032 67.9849 53.9448 66.1282C54.0438 65.5895 54.0932 61.7872 54.0932 54.7009V44.0809L59.4348 40.3765C62.3728 38.339 64.9686 36.4669 65.2035 36.2161C65.9146 35.4567 66.1299 34.9076 66.1329 33.8453C66.1351 33.0376 66.0726 32.7732 65.7329 32.1556C65.274 31.3211 65.5081 31.4993 58.6183 26.7364L54.0932 23.6083V14.1515C54.0932 7.90535 54.0429 4.42068 53.9448 3.8874C53.6048 2.03934 52.4511 0.737406 50.6871 0.210834C50.0408 0.0179854 48.1055 -0.00485557 33.0763 0.00335076C19.5117 0.0107364 16.0788 0.0479384 15.6181 0.192643ZM22.8601 4.27884C24.2091 5.66968 24.9641 6.33918 25.4459 6.57224L26.1263 6.90117H33.1351H40.1438L40.9312 6.50043C41.5329 6.19434 42.1381 5.65381 43.4964 4.2095L45.2741 2.31931H47.5454C49.6325 2.31931 49.8653 2.3442 50.416 2.62705C51.1218 2.98949 51.479 3.43824 51.6494 4.17627C51.7175 4.47142 51.7746 8.65186 51.7764 13.4662L51.7797 22.2196L51.3033 22.6016C50.9107 22.9164 50.827 23.0741 50.827 23.4979C50.827 23.9063 50.9253 24.1081 51.3033 24.4764L51.7797 24.9403V33.8651V42.7899L51.3374 43.1266C51.094 43.3118 46.9756 46.1806 42.1852 49.502C34.7107 54.684 33.4173 55.5336 33.067 55.4913C32.7999 55.4592 29.602 53.3232 23.8128 49.3101C18.9475 45.9374 14.8597 43.0842 14.7286 42.9697C14.5064 42.7754 14.4905 42.1666 14.4905 33.8509V24.9403L14.9668 24.4764C15.3448 24.1081 15.4431 23.9063 15.4431 23.4979C15.4431 23.0741 15.3594 22.9164 14.9668 22.6016L14.4905 22.2196L14.4937 13.4662C14.4955 8.65186 14.5527 4.47142 14.6207 4.17627C14.7911 3.43824 15.1483 2.98949 15.8541 2.62705C16.4035 2.34502 16.641 2.31917 18.7041 2.31699L20.9548 2.31452L22.8601 4.27884ZM41.7015 2.69543C39.8603 4.81308 40.6018 4.64444 33.1351 4.64444C25.6684 4.64444 26.4098 4.81308 24.5686 2.69543L24.2416 2.31931H33.1351H42.0285L41.7015 2.69543ZM32.0882 9.82522C31.6391 10.1171 31.2315 10.4605 31.1826 10.5887C30.9937 11.0835 31.0961 11.6347 31.4417 11.982C31.7358 12.2775 31.8676 12.3178 32.2922 12.2418C32.5687 12.1925 32.9479 12.152 33.1351 12.152C33.3222 12.152 33.7015 12.1925 33.9779 12.2418C34.4025 12.3178 34.5344 12.2775 34.8285 11.982C35.174 11.6347 35.2765 11.0835 35.0876 10.5887C34.9791 10.3049 33.455 9.29469 33.1351 9.29469C33.0086 9.29469 32.5375 9.53349 32.0882 9.82522ZM38.083 13.1202C37.4711 13.3746 37.1801 14.1836 37.4906 14.7667C37.7264 15.2095 40.3567 16.9539 40.7885 16.9539C41.2212 16.9539 41.8357 16.4284 41.8606 16.0369C41.9152 15.1823 41.8636 15.1175 40.2402 14.0035C38.8679 13.0618 38.5432 12.9289 38.083 13.1202ZM26.0569 13.9928C24.5229 15.0237 24.3707 15.1887 24.3707 15.8219C24.3707 16.4038 24.9172 16.9539 25.4954 16.9539C25.9264 16.9539 28.5526 15.1928 28.792 14.7433C29.0007 14.3513 28.8264 13.5828 28.4723 13.3334C27.9142 12.9406 27.4229 13.0747 26.0569 13.9928ZM32.6587 16.4723C32.4342 16.5764 30.1693 17.9752 27.6257 19.5808C24.6323 21.4703 22.9408 22.6194 22.8305 22.8385C22.7024 23.0928 22.6595 24.5456 22.658 28.6745L22.656 34.1719L22.9622 34.5167C23.3241 34.9241 32.8072 40.889 33.093 40.889C33.3823 40.889 33.4956 40.8223 38.3746 37.778C40.8447 36.2369 43.0341 34.7975 43.2399 34.5793L43.6141 34.1828L43.6121 28.6799C43.6106 24.5523 43.5676 23.0916 43.4399 22.8351C43.3271 22.6086 41.639 21.47 38.4405 19.463C35.7845 17.7963 33.4889 16.399 33.3392 16.3579C33.1895 16.3167 32.8833 16.3683 32.6587 16.4723ZM19.3918 18.602C17.8609 19.6855 17.7022 19.8583 17.7022 20.4416C17.7022 21.0147 18.0525 21.4243 18.6445 21.5433C18.9886 21.6124 19.2572 21.4924 20.3039 20.8017C20.9906 20.3485 21.6784 19.8512 21.8321 19.6967C22.2289 19.2979 22.2107 18.4628 21.7967 18.0719C21.2512 17.5569 20.6956 17.6795 19.3918 18.602ZM44.4544 18.091C44.0639 18.5087 44.0558 19.3126 44.438 19.6967C44.9503 20.2116 47.178 21.6042 47.4894 21.6042C47.9306 21.6042 48.4778 21.1215 48.5831 20.6395C48.7139 20.0406 48.4357 19.7022 46.9651 18.6718C45.5173 17.6572 44.9768 17.5322 44.4544 18.091ZM36.6437 21.0728C38.5687 22.2852 40.1612 23.2925 40.1826 23.3115C40.2038 23.3305 38.6269 24.3458 36.6782 25.5675L33.1351 27.7891L29.585 25.5632L26.0349 23.3373L26.7611 22.8882C27.1605 22.641 28.7427 21.6411 30.2771 20.6659C31.8116 19.6909 33.0842 18.8875 33.1053 18.8809C33.1262 18.8742 34.7185 19.8606 36.6437 21.0728ZM28.8772 27.8581L31.9002 29.7421L31.9052 33.6103L31.9102 37.4785L31.5897 37.3031C31.4134 37.2067 29.8517 36.237 28.1194 35.1482L24.9695 33.1684V29.2876V25.407L25.4118 25.6905C25.655 25.8464 27.2145 26.8217 28.8772 27.8581ZM41.3006 29.3088V33.1837L37.9435 35.2926C36.097 36.4524 34.5344 37.4221 34.4709 37.4477C34.4075 37.4731 34.3719 35.7523 34.3917 33.6234L34.4279 29.7529L37.8302 27.6019C39.7015 26.419 41.2479 25.4472 41.2666 25.4424C41.2852 25.4376 41.3006 27.1775 41.3006 29.3088ZM12.1769 33.861V41.194L11.8026 40.9519C9.87204 39.7031 2.75062 34.6606 2.58799 34.4272C2.29403 34.0056 2.32683 33.5779 2.68448 33.1662C2.97517 32.8316 11.8599 26.5609 12.0748 26.5386C12.1309 26.5327 12.1769 29.8279 12.1769 33.861ZM58.6848 29.6112C61.1371 31.307 63.3118 32.8775 63.5176 33.1011C63.7234 33.3247 63.8919 33.6595 63.8919 33.8453C63.8919 34.031 63.7234 34.3643 63.5176 34.5862C63.1992 34.9293 54.323 41.1626 54.1527 41.1626C54.12 41.1626 54.0932 37.8698 54.0932 33.8453C54.0932 29.8207 54.1232 26.528 54.1598 26.528C54.1965 26.528 56.2327 27.9154 58.6848 29.6112ZM23.0683 51.6259C27.5946 54.7652 31.5122 57.4286 31.7741 57.5443C32.5476 57.8858 33.5187 57.9114 34.2918 57.6106C34.6661 57.465 38.6774 54.7744 43.2059 51.6315C47.7343 48.4886 51.5185 45.8861 51.6153 45.8482C51.758 45.7922 51.7836 47.1302 51.7514 52.9423C51.7161 59.3029 51.6864 60.1514 51.4864 60.5158C51.1946 61.0474 50.7203 61.4863 50.2398 61.6692C49.976 61.7697 44.6489 61.8151 33.1351 61.8151C21.6213 61.8151 16.2941 61.7697 16.0303 61.6692C15.5498 61.4863 15.0755 61.0474 14.7837 60.5158C14.5837 60.1514 14.554 59.3029 14.5188 52.9423C14.486 47.0458 14.5109 45.7913 14.6589 45.8485C14.758 45.8867 18.5422 48.4866 23.0683 51.6259ZM15.5668 63.9515C16.0634 64.1077 19.0898 64.1403 33.1351 64.1403C50.4888 64.1403 50.3937 64.1427 51.5415 63.6633C51.7529 63.5751 51.779 63.6542 51.7737 64.365C51.7606 66.1341 51.4315 66.8671 50.416 67.3886L49.8167 67.6963H33.1351H16.4535L15.8541 67.3886C14.8375 66.8665 14.5001 66.1336 14.4937 64.4334C14.4909 63.658 14.5162 63.5747 14.7286 63.6633C14.8597 63.718 15.2368 63.8477 15.5668 63.9515Z" fill="#6A6A6A"/>
</svg>
