<svg width="70" height="70" viewBox="0 0 70 70" fill="none" xmlns="http://www.w3.org/2000/svg">
<path fill-rule="evenodd" clip-rule="evenodd" d="M15.3067 0.14971C10.4496 1.1812 6.96876 4.7112 6.03724 9.54971C5.92382 10.1388 5.83111 11.363 5.83111 12.2702V13.9196L5.31272 14.0169C4.64462 14.1424 3.69255 15.0796 3.57039 15.7319C3.52068 15.9973 3.50071 17.4678 3.52578 18.9995L3.57155 21.7845L3.99169 22.3355C4.59069 23.1212 5.11811 23.2934 6.9243 23.2934C8.26327 23.2934 8.47479 23.3267 8.54447 23.5489C9.1442 25.4597 10.3738 27.2394 11.8474 28.329L12.8343 29.0588L12.7949 29.9024L12.7556 30.7462L8.46444 32.7066C3.93367 34.7766 2.96352 35.3356 2.02471 36.4174C1.27293 37.2838 0.353803 39.1873 0.155836 40.2879C0.0701191 40.7642 0 42.4913 0 44.1259C0 47.0867 0.00131197 47.0992 0.357884 47.4561L0.715623 47.8144H17.4933H34.271L34.6422 47.4428L35.0133 47.0712L34.9521 43.6114C34.8985 40.5816 34.8537 40.051 34.5923 39.3418C33.899 37.4612 32.8762 36.0674 31.5284 35.1663C31.0651 34.8565 28.7673 33.7238 26.4222 32.6489L22.1582 30.6948V29.8751V29.0554L23.0913 28.3779C24.4762 27.3721 25.6627 25.7746 26.2346 24.1455L26.5082 23.3664L28.259 23.2934C30.1489 23.2146 30.4553 23.099 31.1145 22.216C31.39 21.8471 31.419 21.5732 31.462 18.941C31.4915 17.1422 31.4492 15.8668 31.3492 15.5289C31.1606 14.8919 30.3154 14.1375 29.6508 14.0127L29.1908 13.9263L29.1165 11.7862C29.016 8.89655 28.5497 7.25904 27.2667 5.29153C25.6245 2.77273 23.3046 1.11303 20.2653 0.282678C19.1311 -0.0271913 16.4751 -0.0984188 15.3067 0.14971ZM19.4613 2.49424C23.7166 3.38575 26.8457 7.33275 26.809 11.7627L26.7999 12.8574L26.5976 11.9087C26.0518 9.35004 24.0755 6.81723 21.7159 5.65263C18.9206 4.27288 16.066 4.27288 13.2707 5.65263C10.8889 6.82818 8.9458 9.3191 8.39024 11.9087L8.18673 12.8574L8.17769 11.7627C8.13469 6.56852 12.2649 2.33543 17.4204 2.2896C17.9817 2.28464 18.9001 2.37674 19.4613 2.49424ZM43.4569 3.66876C40.0523 4.40833 37.0786 7.40661 36.3702 10.814C36.0944 12.1415 36.0642 18.7997 36.3301 19.7005C36.5667 20.5023 37.7744 21.7114 38.5751 21.9483C38.9292 22.0529 40.0705 22.1258 41.3589 22.1258H43.5426L46.5121 19.7904L49.4818 17.4551H52.493H55.5041L58.4614 19.7904L61.4188 22.1258H63.6018C66.2865 22.1258 66.7524 22.0026 67.7218 21.036C68.7995 19.9615 68.8418 19.7188 68.7794 14.9607C68.7282 11.0627 68.717 10.9325 68.34 9.88936C67.4667 7.47302 65.8265 5.5671 63.6969 4.49387C61.6516 3.46311 61.4761 3.44705 52.4071 3.45727C46.1417 3.46428 44.1855 3.51054 43.4569 3.66876ZM61.1476 6.00191C63.662 6.6577 65.5987 8.60303 66.2571 11.1341C66.4212 11.7642 66.4747 12.8444 66.4747 15.522V19.0739L66.1168 19.4321C65.7749 19.7745 65.6796 19.7901 63.9665 19.7837L62.1742 19.7772L59.6231 17.7422C58.22 16.6228 56.8424 15.5914 56.5618 15.4499C56.129 15.2319 55.5536 15.1859 52.7715 15.1479C50.5976 15.1182 49.2878 15.1601 48.8871 15.2722C48.4793 15.3861 47.38 16.1485 45.5071 17.6158L42.7317 19.7904H40.9663C39.2864 19.7904 39.1836 19.7731 38.8432 19.4321L38.4853 19.0739V15.522C38.4853 12.8444 38.5388 11.7642 38.7028 11.1341C39.3528 8.63528 41.2856 6.67258 43.7497 6.0092C44.9463 5.68693 59.9161 5.6808 61.1476 6.00191ZM19.1637 7.16957C22.3142 7.99117 24.4907 10.8179 24.4907 14.0881C24.4907 15.0237 24.4863 15.0341 24.216 14.7508C24.065 14.5926 23.7644 13.921 23.5481 13.2587C22.8756 11.2002 22.4267 11.1382 20.1936 12.7952C18.2856 14.2112 17.8027 14.4686 16.3649 14.8369C15.4931 15.0601 14.7577 15.1198 12.878 15.1198H10.496V14.1287C10.496 9.48388 14.7969 6.03081 19.1637 7.16957ZM43.1502 9.28144V10.4491H41.984H40.8178V11.6168V12.7844H41.984H43.1502V13.9521V15.1198H44.3164H45.4827V13.9521V12.7844H46.6489H47.8151V11.6168V10.4491H46.6489H45.4827V9.28144V8.11378H44.3164H43.1502V9.28144ZM48.9813 9.28144V10.4491H50.1475H51.3138V9.28144V8.11378H50.1475H48.9813V9.28144ZM53.6462 9.28144V10.4491H54.8124H55.9787V9.28144V8.11378H54.8124H53.6462V9.28144ZM59.4773 9.28144V10.4491H58.3111H57.1449V11.6168V12.7844H58.3111H59.4773V13.9521V15.1198H60.6435H61.8098V13.9521V12.7844H62.976H64.1422V11.6168V10.4491H62.976H61.8098V9.28144V8.11378H60.6435H59.4773V9.28144ZM61.8098 11.6168V12.7844H60.6435H59.4773V11.6168V10.4491H60.6435H61.8098V11.6168ZM22.8116 16.6602C23.0934 16.8754 23.5699 17.136 23.8708 17.2395L24.4178 17.4275L24.4584 19.5144C24.5055 21.9375 24.3644 22.7773 23.6801 24.147C22.8116 25.8854 21.1133 27.2323 19.1416 27.7463C15.5062 28.6945 11.6918 26.3691 10.7135 22.6084C10.5684 22.051 10.496 21.0581 10.496 19.629V17.4856L13.3751 17.4151C16.5633 17.337 17.2885 17.1995 19.024 16.3435C19.5852 16.0667 20.3724 15.5867 20.7733 15.277L21.5022 14.7137L21.9008 15.4914C22.12 15.9192 22.5299 16.4451 22.8116 16.6602ZM8.16355 18.6228V20.9581H6.99733H5.83111V18.6228V16.2874H6.99733H8.16355V18.6228ZM29.1556 18.6228V20.9581H27.9893H26.8231V18.6228V16.2874H27.9893H29.1556V18.6228ZM12.8284 19.7904V20.9581H13.9947H15.1609V19.7904V18.6228H13.9947H12.8284V19.7904ZM19.8258 19.7904V20.9581H20.992H22.1582V19.7904V18.6228H20.992H19.8258V19.7904ZM50.2933 22.3354C45.4363 23.3668 41.9554 26.8968 41.0239 31.7354C40.9105 32.3245 40.8178 33.5486 40.8178 34.4559V36.1052L40.2994 36.2026C39.6313 36.3281 38.6792 37.2653 38.557 37.9176C38.5073 38.1829 38.4874 39.6534 38.5124 41.1851L38.5582 43.9702L38.9783 44.5212C39.5773 45.3069 40.1048 45.4791 41.911 45.4791C43.2499 45.4791 43.4614 45.5124 43.5311 45.7345C44.1309 47.6454 45.3605 49.4251 46.834 50.5146L47.8209 51.2444L47.7816 52.0881L47.7422 52.9319L43.4511 54.8922C38.9203 56.9622 37.9502 57.5212 37.0114 58.6031C36.2596 59.4695 35.3405 61.3729 35.1425 62.4736C35.0568 62.9498 34.9867 64.677 34.9867 66.3116C34.9867 69.2723 34.988 69.2849 35.3445 69.6417L35.7023 70.0001H52.48H69.2577L69.6288 69.6285L70 69.2568L69.9388 65.7971C69.8851 62.7673 69.8404 62.2367 69.579 61.5275C68.8857 59.6468 67.8629 58.2531 66.515 57.3519C66.0518 57.0422 63.754 55.9094 61.4089 54.8346L57.1449 52.8805V52.0608V51.2411L58.078 50.5635C59.4629 49.5577 60.6494 47.9602 61.2213 46.3312L61.4949 45.5521L63.2457 45.4791C65.1355 45.4003 65.442 45.2847 66.1012 44.4016C66.3767 44.0328 66.4057 43.7588 66.4487 41.1266C66.4781 39.3278 66.4359 38.0524 66.3359 37.7145C66.1472 37.0776 65.302 36.3231 64.6374 36.1983L64.1775 36.1119L64.1031 33.9719C64.0027 31.0822 63.5364 29.4447 62.2534 27.4772C60.6112 24.9584 58.2913 23.2987 55.252 22.4683C54.1178 22.1585 51.4617 22.0872 50.2933 22.3354ZM54.448 24.6799C58.7032 25.5714 61.8324 29.5184 61.7956 33.9484L61.7866 35.0431L61.5842 34.0943C61.2468 32.5123 60.3014 30.8272 59.0382 29.5559C55.3884 25.8827 49.5825 25.8849 45.9111 29.5607C44.6434 30.8301 43.7244 32.4739 43.3769 34.0943L43.1734 35.0431L43.1644 33.9484C43.1213 28.7542 47.2515 24.5211 52.4071 24.4753C52.9683 24.4703 53.8867 24.5624 54.448 24.6799ZM54.1503 29.3552C57.3009 30.1768 59.4773 33.0036 59.4773 36.2738C59.4773 37.2094 59.4729 37.2197 59.2027 36.9364C59.0517 36.7781 58.7511 36.1067 58.5347 35.4443C57.8622 33.3859 57.4134 33.3238 55.1802 34.9809C53.2723 36.3968 52.7893 36.6543 51.3515 37.0226C50.4798 37.2457 49.7443 37.3054 47.8647 37.3054H45.4827V36.3144C45.4827 31.6695 49.7835 28.2165 54.1503 29.3552ZM17.4933 30.2264C18.1748 30.2264 18.9855 30.1729 19.295 30.1073L19.8576 29.9884L19.8046 31.1558C19.7478 32.4082 19.553 32.8277 18.7492 33.4285C18.1848 33.8504 16.8019 33.8504 16.2375 33.4285C15.4336 32.8277 15.2389 32.4082 15.182 31.1558L15.1291 29.9884L15.6917 30.1073C16.0011 30.1729 16.8118 30.2264 17.4933 30.2264ZM13.412 33.6576C13.6783 34.3015 14.6042 35.1946 15.4839 35.6564C16.15 36.006 16.422 36.0607 17.4933 36.0607C18.5646 36.0607 18.8367 36.006 19.5027 35.6564C20.3825 35.1946 21.3083 34.3015 21.5747 33.6576C21.6745 33.4161 21.8161 33.2186 21.8893 33.2186C22.161 33.2186 29.542 36.6353 30.117 37.0274C30.9712 37.6096 31.6099 38.3908 32.1287 39.4879C32.5708 40.4228 32.5818 40.498 32.6319 42.9613L32.6831 45.4791H30.3362H27.9893V43.1437V40.8084H26.8231H25.6569V43.1437V45.4791H17.4933H9.32978V43.1437V40.8084H8.16355H6.99733V43.1437V45.4791H4.65046H2.30358L2.35475 42.9613C2.40504 40.4914 2.41481 40.4251 2.86322 39.4768C3.38875 38.3651 4.13222 37.4832 5.00426 36.9366C5.67338 36.5172 12.8021 33.2351 13.0659 33.2249C13.1563 33.2214 13.3121 33.4161 13.412 33.6576ZM57.7983 38.8459C58.08 39.061 58.5566 39.3217 58.8575 39.4252L59.4044 39.6132L59.4451 41.7001C59.4922 44.1231 59.3511 44.963 58.6668 46.3326C57.7983 48.071 56.0999 49.4179 54.1283 49.932C50.4929 50.8801 46.6785 48.5547 45.7002 44.7941C45.5551 44.2367 45.4827 43.2437 45.4827 41.8147V39.6713L48.3618 39.6008C51.5499 39.5227 52.2752 39.3852 54.0107 38.5291C54.5719 38.2524 55.3591 37.7723 55.76 37.4626L56.4889 36.8994L56.8874 37.677C57.1067 38.1048 57.5166 38.6307 57.7983 38.8459ZM43.1502 40.8084V43.1437H41.984H40.8178V40.8084V38.4731H41.984H43.1502V40.8084ZM64.1422 40.8084V43.1437H62.976H61.8098V40.8084V38.4731H62.976H64.1422V40.8084ZM47.8151 41.9761V43.1437H48.9813H50.1475V41.9761V40.8084H48.9813H47.8151V41.9761ZM54.8124 41.9761V43.1437H55.9787H57.1449V41.9761V40.8084H55.9787H54.8124V41.9761ZM8.47027 50.3754C5.06563 51.115 2.09191 54.1132 1.38358 57.5206C1.10776 58.8481 1.07759 65.5063 1.34349 66.4072C1.58008 67.2089 2.78771 68.418 3.58847 68.6549C3.94256 68.7596 5.08385 68.8324 6.37224 68.8324H8.55599L11.5255 66.4971L14.4951 64.1617H17.5063H20.5175L23.4747 66.4971L26.4321 68.8324H28.6152C31.2998 68.8324 31.7657 68.7092 32.7351 67.7427C33.8129 66.6681 33.8551 66.4254 33.7927 61.6673C33.7416 57.7693 33.7303 57.6392 33.3534 56.596C32.48 54.1796 30.8399 52.2737 28.7102 51.2005C26.6649 50.1697 26.4894 50.1537 17.4204 50.1639C11.1551 50.1709 9.19887 50.2172 8.47027 50.3754ZM52.48 52.4121C53.1615 52.4121 53.9722 52.3585 54.2817 52.293L54.8442 52.174L54.7913 53.3414C54.7344 54.5939 54.5397 55.0134 53.7359 55.6141C53.1714 56.0361 51.7886 56.0361 51.2241 55.6141C50.4203 55.0134 50.2255 54.5939 50.1687 53.3414L50.1158 52.174L50.6783 52.293C50.9878 52.3585 51.7985 52.4121 52.48 52.4121ZM26.161 52.7085C28.6754 53.3643 30.612 55.3097 31.2705 57.8407C31.4345 58.4708 31.488 59.5511 31.488 62.2287V65.7806L31.1301 66.1387C30.7883 66.4812 30.6929 66.4968 28.9799 66.4903L27.1875 66.4838L24.6364 64.4488C23.2333 63.3295 21.8557 62.298 21.5751 62.1566C21.1423 61.9385 20.5669 61.8925 17.7849 61.8546C15.6109 61.8248 14.3011 61.8667 13.9005 61.9788C13.4926 62.0928 12.3933 62.8551 10.5205 64.3224L7.74503 66.4971H5.97966C4.29971 66.4971 4.19694 66.4797 3.85655 66.1387L3.49867 65.7806V62.2287C3.49867 59.5511 3.55217 58.4708 3.71617 57.8407C4.36619 55.3419 6.29891 53.3792 8.76299 52.7158C9.95968 52.3936 24.9295 52.3874 26.161 52.7085ZM8.16355 55.9881V57.1557H6.99733H5.83111V58.3234V59.4911H6.99733H8.16355V60.6587V61.8264H9.32978H10.496V60.6587V59.4911H11.6622H12.8284V58.3234V57.1557H11.6622H10.496V55.9881V54.8204H9.32978H8.16355V55.9881ZM13.9947 55.9881V57.1557H15.1609H16.3271V55.9881V54.8204H15.1609H13.9947V55.9881ZM18.6596 55.9881V57.1557H19.8258H20.992V55.9881V54.8204H19.8258H18.6596V55.9881ZM24.4907 55.9881V57.1557H23.3244H22.1582V58.3234V59.4911H23.3244H24.4907V60.6587V61.8264H25.6569H26.8231V60.6587V59.4911H27.9893H29.1556V58.3234V57.1557H27.9893H26.8231V55.9881V54.8204H25.6569H24.4907V55.9881ZM48.3986 55.8433C48.665 56.4871 49.5908 57.3802 50.4706 57.842C51.1366 58.1916 51.4087 58.2463 52.48 58.2463C53.5513 58.2463 53.8233 58.1916 54.4894 57.842C55.3692 57.3802 56.295 56.4871 56.5613 55.8433C56.6612 55.6017 56.8027 55.4042 56.8759 55.4042C57.1476 55.4042 64.5287 58.821 65.1036 59.213C65.9579 59.7952 66.5965 60.5764 67.1153 61.6736C67.5575 62.6084 67.5684 62.6836 67.6186 65.1469L67.6697 67.6647H65.3229H62.976V65.3294V62.9941H61.8098H60.6435V65.3294V67.6647H52.48H44.3164V65.3294V62.9941H43.1502H41.984V65.3294V67.6647H39.6371H37.2902L37.3414 65.1469C37.3917 62.677 37.4015 62.6108 37.8499 61.6625C38.3754 60.5507 39.1189 59.6688 39.9909 59.1222C40.66 58.7029 47.7887 55.4207 48.0526 55.4105C48.143 55.407 48.2988 55.6017 48.3986 55.8433ZM26.8231 58.3234V59.4911H25.6569H24.4907V58.3234V57.1557H25.6569H26.8231V58.3234Z" fill="#6A6A6A"/>
</svg>
