<svg width="70" height="71" viewBox="0 0 70 71" fill="none" xmlns="http://www.w3.org/2000/svg">
<path fill-rule="evenodd" clip-rule="evenodd" d="M29.3476 0.259958C27.3677 0.778155 25.4643 2.16079 24.4628 3.80813L23.9851 4.59377L22.7651 4.67271C19.115 4.90896 16.122 7.41869 15.2915 10.9394C15.1777 11.4219 15.0836 12.1131 15.0825 12.4755C15.0806 13.0966 15.0627 13.1288 14.7724 13.0362C14.1796 12.8472 12.7358 12.7599 11.8191 12.8577C8.57003 13.2046 5.67353 15.6914 4.90556 18.7933C4.47537 20.5312 4.50932 21.8129 5.02934 23.4647L5.26415 24.2103L4.93514 24.436C4.27067 24.892 2.84741 26.3399 2.27907 27.1381C0.759416 29.2719 0.00855893 31.5932 7.00311e-05 34.1833C-0.00280524 35.0751 0.0831791 36.1722 0.198601 36.7164C0.786663 39.4884 2.29454 41.9405 4.58408 43.8486L5.24662 44.4006L4.94677 45.3453C4.56121 46.5609 4.52753 48.5215 4.87215 49.71C5.95764 53.4551 9.48313 56.0222 13.1636 55.7478C13.7284 55.7057 14.3908 55.6305 14.6355 55.5805L15.0805 55.4898V56.1006C15.0805 56.9883 15.5532 58.6959 16.069 59.671C17.35 62.0926 20.2776 63.8688 22.9877 63.8688H23.9412L24.4417 64.6788C25.4127 66.2508 26.9715 67.5155 28.6733 68.1122C29.8506 68.5249 31.9394 68.6236 33.2066 68.3261C36.0813 67.6515 38.6082 65.1425 39.2411 62.3343L39.4041 61.6116H43.159H46.9139L47.5049 62.7464L48.096 63.8813L47.7788 64.5248C47.3556 65.3833 47.3291 67.0906 47.7267 67.8911C48.2918 69.029 49.4807 69.8548 50.7411 69.9847C52.9398 70.2115 54.9235 68.4043 54.9235 66.1747C54.9235 65.4004 54.4294 64.2305 53.8507 63.6346C53.048 62.8083 52.4388 62.5692 51.136 62.5692H50.0183L49.3587 61.2295C48.3201 59.1208 48.8067 59.293 43.7539 59.2463L39.4518 59.2065V57.5021V55.7976H47.9276H56.4034L58.1845 58.0206C59.7242 59.9421 59.9405 60.2718 59.7798 60.4513C58.9967 61.3257 58.7975 63.1651 59.3579 64.3476C60.0073 65.7175 61.2023 66.4599 62.7665 66.465C64.2726 66.4699 65.3665 65.8324 66.0893 64.5287C66.4371 63.9012 66.4926 63.6583 66.4897 62.7744C66.4868 61.935 66.4207 61.6241 66.1259 61.0644C65.4297 59.7428 64.3079 59.0427 62.8567 59.0239L61.9588 59.0124L59.8445 56.3662C58.6818 54.9106 57.6266 53.6641 57.4998 53.596C57.3688 53.5255 53.4194 53.472 48.3605 53.472H39.4518V51.1464V48.8208L50.0972 48.8206L60.7426 48.8204L62.2451 47.9184C63.7171 47.0348 63.7547 47.021 64.0935 47.242C64.8013 47.704 65.3931 47.884 66.2197 47.8888C69.7297 47.9091 71.3266 43.6498 68.6812 41.3231C66.2776 39.2093 62.592 40.8689 62.5122 44.1012L62.4887 45.0588L61.3417 45.7668L60.1949 46.4747L49.8206 46.485L39.4464 46.4952L39.4833 43.5883L39.5203 40.6813L42.3583 40.6443L45.1964 40.6074L45.3915 41.0737C46.1671 42.9285 48.5969 43.7935 50.4652 42.8802C51.2687 42.4874 51.7477 42.0042 52.2228 41.1075C52.4529 40.6735 52.5211 40.3094 52.5209 39.5185C52.5204 37.9146 51.8474 36.8429 50.3527 36.066C49.6545 35.7031 48.1298 35.6658 47.3739 35.993C46.6979 36.2856 45.7878 37.1298 45.4635 37.765L45.1968 38.2873H42.3244H39.4518V35.4145V32.5417H46.9796H54.5072L54.7786 33.073C55.6207 34.7224 57.557 35.5157 59.3159 34.9321C60.7464 34.4573 61.9064 32.8663 61.9064 31.3789C61.9064 30.5497 61.4955 29.5259 60.9045 28.8828C59.8307 27.7142 58.2986 27.3236 56.7954 27.8354C56.0523 28.0882 55.0951 28.9594 54.743 29.7031L54.4999 30.2161H46.9731H39.4464L39.4833 27.3091L39.5203 24.4021L49.7639 24.3671L60.0077 24.3319L61.2817 25.0916L62.5559 25.8514L62.4894 26.4404C62.3748 27.4567 62.7774 28.5051 63.597 29.324C64.8545 30.5804 66.5316 30.833 68.0679 29.9975C69.347 29.302 69.9681 28.2144 69.9785 26.6519C69.9975 23.8207 66.9071 22.0467 64.4046 23.4523L63.7209 23.8363L62.233 22.9564L60.7452 22.0765L50.0951 22.0398L39.4453 22.0032L39.4828 19.7142L39.5203 17.4253L48.5569 17.3569L57.5934 17.2885L59.7387 14.6209L61.8839 11.9533L62.8904 11.8696C64.1265 11.7669 64.8335 11.4264 65.5871 10.5711C66.8561 9.13074 66.8561 7.11513 65.5871 5.67476C64.8803 4.87257 64.1377 4.48789 63.1175 4.39541C60.9731 4.20116 59.2143 5.66601 59.0635 7.77177C58.9927 8.75987 59.1621 9.50693 59.5978 10.1276C59.7379 10.3273 59.8526 10.5514 59.8526 10.6255C59.8526 10.6996 59.0811 11.7212 58.1381 12.8957L56.4236 15.0313H47.9377H39.4518V13.3213V11.6113H43.7053C46.3933 11.6113 48.0569 11.5589 48.2253 11.4688C48.3719 11.3904 48.8271 10.6584 49.2369 9.84196L49.9819 8.35768L50.9865 8.373C52.6179 8.39776 53.7651 7.70583 54.5504 6.2236C54.9715 5.4288 54.9715 3.84028 54.5504 3.04547C53.7884 1.60702 52.6188 0.878019 51.0993 0.894161C50.0391 0.905516 49.3866 1.15969 48.6008 1.86749C47.3927 2.95573 47.0224 4.8277 47.7404 6.21882L48.0878 6.89173L47.5069 8.08873L46.926 9.28573H43.1889H39.4518V8.19803C39.4518 6.72867 39.2554 5.87394 38.6042 4.51156C36.9821 1.11742 33.0214 -0.701744 29.3476 0.259958ZM32.8168 2.51989C34.5017 2.9556 35.8419 4.08337 36.63 5.72894L37.0558 6.61813L37.0904 18.4315L37.1251 30.2449L35.5159 30.1908C34.1994 30.1465 33.8037 30.0826 33.3406 29.8396C32.1874 29.2347 31.5639 28.3194 31.3793 26.9609C31.2591 26.0757 30.8011 25.5649 30.1276 25.5649C29.4704 25.5649 29.0461 26.0944 29.0461 26.9144C29.0461 28.8596 30.3709 30.9402 32.1911 31.8538C33.2069 32.3636 34.1311 32.5417 35.7618 32.5417H37.1242V37.7401V42.9385L35.5155 42.9379C34.1437 42.9375 33.84 42.8967 33.4537 42.6616C32.8687 42.3051 32.4759 41.4405 32.472 40.5001C32.4686 39.6581 31.9466 37.9912 31.4306 37.1747C30.5196 35.7328 28.9821 34.5208 27.4814 34.0617C26.3295 33.7093 24.6607 33.5711 24.0379 33.7764C23.4518 33.9697 23.0821 34.6495 23.2808 35.1685C23.508 35.7624 23.8509 35.9209 25.1059 36.0124C26.6595 36.1257 27.6291 36.4971 28.5384 37.3275C29.5337 38.2362 29.9832 39.1978 30.1579 40.791C30.3805 42.8212 31.0719 44.0056 32.4938 44.7926C33.1887 45.1772 33.3118 45.1978 35.1773 45.2427L37.1323 45.2899L37.0941 53.5949L37.0558 61.8998L36.5456 62.9309C35.922 64.1915 35.011 65.0848 33.7318 65.6903C32.8761 66.0954 32.7103 66.1257 31.3737 66.1216C30.2029 66.1181 29.79 66.0592 29.1492 65.8043C28.3685 65.4934 27.1179 64.4847 26.5828 63.7336L26.3127 63.3547L27.2256 62.8252C28.3323 62.1832 29.3928 61.1785 30.0546 60.1446C31.1705 58.4017 31.6753 55.631 31.0002 54.9543C30.5512 54.5042 29.7909 54.5374 29.3706 55.0255C29.1908 55.2344 29.0461 55.579 29.0461 55.7986C29.0461 56.5125 28.7453 57.6298 28.3316 58.4522C27.803 59.5034 26.8023 60.4641 25.6535 61.0234C24.7849 61.4464 24.6484 61.4715 23.2271 61.4732C21.8196 61.4747 21.6628 61.4468 20.831 61.0472C19.2068 60.2669 18.1863 59.1072 17.6786 57.4648C17.348 56.395 17.3352 55.3857 17.6369 54.137C17.8599 53.2142 17.8587 53.1801 17.5887 52.8179C17.0919 52.1511 16.7187 52.1265 15.5964 52.686C14.2742 53.3452 13.0649 53.5641 11.8529 53.3635C7.98183 52.7225 5.82154 48.5522 7.55752 45.0712C8.20377 43.7755 8.12176 43.411 7.02738 42.7115C4.72168 41.2378 3.17355 39.1164 2.55099 36.5773C2.22608 35.2526 2.25114 33.1911 2.60863 31.8184C3.20463 29.5307 4.76262 27.3494 6.7378 26.0375C8.12696 25.1148 8.20172 24.8825 7.55602 23.494C5.17953 18.3833 10.4008 13.2655 15.4228 15.7832C16.5191 16.3328 16.9584 16.3781 17.3806 15.9851C17.8073 15.588 17.861 15.2064 17.6202 14.2826C16.9148 11.5768 18.1641 8.79585 20.6254 7.59338C23.9704 5.95903 27.89 7.78134 28.8362 11.4109C28.9516 11.8537 29.048 12.4339 29.0505 12.7002C29.0553 13.2342 29.2339 13.5365 29.6874 13.7778C30.1696 14.0343 30.5463 13.9639 30.9735 13.5371C31.4423 13.0687 31.479 12.6141 31.1678 11.1325C30.8325 9.53689 30.1247 8.28107 28.8548 7.02853C28.1657 6.34878 27.4754 5.80978 27.0327 5.60582C26.21 5.22674 26.216 5.16149 27.171 4.12633C28.5674 2.61264 30.7613 1.98842 32.8168 2.51989ZM51.7013 3.32413C52.1829 3.52523 52.5959 4.13016 52.5959 4.63454C52.5959 5.14658 52.183 5.74385 51.6852 5.95165C50.3505 6.50883 49.1189 4.88858 50.0134 3.75245C50.4967 3.1385 50.9694 3.01866 51.7013 3.32413ZM63.7183 7.08572C64.1022 7.4284 64.1655 7.57518 64.1655 8.12293C64.1655 8.67068 64.1022 8.81746 63.7183 9.16015C63.2121 9.612 62.6642 9.67492 62.0405 9.35276C61.5435 9.09585 61.3587 8.76261 61.3587 8.12293C61.3587 7.49502 61.5398 7.15603 62.0125 6.8998C62.6194 6.57066 63.2141 6.63551 63.7183 7.08572ZM26.2029 17.5681C25.7599 17.7542 25.6644 17.9309 25.4781 18.907C25.4089 19.2705 25.219 19.7547 25.0562 19.9831C24.7154 20.4613 23.831 20.9063 23.2128 20.9107C22.2547 20.9175 21.702 22.1162 22.3409 22.8014C22.9014 23.4025 23.9736 23.3574 25.3394 22.6754C26.7504 21.971 27.6543 20.63 27.781 19.0531C27.8438 18.2714 27.8166 18.1298 27.5483 17.8446C27.1692 17.4413 26.7229 17.3497 26.2029 17.5681ZM12.2578 22.1992C11.7645 22.4196 11.4664 23.0801 11.6471 23.5522C11.8526 24.089 12.2368 24.2943 13.214 24.3896C15.1377 24.5773 16.1758 25.6129 16.1758 27.3444C16.1758 28.9042 14.8474 30.2121 13.2601 30.2153C12.5112 30.2168 11.9887 31.1351 12.2902 31.9199C12.4484 32.3317 13.1486 32.5789 13.8815 32.4818C15.7036 32.2403 17.3018 31.0945 18.0378 29.5023C18.3925 28.7347 18.4348 28.4969 18.434 27.2749C18.4333 26.1448 18.3792 25.7898 18.1233 25.2338C17.4861 23.8492 16.3279 22.7991 14.9579 22.3638C13.9764 22.0519 12.7544 21.9775 12.2578 22.1992ZM67.2567 25.6912C67.5772 26.0115 67.6564 26.2088 67.6539 26.683C67.647 28.0021 66.2708 28.634 65.2973 27.7649C64.9133 27.4222 64.8501 27.2754 64.8501 26.7277C64.8501 26.1799 64.9133 26.0332 65.2973 25.6905C65.9216 25.133 66.6983 25.1333 67.2567 25.6912ZM59.0631 30.3417C59.447 30.6843 59.5103 30.8311 59.5103 31.3789C59.5103 31.9266 59.447 32.0734 59.0631 32.4161C58.0896 33.2852 56.7133 32.6533 56.7065 31.3341C56.6999 30.0608 58.0918 29.4746 59.0631 30.3417ZM18.2809 38.2176C16.9 38.5178 15.93 39.0584 14.8625 40.1231C13.4633 41.5185 12.7529 43.1636 12.7529 45.0077C12.7529 45.5855 12.8169 45.7594 13.1531 46.0954C13.6404 46.5822 14.1137 46.607 14.6196 46.1723C14.9444 45.8931 15.0089 45.7092 15.094 44.8177C15.217 43.5318 15.5658 42.7291 16.3798 41.8598C17.1463 41.041 17.9603 40.6373 19.3223 40.4007C20.4541 40.2041 20.831 39.9142 20.831 39.2409C20.831 38.6706 20.7038 38.4361 20.2735 38.2138C19.8102 37.9744 19.3967 37.9752 18.2809 38.2176ZM49.4514 38.2212C49.8939 38.4498 50.2686 39.0579 50.2678 39.5458C50.267 40.073 49.775 40.7275 49.2809 40.8587C47.8947 41.227 46.8224 39.733 47.6858 38.6364C48.1753 38.0146 48.7774 37.873 49.4514 38.2212ZM67.2804 43.2095C67.5608 43.5203 67.6569 43.7687 67.6569 44.1824C67.6569 45.6184 65.6359 46.1073 64.9754 44.8311C64.7267 44.3508 64.7304 43.9814 64.9888 43.4824C65.4534 42.5846 66.594 42.4487 67.2804 43.2095ZM22.4846 45.071C22.1242 45.374 22.0633 45.5181 22.0633 46.0683C22.0633 47.5981 22.755 49.194 23.9152 50.3415C24.8141 51.2304 25.4527 51.6232 26.5617 51.9693C27.811 52.3592 28.8274 52.3348 29.2576 51.905C29.6837 51.4794 29.6951 50.8683 29.2857 50.3954C29.0417 50.1133 28.7843 50.0122 28.0474 49.9087C26.9436 49.7534 26.2854 49.4418 25.5912 48.7453C24.9169 48.069 24.5185 47.2169 24.3976 46.1924C24.3186 45.5221 24.2255 45.2939 23.9266 45.037C23.4433 44.6216 23.0068 44.6319 22.4846 45.071ZM63.417 61.4771C64.1014 61.8308 64.4129 62.7163 64.081 63.3648C63.817 63.8804 63.3782 64.1361 62.7516 64.1394C61.5643 64.1454 60.9175 62.8243 61.6514 61.8923C62.1409 61.2706 62.7431 61.129 63.417 61.4771ZM51.8139 64.9748C52.6173 65.3406 52.8082 66.5577 52.1688 67.2379C51.5346 67.9123 50.2432 67.7376 49.8737 66.9275C49.2678 65.5988 50.4875 64.3711 51.8139 64.9748Z" fill="#6A6A6A"/>
</svg>
