<svg width="70" height="70" viewBox="0 0 70 70" fill="none" xmlns="http://www.w3.org/2000/svg">
<path fill-rule="evenodd" clip-rule="evenodd" d="M2.19926 0.223699C1.8673 0.341022 1.33711 0.695453 1.02115 1.01146C-0.0575586 2.09034 -0.00916016 1.41019 0.0319922 14.9014C0.0667187 26.3276 0.0798438 26.8817 0.327715 27.3808C0.679356 28.0889 1.30744 28.6913 2.04928 29.0319C2.59 29.2801 2.99045 29.3211 5.29785 29.3642L7.92969 29.4133V32.2039V34.9945H11.9997H16.0696L15.5202 36.1554L14.9707 37.3163L12.5439 37.3177L10.1172 37.319V43.4724V49.6257H7.94828C6.75555 49.6257 5.44811 49.6876 5.04301 49.7634C4.13971 49.9323 3.34906 50.4651 2.80437 51.2719L2.39258 51.8819L2.35266 57.5224L2.31287 63.163H1.15637H0V65.1214C0 67.4693 0.175957 68.1321 1.02484 68.9811C2.08729 70.0438 1.69258 70.0103 12.6556 69.9686C23.4306 69.9275 22.7806 69.984 23.7907 69.0023C24.647 68.1701 24.8065 67.5883 24.8108 65.2825L24.8145 63.2314L23.6865 63.1917L22.5586 63.1519L22.5526 57.7905C22.5481 53.786 22.5021 52.3046 22.3712 51.938C22.0812 51.1264 21.487 50.4772 20.665 50.0735L19.8926 49.6941L16.167 49.65L12.4414 49.6061V44.5564V39.5069H13.529H14.6165L14.6949 40.0197C14.914 41.4509 15.1058 42.1256 15.5604 43.0621C16.2384 44.4591 17.6151 45.8428 19.0102 46.5297C20.9259 47.4728 20.5011 47.4503 35.454 47.4038C48.5978 47.363 48.894 47.3563 49.6973 47.0803C51.5069 46.4584 52.903 45.4402 53.8621 44.0428C54.248 43.4806 54.9607 42.0237 54.9618 41.7951C54.9622 41.7023 55.027 41.3942 55.1057 41.1103L55.249 40.5943L57.5318 40.6317L59.8145 40.6692L59.8505 45.1474L59.8865 49.6257H55.9199H51.9531V59.8128V70H60.9766H70V59.8128V49.6257H66.0352H62.0703V44.0193V38.413H58.6549H55.2396L55.1593 38.0369C55.1152 37.8302 54.9601 37.3323 54.8149 36.9308C54.6696 36.5294 54.5508 36.1755 54.5508 36.1446C54.5508 36.1137 55.7505 36.0884 57.2168 36.0884H59.8828V29.3197V22.5511H62.6855H65.4883V21.4626V20.3743L64.3604 20.3345L63.2324 20.2949V19.2009V18.107L65.4199 18.0386C67.4311 17.9757 67.6565 17.9428 68.2162 17.6284C68.9274 17.2291 69.656 16.3319 69.857 15.6081C69.9446 15.2925 69.9988 12.7806 69.9992 9.00394C70.0001 2.08433 69.9926 2.02539 68.9752 1.00777C67.9195 -0.0480041 68.1747 -0.0240745 58.4343 0.0191355C49.9197 0.0568758 49.8285 0.0602943 49.2871 0.352372C48.5713 0.7388 48.0692 1.28139 47.7259 2.04002C47.4585 2.63074 47.4474 2.90942 47.4474 9.01378C47.4474 15.1181 47.4585 15.3968 47.7259 15.9875C48.0998 16.8139 48.6023 17.3243 49.4238 17.7128C50.0458 18.0068 50.2895 18.0361 52.124 18.0373L54.1406 18.0386V19.2009V20.3632H53.0469H51.9531V21.4572V22.5511H54.7559H57.5586V28.2258V33.9005H55.3111H53.0636L52.0394 33.1657C51.4761 32.7615 50.7114 32.3215 50.3401 32.1879L49.6649 31.9451L49.5905 30.8376C49.303 26.5591 45.8276 23.0573 41.4258 22.6112C39.6609 22.4324 37.1916 23.0677 35.7093 24.0822C34.8575 24.6651 33.6931 25.7713 33.3545 26.3194L33.0816 26.761L32.0925 26.4047C31.2252 26.0921 30.8932 26.0484 29.3945 26.0492C27.8804 26.05 27.561 26.0933 26.5932 26.4301C25.3129 26.8755 24.2823 27.4791 23.2538 28.3859C22.5281 29.0257 21.4177 30.5628 21.0636 31.4177C20.9653 31.6551 20.8255 31.8494 20.7532 31.8494C20.6809 31.8494 20.1608 32.034 19.5974 32.2597L18.5731 32.6699H14.3451H10.1172V31.0413V29.4129L12.8174 29.3662C15.5046 29.32 15.521 29.3178 16.2359 28.9217C17.0181 28.4882 17.585 27.8436 17.8594 27.0758C17.997 26.691 18.0362 23.9974 18.0409 14.6104L18.0469 2.63607L17.6709 1.89453C17.2519 1.06834 16.421 0.35538 15.6167 0.131946C15.2979 0.0433385 12.8059 -0.0057513 8.95508 0.000538761C3.74978 0.00901667 2.70977 0.0433385 2.19926 0.223699ZM15.3072 2.44737C15.6181 2.61378 15.8594 3.28135 15.8594 3.97476V4.50135H9.0918H2.32422V3.72384C2.32422 3.11384 2.3882 2.87824 2.62145 2.62992L2.91881 2.3135H8.98789C12.6853 2.3135 15.1547 2.36587 15.3072 2.44737ZM67.3594 2.61078L67.6758 2.90819V7.1243V11.3403L58.6865 11.3051L49.6973 11.27L49.6576 7.50964C49.6144 3.41522 49.649 2.9771 50.0467 2.57933C50.3042 2.32184 50.5747 2.3135 58.6778 2.3135H67.0429L67.3594 2.61078ZM15.8594 12.4323V18.0386H9.0918H2.32422V12.4323V6.82594H9.0918H15.8594V12.4323ZM67.6758 14.2873C67.6758 15.22 67.5346 15.5044 66.9747 15.6997C66.3592 15.9142 51.0713 15.9104 50.455 15.6956C49.9337 15.5139 49.6289 14.9169 49.6289 14.0776V13.5262H58.6523H67.6758V14.2873ZM60.9766 19.2009V20.3632H58.7207H56.4648V19.2009V18.0386H58.7207H60.9766V19.2009ZM15.8326 23.3836L15.791 26.404L15.4074 26.7337L15.0238 27.0635H9.03424C3.18186 27.0635 3.03639 27.0571 2.68447 26.7801L2.32422 26.4967V23.4299V20.3632H9.09918H15.8741L15.8326 23.3836ZM6.83594 23.7168V24.8825L9.05762 24.8449L11.2793 24.8073L11.3189 23.6792L11.3587 22.5511H9.09727H6.83594V23.7168ZM42.3921 25.0938C45.0985 25.8888 46.985 28.0702 47.3666 30.8458C47.4188 31.2252 47.3948 32.0158 47.3132 32.6026C47.2315 33.1894 47.1823 33.6869 47.2037 33.7083C47.225 33.7297 47.701 33.8428 48.2616 33.9597C48.8221 34.0765 49.6028 34.3298 49.9964 34.5224C50.9461 34.9872 52.1947 36.3616 52.6183 37.4086C53.8249 40.3906 52.256 43.7923 49.1976 44.8254C48.3543 45.1102 48.2065 45.1133 35 45.1133C21.7935 45.1133 21.6457 45.1102 20.8024 44.8254C17.9167 43.8507 16.3196 40.7466 17.2181 37.8592C17.8685 35.7695 19.6656 34.2599 21.8936 33.9317L22.5693 33.8322L23.0232 32.7053C23.5778 31.3283 24.2149 30.4786 25.3267 29.6329C27.4697 28.0028 29.9746 27.8127 32.5333 29.0863C33.2445 29.4403 33.864 29.7468 33.9099 29.7673C33.9557 29.7878 34.2352 29.3263 34.5309 28.7417C35.4497 26.9249 37.2403 25.452 39.0448 25.0287C39.9142 24.8248 41.5871 24.8573 42.3921 25.0938ZM19.9191 52.2802L20.3027 52.61L20.3416 57.8866L20.3804 63.163H12.4461H4.51172V58.0262C4.51172 52.7804 4.53551 52.5182 5.0467 52.1256C5.21076 51.9996 7.00574 51.9579 12.3996 51.9546L19.5355 51.9503L19.9191 52.2802ZM67.6758 55.3004V58.6505H60.9082H54.1406V55.3004V51.9503H60.9082H67.6758V55.3004ZM56.4648 55.3004V56.4627H57.5586H58.6523V55.3004V54.1381H57.5586H56.4648V55.3004ZM60.9766 55.3004V56.4627H63.2324H65.4883V55.3004V54.1381H63.2324H60.9766V55.3004ZM67.6758 64.3253V67.6754H60.9082H54.1406V64.3253V60.9751H60.9082H67.6758V64.3253ZM56.4648 64.3253V65.4876H58.7207H60.9766V64.3253V63.163H58.7207H56.4648V64.3253ZM63.2553 63.2542C63.2051 63.3042 63.1641 63.8273 63.1641 64.4165V65.4876H64.3262H65.4883V64.3253V63.163H64.4174C63.8282 63.163 63.3053 63.204 63.2553 63.2542ZM22.5586 66.2212C22.5586 66.7564 22.4819 67.0523 22.2752 67.3151L21.9919 67.6754H12.4745H2.95709L2.64059 67.3781C2.38014 67.1332 2.32422 66.94 2.32422 66.2842V65.4876H12.4414H22.5586V66.2212Z" fill="#6A6A6A"/>
</svg>
