<svg width="70" height="68" viewBox="0 0 70 68" fill="none" xmlns="http://www.w3.org/2000/svg">
<path fill-rule="evenodd" clip-rule="evenodd" d="M28.5529 0.491869C28.0984 0.663272 21.8887 4.28178 21.5853 4.55202C21.1459 4.94329 20.8839 5.60071 20.8847 6.30946C20.8854 6.78629 21.0741 7.22575 21.8965 8.6653L22.9074 10.4349L22.3886 11.198C22.1034 11.6178 21.6657 12.3769 21.4161 12.8852L20.9622 13.8093H19.0147C16.9252 13.8093 16.515 13.8963 15.903 14.4684C15.1624 15.1606 15.1322 15.3673 15.1346 19.726C15.1367 23.6216 15.1455 23.7499 15.4427 24.2696C16.0269 25.2909 16.2448 25.3691 18.7215 25.4461L20.9222 25.5146L21.4239 26.4729C21.6998 27 22.1471 27.7599 22.4179 28.1616L22.9103 28.892L21.9456 30.5574C20.7747 32.5788 20.6326 33.2762 21.196 34.2363C21.5052 34.7633 21.8926 35.0282 24.9421 36.7981C27.7002 38.3989 28.4656 38.7838 28.9885 38.8341C30.3507 38.965 30.7866 38.6218 32.046 36.4264L32.9783 34.8012H34.9853H36.9925L37.9254 36.4236C39.1871 38.6178 39.6301 38.9663 40.988 38.833C41.4954 38.7832 42.2237 38.4295 44.4385 37.1576C48.3077 34.9355 48.449 34.8399 48.8097 34.1983C49.4066 33.1367 49.1711 32.3755 47.3072 29.3393L47.0496 28.9198L47.5514 28.1756C47.8273 27.7661 48.2788 27 48.5548 26.4729L49.0564 25.5146L51.2324 25.4461C53.2336 25.3832 53.4444 25.3521 53.8566 25.0582C54.1031 24.8824 54.4265 24.4997 54.5755 24.208C54.8268 23.7154 54.8463 23.392 54.8463 19.7106C54.8463 17.2407 54.7913 15.5984 54.7006 15.3584C54.5024 14.8339 53.9115 14.2258 53.3785 13.9978C53.0726 13.867 52.3365 13.8093 50.9711 13.8093H49.0045L48.6729 13.0944C48.4905 12.7011 48.056 11.9403 47.7071 11.4035L47.0727 10.4277L48.0334 8.75127C49.0593 6.96153 49.2515 6.27975 48.9705 5.42862C48.8847 5.1685 48.6464 4.79831 48.441 4.60596C48.2355 4.41361 46.5899 3.40723 44.7839 2.36978C41.0621 0.231752 40.7278 0.12305 39.6454 0.69873C39.106 0.985681 38.9011 1.24457 38.0021 2.77597L36.975 4.5256L34.9893 4.52711L33.0036 4.52861L32.2504 3.24487C30.9827 1.08439 30.8971 0.972675 30.2849 0.676278C29.7241 0.404935 28.9906 0.326763 28.5529 0.491869ZM30.3766 4.67442C31.6614 6.93346 31.7714 7.04148 32.7045 6.96358C33.62 6.88705 36.3586 6.88705 37.2741 6.96358C38.2016 7.04107 38.3147 6.93196 39.5342 4.78312C40.0713 3.8367 40.5647 2.99187 40.6307 2.90562C40.7148 2.79582 41.6393 3.26198 43.7243 4.46564C45.3598 5.40986 46.7167 6.1972 46.7396 6.2154C46.7624 6.23361 46.2509 7.16415 45.6032 8.28334C44.7009 9.84212 44.4412 10.4026 44.4937 10.6787C44.5313 10.877 44.8668 11.4416 45.2392 11.9333C45.8982 12.8038 47.0404 14.9024 47.0404 15.2427C47.0404 15.3359 47.1916 15.5752 47.3762 15.7744L47.7121 16.1367H50.1151H52.5182V19.6277V23.1188L50.2929 23.1208C47.9011 23.123 47.5193 23.208 47.2212 23.8052C47.1278 23.9925 46.8046 24.6567 46.5029 25.2814C46.2012 25.9061 45.6084 26.8907 45.1856 27.4694C44.5872 28.2887 44.4326 28.6 44.4878 28.8753C44.5267 29.0697 45.0553 30.0872 45.6625 31.1365C46.6086 32.7713 46.7368 33.0663 46.5587 33.1982C46.1252 33.5187 40.7317 36.5712 40.6887 36.5203C40.6639 36.491 40.1343 35.5843 39.5119 34.5056C38.8212 33.3085 38.2597 32.4894 38.0708 32.4035C37.8573 32.3062 37.3338 32.309 36.3825 32.4125C35.3776 32.5217 34.6118 32.5212 33.5599 32.4102C32.3296 32.2805 32.0706 32.2882 31.8067 32.4626C31.6365 32.5751 31.0042 33.5376 30.4017 34.6013C29.6104 35.9983 29.2504 36.5144 29.1052 36.4599C28.9948 36.4183 27.6244 35.6426 26.06 34.7362C23.3627 33.1734 23.2237 33.0728 23.3715 32.7924C23.4572 32.6297 23.9597 31.7574 24.4879 30.8538C25.1011 29.8047 25.45 29.0581 25.4532 28.7881C25.4566 28.4864 25.2539 28.0939 24.746 27.4191C24.3545 26.8987 23.7856 25.9493 23.4819 25.3092C22.6234 23.5006 22.6079 23.4753 22.2494 23.2939C22.0207 23.1782 21.1904 23.1222 19.6858 23.1208L17.4604 23.1188V19.6277V16.1367L19.8227 16.1323C21.4747 16.1293 22.2516 16.0774 22.4062 15.9597C22.5279 15.867 22.9333 15.1451 23.3071 14.3553C23.6811 13.5656 24.305 12.5011 24.694 11.9896C25.0828 11.4783 25.4396 10.9056 25.4869 10.7171C25.5547 10.4474 25.3172 9.93138 24.3742 8.29881C23.7149 7.1573 23.23 6.20171 23.2964 6.17529C23.363 6.14887 24.7116 5.37071 26.2933 4.4462C27.875 3.52155 29.2077 2.7846 29.2546 2.80842C29.3017 2.83238 29.8067 3.67201 30.3766 4.67442ZM32.9351 9.36214C30.2117 9.91851 27.7261 11.5982 26.2203 13.8998C22.2354 19.9912 25.4832 28.1496 32.5877 29.8941C33.8512 30.2044 36.1275 30.2044 37.3909 29.8941C41.8191 28.8067 45.0409 25.0577 45.4645 20.4995C45.6447 18.5597 45.0579 16.0343 44.0171 14.2699C43.4126 13.2451 41.4425 11.27 40.4368 10.6804C38.1297 9.32805 35.427 8.85313 32.9351 9.36214ZM36.7011 11.6879C39.4899 12.2733 41.8482 14.4085 42.7483 17.1635C43.2327 18.646 43.265 20.5589 42.8292 21.9551C42.0025 24.6035 39.9829 26.6335 37.362 27.4504C36.3541 27.7646 36.0601 27.7968 34.6852 27.7443C33.5578 27.7014 32.921 27.6052 32.3282 27.3888C28.4734 25.9814 26.1924 22.0582 26.9704 18.1735C27.3145 16.4557 27.9994 15.176 29.2338 13.9449C31.3015 11.8827 33.8949 11.0989 36.7011 11.6879ZM33.4829 14.0288C30.6597 14.7839 28.7681 17.6685 29.2271 20.5184C29.5299 22.3976 30.7925 24.095 32.5142 24.9373C33.3691 25.3555 33.4937 25.3777 34.9893 25.3777C36.4849 25.3777 36.6095 25.3555 37.4644 24.9373C39.7681 23.8103 41.1257 21.2936 40.7469 18.8524C40.205 15.3608 36.8448 13.1296 33.4829 14.0288ZM36.0257 16.3381C37.466 16.7677 38.4489 18.1022 38.4451 19.6227C38.4422 20.7304 38.1097 21.4907 37.316 22.2041C36.3626 23.061 35.1506 23.3332 33.8706 22.9778C33.1369 22.774 32.0464 21.7363 31.7489 20.9587C31.0316 19.0842 32.0365 16.9236 33.8938 16.3471C34.7035 16.0957 35.206 16.0936 36.0257 16.3381ZM2.28464 36.2481C1.46229 36.5321 0.733338 37.1643 0.296074 37.9728L0 38.5204V51.8001V65.0798L0.373858 65.7157C0.579549 66.0653 0.949299 66.5214 1.19553 66.7289C2.09059 67.4834 2.34339 67.5301 5.84109 67.5858C9.55366 67.6449 10.2747 67.548 11.3127 66.8497L12.0102 66.3804L27.0945 66.378C43.7364 66.3753 43.1845 66.402 45.0508 65.5125C46.4368 64.852 67.8013 51.833 68.564 51.1842C68.9476 50.8578 69.3585 50.3244 69.5911 49.8511C70.098 48.8188 70.139 47.2296 69.6839 46.2388C68.9562 44.6544 67.4287 43.6546 65.7357 43.6545C64.8491 43.6543 63.9559 43.9286 53.4743 47.4192C41.661 51.3533 40.7015 51.6186 40.9715 50.876C41.0329 50.7065 41.0833 49.9827 41.0833 49.2674C41.0833 48.0859 41.0428 47.8814 40.6414 47.0342C40.0887 45.8674 38.8224 44.5222 37.7277 43.939C36.1625 43.1049 36.0061 43.0828 30.9495 42.9756C27.055 42.8931 26.1701 42.8373 25.5401 42.6343C24.4366 42.2785 23.2793 41.6644 22.1165 40.8177C19.812 39.1395 17.8072 38.4794 14.6392 38.3559L12.5712 38.2754L12.3161 37.8016C12.1757 37.541 11.8149 37.1173 11.5142 36.8601C10.6068 36.0836 10.0287 35.9872 6.30876 35.9922C3.47401 35.9961 2.91089 36.0318 2.28464 36.2481ZM10.0961 38.6954L10.4078 39.0071L10.4443 51.5644C10.4717 61.0254 10.4406 64.2184 10.3179 64.5148C10.0367 65.1944 9.57119 65.2851 6.36792 65.2851C3.30214 65.2851 2.70986 65.1859 2.40748 64.6211C2.30464 64.4289 2.25958 60.5162 2.25958 51.7711C2.25958 38.0962 2.22261 38.7676 2.9932 38.4473C3.15465 38.3803 4.74869 38.3384 6.53554 38.3544C9.71498 38.3829 9.79112 38.3903 10.0961 38.6954ZM17.2349 40.9907C18.4804 41.3252 19.4771 41.8156 20.6741 42.6829C22.1943 43.7843 23.0672 44.2504 24.5815 44.7694L25.8825 45.2153L30.5386 45.3006C34.9189 45.3808 35.241 45.404 35.9756 45.6911C36.9905 46.0879 38.0291 47.0304 38.4904 47.9731C38.7986 48.6026 38.847 48.8553 38.8003 49.5891C38.7677 50.0998 38.6468 50.6086 38.5073 50.8215L38.2697 51.184H34.3194C29.8891 51.184 28.6652 51.322 26.9205 52.0187C25.8694 52.4384 24.0516 53.4936 23.597 53.948C23.2293 54.3156 23.2733 55.091 23.6852 55.5027C24.1873 56.0047 24.6946 55.9372 25.8017 55.2213C26.8677 54.5319 27.6368 54.1759 28.7961 53.8355C29.4621 53.64 30.5893 53.5918 36.2903 53.5154L43.0006 53.4256L54.0921 49.7036C61.4482 47.2352 65.3732 45.9817 65.7464 45.9817C67.2814 45.9817 68.2519 47.8789 67.3475 49.1119C67.1047 49.4432 46.2586 62.2786 44.4056 63.2379C42.7939 64.0723 43.2873 64.0487 27.3547 64.0509L12.8043 64.053V52.3266V40.6003L14.6188 40.6879C15.6167 40.7361 16.794 40.8723 17.2349 40.9907Z" fill="#6A6A6A"/>
</svg>
