<svg width="70" height="66" viewBox="0 0 70 66" fill="none" xmlns="http://www.w3.org/2000/svg">
<path fill-rule="evenodd" clip-rule="evenodd" d="M4.63016 0.241549C2.42114 0.673925 0.531228 2.62874 0.109028 4.91783C0.0185368 5.40852 -0.0166466 13.4181 0.00731093 28.0932L0.0440002 50.5188L0.404595 51.3767C1.07623 52.9739 2.11229 54.0124 3.70581 54.6856L4.56171 55.047L16.3009 55.085L28.0401 55.123L28.0415 58.9957C28.0427 62.7713 28.0508 62.8856 28.364 63.5546C28.7626 64.4059 29.2942 64.9498 30.0936 65.3243C30.7087 65.6124 30.7385 65.6128 48.7728 65.6492C68.8993 65.6895 67.7691 65.7396 68.852 64.7591C69.1555 64.4842 69.538 64.0082 69.7018 63.7011L70 63.1429V44.6184C70 26.5714 69.9931 26.08 69.7348 25.5583C69.589 25.2637 69.2646 24.817 69.0139 24.5658C68.2063 23.7562 67.8383 23.6346 65.9614 23.5572L64.2502 23.4867L64.1817 14.0186C64.121 5.60666 64.0878 4.48723 63.8853 3.98295C63.3403 2.62641 62.282 1.41038 61.1427 0.831727C59.6004 0.048345 61.2506 0.0895106 32.0841 0.105977C17.2893 0.11421 4.96981 0.174998 4.63016 0.241549ZM59.8877 2.7956C60.5579 3.15484 61.2232 3.79428 61.5504 4.39351C61.7656 4.78761 61.7893 5.63383 61.8239 14.1901L61.8617 23.5553H60.1545H58.4474L58.4054 18.5125C58.3639 13.5243 58.3601 13.4642 58.0486 12.962C57.8753 12.6829 57.5057 12.3124 57.2272 12.1387L56.7207 11.8231H32.0786H7.43661L6.95226 12.1251C6.68585 12.2911 6.33155 12.67 6.16508 12.9671L5.86226 13.507V30.5861V47.6652L6.17028 48.1188C6.33963 48.3683 6.65217 48.7016 6.86478 48.8595C7.24687 49.1434 7.36747 49.1474 17.6114 49.2152L27.9716 49.2838L28.01 51.0364L28.0483 52.7889L16.4419 52.7516C5.42541 52.7162 4.81114 52.7012 4.35636 52.4588C3.68746 52.1021 3.01624 51.4402 2.66728 50.7932L2.3713 50.2443L2.33544 27.8528C2.30012 5.73236 2.30299 5.45243 2.57419 4.72586C2.91137 3.82241 3.66898 3.05398 4.57156 2.69982C5.23074 2.44103 5.86458 2.43568 32.284 2.46367L59.3218 2.49221L59.8877 2.7956ZM7.47029 6.18271C7.04905 6.50325 6.90818 7.14434 7.15419 7.62117C7.4451 8.18501 8.10633 8.36517 9.66069 8.30425C10.7532 8.26144 10.9492 8.21464 11.259 7.92278C11.7297 7.47929 11.7371 6.79018 11.276 6.32816C10.9567 6.00803 10.8601 5.99156 9.32515 5.99568C8.19791 5.9987 7.63785 6.05523 7.47029 6.18271ZM14.3862 6.30003C14.0541 6.65927 13.9807 7.00465 14.1219 7.54406C14.2656 8.09389 14.9115 8.32401 16.3103 8.32401C18.1077 8.32401 18.594 8.05341 18.594 7.05336C18.594 6.74435 18.4875 6.48775 18.2772 6.2896C17.9881 6.0175 17.8158 5.99129 16.316 5.99129C14.7865 5.99129 14.6517 6.01283 14.3862 6.30003ZM21.3943 6.32816C20.7945 6.92918 21.0007 7.87791 21.797 8.18144C22.301 8.37341 26.6474 8.36586 27.2024 8.17197C27.7934 7.96545 28.1094 7.34852 27.9132 6.78441C27.6496 6.02669 27.5363 6.00035 24.5087 5.99568C21.7386 5.99129 21.7293 5.99225 21.3943 6.32816ZM30.7035 6.32816C30.2683 6.76424 30.2661 7.36732 30.6977 7.87036L31.0281 8.2554L44.0113 8.29629C53.2388 8.32524 57.146 8.293 57.5185 8.18459C57.9181 8.06837 58.0883 7.92209 58.2359 7.56834C58.4501 7.05405 58.3902 6.76026 57.977 6.30003L57.6997 5.99129H44.3695H31.0394L30.7035 6.32816ZM16.2667 16.4885V18.8899H12.2281H8.18956V16.4885V14.0872H12.2281H16.2667V16.4885ZM56.0362 16.4885V18.8212L37.3835 18.8561L18.7309 18.8908V16.4885V14.0862L37.3835 14.121L56.0362 14.1558V16.4885ZM16.2667 23.5553V25.888H12.2281H8.18956V23.5553V21.2226H12.2281H16.2667V23.5553ZM56.0759 22.3546L56.0362 23.4867L43.2252 23.5553L30.4142 23.6239L29.7405 24.038C29.3296 24.2908 28.8826 24.7321 28.5941 25.1701L28.1215 25.888H23.4261H18.7309V23.5553V21.2226H37.4232H56.1157L56.0759 22.3546ZM67.3029 26.1663C67.4668 26.3193 67.6342 26.5816 67.6749 26.7495C67.7155 26.9171 67.7317 35.0645 67.7108 44.8547L67.6727 62.6551L67.3608 62.9675L67.049 63.2801H49.0387H31.0282L30.6977 62.8951L30.3674 62.51V44.5621V26.6142L30.7031 26.2511L31.0389 25.888H49.022C66.8976 25.888 67.0068 25.8897 67.3029 26.1663ZM16.2667 30.5534V32.8862H12.2281H8.18956V30.5534V28.2207H12.2281H16.2667V30.5534ZM28.0401 30.5534V32.8862H23.3855H18.7309V30.5534V28.2207H23.3855H28.0401V30.5534ZM45.4256 28.4861C44.9678 28.6257 44.2132 29.0218 43.7472 29.3672C43.2624 29.7264 42.488 30.881 42.2758 31.561C42.1852 31.8511 41.886 34.3519 41.6109 37.1184L41.1106 42.1484L39.0589 42.2233C37.9303 42.2646 36.8975 42.349 36.7636 42.4111C36.1681 42.6869 36.0712 43.6928 36.5902 44.2129C36.9146 44.5382 36.9914 44.5498 38.8262 44.5498C39.8711 44.5498 40.7551 44.5788 40.7906 44.6143C40.8563 44.6801 39.7578 56.0311 39.6024 56.8927C39.4901 57.5151 38.6615 58.3401 37.9604 58.5275C36.5669 58.9001 35.2713 57.9913 35.032 56.4735C34.8283 55.1823 33.8819 54.7278 33.0769 55.5347C32.6796 55.9329 32.6632 55.9928 32.7484 56.7353C32.9272 58.2945 33.9959 59.7729 35.4327 60.4483C36.0535 60.7402 36.3898 60.8029 37.3493 60.8062C38.3275 60.8095 38.6364 60.7521 39.2871 60.4464C40.5425 59.8565 41.4952 58.714 41.8452 57.3789C41.9242 57.0774 42.2428 54.2065 42.5532 50.999C42.8635 47.7915 43.1452 45.0284 43.1793 44.8585C43.2408 44.5517 43.257 44.5498 45.7776 44.5498C48.2878 44.5498 48.3172 44.5463 48.6497 44.2129C49.0247 43.8372 49.0964 43.1291 48.7992 42.737C48.4782 42.3135 47.9016 42.217 45.6913 42.217C43.5208 42.217 43.5098 42.2155 43.5083 41.9083C43.5047 41.2215 44.3609 32.7816 44.4819 32.3092C44.8521 30.8644 46.4261 30.1489 47.7477 30.8247C48.4338 31.1757 48.8077 31.715 48.9988 32.6301C49.1972 33.5798 49.5611 33.9839 50.2179 33.9839C51.8123 33.9839 51.6569 31.4161 49.9595 29.7148C48.9981 28.7512 48.0282 28.3526 46.6875 28.3697C46.1822 28.3762 45.6142 28.4286 45.4256 28.4861ZM16.2667 37.5516V39.8843H12.2281H8.18956V37.5516V35.2189H12.2281H16.2667V37.5516ZM28.0401 37.5516V39.8843H23.3855H18.7309V37.5516V35.2189H23.3855H28.0401V37.5516ZM16.2667 44.5498V46.8825H12.2281H8.18956V44.5498V42.217H12.2281H16.2667V44.5498ZM28.0401 44.5498V46.8825H23.3855H18.7309V44.5498V42.217H23.3855H28.0401V44.5498ZM60.2801 47.0809C60.0542 47.183 58.8859 48.2592 57.6838 49.4725L55.4983 51.6785L53.1502 49.3491C50.9064 47.1233 50.7778 47.0197 50.2599 47.0197C49.5452 47.0197 49.1227 47.4506 49.1227 48.1796C49.1227 48.675 49.253 48.8359 51.4461 51.0523L53.7694 53.4004L51.4187 55.762C49.2692 57.9214 49.068 58.1649 49.068 58.6055C49.068 59.2702 49.5594 59.781 50.1988 59.781C50.6379 59.781 50.8839 59.5771 53.0515 57.4174L55.4237 55.0537L57.5781 57.1927C59.9455 59.5431 60.239 59.781 60.771 59.781C61.3038 59.781 61.8544 59.1694 61.8544 58.5778C61.8544 58.1404 61.6455 57.8863 59.4996 55.7132L57.1449 53.3285L59.4996 50.9542C61.5419 48.8951 61.8544 48.5229 61.8544 48.1505C61.8544 47.6796 61.4086 47.0873 60.9646 46.9686C60.814 46.9284 60.506 46.9789 60.2801 47.0809Z" fill="#6A6A6A"/>
</svg>
