<svg width="70" height="70" viewBox="0 0 70 70" fill="none" xmlns="http://www.w3.org/2000/svg">
<path fill-rule="evenodd" clip-rule="evenodd" d="M5.95182 0.321831C5.1439 0.698212 4.3614 1.55201 4.13691 2.30203C4.02828 2.66488 3.97827 4.51698 3.97827 8.18194V13.5322H2.63038C1.47363 13.5322 1.23138 13.5724 0.922453 13.8156L0.562422 14.0989V17.2424C0.562422 19.0315 0.620082 20.4938 0.696187 20.6361C0.898405 21.0142 1.57351 21.1883 2.83724 21.1883H3.97827V22.6239V24.0594H2.56739C0.378103 24.0594 0.562422 23.4544 0.562422 30.6386C0.562422 35.5515 0.596034 36.6312 0.755896 36.8505C0.920676 37.0765 1.16935 37.1259 2.42966 37.1842L3.90996 37.2525L3.94876 38.7222L3.98756 40.192H2.57204C0.469784 40.192 0.562422 40.0174 0.562422 43.9795C0.562422 47.9576 0.461039 47.7596 2.53132 47.8263L3.97827 47.873V49.296V50.7191H2.63038C1.47363 50.7191 1.23138 50.7593 0.922453 51.0025L0.562422 51.2858V54.495V57.7041L0.897859 58.0396C1.20938 58.3515 1.33058 58.3753 2.60578 58.3753H3.97827V62.7685C3.97827 65.7072 4.03074 67.337 4.13691 67.6914C4.34213 68.377 5.08747 69.2418 5.80329 69.6249L6.36937 69.9278L25.2824 69.9639L47.6012 69.9307V69.44C47.5993 68.9705 47.5986 69.3 47.6012 68.6V68.04L25.513 67.9454H6.82655L6.42717 67.5458L6.02778 67.1462V62.7706V58.395L8.08973 58.3509C10.8747 58.2915 10.6733 58.5898 10.6733 54.5259V51.3903L10.3379 51.0548C10.0126 50.7291 9.94303 50.7191 8.01513 50.7191H6.02778V49.3006V47.882L6.80195 47.8177C8.07921 47.7118 8.0773 47.7177 8.0773 43.9604C8.0773 40.8195 8.07402 40.7834 7.76112 40.4892C7.52038 40.2629 7.27566 40.192 6.73637 40.192H6.02778V38.6881V37.1842H6.77927C7.34863 37.1842 7.59703 37.1179 7.80403 36.9108C8.06896 36.6457 8.0773 36.4551 8.0773 30.6456V24.654L7.76112 24.3566C7.52038 24.1303 7.27566 24.0594 6.73637 24.0594H6.02778V22.6239V21.1883H6.48565C7.11635 21.1883 7.78326 20.9357 7.94353 20.6361C8.01964 20.4938 8.0773 19.0315 8.0773 17.2424V14.0989L7.71727 13.8156C7.46518 13.6171 7.15816 13.5322 6.69251 13.5322H6.02778V8.18974V2.84726L6.42717 2.44764L6.82655 2.04801H21.1137H35.401L35.4366 18.8542C35.4723 35.5872 35.4737 35.662 35.7542 36.0378C36.3914 36.8919 36.6417 36.9791 38.4542 36.9791C39.9919 36.9791 40.1528 36.9542 40.578 36.6509C40.8309 36.4702 41.1524 36.0704 41.2924 35.7622C41.5358 35.2257 41.5468 34.4952 41.5496 18.6249L41.5526 2.04801H42.6435H43.7346L43.7708 18.7616L43.8071 35.4752L44.1197 35.9782C44.3079 36.2812 44.675 36.5988 45.0424 36.7768C45.5735 37.0339 45.8373 37.0663 47.0773 37.0257C48.6509 36.9742 48.9835 36.832 49.5799 35.9551L49.8873 35.5031V25.0797C49.8873 15.3386 49.8716 14.6367 49.6471 14.3595C49.2867 13.9141 48.5605 13.9373 48.1566 14.4071L47.8378 14.778V24.8934V35.0088L46.8472 34.9686L45.8566 34.9284L45.8219 18.4882L45.7872 2.04801H46.8073H47.8274L47.8668 6.68216C47.9035 11.0165 47.9229 11.335 48.1664 11.604C48.5061 11.9794 49.2458 11.9866 49.6141 11.6182C49.8767 11.3554 49.8873 11.1625 49.8873 6.69638V2.04801H58.2325H66.5777L66.9771 2.44764L67.3765 2.84726V34.9967V67.1462L66.9771 67.5458L66.5777 67.9454L57.1186 68.04C51.332 68.04 47.7386 68.04 47.6012 68.04C47.5986 68.18 47.5986 68.32 47.6012 68.6C47.5986 69.02 47.5986 69.02 47.6012 69.44C47.6026 69.6795 47.5986 69.72 47.6012 69.9307C47.7689 69.9721 52.2101 69.9884 57.4705 69.9669L67.0349 69.9278L67.601 69.6249C68.3168 69.2418 69.0621 68.377 69.2674 67.6914C69.4957 66.9292 69.4957 3.06423 69.2674 2.30203C69.0429 1.55201 68.2604 0.698212 67.4524 0.321831L66.7616 0H36.7021H6.64264L5.95182 0.321831ZM39.5031 18.5224V34.9967H38.4784H37.4536V18.5224V2.04801H38.4784H39.5031V18.5224ZM53.3162 5.95456C52.729 6.44879 52.5793 7.08835 52.6425 8.83012C52.7036 10.5123 52.8948 10.9716 53.6683 11.295C54.3486 11.5795 63.6753 11.5654 64.2286 11.2791C65.0929 10.8319 65.1903 10.5444 65.1903 8.44157V6.53232L64.7258 6.06748L64.2612 5.60265H58.9977H53.734L53.3162 5.95456ZM13.7031 7.83304C13.3365 8.22364 13.3224 8.75014 13.6673 9.17628C13.8965 9.4597 14.0447 9.49907 14.8826 9.49907C16.0223 9.49907 16.412 9.24984 16.412 8.52086C16.412 7.77343 16.0338 7.51668 14.9328 7.51668C14.1346 7.51668 13.9573 7.56234 13.7031 7.83304ZM20.1111 7.87693C19.4138 8.76367 20.0467 9.56743 21.4422 9.56743C22.3636 9.56743 22.8338 9.19706 22.8338 8.47151C22.8338 7.73543 22.4848 7.51668 21.3103 7.51668C20.4834 7.51668 20.3666 7.55168 20.1111 7.87693ZM26.5329 7.87693C25.8332 8.76682 26.4688 9.56743 27.8749 9.56743C28.7701 9.56743 29.3046 9.14894 29.2852 8.46331C29.2651 7.75675 28.8752 7.51668 27.7474 7.51668C26.904 7.51668 26.7892 7.55072 26.5329 7.87693ZM63.1408 8.54397V9.43468L58.9393 9.39845L54.7378 9.36235L54.6971 8.50787L54.6565 7.6534H58.8986H63.1408V8.54397ZM57.7757 13.3988C56.4668 13.7295 55.331 14.6362 54.6669 15.8802C54.2699 16.6241 54.1977 16.9076 54.151 17.9071C54.0754 19.5261 54.4147 20.4104 55.5456 21.5422C56.6787 22.6758 57.559 23.013 59.1895 22.9378C60.1148 22.8951 60.5221 22.8053 61.1216 22.5118C62.0495 22.0574 62.9075 21.1533 63.3922 20.1185C63.7014 19.4586 63.7557 19.1589 63.7557 18.1122C63.7557 17.0394 63.7063 16.7813 63.3706 16.0972C62.5611 14.4477 61.0326 13.414 59.2645 13.3204C58.7286 13.292 58.0589 13.3274 57.7757 13.3988ZM17.4929 13.788C17.2643 13.9731 17.1771 14.1857 17.1771 14.5576C17.1771 15.2882 17.5813 15.583 18.5828 15.583C19.456 15.583 19.8886 15.3572 20.0201 14.8331C20.1199 14.4348 19.8138 13.7452 19.4801 13.6171C18.9898 13.4289 17.811 13.5303 17.4929 13.788ZM23.0572 13.8156C22.5866 14.186 22.5664 14.8655 23.0133 15.2857C23.482 15.7262 24.8487 15.7146 25.2694 15.2666C25.6897 14.8189 25.6618 14.174 25.2064 13.8156C24.9464 13.611 24.6479 13.5322 24.1318 13.5322C23.6157 13.5322 23.3172 13.611 23.0572 13.8156ZM59.9685 15.5218C62.105 16.4149 62.3949 19.1798 60.4874 20.4706C59.9294 20.8482 59.709 20.9149 59.0195 20.9149C57.8083 20.9149 56.9557 20.4035 56.418 19.3539C56.0208 18.579 56.1159 17.3239 56.6308 16.5456C57.3146 15.5116 58.8311 15.0465 59.9685 15.5218ZM6.02778 17.3603V19.1376H4.31986H2.61193V17.3603V15.583H4.31986H6.02778V17.3603ZM13.3377 19.2687C12.9544 19.4284 12.3576 20.0908 12.1851 20.5478C12.0906 20.7977 12.0397 22.9695 12.0397 26.7405V32.5483L12.3751 32.8838C12.8025 33.3116 13.3264 33.3116 13.7538 32.8838L14.0892 32.5483V26.8671V21.1859L21.365 21.2213L28.6407 21.2567V30.6901V40.1236L21.365 40.159L14.0892 40.1944V38.0678C14.0892 35.9923 14.0811 35.9332 13.7538 35.6058C13.3234 35.175 12.8022 35.1783 12.3665 35.6143L12.0225 35.9585L12.0652 38.3828C12.1059 40.6884 12.1241 40.8297 12.4361 41.2675C13.0986 42.1969 13.3415 42.2363 18.4273 42.2397L22.9704 42.2427V44.6229V47.0032L23.5025 47.6649C23.7951 48.0288 24.5944 48.8791 25.2787 49.5542L26.5229 50.7817V54.3734V57.9651L21.5699 57.9672C17.9108 57.9687 16.5311 58.0132 16.2885 58.1381C15.7612 58.4092 15.4225 58.9849 15.3507 59.7323C15.2849 60.4179 15.2787 60.426 14.8165 60.426C14.2671 60.426 13.6112 60.7335 13.4909 61.0474C13.1826 61.8511 13.7025 62.4768 14.6786 62.4768H15.3189V63.028C15.3189 63.808 15.6379 64.476 16.1647 64.7986C16.6117 65.0725 16.768 65.0752 29.8337 65.0409L43.0504 65.006L43.4879 64.5683C43.8619 64.1939 43.934 64.0106 43.9851 63.3036L44.0448 62.4768H44.7116C45.4985 62.4768 45.9249 62.1458 45.9249 61.5349C45.9249 60.8888 45.5313 60.5373 44.7206 60.4594L44.0121 60.3913V59.8482C44.0121 59.5495 43.9198 59.1108 43.8071 58.8732C43.3968 58.0079 43.6802 58.04 35.814 57.9651L28.6407 57.8968L28.5724 53.9198L28.5041 49.9429L26.762 48.1247L25.0199 46.3066V44.2746V42.2427H26.9239C27.9711 42.2427 29.001 42.1773 29.2125 42.0976C29.9077 41.8353 30.4621 41.1674 30.6212 40.4003C30.7193 39.9275 30.7549 36.566 30.7289 30.2025C30.6911 20.9088 30.6844 20.6999 30.4096 20.2317C30.2552 19.9688 29.9233 19.6151 29.672 19.4456L29.2151 19.1376L21.4131 19.1462C17.1219 19.151 13.488 19.2061 13.3377 19.2687ZM17.8248 23.2333C16.7816 23.482 16.0099 24.2453 15.7227 25.3128C15.6319 25.6498 15.5949 27.8177 15.6205 31.2979C15.6593 36.5878 15.6692 36.7661 15.9463 37.1402C16.1036 37.3523 16.4355 37.6643 16.6839 37.8336C17.1125 38.1255 17.2658 38.1412 19.6912 38.1412C22.1166 38.1412 22.2699 38.1255 22.6985 37.8336C23.6701 37.1719 23.7141 37.0266 23.7954 34.2006C23.8815 31.2138 23.8354 31.3475 25.6473 28.827C26.9234 27.0521 27.0708 26.7513 27.0664 25.9304C27.0597 24.665 26.1269 23.5187 24.8874 23.2528C24.1057 23.085 18.5114 23.0696 17.8248 23.2333ZM24.7162 25.366C24.8833 25.483 25.0199 25.7171 25.0199 25.8862C25.0199 26.0553 24.5023 26.9056 23.8697 27.776C21.9421 30.4278 21.7407 31.0231 21.7407 34.0684V36.0905H19.6912H17.6417V31.0408C17.6417 28.2079 17.6982 25.8423 17.7705 25.652C17.8414 25.4655 18.0105 25.2841 18.1463 25.2488C18.2821 25.2137 19.7475 25.1777 21.4028 25.169C23.9237 25.1557 24.4619 25.1877 24.7162 25.366ZM6.02778 30.6218V35.1334H4.31986H2.61193V30.6218V26.1101H4.31986H6.02778V30.6218ZM53.3529 26.6802C53.062 26.8212 52.7566 27.3283 52.7566 27.6703C52.7566 27.7695 52.8841 28.0127 53.0399 28.2108C53.2892 28.5281 53.4203 28.571 54.1391 28.571C54.8234 28.571 55.0093 28.5169 55.2905 28.2354C55.475 28.0508 55.6259 27.8077 55.6259 27.6951C55.6259 27.3109 55.3232 26.8242 54.9896 26.672C54.5807 26.4857 53.7459 26.4898 53.3529 26.6802ZM58.1284 26.658C57.5153 26.9051 57.3709 27.637 57.8221 28.2108C58.0699 28.5262 58.2041 28.571 58.9 28.571C59.7956 28.571 60.2033 28.3314 60.3479 27.72C60.4185 27.4214 60.354 27.2654 60.0227 26.9339C59.6856 26.5966 59.5003 26.5219 59.0182 26.5289C58.693 26.5337 58.2926 26.5918 58.1284 26.658ZM62.9106 26.658C62.2975 26.9051 62.1531 27.637 62.6043 28.2108C62.8532 28.5276 62.9851 28.571 63.6973 28.571C64.325 28.571 64.5686 28.5095 64.7804 28.2976C65.4988 27.5787 64.8968 26.5121 63.7822 26.5289C63.467 26.5337 63.0748 26.5918 62.9106 26.658ZM55.9998 31.7497C55.4455 32.1709 55.5095 33.3139 56.1002 33.5407C56.595 33.7307 57.5004 33.6308 57.862 33.3461C58.3599 32.9543 58.3599 32.254 57.862 31.8622C57.4485 31.5367 56.3661 31.4713 55.9998 31.7497ZM60.0241 31.8576C59.6221 32.2323 59.6221 32.976 60.0241 33.3508C60.4374 33.7361 61.4687 33.7336 61.961 33.3461C62.4589 32.9543 62.4589 32.254 61.961 31.8622C61.4687 31.4748 60.4374 31.4723 60.0241 31.8576ZM48.4816 39.7834C48.2894 39.9348 48.0917 40.2424 48.0423 40.467C47.9541 40.8692 47.9391 40.8755 47.0687 40.8755C45.5178 40.8755 44.9815 41.415 44.8612 43.0961C44.8011 43.9357 44.7678 44.02 44.4957 44.02C44.0679 44.02 43.6021 44.5718 43.6021 45.0785C43.6021 45.5441 44.1194 46.0708 44.577 46.0708C44.7881 46.0708 44.8319 46.1769 44.8319 46.6894C44.8319 47.2691 44.8058 47.3132 44.417 47.391C43.3104 47.6125 43.3753 49.352 44.4903 49.352C44.809 49.352 44.8319 49.3975 44.8319 50.0355C44.8319 50.6115 44.7917 50.7191 44.577 50.7191C44.1095 50.7191 43.6021 51.2455 43.6021 51.7306C43.6021 52.2376 44.0696 52.7699 44.5149 52.7699C44.7633 52.7699 44.8026 52.8749 44.8612 53.6938C44.9793 55.3458 45.5604 55.9144 47.1303 55.9144C47.9322 55.9144 47.9549 55.9245 48.0423 56.3229C48.1399 56.7671 48.69 57.2815 49.0675 57.2815C49.449 57.2815 50.0029 56.7593 50.0494 56.3557C50.0886 56.015 50.1483 55.9792 50.7413 55.941C51.3498 55.9019 51.3903 55.9202 51.3903 56.2335C51.3903 56.787 51.8278 57.1995 52.415 57.1995C52.9994 57.1995 53.4398 56.7876 53.4398 56.241C53.4398 55.9402 53.4938 55.9144 54.123 55.9144C54.7872 55.9144 54.8061 55.9254 54.8061 56.3145C54.8061 56.7468 55.3351 57.2815 55.7626 57.2815C56.1401 57.2815 56.6902 56.7671 56.7877 56.3229C56.8763 55.9193 56.8883 55.9144 57.7887 55.9134C59.3088 55.9119 59.8678 55.3638 59.9697 53.7752C60.029 52.851 60.0584 52.7699 60.334 52.7699C60.762 52.7699 61.2279 52.2182 61.2279 51.7114C61.2279 51.2458 60.7106 50.7191 60.2531 50.7191C60.0384 50.7191 59.9982 50.6115 59.9982 50.0355C59.9982 49.3975 60.0211 49.352 60.3398 49.352C61.4548 49.352 61.5197 47.6125 60.4131 47.391C60.0243 47.3132 59.9982 47.2691 59.9982 46.6894C59.9982 46.1769 60.042 46.0708 60.2531 46.0708C60.7206 46.0708 61.2279 45.5444 61.2279 45.0593C61.2279 44.552 60.7605 44.02 60.3148 44.02C60.0633 44.02 60.0276 43.9168 59.9702 43.024C59.8664 41.4044 59.3255 40.8755 57.7722 40.8755H56.899L56.7418 40.3512C56.5921 39.8507 56.1714 39.5084 55.7063 39.5084C55.3277 39.5084 54.8061 40.0686 54.8061 40.4754C54.8061 40.8645 54.7872 40.8755 54.123 40.8755C53.4822 40.8755 53.4398 40.8539 53.4398 40.5276C53.4398 40.077 52.868 39.5084 52.415 39.5084C51.959 39.5084 51.3903 40.0781 51.3903 40.535C51.3903 40.8738 51.3598 40.8885 50.7413 40.8489C50.1483 40.8107 50.0886 40.7749 50.0494 40.4342C50.0029 40.0306 49.449 39.5084 49.0675 39.5084C48.9374 39.5084 48.6739 39.6321 48.4816 39.7834ZM6.02778 44.02V45.7973H4.31986H2.61193V44.02V42.2427H4.31986H6.02778V44.02ZM57.9487 48.3949V53.8636H52.415H46.8814V48.3949V42.9263H52.415H57.9487V48.3949ZM49.1852 45.5119C48.8665 45.77 48.8626 45.8054 48.8626 48.378C48.8626 51.2449 48.8824 51.3178 49.7093 51.4832C50.06 51.5535 50.2092 51.5032 50.4932 51.2191C50.8438 50.8683 50.8438 50.8679 50.8438 48.3949C50.8438 45.9513 50.8398 45.9176 50.5083 45.5861C50.1061 45.1835 49.6237 45.1564 49.1852 45.5119ZM54.3218 45.5861C53.9903 45.9176 53.9863 45.9513 53.9863 48.3949C53.9863 50.8679 53.9863 50.8683 54.3369 51.2191C54.6198 51.5021 54.7717 51.5538 55.1226 51.486C55.9723 51.3218 56.0359 51.1052 56.0359 48.3736C56.0359 45.9525 56.0316 45.9174 55.7004 45.5861C55.516 45.4015 55.2058 45.2505 55.0111 45.2505C54.8164 45.2505 54.5062 45.4015 54.3218 45.5861ZM15.3455 47.3819C12.7746 48.6637 12.7985 52.2513 15.3872 53.6323C16.2472 54.0911 17.634 54.0478 18.5645 53.533C19.7596 52.872 20.3753 51.8341 20.373 50.4843C20.3707 49.0985 19.4798 47.7354 18.2367 47.2158C17.4781 46.8986 16.1633 46.9742 15.3455 47.3819ZM33.5179 47.3819C30.947 48.6637 30.9709 52.2513 33.5595 53.6323C34.4195 54.0911 35.8064 54.0478 36.7368 53.533C38.257 52.6922 38.9017 51.0475 38.386 49.3256C38.175 48.6211 37.3255 47.6693 36.5891 47.3127C35.721 46.8922 34.4422 46.921 33.5179 47.3819ZM17.9255 49.4782C18.4827 50.0357 18.4829 50.8113 17.9262 51.4347C17.5877 51.8137 17.4344 51.8812 16.9125 51.8812C15.5546 51.8812 14.9656 50.3302 15.9697 49.399C16.4927 48.9141 17.3983 48.9507 17.9255 49.4782ZM36.0978 49.4782C37.2851 50.6662 35.7047 52.5926 34.3154 51.6506C33.1041 50.8295 33.6335 49.0785 35.093 49.0785C35.58 49.0785 35.7766 49.1567 36.0978 49.4782ZM8.62383 54.5472V56.3245H5.61788H2.61193V54.5472V52.7699H5.61788H8.62383V54.5472ZM41.9625 61.5197V63.0236H29.6655H17.3684V61.5197V60.0159H29.6655H41.9625V61.5197ZM50.8675 63.4767C50.4472 63.9244 50.4751 64.5693 50.9305 64.9277C51.2773 65.2007 51.4475 65.2111 55.5576 65.2111C59.6677 65.2111 59.838 65.2007 60.1847 64.9277C60.6359 64.5726 60.6784 63.8409 60.2715 63.4338C60.0094 63.1716 59.8161 63.1603 55.5814 63.1603H51.1647L50.8675 63.4767Z" fill="#6A6A6A"/>
</svg>
