<svg width="62" height="70" viewBox="0 0 62 70" fill="none" xmlns="http://www.w3.org/2000/svg">
<path fill-rule="evenodd" clip-rule="evenodd" d="M21.4937 0.245683C20.1732 0.712564 19.0299 2.03957 17.3099 5.10145C15.7589 7.86214 15.4392 8.08412 11.9476 8.82292C8.28588 9.59793 7.0712 10.1756 6.19139 11.561C5.38715 12.827 5.27834 14.0746 5.67563 17.4699C5.9617 19.914 5.89369 20.9043 5.38035 21.7703C5.17362 22.1192 4.29744 23.1686 3.43335 24.1023C0.446215 27.3303 -0.120627 29.078 1.04434 31.4687C1.51446 32.4334 1.92928 32.9681 3.93808 35.1994C5.96986 37.4561 6.06158 37.7841 5.65855 41.3559C5.17271 45.6627 5.61609 47.2387 7.69607 48.5986L8.06253 48.8382L4.7523 54.5591C2.93179 57.7056 1.41457 60.4669 1.38072 60.6954C1.30275 61.2211 1.69626 61.8311 2.19389 61.9559C2.44701 62.0192 4.26692 61.602 7.55704 60.7262C10.296 59.9972 12.5596 59.4288 12.5874 59.4632C12.6151 59.4976 13.2261 61.7325 13.9448 64.4298C15.0624 68.6235 15.3082 69.3832 15.6403 69.6736C16.1061 70.0807 16.6209 70.1083 17.0478 69.749C17.2202 69.6039 18.7521 67.0743 20.4517 64.128L23.5421 58.7711L24.4476 58.5226C24.9457 58.386 26.3858 57.8188 27.6479 57.2621C31.0712 55.7524 31.3789 55.7597 35.0803 57.4378C36.0738 57.8882 37.3161 58.3691 37.841 58.5066L38.7953 58.7565L41.7959 63.9699C43.4462 66.8371 44.979 69.37 45.202 69.5981C45.8839 70.2956 46.8116 70.0409 47.127 69.0695C47.2145 68.8 47.8304 66.5494 48.4956 64.068C49.161 61.5866 49.7407 59.5213 49.7838 59.4782C49.8268 59.4352 52.0554 59.9884 54.7359 60.7078C57.4166 61.427 59.7498 62.0155 59.921 62.0155C60.3138 62.0155 60.8625 61.5134 60.9797 61.0467C61.0917 60.6015 61.2341 60.8701 57.4031 54.3012C55.1921 50.5099 54.2724 48.8038 54.4155 48.759C54.5293 48.7234 55.0062 48.3134 55.4754 47.8477C56.8561 46.4776 57.057 45.2242 56.5825 40.9494C56.2276 37.7531 56.3642 37.3621 58.7257 34.8163C60.9819 32.3841 61.8005 30.9477 61.8005 29.4209C61.8005 27.8023 61.094 26.546 58.6952 23.8977C57.8008 22.9105 56.9321 21.7972 56.7646 21.4237C56.4217 20.6588 56.3799 19.1184 56.6519 17.274C56.8952 15.6236 56.8524 13.43 56.5593 12.5237C56.2265 11.4944 55.2597 10.433 54.1696 9.90018C53.6971 9.66901 52.5516 9.31424 51.6241 9.11174C47.3305 8.1742 46.9408 8.01712 46.0939 6.88221C45.7758 6.45607 45.1617 5.45682 44.729 4.66143C42.893 1.28628 41.4305 0.0178263 39.3595 0.00454719C38.2701 -0.00239415 37.359 0.279183 34.7523 1.42888C31.2884 2.95643 30.9032 2.94783 27.1786 1.25927C24.3891 -0.00541224 22.9363 -0.264354 21.4937 0.245683ZM25.1356 3.07488C25.811 3.35767 26.9259 3.83858 27.6133 4.1434C28.3009 4.44821 29.3961 4.8075 30.0472 4.94195C31.1848 5.1769 31.281 5.17419 32.5027 4.87299C33.202 4.70067 34.6229 4.17161 35.6602 3.69764C36.6975 3.22352 37.9726 2.72374 38.4936 2.58718C39.4281 2.34212 39.4504 2.34363 40.1011 2.68843C40.8751 3.09842 41.3294 3.69659 42.7756 6.21041C44.9016 9.90622 45.5857 10.3628 50.5283 11.385C52.6266 11.819 53.5826 12.2453 54.0555 12.958C54.343 13.3914 54.3953 13.6717 54.3927 14.7688C54.391 15.4827 54.319 16.5421 54.2324 17.1231C54.1458 17.7041 54.0723 18.8584 54.0691 19.6884C54.0601 22.0842 54.5057 22.9362 57.4788 26.2063C58.8922 27.7612 59.3738 28.5674 59.3793 29.3884C59.3859 30.3741 59.0571 30.8639 56.4618 33.7349C54.1737 36.266 53.8012 37.4543 54.1778 41.0197C54.7528 46.4637 54.6871 46.55 49.0628 47.7394C45.4698 48.4992 44.6982 49.1442 42.2976 53.3951C41.673 54.501 41.0916 55.3192 40.6626 55.6963C40.0736 56.214 39.9081 56.281 39.2249 56.2787C38.4524 56.2762 37.7689 56.0343 34.826 54.7218C31.639 53.3005 30.4832 53.364 26.3634 55.187C24.5928 55.9706 23.8983 56.2033 23.19 56.2507C22.3127 56.3092 22.2611 56.2916 21.6011 55.7112C21.1541 55.318 20.5849 54.5196 19.9497 53.3951C17.563 49.1688 16.7896 48.5155 13.2661 47.7493C10.1431 47.0703 9.63506 46.9318 9.0052 46.587C7.81047 45.9328 7.64545 44.9482 8.06767 40.9927C8.47931 37.1354 8.14247 36.2774 4.77467 32.6042C3.35054 31.051 2.8647 30.2277 2.8647 29.3676C2.8647 28.5425 3.29251 27.8343 4.78147 26.1942C7.64892 23.0356 8.17284 22.0697 8.1875 19.9147C8.19234 19.2093 8.11058 17.9167 8.00571 17.0422C7.90098 16.1678 7.8416 14.9328 7.87363 14.2978C7.9229 13.323 7.99045 13.081 8.30734 12.7419C8.89775 12.1104 9.61738 11.8192 11.6383 11.3941C14.5134 10.7893 15.2566 10.5735 16.2133 10.0659C17.3942 9.43934 18.1286 8.55854 19.607 5.99583C20.9933 3.59262 21.2947 3.18972 22.0566 2.71997C22.7413 2.29806 23.4853 2.38377 25.1356 3.07488ZM28.328 10.7786C26.3121 11.095 24.7908 11.5809 22.8877 12.5162C17.3021 15.2612 13.5191 20.3446 12.5051 26.4672C12.269 27.8926 12.2784 31.0366 12.5231 32.4393C13.8911 40.2874 20.1262 46.553 27.9186 47.9099C29.583 48.1996 32.6937 48.1945 34.39 47.8992C39.0173 47.0934 43.3773 44.3953 46.2352 40.569C47.8821 38.364 49.245 35.1884 49.7242 32.4393C49.9689 31.0366 49.9783 27.8926 49.7422 26.4672C48.9457 21.6575 46.328 17.3075 42.4768 14.3938C40.959 13.2455 38.0376 11.7615 36.4128 11.3137C33.7751 10.5866 30.8037 10.39 28.328 10.7786ZM33.3248 13.1351C36.8516 13.625 39.8546 15.0956 42.4833 17.6202C49.1382 24.011 49.2289 34.457 42.6859 40.9624C40.6313 43.0052 38.1745 44.4154 35.2597 45.2247C33.8945 45.6037 33.5444 45.6389 31.1236 45.6389C28.7005 45.6389 28.3526 45.6039 26.9679 45.2216C17.0442 42.4821 11.921 31.6479 16.2356 22.5256C17.1116 20.6733 17.8256 19.6242 19.1851 18.1928C22.9202 14.2596 28.0945 12.4089 33.3248 13.1351ZM41.2485 21.6784C41.1238 21.7223 38.2181 24.5503 34.7914 27.9626L28.561 34.167L24.9679 30.5991C22.5438 28.192 21.2309 26.9952 20.9327 26.9205C20.0851 26.708 19.3152 27.5134 19.536 28.3817C19.5863 28.5799 21.52 30.6266 23.8328 32.9297C27.7143 36.7946 28.0785 37.1172 28.5608 37.1176C29.049 37.1179 29.5371 36.6645 35.9216 30.2812C42.0086 24.1954 42.7597 23.3929 42.7597 22.9746C42.7597 22.298 42.6276 22.045 42.1443 21.7954C41.6922 21.5618 41.6095 21.5511 41.2485 21.6784ZM12.456 50.0148C14.5402 50.4648 15.4188 50.8544 15.9923 51.5828C16.23 51.8846 16.9538 53.0625 17.6009 54.2001C18.7087 56.1476 19.6463 57.3565 20.5692 58.0268L20.9705 58.3184L18.8428 61.9969L16.7151 65.6752L15.6255 61.6197C14.3883 57.0141 14.4099 57.0787 14.0395 56.8807C13.5803 56.6352 13.2536 56.6964 9.1743 57.7918C7.00773 58.3735 5.20626 58.8206 5.1709 58.7855C5.05031 58.6649 10.3446 49.6433 10.5365 49.6425C10.6418 49.6421 11.5056 49.8097 12.456 50.0148ZM54.513 54.1957C55.9487 56.694 57.0933 58.7684 57.0563 58.8054C57.0193 58.8424 55.222 58.3915 53.0624 57.8033C49.1325 56.7331 48.7388 56.6528 48.2823 56.8277C47.8833 56.9806 47.6932 57.524 46.6121 61.6005C46.0454 63.7377 45.5419 65.4855 45.4931 65.4849C45.4441 65.4843 44.4706 63.8715 43.3294 61.9011C41.2612 58.3298 41.2558 58.3177 41.5915 58.1016C42.4661 57.5386 43.5163 56.196 44.6783 54.1556C46.0965 51.6649 46.5545 51.109 47.5507 50.6689C48.1367 50.41 51.1996 49.6724 51.7512 49.6573C51.8343 49.655 53.0771 51.6973 54.513 54.1957Z" fill="#6A6A6A"/>
</svg>
