<svg width="64" height="64" viewBox="0 0 64 64" fill="none" xmlns="http://www.w3.org/2000/svg">
<path fill-rule="evenodd" clip-rule="evenodd" d="M1.0424 0.683026L0.71875 1.00654V31.9994V62.9922L1.0424 63.3157L1.36592 63.6394H26.5581H51.7502L52.0738 63.3157L52.3974 62.9922V41.9277V20.8634L58.1981 15.0573C63.5976 9.65283 63.9987 9.21976 63.9987 8.79724C63.9987 8.3842 63.7811 8.12554 61.5888 5.93329C59.4012 3.74565 59.1373 3.52338 58.7271 3.52338C58.3124 3.52338 57.9922 3.80589 54.8086 6.98123L51.3417 10.439L46.2956 5.39923L41.2496 0.359375H21.3077H1.36592L1.0424 0.683026ZM44.5533 6.68738L48.7704 10.906H45.3106H41.8507V8.26937V5.63271H40.7961H39.7414V9.00039V12.3682L40.0651 12.6917L40.3886 13.0154H44.5801H48.7715L36.413 25.3748L24.0547 37.7341L22.9333 41.093C22.3166 42.9404 21.8121 44.5893 21.8121 44.7573C21.8121 45.1511 22.3711 45.71 22.7648 45.71C22.9328 45.71 24.5818 45.2054 26.4291 44.5887L29.788 43.4674L40.038 33.2184L50.2881 22.9694V42.2497V61.53H26.5581H2.82808V31.9994V2.46871H21.5822H40.3362L44.5533 6.68738ZM60.1109 7.47956L61.4255 8.79908L45.3105 24.9141L29.1955 41.029L27.8444 39.6779L26.4932 38.3267L42.5761 22.2434C51.4217 13.3976 58.69 6.16004 58.7277 6.16004C58.7654 6.16004 59.3879 6.75382 60.1109 7.47956ZM14.0028 9.81578L11.27 12.5486L10.637 11.9251C10.2888 11.5821 9.94445 11.3015 9.87167 11.3015C9.69818 11.3015 8.49692 12.523 8.49692 12.6994C8.49692 12.7744 9.0232 13.3509 9.66641 13.9803C11.3911 15.6679 11.0234 15.8141 14.9836 11.8654C16.7816 10.0727 18.2526 8.5428 18.2526 8.46567C18.2526 8.29152 17.0384 7.08287 16.8635 7.08287C16.7932 7.08287 15.506 8.31262 14.0028 9.81578ZM6.31573 8.06569L5.99208 8.38921V13.0154V17.6415L6.31573 17.9651L6.63925 18.2887H11.2654H15.8916L16.2151 17.9651C16.5269 17.6534 16.5387 17.576 16.5387 15.8557V14.07H15.4841H14.4294V15.1247V16.1794H11.2654H8.10142V13.0154V9.85137H9.68342H11.2654V8.79671V7.74204H8.9524C6.67221 7.74204 6.63464 7.74666 6.31573 8.06569ZM14.0028 23.5264L11.27 26.2592L10.637 25.6358C10.2888 25.2927 9.94445 25.0122 9.87167 25.0122C9.69818 25.0122 8.49692 26.2336 8.49692 26.41C8.49692 26.485 9.0232 27.0616 9.66641 27.6909C11.3911 29.3785 11.0234 29.5247 14.9836 25.5761C16.7816 23.7834 18.2526 22.2535 18.2526 22.1763C18.2526 22.0022 17.0384 20.7935 16.8635 20.7935C16.7932 20.7935 15.506 22.0233 14.0028 23.5264ZM6.31573 21.7764L5.99208 22.0999V26.726V31.3522L6.31573 31.6757L6.63925 31.9994H11.2654H15.8916L16.2151 31.6757C16.5269 31.3641 16.5387 31.2867 16.5387 29.5664V27.7807H15.4841H14.4294V28.8354V29.89H11.2654H8.10142V26.726V23.562H9.68342H11.2654V22.5074V21.4527H8.9524C6.67221 21.4527 6.63464 21.4573 6.31573 21.7764ZM6.31573 35.487L5.99208 35.8105V40.4367V45.0629L6.31573 45.3864L6.63925 45.71H11.2654H15.8916L16.2151 45.3864L16.5387 45.0629V40.4367V35.8105L16.2151 35.487L15.8916 35.1634H11.2654H6.63925L6.31573 35.487ZM14.4294 40.4367V43.6007H11.2654H8.10142V40.4367V37.2727H11.2654H14.4294V40.4367ZM25.9435 42.51C25.2405 42.7458 24.648 42.921 24.6265 42.8995C24.6048 42.878 24.7768 42.2851 25.0084 41.5819L25.4295 40.3036L26.3254 41.1926L27.2213 42.0817L25.9435 42.51ZM6.31573 49.1977L5.99208 49.5212V54.1474V58.7735L6.31573 59.0971L6.63925 59.4207H11.2654H15.8916L16.2151 59.0971L16.5387 58.7735V54.1474V49.5212L16.2151 49.1977L15.8916 48.874H11.2654H6.63925L6.31573 49.1977ZM14.4294 54.1474V57.3114H11.2654H8.10142V54.1474V50.9834H11.2654H14.4294V54.1474ZM37.6321 58.366V59.4207H38.6867H39.7414V58.366V57.3114H38.6867H37.6321V58.366ZM41.8507 58.366V59.4207H42.9054H43.9601V58.366V57.3114H42.9054H41.8507V58.366ZM46.0694 58.366V59.4207H47.1241H48.1787V58.366V57.3114H47.1241H46.0694V58.366Z" fill="#6A6A6A"/>
</svg>
