<svg width="70" height="70" viewBox="0 0 70 70" fill="none" xmlns="http://www.w3.org/2000/svg">
<g clip-path="url(#clip0_500_8080)">
<path fill-rule="evenodd" clip-rule="evenodd" d="M8.32695 0.0861479C6.26258 0.46256 4.49282 1.41101 2.94946 2.96779C1.65288 4.27584 0.910563 5.4603 0.374696 7.07626C0.0438655 8.074 0 8.42937 0 10.113C0 11.7966 0.0438655 12.152 0.374696 13.1497C0.912685 14.7723 1.65642 15.9555 2.94946 17.2462C4.2425 18.5369 5.42786 19.2792 7.05343 19.8162C8.053 20.1465 8.40902 20.1902 10.0957 20.1902C11.7824 20.1902 12.1384 20.1465 13.138 19.8162C14.7636 19.2792 15.9489 18.5369 17.242 17.2462C18.535 15.9555 19.2787 14.7723 19.8167 13.1497C20.3656 11.4943 20.3656 8.73163 19.8167 7.07626C19.2787 5.45366 18.535 4.27047 17.242 2.97979C15.2676 1.00903 13.228 0.108041 10.5202 0.010583C9.70305 -0.0187956 8.71607 0.0151027 8.32695 0.0861479ZM58.1355 0.0861479C56.0711 0.46256 54.3014 1.41101 52.758 2.96779C51.4615 4.27584 50.7191 5.4603 50.1833 7.07626C49.8524 8.074 49.8086 8.42937 49.8086 10.113C49.8086 11.7966 49.8524 12.152 50.1833 13.1497C50.7213 14.7723 51.465 15.9555 52.758 17.2462C54.0511 18.5369 55.2364 19.2792 56.862 19.8162C57.8616 20.1465 58.2176 20.1902 59.9043 20.1902C61.591 20.1902 61.947 20.1465 62.9466 19.8162C64.5721 19.2792 65.7575 18.5369 67.0505 17.2462C68.3436 15.9555 69.0873 14.7723 69.6253 13.1497C69.9561 12.152 70 11.7966 70 10.113C70 8.42937 69.9561 8.074 69.6253 7.07626C69.0873 5.45366 68.3436 4.27047 67.0505 2.97979C65.0762 1.00903 63.0366 0.108041 60.3288 0.010583C59.5116 -0.0187956 58.5246 0.0151027 58.1355 0.0861479ZM31.4145 1.27923C28.7602 1.61694 26.2747 2.24448 23.8398 3.19166C22.113 3.86341 20.9913 4.42146 20.9913 4.60903C20.9913 4.72217 21.7581 6.20027 21.9352 6.4281C21.9599 6.45988 22.474 6.25564 23.0776 5.974C30.4645 2.52796 39.4207 2.49434 46.7329 5.88558C47.4421 6.2144 48.0421 6.45804 48.0661 6.42683C48.2539 6.18347 49.0087 4.71821 49.0087 4.59702C49.0087 4.21383 44.8648 2.59095 42.2166 1.937C39.1575 1.18163 34.4401 0.89434 31.4145 1.27923ZM11.5908 2.35437C14.335 2.84773 16.7157 4.99688 17.682 7.8531C18.046 8.92866 18.0466 11.2939 17.6833 12.3729C16.8112 14.9628 14.9622 16.8082 12.3597 17.6854C11.2822 18.0487 8.91262 18.0493 7.83169 17.6867C3.99558 16.3999 1.71868 12.8206 2.28186 8.96299C2.65231 6.4264 4.27547 4.21101 6.60034 3.06863C8.27346 2.24646 9.78654 2.02993 11.5908 2.35437ZM61.3994 2.35437C62.779 2.60239 64.3825 3.46143 65.4446 4.5216C67.0576 6.13163 67.7534 7.81666 67.7535 10.113C67.7537 11.8 67.4496 12.925 66.6519 14.1876L66.1914 14.9168L65.5769 13.9839C65.2185 13.4398 64.6154 12.7821 64.13 12.4056C63.3398 11.7931 63.3082 11.7453 63.5107 11.4664C64.2351 10.4682 64.3579 10.0678 64.3597 8.70056C64.3619 7.13332 64.1056 6.45663 63.1423 5.4853C62.3265 4.66298 61.4534 4.27118 60.2862 4.20366C59.1093 4.13573 58.2637 4.35748 57.4218 4.95493C55.3314 6.43841 54.8633 9.27669 56.3625 11.3782L56.6517 11.7836L56.1909 12.0696C55.4841 12.5083 54.5841 13.4924 54.1295 14.3237L53.7191 15.0741L53.2529 14.349C50.7215 10.4114 52.197 5.13813 56.4089 3.06863C58.082 2.24646 59.5951 2.02993 61.3994 2.35437ZM5.49847 5.66948C4.73337 5.96058 3.95143 6.75536 3.57843 7.62089C3.20586 8.4853 3.2551 9.61694 3.70267 10.4763C3.86144 10.7815 5.26471 12.297 6.82094 13.8442C9.29793 16.3069 9.70574 16.6572 10.0957 16.6572C10.4857 16.6572 10.8935 16.3069 13.3705 13.8442C14.9267 12.297 16.3369 10.7768 16.5043 10.4661C16.906 9.72019 16.9297 8.15267 16.55 7.42937C15.8315 6.06044 14.5646 5.35409 13.0706 5.48926C12.1147 5.57584 11.6696 5.78657 10.7678 6.57965L10.0957 7.17089L9.42358 6.57965C9.05398 6.25451 8.56099 5.88996 8.32808 5.76962C7.72797 5.45917 6.19353 5.40493 5.49847 5.66948ZM61.1437 6.72245C61.8167 7.13191 62.1672 7.78968 62.1678 8.64434C62.1685 9.57527 61.7537 10.2145 60.8632 10.6558C58.4161 11.8679 56.4899 8.28968 58.7655 6.75889C59.3847 6.34236 60.4914 6.32541 61.1437 6.72245ZM8.46845 8.8418C9.43405 9.76482 9.73206 9.97174 10.0957 9.97174C10.4594 9.97174 10.7574 9.76482 11.723 8.8418C12.7554 7.85493 12.9699 7.71186 13.417 7.71186C14.061 7.71186 14.6238 8.22598 14.6238 8.81426C14.6238 9.37923 14.1067 10.026 11.9502 12.159L10.0957 13.9931L8.2412 12.159C6.08471 10.026 5.56766 9.37923 5.56766 8.81426C5.56766 8.22598 6.13042 7.71186 6.77439 7.71186C7.22154 7.71186 7.43605 7.85493 8.46845 8.8418ZM61.7438 13.5832C62.1718 13.7812 62.7663 14.1778 63.0649 14.4645C63.6186 14.9962 64.2908 16.1367 64.2908 16.5441C64.2908 16.8647 62.4431 17.684 61.2536 17.8908C59.5546 18.1862 57.5723 17.8521 56.0901 17.0205L55.5435 16.7138L55.7317 16.1815C56.1662 14.9523 57.2218 13.8862 58.4502 13.436C59.3635 13.1014 60.8454 13.1675 61.7438 13.5832ZM62.6636 21.3777C62.1188 21.5797 61.6545 21.7575 61.6319 21.7729C61.6091 21.7881 61.8076 22.5237 62.0728 23.4075C62.338 24.2911 62.663 25.6179 62.7953 26.3559C62.9275 27.0939 63.0647 27.8412 63.1002 28.0167C63.1583 28.3037 63.225 28.3277 63.7632 28.2565C65.3452 28.0472 65.2815 28.0753 65.2798 27.5854C65.2775 26.885 64.6606 24.0429 64.1619 22.4364C63.9149 21.6402 63.6995 20.9936 63.6834 20.9997C63.6672 21.0056 63.2083 21.1758 62.6636 21.3777ZM5.5978 23.2839C5.06123 25.1374 4.43565 28.9328 4.43565 30.3353C4.43565 30.3994 4.94506 30.452 5.56766 30.452C6.25664 30.452 6.69968 30.3945 6.69968 30.3052C6.69968 29.1644 7.34393 25.283 7.76334 23.897C7.87881 23.5157 7.97319 23.1243 7.97319 23.0273C7.97319 22.8681 6.45474 22.2599 6.05726 22.2599C5.96769 22.2599 5.76081 22.7206 5.5978 23.2839ZM58.1355 29.4647C56.0711 29.8411 54.3014 30.7895 52.758 32.3463C51.4615 33.6544 50.7191 34.8388 50.1833 36.4548C49.8524 37.4525 49.8086 37.8079 49.8086 39.4915C49.8086 41.1751 49.8524 41.5305 50.1833 42.5282C50.7213 44.1508 51.465 45.334 52.758 46.6247C54.0511 47.9154 55.2364 48.6578 56.862 49.1948C57.8616 49.525 58.2176 49.5688 59.9043 49.5688C61.591 49.5688 61.947 49.525 62.9466 49.1948C64.5721 48.6578 65.7575 47.9154 67.0505 46.6247C68.3436 45.334 69.0873 44.1508 69.6253 42.5282C69.9561 41.5305 70 41.1751 70 39.4915C70 37.8079 69.9561 37.4525 69.6253 36.4548C69.0873 34.8322 68.3436 33.649 67.0505 32.3583C65.0762 30.3876 63.0366 29.4866 60.3288 29.3891C59.5116 29.3597 58.5246 29.3936 58.1355 29.4647ZM8.32695 31.7246C6.26258 32.101 4.49282 33.0494 2.94946 34.6062C1.65288 35.9143 0.910563 37.0987 0.374696 38.7147C0.0438655 39.7124 0 40.0678 0 41.7514C0 43.435 0.0438655 43.7904 0.374696 44.7881C0.912685 46.4107 1.65642 47.5939 2.94946 48.8846C4.2425 50.1753 5.42786 50.9177 7.05343 51.4547C8.053 51.7849 8.40902 51.8287 10.0957 51.8287C11.7824 51.8287 12.1384 51.7849 13.138 51.4547C14.7636 50.9177 15.9489 50.1753 17.242 48.8846C18.535 47.5939 19.2787 46.4107 19.8167 44.7881C20.1476 43.7904 20.1914 43.435 20.1914 41.7514C20.1914 40.0678 20.1476 39.7124 19.8167 38.7147C19.2787 37.0921 18.535 35.9089 17.242 34.6182C15.2676 32.6475 13.228 31.7465 10.5202 31.649C9.70305 31.6196 8.71607 31.6535 8.32695 31.7246ZM58.7723 32.2175V32.7119H59.9043H61.0363V32.2175C61.0363 31.6195 61.1788 31.5989 62.42 32.0174C64.662 32.773 66.6351 34.7425 67.3921 36.9804C67.8114 38.2193 67.7907 38.3616 67.1916 38.3616H66.6964V39.4915V40.6215H67.1916C67.7907 40.6215 67.8114 40.7637 67.3921 42.0027C66.6351 44.2405 64.662 46.21 62.42 46.9657C61.1788 47.3842 61.0363 47.3636 61.0363 46.7655V46.2712H59.9043H58.7723V46.7655C58.7723 47.3636 58.6298 47.3842 57.3885 46.9657C55.1466 46.21 53.1735 44.2405 52.4164 42.0027C51.9972 40.7637 52.0178 40.6215 52.617 40.6215H53.1122V39.4915V38.3616H52.5984C52.0975 38.3616 52.0866 38.3501 52.1609 37.9025C52.28 37.1853 52.801 35.9024 53.2233 35.287C54.3495 33.6452 55.6478 32.628 57.4208 31.9979C58.5548 31.5948 58.7723 31.6301 58.7723 32.2175ZM11.5908 33.9928C14.335 34.4862 16.7157 36.6353 17.682 39.4915C18.046 40.5671 18.0466 42.9323 17.6833 44.0113C16.8112 46.6013 14.9622 48.4466 12.3597 49.3239C11.2822 49.6871 8.91262 49.6877 7.83169 49.3251C3.99558 48.0383 1.71868 44.459 2.28186 40.6014C2.65231 38.0648 4.27547 35.8494 6.60034 34.7071C8.27346 33.8849 9.78654 33.6684 11.5908 33.9928ZM58.7723 36.8172C58.7723 38.6143 58.8307 39.9017 58.92 40.0681C59.0297 40.2726 63.636 42.7401 63.9082 42.7401C63.9951 42.7401 64.9083 40.7671 64.8476 40.7106C64.8138 40.6792 63.9425 40.2328 62.9112 39.7184L61.0363 38.7833V36.3126V33.8418H59.9043H58.7723V36.8172ZM8.9637 35.6609C8.9637 36.2951 8.92946 36.364 8.53439 36.5274C7.58321 36.9206 6.69968 38.3482 6.69968 39.4915C6.69968 41.2355 8.34251 42.8814 10.0831 42.8814C10.6779 42.8814 11.2277 43.4243 11.2277 44.0113C11.2277 44.5919 10.6774 45.1412 10.0957 45.1412C9.62353 45.1412 8.9637 44.6099 8.9637 44.2295C8.9637 44.0508 8.75838 44.0113 7.83169 44.0113C6.56808 44.0113 6.56285 44.0168 6.86608 45.0273C7.06928 45.7042 7.9514 46.7343 8.53439 46.9754C8.92946 47.1388 8.9637 47.2078 8.9637 47.8419V48.5311H10.0957H11.2277V47.8419C11.2277 47.2078 11.262 47.1388 11.657 46.9754C12.6082 46.5822 13.4918 45.1547 13.4918 44.0113C13.4918 42.2674 11.8489 40.6215 10.1083 40.6215C9.51358 40.6215 8.9637 40.0785 8.9637 39.4915C8.9637 38.9109 9.514 38.3616 10.0957 38.3616C10.5679 38.3616 11.2277 38.8929 11.2277 39.2733C11.2277 39.452 11.433 39.4915 12.3597 39.4915C13.6234 39.4915 13.6286 39.486 13.3253 38.4756C13.1222 37.7986 12.24 36.7685 11.657 36.5274C11.262 36.364 11.2277 36.2951 11.2277 35.6609V34.9717H10.0957H8.9637V35.6609ZM33.868 40.6215V41.7514H35H36.132V40.6215V39.4915H35H33.868V40.6215ZM27.4233 44.358L27.0759 44.7047V48.3129V51.9209H24.095C22.2943 51.9209 21.0049 51.9792 20.8381 52.0684C20.495 52.2517 18.0198 57.1503 18.0198 57.6462C18.0198 57.8448 18.1762 58.1631 18.3672 58.3538C18.6523 58.6386 18.8547 58.7006 19.4992 58.7006H20.2838V63.4386V68.1767L20.6312 68.5233C20.9785 68.8701 20.9789 68.8701 24.0273 68.8701C26.6827 68.8701 27.0759 68.8982 27.0759 69.0883C27.0759 69.2083 27.2323 69.4626 27.4233 69.6533L27.7705 70H35H42.2295L42.5767 69.6533C42.7677 69.4626 42.9241 69.2083 42.9241 69.0883C42.9241 68.8982 43.3173 68.8701 45.9727 68.8701C49.0211 68.8701 49.0215 68.8701 49.3688 68.5233L49.7162 68.1767V63.4386V58.7006H50.5008C51.1453 58.7006 51.3477 58.6386 51.6328 58.3538C51.8238 58.1631 51.9802 57.8448 51.9802 57.6462C51.9802 57.1503 49.505 52.2517 49.1619 52.0684C48.9951 51.9792 47.7057 51.9209 45.905 51.9209H42.9241V48.3129V44.7047L42.5767 44.358L42.2295 44.0113H35H27.7705L27.4233 44.358ZM40.6601 57.0057V67.7401H39.5281H38.396V65.8144C38.396 63.5237 38.2605 62.9908 37.4478 62.0887C36.1071 60.6001 34.1087 60.5694 32.6604 62.015C31.738 62.9357 31.604 63.4177 31.604 65.8144V67.7401H30.472H29.3399V57.0057V46.2712H35H40.6601V57.0057ZM31.604 49.661V50.791H32.736H33.868V49.661V48.5311H32.736H31.604V49.661ZM36.132 49.661V50.791H37.264H38.396V49.661V48.5311H37.264H36.132V49.661ZM54.9458 51.5833C54.5988 51.9415 53.8946 52.5994 53.3806 53.0455L52.4463 53.8564L52.8146 54.3445C53.0173 54.613 53.3257 55.0117 53.5004 55.2308L53.8177 55.6288L54.4909 55.0814C54.861 54.7802 55.665 54.0575 56.2775 53.4751L57.3908 52.4164L56.5605 51.6746C56.1037 51.2665 55.6955 50.9326 55.6533 50.9325C55.6111 50.9323 55.2928 51.2253 54.9458 51.5833ZM14.5884 52.8308C14.2188 53.2515 13.9163 53.6222 13.9163 53.6544C13.9163 53.6866 14.4269 54.1431 15.051 54.6688L16.1857 55.6246L16.5014 55.2295C16.675 55.0123 16.9895 54.6031 17.2004 54.3203L17.5836 53.8062L16.9174 53.2989C16.5509 53.0198 16.0967 52.6274 15.908 52.4268C15.7193 52.2263 15.4964 52.063 15.4128 52.064C15.329 52.065 14.958 52.41 14.5884 52.8308ZM31.604 54.1808V55.3107H32.736H33.868V54.1808V53.0508H32.736H31.604V54.1808ZM36.132 54.1808V55.3107H37.264H38.396V54.1808V53.0508H37.264H36.132V54.1808ZM27.0759 55.3107V56.4407H24.0321H20.9882L21.5573 55.3107L22.1265 54.1808H24.6012H27.0759V55.3107ZM48.4427 55.3107L49.0118 56.4407H45.9679H42.9241V55.3107V54.1808H45.3988H47.8735L48.4427 55.3107ZM31.604 58.7006V59.8305H32.736H33.868V58.7006V57.5706H32.736H31.604V58.7006ZM36.132 58.7006V59.8305H37.264H38.396V58.7006V57.5706H37.264H36.132V58.7006ZM27.0759 62.6554V66.6102H24.8119H22.5479V62.6554V58.7006H24.8119H27.0759V62.6554ZM47.4521 62.6554V66.6102H45.1881H42.9241V62.6554V58.7006H45.1881H47.4521V62.6554ZM35.7846 63.5671C36.1193 63.901 36.132 63.9839 36.132 65.827V67.7401H35H33.868V65.827C33.868 63.9839 33.8807 63.901 34.2154 63.5671C34.4343 63.3484 34.7244 63.2203 35 63.2203C35.2756 63.2203 35.5657 63.3484 35.7846 63.5671Z" fill="#6A6A6A"/>
<path d="M39.6805 17.553C39.2816 16.1131 38.2545 14.9117 36.939 14.3651C36.3309 14.1123 35.9065 14.0313 35.1902 14.0261C34.4536 14.0208 33.952 14.1151 33.3177 14.3822C31.9359 14.964 30.8543 16.285 30.5491 17.7613C30.46 18.1924 30.4513 18.5153 30.4507 20.5122L30.4501 22.5148H30.1082H29.7664L29.7673 20.5616C29.7676 19.9571 29.7733 19.3691 29.7823 18.9091C29.7916 18.4386 29.8041 18.1245 29.8148 18.0489L29.8149 18.0488C29.9879 16.8335 30.5197 15.7628 31.3687 14.9152C32.6498 13.6364 34.3987 13.1017 36.198 13.4412C38.1356 13.8068 39.8236 15.4039 40.3176 17.345C40.4811 17.9877 40.5118 18.442 40.5118 20.6341V22.5148H40.173H39.8322L39.8164 20.3873C39.7997 18.1369 39.7962 17.9701 39.6805 17.553ZM39.6805 17.553L39.4396 17.6197M39.6805 17.553L39.4396 17.6197M39.4396 17.6197C39.544 17.9962 39.5495 18.1184 39.5664 20.3892L39.5841 22.7648L30.7939 17.8119C31.0826 16.4156 32.1094 15.1622 33.4147 14.6126C34.0152 14.3598 34.4829 14.2711 35.1884 14.2761C35.8757 14.2811 36.2677 14.3568 36.8431 14.5959C38.0828 15.1111 39.0598 16.2488 39.4396 17.6197ZM42.6983 24.6999L42.6983 24.6999C42.6149 24.577 42.5492 24.4998 42.4714 24.4332C42.3915 24.3648 42.2893 24.2993 42.1225 24.2106L41.957 24.1225L35.2374 24.1142C33.3727 24.1119 31.6639 24.114 30.4129 24.1194C29.7873 24.122 29.2767 24.1255 28.9184 24.1296C28.7392 24.1317 28.5989 24.1339 28.5017 24.1362C28.4529 24.1373 28.4163 24.1385 28.3916 24.1396C28.3883 24.1398 28.3853 24.1399 28.3827 24.14C27.9987 24.2652 27.6774 24.5452 27.4912 24.9236L27.4912 24.9236L27.374 25.162L27.3606 29.8796C27.354 32.2421 27.3509 33.4333 27.3621 34.0765C27.3731 34.703 27.3977 34.7835 27.4366 34.9113L27.4393 34.92L27.4393 34.92C27.4807 35.0563 27.5103 35.1275 27.5513 35.1924C27.5944 35.2607 27.6578 35.3343 27.7859 35.4637C27.998 35.678 28.1177 35.7565 28.2847 35.8176L28.2847 35.8176L28.5285 35.9069H35.1637H41.7981L42.0413 35.8162C42.0413 35.8162 42.0413 35.8162 42.0413 35.8162C42.2046 35.7552 42.3356 35.669 42.5372 35.4674L42.6983 24.6999ZM42.6983 24.6999C42.7132 24.7217 42.7266 24.7413 42.7388 24.7591M42.6983 24.6999L42.7388 24.7591M42.7388 24.7591C42.8044 24.8546 42.8357 24.9001 42.8633 24.9785M42.7388 24.7591L42.8633 24.9785M42.8633 24.9785C42.8973 25.075 42.9258 25.2289 42.9443 25.557M42.8633 24.9785L42.9443 25.557M42.9443 25.557C42.9784 26.1644 42.9751 27.2824 42.9684 29.5452M42.9443 25.557L42.9684 29.5452M42.9684 29.5452C42.9679 29.7243 42.9674 29.9107 42.9668 30.1046M42.9684 29.5452L42.9668 30.1046M42.9668 30.1046C42.9657 30.4942 42.9649 30.8534 42.9641 31.1847M42.9668 30.1046L42.9641 31.1847M42.9641 31.1847C42.9595 33.1874 42.9572 34.1719 42.9088 34.7045M42.9641 31.1847L42.9088 34.7045M42.9088 34.7045C42.8808 35.0132 42.8396 35.129 42.7995 35.1953M42.9088 34.7045L42.7995 35.1953M42.7995 35.1953C42.7794 35.2285 42.7539 35.2587 42.7113 35.3006M42.7995 35.1953L42.7113 35.3006M42.7113 35.3006C42.6923 35.3193 42.6721 35.3383 42.6476 35.3613M42.7113 35.3006L42.6476 35.3613M42.6476 35.3613L42.6354 35.3728M42.6476 35.3613L42.6354 35.3728M42.6354 35.3728C42.6062 35.4002 42.5731 35.4316 42.5372 35.4674L42.6354 35.3728ZM35.6057 29.8216C35.5374 29.7411 35.4682 29.6851 35.4281 29.665C35.0602 29.4806 34.6346 29.6831 34.5464 30.0736C34.4933 30.3086 34.5836 30.5475 34.8409 30.7237C34.8993 30.7636 34.921 30.7711 34.9428 30.7755C34.9758 30.7822 35.0294 30.7846 35.1602 30.7766L35.6057 29.8216ZM35.6057 29.8216C35.6762 29.9046 35.7105 29.9722 35.7165 29.996M35.6057 29.8216L35.7165 29.996M35.7165 29.996C35.7301 30.0503 35.7324 30.1642 35.7127 30.2945M35.7165 29.996L35.7127 30.2945M35.7127 30.2945C35.7033 30.3559 35.6903 30.4125 35.6757 30.458M35.7127 30.2945L35.6757 30.458M35.6757 30.458C35.6685 30.4806 35.6614 30.4986 35.6552 30.512M35.6757 30.458L35.6552 30.512M35.6552 30.512C35.6496 30.5241 35.646 30.5296 35.6455 30.5303M35.6552 30.512L35.6455 30.5303M35.6455 30.5303C35.6455 30.5304 35.6455 30.5305 35.6455 30.5304M35.6455 30.5303L35.6455 30.5304M35.6455 30.5304C35.5688 30.633 35.5097 30.6833 35.4504 30.7139C35.3893 30.7454 35.3056 30.7676 35.1602 30.7766L35.6455 30.5304ZM32.9586 12.1427L33.0365 12.3803L30.5628 13.875C29.5348 14.854 28.8907 16.0071 28.5727 17.4376L28.3286 17.3833C28.3286 17.3833 28.3286 17.3833 28.3286 17.3833C28.2227 17.8595 28.2148 18.0968 28.1946 20.3274L28.1744 22.5508L28.0423 22.5853C27.4801 22.7325 27.1077 22.9436 26.6966 23.3488L26.6966 23.3488C26.2957 23.744 26.0619 24.1339 25.8907 24.6876L25.8907 24.6876C25.8359 24.8649 25.8143 25.0453 25.8024 25.7298C25.7904 26.4225 25.7891 27.6605 25.7891 29.9778V34.9014V34.9401L25.8008 34.977L25.9102 35.3216C26.0764 35.8455 26.3771 36.3255 26.7668 36.6826C27.1786 37.0598 27.526 37.2504 28.053 37.3849C28.2708 37.4405 28.4406 37.4643 29.3412 37.4768C30.246 37.4894 31.9118 37.49 35.1391 37.49C38.3663 37.49 40.0321 37.4894 40.9369 37.4768C41.8375 37.4643 42.0073 37.4405 42.2252 37.3849C42.7564 37.2492 43.1182 37.0517 43.5196 36.6779C43.904 36.3202 44.2038 35.8388 44.368 35.3216L44.4773 34.977L44.4891 34.9401V34.9014V30.0024C44.4891 27.7389 44.4874 26.5056 44.4757 25.8021C44.4641 25.1066 44.4431 24.9035 44.393 24.7224L44.393 24.7223C44.1008 23.6667 43.221 22.7984 42.1891 22.5691L42.1037 22.5501L42.0825 20.3553C42.0699 19.053 42.0606 18.3525 42.0157 17.8619C41.9696 17.3571 41.8852 17.069 41.7337 16.596L41.4956 16.6723L41.7337 16.596C40.937 14.1091 38.7565 12.24 36.2035 11.8616L36.2035 11.8616C35.7114 11.7887 34.8949 11.7676 34.4229 11.8164L34.4485 12.0651L34.4229 11.8164C34.0277 11.8572 33.4009 11.9976 32.9586 12.1427ZM37.1086 16.2778C37.429 16.5396 37.7559 16.967 37.953 17.3891C38.0983 17.7005 38.164 17.8565 38.2004 18.2322C38.2391 18.6321 38.2419 19.2614 38.2423 20.5124L38.2429 22.5148H35.1391H32.0352L32.0359 20.5124C32.0363 19.2416 32.0387 18.6094 32.0809 18.2056C32.1205 17.8273 32.1924 17.6663 32.3554 17.3297L32.1303 17.2208L32.3554 17.3297C32.5612 16.9044 33.0366 16.3651 33.4564 16.0853C34.1093 15.6501 35.0074 15.4816 35.8026 15.6495C36.2051 15.7344 36.7839 16.0126 37.1086 16.2778ZM34.3387 32.2196L34.3388 32.2196L34.3465 32.2219V32.8437C34.3465 33.2807 34.3539 33.5745 34.4044 33.7751C34.4318 33.8843 34.475 33.9809 34.5464 34.0638C34.616 34.1449 34.6988 34.1965 34.7762 34.2364C34.8892 34.2948 35.0083 34.3356 35.1413 34.335C35.2738 34.3344 35.393 34.2927 35.5067 34.234L35.392 34.0119L35.5067 34.234C35.588 34.192 35.669 34.1363 35.7364 34.0506C35.8032 33.9657 35.8442 33.8671 35.871 33.7575C35.9215 33.5509 35.932 33.2538 35.9324 32.823L35.9331 32.2101L36.0583 32.1559L35.9591 31.9265L36.0584 32.1559C36.495 31.9671 36.8878 31.5667 37.1056 31.1079L37.1056 31.1078C37.178 30.9551 37.2298 30.8366 37.2579 30.6941C37.285 30.557 37.288 30.4084 37.288 30.1994C37.288 29.9907 37.285 29.8422 37.2581 29.7056C37.2302 29.5634 37.179 29.4457 37.1073 29.2946L37.1073 29.2945C36.7493 28.5403 36.0549 28.0774 35.2254 28.0439C34.895 28.0305 34.7043 28.0525 34.4359 28.145L34.5174 28.3814L34.4359 28.145C32.7835 28.7147 32.4408 30.8786 33.8317 31.9376C33.9771 32.0483 34.197 32.1764 34.3387 32.2196Z" fill="#6A6A6A" stroke="#6A6A6A" stroke-width="0.5"/>
</g>
<defs>
<clipPath id="clip0_500_8080">
<rect width="70" height="70" fill="white"/>
</clipPath>
</defs>
</svg>
