<svg width="70" height="71" viewBox="0 0 70 71" fill="none" xmlns="http://www.w3.org/2000/svg">
<path fill-rule="evenodd" clip-rule="evenodd" d="M11.6495 0.348425L11.3026 0.694756V16.4997V32.3047L10.6562 32.0191C8.62134 31.1199 6.28538 31.9266 5.30021 33.8689C4.43613 35.5723 4.31802 38.4856 4.99264 41.4619L5.32126 42.9117L4.95647 42.9991C3.43246 43.3639 2.26052 44.7955 2.26052 46.2923C2.26052 47.18 2.58363 47.8948 3.31534 48.6257C4.14495 49.4545 4.75557 49.6794 6.17518 49.6794H7.16062L7.32267 50.2195C7.56469 51.0265 8.52301 52.4249 9.39769 53.2472C10.1266 53.9326 10.1723 54.0155 10.1723 54.6501V55.3246H8.08277C5.73296 55.3246 4.81717 55.4986 3.51384 56.1925C2.52401 56.7195 1.29697 57.9689 0.792312 58.9639C0.0755861 60.3769 0 60.9819 0 65.3103V69.3092L0.346849 69.6555L0.693556 70.002H30.517H60.3405L60.6872 69.6555L61.034 69.3092V54.1014V38.8936L65.1108 34.7955C69.8961 29.985 69.9899 29.8495 69.9997 27.7338C70.0046 26.646 69.9515 26.3486 69.6297 25.6628C69.1031 24.5409 68.2352 23.6556 67.129 23.1119C66.2813 22.6952 66.0792 22.6536 64.9219 22.6584C63.485 22.6643 62.8508 22.8815 61.7051 23.7598L61.034 24.2743V12.4845V0.694756L60.6872 0.348425L60.3405 0.00195312H36.1683H11.9962L11.6495 0.348425ZM58.7735 14.433V26.6061L52.8744 32.4975L46.9752 38.3891H35.9232H24.8711L24.7836 38.001C24.364 36.1398 23.8752 35.1713 22.748 33.9676C20.615 31.6898 17.4012 31.0214 14.4016 32.2316L13.5631 32.57V17.415V2.26002H36.1683H58.7735V14.433ZM33.1532 4.83563C32.9349 5.05381 32.7774 5.47762 32.65 6.1899C32.4712 7.18867 32.4455 7.23426 31.9499 7.4348C31.6669 7.5494 31.0297 7.82954 30.534 8.05761L29.6325 8.4721L28.6267 7.82686C27.2233 6.92688 27.175 6.94424 24.9742 9.14261C22.7739 11.3406 22.7562 11.3895 23.6561 12.7894L24.3007 13.7924L23.8171 14.838C23.5512 15.4131 23.292 16.049 23.2413 16.2513C23.1575 16.5845 23.0476 16.6363 22.068 16.8037C20.3331 17.1 20.3447 17.0765 20.3447 20.3025C20.3447 23.5395 20.3164 23.4777 21.9583 23.8271L23.0733 24.0645L23.4697 25.0524C23.6877 25.5957 23.9684 26.2167 24.0938 26.4325C24.3164 26.8162 24.3075 26.8461 23.6751 27.8335C23.3198 28.3882 23.029 29.001 23.029 29.1951C23.029 29.6916 26.5884 33.2713 27.1969 33.3869C27.5375 33.4515 27.8182 33.3408 28.6267 32.8222L29.6325 32.177L30.534 32.5915C31.0297 32.8196 31.6669 33.0997 31.9499 33.2143C32.4455 33.4148 32.4712 33.4604 32.65 34.4592C32.9503 36.1388 32.9341 36.131 36.1463 36.131C39.3872 36.131 39.3249 36.1594 39.6747 34.5182L39.9123 33.4034L41.1094 32.9237C41.7679 32.6598 42.3864 32.3777 42.4839 32.2968C42.6136 32.1894 42.9356 32.325 43.6783 32.7997C44.2377 33.1571 44.8542 33.4496 45.0485 33.4496C45.5455 33.4496 49.1292 29.8941 49.2449 29.2863C49.3096 28.946 49.1987 28.6656 48.6796 27.858L48.0337 26.8533L48.4486 25.9528C48.6769 25.4576 48.9554 24.826 49.0676 24.5493C49.2622 24.0684 49.3179 24.0372 50.3138 23.8497C52.0013 23.5319 51.992 23.5515 51.992 20.3466C51.992 17.1119 52.0208 17.175 50.3764 16.8155L49.2591 16.5714L48.8648 15.5901C48.6481 15.0504 48.3682 14.4324 48.2429 14.2166C48.0202 13.8329 48.0291 13.803 48.6615 12.8156C49.0168 12.2609 49.3076 11.6481 49.3076 11.454C49.3076 10.9575 45.7483 7.37779 45.1398 7.2622C44.7993 7.19756 44.5187 7.30821 43.7125 7.82531L42.7091 8.46886L42.2291 8.22851C41.965 8.09627 41.3357 7.82051 40.8306 7.61587L39.9123 7.24371L39.6747 6.12992C39.3249 4.48986 39.3867 4.51809 36.1463 4.51809C33.5604 4.51809 33.4605 4.52867 33.1532 4.83563ZM37.71 7.74896C37.9235 8.94291 38.1532 9.17619 39.5143 9.58123C40.0724 9.74749 40.9475 10.1051 41.4589 10.3761C42.6432 11.0037 43.0399 10.9996 44.0201 10.3494L44.8034 9.8299L45.7316 10.7571L46.66 11.6843L46.1471 12.5143C45.865 12.9707 45.6343 13.5168 45.6343 13.7275C45.6343 13.9383 45.8562 14.5288 46.1276 15.0397C46.3989 15.5506 46.7569 16.4247 46.9233 16.9822C47.3288 18.3418 47.5623 18.5713 48.7576 18.7845L49.7314 18.9584V20.3246V21.6907L48.7548 21.865C48.1544 21.9721 47.6855 22.1414 47.5382 22.3042C47.4062 22.4498 47.1104 23.1272 46.8808 23.8096C46.6513 24.492 46.2769 25.376 46.0489 25.7741C45.4965 26.7386 45.5173 27.2093 46.1543 28.1678L46.6744 28.9502L45.7389 29.8848L44.8034 30.8192L44.0201 30.2997C43.5688 30.0005 43.0631 29.7802 42.8271 29.7802C42.6018 29.7802 41.9174 30.029 41.3062 30.333C40.695 30.637 39.8134 30.9935 39.3472 31.1252C38.1697 31.4577 37.9194 31.7291 37.71 32.9001L37.5359 33.8729H36.1683H34.8007L34.6266 32.9001C34.4173 31.7291 34.1669 31.4577 32.9895 31.1252C32.5232 30.9935 31.6416 30.637 31.0304 30.333C30.4193 30.029 29.7349 29.7802 29.5095 29.7802C29.2736 29.7802 28.7678 30.0005 28.3165 30.2997L27.5333 30.8192L26.5977 29.8848L25.6623 28.9502L26.1823 28.1678C26.8332 27.1886 26.8373 26.7924 26.209 25.6094C25.9378 25.0985 25.5805 24.2244 25.415 23.6669C25.022 22.342 24.7485 22.0744 23.5589 21.8507L22.6052 21.6715V20.3246V18.9776L23.5589 18.7984C24.7485 18.5747 25.022 18.3071 25.415 16.9822C25.5805 16.4247 25.9378 15.5506 26.209 15.0397C26.8373 13.8567 26.8332 13.4605 26.1823 12.4813L25.6623 11.6989L26.5977 10.7643L27.5333 9.8299L28.3165 10.3494C28.7814 10.6576 29.2716 10.8689 29.5223 10.8689C29.7545 10.8689 30.4389 10.6207 31.0432 10.3172C31.6474 10.0137 32.5232 9.65716 32.9895 9.52492C34.1673 9.19087 34.4173 8.91976 34.6266 7.74896L34.8007 6.77615H36.1683H37.5359L37.71 7.74896ZM34.6849 12.5554C32.1884 13.0941 30.1703 14.65 29.098 16.8629C26.9597 21.276 29.1436 26.2837 33.9078 27.8909C34.4695 28.0804 35.0958 28.1531 36.1683 28.1531C38.4346 28.1531 40.1902 27.4406 41.7411 25.8912C43.2921 24.3421 44.0054 22.5884 44.0054 20.3246C44.0054 19.2532 43.9326 18.6276 43.7429 18.0665C42.6068 14.7063 39.9149 12.626 36.5215 12.486C35.8222 12.457 34.9957 12.4884 34.6849 12.5554ZM38.4895 15.2185C39.7642 15.8145 40.5891 16.6248 41.2213 17.9028C41.7199 18.9104 41.749 19.0438 41.749 20.3246C41.749 21.6053 41.7199 21.7387 41.2213 22.7463C40.5858 24.0309 39.7678 24.8309 38.4543 25.4525C37.6008 25.8564 37.3821 25.8992 36.1683 25.8992C34.9546 25.8992 34.7359 25.8564 33.8824 25.4525C32.5689 24.8309 31.7508 24.0309 31.1154 22.7463C30.6173 21.7398 30.5877 21.6042 30.5877 20.3319C30.5877 19.1111 30.6299 18.8948 31.0348 18.0411C31.6025 16.844 32.4108 15.9678 33.465 15.4065C34.5779 14.814 35.1868 14.6799 36.4861 14.7418C37.334 14.7821 37.7857 14.8895 38.4895 15.2185ZM66.0874 25.0592C67.5604 25.6739 68.2255 27.4094 67.5452 28.8629C67.3998 29.1733 66.6379 30.0618 65.8518 30.837L64.4228 32.2467L62.4121 30.2383L60.4015 28.2298L61.8128 26.8024C62.5889 26.0171 63.4782 25.256 63.7891 25.1108C64.4802 24.788 65.3891 24.7676 66.0874 25.0592ZM60.8224 31.8974L62.7968 33.8734L61.9149 34.7543L61.0332 35.6351L59.0229 33.6268L57.0126 31.6187L57.8534 30.7701C58.3158 30.3032 58.7287 29.9213 58.771 29.9213C58.8134 29.9213 59.7365 30.8106 60.8224 31.8974ZM57.4322 35.2851L59.4072 37.2617L53.4393 43.2232L47.4713 49.1846L45.4585 47.174L43.4456 45.1633L49.3782 39.2359C52.6412 35.9758 55.3438 33.3084 55.384 33.3084C55.4243 33.3084 56.3459 34.198 57.4322 35.2851ZM9.65186 34.0326C9.82154 34.1203 10.4146 34.6284 10.9696 35.1616C12.2623 36.4033 12.526 36.4275 13.6527 35.4081C14.8731 34.3042 15.757 33.9509 17.3071 33.9468C18.4443 33.9438 18.678 33.9905 19.5183 34.3882C21.417 35.2868 22.4748 36.9189 22.5798 39.1119C22.6233 40.0215 22.575 40.5271 22.3907 41.0903C22.2547 41.5063 22.1253 41.8679 22.1034 41.8937C22.0815 41.9197 20.7478 40.8876 19.1394 39.6004C15.9588 37.0548 15.7125 36.9349 15.0402 37.6065C14.8101 37.8363 14.6934 38.1119 14.6934 38.4255C14.6934 38.6855 14.5282 39.2291 14.3265 39.6336C13.7493 40.7907 13.2875 40.989 10.074 41.4589L7.37622 41.8534L7.14211 40.7917C6.64169 38.5232 6.71586 36.0424 7.31872 34.882C7.7485 34.0547 8.89063 33.639 9.65186 34.0326ZM18.5131 41.9526L20.3472 43.3992L20.3106 46.0884L20.274 48.7777L19.7464 49.8437C19.1109 51.1277 18.2924 51.9279 16.9793 52.5493C16.1258 52.9532 15.9071 52.9959 14.6934 52.9959C13.4796 52.9959 13.2609 52.9532 12.4074 52.5493C11.0944 51.9279 10.2759 51.1277 9.64041 49.8435L9.11272 48.7775L9.0637 46.3495L9.01467 43.9216L9.4169 43.8419C9.63815 43.7981 10.5472 43.6591 11.4368 43.533C12.3266 43.4068 13.3885 43.1787 13.7965 43.0262C14.6503 42.7071 15.7815 41.7516 16.1795 41.0134C16.33 40.7344 16.5039 40.506 16.5661 40.506C16.6282 40.506 17.5043 41.157 18.5131 41.9526ZM42.7714 42.5895L40.8306 44.5317L39.6297 48.725C38.9692 51.0312 38.4288 53.0496 38.4288 53.2103C38.4288 53.6027 39.0438 54.1963 39.4468 54.1927C39.6251 54.1912 41.6434 53.6538 43.9321 52.9985L48.093 51.8072L50.6077 49.2982L53.1222 46.7892V53.8794V60.9697H41.1995H29.277L29.186 60.4857C29.0101 59.5487 28.147 58.0793 27.2971 57.2695C25.7089 55.7562 24.3789 55.3246 21.304 55.3246H19.2144V54.6672C19.2144 54.041 19.2613 53.9631 20.2004 53.0307C21.121 52.1164 22.1814 50.4258 22.1814 49.8722C22.1814 49.7267 22.4368 49.6794 23.2232 49.6794C24.5481 49.6794 25.3459 49.3967 26.097 48.661C28.0225 46.7754 27.1558 43.8535 24.4164 42.996C24.2013 42.9286 24.214 42.8159 24.5525 41.7844L24.9256 40.6471H34.8189H44.7121L42.7714 42.5895ZM58.7735 54.4778V67.7439H44.0801H29.3868V65.4859V63.2278H42.0379H54.6892L55.0359 62.8813L55.3827 62.535V53.5336V44.5324L57.0406 42.8721C57.9524 41.9588 58.7153 41.2117 58.7359 41.2117C58.7566 41.2117 58.7735 47.1814 58.7735 54.4778ZM6.78156 46.2923V47.4213H5.99815C5.05537 47.4213 4.52104 47.0129 4.52104 46.2923C4.52104 45.5717 5.05537 45.1633 5.99815 45.1633H6.78156V46.2923ZM24.5189 45.5098C24.7376 45.7281 24.8657 46.0174 24.8657 46.2923C24.8657 47.0129 24.3314 47.4213 23.3886 47.4213H22.6052V46.2923V45.1633H23.3886C24.0322 45.1633 24.2342 45.2252 24.5189 45.5098ZM45.1022 50.2588C44.9646 50.3849 41.3771 51.4013 41.3092 51.3334C41.2536 51.2781 42.2192 47.7217 42.3466 47.5121C42.387 47.4456 43.0469 48.0151 43.813 48.7775C44.5792 49.5398 45.1593 50.2065 45.1022 50.2588ZM24.8657 53.0665V54.1955H30.517H36.1683V53.0665V51.9375H30.517H24.8657V53.0665ZM14.6934 55.254C15.2762 55.254 16.0301 55.2045 16.3686 55.1441L16.9841 55.0341L16.9331 56.1578C16.8783 57.3632 16.6886 57.7698 15.9105 58.3501C15.3635 58.7581 14.0233 58.7581 13.4762 58.3501C12.6982 57.7698 12.5084 57.3632 12.4536 56.1578L12.4026 55.0341L13.0182 55.1441C13.3567 55.2045 14.1106 55.254 14.6934 55.254ZM10.6381 58.3357C11.0624 59.2617 11.7847 60.0017 12.7554 60.5054C13.3876 60.8334 13.6631 60.8878 14.6934 60.8878C15.7236 60.8878 15.9991 60.8334 16.6314 60.5054C17.6062 59.9996 18.3248 59.2608 18.7551 58.3219L19.1066 57.5548L21.4563 57.6104C23.5257 57.6593 23.8825 57.7032 24.4463 57.9781C25.4454 58.4654 26.0456 59.0382 26.5711 60.0065L27.0556 60.8992L27.1019 64.3216L27.1483 67.7439H14.6934H2.23848L2.28666 64.3216C2.33314 61.0189 2.34699 60.8745 2.68281 60.1935C3.28341 58.9759 4.45464 58.0201 5.72194 57.7139C5.95506 57.6576 7.07896 57.6051 8.21939 57.597L10.2929 57.5826L10.6381 58.3357Z" fill="#6A6A6A"/>
</svg>
