<svg width="70" height="70" viewBox="0 0 70 70" fill="none" xmlns="http://www.w3.org/2000/svg">
<path fill-rule="evenodd" clip-rule="evenodd" d="M32.9959 0.214942C30.4062 0.776518 27.9308 2.70607 26.734 5.09594C25.9068 6.74769 25.6295 8.10633 25.7361 9.98364L25.819 11.4427L22.8683 12.5102C21.2455 13.0973 19.4168 13.7628 18.8047 13.9888L17.6916 14.3998L16.9493 13.3324C15.234 10.8661 12.3148 9.33219 9.336 9.33219C4.25677 9.33219 0 13.5874 0 18.6648C0 22.6812 2.73899 26.3718 6.63584 27.6059C8.09173 28.0671 10.7491 28.0563 12.0934 27.5839C12.6064 27.4036 13.0758 27.309 13.1364 27.374C13.1969 27.4387 14.1748 29.0578 15.3095 30.9717L17.3724 34.4515L15.5226 37.3185C14.5053 38.8952 13.599 40.2661 13.5088 40.3649C13.3801 40.506 13.1132 40.464 12.266 40.1694C10.8446 39.6752 8.94455 39.5594 7.43859 39.8751C3.18386 40.7668 0 44.6777 0 49.0123C0 53.0287 2.74016 56.7208 6.63584 57.953C7.44413 58.2088 8.00796 58.2762 9.336 58.2762C11.2956 58.2762 12.4768 57.9725 13.994 57.0781C14.9299 56.5264 16.3769 55.2422 16.8322 54.5591L17.0738 54.1968L21.4479 56.3792L25.822 58.5616L25.7377 60.0243C25.6291 61.9058 25.9054 63.2614 26.7347 64.9156C27.4515 66.3452 28.8826 67.8849 30.2366 68.6829C33.9199 70.854 38.5262 70.2995 41.511 67.3258C43.2957 65.5477 44.1741 63.6285 44.317 61.1951C44.4167 59.4987 44.1191 58.054 43.3619 56.5591L42.7872 55.4247L48.045 49.9206C50.9368 46.8933 53.7216 43.9907 54.2335 43.4703L55.1642 42.5241L55.5663 42.7866C56.9643 43.6989 59.1165 44.3454 60.7408 44.341C64.7337 44.3299 68.4297 41.5788 69.6561 37.705C70.1146 36.2566 70.1146 33.755 69.6561 32.3066C69.1963 30.8539 68.3867 29.5517 67.2071 28.367C64.2191 25.3663 59.4899 24.8246 55.856 27.0668L54.986 27.6036L48.7035 21.3233L42.4209 15.0429L42.8728 14.3371C43.5296 13.3112 43.8879 12.3955 44.162 11.0436C45.4721 4.58003 39.5138 -1.19841 32.9959 0.214942ZM36.6964 2.54718C39.2138 3.20272 41.1528 5.14729 41.8121 7.67737C42.7575 11.3055 40.4343 15.1337 36.6964 16.107C33.0502 17.0564 29.2165 14.7402 28.2417 10.9988C26.9419 6.01045 31.7062 1.24793 36.6964 2.54718ZM11.0084 11.8849C13.5258 12.5404 15.4648 14.485 16.1241 17.0151C17.0694 20.6432 14.7463 24.4714 11.0084 25.4447C7.35612 26.3957 3.53006 24.084 2.55363 20.3365C1.25273 15.3441 6.01407 10.5845 11.0084 11.8849ZM27.4664 14.7254C27.8327 15.247 28.3039 15.833 28.5133 16.0275C28.7226 16.2221 28.8939 16.4452 28.8939 16.5235C28.8939 16.6273 24.1908 24.0238 23.8252 24.4947C23.7371 24.6084 18.2392 21.8171 18.2394 21.6588C18.2394 21.5768 18.3442 21.0175 18.4723 20.4156C18.6793 19.4427 18.6997 17.4885 18.5101 16.7977C18.4539 16.5931 26.5601 13.5202 26.7159 13.6869C26.7621 13.7365 27.0999 14.2038 27.4664 14.7254ZM47.0459 23.0224L53.3014 29.2769L52.7168 30.2457C52.3953 30.7786 52.0431 31.517 51.9341 31.8865L51.7359 32.5586L50.9489 32.4774C50.5161 32.4328 48.8661 32.218 47.2824 32.0001L44.4028 31.6038L44.3116 30.6229C43.8739 25.9146 39.7604 22.1715 35.024 22.1715C33.6197 22.1715 32.1865 22.5229 30.7914 23.2092C29.7951 23.6993 29.3146 24.0602 28.3516 25.0411L27.1524 26.2626L26.5515 25.9562C26.2017 25.7778 25.9801 25.5729 26.0213 25.4659C26.1145 25.2226 30.6375 18.2062 30.8502 17.9745C30.9798 17.8334 31.2429 17.8742 32.0784 18.1645C34.6272 19.0506 37.8889 18.6355 40.0817 17.146C40.3877 16.9382 40.6724 16.7681 40.7142 16.7681C40.7563 16.7681 43.6055 19.5825 47.0459 23.0224ZM19.8516 25.2339C21.7959 26.2067 22.4527 26.6007 22.3679 26.7434C22.3047 26.8496 21.4714 28.1326 20.516 29.5949L18.779 32.2535L16.977 29.2161C15.986 27.5455 15.1749 26.1293 15.1746 26.0689C15.1743 26.0085 15.4284 25.7295 15.7392 25.4489C16.0499 25.1682 16.4603 24.7092 16.6514 24.4289C16.8423 24.1487 17.0485 23.9189 17.1097 23.9183C17.1707 23.9177 18.4046 24.5098 19.8516 25.2339ZM36.6964 24.7242C40.1656 25.6275 42.4324 28.9681 41.9321 32.4397C41.5247 35.2671 39.4685 37.5623 36.6964 38.284C33.0442 39.235 29.2181 36.9234 28.2417 33.1759C26.9408 28.1834 31.7021 23.4238 36.6964 24.7242ZM26.1208 28.5072C26.1208 28.5908 26.0235 29.1188 25.9044 29.6804C25.0264 33.8238 27.1207 38.0115 31.0103 39.8897C31.5722 40.1611 32.4425 40.4666 32.9442 40.5687L33.8564 40.7543V46.0943V51.4343L32.9782 51.6157C32.4952 51.7153 31.7964 51.927 31.4251 52.0862C31.0538 52.2452 30.7356 52.3573 30.7179 52.3352C30.7003 52.3132 28.3133 48.3005 25.4137 43.418C20.5897 35.2957 20.1568 34.5132 20.3216 34.2135C20.4205 34.0333 21.4187 32.4713 22.5398 30.7424L24.5781 27.5988L25.3494 27.977C25.7737 28.1849 26.1208 28.4236 26.1208 28.5072ZM62.3844 28.2259C64.9019 28.8814 66.8409 30.826 67.5002 33.3561C68.4455 36.9842 66.1224 40.8124 62.3844 41.7857C58.7322 42.7367 54.9062 40.425 53.9297 36.6775C52.6288 31.6851 57.3902 26.9255 62.3844 28.2259ZM48.4726 34.5123L51.371 34.9112L51.3735 35.4327C51.3802 36.8153 52.078 38.8799 52.9829 40.1948L53.447 40.869L52.9454 41.4025C51.9062 42.5077 42.6833 52.1815 41.9697 52.9148L41.2249 53.6803L40.4962 53.1524C39.5174 52.4434 38.1959 51.8481 37.0965 51.6211L36.1917 51.4343V46.0943V40.7543L37.0965 40.5675C38.9845 40.1777 41.0388 38.9075 42.25 37.3811C42.9519 36.4965 43.9273 34.6489 43.9273 34.204C43.9273 33.895 44.0438 33.9029 48.4726 34.5123ZM23.6005 44.9271C26.2472 49.3807 28.4917 53.1746 28.5883 53.358C28.7452 53.6562 28.7014 53.7622 28.1735 54.3618C27.8488 54.7305 27.402 55.3189 27.1804 55.6695C26.9589 56.0201 26.7278 56.307 26.6671 56.3071C26.5641 56.3074 18.377 52.2497 18.2575 52.1392C18.2274 52.1113 18.3096 51.5592 18.4399 50.9123C18.5704 50.2652 18.6759 49.3597 18.6746 48.9C18.6684 46.824 17.7116 44.401 16.2553 42.772C15.8053 42.2688 15.4693 41.7736 15.5084 41.6716C15.6306 41.3532 18.6894 36.7198 18.74 36.7761C18.7666 36.8055 20.9537 40.4734 23.6005 44.9271ZM11.0084 42.2324C14.7463 43.2057 17.0694 47.0339 16.1241 50.662C15.4648 53.1921 13.5258 55.1367 11.0084 55.7922C7.35612 56.7432 3.53006 54.4316 2.55363 50.6841C1.25273 45.6916 6.01407 40.932 11.0084 42.2324ZM36.6964 53.9046C40.4343 54.8779 42.7575 58.706 41.8121 62.3342C40.8326 66.0933 37.0136 68.4178 33.3737 67.4701C29.6193 66.4925 27.2895 62.6674 28.236 59.0348C29.2183 55.2647 33.034 52.951 36.6964 53.9046Z" fill="#6A6A6A"/>
</svg>
