<svg width="70" height="70" viewBox="0 0 70 70" fill="none" xmlns="http://www.w3.org/2000/svg">
<path fill-rule="evenodd" clip-rule="evenodd" d="M35.3298 0.0754857C33.8436 0.314623 33.4961 0.883003 33.4961 3.07466V4.58008L32.7225 4.8776L31.949 5.17497L30.7578 4.00374C29.585 2.85091 29.5559 2.83264 28.8858 2.83264C28.061 2.83264 27.5967 3.14155 26.146 4.65522C24.3601 6.51845 24.3461 7.08491 26.0415 8.86752L27.1601 10.0438L26.877 10.765L26.5937 11.4861L25.1572 11.4891C23.0069 11.4936 22.3393 11.8749 22.156 13.203L22.0801 13.7525L14.4238 13.8251C10.2129 13.8651 6.73982 13.9115 6.70605 13.9281C6.36426 14.0965 0.332773 20.3188 0.190176 20.6502C0.0314453 21.019 0 23.6307 0 36.4173C0 51.1844 0.00943359 51.761 0.258945 52.252C0.57873 52.8815 0.889219 53.1705 1.53863 53.4432C1.97148 53.6248 3.12484 53.6544 9.77102 53.6544H17.5V54.3999C17.5 55.0417 17.5502 55.185 17.8603 55.43C18.6998 56.0936 19.5508 55.4314 19.5508 54.1147V53.6544H20.9308C22.2461 53.6544 22.3146 53.6689 22.391 53.9628C22.4351 54.1326 22.7176 54.7661 23.0187 55.3707C23.7995 56.9394 25.3434 58.4689 26.9336 59.2492C29.6469 60.5805 32.372 60.5684 35.105 59.2132C39.0459 57.2589 40.9817 52.5482 39.5746 48.3367C38.5626 45.308 36.0436 42.9945 33.0226 42.3193L31.9922 42.0889V39.5143C31.9922 37.1944 31.9674 36.917 31.7421 36.7122C31.3835 36.3861 30.5899 36.4194 30.2702 36.7736C30.0377 37.0314 30.0053 37.3327 29.9672 39.5815L29.9247 42.1006L29.1806 42.2558C27.4516 42.6164 26.1037 43.3556 24.6985 44.7141C23.0932 46.2659 22.2005 48.1557 22.0325 50.3579L21.9434 51.5254H12.0312H2.11914L2.08441 36.4867L2.04955 21.4481L4.81742 18.6647L7.58543 15.8815H14.7924H21.9993L22.0783 16.3966C22.2044 17.2186 22.5828 17.8509 23.1055 18.1132C23.4731 18.2978 23.9323 18.3539 25.0879 18.3553L26.5918 18.3569L26.8717 19.0765L27.1517 19.7961L26.1033 20.9075C24.3064 22.8126 24.3456 23.4236 26.3978 25.4853C27.8837 26.9781 28.544 27.3062 29.3903 26.9722L29.9273 26.7602L29.9685 29.8915C30.0061 32.7443 30.0329 33.0484 30.2702 33.3116C30.4475 33.5083 30.696 33.6004 31.0486 33.6004C31.9811 33.6004 31.9922 33.5451 31.9922 28.8997C31.9922 26.5111 32.0444 24.8096 32.1176 24.8096C32.1865 24.8096 32.5248 24.9311 32.8695 25.0794L33.4961 25.3493L33.4964 26.8307C33.4965 28.5493 33.6902 29.0983 34.4531 29.5437C34.8745 29.7898 35.1686 29.8231 36.9141 29.8231C38.6509 29.8231 38.9538 29.7891 39.3596 29.5484C40.1376 29.0868 40.3318 28.5395 40.3335 26.8035L40.335 25.2904L41.0513 25.0089L41.7676 24.7276L42.9384 25.8474C44.7143 27.5459 45.3884 27.5205 47.2258 25.686C48.6504 24.2638 48.9453 23.8006 48.9453 22.9857C48.9453 22.3128 48.9269 22.2828 47.7851 21.1106L46.6248 19.9195L46.9306 19.137L47.2363 18.3544L48.7104 18.3542C50.8914 18.3538 51.5155 17.9804 51.6759 16.5801L51.748 15.9502L52.6139 15.8809C53.5942 15.8026 53.8672 15.5748 53.8672 14.835C53.8672 14.1862 53.35 13.8211 52.431 13.8211H51.7152L51.645 13.1945C51.5037 11.9355 50.7095 11.4861 48.6262 11.4861H47.2046L46.926 10.765L46.6475 10.0438L47.6444 9.01367C48.8193 7.79971 48.9453 7.58228 48.9453 6.76872C48.9453 6.07493 48.4877 5.40147 47.1491 4.12543C45.9564 2.9884 45.6966 2.83264 44.9925 2.83264C44.2386 2.83264 43.9921 2.98263 42.7246 4.21252L41.7676 5.14105L41.0498 4.86125L40.332 4.58146L40.329 3.12328C40.3253 1.35098 40.0854 0.672024 39.3363 0.314898C38.7689 0.0444432 36.4021 -0.0970337 35.3298 0.0754857ZM37.854 2.09435L38.2812 2.18019V3.72229C38.2812 5.72385 38.434 5.98592 39.9923 6.66021C42.0148 7.53516 42.5484 7.43119 44.0876 5.86217C44.5363 5.40463 44.9727 5.03034 45.057 5.03034C45.1415 5.03034 45.5976 5.43526 46.0705 5.93002L46.9305 6.82984L45.7375 8.05465L44.5445 9.27945L44.6041 10.0051C44.6921 11.0777 45.4928 12.8477 46.0652 13.2353C46.4751 13.5128 46.6912 13.5464 48.0609 13.5464C49.8297 13.5464 49.7604 13.4868 49.7637 15.0117C49.7667 16.3308 49.8131 16.2935 48.1652 16.2935C46.6154 16.2935 45.9735 16.4791 45.6307 17.0265C45.2257 17.673 44.5703 19.4738 44.5703 19.9394C44.5703 20.6256 44.7315 20.8865 45.8847 22.0658L46.8952 23.0994L45.9375 24.0542L44.9798 25.0089L43.8391 23.8689C42.3959 22.4265 42.1091 22.3563 40.4373 23.0365C39.0808 23.5885 38.733 23.7947 38.5149 24.1767C38.424 24.3359 38.3188 25.208 38.2812 26.1145L38.2129 27.7628L36.8799 27.8021L35.5469 27.8414V26.2891C35.5469 24.1422 35.4397 23.9579 33.755 23.207C32.9256 22.8373 32.2587 22.6305 31.872 22.6232C31.2987 22.6123 31.2218 22.6626 30.0576 23.8072L28.8418 25.0025L27.8875 24.051L26.9332 23.0995L27.8709 22.1346C28.3866 21.6039 28.9097 21.0168 29.0333 20.83C29.3666 20.3259 29.3076 19.602 28.8407 18.4713C27.9785 16.3832 27.9829 16.3863 25.7715 16.2935L24.1309 16.2249V14.92V13.6151L25.7965 13.5464C27.1979 13.4886 27.5218 13.4328 27.8383 13.1949C28.335 12.8215 29.2421 10.6769 29.2511 9.85442C29.2575 9.28069 29.2031 9.1969 28.0681 8.03157L26.8784 6.81006L27.8224 5.85434L28.7664 4.89861L29.8747 5.98551C30.4843 6.58329 31.1479 7.11389 31.3496 7.16471C31.933 7.31182 32.6629 7.16307 33.8358 6.65801C35.3953 5.98647 35.5469 5.72577 35.5469 3.71515C35.5469 2.35532 35.5761 2.15835 35.7861 2.10314C36.1607 2.00479 37.3825 1.99957 37.854 2.09435ZM35.4785 7.80081C33.5707 8.16371 31.3928 9.82311 30.5047 11.5907C28.508 15.5646 30.3868 20.3265 34.5326 21.7995C37.8905 22.9924 41.7639 21.3937 43.3434 18.1627C44.2829 16.2405 44.3867 14.0541 43.623 12.2642C43.1938 11.2586 42.1825 11.0812 41.7071 11.9281C41.5317 12.2406 41.5393 12.3761 41.7755 13.1533C42.5878 15.8265 41.5186 18.4386 39.1279 19.6211C38.2938 20.0338 38.1114 20.0708 36.9171 20.0708C35.7908 20.0708 35.5098 20.0213 34.8335 19.7027C32.4178 18.5651 31.2106 15.9301 31.9736 13.4603C32.8152 10.7362 35.4676 9.21791 38.1855 9.90415C39.2935 10.1839 39.7101 10.1073 39.9849 9.57339C40.2881 8.98441 40.0492 8.40793 39.3925 8.14393C38.2344 7.67843 36.7887 7.55165 35.4785 7.80081ZM35.769 11.9626C34.5991 12.3815 33.7777 13.606 33.7725 14.9387C33.7617 17.7194 37.0679 19.1354 39.0841 17.2137C40.3832 15.9754 40.4008 14.0118 39.1244 12.7349C38.1922 11.8024 36.9894 11.5255 35.769 11.9626ZM37.6722 14.1583C38.3551 14.8443 37.8975 16.0188 36.9471 16.0188C36.2883 16.0188 35.8203 15.5785 35.8203 14.9584C35.8203 14.3541 36.3329 13.8211 36.9141 13.8211C37.1804 13.8211 37.4607 13.9457 37.6722 14.1583ZM55.7129 14.6666C55.083 15.0127 54.9305 15.5981 55.2945 16.2724C55.4028 16.4729 55.5271 16.8603 55.5707 17.1332C55.6142 17.4061 55.7725 17.7409 55.9223 17.8771C56.2729 18.1958 56.9316 18.1947 57.2834 17.8748C57.9677 17.2526 57.3636 14.9807 56.4266 14.6524C56.1996 14.573 56.0077 14.5098 56.0001 14.512C55.9925 14.5144 55.8633 14.5839 55.7129 14.6666ZM55.8366 19.8792C55.6217 20.1178 55.5762 20.3814 55.5762 21.3863C55.5762 22.4571 55.6124 22.6408 55.8761 22.9057C56.2446 23.2758 56.9062 23.2999 57.2834 22.957C57.5218 22.7402 57.5586 22.535 57.5586 21.4231C57.5586 20.3226 57.5196 20.1004 57.2852 19.8648C56.9167 19.4946 56.1765 19.5019 55.8366 19.8792ZM8.28994 23.7208C7.8385 24.0775 7.79598 24.8127 8.20312 25.2217C8.46986 25.4897 8.65881 25.4964 15.9368 25.4964C20.9338 25.4964 23.4864 25.4483 23.6679 25.3507C24.3236 24.9981 24.262 23.9087 23.5683 23.5913C23.33 23.4821 21.0663 23.4361 15.9398 23.4361C8.77215 23.4361 8.64418 23.4409 8.28994 23.7208ZM55.8366 24.9614C55.6217 25.2 55.5762 25.4636 55.5762 26.4685C55.5762 27.5393 55.6124 27.723 55.8761 27.9879C56.2446 28.358 56.9062 28.3821 57.2834 28.0391C57.5218 27.8224 57.5586 27.6172 57.5586 26.5053C57.5586 25.4048 57.5196 25.1826 57.2852 24.947C56.9167 24.5768 56.1765 24.5841 55.8366 24.9614ZM8.20312 28.793C7.85764 29.1401 7.85217 29.7653 8.19109 30.1856L8.45236 30.5099H15.9958H23.5393L23.8693 30.1245C24.2735 29.6524 24.2848 29.3513 23.9158 28.8802L23.6325 28.5182H16.0545C8.65881 28.5182 8.47 28.5248 8.20312 28.793ZM55.8366 30.0443C55.6175 30.2884 55.5763 30.5493 55.5767 31.6925L55.5773 33.051H49.9986C43.8778 33.051 43.8293 33.057 43.4105 33.8706C43.0899 34.4935 43.104 42.5238 43.4268 43.0725C43.9179 43.9079 43.8724 43.9021 49.9576 43.9021H55.5078V44.9323V45.9625H50.103C44.1227 45.9625 43.9853 45.9801 43.4801 46.8127C43.2191 47.2426 43.2042 47.4951 43.2056 51.4567C43.2074 56.0413 43.2164 56.0995 44.0114 56.6378C44.4739 56.951 44.4746 56.951 49.9909 56.951H55.5078V57.9812V59.0113H49.9909C44.4746 59.0113 44.4739 59.0113 44.0114 59.3245C43.3156 59.7956 43.2074 60.1327 43.2052 61.8356L43.2031 63.3551L42.793 63.6597C42.4557 63.9103 42.3828 64.0623 42.3828 64.516C42.3828 64.9851 42.4441 65.1028 42.7921 65.3018L43.2013 65.5357L43.2027 67.1153C43.2039 68.4564 43.2458 68.7636 43.4801 69.1496C44.0167 70.0339 43.4902 69.9998 56.6016 69.9998C69.7129 69.9998 69.1864 70.0339 69.723 69.1496C69.9837 68.7201 69.999 68.4651 69.9995 64.533C70 59.9324 69.9774 59.7941 69.1388 59.2805C68.7237 59.0262 68.4145 59.0123 63.1299 59.0119L57.5586 59.0113V57.9812V56.951H59.105C60.4725 56.951 60.6862 56.9186 60.9507 56.6709C61.146 56.4882 61.25 56.2275 61.25 55.9208C61.25 55.6141 61.146 55.3534 60.9507 55.1707C60.6571 54.8957 60.5116 54.8906 52.9527 54.8906H45.2539V51.4567V48.0228H56.6016H67.9492V51.4567V54.8906H66.3344C64.8982 54.8906 64.6864 54.9217 64.4204 55.1707C64.0181 55.5472 64.0181 56.2944 64.4204 56.6709C64.6931 56.9263 64.8955 56.951 66.7104 56.9504C68.4437 56.95 68.7578 56.9153 69.1388 56.6818C69.9776 56.1681 70 56.0311 70 51.4153C70 47.2936 69.9959 47.2333 69.6876 46.7726C69.5092 46.5059 69.1722 46.2355 68.9015 46.1419C68.567 46.0262 66.8283 45.9757 62.9871 45.9702L57.5466 45.9625L57.5868 44.9667L57.627 43.9708L63.3325 43.9021L69.0379 43.8335L69.4848 43.3846L69.9316 42.9357L69.9714 38.6785C70.0064 34.9262 69.984 34.3636 69.7821 33.936C69.3619 33.0465 69.396 33.051 63.1709 33.051H57.5586V31.6774C57.5586 30.487 57.5221 30.2672 57.2852 30.0292C56.9163 29.6586 56.1764 29.6663 55.8366 30.0443ZM8.20312 33.7378C7.79598 34.1468 7.8385 34.882 8.28994 35.2387C8.64418 35.5186 8.77215 35.5234 15.9398 35.5234C21.0663 35.5234 23.33 35.4774 23.5683 35.3682C24.262 35.0508 24.3236 33.9614 23.6679 33.6088C23.4864 33.5111 20.9338 33.4631 15.9368 33.4631C8.65881 33.4631 8.46986 33.4698 8.20312 33.7378ZM67.9492 38.4766V41.8418H56.6016H45.2539V38.4766V35.1113H56.6016H67.9492V38.4766ZM48.4981 37.6181C47.9175 38.0591 47.9861 39.0617 48.6168 39.3504C48.859 39.4614 51.1941 39.5067 56.6579 39.5067C64.2404 39.5067 64.3631 39.5023 64.7179 39.222C65.1833 38.8543 65.2127 38.1325 64.7788 37.7265C64.4849 37.4513 64.3409 37.4464 56.602 37.4464C50.5114 37.4464 48.6728 37.4854 48.4981 37.6181ZM8.28994 38.6926C7.8385 39.0493 7.79598 39.7845 8.20312 40.1935C8.46986 40.4615 8.65881 40.4682 15.9368 40.4682C20.9338 40.4682 23.4864 40.4202 23.6679 40.3225C24.3236 39.9699 24.262 38.8805 23.5683 38.5631C23.33 38.4539 21.0663 38.4079 15.9398 38.4079C8.77215 38.4079 8.64418 38.4127 8.28994 38.6926ZM8.20312 43.7648C7.85764 44.1119 7.85217 44.7371 8.19109 45.1574L8.45236 45.4817H12.0996H15.7469L16.0081 45.1574C16.347 44.7371 16.3416 44.1119 15.9961 43.7648C15.7365 43.5039 15.5404 43.4901 12.0996 43.4901C8.65881 43.4901 8.46275 43.5039 8.20312 43.7648ZM32.7441 44.3632C35.9822 45.2307 38.2048 48.3122 37.9596 51.5941C37.6336 55.9552 33.6056 58.9701 29.4273 57.9803C26.2091 57.2181 24.0625 54.5021 24.0625 51.1925C24.0625 48.0658 25.8925 45.5007 28.8445 44.4895C29.8914 44.1308 31.6626 44.0736 32.7441 44.3632ZM32.3215 50.1006L30.4907 51.9218L29.219 50.6689C28.5033 49.9637 27.7803 49.3737 27.5652 49.3196C27.002 49.1776 26.4675 49.6192 26.4124 50.2722C26.372 50.7521 26.4526 50.8623 28.0301 52.4787C29.8426 54.3359 30.257 54.6081 30.8778 54.3499C31.4557 54.1094 35.5052 49.9593 35.6225 49.4875C35.7656 48.9108 35.3285 48.379 34.6652 48.3228C34.1719 48.2809 34.0822 48.3491 32.3215 50.1006ZM48.3908 50.7485C47.9797 51.083 47.9742 51.7783 48.3794 52.1855L48.6795 52.4869H56.591C64.1792 52.4869 64.5143 52.4762 64.7903 52.2252C65.1659 51.8838 65.1731 51.1401 64.8047 50.77C64.5375 50.5016 64.349 50.4952 56.6167 50.4952C49.1288 50.4952 48.6854 50.5088 48.3908 50.7485ZM17.7734 57.3631C17.5387 57.5989 17.5 57.8209 17.5 58.9326C17.5 60.168 17.5165 60.2407 17.8603 60.5122C18.2727 60.8383 18.4451 60.859 18.9223 60.6406C19.3416 60.4488 19.5508 59.8835 19.5508 58.9426C19.5508 58.0757 19.335 57.4037 18.9986 57.2228C18.5965 57.0066 18.0681 57.067 17.7734 57.3631ZM67.9492 64.5056V67.9395H56.6016H45.2539V64.5056V61.0717H56.6016H67.9492V64.5056ZM17.9102 62.4452C17.3726 62.9853 17.634 63.9757 18.5209 64.7579C19.3672 65.5044 20.2593 65.4936 20.6224 64.7325C20.861 64.2324 20.6511 63.6883 20.0911 63.356C19.8684 63.2238 19.5964 62.9414 19.4868 62.7285C19.1655 62.1042 18.3885 61.9646 17.9102 62.4452ZM22.832 63.4974C22.3662 63.6849 22.1484 64.0104 22.1484 64.519C22.1484 65.2877 22.4849 65.4671 23.9258 65.4671C25.3667 65.4671 25.7031 65.2877 25.7031 64.519C25.7031 63.7152 25.3522 63.4827 24.0827 63.4455C23.5077 63.4286 22.9448 63.4519 22.832 63.4974ZM27.8906 63.4974C27.4248 63.6849 27.207 64.0104 27.207 64.519C27.207 65.2877 27.5435 65.4671 28.9844 65.4671C30.4253 65.4671 30.7617 65.2877 30.7617 64.519C30.7617 63.7152 30.4108 63.4827 29.1413 63.4455C28.5663 63.4286 28.0034 63.4519 27.8906 63.4974ZM32.9492 63.4974C32.4834 63.6849 32.2656 64.0104 32.2656 64.519C32.2656 65.2877 32.6021 65.4671 34.043 65.4671C35.4838 65.4671 35.8203 65.2877 35.8203 64.519C35.8203 63.7152 35.4694 63.4827 34.1999 63.4455C33.6249 63.4286 33.062 63.4519 32.9492 63.4974ZM38.0078 63.4974C37.542 63.6849 37.3242 64.0104 37.3242 64.519C37.3242 65.2877 37.6607 65.4671 39.1016 65.4671C40.5424 65.4671 40.8789 65.2877 40.8789 64.519C40.8789 63.7152 40.528 63.4827 39.2585 63.4455C38.6835 63.4286 38.1206 63.4519 38.0078 63.4974ZM48.7354 63.5357C48.0709 63.8104 47.8595 64.67 48.3284 65.1906C48.5726 65.4616 48.7341 65.4671 56.5544 65.4671C64.349 65.4671 64.5375 65.4607 64.8047 65.1924C65.1731 64.8222 65.1659 64.0785 64.7905 63.7371C64.5154 63.4869 64.1613 63.4742 56.7582 63.4481C52.4988 63.433 48.8884 63.4724 48.7354 63.5357Z" fill="#6A6A6A"/>
</svg>
