<svg width="70" height="70" viewBox="0 0 70 70" fill="none" xmlns="http://www.w3.org/2000/svg">
<path fill-rule="evenodd" clip-rule="evenodd" d="M4.37391 0.188099C2.36037 0.748555 0.726872 2.39956 0.190028 4.41669C0.0343206 5.0019 0.00233141 9.67784 0.000964356 32.0689C-0.000812819 61.5581 -0.0466093 59.8439 0.781418 61.2579C1.33303 62.1998 2.31334 63.092 3.35696 63.6023L4.30556 64.066L14.9857 64.1034L25.6657 64.1408L25.8239 64.9449C26.494 68.353 29.8426 70.5725 33.2463 69.8645C35.2605 69.4456 36.6661 68.2478 38.0448 65.7756L38.9218 64.2028L47.5878 64.1344C52.3541 64.0968 56.3201 64.0228 56.4011 63.97C56.4915 63.9111 56.938 64.5716 57.5566 65.6796C59.0781 68.4044 60.4393 69.5348 62.6569 69.9147C65.9074 70.4717 69.1551 68.2418 69.8403 64.9825C70.0773 63.8555 70.0401 47.5587 69.7975 46.2184C69.0368 42.0153 65.7832 38.5437 61.7562 37.6379L60.6967 37.3996V21.424C60.6967 7.40223 60.6705 5.33314 60.4822 4.5049C60.1296 2.95455 58.9249 1.37671 57.5629 0.681541C56.1489 -0.040159 57.4253 -0.00856665 30.2168 0.00456263C10.461 0.0141361 4.85566 0.0539342 4.37391 0.188099ZM55.94 2.5299C56.7715 2.81341 57.5936 3.53962 57.9832 4.33504C58.2663 4.91314 58.3067 5.22044 58.3512 7.13828L58.4014 9.2923H30.3506H2.29981L2.34684 7.06989C2.3858 5.23111 2.43761 4.76488 2.64732 4.36882C3.13631 3.44539 3.97992 2.73121 4.91991 2.4451C5.10829 2.3878 16.5246 2.33556 30.2895 2.32913C52.5858 2.3186 55.3844 2.34062 55.94 2.5299ZM5.04691 5.0421C4.62039 5.46881 4.54999 5.84504 4.80631 6.32672C5.0856 6.85135 5.36188 6.95843 6.44651 6.96295C7.45799 6.96719 7.50639 6.95242 7.85991 6.53214C8.30406 6.0041 8.25089 5.42121 7.71568 4.95006C7.42409 4.69336 7.207 4.64235 6.40631 4.64235C5.52771 4.64235 5.41274 4.67613 5.04691 5.0421ZM11.1408 4.80756C10.4398 5.20964 10.3069 6.07713 10.8613 6.63157C11.1585 6.92903 11.315 6.96732 12.2345 6.96732C13.154 6.96732 13.3105 6.92903 13.6077 6.63157C14.161 6.07822 14.0506 5.18598 13.3867 4.84243C12.9292 4.60583 11.5305 4.58408 11.1408 4.80756ZM16.9794 4.7854C16.6054 4.93557 16.2845 5.628 16.3734 6.09299C16.4912 6.70966 17.0111 6.96732 18.1374 6.96732C19.0308 6.96732 19.1902 6.92766 19.4861 6.63157C19.9565 6.1611 19.932 5.55223 19.4221 5.0421C19.062 4.68187 18.9369 4.64317 18.1575 4.65096C17.6818 4.65575 17.1517 4.71633 16.9794 4.7854ZM48.267 4.99643C47.7235 5.45404 47.6879 6.13731 48.182 6.63157L48.5174 6.96732H51.8425C55.4479 6.96732 55.64 6.93094 55.9198 6.19475C56.0972 5.7277 55.7555 4.95362 55.2945 4.77829C55.0957 4.70266 53.5515 4.64235 51.8125 4.64235H48.6875L48.267 4.99643ZM58.3043 24.5299V37.3743L57.3474 37.5669C55.5369 37.9312 53.8067 38.8332 52.3385 40.1783L51.5675 40.8846H47.8473H44.1271L43.4235 40.2476C39.9877 37.1369 35.418 36.4984 31.4332 38.5724C28.8799 39.9013 27.0925 42.0723 26.0951 45.0559C25.7767 46.0086 25.7749 46.0516 25.7304 53.9146L25.6857 61.816L15.2007 61.7785C5.47535 61.7438 4.68368 61.7235 4.27357 61.4994C3.65798 61.1628 2.97008 60.4455 2.65647 59.8131C2.3981 59.2922 2.39086 58.7068 2.356 35.448L2.32032 11.6166L30.3123 11.6512L58.3043 11.6857V24.5299ZM17.2556 20.8195C13.1872 24.8967 12.8497 25.2709 12.8497 25.7038C12.8497 26.1366 13.1832 26.507 17.1821 30.5148C20.0107 33.3497 21.6396 34.8843 21.8747 34.936C22.6559 35.1076 23.2914 34.5526 23.2677 33.7197C23.2579 33.3754 22.6725 32.7288 19.4562 29.5096L15.6564 25.7062L19.4386 21.91C21.7941 19.5457 23.2543 17.9772 23.3096 17.7522C23.4113 17.3378 23.0959 16.6199 22.7547 16.4889C22.633 16.4423 22.3372 16.404 22.0975 16.404C21.7074 16.404 21.1986 16.868 17.2556 20.8195ZM33.1017 16.6433C32.7445 16.9442 25.7 33.3739 25.7 33.9062C25.7 34.4397 26.0892 34.861 26.6672 34.9536C27.0561 35.0158 27.2299 34.9661 27.5179 34.71C27.7786 34.4785 28.876 32.0593 31.438 26.0684C33.3949 21.4924 34.996 17.597 34.996 17.4119C34.996 16.5956 33.7558 16.0924 33.1017 16.6433ZM37.8981 16.4955C37.5997 16.6157 37.2972 17.3561 37.3843 17.7529C37.4387 18.0007 38.7162 19.3748 41.2184 21.8769L44.9712 25.6292L41.2247 29.3934C38.6629 31.9674 37.4467 33.2843 37.3782 33.5584C37.1826 34.3408 37.9806 35.1402 38.7649 34.9473C39.2443 34.8296 47.469 26.6952 47.7189 26.0918C47.806 25.8814 47.8418 25.5696 47.7984 25.3988C47.7549 25.2281 45.7619 23.1345 43.3692 20.7462C39.2951 16.6797 38.9889 16.4047 38.5454 16.4148C38.285 16.4207 37.9937 16.4571 37.8981 16.4955ZM37.7985 39.8595C39.2072 40.1554 40.6018 40.898 41.7062 41.9403C42.7676 42.942 43.3948 43.9019 43.9444 45.3657C44.1496 45.9121 44.4308 46.4199 44.5691 46.494C45.3314 46.902 46.3426 46.3604 46.3426 45.5439C46.3426 45.3166 46.1888 44.7218 46.0008 44.2222C45.8129 43.7226 45.6591 43.2903 45.6591 43.2617C45.6591 43.233 46.6433 43.2096 47.8464 43.2096C49.0494 43.2096 50.0336 43.2297 50.0336 43.2545C50.0336 43.2791 49.8799 43.6779 49.6919 44.1407C49.0723 45.666 49.3632 46.6287 50.4438 46.6287C51.0413 46.6287 51.4252 46.266 51.6738 45.4662C52.3064 43.4327 53.908 41.553 55.8056 40.6171C58.2833 39.3954 60.5317 39.3735 62.9713 40.5474C64.188 41.133 65.7302 42.5288 66.4139 43.6637C67.4742 45.4238 67.8534 47.4777 67.4692 49.3807C67.0375 51.52 65.991 53.1426 64.1533 54.5221C63.2361 55.2105 63.0829 55.3851 63.0445 55.7851C62.9841 56.4141 63.2449 56.8485 63.7914 57.0289C64.1904 57.1607 64.3301 57.1335 64.9272 56.8084C65.3018 56.6045 66.0746 56.0077 66.6446 55.4821L67.6813 54.5265L67.6408 59.6382C67.6008 64.7054 67.5975 64.7552 67.278 65.3653C66.8375 66.2065 66.226 66.8258 65.413 67.2545C64.8511 67.5509 64.5472 67.615 63.7042 67.6156C62.4642 67.6164 61.6547 67.2925 60.8804 66.4858C60.5692 66.1615 59.4078 64.2269 58.0323 61.7412C56.7548 59.4328 55.4986 57.3267 55.2408 57.0611C54.2707 56.0618 54.3448 56.0718 47.839 56.0684L42.0217 56.0654L41.3345 56.408C40.9565 56.5964 40.5147 56.8918 40.3526 57.0644C40.1904 57.2372 38.9798 59.3139 37.6622 61.6796C35.7076 65.1893 35.1398 66.1 34.5767 66.6288C32.6829 68.4073 29.6693 67.8391 28.4009 65.4642C28.0985 64.898 28.0915 64.7839 28.0527 59.6896L28.0129 54.4926L28.873 55.3285C30.7959 57.1979 32.037 57.5423 32.5331 56.3441C32.7829 55.7411 32.5189 55.2137 31.7063 54.6921C30.6958 54.0435 29.4773 52.6554 28.9253 51.5243C27.713 49.0404 27.7122 46.8533 28.9227 44.3412C29.7353 42.6548 30.9472 41.4157 32.5657 40.6163C34.4097 39.7055 35.9823 39.478 37.7985 39.8595ZM35.3316 43.5454C35.0198 43.8572 34.996 43.9785 34.996 45.2549V46.6287H33.7588C32.3268 46.6287 31.8173 46.8222 31.599 47.449C31.4324 47.9269 31.5022 48.2085 31.8959 48.646C32.1491 48.9273 32.2937 48.9537 33.5844 48.9537H34.996V50.3318C34.996 51.6727 35.0068 51.7208 35.3956 52.1098C35.8229 52.5373 36.1509 52.6003 36.6834 52.3577C37.1822 52.1303 37.32 51.6735 37.32 50.2465V48.9537H38.7316C40.0209 48.9537 40.1676 48.927 40.4247 48.646C40.8186 48.2154 40.9107 47.8157 40.7152 47.3864C40.4513 46.8068 39.9441 46.6287 38.5572 46.6287H37.32V45.2549C37.32 43.9785 37.2962 43.8572 36.9844 43.5454C36.5279 43.0886 35.7881 43.0886 35.3316 43.5454ZM58.7083 43.5454C58.411 43.8427 58.3727 43.9993 58.3727 44.9192C58.3727 45.839 58.411 45.9956 58.7083 46.2929C59.2024 46.7872 59.8854 46.7516 60.3428 46.2079C60.6422 45.852 60.6967 45.6534 60.6967 44.9192C60.6967 44.1849 60.6422 43.9863 60.3428 43.6304C59.8854 43.0867 59.2024 43.0511 58.7083 43.5454ZM55.544 46.7668C55.0591 46.9621 54.7745 47.5141 54.8769 48.0602C55.0082 48.7606 55.381 48.9537 56.6021 48.9537C57.5054 48.9537 57.6784 48.9133 57.9231 48.646C58.5135 48.0006 58.4025 47.2028 57.6693 46.8236C57.2555 46.6096 56.0164 46.5765 55.544 46.7668ZM61.5169 46.7181C60.6769 47.0549 60.4314 48.0168 61.0323 48.6179C61.3324 48.9183 61.4828 48.9537 62.4577 48.9537C63.4724 48.9537 63.5672 48.9288 63.831 48.5933C64.2253 48.0918 64.199 47.4398 63.7682 47.0349C63.493 46.7763 63.2476 46.7019 62.572 46.6727C62.1045 46.6525 61.6297 46.6729 61.5169 46.7181ZM59.1929 49.0502C59.0802 49.0915 58.8495 49.2513 58.6803 49.4053C58.4111 49.6502 58.3727 49.8194 58.3727 50.7617C58.3727 51.7222 58.4088 51.8743 58.7083 52.1738C59.1392 52.605 59.7436 52.6107 60.2346 52.1883C60.548 51.9186 60.6177 51.7317 60.6688 51.0255C60.7463 49.9529 60.5253 49.3927 59.9257 49.142C59.6778 49.0385 59.4577 48.9586 59.4365 48.9645C59.4154 48.9704 59.3057 49.0091 59.1929 49.0502ZM44.0555 51.3669C43.6405 51.4578 43.1984 52.0527 43.1984 52.5203C43.1984 52.7316 43.3468 53.0772 43.5282 53.2883C43.8353 53.6453 43.9295 53.672 44.8843 53.672C45.7821 53.672 45.9545 53.6306 46.2632 53.3405C46.7379 52.8942 46.749 52.1352 46.2871 51.701C46.0402 51.469 45.7587 51.3804 45.1593 51.3459C44.7199 51.3208 44.2231 51.3302 44.0555 51.3669ZM49.7847 51.4342C49.144 51.6189 48.8528 52.3094 49.1329 52.9801C49.292 53.361 49.4418 53.4811 49.9194 53.6096C51.0745 53.9208 52.2618 53.5543 52.4435 52.8305C52.7307 51.6852 51.3781 50.9749 49.7847 51.4342ZM53.6603 58.8384C53.8568 59.0848 54.3253 59.8541 54.7013 60.5479L55.3851 61.8094H47.8563C43.7155 61.8094 40.3275 61.7793 40.3275 61.7426C40.3275 61.5503 41.9074 58.8341 42.1383 58.6297C42.3859 58.4103 42.8618 58.3903 47.8556 58.3903H53.303L53.6603 58.8384Z" fill="#6A6A6A"/>
</svg>
