<svg width="68" height="70" viewBox="0 0 68 70" fill="none" xmlns="http://www.w3.org/2000/svg">
<path fill-rule="evenodd" clip-rule="evenodd" d="M5.67776 0.229552C3.35216 0.79342 1.29976 2.77551 0.601055 5.13209C0.428393 5.71457 0.400391 8.74148 0.400391 26.8412C0.400391 47.4348 0.405991 47.8918 0.67154 48.753C1.02041 49.8843 1.79739 51.0809 2.72504 51.9156C3.51034 52.622 4.10359 52.967 5.31141 53.4193C6.03921 53.6918 6.37865 53.705 13.8851 53.7543L21.7009 53.8056L19.3828 58.4479L17.0647 63.0902L13.6843 63.091C11.7772 63.0914 10.0821 63.1534 9.795 63.2333C9.01174 63.4511 8.17534 64.172 7.73536 65.0082C7.38307 65.6779 7.34714 65.861 7.40014 66.7161C7.43279 67.2429 7.5627 67.873 7.68878 68.1164C8.00255 68.722 8.7201 69.4166 9.36089 69.735C9.88215 69.9941 10.4326 70 34.1404 70C57.8481 70 58.3986 69.9941 58.9199 69.735C59.5607 69.4166 60.2782 68.722 60.592 68.1164C60.7181 67.873 60.848 67.2429 60.8806 66.7161C60.9336 65.861 60.8977 65.6779 60.5454 65.0082C60.1054 64.172 59.269 63.4511 58.4858 63.2333C58.1987 63.1534 56.5036 63.0914 54.5965 63.091L51.2161 63.0902L48.898 58.4479L46.5799 53.8056L54.3957 53.7543C61.9021 53.705 62.2416 53.6918 62.9694 53.4193C64.1772 52.967 64.7704 52.622 65.5557 51.9156C66.4834 51.0809 67.2604 49.8843 67.6092 48.753C67.8748 47.8918 67.8804 47.4348 67.8804 26.8412C67.8804 8.74148 67.8524 5.71457 67.6797 5.13209C66.9712 2.74199 64.923 0.785758 62.5403 0.223258C61.2624 -0.0784472 6.92341 -0.0724268 5.67776 0.229552ZM62.8464 2.76935C63.7864 3.21076 64.6021 4.00326 65.1096 4.9679L65.4899 5.6909L65.526 23.8548L65.5622 42.0187H46.6185C36.1994 42.0187 27.7003 41.9945 27.7316 41.9648C27.7628 41.9351 28.5752 41.587 29.5367 41.1913C30.6481 40.7337 31.382 40.348 31.5516 40.1321C31.794 39.8234 31.8182 39.5648 31.8182 37.2873C31.8182 34.8823 31.8059 34.7683 31.5109 34.4387C31.3178 34.2231 30.4664 33.8055 29.2228 33.3163C28.1334 32.8879 27.1865 32.4875 27.1185 32.4268C27.0505 32.3659 26.8325 31.8055 26.6341 31.1812L26.2734 30.0463L27.4733 28.1307C28.3875 26.6711 28.6736 26.1007 28.6748 25.7343C28.6762 25.3449 28.4423 24.929 27.4431 23.545C26.0625 21.6326 25.5355 21.0825 25.0885 21.0873C24.9206 21.0891 23.8332 21.3317 22.6718 21.6264L20.5604 22.1621L19.674 21.5205C19.1865 21.1675 18.728 20.8382 18.6554 20.7885C18.5827 20.7387 18.4457 19.6364 18.351 18.3389C18.1926 16.1693 18.1531 15.9546 17.8612 15.6691C17.5052 15.321 13.5467 13.969 12.8832 13.969C12.4274 13.969 12.0658 14.3102 10.3097 16.3977L9.24492 17.6633H7.98301H6.72111L5.25881 15.8955C3.76059 14.0846 3.62782 13.969 3.0455 13.969H2.70782L2.74935 9.82994L2.79088 5.6909L3.17117 4.9679C3.83723 3.70156 4.96513 2.78905 6.23782 2.48667C6.53247 2.41661 18.5686 2.37351 34.4136 2.38569L62.0749 2.40703L62.8464 2.76935ZM20.2254 8.91703C19.5983 10.8066 19.138 12.4008 19.2023 12.4596C19.3707 12.6138 21.1687 13.1884 21.2447 13.1123C21.2797 13.0771 21.8212 11.5103 22.4479 9.63045L23.5873 6.21235L22.6144 5.89929C22.0794 5.72702 21.5794 5.56256 21.5036 5.53382C21.4277 5.50509 20.8526 7.02757 20.2254 8.91703ZM35.3698 7.06465V8.2333L36.4967 8.19348L37.6237 8.1538L37.6633 7.02497L37.703 5.89614H36.5363H35.3698V7.06465ZM40.0142 7.05918V8.22222H51.0787H62.1432V7.05918V5.89614H51.0787H40.0142V7.05918ZM15.6578 7.52453C13.8968 9.34229 13.8968 9.3204 15.6603 11.1185L16.9872 12.4711L17.8087 11.6482L18.6304 10.8252L17.8867 10.071L17.1431 9.31684L17.8867 8.56264L18.6304 7.80845L17.8063 6.98297L16.9822 6.15748L15.6578 7.52453ZM24.7879 6.98611L23.9726 7.81132L24.7149 8.56415L25.4571 9.31684L24.7134 10.071L23.9698 10.8252L24.8265 11.6788L25.6831 12.5323L26.9748 11.2067C28.137 10.0141 28.2666 9.83008 28.2666 9.37266C28.2666 8.91306 28.1385 8.73409 26.9348 7.51249L25.6029 6.16077L24.7879 6.98611ZM30.5888 11.7113V12.8744H46.366H62.1432V11.7113V10.5483H46.366H30.5888V11.7113ZM30.5888 16.3635V17.5265H40.4923H50.3957V16.3635V15.2004H40.4923H30.5888V16.3635ZM14.7775 16.9205C15.932 17.2961 15.9728 17.3235 15.9749 17.7257C15.9784 18.4194 16.2384 21.3484 16.3281 21.7066C16.4037 22.0083 17.5977 22.9835 19.3492 24.174C19.9962 24.6139 20.4517 24.5934 22.6661 24.025L24.5101 23.5517L24.8068 23.9146C24.9701 24.1141 25.3445 24.621 25.6389 25.041L26.1741 25.8046L25.0348 27.6418C24.252 28.904 23.8955 29.6105 23.8955 29.8993C23.8955 30.1304 24.1774 31.167 24.522 32.2027C24.982 33.5853 25.227 34.13 25.4441 34.2525C25.6065 34.3443 26.5694 34.7592 27.5836 35.1746L29.4277 35.9299L29.4665 37.3163L29.5052 38.7028L27.5541 39.4829C26.481 39.912 25.4714 40.3853 25.3106 40.5348C25.1498 40.6844 24.9421 41.0794 24.8489 41.4127L24.6795 42.0187H21.3506C19.5198 42.0187 18.0217 41.9726 18.0218 41.9161C18.0218 41.8596 18.1505 41.4748 18.3077 41.0609C20.3018 35.8122 17.7305 29.6978 12.5309 27.3243C9.73777 26.0492 6.23017 26.0378 3.54217 27.2948L2.79088 27.646L2.75399 24.9215C2.73364 23.423 2.73364 20.9328 2.75399 19.3878L2.79088 16.5787L3.88367 17.8939C4.48471 18.6173 5.15022 19.3846 5.36263 19.5993L5.7488 19.9894H7.98766H10.2264L10.675 19.5354C10.9217 19.2857 11.6152 18.4864 12.2162 17.7591C12.8173 17.0319 13.3705 16.4582 13.4456 16.4843C13.5207 16.5103 14.1201 16.7066 14.7775 16.9205ZM30.5888 21.0156V22.1787H40.4923H50.3957V21.0156V19.8526H40.4923H30.5888V21.0156ZM52.8218 30.3487L52.7862 36.2035H51.6251H50.464L50.4271 33.2959L50.3902 30.3883H49.2319H48.0735V33.3356V36.283L46.9466 36.2432L45.8196 36.2035L45.7832 32.6747L45.7467 29.1459L44.6221 29.1856L43.4974 29.2253L43.461 32.7541L43.4245 36.2829L42.2999 36.2432L41.1753 36.2035L41.1378 33.8432L41.1005 31.483H39.9426H38.7848V33.8774V36.2719H37.6237H36.4626V37.4356V38.5994L49.2688 38.5645L62.0749 38.5296L62.1145 37.4008L62.1543 36.2719H60.9876H59.821V31.5514V26.8308H58.6617H57.5024L57.4665 31.5172L57.4306 36.2035L56.3051 36.2432L55.1797 36.283L55.144 30.428L55.1084 24.5731L53.9829 24.5335L52.8575 24.4937L52.8218 30.3487ZM10.5087 29.0484C11.8342 29.4508 13.0327 30.1773 14.0441 31.1918C16.6922 33.8479 17.3611 37.6569 15.7712 41.0267L15.3032 42.0187H9.01283H2.72258V36.2153V30.4119L3.42033 29.9818C5.54376 28.6731 8.14447 28.3306 10.5087 29.0484ZM65.5582 45.9815C65.5582 47.3243 65.5052 47.7604 65.2627 48.4092C64.8592 49.4895 63.7278 50.6228 62.6493 51.027L61.8598 51.323H34.1404H6.421L5.63146 51.027C4.55301 50.6228 3.42156 49.4895 3.01804 48.4092C2.77558 47.7604 2.72258 47.3243 2.72258 45.9815V44.3448H34.1404H65.5582V45.9815ZM33.0072 46.757C32.9543 46.81 32.911 47.3356 32.911 47.9251V48.9969H34.1459H35.3808L35.3411 47.8681L35.3015 46.7393L34.2024 46.7C33.5978 46.6784 33.06 46.704 33.0072 46.757ZM46.229 58.3004C47.4689 60.7834 48.4833 62.8769 48.4833 62.9525C48.4833 63.0439 43.6672 63.0902 34.1404 63.0902C24.6136 63.0902 19.7975 63.0439 19.7975 62.9525C19.7975 62.8769 20.8119 60.7834 22.0518 58.3004L24.3061 53.7859H34.1404H43.9747L46.229 58.3004ZM58.2316 65.7769C58.814 66.3605 58.6854 67.1919 57.9518 67.5832C57.5218 67.8125 10.759 67.8125 10.329 67.5832C9.59543 67.1919 9.46675 66.3605 10.0492 65.7769L10.4094 65.4163H34.1404H57.8714L58.2316 65.7769Z" fill="#6A6A6A"/>
</svg>
