<svg width="70" height="70" viewBox="0 0 70 70" fill="none" xmlns="http://www.w3.org/2000/svg">
<path fill-rule="evenodd" clip-rule="evenodd" d="M10.3801 0.198045C5.40067 1.09769 1.3517 5.2227 0.464523 10.3002C-0.237736 14.3189 1.10129 18.3904 4.08423 21.3066L5.18582 22.3834L4.69474 22.8594C4.02381 23.5096 3.40046 24.5131 2.96824 25.6392C2.61266 26.5657 2.60546 26.6584 2.55535 30.9828C2.49861 35.8934 2.60758 36.9363 3.37449 38.821C4.2659 41.0115 6.20174 43.172 8.21916 44.2278L9.29803 44.7925L9.29958 46.3605L9.30113 47.9287L8.48948 48.4655C7.41993 49.1727 5.75441 50.7885 4.97747 51.8728C4.18798 52.9746 3.31054 54.8413 2.91657 56.2574C2.62819 57.2937 2.60786 57.7159 2.55902 63.678L2.50722 70L16.0322 69.9595L29.5573 69.9191L30.5228 69.5923C31.6821 69.2 40.9739 64.9835 41.5068 64.6079C41.8398 64.3734 42.1686 64.3439 44.4548 64.3439C46.0189 64.3439 47.2453 64.2788 47.5821 64.1779C48.2587 63.9752 49.2881 63.0952 49.5291 62.5136L49.7065 62.0853H58.5306C65.0461 62.0853 67.5068 62.0404 67.9358 61.9136C69.1489 61.5552 70.2812 60.0024 70.2812 58.6973C70.2812 57.3922 69.1489 55.8394 67.9358 55.481C67.5421 55.3646 66.1178 55.3093 63.5182 55.3093H59.6816L59.3352 54.9627C59.0517 54.6794 58.9886 54.4757 58.9886 53.8443V53.0724L62.4902 53.0262L65.9917 52.9801L67.0579 52.4528C68.342 51.8179 69.1425 50.9999 69.7639 49.6881L70.2107 48.7451V32.7228V16.7005L69.7639 15.7575C69.1455 14.452 68.3379 13.6221 67.1206 13.041C66.5687 12.7776 66.0059 12.5265 65.8701 12.4829C65.7041 12.4298 65.623 12.2584 65.623 11.961C65.623 11.4049 65.2799 10.0225 64.8897 9.00693C64.3418 7.58073 63.3278 6.03356 62.1647 4.84875C57.3371 -0.0691822 49.5452 -0.136235 44.6441 4.69813C42.7023 6.61346 41.2976 9.43904 41.0286 11.9714L40.991 12.3243L33.0509 12.3607L25.1108 12.3973V11.9205C25.1108 10.9986 24.6729 8.9475 24.2502 7.8889C22.9694 4.68175 20.3179 2.03744 17.1494 0.806893C15.1139 0.016506 12.6243 -0.207383 10.3801 0.198045ZM15.7238 2.71108C17.3257 3.22125 18.5166 3.96435 19.8178 5.26561C21.1077 6.55559 21.8496 7.73813 22.3863 9.35985C22.7163 10.357 22.7601 10.7122 22.7601 12.3949C22.7601 14.0759 22.7161 14.4342 22.3867 15.4329C21.7308 17.4228 20.3728 19.3125 18.7298 20.5221L17.9057 21.1288L17.0971 20.7498L16.2884 20.3708L12.5478 20.3753C9.09109 20.3795 8.74709 20.4025 8.01688 20.678L7.22654 20.9761L6.74646 20.615C3.19423 17.9436 1.70826 13.4556 3.01341 9.34022C3.51254 7.76594 4.25856 6.569 5.56003 5.25361C7.09964 3.69769 8.8651 2.74976 10.9244 2.37355C12.1634 2.14712 14.4604 2.30876 15.7238 2.71108ZM11.9828 8.655L10.2223 13.9496L9.54858 12.6076L8.87498 11.2656H6.82946H4.78409V12.3949V13.5242H6.12452H7.46481L9.01882 16.6299C9.87353 18.338 10.5994 19.7355 10.6318 19.7355C10.6643 19.7355 11.3778 17.671 12.2176 15.1476C13.0573 12.6243 13.7785 10.5598 13.8202 10.5598C13.8619 10.5598 14.2006 11.4809 14.5728 12.6067L15.2497 14.6536H17.9218H20.5937V13.5283V12.4031L18.7341 12.3637L16.8745 12.3243L15.3833 7.84231C14.5631 5.37728 13.8586 3.3603 13.8178 3.3603C13.7768 3.3603 12.9512 5.7429 11.9828 8.655ZM56.3772 3.8404C57.9791 4.35058 59.17 5.09367 60.4712 6.39494C61.7611 7.68491 62.503 8.86746 63.0397 10.4892C63.3697 11.4864 63.4135 11.8415 63.4135 13.5242C63.4135 15.2069 63.3697 15.5621 63.0397 16.5593C62.503 18.181 61.7611 19.3636 60.4712 20.6535C59.1813 21.9435 57.9988 22.6855 56.3772 23.2222C55.3801 23.5522 55.0249 23.596 53.3423 23.596C51.6597 23.596 51.3046 23.5522 50.3074 23.2222C48.6858 22.6855 47.5033 21.9435 46.2134 20.6535C44.9235 19.3636 44.1816 18.181 43.6449 16.5593C43.3149 15.5621 43.2712 15.2069 43.2712 13.5242C43.2712 11.8415 43.3149 11.4864 43.6449 10.4892C44.1795 8.87409 44.92 7.69028 46.2134 6.38294C47.753 4.82701 49.5185 3.87908 51.5779 3.50288C52.8168 3.27645 55.1139 3.43808 56.3772 3.8404ZM46.5668 9.00693V10.1363H47.696H48.8253V9.00693V7.8776H47.696H46.5668V9.00693ZM51.0838 9.00693V10.1363H55.6008H60.1179V9.00693V7.8776H55.6008H51.0838V9.00693ZM46.5668 13.5242V14.6536H47.696H48.8253V13.5242V12.3949H47.696H46.5668V13.5242ZM51.0838 13.5242V14.6536H55.6008H60.1179V13.5242V12.3949H55.6008H51.0838V13.5242ZM41.0286 15.0771C41.2976 17.6094 42.7023 20.435 44.6441 22.3503C51.4792 29.0923 63.0504 25.8117 65.3937 16.4678C65.5199 15.9647 65.623 15.4142 65.623 15.2445C65.623 14.3217 67.4952 15.8197 67.8588 17.0333C67.9777 17.4299 68.0227 20.903 68.0227 29.6688V41.7574H44.7184H21.4142L21.5052 41.0869C21.56 40.6838 21.4245 38.7228 21.1656 36.171C20.9287 33.8362 20.7349 31.8509 20.7349 31.7596C20.7349 31.6443 21.1296 31.5935 22.0242 31.5935C23.7551 31.5935 24.3209 31.4049 25.1862 30.5395C26.6143 29.1113 26.6143 27.2996 25.1862 25.8714C24.307 24.9923 23.7592 24.8175 21.8831 24.8175C20.8329 24.8175 20.4526 24.7706 20.4524 24.641C20.4524 24.5441 20.2657 24.07 20.0376 23.5877L19.6227 22.7107L20.5534 21.9702C22.3701 20.5244 24.0494 17.9207 24.6375 15.6378L24.8916 14.6513L32.9414 14.6877L40.991 14.7241L41.0286 15.0771ZM28.4986 18.0415V19.1709H34.1449H39.7912V18.0415V16.9122H34.1449H28.4986V18.0415ZM46.5668 18.0415V19.1709H47.696H48.8253V18.0415V16.9122H47.696H46.5668V18.0415ZM51.0838 18.0415V19.1709H55.6008H60.1179V18.0415V16.9122H55.6008H51.0838V18.0415ZM28.4986 22.5588V23.6882H34.1449H39.7912V22.5588V21.4295H34.1449H28.4986V22.5588ZM15.9898 22.7305C16.6211 22.9171 18.0529 24.212 18.0529 24.5966C18.0529 24.7783 17.8566 24.8175 16.9488 24.8175C14.7644 24.8175 13.96 25.3881 12.754 27.793L11.9807 29.3348H8.36286H4.74499L4.8167 28.075C4.90196 26.5818 5.39714 25.3593 6.3244 24.3532C6.94874 23.6759 8.23045 22.9214 9.10605 22.7158C9.95582 22.5164 15.3034 22.5278 15.9898 22.7305ZM28.4986 27.0762V28.2055H34.1449H39.7912V27.0762V25.9468H34.1449H28.4986V27.0762ZM23.635 27.4227C23.8535 27.6411 23.9815 27.9305 23.9815 28.2055C23.9815 28.4805 23.8535 28.7699 23.635 28.9882L23.2886 29.3348H18.9045H14.5204L15.0138 28.355C15.2851 27.8161 15.6195 27.3099 15.7567 27.23C15.9096 27.1409 17.4153 27.0831 19.6473 27.0804L23.2886 27.0762L23.635 27.4227ZM42.0497 29.3348V30.4641H53.907H65.7642V29.3348V28.2055H53.907H42.0497V29.3348ZM28.4986 34.9814V39.4987H34.1449H39.7912V34.9814V30.4641H34.1449H28.4986V34.9814ZM7.69307 31.9111C7.3773 32.4053 7.04261 33.6944 7.04261 34.4168C7.04261 35.7724 7.73739 37.3327 8.79918 38.3618L9.30113 38.8482V40.5297C9.30113 42.4608 9.32795 42.4404 8.11019 41.443C6.51426 40.1361 5.39008 38.3384 4.99639 36.4637C4.87302 35.8754 4.78804 34.6899 4.78649 33.5345L4.78409 31.5935H6.34007H7.89605L7.69307 31.9111ZM18.4764 31.7569C18.4764 31.8468 18.6726 33.8627 18.9123 36.2367C19.3787 40.8539 19.3696 41.1603 18.7454 41.954C18.1555 42.704 17.537 42.8867 15.5883 42.8867H13.8182V44.016V45.1454H14.9474H16.0767V45.6889V46.2325L14.8416 46.3209C14.1623 46.3694 13.1458 46.5305 12.5831 46.6787L11.5597 46.9482V42.4224V37.8966L10.5867 36.8931C8.93356 35.1882 8.8507 33.6996 10.3254 32.1934L10.9126 31.5935H14.6945C17.4657 31.5935 18.4764 31.6371 18.4764 31.7569ZM37.5327 34.9814V37.2401H34.1449H30.7571V34.9814V32.7228H34.1449H37.5327V34.9814ZM42.0497 33.8521V34.9814H53.907H65.7642V33.8521V32.7228H53.907H42.0497V33.8521ZM42.0497 38.3694V39.4987H43.179H44.3082V38.3694V37.2401H43.179H42.0497V38.3694ZM46.5668 38.3694V39.4987H56.1655H65.7642V38.3694V37.2401H56.1655H46.5668V38.3694ZM68.0227 45.9407C68.0227 47.0392 67.949 48.1148 67.8511 48.4464C67.622 49.2218 66.4526 50.3912 65.6772 50.6203C65.2333 50.7515 60.4513 50.792 45.3985 50.792H25.7008L24.8765 49.9982C23.3798 48.5569 21.163 47.2806 19.2632 46.7664L18.3352 46.5151V45.7105C18.3352 44.9082 18.3368 44.9052 18.9007 44.6509C19.2117 44.5107 19.537 44.3105 19.6237 44.2061C19.7547 44.0482 23.8644 44.016 43.902 44.016H68.0227V45.9407ZM54.4716 47.404V48.5333H55.6008H56.7301V47.404V46.2747H55.6008H54.4716V47.404ZM58.9886 47.404V48.5333H60.1179H61.2472V47.404V46.2747H60.1179H58.9886V47.404ZM63.5057 47.404V48.5333H64.6349H65.7642V47.404V46.2747H64.6349H63.5057V47.404ZM17.4883 48.6837C21.5488 49.3395 24.9918 52.3513 26.2145 56.3168C26.5291 57.3373 27.29 62.2852 27.1773 62.5786C27.1392 62.6783 26.8174 62.8707 26.4622 63.0064C26.1071 63.142 25.8166 63.3096 25.8166 63.3789C25.8166 63.4842 26.6223 65.1762 26.7321 65.3016C26.7515 65.3237 28.246 64.6713 30.0534 63.852C31.8607 63.0325 33.3582 62.3809 33.3812 62.4039C33.4735 62.4961 34.5593 64.9257 34.5977 65.1257C34.6491 65.3932 30.7025 67.2245 29.4254 67.5258C27.0689 68.0816 24.6664 67.4027 22.9103 65.685C21.7656 64.5654 21.3655 63.7248 20.3282 60.2621C19.8535 58.6771 19.4392 57.3545 19.4077 57.3229C19.2869 57.2022 17.3473 57.8709 17.3488 58.0327C17.3535 58.516 19.1106 63.9916 19.5461 64.8798C19.8441 65.4878 20.4001 66.2831 20.9032 66.8208L21.7553 67.7319H13.2698H4.78409L4.78522 63.1793C4.78635 58.1768 4.86497 57.3826 5.53589 55.5997C6.63382 52.6818 9.03562 50.3065 11.9717 49.2349C13.8333 48.5555 15.6011 48.3789 17.4883 48.6837ZM34.1449 56.2767V59.5028L31.8084 60.5748C30.2817 61.2755 29.4522 61.5884 29.4148 61.478C29.3834 61.3849 29.2247 60.356 29.0621 59.1914C28.7203 56.7414 28.3847 55.392 27.7917 54.0844C27.5595 53.572 27.3693 53.1298 27.3693 53.1018C27.3693 53.0737 28.8938 53.0507 30.7571 53.0507H34.1449V56.2767ZM45.4374 54.2153L45.4371 55.3799H43.1435C41.121 55.3799 40.7396 55.418 39.917 55.7023C38.8269 56.0792 37.9268 56.6231 37.0393 57.4412L36.4034 58.0275V55.539V53.0507H40.9205H45.4375L45.4374 54.2153ZM56.7301 53.846C56.7301 54.2835 56.8073 54.9027 56.9018 55.2223C57.1309 55.9978 58.3002 57.1672 59.0756 57.3963C59.4693 57.5126 60.8936 57.568 63.4931 57.568H67.3298L67.6762 57.9145C67.8947 58.1329 68.0227 58.4223 68.0227 58.6973C68.0227 58.9723 67.8947 59.2617 67.6762 59.48L67.3298 59.8266H58.5715C51.6592 59.8266 49.8134 59.7895 49.8132 59.6502C49.813 59.224 48.9392 57.6857 48.3453 57.0658L47.696 56.3881V54.7194V53.0507H52.2131H56.7301V53.846ZM45.3505 57.7396C45.7166 57.8477 46.1944 58.1743 46.6421 58.6219C47.7113 59.6912 48.0232 61.0651 47.3495 61.7387C47.0158 62.0726 46.9329 62.0853 45.091 62.0853H43.179V61.4751C43.179 60.2308 42.3022 58.6833 41.2904 58.1418C40.5052 57.7214 40.8657 57.6147 43.1626 57.5872C44.0721 57.5763 45.0216 57.6425 45.3505 57.7396ZM40.0782 60.0408C40.8741 60.4524 41.1439 61.5054 40.6575 62.3031C40.4538 62.6372 39.9959 62.9132 38.5956 63.5462C37.6056 63.9937 36.78 64.3404 36.761 64.3165C36.7419 64.2928 36.4394 63.6292 36.0888 62.8421L35.4513 61.4106L37.1624 60.6212C38.9759 59.7847 39.4142 59.6974 40.0782 60.0408Z" fill="#6A6A6A"/>
</svg>
