<svg width="70" height="56" viewBox="0 0 70 56" fill="none" xmlns="http://www.w3.org/2000/svg">
<path fill-rule="evenodd" clip-rule="evenodd" d="M29.3567 1.0135C28.6642 1.23266 27.4832 2.46068 27.2709 3.18237C27.1765 3.50311 27.0993 4.12463 27.0993 4.56368V5.36186H22.8223C20.4034 5.36186 18.1813 5.4276 17.708 5.51331C14.7132 6.05493 11.9882 8.79134 11.4489 11.7986C11.3629 12.2773 11.298 14.5414 11.298 17.0587V21.4781L10.87 21.6562C10.2887 21.8981 9.40922 22.9313 9.20662 23.6103C9.11534 23.9162 9.04071 24.5574 9.04071 25.0354C9.04071 25.6361 8.98625 25.9044 8.86436 25.9046C8.46509 25.9049 6.89484 26.7761 6.29791 27.3287C5.70113 27.8811 4.66713 29.6399 4.66713 30.1028C4.66713 30.2453 4.43914 30.2963 3.80173 30.2963C3.32572 30.2963 2.67504 30.3738 2.35563 30.4686C1.58066 30.6985 0.411927 31.8721 0.182949 32.6503C-0.0609832 33.4797 -0.0609832 47.5138 0.182949 48.3432C0.411927 49.1214 1.58066 50.295 2.35563 50.5249C2.67504 50.6197 3.32572 50.6972 3.80173 50.6972C4.43914 50.6972 4.66713 50.7482 4.66713 50.8907C4.66713 50.9971 4.89005 51.5315 5.16234 52.0782C5.7642 53.2861 6.61084 54.1046 7.88665 54.7115L8.82909 55.1599H17.5762H26.3234L27.2658 54.7115C28.8887 53.9395 29.9814 52.6319 30.5023 50.8389C30.7442 50.0057 31.8819 48.842 32.6885 48.6027C33.4306 48.3825 36.5588 48.3787 37.2846 48.597C38.0351 48.8229 38.9831 49.6915 39.2934 50.4378C40.4036 53.1069 41.0508 53.9106 42.7342 54.7115L43.6766 55.1599H52.4238H61.1709L62.1133 54.7115C63.3892 54.1046 64.2358 53.2861 64.8377 52.0782C65.11 51.5315 65.3329 50.9971 65.3329 50.8907C65.3329 50.7482 65.5609 50.6972 66.1983 50.6972C66.6743 50.6972 67.325 50.6197 67.6444 50.5249C68.4193 50.295 69.5881 49.1214 69.817 48.3432C70.061 47.5138 70.061 33.4797 69.817 32.6503C69.5881 31.8721 68.4193 30.6985 67.6444 30.4686C67.325 30.3738 66.6743 30.2963 66.1983 30.2963C65.6001 30.2963 65.3329 30.2416 65.3327 30.1192C65.3324 29.7183 64.4648 28.1415 63.9146 27.542C63.3645 26.9428 61.6129 25.9044 61.152 25.9044C61.0101 25.9044 60.9593 25.6755 60.9593 25.0354C60.9593 24.5574 60.8847 23.9162 60.7934 23.6103C60.5922 22.9358 59.7125 21.8985 59.1397 21.6603L58.7214 21.4862L58.6723 16.5763C58.6238 11.7095 58.6201 11.6581 58.2636 10.7284C57.7536 9.39912 57.2801 8.64258 56.3886 7.7329C55.5074 6.8337 54.7068 6.32382 53.3577 5.80232C52.4345 5.44545 52.3693 5.44077 47.6622 5.39161L42.9007 5.34175V4.55362C42.9007 3.42293 42.6504 2.73638 41.9553 1.96001C40.9554 0.843205 40.8473 0.826063 34.9396 0.84278C31.6621 0.852131 29.6747 0.912908 29.3567 1.0135ZM40.297 3.4429L40.6433 3.79057V12.51V21.2292H35H29.3567V12.51V3.79057L29.703 3.4429L30.0493 3.0951H35H39.9507L40.297 3.4429ZM27.0993 8.7521V9.8757L23.1137 9.92118C19.2021 9.96595 19.115 9.97332 18.4227 10.3173C17.5235 10.7641 16.6781 11.613 16.2326 12.5163C15.8894 13.2121 15.8825 13.296 15.8399 17.227L15.7966 21.2292H14.6672H13.5379L13.5819 16.5894L13.6259 11.9497L14.0724 11.0033C14.3179 10.4829 14.7781 9.77455 15.0949 9.42943C15.7189 8.74969 16.9999 7.99245 17.8751 7.78617C18.1763 7.71519 20.375 7.65073 22.761 7.6428L27.0993 7.62863V8.7521ZM53.2229 8.22861C54.5064 8.86586 55.3064 9.68657 55.9276 11.0033L56.3741 11.9497L56.4181 16.5894L56.4621 21.2292H55.3346H54.2069L54.1619 17.227L54.1168 13.2247L53.633 12.3286C53.1103 11.3604 52.516 10.7886 51.5111 10.2863C50.9008 9.98125 50.6913 9.96468 46.8862 9.92118L42.9007 9.8757V8.74331V7.61106L47.5289 7.65526L52.1573 7.69947L53.2229 8.22861ZM27.0993 16.6957V21.2292H22.5847H18.07V17.6258C18.07 13.8918 18.1205 13.4986 18.6791 12.888C19.2904 12.2194 19.595 12.1736 23.4665 12.1677L27.0993 12.1622V16.6957ZM50.8884 12.5251C51.1025 12.6858 51.4085 12.9931 51.5685 13.2081C51.8428 13.5766 51.8618 13.8172 51.9012 17.4141L51.943 21.2292H47.4218H42.9007V16.6892V12.1491L46.6999 12.1911C50.2818 12.2306 50.5214 12.2497 50.8884 12.5251ZM58.3556 23.8438C58.64 24.1293 58.702 24.3319 58.702 24.9772V25.7628H35H11.298V24.9772C11.298 24.3319 11.36 24.1293 11.6444 23.8438L11.9906 23.496H35H58.0094L58.3556 23.8438ZM60.8724 28.2018C61.6474 28.4317 62.8161 29.6054 63.0451 30.3836C63.2908 31.2187 63.2908 49.7748 63.0451 50.6099C62.8161 51.3881 61.6474 52.5618 60.8724 52.7917C60.0445 53.0373 44.803 53.0373 43.9751 52.7917C43.1686 52.5524 42.0309 51.3887 41.7889 50.5555C41.268 48.7625 40.1754 47.4549 38.5525 46.6829L37.61 46.2345H35H32.39L31.4475 46.6829C29.7641 47.4838 29.117 48.2875 28.0068 50.9566C27.6964 51.7029 26.7485 52.5715 25.9979 52.7974C25.199 53.0378 9.93969 53.0325 9.12762 52.7917C8.35265 52.5618 7.18392 51.3881 6.95494 50.6099C6.70917 49.7748 6.70917 31.2187 6.95494 30.3836C7.16727 29.6619 8.34827 28.4339 9.04071 28.2147C9.78676 27.9787 60.0778 27.9661 60.8724 28.2018ZM24.842 34.3727V37.3156L26.0488 40.3583C26.7255 42.0641 27.3832 43.51 27.5459 43.649C27.7832 43.8517 28.113 43.8969 29.3567 43.8969C30.6003 43.8969 30.9302 43.8517 31.1675 43.649C31.3301 43.51 31.9879 42.0641 32.6645 40.3583L33.8713 37.3156V34.3727V31.4297H32.7427H31.614V34.1552V36.8807L30.6713 39.2554C29.7853 41.487 29.706 41.6301 29.3567 41.6301C29.0074 41.6301 28.9281 41.487 28.0421 39.2554L27.0993 36.8807V34.1552V31.4297H25.9707H24.842V34.3727ZM36.475 31.7775L36.1287 32.1252V38.0111V43.8969H37.2573H38.386V41.0634V38.23H39.2878H40.1897L40.9739 39.0806C41.9447 40.1335 42.5726 41.4254 42.7946 42.8258L42.9643 43.8969H44.0807H45.1969L45.0997 42.9441C45.0462 42.4201 44.8507 41.5373 44.6653 40.9824C44.3346 39.9934 43.4579 38.3299 43.1746 38.154C43.0958 38.1052 43.281 37.8834 43.5863 37.6613C45.4736 36.2885 45.6945 34.0839 44.1047 32.4874C43.1344 31.5131 42.7734 31.4297 39.5272 31.4297C36.8424 31.4297 36.8186 31.4324 36.475 31.7775ZM4.52605 40.4967V48.4304H3.74375C3.10111 48.4304 2.89936 48.3682 2.61508 48.0826L2.26872 47.735V40.4967V33.2585L2.61508 32.9109C2.89936 32.6253 3.10111 32.5631 3.74375 32.5631H4.52605V40.4967ZM67.3849 32.9109L67.7313 33.2585V40.4967V47.735L67.3849 48.0826C67.1006 48.3682 66.8989 48.4304 66.2563 48.4304H65.4739V40.4967V32.5631H66.2563C66.8989 32.5631 67.1006 32.6253 67.3849 32.9109ZM42.5543 34.0443C42.7727 34.2634 42.9007 34.5538 42.9007 34.8298C42.9007 35.1058 42.7727 35.3962 42.5543 35.6154C42.2208 35.9505 42.138 35.9632 40.297 35.9632H38.386V34.8298V33.6964H40.297C42.138 33.6964 42.2208 33.7092 42.5543 34.0443Z" fill="#6A6A6A"/>
</svg>
