<svg width="70" height="70" viewBox="0 0 70 70" fill="none" xmlns="http://www.w3.org/2000/svg">
<path fill-rule="evenodd" clip-rule="evenodd" d="M30.9589 0.0632712C25.8056 0.369091 21.871 0.896753 17.8837 1.81654C8.40027 4.00433 2.04315 7.8666 0.359452 12.4637L0 13.4452V35.8073V58.1693L0.359452 59.1508C1.28247 61.6709 3.6063 64.0082 7.19986 66.0308C7.87082 66.4085 8.45178 66.7175 8.49082 66.7175C8.52973 66.7175 8.56164 62.7874 8.56164 57.9839V49.2502L10.0084 48.6139C11.7114 47.865 14.5173 46.9017 16.4278 46.4103C18.1603 45.9646 22.2108 45.1528 23.3052 45.0321C24.5025 44.8999 24.509 44.8921 24.3673 43.7892L24.2466 42.851L23.7671 42.8925C23.5034 42.9154 22.363 43.0907 21.2329 43.2822C20.1027 43.4738 19.1164 43.6397 19.0411 43.6511C18.9586 43.6634 18.9041 43.1929 18.9041 42.4679V41.264L19.7133 40.9356C21.1314 40.3602 22.1319 39.3351 22.6658 37.9107C22.9473 37.1591 22.9558 36.9553 22.9168 31.854L22.8767 26.5752L22.4768 25.762C21.7007 24.1838 20.0812 23.048 18.3496 22.8672C16.8184 22.7075 15.0462 23.4016 14.0274 24.5602C13.5625 25.0888 12.8085 26.5637 12.8084 26.9449C12.8082 27.1426 12.7092 27.1661 12.153 27.1003C11.3392 27.0041 9.91849 27.348 9.21521 27.8115C8.93438 27.9965 8.67233 28.1481 8.63301 28.1481C8.59384 28.1481 8.56164 26.7968 8.56164 25.1451V22.1422L7.56849 21.5717C3.46945 19.2169 1.47986 16.2649 2.19069 13.5922C2.51644 12.3679 3.04452 11.5107 4.17808 10.367C10.6319 3.85511 28.6099 0.530344 45.5479 2.71608C52.6652 3.6345 59.4666 5.78987 63.2877 8.33778L64.3836 9.06854L58.4589 9.10424L52.5342 9.1398V16.6608V24.1817H50.274H48.0137V33.6366V43.0914L47.0205 42.9939C46.4742 42.9401 45.9673 42.8861 45.8938 42.8737C45.8203 42.8612 45.7044 43.2732 45.6362 43.7892C45.4904 44.8924 45.4964 44.8995 46.6948 45.0326C48.0452 45.1825 52.0392 46.0061 54.0286 46.545C56.17 47.1249 58.296 47.8646 60.1329 48.6689L61.4384 49.2406V57.9791C61.4384 62.7852 61.4785 66.7175 61.5277 66.7175C61.6758 66.7175 63.7666 65.4901 64.863 64.7593C66.21 63.8619 68.2495 61.8145 68.8845 60.7224C69.1616 60.2459 69.526 59.4766 69.6941 59.0128L70 58.1693V35.8073V13.4452L69.6405 12.4637C67.2396 5.90831 55.5338 1.06361 39.7945 0.111278C37.7522 -0.0122264 32.6944 -0.0397173 30.9589 0.0632712ZM40.2055 5.37573V6.40151H41.2329H42.2603V5.37573V4.34995H41.2329H40.2055V5.37573ZM35.0667 6.95037L34.3904 7.63601L35.1044 8.34886L35.8184 9.0617L36.5051 8.38647C36.8827 8.015 37.1918 7.64955 37.1918 7.57432C37.1918 7.38845 36.0758 6.26474 35.891 6.26474C35.8097 6.26474 35.4388 6.5733 35.0667 6.95037ZM45.7134 6.85121C45.3964 7.17372 45.137 7.49923 45.137 7.57432C45.137 7.64955 45.446 8.015 45.8237 8.38647L46.5104 9.0617L47.2244 8.34886L47.9384 7.63601L47.2621 6.95037C46.89 6.5733 46.519 6.26474 46.4378 6.26474C46.3564 6.26474 46.0305 6.52871 45.7134 6.85121ZM39.9137 8.65837C38.4864 9.11682 37.2594 10.335 36.9047 11.6457C36.6737 12.4988 36.8129 14.1503 37.1751 14.8533C37.6347 15.7456 38.3653 16.4733 39.2245 16.8946C39.8878 17.2198 40.1684 17.2748 41.1644 17.2748C42.1604 17.2748 42.441 17.2198 43.1042 16.8946C45.3016 15.8171 46.2199 13.1588 45.1464 10.9818C44.4167 9.50183 43.0948 8.61788 41.4538 8.51271C40.8749 8.4755 40.319 8.52816 39.9137 8.65837ZM22.1108 9.12271C21.6896 9.25729 21.0423 9.5761 20.6725 9.83104C20.0347 10.2709 19.9366 10.2954 18.7671 10.3059C18.0482 10.3123 17.3811 10.3919 17.1668 10.4968C16.8545 10.6499 16.6652 10.6406 15.9036 10.4347C13.7725 9.85867 11.7133 10.7939 10.7325 12.7832C10.3697 13.5188 10.2884 13.8479 10.2855 14.5897C10.2784 16.3854 11.2022 17.896 12.7804 18.6699L13.5616 19.0528H19.2466H24.9315L25.7089 18.689C26.7969 18.1798 27.6571 17.3391 28.1849 16.2693C28.7821 15.0588 28.8786 13.4518 28.4264 12.2482C27.4636 9.68552 24.6726 8.30441 22.1108 9.12271ZM42.5095 10.9508C43.5525 11.6398 43.8586 13.1539 43.1663 14.1984C42.4966 15.209 41.2612 15.547 40.1234 15.0311C39.3325 14.6723 38.931 14.053 38.8607 13.0833C38.8125 12.4172 38.8592 12.1981 39.1584 11.6885C39.8512 10.5081 41.3425 10.1797 42.5095 10.9508ZM25.2127 11.3906C25.6185 11.6281 25.9633 11.987 26.2399 12.4599C26.6163 13.1033 26.6522 13.2662 26.6136 14.1546C26.5586 15.4209 26.1049 16.1386 25.0088 16.6935L24.2659 17.0696H19.2166C14.4614 17.0696 14.1363 17.0539 13.6377 16.7999C11.8395 15.884 11.8942 13.3391 13.7297 12.5284C14.5171 12.1806 15.3771 12.2702 16.1497 12.7806C16.6256 13.0952 16.7268 13.1167 16.9762 12.9568C18.1745 12.1882 18.8088 12.1136 19.8864 12.6146L20.5948 12.9439L20.9722 12.4004C21.9712 10.9609 23.7531 10.5366 25.2127 11.3906ZM67.0534 11.8238C67.674 12.8007 67.9412 13.7246 67.9284 14.8485C67.9186 15.7062 67.8475 15.9816 67.4069 16.8721C66.5712 18.5603 64.9289 20.1139 62.4315 21.5788L61.4384 22.1614V23.1715V24.1817H58.0137H54.589V17.6851V11.1885H60.6195H66.6499L67.0534 11.8238ZM32.6256 11.9636C32.5753 12.0136 32.5342 12.4752 32.5342 12.9894V13.9239H33.5616H34.589V12.8981V11.8723H33.653C33.1381 11.8723 32.6758 11.9134 32.6256 11.9636ZM47.7397 12.8981V13.9239H48.7671H49.7945V12.8981V11.8723H48.7671H47.7397V12.8981ZM57.1918 14.9497V15.9755H58.2192H59.2466V14.9497V13.9239H58.2192H57.1918V14.9497ZM61.3014 14.9497V15.9755H62.3288H63.3562V14.9497V13.9239H62.3288H61.3014V14.9497ZM35.0975 17.4504C34.7426 17.8104 34.4521 18.1665 34.4521 18.242C34.4521 18.3175 34.7603 18.6823 35.137 19.0528L35.8219 19.7264L36.5068 19.0528C36.8836 18.6823 37.1918 18.313 37.1918 18.2322C37.1918 18.089 35.9496 16.7961 35.8121 16.7961C35.7741 16.7961 35.4526 17.0906 35.0975 17.4504ZM45.7844 17.4486C45.4284 17.8096 45.137 18.1665 45.137 18.242C45.137 18.3175 45.446 18.6831 45.8237 19.0546L46.5104 19.7298L47.2263 19.0152L47.9421 18.3004L47.1868 17.5464L46.4316 16.7924L45.7844 17.4486ZM40.2055 20.4145V21.4463H41.2389H42.2723L42.2321 20.4547L42.1918 19.4631L41.1986 19.4229L40.2055 19.3827V20.4145ZM57.1918 20.4205V21.4463H58.2192H59.2466V20.4205V19.3948H58.2192H57.1918V20.4205ZM5.34973 22.6176L6.50685 23.3863V43.2817V63.1769L6.07452 62.9299C5.35137 62.5166 3.1689 60.2651 2.77589 59.5268C1.94904 57.974 1.9863 58.965 1.9863 38.4997V19.7766L3.08945 20.8128C3.69616 21.3826 4.71329 22.1949 5.34973 22.6176ZM67.8695 57.789C67.6542 58.8311 67.0281 59.9843 66.1526 60.9501C65.4981 61.6723 64.273 62.7194 63.6644 63.0769C63.5277 63.1573 63.4931 59.1609 63.4931 43.2819V23.3863L64.6918 22.5905C65.3511 22.1529 66.3527 21.3526 66.9178 20.8121L67.9452 19.8293L67.981 38.4523C68.0058 51.3407 67.9714 57.2949 67.8695 57.789ZM18.8522 25.0766C19.5567 25.3247 20.26 25.9585 20.6333 26.6818C20.8856 27.1709 20.8979 27.4693 20.861 32.2313L20.8219 37.2637L20.444 37.8337C19.8907 38.6682 19.1156 39.1304 18.1529 39.1999C16.7866 39.2986 15.7348 38.7242 15.0947 37.5299C14.8019 36.9838 14.7945 36.8493 14.7945 32.1144C14.7945 27.293 14.7967 27.2546 15.1167 26.6057C15.4715 25.8864 16.0941 25.342 16.8833 25.0608C17.5674 24.817 18.1279 24.8214 18.8522 25.0766ZM33.2192 25.3439C29.7671 26.0379 26.9568 28.7048 26.0129 32.1828C25.7305 33.2228 25.5882 39.097 25.8003 40.9611C26.0748 43.3759 26.8855 45.0591 28.5959 46.7655L29.6575 47.8246V49.7486C29.6575 50.8069 29.6363 51.6727 29.6103 51.6727C29.5844 51.6727 27.709 52.0686 25.443 52.5527C20.7711 53.5504 20.2044 53.7612 18.8884 54.9902C17.8495 55.9606 17.1504 57.264 16.9266 58.648C16.8445 59.1561 16.7825 61.7787 16.7819 64.7685L16.7808 70H17.8H18.819L18.8616 64.3582L18.9041 58.7164L19.2993 57.862C19.7463 56.8958 20.6041 56.0236 21.4941 55.6306C21.8149 55.4889 24.1066 54.9404 26.5866 54.4119L31.0959 53.4509L35 53.4513L38.9041 53.4517L43.4003 54.4066C45.873 54.9317 48.1647 55.4798 48.4927 55.6248C49.3951 56.0234 50.2515 56.8911 50.7007 57.862L51.0959 58.7164L51.1384 64.3582L51.181 70H52.2H53.2192L53.2181 64.7685C53.2175 61.7787 53.1555 59.1561 53.0734 58.648C52.8496 57.264 52.1505 55.9606 51.1116 54.9902C50.6258 54.5364 49.8775 53.9996 49.4488 53.797C48.7832 53.4826 46.3292 52.9014 40.7192 51.7296L40.3425 51.6509V49.7333V47.8158L41.3438 46.8378C43.0334 45.1877 43.9292 43.3412 44.2015 40.9462C44.4118 39.0967 44.2679 33.2175 43.9871 32.1828C42.6847 27.3842 37.9688 24.3891 33.2192 25.3439ZM61.4384 36.5595C61.4384 42.6831 61.3875 46.8857 61.3136 46.8857C61.2448 46.8857 60.6967 46.6755 60.0955 46.4185C57.8595 45.463 54.4066 44.408 51.5781 43.816L50.137 43.5144L50.1018 34.8739L50.0664 26.2333H55.7525H61.4384V36.5595ZM37.2493 27.5949C39.4569 28.3598 41.0441 29.9485 41.8189 32.1689C42.1011 32.9775 42.1589 33.4038 42.1644 34.7131C42.1749 37.2052 41.5518 38.8248 40.0189 40.2898C38.51 41.7318 36.9664 42.3723 35 42.3723C31.7804 42.3723 28.9978 40.2578 28.0704 37.1066C27.7095 35.8798 27.7479 33.4285 28.1468 32.2512C29.0144 29.6902 31.0304 27.9001 33.6986 27.3214C34.5329 27.1405 36.34 27.2796 37.2493 27.5949ZM12.3523 29.1889C12.6475 29.268 12.6501 29.2989 12.6992 33.2559C12.7451 36.9504 12.7703 37.2967 13.0423 37.9695C13.2038 38.3688 13.5044 38.9159 13.71 39.1852C14.1579 39.7716 14.0818 39.9636 13.2199 40.4185C11.7449 41.1974 9.90452 40.5788 9.06274 39.0214C8.78192 38.5018 8.76712 38.2995 8.76712 34.9866C8.76712 31.6011 8.77658 31.4798 9.08931 30.8456C9.6874 29.633 11.1803 28.875 12.3523 29.1889ZM52.8082 30.1313V31.1571H53.8356H54.863V30.1313V29.1055H53.8356H52.8082V30.1313ZM56.9178 30.1313V31.1571H57.9452H58.9726V30.1313V29.1055H57.9452H56.9178V30.1313ZM52.8082 35.6021V36.6279H53.8356H54.863V35.6021V34.5763H53.8356H52.8082V35.6021ZM56.9178 35.6021V36.6279H57.9452H58.9726V35.6021V34.5763H57.9452H56.9178V35.6021ZM52.8082 41.0729V42.0987H53.8356H54.863V41.0729V40.0472H53.8356H52.8082V41.0729ZM56.9178 41.0729V42.0987H57.9452H58.9726V41.0729V40.0472H57.9452H56.9178V41.0729ZM16.7505 42.7031C16.7132 44.1631 16.7047 44.1987 16.3699 44.299C15.5551 44.5432 12.98 45.2445 12.8981 45.2445C12.8486 45.2445 12.8082 44.6886 12.8082 44.0093C12.8082 42.9535 12.843 42.7627 13.0479 42.6964C13.7999 42.453 14.9916 41.7792 15.3822 41.3766C15.806 40.9395 15.8611 40.9209 16.3108 41.0609L16.7889 41.2097L16.7505 42.7031ZM30.2108 43.1167C30.6499 43.3737 31.46 43.7545 32.0114 43.9629C32.9385 44.3136 33.1627 44.3422 35 44.3429C36.8888 44.3435 37.0408 44.3229 38.097 43.9217C39.4297 43.4154 40.504 42.75 41.4345 41.8545C41.8133 41.49 42.1233 41.2354 42.1233 41.2889C42.1233 41.6016 41.5212 43.2233 41.1988 43.7791C40.6642 44.7008 39.3555 45.9689 38.4319 46.4605C36.3207 47.5841 33.6764 47.5824 31.5605 46.4565C30.6042 45.9476 29.1386 44.4684 28.6645 43.5336C28.3686 42.9504 27.8767 41.5445 27.8767 41.2823C27.8767 41.2368 28.2223 41.5258 28.6447 41.9246C29.067 42.3234 29.7718 42.8599 30.2108 43.1167ZM10.2018 42.5402L10.761 42.7142L10.7229 44.398L10.6849 46.0816L9.73 46.4837C9.20479 46.7048 8.72699 46.8857 8.66836 46.8857C8.60959 46.8857 8.56164 45.7155 8.56164 44.2853V41.685L9.10205 42.0256C9.39931 42.2129 9.89425 42.4445 10.2018 42.5402ZM35.411 49.3033C36.321 49.2659 37.227 49.1505 37.5562 49.03C37.8695 48.9153 38.1623 48.8577 38.2068 48.9021C38.2512 48.9466 38.2877 49.5265 38.2877 50.1911V51.3992H35H31.7123V50.1911C31.7123 49.5265 31.7426 48.9526 31.7797 48.9157C31.8167 48.8786 32.2945 48.9653 32.8414 49.1081C33.6375 49.3161 34.1493 49.355 35.411 49.3033ZM23.6301 65.8969V70H24.6575H25.6849V65.8969V61.7937H24.6575H23.6301V65.8969ZM44.3151 65.8969V70H45.3425H46.3699V65.8969V61.7937H45.3425H44.3151V65.8969Z" fill="#6A6A6A"/>
</svg>
