<svg width="66" height="71" viewBox="0 0 66 71" fill="none" xmlns="http://www.w3.org/2000/svg">
<path fill-rule="evenodd" clip-rule="evenodd" d="M14.9059 0.131947C12.6174 0.427865 9.64106 1.65084 7.7191 3.08496C5.49229 4.74654 3.46319 7.33983 2.48549 9.77332C1.50711 12.2087 1.22076 14.2284 1.21364 18.7416C1.21021 20.9729 1.18651 21.1946 0.871254 21.9596C0.412685 23.0724 0.401587 24.4217 0.843441 25.3762L1.15719 26.0541L0.826041 26.8733C0.3735 27.9933 0.434195 29.658 0.970311 30.8243C1.72249 32.461 3.41894 33.6465 5.18978 33.7732C6.11829 33.8396 6.1435 33.8511 6.1435 34.2118C6.1435 35.476 7.21518 38.2714 8.34687 39.9593C12.2148 45.7278 19.5985 47.8184 25.8172 44.9058C26.4715 44.5993 27.0291 44.3486 27.0563 44.3486C27.2207 44.3486 27.0524 45.0076 26.7317 45.6198C26.4058 46.2422 26.3573 46.4929 26.3549 47.5666C26.3529 48.536 26.4118 48.9179 26.6311 49.3562L26.9099 49.9136L26.6314 50.5202C26.4104 51.0015 26.3527 51.41 26.3526 52.4963C26.3523 53.6932 26.3982 53.9636 26.7168 54.6428C27.485 56.2806 29.0051 57.3767 30.8754 57.6414C31.3927 57.7146 31.8257 57.7886 31.8373 57.8057C31.8491 57.8228 31.9567 58.3367 32.0766 58.9477C33.0781 64.056 37.0751 68.2573 42.2454 69.6365C43.4502 69.9579 43.8715 70.002 45.7391 70.002C47.5839 70.002 48.0338 69.9561 49.1658 69.6527C53.1473 68.5851 56.3748 65.9416 58.2418 62.2187C58.7817 61.1421 59.3642 59.3979 59.5107 58.4188C59.5643 58.061 59.6473 57.7671 59.6954 57.7656C59.7433 57.7641 60.2072 57.7015 60.7264 57.6266C62.5042 57.3697 64.007 56.2576 64.7585 54.6428C65.2655 53.5536 65.3334 52.0103 64.9276 50.8061L64.6355 49.9394L64.9149 49.1929C65.3166 48.1198 65.2914 46.8222 64.8505 45.8756C64.5267 45.1804 64.5092 45.0163 64.5071 42.6576C64.5029 37.6975 64.1262 35.5 62.8138 32.7776C60.4522 27.8783 55.7617 24.5576 50.3516 23.9546C47.8349 23.6742 41.5173 23.7954 39.8299 24.1565C39.4742 24.2326 39.4687 24.2221 39.4135 23.3545C39.3749 22.7491 39.2418 22.2525 38.9861 21.7598L38.6146 21.0442V17.5802C38.6146 13.9462 38.502 12.8922 37.9077 10.9637C36.1652 5.30907 30.8289 0.867839 24.8821 0.122498C23.5601 -0.0431941 16.2068 -0.0362104 14.9059 0.131947ZM16.0081 4.49841V6.80838L16.3692 7.09211C16.7825 7.4172 16.9553 7.43788 17.4334 7.22015C17.9512 6.98448 18.0633 6.43564 18.0633 4.13759V2.03549H19.9814H21.8995V8.74534V15.4552H19.9814H18.0633V12.915C18.0633 9.81029 17.9349 9.43002 16.8875 9.43002C16.7052 9.43002 16.4329 9.55326 16.2822 9.70389C16.0265 9.95941 16.0081 10.1603 16.0081 12.7089V15.4401L11.9321 15.4831C7.24053 15.5326 7.16229 15.5498 5.79631 16.841C5.09675 17.5022 4.36238 18.7167 4.36238 19.2124C4.36238 19.3301 4.3084 19.4263 4.2425 19.4263C4.1766 19.4263 3.92998 19.4648 3.69446 19.5119L3.26631 19.5975L3.2685 17.9714C3.27151 15.6487 3.48991 13.3584 3.82147 12.1687C5.24677 7.05637 9.53666 3.16288 14.7394 2.25979C15.3242 2.15832 15.8489 2.10067 15.9054 2.13189C15.9618 2.16311 16.0081 3.22806 16.0081 4.49841ZM26.6891 2.59487C30.345 3.58601 33.6456 6.42483 35.3335 10.0299C36.3033 12.1014 36.4578 12.9354 36.5258 16.4674L36.5861 19.6021L36.2645 19.5162C36.0876 19.4688 35.8659 19.4292 35.7717 19.4282C35.6776 19.4271 35.5999 19.3494 35.5991 19.2552C35.5962 18.8765 34.8688 17.5459 34.3935 17.0497C33.7197 16.3461 33.056 15.9347 32.1714 15.6721C31.5822 15.4972 30.7141 15.4552 27.6975 15.4552H23.9547V8.83667C23.9547 5.19638 23.9863 2.18639 24.0249 2.14778C24.1285 2.04425 25.5189 2.27759 26.6891 2.59487ZM31.9697 17.7689C32.2711 17.9083 32.6841 18.1997 32.8872 18.4163C33.6313 19.2093 33.6823 19.523 33.6823 23.3043V26.7805L32.8622 27.4245C32.411 27.7787 31.6573 28.4979 31.1872 29.0226L30.3326 29.9767L19.3684 29.9393L8.40414 29.9019L7.79363 29.5596C7.45796 29.3713 6.99555 28.9502 6.76606 28.6237L6.34901 28.0303L6.30613 24.0364C6.25899 19.6542 6.30229 19.3121 7.00487 18.5124C7.93311 17.4558 7.15997 17.5152 19.9814 17.5152C30.8281 17.5152 31.4501 17.5284 31.9697 17.7689ZM4.22537 23.6713C4.22537 25.2373 4.18016 25.8623 4.06699 25.8623C3.75968 25.8623 2.96078 25.1357 2.77225 24.6847C2.47988 23.9853 2.53002 23.1032 2.89282 22.5652C3.14752 22.1874 3.98465 21.4804 4.17714 21.4804C4.20372 21.4804 4.22537 22.4663 4.22537 23.6713ZM36.7821 22.1863C37.2278 22.6779 37.3815 23.054 37.3815 23.6534C37.3815 24.6618 37.0742 25.0578 36.0457 25.3749L35.7374 25.47V23.4717V21.4734L36.1142 21.6692C36.3214 21.777 36.622 22.0096 36.7821 22.1863ZM47.6572 32.5721V39.282H45.7391H43.821V32.5721V25.8623H45.7391H47.6572V32.5721ZM41.7658 32.6313V39.2635L37.7583 39.3069L33.7508 39.3505L32.9733 39.7147C31.9193 40.2086 31.0334 41.0594 30.5348 42.0566C30.3067 42.5129 30.1201 42.9583 30.1201 43.0466C30.1201 43.135 29.8985 43.2752 29.6278 43.3582L29.1357 43.5092L29.1933 40.3344C29.2472 37.3731 29.2758 37.0786 29.6178 35.9567C30.7398 32.2765 32.8961 29.5286 36.0891 27.71C37.6997 26.7926 40.0094 26.0422 41.3205 26.0101L41.7658 25.9992V32.6313ZM51.9864 26.3416C57.1097 27.6405 61.0849 31.8293 62.1229 37.0226C62.2283 37.5498 62.3555 39.1981 62.406 40.6856C62.4939 43.2875 62.4875 43.3899 62.2361 43.3882C61.7749 43.3849 61.3581 43.226 61.3581 43.0536C61.3581 42.9615 61.1715 42.5129 60.9434 42.0566C60.4448 41.0594 59.5589 40.2086 58.5049 39.7147L57.7274 39.3505L53.7199 39.3069L49.7123 39.2635V32.6313V25.9992H50.1743C50.4284 25.9992 51.2438 26.1533 51.9864 26.3416ZM4.36375 28.2436C4.36676 28.5833 5.05195 29.8377 5.51367 30.3484C5.85824 30.7295 6.00649 31.0226 6.00649 31.3221C6.00649 31.7285 5.97922 31.7505 5.47407 31.7505C5.15799 31.7505 4.64311 31.5951 4.20674 31.3681C3.19314 30.8405 2.58126 29.844 2.58126 28.721C2.58126 27.5216 2.59209 27.5114 3.54526 27.8238C3.99465 27.9711 4.36293 28.1599 4.36375 28.2436ZM18.9621 32.0244H29.0062L28.4576 33.1944C27.5416 35.1482 27.2211 36.6423 27.1224 39.4189L27.0374 41.8153L26.2838 42.3233C25.3828 42.9308 23.8335 43.574 22.5161 43.8873C21.2337 44.1924 18.5908 44.1933 17.3332 43.8892C13.6865 43.0071 10.7414 40.596 9.17043 37.2066C8.50813 35.7775 8.21151 34.6263 8.103 33.0642L8.01833 31.8446L8.46813 31.9344C8.71557 31.984 13.4379 32.0244 18.9621 32.0244ZM15.3854 33.3191C14.8316 33.8725 14.995 34.4209 15.9396 35.1816C16.9649 36.0072 18.129 36.445 19.4863 36.5154C21.3785 36.6135 22.5759 36.2642 23.9817 35.2035C24.7411 34.6304 24.987 34.1521 24.7895 33.6327C24.506 32.8874 23.6527 32.7754 22.9509 33.3913C22.1305 34.1112 21.132 34.4864 20.0329 34.4879C18.8375 34.4895 18.0922 34.2398 17.169 33.5278C16.3438 32.8915 15.8688 32.8359 15.3854 33.3191ZM57.3955 41.4923C58.1115 41.7067 58.8114 42.3158 59.1536 43.0224C59.4237 43.5799 59.44 43.837 59.44 47.5458C59.44 51.8242 59.4013 52.0838 58.6449 52.8901C58.0687 53.5043 57.3092 53.7907 56.2484 53.7942C55.4447 53.7968 55.2712 53.8432 54.981 54.1334C54.5474 54.5666 54.5525 55.0868 54.9947 55.5289C55.3244 55.8583 55.4123 55.8759 56.5018 55.8307L57.6589 55.7828V56.4181C57.6589 56.7675 57.5612 57.5685 57.4417 58.1983C56.4056 63.6601 51.8498 67.6856 46.3556 67.9936C42.9219 68.1861 39.9474 67.0376 37.4354 64.549C35.1746 62.3094 34.0865 59.9912 33.867 56.9467L33.7831 55.7828L42.8216 55.8199C51.815 55.8567 51.8622 55.8555 52.225 55.5702C52.7278 55.1749 52.7296 54.4749 52.2285 54.0811C51.8719 53.8006 51.7604 53.7972 43.0832 53.7942C33.2417 53.7907 33.6752 53.8328 32.7626 52.794C32.0578 51.9917 32.0148 51.6525 32.0629 47.2823L32.1067 43.3009L32.4832 42.7326C32.8998 42.1037 33.292 41.805 34.0603 41.5309C34.7507 41.2847 56.5814 41.2485 57.3955 41.4923ZM29.9831 47.6386V49.833L29.6063 49.6372C28.8142 49.2253 28.3389 48.4763 28.3389 47.6397C28.3389 46.8903 28.6182 46.2639 29.1529 45.8142C29.9559 45.139 29.9831 45.1986 29.9831 47.6386ZM62.3116 45.8027C62.8925 46.2913 63.1392 46.8177 63.1392 47.5688C63.1392 48.4768 62.6885 49.2126 61.8719 49.6372L61.4951 49.833V47.6386C61.4951 45.2049 61.5239 45.1402 62.3116 45.8027ZM29.5378 51.7808C29.8581 51.8667 30.1201 52.0011 30.1202 52.0796C30.1205 52.4177 30.9436 53.8995 31.3359 54.2678C31.6707 54.5824 31.7642 54.7842 31.7642 55.1938V55.7176L31.1819 55.6329C29.4375 55.3795 28.3389 54.1524 28.3389 52.4574C28.3389 51.7117 28.4586 51.4333 28.7334 51.5391C28.8556 51.5862 29.2175 51.6949 29.5378 51.7808ZM63.0846 51.8179C63.3782 52.9872 62.8145 54.423 61.7976 55.0955C61.3023 55.423 60.0388 55.7618 59.819 55.6261C59.564 55.4686 59.7235 54.6578 60.073 54.3345C60.5603 53.8837 61.0267 53.1306 61.2222 52.4784C61.3688 51.9892 61.4517 51.9168 62.0904 51.7193C63.0341 51.4278 62.9854 51.423 63.0846 51.8179ZM41.3862 56.9014C41.0904 57.0204 40.7946 57.7404 40.8881 58.1133C40.9698 58.4385 41.6687 59.09 42.4509 59.5698C43.9215 60.4723 46.1298 60.6964 47.8286 60.1159C48.9077 59.7473 50.3459 58.743 50.5451 58.2194C50.7958 57.5603 50.2948 56.8098 49.6041 56.8098C49.4592 56.8098 49.0524 57.0298 48.7 57.2988C47.6456 58.1034 46.9067 58.371 45.7391 58.371C44.5715 58.371 43.8326 58.1034 42.7782 57.2988C42.1788 56.8413 41.8027 56.7339 41.3862 56.9014Z" fill="#6A6A6A"/>
</svg>
