<svg width="160" height="160" fill="none" xmlns="http://www.w3.org/2000/svg"><path fill-rule="evenodd" clip-rule="evenodd" d="M5.177.372C3.445.993 1.942 2.26.964 3.925L.097 5.399l-.08 73.892c-.054 48.794.025 74.288.233 75.059.463 1.719 1.963 3.604 3.664 4.603l1.499.881 38.538.083L82.49 160v-5.324H44.498c-37.574 0-37.998-.007-38.616-.625-.622-.622-.626-1.042-.626-74.092s.004-73.47.626-74.091c.618-.619 1.042-.625 40.458-.625 38.751 0 39.853.016 40.57.597l.739.598.084 25.193.083 25.194h4.992V46.51l2.736-.002c1.505-.001 3.267-.149 3.915-.329 1.655-.46 3.302-2.195 3.549-3.741l.199-1.243h15.554v10.317H113.446v3.601c0 3.566-.008 3.606-.804 3.968-.716.327-1.169.185-4.117-1.281l-3.314-1.648-3.88 3.88-3.88 3.88 1.647 3.313c1.467 2.948 1.608 3.4 1.282 4.116-.363.795-.403.804-3.97.804h-3.602V82.46h-7.897c-4.344 0-8.38.138-8.97.308-1.417.406-3.076 2.05-3.459 3.43-.169.61-.308 4.66-.31 9.002v7.893H56.85V82.46H72.17v-5.002H43.238c-32.008 0-30.27-.111-31.921 2.053l-.902 1.181v30.248c0 30.062.005 30.252.645 31.111a8.944 8.944 0 0 0 1.508 1.507c.86.642 1.05.646 43.132.801l42.268.157.086 5.08.086 5.08H87.805v5.314h51.619l-.091-2.579-.091-2.579-5.081-.086-5.081-.086v-10.301h13.712c13.705 0 13.712 0 14.746-.703.568-.387 1.328-1.101 1.687-1.586.651-.878.655-1.038.738-28.105.083-27.048.079-27.231-.57-28.57-1.052-2.174-2.311-2.75-6.314-2.888l-3.362-.116V72.144h-3.391c-2.888 0-3.468-.085-3.908-.572-.285-.315-.518-.74-.518-.944 0-.204.716-1.798 1.591-3.541l1.591-3.17-3.887-3.886-3.887-3.886-3.17 1.59c-1.744.875-3.362 1.591-3.597 1.591-.234 0-.659-.257-.944-.572-.413-.456-.517-1.242-.517-3.907V51.51h-5.316V41.114l2.424.145c2.833.169 4.482.89 6.009 2.63 1.451 1.65 1.886 2.903 1.886 5.423v2.199h5.316v-1.967c0-5.37-2.724-9.849-7.387-12.144-1.739-.855-2.512-1.036-5.071-1.187l-3.02-.177-.171-5.471c-.186-5.933-.427-6.995-2.158-9.51-1.241-1.805-3.178-3.437-5.321-4.484-1.634-.799-2.045-.855-7.347-1.007l-5.617-.161-.192-.938c-.291-1.42-.819-2.231-2.077-3.191-1.07-.817-1.37-.88-4.686-.978l-3.544-.105V8.3c0-1.04-.163-2.437-.363-3.103-.47-1.568-2.175-3.545-3.813-4.42L87.336.083 46.844.018C13.56-.038 6.142.026 5.176.372Zm7.587 15.886c-2.105 1.432-2.338 2.049-2.442 6.435-.086 3.624-.032 4.085.625 5.37.471.92 1.15 1.647 1.97 2.107l1.25.702 32.575-.075c32.354-.075 32.581-.08 33.438-.72 1.944-1.451 2.145-2.023 2.257-6.442.116-4.565-.058-5.266-1.705-6.863l-1.091-1.056-32.919-.083-32.918-.082-1.04.708Zm85.36 1.802v2.501h-5.316V15.56h5.316v2.501Zm-72.296 5.08-.09 2.58-5.082.085-5.081.086v-5.33h10.344l-.091 2.58Zm20.637 0-.09 2.58-7.74.083-7.738.084V20.56h15.66l-.092 2.58Zm10.319 0-.09 2.58-2.58.09-2.58.091v-5.34h5.34l-.09 2.58Zm10.318 0-.09 2.58h-5.003l-.09-2.58-.092-2.579h5.366l-.09 2.58Zm10.32 0-.092 2.58h-5.003l-.09-2.58-.091-2.579h5.366l-.09 2.58Zm36.181-2.061c.91.31 2.054 1.052 2.849 1.847 1.877 1.876 2.309 3.552 2.309 8.952v4.325l-7.704-.084-7.705-.083-.4-1.354c-.836-2.832-2.622-3.788-7.095-3.798l-3.049-.006v-4.922l3.419-.141c3.021-.124 3.56-.234 4.641-.95 1.244-.823 2.259-2.462 2.259-3.648 0-.636.138-.656 4.478-.656 3.348 0 4.862.13 5.998.518ZM12.758 36.896c-2.1 1.428-2.332 2.043-2.445 6.473-.09 3.55-.029 4.152.54 5.267.354.692 1.103 1.587 1.666 1.989l1.023.73H46.43c32.88 0 32.887-.001 33.77-.655.486-.36 1.199-1.119 1.586-1.687.642-.943.704-1.395.704-5.162 0-3.775-.061-4.218-.711-5.182-.391-.58-1.186-1.375-1.766-1.766l-1.055-.71H13.79l-1.034.703Zm85.366 1.797v2.501h-5.316v-5.002h5.316v2.501Zm-72.296 5.08-.09 2.58-5.082.085-5.081.086v-5.33h10.344l-.091 2.58Zm20.637 0-.09 2.58-7.74.083-7.738.084v-5.326h15.66l-.092 2.58Zm10.319 0-.09 2.58-2.58.09-2.58.091v-5.34h5.34l-.09 2.58Zm10.318 0-.09 2.58-2.58.09-2.58.091v-5.34H67.193l-.09 2.58Zm10.385.078v2.658H72.17V41.194h5.316v2.657Zm-64.605 13.57c-.535.326-1.309 1.064-1.72 1.64-.681.956-.754 1.402-.833 5.11-.079 3.748-.03 4.16.626 5.286.391.672 1.108 1.516 1.594 1.876.881.653.946.655 33.64.737l32.756.082 1.061-.715c.584-.393 1.382-1.19 1.773-1.77.65-.965.71-1.407.71-5.183 0-3.775-.06-4.217-.71-5.182-.391-.58-1.186-1.375-1.766-1.766l-1.055-.71H46.406c-31.412.001-32.585.022-33.524.595Zm111.04.978c.288 2.094 1.781 4.274 3.565 5.208 2.026 1.06 4.322.983 6.89-.232l2.013-.952 1.201 1.201 1.201 1.201-.98 2.16c-.842 1.859-.962 2.436-.855 4.122.213 3.337 2.534 5.764 5.959 6.23l1.486.202V82.46h-10.259l-.108-2.91c-.097-2.615-.226-3.147-1.276-5.27-1.407-2.843-3.219-4.616-6.124-5.993-1.933-.915-2.335-.989-5.372-.989-3.044 0-3.437.073-5.391.998-2.717 1.287-4.86 3.436-6.196 6.211-.945 1.964-1.045 2.443-1.06 5.06l-.017 2.89-5.237.001-5.238.002v-4.917l1.408-.193c5.245-.719 7.665-5.556 5.211-10.417l-.953-1.887 1.31-1.26 1.31-1.26 1.876.9c3.4 1.63 6.75 1.08 8.837-1.451.971-1.177 1.638-2.94 1.638-4.326 0-.82.01-.824 2.472-.824h2.473l.216 1.574Zm-98.185 6.085v2.501l-5.081.086-5.081.086V61.812l5.081.086 5.081.085v2.501Zm20.728-.078-.09 2.58-7.74.083-7.738.084v-5.326h15.66l-.092 2.58Zm10.319 0-.09 2.58-2.58.09-2.58.091v-5.34h5.34l-.09 2.58Zm10.384.078v2.658h-5.316V61.827h5.316v2.657Zm10.319 0v2.658H72.17V61.827h5.316v2.657Zm47.57 8.807c2.714 1.477 4.338 4.725 3.883 7.764l-.213 1.416-7.405-.083-7.405-.084-.271-1.284c-.564-2.675 1.378-6.49 3.997-7.855 2.39-1.245 4.976-1.201 7.414.126Zm-94.16 19.486v10.316H15.575V82.46h15.322v10.317Zm20.637 0v10.316H36.213V82.46h15.32v10.317Zm-30.956.168v5.172l2.58-.091 2.58-.091.085-5.08.086-5.08H20.578v5.17Zm20.637-.012v5.158h5.316V87.775h-5.316v5.158Zm20.637 0v5.158h5.316V87.775h-5.316v5.158Zm92.868 15.475v20.633h-10.318v-30.95h-5.003v30.95h-5.316V108.408h-5.003V129.041h-5.316v-10.317h-5.003v10.317H77.487V87.775h77.233v20.633ZM85.773 93.365c-2.516 1.155-3.283 2.824-3.283 7.141 0 1.683.138 3.543.307 4.132.436 1.52 2.094 3.11 3.65 3.502l1.306.329.104 3.486c.093 3.086.191 3.608.856 4.539 1.474 2.068 2.267 2.216 11.924 2.223 8.316.007 8.659-.017 10.004-.696.766-.387 1.71-1.182 2.099-1.766.678-1.021.706-1.326.706-7.847 0-6.54-.026-6.824-.711-7.84-.391-.58-1.186-1.375-1.766-1.766-1.004-.676-1.338-.71-6.913-.71h-5.858l-.335-1.332c-.388-1.54-1.876-3.1-3.46-3.629-1.76-.587-7.161-.44-8.63.234Zm7.035 7.227v2.501h-5.003V98.092h5.003v2.5Zm15.635 7.659v5.159H92.808v-4.933l1.113-.208c1.619-.304 3.512-2.138 3.933-3.811l.344-1.365H108.443v5.158Zm-36.272 2.658v2.501H15.575v-5.002H72.17v2.501Zm-51.593 10.316v2.501h-5.003v-5.002h5.003v2.501Zm10.319 0v2.501h-5.004v-5.002h5.004v2.501Zm10.318 0v2.501h-5.003v-5.002h5.003v2.501Zm10.319 0v2.501H46.53v-5.002h5.003v2.501Zm10.318 0v2.501H56.85v-5.002h5.003v2.501Zm10.32 0v2.501h-5.004v-5.002h5.003v2.501Zm0 12.974v5.158h-10.32v-5.314H56.85v5.314H46.556l-.09-2.579-.092-2.579-2.58-.091-2.579-.091v5.34H30.896v-5.314h-5.003v5.314H15.575v-10.316H72.172v5.158Zm61.911 2.501v2.657H77.487v-5.314h56.596v2.657Zm10.319 0v2.657h-5.003v-5.314h5.003v2.657Zm10.318 0v2.657h-5.003v-5.314h5.003v2.657Zm-30.956 12.817v5.159h-20.637v-4.95c0-2.723.094-5.044.209-5.158.114-.115 4.757-.209 10.318-.209h10.11v5.158Z" fill="#2C2C2C"/></svg>