<svg width="54" height="70" fill="none" xmlns="http://www.w3.org/2000/svg"><path fill-rule="evenodd" clip-rule="evenodd" d="M3.402.153C2.12.558 1.212 1.301.589 2.451l-.47.867v37.654l.336.685c.43.875 1.389 1.835 2.263 2.265l.684.336 8.788.038 8.788.038v4.648H18.14c-3.083.002-4.134.115-5.014.541-.757.367-1.666 1.283-2.113 2.13l-.362.684-.039 7c-.038 6.807-.03 7.02.246 7.761.379 1.013 1.34 2.025 2.392 2.518l.82.384h25.578l.82-.384c1.052-.493 2.014-1.505 2.392-2.518.277-.74.284-.954.246-7.761l-.039-7-.364-.691c-.734-1.392-1.97-2.282-3.52-2.537-.422-.069-2.043-.126-3.604-.126H32.74v-4.649l8.788-.038 8.787-.038.782-.384c.873-.43 1.711-1.296 2.187-2.264l.314-.638V3.318l-.47-.867c-.517-.956-1.25-1.635-2.276-2.109l-.673-.31L27.064.006C8.754-.014 3.835.016 3.402.153ZM50.07 2.578c.395.191.706.48.932.868.33.564.34.657.34 3.204v2.624H2.376V6.65c0-2.544.01-2.641.338-3.201.221-.377.542-.679.923-.868l.585-.29h45.256l.592.287ZM5.138 4.959c-.56.473-.602 1.15-.101 1.651.296.297.455.336 1.35.336 1.283 0 1.734-.283 1.734-1.09 0-.883-.341-1.153-1.532-1.213-.938-.048-1.046-.024-1.45.316Zm6.035-.202c-.682.274-.822 1.44-.23 1.906.291.229.556.283 1.374.283.894 0 1.053-.04 1.35-.336.47-.47.445-1.08-.065-1.591-.36-.36-.485-.4-1.265-.392-.476.005-1 .063-1.164.13Zm5.64.17c-.535.471-.588 1.055-.144 1.584.354.421.402.435 1.436.435 1.035 0 1.082-.014 1.436-.435.445-.529.392-1.113-.144-1.584-.29-.256-.51-.308-1.292-.308s-1.001.052-1.291.308Zm25.628.092c-.51.51-.534 1.12-.064 1.591.335.335.344.336 3.152.336 2.808 0 2.818 0 3.152-.336.471-.47.447-1.08-.064-1.591l-.4-.4h-5.376l-.4.4Zm8.901 20.897c0 13.989-.006 14.326-.27 14.845-.149.291-.472.674-.718.85l-.448.32-8.583.037-8.582.037V31.456h1.005c.818 0 1.093-.058 1.47-.311.996-.666 1.241-2.048.553-3.12-.963-1.5-7.47-9.946-7.847-10.185-.558-.354-1.57-.353-2.13.002-.365.232-7.64 9.747-8.078 10.566-.23.431-.189 1.407.084 1.95.398.793 1.002 1.098 2.174 1.098h1.006v10.549l-8.594-.037-8.593-.038-.483-.368c-.995-.76-.932.303-.932-15.638V11.602h48.966v14.314ZM30.345 24.61l3.363 4.45-.928.033c-1.349.049-1.785.148-2.092.478-.267.287-.273.489-.273 9.852v9.56h-7.112V29.86l-.353-.332c-.311-.294-.502-.338-1.632-.38l-1.28-.047 3.376-4.506c1.857-2.478 3.419-4.49 3.471-4.47.053.018 1.61 2.036 3.46 4.484Zm8.608 26.83c.654.153 1.14.499 1.553 1.106l.312.458-.038 6.65-.038 6.649-.328.461c-.181.254-.581.576-.89.716-.533.242-1.152.255-12.665.255s-12.132-.013-12.665-.255c-.309-.14-.709-.463-.89-.716l-.328-.461-.038-6.65-.038-6.649.312-.458c.398-.586.907-.961 1.49-1.099.65-.153 23.592-.16 24.251-.006Zm-11.586 3.705c-.28.22-.594 1.012-1.591 4.005-.683 2.052-1.242 3.871-1.242 4.044 0 .48.586.987 1.141.987.844 0 .964-.221 2.28-4.174.676-2.031 1.23-3.838 1.23-4.015 0-.422-.708-1.122-1.134-1.122-.184 0-.492.124-.684.275ZM18.6 57.423c-3.035 2.024-3.033 2.198.049 4.271 1.837 1.236 2.158 1.406 2.525 1.335.231-.044.559-.238.728-.43.623-.71.346-1.294-1.07-2.251-.597-.403-1.083-.768-1.081-.812.002-.043.496-.404 1.099-.802 1.418-.936 1.69-1.616.946-2.361-.545-.546-1.053-.379-3.196 1.05Zm13.324-1.05c-.745.745-.472 1.425.946 2.361.603.398 1.098.76 1.1.804.001.045-.485.415-1.082.822-1.423.97-1.69 1.532-1.07 2.239.17.192.497.386.728.43.368.07.688-.1 2.526-1.335 3.081-2.073 3.084-2.247.048-4.27-2.143-1.43-2.651-1.597-3.196-1.051Z" fill="#fff"/></svg>