<svg width="70" height="70" fill="none" xmlns="http://www.w3.org/2000/svg"><path fill-rule="evenodd" clip-rule="evenodd" d="M15.214.187c-.727.316-.791.574-.866 3.493l-.068 2.667-1.505.084c-.827.046-1.73.155-2.006.242-1.8.571-3.525 2.297-4.096 4.096-.087.276-.196 1.179-.242 2.006l-.084 1.505-2.667.068c-2.942.076-3.182.137-3.499.896-.247.59-.243.804.022 1.364.373.784.794.886 3.672.886H6.42l-.037 3.18-.037 3.18-2.65.037c-2.981.042-3.265.126-3.574 1.06-.21.638-.072 1.175.427 1.653l.412.395 2.727.045 2.727.044v6.271l-2.428.008c-2.753.008-3.225.11-3.688.798-.396.59-.396 1.08 0 1.67.463.688.935.79 3.688.798l2.428.008v6.271l-2.727.044-2.727.045-.412.395c-.499.478-.637 1.015-.427 1.654.309.933.593 1.018 3.574 1.06l2.65.037.037 3.18.037 3.18H3.875c-2.878 0-3.3.101-3.672.885-.265.56-.269.774-.022 1.364.317.759.557.82 3.5.896l2.666.068.084 1.505c.046.827.155 1.73.242 2.006.571 1.8 2.297 3.524 4.096 4.096.276.087 1.179.196 2.006.242l1.505.084.068 2.667c.076 2.942.137 3.182.896 3.499.59.247.804.243 1.364-.022.784-.373.886-.794.886-3.671v-2.547l3.18.037 3.18.037.037 2.65c.042 2.981.126 3.266 1.06 3.574.638.21 1.175.072 1.653-.427l.395-.412.045-2.727.044-2.727h6.25l.045 2.658c.05 3.028.124 3.255 1.18 3.627.504.179.612.176 1.04-.028.898-.428.965-.666 1.014-3.617l.045-2.64h6.25l.044 2.727.045 2.727.395.412c.478.499 1.015.637 1.654.427.933-.308 1.018-.593 1.06-3.574l.037-2.65 3.18-.037 3.18-.037v2.547c0 2.877.101 3.298.885 3.67.56.266.774.27 1.364.023.759-.317.82-.557.896-3.5l.068-2.666 1.505-.084c.827-.046 1.73-.155 2.006-.242 1.8-.572 3.524-2.297 4.096-4.096.087-.276.196-1.179.242-2.006l.084-1.505 2.667-.068c2.942-.076 3.182-.137 3.499-.896.247-.59.243-.804-.022-1.364-.373-.784-.794-.886-3.671-.886h-2.547l.037-3.18.037-3.18 2.65-.037c2.981-.041 3.266-.126 3.574-1.06.21-.638.072-1.175-.427-1.653l-.412-.395-2.727-.045-2.727-.044v-6.25l2.658-.045c3.015-.05 3.256-.127 3.617-1.15.163-.464.16-.602-.023-1.038-.388-.923-.64-.996-3.612-1.046l-2.64-.045v-6.25l2.727-.044 2.727-.045.412-.395c.499-.478.637-1.015.427-1.654-.308-.933-.593-1.017-3.574-1.06l-2.65-.037-.037-3.18-.037-3.18h2.547c2.877 0 3.298-.101 3.67-.885.266-.56.27-.774.023-1.364-.317-.759-.557-.82-3.5-.896l-2.666-.068-.084-1.505c-.046-.827-.155-1.73-.242-2.006-.572-1.8-2.297-3.525-4.096-4.096-.276-.087-1.179-.196-2.006-.242l-1.505-.084-.068-2.667C55.576.738 55.515.498 54.756.181c-.59-.247-.804-.243-1.364.022-.784.373-.886.794-.886 3.672V6.42l-3.18-.037-3.18-.037-.037-2.65C46.068.716 45.983.432 45.05.123c-.638-.21-1.175-.072-1.653.427l-.395.412-.045 2.727-.044 2.727h-6.25l-.045-2.64C36.567.825 36.501.587 35.603.16c-.428-.204-.536-.207-1.04-.028-1.056.372-1.13.599-1.18 3.627l-.045 2.658h-6.25l-.044-2.727-.045-2.727-.395-.412c-.478-.499-1.015-.637-1.654-.427-.933.309-1.017.593-1.06 3.574l-.037 2.65-3.18.037-3.18.037V3.875c0-2.878-.101-3.3-.885-3.672-.55-.26-.825-.264-1.394-.016Zm43.089 9.541c.74.22 1.749 1.229 1.969 1.97.242.817.242 45.787 0 46.605-.22.74-1.229 1.749-1.97 1.969-.817.242-45.787.242-46.605 0-.74-.22-1.749-1.229-1.969-1.97-.242-.817-.242-45.787 0-46.605.206-.692 1.221-1.746 1.885-1.956.723-.23 45.919-.242 46.69-.013ZM13.854 12.8c-.159.032-.466.243-.684.47l-.395.412v42.649l.447.447.447.447H56.33l.448-.447.447-.447V13.67l-.447-.448-.447-.447-21.094-.016c-11.602-.01-21.224.01-21.383.041ZM54.08 35v19.079H15.921l-.035-18.942c-.02-10.419-.006-19.02.03-19.114.052-.136 3.947-.164 19.114-.137l19.049.035V35Z" fill="#6A6A6A"/></svg>