<svg width="70" height="70" fill="none" xmlns="http://www.w3.org/2000/svg"><path fill-rule="evenodd" clip-rule="evenodd" d="M2.271.177C1.58.396.397 1.62.185 2.338c-.247.836-.247 23.832 0 24.668.23.775 1.398 1.944 2.173 2.173.331.098 1.406.172 2.502.172h1.92l.039 14.792.038 14.792.527 1.066c.635 1.285 1.452 2.085 2.763 2.707l.943.447 7.443.04 7.443.042v4.505h-6.773V70h29.35v-2.258H41.78v-4.505l7.45-.041 7.451-.041 1.066-.528c1.284-.635 2.084-1.452 2.705-2.764l.447-.943.04-8.574.04-8.574.525.219c.748.313 1.99.286 2.773-.06.832-.369 2.128-1.664 2.496-2.497.35-.794.372-2.028.047-2.805-.436-1.044-.066-1.814 1.198-2.487 1.423-.759 1.982-1.79 1.982-3.655 0-1.895-.619-2.988-2.123-3.75-1.108-.562-1.478-1.406-1.053-2.407.322-.76.307-1.996-.034-2.76-.383-.86-1.422-1.965-2.296-2.44-.89-.485-2.119-.548-3.066-.158-1.007.415-1.797.064-2.36-1.048-.762-1.504-1.855-2.123-3.75-2.123-1.864 0-2.895.56-3.653 1.982-.687 1.288-1.389 1.618-2.519 1.184-1.321-.508-2.8-.193-3.944.84l-.564.51h-6.245v-8.699c0-6.312-.046-8.853-.168-9.259-.092-.308-.442-.865-.777-1.239C36.36-.09 37.693-.01 19.143.007 7.633.017 2.618.068 2.271.177Zm33.518 2.42c.347.347.347.347.347 3.388v3.041H2.27v-3.04c0-3.042 0-3.042.347-3.388l.346-.347h32.479l.346.347ZM4.53 5.64v1.129H6.786V4.509H4.528v1.13Zm4.515 0v1.129h2.258V4.509H9.044v1.13Zm4.515 0v1.129h2.258V4.509h-2.258v1.13Zm22.577 13.203V26.4l-.347.346-.346.346H2.963l-.345-.346-.347-.346V11.284H36.136v7.558Zm-31.607-4.17V15.8H9.044v-2.258H4.529v1.129Zm6.773 0V15.8H22.59v-2.258H11.302v1.129Zm13.545 4.516v5.646H33.878V13.543H24.847v5.645Zm6.773 0v3.388H27.105V15.8H31.62v3.387Zm-27.091 0v1.13h18.06v-2.259H4.53v1.13Zm52.034-.91c.172.121.45.537.616.924.37.859 1.14 1.544 2.185 1.945.975.373 1.67.379 2.684.022.692-.243.842-.254 1.23-.087.527.226 1.29 1 1.474 1.494.095.254.06.57-.123 1.129-.34 1.037-.334 1.793.023 2.724.403 1.055.975 1.703 1.9 2.156 1.027.503 1.19.763 1.19 1.895 0 1.132-.193 1.446-1.142 1.854-.859.37-1.544 1.14-1.944 2.185-.36.943-.368 1.696-.027 2.736.303.924.22 1.247-.516 2.005-.717.738-1.076.832-2.015.525-1.04-.34-1.793-.332-2.734.028-1.045.4-1.816 1.086-2.185 1.945-.408.949-.722 1.142-1.854 1.142-1.131 0-1.445-.193-1.853-1.142-.37-.86-1.14-1.545-2.185-1.945-.942-.36-1.695-.368-2.734-.027-.559.184-.875.218-1.13.123-.493-.184-1.267-.947-1.493-1.474-.167-.39-.155-.539.103-1.27.363-1.03.294-1.96-.227-3.063-.412-.871-.973-1.415-1.87-1.814-.837-.372-1.028-.708-1.028-1.808 0-1.132.164-1.392 1.191-1.895.925-.453 1.497-1.101 1.9-2.156.369-.964.374-1.662.019-2.673-.244-.693-.255-.843-.088-1.232.226-.526 1-1.29 1.494-1.474.254-.095.57-.06 1.129.123 1.036.34 1.792.334 2.723-.022 1.054-.404 1.702-.975 2.155-1.9.21-.429.513-.872.675-.986.408-.285 2.043-.277 2.457.013ZM4.53 23.705v1.13h6.773v-2.26H4.529v1.13Zm9.03 0v1.13h2.258v-2.26h-2.258v1.13Zm4.516 0v1.13H22.59v-2.26h-4.516v1.13Zm25.539-.511c0 .34.096.848.214 1.129l.213.511h-5.648v-2.259h5.221v.619Zm10.089-.454c-1.275.24-2.882 1.132-3.933 2.183-4.219 4.22-2.468 11.187 3.298 13.125 1.078.363 3.44.362 4.515-.001 2.608-.881 4.435-2.708 5.309-5.309.362-1.078.361-3.442-.002-4.516-.745-2.209-2.158-3.867-4.08-4.79-1.691-.811-3.307-1.03-5.107-.692Zm3.94 2.633c1.274.596 2.097 1.407 2.729 2.685.498 1.008.527 1.141.527 2.422 0 1.28-.03 1.414-.527 2.422-.635 1.285-1.452 2.085-2.764 2.706-.852.404-1.07.447-2.283.447-1.212 0-1.43-.043-2.283-.447-1.311-.621-2.128-1.421-2.763-2.706-.498-1.007-.527-1.142-.527-2.415 0-1.22.042-1.437.447-2.29.566-1.198 1.374-2.074 2.427-2.636 1.111-.592 1.72-.726 3.017-.665.847.04 1.298.148 2 .477Zm-16.085 2.234c-.63.689-.907 1.565-.907 2.873 0 1.887.62 2.982 2.123 3.743 1.11.563 1.461 1.353 1.049 2.361-.326.8-.31 2.026.037 2.804.404.907 1.483 2.029 2.366 2.461.907.444 2.091.498 2.95.134 1.052-.447 1.809-.082 2.492 1.2.484.908 1.094 1.461 1.93 1.75l.528.183.038 3.409.038 3.409H13.56V29.35h10.954c7.988 0 11.104-.045 11.508-.166.676-.203 1.705-1.083 1.946-1.664l.177-.429h3.884l-.471.515Zm12.639-.33c-.693.218-1.874 1.442-2.086 2.16-.391 1.324-.116 2.38.881 3.376 1.428 1.428 3.239 1.428 4.666 0 1.38-1.379 1.42-3.133.108-4.593-.913-1.016-2.232-1.365-3.57-.943ZM11.334 41.055c.038 11.572.041 11.71.33 12.095.16.214.465.52.68.68.383.286.563.293 10.644.362 6.242.043 10.065.119 9.77.193-.67.17-1.875 1.409-2.095 2.152-.39 1.323-.115 2.378.882 3.378.39.391.932.782 1.204.867.749.237-20.562.25-21.36.013-.775-.229-1.944-1.398-2.173-2.173-.13-.44-.172-4.076-.172-14.926V29.35h2.253l.037 11.704Zm44.774-11.358c.7.7.204 1.912-.783 1.912-.58 0-1.128-.549-1.128-1.13 0-.58.548-1.128 1.128-1.128.275 0 .564.128.783.346Zm-40.291 3.041v1.13h22.576v-2.259H15.817v1.13Zm0 4.517v1.129h22.576v-2.258H15.817v1.129Zm-.04 3.357c-.366.371-.666.735-.666.81 0 .073.81.944 1.797 1.935l1.797 1.802-1.83 1.835-1.83 1.835.81.81.81.81 2.644-2.644 2.644-2.645-2.608-2.612c-1.434-1.436-2.675-2.611-2.756-2.611-.081 0-.447.303-.813.675Zm42.771 17.955c-.225.826-1.36 1.986-2.18 2.228-.8.236-22.11.224-21.361-.013.692-.218 1.873-1.441 2.086-2.16.37-1.255.122-2.306-.783-3.313-.416-.462-.813-.748-1.208-.868-.492-.15 1.095-.19 9.666-.25 10.081-.069 10.261-.075 10.644-.36.973-.727.965-.688 1.042-4.895l.07-3.825.573-.19c.314-.105.79-.396 1.058-.647l.486-.456.04 7.057c.03 5.249-.004 7.22-.133 7.692ZM22.59 48.547v1.128h9.03v-2.258h-9.03v1.13Zm12.07 8.25c.7.7.204 1.912-.782 1.912-.58 0-1.129-.55-1.129-1.13 0-.58.549-1.129 1.129-1.129.275 0 .564.128.782.347Zm4.862 8.686v2.259H28.234V63.225h11.288v2.258Z" fill="#fff"/></svg>