<svg width="70" height="70" fill="none" xmlns="http://www.w3.org/2000/svg"><path fill-rule="evenodd" clip-rule="evenodd" d="M15.787.533c-.634.293-1.084.744-1.292 1.293-.08.213-.146 1.337-.146 2.505v2.118h-1.966c-1.783 0-2 .026-2.328.284a.996.996 0 0 0-.06 1.494c.273.256.475.28 2.327.28h2.027V25.8h-1.177c-1.402 0-1.847.205-2.248 1.035-.259.535-.271.865-.271 7.198 0 6.334.012 6.664.27 7.2.402.83.848 1.034 2.25 1.034h1.176v3.431H2.03V9.31l.4-.4c.398-.4.407-.402 2.062-.402.914 0 1.784-.065 1.934-.145.656-.353.594-1.441-.1-1.758-.502-.23-3.289-.196-4.113.05-.738.219-1.527.881-1.93 1.62C.059 8.686.042 10.07.008 31.13-.016 45.888.018 53.722.11 54.06c.226.842.895 1.637 1.688 2.007l.71.332 12.287.001 12.287.001v4.666l-2.156.001c-1.186 0-2.375.062-2.641.136-.55.153-1.276.841-1.492 1.416-.19.504-.19 4.762 0 5.266.216.574.941 1.263 1.492 1.416.658.183 24.818.183 25.475 0 .55-.154 1.276-.842 1.492-1.416.08-.215.145-1.383.145-2.633s-.064-2.418-.145-2.633c-.216-.575-.941-1.263-1.492-1.416-.266-.074-1.455-.136-2.641-.136h-2.156V56.4h7.741l11.877-.026v-2.033H30.55c-15.424-.039-28.057-.085-28.073-.103a6.062 6.062 0 0 1-.24-.438c-.167-.325-.209-.966-.209-3.225v-2.82h26.285v3.046l.466.467.465.467H40.8l.465-.467.466-.467v-3.046h26.285v2.82c0 2.936-.092 3.477-.622 3.682-.122.046-1.267.085-2.544.085-2.284 0-1.429-.001-2.269-.001v2.033h5.28l.88-.516c.42-.42.59-.613.846-1.029L70 54.16V31.436c0-21.39-.014-22.749-.24-23.162-.403-.739-1.191-1.401-1.93-1.62-.532-.16-1.496-.205-4.29-.205h-3.602V5.85c0-.737-.433-1.434-1.098-1.77-.356-.179-.814-.24-1.812-.24h-1.334v-.814c0-1.326-.396-2.012-1.438-2.494C53.732.29 52.9.279 35.022.279 17.142.28 16.31.29 15.787.533Zm37.82 23.516.034 21.648H16.403v-3.431h29.972l.48-.422c.27-.238.542-.645.62-.927.188-.678.188-13.09 0-13.77-.197-.713-.958-1.348-1.614-1.348-.426 0-.615-.103-1.098-.596l-.584-.597.228-.57.227-.57h1.36c1.263 0 1.386-.025 1.697-.337.333-.334.336-.36.336-2.932v-2.595l-.36-.362c-.341-.341-.437-.362-1.697-.362h-1.336l-.228-.571-.228-.572.814-.835c.964-.99 1.165-1.34 1.054-1.845-.094-.431-3.389-3.783-3.853-3.92-.473-.14-1.029.16-1.912 1.034l-.834.824-.57-.228-.57-.23V9.198c0-1.263-.02-1.359-.36-1.7l-.362-.362H32.458l-.361.362c-.34.34-.361.437-.361 1.694v1.333l-.554.25-.554.251-.85-.84c-.901-.891-1.427-1.178-1.93-1.051-.17.042-1.104.876-2.075 1.851-1.675 1.682-1.766 1.803-1.766 2.324 0 .495.092.642.93 1.488l.928.938-.228.572-.228.571h-1.336c-1.26 0-1.356.02-1.696.362l-.361.362v2.595c0 2.572.003 2.598.336 2.932.311.312.435.337 1.69.337h1.355l.226.577.227.578-.577.589-.576.588h-8.294V14.158c0-6.403.041-11.684.091-11.734.051-.05 8.414-.077 18.585-.057l18.493.034.034 21.649Zm4.27-14.547-.005 3.602-.903.687c-.496.377-.986.735-1.089.796-.156.091-.186-.616-.186-4.289V5.9h2.19l-.006 3.602Zm9.738-.594.4.401v36.388H55.694V17.352l1.93-1.49c1.38-1.063 1.986-1.62 2.123-1.947.14-.335.19-1.126.19-2.933V8.507H67.216l.4.401Zm-31.361 1.25c0 1.36.24 1.86 1.056 2.205.36.151.945.405 1.3.564 1.06.473 1.394.39 2.39-.6l.87-.864.915.918.916.918-.862.9c-.828.864-.86.923-.8 1.48.078.709.835 2.538 1.207 2.915.222.225.493.283 1.5.322l1.228.048v2.443l-.924.008c-1.152.01-1.823.233-2.042.678-.923 1.882-1.245 3.129-.868 3.362.486.301-.389.344-7.118.344-6.73 0-7.605-.043-7.12-.344.378-.233.056-1.48-.867-3.362-.219-.445-.89-.669-2.042-.678l-.924-.008v-2.443l1.229-.048c1.006-.04 1.277-.097 1.5-.322.371-.377 1.128-2.206 1.206-2.914.06-.558.028-.617-.8-1.481l-.862-.9.916-.918.916-.918.869.864c.996.99 1.33 1.073 2.39.6.355-.159.94-.413 1.3-.564.817-.345 1.056-.845 1.056-2.205v-.965h2.465v.965Zm-2.328 5.88a4.84 4.84 0 0 0-2.756 2.35c-.264.507-.32.825-.319 1.784.002 1.37.284 2.084 1.181 2.993.893.904 1.616 1.193 2.99 1.193 1.373 0 2.096-.289 2.989-1.193.897-.909 1.179-1.622 1.181-2.993.002-.959-.056-1.277-.32-1.784-.767-1.478-2.04-2.323-3.63-2.41-.535-.03-1.127-.003-1.316.06Zm2.295 2.305c.698.522.923.968.923 1.829 0 .6-.073.901-.287 1.19-.944 1.278-2.537 1.36-3.525.183-.893-1.064-.486-2.802.793-3.383.554-.252 1.643-.158 2.096.18Zm9.342 15.69v6.175H12.707V27.857h32.856v6.175Zm-25.875-4.538c-1.28.392-2.429 1.39-2.988 2.596-.513 1.105-.516 2.773-.007 3.863.739 1.581 2.202 2.603 3.885 2.712 1.156.076 1.857-.097 2.717-.668 1.048-.696 1.305-1.615.591-2.116-.46-.323-.99-.246-1.522.222-.838.738-2.17.715-3.042-.053-.943-.83-1.228-1.998-.743-3.048.658-1.425 2.228-1.992 3.59-1.296.715.366 1.314.306 1.665-.167.518-.698.05-1.417-1.233-1.899-.754-.282-2.225-.356-2.912-.146Zm9.207.18c-.158.17-.945 2.047-1.75 4.17-1.378 3.637-1.452 3.885-1.276 4.252.23.48.795.705 1.315.522.281-.1.452-.323.675-.885l.299-.751 1.49-.039 1.492-.038.354.822c.277.645.433.842.727.916.524.131 1.057-.091 1.266-.53.164-.342.065-.672-1.266-4.241-.797-2.138-1.577-4.014-1.741-4.189-.403-.43-1.19-.434-1.585-.009Zm6.418.18c-.282.36-.291.502-.291 4.177 0 4.819-.138 4.53 2.15 4.53.87 0 1.836-.076 2.146-.167.83-.245 2.022-1.482 2.354-2.443.304-.88.348-2.762.085-3.657-.26-.882-.981-1.846-1.727-2.307-.65-.402-.736-.417-2.55-.46l-1.875-.044-.292.371Zm3.924 2.111c.956.958.934 3.107-.04 4.084-.412.413-.525.453-1.287.453h-.835v-4.94h.88c.79 0 .92.04 1.282.403Zm-9.227 1.826c.14.396.285.798.32.892.048.124-.133.172-.648.172-.514 0-.695-.048-.648-.172.036-.094.18-.495.32-.892.14-.396.288-.72.328-.72.04 0 .188.324.328.72Zm9.666 14.924v.961H30.367V47.756H39.676v.96Zm1.232 10.018v2.333H29.135v-4.666h11.773v2.333Zm6.366 6.519v2.058H22.77l-.039-1.914c-.02-1.053-.007-1.995.03-2.094.056-.145 2.348-.172 12.292-.144l12.222.035v2.059Z" fill="#fff"/></svg>