<svg width="650" height="650" fill="none" xmlns="http://www.w3.org/2000/svg"><path fill-rule="evenodd" clip-rule="evenodd" d="M294.827.968c-66.496 6.417-127.344 31.84-178.828 74.717-15.688 13.065-36.07 34.405-49.338 51.656-33.557 43.634-56.597 98.955-63.781 153.146-2.926 22.076-3.734 52.657-1.907 72.232 6.382 68.38 31.318 128.626 75.175 181.621 7.76 9.377 30.368 31.905 40.198 40.056 45.261 37.529 98.647 62.115 154.868 71.322 30.529 4.999 66.919 5.666 96.185 1.763 85.988-11.466 162.385-55.492 215.617-124.253 31.823-41.107 54.352-92.661 62.826-143.77 3.461-20.869 4.141-29.729 4.158-54.173.014-22.442-.428-29.794-2.782-46.187-10.093-70.29-42.145-134.329-92.293-184.402C500.182 40.035 428.988 7.118 351.426.608c-11.411-.958-45.168-.743-56.599.36Zm45.3 29.5c65.737 3.646 125.197 27.153 175.259 69.288 12.414 10.448 38.199 36.939 36.504 37.505-.326.108-4.781-.57-9.899-1.508-19.136-3.508-38.832-5.765-56.337-6.459l-10.919-.432-1.102-3.321c-2.304-6.936-8.915-15.128-16.034-19.87-8.545-5.69-21.458-7.836-31.433-5.223l-5.125 1.343-2.514-2.476c-26.49-26.091-50.798-44.799-80.296-61.796-11.068-6.377-13.016-7.69-11.459-7.716.573-.01 6.583.29 13.355.666Zm-38.136 7.962c36.557 18.053 67.956 39.57 95.456 65.41l8.518 8.005-2.356 3.234c-3.221 4.421-5.812 9.736-7.037 14.44-.564 2.165-1.198 4.109-1.41 4.321-.211.211-6.108 1.532-13.103 2.935-15.156 3.04-30.061 7.012-45.217 12.053-9.108 3.028-11.213 3.519-11.679 2.716-2.484-4.286-7.842-10.142-12.01-13.126-13.924-9.97-32.723-10.104-46.638-.33-2.717 1.908-5.916 4.683-7.108 6.167l-2.168 2.698-11.159-4.427c-36.087-14.316-78.288-24.418-117.536-28.132l-8.984-.85 4.817-4.503c41.12-38.436 92.293-64.042 148.574-74.341 16.37-2.996 15.084-3.162 29.04 3.73Zm-176.269 93.832c38.599 3.418 78.19 12.872 114.717 27.393l8.899 3.538.04 7.772c.033 6.425.341 8.639 1.776 12.772l1.735 4.999-7.796 5.259c-44.178 29.8-81.787 68.733-109.599 113.456-5.351 8.604-6.381 9.891-7.632 9.53-.795-.23-4.102-.598-7.349-.819-6.731-.458-12.974.718-19.599 3.691-3.58 1.607-4.154 1.696-4.902.764-17.897-22.317-37.76-52.589-48.921-74.562l-3.907-7.692 2.286-6.893c4.158-12.537 8.392-22.7 15.314-36.759 10.242-20.8 20.657-37.109 35.493-55.58l6.709-8.352 5.465.218c3.005.121 10.777.69 17.271 1.265Zm373.975 15.947c21.386 1.875 45.618 5.85 63.197 10.365 7.705 1.979 7.149 1.443 14.954 14.426 27.704 46.082 42.014 97.938 41.986 152.148-.011 21.951-2.12 41.755-6.634 62.298-4.143 18.854-3.249 17.021-10.403 21.321-16.37 9.837-35.314 19.456-52.75 26.782-9.17 3.854-29.698 11.627-30.703 11.627-.304 0-1.33-1.485-2.282-3.299-2.387-4.548-10.634-12.616-15.454-15.118-2.195-1.14-3.99-2.385-3.987-2.767.002-.382.913-5.382 2.024-11.112 5.572-28.735 7.677-49.399 8.172-80.219.58-36.085-1.482-58.222-8.174-87.74-5.88-25.937-16.729-55.123-28.253-76.005l-3.549-6.432 2.349-3.567c1.292-1.962 3.062-5.865 3.934-8.674l1.585-5.107 5.918.004c3.254.002 11.386.483 18.07 1.069Zm-100.298 9.171c3.512 7.326 11.016 14.882 18.369 18.498 9.891 4.864 22.296 5.548 32.193 1.776 4.34-1.654 3.717-2.303 9.858 10.267 27.935 57.178 36.676 123.453 26.27 199.177-1.501 10.922-4.516 27.688-5.09 28.312-.269.292-1.054-1.896-1.746-4.861-9.794-42.011-28.146-84.763-52.104-121.38-20.403-31.183-47.616-61.632-75.723-84.728-6.901-5.672-21.096-16.517-23.046-17.608-.894-.5-.889-1.033.047-4.334.586-2.069 1.274-5.7 1.528-8.068l.461-4.306 5.874-2.126c14.429-5.221 31.028-9.814 49.166-13.604a3205.473 3205.473 0 0 0 11.236-2.359c.069-.021 1.287 2.383 2.707 5.344Zm-73.756 49.724c19.805 14.729 45.199 38.698 60.452 57.061 36.791 44.291 60.789 91.467 74.724 146.895 1.489 5.921 2.912 12.067 3.162 13.658.447 2.834.394 2.932-2.575 4.79-5.489 3.434-9.537 7.273-12.638 11.983-3.792 5.758-5.833 11.197-6.79 18.084-.405 2.922-.809 5.384-.898 5.474-.088.09-5.295.693-11.572 1.342-13.979 1.445-53.533 1.665-66.276.369-44.979-4.577-80.401-13.581-118.06-30.013-28.975-12.642-59.949-31.515-84.336-51.385-3.985-3.247-7.526-6.095-7.87-6.328-.343-.233.342-2.34 1.524-4.681 4.365-8.648 5.389-19.177 2.78-28.591-1.825-6.586-4.255-11.062-8.582-15.805l-3.424-3.752 1.341-2.518c2.443-4.589 16.52-25.41 22.788-33.706 19.383-25.653 45.847-51.885 71.612-70.98 9.023-6.688 22.258-15.608 23.158-15.608.348 0 2.417 1.075 4.598 2.388 13.702 8.251 30.539 7.739 43.628-1.329 2.372-1.643 4.573-3.022 4.889-3.065.316-.043 4.08 2.53 8.365 5.717ZM42.756 275.278c10.636 17.984 24.07 37.573 35.823 52.236 2.82 3.519 5.127 6.697 5.127 7.062 0 .366-.777 2.213-1.727 4.105-2.984 5.94-4.007 11.385-3.675 19.547.331 8.145 1.723 12.971 5.567 19.32 2.109 3.483 7.426 9.291 10.57 11.546 1.33.953 1.268 1.271-2.644 13.543-6.905 21.66-12.838 46.921-16.13 68.674-.65 4.298-1.376 7.814-1.614 7.814-.49 0-9.774-16.526-13.526-24.074-26.905-54.132-36.338-119.052-26.072-179.426 1.362-8.006 1.981-10.719 2.352-10.296.11.124 2.786 4.601 5.95 9.949Zm104.322 122.125c21.801 17.738 43.87 32.288 68.127 44.917 67.262 35.017 146.102 49.704 221.789 41.316 4.855-.538 8.874-.914 8.934-.835.059.079.978 1.54 2.042 3.248 1.064 1.707 3.457 4.715 5.319 6.682l3.383 3.578-3.96 9.292c-9.604 22.531-26.948 54.199-41.036 74.926-7.66 11.27-18.641 25.885-22.49 29.934l-3.036 3.195-9.028 1.521c-18.172 3.063-24.897 3.652-46.031 4.035-31.632.573-53.185-1.863-81.058-9.163-57.65-15.097-111.377-49.007-149.7-94.483-10.203-12.109-10.42-12.478-9.975-16.915 3.367-33.539 11.327-70.5 21.326-99.024l.963-2.751 5.496-.09c6.305-.102 11.631-1.219 16.607-3.481 1.91-.868 3.863-1.604 4.342-1.635.478-.032 4.071 2.549 7.986 5.733Zm452.23 36.056c-1.095 3.521-7.129 16.758-11.817 25.924-21.611 42.258-53.804 79.09-93.976 107.516-3.591 2.542-6.664 4.485-6.829 4.32-.165-.165.342-6.03 1.128-13.033 1.38-12.31 2.726-33.228 3.046-47.365l.156-6.851 4.329-1.566c14.633-5.293 24.197-16.991 26.877-32.874l.74-4.387 12.848-4.687c17.873-6.52 31.256-12.341 48.266-20.991 8.021-4.08 14.839-7.452 15.151-7.493.313-.042.349.628.081 1.487ZM472.397 520.97c-.238 8.499-.911 20.454-1.494 26.566-1.395 14.622-4.47 35.179-5.437 36.353-2.594 3.149-46.736 22.159-48.155 20.74-.234-.233.507-1.61 1.644-3.06 3.365-4.29 15.55-22.801 21.166-32.155 10.271-17.103 22.681-41.336 29.434-57.473 1.478-3.533 2.821-6.424 2.982-6.424.162 0 .099 6.954-.14 15.453Z" fill="#fff" fill-opacity=".2"/></svg>