<svg width="70" height="38" fill="none" xmlns="http://www.w3.org/2000/svg"><path fill-rule="evenodd" clip-rule="evenodd" d="M17.91.306c-.42.101-.82.416-1.004.787-.194.393-.18-.297-.172 8.856l.007 8.262.071.194c.23.63.795 1.032 1.447 1.032.686 0 1.257-.434 1.468-1.118.048-.156.05-.488.05-8.472v-8.31l-.06-.192C19.477.586 18.67.122 17.909.305Zm33.481 0c-.508.123-.95.537-1.108 1.039l-.06.192v8.31c0 7.984.002 8.316.05 8.472.21.677.779 1.115 1.454 1.119.12 0 .287-.016.37-.036.495-.121.909-.499 1.091-.997l.071-.194V9.874c0-8.015-.002-8.343-.05-8.5A1.536 1.536 0 0 0 51.39.305ZM9.558 6.036a1.532 1.532 0 0 0-1.126 1.05l-.062.191V15.122l.061.192c.164.516.565.908 1.062 1.038.203.052.582.053.778 0a1.53 1.53 0 0 0 1.08-1.092c.037-.142.042-.665.042-4.06 0-4.318.012-4.037-.18-4.403a1.547 1.547 0 0 0-.972-.749 1.927 1.927 0 0 0-.683-.013Zm16.706.012c-.473.12-.886.492-1.063.956l-.062.164-.009 3.95c-.006 2.89 0 3.99.023 4.1.11.528.559.997 1.084 1.132.213.055.58.056.788.002.505-.132.93-.56 1.075-1.082.044-.163.048-.433.048-4.07 0-3.685-.003-3.905-.05-4.073A1.54 1.54 0 0 0 27.16 6.1a1.787 1.787 0 0 0-.896-.051Zm16.748 0a1.548 1.548 0 0 0-1.064.936c-.107.284-.112.537-.103 4.42.008 3.54.011 3.754.058 3.896.086.258.216.471.4.657.297.298.634.436 1.062.436a1.43 1.43 0 0 0 1.076-.44c.2-.2.35-.47.406-.735.023-.11.029-1.198.023-4.1l-.009-3.95-.062-.164a1.533 1.533 0 0 0-.758-.835 1.496 1.496 0 0 0-1.029-.12Zm16.734.002a1.562 1.562 0 0 0-.958.747c-.193.366-.181.085-.181 4.403 0 4.295-.01 4.036.171 4.4.17.342.557.648.95.753.197.052.576.051.779-.002.505-.13.907-.531 1.072-1.066.048-.155.05-.357.05-4.085 0-3.73-.002-3.93-.05-4.087a1.547 1.547 0 0 0-1.097-1.065c-.2-.051-.522-.05-.736.002ZM1.141 10.244a1.52 1.52 0 0 0-1.09 1.052C.003 11.447 0 11.59 0 13.29c0 1.41.008 1.862.035 1.964.138.518.551.94 1.071 1.094.187.056.593.058.795.004a1.53 1.53 0 0 0 .938-.744c.183-.35.183-.341.183-2.31 0-1.178-.01-1.817-.03-1.913-.115-.559-.597-1.037-1.165-1.157a1.38 1.38 0 0 0-.686.015Zm33.494-.012c-.381.092-.79.404-.966.738-.193.363-.187.285-.187 2.348v1.859l.07.194c.178.483.577.857 1.066.997.209.06.638.042.864-.036.482-.167.87-.584 1-1.077.028-.102.036-.555.036-1.964 0-1.7-.003-1.843-.05-1.995a1.53 1.53 0 0 0-1.482-1.105c-.105.001-.263.02-.351.04Zm33.525-.004c-.434.1-.843.42-1.026.808a1.97 1.97 0 0 0-.127.35c-.02.096-.03.735-.03 1.913.001 1.965 0 1.961.181 2.304.169.32.477.589.819.713.227.083.682.101.903.037.522-.151.9-.527 1.075-1.063.04-.125.045-.34.045-1.985 0-1.714-.004-1.857-.05-2.01-.196-.638-.734-1.063-1.386-1.095a1.625 1.625 0 0 0-.404.028ZM11.927 24.607c-2.193.252-4.006 1.46-4.933 3.288-.475.937-.689 1.862-.689 2.982 0 1.41.414 2.711 1.199 3.766.253.34.89.969 1.236 1.218.905.652 1.93 1.052 3.118 1.215.466.063 1.408.063 1.929-.001.439-.054 1.046-.172 1.463-.284l.287-.078.007-1.618c.004-.89.003-1.618-.003-1.618-.005 0-.126.055-.267.121a5.55 5.55 0 0 1-1.884.481c-1.583.129-2.857-.539-3.461-1.812a3.44 3.44 0 0 1 .06-2.975c.38-.725 1.01-1.247 1.829-1.515.991-.324 2.376-.194 3.479.328l.254.12v-3.24l-.308-.085c-.371-.103-.88-.207-1.306-.266-.44-.061-1.582-.077-2.01-.027Zm18.792-.009a5.325 5.325 0 0 0-1.696.473c-1.25.605-1.95 1.661-2.027 3.062-.088 1.599.738 2.798 2.41 3.5.166.07.63.235 1.033.368 1.075.356 1.42.559 1.612.95.078.158.09.21.089.388-.003.602-.524.972-1.543 1.094-.335.04-1.103.034-1.547-.013a13.943 13.943 0 0 1-1.976-.385l-.062-.017v2.786l.336.057c1.452.248 2.905.332 3.863.221.708-.081 1.457-.29 1.997-.556 1.178-.579 1.86-1.46 2.084-2.694.066-.368.066-1.134 0-1.443a3.248 3.248 0 0 0-.974-1.735c-.563-.543-1.04-.791-2.321-1.21-.515-.17-.986-.34-1.128-.412-.444-.222-.655-.502-.656-.87-.001-.968 1.585-1.272 3.876-.742.162.038.323.077.357.087l.062.018-.007-1.295-.007-1.295-.274-.06c-.448-.1-1.229-.224-1.693-.268-.473-.044-1.45-.05-1.808-.009Zm13.458-.015c-1.228.127-2.299.499-3.188 1.107-1.798 1.229-2.763 3.29-2.621 5.598.141 2.3 1.367 4.168 3.375 5.142.829.402 1.604.608 2.576.684.906.071 2.138-.07 3.107-.359l.184-.055v-1.614c0-1.281-.007-1.612-.034-1.6l-.308.137c-.931.415-2.003.566-2.922.412-1.203-.202-2.152-1.01-2.516-2.143-.116-.363-.142-.559-.141-1.08 0-.45.007-.518.078-.793.322-1.247 1.195-2.066 2.507-2.354.349-.077 1.258-.072 1.709.01.437.078.91.224 1.304.403l.323.146v-3.24l-.335-.09c-.864-.23-1.39-.301-2.29-.313a16.293 16.293 0 0 0-.808.002Zm12.337.014a6.634 6.634 0 0 0-2.845 1.001 6.12 6.12 0 0 0-2.6 3.633c-.154.606-.189.903-.189 1.608 0 .679.035 1.001.167 1.541.337 1.382 1.144 2.624 2.242 3.45.65.489 1.46.882 2.22 1.077 1.89.485 3.91.17 5.437-.846 1.689-1.125 2.683-2.94 2.741-5.005.025-.849-.069-1.503-.322-2.261a6.065 6.065 0 0 0-2.68-3.327c-.675-.407-1.495-.696-2.367-.835-.328-.053-1.443-.075-1.804-.036Zm-36.723 6.256v6.068h3.064V24.785H19.79v6.068ZM57.89 27.7c.633.112 1.21.422 1.678.904 1.208 1.242 1.187 3.304-.046 4.534-1.215 1.212-3.242 1.22-4.468.016-1.236-1.212-1.277-3.25-.092-4.514.753-.803 1.798-1.139 2.927-.94Z" fill="#fff"/></svg>