<svg width="70" height="70" fill="none" xmlns="http://www.w3.org/2000/svg"><path fill-rule="evenodd" clip-rule="evenodd" d="m13.838.346-.347.347V13.53l-4.634.044-4.635.044-1.067.527C1.87 14.781 1.07 15.598.447 16.91L0 17.853V54.42l.528 1.066c.635 1.285 1.453 2.085 2.766 2.707l.944.446 9.218.04 9.218.04v.906c0 1.287-.228 2.234-.853 3.542-.639 1.337-1.388 2.211-3.157 3.685-.708.59-1.399 1.197-1.535 1.35-.356.399-.312 1.04.1 1.452l.346.346h25.738l.346-.346c.336-.336.436-.812.263-1.26-.046-.12-.703-.724-1.46-1.342-.756-.618-1.708-1.488-2.114-1.932-1.333-1.456-2.128-3.49-2.132-5.453l-.002-.948 9.218-.04 9.218-.04.944-.447c1.313-.62 2.13-1.421 2.766-2.705l.528-1.066.043-5.759.042-5.759h8.333l.347-.346.347-.346V.693l-.347-.347L69.306 0H14.186l-.347.346Zm53.902 5.3v3.386H15.752V2.258H67.74v3.387Zm-13.562 0v1.128h2.26V4.516h-2.26v1.13Zm4.52 0v1.128h2.26V4.516h-2.26v1.13Zm4.521 0v1.128h2.26V4.516h-2.26v1.13Zm4.52 20.322v14.677H21.322l-4.515.905c-2.484.497-4.535.885-4.559.862-.024-.023.755-1.637 1.73-3.585l1.775-3.543V11.29H67.74v14.678Zm-45.1-5.637c-3.874 4.368-4.627 5.285-4.627 5.638 0 .353.747 1.261 4.612 5.608 2.536 2.853 4.65 5.201 4.697 5.219.047.017.45-.3.895-.706l.809-.737-4.162-4.657c-2.288-2.562-4.16-4.69-4.16-4.728 0-.039 1.873-2.167 4.162-4.728l4.163-4.657-.81-.741c-.447-.407-.843-.738-.882-.735-.039.004-2.153 2.354-4.697 5.224Zm19.075-4.486-.81.738 4.162 4.657c2.288 2.561 4.161 4.689 4.161 4.728 0 .039-1.872 2.166-4.161 4.728l-4.161 4.657.809.737c.445.406.847.723.894.706.047-.018 2.161-2.366 4.698-5.22 3.868-4.35 4.611-5.254 4.611-5.608 0-.354-.743-1.258-4.611-5.61-2.537-2.852-4.65-5.2-4.698-5.218-.047-.018-.45.3-.894.705Zm-5.664.123c-.143.575-4.343 19.516-4.375 19.73-.021.144.277.273 1.03.446.582.134 1.072.23 1.087.215.016-.015.989-4.345 2.162-9.62l2.252-10.12c.117-.52.111-.53-.396-.664a13.032 13.032 0 0 0-1.096-.228c-.528-.083-.588-.061-.664.24Zm-22.559 9.295v9.456l-2.26 4.515c-1.243 2.483-2.26 4.676-2.26 4.874 0 .424.577 1.053.965 1.053.15 0 2.834-.508 5.966-1.129l5.694-1.129H58.698v4.516H2.19V33.076c0-10.85.042-14.485.171-14.925.213-.718 1.396-1.942 2.089-2.16.31-.098 2.086-.161 4.768-.17l4.273-.014v9.456Zm40.687-8.328v1.13h11.301v-2.258H54.178v1.129Zm0 4.517v1.129h11.301v-2.258H54.178v1.129Zm0 4.516v1.129h11.301v-2.258H54.178v1.129Zm0 4.516v1.129h11.301v-2.258H54.178v1.129Zm0 4.516v1.13h11.301V33.87H54.178V35Zm4.52 16.602c0 1.098-.074 2.173-.172 2.505-.229.775-1.4 1.944-2.175 2.173-.845.25-50.97.25-51.814 0-.776-.229-1.946-1.398-2.176-2.173-.098-.332-.171-1.407-.171-2.505v-1.924h56.508v1.924Zm-29.384 1.463v1.129h2.26v-2.259h-2.26v1.13Zm6.642 6.668c.006 2.562 1.027 5.089 2.87 7.106l.826.903H21.236l.825-.903c1.844-2.017 2.865-4.544 2.871-7.106l.002-1.023h11.02l.002 1.023Z" fill="#fff"/></svg>