<svg width="70" height="70" fill="none" xmlns="http://www.w3.org/2000/svg"><path fill-rule="evenodd" clip-rule="evenodd" d="M19.692 1.309c-2.743 1.402-2.967 1.609-2.674 2.463.11.322.569.61 2.674 1.688l2.541 1.299 13.984.006c15.863.007 14.832.08 15.912-1.121 1.265-1.408 1.265-3.112 0-4.52-1.08-1.2-.049-1.128-15.912-1.12L22.233.01l-2.54 1.299Zm4.023 2.075v1.13h-.42c-.394 0-2.544-.955-2.544-1.13 0-.181 2.083-1.113 2.505-1.12l.46-.009v1.13Zm26.754-.782c.219.218.347.507.347.782s-.128.564-.347.783l-.346.346h-24.15V2.255h24.15l.346.347ZM2.63 8.132c-.483.148-.912.434-1.435.957C-.1 10.383.002 8.32.002 33.305c0 24.96-.099 22.928 1.176 24.195 1.278 1.27.602 1.21 13.308 1.21 6.085 0 11.064.049 11.064.11 0 .102-.642 2.392-1.285 4.582l-.28.953h-2.611c-2.585 0-2.615.003-2.958.346-.338.337-.347.403-.347 2.476s.01 2.14.347 2.477l.346.346h32.49l.347-.346c.337-.338.346-.403.346-2.477 0-2.073-.009-2.139-.346-2.476-.343-.343-.374-.346-2.958-.346h-2.612l-.28-.953c-.636-2.166-1.285-4.48-1.285-4.58 0-.058 5.098-.124 11.328-.145l11.327-.038.706-.375c.835-.444 1.33-.946 1.784-1.813l.333-.635.037-22.229c.042-25.339.145-23.186-1.174-24.51-1.285-1.29 1.97-1.178-33.859-1.167-27.693.009-31.713.036-32.317.222Zm64.593 2.559.462.46.036 19.263.037 19.262h-65.5l.037-19.253.037-19.254.353-.38c.194-.208.48-.432.635-.496.155-.065 14.493-.105 31.862-.09l31.58.026.461.462ZM4.865 15.02c-.343.344-.346.369-.346 3.041 0 3.628-.24 3.387 3.387 3.387 3.628 0 3.388.24 3.388-3.387 0-3.628.24-3.387-3.388-3.387-2.673 0-2.697.003-3.04.346Zm54.202 0c-.344.344-.347.369-.347 3.041 0 3.628-.24 3.387 3.388 3.387s3.388.24 3.388-3.387c0-3.628.24-3.387-3.388-3.387-2.673 0-2.697.003-3.041.346ZM9.035 18.062v1.13H6.777v-2.259h2.259v1.13Zm54.202 0v1.13h-2.259v-2.259h2.26v1.13Zm-40.274 1.35c-2.75.617-5.03 2.417-6.236 4.924-2.285 4.75-.052 10.362 4.898 12.306l.944.37-1.12 2.238c-.617 1.23-1.122 2.4-1.122 2.598 0 .199.156.517.347.708l.346.346h12.165l.346-.346c.191-.191.347-.508.347-.705 0-.197-.711-1.783-1.58-3.524l-1.582-3.165.596-.647c.93-1.008 1.687-2.282 2.098-3.528.32-.968.376-1.384.376-2.763s-.056-1.795-.376-2.763c-.656-1.99-1.844-3.555-3.578-4.715-1.951-1.305-4.657-1.83-6.869-1.335Zm3.499 2.254c3.625.944 5.862 4.643 4.942 8.175a9.09 9.09 0 0 1-.649 1.64c-.451.848-1.11 1.572-1.207 1.33-.032-.078-.42-.84-.863-1.694-.875-1.685-1.189-1.954-1.97-1.685-.324.11-.61.572-1.73 2.788l-1.34 2.654-.424-.082c-.86-.168-2.216-.93-3.023-1.7-1.768-1.686-2.511-4.188-1.918-6.464.95-3.647 4.64-5.885 8.182-4.962Zm11.983.559c-.24.1-.496.355-.587.584-.153.385-3.102 10.357-3.691 12.483-.248.894-.257 1.052-.08 1.396.11.213.379.458.596.544.343.137 11.526 3.435 12.9 3.805.666.18 1.295-.08 1.511-.623.152-.381 3.1-10.347 3.68-12.443.229-.825.242-1.03.087-1.398-.23-.544-.127-.507-6.703-2.428-7.706-2.251-7.216-2.13-7.713-1.92Zm-33.58.7c-.343.343-.346.368-.346 3.04 0 3.628-.24 3.388 3.387 3.388 3.628 0 3.388.24 3.388-3.387 0-3.628.24-3.388-3.388-3.388-2.673 0-2.697.003-3.04.347Zm54.202 0c-.344.343-.347.368-.347 3.04 0 3.628-.24 3.388 3.388 3.388s3.388.24 3.388-3.387c0-3.628.24-3.388-3.388-3.388-2.673 0-2.697.003-3.041.347ZM45.07 26.192c2.81.822 5.17 1.55 5.24 1.619.13.122-2.794 10.376-3.03 10.63-.12.127-10.39-2.798-10.637-3.03-.077-.07.464-2.148 1.327-5.1 1.667-5.702 1.638-5.615 1.839-5.615.082 0 2.45.673 5.26 1.496Zm-36.035-.226v1.129H6.777v-2.258h2.259v1.129Zm54.202 0v1.129h-2.259v-2.258h2.26v1.129ZM4.865 30.829c-.343.343-.346.368-.346 3.04 0 3.628-.24 3.388 3.387 3.388 3.628 0 3.388.24 3.388-3.388 0-3.627.24-3.387-3.388-3.387-2.673 0-2.697.003-3.04.347Zm54.202 0c-.344.343-.347.368-.347 3.04 0 3.628-.24 3.388 3.388 3.388 2.673 0 2.698-.003 3.041-.347.344-.343.347-.368.347-3.04 0-3.628.24-3.388-3.388-3.388-2.673 0-2.697.003-3.041.347Zm-50.032 3.04V35H6.777V32.74h2.259v1.13Zm54.202 0V35h-2.259V32.74h2.26v1.13Zm-35.807-.206c.13.274.237.554.237.621 0 .129-1.278.612-1.371.52-.072-.073.702-1.64.81-1.64.047 0 .193.224.323.498Zm2.425 4.864 1.06 2.117H23.29l.84-1.676.84-1.677.89-.095a9.387 9.387 0 0 0 1.807-.427c.505-.183.965-.338 1.023-.346.058-.007.582.94 1.165 2.104Zm-24.99.205c-.343.344-.346.368-.346 3.041 0 3.628-.24 3.387 3.387 3.387 3.628 0 3.388.24 3.388-3.387 0-3.628.24-3.387-3.388-3.387-2.673 0-2.697.002-3.04.346Zm54.202 0c-.344.344-.347.368-.347 3.041 0 3.628-.24 3.387 3.388 3.387 2.673 0 2.698-.003 3.041-.346.344-.344.347-.368.347-3.041 0-3.628.24-3.387-3.388-3.387-2.673 0-2.697.002-3.041.346ZM9.035 41.773v1.129H6.777v-2.259h2.259v1.13Zm54.202 0v1.129h-2.259v-2.259h2.26v1.13Zm4.493 11.924-.047 1.761-.461.462-.461.46H3.254l-.462-.46-.461-.462-.047-1.761-.047-1.762h65.54l-.047 1.762Zm-25.398 5.965c.643 2.19 1.285 4.48 1.285 4.582 0 .061-3.874.11-8.61.11-4.735 0-8.61-.049-8.61-.11 0-.103.642-2.392 1.285-4.582l.28-.953H42.053l.28.953Zm7.355 7.515v.565h-29.36v-1.129h29.36v.564Z" fill="#6A6A6A"/></svg>