<svg width="70" height="50" fill="none" xmlns="http://www.w3.org/2000/svg"><path fill-rule="evenodd" clip-rule="evenodd" d="M.578.443C.347.536 0 1.223 0 1.587c0 .16.18.47.4.69l.399.401h6.172v5.886H4.983c-1.929 0-1.998.01-2.324.336-.434.435-.437 1.036-.006 1.538.33.384.333.385 2.324.432l1.994.047v2.3H5.004c-1.732 0-2.005.032-2.29.262l-.322.262-.04 5.151-.038 5.151.404.405.405.405H6.97v2.327H3.123l-.4.4c-.426.427-.497.804-.24 1.286.31.582.51.632 2.54.636l1.948.005v2.327H3.123l-.4.4-.4.4v5.016c0 3.33.05 5.108.148 5.292.268.5.951.664 2.787.664H6.97v2.453c0 2.44.002 2.456.354 2.874.42.502 1.075.568 1.578.16.322-.26.323-.27.391-4.072l.069-3.81h5.74l.068 3.81c.069 3.802.07 3.811.391 4.072.313.253.735.262 13.622.262h13.299l.354-.422.354-.42v-7.378l2.289.038 2.29.037.068 3.81c.068 3.803.069 3.812.39 4.073.305.247.607.262 5.419.262 4.811 0 5.113-.015 5.418-.262.321-.26.322-.27.39-4.072l.069-3.81 2.597-.075c2.893-.082 3.307-.182 4.763-1.15 1.423-.946 2.483-2.488 2.885-4.195.305-1.295.31-22.891.005-24.183-.57-2.42-2.31-4.318-4.705-5.134l-.898-.306-27.438-.037-27.439-.037V.918l-.36-.283C8.588.362 8.421.35 4.663.362 2.512.368.673.404.578.442ZM64.933 8.94c1.016.502 1.716 1.197 2.205 2.192l.45.916v23.275l-.365.78c-.445.95-1.325 1.858-2.236 2.307l-.68.335-27.438.036-27.438.035-.025-3.047a3613 3613 0 0 1-.034-15.127l-.01-12.081 27.473.035 27.473.035.625.309ZM21.8 11.118c-1.32.281-2.79.893-4.133 1.717-1.468.902-3.42 2.92-4.26 4.406-2.831 5-2.126 11.115 1.749 15.178 1.977 2.074 4.127 3.266 7.108 3.939 1.113.251 4.325.093 5.61-.277 4.746-1.366 8.175-5.075 9.18-9.928 1.177-5.679-1.811-11.562-7.165-14.109-1.657-.788-3.394-1.155-5.407-1.142-.966.006-2.146.101-2.682.216Zm28.022 0c-4.746 1.018-8.508 4.666-9.79 9.492-.434 1.635-.438 4.34-.01 6.074.953 3.85 3.656 7.115 7.213 8.714.52.234 1.56.581 2.311.772 1.237.315 1.549.341 3.28.28 2.097-.076 3.318-.337 4.905-1.05 3.558-1.6 6.265-4.869 7.215-8.716.42-1.7.421-4.285.003-5.979-1.165-4.714-4.712-8.287-9.412-9.481-1.066-.271-1.633-.331-3.035-.322-.97.006-2.144.1-2.68.216Zm-23.75 2.836c.904 1.354 1.313 3.736.868 5.052-.185.546-.195.549-1.05.228-.186-.069-.39-.393-.585-.93-.572-1.57-1.785-2.895-3.65-3.986l-.9-.527 1.138-.278c.804-.197 1.518-.271 2.436-.253l1.298.026.446.668Zm27.936-.12c.643.942.961 1.951 1.036 3.285.067 1.197-.113 2.395-.36 2.395-.261 0-1.121-.431-1.169-.586-.611-2.001-2.005-3.632-3.968-4.642-.785-.404-.805-.427-.478-.551.83-.317 2.078-.498 3.273-.474l1.292.025.374.548Zm-24.152.833c.957.578 2.164 1.586 2.552 2.13.264.372.266.42.06 1.229-.438 1.71-1.69 3.448-2.948 4.09l-.534.273-.254-.582-.254-.581.38-.822c.72-1.55.792-3.824.18-5.563a7.078 7.078 0 0 1-.199-.614c0-.129.265-.014 1.017.44Zm28.257.173c1.474.964 2.436 1.966 2.436 2.538 0 1.098-.879 2.847-1.94 3.861-1.221 1.166-1.579 1.257-1.903.484-.188-.449-.193-.574-.036-.854.88-1.57.974-4.058.243-6.453-.112-.37.1-.295 1.2.424ZM6.97 19.035v3.49H4.647v-6.98h2.324v3.49Zm12.34-3.205c.954.321 1.545.647 2.372 1.309.565.452 1.416 1.594 1.416 1.9 0 .088-.232.265-.516.393-.503.227-.532.225-1.274-.115-1.46-.67-3.172-.798-4.908-.367-.563.14-1.138.302-1.278.36-.244.104-.244.091-.014-.357.737-1.441 2.49-3.408 3.036-3.408.173 0 .698.128 1.165.285Zm28.87.395c1.193.58 2.24 1.501 2.672 2.348.146.286.265.544.265.573 0 .03-.24.162-.535.295-.53.239-.544.238-1.265-.108-1.499-.72-3.724-.822-5.54-.253l-.849.265.335-.661c.396-.784 1.393-2.069 2.093-2.699.45-.406.558-.441 1.114-.371.338.043 1.108.318 1.71.611ZM34.644 21.02c.124.414.26 1.405.305 2.203l.08 1.45-.463.348c-1.517 1.14-3.683 1.605-5.274 1.132l-.691-.206.22-.611c.178-.497.297-.63.632-.701 1.551-.335 3.59-2.148 4.489-3.991.156-.32.327-.536.38-.48.054.057.199.442.322.856Zm28.023.17c.349 1.539.428 3.17.172 3.561-.29.444-1.658 1.148-2.712 1.397-1.114.263-1.943.264-2.816.005l-.69-.206.217-.606c.193-.538.284-.625.814-.773 1.368-.384 3.263-2.06 4.158-3.678.245-.442.487-.778.538-.746.052.032.195.503.319 1.047Zm-43.042-.016c.335.084.637.2.672.255.034.055-.036.35-.155.654-.187.477-.3.576-.827.724-1.394.39-3.114 1.903-4.082 3.59-.373.649-.56.863-.635.729-.251-.45-.547-2.16-.566-3.278-.02-1.136 0-1.226.319-1.485 1.302-1.056 3.677-1.592 5.274-1.19Zm28.363.118.355.163-.217.604c-.135.377-.3.604-.439.604-.445 0-2.121.963-2.788 1.602-.838.803-1.313 1.418-1.837 2.377l-.401.735-.146-.386c-.227-.597-.553-2.64-.553-3.463 0-.597.062-.804.324-1.066.442-.443 1.57-.998 2.515-1.238.885-.224 2.633-.187 3.187.068Zm-22.28.45c.253.171.606.525.784.787.27.398.313.605.267 1.265-.094 1.346-.954 2.154-2.292 2.154-.643 0-.875-.07-1.326-.397-.575-.417-.998-1.224-.998-1.904 0-.574.558-1.56 1.08-1.907.65-.433 1.842-.432 2.484.002Zm27.871-.106c.218.113.569.431.78.708.323.425.382.633.382 1.345s-.06.92-.383 1.346c-.503.66-1.02.913-1.872.913-.851 0-1.37-.253-1.872-.913-.325-.427-.383-.632-.383-1.36 0-.957.232-1.397 1.023-1.936.542-.37 1.711-.421 2.325-.103Zm-5.327 4.004c.223.496.22.534-.075 1.13a7.357 7.357 0 0 0-.477 1.388c-.223 1.004-.107 3.382.208 4.265.13.362.205.688.168.725-.073.073-1.32-.634-1.876-1.063a17.938 17.938 0 0 1-1.076-.977l-.732-.712.073-.71c.084-.83.702-2.2 1.376-3.052.469-.594 1.97-1.718 2.108-1.58.04.04.176.304.303.586Zm-27.965.01c.227.504.226.54-.04.992-.723 1.227-.905 3.528-.427 5.398.15.589.256 1.088.235 1.11-.13.129-1.92-1.081-2.726-1.842l-.957-.905.08-.678c.166-1.406 1.324-3.28 2.602-4.21.715-.52.95-.495 1.233.135Zm7.852 2.556c1.295.546 2.954.608 4.63.175.696-.18 1.265-.307 1.265-.282 0 .024-.247.451-.55.95-.661 1.091-1.513 2.13-2.072 2.53-.377.267-.472.279-1.123.133-1.642-.368-3.388-1.57-4.134-2.843-.195-.334-.332-.627-.304-.65.26-.227.925-.48 1.144-.435.15.03.665.22 1.144.422Zm27.546-.15c1.508.713 3.576.802 5.406.231.485-.151.897-.26.915-.242.018.018-.175.4-.429.85-.498.882-1.44 2.044-2.122 2.62-.409.343-.457.351-1.143.198-1.678-.376-3.582-1.704-4.21-2.937-.148-.29-.249-.544-.225-.565.128-.108.882-.473.988-.478.067-.003.437.142.82.323Zm-32.745-.006c.375.136.496.287.689.857.524 1.551 2.069 3.272 3.74 4.166l.856.458-.82.26c-.512.162-1.42.287-2.417.333l-1.597.074-.42-.662c-.932-1.473-1.325-3.484-.97-4.968.18-.748.229-.775.939-.518Zm28.14.045c.197.048.356.244.46.571.313.984.981 2.055 1.772 2.843.684.681 1.177 1.033 2.727 1.945.346.203-2.12.707-3.461.707h-1.172l-.413-.6c-.687-1.001-.994-1.948-1.068-3.301-.04-.74-.003-1.47.094-1.828.142-.523.198-.584.46-.502.164.051.434.126.6.165ZM6.97 37.651v3.49H4.647v-6.98h2.324v3.49Zm33.896 6.502v2.875h-3.554v-1.375c0-1.278-.023-1.4-.335-1.711a1.167 1.167 0 0 0-1.653 0c-.311.312-.335.433-.335 1.71v1.376H32.69l-.046-1.45c-.043-1.33-.074-1.471-.37-1.711-.46-.373-1.184-.339-1.597.075-.311.312-.335.433-.335 1.71v1.376h-2.324v-1.24c0-1.754-.255-2.182-1.3-2.182-.33 0-.535.099-.74.36-.243.31-.283.552-.283 1.711v1.35h-2.324v-1.142c0-1.267-.174-1.943-.552-2.145-.431-.232-1.117-.154-1.455.163-.291.274-.316.41-.316 1.711v1.414h-3.554V41.279h23.372v2.874Zm16.265 0v2.875h-2.324v-1.375c0-1.278-.023-1.4-.335-1.711a1.167 1.167 0 0 0-1.653 0c-.311.312-.335.433-.335 1.71v1.376H50.16V41.279h6.971v2.874Z" fill="#fff"/></svg>