<svg width="70" height="71" fill="none" xmlns="http://www.w3.org/2000/svg"><path fill-rule="evenodd" clip-rule="evenodd" d="M14.644.23c-.96.332-1.764.908-2.253 1.617-.78 1.132-.805 1.321-.805 6.138v4.418l-4.014.044-4.014.043-.907.446c-1.056.519-1.782 1.26-2.29 2.341l-.361.77v40.21l.323.647c.411.827 1.228 1.642 2.05 2.045l.643.317 11.69.036 11.688.036v4.882l-.925.069c-2.301.168-4.131 1.982-4.261 4.224-.047.804-.018.937.262 1.197l.314.292h26.424l.336-.336c.423-.42.435-.961.049-2.206-.545-1.76-2.455-3.202-4.242-3.202h-.68V59.34l11.689-.037 11.689-.037.729-.403c.88-.487 1.464-1.123 1.898-2.07l.324-.706-.036-20.157-.036-20.157-.366-.684c-.706-1.322-2.165-2.364-3.638-2.598l-.576-.091-.041-4.605-.041-4.605-.363-.684A4.85 4.85 0 0 0 62.729.4l-.754-.357-23.309-.03c-22.15-.03-23.345-.019-24.022.215Zm42.158 2.378-.311.582-.039 7.953-.038 7.954.365.287c.484.379.951.362 1.363-.05.33-.329.337-.377.337-2.606v-2.27l3.805.041c4.272.048 4.301.054 5.161 1.115l.426.526.036 15.305.036 15.306H58.48V35.076c0-11.605-.002-11.678-.284-12.036-.324-.411-.996-.489-1.438-.166-.26.188-.268.512-.335 12.001l-.068 11.808-1.583.038-1.583.038-.17-.82c-.303-1.463-1.35-2.44-2.76-2.576l-.648-.062-.562-1.377-.562-1.377.356-.42c.522-.618.725-1.203.723-2.09 0-.633-.087-.942-.43-1.544-.543-.952-2.232-2.607-3.079-3.015-1.178-.57-2.554-.37-3.492.503l-.353.329-.881-.395a17.84 17.84 0 0 0-1.396-.56c-.47-.151-.514-.209-.517-.668-.003-.58-.427-1.588-.862-2.054-.486-.52-1.261-.84-2.393-.986-3.256-.421-5.25.613-5.587 2.9-.09.606-.126.649-.732.875-.35.132-.93.384-1.287.562l-.648.323-.614-.467c-1.035-.788-2.252-.907-3.403-.333-.636.318-2.323 1.89-2.854 2.66-.852 1.234-.868 2.554-.046 3.746l.478.692-.533 1.33-.533 1.328-.678.084c-1.508.188-2.56 1.213-2.773 2.707l-.09.629-7.44.035-7.439.035.037-15.239.037-15.24.411-.58c.78-1.102.978-1.147 5.313-1.193l3.805-.04v14.482c0 14.34.003 14.486.276 14.732.378.342 1.042.318 1.411-.05l.301-.3.069-19.863c.05-14.75.11-19.932.228-20.136.237-.406.89-.991 1.28-1.146.222-.088 7.706-.139 21.152-.144l20.81-.009-.311.581Zm4.924-.435c.213.08.564.31.78.513.746.695.772.878.772 5.491v4.245h-4.8V8.19c0-2.657.055-4.375.147-4.616.45-1.191 1.91-1.851 3.101-1.402ZM17.252 4.415a1.84 1.84 0 0 0-.685.57c-.236.358-.253.953-.288 9.973-.042 10.572-.054 10.407.778 10.965l.466.313 7.555-.003c5.768-.001 7.635-.042 7.894-.172.186-.095.479-.38.651-.634l.313-.463v-9.656c0-8.92-.02-9.693-.24-10.135-.49-.977-.319-.958-8.604-.952-5.987.004-7.488.041-7.84.194Zm21.114.347c-.634.259-.784 1.14-.274 1.618.317.297.32.297 7.262.297h6.944l.28-.3c.35-.375.358-.94.017-1.36l-.262-.323-6.833-.027c-3.776-.016-6.968.027-7.134.095ZM31.88 15.226v8.958H18.305V6.267h13.574v8.959Zm6.232-5.478c-.431.431-.44 1.025-.019 1.419.317.297.321.297 7.243.297h6.926l.298-.316c.396-.42.38-.982-.038-1.4l-.337-.335H38.448l-.337.335Zm0 4.787c-.431.431-.44 1.025-.019 1.419.317.297.321.297 7.243.297h6.926l.298-.316c.396-.42.38-.982-.038-1.4l-.337-.335H38.448l-.337.335Zm0 4.787c-.185.185-.336.495-.336.69 0 .195.151.506.336.69l.337.336h13.736l.337-.336c.185-.184.336-.495.336-.69 0-.195-.151-.505-.336-.69l-.337-.335H38.448l-.337.335Zm-.038 4.768c-.396.42-.38.982.038 1.4l.337.335h3.839c2.561 0 3.952-.051 4.179-.154.695-.316.757-1.401.1-1.752-.174-.093-1.703-.145-4.234-.145h-3.96l-.3.316Zm-2.08 7.613c1.153.166 1.37.412 1.372 1.557.003 1.277.146 1.453 1.579 1.944.677.232 1.685.653 2.242.934 1.201.61 1.422.586 2.325-.243.352-.324.748-.627.88-.675.527-.19 1.626.567 2.603 1.793.731.916.7 1.325-.17 2.284-.377.415-.685.879-.685 1.03 0 .152.238.751.529 1.332.29.582.695 1.56.899 2.175.203.615.457 1.19.563 1.278.106.088.58.188 1.054.224 1.294.096 1.456.153 1.683.59.435.84.48.825-2.539.825-2.083 0-2.757-.041-2.79-.17l-.337-1.389c-.894-3.695-3.842-6.693-7.563-7.69-1.24-.334-3.998-.34-5.21-.011-1.041.28-2.628 1.005-3.468 1.581-2.177 1.494-3.903 4.181-4.357 6.784l-.156.895H18.99v-.386c0-.65.47-.945 1.601-1.006 1.22-.064 1.44-.24 1.813-1.459.153-.5.527-1.422.832-2.049.304-.626.553-1.29.553-1.476 0-.205-.27-.662-.685-1.16-.396-.474-.686-.957-.686-1.144 0-.575 1.757-2.501 2.57-2.818.438-.17.938.055 1.702.769.359.334.748.608.864.608.117 0 .783-.269 1.48-.598.698-.328 1.677-.731 2.178-.894.5-.164 1.002-.403 1.116-.531.13-.147.227-.602.26-1.226.066-1.212.327-1.547 1.31-1.684.967-.134 1.12-.134 2.094.006Zm.753 7.73c3.288.687 6.081 3.548 6.596 6.757l.09.563-8.416-.035-8.416-.035.048-.476c.145-1.44 1.191-3.336 2.557-4.633a8.37 8.37 0 0 1 7.541-2.14ZM67.94 52.328c0 3.51-.002 3.526-.335 4.015-.7 1.027 2.316.94-32.676.94H3.537l-.453-.307c-1.027-.697-1.023-.679-1.068-4.626l-.04-3.546H67.94v3.524Zm-26.395 9.469v2.393l-6.547.036-6.547.035v-4.929l6.547.036 6.547.035v2.394Zm3.76 4.78c.512.262 1.245.996 1.245 1.248 0 .076-4.598.127-11.594.127H23.362l.248-.424c.261-.446.757-.856 1.296-1.071.191-.077 4.316-.133 10.098-.138 9.44-.008 9.793 0 10.3.259Z" fill="#fff"/></svg>