<svg width="70" height="70" fill="none" xmlns="http://www.w3.org/2000/svg"><path fill-rule="evenodd" clip-rule="evenodd" d="M32.95.213c-2.023.438-3.628 1.33-5.128 2.851-1.252 1.27-1.968 2.412-2.493 3.976-.355 1.058-.368 1.211-.416 4.76-.055 4.043-.015 4.323.784 5.485.492.715 1.445 1.415 2.248 1.649.486.142.618.271.988.971.235.444.68 1.093.991 1.444.43.485.564.75.564 1.11v.474l-3.026 1.136c-3.308 1.24-3.998 1.642-4.914 2.862-.946 1.259-1.083 1.994-1.083 5.827v3.335h27.07v-3.335c0-3.82-.137-4.57-1.067-5.807-1.026-1.365-1.658-1.703-6.555-3.509l-1.401-.516v-.47c0-.357.136-.624.564-1.107.31-.35.756-1 .991-1.444.37-.7.502-.829.988-.971 1.317-.385 2.593-1.73 2.928-3.087.102-.411.14-1.842.11-4.17l-.046-3.543-.428-1.198c-.544-1.524-1.127-2.492-2.21-3.667C40.014.671 36.33-.519 32.949.213Zm4.025 2.319c2.115.55 4.102 2.146 5.038 4.047.55 1.116.91 2.522.914 3.564l.003.641-.597-.264c-.357-.158-1.167-.315-2.017-.391-2.094-.189-3.223-.673-4.598-1.972L35 7.479l-.718.678c-1.375 1.3-2.504 1.783-4.598 1.972-.85.076-1.66.233-2.017.391l-.597.264.003-.641c.003-.973.345-2.385.813-3.367 1.008-2.111 2.832-3.621 5.132-4.249.93-.254 2.974-.251 3.957.005ZM16.92 11.31l-.785.784 1.261 1.267 1.262 1.267h-2.673c-3.269 0-3.847.13-4.792 1.075-1.114 1.114-1.075.658-1.075 12.417v10.297h2.324V17.623l.336-.335c.334-.335.347-.336 3.108-.336h2.772l-1.263 1.268-1.263 1.268.823.815.823.814 2.63-2.63 2.63-2.629-2.667-2.666-2.667-2.667-.784.785Zm18.749-.316c.821.553 1.963 1.004 3.067 1.212l.796.15-.044 2.879c-.04 2.663-.067 2.926-.352 3.505-.718 1.457-2.15 2.495-3.695 2.678-1.485.175-3.264-.653-4.158-1.938-.677-.973-.794-1.637-.794-4.511v-2.617l.786-.148c1.103-.208 2.243-.66 3.007-1.194l.671-.47c.011-.007.334.197.716.454Zm-7.504 3.728v1.871l-.412-.395c-.47-.45-.745-1.289-.622-1.9.095-.478.698-1.447.9-1.447.081 0 .134.732.134 1.87Zm14.494-.98c.414.856.292 1.678-.35 2.369l-.465.5-.003-1.885c-.004-1.811.006-1.88.256-1.746.143.077.396.42.562.762Zm4.783 2.037v1.173h2.99c2.817 0 3.01.016 3.35.283l.36.284V32.19l-1.268-1.263-1.268-1.263-.814.823-.815.823 2.594 2.596c1.426 1.428 2.656 2.596 2.733 2.596.076 0 1.306-1.168 2.733-2.596l2.593-2.596-.814-.823-.814-.823-1.264 1.259-1.263 1.258-.039-7.512c-.038-7.404-.043-7.52-.334-8.06-.349-.644-1.019-1.304-1.687-1.66-.42-.223-.876-.26-3.726-.299l-3.247-.045v1.173Zm-12.819 7.833c.712.043 1.452.008 1.829-.087.348-.087.658-.134.69-.103.064.064-2.038 3.64-2.141 3.64-.063.002-2.055-3.292-2.172-3.591-.032-.082.076-.095.274-.033.179.056.863.134 1.52.174Zm-2.365 3.375c.606 1.008 1.102 1.857 1.102 1.887 0 .091-2.177 1.123-2.233 1.058-.075-.085-1.46-4.275-1.422-4.299.148-.089 1.16-.454 1.288-.464.09-.008.66.81 1.265 1.818Zm7.41-1.594c.368.131.646.3.619.376-.028.076-.345 1.03-.705 2.12-.36 1.091-.677 2.01-.706 2.043-.057.065-2.234-.967-2.234-1.058 0-.117 2.208-3.719 2.28-3.719.041 0 .377.107.745.238ZM28.71 29.868l1.114 3.345 2.588-1.295L35 30.623l2.588 1.295 2.587 1.295 1.115-3.345c.614-1.84 1.186-3.345 1.272-3.345.4 0 2.066.775 2.544 1.184.294.252.678.75.854 1.106.294.598.32.82.32 2.837v2.187H23.72l.003-2.187c.003-2.007.03-2.241.32-2.837.417-.854 1.2-1.505 2.32-1.93.502-.19.984-.349 1.072-.353.089-.004.652 1.472 1.275 3.338Zm21.069 9.062c-.074.282-.256.995-.405 1.584-.148.59-.303 1.105-.344 1.146-.041.04-.728-.313-1.527-.786l-1.453-.86-3.017 3.018-3.018 3.018.86 1.452c.473.8.828 1.484.79 1.523-.038.038-.785.26-1.658.491l-1.589.422v8.546l1.538.376c.846.206 1.59.422 1.653.48.064.056-.26.737-.718 1.512-.458.775-.832 1.443-.832 1.486 0 .042 1.347 1.422 2.993 3.067l2.993 2.991 1.388-.839c.764-.461 1.444-.838 1.512-.838.128 0 .156.085.684 2.085L49.944 70h8.51l.393-1.538c.216-.846.441-1.593.501-1.66.061-.069.754.254 1.572.731l1.464.854 3.004-3.004 3.004-3.004-.855-1.463c-.473-.81-.8-1.51-.734-1.572.067-.06.813-.278 1.659-.484L70 58.484v-8.552l-1.06-.28c-.582-.154-1.32-.348-1.64-.43-.32-.083-.581-.207-.581-.276 0-.069.377-.75.838-1.513l.839-1.389-2.99-2.993c-1.646-1.646-3.026-2.993-3.068-2.993-.043 0-.711.375-1.486.833-.775.458-1.455.781-1.513.718-.057-.064-.273-.808-.48-1.654l-.375-1.538h-8.571l-.134.513ZM0 55.303V70H22.559V40.605H0v14.698ZM57.014 41.87c.169.695.353 1.316.41 1.379.057.062.566.315 1.132.56l1.028.448 1.14-.664c.626-.365 1.2-.664 1.275-.664.167 0 3.49 3.3 3.49 3.465 0 .066-.305.623-.676 1.238l-.675 1.117.436 1.113.436 1.113 1.299.325 1.298.325.038 2.55.037 2.55-.516.135-1.315.339c-.44.112-.81.223-.825.247-.013.024-.22.521-.457 1.105l-.431 1.06.692 1.178.693 1.177-1.777 1.777-1.777 1.777-1.174-.694-1.173-.693-1.066.434a55.84 55.84 0 0 0-1.11.46c-.023.013-.135.384-.247.824-.112.44-.264 1.03-.338 1.312l-.133.513h-5.029l-.206-.718a52.337 52.337 0 0 1-.362-1.333c-.154-.61-.166-.62-1.269-1.051l-1.112-.436-1.118.675c-.614.371-1.17.675-1.233.675-.166 0-3.47-3.318-3.47-3.485 0-.077.3-.653.664-1.28l.664-1.14-.447-1.028c-.245-.565-.498-1.074-.56-1.131-.064-.057-.684-.241-1.38-.41l-1.264-.307V51.71l1.127-.294c.62-.162 1.238-.338 1.371-.391.134-.053.452-.578.708-1.166l.464-1.068-.673-1.119c-.37-.615-.673-1.18-.673-1.254 0-.178 3.305-3.488 3.484-3.488.076 0 .642.304 1.258.674l1.119.673 1.042-.453c.573-.25 1.073-.485 1.112-.524.038-.038.162-.43.274-.87.112-.439.264-1.03.338-1.311l.133-.513h5.018l.306 1.265ZM20.371 55.303v12.373H2.324V42.929H20.371v12.373Zm-15.86-9.024v1.162h13.536v-2.324H4.512v1.162Zm48.468-1.033c-1.17.19-1.878.424-2.95.98-2.998 1.554-4.8 4.512-4.822 7.914-.01 1.625.187 2.468.95 4.065.987 2.061 2.748 3.631 5.08 4.528.837.322 1.102.355 2.904.357 1.81.003 2.069-.028 2.985-.362 1.418-.516 2.39-1.134 3.428-2.18 1.05-1.057 1.665-2.025 2.174-3.422.334-.916.365-1.174.362-2.986-.002-1.801-.035-2.066-.357-2.904-.544-1.415-1.184-2.395-2.272-3.482-.792-.791-1.25-1.115-2.256-1.595-.694-.332-1.538-.667-1.877-.746-.902-.211-2.566-.294-3.35-.167Zm2.865 2.404c3.483.908 5.704 4.422 4.981 7.885-.534 2.562-2.728 4.756-5.29 5.29-4.068.849-8.094-2.42-8.094-6.57 0-4.425 4.174-7.706 8.403-6.605Zm-29.971 3.928-2.63 2.633 2.665 2.664 2.666 2.663.784-.784.784-.784-1.294-1.3-1.294-1.3h8.54v-2.323h-8.54l1.293-1.298 1.292-1.298-.744-.753c-.408-.414-.776-.753-.817-.753-.041 0-1.258 1.185-2.705 2.633Zm-21.361-.787v1.173l1.128-.04 1.128-.04V49.697l-1.128-.04-1.128-.04v1.174Zm4.511 0v1.162h9.024v-2.324H9.023v1.162Zm44.035-.951c-.97.268-1.506.612-2.251 1.44-1.943 2.161-1.233 5.597 1.44 6.976.904.466 2.529.518 3.598.115 1.104-.416 2.11-1.422 2.526-2.526.403-1.07.351-2.694-.115-3.598-.995-1.929-3.213-2.956-5.198-2.407Zm2.245 2.423c.618.346 1.162 1.26 1.162 1.953 0 .706-.553 1.578-1.225 1.934-.717.379-1.254.394-2.002.054-.652-.296-1.133-.907-1.242-1.576-.314-1.939 1.61-3.314 3.307-2.365Zm-50.791 3.04v1.162h13.535V54.14H4.512v1.163Zm0 4.511v1.162h13.535v-2.324H4.512v1.162Zm0 4.512v1.162h9.023v-2.324H4.512v1.162Zm11.347 0v1.162h2.188v-2.324h-2.188v1.162Z" fill="#fff"/></svg>