<svg width="66" height="70" fill="none" xmlns="http://www.w3.org/2000/svg"><path fill-rule="evenodd" clip-rule="evenodd" d="M32.177.157c-1.013.336-1.763.79-2.413 1.464-.781.808-8.25 14.825-8.25 15.482 0 .274.136.524.396.729.396.31.427.311 11.841.271 11.015-.038 11.456-.05 11.758-.323.173-.157.314-.455.314-.663 0-.209-.741-1.782-1.647-3.496s-1.628-3.164-1.603-3.222c.024-.058.625-.621 1.336-1.25l1.293-1.145h4.528c3.857 0 4.577-.034 4.86-.232.432-.303.45-1.139.032-1.556-.286-.286-.497-.298-5.208-.298h-4.91l-.496.406c-.273.223-.95.804-1.505 1.29-.554.486-1.03.856-1.057.823-.027-.033-.748-1.392-1.602-3.02-1.784-3.401-2.4-4.192-3.809-4.885-.783-.385-1.189-.486-2.115-.525-.685-.029-1.386.032-1.743.15Zm2.834 2.169c.956.442 1.376 1.024 3.156 4.375l1.682 3.166-.48.431c-2.131 1.914-2.069 1.842-2.02 2.341.06.597.683 1.108 1.19.977.192-.05.773-.47 1.291-.934.533-.478.996-.786 1.067-.712.158.166 2.093 3.848 2.093 3.982 0 .055-4.195.1-9.322.1-5.126 0-9.32-.058-9.32-.128 0-.315 6.538-12.443 6.933-12.862.925-.979 2.523-1.295 3.73-.736Zm10.376.11c-.385.488-.39.815-.025 1.267l.285.352 4.236.044c4.12.042 4.246.035 4.636-.272.485-.38.55-1.157.129-1.537-.24-.218-.784-.247-4.613-.247h-4.34l-.308.393ZM18.925 21.9c-.202.184-1.287 2.079-2.412 4.21-1.124 2.131-2.069 3.902-2.1 3.935-.03.034-.508-.337-1.063-.823a78.55 78.55 0 0 0-1.504-1.29l-.496-.406H1.402l-.31.393c-.405.515-.39.88.058 1.327l.366.366H10.639l1.299 1.132c.714.623 1.321 1.193 1.348 1.267.028.074-.602 1.358-1.4 2.854-1.543 2.895-1.69 3.4-1.118 3.861.326.265 1.197.275 22.917.275 22.38 0 22.58-.003 22.876-.298.164-.164.298-.484.298-.712 0-.507-8.044-15.786-8.51-16.165-.301-.245-1.228-.261-14.689-.261H19.293l-.367.335ZM1.383 23.695c-.572.289-.726.909-.351 1.41l.306.41 4.369.04c3.908.035 4.398.013 4.644-.21.42-.38.36-1.157-.117-1.533-.376-.295-.57-.309-4.437-.307-2.947.002-4.144.053-4.414.19ZM50.376 29.8c1.784 3.38 3.374 6.365 3.533 6.631l.29.485H13.157l.846-1.602c.465-.881.898-1.662.962-1.734.065-.073.54.245 1.058.707 1.02.908 1.656 1.084 2.09.58.636-.74.449-1.186-1.011-2.413L16 31.528l.577-1.069c.483-.895 3.021-5.684 3.47-6.546.127-.245.928-.26 13.61-.26h13.475l3.244 6.147ZM8.16 42.57a1.382 1.382 0 0 0-.469.327c-.09.112-1.35 2.443-2.8 5.181-1.652 3.122-2.721 5.316-2.867 5.884-.632 2.466.646 5.048 3.058 6.178l.846.397 20.145.039 20.146.04 2.278 2.666c1.253 1.468 2.422 2.706 2.598 2.753.176.048 2.388.087 4.916.088 5.305.003 5.463-.03 5.468-1.13.005-.943-.051-.954-5.08-.959l-4.537-.004-1.38-1.623c-.758-.893-1.379-1.659-1.379-1.702 0-.043 2.802-.099 6.227-.123l6.226-.045.942-.51c2.23-1.21 3.436-3.8 2.823-6.067-.228-.842-5.34-10.68-5.799-11.158-.283-.295-.5-.298-25.672-.326-13.963-.016-25.523.027-25.69.095Zm52.553 6.752c1.395 2.644 2.583 5.056 2.638 5.361.24 1.322-.662 2.983-1.935 3.56-.56.254-1.122.276-7.41.279l-6.805.003-.852-.97c-.941-1.071-1.38-1.276-1.942-.908-.504.33-.63.913-.312 1.45l.253.428-18.912-.003c-17.973-.004-18.941-.017-19.508-.275-1.284-.585-2.127-2.039-1.973-3.404.063-.56 1.995-4.43 4.618-9.246l.588-1.08h49.014l2.538 4.805ZM52.006 68.28c-.447.447-.463.813-.057 1.328l.309.393h4.28c3.634 0 4.332-.035 4.613-.232.434-.303.451-1.139.033-1.556-.284-.285-.497-.298-4.555-.298h-4.257l-.366.365Z" fill="#fff"/></svg>