<svg width="1600" height="1964" fill="none" xmlns="http://www.w3.org/2000/svg"><g filter="url('#filter0_f_335_136')" clip-path="url('#clip0_335_136')"><path d="M94.47 1027.17c-25.645 32.12-72.48 37.38-104.608 11.74-32.129-25.65-37.385-72.484-11.74-104.613 25.645-32.129 72.48-37.385 104.608-11.74 32.129 25.645 37.385 72.48 11.74 104.613ZM353.595 126.999c-25.645 32.129-72.48 37.385-104.608 11.74-32.129-25.645-37.385-72.48-11.74-104.608 25.645-32.129 72.479-37.385 104.608-11.74 32.129 25.645 37.385 72.48 11.74 104.608ZM1266 2560.59c-25.64 32.13-72.48 37.38-104.61 11.74-32.13-25.65-37.38-72.48-11.74-104.61 25.65-32.13 72.48-37.39 104.61-11.74 32.13 25.64 37.39 72.48 11.74 104.61ZM-30.922 1664.33c-25.645 32.13-72.479 37.38-104.608 11.74-32.128-25.65-37.385-72.48-11.74-104.61 25.645-32.13 72.48-37.38 104.608-11.74 32.129 25.65 37.385 72.48 11.74 104.61ZM-196.461 366.942c-19.611 24.569-55.425 28.589-79.994 8.978-24.569-19.611-28.589-55.426-8.978-79.995 19.611-24.568 55.426-28.588 79.995-8.977 24.568 19.611 28.588 55.425 8.977 79.994ZM603.659 933.886c-19.611 24.569-55.425 28.588-79.994 8.977-24.569-19.61-28.589-55.425-8.978-79.994 19.611-24.569 55.426-28.588 79.995-8.978 24.569 19.611 28.588 55.426 8.977 79.995ZM1660.46 1855.84c-19.61 24.57-55.43 28.59-80 8.98-24.56-19.61-28.58-55.43-8.97-79.99 19.61-24.57 55.42-28.59 79.99-8.98 24.57 19.61 28.59 55.42 8.98 79.99ZM480.984 2050.52c-19.61 24.57-55.425 28.59-79.994 8.98-24.569-19.61-28.588-55.42-8.978-79.99 19.611-24.57 55.426-28.59 79.995-8.98 24.569 19.61 28.588 55.43 8.977 79.99ZM462.238 1417.07c-19.61 24.57-55.425 28.59-79.994 8.98-24.569-19.61-28.588-55.43-8.978-80 19.611-24.57 55.426-28.59 79.995-8.98 24.569 19.62 28.588 55.43 8.977 80ZM1824.28 2582.67c-19.61 24.57-55.43 28.59-80 8.98-24.56-19.61-28.58-55.42-8.97-79.99 19.61-24.57 55.42-28.59 79.99-8.98 24.57 19.61 28.59 55.43 8.98 79.99ZM1092.04 2065.44c-19.61 24.57-55.42 28.59-79.99 8.98-24.569-19.61-28.588-55.43-8.98-80 19.61-24.57 55.43-28.58 80-8.97s28.59 55.42 8.97 79.99ZM266.561 572.934c-13.576 17.01-38.371 19.792-55.38 6.215-17.01-13.576-19.792-38.371-6.216-55.38 13.577-17.01 38.372-19.792 55.381-6.216 17.009 13.577 19.792 38.372 6.215 55.381ZM603.206 1762.64c-13.577 17.01-38.372 19.8-55.381 6.22-17.009-13.58-19.792-38.37-6.215-55.38 13.577-17.01 38.371-19.79 55.381-6.22 17.009 13.58 19.792 38.37 6.215 55.38ZM1049.01 1237.82c-13.58 17.01-38.37 19.79-55.38 6.21-17.009-13.57-19.792-38.37-6.215-55.38 13.575-17.01 38.375-19.79 55.385-6.21 17 13.57 19.79 38.37 6.21 55.38ZM115.851 1317.62c-13.576 17.01-38.371 19.79-55.38 6.21-17.01-13.58-19.792-38.37-6.215-55.38 13.576-17.01 38.371-19.79 55.38-6.21 17.009 13.57 19.792 38.37 6.215 55.38ZM797.308 1426.82c-13.576 17.01-38.371 19.79-55.38 6.21-17.01-13.57-19.792-38.37-6.215-55.38 13.576-17.01 38.371-19.79 55.38-6.21 17.01 13.57 19.792 38.37 6.215 55.38ZM-379.579 989.391c-13.577 17.009-38.372 19.789-55.381 6.216-17.009-13.577-19.792-38.372-6.215-55.381 13.576-17.009 38.371-19.792 55.381-6.215 17.009 13.576 19.791 38.371 6.215 55.38ZM1461.08 2122.47c-13.57 17.01-38.37 19.79-55.38 6.21-17.01-13.57-19.79-38.37-6.21-55.38 13.57-17.01 38.37-19.79 55.38-6.21 17.01 13.58 19.79 38.37 6.21 55.38Z" fill="#196BB1"/><path d="M-236.859 331.843 303.615 84.259m253.928 814.877-255.54-811.25m-536.341 243.967 468.232 219.12M-232.73 335.41l-181.75 623.55m449.297 20.345 200.57-422.534m-187.69 438.36 515.757-90.283M50.371 996l370.767 383.34M51.197 997.764l31.227 289.346m335.757 97.21-339.54-93.99m-169.133 325.98 176.885-322.67m-175.495 321.38 499.196-226.75m-496.147 227.09 525.595 397.12m609.178 20.31-611.06-14.92m769.77 498.67-771.332-499.15m770.112 497.57-160.27-484.23m163.29 480.29 571.96 33.01m-353.89-439.95 356.06 441.06m-360.9-440.84 181.32-272.08m-176.17 275.15-221.37 414.9m218.15-413.36-370.7-71.8m-484.199-303.33-133.722 274.21m587.461-799.25L568.847 902.076m449.493 307.634 27.97 815.6m-28.24-816.74 409.62 896.14m-410.21-897 592.28 602.73m168.34 737.23-159.72-723.55m-601.26-611.9-257.714 190.93m-338.922-28.08 147.175-476.363m-147.7 487.103 344.653 17.4m-342.012-15.5 146.469 372.37m193.876-355.64-191.377 326.8m474.482 299.77-278.311-625.5m279.481 626.84-475.15-291.87m-10.571-844.3L240.284 554.635M37.42 983.59l-446.674-15.919m318.701 651.409-321.284-653.087M94.47 1027.17c-25.645 32.12-72.48 37.38-104.608 11.74-32.129-25.65-37.385-72.484-11.74-104.613 25.645-32.129 72.48-37.385 104.608-11.74 32.129 25.645 37.385 72.48 11.74 104.613Zm259.125-900.171c-25.645 32.129-72.48 37.385-104.608 11.74-32.129-25.645-37.385-72.48-11.74-104.608 25.645-32.129 72.479-37.385 104.608-11.74 32.129 25.645 37.385 72.48 11.74 104.608ZM1266 2560.59c-25.64 32.13-72.48 37.38-104.61 11.74-32.13-25.65-37.38-72.48-11.74-104.61 25.65-32.13 72.48-37.39 104.61-11.74 32.13 25.64 37.39 72.48 11.74 104.61ZM-30.922 1664.33c-25.645 32.13-72.479 37.38-104.608 11.74-32.128-25.65-37.385-72.48-11.74-104.61 25.645-32.13 72.48-37.38 104.608-11.74 32.129 25.65 37.385 72.48 11.74 104.61ZM-196.46 366.942c-19.611 24.569-55.425 28.589-79.994 8.978-24.569-19.611-28.589-55.426-8.978-79.995 19.611-24.568 55.426-28.588 79.995-8.977 24.568 19.611 28.588 55.425 8.977 79.994Zm800.12 566.944c-19.611 24.569-55.425 28.588-79.994 8.977-24.569-19.61-28.589-55.425-8.978-79.994 19.611-24.569 55.426-28.588 79.995-8.978 24.569 19.611 28.588 55.426 8.977 79.995ZM1660.46 1855.84c-19.61 24.57-55.43 28.59-80 8.98-24.56-19.61-28.58-55.43-8.97-79.99 19.61-24.57 55.42-28.59 79.99-8.98 24.57 19.61 28.59 55.42 8.98 79.99ZM480.984 2050.52c-19.61 24.57-55.425 28.59-79.994 8.98-24.569-19.61-28.588-55.42-8.978-79.99 19.611-24.57 55.426-28.59 79.995-8.98 24.569 19.61 28.588 55.43 8.977 79.99Zm-18.746-633.45c-19.61 24.57-55.425 28.59-79.994 8.98-24.569-19.61-28.588-55.43-8.978-80 19.611-24.57 55.426-28.59 79.995-8.98 24.569 19.62 28.588 55.43 8.977 80Zm1362.042 1165.6c-19.61 24.57-55.43 28.59-80 8.98-24.56-19.61-28.58-55.42-8.97-79.99 19.61-24.57 55.42-28.59 79.99-8.98 24.57 19.61 28.59 55.43 8.98 79.99Zm-732.24-517.23c-19.61 24.57-55.42 28.59-79.99 8.98-24.569-19.61-28.588-55.43-8.98-80 19.61-24.57 55.43-28.58 80-8.97s28.59 55.42 8.97 79.99ZM266.561 572.934c-13.576 17.01-38.371 19.792-55.38 6.215-17.01-13.576-19.792-38.371-6.216-55.38 13.577-17.01 38.372-19.792 55.381-6.216 17.009 13.577 19.792 38.372 6.215 55.381ZM603.206 1762.64c-13.577 17.01-38.372 19.8-55.381 6.22-17.009-13.58-19.792-38.37-6.215-55.38 13.577-17.01 38.371-19.79 55.381-6.22 17.009 13.58 19.792 38.37 6.215 55.38Zm445.804-524.82c-13.58 17.01-38.37 19.79-55.38 6.21-17.009-13.57-19.792-38.37-6.215-55.38 13.575-17.01 38.375-19.79 55.385-6.21 17 13.57 19.79 38.37 6.21 55.38Zm-933.159 79.8c-13.576 17.01-38.371 19.79-55.38 6.21-17.01-13.58-19.792-38.37-6.215-55.38 13.576-17.01 38.371-19.79 55.38-6.21 17.009 13.57 19.792 38.37 6.215 55.38Zm681.457 109.2c-13.576 17.01-38.371 19.79-55.38 6.21-17.01-13.57-19.792-38.37-6.215-55.38 13.576-17.01 38.371-19.79 55.38-6.21 17.01 13.57 19.792 38.37 6.215 55.38ZM-379.579 989.391c-13.577 17.009-38.372 19.789-55.381 6.216-17.009-13.577-19.792-38.372-6.215-55.381 13.576-17.009 38.371-19.792 55.381-6.215 17.009 13.576 19.791 38.371 6.215 55.38ZM1461.08 2122.47c-13.57 17.01-38.37 19.79-55.38 6.21-17.01-13.57-19.79-38.37-6.21-55.38 13.57-17.01 38.37-19.79 55.38-6.21 17.01 13.58 19.79 38.37 6.21 55.38Z" stroke="#196BB1" stroke-width="6"/></g><defs><clipPath id="clip0_335_136"><path fill="#fff" d="M0 0h1600v1964H0z"/></clipPath><filter id="filter0_f_335_136" x="-460.785" y="-4.871" width="2308.5" height="2619.96" filterUnits="userSpaceOnUse" color-interpolation-filters="sRGB"><feFlood flood-opacity="0" result="BackgroundImageFix"/><feBlend in="SourceGraphic" in2="BackgroundImageFix" result="shape"/><feGaussianBlur stdDeviation="4" result="effect1_foregroundBlur_335_136"/></filter></defs></svg>