<svg width="70" height="70" fill="none" xmlns="http://www.w3.org/2000/svg"><path fill-rule="evenodd" clip-rule="evenodd" d="M31.39.347c-.308.308-.346.468-.348 1.448l-.002 1.101-.81.254c-.445.14-1.3.483-1.901.764l-1.093.509-.769-.728c-.647-.613-.854-.728-1.303-.728-.504 0-.678.145-3.183 2.653-2.505 2.507-2.65 2.682-2.65 3.187 0 .449.115.656.727 1.304l.727.77-.509 1.093c-.28.602-.623 1.458-.762 1.904l-.254.81-1.1.002c-.979.002-1.139.04-1.447.35-.19.19-.346.444-.346.564 0 .192-.505.218-4.183.218-2.87 0-4.364.054-4.763.172-.775.23-1.944 1.4-2.173 2.176-.131.444-.172 5.293-.172 20.59V58.77h-.795c-1.223 0-1.867.254-2.67 1.055-.962.958-1.098 1.489-1.03 4 .054 1.932.062 1.978.58 3.025.631 1.28 1.45 2.083 2.76 2.704l.944.447H66.256l.942-.447c1.31-.621 2.13-1.423 2.762-2.704.517-1.047.526-1.093.579-3.025.065-2.392-.072-2.977-.918-3.92-.723-.804-1.526-1.135-2.755-1.135h-.822V38.76c0-15.05-.042-20.148-.168-20.57-.092-.308-.442-.866-.778-1.24-.974-1.084-1.21-1.128-6.136-1.128-3.702 0-4.208-.026-4.208-.218 0-.12-.156-.374-.347-.565-.308-.309-.468-.347-1.446-.349l-1.1-.002-.254-.81a19.317 19.317 0 0 0-.763-1.904l-.509-1.094.728-.77c.611-.647.727-.854.727-1.303 0-.505-.145-.68-2.65-3.187-2.505-2.508-2.68-2.653-3.184-2.653-.449 0-.656.115-1.302.727l-.767.726-1.247-.58c-.686-.318-1.543-.659-1.905-.756l-.659-.176V1.801c0-.987-.037-1.145-.346-1.454L39.384 0h-7.647l-.346.347Zm6.428 2.842c0 .84.04.97.413 1.343.227.227.533.412.68.412.513 0 2.344.708 3.678 1.422 1.575.842 1.77.836 2.713-.087l.638-.626 1.586 1.593 1.586 1.592-.63.62c-.923.906-.93 1.14-.085 2.723.71 1.332 1.417 3.165 1.417 3.677 0 .148.186.454.413.682.372.372.503.413 1.34.413h.929v4.52h-.929c-.837 0-.968.04-1.34.413-.227.227-.413.534-.413.682 0 .512-.707 2.345-1.417 3.677-.846 1.583-.838 1.817.084 2.723l.631.62-1.586 1.592-1.586 1.592-.638-.625c-.943-.923-1.138-.93-2.713-.087-1.334.713-3.165 1.421-3.677 1.421-.148 0-.454.186-.681.413-.373.373-.413.504-.413 1.342v.93h-4.516v-.93c0-.838-.04-.97-.412-1.342-.227-.227-.534-.413-.681-.413-.512 0-2.344-.708-3.678-1.421-1.575-.842-1.77-.836-2.712.087l-.639.625-1.586-1.592-1.586-1.592.63-.62c.923-.906.93-1.14.086-2.723-.711-1.332-1.418-3.165-1.418-3.677 0-.148-.186-.455-.412-.682-.373-.372-.503-.413-1.341-.413h-.928v-4.52h.928c.838 0 .968-.04 1.34-.413.227-.227.413-.534.413-.682 0-.513.707-2.346 1.42-3.681.842-1.577.835-1.771-.087-2.715l-.625-.64 1.59-1.587 1.591-1.588.62.632c.905.923 1.139.93 2.72.085 1.33-.712 3.162-1.42 3.674-1.42.147 0 .454-.185.68-.412.373-.373.413-.504.413-1.343V2.26h4.516v.93Zm-3.81 3.684c-6.105.928-10.473 5.654-10.82 11.704-.335 5.875 3.516 11.106 9.338 12.683 1.509.41 4.46.43 5.915.044 7.245-1.925 11.192-9.138 8.837-16.151-1.14-3.4-4.144-6.45-7.499-7.62-1.791-.624-4.197-.9-5.771-.66Zm4.54 2.633c1.705.544 2.867 1.27 4.213 2.63 1.327 1.34 2.185 2.815 2.64 4.534.331 1.256.328 3.848-.006 5.081-.29 1.066-1.065 2.718-1.56 3.325l-.347.424-.09-.424c-.462-2.194-1.048-3.4-2.245-4.617l-.688-.7.226-.52c.666-1.536.654-3.155-.035-4.629-.586-1.254-1.402-2.08-2.674-2.71-1.008-.498-1.141-.528-2.422-.528-1.28 0-1.414.03-2.422.528-1.284.635-2.084 1.453-2.706 2.767-.405.857-.446 1.066-.441 2.286.003 1.094.065 1.479.334 2.083l.33.741-.59.573c-1.175 1.142-1.74 2.253-2.369 4.655l-.13.495-.584-.898c-1.985-3.043-2.078-7.113-.238-10.428.644-1.161 2.465-3.018 3.63-3.702.958-.563 2.387-1.102 3.403-1.286 1.239-.224 3.55-.069 4.77.32Zm-1.946 4.228c.776.23 1.945 1.4 2.174 2.175.39 1.325.115 2.381-.882 3.38-1.428 1.429-3.24 1.429-4.667 0-1.428-1.43-1.428-3.241 0-4.674.99-.993 2.056-1.271 3.375-.881Zm-20.235 5.479v1.13h-3.041c-3.04 0-3.04 0-3.387.347l-.347.347V55.816l.347.346.346.347h50.55l.346-.347.347-.347V21.037l-.347-.347c-.346-.347-.346-.347-3.387-.347h-3.04v-2.26h8.34l.346.347.346.346V58.77H7.334V18.776l.347-.346.346-.347h8.34v1.13Zm16.864 2.832c.919.453 1.084.488 2.338.488 1.273 0 1.41-.03 2.4-.523l1.049-.522.538.522c.296.288.77.992 1.054 1.566.499 1.009.516 1.094.52 2.613l.005 1.57-1.059.526c-1.583.785-2.624 1.02-4.516 1.02s-2.933-.235-4.516-1.02l-1.058-.525.004-1.554c.005-1.441.037-1.623.447-2.498.409-.873 1.53-2.303 1.723-2.197.046.025.528.265 1.072.534Zm-16.864.777c0 .12.156.374.346.565.309.309.466.347 1.453.347h1.106l.176.659c.097.362.437 1.22.755 1.907l.58 1.248-.727.768c-.61.647-.726.854-.726 1.303 0 .505.146.68 2.65 3.187 2.506 2.508 2.68 2.653 3.184 2.653.45 0 .656-.115 1.303-.728l.77-.728 1.092.51c.6.28 1.456.623 1.902.763l.81.254.001 1.101c.002.98.04 1.14.348 1.448l.347.347h7.646l.347-.347c.309-.31.346-.467.346-1.454v-1.107l.659-.177c.362-.096 1.22-.437 1.905-.756l1.247-.58.767.727c.646.612.853.727 1.302.727.504 0 .679-.145 3.184-2.653 2.505-2.507 2.65-2.682 2.65-3.187 0-.45-.115-.656-.727-1.304l-.728-.77.51-1.093c.279-.602.622-1.458.762-1.904l.254-.81 1.1-.002c.978-.002 1.138-.04 1.446-.35.19-.19.347-.444.347-.564 0-.188.315-.219 2.258-.219h2.258v31.645H11.85V22.603h2.258c1.943 0 2.259.03 2.259.219Zm5.645 18.049c-.693.218-1.874 1.443-2.087 2.162-.232.787-.232 5.82 0 6.608.23.776 1.398 1.946 2.174 2.175.861.255 3.668.222 4.473-.053 1.085-.37 2.214-1.867 2.214-2.935 0-.194-.178-.23-1.13-.23-.923 0-1.128.039-1.128.218 0 .12-.156.374-.347.565-.326.326-.438.347-1.911.347-1.474 0-1.586-.02-1.912-.347-.343-.344-.346-.369-.346-3.044s.003-2.7.346-3.044c.326-.326.438-.346 1.912-.346s1.585.02 1.911.346c.19.191.347.445.347.565 0 .18.205.219 1.129.219.95 0 1.129-.037 1.129-.231 0-1.068-1.13-2.565-2.214-2.935-.775-.264-3.766-.29-4.56-.04Zm8.25.162-.347.347v10.608h2.259v-4.52h.944c1.127 0 1.727.34 2.534 1.44.505.69 1.037 2.094 1.037 2.74 0 .33.03.34 1.13.34h1.128l-.002-.389c-.006-1.083-.792-3.23-1.508-4.115l-.27-.334.718-.725c1.406-1.415 1.423-3.302.044-4.71-.898-.916-1.4-1.029-4.588-1.029-2.714 0-2.736.003-3.08.347Zm10.16 0-.346.347v10.608h2.258l.006-2.649.006-2.649 1.266 2.494c1.098 2.166 1.321 2.514 1.692 2.644.484.168.934.045 1.284-.354.128-.145.744-1.28 1.369-2.523l1.137-2.26.007 2.648.008 2.649h2.258V41.38l-.347-.347c-.39-.39-.993-.453-1.421-.149-.153.109-1.072 1.794-2.04 3.744-.97 1.95-1.796 3.546-1.838 3.546-.04 0-.867-1.596-1.836-3.546-.97-1.95-1.888-3.635-2.04-3.744-.43-.304-1.032-.241-1.422.149Zm-4.08 2.26c.22.219.347.508.347.784 0 .275-.128.565-.346.783-.334.334-.417.347-2.258.347h-1.912v-2.26h1.912c1.841 0 1.924.012 2.258.346Zm-8.685 18.532c0 .438.077 1.058.171 1.378.23.776 1.399 1.946 2.174 2.175.815.241 10.301.241 11.116 0 .776-.23 1.945-1.4 2.174-2.175.094-.32.171-.94.171-1.378v-.796H67.61l.347.347c.326.327.346.438.346 1.926 0 .869-.077 1.841-.172 2.16-.229.777-1.398 1.947-2.173 2.176-.845.25-59.95.25-60.794 0-.775-.229-1.944-1.4-2.173-2.175-.095-.32-.172-1.292-.172-2.16 0-1.49.02-1.6.347-1.927l.346-.347h24.146v.796Zm13.548-.012c0 .643-.062.845-.346 1.13l-.346.347H30.608l-.346-.347c-.285-.285-.347-.487-.347-1.13v-.784h11.29v.784Z" fill="#6A6A6A"/></svg>