<svg width="59" height="70" fill="none" xmlns="http://www.w3.org/2000/svg"><path fill-rule="evenodd" clip-rule="evenodd" d="M25.432.083c-6.73.523-12.305 1.842-16.711 3.954-4.37 2.094-7.062 4.766-7.704 7.645-.184.822-.18 45.793.004 46.616 1.091 4.89 8.143 9.067 18.275 10.825 6.754 1.172 14.638 1.17 21.405-.007 5.115-.889 10.227-2.722 13.28-4.762 2.658-1.776 4.387-3.93 4.862-6.057.182-.818.185-45.805.002-46.622C57.599 6.095 48.84 1.605 36.613.279 34.27.025 27.67-.091 25.432.083Zm7.704 2.876c9.607.525 17.601 3.044 21.21 6.684 2.291 2.31 2.292 4.577.003 6.866-6.802 6.802-27.336 8.94-41.189 4.29-1.976-.664-5.039-2.19-6.343-3.161-2.571-1.914-3.52-3.89-2.795-5.823C5.703 7.33 15.204 3.575 26.42 2.963c2.908-.159 3.877-.16 6.717-.004ZM6.41 20.889c8.386 5.164 23.93 6.793 37.02 3.877 4.192-.933 8.964-2.954 11.425-4.838l1.268-.97-.04 4.835-.041 4.835-.367.71c-.534 1.034-1.01 1.594-2.124 2.5-3.463 2.819-9.123 4.738-16.804 5.7-2.833.353-10.797.353-13.634 0-8.966-1.12-15.768-3.807-18.345-7.247-.98-1.309-1.017-1.556-1.017-6.776v-4.572l.852.679c.469.373 1.282.943 1.807 1.266ZM4.674 34.25c1.078.882 1.937 1.416 3.666 2.283 10.735 5.38 29.656 5.73 41.567.769 2.023-.843 4.267-2.147 5.522-3.209l.614-.519.041 1.08c.023.593.023 2.772 0 4.843l-.041 3.763-.393.75c-1.477 2.818-6.111 5.432-12.356 6.968-7.5 1.846-16.996 2.006-24.816.42-7.186-1.457-12.636-4.283-14.271-7.4l-.387-.738-.04-4.824c-.023-2.654-.007-4.825.036-4.825.042 0 .428.288.858.64Zm1.908 15.941c3.916 2.384 9.49 4.044 16.333 4.863 2.921.35 11.113.35 14.039 0 8.105-.97 14.505-3.152 18.31-6.245l.857-.697-.039 4.829-.039 4.828-.4.821c-.482.993-1.807 2.36-3.147 3.246-8.618 5.701-26.778 6.976-39.336 2.76-1.976-.663-5.039-2.19-6.343-3.16-1.31-.975-2.115-1.866-2.62-2.898l-.377-.77-.039-4.827-.039-4.829.857.697a21.749 21.749 0 0 0 1.983 1.382Z" fill="#6A6A6A"/></svg>