<svg width="160" height="150" fill="none" xmlns="http://www.w3.org/2000/svg"><path fill-rule="evenodd" clip-rule="evenodd" d="M71.799.846c-.596.597-.797 1.311-1.122 3.994-.765 6.316-.631 5.893-2.071 6.538l-1.289.577-3.402-2.66c-3.879-3.034-4.48-3.375-5.49-3.12-.4.1-3.084 2.559-5.965 5.463-4.481 4.517-5.238 5.42-5.238 6.237 0 .723.687 1.857 2.814 4.64 1.548 2.026 2.815 3.733 2.815 3.793 0 .06-.222.666-.494 1.346-.548 1.372-.306 1.289-5.604 1.927-5.882.707-5.786.55-5.786 9.479 0 6.62.22 8.118 1.278 8.685.322.173 2.242.525 4.267.783 5.399.688 5.246.636 5.872 2.027.641 1.423.882.93-2.801 5.738-1.772 2.313-2.361 3.325-2.361 4.054 0 .84.723 1.7 5.293 6.3 6.575 6.618 5.922 6.472 11.083 2.469l3.685-2.86 1.305.556 1.305.555.646 4.79c.565 4.193.735 4.864 1.364 5.374.656.532 1.37.583 8.155.583 6.785 0 7.5-.051 8.155-.583.63-.51.8-1.18 1.364-5.374l.645-4.79 1.319-.56 1.319-.562 3.667 2.865c5.141 4.016 4.494 4.16 11.074-2.463 4.57-4.6 5.293-5.46 5.293-6.3 0-.73-.589-1.742-2.361-4.054-3.684-4.81-3.443-4.313-2.797-5.748.622-1.38.261-1.26 6.042-2.032 1.949-.26 3.798-.61 4.111-.778 1.038-.556 1.26-2.081 1.26-8.675 0-8.928.095-8.772-5.786-9.48-5.298-.637-5.056-.554-5.604-1.926-.272-.68-.494-1.285-.494-1.346 0-.06 1.267-1.767 2.815-3.793 2.142-2.804 2.814-3.914 2.814-4.65 0-.836-.74-1.71-5.404-6.381-4.211-4.218-5.583-5.413-6.213-5.413-.54 0-2.086.978-4.648 2.94l-3.838 2.94-1.285-.575-1.284-.575-.645-4.758c-.564-4.158-.736-4.831-1.364-5.34-.656-.533-1.37-.584-8.204-.584-7.412 0-7.492.007-8.21.727Zm12.745 5.303c.097.56.347 2.476.555 4.258.238 2.037.563 3.454.874 3.815.566.655 6.454 3.125 7.451 3.125.362 0 1.057-.326 1.543-.723.486-.398 2.053-1.62 3.482-2.716l2.599-1.993L104 14.86c1.624 1.62 2.951 3.088 2.948 3.264-.002.175-1.12 1.743-2.484 3.484-1.364 1.74-2.569 3.52-2.678 3.956-.133.53.053 1.294.564 2.317.42.839 1.007 2.27 1.305 3.182.308.942.846 1.856 1.248 2.12.388.255 2.592.708 4.896 1.006l4.19.542.087 4.3c.101 5.007.75 4.355-5.064 5.092-3.845.486-4.664.837-5.053 2.16-.108.366-.691 1.838-1.298 3.273-1.318 3.12-1.381 2.891 2.011 7.303l2.396 3.116-3.078 3.095-3.078 3.095-3.425-2.64c-3.84-2.96-4.343-3.1-6.728-1.891-.812.411-2.083.93-2.826 1.152-1.994.597-2.399 1.318-2.834 5.047-.208 1.778-.458 3.691-.555 4.251l-.178 1.018H75.75l-.177-1.018c-.097-.56-.347-2.473-.555-4.251-.435-3.73-.84-4.45-2.834-5.047-.743-.222-2.014-.74-2.826-1.152-2.385-1.21-2.887-1.068-6.728 1.891l-3.425 2.64-3.075-3.092-3.075-3.092 2.563-3.355c1.41-1.845 2.641-3.669 2.737-4.051.105-.417-.132-1.31-.588-2.223-.42-.839-1-2.249-1.288-3.133-.29-.884-.78-1.838-1.09-2.12-.373-.337-1.835-.675-4.288-.992-2.047-.264-4.043-.548-4.434-.63-.705-.147-.712-.194-.626-4.447l.087-4.299 4.19-.542c2.304-.298 4.508-.751 4.896-1.006.402-.264.94-1.178 1.248-2.12.298-.911.885-2.343 1.305-3.182.511-1.023.697-1.787.564-2.317-.109-.436-1.314-2.216-2.678-3.956-1.364-1.74-2.482-3.309-2.484-3.484-.003-.176 1.324-1.645 2.948-3.264l2.952-2.945 2.599 1.993a212.06 212.06 0 0 1 3.482 2.716c.486.397 1.17.723 1.52.723 1.157 0 7.173-2.586 7.597-3.265.224-.358.57-2.06.77-3.783.2-1.723.443-3.59.539-4.15l.174-1.018h8.617l.178 1.018Zm-8.796 15.097c-2.377.577-5.912 2.426-7.767 4.062-.88.776-2.246 2.369-3.036 3.538-5.689 8.425-3.474 19.779 4.96 25.43 10.416 6.977 24.263 1.776 27.847-10.461.861-2.938.733-7.212-.31-10.337-.993-2.978-3.097-6.218-5.307-8.175-1.865-1.65-5.887-3.68-8.261-4.17-2.164-.445-6.046-.391-8.126.113Zm9.707 5.729c8.563 4.016 10.55 14.838 3.942 21.47-5.253 5.274-13.435 5.244-18.742-.068-7.12-7.129-4.039-18.886 5.807-22.151.768-.255 2.336-.382 4.065-.329 2.4.074 3.127.233 4.928 1.078Zm-7.131 54.727c-.68.68-.768 1.04-.768 3.132v2.364h-53.68l-.68.724c-.653.698-.68.98-.68 7.339v6.613l.824.649c1.084.854 2.07.821 3.146-.106l.878-.755.1-4.726.101-4.727h49.991v2.022c0 2.438.412 3.452 1.604 3.947.694.287 1.102.287 1.796 0 1.192-.495 1.604-1.509 1.604-3.947v-2.022H130.407v4.713c0 4.586.021 4.733.768 5.481 1.232 1.235 3.002.998 3.778-.506.356-.689.458-2.25.458-7.024 0-6.099-.005-6.142-.768-6.906l-.768-.77H82.56v-2.363c0-2.091-.088-2.452-.768-3.132-.484-.485-1.125-.769-1.734-.769-.61 0-1.25.284-1.734.769Zm-11.7 19.658c-.578.394-1.345 1.114-1.704 1.6-.65.877-.655 1.066-.655 21.982s.006 21.105.654 21.982c.36.486 1.127 1.206 1.705 1.6l1.05.715 11.43-.089c11.253-.088 11.446-.1 12.408-.788 2.061-1.472 1.993-.673 1.993-23.42s.068-21.948-1.993-23.42c-.962-.688-1.155-.7-12.408-.788l-11.43-.089-1.05.715Zm21.878 23.582v19.264h-19.39v-38.528h19.39v19.264ZM1.365 106.358C.049 106.996 0 107.579 0 122.465v14.252l.768.768.767.769h16.603v.736c0 .434-.96 1.989-2.345 3.796-2.619 3.417-2.88 4.358-1.578 5.663l.767.769h19.76l.767-.769c1.288-1.291 1.032-2.218-1.57-5.677-1.286-1.709-2.341-3.425-2.346-3.813l-.008-.705h16.603l.768-.769.767-.768-.01-14.502c-.01-15.286.01-15.078-1.454-15.859-.909-.484-45.895-.483-46.894.002Zm112.155.182c-2.146 1.074-2.188 1.347-2.189 14.212v11.471l-2.502 6.051c-1.669 4.036-2.502 6.458-2.502 7.274 0 1.443.863 2.806 2.103 3.321.636.263 7.395.337 25.177.276l24.308-.084.953-.955c1.728-1.73 1.634-2.39-1.377-9.753l-2.691-6.579v-11.596c0-11.421-.011-11.609-.678-12.459-1.369-1.743-1.18-1.727-21.125-1.727-16.875 0-18.473.046-19.477.548Zm-68.8 15.583v11.12H5.004v-22.24H44.72v11.12Zm105.076-1.566v9.553h-33.462v-19.107h33.462v9.554Zm-72.083 13.841c-1.938.529-3.51 3.022-3.142 4.985.54 2.886 3.786 4.405 6.406 2.998 2.765-1.486 2.89-5.662.224-7.413-.85-.557-2.53-.831-3.488-.57Zm74.92 5.266 1.796 4.385-21.13.081c-11.622.044-21.186.024-21.255-.045-.069-.068.685-2.114 1.674-4.546l1.799-4.422 17.66.081 17.659.081 1.797 4.385Zm-73.256-.992c.059.302-.098.522-.372.522-.581 0-.932-.51-.657-.956.283-.458.907-.195 1.03.434Zm-52.795 1.103c0 1.26.19 1.771 1.109 2.976l1.109 1.455h-3.768c-2.071 0-3.767-.072-3.767-.16 0-.087.423-.743.939-1.456.735-1.017.938-1.626.938-2.816v-1.52h3.44v1.521Z" fill="#2C2C2C"/></svg>