<svg width="50" height="70" fill="none" xmlns="http://www.w3.org/2000/svg"><path fill-rule="evenodd" clip-rule="evenodd" d="M20.045.105c-.73.218-1.728.989-2.132 1.647-.54.88-.638 1.796-.641 5.956l-.003 3.576-1.125.448C8.721 14.692 3.203 20.87 1.177 28.486.58 30.728.362 32.45.359 34.941c-.003 2.508.236 4.427.78 6.268l.363 1.231.079 10.125c.074 9.594.092 10.152.338 10.65.29.586 1.018 1.133 1.685 1.267l.441.088v2.07c0 2.754.197 3.36 1.09 3.36.896 0 1.091-.605 1.091-3.376v-2.088l.512-.003c.694-.004 1.566-.424 1.923-.928.47-.663.565-1.603.565-5.657v-3.815l.852.661c2.871 2.228 6.5 3.884 10.259 4.68 1.785.38 5.738.52 7.808.28 4.119-.48 8.481-2.216 11.755-4.675l1.206-.907.045 4.259c.04 3.86.068 4.307.304 4.783.29.587 1.017 1.134 1.685 1.268l.44.088v2.07c0 2.754.197 3.36 1.091 3.36.895 0 1.09-.605 1.09-3.376v-2.088l.512-.003c.695-.004 1.566-.424 1.923-.928.163-.228.356-.736.43-1.129.08-.427.135-4.492.135-10.133v-9.42l.336-1.165c.718-2.483.822-3.344.822-6.774 0-2.813-.038-3.41-.312-4.766-.46-2.274-1.134-4.224-2.209-6.384-1.215-2.444-2.389-4.09-4.399-6.17-2.502-2.592-5.137-4.406-8.37-5.763l-1.52-.638-.05-4.181c-.047-3.877-.07-4.226-.332-4.797-.405-.883-.941-1.465-1.74-1.888l-.698-.37L25.38.004c-2.721-.014-5.099.031-5.336.102Zm9.99 2.13c.916.436.867-.336.867 13.8 0 14.136.049 13.364-.867 13.8-.404.192-1.079.224-4.859.224-4.83 0-5.12-.044-5.527-.833-.297-.577-.299-25.803-.001-26.38.407-.79.661-.828 5.508-.831 3.803-.003 4.474.027 4.88.22ZM23.92 12.927c-2.255 2.263-2.424 2.467-2.424 2.931 0 .376.089.569.36.783.316.25.547.283 1.935.283h1.576l-1.595 1.62c-1.332 1.355-1.594 1.69-1.594 2.038 0 .594.404 1.04.943 1.04.39 0 .74-.3 3.032-2.588 1.425-1.424 2.64-2.711 2.698-2.861.137-.353-.088-.995-.407-1.167-.137-.074-.96-.134-1.826-.134-.868 0-1.577-.047-1.577-.105 0-.058.613-.719 1.363-1.468 1.172-1.172 1.363-1.426 1.363-1.81 0-.58-.41-.995-.984-.995-.387 0-.726.288-2.863 2.433Zm-6.65 2.41v1.835l-.988.512c-5.09 2.64-8.56 7.11-10.03 12.916-.339 1.343-.364 1.645-.364 4.384 0 2.764.023 3.032.378 4.44 1.865 7.388 7.126 12.667 14.488 14.539 1.402.356 1.67.379 4.423.379 2.754 0 3.021-.023 4.424-.38 3.761-.956 6.785-2.675 9.413-5.352 2.481-2.527 4.159-5.563 5.075-9.187.359-1.42.378-1.654.371-4.508-.007-2.922-.02-3.056-.432-4.611-1.458-5.497-4.833-9.852-9.68-12.49l-1.257-.684-.004-1.813c-.001-.997.025-1.813.059-1.813.182 0 2.358 1.032 3.319 1.574 1.732.978 3.236 2.157 4.867 3.815 3.2 3.255 5.196 6.968 6.226 11.59.284 1.272.317 1.756.31 4.57-.007 2.72-.048 3.33-.308 4.5-1.046 4.723-3.254 8.71-6.62 11.953-3.062 2.95-6.567 4.831-10.934 5.866-1.544.366-1.784.385-4.829.382-2.804-.004-3.373-.042-4.566-.309-6.075-1.358-11.113-4.792-14.486-9.874-1.493-2.25-2.693-5.138-3.331-8.018-.26-1.17-.3-1.78-.308-4.5-.007-2.814.026-3.298.31-4.57.49-2.194 1.036-3.75 2-5.692 2.235-4.498 5.847-8.131 10.238-10.297 1.56-.77 1.992-.968 2.134-.98.056-.006.102.815.102 1.824Zm0 6.152v1.965l-.528.368c-.761.529-2.469 2.338-3.11 3.295-1.62 2.416-2.369 4.899-2.372 7.867-.004 3.726 1.23 6.885 3.72 9.522 1.33 1.406 2.488 2.27 4.13 3.075 5.423 2.662 11.861 1.513 16.05-2.863 1.786-1.868 2.89-3.795 3.538-6.177.278-1.022.316-1.46.309-3.625-.007-2.28-.035-2.554-.38-3.694-.457-1.51-1.109-2.921-1.875-4.063-.668-.994-2.367-2.8-3.14-3.337l-.528-.368V21.49c0-1.08.043-1.965.095-1.965.231 0 1.983 1.157 3.02 1.994 4.009 3.239 6.292 8.125 6.292 13.466 0 2.968-.48 5.062-1.77 7.74-1.958 4.058-5.757 7.38-10.09 8.82-2.424.807-6.021 1.062-8.472.601-6.383-1.2-11.438-5.583-13.48-11.688-1.127-3.372-1.099-7.713.074-11.161.742-2.18 2.22-4.624 3.866-6.395.974-1.047 4.109-3.377 4.545-3.377.058 0 .106.884.106 1.965Zm.484 8.528c.375.768.86 1.247 1.75 1.724.55.295.665.301 5.673.301s5.124-.006 5.674-.3c1.584-.851 2.066-1.745 2.19-4.06l.086-1.606.603.589c1.376 1.345 2.669 3.782 3.102 5.851.261 1.246.265 3.674.007 4.903-.967 4.613-4.664 8.321-9.253 9.281-1.244.26-3.574.26-4.818 0-4.1-.858-7.561-3.96-8.91-7.989-.392-1.172-.454-1.555-.51-3.182-.048-1.379-.008-2.122.155-2.916.44-2.134 1.532-4.252 2.991-5.802l.708-.752.102 1.622c.084 1.326.166 1.752.45 2.336ZM4.197 48.357c.48.795 1.732 2.477 2.32 3.117l.53.578-.035 5.182-.036 5.181H3.841l-.036-7.285c-.019-4.007-.009-7.285.023-7.285s.198.23.369.513Zm42.319 13.96c-.05.132-.45.166-1.604.137l-1.536-.038-.036-5.182-.035-5.182.53-.578c.62-.676 1.933-2.436 2.371-3.18l.306-.518.035 7.183c.02 3.95.005 7.262-.031 7.358Z" fill="#fff"/></svg>