<svg width="70" height="70" fill="none" xmlns="http://www.w3.org/2000/svg"><path fill-rule="evenodd" clip-rule="evenodd" d="M55.369.141c-.373.105-2.008 1.668-7.387 7.058l-6.909 6.923H9.163l-.04-5.298-.04-5.298-.324-.262c-.645-.525-2.612-.253-4.383.605-1.27.615-2.817 2.174-3.467 3.49-.988 2.003-.933.405-.89 25.778l.038 22.79.322.962c.644 1.92 2.19 3.735 3.904 4.582 1.759.87 1.018.836 18.745.839l16.135.002-3.039 3.054c-3.353 3.37-3.52 3.62-2.86 4.282l.35.352H69.33l.335-.337.336-.337V51.463c0-11.173-.05-17.956-.132-18.11-.072-.136-.312-.322-.532-.414-.577-.24-.924-.014-2.618 1.701l-1.436 1.454-.068-10.64-.068-10.638-.311-.313c-.309-.31-.353-.313-4.436-.354l-4.124-.042 3.029-3.047c1.962-1.975 3.102-3.227 3.239-3.558.295-.718.267-1.824-.064-2.51-.163-.34-1.117-1.404-2.361-2.637C58.478.729 57.913.253 57.486.135a4.142 4.142 0 0 0-2.117.006Zm3.447 3.792c2.388 2.398 2.373 2.316.726 3.996L58.383 9.11l-2.362-2.372-2.361-2.371 1.177-1.164c1.673-1.653 1.59-1.669 3.98.73ZM7.1 20.918c0 15.537.003 15.723.274 15.995.52.522 1.374.297 1.626-.43.105-.302.151-3.452.151-10.3V16.32h29.733l-2.97 2.993c-1.633 1.646-2.97 3.095-2.97 3.22 0 .747.745 1.332 1.377 1.08.183-.073 3.532-3.35 7.442-7.282l7.11-7.15 2.36 2.367 2.36 2.367-10.63 10.675L32.33 35.264 29.972 32.9l-2.358-2.365 2.186-2.21c2.383-2.407 2.51-2.633 1.85-3.294-.676-.68-.853-.57-3.738 2.316l-2.653 2.654-1.737 4.931-1.737 4.932-1.954.069c-1.848.065-1.968.086-2.215.393-.345.428-.33.957.036 1.349l.298.317h29.227l.335-.337c.403-.404.43-.889.075-1.33l-.262-.323-10.356-.069-10.357-.069 3.063-1.077 3.063-1.077 10.666-10.696L54.07 16.32h9.093v21.895l-7.52 7.555c-6.495 6.525-7.522 7.61-7.522 7.956 0 .541.485 1.035 1.015 1.035.374 0 1.437-1.02 9.617-9.232l9.196-9.233V45.396l-1.148.049c-1.346.057-1.724.282-1.724 1.03 0 .797.36 1.01 1.71 1.01h1.162v3.157h-1.12c-1.314 0-1.752.26-1.752 1.043 0 .737.494 1.016 1.796 1.016h1.076v3.158h-1.162c-1.35 0-1.71.212-1.71 1.008 0 .748.378.974 1.724 1.031l1.148.048v2.965l-1.148.048c-1.346.057-1.724.282-1.724 1.03 0 .797.36 1.01 1.71 1.01h1.162v4.942H36.435l5.365-5.393c3.055-3.071 5.364-5.498 5.364-5.638 0-.29-.252-.803-.465-.946-.082-.056-.361-.102-.62-.103-.423-.002-.68.209-2.67 2.195l-2.203 2.196H24.18c-18.333 0-17.751.021-19.16-.7-.806-.413-1.908-1.572-2.341-2.462-.99-2.036-.697-4.26.808-6.123.907-1.123 2.88-2.11 4.215-2.11.45 0 .713-.088.995-.331l.384-.332v-4.127c0-4.065-.004-4.13-.3-4.428-.368-.37-1.03-.394-1.407-.05-.262.237-.276.416-.276 3.724v3.474l-.58.15c-1.668.431-2.62.907-3.761 1.88l-.718.61V30.084c0-13.368.046-19.594.149-20.153.272-1.478 1.221-2.97 2.41-3.793.708-.488 1.73-.924 2.193-.934l.307-.006v15.72Zm47.517-12.7 2.32 2.332-.952.963-.952.964-2.36-2.367-2.36-2.367.918-.93c.505-.51.951-.929.992-.929.04 0 1.117 1.05 2.394 2.333ZM30.17 36.39c-.092.058-.744.3-1.449.537l-1.28.43-.964-.966-.963-.967.52-1.465.52-1.466 1.892 1.895c1.279 1.282 1.836 1.93 1.724 2.002ZM55.2 55.277c-5.578 5.6-5.848 5.894-5.848 6.374 0 .38.088.573.36.788.352.278.5.285 6.147.285 4.112 0 5.888-.047 6.136-.16.222-.102.403-.341.493-.653.093-.319.129-2.512.102-6.236l-.042-5.744-.323-.262a1.386 1.386 0 0 0-.75-.263c-.382 0-1.064.639-6.275 5.871Zm5.365 1.543v3.844H52.84l3.827-3.844c2.105-2.114 3.843-3.844 3.862-3.844.019 0 .035 1.73.035 3.844Z" fill="#6A6A6A"/></svg>