<svg width="24" height="20" fill="none" xmlns="http://www.w3.org/2000/svg"><path fill-rule="evenodd" clip-rule="evenodd" d="M6.678.085c-.484.183-.812.594-.916 1.147l-.056.297H3.132c-2.486 0-2.579.004-2.758.104a.68.68 0 0 0-.28.305C.001 2.14 0 2.223 0 10.765c0 8.541 0 8.625.094 8.826.061.13.16.24.28.306.181.1.27.103 3.849.103s3.668-.002 3.849-.103a.68.68 0 0 0 .28-.306c.09-.193.094-.3.094-2.206v-2.003h3.613V18.461h-.776c-.686 0-.798.012-.962.103-.208.116-.374.412-.374.666 0 .255.166.55.374.667.182.101.268.103 4.553.103 4.284 0 4.37-.002 4.552-.103.209-.116.375-.412.375-.667 0-.254-.166-.55-.375-.666-.163-.091-.276-.103-.96-.103h-.777v-3.075l2.64-.015 2.639-.014.266-.143c.302-.163.523-.411.667-.753l.099-.233V1.144l-.099-.233a1.466 1.466 0 0 0-.667-.752l-.266-.143-8.024-.012c-7.606-.01-8.036-.006-8.266.08Zm15.938 7.601v6.157H7.132V1.53h15.484v6.157ZM5.724 3.838v.77H1.408v-1.54h4.316v.77Zm0 3.079v.77H1.408v-1.54h4.316v.77Zm0 4.71c0 2.64.007 2.717.283 3.134.176.265.491.49.8.57l.231.062v3.068h-5.63V9.225h4.316v2.402Zm10.558 5.295v1.539h-2.816V15.382h2.816v1.54Zm-12.399-.87c-.198.115-.364.418-.364.664 0 .39.347.77.704.77s.704-.38.704-.77c0-.254-.166-.55-.374-.666a.624.624 0 0 0-.67.002Z" fill="#2C2C2C"/></svg>