<svg width="70" height="70" fill="none" xmlns="http://www.w3.org/2000/svg"><path fill-rule="evenodd" clip-rule="evenodd" d="M31.474.881c-5.058.508-9.174 1.76-13.621 4.147-5 2.682-9.899 7.365-12.875 12.309C1.634 22.89-.002 28.83 0 35.405c.002 3.666.327 6.165 1.268 9.753.32 1.224 1.388 4.256 1.468 4.17.02-.02-.19-.933-.464-2.029-.857-3.419-1.009-4.87-1.015-9.67-.004-3.379.049-4.614.25-5.858 1.52-9.362 7.115-18.027 14.999-23.227 4.42-2.915 9.067-4.674 14.452-5.47 2.503-.371 6.965-.34 9.675.066 5.92.887 11.387 3.261 16.403 7.122 1.199.922 3.908 3.592 4.998 4.925 1.11 1.357 1.471 1.754 1.275 1.403-.706-1.266-2.774-3.848-4.38-5.47-5.361-5.417-11.908-8.78-19.407-9.967C38.17.939 32.73.755 31.474.881Zm-.332 5.588c-.788.664-.755 2.237.06 2.88.419.329 1.252.399 1.884.158.651-.248.447-.465-.338-.361-.428.057-.839.03-1.02-.068-.383-.205-.675-1.066-.552-1.626.133-.607.494-.873 1.257-.928.903-.064.84-.332-.092-.386-.63-.037-.827.018-1.2.331Zm7.482.212a.613.613 0 0 1-.258.462c-.177.112-.202.187-.08.239.126.053.152.35.09 1.021-.062.66-.032 1.014.098 1.171.209.252.968.305 1.108.077.05-.08.005-.148-.102-.15-.43-.004-.622-.279-.587-.837.055-.877.158-1.08.552-1.08.472 0 .46-.263-.016-.383-.275-.07-.364-.178-.332-.405.028-.201-.048-.33-.215-.363-.177-.035-.258.042-.258.248Zm1.917.028c0 .212.08.291.256.257.384-.074.427-.563.05-.563-.212 0-.306.095-.306.306Zm-12.807.04c-.204.247.04.606.334.493.13-.05.236-.186.236-.301 0-.286-.385-.415-.57-.192Zm14.558.17c-.112.138-.367.414-.566.615-.27.27-.316.393-.177.479.148.091.134.324-.068 1.127-.245.98-.22 1.13.198 1.122.062-.001.216-.421.342-.934.205-.834.27-.936.627-.978.466-.055.53-.316.104-.427-.162-.043-.295-.161-.295-.264 0-.277.373-.535.63-.436.124.047.271.011.328-.081.136-.22.068-.275-.47-.383-.324-.064-.506-.02-.653.16Zm-8.318.29c-.47.47-.493 1.35-.051 1.913.275.35.397.391 1.057.352.474-.028.77-.119.814-.249.052-.16-.046-.183-.448-.107-.387.072-.6.028-.854-.179-.547-.443-.3-.764.59-.764.692 0 .741-.024.741-.369 0-.894-1.174-1.273-1.85-.597Zm2.528-.13c-.049.13-.09.727-.09 1.33 0 .868.046 1.095.22 1.095.236 0 .344-.334.405-1.255.035-.526.092-.606.518-.732.264-.078.48-.227.48-.332 0-.244-.474-.248-.717-.007-.15.148-.215.134-.332-.073-.181-.321-.367-.33-.484-.025Zm7.282.358c0 .222.077.302.258.267.142-.027.258-.148.258-.267 0-.12-.116-.24-.258-.267-.181-.035-.258.045-.258.267Zm-8.55-.086c0 .034.04.167.089.295.072.19-.025.234-.516.234-.648 0-.652-.003-.516-.357.077-.201.942-.359.942-.172Zm5.024.861c-.26 1.283-.263 1.809-.013 1.809.153 0 .268-.27.379-.886a25.78 25.78 0 0 1 .262-1.292c.086-.34.055-.406-.185-.406-.228 0-.319.159-.443.775Zm-12.223-.499c-.154.098-.162.254-.037.736l.312 1.202c.147.568.584.847.584.374 0-.387-.485-2.44-.575-2.438-.049.001-.176.058-.284.126Zm-2.32.672c-.219.16-.285.387-.285.972 0 .653.06.814.413 1.12.228.195.54.355.695.355.34 0 1.324-.452 1.324-.609 0-.192-.27-.288-.367-.131-.167.27-1.23.178-1.389-.12-.127-.238-.045-.303.658-.525.872-.275.987-.497.508-.977-.347-.348-1.139-.391-1.556-.085ZM43.222 9.39c-.228.91-.261 1.241-.13 1.322.096.06.219.061.273.004.18-.194.73-2.25.64-2.396-.25-.405-.498-.066-.783 1.07Zm-16.388-.695c.226.272.172.336-.425.508-.425.122-.462.104-.462-.214 0-.506.558-.691.887-.294Zm-2.46.017c-.12.049-.131.21-.036.54.074.26.131.704.128.989l-.007.518-.645-.722c-.464-.518-.717-.694-.897-.625-.219.084-.238.235-.146 1.163l.104 1.066-.632-.778c-.36-.443-.73-.76-.86-.735-.125.024-.222.102-.214.173.016.15 1.568 1.985 1.69 1.999.046.005.204-.08.352-.189.246-.18.253-.267.086-.967-.102-.424-.142-.813-.09-.865.051-.052.381.233.733.634.56.637.67.703.88.527.19-.158.224-.373.16-1.03-.174-1.795-.2-1.865-.606-1.698Zm20.4.351c-.724.57-.823 1.676-.198 2.196.305.253 1.15.29 1.233.053.04-.115-.073-.184-.306-.184-.41 0-.834-.346-.834-.682 0-.383.43-1.066.73-1.161.16-.051.428-.02.595.07.495.265.668-.002.2-.31-.54-.358-.95-.352-1.42.018Zm2.289.766c.032.098.27.233.528.3.368.095.47.2.47.486 0 .428-.091.445-.714.133-.56-.28-1.016-.164-1.233.313-.248.543.18 1.1.844 1.1.357 0 .513.067.513.222 0 .484.402.178.78-.594.536-1.096.52-1.478-.08-1.844-.534-.326-1.201-.396-1.108-.116Zm2.86.634c-.046.122-.224.222-.394.222-.244 0-.289.063-.214.3.06.192-.04.532-.285.949-.466.796-.48 1.174-.052 1.474.414.29.704.294.704.008 0-.122-.1-.221-.221-.221-.339 0-.265-.531.164-1.18.326-.494.43-.56.667-.434.441.237.666-.01.277-.304-.276-.208-.305-.302-.17-.554.13-.242.115-.322-.068-.392-.311-.12-.31-.12-.407.132Zm-30.352.675c-.305.16-.553.39-.553.51 0 .28.032.276.628-.076.454-.268.523-.274.782-.065.194.156.228.254.108.304-.51.214-.929.697-.929 1.07 0 .513.246.757.763.757.277 0 .49-.123.656-.377.136-.207.326-.346.423-.309.096.037.259.016.36-.047.14-.087.085-.275-.226-.762-.893-1.402-1.083-1.497-2.012-1.005Zm28.103.144c.25.231-.04.584-.478.584-.483 0-.715-.36-.444-.686.168-.204.651-.15.922.102Zm4.072-.007c0 .223.077.303.258.268.142-.028.258-.148.258-.268 0-.12-.116-.24-.258-.267-.181-.035-.258.045-.258.267Zm-1.143 1.562c-.686 1.052-.725 1.174-.42 1.291.238.092 1.627-1.89 1.485-2.12-.189-.306-.464-.092-1.065.829Zm-32.83-.54c-.046.074.149.44.433.813.542.711.635 1.088.34 1.384-.328.328-.642.18-1.195-.561-.556-.745-.744-.865-.917-.584-.11.177 1.022 1.74 1.352 1.867.328.126.92-.198 1.105-.605.09-.198.248-.327.351-.287.461.177.33-.324-.316-1.205-.668-.91-.968-1.124-1.154-.823Zm3.25.074c.045.116.005.352-.087.526-.209.39-.786.349-.864-.062-.094-.494.777-.92.952-.464Zm12.074.194c-.573.143-1.086.641-1.335 1.295-.221.579-.228.748-.058 1.363.23.832 1.05 2.68 1.444 3.252.152.222.498.761.767 1.199.641 1.038.706.865.72-1.917.007-1.697 0-.789 0-2.645v-1.611c-.095-1.611-.71-1.144-1.538-.936Zm18.517.856c-.255.291-.458.688-.458.898 0 .452.737 1.238 1.161 1.238 1.213 0 1.943-1.482 1.131-2.295-.556-.557-1.26-.496-1.834.16Zm-36.835.091c-.131.132-.064.309.282.746l.453.573-.57.505c-.314.277-.63.507-.705.51-.073.003-.318-.2-.542-.452-.386-.433-.73-.474-.72-.087.009.331 2.194 2.501 2.429 2.411.321-.123.275-.282-.221-.759-.244-.233-.443-.492-.443-.575 0-.082.246-.402.546-.71l.547-.56.549.536c.366.358.63.506.793.443.21-.08.182-.17-.2-.647-.243-.304-.799-.903-1.234-1.33-.604-.592-.833-.735-.964-.604Zm38.445.133c.313.586-.62 1.71-1.146 1.38-.378-.237-.393-.827-.033-1.285.376-.48.949-.526 1.18-.095Zm-23.802 1.22a5.01 5.01 0 0 0-.604 1.144c-.209.593-.209.71.002 1.261.127.335.42.777.65.983.813.724 3.911 2.619 4.284 2.619.19 0-.973-2.259-1.889-3.672-.685-1.057-1.947-2.824-2.017-2.824-.03 0-.221.22-.427.49Zm24.455.472c-.648.738-.81 1.011-.68 1.142.131.131.347 0 .903-.549.673-.663.761-.707 1.105-.55.54.246.464.592-.297 1.366-.586.595-.642.706-.444.87.192.16.327.08.89-.53.365-.394.705-.87.756-1.055.12-.432-.299-.917-.79-.917-.253 0-.338-.064-.282-.21.045-.117-.007-.285-.115-.374-.152-.127-.384.052-1.046.807Zm-14.326-.11c-.26.385-.851 1.23-1.313 1.88-.82 1.155-2.168 3.617-2.047 3.739.034.033.578-.223 1.21-.569 2.83-1.548 3.878-2.55 3.878-3.709 0-.506-.83-2.047-1.1-2.042-.084.002-.367.317-.628.701Zm-4.227.115c-.093.691-.088 2.85.04 4.275l.092 1.033.843-1.36c.793-1.28 1.294-2.274 1.294-2.57 0-.071 1.008-2.606.645-3.312-.29-.445-1.395-1.058-2.316-1.058-.375-.194-.46 1.841-.598 2.992ZM9.796 18.747c-1.479 1.92-3.132 5.1-3.87 7.44-.242.771-.63 2.266-.862 3.322-.402 1.83-.421 2.091-.418 5.61.002 3.547.02 3.78.467 6 .558 2.77 1.208 4.776 2.304 7.103.849 1.802 1.283 2.43.561.812-.78-1.751-1.636-4.488-1.952-6.246-.458-2.555-.449-7.965.019-10.843.702-4.325 2.214-8.332 4.33-11.484l.822-1.224-.483-.528-.483-.527-.435.565Zm17.868-.2c-.182.73.234 1.785.939 2.379.654.551 1.397.7 3.273.652l1.662-.042-.842-.554c-.853-.562-4.738-2.768-4.875-2.768-.04 0-.112.15-.157.333Zm13.686.058c-.814.433-3.003 1.693-4.09 2.355-.385.235-.7.483-.7.553 0 .07.846.103 1.88.075 1.753-.048 1.928-.08 2.593-.472.509-.3.794-.596.992-1.033.274-.604.391-1.869.173-1.869-.062 0-.443.176-.848.392Zm19.54 3.087c1.667 3.986 2.715 7.655 3.157 11.059.288 2.22.288 3.534 0 6.176-.304 2.793-.677 4.575-1.4 6.69-2.151 6.291-6.017 11.27-11.56 14.892-6.19 4.043-10.35 5.225-17.77 5.05-2.803-.066-3.591-.136-5.086-.456-2.362-.506-4.235-1.144-6.178-2.105-3.94-1.949-6.67-3.931-9.41-6.831-1.322-1.4-1.303-1.25.068.557.745.982 1.112 1.355 2.915 2.962 2.293 2.043 3.555 2.953 5.792 4.176 3.01 1.646 5.917 2.565 9.993 3.16 2.066.302 7.151.447 8.006.228a39.558 39.558 0 0 1 1.796-.381c2.665-.509 6.476-1.945 9.131-3.441 7.383-4.162 12.64-11.393 14.3-19.672 1.485-7.407.362-14.785-3.343-21.97-1.072-2.08-1.259-2.123-.41-.094Zm5.241-.002c1.06 2.54 2.082 6.268 2.447 8.926.29 2.114.242 8.303-.084 10.704-.633 4.665-2.422 9.771-4.757 13.582-1.308 2.135-3.88 5.231-5.727 6.895-2.999 2.701-4.975 4.005-9.508 6.273-1.5.75-2.654 1.367-2.563 1.37.091.002.82-.19 1.622-.43 12.03-3.583 20.41-13.638 22.096-26.51.937-7.15-.034-13.528-3.073-20.189-.52-1.139-.869-1.617-.453-.62Zm-35.652.325c-.79.027-1.438.097-1.438.155 0 .234.81.961 1.295 1.165.485.203.559.193 1.269-.174.941-.486 1.71-1 1.71-1.145.001-.06-.313-.097-.698-.08-.386.017-1.347.053-2.138.08Zm6.45.266c.243.2.84.572 1.327.825l.884.461.577-.277c.528-.254 1.26-1.008 1.109-1.14-.035-.03-1.026-.096-2.202-.144l-2.138-.089.443.364Zm-9.214 3.915c0 .854.053 1.304.147 1.246.081-.05.148-.287.148-.526 0-.416.027-.434.663-.434.663 0 .663 0 .663.53 0 .357.06.508.185.467.124-.041.198-.48.226-1.341.036-1.072.006-1.28-.184-1.28-.162 0-.227.151-.227.525v.526l-.626-.046c-.588-.042-.63-.075-.673-.525-.025-.264-.108-.48-.184-.48s-.138.602-.138 1.338Zm2.8-.315c0 .929.036 1.05.39 1.328.51.402.87.387 1.313-.056.31-.31.362-.5.362-1.329 0-.76-.047-.966-.221-.966-.172 0-.222.195-.222.868 0 .983-.216 1.288-.809 1.139-.348-.088-.37-.151-.37-1.05 0-.752-.047-.957-.221-.957-.175 0-.221.212-.221 1.023Zm2.922.232c-.355.833-.48 1.288-.374 1.354.088.054.255-.045.372-.221.296-.447 1.138-.44 1.506.011.226.277.285.294.36.104.113-.29-.9-2.503-1.145-2.503-.102 0-.425.565-.72 1.255Zm1.944-1.133c0 .161.692 2.197.815 2.395.152.246.44-.078.658-.743.108-.326.243-.593.3-.593.058 0 .187.295.288.655.178.638.494.952.67.667.117-.188.807-2.226.807-2.381 0-.067-.095-.122-.21-.122-.13 0-.303.317-.447.812-.13.447-.285.812-.344.812-.06 0-.208-.349-.329-.775-.276-.97-.56-.997-.869-.084-.128.38-.271.728-.318.773-.046.045-.199-.282-.339-.728-.155-.491-.339-.81-.469-.81-.117 0-.213.055-.213.122Zm4.042.076c-.041.11-.056.69-.032 1.292l.044 1.094h.882c.724 0 .892-.047.933-.259.041-.215-.062-.258-.625-.258-.568 0-.674-.045-.674-.285 0-.195.119-.3.373-.333.205-.025.373-.113.373-.194s-.168-.169-.373-.194c-.254-.032-.373-.138-.373-.332 0-.24.106-.286.663-.286.492 0 .664-.057.664-.221 0-.3-1.74-.323-1.855-.023Zm2.476 1.082c.028.86.102 1.3.227 1.341.138.046.184-.273.184-1.28 0-1.109-.04-1.34-.227-1.34-.19 0-.22.207-.184 1.279Zm-7.5-.068c.104.395.059.45-.314.387-.234-.04-.265-.113-.165-.38.158-.423.37-.426.48-.007ZM11.35 29.65c0 .248 2.315.28 25.063.346 15.72.046 22.26-.061 22.26-.363 0-.165-3.956-.198-23.66-.198-20.617 0-23.662.027-23.662.215Zm20.05 2.733c-1.057.204-1.895.554-2.651 1.11-.85.626-1.365 1.279-1.891 2.403-.374.798-.396.97-.394 2.988.002 2.005.027 2.194.394 2.982.756 1.624 2.46 2.856 4.474 3.235 1.19.224 3.323.076 4.413-.306.485-.17.94-.367 1.012-.439.076-.076.03-.435-.11-.858l-.242-.727-.807.273c-1.096.37-2.753.493-3.777.28-2.208-.46-3.412-2.636-3.056-5.523.382-3.103 3.026-4.556 6.24-3.429.563.198 1.07.33 1.128.295.163-.101.579-1.415.492-1.556-.043-.068-.518-.261-1.056-.428-1.107-.342-3.176-.491-4.169-.3Zm-17.838 6.42v6.43H15.773v-5.759h3.094c2.857 0 3.093.02 3.073.259-.012.142-.011 1.437.002 2.879l.023 2.62h2.064V32.388h-2.064v5.333l-3.059-.046-3.059-.046-.074-2.584-.073-2.584-1.07-.043-1.068-.043v6.428Zm25.722-6.237c-.04.105-.056 2.981-.035 6.392l.038 6.2H41.5V32.461l-1.071-.043c-.773-.031-1.091.01-1.144.148Zm9.01-.052c-.043.07-.405.95-.804 1.956-.398 1.007-1.526 3.823-2.505 6.26l-1.78 4.428.975.044c.537.025 1.057.013 1.157-.025.1-.039.364-.557.586-1.152a51.12 51.12 0 0 1 .672-1.709l.268-.627h2.589c2.411 0 2.588.018 2.588.27 0 .15.05.32.11.38.061.061.347.72.636 1.465l.525 1.354 1.008.044c.555.025 1.091.013 1.192-.026.13-.05-.05-.644-.618-2.037a809.625 809.625 0 0 0-2.93-7.134c-.374-.894-.851-2.073-1.06-2.62l-.38-.997h-1.076c-.592 0-1.11.056-1.153.126Zm1.24 2.876c0 .18.088.459.197.619.108.16.468 1.022.8 1.915s.65 1.743.706 1.89c.096.247-.025.263-1.832.237-1.065-.015-1.935-.085-1.935-.156s.065-.245.145-.386c.197-.347 1.624-4.277 1.624-4.473 0-.086.066-.115.147-.065.081.05.148.239.148.42ZM11.35 48.333c0 .294.098.295 23.661.295 23.564 0 23.662-.001 23.662-.295 0-.295-.098-.296-23.662-.296-23.563 0-23.662.001-23.662.296ZM8.633 50.59c.055.146.137.228.183.182.045-.045 0-.164-.1-.264-.146-.145-.163-.128-.083.082Zm-4.505 1.916c-.003.25.905 2.094 1.688 3.425 2.868 4.88 7.364 9.058 12.39 11.514 2.129 1.04 5.866 2.28 5.608 1.861-.046-.074-.43-.246-.855-.383-1.149-.37-4.443-2.11-6.177-3.262-5.074-3.369-9.723-8.155-12.313-12.678-.186-.325-.34-.54-.34-.476Zm19.234.896c-.448.204-.807.767-.807 1.266 0 .438.511.96 1.31 1.334 1.608.754.9 1.626-.893 1.1-.375-.11-.528.529-.186.779.357.261 1.744.249 2.264-.02.468-.243.6-.493.6-1.135 0-.688-.236-.978-1.194-1.462-.728-.368-.88-.508-.842-.774.037-.259.16-.335.593-.371.3-.025.68.026.844.114.257.137.31.107.394-.224.052-.21.032-.446-.045-.524-.247-.247-1.56-.3-2.038-.083Zm3.32.61c0 .212-.122.429-.294.521-.332.178-.404.739-.095.739.146 0 .223.33.283 1.21.096 1.398.248 1.595 1.232 1.595.673 0 .859-.144.727-.561-.054-.17-.226-.261-.489-.257-.398.005-.406-.011-.449-.991l-.043-.996h.459c.413 0 .454-.04.412-.407-.037-.318-.134-.416-.452-.452-.319-.037-.406-.124-.406-.406 0-.301-.072-.36-.442-.36-.372 0-.442.059-.442.364Zm3.392.478c-1.195.437-1.503 2.488-.493 3.283.608.48 1.685.42 2.296-.127.445-.398.482-.5.482-1.34 0-.862-.03-.936-.551-1.415-.54-.495-1.114-.628-1.735-.401Zm3.194-.006c-.054.054-.099.885-.099 1.846v1.747h.885v-1.075c0-1.276.234-1.73.893-1.73.384 0 .434-.052.434-.443 0-.365-.06-.443-.34-.443-.188 0-.466.091-.619.203-.236.173-.308.173-.48 0-.219-.218-.515-.264-.674-.105Zm2.887.054c-.222.089-.332.258-.332.507 0 .433-.032.422.57.211.604-.21 1.2-.064 1.2.295 0 .222-.146.287-.765.347-.875.084-1.3.464-1.3 1.161 0 .835 1.08 1.319 1.927.865.196-.106.285-.106.285 0 0 .084.199.153.442.153h.442v-1.414c0-1.366-.015-1.429-.43-1.846-.349-.349-.554-.43-1.07-.422-.35.005-.787.07-.97.143Zm3.982.158c-.85.547-1.026 2.27-.309 3.04.302.324.439.361 1.118.306.85-.07.842-.074.614.352-.136.257-.278.292-.995.25-.751-.046-.84-.02-.879.255-.054.38.488.654 1.299.654.437 0 .705-.112 1.102-.462l.525-.461-.04-2.072-.041-2.07-.958-.05c-.774-.038-1.05.011-1.436.258Zm3.83.195c-.523.479-.552.553-.552 1.415 0 .84.037.942.482 1.34.414.37.6.43 1.327.428.966-.002 1.266-.136 1.188-.532-.047-.236-.167-.27-.804-.229-.774.05-1.234-.192-1.234-.65 0-.164.248-.21 1.125-.21h1.125l-.084-.628c-.11-.815-.763-1.44-1.507-1.44-.382 0-.66.132-1.067.506Zm-12.861.528c.336.337.411 1.448.117 1.742-.25.25-.71.22-1.027-.067-.406-.368-.37-1.44.058-1.74.421-.296.496-.29.851.065Zm10.438-.168c.132.083.178.396.147.99-.041.8-.078.882-.452 1.013-.572.2-.92-.17-.899-.956.024-.893.624-1.415 1.204-1.047Zm3.776-.037c.478.183.252.5-.357.5-.659 0-.687-.028-.358-.358.255-.255.366-.277.715-.142Zm-7.728 1.605c0 .267-.1.391-.368.459-.747.188-1.164-.398-.48-.673.603-.243.848-.18.848.214Z" fill="#6A6A6A"/></svg>