<svg width="70" height="70" fill="none" xmlns="http://www.w3.org/2000/svg"><path d="M31.795 13.559c.25-.66.766-1.163 1.341-1.308.833-.21 1.45-.681 1.545.945v1.627c0 1.873.008.957 0 2.67-.014 2.808-.079 2.982-.722 1.934a38.475 38.475 0 0 0-.772-1.21c-.394-.577-1.219-2.443-1.45-3.282-.171-.621-.164-.792.058-1.377ZM28.838 15.728c.127-.363.4-.882.606-1.154.207-.272.4-.495.429-.495.07 0 1.337 1.784 2.026 2.85.92 1.428 2.087 3.708 1.897 3.708-.374 0-3.487-1.913-4.302-2.645-.232-.207-.526-.653-.654-.99-.212-.557-.212-.675-.002-1.274ZM38.301 16.836c.463-.655 1.057-1.509 1.319-1.897.262-.388.546-.706.63-.708.271-.005 1.105 1.55 1.105 2.061 0 1.17-1.052 2.181-3.894 3.744-.636.35-1.183.608-1.217.574-.121-.122 1.234-2.608 2.057-3.774ZM35.413 19.37c-.128-1.438-.133-3.618-.04-4.315.139-1.162.225-3.216.601-3.02.926 0 2.036.618 2.327 1.067.364.713-.648 3.272-.648 3.344 0 .298-.503 1.302-1.3 2.593l-.847 1.374-.093-1.043ZM28.623 20.691c-.708-.6-1.126-1.665-.943-2.402.045-.184.117-.335.157-.335.138 0 4.04 2.226 4.897 2.793l.846.56-1.669.042c-1.884.048-2.631-.102-3.288-.658ZM37.32 20.726c1.091-.668 3.29-1.94 4.108-2.377.407-.217.79-.395.852-.395.219 0 .101 1.276-.174 1.886-.199.44-.485.74-.996 1.043-.67.396-.844.428-2.606.476-1.038.029-1.888-.005-1.888-.075 0-.07.317-.322.704-.558ZM29.064 21.947c0-.059.65-.13 1.444-.156.794-.027 1.76-.063 2.147-.08.387-.017.703.02.702.08-.001.147-.773.666-1.718 1.156-.714.37-.788.38-1.275.175-.488-.205-1.3-.939-1.3-1.175ZM38.32 22.892c-.49-.256-1.09-.63-1.334-.833l-.444-.367 2.148.089c1.18.049 2.176.114 2.211.145.153.134-.584.895-1.114 1.151l-.58.28-.888-.465Z" fill="#fff"/><path fill-rule="evenodd" clip-rule="evenodd" d="M33.078.572a47.218 47.218 0 0 0-3.21.283 34.201 34.201 0 0 0-14.423 5.41A34.442 34.442 0 0 0 0 35.021c-.001 4.709.852 9.317 2.467 13.323.413 1.025.89 2.106.928 2.106.008 0-.136-.457-.32-1.016-1.21-3.68-1.887-8.105-1.887-12.347A34.408 34.408 0 0 1 7.484 17.21C13.174 9.16 21.96 3.934 31.67 2.825c3.005-.343 6.26-.279 9.224.182 8.867 1.377 16.853 6.187 22.256 13.405.336.448.788 1.082 1.005 1.409.464.698.586.845.34.407-2.728-4.846-6.419-8.838-11.001-11.902C48.658 3.093 43.088 1.155 37.217.662c-.82-.069-3.463-.127-4.14-.09Zm-1.22 5.282c-.873.212-1.329.901-1.266 1.914.074 1.192.72 1.785 1.859 1.707.41-.028 1.127-.243 1.127-.338 0-.014-.04-.121-.089-.238l-.088-.212-.365.15c-1.035.426-1.838-.146-1.833-1.305.004-.905.73-1.43 1.623-1.173.246.071.284.046.334-.227.036-.19.027-.2-.238-.266a2.6 2.6 0 0 0-1.063-.012Zm8.77.323c-.127.074-.15.43-.034.546.041.041.162.075.269.075.239 0 .344-.098.344-.32 0-.308-.3-.464-.579-.301Zm-2.025.355c-.047.259-.076.3-.22.317-.116.013-.178.066-.205.175-.048.193-.002.275.156.275.146 0 .146-.03.02.897-.13.959-.08 1.185.309 1.361.257.118.688.159.882.084.063-.024.099-.114.099-.249 0-.196-.012-.208-.172-.176-.25.05-.506-.068-.552-.254-.035-.136.039-.9.136-1.416.029-.156.04-.16.355-.117.364.049.394.036.453-.205.045-.183.047-.183-.486-.268l-.235-.038.04-.342.04-.341h-.566l-.054.297Zm-10.867-.074c-.116.117-.13.41-.023.516.041.041.162.075.269.075.239 0 .344-.098.344-.321 0-.21-.148-.368-.344-.368a.399.399 0 0 0-.246.098Zm14.625.143c-.166.102-.309.34-.43.721-.028.086-.08.109-.196.087-.127-.025-.177.006-.252.151-.092.179-.09.184.096.249.105.036.19.077.19.09 0 .014-.125.483-.279 1.043-.154.559-.26 1.036-.235 1.059.025.023.152.071.283.107.284.076.237.168.58-1.138l.245-.928.188.042.316.072c.094.022.149-.015.203-.134.113-.248.1-.266-.242-.348-.3-.072-.316-.086-.278-.241.105-.425.308-.534.659-.352.178.092.185.09.278-.091.053-.102.096-.202.096-.223 0-.02-.12-.092-.266-.158-.337-.153-.712-.156-.956-.008Zm-8.064.114c-.297.157-.416.283-.55.583-.146.327-.171.974-.051 1.329.093.278.41.572.731.678.277.091 1.034.05 1.298-.07.153-.07.172-.108.14-.268a.899.899 0 0 0-.057-.207c-.011-.011-.201.024-.422.078-.341.084-.438.086-.648.016a.736.736 0 0 1-.483-.615l-.02-.157.867-.017.867-.018-.027-.327c-.06-.713-.463-1.112-1.119-1.107-.186.001-.423.047-.526.102Zm2.195.224c-.018.147-.049.562-.069.924-.019.362-.052.848-.072 1.08l-.038.423h.623l.04-.517c.022-.284.04-.648.04-.809.001-.222.04-.339.16-.481.174-.208.523-.352.708-.294.124.04.194-.098.195-.388.002-.288-.642-.14-.904.208-.085.112-.091.105-.093-.107-.002-.238-.091-.302-.42-.304-.115 0-.143.043-.17.265Zm7.28.106c-.15.283.013.567.328.567.172 0 .358-.198.358-.38 0-.277-.556-.43-.685-.187Zm-8.597.158a.537.537 0 0 1 .154.313c0 .158-.004.16-.532.16-.496 0-.531-.01-.531-.131 0-.072.082-.212.183-.313.233-.234.511-.245.726-.03Zm5.001 1.2c-.13.685-.239 1.27-.243 1.303-.008.06.513.192.563.142.045-.045.525-2.568.494-2.598-.015-.016-.151-.042-.303-.06l-.275-.03-.236 1.244Zm-12.054-.966c-.128.035-.234.099-.234.143 0 .086.554 2.487.58 2.513.009.009.147-.012.308-.047.177-.037.283-.092.269-.136-.013-.04-.14-.582-.281-1.202-.303-1.327-.31-1.348-.364-1.34a5.671 5.671 0 0 0-.278.07Zm-2.046.522c-.457.206-.69.582-.69 1.12 0 .65.367 1.297.833 1.473.443.167 1.21-.026 1.683-.423.101-.085.1-.101-.02-.271l-.129-.18-.178.127c-.27.192-.694.324-.912.284-.197-.037-.392-.207-.519-.454-.068-.133-.045-.146.778-.407l.848-.269-.196-.39c-.107-.215-.283-.453-.39-.53-.25-.178-.801-.218-1.108-.08Zm17.439.177c-.038.143-.193.709-.345 1.258a28.558 28.558 0 0 0-.275 1.039c0 .068.512.199.562.143.082-.09.708-2.464.662-2.51a1.13 1.13 0 0 0-.29-.117l-.245-.072-.07.259Zm-16.695.328c.106.089.192.199.192.244 0 .047-.184.138-.435.215-.24.073-.483.15-.541.173-.182.07-.07-.479.132-.654.215-.184.416-.178.652.021Zm-2.293.01c-.24.119-.238.081-.082 1.236.065.483.112.883.105.89-.011.012-.643-.724-1.202-1.4l-.132-.159-.26.133c-.298.152-.288.062-.139 1.257.063.5.109.914.103.922-.006.008-.299-.337-.65-.767-.353-.43-.667-.782-.698-.782-.095 0-.5.208-.5.256 0 .036 1.38 1.633 1.721 1.992.07.073.126.069.369-.032.332-.136.323-.081.193-1.122-.051-.412-.093-.8-.094-.861 0-.066.247.178.601.595.33.389.626.716.657.728.03.011.181-.028.336-.087l.28-.107-.036-.32c-.02-.177-.083-.798-.14-1.38-.057-.584-.132-1.068-.166-1.077-.035-.01-.154.029-.266.085Zm20.463.192c-.5.24-.801.754-.831 1.42-.023.517.085.743.479 1.005.222.147 1.027.35 1.091.276a.931.931 0 0 0 .062-.224c.036-.191.03-.196-.243-.233-.618-.085-.886-.402-.771-.913.082-.367.204-.586.434-.78.261-.22.484-.207.866.05l.318.215.136-.191.136-.191-.151-.12c-.496-.393-1.1-.517-1.526-.314Zm2.077.682a1.267 1.267 0 0 0-.067.215c-.042.177.034.24.293.243.22.002.65.226.761.398.088.134.093.195.03.384-.04.124-.092.216-.114.206-.023-.01-.193-.1-.378-.197-.392-.206-.901-.275-1.13-.153-.375.2-.544.733-.35 1.108.17.33.703.54 1.126.445.209-.047.215-.043.182.118-.028.144-.001.182.2.278.128.061.251.089.274.06.022-.027.205-.395.406-.817.538-1.129.535-1.56-.014-1.923-.366-.243-1.155-.478-1.22-.365Zm2.857.892c-.139.21-.189.243-.33.214-.121-.024-.202.004-.29.102-.121.134-.12.135.028.248l.15.112-.418.71c-.354.605-.416.755-.416 1.006 0 .266.024.315.253.511.21.18.727.397.791.333.01-.01.035-.104.056-.21.033-.164.017-.199-.109-.237-.223-.069-.366-.22-.366-.39 0-.117.576-1.214.73-1.39.021-.026.175.053.532.27.082.05.133.03.232-.09a.7.7 0 0 0 .13-.197c0-.024-.132-.121-.295-.215a11.542 11.542 0 0 1-.32-.188c-.013-.009.05-.143.14-.297a2.1 2.1 0 0 0 .164-.315c0-.03-.412-.225-.476-.225-.012 0-.096.112-.186.248Zm-29.769.382c-.275.057-.727.333-.989.603-.12.125-.22.246-.22.27 0 .022.068.105.151.183l.151.142.226-.25c.227-.252.56-.45.753-.45.057 0 .19.085.295.19l.19.19-.367.219c-.202.12-.458.315-.57.435-.171.182-.203.264-.203.515.001 1.025 1.292 1.138 1.707.15.088-.21.089-.21.183-.076l.095.135.226-.134c.125-.073.227-.158.227-.187 0-.029-.213-.407-.473-.839-.6-.996-.862-1.204-1.382-1.096Zm31.598.174a.44.44 0 0 0-.104.25c0 .17.21.387.375.387.161 0 .376-.215.376-.376 0-.17-.218-.376-.397-.376a.388.388 0 0 0-.25.115Zm-4.245.172.323.161-.08.199c-.103.253-.321.369-.604.32-.494-.083-.647-.387-.347-.688.194-.194.306-.193.708.008Zm3.115 1.63c-.51.767-.713 1.121-.67 1.173.033.04.143.122.244.18l.184.109.731-1.1c.51-.767.713-1.121.67-1.172a1.22 1.22 0 0 0-.244-.181l-.184-.108-.731 1.099Zm-32.677-.627c-.12.086-.212.185-.203.219.01.034.254.383.544.775.518.701.526.717.463.945-.093.335-.32.541-.57.517-.18-.017-.271-.112-.793-.814l-.59-.794-.237.168c-.13.092-.238.182-.239.2 0 .017.266.39.593.83.787 1.06 1.06 1.216 1.594.916.248-.14.5-.512.5-.737 0-.155.079-.171.188-.039.106.128.187.116.402-.06.166-.136.175-.161.094-.275-.491-.691-1.472-2.007-1.496-2.007-.017 0-.13.07-.25.156Zm3.084.107c.132.245.085.423-.18.689-.326.325-.803.088-.695-.344.038-.15.545-.55.7-.551.035 0 .114.092.175.206Zm30.988.67c-.458.242-.865.872-.868 1.342-.003.532.447 1.077 1.016 1.23.531.143 1.07-.109 1.442-.675.282-.428.346-.8.202-1.175-.11-.289-.494-.686-.761-.788-.259-.098-.785-.065-1.03.065Zm-37.245.517-.197.203.497.541.496.542-.629.58-.629.582-.47-.512c-.258-.281-.505-.511-.547-.511-.042 0-.158.084-.257.187l-.179.187.152.172c.143.16 1.84 1.992 2.163 2.333l.147.155.23-.23.229-.23-.553-.58-.552-.582.62-.587.62-.587.55.575.55.575.216-.165c.118-.091.215-.195.215-.23 0-.075-2.363-2.622-2.432-2.622-.024 0-.132.092-.24.204Zm38.352.072c.117.117.212.265.212.329-.001.19-.283.73-.476.91-.284.265-.495.321-.75.2-.456-.217-.5-.668-.114-1.175.401-.526.778-.615 1.128-.264Zm.73 1.746-.89.953.223.22.221.218.642-.682.642-.683.305.035c.33.037.59.253.59.49 0 .07-.297.444-.685.863l-.685.74.223.214.222.213.656-.689c.713-.749.93-1.108.868-1.439-.071-.379-.532-.721-.972-.721-.211 0-.228-.038-.093-.216.083-.11.076-.138-.077-.297-.092-.097-.198-.175-.234-.174-.037.001-.467.43-.956.955ZM9.811 18.525c-1.738 2.351-2.903 4.578-3.812 7.287-1.41 4.2-1.797 9.051-1.084 13.584.41 2.61.605 3.47 1.18 5.199a30.566 30.566 0 0 0 2.72 5.918c.649 1.086.86 1.346.407.501-1.932-3.601-2.963-6.798-3.344-10.365-.17-1.584-.141-4.846.064-7.427.131-1.65.737-4.504 1.363-6.415.91-2.784 2.294-5.52 3.714-7.346l.307-.396-.217-.262a18.6 18.6 0 0 0-.52-.591l-.303-.33-.475.643Zm49.965.512c.032.083.14.316.241.517.605 1.2 1.868 4.389 2.439 6.158 1.673 5.185 2.09 8.947 1.507 13.59-.518 4.126-1.805 8.04-3.718 11.315-1.615 2.762-3.927 5.46-6.595 7.693-.727.61-2.87 2.087-4.19 2.89-3.791 2.309-7.096 3.429-11.442 3.878-2.088.215-5.147.213-7.285-.005-4.532-.463-7.705-1.64-12.524-4.644-2.65-1.653-5.225-4.08-7.414-6.993-.34-.454-.635-.84-.653-.856-.178-.166 1.4 2.214 2.242 3.38.729 1.01 1.306 1.643 2.583 2.83 4.926 4.579 9.684 6.918 15.954 7.843 2.312.341 5.709.535 7.242.413 4.42-.35 10.138-2.408 14.142-5.088 4.62-3.092 8.406-7.655 10.613-12.792 1.208-2.81 1.857-5.33 2.218-8.611.16-1.466.161-5.674 0-7.046-.161-1.37-.327-2.3-.635-3.57-.907-3.734-2.538-7.656-4.354-10.464-.21-.324-.392-.59-.405-.59-.013 0 .002.069.034.152Zm5.683 1.101c2.243 4.636 3.388 9.75 3.385 15.124-.005 10.71-3.817 19.82-11.004 26.298-1.039.936-2.135 1.842-2.94 2.428-1.761 1.284-4.378 2.766-7.524 4.262-1.58.75-1.723.829-1.651.9.129.13 3.705-.986 5.23-1.632 4.229-1.79 8.272-4.723 11.21-8.132 4.49-5.208 7.077-11.595 7.754-19.144.122-1.355.102-5.148-.033-6.42-.474-4.448-1.516-8.146-3.355-11.899-.552-1.127-1.422-2.719-1.573-2.88-.033-.035.193.458.501 1.095ZM27.638 25.9v1.253h.495l.018-.486.018-.485h1.126l.018.485.018.485h.495v-2.505h-.5v1.002h-1.188v-1.002h-.5V25.9Zm2.876-.342c0 .772.018.946.12 1.143.17.332.453.48.912.479.44-.002.708-.124.917-.418.135-.189.148-.278.167-1.16l.021-.955h-.502l-.02.883c-.02.878-.021.883-.196 1.033-.278.24-.709.168-.85-.14-.039-.087-.069-.503-.069-.964v-.812h-.5v.911Zm2.97.228c-.275.627-.52 1.19-.545 1.253-.039.099-.01.113.219.113.248 0 .27-.015.369-.25l.104-.25h1.136l.1.25c.096.24.113.25.376.25h.275l-.086-.203c-.047-.112-.292-.676-.544-1.253l-.46-1.049h-.445l-.5 1.14Zm1.86-1.06.429 1.252.4 1.173.23.001h.229l.203-.61c.364-1.099.312-1.084.62-.179l.269.79h.451l.422-1.212c.231-.667.421-1.232.421-1.257 0-.024-.118-.035-.263-.024l-.263.019-.253.797c-.139.438-.267.797-.286.798-.018.001-.153-.365-.301-.812l-.268-.815h-.401l-.283.857-.283.857-.274-.857-.274-.857h-.277c-.194 0-.268.024-.248.079Zm4.112 1.174v1.253h1.876v-.439h-1.376v-.626h.876v-.439h-.876v-.5H41.27v-.501H39.456V25.9Zm2.438 0v1.253h.5v-2.506h-.5V25.9Zm-7.514-.171c.191.463.184.484-.166.484-.166 0-.318-.016-.338-.035-.041-.042.267-.78.326-.78.023 0 .102.15.178.33Zm-23.062 3.678v.313H58.715v-.626H11.318v.313Zm20.54 2.632a7.352 7.352 0 0 0-2.688.901c-.581.34-1.546 1.307-1.88 1.885-.475.822-.718 1.53-.873 2.536-.24 1.564-.027 3.163.59 4.415.66 1.344 1.739 2.252 3.26 2.746 1.486.482 3.758.5 5.339.044.575-.167 1.276-.437 1.322-.51.02-.033-.082-.413-.225-.845-.218-.653-.28-.778-.364-.743-1.134.47-2.064.664-3.167.663-1.005 0-1.584-.115-2.26-.446-.956-.47-1.68-1.392-1.994-2.537-.137-.505-.197-2.243-.096-2.826.339-1.957 1.49-3.196 3.255-3.504 1.08-.188 2.422 0 3.58.501.28.121.516.213.524.205a31.18 31.18 0 0 0 .586-1.612c0-.13-1.4-.614-2.256-.779-.635-.122-2.049-.172-2.653-.094Zm-18.227 6.48v6.357h2.251v-5.699h6.066v5.7h2.188V32.162h-2.188v5.198h-6.066v-5.198h-2.251v6.357Zm25.637 0v6.357h2.314V32.163h-2.314v6.357Zm9.047-6.31c-.025.04-4.873 12.066-5.05 12.528l-.055.142 1.165-.017 1.165-.017.631-1.675.632-1.675h5.206l.067.172.469 1.205c.221.569.483 1.252.581 1.518l.18.485h1.204c.662.001 1.204-.022 1.204-.051 0-.03-1.165-2.883-2.589-6.341l-2.588-6.289-1.096-.017c-.603-.01-1.11.005-1.126.031ZM49.52 34.9c.043.165.187.581.321.926.848 2.187 1.487 3.88 1.47 3.896-.01.011-.877.012-1.926.003l-1.906-.017.678-1.784c.373-.982.796-2.143.94-2.58.145-.437.281-.783.304-.769.023.014.076.16.12.325Zm-38.203 13.17v.313H58.715v-.627H11.318v.313ZM3.6 50.95c.085.306.731 1.798 1.153 2.662 1.041 2.134 2.318 4.1 3.927 6.044.722.873 2.561 2.723 3.418 3.437 3.432 2.863 7.142 4.858 10.729 5.772.672.171 1.567.31 1.496.23-.018-.018-.538-.235-1.157-.482-2.999-1.194-5.912-2.872-8.63-4.972-4.712-3.642-8.22-7.663-10.63-12.19-.192-.361-.33-.587-.306-.5Zm6.028.877c.037.069.081.125.098.125.018 0 .002-.056-.035-.125-.037-.069-.081-.125-.098-.125-.018 0-.002.056.035.125Zm30.168 1.093c-.366.367.001 1.012.503.885.418-.105.564-.654.242-.909-.229-.18-.552-.17-.745.024Zm-16.886.135c-.303.108-.636.415-.754.696-.118.282-.103.754.035 1.058.146.321.367.49 1.173.892.35.175.68.382.735.46.195.279.099.608-.228.777-.244.127-.761.086-1.246-.098-.181-.07-.35-.105-.375-.08a2.195 2.195 0 0 0-.172.371l-.127.325.357.144c.302.12.474.143 1.113.144.733.002.764-.004 1.063-.189.519-.32.758-.968.59-1.594-.106-.393-.437-.685-1.172-1.035-.742-.353-.892-.482-.892-.762 0-.168.04-.235.203-.338.168-.106.27-.123.596-.095.215.018.522.09.681.161.16.071.297.121.307.112.009-.01.057-.193.107-.408l.09-.391-.405-.125c-.482-.15-1.294-.161-1.679-.025Zm19.158.258-.231.024-.019.42-.018.419-.2.019c-.187.018-.201.038-.25.345l-.052.325.229.019.23.019.022 1.077c.027 1.237.085 1.436.485 1.661.177.1.346.136.639.136.394 0 .836-.088.89-.176.016-.025-.002-.18-.04-.343l-.068-.297-.223.045c-.352.07-.524.042-.644-.107-.096-.119-.112-.27-.112-1.07v-.933h.921l.04-.29c.067-.486.091-.462-.46-.462h-.5v-.876l-.204.01c-.112.006-.307.022-.435.035Zm-15.2.854c-.678.19-1.107.808-1.157 1.664-.04.701.1 1.142.478 1.509.353.341.638.437 1.308.437.584 0 1.36-.203 1.306-.342a7.184 7.184 0 0 1-.109-.34c-.042-.142-.097-.258-.121-.258-.025 0-.168.044-.319.098-.374.133-.915.133-1.171 0-.19-.098-.442-.496-.445-.707-.001-.057.281-.081 1.107-.094 1.278-.02 1.199.03 1.079-.68-.09-.532-.357-.965-.722-1.166-.324-.178-.846-.23-1.234-.12Zm3.759-.001c-.625.176-1.055.696-1.178 1.426-.082.486-.02 1.017.16 1.4.14.296.53.637.822.718.355.099 1.071.076 1.427-.045.286-.098.311-.123.303-.295a1.364 1.364 0 0 0-.076-.358l-.066-.17-.237.1a1.8 1.8 0 0 1-.556.105c-.591.01-.859-.32-.857-1.055.001-.539.129-.862.406-1.032.26-.158.524-.16.927-.007l.315.12.094-.226c.198-.474.194-.485-.171-.598-.477-.148-.973-.18-1.313-.083Zm7.864-.022c-.1.031-.27.144-.379.25-.218.21-.283.194-.283-.072v-.178h-.875v3.57h.938V55.477l.28-.259c.248-.23.314-.258.585-.258h.305l.064-.392c.036-.215.056-.4.045-.412-.049-.055-.518-.062-.68-.011Zm-5.664 1.396c0 1.323.007 1.41.14 1.675.208.411.471.562.983.562.362 0 .462-.028.768-.213l.353-.212.019.165c.018.159.037.167.441.184l.422.019v-3.576h-.938v1.243c0 1.37.015 1.317-.419 1.537-.228.116-.473.13-.645.038-.194-.104-.248-.47-.248-1.675v-1.143h-.876v1.396Zm6.92-1.354c-.023.023-.042.826-.042 1.785v1.743h.938v-3.57h-.427c-.235 0-.446.02-.47.042Zm4.21-.004c0 .02.284.813.63 1.76.456 1.248.62 1.768.59 1.883-.021.088-.137.258-.257.377-.21.21-.23.217-.582.185l-.364-.033-.077.343c-.042.188-.06.36-.039.38.021.02.275.05.565.065.453.024.566.008.817-.113.31-.15.593-.482.782-.915.117-.27 1.437-3.887 1.437-3.94 0-.016-.209-.03-.464-.03h-.464l-.401 1.206-.402 1.206-.4-1.206-.4-1.206h-.485c-.267 0-.486.017-.486.038Zm-16.317.716c.12.064.31.369.31.496 0 .041-.231.066-.626.066s-.625-.025-.625-.066c0-.12.186-.428.297-.493.143-.083.492-.085.644-.003Z" fill="#fff"/></svg>