<svg width="70" height="70" fill="none" xmlns="http://www.w3.org/2000/svg"><path fill-rule="evenodd" clip-rule="evenodd" d="M32.585.592C25.616.99 19.163 3.354 13.658 7.526c-1.404 1.064-2.326 1.871-3.627 3.177A34.384 34.384 0 0 0 0 35.015c0 4.567.856 9.301 2.37 13.114.3.754 1.018 2.39 1.038 2.366.008-.01-.14-.482-.328-1.05C1.388 44.325.79 38.1 1.471 32.68 3.163 19.2 12.801 7.862 25.846 4.005c8.655-2.558 18.009-1.604 25.939 2.646 4.84 2.594 9.188 6.494 12.17 10.913.634.94.78 1.127.517.658a34.265 34.265 0 0 0-5.716-7.551C52.95 4.835 45.413 1.341 37.16.657 36.042.564 33.663.53 32.585.592Zm-.8 5.285c-.885.28-1.267.878-1.204 1.884.075 1.199.714 1.786 1.858 1.707.41-.028 1.127-.243 1.127-.337a2.05 2.05 0 0 0-.092-.246l-.091-.22-.252.13c-.795.406-1.62.118-1.846-.644-.166-.56-.084-1.181.197-1.498.272-.307.853-.438 1.332-.3.246.07.283.045.335-.23.036-.196.032-.2-.276-.266-.402-.087-.774-.08-1.089.02Zm8.828.293c-.127.074-.15.43-.034.546.041.042.162.075.269.075.239 0 .343-.098.343-.32 0-.308-.3-.463-.578-.3Zm-2.025.355c-.047.26-.075.3-.22.317-.116.014-.177.066-.204.175-.048.193-.002.276.156.276.146 0 .146-.03.02.896-.13.96-.08 1.185.308 1.362.271.123.762.16.908.067.046-.03.074-.13.062-.226-.018-.156-.046-.173-.294-.185-.301-.014-.445-.142-.445-.396 0-.131.07-.685.159-1.243l.03-.194.326.052c.358.056.394.04.455-.209.046-.183.047-.182-.486-.268l-.235-.038.04-.342.04-.341h-.566l-.054.297Zm-10.862-.074c-.116.117-.13.41-.023.516.041.041.162.075.268.075.24 0 .344-.098.344-.321 0-.21-.147-.368-.344-.368a.399.399 0 0 0-.245.098Zm14.62.144c-.167.102-.31.34-.431.72-.027.086-.08.109-.196.087-.125-.024-.176.006-.249.146-.116.225-.114.245.018.247.283.002.282.064-.01 1.13-.156.565-.263 1.046-.238 1.07.025.023.154.071.286.107.208.056.246.05.272-.041l.291-1.046c.284-1.02.252-.981.7-.879.165.038.2.022.265-.12.113-.249.1-.266-.242-.349-.3-.072-.315-.086-.277-.241.104-.425.307-.534.658-.352.179.093.184.09.285-.103.096-.187.095-.202-.014-.267-.408-.242-.833-.284-1.118-.11Zm-8.061.126c-.458.211-.671.609-.676 1.26-.006.693.203 1.065.72 1.281.275.115.912.12 1.268.01.229-.07.25-.094.24-.28-.005-.113-.021-.217-.036-.232-.015-.015-.207.017-.428.071-.341.084-.438.086-.648.016a.736.736 0 0 1-.482-.615l-.02-.157.859-.017.859-.017v-.268c0-.39-.254-.863-.555-1.032-.303-.17-.756-.179-1.101-.02Zm2.193.211a19.3 19.3 0 0 0-.068.924c-.02.362-.052.848-.073 1.08l-.037.423h.623l.04-.516c.022-.284.04-.649.04-.81 0-.221.04-.338.159-.48.174-.208.523-.353.708-.295.125.04.194-.098.195-.388.001-.122-.032-.141-.235-.141-.24 0-.46.115-.652.342-.105.125-.108.123-.11-.1-.002-.203-.022-.23-.197-.266-.334-.067-.358-.052-.393.227Zm7.279.106c-.152.283.012.568.327.568.171 0 .358-.198.358-.38 0-.278-.556-.43-.685-.188Zm-8.594.158a.537.537 0 0 1 .153.313c0 .158-.004.16-.531.16-.496 0-.532-.01-.532-.13 0-.072.083-.213.183-.314.233-.234.511-.245.727-.03Zm4.999 1.201c-.13.684-.24 1.27-.244 1.302-.008.06.513.193.563.143.038-.038.527-2.566.502-2.592a1.6 1.6 0 0 0-.303-.058l-.283-.04-.235 1.245Zm-12.05-.966c-.13.034-.234.101-.234.15 0 .09.552 2.478.58 2.506.008.008.147-.013.308-.047.176-.038.283-.092.268-.137-.013-.04-.14-.581-.28-1.201-.304-1.328-.31-1.349-.365-1.34a5.672 5.672 0 0 0-.277.069Zm-1.975.489c-.692.293-.94 1.012-.634 1.832.233.627.661.906 1.287.841.324-.033.887-.27 1.102-.464.102-.092.1-.107-.02-.278l-.129-.18-.178.127c-.27.192-.694.325-.912.284-.197-.036-.391-.206-.518-.453-.068-.133-.046-.145.664-.362 1.079-.33.991-.25.765-.705-.247-.495-.474-.662-.932-.686-.192-.01-.414.01-.495.044Zm17.362.21c-.038.142-.193.708-.345 1.257a28.441 28.441 0 0 0-.275 1.04c0 .068.512.198.564.143.066-.07.695-2.405.67-2.483-.012-.034-.14-.097-.283-.14l-.262-.077-.07.26Zm-16.689.327c.106.089.193.199.193.244 0 .048-.185.139-.436.215-.24.073-.479.15-.531.17-.073.027-.096-.007-.095-.143.001-.245.127-.474.313-.568.228-.116.342-.099.556.082Zm-2.292.01c-.24.12-.237.081-.082 1.237.065.482.112.883.104.89-.012.013-.967-1.101-1.23-1.435-.1-.126-.1-.126-.36.007-.3.154-.29.063-.14 1.258.062.5.108.915.102.923-.006.008-.3-.338-.65-.767-.353-.43-.664-.782-.693-.782-.03 0-.17.052-.311.116l-.258.115.821.934c.452.513.872.986.933 1.051.11.116.118.116.399 0 .332-.137.322-.078.193-1.118-.132-1.056-.142-1.036.266-.55.197.236.483.572.634.747l.275.318.287-.126c.159-.069.293-.13.3-.133.043-.033-.275-2.757-.324-2.77-.035-.009-.154.03-.266.085Zm20.592.138c-.545.175-.98.859-.98 1.537 0 .45.132.704.491.942.222.147 1.027.351 1.091.277a.938.938 0 0 0 .062-.224c.036-.191.03-.196-.242-.234-.619-.085-.886-.401-.772-.912.083-.368.205-.587.434-.78.262-.22.484-.208.866.05l.318.214.136-.192c.134-.188.134-.193.017-.282-.498-.373-1.03-.521-1.421-.396Zm1.937.74c-.014.026-.043.12-.065.212-.042.177.034.24.293.242.22.003.65.227.762.398.088.135.092.195.03.385-.04.123-.093.215-.115.203-.788-.422-1.232-.507-1.56-.3a.887.887 0 0 0-.298.346c-.273.655.176 1.194.98 1.174.337-.008.349-.003.321.141-.024.125.01.166.208.249.13.055.254.077.275.05.02-.026.202-.392.402-.812.531-1.113.536-1.529.022-1.901-.329-.24-1.19-.504-1.255-.386Zm2.855.894c-.143.217-.191.248-.333.217-.12-.027-.198 0-.285.096-.118.13-.118.134.03.245l.149.113-.417.71c-.354.604-.416.755-.416 1.005 0 .267.024.315.253.512.21.18.727.397.791.333.01-.01.035-.107.057-.216.03-.152.018-.2-.054-.2-.168 0-.422-.25-.422-.417 0-.12.573-1.215.73-1.395.02-.025.175.053.531.27.082.05.133.03.233-.089a.73.73 0 0 0 .129-.194c.001-.023-.132-.119-.295-.213a7.83 7.83 0 0 1-.32-.191c-.013-.01.05-.145.14-.3a2.1 2.1 0 0 0 .165-.315c0-.03-.412-.224-.476-.224-.013 0-.098.114-.19.253Zm-30.181.556c-.172.1-.424.297-.56.438l-.248.258.164.164.164.164.203-.231c.207-.237.598-.475.779-.475.056 0 .187.086.291.19l.19.191-.366.218c-.546.323-.774.606-.773.962 0 .317.151.604.386.735.195.108.58.105.797-.007.223-.116.492-.433.544-.642l.04-.16.105.138.104.139.23-.137c.127-.075.231-.158.231-.186 0-.027-.218-.411-.484-.853-.32-.53-.557-.852-.697-.946-.306-.206-.702-.192-1.1.04Zm32.013-.006a.44.44 0 0 0-.104.25c0 .171.21.387.375.387.161 0 .375-.214.375-.375 0-.17-.217-.376-.397-.376a.388.388 0 0 0-.25.114Zm-4.242.173c.18.09.325.181.325.204 0 .022-.055.131-.122.241-.162.266-.465.33-.797.167-.304-.15-.35-.385-.119-.616.198-.199.309-.198.713.004Zm3.11 1.632c-.509.766-.71 1.12-.668 1.17.034.04.144.122.245.182l.183.108.728-1.095c.4-.601.728-1.104.728-1.117 0-.013-.11-.096-.243-.184l-.243-.161-.73 1.097Zm-32.663-.63c-.12.087-.211.185-.202.22.009.033.254.383.544.775.477.647.522.732.475.897-.127.44-.403.674-.677.571-.078-.03-.4-.404-.715-.833l-.574-.78-.236.167c-.13.092-.238.182-.239.2 0 .017.266.39.593.83.787 1.06 1.06 1.216 1.594.915.247-.139.5-.512.5-.737 0-.155.078-.17.187-.038.106.128.187.116.402-.06.166-.136.174-.161.094-.275-.491-.691-1.471-2.007-1.496-2.007-.017 0-.13.07-.25.156Zm3.086.113c.137.255.102.405-.157.664-.231.232-.502.252-.644.05-.19-.274-.08-.5.401-.823.218-.146.271-.132.4.11ZM52 12.741c-.288.152-.603.513-.76.868-.355.803.293 1.733 1.203 1.728.39-.003.633-.11.932-.414.577-.587.647-1.31.177-1.846-.395-.451-1.062-.595-1.552-.336Zm-37.232.517-.196.204.497.542.498.543-.6.553c-.33.305-.62.562-.644.57-.025.01-.25-.209-.5-.485s-.478-.502-.508-.502c-.071 0-.438.312-.438.372 0 .039 1.663 1.86 2.288 2.508l.15.156.23-.231.23-.231-.555-.578-.556-.578.622-.588.623-.588.547.575.547.576.219-.167c.12-.092.218-.197.218-.233 0-.074-2.362-2.621-2.431-2.621-.024 0-.133.091-.24.203Zm38.29.016c.256.217.291.414.134.77-.158.36-.4.626-.67.742-.272.116-.59-.01-.736-.293-.139-.27-.081-.539.193-.898.373-.49.746-.601 1.078-.321Zm.777 1.804-.89.952.224.22.222.218.644-.682.643-.682.303.034c.327.037.588.254.588.49 0 .07-.297.444-.685.863l-.685.741.223.213.222.213.654-.689c.663-.697.896-1.035.896-1.298 0-.407-.517-.862-.979-.862-.23 0-.249-.036-.113-.216.084-.11.077-.138-.076-.298-.092-.096-.198-.174-.234-.172-.037.002-.467.432-.956.955ZM9.904 18.394c-.428.546-1.521 2.2-1.916 2.897-2.23 3.942-3.424 8.682-3.424 13.591 0 1.821.084 2.736.496 5.456.559 3.684 1.977 7.364 4.21 10.923.205.327.403.623.439.658.036.034.023-.008-.029-.094-.321-.53-1.106-2.04-1.448-2.787-1.87-4.085-2.56-7.492-2.46-12.151.08-3.755.305-5.572 1.037-8.388.88-3.384 2.475-6.814 4.205-9.042.302-.388.305-.396.194-.536-.269-.34-.857-.98-.901-.98-.026 0-.208.204-.403.453Zm49.79.518c0 .018.11.25.243.517.88 1.755 2.172 5.124 2.852 7.437 1.383 4.712 1.697 8.09 1.152 12.432-.937 7.46-4.17 13.634-9.668 18.46-1.288 1.132-2.967 2.318-5.08 3.59-4.571 2.753-8.873 3.885-14.782 3.892-1.759.001-2.92-.067-4.532-.268-4.01-.5-7.111-1.702-11.62-4.505-2.68-1.665-5.37-4.205-7.526-7.108a27.997 27.997 0 0 0-.593-.783c-.214-.192 1.632 2.563 2.472 3.688.593.796.933 1.173 1.825 2.025 3.2 3.054 5.933 4.943 9.14 6.318 2.758 1.183 5.904 1.946 9.393 2.28 1.34.128 4.112.236 4.847.189 3.307-.214 7.514-1.43 11.158-3.226 3.1-1.528 5.494-3.265 7.91-5.739 4.208-4.31 6.987-9.724 7.932-15.45.366-2.222.407-2.783.407-5.618 0-2.729-.046-3.422-.347-5.23-.652-3.916-2.595-8.983-4.7-12.26-.397-.618-.483-.732-.483-.64Zm5.747 1.22c2.252 4.703 3.381 9.76 3.379 15.125-.003 5.044-.869 9.859-2.53 14.06-2.268 5.736-5.874 10.438-11.034 14.39-1.833 1.404-4.93 3.163-8.61 4.89-.524.246-.953.48-.953.52 0 .092.203.053 1.328-.256 3.401-.934 6.317-2.287 9.33-4.327 6.706-4.543 11.296-11.671 12.962-20.131.917-4.655.917-9.787.001-14.247-.716-3.487-1.975-6.884-3.668-9.902-.718-1.28-.776-1.313-.205-.122Zm-37.812 5.763v1.252h.494l.019-.485.018-.485h1.125l.018.485.019.485h.494v-2.505h-.5v1.002H28.128v-1.002h-.5v1.253Zm2.875-.342c0 1.035.083 1.314.454 1.513.301.162.984.152 1.21-.017.4-.3.428-.388.451-1.44l.021-.967h-.501l-.02.882c-.021.879-.022.883-.197 1.034-.277.24-.708.168-.849-.14-.039-.088-.069-.504-.069-.965v-.811h-.5v.91Zm2.968.228c-.274.627-.52 1.19-.544 1.253-.039.099-.01.113.225.113.257 0 .275-.012.368-.25l.098-.25h1.136l.1.25c.096.239.113.25.376.25h.275l-.086-.203c-.047-.112-.292-.676-.544-1.253l-.46-1.049h-.444l-.5 1.14Zm1.86-1.06.428 1.252.4 1.174h.46l.202-.61c.366-1.104.315-1.09.617-.182l.264.792h.459l.421-1.212c.232-.666.422-1.232.422-1.256 0-.024-.119-.036-.263-.025l-.263.02-.253.796c-.139.439-.267.798-.286.799-.018 0-.153-.365-.3-.813l-.269-.814h-.401l-.282.857-.283.857-.274-.857-.274-.857h-.277c-.194 0-.268.023-.249.078Zm4.11 1.174v1.252h1.876v-.439H39.94v-.626h.876v-.438h-.876v-.501H41.254v-.501H39.441v1.253Zm2.438 0v1.252h.5v-2.505h-.5v1.253Zm-7.516-.171c.198.46.19.484-.162.484-.166 0-.318-.016-.337-.035-.04-.04.265-.78.322-.778.02 0 .1.148.177.329Zm-23.05 3.678v.313h47.38v-.626h-47.38v.313Zm20.815 2.608-.625.092c-1.968.29-3.602 1.447-4.454 3.156-.47.943-.733 2.144-.733 3.351 0 2.619 1.099 4.597 3.093 5.57 1.013.493 2.096.711 3.532.712 1.017 0 1.64-.07 2.469-.279.571-.144 1.448-.47 1.503-.56.02-.032-.08-.413-.224-.845-.218-.656-.278-.778-.364-.74-1.38.601-3.188.831-4.447.565-1.144-.241-2.142-1-2.615-1.987a6.887 6.887 0 0 1-.356-.901c-.138-.498-.197-2.24-.095-2.83.372-2.151 1.686-3.394 3.77-3.563.92-.075 2.204.17 3.151.6.227.103.419.187.427.187.007 0 .149-.369.314-.82.344-.937.379-.834-.377-1.129-1.204-.47-2.964-.727-3.969-.579Zm-18.502 6.505v6.358h2.251v-5.7H21.94v5.7H24.127V32.157H21.94v5.198H15.877v-5.198h-2.251v6.357Zm25.628 0v6.358H41.567V32.157H39.254v6.357Zm9.043-6.312c-.024.04-4.855 12.031-5.048 12.53l-.055.142 1.165-.017 1.166-.017.63-1.675.63-1.675h5.205l.067.172.468 1.205c.221.569.483 1.252.582 1.518l.18.485h1.203c.661.001 1.203-.021 1.203-.05 0-.027-1.164-2.881-2.588-6.341l-2.587-6.29-1.096-.018c-.603-.01-1.109.005-1.125.032Zm1.206 2.694c.043.164.187.58.32.925.848 2.187 1.487 3.88 1.47 3.897-.01.01-.877.012-1.925.003l-1.906-.017.678-1.785c.373-.982.796-2.142.94-2.58.144-.436.281-.782.304-.768.023.014.076.16.119.325Zm-38.19 13.17v.313h47.38v-.626h-47.38v.313ZM3.6 50.947c.099.358.896 2.16 1.341 3.037 2.08 4.09 4.982 7.552 8.59 10.245 1.474 1.1 3.222 2.19 4.69 2.926 1.786.895 5.193 2.016 5.915 1.945.169-.016-.017-.108-1.042-.517-3.87-1.541-7.558-3.885-11.154-7.087-3.344-2.977-6.073-6.378-7.975-9.94-.225-.42-.39-.694-.365-.608Zm21.674 4.414.69 2.351h.946l.466-1.628c.406-1.416.564-1.85.566-1.55 0 .043.205.769.456 1.613l.456 1.534.478.018.478.019.124-.426c.069-.234.353-1.214.632-2.179.279-.965.532-1.831.563-1.926l.056-.172h-.962l-.4 1.55c-.219.853-.417 1.587-.44 1.63-.036.068-.278-.685-.926-2.883l-.088-.297h-.96l-.465 1.627c-.255.894-.474 1.617-.486 1.605a48.706 48.706 0 0 1-.446-1.611l-.426-1.59-.5-.018-.502-.018.69 2.351Zm6.605.003v2.348h1.375c1.3 0 1.375-.006 1.375-.116 0-.064.018-.247.04-.407l.04-.29h-1.892V53.014h-.938v2.349Zm4.636-2.02c-.104.273-1.578 4.041-1.68 4.29-.024.059.092.078.461.078h.493l.21-.596.209-.597.882.017.882.018.213.579.213.58h.491c.27 0 .49-.022.49-.047 0-.026-.412-1.083-.917-2.349l-.919-2.302h-.904l-.124.329Zm3.49 2.02v2.348h.873l.017-1.652.016-1.652 1.038 1.636 1.038 1.637.51.018.508.018v-4.702h-.873l-.016 1.624-.017 1.624-1.031-1.623-1.032-1.624h-.515l-.516-.001v2.349Zm-2.397.324c-.014.014-.264.017-.555.007l-.53-.018.243-.658.278-.752c.019-.052.157.236.312.651.153.41.266.756.252.77Z" fill="#fff"/></svg>