<svg width="70" height="70" fill="none" xmlns="http://www.w3.org/2000/svg"><path d="M31.768 13.831c.25-.656.763-1.155 1.335-1.3.829-.208 1.444-.678 1.537.94v1.618c0 1.863.008.951 0 2.655-.013 2.793-.078 2.966-.718 1.924-.27-.439-.616-.98-.768-1.203-.393-.574-1.214-2.43-1.444-3.265-.17-.618-.163-.787.058-1.369ZM28.825 15.99c.126-.362.398-.878.603-1.149.205-.27.397-.491.427-.491.07 0 1.331 1.773 2.016 2.834.917 1.42 2.078 3.687 1.89 3.687-.373 0-3.472-1.902-4.284-2.63-.23-.206-.523-.65-.65-.986-.211-.553-.211-.67-.002-1.266ZM38.244 17.091c.461-.652 1.052-1.5 1.313-1.887.26-.385.543-.702.627-.704.27-.004 1.1 1.543 1.1 2.05 0 1.163-1.047 2.17-3.877 3.724-.632.347-1.177.604-1.21.57-.121-.121 1.227-2.593 2.047-3.753ZM35.37 19.611c-.128-1.43-.133-3.598-.04-4.291.138-1.155.223-3.2.598-3.004.921 0 2.027.615 2.316 1.062.363.708-.645 3.253-.645 3.325 0 .297-.5 1.295-1.294 2.579l-.843 1.366-.093-1.037ZM28.61 20.925c-.704-.596-1.12-1.656-.938-2.389.045-.183.116-.333.157-.333.136 0 4.021 2.214 4.874 2.778l.842.557-1.661.042c-1.876.047-2.62-.102-3.274-.655ZM37.267 20.96c1.087-.665 3.275-1.93 4.09-2.364.404-.216.786-.393.847-.393.218 0 .101 1.27-.172 1.875-.199.44-.484.737-.992 1.038-.666.393-.84.425-2.593.474-1.034.028-1.88-.006-1.88-.075 0-.07.315-.32.7-.556ZM29.05 22.174c0-.058.646-.129 1.436-.155.791-.027 1.753-.063 2.138-.08s.7.02.699.08c-.001.146-.77.662-1.71 1.15-.71.368-.784.378-1.27.174-.485-.204-1.294-.934-1.294-1.169ZM38.262 23.114c-.486-.255-1.083-.627-1.326-.828l-.443-.366 2.138.09c1.175.048 2.166.113 2.201.144.152.133-.58.89-1.109 1.144l-.576.279-.885-.463Z" fill="#fff"/><path fill-rule="evenodd" clip-rule="evenodd" d="M32.585.871c-6.969.398-13.422 2.762-18.927 6.934-1.404 1.064-2.326 1.872-3.627 3.178A34.384 34.384 0 0 0 0 35.294c0 4.566.856 9.3 2.37 13.114.3.753 1.018 2.39 1.038 2.365.008-.01-.14-.482-.328-1.05C1.388 44.605.79 38.381 1.471 32.959 3.163 19.48 12.801 8.141 25.846 4.284 34.502 1.726 43.855 2.68 51.785 6.93c4.84 2.594 9.188 6.494 12.17 10.914.634.94.78 1.126.517.657a34.265 34.265 0 0 0-5.716-7.55C52.95 5.114 45.413 1.62 37.16.935 36.042.843 33.663.809 32.585.87Zm-.8 5.285c-.885.28-1.267.878-1.204 1.885.075 1.198.714 1.785 1.858 1.707.41-.028 1.127-.244 1.127-.338a2.05 2.05 0 0 0-.092-.245l-.091-.22-.252.129c-.795.406-1.62.119-1.846-.644-.166-.559-.084-1.18.197-1.497.272-.308.853-.439 1.332-.301.246.07.283.045.335-.23.036-.196.032-.2-.276-.266-.402-.086-.774-.08-1.089.02Zm8.828.293c-.127.075-.15.431-.034.547.041.041.162.075.269.075.239 0 .343-.098.343-.321 0-.308-.3-.463-.578-.3Zm-2.025.356c-.047.258-.075.3-.22.316-.116.014-.177.066-.204.175-.048.193-.002.276.156.276.146 0 .146-.03.02.896-.13.96-.08 1.186.308 1.362.271.123.762.16.908.067.046-.03.074-.13.062-.225-.018-.157-.046-.174-.294-.186-.301-.014-.445-.142-.445-.395 0-.132.07-.686.159-1.243l.03-.194.326.051c.358.057.394.04.455-.209.046-.183.047-.182-.486-.268l-.235-.038.04-.341.04-.342h-.566l-.054.298ZM27.726 6.73c-.116.116-.13.409-.023.515.041.042.162.075.268.075.24 0 .344-.098.344-.32 0-.21-.147-.369-.344-.369a.399.399 0 0 0-.245.099Zm14.62.143c-.167.102-.31.34-.431.72-.027.086-.08.11-.196.087-.125-.024-.176.006-.249.146-.116.225-.114.246.018.247.283.002.282.064-.01 1.13-.156.565-.263 1.046-.238 1.07.025.023.154.072.286.107.208.056.246.05.272-.04l.291-1.047c.284-1.02.252-.98.7-.878.165.038.2.022.265-.121.113-.248.1-.266-.242-.349-.3-.071-.315-.085-.277-.24.104-.426.307-.535.658-.353.179.093.184.09.285-.103.096-.187.095-.202-.014-.267-.408-.242-.833-.283-1.118-.11ZM34.285 7c-.458.21-.671.608-.676 1.26-.006.693.203 1.064.72 1.28.275.116.912.12 1.268.011.229-.07.25-.094.24-.281-.005-.113-.021-.217-.036-.232-.015-.015-.207.018-.428.072-.341.083-.438.086-.648.015a.736.736 0 0 1-.482-.615l-.02-.156.859-.018.859-.017v-.268c0-.39-.254-.863-.555-1.032-.303-.17-.756-.178-1.101-.02Zm2.193.21c-.018.147-.048.563-.068.925-.02.361-.052.847-.073 1.08l-.037.423h.623l.04-.517c.022-.284.04-.648.04-.81 0-.22.04-.338.159-.48.174-.208.523-.353.708-.294.125.04.194-.098.195-.389.002-.287-.642-.139-.904.209-.085.112-.091.105-.093-.107-.002-.204-.022-.231-.197-.266-.334-.067-.358-.053-.393.227Zm7.279.106c-.152.283.012.568.327.568.171 0 .358-.198.358-.38 0-.278-.556-.43-.685-.188Zm-8.594.158a.537.537 0 0 1 .153.313c0 .159-.004.16-.531.16-.496 0-.532-.009-.532-.13 0-.072.083-.213.183-.314.233-.233.511-.244.727-.029Zm4.999 1.201c-.13.685-.24 1.27-.244 1.302-.008.06.513.193.563.143.038-.038.527-2.566.502-2.591a1.6 1.6 0 0 0-.303-.06l-.283-.038-.235 1.244Zm-12.05-.966c-.13.034-.234.101-.234.15 0 .09.552 2.479.58 2.506.008.009.147-.013.308-.047.176-.038.283-.092.268-.137-.013-.04-.14-.58-.28-1.2-.304-1.328-.31-1.35-.365-1.341a5.68 5.68 0 0 0-.277.069Zm-1.975.49c-.692.293-.94 1.012-.634 1.832.233.626.661.905 1.287.84.324-.033.887-.27 1.102-.463.102-.092.1-.108-.02-.278l-.129-.18-.178.127c-.27.192-.694.324-.912.284-.197-.037-.391-.207-.518-.453-.068-.133-.046-.145.664-.363 1.079-.33.991-.25.765-.705-.247-.495-.474-.662-.932-.686-.192-.01-.414.01-.495.044Zm17.362.209c-.038.142-.193.708-.345 1.257a28.445 28.445 0 0 0-.275 1.04c0 .068.512.199.564.143.066-.07.695-2.405.67-2.483-.012-.034-.14-.097-.283-.14l-.262-.077-.07.26Zm-16.689.327c.106.09.193.2.193.245 0 .047-.185.138-.436.214-.24.073-.479.15-.531.17-.073.028-.096-.007-.095-.142.001-.246.127-.475.313-.569.228-.115.342-.098.556.082Zm-2.292.01c-.24.12-.237.082-.082 1.237.065.482.112.883.104.891-.012.013-.967-1.102-1.23-1.436-.1-.126-.1-.126-.36.008-.3.153-.29.063-.14 1.258.062.499.108.914.102.922-.006.008-.3-.337-.65-.767-.353-.43-.664-.782-.693-.782-.03 0-.17.052-.311.116l-.258.116.821.933c.452.513.872.986.933 1.051.11.116.118.116.399 0 .332-.136.322-.078.193-1.117-.132-1.057-.142-1.036.266-.55.197.235.483.571.634.746l.275.319.287-.126.3-.134c.043-.033-.275-2.756-.324-2.77-.035-.008-.154.03-.266.085Zm20.592.139c-.545.174-.98.858-.98 1.537 0 .45.132.703.491.941.222.148 1.027.351 1.091.277a.938.938 0 0 0 .062-.224c.036-.191.03-.196-.242-.234-.619-.085-.886-.4-.772-.912.083-.367.205-.586.434-.78.262-.22.484-.208.866.05l.318.214.136-.191c.134-.189.134-.194.017-.282-.498-.374-1.03-.522-1.421-.396Zm1.937.74c-.014.025-.043.12-.065.21-.042.178.034.24.293.244.22.002.65.226.762.398.088.134.092.194.03.384-.04.124-.093.215-.115.203-.788-.421-1.232-.507-1.56-.3a.887.887 0 0 0-.298.346c-.273.656.176 1.194.98 1.174.337-.008.349-.003.321.142-.024.125.01.166.208.248.13.055.254.078.275.05.02-.026.202-.391.402-.812.531-1.113.536-1.528.022-1.901-.329-.239-1.19-.503-1.255-.386Zm2.855.893c-.143.217-.191.248-.333.217-.12-.026-.198 0-.285.096-.118.131-.118.134.03.245l.149.113-.417.71c-.354.605-.416.755-.416 1.006 0 .266.024.315.253.511.21.18.727.397.791.333.01-.01.035-.107.057-.216.03-.152.018-.199-.054-.199-.168 0-.422-.252-.422-.418 0-.12.573-1.215.73-1.395.02-.025.175.054.531.27.082.05.133.03.233-.089a.728.728 0 0 0 .129-.194c.001-.022-.132-.118-.295-.213a7.83 7.83 0 0 1-.32-.19c-.013-.011.05-.146.14-.3a2.1 2.1 0 0 0 .165-.315c0-.03-.412-.225-.476-.225-.013 0-.098.114-.19.253Zm-30.181.556c-.172.1-.424.297-.56.439l-.248.257.164.164.164.165.203-.232c.207-.236.598-.475.779-.475.056 0 .187.086.291.191l.19.19-.366.218c-.546.324-.774.607-.773.962 0 .317.151.604.386.735.195.108.58.105.797-.007.223-.116.492-.433.544-.642l.04-.16.105.138.104.139.23-.136c.127-.075.231-.16.231-.187 0-.027-.218-.411-.484-.853-.32-.53-.557-.852-.697-.946-.306-.206-.702-.191-1.1.04Zm32.013-.005a.44.44 0 0 0-.104.25c0 .17.21.387.375.387.161 0 .375-.215.375-.376 0-.17-.217-.376-.397-.376a.388.388 0 0 0-.25.115Zm-4.242.172c.18.09.325.181.325.204 0 .023-.055.131-.122.242-.162.265-.465.328-.797.166-.304-.149-.35-.385-.119-.616.198-.198.309-.198.713.005Zm3.11 1.632c-.509.766-.71 1.12-.668 1.17.034.041.144.123.245.182l.183.108.728-1.094c.4-.602.728-1.105.728-1.118 0-.012-.11-.095-.243-.184l-.243-.16-.73 1.096Zm-32.663-.629c-.12.086-.211.185-.202.219.009.034.254.383.544.776.477.647.522.73.475.897-.127.44-.403.673-.677.57-.078-.03-.4-.404-.715-.833l-.574-.78-.236.167c-.13.093-.238.182-.239.2 0 .017.266.39.593.83.787 1.06 1.06 1.217 1.594.916.247-.14.5-.512.5-.737 0-.155.078-.171.187-.039.106.128.187.116.402-.06.166-.136.174-.161.094-.275-.491-.691-1.471-2.007-1.496-2.007-.017 0-.13.07-.25.156Zm3.086.113c.137.254.102.404-.157.663-.231.232-.502.253-.644.05-.19-.273-.08-.5.401-.822.218-.146.271-.132.4.109ZM52 13.02c-.288.153-.603.513-.76.868-.355.803.293 1.734 1.203 1.728.39-.002.633-.11.932-.414.577-.586.647-1.31.177-1.846-.395-.45-1.062-.595-1.552-.336Zm-37.232.518-.196.203.497.543.498.542-.6.554c-.33.304-.62.56-.644.57-.025.01-.25-.21-.5-.485-.25-.277-.478-.502-.508-.502-.071 0-.438.311-.438.372 0 .038 1.663 1.86 2.288 2.508l.15.155.23-.23.23-.232-.555-.578-.556-.578.622-.588.623-.588.547.575.547.576.219-.167c.12-.092.218-.197.218-.233 0-.074-2.362-2.62-2.431-2.62-.024 0-.133.09-.24.203Zm38.29.015c.256.217.291.414.134.77-.158.36-.4.626-.67.742-.272.117-.59-.01-.736-.293-.139-.269-.081-.539.193-.898.373-.49.746-.601 1.078-.32Zm.777 1.804-.89.952.224.22.222.219.644-.683.643-.682.303.034c.327.037.588.254.588.49 0 .07-.297.444-.685.863l-.685.741.223.213.222.214.654-.69c.663-.697.896-1.035.896-1.297 0-.408-.517-.863-.979-.863-.23 0-.249-.035-.113-.216.084-.11.077-.138-.076-.297-.092-.097-.198-.175-.234-.173-.037.002-.467.432-.956.955ZM9.904 18.674c-.428.545-1.521 2.2-1.916 2.896-2.23 3.942-3.424 8.683-3.424 13.592 0 1.82.084 2.736.496 5.456.559 3.684 1.977 7.363 4.21 10.922.205.328.403.624.439.658.036.035.023-.008-.029-.094-.321-.53-1.106-2.04-1.448-2.787-1.87-4.085-2.56-7.492-2.46-12.15.08-3.756.305-5.573 1.037-8.388.88-3.385 2.475-6.815 4.205-9.043.302-.388.305-.396.194-.535-.269-.34-.857-.982-.901-.982-.026 0-.208.205-.403.455Zm49.79.518c0 .018.11.25.243.516.88 1.755 2.172 5.124 2.852 7.437 1.383 4.712 1.697 8.091 1.152 12.433-.937 7.459-4.17 13.633-9.668 18.46-1.288 1.131-2.967 2.318-5.08 3.59-4.571 2.752-8.873 3.885-14.782 3.89-1.759.003-2.92-.066-4.532-.267-4.01-.5-7.111-1.702-11.62-4.504-2.68-1.665-5.37-4.206-7.526-7.108a27.997 27.997 0 0 0-.593-.783c-.214-.193 1.632 2.562 2.472 3.688.593.796.933 1.173 1.825 2.024 3.2 3.054 5.933 4.943 9.14 6.318 2.758 1.183 5.904 1.947 9.393 2.28 1.34.129 4.112.237 4.847.189 3.307-.214 7.514-1.43 11.158-3.226 3.1-1.528 5.494-3.264 7.91-5.739 4.208-4.31 6.987-9.724 7.932-15.45.366-2.222.407-2.783.407-5.617 0-2.73-.046-3.423-.347-5.23-.652-3.917-2.595-8.983-4.7-12.26-.397-.619-.483-.732-.483-.641Zm5.747 1.22c2.252 4.703 3.381 9.76 3.379 15.124-.003 5.044-.869 9.859-2.53 14.06-2.268 5.736-5.874 10.439-11.034 14.39-1.833 1.404-4.93 3.163-8.61 4.89-.524.246-.953.48-.953.52 0 .093.203.054 1.328-.255 3.401-.935 6.317-2.287 9.33-4.328 6.706-4.543 11.296-11.671 12.962-20.13.917-4.655.917-9.788.001-14.248-.716-3.487-1.975-6.884-3.668-9.902-.718-1.279-.776-1.313-.205-.121Zm-37.812 5.762v1.253h.494l.019-.486.018-.485h1.125l.018.485.019.486h.494V24.92h-.5v1.002H28.128v-1.002h-.5v1.253Zm2.875-.342c0 1.036.083 1.314.454 1.513.301.162.984.153 1.21-.016.4-.3.428-.39.451-1.441l.021-.967h-.501l-.02.883c-.021.878-.022.883-.197 1.033-.277.24-.708.168-.849-.14-.039-.087-.069-.503-.069-.964v-.812h-.5v.911Zm2.968.228c-.274.627-.52 1.19-.544 1.253-.039.1-.01.114.225.114.257 0 .275-.012.368-.25l.098-.252h1.136l.1.251c.096.24.113.25.376.25h.275l-.086-.203c-.047-.112-.292-.676-.544-1.253l-.46-1.049h-.444l-.5 1.14Zm1.86-1.06.428 1.252.4 1.174h.46l.202-.61c.366-1.104.315-1.09.617-.181l.264.792h.459l.421-1.212c.232-.667.422-1.232.422-1.257 0-.024-.119-.035-.263-.025l-.263.02-.253.797c-.139.438-.267.797-.286.798-.018.001-.153-.365-.3-.813l-.269-.814h-.401l-.282.857-.283.857-.274-.857-.274-.857h-.277c-.194 0-.268.024-.249.079Zm4.11 1.174v1.253h1.876v-.439H39.94v-.626h.876v-.439h-.876v-.5H41.254v-.501H39.441v1.252Zm2.438 0v1.253h.5V24.92h-.5v1.253Zm-7.516-.171c.198.46.19.484-.162.484-.166 0-.318-.016-.337-.035-.04-.04.265-.78.322-.778.02 0 .1.149.177.329Zm-23.05 3.678v.314h47.38v-.627h-47.38v.313Zm20.815 2.608-.625.092c-1.968.29-3.602 1.447-4.454 3.157-.47.942-.733 2.143-.733 3.35 0 2.62 1.099 4.598 3.093 5.57 1.013.493 2.096.711 3.532.712 1.017 0 1.64-.07 2.469-.279.571-.144 1.448-.47 1.503-.56.02-.032-.08-.413-.224-.845-.218-.656-.278-.778-.364-.74-1.38.601-3.188.831-4.447.566-1.144-.242-2.142-1-2.615-1.987a6.763 6.763 0 0 1-.355-.902c-.138-.504-.197-2.241-.096-2.826.372-2.155 1.685-3.397 3.77-3.567.92-.075 2.204.17 3.151.6.227.103.419.187.427.187.007 0 .149-.368.314-.82.344-.936.379-.833-.377-1.128-1.204-.47-2.964-.727-3.969-.58Zm-18.502 6.505v6.358h2.251v-5.7H21.94v5.7H24.127V32.437H21.94v5.199H15.877v-5.199h-2.251v6.358Zm25.628 0v6.358H41.567V32.437H39.254v6.358Zm9.043-6.311c-.024.039-4.855 12.03-5.048 12.53l-.055.142 1.165-.017 1.166-.017.63-1.676.63-1.675h5.205l.067.172.468 1.206c.221.568.483 1.251.582 1.518l.18.484 1.203.001c.661 0 1.203-.022 1.203-.05 0-.028-1.164-2.882-2.588-6.342l-2.587-6.29-1.096-.017c-.603-.01-1.109.004-1.125.03Zm1.206 2.693c.043.164.187.58.32.925.848 2.188 1.487 3.88 1.47 3.897-.01.011-.877.012-1.925.003l-1.906-.016.678-1.785c.373-.982.796-2.143.94-2.58.144-.437.281-.783.304-.769.023.014.076.16.119.325Zm-38.19 13.17v.313h47.38v-.626h-47.38v.313ZM3.6 51.227c.099.357.896 2.16 1.341 3.036 2.08 4.091 4.982 7.553 8.59 10.245 1.474 1.1 3.222 2.19 4.69 2.927 1.786.895 5.193 2.015 5.915 1.945.169-.017-.017-.11-1.042-.517-3.87-1.542-7.558-3.885-11.154-7.088-3.344-2.977-6.073-6.378-7.975-9.939-.225-.421-.39-.695-.365-.609Zm28.136.359-.175.026.018 1.598.019 1.599.151.122c.115.093.227.118.469.104.317-.018.317-.019.317-.235 0-.179-.026-.223-.156-.253l-.156-.037-.017-1.485-.017-1.485-.14.01a4.598 4.598 0 0 0-.314.036Zm8.443-.001c-.165.025-.17.038-.187.505l-.018.478-.325-.017c-.4-.021-.82.15-1.006.41-.427.603-.293 1.718.24 1.994.252.131.676.116.919-.032.166-.101.203-.107.203-.03 0 .07.079.092.32.092.3 0 .317-.008.282-.14-.02-.078-.038-.853-.039-1.723 0-1.746.036-1.602-.389-1.537Zm-10.456.198c-.774.205-1.209.896-1.142 1.82.07.994.717 1.51 1.79 1.43.228-.018.494-.07.591-.115.154-.072.173-.108.14-.272-.055-.273-.1-.294-.411-.185-.351.122-.826.084-1.051-.084-.301-.225-.418-.504-.413-.989.006-.66.203-.957.734-1.1.22-.06.415-.031.943.142.03.01.093-.089.139-.22l.082-.24-.221-.092c-.266-.111-.92-.164-1.181-.095Zm3.938.804c-.228.056-.544.344-.662.606-.167.37-.158.938.02 1.294.306.606 1.276.764 1.79.29.456-.418.505-1.407.092-1.872-.25-.281-.805-.423-1.24-.318Zm2.041 1.005c.023 1.09.072 1.245.432 1.395.25.104.691.045.927-.123.193-.137.194-.137.194-.008 0 .112.038.13.297.13h.296l-.018-1.19-.018-1.19h-.62v1.692l-.203.124c-.253.155-.435.158-.569.01-.085-.095-.103-.262-.103-.97v-.857h-.636l.021.987Zm-1.312-.36c.232.313.224.954-.014 1.193-.12.12-.391.159-.588.083-.36-.138-.375-1.274-.02-1.424.193-.081.508-.006.622.149Zm5.584.47v.625l-.23.124c-.472.253-.813-.134-.712-.807.065-.436.26-.613.645-.588l.297.019v.626Zm.25 3.436c-.234.357.266.743.553.426a.434.434 0 0 0 .103-.246c0-.324-.477-.455-.657-.18Zm-16.653.143c-.398.198-.652.558-.76 1.074-.18.875.215 1.724.913 1.955.282.093 1.238.053 1.478-.062.147-.07.16-.1.107-.244l-.084-.237c-.019-.053-.088-.05-.264.013-.848.303-1.529-.123-1.537-.96-.004-.459.097-.762.328-.983.235-.227.676-.28 1.102-.135.163.056.303.102.31.102a.52.52 0 0 0 .051-.151c.021-.083.054-.192.073-.242.057-.148-.408-.296-.93-.296-.367 0-.52.032-.787.166Zm14.98.066c-.156.024-.171.05-.171.297 0 .237-.02.276-.157.31-.129.033-.156.078-.156.258 0 .189.02.218.152.218h.15l.021.82c.02.81.023.822.196.97.144.124.245.152.551.152.508 0 .615-.064.558-.327-.024-.113-.07-.2-.103-.195a5.09 5.09 0 0 0-.213.05.348.348 0 0 1-.279-.051c-.106-.078-.126-.183-.147-.751l-.025-.66.335-.02c.333-.02.334-.02.372-.254l.038-.235h-.731v-.313c0-.336.01-.33-.39-.269Zm-12.087.58c-.513.122-.836.598-.834 1.227.002.461.161.834.444 1.036.31.22.99.243 1.331.043.346-.201.537-.586.535-1.077-.003-.92-.62-1.434-1.476-1.23Zm2.941.096a5.07 5.07 0 0 1-.323.156c-.009 0-.016-.056-.016-.125 0-.107-.041-.125-.28-.125h-.282v2.45l.297-.02.297-.019.03-.843.032-.843.213-.143c.247-.167.314-.175.478-.055.109.08.124.185.143 1.002l.022.914h.547l.017-.855c.017-.83.022-.858.174-.966.263-.186.418-.204.56-.062.117.118.128.205.128 1.006v.877h.625v-.861c0-.474-.029-.962-.063-1.086-.15-.542-.717-.7-1.248-.348-.246.163-.276.17-.33.072-.066-.117-.414-.283-.597-.283-.064 0-.255.07-.424.157Zm4.195-.035c-.295.154-.283.153-.283.035 0-.071-.078-.094-.32-.094h-.322l.04.235c.02.13.038.89.038 1.691l.001 1.456h.562v-.94h.41c.46 0 .686-.09.92-.37.318-.378.374-1.243.108-1.681-.251-.415-.73-.553-1.154-.332Zm8.991-.054a.662.662 0 0 0-.273.151c-.108.131-.188.118-.188-.03 0-.11-.042-.126-.32-.126h-.32l.039.196c.021.107.039.657.039 1.221v1.026h.562V58.69l.176-.126c.252-.18.459-.218.605-.11.114.082.127.176.146 1.008l.02.916.292-.019.292-.019v-.973c0-1.096-.047-1.247-.44-1.412-.237-.1-.347-.103-.63-.02Zm2.32.023c-.454.166-.718.631-.718 1.263 0 .461.103.744.347.959.183.16.272.193.533.193.173 0 .397-.043.498-.096.181-.094.184-.093.184.067 0 .428-.356.599-.912.437-.193-.056-.363-.09-.377-.076a1.03 1.03 0 0 0-.084.226c-.052.18-.042.206.111.273.093.04.422.075.731.075.483.002.59-.018.758-.138.364-.26.398-.422.398-1.892v-1.325l-.328.013a4.019 4.019 0 0 1-.609-.03 1.077 1.077 0 0 0-.531.05Zm-9.469.882c0 .984.059 1.248.32 1.43.208.147.725.134.961-.023.236-.156.282-.156.282 0 0 .107.041.126.28.126h.282v-2.443h-.625v.841c0 .834-.001.842-.165.97-.181.144-.518.173-.635.055-.051-.05-.075-.357-.075-.97v-.896h-.625v.91Zm4.765.296.017 1.205.297.02.296.019v-2.45h-.627l.017 1.206Zm-13.194-.7c.266.143.397.84.222 1.185a.62.62 0 0 1-.246.237c-.386.185-.735-.144-.735-.694 0-.6.357-.943.759-.728Zm7.097.084c.159.136.176.19.176.559 0 .316-.03.447-.132.584-.167.226-.407.315-.634.235-.172-.06-.172-.061-.172-.678v-.617l.218-.117c.28-.151.333-.148.544.034Zm11.547-.113c.08.03.099.15.099.654 0 .565-.012.624-.14.713-.22.155-.518.125-.669-.067-.233-.298-.131-1.097.162-1.268.128-.074.397-.09.548-.032Z" fill="#fff"/></svg>