<svg width="70" height="69" fill="none" xmlns="http://www.w3.org/2000/svg"><path d="M31.81 12.972c.248-.657.76-1.157 1.332-1.302.828-.209 1.442-.678 1.536.942v1.62c0 1.866.008.953 0 2.659-.014 2.797-.078 2.97-.718 1.927-.27-.44-.614-.982-.767-1.205-.392-.575-1.211-2.434-1.441-3.27-.17-.619-.163-.788.058-1.37ZM28.87 15.133c.126-.361.398-.878.603-1.15.205-.27.396-.492.425-.492.07 0 1.33 1.777 2.015 2.84.915 1.42 2.075 3.691 1.886 3.691-.372 0-3.466-1.905-4.277-2.633-.23-.207-.523-.652-.65-.988-.21-.554-.21-.671-.002-1.268ZM38.277 16.237a142.2 142.2 0 0 0 1.31-1.89c.261-.386.543-.703.627-.705.27-.004 1.099 1.545 1.099 2.053 0 1.165-1.047 2.172-3.872 3.73-.631.347-1.175.604-1.209.57-.12-.121 1.226-2.597 2.045-3.758ZM35.406 18.76c-.127-1.431-.132-3.603-.04-4.297.138-1.157.224-3.204.598-3.009.92 0 2.024.616 2.313 1.064.362.71-.645 3.258-.645 3.33 0 .297-.5 1.297-1.291 2.583l-.843 1.368-.092-1.038ZM28.656 20.076c-.703-.596-1.12-1.658-.938-2.392.046-.183.117-.334.157-.334.137 0 4.016 2.217 4.868 2.783l.841.557-1.66.042c-1.872.047-2.615-.101-3.268-.655ZM37.301 20.11c1.085-.665 3.27-1.931 4.084-2.366.404-.217.785-.394.847-.394.217 0 .1 1.271-.173 1.879-.198.439-.482.738-.99 1.039-.665.394-.84.426-2.59.474-1.032.029-1.877-.005-1.877-.075 0-.07.315-.32.7-.556ZM29.094 21.328c0-.06.646-.13 1.435-.156.79-.027 1.75-.063 2.135-.08.385-.017.699.02.698.08-.001.146-.768.663-1.708 1.152-.71.368-.783.378-1.267.174-.485-.204-1.293-.935-1.293-1.17ZM38.295 22.268c-.486-.254-1.082-.628-1.325-.829l-.442-.366 2.135.09c1.174.048 2.163.113 2.198.144.152.133-.58.891-1.107 1.146l-.576.279-.883-.463Z" fill="#6A6A6A"/><path fill-rule="evenodd" clip-rule="evenodd" d="m32.834.038-1.437.108C25.05.62 18.551 3.168 13.332 7.229c-4.189 3.258-7.447 7.264-9.797 12.045C1.817 22.768.762 26.26.283 30.033c-.702 5.534-.087 11.482 1.71 16.544.396 1.119 1.081 2.773 1.128 2.726.012-.013-.145-.585-.35-1.272-1.025-3.438-1.49-6.6-1.56-10.616-.055-3.161.102-5.109.62-7.695.601-3.001 1.48-5.568 2.874-8.4 1.796-3.646 3.678-6.272 6.574-9.173 2.38-2.384 4.68-4.141 7.493-5.723C29.05.644 41.863.58 52.107 6.255c2.98 1.652 5.439 3.517 7.913 6.003 1.353 1.36 2.107 2.233 3.23 3.739.397.531.737.966.755.966.12 0-1.492-2.426-2.315-3.486C57.934 8.64 53.144 4.955 47.579 2.62 44.843 1.472 41.28.55 38.316.22c-1.718-.19-4.268-.275-5.482-.182Zm-.87 5.25c-.717.146-1.136.522-1.33 1.195-.152.52-.099 1.044.159 1.58.28.583.764.868 1.473.868.382 0 1-.16 1.172-.303.15-.124-.012-.484-.183-.41-.34.148-.901.253-1.124.211-.321-.06-.687-.366-.82-.686-.151-.363-.132-1.147.035-1.46.222-.413.554-.554 1.196-.504.53.04.54.038.576-.149.024-.126-.005-.212-.086-.254-.192-.1-.777-.148-1.068-.088Zm8.59.429c-.13.341.092.624.411.523.184-.059.273-.379.148-.53-.125-.151-.5-.146-.558.007Zm-1.882.008c-.02.034-.06.172-.089.307-.037.176-.095.247-.2.247-.084 0-.175.074-.212.17-.08.212-.04.284.155.284.127 0 .146.036.112.209-.112.564-.19 1.4-.15 1.603.072.36.277.489.832.524l.493.032-.025-.217c-.017-.154-.068-.218-.176-.223-.35-.017-.414-.04-.493-.188-.06-.113-.06-.316 0-.74.137-.971.104-.912.512-.898.336.011.36 0 .36-.177 0-.165-.041-.195-.303-.228-.302-.038-.303-.039-.308-.379-.005-.324-.017-.342-.239-.364-.128-.013-.25.004-.269.038Zm-10.975.218c-.152.152-.149.205.02.414.27.335.747.002.544-.379-.1-.185-.396-.203-.564-.035Zm14.74.06c-.223.099-.338.258-.488.673-.054.15-.128.209-.258.209-.182 0-.315.177-.233.31.023.038.092.069.151.069.157 0 .138.151-.15 1.212-.142.52-.248.956-.237.968.012.012.13.053.263.091.285.082.26.129.615-1.162.25-.912.276-.945.633-.809.158.06.207.048.27-.07.123-.23.095-.277-.226-.373-.166-.05-.302-.101-.302-.114 0-.013.037-.131.083-.263.096-.275.359-.378.64-.25.152.07.194.06.258-.061.108-.201.103-.213-.13-.333-.333-.17-.645-.204-.89-.096Zm-8.222.2c-.397.216-.597.638-.597 1.26 0 .57.147.883.535 1.146.303.204 1.063.236 1.48.06.23-.095.253-.13.194-.283-.037-.096-.113-.162-.17-.146-.305.089-.924.094-1.081.01-.19-.101-.343-.375-.343-.608 0-.134.07-.148.85-.167l.851-.022-.027-.303a1.238 1.238 0 0 0-.419-.865c-.273-.256-.882-.295-1.273-.082Zm2.262.28c-.025.2-.068.794-.096 1.32l-.05.956.255.038c.319.048.366-.023.368-.548.004-.876.08-1.205.32-1.376a.998.998 0 0 1 .437-.169c.255-.013.266-.022.331-.293.046-.193.033-.208-.183-.208-.26 0-.533.12-.625.276-.097.165-.192.119-.218-.106-.02-.171-.065-.212-.259-.231-.229-.022-.237-.013-.28.341Zm7.326-.01c-.065.066-.118.166-.118.222 0 .148.213.341.378.341.16 0 .378-.192.378-.334 0-.13-.248-.348-.398-.348a.413.413 0 0 0-.24.12Zm-8.644.166c.065.073.13.2.144.284.024.138-.022.153-.522.174-.611.024-.671-.035-.392-.391.188-.239.586-.274.77-.067Zm5.237.039c-.102.3-.474 2.45-.43 2.491.028.027.158.071.288.099l.236.05.245-1.296c.135-.713.233-1.306.218-1.32a1.407 1.407 0 0 0-.277-.07c-.166-.032-.26-.017-.28.046Zm-12.431.274c-.089.058-.065.247.143 1.157.334 1.457.328 1.443.585 1.382a.871.871 0 0 0 .263-.098c.03-.026-.073-.593-.23-1.26-.267-1.143-.293-1.211-.47-1.23a.534.534 0 0 0-.291.05Zm-2.032.539c-.727.444-.74 1.637-.022 2.311.215.203.292.227.709.225.372-.002.55-.048.878-.227.457-.25.5-.314.348-.516-.1-.133-.118-.131-.439.057-.464.273-.833.262-1.126-.032-.125-.125-.214-.266-.198-.314.015-.047.367-.188.78-.313.415-.125.765-.237.78-.249.09-.075-.123-.542-.362-.794-.262-.277-.315-.3-.693-.3-.274.001-.49.05-.655.152Zm17.645-.086c-.086.139-.656 2.307-.636 2.415.02.1.425.287.488.225.042-.042.704-2.507.68-2.532-.068-.068-.503-.156-.532-.108Zm-16.804.47c.11.087.2.203.2.259 0 .128-.911.445-1.006.35-.124-.125.025-.535.237-.65.27-.147.336-.142.57.041Zm-2.335.1c-.139.102-.14.132-.017 1.076.07.534.117.981.105.992-.011.012-.308-.319-.659-.735-.35-.416-.665-.756-.698-.756-.033 0-.163.053-.288.118-.19.098-.222.153-.189.322.087.447.214 1.69.177 1.728-.022.022-.32-.304-.663-.723-.343-.42-.637-.763-.654-.763-.104 0-.483.248-.463.302.013.037.347.431.742.877.395.445.787.894.871.997.153.186.155.186.435.052.324-.155.32-.125.17-1.242-.058-.437-.095-.805-.082-.818.013-.013.303.302.645.7.341.398.636.723.654.723.019 0 .156-.051.306-.114l.273-.114-.045-.397c-.024-.219-.086-.833-.136-1.364-.098-1.03-.143-1.11-.484-.861Zm20.405.237c-.615.37-.907 1.41-.557 1.985.256.422 1.228.77 1.439.515.14-.17.034-.341-.213-.341-.12 0-.334-.078-.475-.174-.215-.144-.26-.225-.28-.496-.034-.455.226-.97.57-1.135.257-.123.27-.12.643.088.349.195.391.202.502.092.162-.163.052-.329-.368-.551-.433-.23-.86-.224-1.26.017Zm2.223.613c-.03.03-.056.135-.056.232 0 .139.042.177.192.177.54 0 1.009.423.871.785-.042.11-.09.2-.108.2-.018 0-.214-.085-.437-.189-.424-.198-.882-.243-1.127-.112-.2.107-.373.469-.373.776 0 .455.617.867 1.14.763.188-.038.22-.02.22.114 0 .1.085.203.228.277l.227.118.387-.817c.215-.454.403-.97.423-1.16.032-.298.008-.38-.176-.6-.3-.356-1.242-.733-1.411-.564Zm2.844.864c-.096.162-.192.227-.336.227-.11 0-.246.054-.301.12-.085.103-.08.133.029.194.07.04.128.101.128.137 0 .036-.172.358-.383.717-.21.359-.402.77-.425.915-.037.226-.007.298.22.525.392.393.89.466.89.13 0-.092-.069-.163-.19-.194a.473.473 0 0 1-.277-.233c-.074-.162-.04-.264.276-.813.198-.345.388-.657.422-.693.034-.037.182.008.335.103.263.163.28.164.421.036.183-.166.187-.239.016-.296a1.39 1.39 0 0 1-.316-.186l-.183-.141.167-.284c.092-.156.158-.292.146-.302-.075-.061-.365-.19-.429-.19-.042 0-.137.103-.21.228Zm-30.104.504a3.227 3.227 0 0 0-.567.41l-.32.287.17.174.17.174.114-.162c.158-.226.586-.478.81-.478.181 0 .438.204.438.347 0 .038-.155.152-.344.253-.465.247-.715.557-.715.888 0 .957 1.108 1.172 1.619.314.104-.175.2-.266.23-.218.074.121.229.102.419-.053l.167-.135-.463-.77c-.256-.422-.568-.856-.694-.962-.271-.229-.658-.254-1.034-.069Zm31.936.07c-.227.227-.073.562.26.562.304 0 .434-.242.267-.497-.138-.212-.355-.239-.527-.066Zm-4.233.154c.3.142.333.333.098.569-.277.276-.974.097-.974-.25 0-.432.362-.564.877-.319Zm3.094 1.637-.723 1.082.195.17c.108.095.22.17.248.17.06-.003 1.451-2.09 1.451-2.18 0-.032-.1-.119-.224-.192l-.224-.133-.723 1.083Zm-32.694-.62c-.098.082-.161.191-.141.244.02.052.238.367.484.7.246.334.473.647.503.697.085.141-.165.674-.369.783-.277.149-.448.018-1.051-.802-.29-.393-.564-.715-.61-.715-.047 0-.157.076-.244.17l-.158.17.594.804c.793 1.072 1.1 1.222 1.675.815.111-.079.261-.296.333-.484.122-.322.138-.335.265-.22.125.114.15.113.327-.017.106-.077.193-.162.194-.189.004-.073-1.518-2.11-1.574-2.108-.027.002-.13.07-.228.152Zm3.124.173c.092.263-.053.561-.357.732-.25.14-.434.052-.546-.262-.067-.19-.047-.234.224-.469.352-.305.573-.305.679 0Zm31.082.536c-.297.13-.71.552-.841.858-.137.32-.133.808.009 1.082.25.486.955.791 1.506.653.504-.127 1.042-.848 1.05-1.408.013-.868-.946-1.527-1.724-1.185Zm-37.373.594-.163.175.485.537.485.538-.593.579c-.327.318-.611.578-.632.578-.021 0-.262-.23-.535-.511l-.497-.512-.205.205-.205.204.496.553c.273.305.815.886 1.204 1.293l.708.74.223-.186.222-.186-.539-.598-.539-.598.506-.49c.786-.764.678-.751 1.265-.143.282.293.552.533.6.533.049 0 .16-.077.248-.171l.16-.17-1.162-1.25c-.64-.688-1.209-1.26-1.266-1.273-.056-.011-.176.057-.266.153Zm38.359.017c.223.223.235.48.042.859-.192.374-.454.61-.745.668-.2.04-.277.01-.47-.183-.126-.126-.23-.304-.23-.395 0-.26.221-.66.503-.907.324-.285.642-.3.9-.042Zm.768 1.765-.893.948.169.18c.092.099.206.18.252.18.046 0 .352-.294.68-.652l.595-.652.307.049c.17.027.368.104.442.171.256.232.163.45-.509 1.195-.353.392-.642.745-.642.784 0 .04.092.133.205.207l.205.135.596-.638c.725-.777.883-1.018.884-1.344 0-.334-.329-.662-.784-.784-.294-.08-.34-.117-.306-.25.026-.104-.02-.213-.135-.317l-.174-.16-.892.948ZM9.76 18.043c-1.064 1.454-1.64 2.386-2.33 3.765-1.72 3.437-2.62 6.97-2.838 11.136-.117 2.243.002 3.96.486 6.98.518 3.232 1.617 6.32 3.322 9.338.79 1.401.903 1.497.287.247-1.587-3.223-2.382-5.757-2.776-8.856-.268-2.106-.204-6.704.126-9.027.669-4.705 2.43-9.317 4.762-12.47.25-.337.445-.643.432-.679-.039-.108-.899-1.06-.958-1.06-.03 0-.26.282-.512.626Zm50.108.595c0 .025.154.381.346.791 1.5 3.22 2.954 7.648 3.541 10.795.468 2.51.572 4.935.318 7.477-.774 7.752-3.684 13.804-9.08 18.883-1.17 1.101-2.156 1.878-3.64 2.87-5.52 3.689-9.425 5.002-15.585 5.24-4.767.184-8.747-.44-12.31-1.932-1.566-.655-4.705-2.406-6.276-3.5-2.058-1.433-4.552-3.861-6.147-5.983-.745-.992-.542-.566.352.738 1.296 1.893 1.946 2.69 3.039 3.727 2.636 2.504 4.899 4.184 7.415 5.506 4.215 2.216 9.612 3.36 15.348 3.252 2.062-.04 2.792-.139 4.945-.677 3.845-.96 7.89-2.776 10.789-4.844 2.478-1.767 4.967-4.25 6.783-6.766 2.451-3.396 4.173-7.31 4.955-11.26.779-3.939.808-8.64.075-12.352-.547-2.772-1.667-6.03-3.023-8.794-.718-1.461-1.834-3.38-1.845-3.171Zm5.673 1.09c2.722 6.024 3.678 11.553 3.165 18.3-.5 6.567-2.566 12.594-5.995 17.486-2.053 2.93-5.138 6.039-8.107 8.17-1.55 1.11-4.234 2.608-7.441 4.149-.77.37-1.413.686-1.43.703-.202.197.943-.072 2.644-.62 2.521-.812 4.561-1.763 6.877-3.206 8.09-5.04 13.283-13.497 14.475-23.574.88-7.44-.386-14.395-3.802-20.876-.554-1.052-.733-1.298-.386-.531Zm-37.833 4.405c-.03.03-.054.594-.054 1.254v1.2h.223c.221 0 .224-.005.246-.474l.023-.474.544-.022.545-.022.022.477.023.477.246.023.245.024v-1.213c0-.77-.029-1.23-.08-1.262-.043-.027-.163-.028-.264-.003-.172.044-.185.08-.185.541v.495l-.548-.023-.548-.022-.038-.493c-.033-.423-.06-.495-.192-.514-.085-.012-.179.002-.208.031Zm4.458.004c-.028.027-.05.416-.05.863 0 .973-.087 1.147-.568 1.147-.482 0-.567-.173-.567-1.16v-.825h-.545l.027.893c.03.99.104 1.192.541 1.46.45.274 1.112.125 1.441-.325.126-.172.158-.36.186-1.088.026-.695.011-.895-.071-.947-.125-.08-.324-.089-.394-.018Zm1.862.01c-.092.058-1.08 2.223-1.08 2.365 0 .041.103.075.23.075.188 0 .245-.042.31-.228.079-.227.08-.227.683-.227.602 0 .604 0 .69.227.07.19.127.228.333.228.137 0 .248-.019.248-.04 0-.118-1.01-2.355-1.084-2.403-.112-.071-.215-.07-.33.003Zm2.95.032c-.034.051-.164.395-.29.763-.126.37-.262.671-.302.671-.04 0-.173-.326-.294-.725l-.22-.726h-.253c-.139 0-.253.025-.253.057-.001.03.178.578.397 1.215l.398 1.159.227-.022c.215-.021.24-.062.482-.764.14-.409.276-.721.302-.696.026.026.152.36.28.742.224.668.242.697.473.72.132.012.24.008.24-.01 0-.019.186-.567.413-1.218l.414-1.183h-.515l-.248.758c-.136.416-.272.757-.301.757-.03 0-.163-.332-.298-.738-.134-.407-.282-.764-.327-.795-.125-.083-.256-.07-.325.035Zm4.986-.043c-.07.029-.094.35-.094 1.245v1.206h.529v-1.205c0-1.028-.017-1.21-.12-1.25-.134-.052-.179-.051-.315.004Zm-2.514 1.238v1.213H41.275l-.024-.209c-.024-.208-.026-.208-.69-.23l-.666-.022.023-.281.024-.281.439-.023c.428-.023.439-.028.416-.228-.022-.192-.049-.205-.458-.227-.426-.022-.435-.027-.435-.246v-.224h.56c.684 0 .8-.04.8-.273 0-.181 0-.181-.907-.181h-.907v1.212Zm-4.962.242c-.063.102-.634.073-.632-.034.001-.052.073-.248.16-.435l.159-.341.176.374c.096.206.158.402.138.436ZM11.322 28.86v.303l23.687-.019 23.686-.019v-.53l-23.686-.02-23.687-.018v.303Zm20.462 2.663a6.22 6.22 0 0 0-2.125.632c-1.741.846-2.774 2.254-3.224 4.396-.055.261-.093.939-.09 1.591.006.962.037 1.25.2 1.874.434 1.657 1.401 2.9 2.779 3.572.883.43 1.672.638 2.773.728.96.079 2.338-.006 3.07-.19.794-.198 1.653-.517 1.695-.628.055-.143-.37-1.462-.484-1.506-.05-.019-.323.05-.607.152a7.103 7.103 0 0 1-2.634.461c-1.462-.002-2.3-.301-3.17-1.131-.914-.872-1.305-2.085-1.232-3.819.063-1.49.401-2.439 1.162-3.263 1.184-1.281 3.281-1.555 5.508-.719.386.145.72.264.74.264.02 0 .165-.347.32-.771.325-.887.34-.847-.412-1.13-1.338-.505-2.886-.691-4.27-.514Zm-18.067.115c-.028.028-.05 2.889-.05 6.357 0 4.98.02 6.313.094 6.334.052.015.528.017 1.058.004l.963-.023.02-2.819.02-2.818 3.037-.02 3.037-.02.008 2.786c.007 2.527.02 2.794.136 2.882.07.053.175.078.232.057.056-.022.491-.04.966-.04h.864l-.02-6.346-.019-6.346-.972-.022c-.652-.014-1.007.008-1.078.067-.085.07-.105.55-.105 2.619v2.532l-3.043-.022-3.044-.022-.012-2.516c-.007-1.383-.034-2.551-.061-2.595-.054-.087-1.946-.114-2.031-.029Zm25.633 0c-.027.028-.05 2.888-.05 6.357 0 5.944.007 6.307.132 6.333.073.015.575.011 1.116-.01l.983-.038.019-6.284c.015-4.978 0-6.298-.076-6.346-.114-.072-2.052-.083-2.124-.012Zm8.969.044c-.041.053-.629 1.476-1.307 3.164l-2.508 6.244c-.702 1.746-1.259 3.19-1.239 3.211.058.058 2.191.017 2.245-.043.026-.03.308-.751.627-1.604.32-.853.617-1.594.662-1.648.063-.076.633-.098 2.59-.098 2.61 0 2.69.01 2.69.321 0 .077.048.215.107.307s.32.73.58 1.418c.26.688.498 1.28.53 1.318.05.057 2.334.074 2.39.018.01-.011-.13-.376-.31-.81-.183-.435-1.325-3.212-2.54-6.171-1.216-2.96-2.258-5.457-2.317-5.55-.102-.164-.152-.171-1.117-.171-.718 0-1.031.027-1.084.095Zm1.26 3.013c.003.104.061.291.13.416.201.37 1.599 4.011 1.562 4.073-.049.084-2.809.07-2.966-.015-.088-.047-.232-.043-.413.013-.178.055-.304.06-.35.013-.047-.046.16-.688.573-1.775.356-.936.765-2.043.908-2.46.144-.417.281-.81.306-.872.054-.136.24.315.25.607ZM11.371 47.248c-.028.028-.05.181-.05.341v.29H34.98c21.504 0 23.663-.01 23.705-.12.084-.217.048-.469-.074-.515-.164-.063-47.177-.059-47.24.004Zm-7.46 3.966c.493 1.261 1.472 3.174 2.317 4.526 2.672 4.278 6.15 7.58 10.774 10.228 1.75 1.002 4.155 1.968 6.023 2.42 1.324.32 1.313.198-.031-.344-4.489-1.811-8.936-4.833-12.774-8.68-2.519-2.525-4.321-4.85-5.832-7.525-.595-1.054-.697-1.188-.477-.625Zm19.409 1.652-.288.024.023 1.594c.023 1.581.025 1.594.206 1.741.13.106.273.142.492.126.274-.02.311-.046.332-.23.02-.166-.016-.224-.17-.283l-.194-.074v-1.437c0-.79-.025-1.448-.057-1.462-.03-.013-.186-.013-.344 0Zm8.454 0c-.29.037-.338.119-.339.595l-.001.39-.378.003c-.747.006-1.144.47-1.144 1.339 0 .825.372 1.24 1.021 1.14.172-.027.508-.045.747-.041l.434.007v-1.704c0-.938-.025-1.717-.056-1.731-.031-.015-.159-.014-.284.002Zm12.042.097c-.152.088-.178.448-.042.585.142.142.42.106.542-.07.123-.176.09-.356-.09-.503-.14-.113-.233-.116-.41-.012ZM21 53.153c-.605.263-.928.798-.932 1.546-.007 1.195.765 1.823 2.011 1.636.488-.073.614-.184.512-.453-.066-.175-.112-.205-.25-.163-.404.122-.789.129-1.055.017-.446-.187-.674-.814-.514-1.412.17-.63.673-.882 1.33-.665.344.114.345.113.419-.08.103-.274.041-.374-.288-.466-.403-.112-.921-.095-1.233.04Zm13.724-.004c-.368.187-.491.39-.491.804 0 .446.148.629.765.938.713.358.848.598.475.843-.164.108-.255.116-.548.051a3.757 3.757 0 0 1-.474-.131c-.088-.039-.147.008-.215.173-.117.285-.07.362.283.46.672.188 1.444.009 1.645-.38.162-.316.141-.844-.043-1.08-.084-.106-.366-.295-.627-.419-.545-.258-.688-.398-.621-.609.063-.201.395-.263.827-.154.399.1.384.106.452-.18.046-.189.023-.223-.213-.322-.343-.144-.927-.14-1.215.006Zm-9.414.717c-.611.107-.934.563-.927 1.309.007.783.498 1.245 1.246 1.173.392-.038.669-.198.918-.534.2-.267.213-1.045.025-1.398-.226-.425-.727-.643-1.262-.55Zm12.27.004c-.562.12-.862.55-.868 1.247-.005.51.197.92.549 1.115.205.114.367.138.755.113.66-.042.835-.138.758-.413-.035-.124-.102-.199-.164-.183-.286.074-.683.1-.855.057-.19-.047-.46-.436-.369-.529.026-.026.37-.047.763-.047h.715l-.035-.422c-.028-.342-.078-.465-.262-.65a1.075 1.075 0 0 0-.986-.288Zm8.231.003c-.574.12-.916.595-.916 1.27 0 .748.433 1.224 1.115 1.224.378 0 .775-.137.775-.267 0-.29-.083-.34-.49-.292-.545.064-.72-.102-.72-.683 0-.652.298-.88.917-.699.175.05.208.03.279-.174.044-.128.05-.25.014-.272-.15-.093-.736-.157-.974-.107Zm2.221-.026c-.326.059-.553.19-.726.422-.156.208-.181.325-.181.86 0 .556.02.64.189.822.379.406.882.517 1.529.336.341-.095.384-.155.289-.406-.066-.172-.097-.186-.27-.12-.519.198-1.094 0-1.094-.377 0-.136.062-.15.737-.17l.737-.022-.017-.288c-.022-.368-.222-.792-.426-.901-.212-.114-.58-.189-.767-.156Zm-20.832.97c0 .71.03 1.008.117 1.178.19.365.695.48 1.125.255.151-.079.245-.09.299-.037.043.043.211.078.375.078h.297l-.047-.284c-.026-.157-.047-.702-.047-1.213l-.001-.928h-.605v.828c0 .804-.006.832-.2.985-.216.17-.38.195-.556.083-.088-.056-.12-.276-.14-.984l-.024-.912H27.2v.95Zm12.174.261v1.213h.681v-.784c0-.876.064-1.005.542-1.103.178-.037.258-.102.29-.237.028-.116.064-.153.098-.098.052.083.81 2.147.81 2.204 0 .014.158.016.352.003l.353-.023.403-1.09c.222-.6.403-1.137.403-1.194 0-.07-.096-.103-.297-.103h-.298l-.247.758c-.137.416-.268.757-.292.757-.024 0-.155-.34-.291-.757l-.248-.758h-.623c-.431 0-.669.034-.77.111-.19.143-.26.144-.26.003 0-.082-.085-.114-.303-.114h-.303v1.212Zm4.36-1.162c-.027.028-.05.574-.05 1.213v1.162h.681v-2.425h-.29c-.16 0-.312.023-.34.05Zm-17.96.48c.106 0 .292.486.292.76 0 .247-.116.528-.257.622-.155.104-.475.059-.604-.084-.4-.442-.088-1.49.395-1.33a.693.693 0 0 0 .174.032Zm5.541-.03c.096.037.12.171.12.67 0 .582-.012.63-.183.721-.434.233-.784-.154-.701-.775.062-.465.416-.75.764-.615Zm6.804.118c.161.23.092.291-.337.291-.4 0-.463-.079-.248-.316.168-.187.445-.175.585.025Zm10.342-.038c.255.231.173.33-.277.33-.447 0-.503-.065-.265-.304.184-.184.358-.193.542-.026Z" fill="#6A6A6A"/></svg>