<svg width="70" height="70" fill="none" xmlns="http://www.w3.org/2000/svg"><path d="M31.81 13.812c.248-.657.76-1.157 1.332-1.302.828-.209 1.442-.679 1.536.941v1.62c0 1.866.008.953 0 2.66-.014 2.796-.078 2.97-.718 1.926-.27-.44-.614-.981-.767-1.204-.392-.575-1.211-2.434-1.441-3.27-.17-.619-.163-.788.058-1.37ZM28.87 15.973c.126-.361.398-.878.603-1.15.205-.27.396-.492.425-.492.07 0 1.33 1.777 2.015 2.84.915 1.42 2.075 3.691 1.886 3.691-.372 0-3.466-1.905-4.277-2.633-.23-.207-.523-.652-.65-.988-.21-.554-.21-.671-.002-1.268ZM38.277 17.077c.46-.653 1.05-1.503 1.31-1.89.261-.386.543-.703.627-.705.27-.005 1.099 1.545 1.099 2.053 0 1.165-1.047 2.172-3.872 3.73-.631.347-1.175.604-1.209.57-.12-.121 1.226-2.597 2.045-3.758ZM35.406 19.6c-.127-1.432-.132-3.603-.04-4.297.138-1.157.224-3.204.598-3.009.92 0 2.024.616 2.313 1.064.362.71-.645 3.258-.645 3.33 0 .297-.5 1.297-1.291 2.583l-.843 1.368-.092-1.039ZM28.656 20.916c-.703-.596-1.12-1.658-.938-2.392.046-.184.117-.334.157-.334.137 0 4.016 2.217 4.868 2.782l.841.558-1.66.042c-1.872.047-2.615-.102-3.268-.656ZM37.301 20.95a117.71 117.71 0 0 1 4.084-2.367c.404-.216.785-.393.847-.393.217 0 .1 1.271-.173 1.878-.198.44-.482.738-.99 1.04-.665.393-.84.425-2.59.474-1.032.028-1.877-.005-1.877-.075 0-.07.315-.32.7-.556ZM29.094 22.168c0-.06.646-.13 1.435-.156.79-.027 1.75-.063 2.135-.08.385-.017.699.02.698.08-.001.146-.768.663-1.708 1.152-.71.368-.783.378-1.267.174-.485-.204-1.293-.936-1.293-1.17ZM38.295 23.108c-.486-.255-1.082-.628-1.325-.83l-.442-.365 2.135.089c1.174.049 2.163.114 2.198.145.152.133-.58.89-1.107 1.146l-.576.279-.883-.464Z" fill="#fff"/><path fill-rule="evenodd" clip-rule="evenodd" d="m32.834.878-1.437.108c-6.348.474-12.846 3.022-18.065 7.082-4.189 3.26-7.447 7.265-9.797 12.046C1.817 23.608.762 27.1.283 30.873c-.702 5.534-.087 11.482 1.71 16.544.396 1.119 1.081 2.773 1.128 2.726.012-.013-.145-.585-.35-1.273-1.025-3.437-1.49-6.598-1.56-10.615-.055-3.161.102-5.109.62-7.695.601-3.001 1.48-5.568 2.874-8.4 1.796-3.646 3.678-6.272 6.574-9.173 2.38-2.384 4.68-4.141 7.493-5.723 10.279-5.78 23.091-5.844 33.335-.169 2.98 1.652 5.439 3.516 7.913 6.003 1.353 1.36 2.107 2.233 3.23 3.739.397.531.737.966.755.966.12 0-1.492-2.426-2.315-3.486C57.934 9.48 53.144 5.795 47.579 3.46c-2.736-1.148-6.298-2.07-9.263-2.4-1.718-.19-4.268-.275-5.482-.182Zm-.87 5.25c-.717.146-1.136.522-1.33 1.195-.152.52-.099 1.044.159 1.58.28.583.764.868 1.473.868.382 0 1-.16 1.172-.303.15-.124-.012-.484-.183-.41-.34.148-.901.253-1.124.21-.321-.06-.687-.365-.82-.685-.151-.363-.132-1.147.035-1.46.222-.414.554-.554 1.196-.504.53.04.54.038.576-.149.024-.126-.005-.212-.086-.254-.192-.1-.777-.148-1.068-.089Zm8.59.428c-.13.342.092.625.411.524.184-.059.273-.379.148-.53-.125-.151-.5-.146-.558.006Zm-1.882.009c-.02.033-.06.172-.089.307-.037.176-.095.246-.2.246-.084 0-.175.074-.212.171-.08.212-.04.284.155.284.127 0 .146.036.112.209-.112.564-.19 1.4-.15 1.603.072.36.277.489.832.524l.493.032-.025-.217c-.017-.155-.068-.218-.176-.223-.35-.017-.414-.041-.493-.189-.06-.112-.06-.316 0-.738.137-.972.104-.913.512-.9.336.012.36 0 .36-.177 0-.164-.041-.194-.303-.227-.302-.038-.303-.039-.308-.379-.005-.324-.017-.342-.239-.364-.128-.013-.25.004-.269.038Zm-10.975.218c-.152.152-.149.205.02.414.27.335.747.002.544-.379-.1-.185-.396-.203-.564-.035Zm14.74.06c-.223.099-.338.258-.488.673-.054.15-.128.209-.258.209-.182 0-.315.177-.233.31.023.038.092.069.151.069.157 0 .138.151-.15 1.211-.142.521-.248.957-.237.969.012.012.13.053.263.09.285.083.26.13.615-1.16.25-.913.276-.946.633-.81.158.06.207.048.27-.07.123-.23.095-.277-.226-.373-.166-.05-.302-.101-.302-.114 0-.013.037-.131.083-.263.096-.275.359-.378.64-.25.152.07.194.06.258-.061.108-.201.103-.213-.13-.333-.333-.17-.645-.204-.89-.096Zm-8.222.2c-.397.216-.597.638-.597 1.26 0 .57.147.883.535 1.145.303.205 1.063.236 1.48.062.23-.096.253-.131.194-.284-.037-.097-.113-.162-.17-.146-.305.089-.924.094-1.081.01-.19-.101-.343-.375-.343-.609 0-.133.07-.147.85-.167l.851-.021-.027-.303a1.238 1.238 0 0 0-.419-.865c-.273-.256-.882-.295-1.273-.082Zm2.262.28c-.025.2-.068.794-.096 1.32l-.05.956.255.038c.319.048.366-.023.368-.548.004-.877.08-1.205.32-1.376a.998.998 0 0 1 .437-.169c.255-.013.266-.023.331-.293.046-.193.033-.208-.183-.208-.26 0-.533.12-.625.276-.097.165-.192.119-.218-.106-.02-.171-.065-.212-.259-.231-.229-.022-.237-.013-.28.34Zm7.326-.01c-.065.066-.118.166-.118.222 0 .148.213.341.378.341.16 0 .378-.192.378-.334 0-.13-.248-.348-.398-.348a.413.413 0 0 0-.24.12Zm-8.644.165c.065.073.13.201.144.285.024.138-.022.153-.522.173-.611.025-.671-.034-.392-.39.188-.24.586-.274.77-.068Zm5.237.04c-.102.3-.474 2.45-.43 2.491.028.027.158.071.288.099l.236.05.245-1.296c.135-.713.233-1.306.218-1.32a1.406 1.406 0 0 0-.277-.07c-.166-.032-.26-.017-.28.046Zm-12.431.274c-.089.058-.065.247.143 1.156.334 1.458.328 1.444.585 1.383a.872.872 0 0 0 .263-.098c.03-.026-.073-.593-.23-1.26-.267-1.143-.293-1.211-.47-1.23a.534.534 0 0 0-.291.05Zm-2.032.539c-.727.444-.74 1.636-.022 2.311.215.203.292.227.709.225.372-.002.55-.048.878-.227.457-.25.5-.314.348-.516-.1-.134-.118-.131-.439.057-.464.273-.833.262-1.126-.032-.125-.125-.214-.266-.198-.314.015-.047.367-.188.78-.313.415-.125.765-.237.78-.25.09-.075-.123-.541-.362-.794-.262-.276-.315-.299-.693-.298-.274 0-.49.05-.655.15Zm17.645-.087c-.086.14-.656 2.307-.636 2.416.02.1.425.287.488.225.042-.042.704-2.508.68-2.532-.068-.068-.503-.157-.532-.109Zm-16.804.471c.11.087.2.203.2.259 0 .127-.911.444-1.006.35-.124-.125.025-.535.237-.65.27-.147.336-.142.57.041Zm-2.335.1c-.139.102-.14.132-.017 1.076.07.534.117.98.105.992-.011.012-.308-.319-.659-.735-.35-.416-.665-.756-.698-.756-.033 0-.163.053-.288.118-.19.098-.222.153-.189.322.087.447.214 1.69.177 1.727-.022.023-.32-.303-.663-.722-.343-.42-.637-.763-.654-.763-.104 0-.483.247-.463.302.013.037.347.43.742.876s.787.895.871.997c.153.187.155.187.435.053.324-.155.32-.125.17-1.242-.058-.437-.095-.805-.082-.818.013-.013.303.302.645.7.341.398.636.723.654.723.019 0 .156-.051.306-.114l.273-.114-.045-.398a111.47 111.47 0 0 1-.136-1.363c-.098-1.03-.143-1.11-.484-.861Zm20.405.237c-.615.37-.907 1.41-.557 1.985.256.421 1.228.77 1.439.515.14-.17.034-.342-.213-.342-.12 0-.334-.077-.475-.173-.215-.145-.26-.225-.28-.497-.034-.454.226-.97.57-1.134.257-.123.27-.12.643.087.349.195.391.203.502.093.162-.164.052-.329-.368-.552-.433-.229-.86-.223-1.26.018Zm2.223.612c-.03.031-.056.136-.056.233 0 .139.042.177.192.177.54 0 1.009.422.871.785-.042.11-.09.2-.108.2-.018 0-.214-.085-.437-.189-.424-.198-.882-.243-1.127-.112-.2.107-.373.469-.373.775 0 .456.617.868 1.14.763.188-.037.22-.02.22.115 0 .1.085.203.228.277l.227.118.387-.817c.215-.454.403-.97.423-1.16.032-.298.008-.38-.176-.6-.3-.356-1.242-.734-1.411-.565Zm2.844.864c-.096.162-.192.228-.336.228-.11 0-.246.054-.301.12-.085.103-.08.133.029.194.07.04.128.101.128.137 0 .036-.172.358-.383.717-.21.359-.402.77-.425.914-.037.227-.007.299.22.526.392.392.89.466.89.13 0-.092-.069-.163-.19-.194a.473.473 0 0 1-.277-.233c-.074-.163-.04-.264.276-.813.198-.345.388-.657.422-.693.034-.037.182.008.335.103.263.162.28.164.421.036.183-.166.187-.24.016-.296a1.387 1.387 0 0 1-.316-.186l-.183-.141.167-.284c.092-.156.158-.292.146-.302-.075-.061-.365-.19-.429-.19-.042 0-.137.102-.21.227Zm-30.104.505a3.223 3.223 0 0 0-.567.41l-.32.287.17.174.17.174.114-.163c.158-.225.586-.477.81-.477.181 0 .438.203.438.347 0 .038-.155.152-.344.253-.465.247-.715.557-.715.888 0 .957 1.108 1.172 1.619.314.104-.176.2-.266.23-.218.074.12.229.101.419-.053l.167-.135-.463-.77c-.256-.422-.568-.856-.694-.963-.271-.228-.658-.254-1.034-.068Zm31.936.07c-.227.227-.073.562.26.562.304 0 .434-.242.267-.498-.138-.21-.355-.238-.527-.065Zm-4.233.154c.3.142.333.333.098.568-.277.277-.974.098-.974-.25 0-.431.362-.563.877-.318Zm3.094 1.637-.723 1.082.195.17c.108.095.22.17.248.17.06-.003 1.451-2.09 1.451-2.18 0-.032-.1-.12-.224-.192l-.224-.133-.723 1.083Zm-32.694-.62c-.098.081-.161.191-.141.243.02.053.238.368.484.701.246.334.473.647.503.696.085.142-.165.675-.369.784-.277.149-.448.018-1.051-.802-.29-.394-.564-.715-.61-.715-.047 0-.157.076-.244.17l-.158.17.594.804c.793 1.072 1.1 1.221 1.675.815.111-.079.261-.296.333-.485.122-.321.138-.334.265-.219.125.114.15.112.327-.017.106-.077.193-.162.194-.189.004-.073-1.518-2.11-1.574-2.108-.027.002-.13.07-.228.152Zm3.124.173c.092.263-.053.561-.357.732-.25.14-.434.052-.546-.262-.067-.19-.047-.234.224-.469.352-.305.573-.305.679-.001Zm31.082.536c-.297.13-.71.551-.841.858-.137.32-.133.808.009 1.082.25.486.955.791 1.506.653.504-.127 1.042-.848 1.05-1.408.013-.868-.946-1.527-1.724-1.185Zm-37.373.594-.163.174.485.538.485.538-.593.579c-.327.318-.611.578-.632.578-.021 0-.262-.23-.535-.511l-.497-.512-.205.204-.205.205.496.553c.273.305.815.886 1.204 1.293l.708.739.223-.185.222-.186-.539-.598-.539-.599.506-.49c.786-.763.678-.75 1.265-.142.282.293.552.532.6.532.049 0 .16-.076.248-.17l.16-.17-1.162-1.25c-.64-.689-1.209-1.26-1.266-1.273-.056-.012-.176.057-.266.153Zm38.359.017c.223.223.235.48.042.859-.192.374-.454.61-.745.668-.2.04-.277.01-.47-.183-.126-.127-.23-.304-.23-.395 0-.26.221-.66.503-.907.324-.286.642-.3.9-.042Zm.768 1.765-.893.948.169.18c.092.098.206.18.252.18.046 0 .352-.294.68-.653l.595-.651.307.049c.17.027.368.104.442.17.256.233.163.45-.509 1.196-.353.392-.642.745-.642.784 0 .04.092.133.205.207l.205.135.596-.638c.725-.777.883-1.018.884-1.344 0-.334-.329-.663-.784-.785-.294-.078-.34-.116-.306-.25.026-.103-.02-.212-.135-.316l-.174-.16-.892.948ZM9.76 18.883c-1.064 1.454-1.64 2.386-2.33 3.765-1.72 3.437-2.62 6.97-2.838 11.136-.117 2.243.002 3.96.486 6.979.518 3.232 1.617 6.321 3.322 9.34.79 1.4.903 1.496.287.246-1.587-3.223-2.382-5.757-2.776-8.856-.268-2.106-.204-6.704.126-9.028.669-4.704 2.43-9.317 4.762-12.469.25-.338.445-.643.432-.679-.039-.108-.899-1.06-.958-1.06-.03 0-.26.282-.512.626Zm50.108.595c0 .025.154.381.346.79 1.5 3.22 2.954 7.648 3.541 10.796a25.96 25.96 0 0 1 .318 7.477c-.774 7.752-3.684 13.803-9.08 18.883-1.17 1.101-2.156 1.878-3.64 2.87-5.52 3.689-9.425 5.001-15.585 5.24-4.767.183-8.747-.441-12.31-1.933-1.566-.654-4.705-2.405-6.276-3.5-2.058-1.432-4.552-3.86-6.147-5.983-.745-.991-.542-.565.352.74 1.296 1.892 1.946 2.689 3.039 3.726 2.636 2.503 4.899 4.183 7.415 5.506 4.215 2.216 9.612 3.36 15.348 3.251 2.062-.038 2.792-.138 4.945-.676 3.845-.96 7.89-2.776 10.789-4.844 2.478-1.768 4.967-4.25 6.783-6.767 2.451-3.395 4.173-7.309 4.955-11.26.779-3.938.808-8.64.075-12.351-.547-2.773-1.667-6.03-3.023-8.794-.718-1.461-1.834-3.38-1.845-3.171Zm5.673 1.09c2.722 6.024 3.678 11.553 3.165 18.3-.5 6.567-2.566 12.594-5.995 17.486-2.053 2.93-5.138 6.038-8.107 8.169-1.55 1.111-4.234 2.609-7.441 4.15-.77.37-1.413.686-1.43.703-.202.196.943-.072 2.644-.62 2.521-.813 4.561-1.763 6.877-3.206 8.09-5.04 13.283-13.497 14.475-23.575.88-7.439-.386-14.394-3.802-20.876-.554-1.05-.733-1.297-.386-.53Zm-37.833 4.405c-.03.03-.054.594-.054 1.254v1.2h.223c.221 0 .224-.005.246-.474l.023-.474.544-.022.545-.022.022.477.023.477.246.023.245.024v-1.213c0-.77-.029-1.23-.08-1.262-.043-.027-.163-.028-.264-.003-.172.043-.185.08-.185.54v.495l-.548-.022-.548-.022-.038-.493c-.033-.423-.06-.495-.192-.514-.085-.013-.179.002-.208.031Zm4.458.003c-.028.028-.05.416-.05.863 0 .974-.087 1.148-.568 1.148-.482 0-.567-.173-.567-1.16v-.825h-.545l.027.893c.03.99.104 1.192.541 1.459.45.275 1.112.126 1.441-.324.126-.172.158-.36.186-1.089.026-.694.011-.894-.071-.947-.125-.079-.324-.088-.394-.018Zm1.862.01c-.092.059-1.08 2.224-1.08 2.366 0 .04.103.074.23.074.188 0 .245-.041.31-.227.079-.227.08-.227.683-.227.602 0 .604 0 .69.227.07.19.127.227.333.227.137 0 .248-.018.248-.04 0-.117-1.01-2.354-1.084-2.402-.112-.072-.215-.07-.33.002Zm2.95.033c-.034.051-.164.395-.29.763-.126.369-.262.67-.302.671-.04 0-.173-.326-.294-.726l-.22-.725h-.253c-.139 0-.253.025-.253.056-.001.032.178.579.397 1.216l.398 1.159.227-.023c.215-.02.24-.06.482-.764.14-.408.276-.72.302-.695.026.025.152.36.28.742.224.668.242.696.473.72.132.012.24.008.24-.01 0-.019.186-.567.413-1.218l.414-1.183h-.515l-.248.757c-.136.417-.272.758-.301.758-.03 0-.163-.332-.298-.739-.134-.406-.282-.764-.327-.794-.125-.084-.256-.07-.325.035Zm4.986-.043c-.07.028-.094.35-.094 1.244v1.206h.529v-1.204c0-1.028-.017-1.21-.12-1.25-.134-.052-.179-.051-.315.004Zm-2.514 1.238v1.212H41.275l-.024-.208c-.024-.208-.026-.208-.69-.23l-.666-.022.023-.281.024-.282.439-.022c.428-.023.439-.029.416-.228-.022-.192-.049-.205-.458-.227-.426-.022-.435-.027-.435-.246v-.224h.56c.684 0 .8-.04.8-.273 0-.181 0-.181-.907-.181h-.907v1.212Zm-4.962.242c-.063.102-.634.072-.632-.034.001-.052.073-.248.16-.435l.159-.341.176.374c.096.206.158.402.138.436ZM11.322 29.7v.303l23.687-.019 23.686-.02v-.529l-23.686-.02-23.687-.019v.304Zm20.462 2.662c-.82.106-1.39.275-2.125.633-1.741.846-2.774 2.254-3.224 4.396-.055.261-.093.939-.09 1.591.006.962.037 1.25.2 1.874.434 1.657 1.401 2.9 2.779 3.572.883.43 1.672.638 2.773.728.96.079 2.338-.007 3.07-.19.794-.199 1.653-.517 1.695-.629.055-.142-.37-1.46-.484-1.505-.05-.019-.323.05-.607.152a7.105 7.105 0 0 1-2.634.46c-1.462-.001-2.3-.3-3.17-1.13-.914-.873-1.305-2.085-1.232-3.819.063-1.49.401-2.439 1.162-3.263 1.184-1.281 3.281-1.555 5.508-.719.386.145.72.264.74.264.02 0 .165-.347.32-.771.325-.887.34-.847-.412-1.13-1.338-.505-2.886-.691-4.27-.514Zm-18.067.116c-.028.028-.05 2.889-.05 6.357 0 4.98.02 6.312.094 6.334.052.015.528.016 1.058.004l.963-.024.02-2.818.02-2.818 3.037-.02 3.037-.02.008 2.786c.007 2.527.02 2.794.136 2.882.07.053.175.078.232.056.056-.021.491-.039.966-.039h.864l-.02-6.346-.019-6.346-.972-.022c-.652-.014-1.007.008-1.078.066-.085.072-.105.551-.105 2.62v2.531l-3.043-.021-3.044-.022-.012-2.516c-.007-1.383-.034-2.551-.061-2.595-.054-.087-1.946-.114-2.031-.029Zm25.633 0c-.027.028-.05 2.888-.05 6.356 0 5.945.007 6.308.132 6.334.073.015.575.01 1.116-.01l.983-.038.019-6.285c.015-4.977 0-6.297-.076-6.345-.114-.073-2.052-.084-2.124-.012Zm8.969.044c-.041.053-.629 1.476-1.307 3.164l-2.508 6.243c-.702 1.746-1.259 3.192-1.239 3.212.058.058 2.191.016 2.245-.043.026-.03.308-.751.627-1.604.32-.853.617-1.594.662-1.648.063-.076.633-.098 2.59-.098 2.61 0 2.69.01 2.69.321 0 .076.048.215.107.307s.32.73.58 1.418c.26.688.498 1.28.53 1.318.05.057 2.334.074 2.39.017.01-.01-.13-.375-.31-.81-.183-.434-1.325-3.211-2.54-6.17-1.216-2.96-2.258-5.457-2.317-5.55-.102-.164-.152-.171-1.117-.171-.718 0-1.031.027-1.084.094Zm1.26 3.012c.003.105.061.292.13.417.201.37 1.599 4.011 1.562 4.073-.049.084-2.809.07-2.966-.015-.088-.047-.232-.043-.413.013-.178.055-.304.06-.35.013-.047-.046.16-.689.573-1.775.356-.936.765-2.044.908-2.46.144-.417.281-.81.306-.872.054-.137.24.315.25.606ZM11.371 48.088c-.028.028-.05.181-.05.341v.29H34.98c21.504 0 23.663-.01 23.705-.12.084-.218.048-.469-.074-.516-.164-.063-47.177-.058-47.24.005Zm-7.46 3.966c.493 1.26 1.472 3.174 2.317 4.526 2.672 4.278 6.15 7.58 10.774 10.228 1.75 1.002 4.155 1.968 6.023 2.42 1.324.32 1.313.198-.031-.344-4.489-1.811-8.936-4.833-12.774-8.68-2.519-2.526-4.321-4.851-5.832-7.525-.595-1.054-.697-1.188-.477-.625Z" fill="#fff"/><path d="M30.8 55.16c0-.45-.015-.929.079-1.172.237-.618 2.91-.64 2.91-.023 0 .293.141.42-.543.42H31.92c-.019.075-.17.329 0 .635.22 0 .709.125.98.28.98.56.98.98.84 2.012-.212.845-1.222 1.184-2.24.928-.71-.178-.621-.066-.621-.7.155-.127.391-.075.793-.075.53 0 1.045-.132 1.144-.293.364-.752-.314-1.312-1.176-1.312-.7-.14-.761 0-.84-.7ZM35.301 54.6c.162-.293.532-.667.84-.84.98-.28 1.799-.42 2.639 0 .035.185 0 .28 0 .56h-.98c-1.82 0-2.219 1.12-1.519 2.66.191.42.773.485 1.11.485.205 0 .632-.026.738-.065.091-.28.048-.56 0-.7-.049-.14-.243-.14-.609-.14-.56 0-.42-.329-.42-.56 0-.293.344-.215 1.029-.215.651.215.791.075.791 1.335s-.14 1.12-1.528 1.26c-1.015 0-1.876-.453-2.112-1.068-.29-.758-.35-2.247.021-2.712Z" fill="#fff"/></svg>