<svg width="70" height="71" fill="none" xmlns="http://www.w3.org/2000/svg"><path fill-rule="evenodd" clip-rule="evenodd" d="M7.896.125c-.4.059-.758.136-.795.173-.061.061.314 1.693.434 1.886.027.045.422.021.877-.052l.827-.133V.992c0-1.139.097-1.076-1.343-.867Zm3.398.659c-.077.275-.177.72-.222.99l-.08.488.794.292c.437.16.805.28.819.264.013-.016.216-.412.45-.88l.428-.852-.514-.262a6.584 6.584 0 0 0-1.023-.401c-.51-.14-.51-.14-.652.36Zm25.457.637v1.026H41.816V.396H36.75V1.42Zm7.118 0v1.026h15.056V.396H43.87V1.42ZM4.06 1.633c-.462.308-.866.602-.897.653-.031.051.247.422.618.825l.675.732.677-.459c.372-.252.676-.52.676-.595 0-.075-.205-.492-.455-.927l-.453-.79-.841.56Zm10.61 1.425-.657.755.573.665.574.665.803-.553c.442-.305.803-.601.803-.659 0-.057-.323-.447-.718-.866l-.719-.762-.658.755ZM1.405 4.396c-.233.356-.788 1.429-.788 1.523 0 .035.323.186.719.335.395.15.82.312.945.362.174.069.31-.075.582-.615.195-.388.355-.753.355-.811 0-.095-1.422-1.102-1.557-1.102-.03 0-.145.138-.256.308Zm6.74-.118c-.414.092-1.007.3-1.318.462-.816.425-1.821 1.487-2.23 2.356-.306.652-.353.935-.353 2.12 0 1.187.047 1.467.356 2.126 1.873 3.989 7.407 3.989 9.28 0 .31-.659.356-.939.356-2.126 0-1.185-.047-1.468-.353-2.12-.683-1.455-2.134-2.56-3.75-2.86-.954-.175-1.014-.174-1.988.042Zm9.034 1.925c-.264.1-.643.245-.842.324l-.364.142.212.838.21.838.906-.093c.497-.05.946-.132.997-.18.188-.175-.306-2.08-.534-2.06-.058.005-.322.091-.585.19Zm-7.04.137c.805.24 1.43.776 1.84 1.58.445.871.35 2.223-.212 3.033-.52.751-1.63 1.34-2.527 1.34-.896 0-2.006-.589-2.527-1.34-.333-.48-.417-.758-.46-1.526-.047-.821-.007-1.026.316-1.62.42-.771.961-1.222 1.77-1.475.741-.232 1-.23 1.8.008Zm37.837.893v1.094h6.023V6.139h-6.022v1.094ZM36.79 9.039c-.449 1.3-1.95 5.704-3.336 9.785-1.833 5.398-2.557 7.37-2.657 7.233-.075-.103-.872-1.52-1.77-3.15s-1.685-2.946-1.749-2.924c-.064.021-1.486 2.56-3.16 5.644l-3.042 5.605-8.622.068-8.621.069-.89.423a5.204 5.204 0 0 0-2.52 2.517L0 35.197v30.768l.318.786c.624 1.545 2.168 2.794 3.841 3.11 1.018.19 60.607.19 61.626 0 1.509-.285 2.981-1.365 3.654-2.684.577-1.13.589-1.497.546-17.074l-.041-14.906-.424-.889A5.204 5.204 0 0 0 67 31.793l-.889-.424-9.359-.068-9.358-.068-4.826-12.211c-2.654-6.716-4.857-12.242-4.894-12.279-.037-.037-.434.997-.884 2.297Zm24.304-2.215a7.666 7.666 0 0 0-4.073 2.065c-.692.688-1.581 1.998-1.714 2.527-.084.335-.129.353-.666.275-.768-.112-2.016.107-2.806.493-.82.4-1.923 1.5-2.32 2.311-1.254 2.566-.134 5.708 2.46 6.905l.86.396 5.064.043c3.396.029 5.334-.008 5.885-.113 2.884-.548 5.4-3.075 5.964-5.99.36-1.864-.088-4.057-1.158-5.668-1.584-2.383-4.62-3.697-7.496-3.244Zm-39.4 2.118v1.026h7.94V7.917h-7.94v1.025ZM.069 9.276V10.4l.377-.07c.207-.04.669-.11 1.026-.156l.65-.086v-.88c0-.822-.02-.881-.307-.882-.17 0-.632-.04-1.027-.088l-.719-.086v1.124Zm63.374-.344c5.18 1.11 5.94 8.1 1.128 10.377l-.923.436-4.996.044c-5.439.048-5.707.02-6.512-.687-1.495-1.312-1.445-3.64.104-4.76 1.086-.787 2.122-.844 3.52-.197.406.188.765.315.797.282.033-.032.155-.48.271-.994.534-2.358 2.132-4.04 4.284-4.509 1-.218 1.276-.216 2.327.008Zm-47.22 1.913c-.087.418-.158.805-.16.86-.002.16 1.696.747 1.816.627.188-.189.562-1.842.441-1.954-.063-.058-.525-.148-1.027-.2l-.912-.093-.158.76ZM1.574 12.141c-.49.187-.91.354-.933.37-.043.028.684 1.479.901 1.798.086.127.33.02.943-.41l.827-.582-.424-.759-.424-.759-.89.342Zm42.021 15.057c3.103 7.86 5.672 14.367 5.71 14.46.053.134-.578.172-2.89.172h-2.957v2.051h9.855V41.83h-1.736l-1.61-4.069-1.678-4.239c-.055-.134.713-.17 3.572-.17h3.642V61.11H9.923V33.35h10.004l-.656 1.205c-.36.663-1.395 2.57-2.298 4.238l-1.643 3.033-1.471.001-1.472.002v2.051h9.855V41.83h-2.27c-1.394 0-2.252-.051-2.224-.132.12-.347 9.5-17.509 9.57-17.509.044 0 .965 1.602 2.046 3.559 1.167 2.11 2.004 3.487 2.059 3.384.05-.096 1.496-4.316 3.213-9.38 1.79-5.283 3.162-9.128 3.219-9.025.054.1 2.637 6.611 5.74 14.47Zm-29.07-13.182-.533.603.697.737.697.736.69-.73c.38-.4.691-.785.691-.854 0-.137-1.437-1.13-1.606-1.109-.057.008-.344.285-.637.617ZM3.838 15.338c-.343.391-.603.774-.578.85.052.16 1.452 1.164 1.623 1.164.205 0 1.017-1.813.84-1.875-.09-.03-.41-.235-.712-.454l-.55-.397-.623.712Zm8 .553c-.414.153-.775.295-.803.316-.027.021.056.471.186 1 .229.933.248.96.598.879.589-.138 1.662-.621 1.662-.748 0-.065-.2-.48-.445-.921l-.446-.804-.752.278Zm-4.556 1.275c-.117.516-.17.983-.118 1.037.053.054.54.14 1.085.19l.99.092v-2.09l-.377-.002c-.207 0-.6-.038-.872-.083l-.496-.082-.212.938Zm30.636 6.15c-.45.182-.865.38-.922.437-.082.082 2.648 7.047 2.845 7.258.074.08 1.694-.549 1.782-.69.055-.09-2.708-7.134-2.869-7.316-.01-.012-.387.128-.836.31ZM3.9 24.258v1.025h6.844v-2.051H3.9v1.026Zm8.897 0v1.025h2.327v-2.051h-2.327v1.026Zm11.942 9.12c-.46.844-.804 1.586-.767 1.647.038.06.43.292.87.514l.802.405.264-.442c.534-.894 1.398-2.53 1.398-2.646 0-.093-1.121-.761-1.641-.978-.05-.02-.466.654-.926 1.5Zm16.81-.767c-.41.186-.775.367-.81.402-.05.05.613 1.928.737 2.088.017.022.444-.125.948-.326.836-.335.91-.396.834-.695-.138-.55-.737-1.823-.854-1.815-.06.005-.446.16-.856.346ZM7.87 47.244v13.893l-1.813-.051c-1.521-.044-1.902-.099-2.361-.342-.702-.372-1.078-.78-1.426-1.548-.274-.603-.28-.836-.281-11.897-.002-7.54.045-11.454.142-11.804.186-.667.997-1.568 1.702-1.889.436-.198.9-.25 2.292-.252l1.745-.003v13.893Zm58.241-13.638c.704.32 1.516 1.222 1.701 1.89.097.349.145 4.263.143 11.803-.002 11.06-.007 11.294-.281 11.897-.348.766-.722 1.174-1.426 1.552-.52.28-.755.296-4.62.336l-4.072.042V33.35l4.004.003c3.577.003 4.062.03 4.551.252Zm-53.86 2.754v1.103l1.54-.039 1.54-.039v-2.051l-1.54-.039-1.54-.038v1.103Zm17.21 1.507c-1.748.441-3.266 1.841-3.821 3.524-.316.955-.459 3.44-.278 4.831.074.577.303 1.419.512 1.884.512 1.139 1.792 2.342 2.934 2.758l.826.3V56.872h2.19v-5.69l.924-.363c.544-.214.943-.306.972-.224.117.34.968 1.317 1.501 1.723.322.245.89.553 1.263.686l.678.24v3.628h2.19v-3.628l.687-.244c1.373-.486 2.778-2.015 3.162-3.437.247-.915.097-2.632-.304-3.494-1.064-2.284-3.703-3.45-6.128-2.707-.551.17-.697.019-.7-.724-.005-1.188-.935-2.937-1.988-3.74a5.331 5.331 0 0 0-3.052-1.11c-.58-.027-1.285.009-1.569.08Zm2.375 2.099c.785.28 1.453.875 1.829 1.628.31.622.349.866.349 2.197 0 1.319-.041 1.582-.341 2.196-.188.383-.38 1.005-.43 1.38-.048.377-.187.799-.308.938-.202.23-.859.635-1.033.635-.039 0-.088-.969-.11-2.154l-.037-2.153h-2.053l-.038 2.153c-.02 1.185-.07 2.154-.109 2.154-.209 0-.864-.442-1.249-.843-.758-.79-.862-1.23-.862-3.638 0-2.047.019-2.204.349-2.865.56-1.123 1.668-1.804 2.936-1.804.338 0 .837.08 1.107.176ZM3.901 44.975v3.965h2.053V41.01H3.901v3.966Zm57.545-.698c-1.689.766-2.404 2.752-1.572 4.368 1.232 2.393 4.652 2.29 5.772-.172.5-1.101.166-2.785-.715-3.592-.891-.819-2.426-1.084-3.485-.604Zm-22.29 1.035c2.272.676 2.88 3.755 1.042 5.27-.801.66-.846.6-.846-1.095v-1.504h-2.19v1.504c0 .828-.034 1.504-.075 1.504-.25 0-.92-.476-1.218-.866-.63-.827-.681-1.184-.28-1.98.194-.388.39-1.01.434-1.384.095-.804.428-1.175 1.295-1.445.781-.244 1.03-.244 1.838-.004Zm24.336 1.117c.736.736.244 1.882-.81 1.882-1.027 0-1.48-1.246-.697-1.918.5-.43 1.054-.417 1.507.036Zm-14.637 1.735c-.04.104-.054.583-.031 1.064l.04.875H52.287V48.05l-1.679-.038c-1.331-.03-1.694 0-1.752.151ZM13.072 50.24v1.026H25.254v-2.051H13.072v1.025ZM3.9 52.154v1.162h2.053v-2.325H3.901v1.163Zm39.83 1.572v1.094H49.619v-2.188h-5.886v1.094Zm-25.047.89v1.025H24.843V53.59h-6.16v1.025Zm-4.654 3.213v1.094h5.475v-2.188H14.03v1.094Zm-11.44 4.66c1.187.7-.304.67 32.382.67 32.685 0 31.195.03 32.382-.67.266-.156.511-.284.544-.284.034 0 .06.723.058 1.606-.002 1.321-.053 1.717-.282 2.222-.348.766-.722 1.174-1.426 1.552l-.547.294H4.243l-.547-.294c-.704-.378-1.079-.786-1.426-1.552-.23-.505-.28-.901-.282-2.222-.002-.883.024-1.606.057-1.606.034 0 .278.128.544.285Z" fill="#6A6A6A"/></svg>