<svg width="70" height="62" fill="none" xmlns="http://www.w3.org/2000/svg"><path fill-rule="evenodd" clip-rule="evenodd" d="M2.201.374C1.531.587.387 1.779.181 2.479c-.241.822-.241 47.413 0 48.235.222.755 1.354 1.894 2.105 2.117.427.127 4.298.167 16.092.167h15.53V59.6H16.538l-.336.338c-.444.446-.444 1.078 0 1.525l.336.337h36.924l.335-.337c.444-.447.444-1.079 0-1.525l-.335-.338H36.094v-6.6h15.555c17.618 0 16.37.078 17.422-1.099.325-.364.664-.907.753-1.207.235-.788.235-47.406 0-48.193-.09-.3-.428-.844-.753-1.207C67.993.087 71.319.193 34.942.208 11.838.218 2.544.265 2.202.374Zm65.263 2.358.336.338v47.053l-.336.338-.335.337H2.872l-.335-.337-.336-.338V3.07l.336-.338.335-.338H67.13l.335.338ZM13.955 9.216c-3.096 1.132-4 4.974-1.712 7.277.903.908 1.711 1.23 3.078 1.225.984-.003 1.268-.06 1.86-.368 1.029-.537 1.458-.954 1.974-1.92.423-.79.464-.97.465-2.035.001-1.375-.32-2.19-1.22-3.097-1.124-1.13-3.039-1.596-4.445-1.082Zm10.448.117-.335.337V17.121l.335.337c.212.213.492.338.758.338s.546-.125.758-.338l.335-.337V9.67l-.335-.337a1.098 1.098 0 0 0-.758-.338c-.266 0-.547.125-.758.338Zm6.56 0-.336.337V17.121l.336.337c.211.213.491.338.758.338.266 0 .546-.125.757-.338l.336-.337V9.67l-.336-.337a1.098 1.098 0 0 0-.757-.338c-.267 0-.547.125-.758.338Zm6.56 0-.336.337V17.121l.336.337c.211.213.491.338.758.338.266 0 .546-.125.757-.338l.336-.337V9.67l-.336-.337a1.098 1.098 0 0 0-.757-.338c-.267 0-.547.125-.758.338Zm9.231-.117c-3.096 1.132-4 4.974-1.712 7.277.903.908 1.711 1.23 3.078 1.225.985-.003 1.268-.06 1.86-.368 1.03-.537 1.459-.954 1.975-1.92.422-.79.463-.97.464-2.035.002-1.375-.32-2.19-1.22-3.097-1.123-1.13-3.038-1.596-4.445-1.082Zm10.448.117-.335.337V17.121l.335.337c.212.213.492.338.758.338s.547-.125.758-.338l.335-.337V9.67l-.335-.337a1.098 1.098 0 0 0-.758-.338c-.266 0-.546.125-.758.338Zm-41.016 2.05c1.404.59 1.746 2.442.654 3.541-.886.892-2.152.892-3.038 0-1.69-1.7.174-4.47 2.384-3.541Zm32.8 0c1.403.59 1.746 2.442.654 3.541-.887.892-2.153.892-3.04 0-1.69-1.7.176-4.47 2.385-3.541Zm-37.703 11.15-.335.338V30.322l.335.337c.212.213.492.338.758.338s.546-.125.758-.338l.335-.337V22.87l-.335-.337a1.098 1.098 0 0 0-.758-.338c-.266 0-.546.125-.758.338Zm9.232-.116c-3.096 1.132-4 4.974-1.712 7.277.902.908 1.711 1.23 3.078 1.225.984-.003 1.268-.06 1.86-.368 1.029-.537 1.458-.954 1.974-1.92.423-.789.464-.97.465-2.035.001-1.375-.32-2.19-1.22-3.097-1.124-1.13-3.039-1.596-4.445-1.082Zm10.448.117-.336.337V30.322l.336.337c.211.213.491.338.758.338.266 0 .546-.125.757-.338l.336-.337V22.87l-.336-.337a1.098 1.098 0 0 0-.757-.338c-.267 0-.547.125-.758.338Zm6.56 0-.336.337V30.322l.336.337c.211.213.491.338.758.338.266 0 .546-.125.757-.338l.336-.337V22.87l-.336-.337a1.098 1.098 0 0 0-.757-.338c-.267 0-.547.125-.758.338Zm6.56 0-.336.337V30.322l.336.337c.211.213.491.338.757.338.267 0 .547-.125.758-.338l.336-.337V22.87l-.336-.337a1.098 1.098 0 0 0-.758-.338c-.266 0-.546.125-.757.338Zm9.231-.117c-3.096 1.132-4 4.974-1.712 7.277.903.908 1.711 1.23 3.078 1.225.985-.003 1.268-.06 1.86-.368 1.03-.537 1.458-.954 1.975-1.92.422-.789.463-.97.464-2.035.001-1.375-.32-2.19-1.22-3.097-1.124-1.13-3.039-1.596-4.445-1.082Zm-30.568 2.167c1.404.59 1.746 2.442.654 3.541-.886.892-2.152.892-3.038 0-1.69-1.7.174-4.47 2.384-3.541Zm32.8 0c1.403.59 1.745 2.442.654 3.541-.887.892-2.153.892-3.04 0-1.69-1.7.176-4.47 2.385-3.541Zm-41.59 11.034c-3.097 1.132-4.001 4.974-1.713 7.277.903.908 1.711 1.23 3.078 1.225.984-.003 1.268-.06 1.86-.368 1.029-.537 1.458-.954 1.974-1.92.423-.789.464-.97.465-2.035.001-1.375-.32-2.19-1.22-3.097-1.124-1.13-3.039-1.596-4.445-1.082Zm10.447.117-.335.337V43.523l.335.337c.212.213.492.338.758.338s.546-.125.758-.338l.335-.337V36.072l-.335-.337a1.098 1.098 0 0 0-.758-.338c-.266 0-.547.125-.758.338Zm6.56 0-.336.337V43.523l.336.337c.211.213.491.338.758.338.266 0 .546-.125.757-.338l.336-.337V36.072l-.336-.337a1.098 1.098 0 0 0-.757-.338c-.267 0-.547.125-.758.338Zm9.231-.117c-3.096 1.132-4 4.974-1.712 7.277.903.908 1.712 1.23 3.078 1.225.985-.003 1.269-.06 1.86-.368 1.03-.537 1.459-.954 1.975-1.92.422-.789.463-.97.464-2.035.002-1.375-.32-2.19-1.22-3.097-1.123-1.13-3.038-1.596-4.445-1.082Zm10.448.117-.335.337V43.523l.335.337c.212.213.492.338.758.338.267 0 .547-.125.758-.338l.336-.337V36.072l-.336-.337a1.098 1.098 0 0 0-.758-.338c-.266 0-.546.125-.758.338Zm6.56 0-.335.337V43.523l.335.337c.212.213.492.338.758.338s.547-.125.758-.338l.335-.337V36.072l-.335-.337a1.098 1.098 0 0 0-.758-.338c-.266 0-.546.125-.758.338Zm-41.016 2.05c1.404.59 1.746 2.443.654 3.541-1.535 1.545-4.051.161-3.647-2.006.241-1.294 1.739-2.063 2.993-1.535Zm26.24 0c1.404.59 1.746 2.443.654 3.541-1.535 1.545-4.052.161-3.648-2.006.242-1.294 1.74-2.063 2.993-1.535Z" fill="#fff"/></svg>