<svg width="70" height="58" fill="none" xmlns="http://www.w3.org/2000/svg"><mask id="path-1-outside-1_437_2047" maskUnits="userSpaceOnUse" x="0" y=".283" width="70" height="57" fill="#000"><path fill="#fff" d="M0 .283h70v57H0z"/><path fill-rule="evenodd" clip-rule="evenodd" d="M17.304 1.488c-.091.113-.23.648-.308 1.19l-.142.986-.865.352-.865.353-.607-.483c-1.288-1.024-1.378-.992-3.476 1.202-1.75 1.832-1.793 1.975-.93 3.165.307.422.53.834.497.915l-.358.87-.298.722-.989.157c-1.156.184-1.343.368-1.343 1.322v.667l-1.763.062c-1.582.055-1.837.1-2.493.448-.985.521-1.755 1.372-2.1 2.318-.282.776-.284.93-.248 16.444l.037 15.66.312.6c.465.895 1.035 1.5 1.856 1.967l.735.419 6.463.04 6.463.042v4.254h-1.568c-1.344 0-1.601.037-1.797.26-.286.324-.29.583-.014.987l.215.316h24.023l.215-.316c.284-.416.272-.724-.037-1.012-.204-.19-.554-.235-1.797-.235h-1.545v-4.254l6.463-.041 6.463-.041.736-.419c.82-.468 1.39-1.072 1.855-1.966l.312-.6.038-9.833.039-9.833 2.352-1.29c1.293-.71 2.38-1.291 2.416-1.291.035 0 .049 5.325.03 11.834l-.036 11.834-1.244.038c-1.798.055-1.728-.094-1.728 3.68 0 3.046 0 3.048.339 3.396l.34.35h7.716c6.761 0 7.756-.028 8.025-.222.302-.218.307-.276.307-3.421 0-1.934-.057-3.309-.143-3.475-.126-.242-.3-.275-1.452-.275h-1.308V23.486l.495-.61c.663-.815 1.26-2.06 1.509-3.147.612-2.672-.134-5.32-2.06-7.302-1.657-1.708-3.43-2.414-5.75-2.292-2.746.144-4.933 1.55-6.323 4.062-.382.689-.558.838-1.904 1.606-.816.465-1.504.825-1.529.8-.025-.026-.301-.573-.614-1.214-.449-.923-.7-1.261-1.2-1.614-1.174-.832-1.214-.835-9.05-.835h-7.167v-.646c0-.93-.379-1.276-1.53-1.405l-.89-.099-.357-.897-.358-.898.6-.824c.33-.454.6-.952.6-1.107 0-.309-3.202-3.733-3.616-3.869-.285-.093-.65.088-1.465.725l-.587.459-.726-.306c-1.039-.438-1.026-.422-1.133-1.4-.155-1.407-.116-1.39-3.054-1.39-2.024 0-2.551.04-2.684.205Zm4.205 1.963c.224 1.53.22 1.524 1.11 1.814.305.099.91.363 1.344.587.435.224.876.407.98.407.104 0 .53-.252.95-.56l.76-.56 1.01 1.046 1.01 1.046-.415.545c-.786 1.03-.79 1.064-.265 2.211.26.569.516 1.244.568 1.5.122.596.495.837 1.489.96l.795.1v2.927l-.588.09c-1.285.2-1.36.234-1.548.694-1.31 3.196-1.276 2.895-.45 3.98l.416.545-1.03 1.06-1.03 1.06-.616-.479c-.885-.688-1.027-.713-1.834-.327a33.27 33.27 0 0 1-1.535.675c-.885.358-.95.457-1.114 1.718l-.089.675h-2.854l-.096-.817c-.116-.986-.345-1.39-.861-1.52-.214-.055-.869-.322-1.457-.594-1.186-.548-1.212-.545-2.225.271l-.53.427-1.015-1.037-1.016-1.038.562-.82c.622-.906.623-.833-.03-2.406-.814-1.96-.718-1.866-2.112-2.06l-.662-.091.04-1.447.039-1.447.892-.164c.896-.164 1.389-.519 1.389-1 0-.114.218-.691.484-1.283.266-.593.483-1.153.483-1.245 0-.092-.25-.512-.555-.933l-.556-.766 1.002-1.037c.55-.57 1.007-1.037 1.014-1.037.007 0 .347.256.754.569.408.313.826.569.928.569.103 0 .483-.155.845-.343a11.7 11.7 0 0 1 1.388-.588c.839-.283 1.057-.567 1.193-1.557.053-.391.126-.759.16-.817.036-.06.678-.107 1.427-.107h1.362l.089.604Zm-2.383 4.941c-1.646.25-3.34 1.566-4.118 3.197-.375.787-.407.975-.407 2.417 0 1.399.04 1.65.37 2.377 1.046 2.293 3.626 3.71 5.948 3.267 2.406-.46 4.158-2.288 4.57-4.768.621-3.726-2.644-7.055-6.363-6.49Zm2.732 2.074c1.462.817 2.163 2.16 2.042 3.904-.048.696-.168 1.143-.431 1.604-1.859 3.26-6.497 2.53-7.297-1.149-.308-1.411.279-3.044 1.44-4.011 1.127-.939 2.928-1.087 4.246-.348Zm40.35 1.494c1.574.364 3.178 1.72 3.892 3.288 1.65 3.624-.354 7.86-4.126 8.724-3.368.772-6.667-1.559-7.24-5.114-.417-2.584.94-5.242 3.281-6.433 1.4-.711 2.572-.841 4.194-.465Zm-2.728 2.73c-2.77 1.076-2.832 5.256-.094 6.43.679.292 1.932.304 2.58.026 2.488-1.07 2.771-4.681.48-6.138-.541-.344-.848-.433-1.586-.462-.503-.02-1.124.046-1.38.145Zm-51.86.943c0 1.185.172 1.37 1.405 1.514.904.106.935.132 1.357 1.148l.304.736-.565.77c-.871 1.186-.839 1.286 1.057 3.26.892.929 1.769 1.727 1.948 1.773.24.062.537-.069 1.136-.503.445-.323.857-.587.915-.587.057 0 .458.14.89.313l.787.313.162 1.037c.228 1.454.247 1.464 2.93 1.464 1.194 0 2.33-.062 2.522-.137.373-.146.472-.402.616-1.593l.088-.733.857-.394.857-.393.595.465c.822.643 1.186.824 1.472.73.413-.134 3.615-3.56 3.615-3.867 0-.155-.248-.624-.553-1.044-.304-.419-.553-.838-.553-.932 0-.093.152-.523.338-.954l.337-.785.86-.102c1.201-.144 1.507-.474 1.507-1.627v-.86h7.193c7.888 0 7.768-.011 8.477.855.376.459 1.117 1.836 1.032 1.916-.024.022-.935.55-2.023 1.174l-1.98 1.132-.383-.394c-.44-.452-1.401-.766-1.932-.631-.199.05-1.212.592-2.25 1.203l-1.89 1.112-3.157.243c-1.736.134-3.264.303-3.394.374-.262.143-2.735 7.75-2.735 8.414 0 .305.213.535 1.14 1.236 1.337 1.01 1.684 1.14 2.046.764.142-.147.836-1.355 1.543-2.684l1.285-2.417 2.143-.383c1.178-.21 2.305-.387 2.505-.391.316-.007.467.179 1.199 1.48l.837 1.488-1.524 1.96-1.524 1.959-2.99.07c-2.898.07-2.993.081-3.138.382-.214.441.078 3.097.374 3.402.311.32 8.102 1.96 8.479 1.785.153-.071 1.046-1.34 1.986-2.819l1.709-2.689 1.614-.954c.888-.525 1.66-.954 1.713-.954.055 0 .083 2.19.063 4.869l-.036 4.868H2.574l-.035-11.922c-.024-7.863.013-12.109.107-12.468.178-.68.708-1.339 1.362-1.694.406-.22.799-.274 2.057-.28l1.555-.005v.987Zm54.053.836c.19.141.463.498.605.794.218.451.236.622.107 1.063-.324 1.114-1.406 1.677-2.401 1.25-1.37-.588-1.4-2.6-.05-3.245.636-.303 1.206-.258 1.74.138Zm-8.57 1.695c.003 1.66.594 3.325 1.68 4.74.305.396.534.738.508.76-.182.152-5.91 3.207-6.013 3.207-.137 0-3.23-5.402-3.222-5.628.004-.12 6.713-4.017 6.942-4.032.057-.003.105.425.106.953Zm-7.026 6.594c1.609 2.84 2.436 4.436 2.38 4.588-.048.128-.531.496-1.074.819l-1.548.919-.562.332-2.612-4.643c-1.437-2.555-2.552-4.666-2.48-4.692.074-.027.756-.43 1.516-.896.76-.467 1.502-.833 1.648-.815.19.023.966 1.27 2.732 4.388Zm-7.044-1.126c.279.486.493.899.475.917-.017.018-1.143.225-2.503.46-1.36.236-2.52.48-2.58.541-.06.062-.637 1.104-1.282 2.316-.644 1.212-1.223 2.203-1.286 2.203-.062 0-.25-.1-.417-.22l-.304-.222 1.046-3.28 1.046-3.278 1.953-.137c1.075-.075 2.267-.147 2.65-.16l.695-.023.507.883Zm19.115 1.697c.71.282 1.079.33 2.557.33 1.728 0 1.916-.038 3.491-.706.23-.097.242.536.242 12.14v12.243l-3.767-.038-3.767-.038-.036-12.206c-.033-11.584-.023-12.203.208-12.131.133.041.616.224 1.072.406Zm-14.462 6.588.331.642-1.422 2.202c-.867 1.343-1.51 2.203-1.647 2.203-.124 0-1.562-.287-3.194-.639-1.633-.35-3.016-.639-3.073-.64-.057 0-.104-.21-.104-.466v-.465l2.347.055c1.29.03 2.488.017 2.661-.03.188-.05.927-.88 1.835-2.064 1.704-2.22 1.56-2.168 2.267-.798ZM48.93 44.96c-.038 2.011-.08 2.383-.332 2.879-.327.643-.96 1.141-1.724 1.352-.341.095-7.666.131-21.441.107L4.509 49.26l-.6-.354c-.371-.218-.742-.6-.968-.995-.35-.61-.37-.75-.413-2.951l-.047-2.31h46.492l-.044 2.31Zm-23.844.174c-.402.29-.51.844-.262 1.338.472.939 1.756.714 1.954-.342.173-.924-.908-1.56-1.692-.996Zm7.834 7.893v2.133H18.54V50.895H32.92v2.132Zm34.56-.07v2.06H53.932v-4.122h13.547v2.061Z"/></mask><path fill-rule="evenodd" clip-rule="evenodd" d="M17.304 1.488c-.091.113-.23.648-.308 1.19l-.142.986-.865.352-.865.353-.607-.483c-1.288-1.024-1.378-.992-3.476 1.202-1.75 1.832-1.793 1.975-.93 3.165.307.422.53.834.497.915l-.358.87-.298.722-.989.157c-1.156.184-1.343.368-1.343 1.322v.667l-1.763.062c-1.582.055-1.837.1-2.493.448-.985.521-1.755 1.372-2.1 2.318-.282.776-.284.93-.248 16.444l.037 15.66.312.6c.465.895 1.035 1.5 1.856 1.967l.735.419 6.463.04 6.463.042v4.254h-1.568c-1.344 0-1.601.037-1.797.26-.286.324-.29.583-.014.987l.215.316h24.023l.215-.316c.284-.416.272-.724-.037-1.012-.204-.19-.554-.235-1.797-.235h-1.545v-4.254l6.463-.041 6.463-.041.736-.419c.82-.468 1.39-1.072 1.855-1.966l.312-.6.038-9.833.039-9.833 2.352-1.29c1.293-.71 2.38-1.291 2.416-1.291.035 0 .049 5.325.03 11.834l-.036 11.834-1.244.038c-1.798.055-1.728-.094-1.728 3.68 0 3.046 0 3.048.339 3.396l.34.35h7.716c6.761 0 7.756-.028 8.025-.222.302-.218.307-.276.307-3.421 0-1.934-.057-3.309-.143-3.475-.126-.242-.3-.275-1.452-.275h-1.308V23.486l.495-.61c.663-.815 1.26-2.06 1.509-3.147.612-2.672-.134-5.32-2.06-7.302-1.657-1.708-3.43-2.414-5.75-2.292-2.746.144-4.933 1.55-6.323 4.062-.382.689-.558.838-1.904 1.606-.816.465-1.504.825-1.529.8-.025-.026-.301-.573-.614-1.214-.449-.923-.7-1.261-1.2-1.614-1.174-.832-1.214-.835-9.05-.835h-7.167v-.646c0-.93-.379-1.276-1.53-1.405l-.89-.099-.357-.897-.358-.898.6-.824c.33-.454.6-.952.6-1.107 0-.309-3.202-3.733-3.616-3.869-.285-.093-.65.088-1.465.725l-.587.459-.726-.306c-1.039-.438-1.026-.422-1.133-1.4-.155-1.407-.116-1.39-3.054-1.39-2.024 0-2.551.04-2.684.205Zm4.205 1.963c.224 1.53.22 1.524 1.11 1.814.305.099.91.363 1.344.587.435.224.876.407.98.407.104 0 .53-.252.95-.56l.76-.56 1.01 1.046 1.01 1.046-.415.545c-.786 1.03-.79 1.064-.265 2.211.26.569.516 1.244.568 1.5.122.596.495.837 1.489.96l.795.1v2.927l-.588.09c-1.285.2-1.36.234-1.548.694-1.31 3.196-1.276 2.895-.45 3.98l.416.545-1.03 1.06-1.03 1.06-.616-.479c-.885-.688-1.027-.713-1.834-.327a33.27 33.27 0 0 1-1.535.675c-.885.358-.95.457-1.114 1.718l-.089.675h-2.854l-.096-.817c-.116-.986-.345-1.39-.861-1.52-.214-.055-.869-.322-1.457-.594-1.186-.548-1.212-.545-2.225.271l-.53.427-1.015-1.037-1.016-1.038.562-.82c.622-.906.623-.833-.03-2.406-.814-1.96-.718-1.866-2.112-2.06l-.662-.091.04-1.447.039-1.447.892-.164c.896-.164 1.389-.519 1.389-1 0-.114.218-.691.484-1.283.266-.593.483-1.153.483-1.245 0-.092-.25-.512-.555-.933l-.556-.766 1.002-1.037c.55-.57 1.007-1.037 1.014-1.037.007 0 .347.256.754.569.408.313.826.569.928.569.103 0 .483-.155.845-.343a11.7 11.7 0 0 1 1.388-.588c.839-.283 1.057-.567 1.193-1.557.053-.391.126-.759.16-.817.036-.06.678-.107 1.427-.107h1.362l.089.604Zm-2.383 4.941c-1.646.25-3.34 1.566-4.118 3.197-.375.787-.407.975-.407 2.417 0 1.399.04 1.65.37 2.377 1.046 2.293 3.626 3.71 5.948 3.267 2.406-.46 4.158-2.288 4.57-4.768.621-3.726-2.644-7.055-6.363-6.49Zm2.732 2.074c1.462.817 2.163 2.16 2.042 3.904-.048.696-.168 1.143-.431 1.604-1.859 3.26-6.497 2.53-7.297-1.149-.308-1.411.279-3.044 1.44-4.011 1.127-.939 2.928-1.087 4.246-.348Zm40.35 1.494c1.574.364 3.178 1.72 3.892 3.288 1.65 3.624-.354 7.86-4.126 8.724-3.368.772-6.667-1.559-7.24-5.114-.417-2.584.94-5.242 3.281-6.433 1.4-.711 2.572-.841 4.194-.465Zm-2.728 2.73c-2.77 1.076-2.832 5.256-.094 6.43.679.292 1.932.304 2.58.026 2.488-1.07 2.771-4.681.48-6.138-.541-.344-.848-.433-1.586-.462-.503-.02-1.124.046-1.38.145Zm-51.86.943c0 1.185.172 1.37 1.405 1.514.904.106.935.132 1.357 1.148l.304.736-.565.77c-.871 1.186-.839 1.286 1.057 3.26.892.929 1.769 1.727 1.948 1.773.24.062.537-.069 1.136-.503.445-.323.857-.587.915-.587.057 0 .458.14.89.313l.787.313.162 1.037c.228 1.454.247 1.464 2.93 1.464 1.194 0 2.33-.062 2.522-.137.373-.146.472-.402.616-1.593l.088-.733.857-.394.857-.393.595.465c.822.643 1.186.824 1.472.73.413-.134 3.615-3.56 3.615-3.867 0-.155-.248-.624-.553-1.044-.304-.419-.553-.838-.553-.932 0-.093.152-.523.338-.954l.337-.785.86-.102c1.201-.144 1.507-.474 1.507-1.627v-.86h7.193c7.888 0 7.768-.011 8.477.855.376.459 1.117 1.836 1.032 1.916-.024.022-.935.55-2.023 1.174l-1.98 1.132-.383-.394c-.44-.452-1.401-.766-1.932-.631-.199.05-1.212.592-2.25 1.203l-1.89 1.112-3.157.243c-1.736.134-3.264.303-3.394.374-.262.143-2.735 7.75-2.735 8.414 0 .305.213.535 1.14 1.236 1.337 1.01 1.684 1.14 2.046.764.142-.147.836-1.355 1.543-2.684l1.285-2.417 2.143-.383c1.178-.21 2.305-.387 2.505-.391.316-.007.467.179 1.199 1.48l.837 1.488-1.524 1.96-1.524 1.959-2.99.07c-2.898.07-2.993.081-3.138.382-.214.441.078 3.097.374 3.402.311.32 8.102 1.96 8.479 1.785.153-.071 1.046-1.34 1.986-2.819l1.709-2.689 1.614-.954c.888-.525 1.66-.954 1.713-.954.055 0 .083 2.19.063 4.869l-.036 4.868H2.574l-.035-11.922c-.024-7.863.013-12.109.107-12.468.178-.68.708-1.339 1.362-1.694.406-.22.799-.274 2.057-.28l1.555-.005v.987Zm54.053.836c.19.141.463.498.605.794.218.451.236.622.107 1.063-.324 1.114-1.406 1.677-2.401 1.25-1.37-.588-1.4-2.6-.05-3.245.636-.303 1.206-.258 1.74.138Zm-8.57 1.695c.003 1.66.594 3.325 1.68 4.74.305.396.534.738.508.76-.182.152-5.91 3.207-6.013 3.207-.137 0-3.23-5.402-3.222-5.628.004-.12 6.713-4.017 6.942-4.032.057-.003.105.425.106.953Zm-7.026 6.594c1.609 2.84 2.436 4.436 2.38 4.588-.048.128-.531.496-1.074.819l-1.548.919-.562.332-2.612-4.643c-1.437-2.555-2.552-4.666-2.48-4.692.074-.027.756-.43 1.516-.896.76-.467 1.502-.833 1.648-.815.19.023.966 1.27 2.732 4.388Zm-7.044-1.126c.279.486.493.899.475.917-.017.018-1.143.225-2.503.46-1.36.236-2.52.48-2.58.541-.06.062-.637 1.104-1.282 2.316-.644 1.212-1.223 2.203-1.286 2.203-.062 0-.25-.1-.417-.22l-.304-.222 1.046-3.28 1.046-3.278 1.953-.137c1.075-.075 2.267-.147 2.65-.16l.695-.023.507.883Zm19.115 1.697c.71.282 1.079.33 2.557.33 1.728 0 1.916-.038 3.491-.706.23-.097.242.536.242 12.14v12.243l-3.767-.038-3.767-.038-.036-12.206c-.033-11.584-.023-12.203.208-12.131.133.041.616.224 1.072.406Zm-14.462 6.588.331.642-1.422 2.202c-.867 1.343-1.51 2.203-1.647 2.203-.124 0-1.562-.287-3.194-.639-1.633-.35-3.016-.639-3.073-.64-.057 0-.104-.21-.104-.466v-.465l2.347.055c1.29.03 2.488.017 2.661-.03.188-.05.927-.88 1.835-2.064 1.704-2.22 1.56-2.168 2.267-.798ZM48.93 44.96c-.038 2.011-.08 2.383-.332 2.879-.327.643-.96 1.141-1.724 1.352-.341.095-7.666.131-21.441.107L4.509 49.26l-.6-.354c-.371-.218-.742-.6-.968-.995-.35-.61-.37-.75-.413-2.951l-.047-2.31h46.492l-.044 2.31Zm-23.844.174c-.402.29-.51.844-.262 1.338.472.939 1.756.714 1.954-.342.173-.924-.908-1.56-1.692-.996Zm7.834 7.893v2.133H18.54V50.895H32.92v2.132Zm34.56-.07v2.06H53.932v-4.122h13.547v2.061Z" fill="#6A6A6A"/><path clip-rule="evenodd" d="M17.304 1.488c-.091.113-.23.648-.308 1.19l-.142.986-.865.352-.865.353-.607-.483c-1.288-1.024-1.378-.992-3.476 1.202-1.75 1.832-1.793 1.975-.93 3.165.307.422.53.834.497.915l-.358.87-.298.722-.989.157c-1.156.184-1.343.368-1.343 1.322v.667l-1.763.062c-1.582.055-1.837.1-2.493.448-.985.521-1.755 1.372-2.1 2.318-.282.776-.284.93-.248 16.444l.037 15.66.312.6c.465.895 1.035 1.5 1.856 1.967l.735.419 6.463.04 6.463.042v4.254h-1.568c-1.344 0-1.601.037-1.797.26-.286.324-.29.583-.014.987l.215.316h24.023l.215-.316c.284-.416.272-.724-.037-1.012-.204-.19-.554-.235-1.797-.235h-1.545v-4.254l6.463-.041 6.463-.041.736-.419c.82-.468 1.39-1.072 1.855-1.966l.312-.6.038-9.833.039-9.833 2.352-1.29c1.293-.71 2.38-1.291 2.416-1.291.035 0 .049 5.325.03 11.834l-.036 11.834-1.244.038c-1.798.055-1.728-.094-1.728 3.68 0 3.046 0 3.048.339 3.396l.34.35h7.716c6.761 0 7.756-.028 8.025-.222.302-.218.307-.276.307-3.421 0-1.934-.057-3.309-.143-3.475-.126-.242-.3-.275-1.452-.275h-1.308V23.486l.495-.61c.663-.815 1.26-2.06 1.509-3.147.612-2.672-.134-5.32-2.06-7.302-1.657-1.708-3.43-2.414-5.75-2.292-2.746.144-4.933 1.55-6.323 4.062-.382.689-.558.838-1.904 1.606-.816.465-1.504.825-1.529.8-.025-.026-.301-.573-.614-1.214-.449-.923-.7-1.261-1.2-1.614-1.174-.832-1.214-.835-9.05-.835h-7.167v-.646c0-.93-.379-1.276-1.53-1.405l-.89-.099-.357-.897-.358-.898.6-.824c.33-.454.6-.952.6-1.107 0-.309-3.202-3.733-3.616-3.869-.285-.093-.65.088-1.465.725l-.587.459-.726-.306c-1.039-.438-1.026-.422-1.133-1.4-.155-1.407-.116-1.39-3.054-1.39-2.024 0-2.551.04-2.684.205Zm4.205 1.963c.224 1.53.22 1.524 1.11 1.814.305.099.91.363 1.344.587.435.224.876.407.98.407.104 0 .53-.252.95-.56l.76-.56 1.01 1.046 1.01 1.046-.415.545c-.786 1.03-.79 1.064-.265 2.211.26.569.516 1.244.568 1.5.122.596.495.837 1.489.96l.795.1v2.927l-.588.09c-1.285.2-1.36.234-1.548.694-1.31 3.196-1.276 2.895-.45 3.98l.416.545-1.03 1.06-1.03 1.06-.616-.479c-.885-.688-1.027-.713-1.834-.327a33.27 33.27 0 0 1-1.535.675c-.885.358-.95.457-1.114 1.718l-.089.675h-2.854l-.096-.817c-.116-.986-.345-1.39-.861-1.52-.214-.055-.869-.322-1.457-.594-1.186-.548-1.212-.545-2.225.271l-.53.427-1.015-1.037-1.016-1.038.562-.82c.622-.906.623-.833-.03-2.406-.814-1.96-.718-1.866-2.112-2.06l-.662-.091.04-1.447.039-1.447.892-.164c.896-.164 1.389-.519 1.389-1 0-.114.218-.691.484-1.283.266-.593.483-1.153.483-1.245 0-.092-.25-.512-.555-.933l-.556-.766 1.002-1.037c.55-.57 1.007-1.037 1.014-1.037.007 0 .347.256.754.569.408.313.826.569.928.569.103 0 .483-.155.845-.343a11.7 11.7 0 0 1 1.388-.588c.839-.283 1.057-.567 1.193-1.557.053-.391.126-.759.16-.817.036-.06.678-.107 1.427-.107h1.362l.089.604Zm-2.383 4.941c-1.646.25-3.34 1.566-4.118 3.197-.375.787-.407.975-.407 2.417 0 1.399.04 1.65.37 2.377 1.046 2.293 3.626 3.71 5.948 3.267 2.406-.46 4.158-2.288 4.57-4.768.621-3.726-2.644-7.055-6.363-6.49Zm2.732 2.074c1.462.817 2.163 2.16 2.042 3.904-.048.696-.168 1.143-.431 1.604-1.859 3.26-6.497 2.53-7.297-1.149-.308-1.411.279-3.044 1.44-4.011 1.127-.939 2.928-1.087 4.246-.348Zm40.35 1.494c1.574.364 3.178 1.72 3.892 3.288 1.65 3.624-.354 7.86-4.126 8.724-3.368.772-6.667-1.559-7.24-5.114-.417-2.584.94-5.242 3.281-6.433 1.4-.711 2.572-.841 4.194-.465Zm-2.728 2.73c-2.77 1.076-2.832 5.256-.094 6.43.679.292 1.932.304 2.58.026 2.488-1.07 2.771-4.681.48-6.138-.541-.344-.848-.433-1.586-.462-.503-.02-1.124.046-1.38.145Zm-51.86.943c0 1.185.172 1.37 1.405 1.514.904.106.935.132 1.357 1.148l.304.736-.565.77c-.871 1.186-.839 1.286 1.057 3.26.892.929 1.769 1.727 1.948 1.773.24.062.537-.069 1.136-.503.445-.323.857-.587.915-.587.057 0 .458.14.89.313l.787.313.162 1.037c.228 1.454.247 1.464 2.93 1.464 1.194 0 2.33-.062 2.522-.137.373-.146.472-.402.616-1.593l.088-.733.857-.394.857-.393.595.465c.822.643 1.186.824 1.472.73.413-.134 3.615-3.56 3.615-3.867 0-.155-.248-.624-.553-1.044-.304-.419-.553-.838-.553-.932 0-.093.152-.523.338-.954l.337-.785.86-.102c1.201-.144 1.507-.474 1.507-1.627v-.86h7.193c7.888 0 7.768-.011 8.477.855.376.459 1.117 1.836 1.032 1.916-.024.022-.935.55-2.023 1.174l-1.98 1.132-.383-.394c-.44-.452-1.401-.766-1.932-.631-.199.05-1.212.592-2.25 1.203l-1.89 1.112-3.157.243c-1.736.134-3.264.303-3.394.374-.262.143-2.735 7.75-2.735 8.414 0 .305.213.535 1.14 1.236 1.337 1.01 1.684 1.14 2.046.764.142-.147.836-1.355 1.543-2.684l1.285-2.417 2.143-.383c1.178-.21 2.305-.387 2.505-.391.316-.007.467.179 1.199 1.48l.837 1.488-1.524 1.96-1.524 1.959-2.99.07c-2.898.07-2.993.081-3.138.382-.214.441.078 3.097.374 3.402.311.32 8.102 1.96 8.479 1.785.153-.071 1.046-1.34 1.986-2.819l1.709-2.689 1.614-.954c.888-.525 1.66-.954 1.713-.954.055 0 .083 2.19.063 4.869l-.036 4.868H2.574l-.035-11.922c-.024-7.863.013-12.109.107-12.468.178-.68.708-1.339 1.362-1.694.406-.22.799-.274 2.057-.28l1.555-.005v.987Zm54.053.836c.19.141.463.498.605.794.218.451.236.622.107 1.063-.324 1.114-1.406 1.677-2.401 1.25-1.37-.588-1.4-2.6-.05-3.245.636-.303 1.206-.258 1.74.138Zm-8.57 1.695c.003 1.66.594 3.325 1.68 4.74.305.396.534.738.508.76-.182.152-5.91 3.207-6.013 3.207-.137 0-3.23-5.402-3.222-5.628.004-.12 6.713-4.017 6.942-4.032.057-.003.105.425.106.953Zm-7.026 6.594c1.609 2.84 2.436 4.436 2.38 4.588-.048.128-.531.496-1.074.819l-1.548.919-.562.332-2.612-4.643c-1.437-2.555-2.552-4.666-2.48-4.692.074-.027.756-.43 1.516-.896.76-.467 1.502-.833 1.648-.815.19.023.966 1.27 2.732 4.388Zm-7.044-1.126c.279.486.493.899.475.917-.017.018-1.143.225-2.503.46-1.36.236-2.52.48-2.58.541-.06.062-.637 1.104-1.282 2.316-.644 1.212-1.223 2.203-1.286 2.203-.062 0-.25-.1-.417-.22l-.304-.222 1.046-3.28 1.046-3.278 1.953-.137c1.075-.075 2.267-.147 2.65-.16l.695-.023.507.883Zm19.115 1.697c.71.282 1.079.33 2.557.33 1.728 0 1.916-.038 3.491-.706.23-.097.242.536.242 12.14v12.243l-3.767-.038-3.767-.038-.036-12.206c-.033-11.584-.023-12.203.208-12.131.133.041.616.224 1.072.406Zm-14.462 6.588.331.642-1.422 2.202c-.867 1.343-1.51 2.203-1.647 2.203-.124 0-1.562-.287-3.194-.639-1.633-.35-3.016-.639-3.073-.64-.057 0-.104-.21-.104-.466v-.465l2.347.055c1.29.03 2.488.017 2.661-.03.188-.05.927-.88 1.835-2.064 1.704-2.22 1.56-2.168 2.267-.798ZM48.93 44.96c-.038 2.011-.08 2.383-.332 2.879-.327.643-.96 1.141-1.724 1.352-.341.095-7.666.131-21.441.107L4.509 49.26l-.6-.354c-.371-.218-.742-.6-.968-.995-.35-.61-.37-.75-.413-2.951l-.047-2.31h46.492l-.044 2.31Zm-23.844.174c-.402.29-.51.844-.262 1.338.472.939 1.756.714 1.954-.342.173-.924-.908-1.56-1.692-.996Zm7.834 7.893v2.133H18.54V50.895H32.92v2.132Zm34.56-.07v2.06H53.932v-4.122h13.547v2.061Z" stroke="#6A6A6A" mask="url('#path-1-outside-1_437_2047')"/></svg>