<svg width="70" height="70" fill="none" xmlns="http://www.w3.org/2000/svg"><path fill-rule="evenodd" clip-rule="evenodd" d="M13.633.075a4.769 4.769 0 0 0-3.03 2.493c-.276.571-.343.936-.348 1.908-.007 1.045.043 1.298.38 1.94.511.974 1.251 1.695 2.174 2.118l.753.345v4.645H8.251c-3.758 0-5.482.05-5.893.171-.775.23-1.945 1.401-2.174 2.178-.245.833-.245 19.349 0 20.182.23.777 1.399 1.948 2.174 2.177.411.122 2.135.172 5.893.172h5.311v4.524H8.251c-3.758 0-5.482.05-5.893.172-.775.23-1.945 1.4-2.174 2.177-.245.833-.245 19.35 0 20.183.23.776 1.399 1.948 2.174 2.177.838.248 28.345.248 29.183 0 .776-.23 1.945-1.4 2.174-2.177.246-.834.246-19.35 0-20.183-.23-.776-1.398-1.948-2.174-2.177-.424-.126-2.62-.172-8.15-.172h-7.57v-4.524h5.311c3.758 0 5.482-.05 5.893-.172.775-.229 1.944-1.4 2.173-2.177.243-.822.247-19.351.004-20.162-.092-.308-.442-.866-.778-1.24-1.002-1.117-1.082-1.13-7.265-1.13H15.82V8.88l.74-.344a4.578 4.578 0 0 0 2.183-2.186l.343-.742h29.914l.347.347c.334.334.346.417.346 2.262v1.915h-3.053c-3.627 0-3.94.067-4.926 1.055-.849.85-1.054 1.438-1.054 3.02v1.145l-.882.591c-1.2.805-3.974 3.635-4.835 4.933-3.115 4.695-4.064 10.26-2.67 15.648 1.521 5.874 6.137 11 11.754 13.05l1.08.394.07 7.904.07 7.903.528 1.068c.634 1.287 1.452 2.088 2.764 2.71.852.405 1.07.448 2.283.448 1.213 0 1.431-.043 2.284-.447 1.312-.623 2.13-1.424 2.764-2.71l.527-1.069.041-7.879.041-7.878 1.018-.385a19.542 19.542 0 0 0 10.537-9.512c.248-.495.698-1.64.998-2.545 1.86-5.595 1.013-11.66-2.33-16.7-.861-1.298-3.636-4.128-4.835-4.933l-.883-.591v-1.145c0-1.49-.2-2.117-.945-2.946-.933-1.039-1.333-1.13-5.008-1.13h-3.08V8.204c0-1.1-.073-2.177-.171-2.509-.23-.776-1.398-1.947-2.174-2.177-.44-.13-4.21-.172-15.55-.172h-14.97l-.344-.754c-.69-1.508-2.145-2.505-3.77-2.583-.504-.024-1.107.007-1.34.067Zm1.952 2.332c1.45.607 1.803 2.511.676 3.64-.916.918-2.223.918-3.139 0-1.745-1.747.18-4.595 2.463-3.64Zm31.851 12.248v2.261h6.775v-4.523h1.912c1.841 0 1.924.012 2.258.347l.346.347v14.445l-.346.347-.347.347H43.612l-.346-.347-.346-.347V13.087l.346-.347c.334-.335.416-.347 2.258-.347h1.912v2.262Zm4.517-1.131v1.13h-2.259v-2.261h2.259v1.13Zm-25.188 2.609.347.347v18.969l-.347.346-.346.347H2.964l-.346-.347-.347-.346V16.48l.347-.347.346-.347h23.455l.346.347Zm-8.686 3.045v1.131H13.562v2.262H9.046v2.262H4.529v9.048h20.324V18.047H18.08v1.131Zm22.582.44v1.43l-.715.783c-4.058 4.447-4.934 10.927-2.213 16.361.76 1.52 1.237 2.19 2.488 3.502 1.308 1.372 2.434 2.228 3.898 2.967 4.344 2.19 9.028 2.203 13.338.037 2.682-1.348 5.102-3.784 6.46-6.506 2.7-5.415 1.817-11.94-2.216-16.36l-.715-.785v-1.429c0-.903.054-1.43.148-1.43.081 0 .766.621 1.521 1.38 2.527 2.534 4.036 5.316 4.773 8.8.317 1.495.352 4.845.066 6.29-.685 3.462-2.27 6.447-4.735 8.916-2.404 2.408-5.237 3.956-8.548 4.67-1.498.323-4.962.362-6.422.072-3.455-.685-6.447-2.278-8.904-4.74-2.396-2.398-3.874-5.117-4.67-8.587-.327-1.42-.327-5.286 0-6.724.78-3.45 2.315-6.237 4.785-8.698.76-.758 1.446-1.378 1.522-1.378.082 0 .14.584.14 1.429Zm-18.066 6.346v5.655h-2.258v-11.31h2.258v5.655Zm-4.516 1.13v4.525H15.82V22.57h2.259v4.524Zm22.92 1.454c.344.698 1.338 1.564 2.034 1.774.782.234 14.799.234 15.58 0 .697-.21 1.691-1.076 2.036-1.774.197-.4.28-.972.335-2.283l.072-1.749.606 1.14c1.196 2.252 1.69 4.419 1.535 6.729-.426 6.358-5.377 11.261-11.738 11.626-6.175.354-11.777-4.095-12.84-10.196-.503-2.891-.108-5.305 1.318-8.05l.654-1.258.072 1.754c.054 1.315.138 1.886.335 2.287Zm-27.437-.322v3.393h-2.258v-6.786h2.258v3.393Zm-4.516 1.13v2.263H6.788v-4.524h2.258v2.262Zm31.615 4.525v1.13h2.259V32.75H40.66v1.13Zm4.517 0v1.13h2.258V32.75h-2.258v1.13Zm4.516 0v1.13h2.259V32.75h-2.259v1.13Zm4.517 0v1.13h2.258V32.75h-2.258v1.13Zm4.516 0v1.13h2.259V32.75h-2.259v1.13ZM31.282 45.537l.346.347v18.969l-.346.347-.347.347H2.964l-.346-.347-.347-.347V45.884l.347-.347.346-.347h27.971l.347.347Zm-26.753 7.57v5.654H15.82V47.452H4.53v5.655Zm13.55-4.524v1.13H29.37v-2.261H18.079v1.13Zm-4.517 4.524v3.392H6.788v-6.785h6.774v3.393Zm37.261-2.333c.893 0 2.02-.05 2.506-.113l.882-.113v7.165c0 5.212-.047 7.324-.172 7.747-.358 1.215-1.91 2.349-3.216 2.349-1.304 0-2.857-1.134-3.215-2.35-.125-.422-.172-2.534-.172-7.746v-7.165l.882.113c.485.062 1.613.113 2.505.113ZM18.08 53.107v1.13H29.37v-2.261H18.079v1.13Zm0 4.523v1.131H29.37V56.5H18.079v1.131Zm-13.55 4.524v1.131H29.37V61.023H4.53v1.131Z" fill="#fff"/></svg>