<svg width="70" height="68" fill="none" xmlns="http://www.w3.org/2000/svg"><path fill-rule="evenodd" clip-rule="evenodd" d="M24.39.411a2.726 2.726 0 0 0-.766.763c-.27.444-.29.74-.29 4.59v4.117l.357.357.358.357H45.95l.359-.357.358-.357V5.837c0-4.517-.043-4.744-1.006-5.386l-.496-.33h-10.15c-9.871.001-10.163.01-10.626.29Zm19.943 4.947v2.91H42v-1.39c0-1.28-.028-1.416-.358-1.745l-.358-.357H28.716l-.358.357c-.33.33-.358.465-.358 1.746v1.388h-2.333V2.45h18.666v2.909Zm-4.666 2.327v.582h-9.334V7.104h9.334v.581ZM1.385 10.8a2.445 2.445 0 0 0-1.23 1.295C.052 12.37 0 15.53 0 21.666v9.162l.358.357.358.357h14.901l.358-.357.358-.357v-9.76h8.927l2.974 2.483c1.636 1.365 2.972 2.527 2.97 2.582-.003.055-.15.263-.329.463-.301.34-.415.364-1.708.366-1.25.001-1.482.047-2.36.46-1.216.572-2.154 1.423-2.686 2.437-.347.662-.501.809-1 .956-3.24.953-5.757 4.491-5.596 7.867l.048 1.007h-1.406c-1.13 0-1.462.049-1.696.254-.16.14-.899 1.073-1.642 2.073-.743 1-1.401 1.875-1.463 1.944-.063.07-.471-.077-.908-.327-.438-.25-.952-.452-1.142-.45-.191.001-2.315 1.133-4.72 2.514-3.544 2.035-4.4 2.587-4.513 2.906-.202.574.047 1.154.607 1.413l.47.219.003 4.843.004 4.843.358.357.358.358h14.901l.358-.358.358-.357.003-4.843.003-4.843.47-.219c.563-.26.81-.838.607-1.418-.11-.316-.66-.698-2.617-1.819-1.412-.808-2.469-1.504-2.46-1.618.01-.11.521-.862 1.136-1.672l1.119-1.473h2.541l.358.671c.452.85 1.807 2.23 2.707 2.756 1.252.732 2.513 1.103 4.044 1.19l1.422.08v18.399l.408.778c.296.566.6.897 1.118 1.217l.711.438 5.7.042c6.314.046 6.432.032 7.373-.88 1.06-1.03 1.017-.578 1.02-10.836l.004-9.2h.92c3.75 0 6.986-2.32 8.056-5.776 1.361-4.397-1.371-9.146-5.914-10.277-.583-.145-.814-.275-.846-.474-.024-.151-.212-.77-.417-1.377l-.373-1.101 1.418-3.299 1.418-3.299h3.904v2.55c0 2.899.094 3.283.957 3.94.533.407.612.422 2.483.468l1.931.047-.352 1.033c-.442 1.297-.441 1.633.006 2.079l.358.357h7.901l.358-.357c.448-.446.449-.782.006-2.08l-.352-1.032 1.946-.047c2.113-.052 2.371-.14 3.051-1.05.292-.389.301-.573.301-5.893V15.59l-.42-.55c-.756-.988-.551-.967-9.053-.923-7.458.04-7.65.048-8.044.34-.873.651-1 .975-1.053 2.693l-.05 1.59h-2.523c-2.192 0-2.561.033-2.82.255-.162.14-.866 1.596-1.563 3.236-.697 1.64-1.314 3.067-1.37 3.17-.075.138-.252.066-.675-.275-.727-.586-2.463-1.4-3.252-1.527l-.604-.096v-1.373c0-.755-.061-1.486-.135-1.625-.075-.139-1.65-1.257-3.5-2.486L31.5 15.787v-2.865h-2.333v1.9c0 1.046.06 2.015.135 2.154.075.139 1.65 1.257 3.5 2.485l3.365 2.234v1.778l-.746.176c-.41.097-1.104.34-1.543.541l-.797.364-3.495-2.906-3.494-2.907H16.35l-.044-3.321-.045-3.321-.42-.55c-.736-.961-.686-.955-7.705-.949-4.934.005-6.408.048-6.75.2ZM14 18.74v5.82H2.333V12.922H14v5.819Zm-7.29-4.42c-2.802 1.015-3.99 4.03-2.607 6.617.522.977.987 1.422 2.08 1.988.63.327.933.387 1.984.392 1.152.005 1.306-.031 2.187-.515 3.365-1.846 3.238-6.632-.219-8.268-.952-.45-2.506-.548-3.426-.214Zm2.38 2.292c1.51.63 1.86 2.552.68 3.729-.964.962-2.27.97-3.225.017-1.803-1.799.187-4.729 2.545-3.746Zm58.577 2.71v2.91h-14v-5.819h14v2.91Zm0 5.82v.581h-14V24.56h14v.582Zm-31.5 3.127c0 2.081-.03 2.4-.229 2.4-.397 0-1.735 1.476-1.927 2.126-.404 1.364-.12 2.452.911 3.48.755.753 1.494 1.086 2.411 1.086.918 0 1.656-.333 2.412-1.086 1.486-1.483 1.476-3.333-.027-4.842-.419-.42-.864-.764-.99-.764-.198 0-.228-.319-.228-2.4 0-1.932.039-2.4.2-2.4.477 0 2.286 1.066 2.858 1.684.848.918 1.448 2.257 1.563 3.488.125 1.339.375 1.586 1.729 1.71 2.08.193 3.85 1.458 4.782 3.42.418.879.462 1.104.462 2.353 0 1.25-.044 1.475-.462 2.354-.636 1.339-1.471 2.196-2.758 2.83-.913.45-1.25.536-2.37.6l-1.306.074-.052-1.231c-.068-1.606-.538-2.445-1.712-3.056l-.78-.407h-5.588c-3.567 0-5.737.056-6 .154-1.474.552-2.233 1.726-2.233 3.459v1.082l-1.321-.075c-1.138-.064-1.47-.148-2.386-.6-1.287-.634-2.123-1.491-2.758-2.83-.418-.879-.462-1.104-.462-2.354s.044-1.474.462-2.353c.817-1.72 2.29-2.924 4.064-3.32.887-.2 1.187-.458 1.413-1.224.11-.372.45-.867.91-1.326 1.081-1.079 2.143-1.323 3.665-.845.716.225.793.225 1.139 0 .204-.134.59-.586.86-1.006.27-.42.742-.984 1.051-1.254.55-.48 2.153-1.327 2.514-1.327.139 0 .183.577.183 2.4ZM14 28.051v1.164H2.333v-2.328H14v1.164Zm48.358.618.19.546h-1.884c-1.444 0-1.87-.043-1.82-.182.035-.1.13-.364.212-.587l.149-.405 1.482.041 1.482.041.19.546Zm-24.216 4.394c.226.225.358.523.358.806 0 .284-.132.582-.358.807a1.176 1.176 0 0 1-.809.357c-.284 0-.583-.132-.808-.357-.724-.721-.211-1.97.808-1.97.284 0 .583.132.809.357ZM24.5 36.197v1.164h2.333v-2.328H24.5v1.164Zm4.667 0v1.164H31.5v-2.328h-2.333v1.164Zm14 0v1.164H45.5v-2.328h-2.333v1.164Zm13.988 3.758c-.956.249-2.419 1.024-2.87 1.522-.223.244-.186.312.588 1.084l.826.824.334-.314c.512-.48 1.665-.933 2.586-1.016 1.041-.094 2.207.227 3.061.845l.63.455.816-.813.815-.814-.507-.428c-1.118-.944-3.016-1.619-4.511-1.603-.445.004-1.24.12-1.768.258Zm-16.613 2.352c.227.226.291.484.291 1.163v.873H29.167v-.873c0-1.53-.305-1.454 5.833-1.454 5.056 0 5.26.01 5.542.29Zm16.97 1.213c-.41.196-.796.436-.856.533-.069.11.188.474.685.97.758.756.813.784 1.195.61.314-.143.501-.145.86-.01.446.168.485.15 1.23-.584.424-.417.77-.807.77-.867 0-.059-.298-.282-.662-.494-.974-.57-2.23-.63-3.221-.158Zm-46.25 3.26 1.755.982-1.842.04a99.13 99.13 0 0 1-3.658 0l-1.817-.04 1.707-.978c.94-.538 1.796-.98 1.905-.982.109-.002.987.438 1.95.978Zm29.571 6.873v6.983H29.167V46.67h11.666v6.982Zm12.24-5.676c-.127.074-.832 1.04-1.568 2.147l-1.338 2.012v6.622l.358.357c.307.306.493.357 1.312.357.769 0 .955.044.955.227 0 .397 1.479 1.731 2.131 1.923 1.38.407 2.454.12 3.52-.936.42-.417.765-.861.765-.987 0-.18.178-.227.875-.227.697 0 .875.046.875.227 0 .126.345.57.766.987 1.066 1.057 2.14 1.343 3.52.936.652-.192 2.131-1.526 2.131-1.923 0-.183.186-.227.954-.227.82 0 1.006-.05 1.313-.357.355-.354.358-.381.358-3.112 0-2.406-.032-2.794-.255-3.068-.184-.227-.741-.436-2.005-.751a330.25 330.25 0 0 1-2.298-.581c-.487-.128-.678-.337-1.704-1.864-.635-.946-1.263-1.762-1.396-1.812-.38-.146-9.014-.099-9.27.05Zm-19.784 1.245c-1.317.354-3.102 1.415-3.102 1.844 0 .082.332.47.737.862l.736.711.613-.42a6.45 6.45 0 0 1 1.31-.657c1.35-.457 2.873-.216 4.144.657l.613.42.736-.711c.405-.392.736-.78.736-.862 0-.225-.822-.873-1.622-1.277-1.521-.77-3.358-.981-4.901-.567Zm-18.122 5.013v4.073h-2.334v-2.552c0-3.477.226-3.267-3.5-3.267s-3.5-.21-3.5 3.267v2.552H3.5v-8.146h11.667v4.073ZM56 50.744v.582h-2.483l.386-.582c.377-.57.405-.582 1.241-.582H56v.582Zm5.597 0 .386.582h-3.65v-1.164h2.878l.386.582Zm-27.69 1.92c-.241.085-.657.316-.924.515l-.486.362.812.771c.773.736.832.764 1.251.607.33-.125.551-.124.884.001.425.16.48.134 1.245-.593l.8-.76-.337-.316c-.706-.66-2.238-.937-3.246-.586Zm31.94 1.444 1.82.454v1.291c0 .764-.06 1.291-.146 1.291-.08 0-.146-.102-.146-.227 0-.397-1.48-1.731-2.132-1.923-1.378-.407-2.453-.12-3.519.936-.421.417-.766.861-.766.987 0 .18-.178.227-.875.227-.697 0-.875-.046-.875-.227 0-.397-1.479-1.731-2.131-1.923-1.38-.407-2.454-.12-3.52.936-.42.417-.765.861-.765.987 0 .125-.066.227-.146.227-.09 0-.146-.679-.146-1.745v-1.746h11.528l1.82.455ZM10.5 56.562v1.746H8.167v-3.491H10.5v1.745Zm23.65-.245c-.724.77-.19 1.991.87 1.991.674 0 1.147-.489 1.147-1.184 0-1.033-1.31-1.557-2.017-.807Zm22.659 1.184c.225.225.358.524.358.807 0 .283-.133.582-.358.807a1.176 1.176 0 0 1-.809.357c-.284 0-.583-.132-.809-.357a1.17 1.17 0 0 1-.358-.807c0-.283.133-.582.358-.807.226-.225.525-.357.809-.357.284 0 .583.132.809.357Zm8.166 0c.226.225.358.524.358.807 0 .283-.132.582-.358.807a1.176 1.176 0 0 1-.808.357c-.284 0-.583-.132-.809-.357a1.17 1.17 0 0 1-.358-.807c0-.283.132-.582.358-.807.226-.225.525-.357.809-.357.284 0 .583.132.808.357Zm-24.142 6.335c0 1.53.305 1.454-5.833 1.454s-5.833.076-5.833-1.454v-.873h11.666v.873Z" fill="#6A6A6A"/></svg>