<svg width="146" height="160" fill="none" xmlns="http://www.w3.org/2000/svg"><path fill-rule="evenodd" clip-rule="evenodd" d="M65.482.29c-5.789.958-14.633 3.498-17.892 5.139-2.772 1.397-4.174 3.81-3.976 6.848.103 1.58.518 2.7 2.539 6.857 1.468 3.02 2.415 5.359 2.415 5.967 0 1.195-.42 1.603-4.21 4.085-3.164 2.072-7.398 5.537-9.73 7.962-1.831 1.906-2.647 2.307-3.799 1.87-.453-.172-2.705-1.793-5.004-3.602-2.299-1.81-4.706-3.51-5.35-3.778-1.82-.76-5.003-.473-6.62.597-2.984 1.971-8.78 12.489-11.963 21.71-1.802 5.216-1.63 7.611.725 10.062 1.467 1.527 2.27 1.852 7.522 3.05 6.276 1.43 6.723 1.591 7.245 2.598.355.687.38 1.336.123 3.337-.314 2.446-.15 13.865.23 16.12.153.9.046 1.285-.542 1.949-.625.705-1.538 1.012-6.176 2.082-2.993.69-6.024 1.574-6.735 1.964-1.63.897-3.222 3.231-3.51 5.151-.164 1.087-.046 2.051.461 3.772 2.58 8.756 9.481 21.681 12.805 23.982 1.055.73 1.76.953 3.337 1.053 1.099.07 2.499-.038 3.111-.24.612-.202 3.058-1.923 5.434-3.826 2.377-1.902 4.628-3.601 5.003-3.774 1.097-.506 2.012-.073 4.427 2.099 2.586 2.327 3.612 2.593 4.929 1.277 1.363-1.36 1.001-2.238-2.091-5.085-2.456-2.261-3.554-2.879-5.536-3.112-2.597-.306-3.75.252-8.843 4.282-6.378 5.046-6.595 5.043-9.864-.165-2.556-4.073-5.864-10.987-7.372-15.407-1.148-3.364-1.263-3.943-.937-4.729.51-1.23 1.026-1.439 6.752-2.733 5.704-1.29 6.854-1.778 8.386-3.566 1.657-1.933 1.93-3.32 1.469-7.485-.265-2.396-.313-5.23-.151-9.03.13-3.044.233-6.253.23-7.13-.009-2.649-1.706-5.166-4.18-6.198-.626-.261-3.365-.973-6.087-1.582-5.307-1.187-6.28-1.607-6.59-2.842-.516-2.052 3.442-11.825 7.712-19.045 2.239-3.786 3.25-4.868 4.544-4.868 1.098 0 1.588.324 6.882 4.55 3.685 2.943 4.574 3.378 6.892 3.378 2.44 0 3.46-.546 6.59-3.535a71.42 71.42 0 0 1 10.474-8.286c3.71-2.406 4.705-3.91 4.705-7.11 0-1.87-.166-2.34-2.506-7.101-1.378-2.804-2.506-5.493-2.506-5.975 0-1.411.9-2.116 4.229-3.31 5.318-1.91 15.34-4.224 16.142-3.729.187.115.302 5.888.302 15.17v14.985l-1.33.333c-6.22 1.557-11.985 4.13-16.603 7.408-1.413 1.003-3.911 3.162-5.552 4.798C39 53.906 34.853 61.645 32.873 70.94c-.997 4.682-.998 12.511-.002 17.205 1.988 9.372 6.052 16.964 12.56 23.464 5.955 5.947 13.322 10.121 21.225 12.029l2.271.547v15.432c0 9.57-.114 15.503-.302 15.619-.782.482-10.848-1.822-15.82-3.621-3.035-1.099-4.237-2.008-4.237-3.205 0-.419 1.22-3.346 2.71-6.505 2.434-5.157 2.714-5.938 2.74-7.643.043-2.679-.81-3.85-4.643-6.374-3.378-2.224-4.57-2.5-5.555-1.285-.598.738-.752 2.073-.318 2.756.137.216 1.428 1.201 2.87 2.19 1.44.988 2.746 2.008 2.902 2.266.2.333-.51 2.184-2.448 6.376-1.587 3.433-2.795 6.479-2.884 7.273-.345 3.053 1.518 6.177 4.453 7.47 4.396 1.937 13.894 4.465 18.842 5.015 2.359.262 4.34-.492 5.478-2.086.669-.937.766-1.453.86-4.575l.105-3.52h22.665l.538 1.515c.778 2.188 2.71 4.221 5.153 5.422 1.737.853 2.421 1.016 4.291 1.021 3.352.009 5.264-.772 7.601-3.105 1.677-1.673 2.024-2.229 2.624-4.202.537-1.765.645-2.67.484-4.041-.416-3.536-2.497-6.659-5.571-8.359-1.527-.845-1.914-.919-4.793-.919-2.69 0-3.353.108-4.691.765-2.579 1.268-4.583 3.654-5.6 6.668-.174.515-.926.546-11.392.469l-11.207-.082-.084-6.335-.085-6.334h50.954l.715 1.724c.919 2.213 3.01 4.353 5.283 5.405 1.46.677 2.257.832 4.304.839 2.218.008 2.758-.112 4.607-1.021 3.6-1.77 5.56-4.752 5.802-8.824.112-1.903.006-2.697-.564-4.207-.851-2.251-2.948-4.596-5.147-5.755-1.397-.737-1.921-.829-4.705-.829-2.886-.001-3.264.072-4.807.926-2.138 1.182-4.277 3.556-4.976 5.52l-.545 1.534-25.376-.08-25.376-.08-.17-2.388c-.276-3.896-1.197-4.713-7.16-6.359-13.06-3.607-23.663-13.804-27.7-26.64-2.67-8.487-2.558-17.88.306-25.841 3.69-10.255 11.013-18.48 20.577-23.11 2.337-1.13 6.498-2.573 9.826-3.406 1.509-.377 3.04-1.548 3.706-2.836.284-.549.459-1.786.459-3.248v-2.361l25.45.005 25.45.005.733 1.692c1.023 2.361 2.489 3.949 4.803 5.201 1.843.998 2.178 1.073 4.8 1.067 2.31-.005 3.086-.138 4.296-.733 2.225-1.095 4.178-2.98 5.162-4.98.765-1.557.879-2.152.879-4.603 0-2.45-.114-3.047-.877-4.6-1.109-2.254-3.453-4.386-5.794-5.268-1.425-.537-2.262-.646-4.136-.539-2.818.16-4.741.942-6.654 2.702-1.225 1.128-3.056 4.14-3.056 5.028 0 .235-7.549.31-25.45.254l-25.45-.08-.084-6.334-.085-6.335h22.53l.841 1.872c.982 2.184 3.197 4.412 5.391 5.422 1.171.539 2.062.68 4.297.679 2.473-.002 3.022-.108 4.474-.87 2.211-1.16 4.025-3.03 5.024-5.18.669-1.441.821-2.227.821-4.269 0-2.042-.152-2.828-.821-4.27-.999-2.149-2.813-4.019-5.024-5.179-1.452-.762-2.001-.868-4.474-.87-2.235 0-3.126.14-4.297.68-2.194 1.01-4.41 3.237-5.39 5.421l-.842 1.872H73.686l-.108-2.893C73.45 2.72 72.816 1.497 70.68.529c-1.388-.63-2.519-.681-5.2-.239ZM108.8 5.986c1.788.746 3.662 3.49 3.662 5.364 0 1.874-1.874 4.618-3.662 5.365-2.311.964-5.287.122-6.864-1.944-.801-1.049-.904-1.436-.904-3.42 0-1.986.103-2.373.904-3.422 1.577-2.065 4.553-2.908 6.864-1.943Zm28.592 17.688c4.308 1.954 4.293 8.268-.025 10.355-4.018 1.942-8.653-1.236-8.229-5.644.39-4.043 4.524-6.403 8.254-4.711Zm-67.37 31.022c-9.06 1.302-17.133 7.783-20.348 16.336-4.784 12.727 1.447 27.246 13.944 32.49 4.88 2.047 3.88 1.984 31.306 1.984 28.121 0 26.899.093 32.42-2.483 8.966-4.186 14.565-13.03 14.565-23.011 0-10.077-5.612-18.88-14.723-23.096-4.754-2.2-5.596-2.242-16.749-2.398h-8.64v4.484h8c11.396.144 11.816.365 16.137 2.482 3.175 1.555 7.222 5.54 8.876 8.737 6.691 12.936-1.248 28.346-15.678 30.43-2.983.431-45.08.415-48.198-.017-4.769-.663-8.614-2.566-12.004-5.942-2.468-2.459-4.138-5.19-5.246-8.58-.69-2.108-.818-3.07-.818-6.1s.129-3.992.818-6.1c2.188-6.695 7.078-11.585 13.833-13.831 2.487-.827 1.957-.958 12.84-1.079h21.44v-4.484h-9.636l-10.13-.046c-5.57-.025-10.975.075-12.008.224Zm-4.399 13.259-.769.767v21.954l.77.767c.752.752.874.768 5.808.768s5.057-.016 5.81-.767c.986-.986 1.004-2.343.043-3.245-.655-.614-1.062-.68-4.228-.68h-3.504v-5.318h2.672c4.176 0 5.617-.948 5.025-3.305-.295-1.174-1.85-1.7-5.025-1.7h-2.672v-5.318H73.1c3.303 0 3.595-.049 4.23-.723.902-.96.867-2.246-.089-3.2-.752-.752-.875-.768-5.809-.768s-5.056.016-5.809.768Zm21.3 0-.769.767v21.954l.769.767c.981.98 2.346 1.004 3.237.056.591-.628.681-1.136.76-4.271l.09-3.559 3.601 4.122c1.981 2.267 3.92 4.204 4.307 4.305 1.148.299 2.227-.145 2.734-1.123.667-1.289.267-2.134-2.44-5.154-3.405-3.799-3.262-3.514-2.02-4.033 4.137-1.726 5.937-6.632 3.842-10.474-1.754-3.218-3.832-4.125-9.452-4.125-3.713 0-3.925.035-4.659.768Zm24.631-.17c-.64.638-.655.909-.655 11.902 0 11.169.005 11.254.686 11.887.86.8 2.155.817 3.116.04.691-.558.747-.847.844-4.341l.103-3.745 2.559-.138c2.949-.16 4.872-.888 6.412-2.425 3.067-3.063 3.282-7.67.51-10.904-1.999-2.332-3.054-2.689-8.329-2.818-4.32-.106-4.63-.074-5.246.541Zm-15.438 4.872c1.11.933 1.362 1.954.806 3.274-.52 1.233-2.028 1.891-4.337 1.891h-1.733V71.88h2.169c1.854 0 2.303.113 3.095.778Zm24.696-.176c1.44.878 1.902 2.483 1.154 4.014-.748 1.526-2.236 2.264-4.567 2.265h-1.801V71.88l2.114.001c1.532 0 2.386.166 3.1.601Zm17.46 52.684c1.67 1.273 2.484 3.06 2.316 5.087-.406 4.886-5.829 7.04-9.538 3.789-1.997-1.752-2.513-4.206-1.394-6.638 1.064-2.316 2.835-3.335 5.559-3.199 1.524.075 2.155.274 3.057.961Zm-28.953 17.089c3.401 1.732 4.063 6.36 1.304 9.115-2.759 2.756-7.393 2.095-9.128-1.302-.733-1.435-.821-4.011-.177-5.241.48-.917 1.849-2.277 2.847-2.827 1.033-.569 3.806-.432 5.154.255Z" fill="#2C2C2C"/></svg>