<svg width="70" height="70" fill="none" xmlns="http://www.w3.org/2000/svg"><path fill-rule="evenodd" clip-rule="evenodd" d="M6.482.138C5.14.408 3.495 1.326 2.416 2.406c-4.368 4.372-2.563 11.559 3.41 13.577 1.113.377 3.555.377 4.668 0 2.758-.931 4.83-3.066 5.498-5.66l.257-1h12.4l-.688.699c-.378.384-.688.748-.688.81 0 .152 1.415 1.557 1.57 1.557.067 0 .953-.839 1.967-1.864l1.844-1.866.163.953c.495 2.89 2.702 5.361 5.691 6.371 1.113.377 3.556.377 4.67 0 2.756-.931 4.829-3.066 5.497-5.66l.257-1 3.725.001c3.99.001 5.002.103 6.716.673 1.838.612 3.133 1.438 4.669 2.98 2.417 2.425 3.645 5.326 3.645 8.611 0 3.286-1.228 6.187-3.645 8.613-1.973 1.979-4.062 3.067-6.712 3.497-.597.097-4.602.154-10.792.155l-9.843.001.688-.698c.378-.385.687-.765.687-.846 0-.19-1.35-1.522-1.544-1.522-.081 0-.978.839-1.992 1.865l-1.844 1.865-.163-.953c-.417-2.434-2.174-4.752-4.424-5.836-3.83-1.846-8.16-.63-10.464 2.938-.543.84-1.162 2.399-1.162 2.923 0 .238-.152.264-1.513.264-4.2 0-7.85 1.47-10.679 4.301a14.555 14.555 0 0 0 .002 20.602c1.251 1.252 2.46 2.09 4.226 2.927 1.966.932 3.367 1.237 6.115 1.333l2.31.08-.701.712-.702.713.839.837.838.838 1.885-1.9 1.885-1.9.163.95c.495 2.89 2.702 5.36 5.69 6.37 1.114.377 3.556.377 4.67 0 2.757-.931 4.83-3.065 5.497-5.66l.258-1H49.659l-.688.699c-.378.384-.687.749-.687.81 0 .153 1.415 1.558 1.569 1.558.067 0 .953-.84 1.967-1.865l1.844-1.865.163.952c.495 2.89 2.702 5.361 5.691 6.372 1.114.376 3.556.376 4.67 0 1.953-.66 3.726-2.023 4.622-3.553 1.937-3.309 1.457-7.337-1.194-10.016-3.183-3.218-8.297-3.221-11.507-.008-1.157 1.157-2.024 2.788-2.282 4.291l-.163.953-1.844-1.865c-1.014-1.026-1.915-1.865-2.002-1.865-.192 0-1.534 1.341-1.534 1.533 0 .075.31.45.687.835l.688.698h-6.232c-5.911 0-6.232-.013-6.232-.263 0-.53-.622-2.087-1.175-2.944-2.854-4.418-8.894-5.077-12.594-1.373-1.157 1.157-2.024 2.788-2.282 4.291l-.163.953-1.844-1.865c-1.014-1.026-1.915-1.865-2.002-1.865-.192 0-1.534 1.341-1.534 1.533 0 .075.312.457.693.85l.693.715-2.261-.076c-1.694-.056-2.53-.153-3.332-.385-4.707-1.36-8.158-5.206-8.916-9.938-.593-3.697.61-7.544 3.218-10.292 2.39-2.518 5.047-3.678 8.774-3.83 1.919-.079 2.007-.07 2.007.202 0 .547.613 2.093 1.176 2.965 1.073 1.662 2.542 2.785 4.514 3.452 1.113.376 3.555.376 4.669 0 3.131-1.059 5.273-3.563 5.76-6.737l.09-.588 1.887 1.902 1.886 1.902.839-.838.838-.838-.714-.725-.714-.726 10.493-.05c10.17-.048 10.53-.059 11.66-.361 2.625-.7 5.028-2.063 6.84-3.877 4.45-4.455 5.569-11.221 2.777-16.796-1.93-3.857-5.37-6.62-9.616-7.726-1.023-.267-1.713-.312-5.581-.368-4.05-.059-4.414-.084-4.414-.315 0-.517-.627-2.082-1.175-2.93C44.84-.638 38.8-1.297 35.098 2.406c-1.157 1.158-2.023 2.789-2.281 4.292l-.163.952-1.844-1.865C29.796 4.76 28.895 3.92 28.807 3.92c-.192 0-1.534 1.342-1.534 1.534 0 .074.31.45.688.834l.688.699h-6.232c-5.912 0-6.232-.014-6.232-.264 0-.529-.622-2.086-1.175-2.943C13.513 1.463 11.246.157 8.525.045c-.723-.03-1.642.012-2.043.093Zm4.075 2.734c1.316.617 2.168 1.455 2.821 2.777.515 1.043.545 1.18.545 2.506 0 1.325-.03 1.463-.545 2.506-.656 1.329-1.5 2.156-2.857 2.8-.882.417-1.108.462-2.361.462-1.254 0-1.48-.045-2.36-.463-1.357-.643-2.202-1.47-2.858-2.8-.515-1.04-.545-1.181-.545-2.497 0-1.264.043-1.487.461-2.37.587-1.24 1.421-2.146 2.51-2.726 1.15-.613 1.778-.752 3.12-.688.876.042 1.342.153 2.069.493Zm32.683 0c1.316.617 2.168 1.455 2.82 2.777.516 1.043.546 1.18.546 2.506 0 1.325-.03 1.463-.545 2.506-.656 1.329-1.501 2.156-2.858 2.8-.881.417-1.107.462-2.36.462-1.254 0-1.48-.045-2.361-.463-1.357-.643-2.201-1.47-2.858-2.8-.514-1.04-.545-1.181-.545-2.497 0-1.264.044-1.487.462-2.37.586-1.24 1.421-2.146 2.51-2.726 1.15-.613 1.778-.752 3.12-.688.876.042 1.342.153 2.069.493ZM26.898 29.739c1.317.617 2.169 1.455 2.822 2.777.514 1.043.545 1.181.545 2.506 0 1.325-.03 1.463-.546 2.506-.656 1.329-1.5 2.157-2.857 2.8-.881.418-1.107.462-2.36.462-1.254 0-1.48-.044-2.361-.462-1.357-.643-2.202-1.471-2.858-2.8-.514-1.042-.545-1.182-.545-2.498 0-1.263.044-1.487.462-2.37.586-1.239 1.42-2.146 2.51-2.726 1.149-.613 1.778-.752 3.12-.688.875.042 1.342.153 2.068.493Zm4.67 26.867c1.316.617 2.168 1.456 2.82 2.778.515 1.042.546 1.18.546 2.505s-.03 1.463-.545 2.506c-.657 1.33-1.502 2.157-2.858 2.8-.881.418-1.107.462-2.36.462-1.254 0-1.48-.044-2.361-.462-1.357-.643-2.202-1.47-2.858-2.8-.514-1.041-.545-1.182-.545-2.498 0-1.263.044-1.487.462-2.37.586-1.239 1.42-2.145 2.51-2.726 1.149-.613 1.778-.752 3.12-.688.875.042 1.341.153 2.068.493Zm32.682 0c1.317.617 2.168 1.456 2.821 2.778.515 1.042.545 1.18.545 2.505s-.03 1.463-.545 2.506c-.656 1.33-1.5 2.157-2.857 2.8-.882.418-1.108.462-2.361.462-1.254 0-1.48-.044-2.36-.462-1.357-.643-2.202-1.47-2.858-2.8-.515-1.041-.545-1.182-.545-2.498 0-1.263.043-1.487.461-2.37.587-1.239 1.421-2.145 2.51-2.726 1.15-.613 1.778-.752 3.12-.688.876.042 1.342.153 2.069.493Z" fill="#6A6A6A"/></svg>