<svg width="70" height="53" fill="none" xmlns="http://www.w3.org/2000/svg"><path fill-rule="evenodd" clip-rule="evenodd" d="M17.651.959c-4.412.36-9.285 1.193-10.411 1.779-.479.248-.69.755-.69 1.654v.74L5 5.189c-1.205.043-1.697.122-2.202.352C1.89 5.953.833 6.993.381 7.917L0 8.697v40.74l.38.779c.45.919 1.505 1.96 2.417 2.383l.65.302H67.02l.776-.383c.915-.452 1.95-1.512 2.371-2.428l.3-.654V8.696l-.38-.78c-.452-.923-1.51-1.963-2.416-2.376-.506-.23-.997-.309-2.202-.352l-1.552-.055v-.754c0-1.515-.315-1.732-3.47-2.385C56.645 1.208 53.12.867 48.804.867c-4.254 0-8.204.404-11.84 1.21l-1.648.366-2.144-.438C29.036 1.16 25.862.86 21.374.892c-1.744.012-3.42.042-3.723.067Zm10.587 3.025c1.044.129 2.72.4 3.723.603l1.824.368.035 18.72.035 18.719-1.138-.248c-1.898-.414-5.171-.801-8.222-.973-4.41-.25-9.962.133-13.98.963l-1.208.249.035-18.715.035-18.714 1.103-.238c1.425-.307 4.586-.771 6.344-.932 2.161-.198 9.196-.076 11.414.198Zm27.304 0c1.044.129 2.72.4 3.723.603l1.825.368.034 18.72.035 18.719-1.138-.248c-1.92-.418-5.27-.815-8.285-.98-4.363-.238-9.951.151-13.918.97l-1.207.249.035-18.706.035-18.706 1.104-.246c1.379-.308 4.525-.775 6.343-.941 2.162-.198 9.196-.076 11.414.198ZM6.583 26.376l.036 18.442.387.335c.478.413 1 .426 2.417.064 3.38-.865 7.4-1.298 12.09-1.302 4.609-.004 8.454.393 11.904 1.227 1.759.426 1.874.426 3.633 0 3.425-.828 7.281-1.229 11.835-1.229 4.555 0 8.411.401 11.836 1.23 1.8.435 2.246.437 2.74.01l.386-.335.036-18.455.036-18.455 1.3.048c1.463.054 1.89.256 2.317 1.097.226.445.241 1.685.241 20.013 0 18.326-.015 19.569-.241 20.021a2.479 2.479 0 0 1-.71.797l-.468.314H4.109l-.469-.314a2.488 2.488 0 0 1-.71-.797c-.228-.454-.24-1.638-.207-20.184.035-19.681.035-19.702.32-20.093.473-.647 1.09-.875 2.368-.875h1.136l.036 18.441ZM45.067 9.32c-.562.232-.747.75-1.022 2.87-.39 3.005-.349 2.921-.88 1.758-.248-.541-.596-1.087-.774-1.212-.478-.336-1.138-.286-1.621.122-.778.658-.743.838.877 4.45 1.681 3.749 1.666 3.721 2.1 3.92.7.32 1.497.08 1.835-.555.118-.222 1.23-7.928 1.234-8.546 0-.135.937-.173 4.217-.173h4.217l.403-.405a1.385 1.385 0 0 0 .07-1.908l-.332-.39-5.011-.028c-2.756-.015-5.147.028-5.313.097Zm-26.797.85c-1.253.062-2.922.204-3.71.314-1.715.241-2.105.51-2.13 1.469-.013.491.055.644.433.984.524.47.473.467 3.064.183 2.831-.31 8.343-.305 11.422.012 2.361.243 2.393.243 2.758-.028.566-.421.763-.925.58-1.484-.248-.753-.548-.92-2.028-1.128-1.294-.18-6.616-.5-7.63-.457-.265.011-1.507.071-2.76.134Zm31.236 3.716c-.977.402-1.082 1.392-.273 2.554.302.433.605.87.674.973.088.13-.09.51-.586 1.255-.769 1.155-.785 1.208-.563 1.847.42 1.21 2.059 1.115 2.737-.158l.189-.354.642.687c.55.588.716.687 1.162.687.732 0 1.327-.603 1.327-1.345 0-.42-.147-.738-.686-1.491l-.686-.958.322-.425c.838-1.104 1.05-1.516 1.05-2.043 0-.387-.094-.636-.333-.875-.708-.712-1.65-.548-2.293.4-.186.274-.377.5-.423.5-.047 0-.254-.244-.461-.544-.485-.703-1.164-.97-1.8-.71Zm-32.337 4.03c-2.552.2-3.88.393-4.215.613-.171.113-.384.426-.473.696-.136.415-.122.57.091 1.009.368.754.65.804 3.243.577 1.237-.108 3.832-.197 5.766-.197 1.934 0 4.53.09 5.767.197 2.593.227 2.875.177 3.242-.577.213-.438.227-.595.091-1.01-.238-.725-.61-.89-2.504-1.112-2.082-.245-8.844-.364-11.008-.196Zm.833 7.623c-2.579.145-4.438.362-4.894.571-.187.085-.441.371-.566.635-.198.42-.203.543-.037.98.107.282.37.606.605.744.393.23.538.232 2.548.03 2.849-.287 8.998-.287 11.847 0 2.01.202 2.155.2 2.547-.03.573-.337.863-1.11.61-1.628-.366-.75-.725-.884-2.947-1.093-2.779-.263-7.11-.356-9.713-.21Zm27.304 0c-4.307.243-5.073.424-5.501 1.302-.253.519.036 1.291.61 1.628.392.23.537.232 2.547.03 2.843-.287 8.998-.287 11.835-.002 1.903.192 2.161.192 2.528.002.476-.248.842-1.017.718-1.512-.126-.504-.777-.99-1.46-1.09-2.46-.356-8.127-.536-11.277-.358Zm-29.034 7.747c-2.78.266-2.962.3-3.366.642-.504.426-.621.9-.37 1.503.34.818.799.953 2.533.743 2.014-.243 11.018-.242 13.038.002 1.389.168 1.523.162 1.927-.075.592-.347.885-1.112.628-1.639-.315-.646-.778-.866-2.186-1.039-1.538-.188-10.602-.29-12.204-.137Zm27.304 0c-2.78.266-2.962.3-3.366.642-.504.426-.621.9-.37 1.503.34.818.8.953 2.533.743 2.014-.243 11.018-.242 13.038.002 1.389.168 1.523.162 1.927-.075.592-.347.885-1.112.628-1.639-.315-.646-.778-.866-2.186-1.039-1.538-.188-10.602-.29-12.204-.137Z" fill="#fff"/></svg>