<svg width="70" height="68" fill="none" xmlns="http://www.w3.org/2000/svg"><path fill-rule="evenodd" clip-rule="evenodd" d="M22.76.791c-.375.071-1.201.38-1.835.685-1.493.72-3.006 2.188-3.67 3.565-.892 1.848-.893 1.85-.955 8.949l-.057 6.456-4.467.002c-5.01.003-5.671.082-7.218.86C2.52 22.333 1.164 23.91.394 26.146c-.295.859-.469 2.205-.347 2.692.209.829 1.237 1.178 1.834.622.314-.292.341-.376.562-1.75.375-2.328 2.024-4.133 4.324-4.732.703-.183 3.025-.21 18.319-.21 15.293 0 17.615.027 18.318.21 2.304.6 3.964 2.422 4.326 4.748.082.52.116 3.883.087 8.44-.052 8.11-.033 7.877-.767 9.27-.762 1.443-2.532 2.638-4.284 2.89-.474.07-4.89.127-9.815.128l-8.954.003-7.352 7.342-7.353 7.343V49.128l-.323-.324c-.234-.234-.546-.348-1.128-.414-1.61-.183-2.801-.736-3.807-1.767-.927-.951-1.392-1.928-1.629-3.42-.151-.954-.261-1.278-.497-1.47-.452-.365-1.171-.316-1.597.11-.335.334-.35.408-.272 1.332.257 3.018 1.948 5.45 4.717 6.782a8.96 8.96 0 0 0 1.494.543l.718.17V66.2l.354.42c.276.328.464.42.852.42.476 0 .857-.358 8.636-8.124l8.139-8.125 9.23-.041 9.23-.042 1.093-.37c2.097-.71 3.828-2.207 4.78-4.13.847-1.715.89-2.146.892-9.057l.003-6.183.854.004.855.003 4.444 7.82c2.444 4.3 4.58 7.957 4.745 8.126.399.406 1.015.397 1.503-.023l.384-.33.037-7.846.037-7.847.85-.237c3.38-.939 5.734-3.731 6.066-7.195.101-1.054-.048-1.433-.667-1.694-.465-.195-1.05-.071-1.344.283-.09.109-.25.732-.354 1.386-.235 1.463-.708 2.446-1.642 3.41-.89.916-2.14 1.524-3.484 1.692-.794.1-1.384.305-1.65.573-.016.017-.063 2.848-.102 6.291l-.072 6.26-3.584-6.269c-1.972-3.447-3.7-6.372-3.84-6.5-.203-.183-.531-.23-1.628-.23h-1.373l-.094-.831c-.186-1.64-.946-3.39-1.992-4.585-1.088-1.243-3-2.344-4.572-2.633-.547-.1-4.73-.15-12.824-.15H18.717l.04-6.592.039-6.593.436-.92c.482-1.018 1.417-2.044 2.371-2.602 1.394-.816.454-.782 21.485-.782 13.738 0 19.452.044 19.97.154a5.76 5.76 0 0 1 2.953 1.675c.882.931 1.36 1.932 1.594 3.333.22 1.316.281 1.46.703 1.652.546.248.868.183 1.315-.264.41-.41.418-.44.336-1.4-.27-3.2-2.44-5.963-5.562-7.085l-.888-.32-20.032-.02C31.337.67 23.175.714 22.76.792ZM35.286 6.49c-.628.18-.815.653-1.116 2.82-.156 1.128-.315 2.142-.351 2.255-.042.13-.219-.078-.48-.564-.61-1.138-1.338-1.38-2.041-.676-.22.22-.4.528-.4.685 0 .357 2.387 5.16 2.772 5.577.668.724 1.776.189 1.944-.94.05-.328.287-1.98.528-3.672l.438-3.074 4.942-.068 4.942-.069.353-.33a1.128 1.128 0 0 0 0-1.661l-.353-.332-5.424-.023c-2.984-.013-5.573.02-5.754.072ZM22.87 9.379c-.412.167-.753.864-.641 1.31.05.198.459.753.91 1.235l.821.877-.925.958c-.878.908-.92.983-.843 1.465.1.627.516.986 1.143.986.4 0 .623-.14 1.387-.874l.91-.875.938.875c.755.703 1.026.874 1.383.874.686 0 1.165-.453 1.165-1.102 0-.47-.105-.646-.877-1.459l-.877-.923.877-.91c.728-.753.877-.986.873-1.366-.005-.515-.189-.811-.658-1.061-.507-.27-.982-.058-1.902.848l-.854.841-.786-.774c-.433-.426-.96-.839-1.172-.918-.445-.167-.472-.167-.872-.006Zm26.215.721c-.46.232-.682.72-.685 1.499l-.002.649-.65.002c-.801.002-1.277.23-1.516.73-.222.462-.12.942.28 1.313.227.213.482.277 1.092.277h.794v.693c0 1.087.393 1.618 1.203 1.626.3.003.563-.108.786-.331.282-.282.336-.467.336-1.162v-.826h.826c.696 0 .88-.053 1.163-.335a1.06 1.06 0 0 0 .33-.786c-.007-.81-.538-1.201-1.627-1.201h-.692l-.005-.786c-.004-.822-.139-1.114-.636-1.378-.377-.201-.574-.198-.997.016Zm6.14.224c-.241.24-.4.544-.4.762 0 .219.159.521.4.762.377.377.462.4 1.53.4h1.131l-1.53 1.55c-1.568 1.587-1.704 1.832-1.372 2.455.322.605.464.631 3.368.636 2.767.004 2.776.003 3.11-.331.461-.46.454-1.146-.016-1.587-.3-.281-.516-.339-1.447-.38l-1.095-.05 1.447-1.468c1.205-1.222 1.447-1.538 1.447-1.887 0-1.15-.312-1.261-3.558-1.261h-2.616l-.4.4Zm-16.883.483c-.528.527-.445 1.022.325 1.946.364.436.767.88.897.987.216.178.16.268-.675 1.11-.805.81-.91.977-.91 1.44 0 .4.087.6.363.838.735.631.987.501 3.261-1.685 3.133-3.011 3.24-3.134 3.24-3.731 0-.658-.446-1.104-1.105-1.104-.385 0-.641.153-1.405.842l-.934.843-.847-.91c-.755-.813-.902-.912-1.36-.912-.364 0-.613.099-.85.336ZM53.21 21.753c-.767.322-.91 1.224-.295 1.839.39.39 1.152.358 1.575-.066.877-.876-.122-2.26-1.28-1.773Zm4.66-.004c-.55.23-.812.878-.58 1.435.202.49.505.678 1.088.678.913 0 1.404-1.076.827-1.81-.33-.418-.805-.526-1.336-.303Zm4.65-.001c-.74.31-.857 1.43-.203 1.928.13.097.46.18.737.182.384.003.57-.082.786-.356.768-.976-.178-2.234-1.32-1.754ZM40.216 24.02c-1.329.233-2.442 1.272-2.754 2.57-.293 1.22.147 1.973 1.135 1.945.49-.014 1.052-.547 1.052-1 0-.38.356-1.028.621-1.13 1.197-.458 2.22.823 1.396 1.749-.23.26-.525.38-1.175.48-2.048.318-3.164 1.709-3.166 3.947 0 .88.147 1.329.535 1.626.153.118 1.026.168 2.992.17 2.767.005 2.776.004 3.11-.33.46-.46.453-1.147-.016-1.588-.334-.314-.456-.334-2.325-.376-1.085-.024-1.972-.074-1.972-.111 0-.16.336-.677.535-.826.12-.089.525-.203.9-.254 1.409-.191 2.313-.831 2.888-2.044.748-1.579.15-3.495-1.383-4.439-.55-.338-1.642-.517-2.373-.389ZM9.81 26.508c-.411.312-.54.864-.32 1.386.441 1.057 2.127.727 2.127-.416 0-.665-.458-1.158-1.07-1.152-.276.002-.608.084-.737.182Zm4.557.139c-.43.457-.421 1.108.022 1.55.714.714 1.877.23 1.877-.782 0-.997-1.22-1.49-1.9-.768Zm4.657-.01c-.411.439-.398 1.182.029 1.582 1.047.983 2.557-.526 1.573-1.572-.414-.441-1.191-.446-1.602-.01Zm4.636.044c-.379.482-.368 1.154.024 1.517.611.566 1.52.415 1.82-.304.35-.84-.136-1.56-1.058-1.568-.384-.003-.57.08-.786.355Zm4.701-.024c-.688.688-.225 1.85.738 1.85.973 0 1.488-.784 1.06-1.613-.352-.68-1.238-.797-1.798-.237Zm-23.28 6.91c-.164.152-.332.414-.373.58-.042.168-.058 2.508-.036 5.201l.04 4.897.383.33c.383.328.395.33 3.65.33 3.24 0 3.27-.004 3.644-.325.287-.246.377-.446.377-.837 0-.391-.09-.591-.377-.838-.367-.315-.443-.324-2.9-.324H6.969v-2.323h1.855c1.86 0 2.272-.084 2.619-.534.287-.374.208-1.084-.16-1.453-.326-.325-.396-.335-2.325-.335h-1.99v-2.323l2.428-.002c2.644-.002 2.98-.077 3.294-.73.222-.463.12-.942-.28-1.314-.281-.263-.47-.277-3.664-.277-3.193 0-3.382.014-3.664.277Zm17.953 2.371c-.821.389-1.324.899-1.698 1.724-.252.558-.278.893-.281 3.593l-.003 2.978.335.336c.435.434 1.036.436 1.537.006l.384-.33.068-2.894c.067-2.837.075-2.899.391-3.154.44-.355 1.02-.328 1.482.068l.383.33.042 2.802.042 2.802.353.353c.447.446 1.002.455 1.504.023l.384-.33.042-2.802.042-2.802.353-.353c.446-.446 1.001-.455 1.504-.023l.384.33.036 2.71c.022 1.612.098 2.83.186 3.004.165.323.665.595 1.093.595.153 0 .458-.18.678-.4.393-.392.4-.423.409-1.946.008-1.452.02-1.514.182-1.001.415 1.312 1.325 2.355 2.543 2.916.778.358 2.597.564 3.339.378.502-.126.9-.615.896-1.1-.009-.821-.552-1.17-1.824-1.17-1.037 0-1.51-.151-2.052-.657-.792-.74-.967-1.717-.486-2.71.422-.871 1.013-1.175 2.497-1.282 1.114-.08 1.26-.123 1.55-.46.429-.5.41-1.048-.053-1.51-.363-.363-.406-.371-1.744-.326-1.634.055-2.522.401-3.477 1.356-.596.597-1.225 1.717-1.258 2.242-.01.15-.073-.057-.14-.46-.162-.977-.478-1.609-1.113-2.225-1.037-1.005-2.851-1.216-4.11-.48l-.59.346-.796-.401c-1.026-.517-2.025-.542-3.014-.076Zm-8.37.97c-.691.3-.83 1.216-.276 1.813.265.287.399.308 1.946.308 1.56 0 1.68-.02 1.96-.316.336-.359.393-1.118.11-1.49-.098-.128-.346-.297-.552-.375-.545-.207-2.665-.168-3.188.06Zm-.131 3.553c-.65.455-.607 1.61.072 1.973.152.081.96.147 1.795.147 1.43 0 1.539-.02 1.855-.335a1.167 1.167 0 0 0 0-1.652c-.317-.317-.422-.336-1.884-.336-1.148 0-1.623.053-1.838.203Z" fill="#fff"/></svg>