<svg width="70" height="70" fill="none" xmlns="http://www.w3.org/2000/svg"><path fill-rule="evenodd" clip-rule="evenodd" d="M58.105.185c-2.234.545-4.044 2.542-4.34 4.787-.152 1.14.017 2.366.452 3.285l.37.78-4.11 4.11-4.108 4.11-.85-.381c-1.821-.817-4.188-.566-5.753.61-.402.302-.805.52-.896.486-.091-.035-1.62-1.184-3.397-2.552-3.006-2.315-3.226-2.513-3.15-2.845.341-1.48.389-2.109.229-3.005-.346-1.938-1.39-3.362-3.075-4.195-1.166-.577-2.263-.762-3.496-.589-1.183.166-2.1.608-3.038 1.468-1.274 1.166-1.888 2.56-1.888 4.285 0 .944.365 2.331.763 2.9.186.265-.023.5-3.93 4.41l-4.127 4.13-.541-.276c-2.364-1.207-5.11-.73-6.94 1.205-2.935 3.105-1.546 8.211 2.581 9.486 4.82 1.49 9.075-3.611 6.823-8.18l-.29-.588 4.113-4.114 4.113-4.114.746.353a5.923 5.923 0 0 0 3.283.498c1.045-.148 1.594-.365 2.5-.989l.683-.47 3.417 2.635c2.511 1.936 3.407 2.701 3.38 2.886-.02.137-.105.628-.188 1.089-.658 3.644 2.755 7.063 6.511 6.522a5.907 5.907 0 0 0 4.497-3.311c.399-.843.428-1.006.428-2.409 0-1.373-.035-1.579-.4-2.37l-.399-.864 4.123-4.125 4.124-4.124.582.3c.884.454 1.49.597 2.538.6 1.7.006 2.993-.523 4.162-1.701 3.183-3.21 1.69-8.585-2.704-9.73-.96-.25-1.78-.25-2.797-.003Zm2.728 2.48c.803.331 1.338.837 1.728 1.635.875 1.788.132 3.913-1.65 4.723-.687.312-2.08.334-2.776.044-.67-.28-1.504-1.09-1.82-1.771-.339-.73-.34-2.135-.005-2.875.78-1.718 2.754-2.484 4.523-1.756ZM28.652 7.567c3.003 1.76 1.66 6.389-1.855 6.389-3.026 0-4.536-3.674-2.42-5.886.557-.58 1.07-.847 1.86-.966.827-.123 1.7.044 2.415.463Zm16.025 11.5c1.331.664 2.018 1.86 1.913 3.33-.073 1.018-.307 1.558-.955 2.206-.99.991-2.735 1.291-3.985.686-1.727-.836-2.456-2.964-1.595-4.652.873-1.711 2.934-2.411 4.622-1.57ZM12.1 23.743c1.148.591 1.837 1.744 1.842 3.08.005 1.367-.594 2.383-1.792 3.036-1.285.7-2.865.516-3.982-.465-.714-.627-1.092-1.495-1.097-2.517-.006-1.456.68-2.541 2.02-3.193.566-.275.838-.323 1.573-.278.532.034 1.108.169 1.436.337Zm40.935-.202c-.12.092-.288.301-.376.466-.119.223-.159 5.76-.159 21.984v21.685h-2.32l-.036-13.672-.037-13.672-.31-.312-.312-.311-5.978-.042c-6.295-.044-6.826-.003-7.117.553-.122.232-.171 3.711-.196 13.849l-.032 13.539h-2.324l-.069-19.535-.068-19.534-.323-.262c-.307-.249-.622-.261-6.52-.261H20.66l-.384.33-.383.33-.036 19.5-.035 19.5H17.5v-22.55l-.33-.384-.33-.383H4.26l-.352.331-.353.332v22.654H0V70h70v-2.325H66.445V24.036l-.335-.335-.336-.336-6.261.004c-4.706.004-6.315.046-6.478.171Zm11.086 23.142v20.993h-9.297V25.69h9.297v20.992Zm-32.676 2.325v18.668h-9.297V30.34h9.297v18.667Zm16.407 5.813v12.855h-9.297V41.964h9.297V54.82Zm-32.676 2.325v10.53H5.879v-21.06h9.297v10.53Z" fill="#6A6A6A"/></svg>