<svg width="70" height="58" fill="none" xmlns="http://www.w3.org/2000/svg"><path fill-rule="evenodd" clip-rule="evenodd" d="M.346 1.068 0 1.415v9.924l.346.347.347.347H10.598l.346-.347c.334-.335.346-.418.346-2.263V7.508h2.258V27.869H11.29v-1.915c0-1.845-.012-1.928-.346-2.262l-.347-.347H.694l-.347.347-.346.347v9.924l.346.347.347.347H10.598l.346-.347c.334-.335.346-.418.346-2.263v-1.915h2.258V50.493H11.29v-1.915c0-1.845-.012-1.928-.346-2.262l-.347-.347H.694l-.347.347-.346.347v9.924l.346.347.347.347H10.598l.346-.347c.334-.335.346-.418.346-2.263v-1.915h1.912c1.841 0 1.924-.013 2.258-.347l.346-.347v-21.93h1.13v.784c0 1.173.279 1.391 2.054 1.607.772.094 1.503.2 1.625.235.123.035.334.424.476.875.14.446.471 1.245.737 1.775l.483.963-.994 1.308c-1.432 1.883-1.449 1.803.886 4.143 2.336 2.34 2.256 2.322 4.135.888l1.306-.996.961.484c.529.266 1.326.599 1.772.739.45.141.838.353.873.477.035.122.14.854.234 1.627.256 2.115.161 2.059 3.516 2.059s3.26.056 3.516-2.059c.093-.773.199-1.505.234-1.627.035-.124.423-.336.873-.477a14.62 14.62 0 0 0 1.777-.741l.965-.486 1.303.998c1.874 1.436 1.794 1.453 4.129-.886 2.335-2.34 2.317-2.259.884-4.136l-.996-1.306.485-.968c.267-.532.6-1.333.74-1.779.14-.451.352-.84.475-.875.122-.035.853-.14 1.625-.235 1.775-.216 2.055-.434 2.055-1.607v-.784h1.129v21.93l.346.347c.334.334.416.347 2.258.347h1.912v1.915c0 1.845.012 1.928.346 2.263l.347.347h9.904l.346-.347.347-.347v-9.924l-.347-.347-.346-.347H59.402l-.346.347c-.334.334-.346.417-.346 2.262v1.915h-2.258V30.133h2.258v1.915c0 1.845.012 1.928.346 2.263l.347.347h9.904l.346-.347.347-.347v-9.924l-.347-.347-.346-.347H59.402l-.346.347c-.334.334-.346.417-.346 2.262v1.915h-2.258V7.509h2.258v1.915c0 1.845.012 1.928.346 2.263l.347.347h9.904l.346-.347.347-.347V1.415l-.347-.347-.346-.347H59.402l-.346.347c-.334.334-.346.417-.346 2.262v1.915h-1.912c-1.842 0-1.924.013-2.258.348l-.346.347V27.869h-1.129v-.784c0-1.172-.28-1.39-2.055-1.607-.772-.094-1.503-.2-1.625-.234-.123-.036-.334-.424-.476-.876a14.67 14.67 0 0 0-.74-1.78l-.484-.967.996-1.305c1.433-1.878 1.45-1.797-.884-4.136-2.335-2.34-2.255-2.323-4.129-.886l-1.303.998-.965-.486a14.62 14.62 0 0 0-1.777-.741c-.45-.142-.838-.354-.873-.477-.035-.122-.14-.855-.234-1.628C38.26 10.846 38.355 10.9 35 10.9s-3.26-.055-3.516 2.059c-.094.773-.199 1.506-.234 1.628-.035.123-.423.335-.873.477-.446.14-1.243.472-1.772.738l-.961.484-1.306-.996c-1.88-1.434-1.8-1.451-4.135.889s-2.317 2.258-.884 4.136l.997 1.305-.486.968a14.67 14.67 0 0 0-.74 1.78c-.14.45-.352.84-.475.875-.122.035-.853.14-1.625.234-1.775.216-2.054.434-2.054 1.607v.784h-1.129V5.94l-.347-.347c-.334-.335-.417-.348-2.258-.348H11.29V3.33c0-1.845-.012-1.928-.346-2.262L10.597.72H.694l-.347.347Zm8.686 5.309V9.77H2.258V2.983h6.774v3.394Zm58.71 0V9.77h-6.774V2.983h6.774v3.394ZM36.275 13.27c.002.058.094.737.204 1.509.139.97.28 1.483.459 1.662.142.142.721.387 1.288.545 1.03.286 2.216.8 3.405 1.474.348.198.742.36.876.36s.791-.414 1.46-.92c.669-.505 1.257-.918 1.307-.918.124 0 1.722 1.592 1.722 1.716 0 .055-.413.648-.917 1.318-.505.67-.918 1.329-.918 1.463 0 .134.161.53.358.878.65 1.155 1.208 2.452 1.485 3.454.15.544.39 1.106.532 1.248.178.18.69.321 1.658.46.77.11 1.448.202 1.507.205.058.002.105.577.105 1.277s-.047 1.274-.105 1.277a61.93 61.93 0 0 0-1.507.205c-.967.138-1.48.28-1.658.46-.142.142-.382.703-.532 1.247-.277 1.003-.835 2.3-1.485 3.454-.197.35-.358.744-.358.878 0 .135.413.793.918 1.463.504.67.917 1.263.917 1.318 0 .124-1.598 1.717-1.722 1.717-.05 0-.638-.414-1.307-.92-.669-.505-1.326-.919-1.46-.919-.134 0-.528.162-.876.358-1.153.652-2.447 1.21-3.448 1.489-.542.15-1.103.39-1.245.533-.179.178-.32.692-.459 1.661-.11.772-.202 1.451-.204 1.51-.003.058-.576.105-1.275.105s-1.272-.047-1.275-.106a62.018 62.018 0 0 0-.204-1.509c-.139-.969-.28-1.483-.459-1.661-.142-.143-.703-.383-1.245-.533-1-.278-2.295-.837-3.448-1.489-.348-.196-.742-.358-.876-.358s-.791.414-1.46.92c-.669.505-1.257.919-1.307.919-.124 0-1.722-1.593-1.722-1.717 0-.055.413-.648.917-1.318.505-.67.918-1.328.918-1.463 0-.134-.161-.529-.357-.878-.65-1.154-1.209-2.451-1.486-3.454-.376-1.36-.524-1.476-2.195-1.713-.767-.109-1.443-.2-1.502-.201-.058-.001-.105-.575-.105-1.275s.047-1.274.105-1.276c.059-.001.735-.092 1.502-.2.977-.14 1.476-.278 1.66-.462.144-.144.39-.727.547-1.294.286-1.032.798-2.22 1.472-3.412.197-.349.359-.744.359-.878s-.413-.792-.918-1.463c-.504-.67-.917-1.263-.917-1.318 0-.124 1.598-1.716 1.722-1.716.05 0 .638.413 1.307.919.669.505 1.326.919 1.46.919.134 0 .528-.161.876-.358 1.153-.652 2.447-1.21 3.448-1.488.542-.15 1.103-.39 1.245-.533.179-.179.32-.693.459-1.662.11-.772.202-1.45.204-1.509.003-.058.576-.106 1.275-.106s1.272.048 1.275.106Zm-3.058 5.695c-2.022.365-3.757 1.305-5.344 2.895-1.29 1.292-2.032 2.476-2.568 4.1-.33 1-.374 1.355-.374 3.04 0 1.686.044 2.042.374 3.04.536 1.625 1.278 2.81 2.568 4.102 1.29 1.292 2.471 2.035 4.093 2.573.997.33 1.352.374 3.034.374 1.682 0 2.037-.044 3.034-.374 1.622-.538 2.804-1.281 4.093-2.573 1.29-1.292 2.032-2.477 2.568-4.101.33-.999.374-1.355.374-3.04 0-1.686-.044-2.042-.374-3.04-.536-1.625-1.278-2.81-2.568-4.101-1.969-1.973-4.003-2.875-6.704-2.973-.815-.03-1.808.006-2.206.078Zm3.274 2.268c1.393.252 2.974 1.108 4.065 2.2 3.101 3.107 3.098 8.038-.008 11.149-3.092 3.098-8.013 3.082-11.125-.035-3.803-3.81-2.74-10.216 2.09-12.598 1.67-.824 3.179-1.04 4.978-.716ZM9.032 29.002v3.393H2.258v-6.787h6.774v3.394Zm58.71 0v3.393h-6.774v-6.787h6.774v3.394ZM9.032 51.625v3.393H2.258v-6.787h6.774v3.394Zm58.71 0v3.393h-6.774v-6.787h6.774v3.394Z" fill="#6A6A6A"/></svg>