<svg width="70" height="70" fill="none" xmlns="http://www.w3.org/2000/svg"><path fill-rule="evenodd" clip-rule="evenodd" d="M28.294.186c-1.934.474-3.41 1.502-4.792 3.335l-.347.46-.72-.155c-1.041-.223-2.859-.191-3.726.066-1.1.326-1.734.689-2.542 1.453-1.269 1.2-1.985 2.628-2.18 4.348-.09.806-.098.818-.521.818-.237 0-.89.128-1.452.284C7.12 12.15 4.634 17.266 6.2 22.754c.066.231-.087.352-.992.785C1.726 25.205-.25 28.635.025 32.544c.155 2.213 1.031 4.274 2.484 5.843l.852.92-.647.722c-.853.952-1.316 1.83-1.646 3.118-.482 1.886-.276 3.746.623 5.614.835 1.736 2.687 3.327 4.271 3.67.245.053.445.133.445.178 0 .044-.1.609-.222 1.254-.285 1.511-.193 3.533.223 4.867.485 1.553 1.065 2.506 2.261 3.71 1.87 1.883 3.994 2.711 6.903 2.691 1.139-.008 1.872-.09 2.655-.3a51.126 51.126 0 0 1 1.108-.288c.015 0 .234.416.487.924.674 1.351 2.337 2.988 3.684 3.627 2.717 1.287 5.71 1.188 8.2-.272 1.05-.616 2.243-1.751 2.872-2.733l.456-.71.506.779c.727 1.12 2.14 2.38 3.316 2.959 2.41 1.186 5.092 1.177 7.633-.024 1.347-.637 3.01-2.274 3.684-3.626.253-.508.472-.924.487-.924.014 0 .513.13 1.108.289.783.209 1.516.291 2.655.3 1.898.012 3.012-.233 4.643-1.021.92-.445 1.38-.785 2.26-1.67 1.196-1.205 1.776-2.158 2.26-3.711.416-1.334.51-3.356.224-4.867a30.453 30.453 0 0 1-.222-1.254c0-.045.2-.124.445-.176.904-.19 2.29-1.046 3.04-1.875 2.706-2.99 2.8-7.635.214-10.522l-.653-.729.852-.92c2.02-2.182 2.919-5.373 2.342-8.318-.29-1.48-1.2-3.361-2.13-4.4-.772-.862-2.203-1.874-3.287-2.325-.6-.248-.693-.336-.622-.578.346-1.181.51-2.586.44-3.774-.153-2.6-.918-4.41-2.543-6.023-.599-.594-1.387-1.213-1.86-1.46-.903-.473-2.63-.998-3.283-.998-.414 0-.418-.006-.585-1.06-.42-2.634-2.186-4.788-4.52-5.509-.998-.308-2.737-.36-3.878-.116l-.72.155-.338-.463c-.186-.254-.744-.862-1.24-1.352-2.747-2.71-7.157-2.906-9.563-.426l-.62.639-.577-.577C33.03.329 30.45-.343 28.294.186Zm3.427 2.35c.814.36 1.577 1.04 1.95 1.738l.3.56.036 25.345.036 25.345-.72-.573c-1.621-1.291-3.964-1.995-6.187-1.859-1.481.091-3.188.599-4.13 1.228-.593.397-.667.502-.704 1.009-.035.477.017.61.327.855.487.383.733.365 1.7-.123 4.122-2.08 9.22.116 9.644 4.154.058.557.016 1.184-.126 1.861-.764 3.631-3.57 5.948-6.92 5.712-2.668-.187-4.768-1.86-5.606-4.466-.489-1.52-.766-1.614-2.686-.915-4.006 1.459-8.051.09-9.752-3.298-.753-1.5-.891-4.056-.317-5.871.406-1.285 1.81-2.973 3.176-3.816.338-.21.69-.478.782-.598.46-.6-.1-1.654-.879-1.652-.804.003-2.81 1.5-3.667 2.737-.387.559-.404.567-1.012.475-1.289-.193-2.625-1.214-3.287-2.513-.663-1.298-.836-3.165-.424-4.554.213-.717.926-1.715 1.675-2.343l.643-.54 1.104.222c.607.123 1.678.223 2.381.223 1.087 0 1.333-.043 1.64-.284.275-.217.36-.405.36-.8 0-.87-.301-1.022-2.237-1.124-2.35-.124-3.25-.433-4.398-1.506-1.576-1.474-2.4-3.685-2.21-5.926.261-3.095 2.23-5.364 5.463-6.296.897-.258 1.266-.663 1.154-1.265-.038-.207-.239-.838-.446-1.403-.327-.893-.377-1.238-.39-2.667-.012-1.39.035-1.784.305-2.567.39-1.126 1.223-2.407 1.932-2.969 1.154-.913 2.983-1.497 4.717-1.506.361-.002.642-.1.855-.3.278-.261.316-.427.316-1.354 0-2.185.873-3.8 2.505-4.632.824-.42 1.03-.469 1.978-.458.582.007 1.295.095 1.585.196.516.18.53.202.581.937.167 2.384 1.064 3.448 2.172 2.577.339-.267.368-.357.297-.924a16.488 16.488 0 0 0-.212-1.243c-.176-.8-.046-2.009.275-2.542.625-1.042 2.207-2.223 3.368-2.515.801-.201 2.346-.086 3.053.228Zm10.555.159c1.027.49 2.225 1.668 2.75 2.703.19.377.44.762.553.856.31.257.879.22 1.867-.12a6.008 6.008 0 0 1 1.947-.314c.945-.009 1.156.04 1.978.46 1.626.829 2.505 2.448 2.505 4.613 0 1.284.264 1.668 1.152 1.673 1.746.008 3.577.589 4.724 1.497 1.216.963 2.156 2.959 2.29 4.862.087 1.235-.189 2.924-.641 3.921-.575 1.265-.315 1.719 1.266 2.212 2.406.75 4.081 2.345 4.835 4.604.31.93.347 3.172.068 4.172-.489 1.754-1.74 3.41-3.23 4.272-1.322.766-1.299 1.575.071 2.421 2.073 1.279 2.968 3.47 2.403 5.879-.581 2.474-2.327 4.048-4.49 4.048-1.396 0-1.608.476-1.036 2.33 1.602 5.193-.777 9.403-5.73 10.14-1.274.189-2.723.01-4.167-.513-1.949-.706-2.227-.613-2.717.91-.837 2.606-2.938 4.28-5.605 4.467-2.526.178-4.907-1.165-5.995-3.382-.638-1.298-.84-2.472-.843-4.89l-.002-2.086H41.667l.167.404c.224.538.994 1.316 1.622 1.636 2.893 1.476 6.133-1.633 4.763-4.57a4.408 4.408 0 0 0-.87-1.18c-1.726-1.556-4.563-.957-5.53 1.166l-.162.356h-5.428V43.75h7.374l1.408.544 1.41.544.008 1.269c.008.976.08 1.45.318 2.054.43 1.095 1.45 2.173 2.589 2.733.853.42 1 .448 2.349.448 1.315 0 1.509-.035 2.257-.402 2.681-1.316 3.763-4.605 2.372-7.214-1.06-1.99-3.456-3.18-5.529-2.744-1.102.23-2.136.745-2.766 1.375l-.55.55-1.722-.673-1.721-.672H36.229V34.86h15.983l.226.68c.492 1.482 1.877 2.8 3.453 3.287 2.055.634 3.967.087 5.48-1.569 1.898-2.076 1.788-5.166-.258-7.212-.371-.371-1.028-.84-1.46-1.042-.695-.326-.947-.368-2.22-.368-1.292 0-1.514.038-2.206.378-1.125.552-1.937 1.33-2.423 2.32-.232.473-.453.966-.491 1.098-.066.224-.57.24-8.077.24h-8.007v-6.43H44.022l1.712-.683 1.713-.683.56.542c1.984 1.926 5.123 1.946 7.236.046 2.707-2.433 2.02-6.97-1.3-8.6-.75-.368-.943-.402-2.258-.402-1.349 0-1.496.028-2.35.448-1.137.56-2.159 1.638-2.588 2.732-.237.605-.31 1.079-.318 2.055l-.009 1.268-1.409.544-1.408.544h-7.374V13.248l2.291.002 2.291.002.37.67c1.344 2.437 4.858 2.374 6.157-.11.907-1.738.212-3.84-1.563-4.725-1.749-.872-3.881-.123-4.732 1.66l-.214.45h-4.618l.043-3.25c.04-3.047.062-3.283.346-3.815.396-.74 1.31-1.512 2.087-1.763.996-.321 2.522-.182 3.589.327Zm2.855 8.627c.296.296.4.53.4.9 0 .694-.605 1.299-1.3 1.299-.695 0-1.3-.605-1.3-1.3 0-.37.105-.604.4-.9.552-.551 1.248-.551 1.8 0Zm-18.6 1.32c-1.026.277-1.915.788-2.993 1.724-1.08.939-1.842 1.343-2.528 1.343-.708 0-1.074-.172-1.871-.88-.75-.665-1.125-.759-1.63-.405-1.03.722-.325 2.063 1.62 3.078.503.263.828.322 1.778.325 1.025.002 1.269-.048 2.052-.425.49-.235 1.29-.779 1.779-1.209 1.721-1.514 2.942-1.855 4.644-1.297l.968.317.374-.279c.812-.604.722-1.471-.201-1.938-1.118-.566-2.686-.704-3.993-.353Zm26.357 6.152c1.628.68 2.313 2.722 1.448 4.312-1.077 1.978-3.96 2.13-5.211.274-1.392-2.065.01-4.793 2.464-4.797.435 0 1.02.095 1.3.211Zm-27.404.397c-.727.727-.306 1.633.86 1.85.937.173 1.448.447 1.825.976.32.45.495 1.498.347 2.087-.204.814-1.417 1.718-2.314 1.725-.487.004-1.054.56-1.054 1.033 0 .217.164.523.417.775.39.391.46.411 1.128.324 1.512-.197 2.873-1.119 3.585-2.428.528-.969.64-2.603.256-3.694-.366-1.04-1.63-2.305-2.69-2.693-1.096-.402-1.929-.386-2.36.045Zm25.699 1.444c-.648.26-.785 1.184-.255 1.715.54.539 1.314.435 1.653-.221.288-.556.251-.781-.2-1.232-.412-.412-.68-.47-1.198-.262ZM12.29 23.677c-.436.227-.644.802-.472 1.3.102.295.412.515 1.432 1.017 1.453.715 2.436 1.56 3.194 2.744.412.644 1.05 2.195 1.039 2.527-.002.059-.25.22-.552.36-1.554.716-3.33 2.568-3.33 3.472 0 .584.433.994 1.05.994.344 0 .606-.193 1.456-1.074 1.68-1.74 3.61-2.444 5.705-2.08 2.84.494 4.88 2.613 5.275 5.48.193 1.4.452 1.778 1.22 1.778.634 0 1.08-.49 1.08-1.187 0-1.549-.87-3.913-1.892-5.137-1.701-2.038-3.883-3.103-6.518-3.18l-1.365-.04-.22-.74c-.684-2.305-2.63-4.622-4.779-5.692-1.347-.671-1.85-.789-2.323-.542Zm46.343 7.292c1.152.481 1.867 1.582 1.86 2.865-.006 1.249-.629 2.23-1.746 2.75-.864.401-1.723.416-2.547.043-1.225-.556-1.82-1.464-1.83-2.793-.008-1.266.698-2.37 1.83-2.86.625-.27 1.792-.273 2.433-.005Zm-1.882 2.088c-.486.486-.527.938-.13 1.442.56.712 1.905.252 1.905-.651 0-.433-.505-1.004-.989-1.117-.298-.07-.455-.005-.786.326Zm-36.337 6.84c-1.702 1.235-2.632 3.445-2.27 5.393.455 2.446 2.227 4.207 4.666 4.636.982.173 2.084.02 3.151-.44.76-.326 1.01-.646.993-1.263-.024-.853-.796-1.21-1.728-.797-1.394.616-2.759.44-3.788-.49-1.672-1.51-1.529-3.971.308-5.286.672-.482.876-.946.652-1.486-.314-.759-1.15-.871-1.984-.266Zm32.182 3.374c1.288.383 2.102 1.506 2.096 2.895-.006 1.832-1.238 3.057-3.076 3.057-1.991 0-3.464-1.883-2.954-3.777.286-1.063.972-1.806 2.006-2.175.7-.249 1.09-.249 1.928 0Zm-1.669 2.184c-.634.635-.313 1.627.583 1.8.37.071.507.017.87-.347.364-.364.419-.501.347-.871-.172-.896-1.165-1.217-1.8-.582Zm-5.334 9.725c.713.338.942 1.087.559 1.827-.586 1.133-2.4.675-2.4-.605 0-.626.181-.965.653-1.22.478-.26.644-.26 1.188-.002Z" fill="#fff"/></svg>