<svg width="70" height="71" fill="none" xmlns="http://www.w3.org/2000/svg"><path fill-rule="evenodd" clip-rule="evenodd" d="M20.82.168c-1.988.488-3.579 2.016-4.188 4.02-.151.498-.192 1.838-.193 6.336l-.002 5.704-1.13.587c-4.304 2.234-7.319 6.41-8.07 11.172l-.175 1.114h-3.5v2.317l1.738.038 1.738.038.242 1.366c1.156 6.55 6.137 11.425 12.708 12.438l1.038.16.038 1.74.038 1.738h2.32v-3.502l1.2-.172c3.198-.46 6.187-2.035 8.554-4.509 2.127-2.224 3.479-4.877 3.949-7.754.086-.527.183-1.096.216-1.265.057-.3.101-.308 1.842-.308h1.784l-.04-1.129-.04-1.128-1.78-.069c-1.778-.068-1.781-.069-1.817-.41-.252-2.405-1.22-4.987-2.636-7.033-.83-1.198-2.719-3.06-3.956-3.9-1.726-1.17-4.415-2.198-6.385-2.44l-.822-.102-.068-1.778-.069-1.778-1.126-.04-1.126-.04-.038 1.819-.038 1.818-.86.095c-.474.052-.983.133-1.13.18-.264.083-.27.006-.27-3.07V9.265h18.628V6.94H18.766v-1c0-.804.07-1.139.36-1.721.44-.882 1.345-1.586 2.31-1.797.479-.104 4.724-.137 14.046-.107l13.361.042.727.377.726.376.638-.703c.928-1.023.924-.995.185-1.468-1.518-.973-.358-.905-15.71-.932-11.232-.02-13.977.01-14.589.161ZM.688 4.79c-.662.334-.684.518-.686 5.68-.002 5.066.041 5.465.62 5.687.122.046 3.042.085 6.488.085h6.266l.298-.317c.294-.313.298-.369.298-5.392 0-2.792-.039-5.175-.086-5.297-.227-.593-.544-.622-6.86-.62C2.49 4.618.945 4.66.689 4.79Zm39.722-.001c-.682.347-.683.358-.685 8.006-.002 7.885-.012 7.788.836 8.083.307.107 4.218.152 13.227.152 13.68 0 13.507.008 13.867-.664.1-.188.148-2.614.148-7.596V5.45l-.33-.383-.331-.384-13.196-.034c-10.412-.026-13.267.004-13.535.14Zm-28.767 5.64v3.487H2.329V6.94h9.314v3.488Zm53.799 2.359-.036 5.848H42.12l-.036-5.848-.035-5.848h23.428l-.035 5.848Zm-60.785-2.36v1.163h4.657V9.265H4.657v1.163Zm39.814-1.071c-.05.05-.091.573-.091 1.162v1.072h4.657V9.265H46.8c-1.23 0-2.278.041-2.329.092Zm7.032 1.071v1.163h11.643V9.265H51.503v1.163Zm-7.032 3.58c-.05.05-.091.573-.091 1.162v1.072h18.766v-2.326h-9.292c-5.11 0-9.332.041-9.383.092Zm-23.377 4.696V19.8H23.423V17.572l.756.089c1.173.138 3.168.835 4.428 1.549 1.407.796 3.336 2.575 4.199 3.871a13.41 13.41 0 0 1 2.116 5.37l.103.65h-2.288v2.325h2.192v.532c0 .682-.583 2.709-1.097 3.816-.554 1.19-1.614 2.68-2.596 3.65l-.828.817v-.552c0-1.817-.86-4.08-2.077-5.464-.416-.473-1.879-1.63-2.2-1.74-.111-.037.04-.293.42-.706 2.049-2.23 1.971-5.61-.18-7.862-1.918-2.008-4.957-2.36-7.301-.843-1.005.65-1.608 1.344-2.14 2.463-.395.833-.424 1.001-.424 2.4 0 1.404.029 1.567.43 2.412.236.498.652 1.152.924 1.453.272.3.495.58.495.62 0 .04-.265.227-.589.417-.743.435-1.94 1.659-2.52 2.576-.58.92-.98 2.145-1.128 3.455-.065.58-.162 1.097-.215 1.148-.054.052-.468-.306-.921-.795-1.777-1.917-2.809-3.88-3.332-6.335-.326-1.53-.368-1.462.897-1.462h1.096V29.1H9.426l.096-.718c.246-1.82 1.342-4.351 2.583-5.962 1.234-1.602 3.186-3.103 5.052-3.886 1.148-.482 2.735-.907 3.424-.917l.513-.007v1.094ZM51.51 29.271l.013 5.917-3.169 2.804-3.169 2.804-1.137.222c-3.263.636-5.758 3.102-6.453 6.377-.108.508-.197 1.637-.198 2.508-.004 2.355-.128 2.628-1.83 4.044-.736.611-.598 1.55.282 1.918.772.322 9.62.197 10.723-.151 3.096-.98 5.201-3.274 5.865-6.39l.243-1.145 8.395-9.5c4.618-5.225 8.514-9.73 8.657-10.013.319-.622.364-2.479.078-3.16-.274-.654-.86-1.288-1.576-1.709-.559-.328-.78-.373-1.8-.373-1.023 0-1.24.045-1.782.37-.339.203-2.897 2.384-5.684 4.846L53.9 33.117l-.036-4.88-.036-4.882h-2.331l.013 5.916Zm-27.883-4.489c2.702 1.128 2.705 5.163.004 6.388-1.2.545-3.027.18-3.933-.787-1.13-1.207-1.248-3.258-.26-4.513.977-1.24 2.732-1.696 4.189-1.088Zm43.67 1.229c.403.372.574.883.456 1.355-.071.281-16.106 18.577-16.358 18.663-.187.065-4.039-3.899-3.942-4.056.103-.166 17.04-15.122 17.947-15.846.697-.558 1.375-.6 1.898-.116Zm-42.633 8.375c1.662.78 2.925 2.428 3.276 4.275.077.405.14 1.271.14 1.925v1.188l-.909.373c-.946.388-2.906.904-3.44.906-.294 0-.308-.05-.308-1.094v-1.094H21.094v1.094c0 1.01-.021 1.094-.28 1.094-.6 0-2.368-.44-3.314-.825a26.212 26.212 0 0 0-1.029-.405c-.019 0-.034-.728-.034-1.618 0-2.194.362-3.242 1.563-4.518 1.25-1.33 2.447-1.809 4.395-1.758 1.203.03 1.48.086 2.27.457Zm23.031 11.37 2.56 2.564-.126.65c-.457 2.38-2.483 4.249-4.996 4.61-1.111.16-5.96.193-5.954.04.003-.056.124-.44.27-.854.203-.577.267-1.135.272-2.394.008-1.915.25-3.221.777-4.187.434-.798 1.686-2.009 2.46-2.381.547-.264 1.606-.588 1.971-.605.114-.005 1.359 1.145 2.766 2.556Zm-31.258 3.79v2.946H.801l-.4.4-.401.4v4.944c0 5.047.025 5.317.536 5.708.167.129 3.277.168 13.512.171 13.17.005 13.298.002 13.594-.273.163-.152.332-.414.373-.581.042-.167.058-2.51.036-5.206l-.04-4.903-.384-.33-.384-.33H18.77l-.037-2.907-.037-2.907-1.13-.04-1.13-.039v2.947Zm35.035 6.469-.038 2.291-10.513.035-10.512.035V60.7H51.535l-.056 2.094c-.053 1.952-.082 2.147-.436 2.87-.21.427-.608.964-.886 1.194-1.031.853-.551.829-15.378.787-15.192-.042-13.984.048-15.088-1.119l-.558-.59-.938.54c-.515.297-.937.613-.937.702 0 .306 1.202 1.525 1.936 1.963 1.488.888.985.86 15.744.86 8.474 0 13.646-.05 14.114-.138 2.388-.45 4.33-2.549 4.65-5.026.066-.507.121-3.215.124-6.018l.004-5.096H51.51l-.037 2.292Zm-25.72 2.291v3.488H2.328v-6.976H25.75v3.488Zm-21.095 0v1.163h5.89v-2.326h-5.89v1.163Zm8.219 0v1.163h10.547v-2.326H12.876v1.163Zm21.094 5.882v1.163h2.328v-2.326H33.97v1.163Z" fill="#fff"/></svg>