<svg width="70" height="70" fill="none" xmlns="http://www.w3.org/2000/svg"><path fill-rule="evenodd" clip-rule="evenodd" d="M20.799.114c-.908.216-2.23.997-2.874 1.696-.328.356-.803 1.086-1.057 1.623l-.462.976-.04 12.98-.04 12.981-.689-.102c-.86-.127-2.263-.86-2.746-1.436-.201-.239-.54-.77-.752-1.18-.33-.637-.387-.93-.387-1.988 0-1.08.054-1.347.415-2.046.228-.441.808-1.18 1.288-1.642.803-.771.866-.877.782-1.315-.118-.609-.575-.987-1.196-.987-.396 0-.665.166-1.419.872-1.03.965-1.72 2.116-2.065 3.444-1.015 3.904 1.7 7.95 5.767 8.591l1.01.16v6.947h-.501c-.562 0-.521.078-.893-1.71-.29-1.389-.498-1.64-1.669-2.018-.441-.142-1.326-.512-1.966-.82-.751-.364-1.269-.53-1.459-.471-.161.05-.792.412-1.402.802-.61.391-1.165.71-1.235.71-.07 0-.434-.303-.81-.674l-.683-.674.73-1.115c1.098-1.677 1.09-1.63.435-3a22.459 22.459 0 0 1-.892-2.17c-.18-.544-.435-1.046-.569-1.116-.133-.07-.883-.275-1.665-.455l-1.421-.327V24.677l1.415-.328c.778-.18 1.533-.4 1.677-.49.143-.09.402-.592.575-1.115.172-.523.568-1.484.88-2.135.656-1.37.663-1.322-.435-3l-.73-1.114.684-.675c.375-.37.74-.674.81-.674.069 0 .624.32 1.234.71.61.39 1.24.752 1.402.803.19.059.708-.108 1.459-.47.64-.31 1.597-.706 2.126-.88.64-.212 1.02-.427 1.132-.643.32-.613 1.025-4.219.893-4.568-.157-.413-.693-.796-1.116-.796-.7 0-1.048.554-1.386 2.205l-.317 1.547-1.277.54-1.277.54-1.373-.882c-.86-.552-1.53-.882-1.79-.882-.338 0-.744.328-2.137 1.723-1.402 1.404-1.72 1.802-1.72 2.145 0 .266.326.932.885 1.807l.885 1.386-.434.962c-.238.529-.474 1.098-.523 1.265-.071.247-.317.353-1.29.556-.66.139-1.413.32-1.674.401-.835.263-.912.52-.912 3.049 0 2.994-.076 2.891 2.563 3.444l1.177.246.542 1.286.542 1.285-.88 1.375c-.552.861-.881 1.533-.881 1.794 0 .338.327.744 1.72 2.14 1.393 1.396 1.8 1.723 2.137 1.723.26 0 .93-.33 1.79-.882l1.373-.882 1.277.54 1.277.54.317 1.548c.416 2.029.592 2.204 2.217 2.204h1.154l.04 11.804.041 11.804.545 1.104c.656 1.33 1.5 2.157 2.856 2.8l.974.463H49.22l.974-.462c1.356-.644 2.2-1.472 2.856-2.801l.545-1.104.04-12.989.04-12.988.685.102c.769.116 1.82.608 2.471 1.156.239.2.656.78.928 1.286.44.823.493 1.044.498 2.092.004 1.033-.052 1.286-.474 2.145-.325.662-.71 1.167-1.204 1.582-.399.334-.763.76-.81.944-.098.391.263 1.167.603 1.298.657.253 1.08.088 2.007-.781 1.03-.965 1.72-2.115 2.065-3.444 1.016-3.904-1.7-7.95-5.767-8.591l-1.01-.16v-6.947h.501c.562 0 .521-.078.894 1.71.289 1.389.497 1.64 1.668 2.018.441.142 1.326.512 1.967.821.75.363 1.268.53 1.458.47.161-.05.793-.412 1.402-.802.61-.391 1.165-.71 1.234-.71.172 0 1.377 1.196 1.377 1.366 0 .076-.32.638-.71 1.248-.39.61-.75 1.243-.8 1.405-.06.19.107.709.469 1.461.308.641.707 1.61.886 2.154.179.543.434 1.044.568 1.114.134.07.883.272 1.665.449l1.422.322V45.36l-1.422.322c-.782.177-1.531.379-1.665.449-.133.07-.39.57-.568 1.114-.18.543-.58 1.52-.892 2.17-.656 1.371-.663 1.324.434 3l.73 1.115-.683.675c-.376.37-.74.674-.81.674-.07 0-.625-.32-1.235-.71-.61-.39-1.24-.752-1.402-.803-.19-.059-.708.108-1.459.47-.64.31-1.597.706-2.126.88-.64.212-1.019.427-1.131.643-.32.613-1.026 4.219-.893 4.568.157.413.692.796 1.115.796.703 0 1.048-.552 1.391-2.228.267-1.303.372-1.585.62-1.657.164-.048.735-.285 1.27-.527l.971-.44 1.375.892c.869.563 1.529.892 1.793.892.338 0 .742-.326 2.137-1.723 1.402-1.404 1.72-1.801 1.72-2.145 0-.266-.324-.93-.878-1.798l-.88-1.376.55-1.3c.343-.814.63-1.3.769-1.303.121-.002.84-.159 1.598-.348 1.93-.483 1.904-.437 1.904-3.3 0-2.864.026-2.818-1.904-3.301-.757-.19-1.477-.346-1.598-.348-.139-.002-.427-.49-.772-1.308l-.55-1.305.88-1.375c.552-.861.882-1.533.882-1.794 0-.338-.327-.744-1.72-2.14-1.394-1.396-1.8-1.723-2.138-1.723-.26 0-.933.332-1.8.889l-1.383.888-.964-.436c-.53-.24-1.098-.476-1.262-.524-.248-.072-.353-.354-.62-1.657C56.63 28.174 56.458 28 54.829 28h-1.154l-.04-11.804-.041-11.804-.545-1.104c-.656-1.33-1.5-2.157-2.856-2.8l-.974-.463L35.292.002C27.188-.01 21.128.035 20.799.114ZM48.91 2.468c.801.237 2.01 1.447 2.246 2.25.258.874.258 59.716 0 60.59-.237.803-1.445 2.013-2.246 2.25-.865.256-26.955.256-27.82 0-.801-.237-2.01-1.447-2.246-2.25-.258-.874-.258-59.716 0-60.59.22-.744 1.44-2.01 2.156-2.237.766-.241 27.096-.254 27.91-.013ZM30.692 4.986a1.178 1.178 0 0 0-.358.81c0 .285.132.584.358.81l.357.359h7.901l.359-.359c.226-.226.358-.525.358-.81 0-.284-.133-.584-.358-.81l-.358-.358h-7.902l-.357.358Zm28 4.675c-.702.703-.349 1.881.62 2.068.392.076.54.019.911-.353.305-.305.444-.587.444-.9 0-.606-.565-1.174-1.167-1.174-.284 0-.583.133-.809.359Zm0 4.675c-.702.702-.349 1.88.62 2.068.392.076.54.018.911-.354.305-.305.444-.586.444-.9 0-.605-.565-1.173-1.167-1.173-.284 0-.583.133-.809.359Zm0 4.674c-.702.703-.349 1.881.62 2.069.392.075.54.018.911-.354.305-.305.444-.587.444-.9 0-.605-.565-1.173-1.167-1.173-.284 0-.583.132-.809.358ZM25.998 31.84c-2.424 2.428-2.665 2.716-2.665 3.173 0 .457.241.745 2.665 3.173 2.37 2.373 2.72 2.67 3.142 2.67.636 0 1.193-.554 1.193-1.187 0-.409-.27-.741-2.072-2.563l-2.072-2.093 2.072-2.093c1.803-1.821 2.072-2.154 2.072-2.563 0-.633-.557-1.187-1.193-1.187-.423 0-.773.297-3.142 2.67Zm9.446-2.414c-.254.207-.555 1.21-1.543 5.15-.675 2.69-1.229 5.044-1.231 5.228-.006.475.62 1.052 1.14 1.052.906 0 .968-.147 2.287-5.406.675-2.69 1.23-5.043 1.232-5.228.01-.83-1.208-1.345-1.885-.796Zm4.58.102a1.17 1.17 0 0 0-.358.829c0 .41.268.742 2.071 2.563l2.072 2.093-2.072 2.093c-1.803 1.822-2.071 2.154-2.071 2.563 0 .633.556 1.187 1.192 1.187.423 0 .773-.297 3.142-2.67 2.424-2.428 2.666-2.716 2.666-3.173 0-.457-.242-.745-2.666-3.173-2.369-2.373-2.719-2.67-3.142-2.67-.311 0-.6.124-.834.358Zm-29.91 19.363c-.785.314-1.037 1.461-.444 2.02.572.538 1.43.404 1.783-.278.297-.576.266-.936-.115-1.357-.39-.429-.795-.556-1.224-.385Zm0 4.675c-.785.314-1.037 1.461-.444 2.02.572.537 1.43.404 1.783-.278.297-.576.266-.937-.115-1.357-.39-.43-.795-.557-1.224-.385Zm0 4.674c-.785.314-1.037 1.462-.444 2.02.572.538 1.43.404 1.783-.277.297-.576.266-.937-.115-1.357-.39-.43-.795-.557-1.224-.386Z" fill="#fff"/></svg>