<svg width="70" height="71" fill="none" xmlns="http://www.w3.org/2000/svg"><path fill-rule="evenodd" clip-rule="evenodd" d="M29.348.26c-1.98.518-3.884 1.9-4.885 3.548l-.478.786-1.22.079c-3.65.236-6.643 2.746-7.474 6.266-.113.483-.207 1.174-.209 1.537-.001.62-.02.653-.31.56-.592-.189-2.036-.276-2.953-.178-3.249.347-6.145 2.833-6.913 5.935-.43 1.738-.397 3.02.123 4.672l.235.745-.329.226c-.664.456-2.088 1.904-2.656 2.702C.76 29.272.01 31.593 0 34.183c-.003.892.083 1.99.199 2.533.588 2.772 2.096 5.224 4.385 7.133l.663.552-.3.944c-.386 1.216-.42 3.177-.075 4.365 1.086 3.745 4.611 6.312 8.292 6.038.564-.042 1.227-.117 1.472-.167l.445-.091v.61c0 .888.472 2.596.988 3.571 1.281 2.422 4.209 4.198 6.919 4.198h.953l.5.81c.972 1.572 2.53 2.837 4.232 3.433 1.178.413 3.266.512 4.534.214 2.874-.674 5.401-3.183 6.034-5.992l.163-.722h7.51l.59 1.134.592 1.135-.317.644c-.423.858-.45 2.566-.052 3.366.565 1.138 1.754 1.964 3.014 2.094 2.199.227 4.182-1.58 4.182-3.81 0-.775-.494-1.944-1.072-2.54-.803-.827-1.412-1.066-2.715-1.066h-1.118l-.66-1.34c-1.038-2.108-.551-1.936-5.604-1.983l-4.302-.04v-3.408h16.951l1.782 2.223c1.54 1.921 1.755 2.25 1.595 2.43-.783.875-.983 2.714-.422 3.897.65 1.37 1.844 2.112 3.409 2.117 1.506.005 2.6-.633 3.322-1.936.348-.628.404-.87.4-1.755-.002-.839-.068-1.15-.363-1.71-.696-1.321-1.818-2.021-3.27-2.04l-.897-.012-2.115-2.646c-1.162-1.455-2.217-2.702-2.344-2.77-.131-.07-4.08-.124-9.14-.124h-8.908v-4.651h21.291l1.502-.903c1.472-.883 1.51-.897 1.849-.676.707.462 1.3.642 2.126.647 3.51.02 5.107-4.24 2.461-6.566-2.403-2.114-6.089-.454-6.169 2.778l-.023.958-1.147.708-1.147.708-10.374.01-10.375.01.037-2.907.037-2.907 2.838-.037 2.838-.037.196.467c.775 1.855 3.205 2.72 5.073 1.806.804-.393 1.283-.876 1.758-1.773.23-.434.298-.798.298-1.588 0-1.604-.674-2.676-2.168-3.453-.699-.363-2.223-.4-2.98-.073-.675.293-1.585 1.137-1.91 1.772l-.266.522h-5.745v-5.745h15.055l.272.531a3.773 3.773 0 0 0 4.537 1.86c1.43-.476 2.59-2.067 2.59-3.554 0-.83-.41-1.853-1.002-2.496-1.073-1.169-2.605-1.56-4.109-1.048-.743.253-1.7 1.124-2.052 1.868l-.243.513H39.446l.037-2.907.037-2.907 10.244-.035 10.244-.035 1.274.76 1.274.76-.067.588c-.114 1.017.288 2.065 1.108 2.884 1.258 1.256 2.935 1.509 4.47.673 1.28-.695 1.901-1.783 1.912-3.345.019-2.831-3.072-4.605-5.574-3.2l-.684.384-1.488-.88-1.488-.88-10.65-.036-10.65-.037.038-2.289.037-2.289 9.037-.068 9.036-.069 2.146-2.667 2.145-2.668 1.006-.083c1.236-.103 1.944-.444 2.697-1.299 1.27-1.44 1.27-3.456 0-4.896-.707-.802-1.45-1.187-2.47-1.28-2.144-.194-3.903 1.271-4.053 3.377-.071.988.098 1.735.534 2.356.14.2.255.423.255.498 0 .074-.772 1.095-1.715 2.27l-1.714 2.135H39.452v-3.42h4.253c2.688 0 4.352-.052 4.52-.142.147-.079.602-.81 1.012-1.627l.745-1.484 1.005.015c1.63.025 2.778-.667 3.563-2.15.422-.794.422-2.383 0-3.178C53.788 1.607 52.62.878 51.1.895c-1.06.01-1.713.265-2.5.972-1.207 1.089-1.578 2.96-.86 4.352l.348.673-.581 1.197-.581 1.197h-7.474V8.198c0-1.47-.197-2.324-.848-3.686C36.982 1.117 33.021-.702 29.348.26Zm3.469 2.26c1.685.436 3.025 1.563 3.813 3.209l.426.89.034 11.813.035 11.813-1.61-.054c-1.316-.044-1.711-.108-2.174-.351-1.154-.605-1.777-1.52-1.962-2.88-.12-.884-.578-1.395-1.251-1.395-.658 0-1.082.53-1.082 1.35 0 1.945 1.325 4.025 3.145 4.939 1.016.51 1.94.688 3.57.688h1.363v10.396h-1.608c-1.372 0-1.676-.041-2.062-.276-.585-.357-.978-1.221-.982-2.162-.003-.842-.525-2.509-1.041-3.325-.911-1.442-2.449-2.654-3.95-3.113-1.152-.353-2.82-.49-3.443-.286-.586.194-.956.873-.757 1.392.227.594.57.753 1.825.844 1.553.114 2.523.485 3.432 1.316.996.908 1.445 1.87 1.62 3.463.223 2.03.914 3.215 2.336 4.002.695.384.818.405 2.683.45l1.955.047-.038 8.305-.038 8.305-.51 1.03c-.624 1.262-1.535 2.155-2.814 2.76-.856.405-1.022.436-2.358.432-1.171-.004-1.584-.063-2.225-.318-.78-.31-2.031-1.32-2.566-2.07l-.27-.38.913-.529c1.106-.642 2.167-1.647 2.829-2.68 1.116-1.743 1.62-4.514.945-5.19-.449-.45-1.21-.418-1.63.07-.18.21-.324.554-.324.774 0 .714-.3 1.83-.714 2.653-.529 1.051-1.53 2.012-2.678 2.571-.87.423-1.006.448-2.427.45-1.407.002-1.564-.026-2.396-.426-1.624-.78-2.645-1.94-3.152-3.582-.331-1.07-.344-2.08-.042-3.328.223-.923.222-.957-.048-1.32-.497-.666-.87-.69-1.993-.131-1.322.66-2.531.878-3.743.678-3.871-.642-6.031-4.812-4.295-8.293.646-1.295.564-1.66-.53-2.36-2.306-1.473-3.854-3.595-4.477-6.134-.325-1.324-.3-3.386.058-4.759.596-2.287 2.154-4.469 4.129-5.78 1.389-.923 1.464-1.155.818-2.544-2.376-5.11 2.845-10.229 7.867-7.71 1.096.549 1.535.594 1.958.201.426-.397.48-.779.24-1.702-.706-2.706.543-5.487 3.004-6.69 3.345-1.634 7.265.188 8.211 3.818.116.443.212 1.023.215 1.29.004.533.183.835.636 1.077.483.256.86.186 1.287-.24.468-.47.505-.924.194-2.405-.335-1.596-1.043-2.852-2.313-4.104-.69-.68-1.38-1.22-1.822-1.423-.823-.38-.817-.445.138-1.48 1.396-1.513 3.59-2.138 5.646-1.606Zm18.884.804c.482.201.895.806.895 1.31 0 .513-.413 1.11-.91 1.318-1.336.557-2.567-1.063-1.673-2.2.484-.613.956-.733 1.688-.428Zm12.017 3.762c.384.342.447.49.447 1.037 0 .548-.063.694-.447 1.037-.506.452-1.054.515-1.678.193-.496-.257-.681-.59-.681-1.23 0-.628.18-.967.654-1.223.606-.33 1.201-.264 1.705.186ZM26.203 17.568c-.443.186-.539.363-.725 1.339-.07.363-.259.848-.422 1.076-.34.478-1.225.923-1.843.928-.958.006-1.511 1.205-.872 1.89.56.602 1.633.556 2.998-.126a4.388 4.388 0 0 0 2.442-3.622c.063-.782.036-.923-.233-1.208-.379-.404-.825-.495-1.345-.277ZM12.258 22.2c-.493.22-.792.881-.61 1.353.205.537.589.742 1.566.838 1.924.187 2.962 1.223 2.962 2.954 0 1.56-1.329 2.868-2.916 2.871-.749.002-1.271.92-.97 1.705.158.412.859.659 1.592.562 1.822-.242 3.42-1.387 4.156-2.98.354-.767.397-1.005.396-2.227 0-1.13-.055-1.485-.31-2.041-.638-1.385-1.796-2.435-3.166-2.87-.982-.312-2.204-.387-2.7-.165Zm54.999 3.492c.32.32.4.518.397.992-.007 1.32-1.383 1.951-2.357 1.082-.384-.343-.447-.49-.447-1.037 0-.548.063-.695.447-1.038.625-.557 1.401-.557 1.96.001Zm-8.194 4.65c.384.343.447.49.447 1.038s-.063.694-.447 1.037c-.973.87-2.35.237-2.357-1.082-.006-1.273 1.386-1.86 2.357-.992Zm-40.782 7.877c-1.381.3-2.351.84-3.418 1.905-1.4 1.396-2.11 3.04-2.11 4.885 0 .578.064.751.4 1.087.487.487.96.512 1.467.077.324-.279.389-.463.474-1.354.123-1.286.472-2.089 1.286-2.958.766-.819 1.58-1.223 2.942-1.46 1.132-.196 1.509-.486 1.509-1.16 0-.57-.127-.804-.558-1.026-.463-.24-.876-.239-1.992.004Zm31.17.003c.443.229.818.837.817 1.325-.001.527-.493 1.181-.987 1.313-1.386.368-2.459-1.126-1.595-2.223.49-.621 1.091-.763 1.765-.415Zm17.83 4.989c.28.31.376.559.376.972 0 1.436-2.021 1.925-2.682.65-.248-.481-.245-.85.014-1.35.464-.897 1.605-1.033 2.291-.273ZM22.484 45.07c-.36.303-.422.447-.422.997 0 1.53.692 3.126 1.852 4.274.9.888 1.538 1.281 2.647 1.627 1.249.39 2.265.366 2.696-.064.426-.426.437-1.037.028-1.51-.244-.282-.502-.383-1.239-.486-1.103-.156-1.762-.467-2.456-1.164-.674-.676-1.073-1.528-1.193-2.553-.08-.67-.172-.898-.471-1.155-.484-.415-.92-.405-1.442.034Zm40.932 16.406c.684.354.996 1.24.664 1.888-.264.515-.703.771-1.33.774a1.377 1.377 0 0 1-1.1-2.247c.49-.621 1.092-.763 1.766-.415Zm-11.603 3.498c.803.366.994 1.583.355 2.263-.634.674-1.926.5-2.295-.31-.606-1.33.613-2.557 1.94-1.953Z" fill="#6A6A6A"/></svg>