<svg width="70" height="70" fill="none" xmlns="http://www.w3.org/2000/svg"><path fill-rule="evenodd" clip-rule="evenodd" d="M2.268.206A3.44 3.44 0 0 0 .448 1.74l-.38.645-.04 5.245c-.045 5.878-.014 6.133.874 7.048.71.73 1.443 1.051 2.602 1.139l1.008.076v2.148H2.324v2.325h6.7v3.53c0 4.136.08 4.584 1 5.53 1.065 1.095.67 1.058 11.25 1.058h9.33l.332.718c.42.913 1.284 1.774 2.23 2.222l.74.35V36.078l-5.445.04-5.444.04-.505.342c-.675.457-1.047 1.25-1.047 2.23v.778h-4.761c-5.445 0-5.672.035-6.671 1.034-.922.922-1.01 1.403-1.01 5.543v3.52l-3.247.045-3.247.045-.718.398c-.395.219-.874.602-1.065.852-.718.942-.746 1.19-.745 6.595 0 3.028.056 5.21.142 5.517.384 1.385 1.701 2.326 3.371 2.41l.998.05v2.159H0V70h70v-2.324h-4.512V65.517l.998-.05c1.67-.085 2.987-1.026 3.371-2.41.086-.309.142-2.49.142-5.518.001-5.405-.027-5.653-.745-6.595-.19-.25-.67-.633-1.065-.852l-.718-.398-3.241-.045-3.241-.045-.04-3.788c-.04-3.757-.044-3.794-.39-4.466-.393-.764-1.252-1.489-2.013-1.7-.305-.085-2.409-.142-5.26-.142l-4.75-.001v-.826c0-1.033-.351-1.764-1.056-2.203-.517-.321-.517-.321-5.952-.361l-5.434-.04v-2.293l.738-.338a4.712 4.712 0 0 0 2.225-2.226l.338-.738h9.321c6-.001 9.502-.052 9.83-.143.761-.211 1.62-.936 2.013-1.7.347-.673.35-.709.39-4.477l.04-3.798H67.676V18.04h-2.188v-2.148l1.021-.077c1.73-.131 2.911-1.012 3.348-2.495.114-.386.148-2.053.118-5.74l-.043-5.196-.386-.655c-.45-.767-1.21-1.36-2.035-1.588-.43-.119-2.573-.152-7.97-.122-7.283.04-7.39.044-7.939.338-.715.383-1.479 1.23-1.717 1.906-.146.414-.188 1.676-.188 5.727 0 5.748-.013 5.652.906 6.699.593.676 1.393 1.023 2.585 1.123l.953.08v2.148h-2.188v2.325h6.7v3.6c0 3.585-.002 3.6-.317 3.896l-.316.298H39.407l-.365-.746c-.434-.888-1.483-1.877-2.337-2.203l-.611-.233v-4.612h6.836V18.04h-2.325v-2.188h.609c1.68 0 2.863-.637 3.521-1.898l.382-.73v-5.2c0-3.55-.05-5.366-.158-5.728-.206-.686-.952-1.55-1.668-1.934C42.725.06 42.714.06 35 .06c-7.713 0-7.725 0-8.291.303-.716.384-1.462 1.248-1.668 1.934-.108.362-.158 2.179-.158 5.729v5.198l.382.731c.658 1.261 1.84 1.898 3.521 1.898h.608v2.188H27.06l.04 1.128.04 1.128 3.384.037 3.383.037V24.976l-.65.247c-.867.331-2.138 1.6-2.367 2.364l-.17.57H11.941l-.297-.316c-.29-.308-.297-.409-.297-3.897v-3.58h6.699V18.04h-2.188v-2.148l.953-.08c1.192-.1 1.991-.447 2.585-1.123.919-1.047.906-.951.906-6.699 0-4.7-.024-5.258-.25-5.842-.325-.843-1.369-1.794-2.199-2.003-.418-.105-2.898-.15-7.832-.144-5.908.008-7.316.045-7.754.205Zm15.495 2.47c.268.34.284.532.284 3.35v2.99H2.325V5.982c0-2.926.01-3.045.296-3.35l.298-.316H17.48l.284.36Zm24.775-.1c.32.26.324.293.365 3.35l.041 3.09H27.056l.041-3.09c.041-3.057.045-3.09.364-3.35.309-.249.64-.26 7.539-.26s7.23.011 7.538.26Zm24.821.037c.313.293.317.336.317 3.35v3.053H51.953v-2.99c0-2.818.016-3.01.283-3.35l.284-.36h14.523l.316.297Zm-49.312 9.485c0 .623-.06.819-.336 1.094l-.335.336H10.21c-7.042 0-7.172-.005-7.526-.284-.316-.249-.36-.38-.36-1.093v-.81H18.047v.757Zm24.883-.134c0 .659-.175 1.112-.535 1.389-.314.24-14.476.24-14.79 0-.36-.277-.535-.73-.535-1.389v-.624h15.86v.624Zm24.746.187c0 .712-.044.844-.36 1.094-.354.278-.484.283-7.526.283h-7.166l-.335-.336c-.276-.275-.336-.47-.336-1.094v-.758H67.676v.81Zm-54.14 4.795v1.094h-6.7v-2.188h6.7v1.094Zm24.882 0v1.094h-6.836v-2.188h6.836v1.094Zm24.746 0v1.094h-6.7v-2.188h6.7v1.094ZM35.9 27.324c1.703.774 1.825 3.047.21 3.954-1.506.847-3.297-.216-3.297-1.957 0-.903.393-1.527 1.226-1.949.735-.371 1.127-.381 1.86-.048Zm-7.63 13.312-.038 2.222-2.221.038-2.222.037v-4.52h4.519l-.038 2.223Zm11.242.034v2.256h-9.024v-4.512h9.024v2.256Zm6.836 0v2.256h-4.512v-4.512h4.512v2.256Zm-24.861 2.1c.043.767.123 1.03.433 1.436.705.925.581.908 6.579.908h5.407v4.512h-2.864c-1.576 0-3.178.067-3.56.15-.947.202-1.762.847-2.223 1.756l-.376.741v5.19c0 3.543.05 5.358.159 5.72.087.29.37.777.63 1.08.683.798 1.402 1.121 2.663 1.197l1.06.063v2.152H15.859v-2.151l.992-.065c1.173-.077 1.894-.404 2.59-1.174.847-.938.862-1.05.862-6.728 0-5.853-.018-5.967-1.088-6.954-.931-.858-1.534-.977-4.953-.977h-2.914v-3.58c0-3.488.007-3.589.297-3.897l.297-.317h9.492l.053.938Zm36.849-.64c.315.296.316.31.316 3.897v3.6h-2.914c-3.419 0-4.022.118-4.953.976-1.07.987-1.088 1.1-1.088 6.954 0 5.678.015 5.79.862 6.728.696.77 1.417 1.097 2.59 1.174l.992.065v2.152H40.606v-2.153l1.059-.063c1.26-.076 1.98-.4 2.664-1.197.259-.303.542-.79.63-1.08.108-.362.158-2.179.158-5.729v-5.199l-.382-.73c-.471-.904-1.292-1.551-2.216-1.75-.383-.082-1.987-.149-3.564-.149h-2.868l.037-2.222.038-2.222 5.493-.068c5.279-.066 5.508-.08 5.87-.35.718-.536.93-.96.987-1.979l.054-.953h4.727c4.665 0 4.73.004 5.043.298ZM17.711 52.286l.336.336v6.029H2.325v-6.133l.36-.284c.353-.278.483-.283 7.525-.283h7.166l.335.335Zm24.684-.16c.482.37.535.73.535 3.644v2.88H27.07v-2.88c0-2.914.053-3.274.535-3.644.314-.24 14.476-.24 14.79 0Zm24.92.108.36.284v6.133H51.954v-6.029l.336-.336.335-.335h7.166c7.042 0 7.172.005 7.526.283Zm-49.268 9.5c0 .622-.06.818-.336 1.093l-.335.336H2.957l-.316-.297c-.26-.245-.317-.438-.317-1.094v-.797H18.047v.759Zm24.883-.136c0 .685-.279 1.349-.622 1.48-.121.047-3.44.085-7.372.085-8.31 0-7.733.1-7.838-1.347l-.06-.84H42.93v.622Zm24.746.155c0 .61-.064.846-.297 1.094l-.298.316H52.52l-.284-.36c-.206-.263-.283-.559-.283-1.094v-.734H67.676v.778Zm-54.14 4.829v1.094h-6.7v-2.188h6.7v1.094Zm24.882 0v1.094h-6.836v-2.188h6.836v1.094Zm24.746 0v1.094h-6.7v-2.188h6.7v1.094Z" fill="#fff"/></svg>