<svg width="70" height="70" fill="none" xmlns="http://www.w3.org/2000/svg"><path fill-rule="evenodd" clip-rule="evenodd" d="M2.2.224c-.333.117-.863.471-1.179.787-1.079 1.08-1.03.4-.989 13.89.035 11.427.048 11.98.296 12.48.351.708.98 1.31 1.721 1.65.541.25.941.29 3.249.333l2.632.05v5.58h8.14l-.55 1.161-.55 1.161-2.426.002-2.427.001V49.626H7.948c-1.192 0-2.5.062-2.905.137-.903.17-1.694.702-2.239 1.509l-.411.61-.04 5.64-.04 5.641H0v1.958c0 2.348.176 3.011 1.025 3.86 1.062 1.063.668 1.03 11.63.988 10.776-.041 10.126.015 11.136-.967.856-.832 1.015-1.414 1.02-3.72l.003-2.05-1.128-.04-1.127-.04-.006-5.361c-.005-4.005-.05-5.486-.182-5.853-.29-.812-.884-1.46-1.706-1.864l-.772-.38-3.726-.044-3.726-.044v-10.1h2.176l.078.514c.219 1.43.41 2.106.865 3.042.678 1.397 2.055 2.78 3.45 3.468 1.916.943 1.491.92 16.444.874 13.144-.041 13.44-.048 14.243-.324 1.81-.622 3.206-1.64 4.165-3.037.386-.562 1.099-2.02 1.1-2.248 0-.093.065-.4.144-.685l.143-.516 2.283.038 2.283.037.035 4.478.036 4.479h-7.933V70H70V49.626h-7.93V38.413h-6.83l-.08-.376c-.045-.207-.2-.705-.345-1.106-.145-.402-.264-.755-.264-.786 0-.031 1.2-.057 2.666-.057h2.666V22.551h5.605v-2.177l-1.128-.04-1.128-.04V18.108l2.188-.068c2.011-.063 2.236-.096 2.796-.41.711-.4 1.44-1.297 1.641-2.02.088-.316.142-2.828.142-6.605.001-6.92-.006-6.979-1.024-7.996-1.055-1.056-.8-1.032-10.54-.989-8.515.038-8.607.041-9.148.333-.716.387-1.218.93-1.561 1.688-.267.59-.279.87-.279 6.974s.011 6.383.279 6.974c.374.826.876 1.336 1.698 1.725.622.294.865.323 2.7.324l2.017.002v2.324h-2.188v2.188h5.606v11.35h-4.495l-1.025-.735c-.563-.404-1.328-.844-1.699-.978l-.675-.243-.075-1.107c-.287-4.279-3.762-7.78-8.164-8.227-1.765-.179-4.234.457-5.717 1.471-.852.583-2.016 1.69-2.355 2.237l-.272.442-.99-.356c-.867-.313-1.199-.357-2.697-.356-1.515.001-1.834.044-2.802.381a9.6 9.6 0 0 0-3.34 1.956c-.725.64-1.835 2.177-2.19 3.032-.098.237-.237.431-.31.431-.072 0-.592.185-1.156.41l-1.024.41h-8.456v-3.256l2.7-.047c2.688-.046 2.704-.048 3.419-.444.782-.434 1.349-1.078 1.623-1.846.138-.385.177-3.079.182-12.466l.006-11.974-.376-.741c-.42-.827-1.25-1.54-2.054-1.763-.32-.089-2.811-.138-6.662-.131C3.75.009 2.71.043 2.2.224Zm13.107 2.223c.311.167.552.834.552 1.528V4.5H2.324v-.777c0-.61.064-.846.297-1.094l.298-.317h6.069c3.697 0 6.167.053 6.32.134Zm52.052.164.317.297v8.432l-8.99-.035-8.989-.035-.04-3.76c-.043-4.095-.008-4.533.39-4.93.257-.258.528-.267 8.63-.267h8.366l.316.298Zm-51.5 9.821v5.607H2.324V6.826H15.86v5.606Zm51.817 1.855c0 .933-.141 1.217-.701 1.413-.616.214-15.904.21-16.52-.004-.521-.182-.826-.78-.826-1.618v-.552H67.676v.761Zm-6.7 4.914v1.162H56.466V18.04h4.512V19.2Zm-45.143 4.183-.042 3.02-.384.33-.383.33h-5.99c-5.852 0-5.998-.007-6.35-.284l-.36-.283v-6.134h13.55l-.041 3.02Zm-8.997.333v1.166l2.222-.038 2.221-.038.04-1.128.04-1.128H6.836v1.166Zm35.556 1.377c2.706.795 4.593 2.976 4.975 5.752.052.38.028 1.17-.054 1.757-.082.586-.13 1.084-.11 1.105.022.022.498.135 1.059.252.56.117 1.34.37 1.734.562.95.465 2.199 1.84 2.622 2.887 1.207 2.982-.362 6.383-3.42 7.416-.844.285-.992.288-14.198.288s-13.354-.003-14.198-.288c-2.885-.974-4.482-4.078-3.584-6.966.65-2.09 2.448-3.6 4.676-3.927l.675-.1.454-1.127c.555-1.377 1.192-2.226 2.304-3.072 2.143-1.63 4.648-1.82 7.206-.547.712.354 1.331.66 1.377.681.046.02.325-.44.62-1.025.92-1.817 2.71-3.29 4.515-3.713.87-.204 2.542-.172 3.347.065ZM19.92 52.28l.384.33.039 5.277.038 5.276H4.512v-5.137c0-5.246.024-5.508.535-5.9.164-.126 1.959-.168 7.353-.171l7.135-.005.384.33Zm47.757 3.02v3.35H54.14v-6.7h13.535v3.35Zm-11.211 0v1.163H58.652v-2.325H56.465V55.3Zm4.512 0v1.163H65.488v-2.325H60.977V55.3Zm6.699 9.025v3.35H54.14v-6.7h13.535v3.35Zm-11.211 0v1.163h4.512v-2.325h-4.512v1.162Zm6.79-1.07c-.05.05-.09.572-.09 1.161v1.072h2.323v-2.325h-1.07c-.59 0-1.113.041-1.163.091ZM22.56 66.22c0 .535-.077.831-.284 1.094l-.283.36H2.957l-.316-.297c-.26-.245-.317-.438-.317-1.094v-.796H22.56v.733Z" fill="#fff"/></svg>