<svg width="70" height="70" fill="none" xmlns="http://www.w3.org/2000/svg"><path fill-rule="evenodd" clip-rule="evenodd" d="M5.875.165c-.521.24-.99.737-1.19 1.263-.104.277-.15 9.056-.15 28.908 0 24.002-.03 28.51-.193 28.51-.106 0-.638.223-1.182.496-1.202.602-2.017 1.45-2.621 2.726l-.447.943-.046 3.495L0 70H20.635l.941-.545c1.342-.777 2.612-1.248 4.04-1.497 1.826-.32 16.943-.319 18.769 0 1.4.244 2.982.834 4.167 1.555l.8.487H70l-.046-3.494-.046-3.495-.447-.943c-.604-1.277-1.419-2.124-2.621-2.726-.544-.273-1.076-.496-1.181-.496-.161 0-.198-4.633-.228-28.72l-.037-28.722-.29-.39c-.673-.902-.89-.972-3.024-.972-2.133 0-2.35.07-3.024.972-.281.378-.292.582-.33 6.45l-.04 6.061h-2.323c-1.869 0-2.322-.037-2.322-.192 0-.106-.223-.639-.495-1.184-.602-1.204-1.449-2.02-2.724-2.624-.852-.404-1.07-.447-2.282-.447s-1.43.043-2.282.447c-1.276.605-2.122 1.42-2.724 2.624-.272.545-.495 1.078-.495 1.184 0 .158-.64.192-3.526.192-2.886 0-3.526-.034-3.526-.192 0-.106-.223-.639-.495-1.184-.601-1.204-1.448-2.02-2.723-2.624-.852-.404-1.07-.447-2.282-.447-1.209 0-1.431.043-2.272.442-.513.243-1.227.725-1.587 1.07l-.655.628-.654-.628c-.36-.345-1.074-.827-1.587-1.07-.84-.399-1.063-.442-2.272-.442-1.212 0-1.43.043-2.282.447-1.276.605-2.122 1.42-2.724 2.624-.272.545-.495 1.078-.495 1.184 0 .155-.453.192-2.322.192h-2.323l-.04-6.06c-.038-5.87-.049-6.073-.33-6.45-.655-.878-.916-.97-2.857-1.008-1.283-.026-1.909.02-2.212.158Zm3.173 30.303v28.237H6.792V2.231h2.256v28.237Zm54.16 0v28.237h-2.256V2.231h2.256v28.237Zm-40.706-19.03c1.212.359 2.343 1.912 2.343 3.217 0 1.75-1.637 3.388-3.385 3.388-1.748 0-3.385-1.639-3.385-3.388 0-.887.323-1.603 1.053-2.336.99-.993 2.055-1.27 3.373-.88Zm9.026 0c1.212.359 2.344 1.912 2.344 3.217 0 1.75-1.638 3.388-3.385 3.388-1.748 0-3.385-1.639-3.385-3.388 0-.887.322-1.603 1.053-2.336.99-.993 2.055-1.27 3.373-.88Zm18.053 0c1.212.359 2.344 1.912 2.344 3.217 0 1.75-1.637 3.388-3.385 3.388-1.748 0-3.385-1.639-3.385-3.388 0-.887.323-1.603 1.053-2.336.99-.993 2.055-1.27 3.373-.88Zm-33.622 4.54c0 .105.223.638.495 1.183.602 1.203 1.448 2.02 2.724 2.624.852.404 1.07.447 2.282.447 1.209 0 1.431-.043 2.272-.442.513-.243 1.227-.725 1.587-1.07l.654-.628.655.628c.36.345 1.074.827 1.587 1.07.84.399 1.063.442 2.272.442 1.211 0 1.43-.043 2.282-.447 1.275-.605 2.122-1.42 2.723-2.624.272-.545.495-1.078.495-1.184 0-.158.64-.193 3.526-.193 2.886 0 3.526.035 3.526.193 0 .106.223.639.495 1.184.602 1.203 1.449 2.02 2.724 2.624.852.404 1.07.447 2.282.447s1.43-.043 2.282-.447c1.275-.605 2.122-1.42 2.723-2.624.273-.545.496-1.078.496-1.184 0-.155.454-.193 2.327-.193h2.327v13.554h-1.199c-.92 0-1.199-.045-1.199-.193 0-.105-.223-.638-.495-1.183-.602-1.204-1.448-2.02-2.723-2.624-.852-.404-1.07-.447-2.282-.447-1.21 0-1.431.043-2.272.442-.513.243-1.227.725-1.587 1.07l-.655.628-.654-.628c-.36-.345-1.074-.827-1.587-1.07-.84-.399-1.063-.442-2.272-.442-1.212 0-1.43.043-2.282.447-1.276.605-2.122 1.42-2.724 2.624-.272.545-.495 1.078-.495 1.183 0 .158-.64.193-3.526.193-2.886 0-3.526-.035-3.526-.193 0-.105-.223-.638-.495-1.183-.601-1.204-1.448-2.02-2.723-2.624-.852-.404-1.07-.447-2.282-.447s-1.43.043-2.282.447c-1.276.605-2.122 1.42-2.724 2.624-.272.545-.495 1.078-.495 1.183 0 .158-.629.193-3.455.193h-3.456V15.784h2.327c1.873 0 2.327.038 2.327.193Zm8.8 11.273c1.211.358 2.343 1.912 2.343 3.217 0 1.75-1.638 3.388-3.385 3.388-1.748 0-3.385-1.639-3.385-3.388 0-.887.322-1.604 1.053-2.336.99-.993 2.055-1.27 3.373-.881Zm18.052 0c1.213.358 2.344 1.912 2.344 3.217 0 1.75-1.637 3.388-3.385 3.388-1.748 0-3.385-1.639-3.385-3.388 0-.887.323-1.604 1.053-2.336.99-.993 2.055-1.27 3.373-.881Zm9.027 0c1.212.358 2.344 1.912 2.344 3.217 0 1.75-1.638 3.388-3.385 3.388-1.748 0-3.385-1.639-3.385-3.388 0-.887.322-1.604 1.053-2.336.99-.993 2.055-1.27 3.373-.881Zm-33.622 4.54c0 .105.223.638.495 1.183.602 1.203 1.448 2.019 2.724 2.624.852.404 1.07.447 2.282.447 1.211 0 1.43-.043 2.282-.447 1.275-.605 2.122-1.42 2.723-2.624.272-.545.495-1.078.495-1.184 0-.158.64-.193 3.526-.193 2.886 0 3.526.035 3.526.193 0 .106.223.639.495 1.184.602 1.203 1.448 2.019 2.724 2.624.852.404 1.07.447 2.282.447 1.209 0 1.431-.044 2.272-.442.513-.244 1.227-.725 1.587-1.07l.654-.628.655.628c.36.345 1.074.826 1.587 1.07.84.398 1.063.442 2.272.442 1.211 0 1.43-.043 2.282-.447 1.275-.605 2.121-1.42 2.723-2.624.272-.545.495-1.078.495-1.184 0-.148.28-.193 1.2-.193h1.198v13.554h-1.199c-.92 0-1.199-.045-1.199-.193 0-.106-.223-.638-.495-1.183-.602-1.204-1.448-2.02-2.723-2.624-.852-.404-1.07-.447-2.282-.447-1.21 0-1.431.043-2.272.442-.513.243-1.227.725-1.587 1.07l-.655.628-.654-.628c-.36-.345-1.074-.827-1.587-1.07-.84-.399-1.063-.442-2.272-.442-1.212 0-1.43.043-2.282.447-1.276.604-2.122 1.42-2.724 2.624-.272.545-.495 1.077-.495 1.183 0 .149-.29.193-1.269.193-.979 0-1.27-.044-1.27-.193 0-.106-.222-.638-.494-1.183-.602-1.204-1.448-2.02-2.724-2.624-.852-.404-1.07-.447-2.282-.447-1.209 0-1.431.043-2.272.442-.513.243-1.227.725-1.587 1.07l-.654.628-.655-.628c-.36-.345-1.074-.827-1.587-1.07-.84-.399-1.063-.442-2.272-.442-1.211 0-1.43.043-2.282.447-1.275.604-2.121 1.42-2.723 2.624-.272.545-.495 1.077-.495 1.183 0 .148-.28.193-1.2.193h-1.198V31.597h3.456c2.826 0 3.455.035 3.455.193Zm2.029 11.273c1.212.358 2.343 1.911 2.343 3.217 0 1.305-1.131 2.858-2.343 3.217-1.323.39-2.377.115-3.374-.883-1.426-1.428-1.426-3.239 0-4.67.99-.993 2.056-1.271 3.374-.881Zm9.026 0c.775.23 1.944 1.399 2.172 2.174.391 1.324.116 2.38-.881 3.377-.73.731-1.445 1.054-2.332 1.054-1.748 0-3.385-1.639-3.385-3.388 0-.888.323-1.604 1.053-2.336.99-.993 2.055-1.271 3.373-.881Zm13.54 0c1.213.358 2.344 1.911 2.344 3.217 0 1.75-1.637 3.388-3.385 3.388-.887 0-1.602-.323-2.332-1.054-1.427-1.428-1.427-3.239 0-4.67.99-.993 2.055-1.271 3.373-.881Zm9.027 0c1.212.358 2.344 1.911 2.344 3.217 0 1.75-1.638 3.388-3.385 3.388-.887 0-1.602-.323-2.332-1.054-1.427-1.428-1.427-3.239 0-4.67.99-.993 2.055-1.271 3.373-.881Zm-38.135 4.54c0 .105.223.638.495 1.182.601 1.204 1.448 2.02 2.723 2.625.852.404 1.07.447 2.282.447 1.21 0 1.431-.044 2.272-.442.513-.244 1.227-.725 1.587-1.07l.655-.628.654.627c.36.346 1.074.827 1.587 1.07.84.4 1.063.443 2.272.443 1.212 0 1.43-.043 2.282-.447 1.276-.605 2.122-1.42 2.724-2.625.272-.544.495-1.077.495-1.183 0-.149.29-.193 1.269-.193.979 0 1.27.044 1.27.193 0 .106.222.639.494 1.183.602 1.204 1.448 2.02 2.724 2.625.852.404 1.07.447 2.282.447 1.209 0 1.431-.044 2.272-.442.513-.244 1.227-.725 1.587-1.07l.654-.628.655.627c.36.346 1.074.827 1.587 1.07.84.4 1.063.443 2.272.443 1.211 0 1.43-.043 2.282-.447 1.275-.605 2.121-1.42 2.723-2.625.272-.544.495-1.077.495-1.183 0-.148.28-.193 1.2-.193h1.198v11.295h-47.39V47.41h1.199c.92 0 1.199.045 1.199.193Zm51.675 13.532c.775.229 1.943 1.398 2.172 2.174.098.332.172 1.407.172 2.506v1.925H50.11l-1.244-.623c-1.506-.753-3.136-1.278-4.61-1.483-1.785-.249-17.191-.204-18.777.055-1.545.252-2.868.692-4.405 1.466l-1.16.585H2.278v-1.925c0-1.099.074-2.174.172-2.506.212-.72 1.393-1.943 2.085-2.161.747-.236 60.048-.248 60.843-.013Z" fill="#fff"/></svg>