<svg width="70" height="70" fill="none" xmlns="http://www.w3.org/2000/svg"><path fill-rule="evenodd" clip-rule="evenodd" d="m46.12 1.502-.468 1.501-1.294.555-1.295.555-1.432-.735-1.431-.736-2.962 2.963-2.961 2.963.648 1.29c.356.71.647 1.323.647 1.363 0 .04-7.342.074-16.316.074-12.398 0-16.455.041-16.896.171-.775.23-1.944 1.4-2.173 2.175-.25.843-.25 48.679 0 49.523.229.775 1.398 1.945 2.173 2.174.444.131 5.377.172 20.953.174l20.372.003.423.717c1.46 2.47 4.366 3.966 7.279 3.747 3.254-.244 5.895-2.36 6.988-5.6.364-1.076.364-3.44 0-4.517-.93-2.754-3.071-4.785-5.695-5.4l-.74-.173V40.661h-2.258v6.847c0 6.508-.013 6.848-.255 6.848-.512 0-2.017.602-2.846 1.138-2.3 1.488-3.577 3.778-3.593 6.45l-.008 1.305H22.973l-20.008.002-.346-.347-.346-.347v-35.45h16.65c9.157 0 16.649.033 16.649.074 0 .04-.291.654-.648 1.363l-.647 1.29 2.953 2.955 2.954 2.956 1.445-.726 1.445-.726 1.289.553 1.29.553.466 1.501.468 1.502h8.448l.467-1.502.467-1.501 1.29-.553 1.288-.553 1.446.726 1.445.726 2.953-2.955 2.953-2.955-.725-1.447-.725-1.446.548-1.28.548-1.279 1.505-.48 1.505-.48v-8.448l-1.5-.468-1.501-.468-.553-1.29-.552-1.29.725-1.445.725-1.447-2.953-2.955-2.953-2.954-1.446.725-1.445.726-1.289-.553-1.289-.553-.467-1.501L55.034 0h-8.447l-.468 1.502Zm7.686 2.106.394 1.279 1.021.327c.562.18 1.527.581 2.143.89l1.121.563 1.246-.611 1.246-.612 1.791 1.792 1.79 1.792-.61 1.247-.61 1.247.567 1.128c.312.621.705 1.584.873 2.14l.307 1.01 1.294.399 1.293.399v5.206l-1.278.394-1.278.394-.327 1.023c-.18.562-.58 1.527-.89 2.144l-.562 1.121.611 1.247.61 1.247-1.79 1.792-1.79 1.792-1.247-.611-1.246-.612-1.12.563c-.617.309-1.582.71-2.144.89l-1.021.327-.394 1.279-.394 1.279H48.21l-.399-1.295-.398-1.294-.946-.289c-.52-.159-1.486-.55-2.146-.87l-1.199-.582-1.238.607-1.239.608-1.79-1.792-1.792-1.792.611-1.247.61-1.247-.561-1.121c-.31-.617-.71-1.585-.891-2.15l-.33-1.027-1.275-.392-1.277-.392v-5.195l1.277-.391 1.276-.392.329-1.027c.18-.565.582-1.532.89-2.15l.563-1.121-.61-1.247-.612-1.247 1.791-1.792 1.791-1.792 1.239.608 1.238.607 1.2-.581c.659-.32 1.626-.713 2.149-.873l.95-.29.3-1.005a29.35 29.35 0 0 1 .422-1.331l.124-.326 2.573.038 2.574.039.393 1.278Zm-5.303 3.395c-4.939.892-9.025 5.028-9.894 10.012-1.476 8.472 5.877 15.885 14.295 14.413 6.748-1.18 11.297-7.618 10.125-14.33-1.193-6.828-7.676-11.334-14.526-10.095Zm5.341 2.513c1.601.51 2.792 1.253 4.093 2.555 1.289 1.29 2.03 2.473 2.567 4.095.33.997.374 1.352.374 3.035s-.044 2.038-.374 3.035c-.536 1.622-1.278 2.805-2.567 4.095-1.29 1.29-2.472 2.032-4.093 2.57-.997.33-1.352.373-3.033.373-1.682 0-2.037-.044-3.034-.374-1.613-.534-2.793-1.275-4.091-2.57-1.29-1.285-2.03-2.464-2.569-4.093-.33-.998-.373-1.353-.373-3.036s.043-2.038.373-3.035c.537-1.623 1.279-2.805 2.568-4.095 1.587-1.587 3.32-2.526 5.343-2.89 1.26-.229 3.548-.069 4.816.335Zm-3.033 1.75c0 .146-2.085 14.801-2.176 15.296-.067.365-.048.375 1.004.531.59.088 1.1.132 1.135.098.074-.074 2.31-15.645 2.255-15.7-.047-.047-1.796-.335-2.042-.336-.097-.001-.176.05-.176.112Zm-16.069 2.538c-.084.158-.685.42-1.627.708l-1.494.457v8.464l1.494.457c.942.289 1.543.55 1.627.708.128.24-.603.25-16.167.25H2.273V14.247l.346-.347.346-.346h15.956c15.232 0 15.95.011 15.822.25Zm9.824 2.804-1.942 2.594 1.949 2.596 1.948 2.597.825-.617c.453-.34.856-.65.895-.688.038-.038-.575-.93-1.363-1.98l-1.433-1.909 1.44-1.92 1.441-1.92-.345-.265c-.19-.146-.6-.449-.91-.673l-.564-.408-1.941 2.593Zm9.71-1.984c-.454.34-.857.65-.895.688-.039.038.574.93 1.362 1.98l1.433 1.909-1.433 1.91c-.788 1.05-1.4 1.94-1.362 1.98.038.038.44.347.894.687l.825.617 1.949-2.597 1.949-2.597-1.95-2.597-1.948-2.597-.825.617ZM5.863 16.01c-.574.253-1.16.972-1.27 1.558-.05.26-.068 1.176-.041 2.033.052 1.684.173 1.995 1.02 2.628.38.284.544.29 6.859.29 6.314 0 6.48-.006 6.86-.29.901-.674.97-.892.97-3.027 0-2.135-.069-2.353-.97-3.027-.379-.282-.573-.292-6.694-.323-5.026-.025-6.391.007-6.734.158Zm3.182 3.192v1.13H6.788v-2.26h2.258v1.13Zm4.515 0v1.13h-2.258v-2.26h2.258v1.13Zm4.515 0v1.13h-2.258v-2.26h2.258v1.13Zm-9.03 10.35c-.272.086-.814.476-1.205.868-.727.73-1.053 1.448-1.053 2.323 0 .734-.527 1.142-1.475 1.142H4.53v2.26h.783c.948 0 1.475.407 1.475 1.141 0 .876.326 1.594 1.053 2.322.8.8 1.442 1.054 2.667 1.054h.795v-2.259h-.782c-1.001 0-1.476-.4-1.476-1.244 0-.325-.164-.878-.4-1.348l-.402-.796.401-.797c.237-.47.402-1.022.402-1.347 0-.845.474-1.245 1.475-1.245h.782v-2.259l-.882.015c-.485.008-1.104.084-1.375.17Zm4.515.945v1.13h13.545v-2.26H13.561v1.13Zm0 4.518v1.13h13.545v-2.26H13.561v1.13Zm27.09 6.531v4.273l-2.257 2.255-2.258 2.256v4.134l-.428.177c-.948.393-1.83 1.82-1.83 2.963 0 1.75 1.639 3.389 3.387 3.389s3.386-1.64 3.386-3.389c0-1.143-.88-2.57-1.829-2.963l-.428-.177v-3.146l2.258-2.255 2.257-2.256V37.273h-2.258v4.272Zm18.061.494v4.767l2.258 2.256 2.257 2.255v3.146l-.428.177c-.948.393-1.83 1.82-1.83 2.963 0 1.75 1.639 3.389 3.387 3.389s3.386-1.64 3.386-3.389c0-1.143-.88-2.57-1.83-2.963l-.427-.177v-4.134l-2.258-2.256-2.257-2.255v-8.545h-2.258v4.766Zm-45.151-2.508v1.13h9.03v-2.259h-9.03v1.13Zm11.288 0v1.13h2.258v-2.259h-2.258v1.13ZM4.53 44.05v1.13h22.576V42.92H4.53v1.13Zm4.516 4.518v1.13H22.59v-2.26H9.046v1.13Zm15.803 0v1.13h.782c.965 0 1.475.405 1.475 1.172 0 .588.236 1.31.596 1.828.266.382.266.394 0 .776-.36.518-.596 1.24-.596 1.828 0 .767-.51 1.173-1.475 1.173h-.782v2.259h.794c1.225 0 1.867-.254 2.667-1.054.728-.729 1.054-1.447 1.054-2.322 0-.735.526-1.142 1.475-1.142h.782v-2.26h-.782c-.949 0-1.475-.407-1.475-1.141 0-.792-.32-1.552-.946-2.248-.716-.797-1.523-1.128-2.748-1.128h-.822v1.13ZM9.046 53.085v1.13h2.258v-2.26H9.045v1.13Zm4.515 0v1.13h9.03v-2.26h-9.03v1.13Zm-4.515 4.518v1.13H22.59v-2.26H9.046v1.13Zm29.002-.783c.218.219.346.508.346.783s-.128.565-.346.783a1.137 1.137 0 0 1-.783.347c-.275 0-.564-.128-.782-.347a1.138 1.138 0 0 1-.347-.783c0-.275.128-.564.347-.783.218-.218.507-.346.782-.346s.564.128.783.346Zm15.08.193c1.274.596 2.098 1.407 2.729 2.685.498 1.008.527 1.142.527 2.423 0 1.281-.03 1.415-.527 2.423-.635 1.285-1.452 2.085-2.763 2.707-.853.404-1.071.447-2.283.447-1.213 0-1.431-.043-2.283-.447-1.312-.622-2.13-1.422-2.764-2.707-.497-1.007-.527-1.143-.527-2.416 0-1.22.042-1.437.447-2.291.567-1.198 1.374-2.075 2.427-2.636 1.111-.593 1.72-.727 3.017-.665.847.04 1.298.148 2 .477Zm12.01-.193c.219.219.347.508.347.783s-.128.565-.347.783a1.137 1.137 0 0 1-.782.347c-.275 0-.564-.128-.782-.347a1.138 1.138 0 0 1-.347-.783c0-.275.128-.564.347-.783.218-.218.507-.346.782-.346s.564.128.782.346Zm-15.456 2.097c-.693.218-1.874 1.442-2.086 2.161-.391 1.324-.115 2.38.882 3.377.73.731 1.445 1.054 2.333 1.054.887 0 1.602-.323 2.333-1.054 1.378-1.38 1.42-3.134.108-4.595-.914-1.016-2.233-1.365-3.57-.943Zm1.911 2.421c.218.218.346.508.346.783s-.128.564-.346.783a1.137 1.137 0 0 1-.782.346c-.275 0-.565-.128-.783-.346a1.138 1.138 0 0 1-.346-.783c0-.275.128-.565.346-.783.218-.218.508-.346.783-.346s.564.128.782.346Z" fill="#fff"/></svg>