<svg width="70" height="70" fill="none" xmlns="http://www.w3.org/2000/svg"><path fill-rule="evenodd" clip-rule="evenodd" d="M54.194 7.904v7.905H70V0H54.194v7.904Zm13.548 0v5.646h-11.29V2.258h11.29v5.646ZM58.71 5.646v1.13h6.774v-2.26H58.71v1.13ZM29.16 6.923c-.893.224-2.164.977-2.781 1.646-.317.344-.777 1.05-1.023 1.568-.405.854-.447 1.07-.447 2.291 0 1.273.03 1.408.527 2.415.635 1.285 1.452 2.085 2.764 2.707.853.404 1.071.446 2.284.446 1.212 0 1.43-.042 2.283-.446 1.312-.622 2.13-1.422 2.764-2.707.498-1.008.528-1.141.528-2.422 0-1.28-.03-1.414-.528-2.422-.953-1.93-2.648-3.062-4.73-3.162-.601-.028-1.34.01-1.641.086Zm18.26 6.063v6.21h2.258V9.033h2.258V6.775H47.418v6.21Zm-15.894-3.78c1.213.357 2.345 1.91 2.345 3.215 0 1.749-1.638 3.388-3.387 3.388-1.305 0-2.857-1.133-3.216-2.346-.39-1.323-.115-2.377.882-3.377.99-.993 2.057-1.27 3.376-.88Zm27.184.957v1.129h6.774V9.033H58.71v1.13ZM9.032 22.583v7.905H6.774V19.196H0v13.55h24.839V21.454h-6.775v9.034h-2.258V14.679H9.032v7.905Zm4.516 1.13v6.775H11.29v-13.55h2.258v6.775Zm15.807 2.823v6.21h9.032v-2.258h-6.774V20.325h-2.258v6.21Zm21.426-5.204c-.427 1.325-.633 1.422-1.784.841-.475-.24-.946-.436-1.046-.436-.235 0-5.895 5.662-5.895 5.898 0 .099.197.568.437 1.044.58 1.15.483 1.357-.842 1.783l-1.006.325v8.436l1.006.324c1.325.427 1.423.633.842 1.784-.24.475-.437.945-.437 1.043 0 .099 1.148 1.328 2.55 2.733l2.55 2.553.54 2.142.539 2.143-.373.09c-2.351.564-3.443 3.243-2.105 5.165.266.383.266.394 0 .776-.59.85-.737 1.853-.424 2.913.32 1.085 1.908 2.345 2.954 2.345.137 0 .246.302.353.977a6.9 6.9 0 0 0 5.066 5.582c3.771.983 7.68-1.646 8.3-5.582.106-.675.215-.977.353-.977.627 0 1.421-.404 2.071-1.053 1.139-1.139 1.355-2.402.652-3.796l-.401-.797.401-.796c.436-.864.505-1.579.238-2.47-.306-1.021-1.411-2.018-2.537-2.288l-.373-.09.54-2.142.538-2.142 2.55-2.553c1.403-1.405 2.55-2.634 2.55-2.733 0-.098-.196-.568-.435-1.043-.581-1.15-.484-1.357.84-1.784L70 39.223V30.786l-1.006-.324c-1.325-.426-1.422-.633-.841-1.783.24-.476.436-.946.436-1.047 0-.235-5.662-5.895-5.898-5.895-.098 0-.568.196-1.043.436-1.15.581-1.357.484-1.784-.841l-.324-1.007H51.105l-.324 1.007Zm-46.265 4.64v4.516H2.258v-9.034h2.258v4.517Zm53.703-2.603.279.786 1.164.465 1.165.465.733-.34.734-.34 1.813 1.814 1.813 1.813-.34.734-.34.734.466 1.164.465 1.165.785.28.786.279v5.234l-.786.279-.785.28-.465 1.164-.466 1.164.34.734.34.734-1.813 1.813-1.813 1.814-.734-.34-.733-.34-1.165.465-1.164.465-.28.786-.279.786H52.706l-.28-.786-.279-.787-1.155-.468-1.156-.47-.742.345-.743.344-1.813-1.814-1.813-1.813.34-.734.34-.734-.465-1.164-.466-1.164-.785-.28-.786-.28V32.389l.786-.28.785-.28.466-1.164.465-1.164-.34-.734-.34-.734 1.813-1.813 1.813-1.813.743.344.742.344 1.156-.47 1.155-.468.28-.786.279-.786H57.939l.28.785ZM22.58 27.1v3.388h-2.258v-6.775h2.258V27.1Zm30.78-.91c-1.557.337-3.185 1.249-4.392 2.458-3.531 3.538-3.56 9.168-.065 12.638 1.725 1.713 3.616 2.58 5.912 2.708 4.119.231 7.896-2.4 9.155-6.378.443-1.401.443-3.821 0-5.222-1.422-4.494-6.042-7.196-10.61-6.205Zm3.579 2.256a6.89 6.89 0 0 1 4.946 4.963c.914 3.51-1.332 7.213-4.946 8.155-3.526.918-7.233-1.323-8.175-4.942-1.257-4.826 3.35-9.433 8.175-8.176Zm-2.676 2.164a4.774 4.774 0 0 0-3.03 2.49c-.279.573-.343.929-.347 1.905-.004 1.1.035 1.273.475 2.089.534.99.977 1.418 2.04 1.97.615.32.898.375 1.92.375 1.024 0 1.306-.055 1.92-.374 1.065-.553 1.507-.98 2.041-1.971.44-.815.48-.99.477-2.09-.003-1.019-.06-1.307-.378-1.92-.55-1.058-.98-1.507-1.935-2.016-.91-.485-2.312-.687-3.183-.458Zm1.952 2.329c1.45.606 1.803 2.507.676 3.635-1.586 1.586-4.184.165-3.767-2.06.25-1.328 1.795-2.117 3.09-1.575ZM11.29 37.263v2.258h27.097v-2.258H13.548v-2.258H11.29v2.258Zm0 9.034v2.258h2.258v-2.258h24.84v-2.259H11.29v2.259Zm38.98 1.305c.122.097.362.605.532 1.13l.31.952h8.428l.324-1.006c.234-.727.414-1.048.647-1.154.656-.299.671.023.106 2.292l-.53 2.126H50.558l-.524-2.107c-.289-1.16-.483-2.176-.432-2.259.124-.2.396-.19.669.026Zm-39.615 2.225c-2.049.374-3.817 1.322-5.375 2.88-1.272 1.271-2.013 2.468-2.571 4.152-.314.945-.36 1.324-.36 2.988.001 1.682.045 2.038.375 3.034.536 1.622 1.278 2.804 2.568 4.094 1.29 1.29 2.472 2.032 4.093 2.569.997.33 1.352.373 3.034.373 1.683 0 2.038-.043 3.035-.374 1.62-.536 2.803-1.278 4.093-2.568s2.031-2.472 2.568-4.094c.33-.997.373-1.352.373-3.034 0-1.683-.043-2.038-.373-3.035-.537-1.621-1.279-2.804-2.568-4.094-1.97-1.97-4.004-2.87-6.704-2.967-.815-.03-1.8.005-2.188.076Zm3.256 2.266c2.719.49 5.126 2.667 6.076 5.495.394 1.173.363 3.443-.063 4.685-.846 2.462-2.702 4.282-5.247 5.141-1.074.363-3.438.364-4.516.001-3.826-1.286-6.097-4.863-5.535-8.718a7.857 7.857 0 0 1 4.307-5.89c1.669-.822 3.178-1.038 4.978-.714Zm48.968 2.454c.219.219.347.508.347.783s-.128.564-.347.783l-.346.346h-14.42l-.347-.346a1.138 1.138 0 0 1-.347-.783c0-.275.128-.564.347-.783l.346-.346h14.421l.346.346ZM13.092 58.68l-2.926 2.926-.677-.667c-.373-.367-.742-.668-.82-.668-.181 0-1.471 1.306-1.471 1.49 0 .076.667.803 1.482 1.616l1.483 1.478 3.739-3.738c2.056-2.056 3.74-3.804 3.74-3.885 0-.184-1.302-1.478-1.488-1.478-.075 0-1.453 1.317-3.062 2.926Zm49.787.385c.219.218.347.508.347.783s-.128.564-.347.782l-.346.347h-14.42l-.347-.347a1.138 1.138 0 0 1-.347-.782c0-.275.128-.565.347-.783l.346-.346h14.421l.346.346ZM59.771 63.9c-.112.748-.587 1.766-1.117 2.396-.194.23-.753.636-1.243.9-.812.438-.993.48-2.088.48-1.096 0-1.277-.042-2.09-.48-.488-.264-1.048-.67-1.242-.9-.53-.63-1.005-1.648-1.117-2.396l-.1-.666H59.871l-.1.666Z" fill="#fff"/></svg>