<svg width="70" height="70" fill="none" xmlns="http://www.w3.org/2000/svg"><path fill-rule="evenodd" clip-rule="evenodd" d="M2.26 7.932v7.933h6.713V21.196l-.923 1.848-.922 1.847H4.303c-2.703 0-2.844.013-3.277.308-.249.17-.582.481-.74.694C.01 26.265 0 26.43 0 30.485v4.206l.395.517c.656.86.868.898 4.943.898h3.635v8.728c0 9.87-.029 9.577 1.036 10.64.963.961 1.284 1.01 6.728 1.01h4.701l.003 5.436c.003 5.173.017 5.466.282 6.052.344.759.847 1.301 1.565 1.688.546.294.577.295 11.412.332 7.276.025 11.04-.01 11.398-.106.825-.222 1.661-.93 2.087-1.769l.377-.741V56.484h4.7c5.445 0 5.766-.049 6.73-1.01 1.064-1.063 1.035-.77 1.035-10.64v-8.728h3.635c4.075 0 4.287-.039 4.943-.898L70 34.69v-6.463c0-6.343-.005-6.47-.287-6.849a3.664 3.664 0 0 0-.739-.693c-.442-.301-.54-.308-4.2-.308h-3.747v-4.513h6.713V0H51.986v15.865H58.7v5.474l-.892 1.776-.891 1.776h-2.752c-3.144 0-3.46.078-4.074 1.003l-.364.55v8.109l.364.55c.639.963.835 1.003 4.965 1.003h3.644v17.458l-.317.297c-.313.294-.38.298-5.063.298h-4.746l-.04-5.573-.04-5.574-.38-.645c-.445-.756-1.33-1.41-2.173-1.604-.336-.077-2.62-.139-5.22-.14l-4.624-.004v-4.513h3.747c3.67 0 3.756-.007 4.209-.311a3.42 3.42 0 0 0 .773-.773l.312-.461V21.923l-.308-.452c-.7-1.027-.655-1.017-4.873-1.093l-3.792-.069-.037-2.22-.038-2.22 3.394-.036 3.394-.037.035-7.898L42.947 0H27.053l.035 7.898.035 7.898 3.39.037 3.391.036v5.196l-.96 1.913-.96 1.913h-2.787c-2.672 0-2.806.013-3.249.311a3.42 3.42 0 0 0-.774.772c-.306.455-.311.525-.311 4.524 0 4 .005 4.07.311 4.524.172.254.52.602.774.773.453.304.539.31 4.21.31h3.746v4.514l-4.623.003c-2.601.002-4.885.064-5.221.141-.842.194-1.728.848-2.173 1.604l-.38.645-.04 5.574-.04 5.573h-9.53l-.298-.317-.298-.316v-17.42h3.636c4.118 0 4.394-.058 5.015-1.056l.322-.517V21.93l-.364-.55c-.639-.963-.835-1.003-4.965-1.003h-3.644v-4.513h6.713V0H2.26v7.932Zm13.562 0v5.608H4.452V2.325h11.37v5.607Zm24.794 0v5.608H29.384V2.325h11.232v5.607Zm24.932 0v5.608h-11.37V2.325h11.37v5.607ZM6.78 5.676v1.162h6.712V4.513H6.781v1.163Zm24.823-.034.04 1.128h6.712l.04-1.128.04-1.129h-6.872l.04 1.129Zm24.903.034v1.162h6.712V4.513h-6.712v1.163ZM6.78 10.189v1.162h6.712V9.026H6.781v1.163Zm24.823-.034.04 1.128h6.712l.04-1.128.04-1.129h-6.872l.04 1.129Zm24.903.034v1.162h6.712V9.026h-6.712v1.163Zm-38.493 13.54v1.162h-4.11c-2.602 0-4.11-.05-4.11-.134 0-.074.23-.598.51-1.163l.51-1.028h7.2v1.163Zm24.931 0v1.162h-4.178c-2.298 0-4.178-.032-4.178-.071 0-.04.247-.563.55-1.163l.549-1.09h7.257v1.162Zm24.795 0v1.162h-4.11c-2.26 0-4.11-.032-4.11-.071 0-.04.248-.563.55-1.163l.55-1.09h7.12v1.162Zm-49.726 6.77v3.418H2.26V27.08h15.754v3.42Zm24.931 0v3.418h-15.89V27.08h15.89v3.42Zm24.795 0v3.418H51.986V27.08H67.74v3.42ZM45.97 43.296c.327.347.332.392.373 3.35l.042 2.998h-22.77l.042-2.998c.041-2.958.046-3.003.374-3.35l.332-.353h21.274l.332.352Zm-20.011 2.998v1.162h2.192v-2.325h-2.192v1.163Zm4.52 0v1.162h2.192v-2.325H30.48v1.163Zm15.89 9.026v3.35H23.63v-6.7h22.74v3.35Zm-9.12-.978c-.039.102-.052.61-.03 1.128l.041.944 1.13.04 1.13.04v-2.336h-1.1c-.797 0-1.12.05-1.17.184Zm4.6.978v1.163h2.192v-2.325H41.85v1.162Zm4.52 8.46c0 2.876-.096 3.54-.552 3.783-.342.183-21.293.183-21.634 0-.456-.243-.553-.907-.553-3.784v-2.783h22.74v2.783Zm-20.41.566v1.163h2.192v-2.325h-2.192v1.162Zm4.52 0v1.163h2.192v-2.325H30.48v1.162Z" fill="#fff"/></svg>