<svg width="70" height="70" fill="none" xmlns="http://www.w3.org/2000/svg"><path fill-rule="evenodd" clip-rule="evenodd" d="M14.582.206c-2.89.552-5.166 1.769-7.25 3.876-1.817 1.838-2.987 3.927-3.62 6.461-.334 1.342-.334 4.69 0 6.03 1.356 5.433 5.601 9.405 11.027 10.32l.994.167.038 3.402.038 3.402-1.096.09c-6.915.562-11.755 2.37-13.728 5.125C-.039 40.51 0 39.977 0 52.554c0 12.298-.042 11.63.811 12.865 1.077 1.56 4.528 3.14 8.502 3.892 2.813.532 4.117.642 7.62.64 4.52-.004 7.384-.384 10.72-1.422 3.34-1.04 5.24-2.365 5.994-4.177.178-.428.218-1.205.218-4.203v-3.678l3.421.038 3.422.038.104.835c.24 1.933 1.163 4.364 2.318 6.11.68 1.03 2.267 2.712 3.33 3.53 4.405 3.393 10.426 3.931 15.484 1.385 1.446-.727 2.132-1.22 3.42-2.45 2.425-2.318 3.893-5.072 4.415-8.28 1.034-6.356-2.197-12.558-8.082-15.514-1.159-.582-3.083-1.169-4.339-1.324l-.846-.105-.037-7.94-.036-7.94h5.312c3.757 0 5.48-.051 5.892-.172.775-.23 1.944-1.399 2.173-2.174.245-.833.245-19.324 0-20.156-.23-.775-1.398-1.945-2.173-2.174-.783-.231-9.176-.24-9.943-.01-.808.242-1.43.832-2.824 2.68L53.61 4.524h-5.024c-3.532 0-5.196.051-5.605.172-.775.229-1.944 1.398-2.172 2.174-.107.36-.172 1.529-.172 3.072v2.491l-5.106-.037-5.105-.037-.168-.995c-.25-1.482-.585-2.527-1.22-3.795A13.762 13.762 0 0 0 20.02.355c-1.26-.31-4.176-.39-5.437-.15Zm52.801 2.406c.347.346.347.347.347 3.388v3.042H42.895v-.783c0-.643.063-.845.347-1.13l.346-.346H54.741l1.501-2.012c.826-1.106 1.628-2.123 1.783-2.259.256-.224.691-.247 4.647-.247h4.365l.346.347ZM13.18 3.76c-.708 1.056-1.422 2.423-1.82 3.482l-.25.67H7.18l.254-.443c.452-.785 2.298-2.638 3.274-3.288.825-.548 2.971-1.546 3.084-1.434.021.022-.254.478-.613 1.013Zm5.679 1.36c.341.52.81 1.347 1.04 1.835l.42.887-1.693.04c-.931.021-2.46.021-3.396 0l-1.703-.04.577-1.154c.617-1.232 1.564-2.615 2.37-3.46l.496-.519.634.731c.348.402.913 1.158 1.255 1.68Zm3.91-1.208c.929.556 3.241 2.795 3.66 3.545l.256.455H22.756l-.251-.67c-.397-1.058-1.111-2.425-1.818-3.48-.357-.533-.65-.992-.65-1.02 0-.131 1.963.71 2.733 1.17ZM58.7 5.654v1.129h2.258V4.524h-2.258v1.13Zm4.515 0v1.129h2.258V4.524h-2.258v1.13Zm-52.87 5.4c-.146 1.134-.146 3.876 0 5.011l.112.883H6.202l-.14-.369c-.077-.202-.215-.964-.307-1.694-.172-1.358-.022-3.48.307-4.346l.14-.368h4.254l-.113.882Zm10.919.246c.273 1.73.19 4.166-.183 5.403-.07.231-.362.246-4.193.211l-4.117-.037-.167-1.059c-.274-1.73-.192-4.165.183-5.402.07-.232.362-.247 4.192-.212l4.117.038.168 1.058Zm6.66-.352c.26.944.26 4.278 0 5.223l-.196.706-2.156.039-2.156.039.11-.957c.06-.526.11-1.623.11-2.439 0-.815-.05-1.912-.11-2.439l-.11-.956 2.156.039 2.156.039.195.706ZM67.73 16.6v5.3l-.347.347-.346.346H43.588l-.346-.346-.346-.347v-10.6H67.73v5.3Zm-54.184-3.042v1.13h2.258v-2.26h-2.258v1.13Zm4.515 0v1.13h2.258v-2.26h-2.258v1.13Zm22.577 4.749c0 2.428.056 3.81.172 4.2.228.775 1.397 1.945 2.172 2.174.411.121 2.135.171 5.893.171h5.311l-.036 7.94-.037 7.941-.834.105c-4.718.59-9.14 3.873-11.232 8.337-.607 1.296-1.078 2.872-1.235 4.136l-.104.835-3.422.038-3.421.038v-6.471c0-5.31-.038-6.598-.21-7.177-.628-2.117-3.15-4.055-6.845-5.26-2.135-.696-4.38-1.095-7.657-1.362l-1.096-.09.037-3.4.038-3.402 1.095-.185a13.53 13.53 0 0 0 8.464-5.129c1.297-1.708 2.641-5.014 2.645-6.505.001-.2.044-.408.096-.46.051-.05 2.369-.093 5.15-.093h5.056v3.619Zm4.515.898v1.13h2.258v-2.26h-2.258v1.13Zm4.516 0v1.13h2.258v-2.26h-2.258v1.13Zm4.515 0v1.13H56.44v-2.26h-2.258v1.13Zm-42.823.67c.397 1.06 1.111 2.426 1.82 3.483.358.535.634.99.613 1.01-.118.119-2.198-.842-3.043-1.404-1.011-.672-2.857-2.518-3.316-3.316l-.254-.443h3.928l.252.67Zm8.741-.14c-.548 1.317-1.984 3.486-2.84 4.294l-.4.376-.845-1.033c-.841-1.029-2.042-2.979-2.313-3.757l-.143-.41H20.323l-.22.53Zm6.328-.087c-.46.798-2.304 2.643-3.315 3.316-.846.562-2.926 1.523-3.044 1.405-.02-.021.255-.476.614-1.011.708-1.057 1.422-2.423 1.82-3.482l.251-.67H26.685l-.255.442Zm-4.603 16.842c5.614.827 9.78 3.086 9.78 5.303 0 2.216-4.137 4.443-9.877 5.318-2.005.306-7.163.345-9.171.07-3.11-.427-6.308-1.429-8.024-2.514-3.018-1.91-3.018-3.838 0-5.747 1.756-1.11 5.142-2.158 8.024-2.483a748.2 748.2 0 0 0 1.834-.208c1.021-.12 6.052.058 7.434.26Zm-11.667 2.1c-.272.085-.814.476-1.204.868-.998 1-1.273 2.054-.882 3.378.229.775 1.398 1.945 2.173 2.174.821.243 12.55.243 13.372 0 .775-.23 1.944-1.399 2.173-2.174.369-1.251.122-2.306-.774-3.303-1.02-1.136-.978-1.13-8.146-1.114-4.101.01-6.387.068-6.712.17Zm13.2 2.42c.218.219.346.508.346.783s-.128.565-.347.783l-.346.347h-12.16l-.347-.347a1.138 1.138 0 0 1-.346-.783c0-.275.128-.564.346-.782l.346-.347h12.16l.347.346Zm34.145 2.13c2.445.426 4.754 1.64 6.561 3.448 3.841 3.842 4.738 9.58 2.26 14.445-.28.549-.57 1.018-.646 1.044-.076.025-.322-.288-.547-.696-.226-.407-.959-1.287-1.63-1.955-.97-.967-1.469-1.338-2.445-1.822l-1.226-.608.554-.6c2.385-2.59 2.201-6.799-.406-9.287-3.785-3.612-9.904-1.84-11.23 3.253-.537 2.062.06 4.483 1.49 6.034l.553.6-1.226.608c-.976.484-1.475.855-2.445 1.822-.671.668-1.404 1.548-1.63 1.955-.225.408-.471.72-.547.696-.076-.026-.366-.495-.646-1.044-2.48-4.87-1.585-10.599 2.26-14.445 2.908-2.91 6.874-4.16 10.946-3.449ZM4.586 47.26c2.962 1.478 6.606 2.25 11.288 2.39 6.144.184 11.797-1.073 15.134-3.364l.6-.412v4.248l-.496.548c-1.23 1.363-4.6 2.582-8.888 3.214-2.383.351-8.2.351-10.583 0-4.287-.632-7.657-1.851-8.888-3.214l-.495-.548v-4.248l.6.412c.33.226 1.107.665 1.728.975Zm52.85.76c.955.51 1.386.958 1.935 2.017.319.613.375.901.378 1.92.003 1.1-.037 1.276-.476 2.09-.534.991-.977 1.419-2.04 1.972-.615.32-.898.374-1.92.374-1.023 0-1.306-.055-1.92-.374-1.064-.553-1.507-.98-2.04-1.972-.44-.815-.48-.989-.475-2.09.005-1.415.34-2.262 1.256-3.178 1.409-1.409 3.518-1.71 5.302-.759ZM5.786 54.84c1.825.609 3.521.991 5.8 1.307 2.192.304 7.96.347 10.144.075 3.586-.446 6.79-1.326 8.854-2.432l1.023-.548V56.9l-.495.548c-1.23 1.363-4.6 2.582-8.888 3.214-2.383.352-8.2.352-10.583 0-4.287-.632-7.657-1.85-8.888-3.214l-.495-.548v-3.658l1.023.552c.563.303 1.69.774 2.505 1.046Zm53.212 4.344c1.245.468 2.031.946 2.845 1.73.763.735 1.697 2.11 1.947 2.868.161.488.15.523-.31.917-.778.666-2.273 1.616-3.169 2.013-1.652.73-2.926.981-4.998.981-2.186 0-3.52-.285-5.305-1.132-1.127-.535-3.303-2.094-3.301-2.365.002-.324.673-1.589 1.24-2.338a7.612 7.612 0 0 1 2.93-2.36c1.404-.654 2.064-.751 4.788-.706 2.155.036 2.494.076 3.333.392ZM5.786 61.615c1.82.608 3.515.99 5.8 1.31 2.441.34 8.252.34 10.693 0 3.395-.475 6.393-1.325 8.305-2.356l1.023-.551v3.658l-.495.548c-1.23 1.363-4.6 2.581-8.888 3.214-2.383.351-8.2.351-10.583 0-4.287-.633-7.657-1.851-8.888-3.214l-.495-.548V60.018l1.023.551c.563.303 1.69.774 2.505 1.046Z" fill="#fff"/></svg>