<svg width="70" height="70" fill="none" xmlns="http://www.w3.org/2000/svg"><path fill-rule="evenodd" clip-rule="evenodd" d="M50.421.148c-4.741.8-8.818 3.417-11.42 7.33-1.891 2.843-2.8 5.718-2.84 8.988l-.018 1.538-17.16.001H1.823l-.596.316a2.089 2.089 0 0 0-.911.913L0 19.834l.036 18.711.035 18.711.286.386c.157.213.49.525.738.695.451.307.454.307 6.443.307h5.992v4.516h-9.7l-1.71 3.42L.413 70h25.483c14.015 0 25.483-.03 25.483-.068 0-.037-.753-1.576-1.673-3.42l-1.672-3.353h-9.636v-4.516h11.984l.464-.309c.256-.17.603-.583.772-.918.285-.565.307-.79.307-3.086v-2.477l.786.054c1.058.074 2.608-.273 3.838-.857 1.956-.931 3.659-3.078 4.137-5.218.144-.644.206-.735.5-.735.444 0 1.262-.475 1.602-.932.262-.352.276-.638.342-7.041l.068-6.674.753-.646c1.683-1.445 3.303-3.507 4.27-5.436.505-1.006 1.127-2.848 1.41-4.173.348-1.62.353-4.966.012-6.568-.737-3.462-2.231-6.245-4.667-8.695C62.61 2.554 59.745.996 56.41.277c-1.415-.306-4.544-.373-5.99-.129Zm5.437 2.34c4.51.927 8.228 3.751 10.25 7.787 1.096 2.187 1.53 4.04 1.53 6.547 0 3.4-.906 6.182-2.887 8.866-.731.991-2.155 2.394-3.167 3.123l-.642.461v4.617l-1.127-.04-1.127-.04-.038-2.525-.037-2.524.99-.998.99-.998-.813-.823-.812-.822-1.267 1.264-1.268 1.264v6.242l-1.127-.04-1.127-.04-.037-3.386-.036-3.387H51.924v6.853l-1.127-.04-1.127-.04-.037-3.083-.036-3.084-1.265-1.262-1.265-1.261-.813.822-.812.823.987.994.986.995v5.136l-1.127-.04-1.127-.04-.038-2.275-.037-2.275-1.025-.787a14.564 14.564 0 0 1-4.467-5.721c-.794-1.844-1.075-3.15-1.154-5.36-.078-2.191.199-3.937.922-5.816 1.212-3.146 3.837-6.088 6.835-7.657 1.178-.617 3.152-1.312 4.24-1.493 1.262-.21 4.266-.175 5.421.062Zm-6.256 2.959v.987l-.685-.676-.686-.676-2.387 2.389-2.388 2.388.711.721.711.721h-1.972v6.705h1.972l-.711.721-.711.721 2.388 2.389 2.387 2.388.679-.67.678-.668.041.946.04.946 3.383.036 3.381.037v-1.979l.685.676.685.676 2.388-2.388 2.388-2.389-.711-.721-.712-.721h1.972V11.3h-.888c-.488 0-.888-.044-.888-.098 0-.053.276-.378.613-.721l.614-.624L60.19 7.47l-2.388-2.388-.685.676-.685.676V4.46h-6.832v.987Zm4.537 2.447.04 1.108.998.42.998.419.813-.805.812-.805.82.813.82.813-.81.825-.812.825.42.992.42.992h2.284v2.315l-1.177.04-1.177.039-.383.958-.383.958.809.825.809.824-.79.784-.79.783-.748-.762c-.843-.859-.905-.867-2.229-.28l-.773.342v2.204h-2.186v-2.283L51 19.875c-.51-.2-.984-.364-1.055-.364-.071 0-.471.339-.89.753l-.759.752-.811-.82-.812-.822.785-.793.784-.794-.389-.95-.389-.952-1.15-.068-1.152-.069-.04-1.123-.04-1.124 1.18-.04 1.18-.039.42-1 .419-1-.805-.814-.805-.815.781-.782.781-.783.819.811.818.811.993-.412.994-.413.04-1.12.04-1.119H54.098l.04 1.108Zm-2.551 3.689c-1.76.878-2.426 2.931-1.503 4.629 1.435 2.64 5.209 2.285 6.16-.58.53-1.6-.352-3.474-1.95-4.143-.667-.279-2.057-.23-2.707.094Zm2.187 2.243c.594.595.408 1.57-.35 1.834-.506.177-.975.026-1.282-.412-.759-1.086.7-2.356 1.632-1.422ZM36.67 21.201c.12.477.257.97.305 1.094.08.21-1.11.226-16.188.226H4.512v31.606l14.654.035 14.654.035.04 1.128.04 1.13H2.326V20.331H36.45l.218.869Zm2.128 4.846c.523.843 1.236 1.688 2.425 2.872l1.684 1.678v3.9L40.803 36.6l-2.104 2.103-.444-.155c-.57-.198-1.469-.198-2.038 0l-.445.156-3.383-3.386-3.384-3.386.195-.635c.334-1.092.036-2.225-.826-3.144-1.08-1.15-2.68-1.397-4.05-.625a3.397 3.397 0 0 0-1.637 3.761l.169.705-3.331 3.341c-2.704 2.713-3.382 3.325-3.604 3.256-.15-.048-.629-.119-1.064-.159-1.011-.093-1.806.2-2.54.935-1.524 1.525-1.234 4.118.585 5.245.912.564 2.241.655 3.148.216 1.537-.746 2.36-2.589 1.834-4.103l-.155-.445 2.369-2.375c1.303-1.307 2.384-2.36 2.404-2.34.019.019-.455 1.34-1.053 2.937l-1.087 2.903v10.534H6.835V24.847l15.61.003 15.61.002.742 1.195ZM26.72 29.698c.678.679.198 1.854-.757 1.854-.572 0-1.093-.532-1.093-1.114 0-.98 1.15-1.44 1.85-.74Zm-.388 4.35c.147.195.724 1.704.724 1.894 0 .069-.518.125-1.15.125h-1.15l.35-.924c.412-1.084.534-1.265.857-1.265a.52.52 0 0 1 .37.17Zm7.71 6.676c-.229.66-.182 1.767.101 2.393.558 1.228 1.726 1.975 3.092 1.975 1.861 0 3.337-1.422 3.345-3.224.001-.384-.067-.898-.153-1.143-.154-.444-.15-.45 1.162-1.764l1.316-1.319v2.955c0 2.847.012 2.972.311 3.417.382.566 1.123 1.083 1.554 1.083h.322V51.938H31.566v-10.5l-1.093-2.908c-.602-1.6-1.093-2.947-1.093-2.993 0-.047 1.084 1.001 2.41 2.328l2.409 2.413-.155.446Zm26.9-3.494v1.163H45.092v-1.072c0-.59.04-1.113.09-1.163.05-.05 3.617-.091 7.926-.091h7.833v1.163Zm-32.507 2.292.39 1.06H25.96c-1.576 0-2.866-.015-2.866-.034 0-.03.197-.552.67-1.782l.146-.38 2.068.038 2.069.037.39 1.06Zm-12.932 1.476c.354.348.354 1.145 0 1.5-.147.147-.464.306-.705.355-.369.073-.505.021-.854-.329-.462-.463-.525-.903-.196-1.374.427-.61 1.22-.678 1.755-.152Zm22.514-.03c.13.127.276.428.324.67.074.369.021.505-.328.854-.483.484-.938.53-1.427.145-.436-.343-.571-.868-.346-1.339.337-.705 1.227-.87 1.777-.33Zm22.924.777v1.163H45.093v-1.072c0-.59.04-1.112.09-1.163.05-.05 3.617-.09 7.926-.09h7.833v1.162ZM24.87 47.424v4.515h-2.322V42.908h2.323v4.516Zm4.51 0v4.515h-2.323V42.908h2.323v4.516Zm29.05-1.895c-.273 1.372-1.437 2.765-2.923 3.5-1.005.498-1.09.515-2.485.515-1.369 0-1.495-.024-2.394-.468-1.18-.58-2.07-1.457-2.638-2.598-.757-1.515-1.249-1.38 5.044-1.38h5.483l-.086.43Zm-9.216 5.395.388.2v5.33h-4.52l.04-1.129.039-1.129 1.127-.04 1.127-.039V49.606l.706.56c.388.306.88.648 1.093.758ZM38.37 55.325l.04 1.13h-2.334v-1.073c0-.59.043-1.115.096-1.168.053-.053.56-.079 1.127-.057l1.031.04.04 1.128Zm4.509 0 .04 1.13h-2.334v-1.073c0-.59.043-1.115.096-1.168.053-.053.56-.079 1.127-.057l1.031.04.04 1.128Zm-6.803 5.576v2.258H15.853v-4.516h20.222v2.258Zm24.241.263c-1.945.444-3.998 1.94-5.014 3.655-.69 1.165-1.016 2.28-1.133 3.865L54.074 70H70l-.078-1.334c-.043-.75-.2-1.728-.359-2.233-.717-2.287-2.766-4.34-5.058-5.069-1.145-.364-3.069-.456-4.189-.2Zm3.206 2.283c1.409.318 2.874 1.509 3.567 2.899.726 1.454 1.206 1.328-5.054 1.328-4.281 0-5.465-.037-5.465-.171 0-.459.883-1.963 1.534-2.614 1.441-1.442 3.266-1.928 5.419-1.442Zm-16.341 3.066c.279.566.508 1.058.508 1.095 0 .036-9.808.066-21.795.066H4.099l.55-1.095.549-1.094h41.474l.509 1.028Z" fill="#fff"/></svg>