<svg width="64" height="70" fill="none" xmlns="http://www.w3.org/2000/svg"><path fill-rule="evenodd" clip-rule="evenodd" d="M28.559.212c-.19.186-.216.924-.216 6.063v5.851l.305.21c.252.174.803.21 3.218.21h2.914v4.25l-3.883 2.125-3.883 2.124h-4.197c-3.985 0-4.197-.013-4.197-.248 0-.48-.836-1.889-1.452-2.448-.836-.759-1.692-1.111-2.883-1.187-2.208-.141-4.15 1.138-4.797 3.16l-.231.723-.763.001c-1.443.003-2.918.997-3.355 2.26-.181.523-.215 1.49-.215 6.184v5.564l-.445.092c-1.31.273-2.75 1.54-3.258 2.87-.241.63-.284.977-.238 1.916.066 1.32.337 1.959 1.246 2.934.555.595 1.953 1.382 2.456 1.383.225 0 .24.52.24 9.042 0 9.82-.027 9.456.761 10.475.189.243.634.61.99.816.567.33.823.383 2.127.442l1.482.067.241.702c.353 1.028.937 1.776 1.837 2.35 1.108.706 1.86.827 4.8.77 2.334-.044 2.53-.068 3.237-.395.891-.413 1.79-1.261 2.182-2.058.935-1.903.549-3.915-1.023-5.33-1.103-.993-1.614-1.13-4.46-1.2-2.777-.067-3.728.094-4.82.815-.746.491-1.685 1.766-1.819 2.466l-.088.464h-1.12c-1.355 0-2.18-.34-2.613-1.08-.26-.443-.28-.742-.318-4.89-.022-2.43-.015-4.418.017-4.418s.359.131.726.292c.48.21 1.042.309 2.003.355 1.036.05 1.335.107 1.335.257 0 .486.75 1.69 1.44 2.311 1.081.974 1.628 1.126 4.313 1.201 3.408.096 4.506-.199 5.756-1.545.64-.69.971-1.397 1.166-2.486.104-.584-.145-1.88-.49-2.549-.384-.745-1.317-1.605-2.166-1.997-.762-.353-.819-.358-3.719-.358-2.898 0-2.956.005-3.718.357a5.707 5.707 0 0 0-1.347.922c-.574.566-1.23 1.74-1.233 2.207-.001.228-.115.245-1.361.203-1.518-.052-1.898-.221-2.407-1.073-.25-.417-.277-.745-.317-3.73-.04-3.062-.027-3.278.206-3.356 2.133-.715 3.378-1.999 3.717-3.833.163-.887-.006-2.091-.403-2.856-.592-1.144-1.952-2.224-3.1-2.463l-.445-.092v-5.285c.001-3.051.058-5.486.136-5.762.074-.263.352-.685.617-.938.426-.407.582-.466 1.364-.515.876-.055.884-.053.977.33.118.483.653 1.509.98 1.883.515.586 1.548 1.246 2.214 1.414l.69.175.038 8.778c.035 8.37.05 8.802.302 9.304a3.868 3.868 0 0 0 1.666 1.64c.498.244.918.264 6.15.302l5.614.041 3.835 2.119 3.835 2.118.04 1.18.039 1.18h-2.997c-2.73 0-3.018.021-3.224.246-.197.214-.227.648-.227 3.298 0 3 .006 3.054.305 3.26.252.174.803.21 3.218.21h2.914v2.024h-3.003c-2.547 0-3.036.032-3.218.212-.183.18-.216.67-.216 3.278 0 2.205.047 3.112.165 3.228.237.233 13.678.233 13.914 0 .119-.117.165-1.039.165-3.3 0-2.965-.015-3.147-.265-3.278-.16-.084-1.445-.14-3.219-.14H36.15v-2.024h2.914c2.416 0 2.966-.035 3.218-.21.3-.206.305-.26.305-3.295 0-2.625-.032-3.117-.215-3.298-.183-.18-.672-.212-3.224-.212h-3.009l.04-1.17.04-1.172 3.959-2.174c2.177-1.196 4.049-2.307 4.159-2.47.175-.261.175-.334-.005-.601-.28-.416-8.663-5.007-8.99-4.923-.139.035-2.083 1.077-4.322 2.314l-4.07 2.249-5.363-.04c-5.24-.038-5.375-.046-5.843-.334a2.695 2.695 0 0 1-.753-.742c-.267-.435-.274-.687-.274-8.99v-8.541l.712-.238c1.454-.485 2.556-1.564 3.009-2.948l.232-.708 4.255.006 4.254.005 3.767 2.073 3.766 2.072v4.275l-3.003.037c-1.933.023-3.066.09-3.184.185-.141.116-.181.832-.181 3.226 0 2.617.032 3.108.215 3.288.19.187 1.001.212 6.856.212 4.317 0 6.735-.049 6.907-.14.25-.132.265-.313.265-3.288 0-2.454-.04-3.182-.182-3.298-.117-.096-1.251-.162-3.184-.185l-3.003-.037V26.694l3.767-2.077 3.766-2.077 5.081-.005c5.059-.005 5.083-.004 5.547.301.872.574.944.893.944 4.162v2.917l-1.086.062c-1.934.11-3.322 1.012-4.1 2.665-.467.99-.488 2.577-.047 3.543.715 1.57 2.247 2.582 4.156 2.746l1.078.092v6.036h-3.077c-2.902 0-3.085.015-3.219.26-.091.17-.141 2.3-.141 5.995 0 5.031.026 5.758.215 5.944.182.18.67.212 3.218.212h3.004v1.144c0 1.137-.003 1.145-.377 1.232-.667.154-1.95.891-2.368 1.36-.223.251-.575.773-.782 1.16-.338.63-.377.841-.377 2.052 0 1.215.038 1.42.382 2.062a5.15 5.15 0 0 0 2.289 2.174c.64.298.939.35 1.986.347 1.073-.003 1.33-.052 1.986-.38 1.026-.513 1.82-1.312 2.283-2.299.332-.706.386-.99.38-1.972-.005-.966-.065-1.267-.382-1.914-.61-1.244-1.809-2.182-3.343-2.616-.12-.034-.171-.394-.171-1.199v-1.15h3.005c2.95 0 3.01-.006 3.219-.3.184-.26.213-1.05.213-5.906s-.029-5.647-.213-5.906c-.21-.294-.269-.3-3.219-.3H56.83V39.027l1.145-.087c.63-.047 1.403-.176 1.718-.286 3.039-1.056 4.002-4.913 1.811-7.254-.87-.93-1.884-1.355-3.396-1.425l-1.256-.058-.045-3.12-.046-3.121-.406-.723c-.223-.397-.62-.896-.882-1.109-.94-.763-1.238-.799-6.624-.799h-4.92l-3.718-2.04c-2.045-1.123-3.796-2.101-3.89-2.175-.123-.097-.171-.71-.171-2.202V12.56l2.992-.041c2.286-.032 3.046-.085 3.219-.226.204-.168.226-.767.226-6.1 0-5.71-.01-5.92-.265-6.054C42.15.049 39.732 0 35.415 0 29.56 0 28.75.025 28.56.212Zm12.658 6.061v4.79H29.713V1.483h11.504v4.789Zm-9.39-2.974c-.277.417-.147.857.303 1.026.447.167 6.23.164 6.678-.003.46-.173.606-.736.282-1.09-.23-.249-.44-.264-3.643-.264h-3.4l-.22.33Zm.017 2.532c-.282.396-.27.59.06.914.259.255.457.27 3.561.27s3.302-.015 3.56-.27c.33-.325.343-.518.062-.914-.21-.296-.255-.3-3.622-.3s-3.41.004-3.621.3Zm0 2.563c-.282.396-.27.59.06.914.259.255.457.27 3.561.27s3.302-.015 3.56-.27c.33-.324.343-.518.062-.914-.21-.296-.255-.3-3.622-.3s-3.41.004-3.621.3Zm6.45 11.18c1.495.823 2.985 1.648 3.311 1.833l.594.337-3.287 1.81c-1.808.994-3.352 1.808-3.431 1.808-.203 0-6.59-3.511-6.59-3.623 0-.09 6.425-3.657 6.595-3.66.05-.001 1.313.672 2.808 1.495Zm-22.856-.704c2.247 1.13 2.398 4.3.267 5.598-1.61.98-3.75.377-4.652-1.313-.388-.728-.412-2.099-.048-2.785.887-1.67 2.803-2.319 4.433-1.5Zm-3.179 2.482c-.266.4-.129.894.294 1.052.438.164 2.393.16 2.836-.005.46-.173.606-.736.281-1.09-.213-.231-.427-.264-1.725-.264-1.39 0-1.495.02-1.686.307Zm21.086-.088c-.317.313-.21.886.203 1.091.359.178 3.218.243 3.81.086.452-.119.639-.669.367-1.077-.206-.311-.261-.319-2.185-.319-1.639 0-2.01.037-2.195.22Zm26.473 10.608c1.658 1.082 1.884 3.362.469 4.722-.822.79-1.363.91-4.142.91-2.732 0-3.312-.121-4.09-.85a3.01 3.01 0 0 1-.974-2.224c-.005-1.206.598-2.185 1.675-2.717.548-.271.752-.286 3.536-.25l2.956.037.57.372Zm-18.6 2.529v2.023H29.712v-1.933c0-1.064.041-1.975.091-2.024.05-.05 2.639-.09 5.752-.09h5.661v2.024Zm-9.373-.463a.693.693 0 0 0 .09 1.062c.254.176.832.21 3.53.21s3.276-.034 3.53-.21c.391-.27.414-.937.04-1.134-.162-.086-1.57-.14-3.62-.14-2.867 0-3.386.03-3.57.212Zm21.774.095c-.266.4-.128.894.294 1.053.183.068 1.178.124 2.21.124 2.056 0 2.487-.128 2.487-.74 0-.673-.25-.744-2.608-.744-2.115 0-2.185.01-2.383.307Zm-46.536 2.78c.695.349 1.448 1.207 1.654 1.885.352 1.157.103 2.18-.759 3.124-1.314 1.44-3.424 1.44-4.738 0-.938-1.027-1.162-2.223-.633-3.374.81-1.763 2.786-2.485 4.476-1.635Zm31.735 7.047c1.772.973 3.22 1.815 3.22 1.87 0 .15-6.44 3.666-6.63 3.618-.286-.071-6.517-3.53-6.517-3.617 0-.11 6.319-3.621 6.538-3.632.093-.005 1.618.788 3.39 1.76Zm22.942 7.404v4.856H50.393V46.407H61.76v4.857Zm-9.285-3.076c-.09.089-.165.32-.165.512 0 .659.09.675 3.797.675h3.468l.156-.337c.117-.253.117-.423 0-.675l-.156-.337h-3.468c-2.515 0-3.513.044-3.632.162Zm-32.237 2.436a3.063 3.063 0 0 1 1.196 3.677c-.299.77-1.248 1.604-2.054 1.803-.784.195-4.704.196-5.485.002-.755-.187-1.672-.95-2.002-1.665-.298-.647-.333-1.794-.073-2.406a3.235 3.235 0 0 1 1.493-1.57c.547-.271.754-.286 3.468-.25l2.887.037.57.372Zm32.237.127c-.09.089-.165.32-.165.513 0 .658.09.674 3.797.674h3.468l.156-.337c.117-.252.117-.422 0-.675l-.156-.337h-3.468c-2.515 0-3.513.045-3.632.162Zm0 2.563c-.09.09-.165.32-.165.513 0 .658.09.674 3.797.674h3.468l.156-.337c.117-.252.117-.422 0-.675l-.156-.337h-3.468c-2.515 0-3.513.045-3.632.162Zm-11.258 3.21v2.024H29.713V54.501h11.504v2.024Zm16.295 4.993c.638.325 1.308 1.027 1.57 1.648.44 1.037.144 2.608-.651 3.462-.786.843-2.525 1.203-3.625.75-2.299-.943-2.716-4.099-.732-5.53 1.05-.758 2.35-.882 3.438-.33Zm-37.662.145c.828.37 1.08.613 1.458 1.406.616 1.29.337 2.643-.742 3.601-.808.718-1.326.81-4.26.76-2.76-.048-2.97-.097-3.769-.875a3.083 3.083 0 0 1-.899-2.154c-.005-1.245.588-2.188 1.698-2.697.655-.3.847-.319 3.298-.317 2.321.001 2.668.03 3.216.276Zm21.367 3.903v2.025l-5.718-.035-5.718-.035-.037-1.99-.038-1.99h11.511v2.025Z" fill="#fff" stroke="#fff" stroke-width=".5"/></svg>