<svg width="70" height="70" fill="none" xmlns="http://www.w3.org/2000/svg"><path fill-rule="evenodd" clip-rule="evenodd" d="M31.968.332c-.281.28-.347.527-.424 1.588-.153 2.125-.137 2.08-.878 2.355-.532.197-.698.21-.882.065a90.414 90.414 0 0 1-1.274-1.059c-1.582-1.331-1.598-1.327-3.928.999-2.367 2.362-2.354 2.299-.821 4.116.585.694 1.04 1.328 1.01 1.408-.03.08-.138.38-.241.667-.21.584-.234.591-2.387.76-.984.077-1.246.15-1.52.422-.323.323-.33.39-.33 3.024 0 2.636.007 2.702.33 3.024.274.273.536.346 1.52.423 2.153.169 2.177.176 2.387.76l.24.667c.03.08-.424.714-1.009 1.407-1.533 1.818-1.546 1.755.82 4.117 2.331 2.326 2.347 2.33 3.929.999.576-.485 1.15-.962 1.274-1.06.184-.143.35-.131.882.066.741.274.725.23.878 2.355.077 1.06.143 1.308.424 1.588.326.325.386.332 3.032.332 2.64 0 2.707-.007 3.03-.33.273-.273.346-.534.424-1.517.169-2.148.176-2.173.761-2.381l.669-.241c.08-.03.714.424 1.41 1.008 1.821 1.53 1.758 1.543 4.124-.82 2.367-2.361 2.354-2.298.821-4.116-.585-.693-1.04-1.327-1.01-1.407.03-.08.14-.383.244-.674.214-.596.23-.601 2.31-.75 1.063-.077 1.31-.143 1.591-.423.326-.326.333-.386.333-3.027 0-2.635-.007-2.701-.33-3.024-.274-.272-.536-.345-1.52-.422-2.153-.169-2.178-.176-2.387-.76l-.24-.667c-.03-.08.424-.714 1.009-1.408 1.533-1.817 1.546-1.754-.82-4.116-2.367-2.362-2.304-2.35-4.125-.819-.696.584-1.33 1.038-1.41 1.008-.08-.03-.382-.138-.669-.24-.585-.21-.593-.234-.761-2.382-.078-.983-.15-1.245-.424-1.517C37.707.007 37.64 0 35 0c-2.646 0-2.706.007-3.032.332Zm4.374 3.299c.127 1.693.227 1.965.811 2.21.255.106.94.4 1.524.652 1.673.723 1.616.73 3.03-.432l1.24-1.02.855.853.854.852-1.022 1.238c-1.165 1.41-1.157 1.355-.433 3.024.253.582.547 1.266.654 1.52.245.583.517.683 2.214.81l1.375.103v2.473l-1.375.103c-1.697.127-1.969.226-2.214.81-.107.253-.401.938-.654 1.52-.724 1.67-.732 1.613.433 3.024l1.022 1.238-.854.852-.855.853-1.24-1.02c-1.414-1.163-1.357-1.155-3.03-.432-.584.252-1.27.546-1.524.652-.584.245-.684.517-.81 2.21l-.104 1.373h-2.463l-.143-1.575c-.154-1.703-.303-1.982-1.16-2.186-.205-.049-.862-.31-1.462-.58-.713-.321-1.202-.462-1.414-.406-.178.047-.822.51-1.43 1.028l-1.107.944-.858-.857-.858-.856 1.01-1.223c.555-.673 1.01-1.348 1.01-1.502 0-.153-.136-.544-.302-.869a16.204 16.204 0 0 1-.635-1.511c-.46-1.275-.61-1.368-2.385-1.49l-1.486-.1v-2.468l1.36-.1c1.68-.123 1.984-.234 2.23-.818.106-.254.4-.938.653-1.52.724-1.67.732-1.613-.433-3.024l-1.022-1.238.854-.852.855-.853 1.24 1.02c1.414 1.163 1.357 1.155 3.03.432.584-.252 1.27-.546 1.524-.653.584-.244.684-.516.81-2.21l.104-1.372h2.479l.102 1.373ZM33.32 8.126c-3.586.963-5.804 4.668-4.89 8.168a6.852 6.852 0 0 0 5.664 5.063c4.652.669 8.661-3.764 7.484-8.275-.955-3.658-4.706-5.91-8.258-4.956ZM4.259 9.19c-.877.206-2.161.96-2.787 1.637-.317.344-.778 1.05-1.024 1.568L0 13.337v38.825l.528 1.066c.636 1.285 1.455 2.085 2.77 2.706l.944.447 11.42.04 11.419.039v4.474l-1.732.063c-1.455.053-1.846.118-2.44.402-.896.429-1.747 1.274-2.193 2.18-.322.654-.351.89-.397 3.205l-.049 2.5.359.358.358.358h28.026l.36-.36.361-.36-.05-2.498-.05-2.498-.484-.892c-.526-.971-1.13-1.546-2.125-2.024-.519-.249-.972-.32-2.373-.371l-1.733-.063V56.46l11.427-.04 11.427-.039 1.068-.527c1.287-.635 2.089-1.452 2.711-2.764l.448-.943v-38.81l-.448-.943c-.622-1.312-1.424-2.13-2.71-2.764l-1.07-.527-8.032-.041-8.033-.04v2.268h7.585c5.541 0 7.741.047 8.166.172.777.229 1.949 1.398 2.178 2.173.13.44.172 4.318.172 16.054V45.16H2.192V29.69c0-11.736.041-15.613.172-16.054.23-.775 1.4-1.944 2.178-2.173.425-.125 2.625-.172 8.166-.172h7.585V9.032l-7.742.014c-4.259.008-7.99.072-8.292.143Zm32.65 1.408c.893.422 1.745 1.267 2.193 2.175.493 1.001.49 2.787-.006 3.81-.436.9-1.285 1.748-2.187 2.183-1.026.496-2.815.498-3.818.006-.902-.442-1.75-1.289-2.193-2.188-.493-1.001-.49-2.787.006-3.81a4.774 4.774 0 0 1 3.035-2.489c.758-.198 2.212-.045 2.97.313Zm-9.458 21.247c-.485.149-.914.435-1.438.957-1.134 1.133-1.195 1.444-1.195 6.176v3.926h2.263v-3.387h3.394v3.387h2.262v-3.926c0-4.73-.06-5.044-1.193-6.174-1.122-1.12-2.508-1.445-4.093-.959Zm6.765.115-.347.347V42.903h2.262v-4.516h1.39c1.82 0 2.517-.236 3.32-1.127 1.314-1.46 1.273-3.214-.109-4.593-.938-.937-1.385-1.054-4.022-1.054-2.091 0-2.156.009-2.494.346Zm8.703 5.3v5.644H45.181v-11.29H42.92v5.645Zm-12.952-2.831c.409.408.44.514.487 1.633l.05 1.197h-3.452l.05-1.188c.043-1.034.095-1.238.403-1.568.473-.508.812-.639 1.472-.57.378.04.69.197.99.496Zm9.211-.21c.219.218.347.507.347.782s-.128.564-.347.783c-.32.32-.452.346-1.697.346h-1.35v-2.258h1.35c1.245 0 1.377.027 1.697.346Zm28.63 15.126c0 1.098-.074 2.173-.172 2.505-.23.775-1.4 1.944-2.178 2.173-.846.25-60.07.25-60.916 0-.777-.23-1.949-1.398-2.178-2.173-.098-.332-.172-1.407-.172-2.505v-1.925h65.616v1.925Zm-38.465 1.462v1.13h11.314v-2.258H29.343v1.129Zm11.314 7.904v2.258H29.343v-4.516h11.314v2.258Zm5.743 4.877c.847.632.97.946 1.022 2.612l.047 1.543H22.556V66.41c0-1.43.124-1.934.61-2.461.676-.735.357-.717 12-.684 10.707.031 10.849.035 11.234.322Z" fill="#fff"/></svg>