<svg width="70" height="70" fill="none" xmlns="http://www.w3.org/2000/svg"><path fill-rule="evenodd" clip-rule="evenodd" d="M2.272.18C1.58.397.4 1.62.187 2.34c-.25.844-.25 46.415 0 47.259.229.775 1.397 1.945 2.172 2.174.44.13 4.331.171 16.116.171H34.01l-.088 1.447c-.204 3.361.748 6.762 2.727 9.739.87 1.309 2.794 3.234 4.102 4.104 6.178 4.112 13.867 3.603 19.48-1.289 1.302-1.134 2.747-3.084 3.625-4.891 1.206-2.482 1.725-5.023 1.565-7.663l-.088-1.447h.864c.475 0 1.125-.077 1.444-.171.775-.23 1.944-1.399 2.173-2.174.246-.832.25-46.418.004-47.238-.093-.308-.442-.865-.778-1.238C67.93-.115 71.222-.007 34.94.009 11.914.02 2.626.068 2.272.18Zm65.11 2.42c.346.347.346.347.346 3.388V9.03H2.272V5.988c0-3.041 0-3.041.347-3.388l.346-.346h64.071l.346.346ZM4.529 5.642V6.77h2.258V4.512H4.529v1.13Zm4.515 0V6.77H11.3V4.512H9.044v1.13Zm4.514 0V6.77H15.815V4.512H13.558v1.13Zm54.17 24.498v18.853l-.346.346c-.31.31-.465.347-1.47.347H64.79l-.243-.742c-1.158-3.537-4.13-6.945-7.639-8.758-7.826-4.045-17.375-.93-21.336 6.959-.292.582-.64 1.392-.774 1.8l-.243.74H2.965l-.346-.346-.347-.346V11.288h65.456V30.14ZM6.787 13.731c-.693.219-1.874 1.442-2.086 2.162-.246.832-.246 19.321 0 20.154.229.775 1.398 1.945 2.172 2.174.838.247 28.331.247 29.169 0 .775-.23 1.944-1.399 2.172-2.174.243-.822.247-19.325.004-20.134-.092-.308-.442-.865-.777-1.239-1.08-1.202-.03-1.13-16.044-1.113-9.861.01-14.266.062-14.61.17Zm33.856.945v1.13H42.9v-2.26H40.643v1.13Zm4.514 0v1.13h20.314v-2.26H45.157v1.13Zm-9.374 1.476.346.347V35.44l-.346.346-.347.347H7.48l-.346-.347-.346-.346V16.499l.346-.347.346-.346h27.957l.347.346Zm-8.048 4.17-2.254 2.26h-6.708l-4.864 4.26-4.865 4.262v2.771h24.828V18.064H29.99l-2.255 2.259Zm12.908-1.128v1.129h24.828v-2.259H40.643v1.13Zm-9.028 6.776v5.646H27.1V24.21l1.938-1.943c1.35-1.353 2.035-1.943 2.257-1.943h.32v5.647Zm9.028-2.26v1.13h6.771v-2.258h-6.771v1.129Zm9.029 0v1.13h15.8v-2.258h-15.8v1.129Zm-24.829 4.518v3.388H20.33V24.84h4.514v3.388Zm-6.818 3.34c-.029.03-1.401.037-3.049.016l-2.996-.038 3.01-2.633 3.011-2.632.039 2.617c.021 1.44.015 2.642-.015 2.67Zm22.618-3.34v1.13h24.828v-2.26H40.643v1.13Zm0 4.518v1.129h15.8v-2.259h-15.8v1.13Zm18.057 0v1.129h2.258v-2.259H58.7v1.13Zm4.514 0v1.129H65.471v-2.259H63.214v1.13ZM4.53 41.78v1.13h2.258v-2.26H4.529v1.13Zm4.515 0v1.13h20.314v-2.26H9.044v1.13Zm43.893-.726c2.514.661 4.487 1.805 6.332 3.672 1.817 1.838 2.987 3.927 3.62 6.461.334 1.342.334 4.69 0 6.03-.655 2.624-1.765 4.58-3.697 6.513-1.933 1.934-3.893 3.048-6.508 3.698-1.382.343-4.558.343-5.975 0-5.133-1.246-8.97-5.066-10.254-10.21-.335-1.342-.335-4.688 0-6.03.643-2.58 1.81-4.642 3.687-6.52 2.216-2.219 4.3-3.263 7.837-3.931.827-.156 3.907.04 4.958.317ZM4.529 46.298v1.129h2.258v-2.259H4.529v1.13Zm4.515 0v1.129h20.314v-2.259H9.044v1.13ZM42.9 54.203v8.61l8.535-4.269c4.694-2.348 8.535-4.302 8.535-4.341 0-.04-3.841-1.993-8.535-4.341l-8.535-4.27v8.61Zm11.991 0c0 .04-2.19 1.168-4.867 2.506l-4.867 2.434v-9.88l4.867 2.434c2.677 1.338 4.867 2.466 4.867 2.506Z" fill="#fff"/></svg>