<svg width="70" height="70" fill="none" xmlns="http://www.w3.org/2000/svg"><path fill-rule="evenodd" clip-rule="evenodd" d="M30.428.083c-.952.245-1.593.76-2.068 1.665-.216.41-.264.915-.324 3.424l-.07 2.943-1.094.302c-2.1.58-4.41 1.556-6.394 2.705l-.786.455-2.018-2.022c-2.084-2.088-2.602-2.445-3.551-2.444-1.224.002-1.48.174-4.04 2.724-2.635 2.623-2.974 3.11-2.974 4.268 0 1.166.272 1.59 2.4 3.737l1.98 1.997-.755 1.372c-.982 1.787-1.616 3.32-2.232 5.394l-.5 1.685-2.874.003c-3.254.003-3.645.094-4.403 1.018-.663.81-.728 1.249-.725 4.908.003 3.691.063 4.014.898 4.844.815.811.965.843 4.19.891l2.973.044.14.575c.502 2.07 1.639 4.901 2.714 6.759l.554.958-1.945 1.998c-1.07 1.1-2.051 2.224-2.18 2.5-.32.685-.307 1.914.028 2.564.144.28 1.39 1.632 2.769 3.004 2.384 2.372 2.542 2.502 3.22 2.645 1.487.313 2.064-.001 4.472-2.438l1.903-1.925.696.415c1.761 1.049 4.624 2.248 6.668 2.794l.911.244.05 2.905c.054 3.164.124 3.507.877 4.265.844.85 1.135.902 4.977.902 3.082 0 3.552-.029 4.036-.25.588-.269 1.358-1.06 1.605-1.65.089-.21.177-1.581.21-3.274l.057-2.912.705-.169a18.38 18.38 0 0 0 1.405-.41l.702-.24.231.86c1.198 4.449 4.696 8.042 9.239 9.49 1.556.495 2.266.52 2.61.093.605-.75.143-1.53-1.063-1.797-4.514-1-8.091-4.659-9.007-9.213-.18-.889-.216-1.561-.158-2.888.089-2.03.307-2.928 1.128-4.64a11.637 11.637 0 0 1 5.449-5.475c1.94-.941 2.68-1.099 5.144-1.096 1.831.001 2.259.045 3.14.321 4.133 1.296 6.92 4.103 8.164 8.226.317 1.053.366 1.46.374 3.135.012 2.275-.239 3.374-1.221 5.364-1.472 2.98-3.87 4.986-7.243 6.056-1.141.362-1.398.496-1.551.809-.238.486-.107.979.336 1.27.313.207.449.214 1.194.06 1.996-.41 4.393-1.687 6.049-3.22 5.787-5.362 6.095-14.262.688-19.874-1.884-1.956-4.008-3.224-6.477-3.869-.32-.083-.58-.2-.58-.259s.087-.412.194-.785c.108-.373.264-.941.348-1.263l.151-.584 2.696-.001c1.549 0 2.93-.066 3.243-.153.766-.213 1.77-1.248 1.983-2.045.228-.851.106-1.783-.275-2.093-.71-.579-1.64-.017-1.64.991 0 .414-.088.652-.335.9l-.336.338h-6.3l-.416.378c-.341.31-.487.65-.81 1.891-.64 2.449-.417 2.217-2.22 2.307-.852.042-1.996.195-2.541.339-.545.144-.992.24-.992.213 0-.027.147-.34.327-.698.445-.885 1.113-2.929 1.41-4.315.353-1.644.348-6.029-.008-7.678-.41-1.895-.881-3.265-1.726-5.02-1.027-2.133-2.2-3.788-3.9-5.505-2.798-2.825-6.347-4.707-10.4-5.514-1.64-.327-5.217-.323-7.029.007-6.207 1.13-11.63 5.2-14.46 10.85-.65 1.298-1.485 3.872-1.77 5.457-.329 1.823-.33 5.416-.004 7.077 1.158 5.882 4.447 10.599 9.523 13.657 3.117 1.877 6.47 2.8 10.187 2.802 2.86.001 5.571-.555 7.84-1.609.565-.262 1.05-.454 1.077-.427.028.028-.048.415-.169.86-.12.446-.26 1.58-.311 2.52l-.092 1.708-1.01.31c-.556.17-1.427.412-1.936.538-1.58.389-1.555.323-1.636 4.189-.062 2.972-.092 3.302-.328 3.565-.251.278-.382.289-3.5.289-3.12 0-3.25-.011-3.501-.29-.237-.262-.267-.592-.33-3.564-.082-3.957-.004-3.787-1.96-4.269-2.392-.589-4.66-1.544-7.132-3.002-1.562-.922-1.522-.938-4.096 1.62-2.295 2.28-2.631 2.547-3.042 2.404-.138-.048-1.25-1.083-2.472-2.301-1.897-1.89-2.223-2.276-2.223-2.631 0-.353.31-.726 2.061-2.477 1.134-1.133 2.156-2.241 2.272-2.462.305-.579.164-1.253-.483-2.317-1.27-2.086-2.059-3.975-2.768-6.633-.325-1.216-.484-1.587-.813-1.89l-.41-.379H5.894c-2.954 0-3.144-.016-3.485-.285l-.36-.285v-3.222c0-3.038.015-3.237.273-3.496.256-.258.457-.275 3.18-.276 1.598 0 3.138-.065 3.42-.144.666-.186.88-.537 1.273-2.087a25.599 25.599 0 0 1 2.796-6.735c1.102-1.843 1.131-1.76-1.574-4.51-2.02-2.054-2.257-2.343-2.257-2.758 0-.416.23-.694 2.227-2.703 1.865-1.875 2.293-2.24 2.628-2.24.334 0 .763.363 2.594 2.191 1.206 1.205 2.358 2.254 2.56 2.33.483.185 1.017.023 2.15-.65 2.189-1.302 4.033-2.075 6.647-2.787.862-.235 1.62-.526 1.778-.682.254-.252.278-.503.342-3.632.06-2.986.095-3.389.312-3.606.216-.218.583-.25 3.27-.288 3.354-.046 3.695.014 3.93.695.087.247.147 1.652.147 3.417 0 3.692-.1 3.5 2.12 4.1 2.597.701 4.45 1.477 6.647 2.783 1.132.673 1.666.835 2.149.65.202-.076 1.354-1.125 2.56-2.33 1.831-1.828 2.26-2.19 2.594-2.19.336 0 .764.364 2.628 2.239 1.998 2.008 2.227 2.287 2.227 2.703 0 .415-.236.704-2.257 2.758-2.714 2.76-2.675 2.643-1.535 4.607 1.302 2.244 2.056 4.107 2.862 7.07.48 1.763.365 1.716 4.37 1.8 3.695.077 3.672.07 3.672 1.132 0 .38.095.626.335.868.736.74 1.717.17 1.715-.997-.002-.751-.468-1.87-.974-2.337-.705-.652-1.15-.729-4.203-.729h-2.861l-.304-1.133c-.585-2.18-1.655-4.755-2.678-6.45l-.501-.828 1.995-2.022c1.183-1.2 2.08-2.228 2.205-2.528.27-.65.27-1.758 0-2.407-.235-.565-4.14-4.614-5.095-5.282a2.677 2.677 0 0 0-1.332-.488c-1.289-.134-1.77.151-4.053 2.403l-2.01 1.982-.947-.556c-1.813-1.065-3.649-1.838-5.91-2.487l-1.3-.373-.073-2.876c-.06-2.33-.12-2.98-.314-3.425-.306-.696-.7-1.12-1.39-1.493-.514-.278-.756-.298-3.898-.322-1.843-.014-3.536.022-3.761.08Zm2.393 17.132c0 1.323.185 1.153-1.573 1.443-1.164.192-2.637.629-3.548 1.052l-.675.314-.22-.372c-.12-.204-.384-.658-.586-1.01l-.367-.637 1.142-.494c1.296-.56 3.388-1.13 4.801-1.307.527-.066.973-.128.992-.137.019-.01.034.507.034 1.148Zm4.992-.7c1.05.229 2.51.717 3.521 1.177l.649.295-.375.657c-.207.362-.47.8-.586.973l-.21.316-1.295-.485c-1.145-.429-2.521-.761-4.132-.998l-.512-.076v-1.07c0-.59.029-1.101.065-1.137.095-.096 1.765.107 2.875.348Zm-13.11 3.618.506.909-.331.258a21.53 21.53 0 0 0-3.67 3.688l-.269.343-.907-.48c-.499-.266-.94-.532-.979-.593-.105-.164 1.304-1.952 2.374-3.012 1.044-1.033 2.514-2.182 2.67-2.085.055.035.328.472.606.972Zm20.099-.341c1.46 1.11 4.02 3.868 4.02 4.331 0 .129-1.65 1.14-1.858 1.139-.068 0-.278-.23-.466-.508-.472-.699-2.392-2.627-3.185-3.199-.36-.26-.637-.537-.616-.616.072-.267.996-1.861 1.08-1.863.044 0 .506.321 1.025.716Zm-7.673 1.05c1.94.528 3.91 1.485 5.082 2.47 1.059.888 2.45 2.343 2.945 3.078 2.543 3.775 3.035 8.834 1.264 12.981-.943 2.206-.787 2.678 1.28 3.885l1.259.736-.276.39c-.152.214-.536.59-.855.834-.9.693-1.7 1.488-2.465 2.45-1.508 1.893-5.003 3.612-8.565 4.21-1.855.313-5.014.225-6.714-.186-3.432-.83-6.405-2.468-8.737-4.814-.84-.845-2.34-2.704-2.338-2.897 0-.046.52-.379 1.153-.74.634-.362 1.31-.846 1.504-1.076.457-.546.46-1.323.012-2.292-1.776-3.837-1.677-8.4.264-12.1 1.913-3.646 5.554-6.36 9.443-7.038.451-.078.974-.17 1.162-.204.764-.137 3.655.06 4.582.313Zm-18.184 5.756c.486.281.883.594.883.695 0 .1-.086.35-.19.555-.338.656-.868 2.439-1.037 3.483-.293 1.823-.127 1.633-1.423 1.633-1.105 0-1.14-.01-1.1-.31.244-1.795.41-2.677.678-3.61.325-1.129 1.083-2.956 1.226-2.956.044 0 .478.23.963.51Zm31.49.487c.718 1.761 1.142 3.385 1.33 5.088l.086.79H49.538l-.094-.79c-.139-1.172-.557-2.784-1.03-3.972-.23-.579-.402-1.067-.381-1.087.175-.162 1.714-1.017 1.837-1.021.087-.003.34.443.565.992Zm-17.75 4.035c-1.183.514-1.916 1.653-1.916 2.979 0 .738.068.984.445 1.615a3.144 3.144 0 0 0 4.108 1.19l.633-.322 3.099 1.924c3.24 2.012 3.625 2.165 4.175 1.665.333-.304.341-1.075.014-1.404-.135-.136-1.582-1.073-3.214-2.083l-2.968-1.836-.003-.77c-.007-1.813-1.38-3.185-3.173-3.172-.397.003-.938.1-1.2.214Zm2.008 2.143c.705.666.212 1.9-.759 1.9-.653 0-1.113-.445-1.113-1.08 0-1 1.149-1.503 1.872-.82ZM18.378 35.38c.045.12.082.396.082.614 0 .638.521 2.7.961 3.806.224.562.407 1.073.407 1.137 0 .063-.43.364-.955.669l-.954.553-.29-.645c-.74-1.644-1.295-3.78-1.533-5.904l-.05-.447h1.124c.9 0 1.141.043 1.207.217Zm33.385.642c-.184 1.651-.715 3.634-1.408 5.26a34.19 34.19 0 0 1-.377.864c-.03.047-1.976-1.076-1.976-1.14 0-.026.187-.516.415-1.09.47-1.18.888-2.794 1.027-3.962l.094-.791h2.32l-.095.86Zm7.473 15.441c-.252.11-1.346 1.08-2.43 2.153l-1.97 1.953-.648-.64c-.356-.351-.876-.735-1.156-.852-1.31-.547-2.64.01-3.266 1.37-.602 1.305-.182 2.183 2.056 4.301 2.103 1.99 2.78 2.28 4.009 1.711.662-.307 6.422-5.915 6.717-6.541.44-.93.18-2.342-.552-3.008-.687-.624-1.903-.82-2.76-.447Zm1.458 2.27c.034.296-.403.78-2.826 3.129-1.576 1.528-2.95 2.779-3.051 2.779-.103 0-.892-.713-1.756-1.583-1.334-1.346-1.546-1.618-1.419-1.822.3-.478.607-.349 1.69.71 1.562 1.53 1.413 1.574 4.33-1.303 1.852-1.827 2.447-2.337 2.685-2.303.211.03.318.152.346.393Z" fill="#fff"/></svg>