<svg width="70" height="70" fill="none" xmlns="http://www.w3.org/2000/svg"><path fill-rule="evenodd" clip-rule="evenodd" d="M8.327.086C6.263.463 4.493 1.411 2.949 2.968 1.653 4.276.911 5.46.375 7.076.044 8.074 0 8.43 0 10.113s.044 2.039.375 3.037c.538 1.622 1.281 2.806 2.574 4.096s2.479 2.033 4.104 2.57c1 .33 1.356.374 3.043.374 1.686 0 2.042-.044 3.042-.374 1.626-.537 2.81-1.28 4.104-2.57 1.293-1.29 2.037-2.474 2.575-4.096.549-1.656.549-4.418 0-6.074-.538-1.622-1.282-2.806-2.575-4.096C15.268 1.009 13.228.108 10.52.01c-.817-.029-1.804.005-2.193.076Zm49.808 0c-2.064.377-3.834 1.325-5.377 2.882-1.297 1.308-2.039 2.492-2.575 4.108-.33.998-.374 1.353-.374 3.037s.043 2.039.374 3.037c.538 1.622 1.282 2.806 2.575 4.096 1.293 1.29 2.478 2.033 4.104 2.57 1 .33 1.356.374 3.042.374 1.687 0 2.043-.044 3.043-.374 1.625-.537 2.81-1.28 4.103-2.57 1.294-1.29 2.037-2.474 2.575-4.096.331-.998.375-1.353.375-3.037s-.044-2.039-.375-3.037c-.538-1.622-1.281-2.806-2.575-4.096C65.076 1.009 63.038.108 60.33.01c-.817-.029-1.804.005-2.194.076ZM31.415 1.28a31.68 31.68 0 0 0-7.575 1.913c-1.727.671-2.849 1.23-2.849 1.417 0 .113.767 1.591.944 1.82.025.03.539-.173 1.143-.455 7.387-3.446 16.343-3.48 23.655-.088.71.328 1.31.572 1.333.54.188-.243.943-1.708.943-1.829 0-.383-4.144-2.006-6.792-2.66-3.06-.755-7.777-1.043-10.802-.658ZM11.59 2.354c2.744.494 5.125 2.643 6.091 5.5.364 1.075.365 3.44.001 4.519-.872 2.59-2.72 4.435-5.323 5.312-1.078.364-3.447.364-4.528.002-3.836-1.287-6.113-4.866-5.55-8.724.37-2.537 1.993-4.752 4.318-5.894 1.673-.823 3.187-1.04 4.99-.715Zm49.808 0c1.38.248 2.983 1.107 4.046 2.168 1.613 1.61 2.308 3.295 2.309 5.591 0 1.687-.304 2.812-1.102 4.075l-.46.729-.615-.933c-.358-.544-.962-1.202-1.447-1.578-.79-.613-.822-.66-.62-.94.725-.998.848-1.398.85-2.765.002-1.568-.254-2.244-1.218-3.216-.816-.822-1.689-1.214-2.856-1.281-1.177-.068-2.022.153-2.864.75-2.09 1.484-2.559 4.323-1.06 6.424l.29.406-.461.286c-.707.438-1.607 1.422-2.062 2.254l-.41.75-.466-.725c-2.532-3.938-1.056-9.21 3.156-11.28 1.673-.823 3.186-1.04 4.99-.715ZM5.5 5.67c-.766.292-1.548 1.086-1.92 1.952-.373.864-.324 1.996.124 2.855.158.305 1.562 1.821 3.118 3.368 2.477 2.463 2.885 2.813 3.275 2.813.39 0 .797-.35 3.274-2.813 1.557-1.547 2.967-3.067 3.134-3.378.402-.746.426-2.313.046-3.037-.719-1.369-1.985-2.075-3.48-1.94-.955.087-1.4.298-2.302 1.09l-.672.592-.672-.591c-.37-.325-.863-.69-1.096-.81-.6-.31-2.134-.365-2.83-.1Zm55.645 1.053c.673.41 1.023 1.068 1.024 1.922 0 .931-.414 1.57-1.305 2.012-2.447 1.212-4.373-2.366-2.097-3.897.619-.417 1.725-.434 2.378-.037ZM8.468 8.842c.966.923 1.264 1.13 1.628 1.13.363 0 .661-.207 1.627-1.13 1.032-.987 1.247-1.13 1.694-1.13.644 0 1.207.514 1.207 1.102 0 .565-.517 1.212-2.674 3.345l-1.854 1.834L8.24 12.16c-2.156-2.133-2.673-2.78-2.673-3.345 0-.588.562-1.102 1.206-1.102.448 0 .662.143 1.694 1.13Zm23.483 3.878c-.308.307-.347.468-.347 1.42v1.072l-.51.213-.51.212-.823-.785c-1.225-1.166-1.233-1.163-3.564 1.163-2.33 2.327-2.333 2.335-1.165 3.558l.786.822-.213.509-.213.508h-1.075c-.952 0-1.114.04-1.422.347-.344.344-.347.369-.347 3.043 0 2.675.003 2.7.347 3.043.308.308.47.347 1.422.347h1.075l.213.509.213.508-.786.823c-1.168 1.223-1.166 1.23 1.165 3.557 2.33 2.327 2.339 2.33 3.564 1.163l.824-.785.51.213.509.212v1.073c0 .951.04 1.113.347 1.42.345.344.37.347 3.049.347 2.68 0 2.704-.003 3.049-.347.308-.307.347-.469.347-1.42v-1.073l.51-.212.51-.213.823.785c1.225 1.166 1.233 1.163 3.564-1.163 2.33-2.326 2.333-2.334 1.165-3.557l-.786-.823.213-.508.213-.509h1.075c.952 0 1.114-.04 1.422-.347.344-.343.347-.368.347-3.043 0-2.674-.003-2.699-.347-3.043-.308-.307-.47-.347-1.422-.347h-1.075l-.213-.508-.213-.509.786-.822c1.168-1.223 1.166-1.231-1.165-3.558-2.33-2.326-2.339-2.329-3.564-1.163l-.824.785-.51-.212-.509-.213V14.14c0-.95-.04-1.112-.347-1.42-.345-.343-.37-.346-3.049-.346-2.68 0-2.704.003-3.049.347Zm29.793.863c.428.198 1.022.595 1.32.881.555.532 1.227 1.673 1.227 2.08 0 .32-1.848 1.14-3.037 1.347-1.7.295-3.682-.039-5.164-.87l-.547-.307.189-.532c.434-1.23 1.49-2.296 2.718-2.746.913-.335 2.395-.268 3.294.147ZM36.132 15.52c0 1.114.207 1.421 1.168 1.735.408.133 1.043.393 1.41.576.367.184.8.334.961.334.161 0 .613-.298 1.003-.662l.709-.662.797.796.797.795-.663.708c-.365.39-.663.84-.663 1 0 .162.15.594.334.96.184.367.443 1 .577 1.408.315.959.623 1.165 1.738 1.165h.888v2.26H44.3c-1.115 0-1.423.207-1.738 1.166a12.442 12.442 0 0 1-.577 1.407c-.184.367-.334.798-.334.96 0 .16.298.611.663 1l.663.708-.797.796-.797.795-.71-.662c-.39-.363-.84-.661-1.002-.661-.162 0-.594.15-.961.333-.367.184-1.002.443-1.41.577-.961.313-1.168.62-1.168 1.734v.887h-2.264v-.887c0-1.113-.207-1.42-1.168-1.734a12.484 12.484 0 0 1-1.41-.577c-.367-.183-.8-.333-.961-.333-.161 0-.613.298-1.003.662l-.709.661-.797-.795-.797-.796.663-.707c.365-.39.663-.84.663-1.001 0-.162-.15-.593-.334-.96-.184-.366-.443-1-.577-1.407-.314-.96-.623-1.166-1.738-1.166h-.888v-2.26h.888c1.115 0 1.424-.206 1.738-1.165.134-.408.393-1.041.577-1.408.184-.366.334-.798.334-.96 0-.16-.298-.61-.663-1l-.663-.708.797-.795.797-.796.71.662c.39.364.84.662 1.002.662.162 0 .594-.15.961-.334a12.484 12.484 0 0 1 1.41-.576c.961-.314 1.168-.621 1.168-1.735v-.886h2.264v.886Zm-2.46 3.782c-.895.224-2.17.977-2.788 1.647-.318.344-.78 1.05-1.026 1.569-.405.854-.447 1.07-.447 2.293 0 1.273.03 1.409.528 2.416.637 1.286 1.456 2.086 2.772 2.708.854.405 1.073.447 2.289.447 1.216 0 1.435-.042 2.29-.447 1.315-.622 2.134-1.422 2.77-2.708.5-1.008.53-1.142.53-2.424s-.03-1.415-.53-2.424c-.955-1.93-2.654-3.064-4.742-3.163-.603-.029-1.343.01-1.646.086Zm28.992 2.077c-.545.202-1.01.38-1.032.395-.023.015.176.75.44 1.634.266.884.591 2.21.723 2.949.133.738.27 1.485.305 1.66.058.288.125.312.663.24 1.582-.209 1.518-.18 1.517-.67-.002-.701-.62-3.543-1.118-5.15-.247-.796-.463-1.442-.479-1.436l-1.02.378Zm-26.62.206c.778.23 1.95 1.4 2.18 2.175.392 1.325.116 2.38-.884 3.379-1.432 1.428-3.248 1.428-4.68 0-1.431-1.43-1.431-3.24 0-4.673.993-.992 2.062-1.27 3.385-.88Zm-30.446 1.7c-.537 1.853-1.162 5.649-1.162 7.051 0 .064.51.117 1.132.117.689 0 1.132-.058 1.132-.147 0-1.14.644-5.022 1.063-6.408.116-.381.21-.773.21-.87 0-.159-1.518-.767-1.916-.767-.09 0-.296.46-.46 1.024Zm52.538 6.18c-2.065.377-3.835 1.326-5.378 2.882-1.297 1.308-2.039 2.493-2.575 4.109-.33.998-.374 1.353-.374 3.037 0 1.683.043 2.039.374 3.036.538 1.623 1.282 2.806 2.575 4.097 1.293 1.29 2.478 2.033 4.104 2.57 1 .33 1.356.374 3.042.374 1.687 0 2.043-.044 3.043-.374 1.625-.537 2.81-1.28 4.103-2.57 1.294-1.291 2.037-2.474 2.575-4.097.331-.997.375-1.353.375-3.036 0-1.684-.044-2.04-.375-3.037-.538-1.623-1.281-2.806-2.575-4.097-1.974-1.97-4.013-2.871-6.721-2.969-.817-.03-1.804.005-2.194.076Zm-49.809 2.26c-2.064.377-3.834 1.325-5.378 2.882C1.653 35.914.911 37.1.375 38.715.044 39.712 0 40.068 0 41.75c0 1.684.044 2.04.375 3.037.538 1.623 1.281 2.806 2.574 4.097 1.293 1.29 2.479 2.033 4.104 2.57 1 .33 1.356.374 3.043.374 1.686 0 2.042-.044 3.042-.374 1.626-.537 2.81-1.28 4.104-2.57 1.293-1.291 2.037-2.474 2.575-4.097.33-.998.374-1.353.374-3.037 0-1.683-.043-2.039-.374-3.036-.538-1.623-1.282-2.806-2.575-4.097-1.974-1.97-4.014-2.872-6.722-2.969-.817-.03-1.804.005-2.193.076Zm50.445.494v.494h2.264v-.495c0-.598.143-.618 1.384-.2 2.242.756 4.215 2.725 4.972 4.963.42 1.24.399 1.382-.2 1.382h-.496v2.26h.496c.599 0 .62.142.2 1.38-.757 2.238-2.73 4.208-4.972 4.964-1.241.418-1.384.398-1.384-.2v-.495h-2.264v.495c0 .598-.142.618-1.383.2-2.242-.756-4.216-2.726-4.973-4.963-.419-1.24-.398-1.382.201-1.382h.495v-2.26h-.514c-.5 0-.511-.01-.437-.458.119-.718.64-2 1.062-2.616 1.127-1.642 2.425-2.659 4.198-3.29 1.134-.402 1.351-.367 1.351.22Zm-47.181 1.775c2.744.493 5.125 2.642 6.091 5.498.364 1.076.365 3.441.001 4.52-.872 2.59-2.72 4.436-5.323 5.313-1.078.363-3.447.364-4.528.001-3.836-1.287-6.113-4.866-5.55-8.724.37-2.536 1.993-4.752 4.318-5.894 1.673-.822 3.187-1.039 4.99-.714Zm47.181 2.824c0 1.797.059 3.085.148 3.251.11.205 4.716 2.672 4.988 2.672.087 0 1-1.973.94-2.03-.034-.03-.905-.477-1.937-.992l-1.875-.935V33.842h-2.264v2.975ZM8.964 35.661c0 .634-.035.703-.43.866-.95.394-1.834 1.821-1.834 2.965 0 1.743 1.643 3.39 3.383 3.39.595 0 1.145.542 1.145 1.13 0 .58-.55 1.13-1.132 1.13-.472 0-1.132-.532-1.132-.913 0-.178-.206-.218-1.132-.218-1.264 0-1.27.006-.966 1.016.203.677 1.085 1.707 1.668 1.948.395.164.43.233.43.867v.69h2.264v-.69c0-.634.034-.703.429-.867.951-.393 1.835-1.82 1.835-2.964 0-1.744-1.643-3.39-3.384-3.39-.594 0-1.144-.543-1.144-1.13 0-.58.55-1.13 1.132-1.13.472 0 1.132.532 1.132.912 0 .179.205.218 1.132.218 1.263 0 1.269-.005.965-1.015-.203-.677-1.085-1.707-1.668-1.949-.395-.163-.43-.232-.43-.866v-.69H8.965v.69Zm24.904 4.96v1.13h2.264v-2.26h-2.264v1.13Zm-6.445 3.737-.347.347v7.216h-2.981c-1.8 0-3.09.058-3.257.147-.343.184-2.818 5.082-2.818 5.578 0 .199.156.517.347.708.285.285.488.347 1.132.347h.785v9.476l.347.346c.348.347.348.347 3.396.347 2.656 0 3.049.028 3.049.218 0 .12.156.375.347.565l.348.347H42.23l.347-.347c.19-.19.347-.445.347-.565 0-.19.393-.218 3.049-.218 3.048 0 3.049 0 3.396-.347l.347-.346V58.7h.785c.644 0 .847-.062 1.132-.347.19-.19.347-.51.347-.708 0-.496-2.475-5.394-2.818-5.578-.167-.089-1.456-.147-3.257-.147h-2.98v-7.216l-.348-.347-.347-.347H27.77l-.347.347ZM40.66 57.006V67.74h-2.264v-1.926c0-2.29-.136-2.823-.948-3.725-1.34-1.489-3.34-1.52-4.788-.074-.922.92-1.056 1.403-1.056 3.8v1.925H29.34V46.271h11.32v10.735Zm-9.056-7.345v1.13h2.264v-2.26h-2.264v1.13Zm4.528 0v1.13h2.264v-2.26h-2.264v1.13Zm18.814 1.922a30.611 30.611 0 0 1-1.565 1.462l-.935.811.369.488c.202.269.51.668.685.887l.318.398.673-.548a40.367 40.367 0 0 0 1.787-1.606l1.113-1.059-.83-.741c-.457-.408-.865-.742-.908-.742-.042 0-.36.292-.707.65Zm-40.358 1.248c-.37.42-.672.791-.672.823 0 .033.51.49 1.135 1.015l1.135.956.315-.395c.174-.218.488-.627.7-.91l.383-.514-.667-.507c-.366-.28-.82-.672-1.009-.872-.189-.2-.412-.364-.495-.363-.084.001-.455.346-.825.767Zm17.016 1.35v1.13h2.264v-2.26h-2.264v1.13Zm4.528 0v1.13h2.264v-2.26h-2.264v1.13Zm-9.056 1.13v1.13h-6.088l.57-1.13.569-1.13h4.949v1.13Zm21.367 0 .569 1.13h-6.088v-2.26h4.949l.57 1.13ZM31.604 58.7v1.13h2.264v-2.26h-2.264v1.13Zm4.528 0v1.13h2.264v-2.26h-2.264v1.13Zm-9.056 3.954v3.955h-4.528V58.701h4.528v3.954Zm20.376 0v3.955h-4.528V58.701h4.528v3.954Zm-11.667.912c.334.334.347.417.347 2.26v1.913h-2.264v-1.913c0-1.843.013-1.926.347-2.26A1.14 1.14 0 0 1 35 63.22c.276 0 .566.128.785.347Z" fill="#fff"/></svg>