<svg width="160" height="160" fill="none" xmlns="http://www.w3.org/2000/svg"><path fill-rule="evenodd" clip-rule="evenodd" d="M45.018.889c-.702.7-.935 1.285-1.1 2.754-.495 4.383-.212 3.938-3.337 5.257l-2.798 1.181-2.256-1.75C33.15 6.484 32.29 6.106 31.139 6.4c-.387.098-2.319 1.8-4.293 3.78-3.311 3.322-3.59 3.693-3.59 4.785 0 .967.332 1.606 1.813 3.497 1.058 1.35 1.748 2.516 1.658 2.8-.084.27-.497 1.332-.917 2.363-.42 1.03-.841 2.1-.935 2.377-.128.375-.913.595-3.09.869-1.947.244-3.203.571-3.768.981-.763.554-1.37.615-6.119.615-6.203 0-7.81.348-9.593 2.079C-.08 32.86.112 28.906.018 77.668c-.057 30.257.02 44.232.252 45.351.468 2.25 1.85 4.038 3.838 4.962 1.566.729 1.873.755 8.751.758l16.453.003-.767-.767c.978.978.384.384 0 0l.767-3.918H13.23c-3.81 0-7.008-.134-7.33-.306-.979-.523-1.264-2.101-1.264-7.004v-4.717h150.728v4.717c0 4.903-.285 6.481-1.264 7.004-.367.196-22.765.306-62.68.306H29.312l-.767 3.918c-.979-.977-.898-.897 0 0l.767.767h34.114v12.808l-6.332.001c-5.767.001-6.424.057-7.352.622-2.065 1.258-2.261 1.986-2.263 8.389-.001 6.637.205 7.402 2.334 8.648l1.316.77 28.899-.005 28.898-.005 1.218-.697c2.154-1.234 2.378-2.051 2.377-8.659-.001-6.461-.194-7.181-2.263-8.441-.928-.565-1.585-.621-7.352-.622l-6.332-.001v-12.808l28.847-.003 28.848-.003 1.623-.755c1.988-.924 3.37-2.712 3.838-4.962.232-1.119.31-15.094.252-45.351-.094-48.762.098-44.808-2.287-47.121-1.77-1.718-3.405-2.08-9.409-2.08-5.437 0-6.387.2-6.96 1.456-.488 1.07-.439 1.469.301 2.408l.648.823h5.589c5.457 0 5.609.017 6.466.753l.877.755.093 34.623c.064 23.943-.011 34.979-.242 35.778-.184.635-.702 1.443-1.151 1.796l-.817.641H6.835l-1.02-.911-1.022-.912V34.661l.877-.754c.85-.73 1.037-.753 5.99-.753h5.114l.107 3.117c.1 2.88.17 3.18.931 3.94.694.693 1.258.872 3.596 1.143 1.525.177 2.89.426 3.034.554.298.266 2.397 5 2.397 5.407 0 .146-.779 1.268-1.73 2.491-.953 1.225-1.813 2.55-1.913 2.945-.315 1.254.47 2.417 3.931 5.823 3.172 3.122 3.446 3.319 4.645 3.319 1.259 0 2.198-.547 5.17-3.012l.88-.728 1.466.741c.807.408 2.056.918 2.776 1.133 1.433.428 1.38.298 1.847 4.465.143 1.267.438 2.096.975 2.733l.771.915h10.834l.766-.909c.555-.659.825-1.455.979-2.89.415-3.873.422-3.888 1.856-4.316.716-.214 1.962-.723 2.768-1.13l1.467-.742.879.728c2.953 2.449 3.915 3.012 5.146 3.012 1.164 0 1.479-.224 4.655-3.318 4.794-4.67 4.91-5.337 1.616-9.31l-1.534-1.852 1.048-2.268c.577-1.246 1.049-2.487 1.049-2.756 0-.269.035-.497.078-.508.043-.01 1.466-.205 3.162-.432 2.608-.35 3.211-.54 3.909-1.237.762-.761.833-1.06.932-3.941l.108-3.117h24.049c23.633 0 24.061-.011 24.675-.625.79-.79.803-2.211.028-3.167l-.598-.738-24.341-.156c-22.115-.142-24.413-.204-25.123-.681-.43-.289-2.09-.71-3.688-.937l-2.907-.413-1.075-2.655c-.591-1.46-1.078-2.77-1.08-2.91-.003-.14.636-1.043 1.42-2.004 1.895-2.324 2.41-3.371 2.176-4.433-.121-.551-1.535-2.193-3.88-4.507-4.636-4.573-4.63-4.573-8.693-1.383l-1.962 1.54-2.82-1.19c-2.56-1.08-2.832-1.277-2.957-2.132-1.024-7.04-.467-6.536-7.38-6.664L45.907 0l-.89.889Zm8.93 6.68c.399 3.464.753 3.883 4.319 5.113 1.375.475 3.077 1.198 3.78 1.608 2.258 1.317 3.314 1.065 6.482-1.544l1.507-1.24 1.835 1.813 1.834 1.813-1.702 2.175c-.937 1.195-1.79 2.52-1.897 2.943-.136.542.188 1.572 1.093 3.479.708 1.49 1.503 3.439 1.767 4.331.282.95.806 1.879 1.265 2.24.764.6 1.34.74 4.765 1.153l1.654.2-.09 2.54-.09 2.54-2.673.32c-3.45.41-4.168.886-4.833 3.198-.285.993-1.081 2.968-1.768 4.388-1.512 3.124-1.46 3.595.685 6.244.854 1.053 1.552 2.034 1.552 2.178 0 .144-.769 1.02-1.708 1.947l-1.708 1.685-1.81-1.413c-3.262-2.549-3.564-2.597-6.62-1.059-1.175.591-3.078 1.378-4.227 1.75-2.6.838-2.985 1.386-3.404 4.834l-.321 2.65h-2.61c-2.272 0-2.61-.071-2.62-.547-.032-1.744-.625-4.89-1.04-5.524-.32-.485-1.215-.973-2.61-1.42-1.168-.374-3.074-1.161-4.235-1.749-3.01-1.524-3.329-1.474-6.508 1.009-.957.747-1.876 1.358-2.043 1.358-.168 0-1.045-.75-1.951-1.666L28.37 53.25l1.718-2.194c2.308-2.946 2.38-3.353 1.042-5.949-.599-1.162-1.421-3.151-1.827-4.42-.912-2.846-1.41-3.212-4.952-3.635l-2.673-.319-.09-2.54-.09-2.54 1.654-.2c3.424-.414 4-.554 4.764-1.154.434-.34.936-1.2 1.125-1.926.189-.721.98-2.686 1.76-4.366.929-2.004 1.355-3.297 1.24-3.759-.098-.387-.949-1.695-1.891-2.907l-1.714-2.203 1.796-1.776 1.796-1.775 2.279 1.724c2.748 2.08 3.426 2.15 6.465.665 1.194-.583 2.98-1.312 3.967-1.619 2.6-.808 3.006-1.374 3.425-4.772l.352-2.858h5.105l.327 2.841Zm-5.22 11.424c-3.085.49-6.982 2.654-9.101 5.054-2.54 2.876-3.769 6.163-3.769 10.082 0 4.297 1.452 7.82 4.45 10.8 5.874 5.836 15.153 5.985 21.13.339 3.321-3.139 4.803-6.536 4.803-11.016 0-7.384-4.702-13.289-11.938-14.993-1.883-.443-3.862-.538-5.574-.266Zm6.738 5.536c.92.42 2.349 1.444 3.175 2.274l1.502 1.509-4.437.086c-2.44.048-6.522.048-9.069 0l-4.632-.086 1.456-1.463c3.309-3.324 7.879-4.207 12.005-2.32Zm6.017 10.733c-.177 2.457-.968 4.206-2.804 6.194-2.72 2.948-7.49 4.068-11.264 2.645-2.204-.831-4.722-3.04-5.73-5.03-.762-1.5-1.458-4.776-1.173-5.518.12-.313 2.416-.4 10.638-.4h10.484l-.151 2.11Zm45.513 3.333c-1.298.58-1.618 1.244-1.981 4.1-.325 2.563-.461 2.953-1.033 2.955-.205 0-1.217.4-2.249.888l-1.876.887-2.142-1.669c-1.782-1.387-2.356-1.669-3.404-1.669-1.17 0-1.477.211-4.218 2.89-1.626 1.589-3.169 3.295-3.428 3.791-.684 1.31-.324 2.475 1.454 4.706l1.555 1.952-1.039 2.467-1.038 2.466-2.47.326c-2.672.354-3.683.763-4.182 1.693-.425.795-.413 9.151.015 10.09.507 1.11 1.33 1.477 4.14 1.843l2.561.335 1.006 2.51 1.006 2.511-1.185 1.437c-3.145 3.814-3.133 3.898 1.122 8.211 1.846 1.871 3.675 3.482 4.065 3.58 1.131.284 1.996-.075 4.096-1.698l1.966-1.52 2.454.96c2.745 1.076 2.401.505 3.017 5.015.122.896.474 1.68.98 2.187.777.776.872.789 5.619.789h4.828l.883-.881c.752-.752.914-1.228 1.103-3.237.121-1.295.311-2.48.422-2.633.111-.152 1.239-.73 2.505-1.283l2.303-1.005 2.185 1.708c3.254 2.543 3.607 2.48 7.519-1.338 1.717-1.675 3.299-3.456 3.516-3.957.543-1.258.176-2.31-1.589-4.553l-1.476-1.877.797-1.952c.438-1.074.869-2.178.958-2.453.118-.372.876-.594 2.914-.857 2.253-.29 2.898-.5 3.545-1.146.779-.778.791-.867.791-5.65v-4.861l-.995-.888c-.849-.758-1.359-.92-3.471-1.104l-2.476-.216-1.005-2.455c-.611-1.493-.905-2.617-.75-2.868.14-.227.866-1.211 1.614-2.186 1.042-1.358 1.361-2.044 1.361-2.932 0-1.06-.291-1.446-3.421-4.538-4.208-4.157-4.544-4.236-7.743-1.817-1.136.859-2.168 1.562-2.293 1.562-.269 0-4.118-1.622-4.628-1.95-.194-.125-.454-1.297-.576-2.603-.187-1.988-.367-2.536-1.105-3.363l-.883-.987-4.326-.078c-3.2-.058-4.585.038-5.318.365Zm7.258 6.776c.43 3.112.882 3.751 3.155 4.464 1.01.317 2.783 1.05 3.939 1.631 1.157.58 2.373 1.055 2.702 1.055.33 0 1.283-.491 2.119-1.092 3.333-2.396 2.786-2.3 4.352-.765.764.75 1.389 1.49 1.389 1.645 0 .155-.566.957-1.258 1.783-2.034 2.427-2.124 3.029-.85 5.694.596 1.245 1.324 2.998 1.618 3.897.855 2.606 1.229 2.898 4.253 3.329l2.648.377.092 2.077.092 2.077-1.03.16c-.567.087-1.689.242-2.494.344-1.894.24-2.97 1.11-3.4 2.748-.189.721-.906 2.54-1.593 4.042-1.445 3.161-1.426 3.367.548 5.911.756.974 1.374 1.893 1.374 2.044 0 .15-.619.88-1.375 1.622l-1.375 1.347-2.083-1.595c-2.403-1.84-3.296-1.983-5.274-.842-.719.414-2.403 1.137-3.743 1.607-3.074 1.077-3.523 1.627-3.807 4.663l-.221 2.348h-2.162c-1.189 0-2.165-.105-2.169-.234-.035-1.343-.732-4.734-1.083-5.268-.273-.418-1.26-.945-2.541-1.358-1.151-.372-2.912-1.089-3.913-1.593-2.665-1.344-3.126-1.266-6.025 1.023l-1.541 1.217-1.505-1.48c-.913-.9-1.404-1.611-1.249-1.813.14-.184.84-1.084 1.555-2.002 1.566-2.01 1.629-2.843.404-5.291-.492-.983-1.209-2.742-1.593-3.908-.796-2.417-1.337-2.894-3.61-3.186-3.53-.453-3.284-.25-3.284-2.684v-2.162l1.173-.014c3.268-.037 5.171-1.034 5.567-2.915.113-.536.753-2.155 1.423-3.596.67-1.441 1.219-3.014 1.219-3.496 0-.572-.552-1.594-1.598-2.956l-1.597-2.081 1.35-1.374c.742-.755 1.473-1.373 1.623-1.373.151 0 1.071.622 2.046 1.384 2.45 1.914 3.082 2.016 5.31.857 1.004-.522 2.745-1.246 3.87-1.609 2.714-.875 3.288-1.537 3.679-4.236.173-1.197.317-2.358.32-2.58.005-.3.552-.381 2.116-.313l2.109.093.328 2.377Zm-5.087 10.603c-3.325.656-6.827 2.988-8.684 5.783-1.795 2.7-2.42 5.02-2.28 8.456.103 2.532.246 3.116 1.266 5.178a14.318 14.318 0 0 0 6.718 6.587c1.997.945 2.312 1 5.71 1 3.399 0 3.712-.054 5.714-1.002 4.028-1.906 7.021-5.88 7.786-10.337 1.586-9.237-6.966-17.491-16.23-15.665Zm6.24 5.224c1.93.853 3.586 2.405 4.543 4.259.665 1.288.824 2.039.84 3.954.016 2.036-.112 2.62-.925 4.209-1.088 2.126-3.227 3.934-5.362 4.53-2.105.59-5.4.241-7.091-.749-3.153-1.846-4.777-4.939-4.514-8.6.183-2.538.973-4.162 2.877-5.916 2.757-2.538 6.3-3.16 9.632-1.687Zm-23.596 73.87-.084 6.326H68.273l-.084-6.326-.085-6.326h23.792l-.085 6.326Zm16.02 15.697v4.53H52.169V146.236h55.662v4.529Z" fill="#2C2C2C"/></svg>