<svg width="70" height="66" fill="none" xmlns="http://www.w3.org/2000/svg"><path fill-rule="evenodd" clip-rule="evenodd" d="M19.182 1.02c-.28.138-.695.494-.921.79l-.412.541-.047 3.513-.046 3.513h-.844c-1.016 0-1.598.448-1.598 1.231 0 .786.581 1.231 1.606 1.231h.852v9.848h-1.466c-1.373 0-1.492.025-1.865.398-.367.369-.39.472-.308 1.357.115 1.234.589 2.49 1.283 3.4.697.915 2.14 1.856 3.175 2.072.55.114 5.8.152 16.848.124l16.05-.042.88-.414c1.012-.475 2.247-1.64 2.716-2.56.41-.805.782-2.227.782-2.99 0-.421-.108-.698-.378-.968-.347-.348-.49-.377-1.843-.377H52.18v-9.848h.852c1.025 0 1.606-.445 1.606-1.231 0-.783-.582-1.23-1.598-1.23h-.844l-.046-3.514-.047-3.513-.414-.543C50.84.691 51.94.76 34.953.764c-13.815.003-15.31.027-15.77.255Zm30.54 11.434v9.233h-6.236l-.188-.909c-.416-2.02-2.253-4.6-3.888-5.463l-.557-.295.504-.706a5.453 5.453 0 0 0 .38-5.683c-.92-1.73-2.346-2.637-4.333-2.76-3.23-.197-5.679 2.102-5.669 5.322.004 1.231.409 2.466 1.068 3.257l.44.527-.86.56c-1.799 1.167-3.33 3.336-3.74 5.298l-.179.852H20.23V3.222h29.492v9.232ZM36.357 8.585c1.615.868 2.063 3.084.893 4.42-1.137 1.296-2.806 1.438-4.05.343-.723-.635-1.006-1.223-1.01-2.096-.007-1.24.612-2.277 1.634-2.734.675-.302 1.907-.269 2.533.067ZM8.318 9.755c-.355.355-.377.477-.377 2.084 0 1.607.022 1.729.377 2.084.238.238.553.378.852.378.784 0 1.229-.582 1.229-1.609v-.853h.852c1.025 0 1.606-.445 1.606-1.231 0-.3-.14-.615-.377-.853-.356-.356-.477-.378-2.081-.378s-1.726.022-2.08.378Zm49.154 0a1.24 1.24 0 0 0-.377.853c0 .786.581 1.231 1.606 1.231h.852v.853c0 .701.068.921.377 1.231.499.5 1.205.5 1.704 0 .355-.355.377-.477.377-2.084 0-1.607-.022-1.729-.377-2.084-.355-.356-.477-.378-2.081-.378s-1.726.022-2.08.378Zm2.904 6.854c-.741.297-.823.648-.823 3.544 0 2.479.026 2.734.302 3.031.416.447.87.564 1.38.353.683-.284.776-.709.776-3.541 0-2.481-.016-2.618-.346-2.981-.41-.452-.837-.587-1.29-.406Zm-51.744.186c-.643.37-.68.559-.686 3.448-.004 2.59.018 2.816.314 3.193.45.572 1.37.572 1.82 0 .295-.375.319-.608.319-3.07 0-2.844-.091-3.301-.715-3.586-.465-.212-.661-.21-1.052.015Zm29 .402c1.289.636 2.53 1.949 2.997 3.171.186.487.338.982.338 1.102 0 .183-.939.217-6.008.217h-6.007l.1-.423c.351-1.475 1.702-3.217 3.023-3.897 1.195-.615 1.84-.757 3.228-.71 1.128.038 1.474.119 2.328.54Zm15.517 7.25c-.136.518-1.158 1.579-1.805 1.873-.593.27-1.4.284-16.368.284-15.014 0-15.773-.013-16.36-.286-.713-.331-1.524-1.14-1.752-1.746l-.16-.423h18.261c17.988 0 18.26.004 18.183.298Zm7.095 1.58c-.642.369-.681.563-.686 3.383-.005 2.637.006 2.736.355 3.142.493.575 1.244.575 1.738 0 .346-.404.36-.514.36-3.02 0-2.775-.094-3.236-.716-3.52-.464-.212-.66-.21-1.05.015Zm-51.984.681c-.296.377-.319.606-.319 3.203 0 2.568.025 2.823.302 3.121.416.447.871.564 1.38.353.686-.285.776-.705.776-3.606 0-2.463-.024-2.696-.318-3.07-.246-.314-.454-.406-.91-.406-.458 0-.666.092-.911.405Zm5.211 9.132c-1.563 1.095-2.894 1.994-2.957 1.997-.063.004-.115-.274-.115-.616 0-.785-.53-1.378-1.229-1.378-.3 0-.614.14-.852.378-.35.35-.377.488-.377 1.914v1.536l-3.764 2.632C2.107 43.751.3 45.105.166 45.312c-.297.455-.19 1.014.28 1.452.398.371.894.397 1.512.077l.453-.235v18.64l.377.378.377.378h26.756l.377-.378c.363-.364.377-.454.377-2.462v-2.084h1.159c1.026 0 1.202-.044 1.536-.378.499-.5.499-1.207 0-1.706-.334-.335-.51-.378-1.536-.378h-1.159v-6.001c0-3.3.052-5.999.115-5.996.064.002.25.106.414.23 1.074.815 2.542-.726 1.66-1.741-.212-.244-12.683-9.181-15.181-10.88-.313-.212-.749-.384-.97-.383-.262.002-1.38.69-3.242 1.995Zm31.807 3.515c-4.346 3.028-8.035 5.687-8.2 5.908-.354.476-.268 1.033.233 1.5.398.372.895.398 1.513.078l.453-.235v12.01h-1.159c-1.026 0-1.202.043-1.536.378-.499.5-.499 1.206 0 1.706.334.334.51.378 1.536.378h1.159v2.084c0 2.008.014 2.098.377 2.462l.377.378h26.756l.376-.378.378-.378V55.93c0-5.124.051-9.314.115-9.311.063.002.25.106.413.23 1.074.814 2.543-.726 1.66-1.74-.147-.17-1.962-1.511-4.032-2.98l-3.763-2.67.043-1.733c.042-1.669.03-1.747-.338-2.116a1.198 1.198 0 0 0-1.646-.089c-.288.233-.378.487-.44 1.24l-.077.946-2.497-1.773c-2.85-2.025-2.962-2.092-3.445-2.089-.215.002-3.474 2.176-8.256 5.51Zm-22.664 1.373L28.2 44.69l.009 9.425.008 9.425H4.87V44.827l5.876-4.103c3.231-2.257 5.967-4.07 6.08-4.03.111.04 2.717 1.855 5.79 4.034Zm36.727-.074 5.665 4.042.04 9.422.04 9.422H41.734V44.825l5.875-4.1c3.232-2.256 5.918-4.104 5.97-4.107.053-.003 2.645 1.813 5.76 4.036ZM8.318 44.837l-.377.378V55.4l.377.377c.377.378.378.378 3.687.378h3.31V58.616h-2.081c-2.005 0-2.095.014-2.458.378a1.241 1.241 0 0 0-.377.853c0 .3.14.615.377.853l.377.378h10.78l.377-.378c.238-.238.378-.553.378-.853 0-.3-.14-.615-.378-.853-.363-.364-.453-.378-2.457-.378h-2.081v-2.462h3.31c3.309 0 3.31 0 3.686-.378l.377-.377V45.215l-.377-.378-.377-.377H8.695l-.377.377Zm36.866 0-.377.378V55.4l.377.377c.377.378.377.378 3.687.378h3.309V58.616H50.1c-2.005 0-2.095.014-2.458.378a1.24 1.24 0 0 0-.378.853c0 .3.14.615.378.853l.377.378h10.78l.377-.378a1.24 1.24 0 0 0 .377-.853c0-.3-.14-.615-.377-.853-.363-.364-.453-.378-2.458-.378h-2.08v-2.462h3.31c3.308 0 3.309 0 3.686-.378l.377-.377V45.215l-.377-.378-.377-.377H45.56l-.377.377Zm-22.496 5.47v3.385H10.399v-6.77h12.289v3.385Zm36.865 0v3.385H47.264v-6.77h12.289v3.385Z" fill="#fff"/></svg>