<svg width="70" height="71" fill="none" xmlns="http://www.w3.org/2000/svg"><path fill-rule="evenodd" clip-rule="evenodd" d="m11.65.348-.347.347v31.61l-.647-.286c-2.035-.9-4.37-.092-5.356 1.85-.864 1.703-.982 4.617-.307 7.593l.328 1.45-.365.087c-1.524.365-2.695 1.796-2.695 3.293 0 .888.323 1.603 1.054 2.334.83.829 1.44 1.053 2.86 1.053h.986l.162.54c.242.807 1.2 2.206 2.075 3.028.729.686.774.769.774 1.403v.675h-2.09c-2.349 0-3.265.174-4.568.867-.99.527-2.217 1.777-2.722 2.772C.076 60.377 0 60.982 0 65.31v4l.347.346.347.346H60.34l.347-.346.347-.347V38.894l4.077-4.099c4.785-4.81 4.879-4.946 4.889-7.061.005-1.088-.049-1.385-.37-2.071a5.35 5.35 0 0 0-2.501-2.551c-.848-.417-1.05-.458-2.207-.454-1.437.006-2.071.223-3.217 1.102l-.671.514V.694l-.347-.346-.346-.346H11.995l-.347.346Zm47.123 14.085v12.173l-5.899 5.892-5.899 5.891H24.871l-.087-.388c-.42-1.861-.909-2.83-2.036-4.033-2.133-2.278-5.347-2.947-8.346-1.736l-.839.338V2.26h45.21v12.173Zm-25.62-9.597c-.218.218-.376.642-.503 1.354-.179.999-.204 1.044-.7 1.245-.283.114-.92.395-1.416.623l-.901.414-1.006-.645c-1.404-.9-1.452-.883-3.653 1.316-2.2 2.198-2.218 2.246-1.318 3.646l.645 1.003-.484 1.046c-.266.575-.525 1.211-.576 1.413-.084.333-.193.385-1.173.553-1.735.296-1.723.273-1.723 3.498 0 3.238-.029 3.176 1.613 3.525l1.115.237.397.988c.218.544.498 1.165.624 1.38.222.384.213.414-.419 1.402-.355.554-.646 1.167-.646 1.361 0 .497 3.56 4.076 4.168 4.192.34.065.621-.046 1.43-.565l1.006-.645.901.415c.496.228 1.133.508 1.416.622.496.2.521.246.7 1.245.3 1.68.284 1.672 3.496 1.672 3.241 0 3.179.028 3.529-1.613l.237-1.115 1.197-.48c.659-.263 1.277-.545 1.375-.626.13-.108.452.028 1.194.503.56.357 1.176.65 1.37.65.497 0 4.081-3.556 4.197-4.164.065-.34-.046-.62-.565-1.428l-.646-1.005.415-.9c.228-.495.506-1.127.619-1.404.194-.48.25-.512 1.246-.7 1.687-.317 1.678-.297 1.678-3.502 0-3.235.029-3.172-1.616-3.532l-1.117-.244-.394-.98c-.217-.54-.497-1.159-.622-1.374-.223-.384-.214-.414.418-1.401.356-.555.647-1.168.647-1.362 0-.497-3.56-4.076-4.168-4.192-.34-.064-.621.046-1.428.563l-1.003.644-.48-.24a25.192 25.192 0 0 0-1.398-.613l-.919-.372-.237-1.114c-.35-1.64-.288-1.612-3.529-1.612-2.586 0-2.685.01-2.993.318Zm4.557 2.913c.213 1.194.443 1.427 1.804 1.832.558.166 1.433.524 1.945.795 1.184.628 1.58.624 2.561-.027l.783-.52.929.928.928.927-.513.83c-.282.457-.513 1.003-.513 1.213 0 .211.222.802.494 1.313.27.51.629 1.385.795 1.942.406 1.36.64 1.59 1.835 1.803l.973.173v2.733l-.976.174c-.6.107-1.07.276-1.217.44-.132.145-.428.822-.657 1.505-.23.682-.604 1.566-.832 1.964-.553.965-.532 1.435.105 2.394l.52.782-.935.935-.936.934-.783-.52c-.451-.299-.957-.519-1.193-.519-.225 0-.91.249-1.52.553-.612.304-1.494.66-1.96.792-1.177.333-1.428.604-1.637 1.775l-.174.973H34.8l-.174-.973c-.21-1.17-.46-1.442-1.638-1.775-.466-.131-1.347-.488-1.959-.792-.61-.304-1.295-.553-1.52-.553-.236 0-.742.22-1.194.52l-.783.52-.935-.935-.936-.935.52-.782c.651-.98.655-1.376.027-2.559a12.734 12.734 0 0 1-.794-1.942c-.393-1.325-.666-1.593-1.856-1.816l-.954-.18v-2.693l.954-.18c1.19-.223 1.463-.49 1.856-1.816.166-.557.523-1.431.794-1.942.628-1.183.624-1.58-.027-2.559l-.52-.782.936-.935.935-.934.784.52c.464.308.955.519 1.205.519.233 0 .917-.248 1.521-.552.604-.303 1.48-.66 1.947-.792 1.177-.334 1.427-.605 1.637-1.776l.174-.973H37.536l.174.973Zm-3.025 4.806c-2.497.54-4.515 2.095-5.587 4.308-2.138 4.413.046 9.42 4.81 11.028.561.19 1.188.262 2.26.262 2.267 0 4.022-.712 5.573-2.262 1.551-1.549 2.264-3.303 2.264-5.566 0-1.072-.072-1.697-.262-2.258-1.136-3.36-3.828-5.441-7.221-5.581-.7-.029-1.526.002-1.837.07Zm3.804 2.664c1.275.596 2.1 1.406 2.732 2.684.499 1.007.528 1.14.528 2.422 0 1.28-.03 1.414-.528 2.421-.635 1.285-1.453 2.085-2.767 2.707-.853.403-1.072.446-2.286.446-1.213 0-1.432-.043-2.286-.447-1.313-.621-2.131-1.421-2.767-2.706-.498-1.006-.527-1.142-.527-2.414 0-1.22.042-1.437.447-2.29.567-1.198 1.376-2.074 2.43-2.636 1.113-.592 1.722-.726 3.021-.664.848.04 1.3.147 2.004.476Zm27.598 9.84c1.473.615 2.138 2.35 1.458 3.804-.145.31-.907 1.199-1.693 1.974l-1.43 1.41-2.01-2.009-2.01-2.008 1.41-1.428c.777-.785 1.666-1.546 1.977-1.691.691-.323 1.6-.343 2.298-.052Zm-5.265 6.838 1.975 1.976-.882.881-.882.881-2.01-2.008-2.01-2.008.84-.849c.463-.467.876-.849.918-.849.042 0 .965.89 2.051 1.976Zm-3.39 3.388 1.975 1.977-5.968 5.961-5.968 5.962-2.012-2.011-2.013-2.01 5.932-5.928c3.263-3.26 5.966-5.928 6.006-5.928.04 0 .962.89 2.048 1.977Zm-47.78-1.252c.17.087.763.595 1.318 1.129 1.292 1.241 1.556 1.266 2.683.246 1.22-1.104 2.104-1.457 3.654-1.461 1.137-.003 1.371.043 2.211.441 1.899.899 2.957 2.53 3.062 4.724.043.91-.005 1.415-.19 1.978-.135.416-.265.778-.287.804-.022.026-1.355-1.006-2.964-2.294-3.18-2.545-3.426-2.665-4.099-1.994-.23.23-.347.506-.347.82 0 .26-.165.803-.367 1.208-.577 1.157-1.039 1.355-4.252 1.825l-2.698.394-.234-1.061c-.5-2.269-.426-4.75.177-5.91.43-.827 1.572-1.243 2.333-.85Zm8.861 7.92 1.834 1.446-.036 2.69-.037 2.689-.528 1.066c-.635 1.284-1.454 2.084-2.767 2.705-.853.404-1.072.447-2.286.447-1.213 0-1.432-.043-2.286-.447-1.313-.621-2.131-1.421-2.767-2.706l-.527-1.066-.05-2.428-.048-2.427.402-.08c.221-.044 1.13-.183 2.02-.309.89-.126 1.952-.354 2.36-.507.853-.319 1.984-1.274 2.383-2.013.15-.279.324-.507.386-.507s.938.651 1.947 1.447Zm24.258.636-1.94 1.943-1.201 4.193c-.66 2.306-1.201 4.325-1.201 4.485 0 .393.615.986 1.018.983.178-.002 2.196-.54 4.485-1.194l4.161-1.192 2.515-2.509 2.514-2.509v14.18H29.277l-.091-.483c-.176-.937-1.039-2.407-1.889-3.216-1.588-1.514-2.918-1.945-5.993-1.945h-2.09v-.658c0-.626.047-.704.986-1.636.921-.915 1.981-2.605 1.981-3.159 0-.145.256-.193 1.042-.193 1.325 0 2.123-.282 2.874-1.018 1.925-1.886 1.059-4.808-1.68-5.665-.216-.067-.203-.18.135-1.212l.374-1.137h19.786l-1.94 1.943Zm16.002 11.889v13.266H29.387v-4.516h25.302l.347-.347.347-.346V44.532l1.658-1.66c.911-.913 1.674-1.66 1.695-1.66.02 0 .038 5.97.038 13.266ZM6.782 46.292v1.13h-.784c-.943 0-1.477-.41-1.477-1.13s.534-1.129 1.477-1.129h.784v1.13Zm17.737-.782c.219.218.347.507.347.782 0 .72-.535 1.13-1.477 1.13h-.784v-2.259h.784c.643 0 .845.062 1.13.347Zm20.583 4.749c-.137.126-3.725 1.142-3.793 1.074-.055-.055.91-3.611 1.038-3.82.04-.067.7.502 1.466 1.265.766.762 1.346 1.428 1.29 1.48Zm-20.236 2.807v1.13h11.302v-2.259H24.866v1.13Zm-10.173 2.188c.583 0 1.337-.05 1.676-.11l.615-.11-.05 1.124c-.056 1.205-.245 1.612-1.024 2.192-.546.408-1.887.408-2.434 0-.778-.58-.968-.987-1.022-2.192l-.051-1.124.615.11c.339.06 1.093.11 1.675.11Zm-4.055 3.082c.424.926 1.147 1.666 2.117 2.17.633.327.908.382 1.938.382 1.03 0 1.306-.055 1.938-.383.975-.505 1.694-1.244 2.124-2.183l.352-.767 2.35.055c2.069.05 2.425.093 2.99.368.998.487 1.599 1.06 2.124 2.029l.485.892.046 3.423.046 3.422H2.238l.049-3.422c.046-3.303.06-3.448.396-4.129.6-1.217 1.772-2.173 3.039-2.48.233-.055 1.357-.108 2.497-.116l2.074-.014.345.753Z" fill="#fff"/></svg>