<svg width="70" height="70" fill="none" xmlns="http://www.w3.org/2000/svg"><path fill-rule="evenodd" clip-rule="evenodd" d="M32.467.092c-7.965.984-14.736 5.447-18.7 12.326-1.809 3.138-2.868 6.727-3.135 10.62l-.098 1.422H8.971c-2.525 0-4.086.556-5.604 1.993a7.133 7.133 0 0 0-1.967 3.34c-.96 3.664 1.37 7.48 5.166 8.462.634.164 1.721.217 4.416.217h3.575l.36-.358.361-.358v-12.58l-.36-.357c-.298-.297-.505-.359-1.197-.359h-.836l.099-1.402c.281-3.975 1.553-7.683 3.779-11.014 1.232-1.844 4.139-4.733 5.992-5.956 3.858-2.544 7.858-3.74 12.503-3.74 4.682 0 8.613 1.175 12.497 3.736 1.854 1.223 4.764 4.113 5.992 5.95a22.613 22.613 0 0 1 3.785 11.024l.1 1.402h-.837c-.692 0-.898.062-1.197.358l-.36.359v12.579l.36.358c.296.294.506.358 1.175.358h.815v1.977c0 1.905-.013 1.99-.36 2.336l-.361.358h-8.94l-.184-.443c-.25-.601-1.322-1.51-2.026-1.72-.755-.225-3.72-.221-4.492.005-.807.237-2.024 1.446-2.263 2.248-.406 1.368-.12 2.458.919 3.494.978.976 1.564 1.135 3.922 1.06 1.498-.047 1.916-.111 2.414-.371.65-.34 1.444-1.152 1.599-1.636.094-.296.177-.301 4.586-.301 3.097 0 4.679-.056 5.096-.178.807-.237 2.024-1.446 2.262-2.248.102-.343.179-1.455.179-2.59v-1.99h1.585c2.548 0 4.103-.552 5.625-1.994a6.874 6.874 0 0 0 0-10.026c-1.518-1.437-3.079-1.993-5.604-1.993h-1.563l-.098-1.423c-.427-6.23-2.819-11.496-7.213-15.885C49.016 3.5 44.57 1.196 39.445.298c-1.596-.28-5.458-.394-6.978-.206Zm-1.55 4.876c-.353.351-.36.403-.36 2.778 0 2.06-.034 2.432-.23 2.507-.159.06-.765-.438-1.96-1.61-1.52-1.493-1.79-1.698-2.227-1.698-.448 0-.768.27-3.328 2.814-2.561 2.544-2.832 2.861-2.832 3.307 0 .433.206.701 1.708 2.212 1.18 1.187 1.682 1.79 1.621 1.948-.075.194-.449.228-2.524.228-2.39 0-2.442.007-2.795.358l-.361.359v7.908l.36.358c.354.352.407.359 2.796.359 2.075 0 2.449.033 2.524.228.06.158-.44.76-1.62 1.948-1.503 1.51-1.71 1.778-1.71 2.212 0 .446.272.763 2.833 3.307 2.56 2.544 2.88 2.814 3.328 2.814.437 0 .706-.206 2.227-1.698 1.195-1.173 1.801-1.67 1.96-1.61.196.074.23.446.23 2.507 0 2.374.007 2.426.36 2.778l.361.358h7.96l.36-.358c.354-.352.361-.404.361-2.778 0-2.061.034-2.433.23-2.507.159-.06.765.437 1.96 1.61 1.521 1.492 1.79 1.698 2.227 1.698.449 0 .768-.27 3.328-2.814 2.561-2.544 2.832-2.861 2.832-3.307 0-.434-.206-.701-1.708-2.212-1.18-1.188-1.682-1.79-1.621-1.948.075-.195.45-.228 2.524-.228 2.39 0 2.442-.007 2.795-.359l.361-.358v-7.908l-.36-.359c-.354-.351-.407-.358-2.796-.358-2.075 0-2.449-.034-2.524-.228-.06-.158.44-.76 1.62-1.948 1.503-1.51 1.71-1.779 1.71-2.212 0-.446-.272-.763-2.833-3.307-2.56-2.544-2.88-2.814-3.328-2.814-.437 0-.706.205-2.227 1.698-1.195 1.172-1.801 1.67-1.96 1.61-.196-.075-.23-.446-.23-2.507 0-2.375-.007-2.427-.36-2.778l-.361-.358h-7.96l-.36.358Zm6.692 4.158c0 2.569.04 2.65 1.616 3.298 1.785.735 1.692.762 3.573-1.081l1.652-1.62 1.644 1.64 1.644 1.64-1.63 1.635c-1.854 1.861-1.826 1.77-1.087 3.546.653 1.566.735 1.605 3.32 1.605h2.195V24.46h-2.195c-2.585 0-2.667.04-3.32 1.606-.74 1.775-.767 1.684 1.088 3.546l1.629 1.635-1.644 1.64-1.644 1.64-1.652-1.62c-1.88-1.844-1.788-1.816-3.573-1.082-1.577.648-1.616.73-1.616 3.299v2.18H32.908v-2.18c0-2.57-.04-2.65-1.617-3.299-1.786-.735-1.695-.762-3.569 1.08l-1.646 1.62-1.65-1.634-1.65-1.633 1.63-1.642c1.856-1.869 1.827-1.777 1.089-3.55-.652-1.566-.735-1.606-3.32-1.606H19.98v-4.67h2.195c2.585 0 2.668-.04 3.32-1.606.738-1.774.767-1.682-1.089-3.55l-1.63-1.642 1.65-1.633 1.65-1.634 1.646 1.62c1.874 1.842 1.783 1.814 3.57 1.08 1.575-.649 1.615-.73 1.615-3.299V6.945H37.608v2.181Zm-4.097 6.224c-3.725.995-6.03 4.827-5.08 8.447.909 3.47 4.273 5.736 7.768 5.236 3.125-.447 5.56-2.857 6.008-5.947.704-4.856-3.957-9.003-8.696-7.736Zm3.73 2.554c3.485 1.643 3.612 6.442.22 8.296-.886.484-1.046.521-2.204.52-1.14-.003-1.33-.047-2.178-.5-3.654-1.958-3.225-7.11.71-8.531.927-.335 2.492-.238 3.451.215ZM8.226 31.483v4.687l-.698-.102c-.92-.135-2.303-.877-2.838-1.522-.822-.99-1.077-1.72-1.077-3.08 0-1.015.065-1.373.357-1.97.736-1.509 2.353-2.614 3.925-2.685l.33-.015v4.687Zm4.7-.017v4.671H10.578V26.796h2.351v4.67Zm47.012 0v4.671h-2.351V26.796h2.351v4.67Zm4.332-4.218c.96.448 1.603 1.066 2.14 2.054.457.844.5 1.03.5 2.164 0 1.133-.043 1.32-.499 2.16-.274.507-.696 1.085-.936 1.286-.656.548-1.715 1.039-2.493 1.155l-.694.103v-9.408l.692.104c.38.056.96.228 1.29.382ZM45.475 43.5c.227.226.36.526.36.81 0 .284-.133.583-.36.81-.34.337-.456.358-1.99.358s-1.65-.021-1.99-.359a1.172 1.172 0 0 1-.36-.81c0-.283.133-.583.36-.809.34-.337.456-.358 1.99-.358s1.65.021 1.99.358ZM9.763 47.005c-.296.294-.36.502-.36 1.167v.81H.721l-.361.358-.361.358v17.25l.36.358.361.359H9.402v.809c0 .665.065.874.36 1.168l.361.358h10.311l.36-.358c.315-.313.36-.49.36-1.389v-1.03l1.046.523c2.19 1.096 2.081 1.087 12.971 1.084 10.542-.002 10.717-.014 12.32-.82.423-.212 3.975-2.226 7.894-4.474 3.918-2.248 8.38-4.808 9.916-5.687 4.124-2.363 4.702-3.042 4.699-5.51-.002-1.496-.192-2.054-1.044-3.06-1.163-1.373-3.562-1.972-5.155-1.288-.226.097-3.04 1.68-6.253 3.52l-5.842 3.344-.709-.659c-.39-.362-.9-.757-1.135-.877s-4.56-1.32-9.61-2.666c-11.464-3.056-10.55-2.957-15.608-1.701l-3.49.866v-1.227c0-1.11-.034-1.263-.36-1.586l-.36-.359H10.123l-.36.359Zm9.041 11.318v9.342h-7.051V48.982h7.051v9.341Zm47.819-7.9c.242.14.594.48.784.756.284.415.334.645.287 1.315-.037.517-.17.968-.365 1.24-.214.299-3.4 2.204-10.483 6.268-5.597 3.21-10.48 5.97-10.85 6.13-.648.28-1.053.294-10.37.338-7.106.034-9.913 0-10.505-.127-.444-.096-1.518-.528-2.387-.96l-1.58-.786V52.229l3.598-.894c2.617-.65 3.866-.894 4.582-.894.808 0 2.574.422 9.808 2.341 4.853 1.288 9.106 2.443 9.45 2.567.868.314 1.393 1.032 1.462 2 .097 1.362-.887 2.435-2.233 2.433-.325 0-3.79-.855-7.7-1.898s-7.224-1.896-7.362-1.896c-.14 0-.427.136-.64.302-.488.382-.542 1.265-.1 1.661.321.29.387.309 8.89 2.566 5.72 1.518 6.238 1.63 7.198 1.568 2.315-.15 4.072-1.855 4.326-4.199l.087-.802 2.13-1.22c8.053-4.616 9.959-5.69 10.215-5.758.434-.116 1.262.033 1.758.318Zm-57.22 7.9v7.006H2.35V51.317h7.051v7.006Zm5.06 5.03c-.314.312-.36.488-.36 1.392 0 .905.046 1.08.36 1.394.228.226.53.358.816.358.286 0 .587-.132.814-.358.315-.313.36-.49.36-1.394 0-.904-.045-1.08-.36-1.393a1.187 1.187 0 0 0-.815-.358c-.286 0-.587.132-.814.358Z" fill="#fff"/></svg>