<svg width="70" height="70" fill="none" xmlns="http://www.w3.org/2000/svg"><path fill-rule="evenodd" clip-rule="evenodd" d="M32.996.215c-2.59.562-5.065 2.491-6.262 4.88-.827 1.653-1.105 3.011-.998 4.889l.083 1.459-2.95 1.067a961.716 961.716 0 0 0-4.064 1.479l-1.113.41-.743-1.067c-1.715-2.466-4.634-4-7.613-4C4.256 9.332 0 13.587 0 18.665c0 4.016 2.739 7.707 6.636 8.94 1.456.462 4.113.451 5.457-.021.513-.18.983-.275 1.043-.21.06.065 1.039 1.684 2.174 3.598l2.062 3.48-1.85 2.867c-1.017 1.576-1.923 2.947-2.013 3.046-.129.141-.396.099-1.243-.196-1.421-.494-3.321-.61-4.827-.294C3.184 40.767 0 44.678 0 49.012c0 4.017 2.74 7.709 6.636 8.941.808.256 1.372.323 2.7.323 1.96 0 3.14-.304 4.658-1.198.936-.552 2.383-1.836 2.838-2.519l.242-.362 4.374 2.182 4.374 2.183-.084 1.462c-.109 1.882.167 3.237.997 4.892.716 1.43 2.148 2.969 3.502 3.767 3.683 2.171 8.29 1.616 11.274-1.357 1.785-1.778 2.663-3.697 2.806-6.13.1-1.697-.198-3.142-.955-4.637l-.575-1.134 5.258-5.504a1338.76 1338.76 0 0 1 6.188-6.45l.931-.947.402.263c1.398.912 3.55 1.558 5.175 1.554 3.993-.011 7.689-2.762 8.915-6.636.459-1.448.459-3.95 0-5.398-.46-1.453-1.27-2.755-2.449-3.94-2.988-3-7.717-3.542-11.351-1.3l-.87.537-6.282-6.28-6.283-6.281.452-.706c.657-1.026 1.015-1.941 1.289-3.293C45.472 4.58 39.514-1.198 32.996.214Zm3.7 2.332a7.124 7.124 0 0 1 5.116 5.13c.946 3.629-1.378 7.457-5.116 8.43-3.646.95-7.48-1.367-8.454-5.108-1.3-4.989 3.464-9.751 8.454-8.452Zm-25.688 9.338a7.124 7.124 0 0 1 5.116 5.13c.945 3.628-1.378 7.456-5.116 8.43-3.652.95-7.478-1.361-8.454-5.108-1.301-4.993 3.46-9.752 8.454-8.452Zm16.458 2.84c.367.522.838 1.108 1.047 1.303.21.194.38.417.38.495 0 .104-4.702 7.5-5.068 7.972-.088.113-5.586-2.678-5.586-2.836 0-.082.105-.642.233-1.243.207-.973.228-2.928.038-3.618-.056-.205 8.05-3.278 8.206-3.111.046.05.384.517.75 1.038Zm19.58 8.297 6.255 6.255-.584.969c-.322.533-.674 1.271-.783 1.64l-.198.673-.787-.082A184.84 184.84 0 0 1 47.282 32l-2.88-.396-.09-.981c-.438-4.708-4.552-8.451-9.288-8.451-1.404 0-2.837.35-4.233 1.037-.996.49-1.476.851-2.44 1.832l-1.199 1.222-.6-.307c-.35-.178-.572-.383-.53-.49.093-.243 4.616-7.26 4.828-7.492.13-.14.393-.1 1.228.19 2.55.887 5.81.471 8.004-1.018.306-.208.59-.378.632-.378.042 0 2.892 2.814 6.332 6.254Zm-27.194 2.212c1.944.973 2.6 1.367 2.516 1.51-.063.106-.897 1.389-1.852 2.85l-1.737 2.66-1.802-3.038c-.991-1.67-1.802-3.087-1.802-3.147 0-.06.253-.34.564-.62.31-.28.721-.74.912-1.02.191-.28.398-.51.459-.51.06-.001 1.295.59 2.742 1.315Zm16.844-.51c3.47.904 5.736 4.244 5.236 7.716a7.075 7.075 0 0 1-5.236 5.844c-3.652.951-7.478-1.36-8.454-5.108-1.301-4.993 3.46-9.752 8.454-8.452Zm-10.575 3.783c0 .084-.098.612-.217 1.173-.878 4.144 1.217 8.331 5.106 10.21.562.271 1.433.577 1.934.679l.912.185v10.68l-.878.182c-.483.1-1.182.311-1.553.47-.371.16-.69.271-.707.25-.018-.023-2.405-4.035-5.304-8.918-4.824-8.122-5.257-8.905-5.092-9.204.099-.18 1.097-1.743 2.218-3.472l2.038-3.143.771.378c.425.208.772.447.772.53Zm36.263-.281a7.124 7.124 0 0 1 5.116 5.13c.945 3.628-1.378 7.456-5.116 8.43-3.652.95-7.478-1.361-8.454-5.108-1.301-4.993 3.46-9.752 8.454-8.452Zm-13.911 6.286 2.898.4.002.52c.007 1.383.705 3.448 1.61 4.763l.464.674-.502.534A4020.507 4020.507 0 0 1 41.97 52.915l-.745.765-.729-.528c-.979-.709-2.3-1.304-3.4-1.53l-.904-.188v-10.68l.904-.186c1.889-.39 3.943-1.66 5.154-3.187.702-.885 1.677-2.732 1.677-3.177 0-.309.117-.301 4.546.308ZM23.6 44.927c2.646 4.454 4.89 8.248 4.987 8.431.157.298.113.404-.415 1.004-.324.368-.771.957-.993 1.307-.221.351-.452.638-.513.638-.103 0-8.29-4.057-8.41-4.168-.03-.028.053-.58.183-1.227.13-.647.236-1.552.235-2.012-.007-2.076-.963-4.499-2.42-6.128-.45-.503-.786-.998-.747-1.1.123-.319 3.181-4.952 3.232-4.896.027.03 2.214 3.697 4.86 8.151Zm-12.593-2.695c3.738.974 6.061 4.802 5.116 8.43a7.124 7.124 0 0 1-5.116 5.13c-3.652.951-7.478-1.36-8.454-5.108-1.301-4.992 3.46-9.752 8.454-8.452Zm25.688 11.673c3.738.973 6.062 4.801 5.116 8.43-.98 3.758-4.798 6.083-8.438 5.135-3.755-.977-6.085-4.803-5.138-8.435.982-3.77 4.798-6.084 8.46-5.13Z" fill="#6A6A6A"/></svg>