<svg width="70" height="70" fill="none" xmlns="http://www.w3.org/2000/svg"><path fill-rule="evenodd" clip-rule="evenodd" d="M22.027.095c-1.554.326-1.818.546-7.62 6.34-4.773 4.767-5.543 5.594-5.857 6.284-.519 1.139-.698 2.335-.505 3.374.3 1.61.695 2.218 2.87 4.412l2.004 2.022H9.024c-4.093 0-4.825.082-5.98.672-1.31.669-2.438 2.107-2.84 3.617-.27 1.012-.273 15.294-.005 16.3.26.976.656 1.69 1.385 2.501l.635.707-.453.4c-.636.563-1.294 1.715-1.548 2.71-.186.73-.21 1.895-.176 8.559l.04 7.712.51 1.031c.622 1.261 1.531 2.154 2.808 2.76l.92.436 7.698.04c6.651.033 7.814.01 8.543-.177.995-.254 2.146-.913 2.708-1.549l.4-.453.708.636c.844.76 1.69 1.208 2.674 1.417.485.103 3.134.154 8.002.154 6.018 0 7.414-.035 8.062-.204 1.065-.278 1.686-.615 2.523-1.368l.706-.635.4.453c.562.636 1.713 1.295 2.708 1.55.73.185 1.892.21 8.543.175l7.7-.04.918-.435c1.277-.606 2.187-1.499 2.81-2.76l.509-1.03.04-7.714c.033-6.663.01-7.827-.177-8.557-.254-.996-.912-2.148-1.547-2.71l-.453-.4.635-.708c.752-.837 1.088-1.459 1.366-2.525.169-.649.204-2.046.204-8.069 0-4.872-.05-7.524-.154-8.009-.209-.985-.656-1.832-1.415-2.677l-.636-.708.453-.4c.635-.562 1.293-1.714 1.547-2.71.186-.73.21-1.894.176-8.55l-.04-7.706-.435-.92C68.891 2.065 68 1.155 66.74.532l-1.03-.51H49.563l-.786.318c-1.038.42-2.042 1.23-2.64 2.132-.952 1.435-.935 1.269-.985 9.306-.027 4.466.009 7.585.094 8.135.18 1.155.795 2.39 1.567 3.146l.613.6-.563.568-.563.567-.567-.567a5.528 5.528 0 0 0-2.589-1.488c-.655-.17-1.682-.212-5.253-.212h-4.438l1.983-2.018c2.169-2.207 2.6-2.869 2.871-4.408.117-.662.114-1.091-.01-1.765-.342-1.857-.425-1.962-6.011-7.586-2.827-2.846-5.43-5.39-5.786-5.653-1.19-.88-3.06-1.3-4.474-1.002Zm2.25 2.335c.46.125 1.376.976 5.85 5.437 2.918 2.909 5.432 5.493 5.587 5.742.176.282.31.784.353 1.333.133 1.657.206 1.561-5.623 7.4-2.866 2.87-5.426 5.332-5.69 5.47-.346.183-.777.253-1.571.254-.944.002-1.178-.048-1.709-.365-.338-.201-2.872-2.633-5.631-5.404-3.729-3.744-5.088-5.195-5.294-5.653-.37-.82-.37-2.051 0-2.873.397-.882 10.317-10.81 11.199-11.208.685-.31 1.689-.362 2.528-.133Zm41.525.138c.789.397 1.16.762 1.546 1.52l.328.645-.003 7.631c-.003 8.495.027 8.203-.948 9.178-.96.962-.499.912-8.822.957-5.67.03-7.67-.001-8.133-.13-.8-.22-1.924-1.322-2.158-2.115-.244-.828-.225-15.108.021-15.798a3.31 3.31 0 0 1 1.628-1.828l.699-.349h7.633c7.497 0 7.644.006 8.21.29ZM53.05 7.888v1.095h6.846l-.04 1.129-.04 1.128-3.122.069c-3.98.087-3.644-.211-3.644 3.239 0 2.548.062 2.925.535 3.289.16.122 1.317.168 4.352.171l4.135.004v-2.189h-6.698v-2.325H61.4l.335-.336c.334-.334.336-.354.336-2.992 0-2.479-.019-2.679-.284-3.015l-.283-.361H53.05v1.095Zm-32.738 2.32c-.15.062-.719.575-1.264 1.14l-.991 1.026v3.586H20.244v-1.269c0-.953.056-1.349.223-1.588l.223-.32 3.231 3.232 3.231 3.232.815-.824.815-.824-3.551-3.565c-1.954-1.96-3.718-3.653-3.92-3.76-.413-.22-.599-.232-.999-.066ZM17.575 27.17c2.443 2.43 3.18 2.947 4.455 3.118l.538.072v5.952c0 4.202-.048 6.11-.163 6.494-.221.74-1.212 1.812-1.926 2.083-.509.194-1.477.215-8.242.18l-7.666-.038-.669-.414a3.538 3.538 0 0 1-1.083-1.083l-.413-.67-.042-7.604c-.027-5.004.008-7.771.102-8.095.235-.807.876-1.56 1.663-1.953l.723-.36h10.393l2.33 2.318Zm25.568-2.062c.702.319 1.404 1.022 1.723 1.725.233.511.25 1.081.25 8.143 0 8.468.032 8.161-.961 9.156-.994.994-.687.962-9.148.962s-8.154.032-9.148-.962c-.976-.977-.961-.856-.964-7.738l-.003-6.174.785-.38c.6-.29 1.339-.928 3.11-2.683l2.324-2.3h5.741c5.267 0 5.787.022 6.291.25Zm22.969.226c.414.257.826.67 1.082 1.084l.414.67v15.776l-.414.67a3.54 3.54 0 0 1-1.082 1.083l-.67.414-7.665.039c-6.766.034-7.733.013-8.243-.181-.714-.271-1.704-1.343-1.926-2.083-.228-.764-.23-14.891-.002-15.655.21-.701 1.12-1.725 1.816-2.044.52-.238 1.016-.25 8.287-.22l7.733.033.67.414Zm-35.05 6.62c-.312 1.573-.566 2.992-.566 3.153 0 .16.151.443.335.627.332.332.366.336 2.803.336H36.1V40.586h2.324V36.071H40.611v-2.189H38.424v-4.514H36.1v4.514h-1.503c-1.322 0-1.504-.028-1.504-.231 0-.128.167-1.08.37-2.115.203-1.037.34-1.914.304-1.95-.046-.046-1.965-.49-2.125-.492-.008 0-.27 1.287-.58 2.86ZM9.034 30.462v1.095h2.33c2.867 0 3.275.144 3.275 1.162 0 .919-.49 1.162-2.351 1.168-1.475.004-1.705.08-2.013.658-.212.399-.099.886.29 1.249.26.242.48.277 1.714.277 1.87 0 2.36.242 2.36 1.163 0 1.018-.408 1.163-3.274 1.163h-2.33v2.189l2.63-.003c2.886-.003 3.39-.114 4.25-.929 1.037-.982 1.29-2.648.604-3.974l-.375-.725.332-.57c.97-1.663.331-3.753-1.419-4.641-.732-.372-.771-.376-3.382-.376h-2.64v1.094Zm44.406-.833c-.32.26-.323.284-.323 3.073 0 2.516.026 2.838.244 3.056.216.216.607.253 3.35.313l3.104.069.04 1.128.04 1.129H53.05v2.189H61.401l.335-.336c.334-.334.336-.353.336-3.016 0-2.663-.002-2.682-.336-3.016l-.335-.336H55.374v-2.326h6.698v-2.188h-4.154c-3.886 0-4.175.016-4.477.261ZM24.28 46.832l-.55.569-.57-.554-.572-.553.563-.568.563-.567.558.552.557.553-.549.568Zm22.588.004-.553.571-.567-.563-.567-.564.552-.558.552-.558.568.55.568.55-.553.572Zm-26.57.757c.792.234 1.893 1.359 2.114 2.16.128.463.16 2.465.129 8.14-.045 8.33.005 7.868-.956 8.83-.975.975-.683.945-9.17.948l-7.625.003-.645-.328c-.757-.386-1.122-.758-1.518-1.547-.283-.566-.289-.713-.289-8.216v-7.64l.349-.7a3.31 3.31 0 0 1 1.826-1.629c.69-.246 14.958-.266 15.785-.021Zm22.534-.004c.74.222 1.81 1.213 2.08 1.928.194.51.215 1.478.181 8.25l-.038 7.672-.414.67a3.538 3.538 0 0 1-1.083 1.083l-.669.414H27.126l-.67-.414a3.539 3.539 0 0 1-1.082-1.084l-.414-.67-.039-7.672c-.034-6.771-.012-7.74.181-8.25.256-.673 1.328-1.7 2-1.916.675-.216 15.011-.226 15.729-.01Zm22.67.025a3.31 3.31 0 0 1 1.827 1.629l.348.7V65.22l-.328.645c-.385.758-.757 1.123-1.546 1.52-.565.283-.712.288-8.209.288H49.96l-.7-.349a3.31 3.31 0 0 1-1.627-1.827c-.246-.69-.265-14.97-.021-15.798.206-.697 1.35-1.883 2.02-2.095.735-.231 15.22-.223 15.87.009ZM8.277 52.277l-.335.336v4.913c0 4.763.008 4.924.283 5.273l.283.36h3.871c3.606 0 3.893-.017 4.193-.26.315-.255.324-.324.366-2.76.048-2.763.019-3.004-.412-3.406-.28-.261-.473-.277-3.353-.277h-3.055l.04-1.129.04-1.128 2.212-.038 2.214-.038.042.585.042.585 1.128.04 1.127.04v-1.246c0-1.24-.12-1.692-.535-2.01-.158-.122-1.245-.168-4.016-.171l-3.8-.005-.335.336Zm22.554 0c-.184.185-.335.477-.335.65 0 .275 1.048 3.64 1.181 3.792.074.084 2.1-.568 2.1-.676 0-.05-.123-.45-.274-.887-.15-.437-.273-.847-.273-.91 0-.064.83-.116 1.845-.116 1.42 0 1.845.041 1.845.177 0 .169-1.716 8.001-1.851 8.452-.052.17.154.263.99.444.58.126 1.095.183 1.146.127.113-.126 2.313-10.052 2.313-10.438 0-.154-.151-.43-.336-.615l-.335-.336h-7.68l-.336.336Zm24.124.04c-1.746.887-2.384 2.94-1.44 4.633l.34.606-.369.71c-.292.564-.366.893-.362 1.604.006 1.069.323 1.768 1.138 2.504.783.708 1.283.814 3.584.762 1.944-.044 2.01-.055 2.662-.459.95-.589 1.446-1.442 1.526-2.627.056-.829.019-1.012-.352-1.738-.405-.795-.408-.819-.17-1.163.91-1.31.724-3-.46-4.186-.884-.885-1.366-1.022-3.585-1.022-1.66 0-1.817.023-2.512.376Zm4.259 2.025c.749.388.829 1.315.159 1.842-.296.233-.556.272-1.837.272-1.4 0-1.511-.02-1.827-.336-.571-.572-.435-1.489.266-1.794.607-.265 2.717-.254 3.239.016ZM14.64 59.808v1.163H10.129v-1.072c0-.59.04-1.113.091-1.163.05-.05 1.065-.091 2.255-.091h2.165v1.163Zm44.498-.965c.816.342.938 1.303.235 1.856-.296.233-.556.272-1.837.272-1.4 0-1.511-.02-1.827-.336-.581-.583-.394-1.539.36-1.841.522-.209 2.53-.176 3.07.05Z" fill="#fff"/></svg>