<svg width="70" height="70" fill="none" xmlns="http://www.w3.org/2000/svg"><path fill-rule="evenodd" clip-rule="evenodd" d="M48.482 1.15c-4.798.732-7.62 1.225-7.943 1.389-.62.313-1.268.905-1.52 1.387-.104.2-1.356 3.45-2.782 7.22-2.375 6.282-2.592 6.934-2.597 7.803-.003.695.078 1.105.306 1.532.17.32 2.564 3.24 5.318 6.488 5.184 6.112 5.544 6.466 6.749 6.643.787.115 15.914-2.16 16.574-2.494.603-.305 1.248-.9 1.502-1.385.108-.206 1.38-3.527 2.829-7.379 1.803-4.795 2.633-7.186 2.633-7.585 0-1.293-.244-1.647-5.18-7.493-2.605-3.086-5.053-5.91-5.44-6.274C58.18.296 57.41-.02 56.49.001c-.312.007-3.915.524-8.008 1.149Zm8.645 1.292c.368.234 9.053 10.603 8.955 10.691-.129.116-12.912 2.029-13.538 2.026-.549-.002-.407.15-5.852-6.274-2.074-2.447-3.706-4.473-3.627-4.504.25-.095 12.983-2.031 13.442-2.043.24-.007.52.04.62.104ZM54.66 5.295l-.387 1.078 1.025.379c.564.208 1.073.348 1.132.312.16-.098.761-1.813.7-1.995-.044-.134-1.721-.851-1.99-.851-.05 0-.267.484-.48 1.077Zm-8.805 6.187 4.47 5.294-2.495 6.666c-1.372 3.666-2.54 6.71-2.593 6.765-.13.131-9.05-10.43-9.244-10.943-.13-.344.148-1.187 2.144-6.518 2.965-7.916 2.65-7.19 2.98-6.843.147.156 2.28 2.666 4.738 5.579Zm3.23-4.615c-.213.574-.335 1.088-.272 1.142.137.117 1.764.73 1.937.73.126 0 .944-2.02.854-2.11-.05-.05-2.014-.807-2.093-.807-.022 0-.213.47-.426 1.045Zm4.378 1.616c-.211.573-.334 1.09-.273 1.149.06.059.54.268 1.065.465l.955.358.398-1.028c.22-.566.347-1.08.284-1.143-.063-.062-.549-.278-1.08-.478l-.965-.363-.384 1.04Zm4.565 1.095-.382 1.024c-.129.343-.208.645-.176.67.105.087 2.077.818 2.112.783.161-.162.768-2.077.681-2.15-.143-.122-1.769-.728-1.951-.728-.075 0-.203.18-.284.401Zm-46.084-.056c-.795.297-1.02.495-6.376 5.587C.231 20.183-.017 20.486.001 21.91c.01.767 3.005 12.314 3.478 13.407.3.694 1.071 1.466 1.765 1.767.971.421 13.46 3.35 14.316 3.357a3.449 3.449 0 0 0 1.457-.298c.446-.207 2.247-1.817 5.612-5.016 2.725-2.59 5.126-4.925 5.335-5.188.493-.618.775-1.644.666-2.423-.141-1.014-3.315-12.68-3.604-13.249-.31-.61-1.063-1.31-1.677-1.56-.764-.311-13.23-3.261-14.056-3.327-.484-.038-1.018.018-1.349.141Zm40.554 1.588c-.076.18-.264.656-.417 1.057l-.278.73 1.034.4c.569.219 1.082.35 1.14.29.057-.059.268-.545.467-1.08l.364-.971-1.017-.377c-.56-.208-1.048-.378-1.085-.378-.037 0-.13.148-.208.329Zm-33.446 1.934c3.205.763 5.943 1.436 6.085 1.495.207.087-.442.774-3.361 3.557-5.32 5.07-5.663 5.375-6.079 5.375-.2 0-2.938-.623-6.084-1.384l-6.042-1.46c-.274-.064.302-.668 3.862-4.05 4.869-4.623 5.203-4.92 5.539-4.92.138 0 2.874.624 6.08 1.387Zm-5.395 1.713c-.561.157-1.047.311-1.08.343-.127.119.491 2.25.637 2.198.083-.03.593-.172 1.133-.316 1.102-.295 1.056-.153.565-1.749l-.235-.762-1.02.286Zm53.27.815c0 .234-4.686 12.642-4.9 12.974-.119.184-.36.396-.536.472-.303.129-13.969 2.219-14.028 2.145-.015-.019 1.124-3.103 2.53-6.853 2.488-6.633 2.569-6.82 2.944-6.82.336 0 8.72-1.24 12.242-1.81 1.538-.25 1.749-.262 1.749-.108ZM41.69 16.617c-.21.562-.328 1.056-.26 1.097.066.041.553.238 1.081.437.892.336.967.343 1.05.106.05-.14.239-.63.42-1.087l.33-.83-.974-.373c-.536-.205-1.04-.372-1.119-.372-.08 0-.317.46-.528 1.022Zm-12.8 5.671c1.15 4.304 1.467 5.681 1.367 5.953-.152.412-9.27 9.106-9.4 8.963-.048-.052-.794-2.753-1.658-6.003l-1.57-5.907 1.293-1.252c6.426-6.219 8.27-7.9 8.369-7.63.056.152.775 2.796 1.599 5.876Zm31.767-3.098c-.085.229-.26.698-.39 1.042-.137.369-.18.677-.103.748.142.13 1.74.74 1.938.74.11 0 .937-2.053.854-2.119-.02-.015-.397-.163-.838-.328-.44-.164-.915-.344-1.055-.399-.19-.075-.29.003-.407.316Zm-45.834.088c-.561.157-1.046.31-1.077.34-.046.043.277 1.39.494 2.057.042.127.343.093 1.122-.126.585-.164 1.084-.317 1.109-.34.058-.051-.406-1.845-.532-2.056-.067-.113-.398-.076-1.116.125Zm10.057 2.111c-.481.125-.894.242-.917.261-.063.05.43 2.022.536 2.142.118.135 2.097-.367 2.155-.547.1-.307-.472-2.032-.683-2.057-.12-.014-.61.077-1.091.201Zm30.603 1.653c-.216.566-.37 1.053-.34 1.081.088.089 2.062.813 2.103.772.164-.165.773-2.08.685-2.155-.135-.115-1.764-.728-1.935-.728-.066 0-.297.464-.513 1.03ZM9.684 24.498l5.646 1.366.139.445c.41 1.314 3.08 11.495 3.028 11.547-.07.07-.632-.058-7.536-1.71-3.13-.75-4.97-1.258-5.127-1.416-.147-.147-.864-2.567-1.786-6.018-.847-3.175-1.54-5.81-1.54-5.858 0-.047.344-.004.765.096.42.1 3.306.796 6.411 1.548Zm42.222 1.416-.383 1.028c-.138.366-.18.675-.103.743.18.16 1.95.798 2.018.728.091-.09.817-2.066.775-2.108-.048-.048-2.02-.792-2.1-.792-.032 0-.125.18-.207.401Zm-30.52.055c-.56.16-1.034.307-1.055.328-.05.05.512 2.007.602 2.097.039.04.533-.042 1.098-.18.695-.171 1.027-.322 1.027-.468 0-.332-.488-2.088-.577-2.077-.044.006-.537.141-1.096.3Zm4.66-.057c-.481.124-.89.236-.908.25-.018.014.105.531.273 1.15.242.892.355 1.112.543 1.06.13-.038.636-.176 1.122-.308l.885-.241-.289-1.082c-.322-1.208-.264-1.178-1.626-.829Zm-15.984 3.081c-.455.132-.867.28-.917.33-.096.097.339 1.87.507 2.068.131.154 2.046-.331 2.123-.538.116-.312-.446-2.054-.67-2.077-.12-.013-.589.085-1.043.217Zm12.472 1.5-1.033.29.285 1.048c.156.576.307 1.072.334 1.102.071.078 2.096-.433 2.159-.544.076-.136-.506-2.21-.617-2.197-.052.006-.56.142-1.128.3Zm15.525 7.025c-2.197.622-3.621 2.41-3.747 4.703-.064 1.163-.051 1.217 1.277 5.226.738 2.228 1.32 4.07 1.292 4.095-.028.025-.626.142-1.329.259l-1.278.214-.703-1.254c-.387-.69-1.221-2.205-1.855-3.367-1.822-3.342-3.207-4.529-5.575-4.777-.474-.05-1.334.02-2.198.178-1.323.243-1.468.245-2.136.024-1.27-.42-1.95-.436-4.11-.095-1.94.308-2.093.313-2.745.09-.928-.316-2.493-.297-4.185.051l-1.391.287-.828-.5a4.65 4.65 0 0 0-6.58 1.94c-.563 1.155-.574 2.67-.026 3.82.21.442 2.25 3.494 4.532 6.783 3.482 5.016 4.254 6.044 4.793 6.376.555.343 22.8 7.554 25.362 8.222.791.207 1.117.176 9.62-.89 8.34-1.047 8.808-1.09 8.946-.843.336.604 1.488 1.59 2.058 1.76.42.126 1.975.18 5.184.18 5.352 0 5.562-.037 6.575-1.165.346-.386.708-.962.803-1.28.249-.832.246-16.457-.004-17.302-.236-.801-1.444-2.01-2.244-2.246-.837-.248-9.477-.248-10.315 0-.767.227-2.054 1.479-2.199 2.139-.057.26-.18.502-.272.536-.093.034-1.765-.545-3.715-1.286l-3.545-1.348-1.835-4.135c-1.554-3.502-1.94-4.252-2.533-4.9-1.244-1.362-3.363-1.984-5.094-1.495Zm2.236 2.298c1.044.29 1.38.821 3.375 5.33 1.027 2.318 1.95 4.349 2.051 4.512.13.208 1.52.797 4.647 1.967l4.463 1.67v6.092c0 3.35-.017 6.093-.037 6.094l-8.693 1.078-8.656 1.074-12.404-3.942c-6.823-2.168-12.485-4.005-12.583-4.082-.428-.337-8.417-12.05-8.548-12.533-.264-.977.39-2.256 1.34-2.618.573-.22 1.53-.145 2.025.157.282.173 1.933 2.24 4.166 5.214 2.034 2.711 3.98 5.182 4.324 5.492.345.31.991.731 1.437.936 1.526.699 1.91.667 11.812-.985 4.912-.82 8.95-1.468 8.973-1.44.023.028.97 1.445 2.105 3.15 1.134 1.705 2.098 3.1 2.141 3.1.044 0 .474-.269.957-.596.54-.368.848-.672.802-.792-.041-.108-1.052-1.66-2.246-3.452l-2.172-3.256-1.48-4.448c-1.757-5.276-1.816-5.8-.78-6.91.78-.836 1.85-1.127 2.981-.812ZM21.4 45.177c.311.16.713.449.894.642.633.68 4.54 7.33 4.361 7.425-.348.183-2.598.456-2.723.33-.229-.233-5.945-8.442-5.906-8.484.02-.022.325-.1.677-.174.9-.189 2.034-.079 2.697.261Zm-6.567.162c.66.379 1.037.85 3.607 4.515 1.578 2.251 2.87 4.151 2.87 4.223 0 .148-1.046.316-1.96.316-.363 0-.916-.154-1.377-.384-.714-.356-1.005-.697-3.892-4.546-1.716-2.289-3.09-4.19-3.054-4.227.153-.153 1.098-.295 2.048-.307.874-.012 1.126.047 1.758.41Zm12.483.051c.344.202.734.489.865.638.254.286 3.654 6.347 3.588 6.397-.021.016-.555.11-1.186.21-.947.15-1.178.147-1.328-.015-.395-.429-4.56-7.545-4.47-7.639.218-.226 1.915.048 2.531.41Zm33.346 9.44v4.668h2.332v-9.335h1.974c1.901 0 1.987.013 2.332.358l.357.358V66.95l-.357.358-.358.358H57.879l-.359-.358-.357-.358V50.88l.357-.358c.33-.33.466-.358 1.75-.358h1.39v4.668ZM.03 58.916v4.084h2.332V54.83H.03v4.084Zm4.664 4.667V66.5h2.332v-5.834H4.694v2.917Zm55.967 0v1.75h2.332v-3.5H60.66v1.75ZM9.358 67.666V70h2.332v-4.668H9.358v2.334Z" fill="#fff"/></svg>