<svg width="70" height="70" fill="none" xmlns="http://www.w3.org/2000/svg"><path fill-rule="evenodd" clip-rule="evenodd" d="M35.33.075c-1.486.24-1.834.808-1.834 3V4.58l-.774.298-.773.297-1.191-1.171c-1.173-1.153-1.202-1.171-1.872-1.171-.825 0-1.29.309-2.74 1.822-1.786 1.863-1.8 2.43-.105 4.213l1.12 1.176-.284.721-.283.721-1.437.003c-2.15.005-2.818.386-3.001 1.714l-.076.55-7.656.072c-4.211.04-7.684.087-7.718.103-.342.168-6.373 6.39-6.516 6.722C.031 21.02 0 23.63 0 36.417c0 14.767.01 15.344.259 15.835.32.63.63.918 1.28 1.191.432.182 1.586.211 8.232.211H17.5v.746c0 .642.05.785.36 1.03.84.664 1.69.001 1.69-1.315v-.46h1.38c1.316 0 1.385.014 1.461.308.044.17.327.803.628 1.408.78 1.568 2.324 3.098 3.915 3.878 2.713 1.331 5.438 1.32 8.171-.036 3.94-1.954 5.877-6.665 4.47-10.876-1.012-3.029-3.531-5.343-6.552-6.018l-1.03-.23v-2.575c0-2.32-.026-2.597-.25-2.802-.36-.326-1.153-.293-1.473.062-.232.257-.265.559-.303 2.807l-.042 2.52-.744.155c-1.73.36-3.077 1.1-4.483 2.458-1.605 1.552-2.497 3.442-2.666 5.644l-.089 1.167H2.12l-.035-15.038-.034-15.039 2.767-2.783 2.768-2.783H22l.08.515c.125.822.504 1.454 1.026 1.716.368.185.827.24 1.983.242l1.504.002.28.72.28.72-1.049 1.11c-1.797 1.906-1.757 2.517.295 4.578 1.486 1.493 2.146 1.821 2.992 1.487l.537-.212.041 3.131c.038 2.853.065 3.157.302 3.42.178.197.426.29.779.29.932 0 .943-.056.943-4.701 0-2.389.052-4.09.126-4.09.069 0 .407.121.752.27l.626.27v1.48c0 1.72.194 2.268.957 2.714.421.246.716.28 2.461.28 1.737 0 2.04-.035 2.446-.276.778-.461.972-1.008.974-2.744l.001-1.514.716-.281.717-.281 1.17 1.12c1.776 1.698 2.45 1.672 4.288-.162 1.424-1.422 1.72-1.885 1.72-2.7 0-.673-.02-.703-1.16-1.875l-1.161-1.192.306-.782.305-.783h1.474c2.181 0 2.806-.374 2.966-1.774l.072-.63.866-.07c.98-.077 1.253-.305 1.253-1.045 0-.649-.517-1.014-1.436-1.014h-.716l-.07-.627c-.141-1.259-.936-1.708-3.019-1.708h-1.421l-.279-.721-.279-.721.997-1.03c1.175-1.214 1.301-1.432 1.301-2.245 0-.694-.457-1.368-1.796-2.644-1.193-1.137-1.452-1.292-2.157-1.292-.753 0-1 .15-2.267 1.38l-.957.928-.718-.28-.718-.28-.003-1.458c-.004-1.772-.244-2.451-.993-2.808-.567-.27-2.934-.412-4.006-.24Zm2.524 2.02.427.085v1.542c0 2.002.153 2.264 1.711 2.938 2.023.875 2.556.771 4.096-.798.448-.457.885-.832.969-.832.084 0 .54.405 1.014.9l.86.9-1.194 1.225-1.193 1.224.06.726c.088 1.073.889 2.843 1.461 3.23.41.278.626.311 1.996.311 1.769 0 1.7-.06 1.703 1.466.003 1.319.05 1.282-1.599 1.282-1.55 0-2.191.185-2.534.732-.405.647-1.06 2.448-1.06 2.913 0 .687.16.948 1.314 2.127l1.01 1.033-.958.955-.957.955-1.14-1.14c-1.444-1.442-1.73-1.513-3.403-.832-1.356.552-1.704.758-1.922 1.14-.091.159-.196 1.031-.234 1.938l-.068 1.648-1.333.04-1.333.038V26.29c0-2.147-.107-2.331-1.792-3.082-.83-.37-1.496-.576-1.883-.584-.573-.01-.65.04-1.814 1.184l-1.216 1.196-.954-.952-.955-.951.938-.965c.516-.531 1.039-1.118 1.162-1.305.334-.504.275-1.228-.192-2.359-.863-2.088-.858-2.085-3.07-2.177l-1.64-.07v-2.609l1.666-.069c1.4-.057 1.725-.113 2.041-.351.497-.373 1.404-2.518 1.413-3.34.006-.574-.048-.658-1.183-1.823l-1.19-1.222.944-.956.944-.955 1.109 1.087c.61.597 1.273 1.128 1.475 1.179.583.147 1.313-.002 2.486-.507 1.56-.672 1.71-.932 1.71-2.943 0-1.36.03-1.557.24-1.612.375-.098 1.596-.103 2.068-.009ZM35.478 7.8c-1.907.363-4.085 2.022-4.973 3.79-1.997 3.974-.118 8.736 4.028 10.208 3.358 1.193 7.23-.405 8.81-3.636.94-1.922 1.044-4.109.28-5.899-.43-1.005-1.44-1.183-1.916-.336-.175.313-.168.448.069 1.225.812 2.673-.257 5.286-2.648 6.468-.834.413-1.017.45-2.21.45-1.127 0-1.408-.05-2.084-.368-2.416-1.138-3.623-3.773-2.86-6.243.841-2.724 3.494-4.242 6.211-3.556 1.108.28 1.525.203 1.8-.33.303-.59.064-1.166-.593-1.43-1.158-.466-2.603-.592-3.914-.343Zm.291 4.162c-1.17.419-1.991 1.643-1.996 2.976-.011 2.78 3.295 4.196 5.311 2.275 1.3-1.239 1.317-3.202.04-4.48-.932-.932-2.135-1.209-3.355-.771Zm1.903 2.195c.683.686.226 1.86-.725 1.86-.659 0-1.127-.44-1.127-1.06 0-.604.513-1.137 1.094-1.137a1.1 1.1 0 0 1 .758.337Zm18.04.509c-.629.346-.782.931-.418 1.605.109.2.233.588.277.861.043.273.202.608.351.744.35.319 1.01.318 1.361-.002.685-.622.08-2.894-.856-3.223a6.397 6.397 0 0 0-.427-.14c-.008.002-.137.072-.287.155Zm.125 5.212c-.215.239-.26.502-.26 1.507 0 1.071.035 1.255.3 1.52.368.37 1.03.394 1.406.051.239-.217.276-.422.276-1.534 0-1.1-.04-1.323-.274-1.558-.368-.37-1.108-.363-1.448.014ZM8.29 23.721c-.451.357-.494 1.092-.087 1.5.267.269.456.275 7.734.275 4.997 0 7.55-.048 7.73-.145.657-.353.595-1.442-.099-1.76-.238-.109-2.502-.155-7.628-.155-7.168 0-7.296.005-7.65.285Zm47.547 1.24c-.215.239-.26.503-.26 1.508 0 1.07.035 1.254.3 1.519.368.37 1.03.394 1.406.051.239-.217.276-.422.276-1.534 0-1.1-.04-1.322-.274-1.558-.368-.37-1.108-.363-1.448.014ZM8.203 28.793c-.345.347-.35.972-.012 1.393l.261.324H23.54l.33-.386c.404-.472.416-.773.047-1.244l-.284-.362h-7.578c-7.395 0-7.584.007-7.85.275Zm47.634 1.251c-.22.244-.26.505-.26 1.648v1.359H50c-6.121 0-6.17.006-6.589.82-.32.622-.306 8.653.017 9.201.49.836.445.83 6.53.83h5.55v2.06h-5.404c-5.98 0-6.118.018-6.623.85-.26.43-.276.683-.274 4.645.001 4.584.01 4.642.805 5.18.463.314.464.314 5.98.314h5.517v2.06H49.99c-5.516 0-5.517 0-5.98.313-.695.472-.804.809-.806 2.512l-.002 1.52-.41.304c-.337.25-.41.402-.41.856 0 .47.061.587.41.786l.408.234.002 1.58c0 1.34.043 1.648.277 2.034.537.884.01.85 13.122.85 13.11 0 12.584.034 13.121-.85.26-.43.276-.685.276-4.617.001-4.6-.022-4.739-.86-5.252-.415-.255-.724-.269-6.01-.27h-5.57v-2.06h1.546c1.367 0 1.581-.032 1.846-.28.195-.183.299-.444.299-.75 0-.307-.104-.568-.3-.75-.293-.275-.438-.28-7.997-.28h-7.7v-6.868H67.95v6.868h-1.615c-1.436 0-1.648.03-1.914.28-.402.376-.402 1.123 0 1.5.273.255.475.28 2.29.28 1.734-.001 2.048-.036 2.429-.27.839-.513.861-.65.861-5.266 0-4.121-.004-4.182-.312-4.642-.179-.267-.516-.538-.787-.631-.334-.116-2.073-.166-5.914-.172l-5.44-.008.04-.995.04-.996 5.706-.069 5.705-.069.447-.448.447-.45.04-4.257c.034-3.752.012-4.314-.19-4.742-.42-.89-.386-.885-6.611-.885h-5.612v-1.374c0-1.19-.037-1.41-.274-1.648-.369-.37-1.109-.363-1.448.015ZM8.203 33.738c-.407.409-.364 1.144.087 1.5.354.28.482.285 7.65.285 5.126 0 7.39-.046 7.628-.155.694-.317.756-1.407.1-1.76-.182-.097-2.734-.145-7.731-.145-7.278 0-7.467.007-7.734.275Zm59.746 4.739v3.365H45.254V35.11h22.695v3.366Zm-19.45-.859c-.582.441-.513 1.444.118 1.732.242.111 2.577.157 8.04.157 7.583 0 7.706-.005 8.06-.285a.998.998 0 0 0 .062-1.495c-.294-.276-.438-.28-8.177-.28-6.09 0-7.93.038-8.104.171Zm-40.21 1.075c-.45.356-.493 1.092-.086 1.5.267.269.456.275 7.734.275 4.997 0 7.55-.048 7.73-.146.657-.352.595-1.442-.099-1.759-.238-.11-2.502-.155-7.628-.155-7.168 0-7.296.005-7.65.285Zm-.086 5.072c-.345.347-.35.972-.012 1.392l.261.325h7.295l.261-.325c.339-.42.334-1.045-.012-1.392-.26-.261-.456-.275-3.896-.275-3.441 0-3.637.014-3.897.275Zm24.541.598c3.238.868 5.46 3.95 5.216 7.231-.326 4.361-4.354 7.376-8.533 6.386-3.218-.762-5.364-3.478-5.364-6.787 0-3.127 1.83-5.692 4.782-6.703 1.046-.36 2.818-.416 3.9-.127Zm-.422 5.738-1.831 1.82-1.272-1.252c-.716-.705-1.439-1.295-1.654-1.35-.563-.141-1.098.3-1.153.953-.04.48.04.59 1.618 2.207 1.813 1.857 2.227 2.13 2.848 1.87.578-.24 4.627-4.39 4.745-4.861.143-.577-.294-1.109-.958-1.165-.493-.042-.583.026-2.343 1.778Zm16.069.648c-.411.334-.417 1.03-.012 1.436l.3.302h7.912c7.588 0 7.923-.01 8.2-.262.375-.341.382-1.085.014-1.455-.268-.268-.456-.275-8.188-.275-7.488 0-7.932.014-8.226.254Zm-30.618 6.614c-.234.236-.273.458-.273 1.57 0 1.235.017 1.308.36 1.58.413.325.585.346 1.062.128.42-.192.629-.758.629-1.698 0-.867-.216-1.54-.552-1.72-.402-.216-.93-.156-1.226.14Zm50.176 7.143v3.433H45.254v-6.867h22.695v3.434Zm-50.039-2.06c-.537.54-.276 1.53.61 2.312.847.746 1.74.736 2.102-.025.239-.5.03-1.045-.53-1.377a1.866 1.866 0 0 1-.605-.628c-.321-.624-1.098-.763-1.577-.283Zm4.922 1.051c-.466.188-.684.513-.684 1.022 0 .769.337.948 1.778.948 1.44 0 1.777-.18 1.777-.948 0-.804-.35-1.036-1.62-1.074-.575-.016-1.138.007-1.251.052Zm5.059 0c-.466.188-.684.513-.684 1.022 0 .769.337.948 1.777.948 1.441 0 1.778-.18 1.778-.948 0-.804-.351-1.036-1.62-1.074-.576-.016-1.139.007-1.251.052Zm5.058 0c-.466.188-.683.513-.683 1.022 0 .769.336.948 1.777.948 1.44 0 1.777-.18 1.777-.948 0-.804-.35-1.036-1.62-1.074-.575-.016-1.138.007-1.25.052Zm5.059 0c-.466.188-.684.513-.684 1.022 0 .769.337.948 1.778.948 1.44 0 1.777-.18 1.777-.948 0-.804-.351-1.036-1.62-1.074-.575-.016-1.138.007-1.251.052Zm10.727.039c-.664.274-.876 1.134-.407 1.655.245.27.406.276 8.226.276 7.795 0 7.983-.006 8.25-.275.37-.37.362-1.113-.014-1.455-.275-.25-.629-.263-8.032-.289-4.26-.015-7.87.024-8.023.088Z" fill="#6A6A6A"/></svg>