<svg width="70" height="70" fill="none" xmlns="http://www.w3.org/2000/svg"><path fill-rule="evenodd" clip-rule="evenodd" d="M4.374.188C2.36.748.727 2.4.19 4.417c-.156.585-.188 5.26-.189 27.652-.002 29.49-.048 27.775.78 29.189.552.942 1.532 1.834 2.576 2.344l.949.464 10.68.037 10.68.038.158.804c.67 3.408 4.019 5.628 7.422 4.92 2.014-.42 3.42-1.617 4.799-4.09l.877-1.572 8.666-.069c4.766-.037 8.732-.111 8.813-.164.09-.059.537.602 1.156 1.71 1.521 2.724 2.882 3.855 5.1 4.235 3.25.557 6.498-1.673 7.183-4.933.237-1.127.2-17.423-.043-18.764-.76-4.203-4.014-7.674-8.04-8.58l-1.06-.238V21.424c0-14.022-.027-16.09-.215-16.92-.352-1.55-1.557-3.127-2.92-3.822-1.413-.722-.137-.69-27.345-.677C10.46.015 4.856.054 4.374.188ZM55.94 2.53c.832.283 1.654 1.01 2.043 1.805.283.578.324.885.368 2.803l.05 2.154H2.3l.047-2.222c.039-1.839.09-2.305.3-2.701.49-.924 1.333-1.638 2.273-1.924.188-.057 11.605-.11 25.37-.116 22.296-.01 25.094.012 25.65.2ZM5.047 5.042c-.427.427-.497.803-.24 1.285.279.524.555.631 1.64.636 1.011.004 1.06-.01 1.413-.43.444-.529.39-1.112-.144-1.583-.292-.257-.509-.308-1.31-.308-.878 0-.993.034-1.36.4Zm6.094-.234c-.701.402-.834 1.27-.28 1.824.297.297.454.335 1.373.335.92 0 1.076-.038 1.374-.335.553-.554.443-1.446-.221-1.79-.458-.236-1.857-.258-2.246-.034Zm5.838-.023c-.374.15-.694.843-.606 1.308.118.617.638.874 1.764.874.894 0 1.053-.04 1.35-.335.47-.47.445-1.08-.065-1.59-.36-.36-.485-.399-1.265-.391-.475.005-1.005.065-1.178.134Zm31.288.211c-.544.458-.58 1.141-.085 1.636l.335.335h3.325c3.606 0 3.798-.036 4.078-.772.177-.467-.165-1.241-.626-1.417-.198-.075-1.742-.136-3.481-.136h-3.126l-.42.354ZM58.304 24.53v12.844l-.957.193c-1.81.364-3.54 1.266-5.008 2.611l-.771.707h-7.44l-.705-.637c-3.435-3.111-8.005-3.75-11.99-1.676-2.553 1.33-4.34 3.5-5.338 6.484-.318.953-.32.996-.365 8.859l-.044 7.901-10.485-.038c-9.726-.034-10.517-.054-10.927-.279-.616-.336-1.304-1.053-1.618-1.686-.258-.52-.265-1.106-.3-24.365L2.32 11.617l27.992.034 27.992.035V24.53Zm-41.048-3.71c-4.069 4.077-4.406 4.45-4.406 4.884 0 .433.333.803 4.332 4.81 2.829 2.836 4.458 4.37 4.693 4.422.78.172 1.416-.383 1.393-1.216-.01-.345-.596-.991-3.812-4.21l-3.8-3.804 3.783-3.796c2.355-2.364 3.815-3.933 3.87-4.158.102-.414-.213-1.132-.554-1.263-.122-.047-.418-.085-.657-.085-.39 0-.9.464-4.842 4.416Zm15.846-4.177c-.357.301-7.402 16.73-7.402 17.263 0 .534.39.955.967 1.048.39.062.563.012.85-.244.262-.232 1.359-2.65 3.921-8.642 1.957-4.576 3.558-8.471 3.558-8.656 0-.816-1.24-1.32-1.894-.769Zm4.796-.148c-.298.12-.6.861-.514 1.258.055.248 1.332 1.622 3.834 4.124l3.753 3.752-3.746 3.764c-2.562 2.574-3.778 3.891-3.847 4.165-.195.783.603 1.582 1.387 1.39.48-.118 8.704-8.253 8.954-8.856.087-.21.123-.522.08-.693-.044-.17-2.037-2.265-4.43-4.653-4.074-4.066-4.38-4.341-4.824-4.331-.26.006-.551.042-.647.08Zm-.1 23.364c1.41.296 2.804 1.039 3.908 2.081 1.062 1.002 1.689 1.962 2.238 3.426.206.546.487 1.054.625 1.128.762.408 1.774-.134 1.774-.95 0-.227-.154-.822-.342-1.322-.188-.5-.342-.932-.342-.96 0-.029.984-.052 2.187-.052 1.203 0 2.188.02 2.188.044 0 .025-.154.424-.342.887-.62 1.525-.329 2.488.752 2.488.597 0 .981-.363 1.23-1.163.632-2.033 2.234-3.913 4.132-4.849 2.477-1.222 4.726-1.243 7.165-.07 1.217.586 2.76 1.982 3.443 3.117 1.06 1.76 1.44 3.814 1.055 5.717-.431 2.139-1.478 3.762-3.316 5.141-.917.689-1.07.863-1.109 1.263-.06.63.2 1.064.747 1.244.4.132.54.104 1.136-.22.375-.204 1.148-.801 1.718-1.327l1.036-.956-.04 5.112c-.04 5.067-.044 5.117-.363 5.727-.44.842-1.052 1.46-1.865 1.89-.562.296-.866.36-1.709.36-1.24.001-2.05-.322-2.824-1.13-.31-.323-1.472-2.258-2.848-4.744-1.277-2.308-2.533-4.414-2.791-4.68-.97-1-.896-.99-7.402-.993l-5.817-.003-.688.343c-.378.188-.82.484-.981.656-.163.173-1.373 2.25-2.69 4.616-1.955 3.51-2.523 4.42-3.086 4.949-1.894 1.778-4.908 1.21-6.176-1.165-.302-.566-.31-.68-.348-5.774l-.04-5.197.86.835c1.923 1.87 3.164 2.214 3.66 1.016.25-.603-.014-1.13-.827-1.652-1.01-.648-2.229-2.037-2.78-3.168-1.213-2.484-1.214-4.67-.003-7.183.812-1.686 2.024-2.925 3.643-3.725 1.844-.91 3.416-1.138 5.232-.757Zm-2.466 3.686c-.312.312-.336.433-.336 1.71v1.374h-1.237c-1.432 0-1.942.193-2.16.82-.167.478-.097.76.297 1.197.253.281.398.308 1.688.308h1.412v1.378c0 1.34.01 1.389.4 1.778.427.427.755.49 1.287.248.5-.228.637-.684.637-2.111v-1.293h1.412c1.289 0 1.436-.027 1.693-.308.394-.43.486-.83.29-1.26-.264-.58-.77-.757-2.158-.757H37.32v-1.374c0-1.277-.024-1.398-.336-1.71a1.168 1.168 0 0 0-1.652 0Zm23.376 0c-.297.298-.335.454-.335 1.374 0 .92.038 1.077.335 1.374.494.494 1.177.459 1.635-.085.3-.356.354-.555.354-1.289 0-.734-.055-.933-.354-1.289-.458-.543-1.14-.579-1.635-.085Zm-3.164 3.222c-.485.195-.77.747-.667 1.293.131.7.504.894 1.725.894.903 0 1.076-.04 1.321-.308.59-.645.48-1.443-.254-1.822-.413-.214-1.653-.247-2.125-.057Zm5.973-.049c-.84.337-1.086 1.299-.485 1.9.3.3.45.336 1.426.336 1.014 0 1.11-.025 1.373-.36.394-.502.368-1.154-.063-1.56-.275-.258-.52-.332-1.196-.361-.468-.02-.942 0-1.055.045Zm-2.324 2.332c-.113.042-.343.201-.513.355-.269.245-.307.414-.307 1.357 0 .96.036 1.112.335 1.412.431.431 1.036.437 1.527.014.313-.27.383-.456.434-1.163.077-1.072-.144-1.632-.743-1.883-.248-.104-.468-.183-.49-.178-.02.006-.13.045-.243.086Zm-15.137 2.317c-.415.09-.858.686-.858 1.153 0 .212.149.557.33.768.307.357.401.384 1.356.384.898 0 1.07-.041 1.38-.331.474-.447.485-1.206.023-1.64-.247-.232-.528-.32-1.128-.355-.44-.025-.936-.016-1.103.02Zm5.729.067c-.641.185-.932.875-.652 1.546.159.381.309.501.786.63 1.156.31 2.343-.056 2.525-.78.287-1.145-1.066-1.855-2.66-1.396Zm3.875 7.404c.197.247.665 1.016 1.041 1.71l.684 1.261h-7.529c-4.14 0-7.529-.03-7.529-.066 0-.193 1.58-2.909 1.811-3.113.248-.22.724-.24 5.718-.24h5.447l.357.448Z" fill="#fff"/></svg>