<svg width="68" height="70" fill="none" xmlns="http://www.w3.org/2000/svg"><path fill-rule="evenodd" clip-rule="evenodd" d="M5.678.23C3.352.793 1.3 2.776.6 5.132c-.173.583-.2 3.61-.2 21.71 0 20.593.005 21.05.27 21.911.35 1.131 1.126 2.328 2.054 3.163.785.706 1.379 1.051 2.586 1.503.728.273 1.068.286 8.574.335l7.816.052-2.318 4.642-2.318 4.642-3.38.001c-1.908 0-3.603.062-3.89.142-.783.218-1.62.939-2.06 1.775-.352.67-.388.853-.335 1.708.033.527.163 1.157.289 1.4.314.606 1.031 1.3 1.672 1.619.521.26 1.072.265 24.78.265 23.707 0 24.258-.006 24.779-.265.64-.318 1.358-1.013 1.672-1.619.126-.243.256-.873.289-1.4.053-.855.017-1.038-.336-1.708-.44-.836-1.276-1.557-2.06-1.775-.286-.08-1.981-.142-3.889-.142h-3.38l-2.318-4.643-2.318-4.642 7.816-.052c7.506-.049 7.846-.062 8.573-.335 1.208-.452 1.801-.797 2.587-1.503.927-.835 1.704-2.032 2.053-3.163.266-.861.271-1.318.271-21.912 0-18.1-.028-21.126-.2-21.709-.709-2.39-2.757-4.346-5.14-4.909C61.262-.078 6.923-.072 5.678.23Zm57.168 2.54c.94.44 1.756 1.233 2.264 2.198l.38.723.036 18.164.036 18.164H46.618c-10.419 0-18.918-.024-18.886-.054.03-.03.843-.378 1.805-.774 1.111-.457 1.845-.843 2.015-1.059.242-.309.266-.567.266-2.845 0-2.405-.012-2.519-.307-2.848-.193-.216-1.045-.633-2.288-1.123-1.09-.428-2.037-.829-2.104-.89-.069-.06-.287-.62-.485-1.245l-.36-1.135 1.2-1.915c.913-1.46 1.2-2.03 1.2-2.397.002-.39-.232-.805-1.23-2.189-1.381-1.912-1.909-2.463-2.355-2.458-.168.002-1.256.245-2.417.54l-2.112.535-.886-.642c-.488-.352-.946-.682-1.019-.732-.072-.05-.21-1.152-.304-2.45-.158-2.169-.198-2.383-.49-2.669-.356-.348-4.314-1.7-4.978-1.7-.456 0-.817.341-2.573 2.429l-1.065 1.265H6.72L5.26 15.895c-1.498-1.81-1.631-1.926-2.214-1.926h-.337l.041-4.14.042-4.138.38-.723c.666-1.266 1.794-2.179 3.067-2.481.294-.07 12.33-.113 28.176-.101l27.66.021.772.362Zm-42.62 6.147c-.628 1.89-1.088 3.484-1.024 3.543.169.154 1.967.728 2.043.652.035-.035.576-1.602 1.203-3.482l1.14-3.418-.974-.313a57.48 57.48 0 0 1-1.11-.365c-.076-.029-.651 1.494-1.279 3.383ZM35.37 7.065v1.168l1.127-.04 1.127-.04.04-1.128.039-1.129H35.37v1.169Zm4.644-.006v1.163H62.143V5.896H40.014V7.06Zm-24.356.466c-1.761 1.817-1.761 1.795.002 3.593l1.327 1.353.822-.823.821-.823-.743-.754-.744-.754.744-.754.743-.755-.824-.825-.824-.826-1.324 1.368Zm9.13-.539-.815.825.742.753.742.753-.744.754-.743.754.857.854.856.853 1.292-1.325c1.162-1.193 1.292-1.377 1.292-1.834 0-.46-.128-.639-1.332-1.86L25.603 6.16l-.815.825Zm5.8 4.725v1.163h31.555v-2.326H30.59v1.163Zm0 4.652v1.163h19.808V15.2H30.589v1.163Zm-15.81.558c1.154.375 1.195.402 1.197.805.003.693.263 3.622.353 3.98.076.302 1.27 1.277 3.021 2.468.647.44 1.103.42 3.317-.149l1.844-.473.297.363c.163.2.538.706.832 1.126l.535.764-1.14 1.837c-.782 1.262-1.139 1.968-1.139 2.257 0 .231.282 1.268.627 2.304.46 1.382.705 1.927.922 2.05.163.091 1.125.506 2.14.922l1.844.755.038 1.386.04 1.387-1.952.78c-1.073.429-2.083.902-2.243 1.052-.161.15-.369.544-.462.878l-.17.606h-3.328c-1.831 0-3.33-.046-3.33-.103 0-.056.13-.441.287-.855 1.994-5.249-.578-11.363-5.777-13.737-2.793-1.275-6.3-1.286-8.989-.03l-.751.352-.037-2.724a250.79 250.79 0 0 1 0-5.534l.037-2.81 1.093 1.316c.6.723 1.266 1.49 1.479 1.705l.386.39h4.477l.449-.454c.247-.25.94-1.049 1.541-1.776.601-.727 1.155-1.3 1.23-1.275.075.026.674.223 1.332.436Zm15.81 4.095v1.163h19.808v-2.326H30.589v1.163Zm22.234 9.333-.036 5.854h-2.322l-.037-2.907-.037-2.908h-2.316v5.895l-1.127-.04-1.127-.04-.037-3.528-.036-3.53-1.125.04-1.125.04-.036 3.53-.036 3.528-1.125-.04-1.125-.04-.037-2.36-.038-2.36h-2.315v4.789h-2.322v2.327l12.806-.034 12.806-.035.04-1.13.04-1.128H59.82V26.83h-2.319l-.035 4.686-.036 4.686-1.126.04-1.125.04-.036-5.855-.036-5.855-1.125-.04-1.125-.04-.036 5.856Zm-42.313-1.3a8.43 8.43 0 0 1 3.535 2.143c2.648 2.656 3.317 6.465 1.727 9.835l-.468.992H2.723V30.412l.697-.43a8.732 8.732 0 0 1 7.089-.934Zm55.05 16.932c0 1.343-.054 1.78-.296 2.428-.404 1.08-1.535 2.214-2.614 2.618l-.79.296H6.422l-.79-.296c-1.078-.404-2.21-1.538-2.613-2.618-.242-.649-.295-1.085-.295-2.428v-1.636h62.835v1.636Zm-32.552.776c-.053.053-.096.579-.096 1.168v1.072h2.47l-.04-1.129-.04-1.129-1.099-.039c-.604-.022-1.142.004-1.195.057ZM46.23 58.3c1.24 2.483 2.254 4.577 2.254 4.653 0 .09-4.816.137-14.343.137-9.526 0-14.343-.046-14.343-.138 0-.075 1.015-2.169 2.255-4.652l2.254-4.514h19.669l2.254 4.514Zm12.003 7.477c.582.584.453 1.415-.28 1.806-.43.23-47.193.23-47.623 0-.734-.391-.862-1.222-.28-1.806l.36-.36h47.462l.36.36Z" fill="#6A6A6A"/></svg>