<svg width="70" height="70" fill="none" xmlns="http://www.w3.org/2000/svg"><path fill-rule="evenodd" clip-rule="evenodd" d="M48.757.045C43.989.76 40.39 2.504 37.268 5.61a18.978 18.978 0 0 0-4.335 6.59c-.288.726-.56 1.304-.603 1.283l-1.563-.778c-1.824-.91-3.271-1.293-5.29-1.4-2.605-.14-5.14.468-7.494 1.793-1.594.898-3.982 3.305-4.88 4.917-.572 1.03-1.355 3.136-1.586 4.27-.064.318-.168.382-.74.46-.364.05-1.184.344-1.82.652-4.793 2.322-5.908 8.766-2.17 12.541.985.997 1.724 1.472 3.082 1.983.833.314 1.204.36 3.438.416l2.505.063v4.487H9.039V49.665H5.987c-1.985 0-3.256.06-3.634.172-.775.23-1.943 1.399-2.172 2.175-.241.815-.241 10.307 0 11.123.229.776 1.397 1.945 2.172 2.175.32.094 1.193.171 1.94.171h1.36v2.26H3.395V70H16.94v-2.26H14.683v-2.259h1.359c1.803 0 2.359-.181 3.231-1.054.987-.988 1.053-1.3 1.053-4.929v-3.054h4.516v3.054c0 3.629.066 3.942 1.053 4.929.872.873 1.428 1.054 3.231 1.054h1.36v2.26h-2.258V70h13.545v-2.26h-2.258v-2.259h1.36c1.802 0 2.358-.181 3.23-1.054.987-.988 1.054-1.3 1.054-4.929v-3.054H49.674v3.054c0 3.629.067 3.942 1.053 4.929.873.873 1.429 1.054 3.232 1.054h1.359v2.26H53.06V70h13.545v-2.26h-2.258v-2.259h1.36c.748 0 1.62-.077 1.94-.171.775-.23 1.944-1.4 2.173-2.175.238-.806.241-10.31.004-11.102-.093-.309-.442-.866-.778-1.24-.932-1.038-1.333-1.128-5.006-1.128h-3.079v-6.778h-6.779l.039-2.415.039-2.415 1.279-.324c7.148-1.807 12.665-7.669 14.126-15.01.338-1.697.338-5.425 0-7.124-.289-1.447-1.068-3.755-1.678-4.97-2.675-5.326-7.741-9.185-13.55-10.323-1.128-.22-4.82-.39-5.68-.261Zm3.386 2.467c.943.353 2.243 1.506 3.065 2.717.535.79 1.515 2.747 1.726 3.45l.096.317H44.576l.095-.318c.212-.702 1.191-2.66 1.726-3.449.797-1.174 2.125-2.364 3.026-2.71.963-.37 1.744-.373 2.72-.007Zm-7.266.892c0 .03-.232.396-.515.812-.585.859-1.586 2.936-1.946 4.038l-.243.742H37.23l.731-.845a17.296 17.296 0 0 1 5.424-4.184c1.183-.582 1.492-.698 1.492-.563Zm13.08.437c1.702.788 3.392 1.995 4.874 3.483.757.76 1.376 1.447 1.376 1.527 0 .093-.847.145-2.388.145h-2.387l-.24-.742c-.34-1.05-1.356-3.148-1.955-4.038-.28-.416-.508-.781-.508-.812 0-.112.175-.05 1.227.437Zm-16.513 7.732c-.291 1.192-.77 5.003-.798 6.355-.001.058-.922.105-2.046.105h-2.044l-.343-.543c-.188-.298-.677-.945-1.086-1.437l-.744-.894.226-.858c.123-.471.449-1.35.723-1.951l.499-1.095h5.69l-.077.318Zm16.512.53c.2.881.545 3.382.677 4.907l.088 1.023H42.877l.09-1.094c.165-1.98.677-5.249.876-5.58.035-.058 3.186-.09 7.001-.07l6.936.037.176.777Zm8.134-.177c.67 1.34 1.275 3.432 1.471 5.084l.122 1.023h-6.684l-.088-.529a8.898 8.898 0 0 1-.09-1.165c-.002-.635-.455-3.961-.64-4.695l-.097-.389h5.67l.336.671Zm-39.25 1.788c5.237 1.01 8.904 5.203 9.244 10.568.048.758.102 1.377.12 1.377.018 0 .469-.171 1.002-.38.8-.314 1.201-.381 2.31-.388 1.22-.008 1.423.031 2.282.438 1.312.622 2.129 1.423 2.764 2.708.497 1.007.527 1.143.527 2.416 0 1.221-.043 1.438-.447 2.292-.622 1.313-1.421 2.13-2.706 2.766l-1.066.527h-29.8l-1.066-.527C8.72 34.876 7.92 34.058 7.3 32.745c-.404-.853-.447-1.071-.447-2.285 0-1.213.043-1.431.447-2.285.615-1.299 1.423-2.131 2.669-2.747.883-.437 1.209-.52 2.29-.582l1.26-.071.094-.935c.308-3.095 1.784-5.917 4.072-7.789 1.408-1.15 3.772-2.191 5.535-2.435.968-.134 2.652-.088 3.62.098Zm-1.998 3.159v1.098l1.001.158c2.168.341 4.172 1.833 5.084 3.782.237.508.466.924.509.924.042 0 .512-.13 1.045-.289.6-.178.967-.363.967-.486 0-.384-1.123-2.366-1.77-3.123-.771-.904-2.109-1.892-3.238-2.392-.849-.376-2.481-.77-3.184-.77h-.415v1.098Zm15.852 3.95c.049.29.089.815.09 1.165l.001.635-1.295-.018-1.296-.018-.25-1.041a21.18 21.18 0 0 1-.257-1.147c-.003-.058.652-.106 1.457-.106h1.463l.087.53Zm17.943.564c-.118 1.42-.46 3.85-.682 4.837L57.78 27l-5.57.033-5.57.034-.423-.722c-.498-.85-1.834-2.223-2.528-2.597-.464-.25-.493-.31-.571-1.189-.045-.51-.115-1.227-.154-1.596l-.072-.671h15.836l-.09 1.094Zm8.924-.07c-.196 1.652-.802 3.744-1.471 5.083l-.336.671h-5.67l.098-.388c.184-.735.637-4.06.64-4.695a8.9 8.9 0 0 1 .089-1.165l.087-.53H67.683l-.122 1.024Zm-51.75 5.939c-.692.218-1.873 1.442-2.085 2.162-.391 1.324-.116 2.38.881 3.377 1.428 1.429 3.239 1.429 4.666 0 1.379-1.38 1.42-3.135.108-4.596-.913-1.016-2.232-1.365-3.57-.943Zm9.03 0c-.692.218-1.873 1.442-2.085 2.162-.391 1.324-.116 2.38.881 3.377 1.428 1.429 3.239 1.429 4.666 0 1.379-1.38 1.42-3.135.108-4.596-.913-1.016-2.232-1.365-3.57-.943Zm9.03 0c-.692.218-1.873 1.442-2.085 2.162-.391 1.324-.116 2.38.881 3.377 1.428 1.429 3.239 1.429 4.666 0 1.379-1.38 1.42-3.135.108-4.596-.913-1.016-2.232-1.365-3.57-.943Zm-16.148 2.421c.7.7.204 1.913-.783 1.913-.275 0-.564-.128-.782-.347a1.138 1.138 0 0 1-.347-.783c0-.275.129-.564.347-.783.218-.218.507-.346.782-.346s.564.128.783.346Zm9.03 0c.7.7.204 1.913-.783 1.913-.275 0-.564-.128-.782-.347a1.138 1.138 0 0 1-.346-.783c0-.275.128-.564.346-.783.218-.218.507-.346.782-.346s.564.128.783.346Zm9.03 0c.7.7.204 1.913-.783 1.913-.275 0-.564-.128-.782-.347a1.138 1.138 0 0 1-.347-.783c0-.275.128-.564.347-.783.218-.218.507-.346.782-.346s.564.128.783.346Zm21.151-.029c-.21.703-1.19 2.66-1.726 3.449-.83 1.223-2.12 2.363-3.095 2.733-.723.275-.986.3-2.298.224-1.2-.07-3.872-.525-4.033-.687-.022-.021.177-.381.441-.8.765-1.214 1.106-2.416 1.115-3.93l.008-1.305h4.842l4.842-.001-.096.317Zm7.273-.178c0 .31-2.831 2.96-3.967 3.714-1.184.786-3.335 1.878-3.458 1.755-.033-.034.17-.404.451-.823.603-.895 1.618-2.992 1.959-4.044l.24-.741h2.387c1.475 0 2.388.053 2.388.139Zm-19.19 7.97c1.7.542 3.191.802 5.116.89l1.798.08V45.147h6.773v4.52h-3.052c-3.626 0-3.938.066-4.925 1.054-.8.8-1.053 1.443-1.053 2.669v.795H45.159v-.795c0-1.138-.249-1.82-.945-2.596-.933-1.038-1.333-1.128-5.006-1.128h-3.079V38.4l2.504-.066c2.622-.07 3.23-.192 4.632-.932.304-.16.585-.294.624-.297.039-.002.547.148 1.129.334Zm-11.146 6.577v5.648H30.82c-3.625 0-3.938.067-4.924 1.055-.8.8-1.053 1.443-1.053 2.669v.795h-4.516v-.795c0-1.138-.248-1.82-.945-2.596-.932-1.038-1.333-1.128-5.006-1.128h-3.079v-4.518h6.773v-6.779h15.802v5.649ZM17.723 52.27c.346.347.346.347.346 3.39v3.042H2.266V55.66c0-3.042 0-3.042.347-3.389l.346-.346h14.417l.347.346Zm24.832 0c.346.347.346.347.346 3.39v3.042H27.1V55.66c0-3.042 0-3.042.346-3.389l.347-.346h14.417l.346.346Zm24.833 0c.346.347.346.347.346 3.39v3.042H51.932V55.66c0-3.042 0-3.042.346-3.389l.346-.346h14.417l.347.346Zm-49.319 9.474c0 .644-.062.846-.346 1.13l-.347.347H2.96l-.346-.347c-.285-.285-.347-.486-.347-1.13v-.783H18.07v.783Zm24.832 0c0 .644-.061.846-.346 1.13l-.346.347H27.792l-.347-.347c-.284-.285-.346-.486-.346-1.13v-.783h15.802v.783Zm24.833 0c0 .644-.062.846-.346 1.13l-.347.347H52.624l-.346-.347c-.285-.285-.346-.486-.346-1.13v-.783h15.802v.783Zm-55.309 4.866v1.13H7.91v-2.26H12.425v1.13Zm24.833 0v1.13H32.743v-2.26H37.258v1.13Zm24.832 0v1.13H57.575v-2.26H62.09v1.13Z" fill="#6A6A6A"/></svg>