<svg width="160" height="126" fill="none" xmlns="http://www.w3.org/2000/svg"><path fill-rule="evenodd" clip-rule="evenodd" d="M67.101 1.317c-1.583.5-4.282 3.308-4.767 4.957-.216.733-.393 2.154-.393 3.158v1.824h-9.776c-5.529 0-10.608.15-11.69.346C33.63 12.84 27.402 19.095 26.17 25.97c-.197 1.094-.345 6.269-.345 12.023v10.101l-.978.407c-1.329.553-3.34 2.915-3.802 4.467-.209.699-.38 2.165-.38 3.257 0 1.373-.124 1.986-.403 1.987-.912 0-4.501 1.992-5.866 3.255-1.364 1.262-3.727 5.283-3.727 6.34 0 .326-.521.443-1.978.443-1.088 0-2.576.177-3.306.394-1.771.525-4.442 3.208-4.966 4.986-.557 1.896-.557 33.974 0 35.87.524 1.779 3.195 4.461 4.966 4.987.73.216 2.218.393 3.306.393 1.457 0 1.978.117 1.978.443 0 .243.51 1.464 1.132 2.714 1.375 2.761 3.31 4.632 6.227 6.019l2.154 1.025H60.168l2.154-1.025c3.71-1.764 6.207-4.753 7.397-8.852.553-1.904 3.154-4.564 4.998-5.111 1.696-.503 8.846-.512 10.505-.013 1.715.516 3.882 2.502 4.592 4.208 2.537 6.1 4.016 7.937 7.864 9.768l2.154 1.025H139.82l2.154-1.025c2.917-1.387 4.852-3.258 6.227-6.019.623-1.25 1.132-2.471 1.132-2.714 0-.326.521-.443 1.978-.443 1.088 0 2.576-.177 3.306-.393 1.771-.526 4.442-3.208 4.966-4.987.557-1.896.557-33.974 0-35.87-.524-1.778-3.195-4.46-4.966-4.986-.73-.217-2.218-.394-3.306-.394-1.367 0-1.978-.125-1.978-.405-.001-.916-1.984-4.52-3.242-5.89-1.257-1.37-5.26-3.744-6.314-3.744-.324 0-.44-.523-.44-1.986 0-1.092-.171-2.558-.38-3.257-.46-1.542-2.47-3.913-3.779-4.457l-.957-.398-.112-11.223c-.111-11.124-.119-11.242-.934-13.367-1.166-3.038-2.248-4.767-4.286-6.846-2.014-2.056-3.844-3.221-6.927-4.413-2.111-.816-2.26-.827-13.019-.939l-10.883-.114V9.409c0-2.585-.572-4.154-2.161-5.929C93.612.928 93.365.888 79.862.927c-7.491.021-12.034.16-12.761.39ZM92.107 6.87l.792.794v39.86H67.101V7.664l.792-.794.791-.795h22.632l.791.795ZM61.941 19.005v2.568l-9.11.104c-8.94.103-9.14.12-10.722.906-2.055 1.021-3.988 2.961-5.006 5.026-.784 1.59-.8 1.782-.897 10.767l-.1 9.148h-5.162l.1-10.605.1-10.605 1.022-2.163c.56-1.19 1.613-2.809 2.337-3.598 1.426-1.553 4.354-3.284 6.354-3.756.689-.162 5.715-.31 11.168-.328l9.916-.032v2.568Zm59.711-1.197c2.934 1.457 4.763 3.333 6.182 6.343l1.021 2.163.101 10.605.1 10.605h-5.154l-.103-9.148-.104-9.148-1.105-2.048c-1.195-2.213-2.553-3.52-4.85-4.668-1.395-.698-1.874-.735-10.571-.835l-9.11-.104v-5.176l10.578.101 10.58.101 2.435 1.21Zm-59.71 19.354v10.362h-20.64v-8.236c0-8.535.116-9.434 1.393-10.83 1.397-1.528 2.094-1.632 10.943-1.646l8.303-.013v10.363Zm54.374-9.533a9.247 9.247 0 0 1 1.555 1.561c.627.842.67 1.392.76 9.614l.096 8.72H98.059V26.77l8.684.096c8.187.09 8.734.134 9.573.763ZM133.384 53.5c.65.653.792 1.116.792 2.59v1.796H25.824v-1.795c0-1.475.142-1.938.792-2.59l.791-.796h105.186l.791.795Zm5.753 9.962c1.771.525 4.443 3.208 4.966 4.986.562 1.91.562 44.323 0 46.232-.523 1.779-3.195 4.461-4.966 4.987-1.892.561-36.73.561-38.622 0-1.844-.547-4.444-3.207-4.998-5.111-1.19-4.099-3.688-7.088-7.397-8.852l-2.154-1.025H74.034l-2.154 1.025c-3.848 1.831-5.327 3.668-7.864 9.768-.71 1.706-2.877 3.692-4.592 4.208-1.826.549-36.705.537-38.56-.013-1.772-.526-4.444-3.208-4.967-4.987-.562-1.909-.562-44.323 0-46.232.485-1.65 3.185-4.456 4.768-4.957 1.705-.54 116.656-.568 118.472-.03ZM56.782 77.566v6.727l2.758 6.955c1.547 3.899 3.05 7.204 3.422 7.521.542.464 1.296.567 4.139.567s3.597-.103 4.139-.567c.372-.317 1.875-3.622 3.422-7.521l2.758-6.955V70.84h-5.16V83.3l-2.154 5.428c-2.025 5.1-2.207 5.428-3.005 5.428-.799 0-.98-.327-3.005-5.428l-2.155-5.428v-12.46h-5.16v6.727Zm26.59-5.931-.792.794v26.907h5.16V86.383h4.122l1.793 1.944a16.361 16.361 0 0 1 4.161 8.56l.388 2.449h5.103l-.222-2.178c-.122-1.198-.569-3.215-.993-4.484-.756-2.26-2.76-6.063-3.407-6.465-.18-.111.243-.618.94-1.126 4.315-3.138 4.82-8.177 1.186-11.826-2.218-2.227-3.043-2.418-10.463-2.418-6.137 0-6.191.007-6.977.796Zm-73.027 19.93v18.133H8.557c-1.469 0-1.93-.142-2.58-.795l-.791-.794V75.02l.791-.795c.65-.653 1.111-.795 2.58-.795h1.788v18.134Zm143.678-17.34.791.795v33.089l-.791.794c-.65.653-1.111.795-2.58.795h-1.788V73.43h1.788c1.469 0 1.93.142 2.58.795Zm-56.756 2.59c.5.502.792 1.165.792 1.796s-.293 1.295-.792 1.796c-.762.766-.952.795-5.16.795H87.74V76.02h4.368c4.208 0 4.398.029 5.16.795Z" fill="#2C2C2C"/></svg>