<svg width="70" height="56" fill="none" xmlns="http://www.w3.org/2000/svg"><path fill-rule="evenodd" clip-rule="evenodd" d="M29.357 1.014c-.693.219-1.874 1.447-2.086 2.168-.095.321-.172.943-.172 1.382v.798h-4.277c-2.419 0-4.64.066-5.114.151-2.995.542-5.72 3.278-6.26 6.286-.085.478-.15 2.742-.15 5.26v4.42l-.428.177c-.581.242-1.46 1.275-1.663 1.954-.092.306-.166.947-.166 1.425 0 .601-.055.87-.177.87-.399 0-1.97.871-2.566 1.424-.597.552-1.63 2.31-1.63 2.774 0 .142-.229.193-.866.193-.476 0-1.127.078-1.446.172-.775.23-1.944 1.404-2.173 2.182-.244.83-.244 14.864 0 15.693.229.778 1.398 1.952 2.173 2.182.319.095.97.172 1.446.172.637 0 .865.051.865.194 0 .106.223.64.495 1.187.602 1.208 1.449 2.026 2.725 2.633l.942.449h17.494l.943-.449c1.623-.771 2.715-2.08 3.236-3.872.242-.833 1.38-1.997 2.186-2.236.743-.22 3.87-.224 4.597-.006.75.226 1.698 1.094 2.008 1.84 1.11 2.67 1.758 3.474 3.441 4.274l.943.449H61.17l.942-.449c1.276-.606 2.123-1.425 2.725-2.633.272-.547.495-1.08.495-1.187 0-.143.228-.194.865-.194.476 0 1.127-.077 1.446-.172.775-.23 1.944-1.404 2.173-2.182.244-.83.244-14.863 0-15.693-.229-.778-1.398-1.951-2.173-2.181-.319-.095-.97-.173-1.446-.173-.598 0-.865-.054-.865-.177 0-.4-.868-1.978-1.418-2.577-.55-.6-2.302-1.638-2.763-1.638-.142 0-.193-.229-.193-.869 0-.478-.074-1.119-.166-1.425-.2-.674-1.08-1.712-1.653-1.95l-.419-.174-.049-4.91c-.048-4.867-.052-4.918-.408-5.848-.51-1.329-.984-2.085-1.875-2.995-.882-.9-1.682-1.41-3.031-1.93-.923-.358-.989-.362-5.696-.411l-4.761-.05v-.788c0-1.131-.25-1.818-.946-2.594-1-1.117-1.108-1.134-7.015-1.117-3.278.01-5.265.07-5.583.17Zm10.94 2.429.346.348V21.23H29.357V3.79l.346-.347.346-.348h9.901l.347.348Zm-13.198 5.31v1.123l-3.985.045c-3.912.045-3.999.052-4.691.396-.9.447-1.745 1.296-2.19 2.2-.344.695-.35.779-.393 4.71l-.043 4.002h-2.26l.045-4.64.044-4.64.446-.946c.246-.52.706-1.228 1.023-1.574.624-.68 1.905-1.437 2.78-1.643.301-.07 2.5-.135 4.886-.143l4.338-.014v1.123Zm26.124-.524c1.283.637 2.083 1.458 2.705 2.774l.446.947.044 4.64.044 4.64h-2.255l-.045-4.003-.045-4.002-.484-.896c-.523-.969-1.117-1.54-2.122-2.043-.61-.305-.82-.321-4.625-.365l-3.985-.045V7.61l4.628.044 4.628.044 1.066.53Zm-26.124 8.467v4.533H18.07v-3.603c0-3.734.05-4.127.61-4.738.61-.669.915-.714 4.787-.72l3.632-.006v4.534Zm23.79-4.17c.213.16.52.467.68.682.274.369.293.61.332 4.206l.042 3.815h-9.042v-9.08l3.799.042c3.582.04 3.821.059 4.188.334Zm7.467 11.318c.284.285.346.488.346 1.133v.786H11.298v-.786c0-.645.062-.848.346-1.133l.347-.348H58.01l.346.348Zm2.516 4.358c.775.23 1.944 1.403 2.173 2.181.246.836.246 19.392 0 20.227-.229.778-1.398 1.952-2.173 2.182-.828.245-16.069.245-16.897 0-.806-.24-1.944-1.403-2.186-2.236-.521-1.793-1.614-3.101-3.236-3.873l-.943-.449h-5.22l-.942.449c-1.684.8-2.331 1.604-3.441 4.274-.31.746-1.259 1.614-2.01 1.84-.798.24-16.057.236-16.87-.005-.774-.23-1.943-1.404-2.172-2.182-.246-.835-.246-19.391 0-20.226.212-.722 1.393-1.95 2.086-2.17.746-.235 51.037-.248 51.831-.012Zm-36.03 6.17v2.944l1.207 3.042c.677 1.706 1.334 3.152 1.497 3.29.237.204.567.249 1.81.249 1.244 0 1.574-.045 1.811-.248.163-.14.82-1.585 1.497-3.29l1.207-3.043V31.43H31.614V36.88l-.943 2.374c-.886 2.232-.965 2.375-1.314 2.375-.35 0-.429-.143-1.315-2.375l-.943-2.374V31.43H24.842v2.943Zm11.633-2.595-.346.348v11.772H38.386V38.23h1.804l.784.85a7.158 7.158 0 0 1 1.82 3.746l.17 1.07h2.233l-.097-.952a11.039 11.039 0 0 0-.435-1.962c-.33-.989-1.207-2.652-1.49-2.828-.08-.049.106-.27.411-.493 1.888-1.373 2.108-3.577.519-5.174-.97-.974-1.332-1.057-4.578-1.057-2.685 0-2.708.002-3.052.348Zm-31.949 8.72v7.933h-.782c-.643 0-.845-.062-1.129-.347l-.346-.348V33.258l.346-.347c.284-.286.486-.348 1.129-.348h.782v7.934Zm62.859-7.586.346.347v14.477l-.346.348c-.284.285-.486.347-1.129.347h-.782V32.563h.782c.643 0 .845.062 1.129.348Zm-24.83 1.133c.218.22.346.51.346.786s-.128.566-.347.785c-.333.335-.416.348-2.257.348h-1.911v-2.267h1.911c1.841 0 1.924.013 2.257.348Z" fill="#fff"/></svg>