<svg width="70" height="71" fill="none" xmlns="http://www.w3.org/2000/svg"><path fill-rule="evenodd" clip-rule="evenodd" d="M30.959.065C25.806.371 21.87.9 17.884 1.818 8.4 4.006 2.044 7.868.359 12.466L0 13.447v44.724l.36.982c.922 2.52 3.246 4.857 6.84 6.88.67.377 1.252.686 1.29.686.04 0 .072-3.93.072-8.733v-8.734l1.446-.636c1.703-.749 4.51-1.712 6.42-2.204 1.732-.445 5.783-1.257 6.877-1.378 1.198-.132 1.204-.14 1.062-1.243l-.12-.938-.48.041c-.264.023-1.404.199-2.534.39-1.13.192-2.117.358-2.192.37-.082.011-.137-.46-.137-1.184v-1.204l.81-.328c1.417-.576 2.418-1.6 2.952-3.025.281-.752.29-.956.25-6.057l-.04-5.279-.4-.813c-.775-1.578-2.395-2.714-4.126-2.895-1.532-.16-3.304.535-4.323 1.693-.464.529-1.218 2.004-1.219 2.385 0 .198-.099.221-.655.155-.814-.096-2.235.248-2.938.712-.28.184-.543.336-.582.336-.04 0-.071-1.351-.071-3.003v-3.003l-.994-.57c-4.099-2.355-6.088-5.307-5.377-7.98.325-1.224.854-2.081 1.987-3.225C10.632 3.857 28.61.532 45.548 2.718c7.117.918 13.919 3.074 17.74 5.622l1.096.73-5.925.036-5.925.036v15.042h-4.52v18.909l-.994-.097a42.916 42.916 0 0 1-1.126-.12c-.074-.013-.19.4-.258.915-.146 1.103-.14 1.11 1.059 1.244 1.35.15 5.344.973 7.334 1.512 2.141.58 4.267 1.32 6.104 2.124l1.305.572v8.738c0 4.806.04 8.738.09 8.738.148 0 2.239-1.227 3.335-1.958 1.347-.897 3.386-2.944 4.022-4.037.277-.476.641-1.245.81-1.71l.305-.843V13.447l-.36-.981C67.24 5.91 55.535 1.066 39.794.113c-2.042-.123-7.1-.15-8.835-.048Zm9.247 5.313v1.025h2.054V4.352h-2.054v1.026Zm-5.14 1.574-.676.686.714.713.714.713.687-.676c.378-.371.687-.736.687-.812 0-.186-1.116-1.31-1.301-1.31-.081 0-.452.31-.824.686Zm10.647-.099c-.317.323-.576.648-.576.723 0 .076.309.441.687.812l.686.676.714-.713.714-.713-.676-.686c-.372-.377-.743-.685-.824-.685-.082 0-.407.264-.725.586Zm-5.8 1.807c-1.427.459-2.654 1.677-3.008 2.988-.231.853-.092 2.504.27 3.207.46.893 1.19 1.62 2.05 2.041.663.326.943.38 1.94.38.995 0 1.276-.054 1.94-.38 2.197-1.077 3.115-3.735 2.041-5.912-.73-1.48-2.051-2.364-3.692-2.47-.58-.037-1.135.016-1.54.146Zm-17.802.465a6.58 6.58 0 0 0-1.439.708c-.637.44-.735.464-1.905.475-.719.006-1.386.086-1.6.19-.313.154-.502.145-1.263-.061-2.131-.576-4.19.359-5.171 2.348-.363.736-.445 1.065-.447 1.807-.008 1.795.916 3.306 2.494 4.08l.782.383H24.93l.778-.364a5.19 5.19 0 0 0 2.476-2.42c.597-1.21.694-2.817.241-4.02-.962-2.564-3.753-3.945-6.315-3.126Zm20.399 1.828c1.043.689 1.349 2.203.656 3.247-.67 1.011-1.905 1.349-3.043.833-.79-.359-1.192-.978-1.262-1.948-.048-.666-.002-.885.297-1.395.693-1.18 2.184-1.508 3.352-.737Zm-17.297.44c.405.237.75.596 1.027 1.069.376.643.412.806.374 1.695-.055 1.266-.51 1.984-1.605 2.538l-.743.377h-5.05c-4.755 0-5.08-.016-5.578-.27-1.799-.916-1.744-3.461.092-4.272.787-.347 1.647-.258 2.42.253.476.314.577.336.826.176 1.198-.769 1.833-.843 2.91-.342l.709.329.377-.544c1-1.44 2.781-1.863 4.24-1.01Zm41.84.433c.621.977.888 1.9.875 3.024-.01.858-.08 1.134-.521 2.024-.836 1.688-2.478 3.242-4.975 4.707l-.994.582v2.02H54.59V11.19h12.06l.404.636Zm-34.427.14c-.05.05-.092.511-.092 1.025v.935H34.59v-2.052h-.936c-.515 0-.977.041-1.027.091Zm15.114.934v1.026h2.054v-2.052H47.74V12.9Zm9.452 2.052v1.025H59.247v-2.051H57.192v1.026Zm4.11 0v1.025h2.054v-2.051H61.301v1.026Zm-26.205 2.5c-.354.36-.645.716-.645.792 0 .076.308.44.685.81l.685.674.685-.673c.377-.37.685-.74.685-.82 0-.144-1.242-1.437-1.38-1.437-.038 0-.36.295-.715.654Zm10.687-.001c-.356.36-.647.718-.647.793 0 .076.309.441.687.813l.686.675.716-.715.716-.715-.755-.754-.755-.754-.648.657Zm-5.578 2.965v1.032h2.066l-.04-.991-.04-.992-.993-.04-.993-.04v1.031Zm16.986.006v1.026H59.247v-2.051H57.192v1.026ZM5.35 22.62l1.157.768V63.18l-.432-.247c-.724-.413-2.906-2.665-3.3-3.403-.826-1.553-.789-.562-.789-21.027V19.779l1.103 1.036a20.92 20.92 0 0 0 2.26 1.805ZM67.87 57.79c-.216 1.042-.842 2.195-1.717 3.161-.655.722-1.88 1.77-2.489 2.127-.136.08-.17-3.916-.17-19.795V23.388l1.198-.796c.66-.437 1.66-1.237 2.226-1.778l1.027-.983.036 18.623c.025 12.889-.01 18.843-.111 19.337ZM18.852 25.079c.705.248 1.408.881 1.781 1.605.253.489.265.787.228 5.55l-.04 5.032-.377.57c-.553.834-1.328 1.296-2.291 1.366-1.366.099-2.418-.476-3.058-1.67-.293-.546-.3-.68-.3-5.416 0-4.821.002-4.86.322-5.508a3.097 3.097 0 0 1 1.766-1.545c.684-.244 1.245-.24 1.97.016Zm14.367.267c-3.452.694-6.262 3.36-7.206 6.839-.283 1.04-.425 6.914-.213 8.778.275 2.415 1.085 4.098 2.796 5.804l1.061 1.06v1.924c0 1.058-.02 1.924-.047 1.924-.026 0-1.901.396-4.167.88-4.672.997-5.239 1.208-6.555 2.437a6.456 6.456 0 0 0-1.961 3.658c-.082.508-.145 3.13-.145 6.12l-.001 5.232h2.038l.043-5.642.042-5.642.395-.854c.447-.966 1.305-1.838 2.195-2.231.32-.142 2.613-.69 5.093-1.22l4.509-.96h7.808l4.496.956c2.473.525 4.765 1.073 5.093 1.218.902.398 1.758 1.266 2.208 2.237l.395.854.042 5.642.043 5.642H53.22l-.002-5.231c0-2.99-.063-5.613-.145-6.121a6.456 6.456 0 0 0-1.961-3.658c-.486-.454-1.235-.99-1.663-1.193-.666-.314-3.12-.896-8.73-2.067l-.377-.08v-3.834l1.002-.978c1.69-1.65 2.585-3.497 2.858-5.892.21-1.85.066-7.729-.215-8.763-1.302-4.799-6.018-7.794-10.768-6.84Zm28.22 11.216c0 6.123-.051 10.326-.125 10.326-.07 0-.617-.21-1.218-.468-2.236-.955-5.69-2.01-8.518-2.602l-1.441-.302-.035-8.64-.036-8.64h11.372v10.326Zm-24.19-8.965c2.208.765 3.795 2.354 4.57 4.574.282.809.34 1.235.345 2.544.01 2.492-.612 4.112-2.145 5.577-1.509 1.442-3.053 2.082-5.019 2.082-3.22 0-6.002-2.114-6.93-5.265-.36-1.227-.322-3.678.077-4.856.867-2.56 2.883-4.35 5.552-4.93.834-.18 2.641-.041 3.55.274ZM12.352 29.19c.296.079.298.11.347 4.067.046 3.694.071 4.04.343 4.713.162.4.462.947.668 1.216.448.587.372.779-.49 1.233-1.475.78-3.315.16-4.157-1.397-.281-.52-.296-.722-.296-4.034 0-3.386.01-3.507.322-4.141.598-1.213 2.091-1.971 3.263-1.657Zm40.456.942v1.026H54.863v-2.051H52.808v1.025Zm4.11 0v1.026H58.973v-2.051H56.918v1.025Zm-4.11 5.471v1.026H54.863v-2.052H52.808v1.026Zm4.11 0v1.026H58.973v-2.052H56.918v1.026Zm-4.11 5.47v1.027H54.863v-2.052H52.808v1.026Zm4.11 0v1.027H58.973v-2.052H56.918v1.026ZM16.75 42.706c-.038 1.46-.046 1.496-.381 1.596-.815.244-3.39.945-3.472.945-.05 0-.09-.555-.09-1.235 0-1.056.035-1.246.24-1.313.752-.243 1.944-.917 2.334-1.32.424-.437.48-.455.929-.315l.478.149-.039 1.493Zm13.46.414c.439.257 1.249.638 1.8.846.927.35 1.152.38 2.989.38 1.889 0 2.04-.02 3.097-.421 1.333-.507 2.407-1.172 3.337-2.068.38-.364.69-.619.69-.565 0 .313-.603 1.934-.925 2.49-.535.922-1.843 2.19-2.767 2.681-2.111 1.124-4.756 1.122-6.872-.004-.956-.508-2.421-1.988-2.895-2.922-.296-.584-.788-1.99-.788-2.252 0-.045.345.244.768.643.422.398 1.127.935 1.566 1.192Zm-20.01-.577.56.174-.038 1.684-.038 1.684-.955.402c-.525.22-1.003.402-1.062.402-.058 0-.106-1.17-.106-2.6v-2.601l.54.34c.297.188.792.42 1.1.515Zm25.21 6.763c.91-.037 1.816-.152 2.145-.273.314-.115.606-.172.65-.128.045.045.082.624.082 1.29V51.4h-6.576v-1.208c0-.664.03-1.238.068-1.275.037-.037.514.05 1.061.192.797.208 1.308.247 2.57.195ZM23.631 65.9v4.103H25.684v-8.206H23.63v4.103Zm20.684 0v4.103H46.37v-8.206H44.315v4.103Z" fill="#fff"/></svg>