<svg width="66" height="70" fill="none" xmlns="http://www.w3.org/2000/svg"><path fill-rule="evenodd" clip-rule="evenodd" d="M14.906.13C12.617.426 9.64 1.649 7.719 3.083 5.492 4.745 3.463 7.338 2.485 9.771c-.978 2.436-1.264 4.455-1.271 8.969-.004 2.23-.027 2.453-.343 3.218-.458 1.112-.47 2.462-.028 3.416l.314.678-.331.82c-.452 1.12-.392 2.784.144 3.95.752 1.637 2.449 2.823 4.22 2.95.928.066.954.077.954.438 0 1.264 1.071 4.06 2.203 5.747 3.868 5.769 11.252 7.86 17.47 4.947.654-.307 1.212-.557 1.24-.557.164 0-.005.659-.325 1.27-.326.623-.375.874-.377 1.948-.002.969.057 1.35.276 1.79l.279.557-.279.606c-.22.481-.278.89-.278 1.976 0 1.197.045 1.468.364 2.147.768 1.638 2.288 2.734 4.158 2.998.518.074.95.148.962.165.012.017.12.53.24 1.142 1.001 5.108 4.998 9.31 10.168 10.689 1.205.32 1.627.365 3.494.365 1.845 0 2.295-.046 3.427-.35 3.981-1.067 7.209-3.71 9.076-7.433.54-1.077 1.122-2.821 1.269-3.8.053-.358.136-.652.184-.653.048-.002.512-.065 1.031-.14a5.247 5.247 0 0 0 4.032-2.983c.508-1.09.575-2.633.17-3.837l-.293-.867.28-.746c.402-1.073.376-2.37-.065-3.317-.323-.696-.34-.86-.343-3.218-.004-4.96-.38-7.158-1.693-9.88a15.74 15.74 0 0 0-12.462-8.823c-2.517-.28-8.835-.16-10.522.201-.356.077-.361.066-.416-.802a3.846 3.846 0 0 0-.428-1.594l-.371-.716v-3.464c0-3.634-.113-4.688-.707-6.616C36.165 5.307 30.828.866 24.882.12c-1.322-.166-8.675-.16-9.976.009Zm1.102 4.366v2.31l.361.284c.413.325.586.346 1.064.128.518-.235.63-.784.63-3.082V2.034H21.9v13.42h-3.836v-2.54c0-3.106-.128-3.486-1.175-3.486-.183 0-.455.123-.606.274-.256.255-.274.456-.274 3.005v2.731l-4.076.043c-4.691.05-4.77.067-6.136 1.358-.7.661-1.434 1.876-1.434 2.372 0 .117-.054.213-.12.213-.065 0-.312.039-.548.086l-.428.085.002-1.626c.004-2.322.222-4.613.553-5.802C5.247 7.054 9.537 3.16 14.74 2.257c.585-.1 1.11-.158 1.166-.127.057.031.103 1.096.103 2.366ZM26.69 2.593c3.656.991 6.957 3.83 8.645 7.435.97 2.071 1.124 2.905 1.192 6.437l.06 3.135-.322-.086a2.63 2.63 0 0 0-.492-.088.176.176 0 0 1-.173-.173c-.003-.378-.73-1.709-1.205-2.205-.674-.704-1.338-1.115-2.223-1.378-.589-.175-1.457-.217-4.473-.217h-3.743V8.835c0-3.64.031-6.65.07-6.69.104-.103 1.494.13 2.664.448Zm5.28 15.174c.302.14.715.43.918.647.744.793.795 1.107.795 4.888v3.477l-.82.643c-.451.355-1.205 1.074-1.675 1.599l-.854.954-10.965-.038L8.404 29.9l-.61-.342a3.741 3.741 0 0 1-1.028-.936l-.417-.594-.043-3.994c-.047-4.382-.004-4.724.699-5.524.928-1.056.155-.997 12.976-.997 10.847 0 11.47.013 11.989.254ZM4.226 23.669c0 1.566-.045 2.191-.158 2.191-.307 0-1.106-.726-1.295-1.177-.292-.7-.242-1.582.12-2.12.256-.378 1.093-1.085 1.285-1.085.027 0 .048.986.048 2.191Zm32.557-1.485c.446.492.6.868.6 1.467 0 1.009-.308 1.405-1.336 1.722l-.309.095v-3.997l.377.196c.207.108.508.34.668.517ZM47.657 32.57v6.71h-3.836V25.86h3.836v6.71Zm-5.891.06v6.631l-4.008.044-4.007.044-.778.364c-1.054.494-1.94 1.344-2.438 2.342-.228.456-.415.901-.415.99 0 .088-.222.228-.492.311l-.492.151.057-3.175c.054-2.96.083-3.255.425-4.377 1.122-3.68 3.278-6.428 6.471-8.247 1.61-.917 3.92-1.668 5.232-1.7l.445-.01v6.631Zm10.22-6.29c5.124 1.299 9.099 5.487 10.137 10.68.105.528.233 2.176.283 3.664.088 2.602.081 2.704-.17 2.702-.461-.003-.878-.162-.878-.334 0-.093-.186-.541-.415-.997-.498-.998-1.384-1.848-2.438-2.342l-.778-.364-4.007-.044-4.008-.044V25.997h.462c.254 0 1.07.154 1.812.343ZM4.364 28.242c.003.34.688 1.594 1.15 2.104.344.382.492.675.492.974 0 .407-.027.429-.532.429-.316 0-.83-.156-1.267-.383-1.014-.527-1.626-1.524-1.626-2.647 0-1.2.011-1.21.964-.897.45.147.818.336.819.42Zm14.598 3.78h10.044l-.548 1.17c-.916 1.954-1.237 3.448-1.336 6.225l-.085 2.396-.753.508c-.901.608-2.45 1.251-3.768 1.564-1.282.305-3.925.306-5.183.002-3.646-.882-6.592-3.293-8.163-6.682-.662-1.43-.958-2.58-1.067-4.143l-.085-1.22.45.09c.248.05 4.97.09 10.494.09Zm-3.577 1.295c-.553.553-.39 1.102.555 1.863 1.025.825 2.189 1.263 3.546 1.333 1.892.099 3.09-.25 4.496-1.311.76-.574 1.005-1.052.808-1.571-.284-.746-1.137-.858-1.84-.242a4.348 4.348 0 0 1-2.917 1.097c-1.196.002-1.94-.248-2.864-.96-.825-.637-1.3-.692-1.784-.209Zm42.01 8.173c.716.215 1.416.824 1.759 1.53.27.558.286.815.286 4.524 0 4.278-.039 4.538-.795 5.344-.576.614-1.336.9-2.397.904-.803.003-.977.05-1.267.34-.434.433-.428.953.014 1.395.33.33.417.347 1.507.302l1.157-.048v.635c0 .35-.098 1.15-.217 1.78-1.036 5.462-5.592 9.488-11.086 9.796-3.434.192-6.409-.956-8.92-3.445-2.261-2.24-3.35-4.558-3.569-7.602l-.084-1.164 9.039.037c8.993.037 9.04.035 9.403-.25.503-.395.505-1.095.003-1.489-.356-.28-.468-.284-9.145-.287-9.841-.003-9.408.039-10.32-1-.705-.802-.748-1.142-.7-5.512l.044-3.981.376-.568c.417-.63.809-.928 1.577-1.202.69-.246 22.521-.283 23.335-.039Zm-27.412 6.147v2.194l-.377-.196c-.792-.412-1.267-1.16-1.267-1.997 0-.75.28-1.376.814-1.826.803-.675.83-.615.83 1.825ZM62.312 45.8c.58.488.827 1.015.827 1.766 0 .908-.45 1.644-1.267 2.068l-.377.196v-2.194c0-2.434.029-2.499.817-1.836Zm-32.774 5.978c.32.086.582.22.582.299 0 .338.824 1.82 1.216 2.188.335.314.428.516.428.926v.524l-.582-.085c-1.744-.254-2.843-1.48-2.843-3.176 0-.745.12-1.024.394-.918.123.047.485.156.805.242Zm33.547.037c.293 1.17-.27 2.605-1.287 3.277-.496.328-1.76.667-1.979.531-.255-.157-.096-.968.254-1.291.487-.451.954-1.204 1.15-1.857.146-.489.229-.561.867-.759.944-.291.895-.296.995.099Zm-21.699 5.083c-.296.12-.591.84-.498 1.212.082.326.78.977 1.563 1.457 1.47.902 3.679 1.126 5.378.546 1.079-.369 2.517-1.373 2.716-1.897.25-.659-.25-1.41-.94-1.41-.146 0-.553.22-.905.49-1.054.804-1.793 1.072-2.96 1.072-1.169 0-1.907-.268-2.962-1.072-.6-.458-.975-.565-1.392-.398Z" fill="#fff"/></svg>