<svg width="70" height="54" fill="none" xmlns="http://www.w3.org/2000/svg"><path fill-rule="evenodd" clip-rule="evenodd" d="m3.306.53-.362.362v42.222h-1.16c-1.7 0-1.708.014-1.771 3-.057 2.671.065 3.352.647 3.617.278.127 4.053.172 14.437.172h14.06l-1.067 1.074c-.872.876-1.067 1.158-1.067 1.538 0 .327.116.557.39.772.387.305.44.306 15.121.306 17.434 0 15.511.266 15.511-2.151v-1.539h5.459c3.84 0 5.57-.051 5.836-.172.582-.265.704-.946.647-3.617-.063-2.986-.071-3-1.772-3h-1.159V.892L66.694.53 66.33.168H3.67L3.306.53Zm61.682 22.144v20.44H63.215v-19.26c0-19.062-.003-19.262-.295-19.554-.293-.293-.492-.295-27.92-.295S7.373 4.007 7.08 4.3c-.292.292-.295.492-.295 19.555v19.26H5.012V2.234h59.976v20.44Zm-3.84 1.919v18.521H58.045V23.065l-.39-.306c-.214-.169-.529-.306-.7-.306-.213 0-3.534 3.22-10.654 10.33L35.957 43.115h-8.491v-2.361c0-2.165-.025-2.386-.295-2.657-.289-.287-.491-.295-8.236-.292-4.367 0-8.013.05-8.103.11-.408.273-.502.829-.502 2.977v2.223H8.853V6.071h52.294v18.522ZM23.49 15.184c-.24.197-3.363 7.232-4.434 9.988-.084.215-.357-.299-1.121-2.112-.562-1.333-1.125-2.457-1.27-2.534-.143-.077-.763-.14-1.377-.14-.921 0-1.17.053-1.414.296-.702.701-.084 1.77 1.024 1.77h.54l1.303 3.092c.717 1.7 1.417 3.195 1.557 3.321.305.276.892.297 1.239.044.139-.101 1.366-2.808 2.728-6.014l2.475-5.829 9.204-.074c8.895-.071 9.21-.083 9.413-.36.3-.409.26-1.066-.085-1.41-.29-.29-.493-.296-9.882-.296-8.91 0-9.607.018-9.9.258Zm7.373 5.011c-.122.043-.689.535-1.26 1.094l-1.037 1.017-1.027-1.034c-.904-.91-1.092-1.033-1.576-1.033-.4 0-.612.09-.78.328-.428.612-.288.972.83 2.123l1.059 1.091-1.06 1.091c-1.146 1.181-1.282 1.565-.757 2.128.562.603 1.086.441 2.264-.701l1.058-1.024 1.051 1.024c1.158 1.128 1.697 1.3 2.269.729.538-.538.384-.973-.764-2.156l-1.059-1.09 1.06-1.092c.738-.761 1.058-1.203 1.058-1.46 0-.654-.75-1.238-1.33-1.035Zm8.023.046c-.432.173-.684.678-.567 1.142.052.208.536.835 1.075 1.393l.98 1.014-.973.992c-1.067 1.086-1.26 1.472-.99 1.982.236.449.416.554.95.557.358.002.65-.202 1.47-1.027l1.022-1.03 1.063 1.03c1.196 1.159 1.694 1.325 2.313.771.545-.487.337-1.058-.805-2.206l-1.063-1.07 1.063-1.095c1.137-1.17 1.342-1.728.805-2.188-.7-.6-1.157-.433-2.47.903l-.883.897-1.038-1.018c-1.097-1.076-1.43-1.255-1.952-1.047Zm-5.797 2.896c-.402.51-.386.872.057 1.315.342.342.455.362 2.048.362 1.481 0 1.733-.037 2.075-.306.494-.388.514-1.001.047-1.44-.312-.292-.497-.32-2.131-.32-1.757 0-1.795.007-2.096.389Zm22.887 4.831v1.826l-.766.074c-1.15.11-1.641.89-1.072 1.702.19.27.37.328 1.034.328h.804v1.624h-.739c-.871 0-1.33.352-1.33 1.022 0 .609.594 1.044 1.424 1.044h.645v1.475h-.739c-.857 0-1.33.351-1.33.987 0 .66.528 1.08 1.356 1.08h.713v1.475h-.645c-.83 0-1.423.435-1.423 1.044 0 .67.458 1.023 1.33 1.023h.738v1.438l-.766.073c-1.15.11-1.641.891-1.072 1.702.19.271.37.329 1.034.329h.804V47.837h-.739c-.871 0-1.33.352-1.33 1.022 0 .61.594 1.044 1.424 1.044h.645V51.526H30.495l12.704-12.692c6.987-6.98 12.72-12.692 12.74-12.692.021 0 .038.822.038 1.826Zm-10.392 13.06c-6.107 6.095-6.057 6.03-5.197 6.769l.401.345 5.613-.042 5.613-.042.282-.348c.267-.33.282-.657.282-6.003v-5.655l-.389-.306c-.214-.168-.528-.306-.698-.306-.208 0-2.118 1.806-5.907 5.588Zm4.926.02v2.066h-1.994c-1.097 0-1.995-.049-1.995-.108 0-.098 3.855-4.024 3.95-4.024.021 0 .04.93.04 2.066Zm-29.102.443v1.623h-9.011v-3.246h9.011v1.623Zm3.989 0v1.623h-1.92v-3.246h1.92v1.623Zm7.164 5.018-1.324 1.33-14.553-.038-14.554-.038-.042-1.291-.043-1.292h31.84l-1.324 1.33Zm17.95-.886v.443H47.04c-1.91 0-3.472-.046-3.472-.101 0-.056.145-.255.321-.443.316-.336.37-.342 3.472-.342h3.15v.443Zm17.4.849-.043 1.291-4.912.039-4.912.039v-2.66H67.954l-.042 1.29Z" fill="#fff"/></svg>