<svg width="70" height="35" viewBox="0 0 70 35" fill="none" xmlns="http://www.w3.org/2000/svg">
<path fill-rule="evenodd" clip-rule="evenodd" d="M4.98045 3.17663V5.43335H8.319H11.6575V20.1156V34.7978H13.9289H16.2002V17.8589V0.919922H10.5903H4.98045V3.17663ZM34.5074 1.0116C34.387 1.0221 33.9437 1.08072 33.5223 1.1419C26.989 2.09042 21.6165 6.71304 19.6843 13.0485C18.97 15.3905 18.7998 18.1541 19.2174 20.6292C19.9532 24.9892 22.3769 28.8634 26.0212 31.5049C27.174 32.3404 28.1482 32.8742 29.527 33.4258C31.0621 34.04 32.1843 34.3104 34.6035 34.6488L35.4378 34.7656L52.7189 34.7827L70 34.7999V32.5966V30.3931L54.525 30.3899C46.0138 30.388 38.2989 30.3657 37.3808 30.3401C35.6005 30.2906 34.8672 30.2167 33.4949 29.9485C30.7031 29.4031 28.3339 28.0342 26.4997 25.9069C24.985 24.1502 24.0381 22.1173 23.6359 19.7589C23.4752 18.8161 23.4614 17.0268 23.6077 16.0935C24.0266 13.4212 25.1652 11.1345 27.0247 9.23072C29.3489 6.851 32.2667 5.56087 35.5747 5.4501C39.094 5.3322 42.3371 6.6032 44.8253 9.07546C46.8319 11.0691 48.0612 13.5658 48.4126 16.3614C48.4558 16.7042 48.491 17.1386 48.491 17.3266V17.6685H50.7634H53.0358L53.0041 17.1383C52.8836 15.1268 52.5164 13.4094 51.8445 11.7141C50.3158 7.857 47.4941 4.74986 43.7767 2.83008C41.9751 1.89972 39.9647 1.29639 37.8733 1.05848C37.201 0.982022 35.1727 0.953745 34.5074 1.0116ZM0 9.8652V12.0132H2.49023H4.98045V23.4055V34.7978H7.16966H9.35887V21.2575V7.71725H4.67944H0V9.8652ZM34.6867 8.28649C32.5248 8.59345 30.6297 9.53632 29.0977 11.0673C24.8063 15.3556 25.5319 22.5255 30.594 25.8529C32.3235 26.9897 34.0091 27.4466 36.9156 27.5662C37.5778 27.5935 45.2927 27.6167 54.0598 27.6178L70 27.6198V25.4719V23.3239L53.9777 23.3232C44.508 23.3227 37.5302 23.3011 36.9156 23.2702C34.5326 23.1506 33.3459 22.7378 32.229 21.6401C30.5219 19.9625 30.1292 17.5084 31.228 15.3841C31.9234 14.0397 33.1492 13.073 34.691 12.6531C35.3218 12.4814 36.6773 12.4839 37.326 12.658C38.2735 12.9124 39.1009 13.3877 39.7931 14.0754C40.6806 14.9573 41.2299 16.0929 41.3536 17.3015L41.3912 17.6685H43.5455H45.6998L45.6987 17.4102C45.6955 16.6423 45.4097 15.2713 45.0712 14.4005C43.8314 11.2109 41.0943 8.97595 37.6441 8.33586C37.008 8.21786 35.3634 8.1904 34.6867 8.28649Z" fill="white"/>
</svg>
