<svg width="70" height="48" viewBox="0 0 70 48" fill="none" xmlns="http://www.w3.org/2000/svg">
<path fill-rule="evenodd" clip-rule="evenodd" d="M27.1552 0.623161C26.869 0.910412 26.8534 1.12786 26.8534 4.85334V8.78052L24.1999 8.82822L21.5464 8.87577L21.1827 9.30066L20.819 9.72556V15.9255V22.1254H18.6315H16.444V18.1815V14.2375L16.0736 13.8659L15.7034 13.4942H8.22198H0.740582L0.370366 13.8659L0 14.2375V23.2458V32.2538L0.36403 32.6787L0.728211 33.1036H8.22198H15.7158L16.0799 32.6787L16.444 32.2538V28.401V24.5482H30.0216H43.5991V31.3739V38.1996L44.0401 38.6422L44.4811 39.0849H49.0186H53.556V42.9377V46.7905L53.9201 47.2154L54.2842 47.6403H61.778H69.2718L69.636 47.2154L70 46.7905V37.8097C70 28.9534 69.9956 28.8233 69.6873 28.4299L69.3747 28.0309H61.778H54.1814L53.8688 28.4299C53.5707 28.8101 53.556 29.0124 53.556 32.7455V36.6621H49.7845H46.0129V29.7927C46.0129 23.0724 46.0061 22.9147 45.7002 22.5244L45.3876 22.1254H34.3101H23.2328V16.6693V11.2133L25.0054 11.2559L26.778 11.2986L26.8534 15.3616C26.9241 19.1608 26.9479 19.4385 27.2217 19.6393C27.6574 19.9588 42.3426 19.9588 42.7783 19.6393C43.0521 19.4385 43.0759 19.1608 43.1466 15.3616L43.222 11.2986L48.389 11.2587L53.556 11.2189V15.1375C53.556 18.8725 53.5707 19.0748 53.8688 19.455L54.1814 19.854H61.778H69.3747L69.6873 19.455C69.9956 19.0616 70 18.9314 70 10.0872C70 1.24294 69.9956 1.11271 69.6873 0.719315L69.3747 0.320312H61.778H54.1814L53.8688 0.719315C53.5711 1.09909 53.556 1.30275 53.556 4.95919V8.80006H48.3513H43.1466V4.86303C43.1466 1.12786 43.131 0.910412 42.8448 0.623161C42.5511 0.328338 42.342 0.320312 35 0.320312C27.658 0.320312 27.4489 0.328338 27.1552 0.623161ZM40.7328 4.93874V7.13439H35H29.2672V4.93874V2.7431H35H40.7328V4.93874ZM67.5862 4.93874V7.13439H61.778H55.9698V4.93874V2.7431H61.778H67.5862V4.93874ZM32.0514 4.17481C31.6018 4.6259 31.5679 5.29505 31.9695 5.79263C32.2534 6.14469 32.3002 6.15014 35 6.15014C37.6998 6.15014 37.7466 6.14469 38.0305 5.79263C38.4321 5.29505 38.3982 4.6259 37.9486 4.17481C37.5844 3.80912 37.5364 3.80306 35 3.80306C32.4636 3.80306 32.4156 3.80912 32.0514 4.17481ZM58.9552 4.00946C58.5701 4.30337 58.3676 4.95252 58.5288 5.37772C58.8152 6.13439 59.1624 6.22585 61.746 6.22585C64.1506 6.22585 64.5869 6.1459 64.979 5.63333C65.2834 5.23523 65.2038 4.5779 64.802 4.17481C64.4371 3.80836 64.3947 3.80306 61.8225 3.80791C59.9212 3.81139 59.1434 3.86606 58.9552 4.00946ZM40.7328 13.4942V17.4312H35H29.2672V13.4942V9.55718H35H40.7328V13.4942ZM67.5862 13.4942V17.4312H61.778H55.9698V13.4942V9.55718H61.778H67.5862V13.4942ZM14.0302 18.1126V20.3083H8.22198H2.41379V18.1126V15.917H8.22198H14.0302V18.1126ZM5.45502 17.2194C5.26539 17.3526 5.04935 17.6228 4.97483 17.8193C4.80526 18.2671 5.05705 19.0474 5.43692 19.2515C5.73638 19.4123 10.5311 19.4595 10.9307 19.3057C11.2985 19.164 11.6372 18.4 11.5272 17.9601C11.4746 17.7498 11.2603 17.4426 11.0511 17.2774C10.7073 17.0059 10.4356 16.977 8.23526 16.977C6.24644 16.977 5.73668 17.0215 5.45502 17.2194ZM14.0302 26.7438V30.7565H8.22198H2.41379V26.7438V22.7311H8.22198H14.0302V26.7438ZM67.5862 32.6493V34.845H61.778H55.9698V32.6493V30.4537H61.778H67.5862V32.6493ZM58.9059 31.8588C58.367 32.3239 58.3388 33.0264 58.8374 33.5591C59.1874 33.9331 59.2132 33.9364 61.8112 33.9364C64.3925 33.9364 64.4374 33.9308 64.802 33.5647C65.2515 33.1138 65.2856 32.4446 64.8843 31.9469C64.6044 31.5995 64.5214 31.588 61.9619 31.542C59.3653 31.4953 59.3217 31.4997 58.9059 31.8588ZM67.5862 41.1828V45.0981L66.5679 45.1945C66.0079 45.2477 63.3941 45.2916 60.7597 45.2922L55.9698 45.2932V41.2805V37.2678H61.778H67.5862V41.1828Z" fill="white"/>
</svg>
