<svg width="54" height="70" viewBox="0 0 54 70" fill="none" xmlns="http://www.w3.org/2000/svg">
<path fill-rule="evenodd" clip-rule="evenodd" d="M3.4018 0.152986C2.12088 0.558419 1.21131 1.30137 0.588834 2.45058L0.119141 3.31786V22.145V40.972L0.455203 41.6567C0.884684 42.5316 1.8439 43.4919 2.71791 43.9218L3.4018 44.2582L12.1898 44.2963L20.9777 44.3344V46.6582V48.9821L18.1396 48.9829C15.0573 48.9838 14.0059 49.0971 13.126 49.5235C12.3693 49.8902 11.46 50.8061 11.0129 51.6521L10.651 52.3368L10.6122 59.3365C10.5743 66.1439 10.5811 66.3571 10.8581 67.0984C11.2366 68.1109 12.1982 69.123 13.2498 69.6157L14.0704 70H26.8591H39.6478L40.4685 69.6157C41.52 69.123 42.4817 68.1109 42.8602 67.0984C43.1372 66.3571 43.144 66.1439 43.1061 59.3365L43.0673 52.3368L42.703 51.6458C41.9688 50.2535 40.7338 49.3637 39.1822 49.1092C38.7612 49.0402 37.1397 48.9833 35.5787 48.9829L32.7406 48.9821V46.6582V44.3344L41.5285 44.2963L50.3165 44.2582L51.098 43.874C51.9715 43.4446 52.809 42.5779 53.285 41.6104L53.5991 40.972V22.145V3.31786L53.1294 2.45058C52.6116 1.49457 51.8792 0.816248 50.8526 0.342353L50.1797 0.0316714L27.0643 0.00579269C8.75308 -0.014746 3.83525 0.0159251 3.4018 0.152986ZM50.07 2.57792C50.4649 2.76934 50.7756 3.05852 51.0023 3.44574C51.3325 4.00973 51.3423 4.10271 51.3423 6.65032V9.27406H26.8591H2.37597V6.65032C2.37597 4.10627 2.38623 4.00891 2.71422 3.44875C2.93498 3.07167 3.25586 2.77016 3.63747 2.58107L4.22247 2.2912L26.8501 2.29106L49.4779 2.29092L50.07 2.57792ZM5.13819 4.95944C4.57781 5.43156 4.53623 6.10906 5.03698 6.6102C5.33296 6.90664 5.49244 6.94635 6.38629 6.94635C7.66967 6.94635 8.12062 6.66292 8.12062 5.85616C8.12062 4.97272 7.78005 4.70284 6.58913 4.6426C5.6507 4.59522 5.54264 4.61877 5.13819 4.95944ZM11.1728 4.75652C10.4911 5.03146 10.3506 6.19614 10.943 6.66251C11.234 6.89172 11.4986 6.94635 12.317 6.94635C13.2108 6.94635 13.3703 6.90664 13.6663 6.6102C14.1369 6.13918 14.1124 5.52959 13.6023 5.01887C13.242 4.65821 13.1168 4.61946 12.3371 4.62726C11.8611 4.63205 11.3372 4.69025 11.1728 4.75652ZM16.8135 4.92672C16.278 5.39842 16.2248 5.98199 16.6692 6.51066C17.0233 6.93197 17.0709 6.94635 18.1054 6.94635C19.1398 6.94635 19.1874 6.93197 19.5415 6.51066C19.9859 5.98199 19.9327 5.39842 19.3972 4.92672C19.1069 4.67094 18.8876 4.61864 18.1054 4.61864C17.3232 4.61864 17.1039 4.67094 16.8135 4.92672ZM42.4412 5.01887C41.9311 5.52959 41.9066 6.13918 42.3772 6.6102C42.7119 6.94539 42.7214 6.94635 45.5293 6.94635C48.3372 6.94635 48.3466 6.94539 48.6813 6.6102C49.152 6.13918 49.1275 5.52959 48.6173 5.01887L48.2175 4.61864H45.5293H42.841L42.4412 5.01887ZM51.3423 25.9158C51.3423 39.905 51.3362 40.242 51.0719 40.7606C50.9231 41.0524 50.6 41.4351 50.3538 41.6109L49.9061 41.9305L41.3234 41.9678L32.7406 42.005V36.7304V31.4558H33.7462C34.5639 31.4558 34.8386 31.3977 35.2165 31.145C36.212 30.4793 36.457 29.0966 35.7692 28.0253C34.8058 26.5243 28.2994 18.079 27.9224 17.84C27.3637 17.486 26.3528 17.4869 25.7923 17.8424C25.4269 18.0739 18.1519 27.5891 17.7141 28.4079C17.4835 28.8392 17.5253 29.8148 17.7979 30.3577C18.1958 31.1506 18.8001 31.4558 19.9721 31.4558H20.9777V36.7304V42.005L12.3843 41.9678L3.79066 41.9305L3.3077 41.5616C2.31264 40.8017 2.37597 41.8651 2.37597 25.9239V11.6018H26.8591H51.3423V25.9158ZM30.3446 24.6096L33.708 29.0596L32.7797 29.093C31.4315 29.1418 30.995 29.2415 30.6884 29.571C30.421 29.8583 30.4154 30.0599 30.4154 39.4233V48.9821H26.8591H23.3029V39.4212V29.8605L22.9502 29.5285C22.6386 29.2352 22.4485 29.1911 21.3181 29.1495L20.0387 29.1023L23.4141 24.5964C25.2706 22.1183 26.8327 20.1061 26.8854 20.1252C26.9381 20.1441 28.4947 22.1621 30.3446 24.6096ZM38.9534 51.4409C39.6069 51.5927 40.0936 51.939 40.5064 52.5463L40.8178 53.0044L40.7799 59.6537L40.7421 66.303L40.4137 66.7641C40.233 67.0175 39.8329 67.3397 39.5246 67.4799C38.9914 67.7223 38.3718 67.7347 26.8591 67.7347C15.3464 67.7347 14.7268 67.7223 14.1937 67.4799C13.8854 67.3397 13.4853 67.0175 13.3046 66.7641L12.9762 66.303L12.9383 59.6537L12.9004 53.0044L13.2119 52.5463C13.6103 51.9601 14.1191 51.5849 14.7028 51.447C15.3515 51.2937 38.2943 51.2879 38.9534 51.4409ZM27.3673 55.1451C27.0869 55.3658 26.7726 56.1568 25.7759 59.1501C25.0928 61.2015 24.5339 63.0214 24.5339 63.1943C24.5339 63.6741 25.12 64.1807 25.6752 64.1807C26.5186 64.1807 26.6392 63.9599 27.9549 60.0074C28.6311 57.9756 29.1844 56.1686 29.1844 55.9918C29.1844 55.57 28.4769 54.8699 28.0507 54.8699C27.8671 54.8699 27.5594 54.9936 27.3673 55.1451ZM18.599 57.4234C15.5638 59.4467 15.5658 59.6209 18.6477 61.6942C20.4848 62.9299 20.8056 63.0997 21.1728 63.0293C21.404 62.985 21.7316 62.7912 21.901 62.5986C22.5244 61.8894 22.2465 61.3053 20.8301 60.3479C20.2342 59.9452 19.7481 59.5801 19.7499 59.5362C19.7515 59.4926 20.2461 59.1315 20.8489 58.734C22.2674 57.7984 22.5398 57.1183 21.795 56.3726C21.2503 55.8274 20.7423 55.9944 18.599 57.4234ZM31.9233 56.3726C31.1784 57.1183 31.4509 57.7984 32.8694 58.734C33.4722 59.1315 33.9668 59.4935 33.9684 59.5383C33.9702 59.5831 33.4836 59.9528 32.8871 60.3598C31.4642 61.3309 31.1961 61.8919 31.8173 62.5986C31.9867 62.7912 32.3142 62.985 32.5455 63.0293C32.9126 63.0997 33.2335 62.9299 35.0706 61.6942C38.1524 59.6209 38.1545 59.4467 35.1193 57.4234C32.976 55.9944 32.468 55.8274 31.9233 56.3726Z" fill="white"/>
</svg>
