<svg width="70" height="70" viewBox="0 0 70 70" fill="none" xmlns="http://www.w3.org/2000/svg">
<path fill-rule="evenodd" clip-rule="evenodd" d="M2.27114 0.177373C1.57861 0.395722 0.397448 1.61915 0.18509 2.33814C-0.0616968 3.17371 -0.0616968 26.1699 0.18509 27.0055C0.414098 27.7808 1.58299 28.95 2.35806 29.1791C2.68936 29.277 3.764 29.3507 4.85951 29.3507H6.78005L6.81857 44.143L6.85695 58.9351L7.38396 60.0015C8.01864 61.2861 8.83576 62.0862 10.1474 62.7078L11.09 63.1545L18.5331 63.1958L25.9762 63.2368V65.4893V67.7417H22.5898H19.2034V68.8708V70H33.8779H48.5525V68.8708V67.7417H45.1661H41.7796V65.4893V63.2368L49.2304 63.1958L56.6811 63.1545L57.747 62.6274C59.031 61.9925 59.8311 61.175 60.4523 59.8631L60.8989 58.9202L60.9394 50.3461L60.9798 41.7719L61.5037 41.9908C62.2524 42.3037 63.4948 42.2769 64.2769 41.9308C65.1093 41.5624 66.4047 40.2666 66.773 39.434C67.1239 38.6403 67.1447 37.4062 66.8201 36.6293C66.3838 35.5849 66.7545 34.8154 68.0182 34.1415C69.441 33.383 70 32.3521 70 30.4872C70 28.5921 69.3813 27.4988 67.8771 26.7363C66.7688 26.1746 66.3994 25.3308 66.8238 24.3304C67.1459 23.5708 67.1308 22.3338 66.7901 21.5695C66.4068 20.7096 65.3675 19.6053 64.4943 19.13C63.604 18.6453 62.3751 18.5819 61.4281 18.972C60.4209 19.3868 59.6311 19.0364 59.0679 17.9245C58.3056 16.4199 57.2127 15.801 55.3181 15.801C53.4537 15.801 52.4231 16.3602 51.6648 17.7833C50.9785 19.0711 50.2761 19.4012 49.1461 18.9668C47.825 18.4588 46.3458 18.7743 45.2022 19.8076L44.6381 20.3175H41.5156H38.3932V11.6183C38.3932 5.30596 38.3472 2.76538 38.2254 2.35903C38.1331 2.05105 37.7832 1.49368 37.4477 1.12035C36.3598 -0.0900937 37.6933 -0.00907731 19.143 0.00729532C7.63315 0.0174576 2.61825 0.0679869 2.27114 0.177373ZM35.7892 2.5977C36.1356 2.94407 36.1356 2.94449 36.1356 5.98514V9.02607H19.2034H2.27114V5.98514C2.27114 2.94449 2.27114 2.94407 2.61754 2.5977L2.96381 2.25119H19.2034H35.4429L35.7892 2.5977ZM4.52877 5.63863V6.76778H5.65758H6.7864V5.63863V4.50949H5.65758H4.52877V5.63863ZM9.04403 5.63863V6.76778H10.1728H11.3017V5.63863V4.50949H10.1728H9.04403V5.63863ZM13.5593 5.63863V6.76778H14.6881H15.8169V5.63863V4.50949H14.6881H13.5593V5.63863ZM36.1356 18.8419V26.3996L35.7892 26.7459L35.4429 27.0924H19.2034H2.96381L2.61754 26.7459L2.27114 26.3996V18.8419V11.2844H19.2034H36.1356V18.8419ZM4.52877 14.6718V15.801H6.7864H9.04403V14.6718V13.5427H6.7864H4.52877V14.6718ZM11.3017 14.6718V15.801H16.9457H22.5898V14.6718V13.5427H16.9457H11.3017V14.6718ZM24.8474 19.1884V24.8341H29.3627H33.8779V19.1884V13.5427H29.3627H24.8474V19.1884ZM31.6203 19.1884V22.5758H29.3627H27.1051V19.1884V15.801H29.3627H31.6203V19.1884ZM4.52877 19.1884V20.3175H13.5593H22.5898V19.1884V18.0592H13.5593H4.52877V19.1884ZM56.5633 18.2784C56.7353 18.3991 57.0124 18.8146 57.1791 19.2021C57.5485 20.0609 58.3186 20.7465 59.3639 21.1466C60.3389 21.5198 61.0341 21.5256 62.0476 21.1693C62.7403 20.9259 62.8904 20.9151 63.2788 21.082C63.8048 21.3078 64.5683 22.082 64.7523 22.5758C64.847 22.8298 64.8124 23.1465 64.6292 23.705C64.2892 24.7417 64.2954 25.4978 64.6517 26.4291C65.0552 27.4837 65.6267 28.1322 66.5513 28.5847C67.579 29.0876 67.7424 29.3476 67.7424 30.4799C67.7424 31.6117 67.5489 31.9257 66.5999 32.3341C65.7413 32.7036 65.0559 33.4739 64.6559 34.5195C64.2955 35.4617 64.2882 36.2149 64.6292 37.2547C64.9323 38.1789 64.8491 38.5023 64.113 39.2603C63.3963 39.9981 63.0372 40.0916 62.0982 39.785C61.0575 39.4453 60.3048 39.4531 59.3639 39.8131C58.3186 40.2132 57.5485 40.8988 57.1791 41.7576C56.7709 42.707 56.4569 42.9005 55.3254 42.9005C54.1939 42.9005 53.88 42.707 53.4718 41.7576C53.1024 40.8988 52.3322 40.2132 51.2869 39.8131C50.3451 39.4526 49.592 39.4453 48.5525 39.7864C47.9942 39.9696 47.6776 40.0042 47.4237 39.9095C46.93 39.7255 46.1561 38.9617 45.9303 38.4355C45.7627 38.0451 45.7747 37.896 46.0326 37.1653C46.3964 36.1346 46.3275 35.2051 45.8057 34.1019C45.3937 33.2307 44.8329 32.6865 43.9364 32.2879C43.0995 31.916 42.9085 31.5798 42.9085 30.4799C42.9085 29.3476 43.0719 29.0876 44.0995 28.5847C45.0241 28.1322 45.5956 27.4837 45.9991 26.4291C46.368 25.4648 46.3728 24.7667 46.0176 23.7557C45.7742 23.0628 45.7635 22.9126 45.9303 22.5242C46.1561 21.998 46.93 21.2343 47.4237 21.0502C47.6776 20.9555 47.9942 20.9901 48.5525 21.1733C49.5889 21.5135 50.3448 21.5072 51.2758 21.1509C52.3301 20.7472 52.9785 20.1756 53.4308 19.2506C53.6404 18.8223 53.9442 18.3789 54.1062 18.2655C54.5139 17.9798 56.1493 17.9884 56.5633 18.2784ZM4.52877 23.705V24.8341H7.91521H11.3017V23.705V22.5758H7.91521H4.52877V23.705ZM13.5593 23.705V24.8341H14.6881H15.8169V23.705V22.5758H14.6881H13.5593V23.705ZM18.0745 23.705V24.8341H20.3322H22.5898V23.705V22.5758H20.3322H18.0745V23.705ZM43.614 23.1938C43.614 23.5336 43.7101 24.0418 43.8275 24.3229L44.0411 24.8341H41.2171H38.3932V23.705V22.5758H41.0036H43.614V23.1938ZM53.7027 22.74C52.428 22.9796 50.8213 23.8715 49.7702 24.923C45.5514 29.1431 47.3018 36.1099 53.0678 38.0483C54.1457 38.4106 56.5086 38.41 57.583 38.047C60.1913 37.1658 62.0176 35.3394 62.8916 32.7382C63.2538 31.66 63.2532 29.2964 62.8903 28.2216C62.1449 26.0135 60.7317 24.3554 58.8091 23.4323C57.1187 22.6207 55.5026 22.4017 53.7027 22.74ZM57.6436 25.3733C58.9167 25.9693 59.7405 26.7798 60.3719 28.0578C60.8699 29.0656 60.8989 29.199 60.8989 30.4799C60.8989 31.7607 60.8699 31.8941 60.3719 32.9019C59.7372 34.1866 58.9203 34.9867 57.6084 35.6083C56.756 36.0123 56.5376 36.055 55.3254 36.055C54.1132 36.055 53.8948 36.0123 53.0424 35.6083C51.7306 34.9867 50.9136 34.1866 50.2789 32.9019C49.7815 31.8953 49.7519 31.7596 49.7519 30.4872C49.7519 29.2663 49.7941 29.0499 50.1985 28.1962C50.7654 26.999 51.5727 26.1226 52.6256 25.5613C53.737 24.9688 54.3452 24.8347 55.6428 24.8965C56.4896 24.9369 56.9407 25.0443 57.6436 25.3733ZM41.558 27.6073C40.9277 28.2955 40.6508 29.1722 40.6508 30.4799C40.6508 32.3671 41.2718 33.4621 42.7737 34.2234C43.8842 34.7863 44.235 35.5756 43.8229 36.5843C43.4966 37.3833 43.5128 38.6096 43.8599 39.3883C44.2639 40.2945 45.3429 41.4168 46.226 41.849C47.1335 42.293 48.3173 42.3468 49.1751 41.9828C50.2278 41.5359 50.9848 41.9005 51.6685 43.1833C52.152 44.091 52.7619 44.6442 53.5973 44.9335L54.126 45.1164L54.1639 48.525L54.2017 51.9337H33.8805H13.5593V40.6422V29.3507H24.5136C32.5015 29.3507 35.6179 29.3058 36.0217 29.1847C36.698 28.982 37.7271 28.1022 37.9679 27.5207L38.1453 27.0924H40.0873H42.0294L41.558 27.6073ZM54.1966 27.2769C53.5041 27.4952 52.3229 28.7187 52.1106 29.4377C51.7197 30.761 51.9953 31.8161 52.9924 32.8135C54.42 34.2415 56.2309 34.2415 57.6584 32.8135C59.0372 31.4343 59.0784 29.6797 57.7663 28.2199C56.8531 27.2039 55.5338 26.8553 54.1966 27.2769ZM11.3345 41.0553C11.3718 52.6271 11.3754 52.7643 11.6632 53.1496C11.8232 53.364 12.1294 53.6703 12.3437 53.8303C12.7266 54.1164 12.9067 54.1225 22.9881 54.1919C29.2298 54.2349 33.0533 54.3106 32.7583 54.3853C32.0886 54.555 30.8828 55.7935 30.6631 56.5372C30.2724 57.8601 30.5478 58.9149 31.545 59.9146C31.9357 60.3061 32.4775 60.6967 32.7491 60.7823C33.498 61.0185 12.1873 61.0313 11.3886 60.7952C10.6135 60.5661 9.44461 59.3969 9.21561 58.6216C9.08579 58.1822 9.04403 54.5459 9.04403 43.6957V29.3507H10.1704H11.2969L11.3345 41.0553ZM56.1078 29.6972C56.8078 30.3973 56.3119 31.609 55.3254 31.609C54.7453 31.609 54.1966 31.0601 54.1966 30.4799C54.1966 29.8996 54.7453 29.3507 55.3254 29.3507C55.6003 29.3507 55.8895 29.4787 56.1078 29.6972ZM15.8169 32.7382V33.8673H27.1051H38.3932V32.7382V31.609H27.1051H15.8169V32.7382ZM15.8169 37.2547V38.3839H27.1051H38.3932V37.2547V36.1256H27.1051H15.8169V37.2547ZM15.7763 40.6117C15.4107 40.9832 15.1114 41.3475 15.1114 41.4213C15.1114 41.4953 15.9201 42.3664 16.9085 43.3572L18.7054 45.1588L16.8749 46.9939L15.0444 48.8291L15.8544 49.6394L16.6647 50.4497L19.3088 47.8046L21.953 45.1598L19.3449 42.548C17.9106 41.1118 16.6704 39.9365 16.5892 39.9365C16.5077 39.9365 16.142 40.2403 15.7763 40.6117ZM58.548 58.5674C58.3228 59.3929 57.1874 60.5529 56.3673 60.7952C55.5685 61.0313 34.2579 61.0185 35.0068 60.7823C35.6993 60.564 36.8804 59.3406 37.0928 58.6216C37.4635 57.3668 37.2151 56.3164 36.3097 55.3091C35.8941 54.8467 35.4968 54.5613 35.1017 54.4413C34.6096 54.2919 36.1965 54.2509 44.7678 54.1919C54.8492 54.1225 55.0292 54.1164 55.4122 53.8303C56.3851 53.1037 56.3766 53.1434 56.4542 48.9359L56.5248 45.1113L57.0968 44.9208C57.4115 44.8159 57.8877 44.525 58.1551 44.2741L58.6413 43.8179L58.6814 50.8751C58.7112 56.1239 58.677 58.095 58.548 58.5674ZM22.5898 48.5462V49.6754H27.1051H31.6203V48.5462V47.4171H27.1051H22.5898V48.5462ZM34.6604 56.7967C35.3604 57.4968 34.8644 58.7085 33.8779 58.7085C33.2979 58.7085 32.7491 58.1596 32.7491 57.5794C32.7491 56.9991 33.2979 56.4502 33.8779 56.4502C34.1528 56.4502 34.4421 56.5783 34.6604 56.7967ZM39.522 65.4834V67.7417H33.8779H28.2339V65.4834V63.2251H33.8779H39.522V65.4834Z" fill="white"/>
</svg>
