<svg width="70" height="70" viewBox="0 0 70 70" fill="none" xmlns="http://www.w3.org/2000/svg">
<path fill-rule="evenodd" clip-rule="evenodd" d="M0.335645 0.335645L0 0.671152V35V69.3288L0.335645 69.6644L0.671152 70H35H69.3288L69.6644 69.6644L70 69.3288V35V0.671152L69.6644 0.335645L69.3288 0H35H0.671152L0.335645 0.335645ZM67.8125 35V67.8125H35H2.1875V35V2.1875H35H67.8125V35ZM7.01654 4.34738C5.56582 4.86459 4.7116 5.76461 4.28777 7.22244C3.89416 8.57637 4.37076 10.1295 5.48816 11.134C7.48029 12.9251 10.4904 12.3767 11.7216 9.99852C12.5059 8.4834 12.2821 6.76498 11.134 5.48816C10.0877 4.32428 8.39617 3.85561 7.01654 4.34738ZM60.9402 4.24279C60.0876 4.45607 59.3997 4.8758 58.816 5.53902C57.488 7.04758 57.4988 9.30508 58.8417 10.8954C59.0443 11.1355 59.5867 11.5199 60.0469 11.7499C61.5468 12.4995 63.2553 12.2638 64.5118 11.134C66.6404 9.22031 66.0978 5.74916 63.483 4.55205C62.6661 4.17799 61.679 4.05795 60.9402 4.24279ZM8.88139 6.50795C9.66014 6.81953 10.0334 7.46812 9.94752 8.36131C9.85783 9.29469 9.32381 9.84348 8.40438 9.94711C7.53102 10.0455 6.93328 9.72084 6.55703 8.94373C5.96654 7.72393 6.77045 6.40377 8.16621 6.30137C8.25863 6.29467 8.58047 6.3875 8.88139 6.50795ZM62.3692 6.43057C63.4372 6.72725 63.943 7.91096 63.443 8.94373C63.0667 9.72084 62.469 10.0455 61.5956 9.94711C60.6992 9.84607 60.1539 9.30084 60.0529 8.40438C59.9561 7.54523 60.2781 6.93957 61.0296 6.56756C61.6783 6.24641 61.6987 6.24436 62.3692 6.43057ZM27.6653 10.5264C27.2178 10.707 27.1443 10.9096 27.0703 12.168L27.002 13.3301L25.8398 13.3644C25.2007 13.3833 24.5405 13.4303 24.3726 13.4688C23.8746 13.5836 23.6523 14.2092 23.6523 15.4968V16.6517L22.4782 16.6998C21.4402 16.7424 21.2736 16.7855 21.0427 17.0708C20.6559 17.5484 20.7009 18.2372 21.1415 18.5838C21.4365 18.8159 21.6962 18.8672 22.5771 18.8672H23.6523V19.4824V20.0977H22.6885C21.681 20.0977 21.0179 20.3238 20.8662 20.719C20.6918 21.1732 20.7874 21.6963 21.0976 21.9879C21.3694 22.2432 21.5723 22.2852 22.5332 22.2852H23.6523V22.9004V23.5156H22.8653C21.9028 23.5156 21.2216 23.6986 20.9754 24.0231C20.6812 24.4109 20.7396 25.0693 21.0976 25.4059C21.3694 25.6612 21.5723 25.7031 22.5332 25.7031H23.6523V26.3867V27.0703H22.514C21.5011 27.0703 21.343 27.1052 21.0785 27.3867C20.7856 27.6985 20.6999 28.2032 20.8662 28.6364C21.0179 29.0317 21.681 29.2578 22.6885 29.2578H23.6523V29.873V30.4883H22.5771C21.6962 30.4883 21.4365 30.5396 21.1415 30.7717C20.7009 31.1183 20.6559 31.8071 21.0427 32.2846C21.2736 32.57 21.4402 32.613 22.4782 32.6557L23.6523 32.7038V33.8587C23.6523 35.1463 23.8746 35.7719 24.3726 35.8866C24.5405 35.9252 25.2007 35.9722 25.8398 35.9911L27.002 36.0254L27.0703 37.2174C27.1454 38.5254 27.274 38.7663 27.9727 38.9061C28.3005 38.9717 28.4804 38.9148 28.7912 38.6475C29.1642 38.3266 29.1925 38.2305 29.2377 37.131L29.2858 35.957H29.8871H30.4883V37.0396C30.4883 38.3359 30.5428 38.5052 31.045 38.7648C31.6008 39.0522 31.8255 39.0157 32.2762 38.5652C32.6519 38.1895 32.6758 38.0996 32.6758 37.0613V35.957H33.291H33.9062V36.976C33.9062 38.1747 34.0717 38.6135 34.6076 38.8355C35.1116 39.0443 35.7201 38.8151 35.9393 38.3339C36.0243 38.1475 36.0938 37.5364 36.0938 36.976V35.957H36.709H37.3242V37.0613C37.3242 38.0996 37.3481 38.1895 37.7238 38.5652C38.1745 39.0157 38.3992 39.0522 38.955 38.7648C39.4572 38.5052 39.5117 38.3359 39.5117 37.0396V35.957H40.1129H40.7142L40.7623 37.131C40.8075 38.2305 40.8358 38.3266 41.2088 38.6475C41.5196 38.9148 41.6995 38.9717 42.0273 38.9061C42.726 38.7663 42.8546 38.5254 42.9297 37.2174L42.998 36.0254L44.1602 35.9911C44.7993 35.9722 45.4595 35.9252 45.6274 35.8866C46.1254 35.7719 46.3477 35.1463 46.3477 33.8587V32.7038L47.5218 32.6557C48.5598 32.613 48.7264 32.57 48.9573 32.2846C49.3441 31.8071 49.2991 31.1183 48.8585 30.7717C48.5635 30.5396 48.3038 30.4883 47.423 30.4883H46.3477V29.873V29.2578H47.3115C48.319 29.2578 48.9821 29.0317 49.1338 28.6364C49.3082 28.1822 49.2126 27.6592 48.9024 27.3675C48.6306 27.1123 48.4277 27.0703 47.4668 27.0703H46.3477V26.3867V25.7031H47.486C48.4989 25.7031 48.657 25.6683 48.9215 25.3868C49.2573 25.0292 49.3054 24.3934 49.0246 24.0231C48.7784 23.6986 48.0972 23.5156 47.1347 23.5156H46.3477V22.9004V22.2852H47.486C48.4989 22.2852 48.657 22.2503 48.9215 21.9688C49.2144 21.6569 49.3001 21.1523 49.1338 20.719C48.9821 20.3238 48.319 20.0977 47.3115 20.0977H46.3477V19.4824V18.8672H47.4476C48.4332 18.8672 48.5825 18.8323 48.8831 18.5315C49.2905 18.1243 49.3213 17.5201 48.9573 17.0708C48.7264 16.7855 48.5598 16.7424 47.5218 16.6998L46.3477 16.6517V15.4968C46.3477 14.2092 46.1254 13.5836 45.6274 13.4688C45.4595 13.4303 44.7993 13.3833 44.1602 13.3644L42.998 13.3301L42.9297 12.138C42.8546 10.83 42.726 10.5891 42.0273 10.4494C41.6995 10.3838 41.5196 10.4407 41.2088 10.7079C40.8358 11.0288 40.8075 11.1249 40.7623 12.2244L40.7142 13.3984H40.1129H39.5117V12.3159C39.5117 11.0195 39.4572 10.8503 38.955 10.5906C38.3992 10.3033 38.1745 10.3398 37.7238 10.7903C37.3481 11.166 37.3242 11.2559 37.3242 12.2942V13.3984H36.709H36.0938V12.3795C36.0938 11.8191 36.0243 11.2079 35.9393 11.0216C35.7201 10.5403 35.1116 10.3112 34.6076 10.52C34.0717 10.742 33.9062 11.1807 33.9062 12.3795V13.3984H33.291H32.6758V12.2942C32.6758 11.2559 32.6519 11.166 32.2762 10.7903C31.8255 10.3398 31.6008 10.3033 31.045 10.5906C30.5428 10.8503 30.4883 11.0195 30.4883 12.3159V13.3984H29.8871H29.2858L29.2377 12.2244C29.193 11.136 29.1616 11.0265 28.8058 10.7205C28.4028 10.3738 28.1501 10.3309 27.6653 10.5264ZM44.1602 24.6777V33.7695H35H25.8398V24.6777V15.5859H35H44.1602V24.6777ZM10.0427 18.7927L9.70703 19.1282V25.8398V32.5515L10.0427 32.887C10.2542 33.0987 10.5345 33.2227 10.8008 33.2227C11.0671 33.2227 11.3474 33.0987 11.5589 32.887L11.8945 32.5515V25.8398V19.1282L11.5589 18.7927C11.3474 18.581 11.0671 18.457 10.8008 18.457C10.5345 18.457 10.2542 18.581 10.0427 18.7927ZM14.281 18.7927L13.9453 19.1282V25.8398V32.5515L14.281 32.887C14.4925 33.0987 14.7727 33.2227 15.0391 33.2227C15.3054 33.2227 15.5857 33.0987 15.7972 32.887L16.1328 32.5515V25.8398V19.1282L15.7972 18.7927C15.5857 18.581 15.3054 18.457 15.0391 18.457C14.7727 18.457 14.4925 18.581 14.281 18.7927ZM54.2028 18.7927L53.8672 19.1282V25.8398V32.5515L54.2028 32.887C54.4143 33.0987 54.6946 33.2227 54.9609 33.2227C55.2273 33.2227 55.5075 33.0987 55.719 32.887L56.0547 32.5515V25.8398V19.1282L55.719 18.7927C55.5075 18.581 55.2273 18.457 54.9609 18.457C54.6946 18.457 54.4143 18.581 54.2028 18.7927ZM58.4411 18.7927L58.1055 19.1282V25.8398V32.5515L58.4411 32.887C58.6526 33.0987 58.9329 33.2227 59.1992 33.2227C59.4655 33.2227 59.7458 33.0987 59.9573 32.887L60.293 32.5515V25.8398V19.1282L59.9573 18.7927C59.7458 18.581 59.4655 18.457 59.1992 18.457C58.9329 18.457 58.6526 18.581 58.4411 18.7927ZM52.5622 39.1638C52.2862 39.4397 52.2266 39.6346 52.2266 40.2604C52.2266 40.9302 52.1873 41.0393 51.8998 41.1704C51.72 41.2523 51.4943 41.4663 51.3982 41.6459C51.2471 41.9282 51.1234 41.9727 50.4883 41.9727C49.6005 41.9727 49.082 42.3758 49.082 43.0664C49.082 43.7645 49.5991 44.1602 50.5114 44.1602H51.2695V44.7754V45.3906H50.6475C49.9621 45.3906 49.2986 45.6691 49.1669 46.012C48.9964 46.4565 49.0897 46.9146 49.4177 47.2425C49.6932 47.5181 49.8887 47.5781 50.5114 47.5781H51.2695V48.1934V48.8086H50.7315C49.6725 48.8086 49.0942 49.2207 49.0864 49.9811C49.0794 50.6469 49.5556 50.9961 50.4703 50.9961C51.1446 50.9961 51.2425 51.033 51.3823 51.3399C51.4685 51.529 51.6936 51.7542 51.8827 51.8403C52.1912 51.9809 52.2266 52.0769 52.2266 52.7715C52.2266 53.6841 52.5778 54.1406 53.2798 54.1406C54.0001 54.1406 54.3166 53.7554 54.3862 52.7938L54.4469 51.9531H55.0457H55.6445V52.6866C55.6445 53.6728 55.9964 54.1406 56.7383 54.1406C57.4801 54.1406 57.832 53.6728 57.832 52.6866V51.9531H58.4473H59.0625V52.7112C59.0625 53.6519 59.4543 54.1406 60.2085 54.1406C60.8877 54.1406 61.25 53.6426 61.25 52.7086C61.25 52.0811 61.2906 51.9786 61.5938 51.8403C61.7829 51.7542 62.0081 51.529 62.0942 51.3399C62.2352 51.0305 62.3298 50.9961 63.0394 50.9961C63.7283 50.9961 63.8635 50.9506 64.1111 50.6358C64.7767 49.7898 64.2346 48.9429 62.9601 48.8372L62.207 48.7747V48.1764V47.5781H62.9651C63.5879 47.5781 63.7834 47.5181 64.0589 47.2425C64.259 47.0425 64.3928 46.7526 64.3902 46.5247C64.382 45.8021 63.8163 45.3906 62.8313 45.3906H62.207V44.7754V44.1602H62.9651C63.8775 44.1602 64.3945 43.7645 64.3945 43.0664C64.3945 42.3912 63.8738 41.9727 63.0335 41.9727C62.411 41.9727 62.2904 41.9193 61.7969 41.4258C61.3115 40.9404 61.25 40.8055 61.25 40.2258C61.25 39.8665 61.1591 39.4428 61.0481 39.2844C60.6212 38.6747 59.5267 38.7792 59.217 39.4591C59.132 39.6454 59.0625 40.072 59.0625 40.4068V41.0156H58.4473H57.832V40.4068C57.832 40.072 57.7626 39.6454 57.6775 39.4591C57.3679 38.7792 56.2733 38.6747 55.8465 39.2844C55.7303 39.4501 55.6445 39.8791 55.6445 40.2942V41.0156H55.0293H54.4141V40.3215C54.4141 39.7366 54.3512 39.5645 54.0144 39.2278C53.5213 38.7346 53.0137 38.7122 52.5622 39.1638ZM60.0195 46.4844V49.7656H56.7383H53.457V46.4844V43.2031H56.7383H60.0195V46.4844ZM8.7001 44.9904C8.19123 45.3906 8.19123 46.2109 8.7001 46.6111L9.06035 46.8945H27.9152H46.7703L47.1058 46.5589C47.5498 46.115 47.5498 45.4866 47.1058 45.0427L46.7703 44.707H27.9152H9.06035L8.7001 44.9904ZM8.7001 49.2287C8.19123 49.6289 8.19123 50.4492 8.7001 50.8494L9.06035 51.1328H27.9152H46.7703L47.1058 50.7972C47.5498 50.3532 47.5498 49.7249 47.1058 49.281L46.7703 48.9453H27.9152H9.06035L8.7001 49.2287ZM6.73682 58.0513C6.41908 58.1677 5.85826 58.5331 5.49062 58.8637C2.77389 61.3062 4.53824 65.8261 8.20312 65.8124C11.6915 65.7996 13.4444 61.7144 11.1048 59.0499C10.4438 58.297 9.53941 57.9121 8.33984 57.8733C7.6784 57.8519 7.10938 57.915 6.73682 58.0513ZM60.0469 58.2501C59.5867 58.4801 59.0443 58.8645 58.8417 59.1046C57.4781 60.7195 57.4882 62.9795 58.866 64.5118C60.7968 66.6594 64.2471 66.0985 65.4698 63.4383C67.0235 60.0579 63.3884 56.5804 60.0469 58.2501ZM9.45793 60.5276C9.76691 60.8367 9.89242 61.1107 9.94711 61.5956C10.0455 62.469 9.72084 63.0667 8.94373 63.443C7.37748 64.2012 5.79428 62.6317 6.55033 61.0702C6.93834 60.2688 7.41139 59.9983 8.3151 60.0612C8.90531 60.1024 9.12051 60.1902 9.45793 60.5276ZM62.7699 60.2558C63.3348 60.5895 63.7528 61.5035 63.6327 62.1429C63.5102 62.7957 62.7957 63.5102 62.1429 63.6327C61.4648 63.76 60.5568 63.3202 60.2247 62.7036C59.7496 61.8213 60.1702 60.5117 61.0449 60.15C61.5114 59.9571 62.3513 60.0086 62.7699 60.2558Z" fill="white"/>
</svg>
