<svg width="70" height="70" viewBox="0 0 70 70" fill="none" xmlns="http://www.w3.org/2000/svg">
<path fill-rule="evenodd" clip-rule="evenodd" d="M15.7867 0.532628C15.1532 0.825757 14.7029 1.2767 14.4954 1.82605C14.4149 2.03903 14.3493 3.16324 14.3493 4.33054V6.44872H12.3827C10.6003 6.44872 10.3823 6.47535 10.0553 6.73321C9.58933 7.10058 9.55989 7.82174 9.99428 8.2274C10.2678 8.48292 10.4702 8.50721 12.3216 8.50721H14.3493V17.1529V25.7985H13.1725C11.7705 25.7985 11.3247 26.0038 10.9238 26.8338C10.6654 27.369 10.6529 27.6989 10.6529 34.0325C10.6529 40.366 10.6654 40.6959 10.9238 41.2311C11.3247 42.0611 11.7705 42.2664 13.1725 42.2664H14.3493V43.9818V45.6972H8.18868H2.02808V27.5034V9.30947L2.42825 8.90834C2.82663 8.509 2.83594 8.50721 4.49082 8.50721C5.40505 8.50721 6.2752 8.44175 6.42456 8.36161C7.08114 8.00933 7.0194 6.92094 6.32476 6.6038C5.8226 6.37434 3.03637 6.40783 2.21222 6.6532C1.47418 6.87291 0.685484 7.53533 0.282855 8.27351C0.057514 8.68644 0.040812 10.0712 0.00713404 31.1299C-0.0164131 45.888 0.0184969 53.7225 0.1094 54.0609C0.335288 54.9017 1.00433 55.6972 1.79672 56.0671L2.50724 56.3986L14.7942 56.4L27.0812 56.4014V58.7343V61.0673L24.925 61.0681C23.7391 61.0685 22.5504 61.1296 22.2836 61.204C21.7331 61.3573 21.0082 62.0455 20.792 62.6201C20.6026 63.124 20.6026 67.3818 20.792 67.8857C21.0082 68.4603 21.7331 69.1485 22.2836 69.3018C22.9415 69.4851 47.1015 69.4851 47.7594 69.3018C48.3099 69.1485 49.0348 68.4603 49.251 67.8857C49.3317 67.6706 49.3962 66.5029 49.3962 65.2529C49.3962 64.0028 49.3317 62.8351 49.251 62.6201C49.0348 62.0455 48.3099 61.3573 47.7594 61.204C47.4926 61.1296 46.304 61.0685 45.118 61.0681L42.9618 61.0673V58.7343V56.4014H50.703L62.58 56.3754V55.7726C62.58 55.0695 62.58 55.4393 62.58 54.8793V54.3418H30.55C15.1265 54.3034 2.49341 54.2571 2.47657 54.2389C2.4596 54.2206 2.35186 54.0234 2.237 53.8008C2.06956 53.4764 2.02808 52.8353 2.02808 50.5759V47.7557H15.1707H28.3133V49.279V50.8023L28.7788 51.2689L29.2442 51.7355H35.0215H40.7988L41.2642 51.2689L41.7297 50.8023V49.279V47.7557H54.8723H68.0149V50.5759C68.0149 53.5117 67.9233 54.0535 67.3927 54.2577C67.2709 54.3045 66.1261 54.3429 64.8488 54.3429C62.5655 54.3429 63.42 54.3418 62.58 54.3418C62.58 54.7393 62.58 55.1593 62.58 55.7193C62.58 55.9993 62.58 55.9993 62.58 56.3754C63.167 56.3754 62.6384 56.3754 65.24 56.3754H67.8606L68.74 55.8593C69.16 55.4393 69.3292 55.2462 69.5857 54.8303L70 54.1586V31.4358C70 10.0461 69.9859 8.68726 69.7601 8.27351C69.3575 7.53533 68.5688 6.87291 67.8308 6.6532C67.2981 6.4947 66.3343 6.44872 63.5407 6.44872H59.9377V5.85149C59.9377 5.11441 59.5048 4.41658 58.8397 4.08174C58.4837 3.90237 58.026 3.84172 57.0285 3.84158L55.6937 3.84131V3.02683C55.6937 1.70103 55.2981 1.01459 54.2563 0.532628C53.7323 0.290275 52.9004 0.279297 35.0215 0.279297C17.1426 0.279297 16.3107 0.290275 15.7867 0.532628ZM53.6064 24.0488L53.641 45.6972H35.0219H16.4028V43.9818V42.2664H31.3888H46.3748L46.8555 41.8435C47.125 41.6062 47.3973 41.1994 47.4755 40.9172C47.6635 40.2388 47.6635 27.8261 47.4755 27.1478C47.2778 26.4343 46.5169 25.7985 45.8605 25.7985C45.4346 25.7985 45.2459 25.6961 44.7626 25.2025L44.179 24.6064L44.4067 24.036L44.6344 23.4656H45.9948C47.2566 23.4656 47.3795 23.4411 47.6911 23.1287C48.0242 22.7948 48.0272 22.7691 48.0272 20.197V17.602L47.6663 17.2401C47.3256 16.8987 47.2303 16.8784 45.9698 16.8784H44.6344L44.4063 16.3068L44.1781 15.7353L44.9919 14.9002C45.9564 13.9106 46.157 13.5598 46.0464 13.0554C45.9519 12.6239 42.6574 9.27242 42.1927 9.13491C41.7196 8.99494 41.1643 9.29534 40.2806 10.1694L39.4475 10.9933L38.8774 10.7646L38.3072 10.5359V9.19722C38.3072 7.93372 38.2869 7.8382 37.9463 7.49663L37.5853 7.13489H35.0215H32.4577L32.0967 7.49663C31.7564 7.83793 31.7359 7.93427 31.7359 9.19118V10.524L31.1817 10.7746L30.6275 11.025L29.7784 10.1853C28.8768 9.29356 28.3508 9.00701 27.848 9.13354C27.6777 9.17636 26.7438 10.0096 25.7728 10.9852C24.0984 12.6674 24.007 12.7875 24.007 13.3087C24.007 13.8037 24.0992 13.9512 24.9361 14.7966L25.8651 15.735L25.6369 16.3067L25.4086 16.8784H24.0732C22.8127 16.8784 22.7174 16.8987 22.3767 17.2401L22.0158 17.602V20.197C22.0158 22.7691 22.0188 22.7948 22.3519 23.1287C22.6633 23.441 22.7868 23.4656 24.0424 23.4656H25.3969L25.6232 24.0433L25.8496 24.6211L25.2732 25.2098L24.6969 25.7985H20.5499H16.4028V14.1567C16.4028 7.75353 16.4442 2.47337 16.4945 2.42273C16.545 2.37209 24.908 2.34643 35.079 2.36551L53.5717 2.40036L53.6064 24.0488ZM57.8779 9.50215L57.8717 13.1045L56.9691 13.7907C56.4727 14.1681 55.9827 14.5262 55.8802 14.5866C55.7244 14.6783 55.6937 13.9713 55.6937 10.2981V5.89979H56.7889H57.8842L57.8779 9.50215ZM67.6148 8.90834L68.0149 9.30947V27.5034V45.6972H61.8543H55.6937V31.5245V17.3517L57.6247 15.8623C59.0033 14.7991 59.6102 14.2419 59.7467 13.9147C59.8861 13.5802 59.9377 12.7885 59.9377 10.9818V8.50721H63.5761H67.2146L67.6148 8.90834ZM36.2536 10.1584C36.2536 11.518 36.4935 12.0184 37.31 12.3626C37.6701 12.5144 38.2553 12.7684 38.61 12.9269C39.6696 13.4004 40.0036 13.3165 41 12.3265L41.8693 11.4629L42.7851 12.3809L43.7008 13.2988L42.8385 14.1989C42.0109 15.0629 41.9789 15.1222 42.0395 15.6799C42.1166 16.3879 42.8737 18.2167 43.2459 18.5938C43.4678 18.8187 43.7386 18.8769 44.7453 18.9162L45.9737 18.9642V20.1856V21.4071L45.0496 21.4148C43.8981 21.4245 43.2267 21.6476 43.0081 22.0932C42.085 23.9751 41.7632 25.2217 42.1404 25.4554C42.6261 25.7564 41.7515 25.7985 35.0215 25.7985C28.2915 25.7985 27.4169 25.7564 27.9026 25.4554C28.2798 25.2217 27.958 23.9751 27.0349 22.0932C26.8163 21.6476 26.1449 21.4245 24.9934 21.4148L24.0693 21.4071V20.1856V18.9642L25.2978 18.9162C26.3044 18.8769 26.5752 18.8187 26.7971 18.5938C27.1693 18.2167 27.9264 16.3879 28.0035 15.6799C28.0641 15.1222 28.0321 15.0629 27.2045 14.1989L26.3422 13.2988L27.2579 12.3809L28.1737 11.4629L29.043 12.3265C30.0394 13.3165 30.3734 13.4004 31.433 12.9269C31.7877 12.7684 32.3729 12.5144 32.733 12.3626C33.5495 12.0184 33.7894 11.518 33.7894 10.1584V9.19338H35.0215H36.2536V10.1584ZM33.9263 16.0373C32.7437 16.4298 31.7453 17.2813 31.1702 18.388C30.9065 18.8954 30.8495 19.2134 30.8511 20.172C30.853 21.5428 31.1346 22.2565 32.032 23.165C32.9248 24.069 33.6482 24.3576 35.0215 24.3576C36.3948 24.3576 37.1182 24.069 38.011 23.165C38.9084 22.2565 39.19 21.5428 39.192 20.172C39.1935 19.2134 39.1365 18.8954 38.8728 18.388C38.1047 16.9097 36.8323 16.0649 35.2419 15.9773C34.7066 15.9478 34.1145 15.9747 33.9263 16.0373ZM36.2212 18.3429C36.9188 18.8651 37.1435 19.3107 37.1435 20.172C37.1435 20.7721 37.0711 21.0733 36.8571 21.3627C35.9133 22.6396 34.3199 22.722 33.332 21.5451C32.4386 20.4808 32.8456 18.7435 34.1248 18.1617C34.679 17.9097 35.768 18.0038 36.2212 18.3429ZM45.563 34.0325V40.2079H29.1347H12.7065V34.0325V27.857H29.1347H45.563V34.0325ZM19.6885 29.4949C18.4084 29.8867 17.2594 30.8848 16.6999 32.0909C16.1871 33.1963 16.184 34.8645 16.6929 35.9537C17.4316 37.5352 18.895 38.5568 20.5783 38.6664C21.7336 38.7416 22.4347 38.5691 23.295 37.9978C24.343 37.302 24.5998 36.3829 23.8863 35.882C23.4263 35.5589 22.8955 35.6363 22.3644 36.1039C21.526 36.8418 20.1939 36.8187 19.3218 36.051C18.3786 35.2209 18.094 34.0533 18.579 33.0032C19.2374 31.5778 20.8068 31.0112 22.1682 31.7075C22.8836 32.0733 23.4833 32.013 23.834 31.5399C24.3515 30.842 23.8844 30.1226 22.6012 29.6413C21.8474 29.3586 20.3756 29.2846 19.6885 29.4949ZM28.8953 29.6753C28.7374 29.8452 27.95 31.7217 27.1454 33.8454C25.7675 37.4824 25.6933 37.7295 25.8688 38.0965C26.0986 38.5773 26.664 38.8018 27.1839 38.6186C27.4653 38.5194 27.6356 38.2964 27.8591 37.7345L28.1576 36.983L29.6488 36.9444L31.1398 36.9058L31.4935 37.7276C31.7714 38.3733 31.9275 38.5697 32.2214 38.6436C32.7451 38.7754 33.2778 38.5528 33.4871 38.1147C33.6508 37.7723 33.5524 37.4421 32.221 33.8725C31.4236 31.7345 30.6441 29.8594 30.4798 29.684C30.0773 29.2546 29.2905 29.2503 28.8953 29.6753ZM35.3131 29.8554C35.0315 30.2142 35.0215 30.3572 35.0215 34.0325C35.0215 38.851 34.8839 38.5611 37.1718 38.5611C38.0422 38.5611 39.0081 38.4864 39.318 38.395C40.1485 38.1501 41.3404 36.9134 41.6722 35.9524C41.9761 35.0723 42.0197 33.19 41.7568 32.2955C41.4974 31.413 40.7758 30.4488 40.0299 29.9881C39.3795 29.5864 39.2938 29.5709 37.4808 29.5281L35.6047 29.4836L35.3131 29.8554ZM39.2367 31.9663C40.1926 32.9244 40.1715 35.073 39.1966 36.0502C38.7847 36.4631 38.6723 36.5027 37.9101 36.5027H37.075V34.0325V31.5623H37.9544C38.7451 31.5623 38.8743 31.6029 39.2367 31.9663ZM30.0101 33.7923C30.1504 34.1885 30.2947 34.59 30.3307 34.6843C30.3779 34.808 30.1971 34.8559 29.6823 34.8559C29.1676 34.8559 28.9867 34.808 29.034 34.6843C29.07 34.59 29.2143 34.1885 29.3546 33.7923C29.4949 33.3961 29.6423 33.0718 29.6823 33.0718C29.7223 33.0718 29.8697 33.3961 30.0101 33.7923ZM39.6762 48.7164V49.677H35.0215H30.3668V48.7164V47.7557H35.0215H39.6762V48.7164ZM40.9083 58.7343V61.0673H35.0215H29.1347V58.7343V56.4014H35.0215H40.9083V58.7343ZM47.2742 65.2529V67.3114H35.0215H22.7688L22.7304 65.3967C22.7095 64.3437 22.723 63.4016 22.7607 63.3032C22.8164 63.1576 25.1075 63.1309 35.0518 63.1594L47.2742 63.1944V65.2529Z" fill="white"/>
</svg>
