<svg width="70" height="70" viewBox="0 0 70 70" fill="none" xmlns="http://www.w3.org/2000/svg">
<path fill-rule="evenodd" clip-rule="evenodd" d="M9.39151 0.161474C4.46899 1.13356 0.972188 4.72421 0.136365 9.66478C-0.0573535 10.8097 0.0407048 12.8498 0.343627 13.9786C1.12273 16.8812 2.7553 19.1624 5.20012 20.7642C8.87808 23.174 13.9883 23.1388 17.5164 20.6795L18.4213 20.0487L21.1321 22.7554L23.8431 25.462L23.5149 25.8923C21.8971 28.0132 20.7893 30.6077 20.5 32.9527L20.3956 33.7992L18.1035 33.838L15.8112 33.8768V31.9497C15.8112 29.6577 15.6763 29.126 14.8657 28.2246C13.8707 27.1179 13.7454 27.0976 7.93658 27.0976C4.4213 27.0976 2.76136 27.1486 2.35333 27.2691C1.57832 27.4981 0.409517 28.6669 0.180526 29.4419C-0.0601753 30.2568 -0.0601753 39.74 0.180526 40.555C0.409517 41.33 1.57832 42.4987 2.35333 42.7277C3.16827 42.9684 12.6518 42.9684 13.4668 42.7277C14.2418 42.4987 15.4106 41.33 15.6396 40.555C15.7375 40.2233 15.8112 39.1478 15.8112 38.0472V36.1201L18.1035 36.1589L20.3956 36.1976L20.4998 37.0322C20.7629 39.1406 21.9172 41.9794 23.2009 43.6752L23.8418 44.5218L20.0381 48.3321C17.946 50.4276 16.2344 52.1922 16.2344 52.2533C16.2344 52.4306 17.527 53.7629 17.699 53.7629C17.7849 53.7629 19.5698 52.0514 21.6655 49.9594L25.4759 46.1558L26.3224 46.7966C28.0184 48.0804 30.8573 49.2346 32.9657 49.4977L33.8003 49.6019L33.8391 51.8939L33.8779 54.1862H31.9507C30.8501 54.1862 29.7745 54.2598 29.4428 54.3577C28.6678 54.5867 27.499 55.7555 27.27 56.5305C27.1495 56.9384 27.0984 58.5927 27.0984 62.087C27.0984 65.5813 27.1495 67.2357 27.27 67.6436C27.499 68.4186 28.6678 69.5873 29.4428 69.8163C30.2578 70.057 39.7413 70.057 40.5563 69.8163C41.3313 69.5873 42.5001 68.4186 42.7291 67.6436C42.9698 66.8287 42.9698 57.3454 42.7291 56.5305C42.5001 55.7555 41.3313 54.5867 40.5563 54.3577C40.2246 54.2598 39.149 54.1862 38.0484 54.1862H36.1212L36.16 51.8939L36.1988 49.6019L37.0454 49.4974C39.1846 49.2336 41.9181 48.1164 43.6941 46.78L44.5232 46.1561L47.3803 49.0059C48.9516 50.5732 50.2374 51.9038 50.2374 51.9628C50.2374 52.0216 50.1396 52.0699 50.0201 52.0699C49.244 52.0699 47.8733 53.3264 47.5794 54.3072C47.3439 55.0929 47.3508 66.8438 47.5871 67.6436C47.8161 68.4186 48.9849 69.5873 49.7599 69.8163C50.5891 70.0612 66.8166 70.0612 67.6458 69.8163C68.4208 69.5873 69.5896 68.4186 69.8186 67.6436C70.0581 66.8326 70.0615 55.0921 69.8224 54.294C69.7301 53.9861 69.3802 53.429 69.0447 53.0558C68.0184 51.9143 68.1308 51.9288 60.3346 51.9288H53.551L49.8542 48.2253L46.1575 44.5218L46.7983 43.6752C48.0819 41.9794 49.2362 39.1406 49.4993 37.0322L49.6035 36.1976L51.8956 36.1589L54.1879 36.1201V38.0472C54.1879 39.1478 54.2616 40.2233 54.3595 40.555C54.5885 41.33 55.7573 42.4987 56.5323 42.7277C57.3472 42.9684 66.8308 42.9684 67.6458 42.7277C68.4208 42.4987 69.5896 41.33 69.8186 40.555C70.0563 39.7503 70.0595 30.2544 69.8224 29.4627C69.7301 29.1549 69.3802 28.5977 69.0447 28.2246C68.0497 27.1179 67.9244 27.0976 62.1156 27.0976C58.6003 27.0976 56.9403 27.1486 56.5323 27.2691C55.7573 27.4981 54.5885 28.6669 54.3595 29.4419C54.2616 29.7736 54.1879 30.8491 54.1879 31.9497V33.8768L51.8956 33.838L49.6035 33.7992L49.4993 32.9647C49.2362 30.856 48.0818 28.017 46.7981 26.3216L46.1572 25.4751L51.5394 20.0867L56.9214 14.6983L61.798 14.6549L66.6745 14.6114L67.395 14.2312C68.4642 13.6671 68.903 13.242 69.4338 12.2554C69.8689 11.4468 69.9125 11.2579 69.9159 10.1672C69.9193 9.05303 69.8837 8.90291 69.4146 8.05089C68.8648 7.05228 67.9466 6.23793 67.0286 5.93502C66.565 5.78208 66.482 5.68825 66.4095 5.23452C66.1625 3.6892 64.5371 1.59646 62.9656 0.800172C60.2853 -0.557927 57.3206 -0.120699 55.1461 1.95327C54.2726 2.78639 53.4047 4.28924 53.2545 5.22902C53.1843 5.66794 53.0929 5.77531 52.6568 5.93135C49.5706 7.03591 48.6998 11.0188 51.0343 13.3531C51.59 13.9088 52.7934 14.5372 53.3061 14.5395C53.4808 14.5403 53.6236 14.5888 53.6236 14.6475C53.6236 14.7061 51.576 16.7987 49.0734 19.2976L44.5232 23.841L43.6941 23.217C41.9188 21.8808 39.1849 20.7632 37.0454 20.4994L36.1988 20.395L36.16 18.1029L36.1212 15.8106H38.0484C39.149 15.8106 40.2246 15.737 40.5563 15.6391C41.3313 15.4101 42.5001 14.2413 42.7291 13.4664C42.9698 12.6514 42.9698 3.16817 42.7291 2.35325C42.5001 1.57826 41.3313 0.409504 40.5563 0.18052C39.7413 -0.0601734 30.2578 -0.0601734 29.4428 0.18052C28.6678 0.409504 27.499 1.57826 27.27 2.35325C27.0293 3.16817 27.0293 12.6514 27.27 13.4664C27.499 14.2413 28.6678 15.4101 29.4428 15.6391C29.7745 15.737 30.8501 15.8106 31.9507 15.8106H33.8779L33.8391 18.1029L33.8003 20.395L32.9657 20.4991C30.6041 20.7938 28.0124 21.8977 25.9006 23.5085L25.4628 23.8423L22.7561 21.1314L20.0494 18.4207L20.6802 17.5158C23.1396 13.9878 23.1747 8.8778 20.7649 5.19995C19.164 2.7569 16.904 1.13822 13.9791 0.340089C13.0181 0.0779504 10.3423 -0.0263125 9.39151 0.161474ZM13.201 2.4767C16.22 3.10496 18.9755 5.62378 19.9165 8.61524C20.5412 10.601 20.3914 13.0434 19.5285 14.9431L19.1268 15.8276L18.4562 14.9373C17.6898 13.9201 16.4995 12.9117 15.4275 12.3718L14.6912 12.001L15.0426 11.4831C15.8938 10.2288 16.0101 8.43041 15.3272 7.0829C14.8115 6.0651 14.3713 5.61108 13.3845 5.0789C12.5727 4.64111 12.3915 4.59949 11.2962 4.59949C10.2001 4.59949 10.0202 4.64097 9.20457 5.08074C7.79987 5.83809 6.99537 7.02928 6.83184 8.59365C6.73167 9.5529 7.01455 10.6943 7.54717 11.4792L7.89609 11.9933L6.93978 12.4958C5.9194 13.0319 4.47929 14.329 3.85228 15.2765L3.47035 15.8535L3.06668 14.9569C1.53077 11.5456 2.26656 7.62142 4.94404 4.94388C7.1476 2.74053 10.153 1.84252 13.201 2.4767ZM40.2968 2.61271C40.5812 2.897 40.6432 3.09875 40.6432 3.7414V4.52373H34.9995H29.3559V3.7414C29.3559 3.09875 29.4178 2.897 29.7023 2.61271L30.0485 2.26634H34.9995H39.9506L40.2968 2.61271ZM61.9357 2.83549C62.4196 3.09353 63.0009 3.52935 63.2273 3.80404C63.6344 4.29785 64.2054 5.37561 64.2054 5.65016C64.2054 5.72818 63.9039 5.93375 63.5352 6.10686C62.236 6.71706 61.2024 8.12059 61.0081 9.53822L60.9219 10.1672H62.0406H63.1592L63.3237 9.55205C63.7632 7.9091 65.8257 7.38045 67.0439 8.59859C68.2168 9.77144 67.7457 11.8389 66.2028 12.2897C65.8611 12.3894 63.606 12.4258 59.5243 12.3972C53.5553 12.3554 53.3496 12.3449 52.9723 12.0631C52.232 11.5102 52.001 11.0594 52.001 10.1672C52.001 8.76958 52.7762 8.02154 54.3146 7.93463L55.2787 7.88003L55.3507 6.73103C55.4366 5.35924 55.8215 4.43527 56.6536 3.6037C57.6184 2.63966 58.6653 2.2535 60.1262 2.3225C60.8543 2.35692 61.2462 2.4681 61.9357 2.83549ZM12.1892 6.97355C13.6388 7.57924 13.9922 9.47967 12.8649 10.6071C11.9496 11.5222 10.6429 11.5222 9.72759 10.6071C7.98286 8.86228 9.90805 6.02051 12.1892 6.97355ZM40.6432 7.9098V9.0385H34.9995H29.3559V7.9098V6.78111H34.9995H40.6432V7.9098ZM40.6432 12.0782C40.6432 12.7209 40.5812 12.9226 40.2968 13.2069L39.9506 13.5533H34.9995H30.0485L29.7023 13.2069C29.4178 12.9226 29.3559 12.7209 29.3559 12.0782V11.2959H34.9995H40.6432V12.0782ZM12.9139 13.7695C13.3706 13.8885 14.0664 14.1577 14.4602 14.3679C15.3766 14.8568 16.7754 16.2507 17.2253 17.1232L17.5748 17.801L17.081 18.2074C16.268 18.8767 15.1918 19.4765 14.0948 19.8715C13.1829 20.1999 12.8501 20.244 11.2962 20.2423C9.73225 20.2408 9.41296 20.197 8.47612 19.8566C7.34457 19.4453 6.30656 18.8631 5.51334 18.1946L5.02136 17.7799L5.36901 17.1127C5.82121 16.2449 7.22379 14.8527 8.13651 14.3656C9.61458 13.5768 11.3451 13.361 12.9139 13.7695ZM35.6874 22.7853C36.2334 23.0677 37.0403 23.9948 37.4589 24.8209C37.7497 25.3949 38.3854 26.9322 38.3856 27.0623C38.3857 27.0816 36.8619 27.0976 34.9995 27.0976C33.1371 27.0976 31.6134 27.0816 31.6135 27.0623C31.6136 26.9332 32.2481 25.3973 32.535 24.8312C33.1658 23.5865 34.2518 22.5845 34.9713 22.5834C35.1497 22.5831 35.4719 22.6739 35.6874 22.7853ZM30.3266 24.2651C30.0969 24.7248 29.7628 25.5343 29.5843 26.064L29.2597 27.027L27.4031 27.0664C26.3818 27.088 25.5464 27.0537 25.5464 26.9899C25.5464 26.8456 26.5245 25.9092 27.4242 25.1922C28.1071 24.648 30.272 23.4412 30.5792 23.4334C30.6758 23.431 30.571 23.7763 30.3266 24.2651ZM40.6169 23.9805C41.22 24.2836 42.0597 24.8003 42.4833 25.1286C43.4165 25.8519 44.4526 26.8313 44.4526 26.9899C44.4526 27.0537 43.6172 27.088 42.596 27.0664L40.7394 27.027L40.4148 26.064C40.2363 25.5343 39.9022 24.7248 39.6725 24.2651C39.4428 23.8055 39.3147 23.4293 39.3878 23.4293C39.4608 23.4293 40.0141 23.6773 40.6169 23.9805ZM13.2073 29.7013C13.4918 29.9856 13.5537 30.1874 13.5537 30.83V31.6123H7.91006H2.26642V30.83C2.26642 30.1874 2.32836 29.9856 2.61279 29.7013L2.95903 29.355H7.91006H12.8611L13.2073 29.7013ZM28.6476 29.6019C28.6461 29.7377 28.5884 30.2614 28.5194 30.7658C28.4502 31.2702 28.3509 32.175 28.2984 32.7763L28.203 33.8697H25.4147H22.6263L22.7502 33.0585C22.8999 32.0791 23.0512 31.5559 23.5463 30.3077L23.9239 29.3559L26.2872 29.3554C28.445 29.355 28.6502 29.3764 28.6476 29.6019ZM39.0026 29.6019C39.0939 29.9173 39.331 31.6858 39.4472 32.9174L39.5369 33.8697H34.9995H30.4622L30.5519 32.9174C30.668 31.6858 30.9052 29.9173 30.9965 29.6019C31.0624 29.3743 31.3765 29.355 34.9995 29.355C38.6226 29.355 38.9367 29.3743 39.0026 29.6019ZM46.4528 30.3077C46.9478 31.5559 47.0992 32.0791 47.2489 33.0585L47.3728 33.8697H44.5836H41.7943L41.707 32.9174C41.6589 32.3935 41.5586 31.4629 41.4841 30.8492C41.4096 30.2355 41.3486 29.6483 41.3486 29.5441C41.3486 29.3935 41.8296 29.3551 43.7119 29.3554L46.0752 29.3559L46.4528 30.3077ZM67.3863 29.7013C67.6707 29.9856 67.7327 30.1874 67.7327 30.83V31.6123H62.089H56.4454V30.83C56.4454 30.1874 56.5073 29.9856 56.7918 29.7013L57.138 29.355H62.089H67.0401L67.3863 29.7013ZM13.5537 34.9984V36.1271H7.91006H2.26642V34.9984V33.8697H7.91006H13.5537V34.9984ZM67.7327 34.9984V36.1271H62.089H56.4454V34.9984V33.8697H62.089H67.7327V34.9984ZM28.2984 37.2205C28.3509 37.8218 28.4502 38.7266 28.5194 39.231C28.7333 40.7938 28.9737 40.6419 26.2872 40.6415L23.9239 40.6409L23.5463 39.6891C23.0512 38.4409 22.8999 37.9178 22.7502 36.9384L22.6263 36.1271H25.4147H28.203L28.2984 37.2205ZM39.4472 37.0794C39.331 38.311 39.0939 40.0795 39.0026 40.395C38.9367 40.6225 38.6226 40.6419 34.9995 40.6419C31.3765 40.6419 31.0624 40.6225 30.9965 40.395C30.9052 40.0795 30.668 38.311 30.5519 37.0794L30.4622 36.1271H34.9995H39.5369L39.4472 37.0794ZM47.2409 36.9808C47.1241 37.7523 46.7636 38.9375 46.2668 40.1833L46.0839 40.6419H43.7163C41.0248 40.6419 41.2658 40.7938 41.4797 39.231C41.5488 38.7266 41.6482 37.8218 41.7007 37.2205L41.796 36.1271H44.583H47.3701L47.2409 36.9808ZM13.5537 39.1668C13.5537 39.8095 13.4918 40.0112 13.2073 40.2955L12.8611 40.6419H7.91006H2.95903L2.61279 40.2955C2.32836 40.0112 2.26642 39.8095 2.26642 39.1668V38.3845H7.91006H13.5537V39.1668ZM67.7327 39.1668C67.7327 39.8095 67.6707 40.0112 67.3863 40.2955L67.0401 40.6419H62.089H57.138L56.7918 40.2955C56.5073 40.0112 56.4454 39.8095 56.4454 39.1668V38.3845H62.089H67.7327V39.1668ZM29.5843 43.9329C29.7628 44.4625 30.0969 45.272 30.3266 45.7317C30.5563 46.1914 30.6844 46.5675 30.6113 46.5675C30.3146 46.5675 28.2355 45.4261 27.5158 44.8683C26.5826 44.1449 25.5464 43.1655 25.5464 43.0069C25.5464 42.9431 26.3818 42.9089 27.4031 42.9304L29.2597 42.9698L29.5843 43.9329ZM38.3857 42.9551C38.3857 43.1298 37.5232 45.0885 37.2142 45.6159C36.7764 46.3628 35.8482 47.2316 35.3558 47.3552C34.2195 47.6405 32.9983 46.4143 32.0167 44.0021C31.7948 43.4571 31.6134 42.9859 31.6134 42.9551C31.6134 42.9244 33.1371 42.8993 34.9995 42.8993C36.8619 42.8993 38.3857 42.9244 38.3857 42.9551ZM44.2799 43.2167C43.8766 43.8347 41.9672 45.3097 40.7618 45.9343C40.09 46.2826 39.4768 46.5675 39.3995 46.5675C39.322 46.5675 39.4671 46.1389 39.7217 45.6152C39.9764 45.0915 40.2964 44.3136 40.4328 43.8869C40.5691 43.4601 40.7078 43.0633 40.7408 43.0051C40.7738 42.9468 41.6303 42.8993 42.644 42.8993H44.4871L44.2799 43.2167ZM7.48679 54.2686C4.78094 54.7531 2.55876 55.7652 0.796671 57.3158L0.243876 57.8019L1.06559 58.6105L1.88716 59.4191L2.3237 59.0036C4.57523 56.8608 8.40317 55.952 11.649 56.7899C12.8447 57.0986 14.6328 58.0273 15.5113 58.7958L16.2587 59.4496L17.0578 58.6427L17.857 57.8358L17.2926 57.3365C15.0613 55.3624 12.4995 54.3551 9.46206 54.2576C8.56966 54.2288 7.68079 54.2337 7.48679 54.2686ZM67.3863 54.5325L67.7327 54.8788V60.9583V67.0379L67.3863 67.3841L67.0401 67.7305H58.7028H50.3656L50.0194 67.3841L49.673 67.0379V60.9583V54.8788L50.0194 54.5325L50.3656 54.1862H58.7028H67.0401L67.3863 54.5325ZM40.2968 56.7899C40.5812 57.0742 40.6432 57.276 40.6432 57.9186V58.7009H34.9995H29.3559V57.9186C29.3559 57.276 29.4178 57.0742 29.7023 56.7899L30.0485 56.4436H34.9995H39.9506L40.2968 56.7899ZM51.9305 60.9583V65.4731H58.7028H65.4752V64.3444V63.2157H64.3465H63.2178V60.9583V58.7009H62.089H60.9603V60.9583V63.2157H59.8316H58.7028V62.087V60.9583H57.5741H56.4454V62.087V63.2157H55.3167H54.1879V59.8296V56.4436H53.0592H51.9305V60.9583ZM7.41624 58.865C6.51791 59.0339 4.5971 59.973 3.97588 60.5469L3.49856 60.9881L4.27823 61.7679L5.05804 62.5477L5.53761 62.1818C5.80145 61.9806 6.39545 61.6396 6.8578 61.4239C7.59162 61.0816 7.86886 61.0318 9.03879 61.0318C10.2087 61.0318 10.486 61.0816 11.2198 61.4239C11.6821 61.6396 12.2761 61.9806 12.54 62.1818L13.0195 62.5477L13.8125 61.7548L14.6054 60.9617L14.1148 60.5428C12.4018 59.0799 9.77458 58.4219 7.41624 58.865ZM40.6432 62.087V63.2157H34.9995H29.3559V62.087V60.9583H34.9995H40.6432V62.087ZM7.91006 63.4001C7.63846 63.4858 7.09667 63.8761 6.70599 64.2675C5.7089 65.2668 5.43349 66.3212 5.82417 67.6436C6.05316 68.4186 7.22196 69.5873 7.99697 69.8163C9.31984 70.2071 10.3745 69.9316 11.3716 68.9345C12.7503 67.5558 12.7915 65.802 11.4795 64.3427C10.5664 63.3272 9.24718 62.9787 7.91006 63.4001ZM9.82114 65.8195C10.5211 66.5192 10.0252 67.7305 9.03879 67.7305C8.45876 67.7305 7.91006 67.1818 7.91006 66.6018C7.91006 66.0218 8.45876 65.4731 9.03879 65.4731C9.31363 65.4731 9.60287 65.6011 9.82114 65.8195ZM40.6432 66.2554C40.6432 66.8981 40.5812 67.0998 40.2968 67.3841L39.9506 67.7305H34.9995H30.0485L29.7023 67.3841C29.4178 67.0998 29.3559 66.8981 29.3559 66.2554V65.4731H34.9995H40.6432V66.2554Z" fill="white"/>
</svg>
