<svg width="70" height="38" viewBox="0 0 70 38" fill="none" xmlns="http://www.w3.org/2000/svg">
<path fill-rule="evenodd" clip-rule="evenodd" d="M17.9094 0.30585C17.4895 0.407451 17.0891 0.721629 16.9061 1.09315C16.7124 1.48641 16.7258 0.796087 16.7338 9.94907L16.7409 18.2111L16.812 18.4052C17.0426 19.035 17.6066 19.4373 18.2591 19.4373C18.9455 19.4373 19.5159 19.0028 19.7271 18.319C19.7753 18.1628 19.7773 17.8307 19.7773 9.84684V1.53728L19.7167 1.34479C19.4779 0.58638 18.6699 0.121864 17.9094 0.30585ZM51.3912 0.30585C50.8831 0.428799 50.4413 0.843101 50.2833 1.34479L50.2227 1.53728V9.84684C50.2227 17.8307 50.2247 18.1628 50.2729 18.319C50.4821 18.9962 51.0517 19.4344 51.7272 19.4378C51.8476 19.4384 52.0138 19.4223 52.0965 19.4021C52.5921 19.2808 53.0057 18.903 53.188 18.4052L53.2591 18.2111V9.87417C53.2591 1.85875 53.2571 1.53096 53.2088 1.37327C53.0045 0.707278 52.4074 0.262143 51.7272 0.268976C51.6219 0.270015 51.4707 0.286634 51.3912 0.30585ZM9.55797 6.03513C9.01375 6.16401 8.60396 6.54636 8.43157 7.0861L8.37046 7.27744V11.1999V15.1223L8.43113 15.3137C8.5949 15.8302 8.99594 16.2221 9.49314 16.3515C9.69589 16.4043 10.0753 16.4049 10.2714 16.3528C10.7978 16.2128 11.2168 15.789 11.3516 15.2601C11.3878 15.1182 11.3931 14.5948 11.3931 11.1999C11.3931 6.88221 11.4046 7.16271 11.2123 6.79685C11.0237 6.43839 10.6396 6.1422 10.2414 6.04841C10.053 6.00405 9.71684 5.99752 9.55797 6.03513ZM26.2642 6.04787C25.791 6.16773 25.3776 6.53955 25.2011 7.0041L25.1387 7.1681L25.1303 11.1179C25.1241 14.0079 25.1302 15.108 25.1531 15.218C25.2631 15.746 25.7119 16.2148 26.2368 16.3501C26.45 16.405 26.817 16.4057 27.025 16.3515C27.5303 16.22 27.9549 15.7924 28.0995 15.2696C28.1445 15.1065 28.1477 14.8374 28.1477 11.1999C28.1477 7.51538 28.145 7.29518 28.0979 7.1271C27.9648 6.65266 27.6183 6.27307 27.1596 6.09931C26.922 6.0093 26.51 5.98563 26.2642 6.04787ZM43.012 6.04814C42.5333 6.16425 42.1178 6.52949 41.9478 6.98368C41.8414 7.26781 41.8355 7.52071 41.8446 11.4049C41.8529 14.9441 41.8561 15.1579 41.9033 15.3C41.9889 15.5577 42.119 15.7712 42.3036 15.9568C42.6002 16.2551 42.9366 16.3934 43.3654 16.3934C43.8001 16.3934 44.137 16.2555 44.4413 15.953C44.6418 15.7537 44.7913 15.4826 44.8467 15.218C44.8698 15.1075 44.8759 14.0202 44.8697 11.1179L44.8613 7.1681L44.7989 7.0041C44.6593 6.63683 44.39 6.33971 44.0415 6.1686C43.7089 6.00531 43.3579 5.96422 43.012 6.04814ZM59.7461 6.0497C59.3593 6.14324 58.9731 6.44437 58.7878 6.79685C58.5954 7.16271 58.6069 6.88221 58.6069 11.1999C58.6069 15.4946 58.5968 15.2358 58.7783 15.6007C58.9481 15.942 59.3348 16.248 59.7286 16.3528C59.9247 16.4049 60.3041 16.4043 60.5069 16.3515C61.0118 16.2201 61.4141 15.82 61.5793 15.2849C61.6271 15.1304 61.6295 14.9278 61.6295 11.1999C61.6295 7.46981 61.6271 7.2694 61.5792 7.11343C61.4151 6.57826 61.0064 6.18139 60.4818 6.04789C60.282 5.99705 59.9604 5.99785 59.7461 6.0497ZM1.14073 10.2438C0.607542 10.3834 0.213474 10.7635 0.0503048 11.2955C0.00361079 11.4478 0 11.5908 0 13.2909C0 14.7001 0.00815162 15.1529 0.0353146 15.255C0.173044 15.7726 0.586424 16.1952 1.10599 16.3493C1.29299 16.4048 1.69871 16.4065 1.90091 16.3528C2.2943 16.2482 2.65152 15.9647 2.83879 15.6086C3.0225 15.2593 3.02182 15.2678 3.02225 13.2991C3.02253 12.1206 3.01265 11.4823 2.99266 11.3857C2.87698 10.8273 2.39518 10.3491 1.82692 10.2288C1.57934 10.1764 1.38181 10.1807 1.14073 10.2438ZM34.6347 10.2318C34.254 10.3239 33.8458 10.6356 33.6685 10.9695C33.4756 11.3326 33.4818 11.2547 33.4818 13.3183V15.177L33.5529 15.3711C33.7298 15.8542 34.1293 16.2284 34.6177 16.3684C34.8265 16.4282 35.2559 16.4101 35.4817 16.332C35.9636 16.1653 36.3518 15.7477 36.4829 15.255C36.51 15.1529 36.5182 14.7001 36.5182 13.2909C36.5182 11.5908 36.5146 11.4478 36.4679 11.2955C36.2628 10.6268 35.6695 10.1845 34.9863 10.1912C34.881 10.1922 34.7228 10.2105 34.6347 10.2318ZM68.1604 10.2282C67.7255 10.3272 67.3175 10.6484 67.1343 11.0359C67.081 11.1486 67.0238 11.3061 67.0073 11.3857C66.9873 11.4823 66.9775 12.1206 66.9777 13.2991C66.9782 15.2637 66.9779 15.26 67.1583 15.603C67.3267 15.9233 67.6345 16.1915 67.9768 16.3161C68.2036 16.3987 68.659 16.4173 68.8805 16.3529C69.4015 16.2016 69.7809 15.8261 69.9546 15.2899C69.9951 15.1649 70 14.9494 70 13.3046C70 11.5912 69.9964 11.4479 69.9497 11.2955C69.7538 10.6566 69.2162 10.2318 68.5639 10.2004C68.4205 10.1935 68.2659 10.2041 68.1604 10.2282ZM11.9265 24.6065C9.73421 24.8587 7.92113 26.0676 6.99395 27.8955C6.51878 28.8322 6.3052 29.7567 6.3052 30.8766C6.3052 32.2878 6.71893 33.5882 7.50368 34.6434C7.75695 34.9839 8.39456 35.6119 8.73974 35.8609C9.64452 36.5132 10.6696 36.9126 11.8581 37.0756C12.3243 37.1395 13.2664 37.1392 13.7866 37.0749C14.2258 37.0206 14.833 36.9027 15.2501 36.7906L15.5373 36.7134L15.5444 35.0953C15.5483 34.2053 15.5468 33.4772 15.5412 33.4772C15.5356 33.4772 15.4155 33.5315 15.2743 33.598C14.726 33.8561 14.0675 34.0242 13.39 34.0792C11.8067 34.2076 10.5328 33.5404 9.92898 32.2667C9.49656 31.3545 9.52033 30.1889 9.98968 29.2925C10.3692 28.5675 10.9996 28.045 11.8179 27.7771C12.8093 27.4526 14.1939 27.5832 15.2969 28.1052L15.551 28.2255V26.6056V24.9857L15.2433 24.9001C14.8718 24.7968 14.3631 24.693 13.9371 24.6338C13.4976 24.5727 12.355 24.5572 11.9265 24.6065ZM30.719 24.5981C30.1082 24.667 29.5161 24.832 29.0231 25.0707C27.7727 25.6761 27.0739 26.7322 26.9964 28.1333C26.908 29.7319 27.7337 30.9312 29.406 31.6333C29.5715 31.7027 30.0362 31.8684 30.4385 32.0014C31.5138 32.3569 31.8584 32.5598 32.0511 32.9508C32.1289 33.1088 32.1406 33.1602 32.1397 33.3392C32.1369 33.9415 31.6163 34.3106 30.5966 34.4333C30.2617 34.4736 29.4942 34.467 29.0504 34.4201C28.4943 34.3612 27.6093 34.1888 27.0741 34.0351L27.0125 34.0175V35.4106V36.8037L27.3476 36.861C28.8 37.1095 30.2527 37.1926 31.2114 37.0821C31.919 37.0005 32.6683 36.792 33.2083 36.5265C34.3861 35.9473 35.068 35.0656 35.2917 33.8325C35.3585 33.4641 35.3583 32.6978 35.2913 32.3894C35.1405 31.6951 34.8377 31.1551 34.3182 30.6542C33.7551 30.1112 33.2783 29.8625 31.9965 29.4432C31.4816 29.2748 31.011 29.1032 30.8686 29.032C30.4251 28.8101 30.2138 28.5298 30.2132 28.1625C30.2119 27.1939 31.7983 26.89 34.0887 27.4202C34.2514 27.4579 34.4123 27.4968 34.4463 27.5068L34.5082 27.5248L34.5011 26.23L34.4939 24.9353L34.2204 24.8742C33.7717 24.7741 32.9913 24.6511 32.5269 24.6073C32.0541 24.5627 31.0767 24.5577 30.719 24.5981ZM44.1774 24.5832C42.949 24.7104 41.8782 25.082 40.9889 25.6898C39.1909 26.9188 38.2256 28.9802 38.3676 31.2878C38.5091 33.5884 39.7349 35.4558 41.7429 36.4297C42.5719 36.8318 43.3471 37.0378 44.3186 37.1141C45.2253 37.1854 46.4566 37.0431 47.4258 36.7551L47.6104 36.7003V35.0858C47.6104 33.8046 47.6033 33.4743 47.5762 33.486C47.5574 33.494 47.4186 33.5556 47.2677 33.6228C46.3369 34.0376 45.2646 34.1887 44.3456 34.0345C43.1427 33.8327 42.1937 33.0243 41.8302 31.8918C41.7138 31.5292 41.6881 31.3332 41.6889 30.8121C41.6896 30.3619 41.6963 30.2945 41.7673 30.0194C42.0892 28.7724 42.9617 27.953 44.2743 27.6648C44.6227 27.5883 45.532 27.5935 45.9828 27.6746C46.4197 27.7532 46.8921 27.8991 47.287 28.0776L47.6104 28.2237V26.6035V24.9833L47.2753 24.8942C46.4112 24.6646 45.8846 24.5926 44.9844 24.5809C44.6007 24.5759 44.2376 24.577 44.1774 24.5832ZM56.5143 24.5966C55.5096 24.7049 54.4807 25.0672 53.6694 25.5984C52.366 26.4518 51.4473 27.7348 51.0687 29.2305C50.9152 29.837 50.8804 30.134 50.8804 30.8394C50.8804 31.5176 50.9153 31.8404 51.0471 32.3805C51.3841 33.7621 52.1913 35.004 53.2889 35.8295C53.9394 36.3187 54.7497 36.7119 55.5092 36.9068C57.3996 37.392 59.4194 37.0778 60.9457 36.061C62.6346 34.9359 63.6285 33.1217 63.6873 31.0565C63.7115 30.2075 63.6181 29.5532 63.3648 28.795C62.8928 27.3828 61.9769 26.2452 60.6858 25.4678C60.01 25.0608 59.1905 24.7717 58.3185 24.6325C57.9895 24.58 56.8746 24.5578 56.5143 24.5966ZM19.7909 30.8531V36.9213H21.3228H22.8546V30.8531V24.7849H21.3228H19.7909V30.8531ZM57.8895 27.6991C58.5227 27.8107 59.0991 28.1211 59.5681 28.6031C60.7761 29.8446 60.755 31.9067 59.5216 33.1373C58.307 34.3491 56.2797 34.3563 55.0535 33.1532C53.8181 31.9413 53.777 29.903 54.9623 28.6387C55.7152 27.8358 56.7604 27.5003 57.8895 27.6991Z" fill="white"/>
</svg>
