<svg width="70" height="70" viewBox="0 0 70 70" fill="none" xmlns="http://www.w3.org/2000/svg">
<path fill-rule="evenodd" clip-rule="evenodd" d="M13.8382 0.346472L13.4914 0.692803V7.11192V13.5309L8.85701 13.5749L4.22246 13.619L3.15544 14.1461C1.87015 14.7809 1.06914 15.5984 0.447124 16.9101L0 17.8528V36.1364V54.42L0.527649 55.4863C1.16309 56.7709 1.98105 57.571 3.29445 58.1925L4.23814 58.6392L13.4561 58.6792L22.6741 58.7195V59.6249C22.6741 60.9123 22.4462 61.8586 21.8209 63.1673C21.1824 64.5039 20.4332 65.3784 18.6644 66.8516C17.9559 67.4417 17.2651 68.0491 17.1292 68.2016C16.7732 68.6009 16.8171 69.2425 17.2288 69.6536L17.5754 70.0001H30.444H43.3126L43.6592 69.6536C43.9953 69.318 44.0946 68.8424 43.9223 68.3939C43.8762 68.2739 43.2193 67.67 42.4625 67.0519C41.7057 66.4336 40.754 65.5645 40.3477 65.1204C39.0151 63.6636 38.2203 61.6308 38.216 59.6671L38.2139 58.7195L47.4319 58.6792L56.6498 58.6392L57.5935 58.1925C58.9065 57.5711 59.7249 56.7709 60.3603 55.4868L60.888 54.4207L60.9307 48.662L60.9733 42.9033H65.1398H69.3065L69.6532 42.5568L70 42.2105V21.4516V0.692803L69.6532 0.346472L69.3065 0H41.7457H14.1849L13.8382 0.346472ZM67.7397 5.64517V9.03227H41.7457H15.7518V5.64517V2.25807H41.7457H67.7397V5.64517ZM54.1776 5.64517V6.7742H55.3078H56.4379V5.64517V4.51613H55.3078H54.1776V5.64517ZM58.6983 5.64517V6.7742H59.8285H60.9586V5.64517V4.51613H59.8285H58.6983V5.64517ZM63.219 5.64517V6.7742H64.3491H65.4793V5.64517V4.51613H64.3491H63.219V5.64517ZM67.7397 25.9678V40.6452H44.5305H21.3213L16.8059 41.5498C14.3225 42.0473 12.271 42.4353 12.2471 42.4118C12.2231 42.3886 13.0019 40.7753 13.9777 38.8269L15.7518 35.2844V23.2874V11.2903H41.7457H67.7397V25.9678ZM22.6387 20.3305C18.7645 24.6992 18.0121 25.6159 18.0121 25.9686C18.0121 26.3216 18.7594 27.2303 22.6238 31.5769C25.1603 34.4299 27.274 36.7784 27.321 36.7958C27.3681 36.8131 27.7707 36.4956 28.2156 36.0901L29.0246 35.3529L24.8635 30.6956C22.5749 28.1341 20.7023 26.0066 20.7023 25.9678C20.7023 25.929 22.5756 23.8014 24.865 21.2399L29.0278 16.5827L28.2171 15.842C27.7714 15.4346 27.3749 15.1041 27.336 15.1075C27.2972 15.1108 25.1833 17.4612 22.6387 20.3305ZM41.7138 15.8454L40.9047 16.5827L45.0659 21.2399C47.3545 23.8014 49.227 25.929 49.227 25.9678C49.227 26.0066 47.3545 28.1341 45.0659 30.6956L40.9047 35.3529L41.7138 36.0901C42.1586 36.4956 42.5613 36.8131 42.6083 36.7958C42.6554 36.7784 44.7691 34.4299 47.3056 31.5769C51.1744 27.2252 51.9173 26.3219 51.9173 25.9678C51.9173 25.6137 51.1744 24.7103 47.3056 20.3586C44.7691 17.5057 42.6554 15.1571 42.6083 15.1398C42.5613 15.1224 42.1586 15.44 41.7138 15.8454ZM36.0504 15.9679C35.9074 16.543 31.7071 35.4837 31.6752 35.6975C31.6536 35.8419 31.9518 35.9714 32.7043 36.1443C33.2871 36.2781 33.7767 36.3749 33.7924 36.3592C33.8081 36.3436 34.781 32.0144 35.9543 26.739C37.1277 21.4635 38.141 16.9097 38.2062 16.6192C38.323 16.0986 38.3175 16.0894 37.8102 15.9547C37.5272 15.8794 37.034 15.7768 36.7143 15.7266C36.1858 15.6436 36.1255 15.6656 36.0504 15.9679ZM13.4914 25.263V34.7195L11.2311 39.2339C9.98789 41.7168 8.97074 43.9104 8.97074 44.1084C8.97074 44.5323 9.54755 45.1613 9.93619 45.1613C10.0858 45.1613 12.7704 44.6533 15.9018 44.0323L21.5955 42.9033H40.1468H58.6983V45.1613V47.4194H30.444H2.18971V33.0759C2.18971 22.2267 2.23152 18.5908 2.36149 18.1515C2.57411 17.4326 3.75669 16.2092 4.45005 15.9909C4.76028 15.8933 6.53649 15.8299 9.21796 15.8209L13.4914 15.8065V25.263ZM54.1776 16.9355V18.0645H59.8285H65.4793V16.9355V15.8065H59.8285H54.1776V16.9355ZM54.1776 21.4516V22.5807H59.8285H65.4793V21.4516V20.3226H59.8285H54.1776V21.4516ZM54.1776 25.9678V27.0968H59.8285H65.4793V25.9678V24.8387H59.8285H54.1776V25.9678ZM54.1776 30.4839V31.6129H59.8285H65.4793V30.4839V29.3549H59.8285H54.1776V30.4839ZM54.1776 35V36.1291H59.8285H65.4793V35V33.871H59.8285H54.1776V35ZM58.6983 51.6016C58.6983 52.6999 58.6245 53.7751 58.5265 54.1067C58.2972 54.8819 57.1269 56.051 56.3509 56.28C55.5064 56.5293 5.38159 56.5293 4.53707 56.28C3.76107 56.051 2.59078 54.8819 2.36149 54.1067C2.26345 53.7751 2.18971 52.6999 2.18971 51.6016V49.6775H30.444H58.6983V51.6016ZM29.3138 53.0646V54.1936H30.444H31.5742V53.0646V51.9355H30.444H29.3138V53.0646ZM35.956 59.7329C35.9622 62.2945 36.983 64.8217 38.8269 66.8393L39.6516 67.742H30.444H21.2363L22.0611 66.8393C23.905 64.8217 24.9258 62.2945 24.932 59.7329L24.9344 58.7097H30.444H35.9536L35.956 59.7329Z" fill="white"/>
</svg>
