<svg width="70" height="66" viewBox="0 0 70 66" fill="none" xmlns="http://www.w3.org/2000/svg">
<path fill-rule="evenodd" clip-rule="evenodd" d="M31.4119 0.558165C31.1512 0.819224 31.0635 1.13181 30.9214 2.30541C30.5866 5.06867 30.6451 4.8838 30.0151 5.16596L29.4513 5.41839L27.9628 4.25438C26.2657 2.92743 26.0028 2.77792 25.5608 2.88933C25.386 2.93346 24.2117 4.00908 22.9512 5.27984C20.9907 7.25608 20.6595 7.65062 20.6595 8.00856C20.6595 8.32471 20.9604 8.82079 21.8908 10.0385C22.5681 10.9249 23.1222 11.6716 23.1222 11.6981C23.1222 11.7244 23.0251 11.9893 22.9062 12.2866C22.6663 12.887 22.7724 12.8506 20.4543 13.1296C17.8813 13.4393 17.9231 13.3708 17.9231 17.2768C17.9231 20.1735 18.0195 20.8284 18.4822 21.0765C18.6232 21.1521 19.4633 21.3064 20.349 21.4192C22.7109 21.7203 22.644 21.6972 22.9181 22.306C23.1984 22.9287 23.3038 22.713 21.6923 24.8164C20.9174 25.828 20.6595 26.2708 20.6595 26.59C20.6595 26.9572 20.9759 27.3338 22.9754 29.3461C25.852 32.2414 25.5662 32.1777 27.8241 30.4262L29.4365 29.1755L30.0074 29.4183L30.5784 29.6613L30.8608 31.757C31.1079 33.5913 31.1823 33.8847 31.4576 34.1079C31.7445 34.3406 32.0567 34.3629 35.0254 34.3629C37.994 34.3629 38.3062 34.3406 38.5932 34.1079C38.8684 33.8847 38.9429 33.5913 39.19 31.757L39.4723 29.6613L40.0492 29.4158L40.6261 29.1704L42.2306 30.4238C44.4797 32.1806 44.1965 32.2435 47.0753 29.3461C49.0748 27.3338 49.3912 26.9572 49.3912 26.59C49.3912 26.2708 49.1333 25.828 48.3584 24.8164C46.7463 22.7122 46.852 22.9294 47.1347 22.3015C47.4065 21.6977 47.2488 21.7507 49.778 21.4126C50.6304 21.2987 51.4397 21.1455 51.5765 21.0722C52.0307 20.8287 52.1276 20.1616 52.1276 17.2768C52.1276 13.3708 52.1694 13.4393 49.5965 13.1296C47.2783 12.8506 47.3844 12.887 47.1445 12.2866C47.0256 11.9893 46.9285 11.7244 46.9285 11.6981C46.9285 11.6716 47.4826 10.9249 48.1599 10.0385C49.0973 8.81161 49.3912 8.32594 49.3912 8.00377C49.3912 7.63842 49.0674 7.25608 47.0267 5.21228C45.1846 3.36719 44.5841 2.84397 44.3086 2.84397C44.0726 2.84397 43.3961 3.27195 42.2753 4.13036L40.5959 5.41688L40.0338 5.16514L39.4719 4.9134L39.1898 2.83192C38.9431 1.01272 38.868 0.718226 38.5932 0.495264C38.3061 0.262435 37.9935 0.240234 35.004 0.240234C31.7612 0.240234 31.7263 0.243386 31.4119 0.558165ZM36.9879 2.87823C37.0304 3.12326 37.1399 3.96153 37.231 4.74114C37.3351 5.63217 37.4773 6.25213 37.6134 6.41014C37.8606 6.69669 40.437 7.77738 40.8731 7.77738C41.0315 7.77738 41.3353 7.63499 41.5479 7.46109C41.7606 7.28705 42.4462 6.75233 43.0716 6.27283L44.2084 5.40085L45.5001 6.68915C46.2105 7.39778 46.7909 8.04036 46.7899 8.11723C46.789 8.19411 46.2998 8.87999 45.703 9.64152C45.1062 10.4029 44.5789 11.1817 44.5312 11.3722C44.473 11.6042 44.5544 11.9384 44.7783 12.3859C44.9619 12.753 45.2186 13.3795 45.3489 13.778C45.4837 14.1904 45.719 14.5901 45.8948 14.7055C46.0649 14.8171 47.0289 15.0152 48.037 15.1457L49.8701 15.383L49.9081 17.2638C49.9525 19.4549 50.2362 19.1696 47.6926 19.4917C46.0107 19.7047 45.6523 19.858 45.4819 20.4373C45.435 20.597 45.1796 21.2412 44.9143 21.8691C44.3375 23.2339 44.31 23.1337 45.794 25.0637L46.8424 26.4273L45.4956 27.7814L44.1489 29.1353L42.6505 27.9805C40.9702 26.6856 40.7505 26.6239 39.7069 27.1529C39.3519 27.3328 38.7956 27.5598 38.4707 27.6571C37.5984 27.9184 37.4213 28.2335 37.2307 29.8649C37.1397 30.643 37.0304 31.48 36.9879 31.7249L36.9103 32.1703H35.0254H33.1404L33.0628 31.7249C33.0203 31.48 32.911 30.643 32.82 29.8649C32.6294 28.2335 32.4524 27.9184 31.58 27.6571C31.2551 27.5598 30.6988 27.3328 30.3439 27.1529C29.3002 26.6239 29.0805 26.6856 27.4002 27.9805L25.9018 29.1353L24.5563 27.7826L23.211 26.43L24.3324 24.9621C24.949 24.1546 25.4879 23.3569 25.5299 23.1895C25.5756 23.0072 25.4722 22.6166 25.2724 22.2173C25.0888 21.8502 24.8353 21.2332 24.7089 20.8465C24.5825 20.4596 24.3679 20.0424 24.2319 19.9192C24.0691 19.7716 23.4295 19.6234 22.3564 19.4849C21.4607 19.3692 20.5877 19.2453 20.4162 19.2096C20.1078 19.1452 20.105 19.1245 20.1426 17.2638L20.1806 15.383L22.0137 15.1457C23.0218 15.0152 23.9858 14.8171 24.1559 14.7055C24.3317 14.5901 24.567 14.1904 24.7018 13.778C24.8322 13.3795 25.0888 12.753 25.2724 12.3859C25.4963 11.9384 25.5777 11.6042 25.5195 11.3722C25.4718 11.1817 24.9445 10.4029 24.3477 9.64152C23.7509 8.87999 23.2618 8.19411 23.2608 8.11723C23.2598 8.04036 23.8402 7.39778 24.5506 6.68915L25.8423 5.40085L26.9791 6.27283C27.6045 6.75233 28.2901 7.28705 28.5028 7.46109C28.7155 7.63499 29.0148 7.77738 29.1679 7.77738C29.674 7.77738 32.306 6.64612 32.4915 6.34888C32.5892 6.19238 32.7408 5.44771 32.8283 4.694C32.916 3.94029 33.0219 3.12326 33.0639 2.87823L33.1404 2.43286H35.0254H36.9103L36.9879 2.87823ZM33.1396 9.48337C32.0998 9.73566 30.5531 10.5445 29.7419 11.2602C29.3567 11.5999 28.759 12.2966 28.4135 12.8082C25.9245 16.4942 26.8935 21.4615 30.5836 23.9336C35.1406 26.9864 41.1983 24.7109 42.7666 19.3572C43.1432 18.072 43.0871 16.202 42.6311 14.8349C42.1965 13.5321 41.276 12.1144 40.3088 11.2583C39.4933 10.5364 37.7337 9.64823 36.6947 9.43418C35.7482 9.23917 34.0497 9.26274 33.1396 9.48337ZM37.3867 11.9897C41.1328 13.7467 42.002 18.4812 39.1111 21.3832C36.813 23.6902 33.2332 23.677 30.9117 21.353C27.7962 18.2343 29.1445 13.0907 33.452 11.6619C33.7882 11.5503 34.474 11.495 35.2306 11.5181C36.2803 11.5505 36.5985 11.6201 37.3867 11.9897ZM34.2667 35.9327C33.9694 36.2304 33.9308 36.388 33.9308 37.3031V38.3371H22.1883H10.4459L10.1483 38.6542C9.86237 38.9592 9.85088 39.0827 9.85088 41.8647V44.758L10.2114 45.042C10.6853 45.4155 11.1167 45.401 11.5876 44.9957L11.9716 44.6653L12.0156 42.5975L12.0597 40.5297H22.9952H33.9308V41.414C33.9308 42.481 34.111 42.9244 34.6327 43.1408C34.936 43.2666 35.1147 43.2666 35.418 43.1408C35.9397 42.9244 36.1199 42.481 36.1199 41.414V40.5297H46.5865H57.053V42.5914C57.053 44.5978 57.062 44.6624 57.3889 44.9896C57.9281 45.5298 58.7022 45.4261 59.0419 44.768C59.1976 44.4665 59.2421 43.7838 59.2421 41.6951C59.2421 39.0268 59.2399 39.0077 58.9062 38.6735L58.5705 38.3371H47.3451H36.1199V37.3031C36.1199 36.388 36.0813 36.2304 35.784 35.9327C35.5724 35.7206 35.2919 35.5963 35.0254 35.5963C34.7588 35.5963 34.4784 35.7206 34.2667 35.9327ZM29.1478 44.5333C28.8952 44.7055 28.5598 45.0205 28.4023 45.2333C28.1185 45.6168 28.1161 45.6996 28.1161 54.8503C28.1161 64.0009 28.1185 64.0837 28.4023 64.4672C28.5598 64.6801 28.8952 64.995 29.1478 65.1672L29.6071 65.4802L34.6079 65.4413C39.5312 65.4028 39.6155 65.3975 40.0366 65.0967C40.9382 64.4524 40.9085 64.8019 40.9085 54.8503C40.9085 44.8986 40.9382 45.2481 40.0366 44.6039C39.6155 44.3031 39.5312 44.2977 34.6079 44.2592L29.6071 44.2203L29.1478 44.5333ZM38.7194 54.8503V63.2782H34.4781H30.2367V54.8503V46.4224H34.4781H38.7194V54.8503ZM0.597073 46.7197C0.0216172 46.9988 0 47.2539 0 53.7667V60.0017L0.335888 60.338L0.671639 60.6744H4.3036H7.93543V60.9962C7.93543 61.1861 7.51526 61.8662 6.9093 62.657C5.76372 64.1519 5.64907 64.5636 6.21905 65.1344L6.5548 65.4708H10.877H15.1992L15.535 65.1344C16.0988 64.5697 15.9867 64.1642 14.8483 62.6507C14.2858 61.903 13.8241 61.1524 13.8222 60.9828L13.8186 60.6744H17.4504H21.0824L21.4181 60.338L21.754 60.0017L21.7497 53.6573C21.7451 46.9696 21.7535 47.0604 21.1132 46.7188C20.7159 46.5069 1.03421 46.5077 0.597073 46.7197ZM49.6649 46.7995C48.726 47.2693 48.7076 47.3885 48.7074 53.017L48.7071 58.0356L47.6126 60.6829C46.8824 62.4489 46.5181 63.5085 46.5181 63.8655C46.5181 64.4967 46.8958 65.0931 47.4382 65.3181C47.7162 65.4335 50.6735 65.4659 58.4529 65.439L69.0878 65.4023L69.5049 64.9843C70.2606 64.2274 70.2198 63.9387 68.9021 60.7174L67.7248 57.8392V52.7659C67.7248 47.7692 67.7203 47.687 67.4282 47.315C66.8295 46.5527 66.9121 46.5594 58.1861 46.5597C50.8035 46.5598 50.1045 46.5796 49.6649 46.7995ZM19.5649 53.6169V58.4818H10.877H2.18908V53.6169V48.752H10.877H19.5649V53.6169ZM65.5357 52.9317V57.1114H58.216H50.8962V52.9317V48.752H58.216H65.5357V52.9317ZM33.9992 58.9873C33.1514 59.2185 32.4639 60.3093 32.6246 61.168C32.8612 62.4307 34.2812 63.0953 35.4273 62.4796C36.6371 61.8298 36.6922 60.0025 35.5253 59.2367C35.1538 58.9929 34.4188 58.8729 33.9992 58.9873ZM66.7768 61.2911L67.5625 63.2096L58.3183 63.2449C53.2339 63.2642 49.0493 63.2555 49.0194 63.2254C48.9893 63.1954 49.3189 62.3002 49.7517 61.2363L50.5389 59.3018L58.2648 59.3372L65.9909 59.3725L66.7768 61.2911ZM34.7275 60.8571C34.7531 60.9892 34.6844 61.0855 34.5646 61.0855C34.3105 61.0855 34.157 60.8622 34.2774 60.6672C34.4011 60.4667 34.6743 60.5818 34.7275 60.8571ZM11.6295 61.3399C11.6295 61.891 11.7128 62.1147 12.1147 62.6417L12.5998 63.2782H10.9517C10.0453 63.2782 9.30361 63.2468 9.30361 63.2084C9.30361 63.1702 9.48831 62.8833 9.71406 62.5712C10.0359 62.1263 10.1245 61.8601 10.1245 61.3391V60.6744H10.877H11.6295V61.3399Z" fill="white"/>
</svg>
