<svg width="70" height="70" viewBox="0 0 70 70" fill="none" xmlns="http://www.w3.org/2000/svg">
<path fill-rule="evenodd" clip-rule="evenodd" d="M19.6923 1.3087C16.9491 2.71145 16.7254 2.91751 17.0185 3.77222C17.1288 4.09387 17.5868 4.38292 19.6923 5.4595L22.2331 6.75851L36.2171 6.765C52.08 6.7722 51.0488 6.84488 52.1286 5.64396C53.3943 4.23642 53.3943 2.53178 52.1286 1.12424C51.0488 -0.0766802 52.08 -0.00399548 36.2171 0.00320243L22.2331 0.00969459L19.6923 1.3087ZM23.7151 3.3841V4.51318H23.2941C22.9007 4.51318 20.751 3.55868 20.751 3.38396C20.751 3.20274 22.8338 2.27111 23.2564 2.26334L23.7151 2.25502V3.3841ZM50.4695 2.6015C50.688 2.81984 50.816 3.10917 50.816 3.3841C50.816 3.65903 50.688 3.94836 50.4695 4.1667L50.1231 4.51318H38.0482H25.9735V3.3841V2.25502H38.0482H50.1231L50.4695 2.6015ZM2.62939 8.13175C2.14581 8.28023 1.71727 8.56617 1.19431 9.08907C-0.0997556 10.383 0.00187272 8.31918 0.00187272 33.3048C0.00187272 58.2642 -0.0969325 56.2328 1.17808 57.4999C2.45648 58.7706 1.78023 58.7092 14.486 58.7092C20.5713 58.7092 25.5501 58.7589 25.5501 58.8195C25.5501 58.9223 24.908 61.2122 24.2652 63.4019L23.9854 64.3546H21.3737C18.789 64.3546 18.7585 64.3581 18.4156 64.7011C18.0783 65.0382 18.0691 65.1042 18.0691 67.1773C18.0691 69.2504 18.0783 69.3163 18.4156 69.6535L18.762 70H35.0072H51.2523L51.5987 69.6535C51.936 69.3163 51.9452 69.2504 51.9452 67.1773C51.9452 65.1042 51.936 65.0382 51.5987 64.7011C51.2558 64.3581 51.2253 64.3546 48.6406 64.3546H46.0289L45.7491 63.4019C45.1134 61.2361 44.4642 58.9228 44.4642 58.8228C44.4642 58.7638 49.5616 58.6983 55.7916 58.6771L67.1189 58.6386L67.8246 58.2636C68.66 57.8199 69.1541 57.3177 69.6088 56.451L69.9419 55.8159L69.979 33.5871C70.0213 8.24847 70.1245 10.4014 68.8046 9.07651C67.52 7.78696 70.7752 7.89916 34.9462 7.91031C7.25347 7.91892 3.23309 7.94644 2.62939 8.13175ZM67.222 10.6905L67.6835 11.1519L67.7203 30.4142L67.757 49.6765H35.0072H2.25731L2.29401 30.4228L2.33085 11.1693L2.68373 10.7896C2.87781 10.5809 3.16364 10.3572 3.31891 10.2928C3.47417 10.2283 17.8121 10.1875 35.1809 10.2024L66.7606 10.2292L67.222 10.6905ZM4.86521 15.0214C4.52151 15.3649 4.51868 15.3896 4.51868 18.0622C4.51868 21.6899 4.27816 21.4494 7.90629 21.4494C11.5344 21.4494 11.2939 21.6899 11.2939 18.0622C11.2939 14.4344 11.5344 14.6749 7.90629 14.6749C5.23347 14.6749 5.20877 14.6778 4.86521 15.0214ZM59.0669 15.0214C58.7232 15.3649 58.7204 15.3896 58.7204 18.0622C58.7204 21.6899 58.4799 21.4494 62.108 21.4494C65.7362 21.4494 65.4956 21.6899 65.4956 18.0622C65.4956 14.4344 65.7362 14.6749 62.108 14.6749C59.4352 14.6749 59.4105 14.6778 59.0669 15.0214ZM9.0355 18.0622V19.1913H7.90629H6.77709V18.0622V16.9331H7.90629H9.0355V18.0622ZM63.2372 18.0622V19.1913H62.108H60.9788V18.0622V16.9331H62.108H63.2372V18.0622ZM22.9635 19.4114C20.2133 20.0285 17.9328 21.8292 16.7269 24.3358C14.4416 29.0868 16.675 34.6984 21.6246 36.6415L22.5687 37.0121L21.4481 39.2497C20.8317 40.4804 20.3275 41.6497 20.3275 41.8483C20.3275 42.0467 20.4835 42.365 20.674 42.5555L21.0204 42.902H27.1027H33.1851L33.5314 42.5555C33.722 42.365 33.878 42.0479 33.878 41.8507C33.878 41.6535 33.1666 40.0679 32.2971 38.3271L30.7162 35.1619L31.3124 34.515C32.2412 33.5075 32.9993 32.2326 33.4102 30.9871C33.7296 30.0186 33.7864 29.6025 33.7864 28.2239C33.7864 26.8453 33.7296 26.4292 33.4102 25.4608C32.7537 23.4706 31.5663 21.9063 29.832 20.7463C27.8805 19.4414 25.1746 18.9153 22.9635 19.4114ZM26.4616 21.6655C30.0871 22.6097 32.3235 26.3094 31.4035 29.8411C31.2846 30.2975 30.9928 31.0356 30.7551 31.4816C30.3035 32.329 29.6457 33.053 29.5476 32.8108C29.5161 32.7332 29.1278 31.9711 28.6848 31.1172C27.8102 29.4319 27.4964 29.1635 26.7146 29.4316C26.3906 29.5427 26.1045 30.0041 24.9855 32.2196L23.6446 34.8744L23.2211 34.7919C22.3608 34.6243 21.0045 33.8619 20.1978 33.0925C18.4295 31.406 17.687 28.9035 18.2797 26.6281C19.2297 22.9812 22.9198 20.743 26.4616 21.6655ZM38.4446 22.2248C38.2044 22.3257 37.9494 22.5796 37.8583 22.8086C37.7048 23.1939 34.7559 33.1658 34.1665 35.2924C33.9189 36.1858 33.91 36.3444 34.0876 36.6881C34.1979 36.9012 34.4657 37.1462 34.6829 37.2325C35.0261 37.3688 46.2091 40.6668 47.5825 41.0368C48.2489 41.2163 48.8777 40.957 49.0941 40.4138C49.2458 40.0327 52.1936 30.0667 52.7743 27.9714C53.003 27.1464 53.0157 26.9417 52.8606 26.5729C52.6316 26.0287 52.7345 26.066 46.158 24.1448C38.4518 21.8937 38.9419 22.0157 38.4446 22.2248ZM4.86521 22.925C4.52151 23.2685 4.51868 23.2932 4.51868 25.9658C4.51868 29.5935 4.27816 29.353 7.90629 29.353C11.5344 29.353 11.2939 29.5935 11.2939 25.9658C11.2939 22.338 11.5344 22.5785 7.90629 22.5785C5.23347 22.5785 5.20877 22.5813 4.86521 22.925ZM59.0669 22.925C58.7232 23.2685 58.7204 23.2932 58.7204 25.9658C58.7204 29.5935 58.4799 29.353 62.108 29.353C65.7362 29.353 65.4956 29.5935 65.4956 25.9658C65.4956 22.338 65.7362 22.5785 62.108 22.5785C59.4352 22.5785 59.4105 22.5813 59.0669 22.925ZM45.0699 26.1916C47.8809 27.0143 50.2393 27.7428 50.3108 27.8105C50.4401 27.9328 47.5159 38.1865 47.2791 38.4413C47.1609 38.5684 36.8897 35.643 36.6428 35.4118C36.5665 35.3404 37.1068 33.2633 37.9698 30.311C39.6366 24.6087 39.6082 24.6955 39.8085 24.6955C39.8912 24.6955 42.2589 25.3688 45.0699 26.1916ZM9.0355 25.9658V27.0948H7.90629H6.77709V25.9658V24.8367H7.90629H9.0355V25.9658ZM63.2372 25.9658V27.0948H62.108H60.9788V25.9658V24.8367H62.108H63.2372V25.9658ZM4.86521 30.8286C4.52151 31.1721 4.51868 31.1968 4.51868 33.8693C4.51868 37.4971 4.27816 37.2566 7.90629 37.2566C11.5344 37.2566 11.2939 37.4971 11.2939 33.8693C11.2939 30.2416 11.5344 30.4821 7.90629 30.4821C5.23347 30.4821 5.20877 30.4849 4.86521 30.8286ZM59.0669 30.8286C58.7232 31.1721 58.7204 31.1968 58.7204 33.8693C58.7204 37.4971 58.4799 37.2566 62.108 37.2566C64.7809 37.2566 64.8056 37.2538 65.1491 36.9101C65.4928 36.5666 65.4956 36.5419 65.4956 33.8693C65.4956 30.2416 65.7362 30.4821 62.108 30.4821C59.4352 30.4821 59.4105 30.4849 59.0669 30.8286ZM9.0355 33.8693V34.9984H7.90629H6.77709V33.8693V32.7403H7.90629H9.0355V33.8693ZM63.2372 33.8693V34.9984H62.108H60.9788V33.8693V32.7403H62.108H63.2372V33.8693ZM27.4295 33.6624C27.5604 33.9368 27.6673 34.2165 27.6673 34.2843C27.6673 34.4127 26.3889 34.8964 26.2958 34.8031C26.2235 34.7308 26.998 33.1637 27.106 33.1637C27.1531 33.1637 27.2987 33.3881 27.4295 33.6624ZM29.8552 38.5268L30.9156 40.6438H27.1026H23.2896L24.13 38.9674L24.9704 37.291L25.8601 37.1956C26.3494 37.1431 27.1627 36.9509 27.6673 36.7687C28.172 36.5863 28.6321 36.4309 28.6898 36.4235C28.7476 36.416 29.2719 37.3624 29.8552 38.5268ZM4.86521 38.7322C4.52151 39.0757 4.51868 39.1004 4.51868 41.7729C4.51868 45.4007 4.27816 45.1602 7.90629 45.1602C11.5344 45.1602 11.2939 45.4007 11.2939 41.7729C11.2939 38.1452 11.5344 38.3857 7.90629 38.3857C5.23347 38.3857 5.20877 38.3885 4.86521 38.7322ZM59.0669 38.7322C58.7232 39.0757 58.7204 39.1004 58.7204 41.7729C58.7204 45.4007 58.4799 45.1602 62.108 45.1602C64.7809 45.1602 64.8056 45.1574 65.1491 44.8137C65.4928 44.4702 65.4956 44.4455 65.4956 41.7729C65.4956 38.1452 65.7362 38.3857 62.108 38.3857C59.4352 38.3857 59.4105 38.3885 59.0669 38.7322ZM9.0355 41.7729V42.902H7.90629H6.77709V41.7729V40.6438H7.90629H9.0355V41.7729ZM63.2372 41.7729V42.902H62.108H60.9788V41.7729V40.6438H62.108H63.2372V41.7729ZM67.7303 53.6966L67.6835 55.4584L67.222 55.9195L66.7606 56.3804H35.0072H3.25369L2.79227 55.9195L2.33085 55.4584L2.28399 53.6966L2.23727 51.9347H35.0072H67.7771L67.7303 53.6966ZM42.3324 59.6618C42.9752 61.8515 43.6173 64.1415 43.6173 64.2442C43.6173 64.3049 39.7428 64.3546 35.0072 64.3546C30.2716 64.3546 26.397 64.3049 26.397 64.2442C26.397 64.1415 27.0391 61.8515 27.6819 59.6618L27.9616 58.7092H35.0072H42.0527L42.3324 59.6618ZM49.6868 67.1773V67.7418H35.0072H20.3275V67.1773V66.6127H35.0072H49.6868V67.1773Z" fill="white"/>
</svg>
