<svg width="70" height="71" viewBox="0 0 70 71" fill="none" xmlns="http://www.w3.org/2000/svg">
<path fill-rule="evenodd" clip-rule="evenodd" d="M14.6437 0.229397C13.6831 0.561612 12.8804 1.13824 12.3912 1.84725C11.6109 2.97862 11.5861 3.16818 11.5861 7.98455V12.4032L7.57209 12.4466L3.55809 12.49L2.65082 12.9359C1.59477 13.4548 0.869299 14.1967 0.361294 15.2774L0 16.0461V36.1513V56.2566L0.322628 56.9043C0.73438 57.7307 1.55144 58.5457 2.37275 58.9492L3.0165 59.2655L14.7054 59.3019L26.3943 59.3384V61.7796V64.2209L25.4688 64.2887C23.1677 64.4573 21.338 66.2713 21.2078 68.513C21.161 69.3169 21.1902 69.45 21.4696 69.7097L21.7842 70.002H34.996H48.2079L48.5443 69.6662C48.9667 69.2451 48.9786 68.7047 48.593 67.4599C48.0479 65.6992 46.1383 64.2577 44.351 64.2577H43.6706V61.7988V59.3399L55.3596 59.3027L67.0485 59.2655L67.7778 58.8626C68.6575 58.3764 69.2416 57.7397 69.6759 56.7937L70 56.0874L69.9639 35.93L69.9279 15.7725L69.5623 15.0887C68.8558 13.7667 67.3969 12.7253 65.924 12.4914L65.348 12.3999L65.307 7.79472L65.266 3.18966L64.9027 2.5058C64.4111 1.58096 63.6372 0.83146 62.7294 0.401318L61.9753 0.0439364L38.666 0.0134366C16.5168 -0.0155588 15.3212 -0.00489067 14.6437 0.229397ZM56.802 2.60838L56.4908 3.18966L56.4522 11.1433L56.4138 19.097L56.7792 19.3837C57.2626 19.7629 57.73 19.7461 58.1423 19.3347C58.4726 19.0054 58.4789 18.9568 58.4789 16.7283V14.4574L62.2838 14.4995C66.5564 14.5468 66.5853 14.5531 67.4453 15.6143L67.8712 16.1398L67.9072 31.4455L67.9433 46.751H63.2111H58.4789V35.0756C58.4789 23.4709 58.4771 23.398 58.1947 23.0398C57.8707 22.629 57.1988 22.5513 56.7569 22.8735C56.4979 23.0624 56.489 23.3864 56.4222 34.8751L56.3536 46.6827L54.7708 46.721L53.1881 46.7592L53.0184 45.9394C52.7153 44.4764 51.6674 43.4984 50.2581 43.3632L49.6103 43.3011L49.0484 41.9243L48.4865 40.5474L48.8416 40.1274C49.3641 39.5093 49.5667 38.9241 49.5653 38.0363C49.5642 37.4035 49.4784 37.0953 49.135 36.4933C48.5923 35.5412 46.9028 33.8864 46.0563 33.4776C44.8782 32.9088 43.5016 33.1071 42.5637 33.9811L42.2109 34.3097L41.3297 33.9151C40.845 33.6982 40.2172 33.4461 39.9343 33.3551C39.4646 33.2039 39.4199 33.1461 39.4171 32.6872C39.4137 32.1076 38.9903 31.0992 38.5547 30.6331C38.0685 30.1128 37.2939 29.7936 36.1622 29.6471C32.9055 29.2255 30.9124 30.2602 30.5747 32.5477C30.4853 33.1526 30.4492 33.1957 29.8429 33.4223C29.4921 33.5536 28.9133 33.8063 28.5564 33.9839L27.9077 34.307L27.2942 33.8399C26.2593 33.052 25.0421 32.933 23.8912 33.5073C23.2546 33.8249 21.5677 35.3964 21.0365 36.1665C20.1852 37.4007 20.1693 38.7207 20.9914 39.9128L21.4688 40.6051L20.9357 41.9343L20.4026 43.2634L19.7254 43.3475C18.2169 43.5349 17.1659 44.5604 16.9518 46.0539L16.8617 46.6827L9.42258 46.7181L1.98348 46.7534L2.02009 31.514L2.0567 16.2748L2.46804 15.6939C3.24863 14.5917 3.44648 14.5472 7.78119 14.5013L11.5861 14.461V28.9435C11.5861 43.2834 11.5888 43.4286 11.8621 43.6753C12.2404 44.0169 12.9039 43.9928 13.2734 43.6243L13.5742 43.3243L13.6428 23.462C13.6937 8.71204 13.7525 3.52953 13.8709 3.32643C14.1083 2.91967 14.7615 2.33484 15.151 2.18043C15.3725 2.09248 22.857 2.04133 36.3035 2.03572L57.1134 2.02711L56.802 2.60838ZM61.7264 2.17263C61.9387 2.25264 62.2897 2.48337 62.5063 2.68552C63.2521 3.381 63.2779 3.56441 63.2779 8.1774V12.4217H60.8784H58.4789V8.19067C58.4789 5.53376 58.5332 3.81648 58.6248 3.57467C59.0759 2.3838 60.5357 1.72375 61.7264 2.17263ZM17.2523 4.41498C17.0129 4.51893 16.7044 4.77524 16.5667 4.98477C16.3314 5.34297 16.3143 5.93819 16.2787 14.9585C16.237 25.5304 16.2252 25.3647 17.0566 25.9227L17.5226 26.2355L25.0778 26.2334C30.846 26.2319 32.7131 26.191 32.9717 26.0605C33.1579 25.9664 33.451 25.6813 33.623 25.4269L33.9356 24.9641L33.9353 15.3078C33.9352 6.38858 33.9168 5.61501 33.6954 5.17283C33.2064 4.19642 33.3771 4.2153 25.0918 4.22104C19.1046 4.22514 17.6044 4.26235 17.2523 4.41498ZM38.3664 4.76156C37.7316 5.02074 37.5823 5.90209 38.092 6.37996C38.4093 6.67717 38.4126 6.6773 45.3537 6.6773H52.2981L52.5777 6.37791C52.9287 6.0022 52.9359 5.43679 52.5952 5.01705L52.3332 4.69413L45.4996 4.66664C41.7238 4.65146 38.5319 4.69399 38.3664 4.76156ZM31.8789 15.2255V24.1839H25.0918H18.3046V15.2255V6.26699H25.0918H31.8789V15.2255ZM38.1114 9.74848C37.6795 10.1792 37.6714 10.7726 38.092 11.1669C38.4093 11.4641 38.413 11.4643 45.3352 11.4643H52.2609L52.5592 11.1478C52.9546 10.7278 52.9391 10.1659 52.5206 9.74848L52.1842 9.41271H45.316H38.4479L38.1114 9.74848ZM38.1114 14.5354C37.6795 14.9661 37.6714 15.5596 38.092 15.9539C38.4093 16.2511 38.413 16.2512 45.3352 16.2512H52.2609L52.5592 15.9347C52.9546 15.5147 52.9391 14.9529 52.5206 14.5354L52.1842 14.1997H45.316H38.4479L38.1114 14.5354ZM38.1114 19.3224C37.9263 19.5071 37.7748 19.8175 37.7748 20.0124C37.7748 20.2073 37.9263 20.5178 38.1114 20.7024L38.4479 21.0382H45.316H52.1842L52.5206 20.7024C52.7057 20.5178 52.8572 20.2073 52.8572 20.0124C52.8572 19.8175 52.7057 19.5071 52.5206 19.3224L52.1842 18.9866H45.316H38.4479L38.1114 19.3224ZM38.0728 24.0901C37.6774 24.5101 37.6929 25.072 38.1114 25.4894L38.4479 25.8252H42.2868C44.848 25.8252 46.2389 25.7737 46.4657 25.6706C47.1614 25.3545 47.2233 24.2698 46.5657 23.9187C46.3921 23.826 44.8626 23.7736 42.3324 23.7736H38.3711L38.0728 24.0901ZM35.9923 31.7031C37.1457 31.8689 37.3627 32.115 37.3655 33.2601C37.3685 34.5369 37.5115 34.7129 38.9439 35.2041C39.6206 35.436 40.6295 35.8566 41.1857 36.1385C42.3873 36.7472 42.6084 36.724 43.511 35.8945C43.8627 35.5713 44.259 35.2678 44.3917 35.2201C44.9184 35.0304 46.0168 35.7871 46.9941 37.0128C47.7251 37.9295 47.6948 38.3383 46.8243 39.2971C46.4472 39.7124 46.1387 40.1759 46.1387 40.3273C46.1387 40.4786 46.3767 41.0781 46.6678 41.6594C46.9588 42.2406 47.3632 43.2195 47.5669 43.8344C47.7703 44.4493 48.0236 45.0243 48.1296 45.112C48.2356 45.1998 48.7103 45.3005 49.1844 45.3357C50.4785 45.4322 50.6401 45.4888 50.8666 45.9256C51.3022 46.7658 51.3476 46.751 48.3283 46.751C46.2454 46.751 45.5712 46.7097 45.5384 46.5801C45.5147 46.4861 45.3628 45.8616 45.2008 45.1925C44.3067 41.4966 41.3595 38.4993 37.6376 37.5011C36.3972 37.1684 33.6404 37.1629 32.4273 37.4907C31.3866 37.7719 29.7997 38.4957 28.9596 39.0722C26.7832 40.5659 25.0572 43.2535 24.6028 45.8564L24.4466 46.751H21.7184H18.9902V46.3645C18.9902 45.7142 19.4593 45.4196 20.5913 45.3594C21.8116 45.2946 22.0308 45.1181 22.4035 43.9005C22.5567 43.3996 22.9313 42.4775 23.2357 41.8514C23.5401 41.2251 23.7892 40.5608 23.7892 40.3751C23.7892 40.1705 23.5188 39.7132 23.1036 39.2155C22.7076 38.7409 22.4181 38.2576 22.4181 38.0713C22.4181 37.4963 24.1752 35.5698 24.9889 35.2526C25.4258 35.0823 25.926 35.3084 26.6904 36.0217C27.0489 36.3562 27.4378 36.63 27.5545 36.63C27.6711 36.63 28.337 36.3611 29.0343 36.0323C29.7316 35.7037 30.7114 35.3009 31.2117 35.1375C31.7119 34.974 32.2144 34.7352 32.3282 34.6068C32.4583 34.4599 32.5549 34.0053 32.5886 33.381C32.6539 32.1691 32.9149 31.8336 33.8986 31.697C34.8654 31.5625 35.0178 31.5631 35.9923 31.7031ZM36.7464 39.4337C40.0343 40.12 42.8271 42.9811 43.3416 46.1903L43.4318 46.7531L35.0159 46.7179L26.6 46.6827L26.6479 46.207C26.7929 44.7668 27.8394 42.8707 29.2052 41.5739C31.2338 39.6476 34.004 38.8614 36.7464 39.4337ZM67.9397 52.3269C67.9397 55.8372 67.9384 55.8531 67.6053 56.3421C66.9056 57.3691 69.9209 57.2824 34.9292 57.2824H3.53698L3.08368 56.9746C2.05698 56.2776 2.06136 56.2964 2.01598 52.3489L1.97512 48.8026H34.9575H67.9397V52.3269ZM41.5454 61.7958V64.1893L34.9982 64.2248L28.451 64.2603V61.7958V59.3313L34.9982 59.3667L41.5454 59.4023V61.7958ZM45.3042 66.5767C45.8172 66.8377 46.55 67.5716 46.55 67.8242C46.55 67.9004 41.9517 67.9505 34.9561 67.9505H23.3624L23.61 67.5272C23.871 67.0809 24.367 66.6708 24.906 66.4556C25.097 66.3792 29.2216 66.323 35.0037 66.3178C44.4441 66.3095 44.7965 66.3184 45.3042 66.5767Z" fill="white"/>
</svg>
