<svg width="70" height="70" viewBox="0 0 70 70" fill="none" xmlns="http://www.w3.org/2000/svg">
<path fill-rule="evenodd" clip-rule="evenodd" d="M9.04048 1.12893V2.25785H10.1707H11.3009V1.12893V0H10.1707H9.04048V1.12893ZM18.082 0.184438C17.81 0.270095 17.2675 0.660562 16.8764 1.05202C15.8842 2.04519 15.6011 3.11273 15.9877 4.40182C16.1906 5.07819 17.0713 6.10735 17.6534 6.34823L18.082 6.52561V12.2941V18.0628H19.2122H20.3424V12.2941V6.52561L20.771 6.34823C21.353 6.10735 22.2337 5.07819 22.4366 4.40182C22.8016 3.18456 22.5474 2.11744 21.6561 1.12723C20.7417 0.111481 19.4208 -0.237074 18.082 0.184438ZM27.1235 1.12893V2.25785H28.2537H29.3839V1.12893V0H28.2537H27.1235V1.12893ZM19.9955 2.60429C20.6964 3.30422 20.1998 4.5157 19.2122 4.5157C18.6314 4.5157 18.082 3.9669 18.082 3.38678C18.082 2.80665 18.6314 2.25785 19.2122 2.25785C19.4874 2.25785 19.777 2.38584 19.9955 2.60429ZM9.04048 6.77355V9.0314H12.431H15.8216V7.90248V6.77355H13.5612H11.3009V5.64463V4.5157H10.1707H9.04048V6.77355ZM27.1235 5.64463V6.77355H24.8631H22.6027V12.4182V18.0628H23.7329H24.8631V13.5471V9.0314H25.9933H27.1235V12.4182V15.805H30.5141H33.9046V14.676V13.5471H31.6442H29.3839V11.2893V9.0314H32.8986H36.4132L36.5908 9.45955C36.9841 10.4081 38.4119 11.2893 39.5556 11.2893C41.3061 11.2893 42.9461 9.65104 42.9461 7.90248C42.9461 6.14361 41.3291 4.5157 39.5821 4.5157C38.4121 4.5157 36.9885 5.38653 36.5908 6.34541L36.4132 6.77355H32.8986H29.3839V5.64463V4.5157H28.2537H27.1235V5.64463ZM57.0496 5.77939C53.7521 6.38351 51.0568 8.13998 49.2873 10.8375C48.9158 11.404 48.5739 11.9868 48.5276 12.1326C48.4511 12.3727 48.2529 12.4018 46.4109 12.4432C44.2008 12.4927 43.9763 12.5663 43.3081 13.4603C43.0467 13.81 43.0168 14.0506 43.0168 15.805C43.0168 17.5593 43.0467 17.7999 43.3081 18.1496C43.8965 18.9369 44.2929 19.1175 45.5464 19.17L46.7133 19.2188L46.248 20.5812C45.644 22.3488 45.3513 24.0383 45.2477 26.3533L45.1641 28.2231H46.3861C47.3248 28.2231 47.6081 28.2679 47.6081 28.4159C47.6081 28.8769 48.6435 30.6289 49.2411 31.1791C50.0413 31.916 51.3681 32.553 52.3603 32.6769L53.1178 32.7713V35.1432V37.515L52.1642 38.1512C51.6398 38.501 50.8471 39.1123 50.403 39.5097L49.5953 40.2322L44.0103 38.6457L38.4254 37.0592V30.9478V24.8364H34.1487H29.8721L28.6775 23.6369C28.0204 22.9772 27.4165 22.4374 27.3353 22.4374C27.254 22.4374 26.3455 23.0407 25.3163 23.778C24.2871 24.5153 23.3951 25.1186 23.3338 25.1186C23.2727 25.1186 23.1088 24.4041 22.9696 23.531C22.8305 22.658 22.6525 21.5783 22.5739 21.1321L22.4312 20.3207H19.2122H15.9931L15.8504 21.1321C15.7719 21.5783 15.5939 22.658 15.4547 23.531C15.3156 24.4043 15.151 25.1186 15.089 25.1186C15.0269 25.1186 14.1739 24.5424 13.1936 23.8381C12.2132 23.1339 11.317 22.5216 11.2021 22.4776C11.0675 22.426 10.5587 22.8256 9.76959 23.603L8.54602 24.8083L7.35777 25.043C4.45926 25.6152 2.19762 27.3574 0.905246 30.0132C-0.0212261 31.9173 0.00392062 31.432 0.00392062 47.4149C0.00392062 63.6158 -0.0337994 62.959 1.01713 65.0543C2.0449 67.1033 3.88541 68.6862 6.23832 69.5448L7.27456 69.9228L23.9802 69.9615L40.6857 70V65.4811V60.962H43.5112H46.3367V65.4777V69.9934H55.9433H65.5499V57.162C65.5499 48.8006 65.497 43.9517 65.3984 43.2426C65.0633 40.8365 63.9227 37.9389 62.7048 36.3998C62.1692 35.723 62.0847 35.5109 61.923 34.4369C61.8232 33.7746 61.7402 33.166 61.7386 33.0843C61.7369 33.0026 62.3236 32.5583 63.0423 32.0972C66.62 29.8009 68.9968 26.3796 69.8018 22.3668C69.9359 21.6985 70 20.375 70 18.2745C70 15.4517 69.9703 15.0675 69.6738 14.041C68.9902 11.6745 67.5564 9.44205 65.8676 8.11471C64.786 7.26463 63.1679 6.43629 61.873 6.06995C60.6911 5.73551 58.1308 5.58127 57.0496 5.77939ZM40.3389 7.11999C41.0398 7.81992 40.5432 9.0314 39.5556 9.0314C38.9748 9.0314 38.4254 8.4826 38.4254 7.90248C38.4254 7.32235 38.9748 6.77355 39.5556 6.77355C39.8308 6.77355 40.1204 6.90154 40.3389 7.11999ZM61.3117 8.26331C62.4646 8.6058 63.8522 9.37699 64.7438 10.1709C66.2897 11.5472 67.5181 13.9506 67.7497 16.0519L67.8467 16.9339H64.4505H61.0541L61.0062 15.3915C60.9547 13.7251 60.8321 13.4111 59.9861 12.7797C59.6178 12.5047 59.3596 12.4849 55.2868 12.4182L50.9771 12.3476L51.3551 11.7832C52.5372 10.0182 54.6399 8.6264 56.8863 8.12234C58.0587 7.8593 60.1791 7.92689 61.3117 8.26331ZM2.25935 9.21584C1.56598 9.43415 0.383381 10.6573 0.170765 11.3762C-0.220563 12.6993 0.0553441 13.7541 1.05372 14.7514C2.04589 15.7423 3.11462 16.0254 4.40572 15.639C5.08284 15.4364 6.11315 14.5566 6.35431 13.9752L6.53189 13.5471H10.0465H13.5612V15.805V18.0628H14.6914H15.8216V14.676V11.2893H11.1767H6.53189L6.35431 10.8611C6.11315 10.2797 5.08284 9.4 4.40572 9.19736C3.73849 8.99768 2.93026 9.00459 2.25935 9.21584ZM4.1729 11.6357C4.87376 12.3356 4.37718 13.5471 3.38954 13.5471C2.80876 13.5471 2.25935 12.9983 2.25935 12.4182C2.25935 11.8381 2.80876 11.2893 3.38954 11.2893C3.66474 11.2893 3.95435 11.4172 4.1729 11.6357ZM36.165 14.676V15.805H37.2952H38.4254V14.676V13.5471H37.2952H36.165V14.676ZM58.7688 15.805V16.9339H51.9876H45.2065V15.805V14.676H51.9876H58.7688V15.805ZM58.7688 21.4496V23.7074H59.5521C60.2056 23.7074 60.3959 23.7677 60.6995 24.0709C61.0079 24.379 61.0516 24.5222 60.9862 25.0098C60.9212 25.4942 60.735 25.76 59.8068 26.6925L58.7046 27.7999L59.2297 31.4984C59.5186 33.5326 59.7079 35.2401 59.6503 35.2929C59.5928 35.3457 58.7193 35.6213 57.7092 35.9052C56.6991 36.1893 55.7613 36.4546 55.6254 36.4948C55.3985 36.5619 55.3782 36.4107 55.3782 34.6534V32.7388H56.5084H57.6386V31.6099V30.481H55.1473C52.1351 30.481 51.7418 30.386 50.782 29.4274C49.9813 28.6276 49.7272 27.9852 49.7272 26.7603V25.9653H48.5859H47.4444L47.5174 25.5772C47.5577 25.3638 47.6322 24.8135 47.683 24.3544C47.8034 23.2683 48.2275 21.6661 48.7584 20.2907L49.1826 19.1917H53.9758H58.7688V21.4496ZM67.7676 20.3897C67.4711 24.5869 65.1823 28.2375 61.4997 30.3871C61.3841 30.4546 61.3048 30.2064 61.2355 29.5612L61.1366 28.6389L61.8443 27.8914C63.6376 25.9973 63.7708 24.033 62.2117 22.4727C61.8044 22.0653 61.3719 21.7318 61.2502 21.7318C61.066 21.7318 61.0291 21.5201 61.0291 20.4618V19.1917H64.4407H67.8522L67.7676 20.3897ZM50.0741 21.796C49.3732 22.496 49.8698 23.7074 50.8574 23.7074C51.4382 23.7074 51.9876 23.1586 51.9876 22.5785C51.9876 21.9984 51.4382 21.4496 50.8574 21.4496C50.5822 21.4496 50.2926 21.5776 50.0741 21.796ZM20.5343 22.8255C20.5728 22.9614 20.7392 23.9297 20.9043 24.9775C21.0694 26.0253 21.2517 27.0014 21.3094 27.1466C21.3705 27.3007 21.785 27.5499 22.3045 27.7449L23.195 28.0793L25.1403 26.6845L27.0858 25.2899L28.0077 26.211L28.9298 27.1319L27.5336 29.0752L26.1373 31.0184L26.4721 31.9078C26.6673 32.4267 26.9168 32.8407 27.0711 32.9018C27.2164 32.9594 28.1936 33.1416 29.2426 33.3064C30.2915 33.4714 31.261 33.6376 31.397 33.676C31.6088 33.7357 31.6442 33.9262 31.6442 35.0035C31.6442 36.1921 31.6267 36.2653 31.3264 36.3347C31.1515 36.375 30.0977 36.5588 28.9846 36.7433C27.8715 36.9276 26.9127 37.1339 26.8538 37.2018C26.795 37.2696 26.6087 37.6971 26.4397 38.1516L26.1326 38.9781L26.6056 39.6333C26.8657 39.9937 27.1242 40.368 27.18 40.4649C27.2601 40.6042 26.5153 40.6383 23.6353 40.6272C21.1055 40.6173 20.1572 40.5736 20.5376 40.4844C21.4139 40.2789 22.6967 39.5247 23.3215 38.8476C23.6387 38.5038 24.0995 37.7983 24.3453 37.2799C24.7502 36.4263 24.7925 36.21 24.7925 34.9893C24.7925 33.7172 24.7628 33.5816 24.2648 32.5751C23.6294 31.2907 22.8114 30.4907 21.498 29.8692C20.6434 29.4648 20.4268 29.4226 19.2048 29.4226C17.9312 29.4226 17.7955 29.4523 16.7879 29.9497C15.502 30.5844 14.7012 31.4015 14.079 32.7134C13.6747 33.5659 13.6319 33.7844 13.6319 34.9967C13.6319 36.209 13.6747 36.4275 14.079 37.2799C14.3248 37.7983 14.7856 38.5038 15.1028 38.8476C15.7277 39.5247 17.0104 40.2789 17.8867 40.4844C18.2672 40.5736 17.3188 40.6173 14.789 40.6272C11.909 40.6383 11.1642 40.6042 11.2443 40.4649C11.3001 40.368 11.5581 39.9944 11.8176 39.6349L12.2893 38.9812L11.9535 38.0888C11.7573 37.5675 11.5077 37.1528 11.3533 37.0915C11.2079 37.034 10.2307 36.8518 9.18175 36.687C8.1328 36.522 7.16324 36.3558 7.02733 36.3174C6.8157 36.2577 6.7801 36.0675 6.7801 34.9967C6.7801 33.9259 6.8157 33.7357 7.02733 33.676C7.16338 33.6376 8.1328 33.4714 9.18175 33.3064C10.2307 33.1416 11.2079 32.9594 11.3533 32.9018C11.5075 32.8407 11.757 32.4267 11.9523 31.9078L12.2871 31.0184L10.8907 29.0752L9.49453 27.1319L10.4166 26.211L11.3386 25.2899L13.2993 26.6956L15.2599 28.1011L16.1338 27.7503C16.6245 27.5534 17.0494 27.2863 17.103 27.1411C17.1554 26.9988 17.3382 26.0253 17.5093 24.9775C17.6802 23.9297 17.8516 22.9614 17.89 22.8255C17.9498 22.6141 18.1402 22.5785 19.2122 22.5785C20.2842 22.5785 20.4746 22.6141 20.5343 22.8255ZM36.165 33.8678V40.6413H33.1409H30.1168L29.6091 39.9354C29.3298 39.5471 29.1013 39.1785 29.1013 39.1161C29.1013 39.0536 29.8166 38.8889 30.6906 38.7499C31.5648 38.6109 32.6456 38.4331 33.0923 38.3547L33.9046 38.2121V34.9967V31.7812L33.0923 31.6387C32.6456 31.5602 31.5626 31.3821 30.6857 31.2427C29.6958 31.0852 29.1067 30.9299 29.1317 30.8329C29.1539 30.7468 29.7441 29.8718 30.4434 28.8881L31.7149 27.0996L33.9399 27.0969L36.165 27.0942V33.8678ZM8.16091 29.1465C8.80003 30.0423 9.32303 30.8238 9.32303 30.883C9.32303 30.9423 8.6079 31.1044 7.7337 31.2434C6.85964 31.3824 5.7789 31.5602 5.33205 31.6387L4.51973 31.7812V34.9967V38.2121L5.33205 38.3547C5.7789 38.4331 6.85964 38.6109 7.7337 38.7499C8.6079 38.8889 9.32303 39.0536 9.32303 39.1161C9.32303 39.1785 9.09473 39.547 8.81571 39.9349C8.26814 40.6962 8.28523 40.6924 7.06265 40.3272C4.87983 39.6751 3.07012 37.7645 2.47564 35.4847C1.89148 33.2446 2.59389 30.7586 4.2797 29.099C5.00684 28.3834 6.36787 27.525 6.78349 27.5201C6.90188 27.5187 7.52165 28.2505 8.16091 29.1465ZM20.2553 31.7815C21.4694 32.1398 22.6027 33.6921 22.6027 34.9967C22.6027 36.3013 21.4694 37.8536 20.2553 38.2119C18.9308 38.6028 17.8747 38.3272 16.8764 37.3299C15.4471 35.9022 15.4471 34.0927 16.8764 32.6619C17.8674 31.6699 18.9349 31.3917 20.2553 31.7815ZM59.7577 37.7366C59.7577 37.8349 55.7927 41.1028 55.7417 41.0465C55.7155 41.0177 55.4939 40.5949 55.2489 40.1069L54.8038 39.2197L55.2999 39.0126C55.7651 38.8184 59.4207 37.7043 59.6517 37.6862C59.7101 37.6815 59.7577 37.7043 59.7577 37.7366ZM62.1877 39.9847C63.0459 41.9925 63.22 43.0091 63.2062 45.9331C63.1954 48.1923 63.1467 48.7848 62.8968 49.6974C62.2993 51.8786 61.0553 54.3338 59.7709 55.866C59.0027 56.7825 57.5282 57.7725 56.2226 58.2485L55.1663 58.6336L49.0562 58.677L42.9461 58.7205V56.4545V54.1884H48.4466C54.1528 54.1884 54.4463 54.1615 55.0753 53.5792C55.3249 53.3482 58.6275 47.053 58.6275 46.8083C58.6275 46.7218 56.6539 45.8114 56.5974 45.8718C56.5657 45.9055 55.865 47.2826 55.0401 48.9319L53.5404 51.9306H51.0686H48.5971V49.9674C48.5971 47.0399 49.0063 45.3235 50.1716 43.3643C50.658 42.5464 52.513 40.5002 52.768 40.5002C52.8463 40.5002 53.37 41.421 53.9318 42.5464C54.4935 43.6718 55.0011 44.5887 55.0598 44.5842C55.1184 44.5796 56.6285 43.3438 58.4156 41.838C60.2027 40.3321 61.6966 39.0984 61.7355 39.0961C61.7743 39.094 61.9778 39.4938 62.1877 39.9847ZM44.1469 41.0164C46.2449 41.6104 48.0106 42.139 48.0711 42.191C48.1314 42.2431 48.0241 42.5667 47.8325 42.91C47.6409 43.2532 47.2965 44.0936 47.0669 44.7773C46.8375 45.461 46.6249 46.0451 46.5945 46.0754C46.5643 46.1056 45.2383 45.7631 43.648 45.3141L40.7564 44.4979L40.7171 42.5695L40.6778 40.6413H39.5516H38.4254V40.0163V39.3912L39.379 39.6638C39.9034 39.8138 42.049 40.4224 44.1469 41.0164ZM4.43313 41.6068C4.8561 41.863 5.66842 42.2426 6.23832 42.4506L7.27456 42.8286L22.85 42.8674L38.4254 42.9064V47.4024V51.8985L37.7604 51.9982C35.8185 52.289 34.2635 53.8423 33.9723 55.782L33.8725 56.4463H32.7583H31.6442V50.8016V45.157H27.1235H22.6027V50.8016V56.4463H20.3424H18.082V62.0909V67.7355H13.1671C7.87356 67.7355 7.35678 67.6803 5.94221 66.9643C4.94369 66.4588 3.64849 65.2009 3.13426 64.2374C2.24113 62.5636 2.25935 62.8423 2.25935 50.8316V39.9139L2.96176 40.5276C3.34801 40.8651 4.01015 41.3508 4.43313 41.6068ZM43.3435 47.5632C44.7178 47.9553 45.9536 48.3088 46.0895 48.3489C46.3077 48.4131 46.3367 48.627 46.3367 50.1761V51.9306H43.5112H40.6857V49.3905C40.6857 47.9934 40.7216 46.8504 40.7653 46.8504C40.8091 46.8504 41.9694 47.1712 43.3435 47.5632ZM9.04048 48.5438V49.6727H14.6914H20.3424V48.5438V47.4149H14.6914H9.04048V48.5438ZM29.3839 51.9306V56.4463H27.1235H24.8631V51.9306V47.4149H27.1235H29.3839V51.9306ZM9.04048 53.0595V54.1884H14.6914H20.3424V53.0595V51.9306H14.6914H9.04048V53.0595ZM40.6857 56.4463V58.7041H39.3391C37.8025 58.7041 37.2473 58.5296 36.6938 57.8725C36.0097 57.0604 36.0094 55.8324 36.6934 55.0206C37.2507 54.359 37.7532 54.2001 39.3083 54.1939L40.6857 54.1884V56.4463ZM63.2895 61.2442V67.7355H55.9433H48.5971V64.3633V60.9909L52.0229 60.9287C55.7664 60.8608 56.3534 60.7559 58.2593 59.815C59.9792 58.9659 61.6968 57.3582 62.6822 55.6751C62.9773 55.1709 63.2348 54.7571 63.2542 54.7556C63.2735 54.7542 63.2895 57.674 63.2895 61.2442ZM9.04048 57.5752V58.7041H12.431H15.8216V57.5752V56.4463H12.431H9.04048V57.5752ZM34.611 58.8174C34.611 58.8797 34.8811 59.2059 35.2114 59.5422C35.8844 60.2279 36.9225 60.7689 37.824 60.904L38.4254 60.994V64.3648V67.7355H29.3839H20.3424V63.2198V58.7041H27.4767C31.4005 58.7041 34.611 58.7551 34.611 58.8174ZM9.04048 62.0909V63.2198H12.431H15.8216V62.0909V60.962H12.431H9.04048V62.0909ZM22.6027 64.3487V65.4777H23.7329H24.8631V64.3487V63.2198H23.7329H22.6027V64.3487ZM27.1235 64.3487V65.4777H28.2537H29.3839V64.3487V63.2198H28.2537H27.1235V64.3487ZM31.6442 64.3487V65.4777H32.7744H33.9046V64.3487V63.2198H32.7744H31.6442V64.3487Z" fill="white"/>
</svg>
