<svg width="62" height="70" viewBox="0 0 62 70" fill="none" xmlns="http://www.w3.org/2000/svg">
<path fill-rule="evenodd" clip-rule="evenodd" d="M19.2548 0.309668C17.6741 1.03361 17.01 2.23247 17.0047 4.37214C17.0015 5.60549 16.9494 5.8822 16.6671 6.16408C16.125 6.70533 15.6487 6.57848 14.7409 5.651C13.1641 4.03992 11.8853 3.59568 10.2177 4.07959C9.36408 4.32746 9.05256 4.56433 7.21633 6.36211C4.91549 8.61446 4.48009 9.31291 4.48009 10.7516C4.48009 12.019 4.77826 12.6294 6.06574 13.9981C6.96608 14.9555 7.15005 15.2423 7.05723 15.5445C6.8392 16.2553 6.66157 16.3323 5.2407 16.3323C3.51732 16.3323 2.51815 16.6636 1.66172 17.5189C0.651703 18.5273 0.472237 19.2698 0.480751 22.4046C0.488597 25.3069 0.610134 25.909 1.39428 26.9357C2.11348 27.8771 3.27425 28.33 4.98093 28.3352C5.7614 28.3374 6.4826 28.3944 6.58361 28.4617C6.76775 28.5844 7.15122 29.2259 7.15122 29.4109C7.15122 29.4652 6.69496 29.9991 6.13753 30.5976C4.90931 31.9156 4.48861 32.7789 4.48377 33.9908C4.47826 35.3426 4.91198 36.0372 7.12301 38.2178C8.82802 39.8992 9.17677 40.1694 9.64205 40.1694C10.3774 40.1694 11.1579 39.3938 11.1579 38.6627C11.1579 38.2103 10.8825 37.8487 9.32151 36.2521C8.07092 34.9729 7.48511 34.2525 7.48511 33.9936C7.48511 33.7556 7.86141 33.2221 8.49112 32.5672C9.67777 31.3333 10.0374 30.5814 10.0374 29.3344C10.0374 28.292 9.74689 27.4967 9.07543 26.7016C8.29613 25.779 7.44638 25.4481 5.64871 25.3681C3.42066 25.2687 3.47842 25.3496 3.47842 22.3333C3.47842 19.3238 3.47275 19.3328 5.39212 19.3328C7.14337 19.3328 7.90965 19.0746 8.84622 18.1691C9.43687 17.598 9.69196 17.1861 9.90014 16.4664C10.3663 14.8546 10.0302 13.86 8.46575 12.2212C7.8387 11.5643 7.48511 11.0522 7.48511 10.8013C7.48511 10.3339 10.9092 6.83085 11.3663 6.83085C11.5237 6.83085 12.1698 7.3181 12.802 7.91352C14.0781 9.11554 14.8135 9.49794 15.8494 9.49794C17.0521 9.49794 17.8596 9.15155 18.7751 8.24307C19.7462 7.27942 20.006 6.49397 20.006 4.52233C20.006 3.86939 20.0902 3.31297 20.2064 3.19695C20.3446 3.05893 21.1942 2.99692 22.9491 2.99692C26.0676 2.99692 26.016 2.96558 26.016 4.86471C26.016 7.15607 26.5935 8.25741 28.2189 9.0662C29.9413 9.92317 31.5094 9.53944 33.2994 7.82317C33.8687 7.27742 34.4348 6.83135 34.5575 6.83202C34.6803 6.83252 35.0061 6.98204 35.2815 7.16424C36.4126 7.91219 37.7022 7.31126 37.7022 6.03623C37.7022 4.63334 35.5665 3.54901 33.6892 3.99858C33.0056 4.16244 32.5965 4.42681 31.5995 5.34979C29.6611 7.1444 29.1117 6.92453 28.9818 4.30262C28.9149 2.94841 28.8317 2.57119 28.4608 1.93942C28.2182 1.52602 27.813 1.02528 27.5605 0.826915C26.611 0.0811316 26.1373 -0.00371487 22.9489 0.000119066C20.3725 0.00328623 19.8232 0.0492938 19.2548 0.309668ZM34.7807 11.5631C25.1456 13.155 17.674 20.2263 15.5631 29.7511C15.1471 31.6289 15.0653 36.1274 15.4098 38.1956C15.9042 41.1637 17.0002 44.1363 18.4731 46.5037L19.1472 47.5872L18.4948 48.2482L17.8424 48.9093L17.2912 48.3757L16.7399 47.8423L10.2006 54.3825C2.67308 61.911 2.73719 61.8256 2.73084 64.3398C2.72767 65.553 2.79328 65.8911 3.1871 66.6917C4.61048 69.5858 7.9993 70.7973 10.9075 69.452C11.7803 69.0482 12.7467 68.1539 18.4174 62.5034L24.9256 56.0182L24.3857 55.4621L23.8459 54.9059L24.4973 54.2708L25.1488 53.6355L26.7928 54.5738C33.5062 58.4056 41.6981 58.6576 48.6048 55.2446C58.4252 50.3918 63.4839 39.4189 60.8115 28.7671C58.6828 20.283 51.8084 13.6881 43.1279 11.8026C41.1719 11.3777 36.6824 11.249 34.7807 11.5631ZM20.9084 12.2459C16.9598 13.1037 13.878 16.0786 12.8975 19.9787C12.7145 20.707 12.6482 21.5638 12.6871 22.7022C12.7412 24.2832 12.7664 24.3823 13.2123 24.765C13.8439 25.3071 14.7087 25.3041 15.2556 24.7578C15.6329 24.3813 15.6654 24.2236 15.6654 22.7752C15.6654 19.5498 17.0357 17.154 19.6254 15.8516C20.5087 15.4074 22.0566 14.9988 22.8566 14.9988C24.007 14.9988 24.7511 13.9736 24.3327 12.965C23.9441 12.0283 22.9099 11.8111 20.9084 12.2459ZM41.7168 14.6012C50.5495 16.1161 57.2833 23.1594 58.3998 32.0511C58.8948 35.9932 58.1482 40.1117 56.2854 43.7128C51.7475 52.4858 41.4595 56.7023 32.0283 53.6543C25.0995 51.4153 19.673 45.184 18.415 38.0222C18.0962 36.2066 18.1015 32.7682 18.4262 30.9089C19.8604 22.6975 26.6401 15.9801 34.8869 14.5997C36.8177 14.2765 39.8276 14.2772 41.7168 14.6012ZM35.1146 16.0875C31.2319 16.8049 28.1798 18.3758 25.3201 21.1284C22.3606 23.977 20.4072 27.7199 19.8327 31.6426C19.5235 33.7539 19.7035 37.2124 20.2262 39.2036C21.6155 44.4969 25.2528 48.8659 30.2732 51.2721C33.4882 52.813 36.7067 53.3886 40.1213 53.0332C44.6193 52.565 48.4131 50.7711 51.5692 47.6196C58.8587 40.3411 58.854 28.6779 51.5587 21.3281C49.1387 18.8901 46.3028 17.2703 42.9059 16.3862C40.8416 15.8489 37.1673 15.7081 35.1146 16.0875ZM42.2932 19.3171C43.771 19.7072 45.9598 20.696 47.1779 21.5238C48.3258 22.3038 50.3118 24.2571 51.163 25.4431C54.6989 30.3697 54.9495 37.2194 51.7891 42.5468C50.6934 44.3936 48.2767 46.8066 46.4271 47.9006C41.8099 50.6317 36.2293 50.8581 31.4418 48.5084C27.3745 46.5122 24.3903 42.9443 23.1424 38.5858C22.8095 37.4228 22.7619 36.8897 22.7705 34.4185C22.7796 31.8291 22.8194 31.4582 23.2312 30.1183C25.009 24.3341 29.5498 20.2283 35.4485 19.0714C37.1334 18.7409 40.5789 18.8646 42.2932 19.3171ZM31.0391 22.6265C30.5443 22.8802 30.4181 23.0877 30.0361 24.2762C29.3105 26.5329 28.1454 27.933 26.1772 28.9133C25.1072 29.4464 24.6893 29.9055 24.6842 30.5539C24.6788 31.2372 24.9653 31.6646 25.6085 31.9329C26.115 32.1443 26.2618 32.137 26.9812 31.8639C28.1551 31.4185 29.694 30.3192 30.663 29.2335C32.1458 27.5724 33.35 24.7952 33.1194 23.5681C32.9426 22.6277 31.9304 22.1694 31.0391 22.6265ZM42.9602 23.4024C42.7386 23.6238 42.5121 24.0175 42.457 24.2776C42.2588 25.2127 42.1986 25.2444 40.4395 25.3426C38.5825 25.4461 37.8697 25.6923 37.046 26.5148C36.2809 27.2787 35.8738 28.2414 35.8695 29.298C35.8643 30.5271 36.2112 31.2305 37.4576 32.5197C38.0513 33.1336 38.537 33.7671 38.537 33.9271C38.537 34.3558 35.0463 37.8357 34.6164 37.8357C34.4204 37.8357 33.9378 37.5006 33.5216 37.0757C31.9237 35.444 30.6426 34.9469 29.0301 35.3331C27.8585 35.6138 26.98 36.3033 26.4559 37.3531C25.5888 39.0904 26.0489 40.5028 27.4818 40.5028C28.2469 40.5028 28.7922 40.0202 28.9571 39.1969C29.0661 38.6528 29.5588 38.1691 30.004 38.1691C30.1364 38.1691 30.7167 38.6217 31.2937 39.1747C32.6526 40.4778 33.5995 40.9063 34.866 40.7917C35.386 40.7445 36.068 40.5765 36.3814 40.4181C36.6947 40.2597 37.8652 39.2151 38.9825 38.0967C40.8296 36.2479 41.0395 35.9756 41.2959 35.0949C41.785 33.4152 41.3802 32.2172 39.8022 30.6736C39.1393 30.025 38.8708 29.6362 38.8708 29.3242C38.8708 28.5664 39.3234 28.3344 40.8039 28.3332C41.5311 28.3327 42.4133 28.2527 42.7642 28.1555C43.579 27.9295 44.6792 26.9413 45.0702 26.0839C45.4174 25.3227 45.4687 24.0437 45.1677 23.6523C44.6056 22.9214 43.5605 22.803 42.9602 23.4024ZM22.217 52.2076L21.6786 52.7452L20.8431 51.9236L20.0077 51.1019L20.5439 50.5495L21.0801 49.9971L21.9177 50.8336L22.7554 51.67L22.217 52.2076ZM18.7975 54.0484L20.6721 55.9254L15.289 61.2917C12.3282 64.2432 9.6943 66.7365 9.43587 66.8324C7.36558 67.601 5.32784 65.8924 5.72467 63.7206C5.82517 63.1703 6.53736 62.3912 11.2918 57.6305C14.2905 54.628 16.7841 52.1713 16.8334 52.1713C16.8826 52.1713 17.7666 53.0159 18.7975 54.0484Z" fill="white"/>
</svg>
