<svg width="70" height="70" viewBox="0 0 70 70" fill="none" xmlns="http://www.w3.org/2000/svg">
<path fill-rule="evenodd" clip-rule="evenodd" d="M32.9492 0.212766C30.9271 0.650684 29.3221 1.54334 27.8223 3.06423C26.5698 4.33437 25.8538 5.47599 25.3292 7.03981C24.9739 8.09844 24.9606 8.2513 24.9125 11.7992C24.8577 15.843 24.8979 16.1234 25.697 17.285C26.189 18.0002 27.1424 18.6997 27.9448 18.934C28.4312 19.0762 28.5627 19.2054 28.9328 19.905C29.1676 20.3488 29.6137 20.9985 29.924 21.3488C30.3542 21.8343 30.4883 22.0983 30.4883 22.4595V22.9334L27.462 24.0686C24.1541 25.3093 23.4637 25.7114 22.5477 26.9306C21.6016 28.1898 21.4648 28.9255 21.4648 32.7578V36.0931H35H48.5352V32.7578C48.5352 28.9374 48.3975 28.1884 47.4677 26.9508C46.4424 25.5863 45.8102 25.2481 40.9131 23.4425L39.5117 22.9259V22.4558C39.5117 22.099 39.6476 21.8322 40.076 21.3488C40.3863 20.9985 40.8324 20.3488 41.0672 19.905C41.4373 19.2054 41.5688 19.0762 42.0552 18.934C43.3717 18.5494 44.6485 17.2034 44.9833 15.8473C45.0849 15.4357 45.1224 14.0049 45.0924 11.6773L45.0468 8.13358L44.6193 6.93577C44.0753 5.4116 43.4921 4.44443 42.4089 3.26917C40.0144 0.670919 36.3305 -0.51924 32.9492 0.212766ZM36.9753 2.53183C39.0902 3.08282 41.0765 4.6785 42.013 6.57892C42.5627 7.69471 42.9234 9.10061 42.9274 10.1426L42.9297 10.7843L42.3329 10.5203C41.9758 10.3623 41.1659 10.205 40.3163 10.1286C38.2221 9.94036 37.0933 9.45636 35.7178 8.15682L35 7.47869L34.2822 8.15682C32.9067 9.45636 31.778 9.94036 29.6837 10.1286C28.8341 10.205 28.0242 10.3623 27.6671 10.5203L27.0703 10.7843L27.0726 10.1426C27.0763 9.17007 27.4176 7.7576 27.8862 6.77567C28.8936 4.66496 30.7176 3.15474 33.0176 2.52746C33.9484 2.27343 35.9922 2.27575 36.9753 2.53183ZM16.9185 11.3098L16.1339 12.0944L17.3953 13.3611L18.6566 14.6278H15.9841C12.7151 14.6278 12.1371 14.7575 11.1919 15.7026C10.0778 16.8168 10.1172 16.3612 10.1172 28.1198V38.4174H11.2793H12.4414V28.0204V17.6233L12.7771 17.2878C13.1112 16.9535 13.1238 16.9521 15.8847 16.9521H18.6566L17.3939 18.2202L16.131 19.4883L16.9542 20.3029L17.7773 21.1173L20.4068 18.4879L23.0363 15.8583L20.3697 13.1917L17.7032 10.5251L16.9185 11.3098ZM35.6679 10.9942C36.4891 11.5468 37.6307 11.9977 38.735 12.2056L39.5306 12.3554L39.487 15.2348C39.4466 17.8975 39.4201 18.1613 39.1351 18.7399C38.417 20.1971 36.9853 21.2345 35.44 21.4176C33.9549 21.5934 32.1759 20.7645 31.2819 19.48C30.6052 18.5075 30.4883 17.8431 30.4883 14.969V12.3518L31.2744 12.2039C32.3772 11.9962 33.5173 11.5433 34.2806 11.0097C34.6387 10.7592 34.9408 10.5481 34.9521 10.5403C34.9634 10.5325 35.2855 10.7368 35.6679 10.9942ZM28.1641 14.7218V16.5931L27.7517 16.1981C27.2814 15.7475 27.0071 14.9095 27.1297 14.2973C27.2251 13.8201 27.828 12.8505 28.0293 12.8505C28.1113 12.8505 28.1641 13.5833 28.1641 14.7218ZM42.6576 13.742C43.0717 14.5976 42.9503 15.42 42.3078 16.1109L41.8433 16.6103L41.8396 14.7256C41.8361 12.9149 41.8462 12.8464 42.0961 12.9801C42.2391 13.0566 42.4919 13.3995 42.6576 13.742ZM47.4414 15.7792V16.9521H50.4308C53.248 16.9521 53.4409 16.9684 53.7804 17.2355L54.1406 17.5188V24.855V32.1911L52.8726 30.9283L51.6045 29.6654L50.7905 30.4882L49.9763 31.3109L52.5699 33.9071C53.9962 35.335 55.226 36.5033 55.3027 36.5033C55.3794 36.5033 56.6092 35.335 58.0356 33.9071L60.6292 31.3109L59.815 30.4882L59.001 29.6654L57.7374 30.9238L56.4739 32.1822L56.4352 24.6696C56.397 17.2658 56.3922 17.1493 56.1009 16.6103C55.7524 15.9657 55.0821 15.3061 54.4141 14.9508C53.9941 14.7274 53.5381 14.6907 50.6885 14.6512L47.4414 14.6061V15.7792ZM34.6224 23.6122C35.3335 23.6554 36.0735 23.6201 36.4506 23.5253C36.7989 23.4375 37.1093 23.391 37.1402 23.4218C37.2047 23.4864 35.1034 27.0612 35 27.0627C34.9366 27.0636 32.945 23.7697 32.8284 23.471C32.7965 23.3892 32.9036 23.3764 33.1018 23.4382C33.281 23.4941 33.9653 23.5724 34.6224 23.6122ZM32.2571 26.9872C32.8634 27.9945 33.3594 28.8436 33.3594 28.8738C33.3594 28.9653 31.1821 29.997 31.1257 29.9323C31.0509 29.8466 29.6655 25.6566 29.7042 25.6334C29.8523 25.5444 30.8649 25.179 30.9925 25.1687C31.0819 25.1614 31.6511 25.9797 32.2571 26.9872ZM39.6663 25.3933C40.0347 25.5241 40.3134 25.6934 40.2858 25.7693C40.2582 25.8453 39.9413 26.7995 39.5814 27.8898C39.2217 28.9802 38.9037 29.8994 38.8747 29.9323C38.818 29.997 36.6406 28.9654 36.6406 28.8738C36.6406 28.757 38.8492 25.1554 38.9207 25.1554C38.9624 25.1554 39.2979 25.2624 39.6663 25.3933ZM28.7096 29.868L29.8245 33.2133L32.4123 31.9182L35 30.6229L37.5877 31.9182L40.1755 33.2133L41.2904 29.868C41.9038 28.028 42.4758 26.5226 42.5616 26.5226C42.9625 26.5226 44.6284 27.2981 45.1064 27.7072C45.3999 27.9585 45.7838 28.4561 45.9596 28.8131C46.2543 29.4114 46.2793 29.633 46.2793 31.6497V33.8372H35H23.7207L23.7234 31.6497C23.7259 29.6429 23.7523 29.4085 24.0431 28.8131C24.4599 27.9593 25.2428 27.3083 26.3639 26.8833C26.8652 26.6932 27.3472 26.5344 27.4349 26.5301C27.5239 26.526 28.0875 28.0018 28.7096 29.868ZM49.7789 38.9301C49.7052 39.2121 49.5231 39.925 49.3743 40.5143C49.2256 41.1035 49.0705 41.6191 49.0297 41.6599C48.9889 41.7006 48.3018 41.3472 47.5028 40.8742L46.0502 40.0144L43.0326 43.0321L40.015 46.0497L40.8748 47.5024C41.3477 48.3014 41.7032 48.9865 41.6648 49.0249C41.6265 49.0633 40.8801 49.2844 40.0065 49.5163L38.418 49.9379V54.211V58.4841L39.9561 58.8597C40.8021 59.0663 41.546 59.282 41.6093 59.3392C41.6726 59.3963 41.3496 60.0769 40.8915 60.8518C40.4333 61.6266 40.0586 62.2952 40.0586 62.3375C40.0586 62.3797 41.4055 63.7602 43.0518 65.4052L46.0448 68.396L47.4331 67.5573C48.1966 67.096 48.8771 66.7187 48.9453 66.7187C49.0734 66.7187 49.1014 66.8041 49.6285 68.8037L49.9438 70H54.1989H58.4541L58.8469 68.4619C59.0629 67.616 59.2885 66.8688 59.3484 66.8017C59.4091 66.7335 60.1016 67.0557 60.9204 67.5334L62.3837 68.387L65.3879 65.3828L68.3922 62.3785L67.5374 60.9161C67.0638 60.1059 66.7365 59.4051 66.8032 59.3445C66.8696 59.2845 67.616 59.0663 68.4619 58.8597L70 58.4841V54.208V49.9319L68.9404 49.652C68.3577 49.4981 67.6193 49.3044 67.2998 49.2216C66.9803 49.1388 66.7188 49.0148 66.7188 48.946C66.7188 48.8772 67.0961 48.1962 67.5574 47.4326L68.396 46.0444L65.4053 43.0513C63.7603 41.405 62.3798 40.058 62.3376 40.058C62.2953 40.058 61.6268 40.4328 60.852 40.8909C60.0771 41.3491 59.3965 41.672 59.3394 41.6087C59.2822 41.5454 59.0665 40.8015 58.8599 39.9555L58.4843 38.4174H54.1986H49.9129L49.7789 38.9301ZM0 55.3025V70H11.2793H22.5586V55.3025V40.6049H11.2793H0V55.3025ZM57.0143 41.8696C57.1829 42.5651 57.3673 43.1857 57.4242 43.2486C57.4809 43.3113 57.9901 43.564 58.5555 43.8098L59.5838 44.2567L60.7234 43.593C61.3502 43.2279 61.9242 42.9292 61.9988 42.9292C62.1663 42.9292 65.4883 46.2283 65.4883 46.3945C65.4883 46.4604 65.1845 47.0171 64.8133 47.6318L64.1383 48.7494L64.574 49.8624L65.0098 50.9755L66.3086 51.3002L67.6074 51.6251L67.6446 54.1755L67.6818 56.7259L67.1661 56.8601C66.8824 56.934 66.2907 57.0863 65.851 57.1985C65.4113 57.3108 65.0403 57.4223 65.0264 57.4462C65.0126 57.4703 64.8069 57.9673 64.5694 58.5507L64.1375 59.6114L64.8304 60.7885L65.5231 61.9657L63.7461 63.7427L61.9691 65.5198L60.7954 64.8265L59.6217 64.1333L58.556 64.5672C57.9698 64.8058 57.4705 65.0125 57.4465 65.0264C57.4226 65.0402 57.311 65.4112 57.1988 65.8509C57.0865 66.2906 56.9345 66.8811 56.8612 67.163L56.7278 67.6757H54.2134H51.6991L51.4927 66.958C51.3792 66.5632 51.2162 65.9633 51.1306 65.6249C50.9765 65.0154 50.9646 65.0056 49.8624 64.5739L48.7498 64.1382L47.6323 64.8132C47.0176 65.1844 46.4626 65.4882 46.3991 65.4882C46.2325 65.4882 42.9297 62.1701 42.9297 62.0028C42.9297 61.9258 43.2284 61.3501 43.5935 60.7232L44.2572 59.5836L43.8103 58.5553C43.5645 57.9898 43.3118 57.4807 43.2491 57.424C43.1862 57.3671 42.5656 57.1827 41.8701 57.0141L40.6055 56.7074V54.2084V51.7093L41.7334 51.4152C42.3538 51.2533 42.9707 51.0774 43.1044 51.0239C43.238 50.9706 43.5564 50.4461 43.8118 49.8585L44.2762 48.7903L43.6032 47.6712C43.2331 47.0558 42.9301 46.4916 42.93 46.4175C42.9296 46.2389 46.2354 42.929 46.414 42.9294C46.4903 42.9296 47.0563 43.2326 47.6716 43.6027L48.7907 44.2757L49.8326 43.8228C50.4056 43.5737 50.9061 43.3381 50.9448 43.2994C50.9835 43.2609 51.107 42.8694 51.2192 42.4297C51.3315 41.99 51.4835 41.3997 51.5568 41.1176L51.6902 40.6049H54.199H56.7077L57.0143 41.8696ZM20.3711 55.3025V67.6757H11.3477H2.32422V55.3025V42.9292H11.3477H20.3711V55.3025ZM4.51172 46.2788V47.441H11.2793H18.0469V46.2788V45.1167H11.2793H4.51172V46.2788ZM52.9785 45.2458C51.8083 45.4353 51.1012 45.6702 50.0294 46.2258C47.0308 47.7802 45.2282 50.7384 45.2066 54.1403C45.1963 55.7653 45.3935 56.6081 46.1575 58.2051C47.1435 60.266 48.9048 61.8361 51.2364 62.7328C52.074 63.055 52.3394 63.0876 54.1406 63.0902C55.9517 63.093 56.2097 63.0617 57.1259 62.7281C58.5437 62.2118 59.5153 61.5941 60.5544 60.5483C61.6044 59.4913 62.2195 58.5229 62.7282 57.1256C63.0618 56.2095 63.0931 55.9515 63.0904 54.1403C63.0878 52.339 63.0551 52.0736 62.733 51.2361C62.1887 49.8209 61.5491 48.8405 60.4611 47.7537C59.669 46.9625 59.211 46.6386 58.2053 46.1587C57.5112 45.8274 56.6665 45.4917 56.3281 45.4127C55.4258 45.2019 53.7622 45.1189 52.9785 45.2458ZM55.8439 47.6503C59.3273 48.5576 61.5476 52.072 60.8255 55.535C60.2912 58.0972 58.0974 60.291 55.5353 60.8253C51.4671 61.6737 47.4414 58.4058 47.4414 54.255C47.4414 49.8298 51.6153 46.5489 55.8439 47.6503ZM25.8727 51.578L23.2422 54.2113L25.9081 56.8746L28.5741 59.5381L29.3582 58.7538L30.1422 57.9698L28.8482 56.6702L27.5543 55.3708H31.824H36.0938V54.2087V53.0466H31.824H27.5543L28.8467 51.7487L30.1391 50.4509L29.3955 49.6978C28.9866 49.2837 28.6185 48.9449 28.5776 48.9449C28.5366 48.9449 27.3196 50.1299 25.8727 51.578ZM4.51172 50.7906V51.9639L5.63965 51.9241L6.76758 51.8844V50.7906V49.6969L5.63965 49.6572L4.51172 49.6174V50.7906ZM9.02344 50.7906V51.9528H13.5352H18.0469V50.7906V49.6285H13.5352H9.02344V50.7906ZM53.0579 49.8399C52.0887 50.1081 51.5521 50.4516 50.8066 51.2807C48.8642 53.4411 49.5738 56.8768 52.2472 58.2559C53.1513 58.7223 54.7758 58.7742 55.8454 58.3709C56.9494 57.9546 57.9548 56.9491 58.3711 55.8451C58.7744 54.7755 58.7225 53.151 58.2561 52.2469C57.2611 50.318 55.0426 49.2907 53.0579 49.8399ZM55.3027 52.2633C55.9208 52.609 56.4648 53.5232 56.4648 54.2162C56.4648 54.9221 55.9124 55.7941 55.2398 56.1497C54.5229 56.529 53.9859 56.5435 53.2384 56.2041C52.5861 55.9079 52.1052 55.2973 51.9965 54.6277C51.6819 52.6892 53.6052 51.3136 55.3027 52.2633ZM4.51172 55.3025V56.4646H11.2793H18.0469V55.3025V54.1403H11.2793H4.51172V55.3025ZM4.51172 59.8143V60.9764H11.2793H18.0469V59.8143V58.6521H11.2793H4.51172V59.8143ZM4.51172 64.3261V65.4882H9.02344H13.5352V64.3261V63.1639H9.02344H4.51172V64.3261ZM15.8594 64.3261V65.4882H16.9531H18.0469V64.3261V63.1639H16.9531H15.8594V64.3261Z" fill="white"/>
</svg>
