<svg width="66" height="70" viewBox="0 0 66 70" fill="none" xmlns="http://www.w3.org/2000/svg">
<path fill-rule="evenodd" clip-rule="evenodd" d="M32.1772 0.156735C31.1644 0.492646 30.4139 0.947928 29.7637 1.62079C28.9829 2.42897 21.5138 16.4456 21.5138 17.1026C21.5138 17.3773 21.6495 17.6271 21.9102 17.8318C22.3056 18.1427 22.3372 18.1433 33.751 18.1035C44.7656 18.065 45.2073 18.0528 45.5093 17.7797C45.682 17.6235 45.8233 17.3253 45.8233 17.1168C45.8233 16.9083 45.0819 15.3351 44.1759 13.621C43.2697 11.9069 42.5483 10.4567 42.5727 10.3986C42.597 10.3405 43.1984 9.77787 43.9094 9.14852L45.2018 8.00413H49.7298C53.5866 8.00413 54.3068 7.9697 54.5891 7.77209C55.0225 7.46882 55.0403 6.63337 54.6224 6.21579C54.3362 5.9298 54.1253 5.91773 49.414 5.91773H44.5038L44.0078 6.32383C43.7349 6.54708 43.0578 7.12754 42.5033 7.61368C41.9487 8.09981 41.4728 8.47044 41.4458 8.43721C41.4186 8.40382 40.698 7.04469 39.8442 5.4167C38.0605 2.01572 37.444 1.22497 36.0353 0.531989C35.2518 0.146601 34.8464 0.0460071 33.9198 0.00711061C33.2351 -0.0216519 32.5336 0.0385556 32.1772 0.156735ZM35.0108 2.32555C35.967 2.76786 36.3872 3.35042 38.1673 6.70117L39.8489 9.86699L39.3687 10.2984C37.238 12.2122 37.3002 12.1403 37.3497 12.6391C37.4089 13.2358 38.0323 13.7474 38.5398 13.6155C38.7315 13.5657 39.312 13.1455 39.83 12.6815C40.363 12.2041 40.8261 11.8956 40.8972 11.9704C41.0553 12.1365 42.9896 15.8175 42.9896 15.9523C42.9896 16.007 38.7951 16.0517 33.6685 16.0517C28.5419 16.0517 24.3474 15.994 24.3474 15.9237C24.3474 15.6091 30.8856 3.48067 31.2807 3.06234C32.2055 2.08338 33.8044 1.76744 35.0108 2.32555ZM45.3867 2.43568C45.0025 2.9236 44.9963 3.25087 45.3624 3.70302L45.6474 4.05487L49.8829 4.09854C54.0036 4.14101 54.1293 4.13371 54.5195 3.82686C55.004 3.44609 55.0687 2.67025 54.6479 2.28963C54.4073 2.07205 53.8643 2.04299 50.0355 2.04299H45.6957L45.3867 2.43568ZM18.9255 21.901C18.7233 22.0855 17.6377 23.98 16.5132 26.1111C15.3889 28.2422 14.4441 30.013 14.4137 30.0463C14.3834 30.0796 13.9048 29.7089 13.3502 29.2228C12.7957 28.7367 12.1186 28.1562 11.8457 27.933L11.3496 27.5269H6.37574H1.40185L1.09283 27.9196C0.686879 28.4352 0.702539 28.8006 1.1498 29.2474L1.51579 29.6133H6.07746H10.6393L11.938 30.7453C12.6522 31.3679 13.259 31.938 13.2863 32.0119C13.3136 32.0859 12.6835 33.3704 11.8859 34.8664C10.3425 37.7614 10.1965 38.2651 10.7675 38.7273C11.0943 38.9916 11.9654 39.0021 33.6851 39.0021C56.0641 39.0021 56.2656 38.9994 56.5612 38.704C56.7252 38.5401 56.8594 38.2198 56.8594 37.9922C56.8594 37.4848 48.8151 22.2055 48.3485 21.8265C48.0475 21.5821 47.1213 21.5657 33.6603 21.5657H19.2934L18.9255 21.901ZM1.38276 23.6947C0.81111 23.9837 0.656902 24.6035 1.03183 25.1054L1.33772 25.515L5.707 25.5545C9.61456 25.5899 10.1054 25.5677 10.3514 25.3451C10.7713 24.9655 10.7116 24.1876 10.2338 23.812C9.8581 23.5167 9.66392 23.5032 5.79693 23.5053C2.85042 23.5068 1.65255 23.5582 1.38276 23.6947ZM50.3757 29.7996C52.1597 33.1807 53.7498 36.1649 53.9092 36.4313L54.1993 36.9157H33.6779H13.1566L14.0026 35.3136C14.4679 34.4326 14.9012 33.6521 14.9653 33.5795C15.0295 33.5068 15.5056 33.825 16.0235 34.2867C17.0422 35.1947 17.6786 35.3713 18.1124 34.8665C18.7485 34.1264 18.5619 33.681 17.1019 32.454L16.0003 31.5283L16.5774 30.459C17.0604 29.5639 19.5984 24.7749 20.0464 23.9129C20.1741 23.6675 20.9748 23.6521 33.657 23.6521H47.1319L50.3757 29.7996ZM8.16077 42.5708C7.99388 42.6388 7.78315 42.7857 7.69232 42.8974C7.6015 43.009 6.34158 45.3404 4.89226 48.078C3.23982 51.1999 2.17065 53.3939 2.02494 53.9624C1.39275 56.4283 2.67071 59.0105 5.08256 60.1403L5.92892 60.5367L26.0744 60.576L46.22 60.6154L48.4982 63.2825C49.7512 64.7496 50.9203 65.9883 51.0962 66.0354C51.272 66.0826 53.484 66.1221 56.0117 66.1232C61.3173 66.1256 61.475 66.0931 61.4805 64.9934C61.4851 64.0499 61.429 64.0393 56.4002 64.0344L51.8633 64.0298L50.4838 62.4065C49.725 61.5137 49.1043 60.748 49.1043 60.7048C49.1043 60.6616 51.9063 60.6061 55.3308 60.5815L61.5573 60.5367L62.4988 60.0266C64.7294 58.8179 65.9349 56.2275 65.3217 53.9599C65.0942 53.1185 59.9812 43.2799 59.5232 42.8023C59.2398 42.5068 59.0239 42.5039 33.8508 42.4758C19.8882 42.4601 8.32765 42.5029 8.16077 42.5708ZM60.7135 49.3223C62.1091 51.9658 63.2965 54.3781 63.3521 54.6833C63.5929 56.005 62.6901 57.6657 61.4165 58.2437C60.8575 58.4974 60.2948 58.5185 54.0067 58.5215L47.2019 58.5248L46.3505 57.5557C45.4088 56.4839 44.9705 56.2789 44.4078 56.6473C43.9043 56.977 43.7787 57.5604 44.0956 58.0966L44.3487 58.5248L25.4372 58.5215C7.46399 58.5184 6.49579 58.5048 5.92892 58.2467C4.6447 57.6624 3.80192 56.2084 3.95583 54.8433C4.01906 54.2826 5.95129 50.4139 8.57403 45.5966L9.16237 44.5161H33.6691H58.176L60.7135 49.3223ZM52.0058 68.2795C51.5585 68.7262 51.5428 69.0917 51.9488 69.6073L52.2578 70H56.5388C60.1721 70 60.8699 69.9648 61.1512 69.768C61.5846 69.4647 61.6023 68.6292 61.1844 68.2117C60.9 67.9275 60.6874 67.9136 56.629 67.9136H52.3717L52.0058 68.2795Z" fill="white"/>
</svg>
