<svg width="70" height="71" viewBox="0 0 70 71" fill="none" xmlns="http://www.w3.org/2000/svg">
<path fill-rule="evenodd" clip-rule="evenodd" d="M31.3905 0.350728C31.0823 0.659124 31.0437 0.819184 31.042 1.79876L31.0401 2.89997L30.2306 3.15398C29.7853 3.2937 28.9295 3.63727 28.3286 3.91741L27.2361 4.42669L26.4671 3.69872C25.8201 3.08617 25.6132 2.97061 25.1644 2.97061C24.6602 2.97061 24.4856 3.11612 21.9806 5.62355C19.4757 8.13112 19.3303 8.30587 19.3303 8.81063C19.3303 9.25988 19.4458 9.46698 20.0577 10.1146L20.7849 10.8844L20.2762 11.9779C19.9963 12.5795 19.6531 13.4361 19.5135 13.8819L19.2597 14.6922L18.1596 14.6942C17.1811 14.6959 17.0212 14.7344 16.7131 15.043C16.5226 15.2337 16.3666 15.488 16.3666 15.6081C16.3666 15.8 15.8625 15.8263 12.1844 15.8263C9.31325 15.8263 7.82011 15.8801 7.42128 15.9981C6.64606 16.2274 5.47694 17.3977 5.24789 18.1737C5.11664 18.6183 5.07628 23.4673 5.07628 38.764V58.7729H4.28116C3.05757 58.7729 2.41388 59.0272 1.61086 59.8276C0.649203 60.7861 0.51259 61.3168 0.581602 63.8279C0.634526 65.7598 0.643417 65.8062 1.16009 66.8528C1.79249 68.1335 2.6116 68.9355 3.92184 69.5568L4.86459 70.004H35.5602H66.2557L67.1985 69.5568C68.5087 68.9355 69.3278 68.1335 69.9602 66.8528C70.4769 65.8062 70.4858 65.7598 70.5387 63.8279C70.6043 61.4357 70.4674 60.851 69.6207 59.9083C68.8982 59.1039 68.095 58.7729 66.8657 58.7729H66.044V38.764C66.044 23.7148 66.0024 18.6163 65.8762 18.1946C65.7839 17.8863 65.4339 17.3285 65.0983 16.9548C64.1237 15.8697 63.8881 15.8263 58.9624 15.8263C55.2604 15.8263 54.7537 15.8 54.7537 15.6081C54.7537 15.488 54.5978 15.2337 54.4072 15.043C54.0991 14.7344 53.9392 14.6959 52.9607 14.6942L51.8606 14.6922L51.6068 13.8819C51.4672 13.4361 51.124 12.5795 50.8441 11.9779L50.3354 10.8844L51.0626 10.1146C51.6745 9.46698 51.79 9.25988 51.79 8.81063C51.79 8.30587 51.6446 8.13112 49.1397 5.62355C46.6347 3.11612 46.4601 2.97061 45.9559 2.97061C45.5072 2.97061 45.3002 3.08617 44.6545 3.69745L43.8868 4.42429L42.64 3.84451C41.9543 3.52552 41.0969 3.1852 40.7348 3.08829L40.0763 2.91198V1.80469C40.0763 0.817489 40.0387 0.65983 39.7298 0.350728L39.3835 0.00390625H35.5602H31.7368L31.3905 0.350728ZM37.8182 3.19339C37.8182 4.03198 37.8584 4.1628 38.2307 4.53547C38.4577 4.76264 38.7641 4.94841 38.9117 4.94841C39.4237 4.94841 41.2553 5.65632 42.5894 6.36989C44.1641 7.21215 44.3586 7.20579 45.3016 6.28258L45.9402 5.65731L47.5262 7.24944L49.1122 8.84157L48.4814 9.46133C47.5588 10.3677 47.5515 10.6018 48.3965 12.185C49.1074 13.5167 49.8142 15.35 49.8142 15.8619C49.8142 16.0097 49.9998 16.3164 50.2267 16.5436C50.599 16.9162 50.7297 16.9565 51.5674 16.9565H52.4956V19.2168V21.4772H51.5674C50.7297 21.4772 50.599 21.5174 50.2267 21.8901C49.9998 22.1173 49.8142 22.424 49.8142 22.5718C49.8142 23.0837 49.1074 24.917 48.3965 26.2486C47.5515 27.8319 47.5588 28.0659 48.4814 28.9723L49.1122 29.5921L47.5262 31.1842L45.9402 32.7764L45.3016 32.1511C44.3586 31.2279 44.1641 31.2215 42.5894 32.0638C41.2553 32.7774 39.4237 33.4853 38.9117 33.4853C38.7641 33.4853 38.4577 33.671 38.2307 33.8982C37.8584 34.2709 37.8182 34.4017 37.8182 35.2403V36.1694H35.5602H33.3021V35.2403C33.3021 34.4017 33.2619 34.2709 32.8896 33.8982C32.6626 33.671 32.3562 33.4853 32.2086 33.4853C31.6966 33.4853 29.865 32.7774 28.5309 32.0638C26.9562 31.2215 26.7617 31.2279 25.8187 32.1511L25.1801 32.7764L23.5941 31.1842L22.0081 29.5921L22.6389 28.9723C23.5615 28.0659 23.5688 27.8319 22.7238 26.2486C22.0129 24.917 21.3061 23.0837 21.3061 22.5718C21.3061 22.424 21.1205 22.1173 20.8936 21.8901C20.5213 21.5174 20.3906 21.4772 19.5529 21.4772H18.6247V19.2168V16.9565H19.5529C20.3906 16.9565 20.5213 16.9162 20.8936 16.5436C21.1205 16.3164 21.3061 16.0097 21.3061 15.8619C21.3061 15.3494 22.0133 13.516 22.7262 12.1805C23.5676 10.6042 23.5612 10.4095 22.6389 9.46557L22.0143 8.82631L23.6048 7.23871L25.1954 5.6511L25.8145 6.28258C26.72 7.20607 26.9538 7.21342 28.5355 6.36748C29.8657 5.6559 31.6972 4.94841 32.2086 4.94841C32.3562 4.94841 32.6626 4.76264 32.8896 4.53547C33.2619 4.1628 33.3021 4.03198 33.3021 3.19339V2.26425H35.5602H37.8182V3.19339ZM34.0077 6.87705C27.9033 7.80464 23.5348 12.5306 23.1886 18.5811C22.8526 24.4558 26.7037 29.687 32.5259 31.2643C34.0347 31.673 36.9851 31.6946 38.4414 31.3077C45.6862 29.3825 49.6326 22.1698 47.2782 15.1568C46.1371 11.7574 43.1344 8.70666 39.7791 7.53735C37.9877 6.91307 35.582 6.63774 34.0077 6.87705ZM38.5474 9.51035C40.2534 10.0544 41.4146 10.779 42.7606 12.139C44.0877 13.4802 44.9462 14.955 45.4002 16.674C45.7322 17.9304 45.7293 20.5223 45.3949 21.7552C45.1057 22.8212 44.3305 24.4727 43.8343 25.0796L43.4879 25.5034L43.3986 25.0796C42.9364 22.8857 42.3503 21.6806 41.1528 20.4624L40.4654 19.763L40.691 19.2427C41.357 17.7069 41.3449 16.0874 40.6562 14.6141C40.0701 13.3603 39.2538 12.5331 37.9819 11.9039C36.9743 11.4054 36.8409 11.3763 35.5602 11.3763C34.2794 11.3763 34.146 11.4054 33.1384 11.9039C31.8538 12.5394 31.0538 13.3573 30.4322 14.6707C30.0265 15.528 29.986 15.7373 29.9905 16.9565C29.9944 18.0505 30.0564 18.4356 30.3253 19.04L30.6552 19.7814L30.0654 20.3544C28.8904 21.4958 28.325 22.6067 27.6963 25.009L27.5669 25.5034L26.9815 24.6058C24.9974 21.5634 24.9045 17.4935 26.7437 14.1781C27.3881 13.0167 29.2091 11.1597 30.3748 10.4754C31.3322 9.91326 32.7609 9.37346 33.7767 9.18995C35.016 8.96589 37.3272 9.12115 38.5474 9.51035ZM36.6022 13.7378C37.3775 13.967 38.5466 15.1373 38.7756 15.9133C39.1666 17.2379 38.8909 18.2939 37.8936 19.2923C36.4658 20.7215 34.6545 20.7215 33.2267 19.2923C31.7989 17.863 31.7989 16.0515 33.2267 14.6192C34.2167 13.626 35.2831 13.3476 36.6022 13.7378ZM16.3666 19.2168V20.347H13.326C10.2856 20.347 10.2852 20.347 9.93888 20.6938L9.59241 21.0405V38.4298V55.819L9.93888 56.1657L10.2852 56.5125H35.5602H60.8351L61.1814 56.1657L61.5279 55.819V38.4298V21.0405L61.1814 20.6938C60.8351 20.347 60.8347 20.347 57.7943 20.347H54.7537V19.2168V18.0867H58.9234H63.0932L63.4395 18.4335L63.786 18.7802V38.7766V58.7729H35.5602H7.33434V38.7766V18.7802L7.68082 18.4335L8.02715 18.0867H12.1969H16.3666V19.2168ZM33.2315 22.0486C34.1497 22.5023 34.3147 22.5367 35.569 22.5367C36.842 22.5367 36.9784 22.5071 37.9682 22.0143L39.0178 21.4919L39.5557 22.0143C39.8515 22.3016 40.3258 23.0062 40.6096 23.5799C41.1089 24.589 41.126 24.6743 41.1302 26.1934L41.1347 27.7638L40.0763 28.2889C38.4935 29.0742 37.4518 29.3097 35.5602 29.3097C33.6685 29.3097 32.6268 29.0742 31.044 28.2889L29.9856 27.7638L29.9902 26.2098C29.9946 24.7687 30.0269 24.5873 30.4367 23.7121C30.846 22.8385 31.9671 21.4085 32.1598 21.5145C32.2059 21.5398 32.6882 21.7802 33.2315 22.0486ZM16.3666 22.8256C16.3666 22.9457 16.5226 23.2 16.7131 23.3907C17.0219 23.6999 17.1794 23.7375 18.1656 23.7375H19.2717L19.4479 24.3967C19.5447 24.7592 19.8847 25.6174 20.2033 26.3039L20.7825 27.5519L20.0564 28.3204C19.4458 28.9667 19.3303 29.1739 19.3303 29.623C19.3303 30.1278 19.4757 30.3026 21.9806 32.8101C24.4856 35.3176 24.6602 35.4631 25.1644 35.4631C25.6132 35.4631 25.8201 35.3475 26.4671 34.735L27.2361 34.007L28.3286 34.5163C28.9295 34.7964 29.7853 35.14 30.2306 35.2797L31.0401 35.5337L31.042 36.6349C31.0437 37.6145 31.0823 37.7746 31.3905 38.083L31.7368 38.4298H35.5602H39.3835L39.7298 38.083C40.0387 37.7738 40.0763 37.6162 40.0763 36.629V35.5217L40.7348 35.3454C41.0969 35.2485 41.9543 34.9082 42.64 34.5892L43.8868 34.0094L44.6545 34.7362C45.3002 35.3475 45.5072 35.4631 45.9559 35.4631C46.4601 35.4631 46.6347 35.3176 49.1397 32.8101C51.6446 30.3026 51.79 30.1278 51.79 29.623C51.79 29.1738 51.6745 28.9667 51.0626 28.3191L50.3354 27.5493L50.8441 26.4557C51.124 25.8542 51.4672 24.9975 51.6068 24.5518L51.8606 23.7415L52.9607 23.7395C53.9392 23.7378 54.0991 23.6992 54.4072 23.3907C54.5978 23.2 54.7537 22.9457 54.7537 22.8256C54.7537 22.6379 55.0691 22.6074 57.0118 22.6074H59.2698V38.4298V54.2522H35.5602H11.8505V38.4298V22.6074H14.1085C16.0512 22.6074 16.3666 22.6379 16.3666 22.8256ZM22.0118 40.8748C21.3191 41.0933 20.1377 42.3178 19.9253 43.0375C19.693 43.8244 19.693 48.8576 19.9253 49.6445C20.1544 50.4205 21.3235 51.5908 22.0987 51.8201C22.9604 52.0749 25.7668 52.0417 26.5716 51.7672C27.6566 51.3972 28.786 49.9002 28.786 48.8322C28.786 48.6378 28.6076 48.6013 27.6569 48.6013C26.7327 48.6013 26.5279 48.6409 26.5279 48.8196C26.5279 48.9397 26.3719 49.194 26.1814 49.3847C25.8553 49.7112 25.7435 49.7315 24.2698 49.7315C22.7962 49.7315 22.6844 49.7112 22.3582 49.3847C22.0146 49.0408 22.0118 49.0161 22.0118 46.341C22.0118 43.6659 22.0146 43.6411 22.3582 43.2973C22.6844 42.9708 22.7962 42.9505 24.2698 42.9505C25.7435 42.9505 25.8553 42.9708 26.1814 43.2973C26.3719 43.488 26.5279 43.7423 26.5279 43.8624C26.5279 44.0411 26.7327 44.0806 27.6569 44.0806C28.6076 44.0806 28.786 44.0442 28.786 43.8498C28.786 42.7818 27.6566 41.2847 26.5716 40.9147C25.7968 40.6504 22.8059 40.6243 22.0118 40.8748ZM30.2615 41.0369L29.915 41.3836V46.6878V51.9918H31.044H32.1731V49.7315V47.4711H33.1181C34.2455 47.4711 34.8448 47.812 35.6517 48.9125C36.1573 49.6018 36.6892 51.0062 36.6892 51.6512C36.6892 51.9828 36.7191 51.9918 37.8182 51.9918H38.9472L38.9451 51.6033C38.9393 50.5196 38.1525 48.3727 37.4372 47.4884L37.1662 47.1534L37.8851 46.4293C39.2905 45.0139 39.3081 43.1273 37.9289 41.7193C37.0313 40.8027 36.5291 40.6901 33.341 40.6901C30.6273 40.6901 30.6054 40.6925 30.2615 41.0369ZM40.4227 41.0369L40.0763 41.3836V46.6878V51.9918H41.2053H42.3343L42.3404 49.343L42.3463 46.6942L43.6117 49.1883C44.7103 51.3537 44.9334 51.7022 45.3045 51.8316C45.7882 52.0005 46.2377 51.8767 46.5884 51.4783C46.716 51.3334 47.3319 50.1977 47.9569 48.9545L49.0936 46.6942L49.1011 49.343L49.1085 51.9918H50.2376H51.3666V46.6878V41.3836L51.0201 41.0369C50.6303 40.6466 50.027 40.5835 49.5987 40.888C49.4456 40.997 48.5274 42.6816 47.5584 44.6317C46.5894 46.582 45.7628 48.1775 45.7214 48.1775C45.6801 48.1775 44.8535 46.582 43.8845 44.6317C42.9155 42.6816 41.9973 40.997 41.8442 40.888C41.4159 40.5835 40.8125 40.6466 40.4227 41.0369ZM36.3427 43.2973C36.5612 43.5158 36.6892 43.8054 36.6892 44.0806C36.6892 44.3558 36.5612 44.6454 36.3427 44.864C36.0091 45.1981 35.9262 45.2108 34.0846 45.2108H32.1731V44.0806V42.9505H34.0846C35.9262 42.9505 36.0091 42.9632 36.3427 43.2973ZM27.6569 61.8291C27.6569 62.2669 27.7341 62.8867 27.8285 63.2065C28.0576 63.9825 29.2267 65.1528 30.0019 65.3821C30.8171 65.6231 40.3032 65.6231 41.1184 65.3821C41.8936 65.1528 43.0627 63.9825 43.2918 63.2065C43.3862 62.8867 43.4634 62.2669 43.4634 61.8291V61.0332H55.5363H67.6093L67.9556 61.38C68.2822 61.7068 68.3021 61.8176 68.3021 63.3061C68.3021 64.1747 68.2249 65.147 68.1305 65.4669C67.9014 66.2429 66.7323 67.4132 65.9571 67.6425C65.1124 67.8922 6.00787 67.8922 5.16321 67.6425C4.38799 67.4132 3.21888 66.2429 2.98983 65.4669C2.89541 65.147 2.81822 64.1747 2.81822 63.3061C2.81822 61.8176 2.83811 61.7068 3.16469 61.38L3.51102 61.0332H15.584H27.6569V61.8291ZM41.2053 61.8166C41.2053 62.4601 41.1434 62.6621 40.8588 62.9467L40.5125 63.2936H35.5602H30.6078L30.2615 62.9467C29.9769 62.6621 29.915 62.4601 29.915 61.8166V61.0332H35.5602H41.2053V61.8166Z" fill="white"/>
</svg>
