<svg width="70" height="70" viewBox="0 0 70 70" fill="none" xmlns="http://www.w3.org/2000/svg">
<path fill-rule="evenodd" clip-rule="evenodd" d="M45.4053 0.0809909C43.9563 0.32344 42.4686 1.28339 41.6646 2.49441C40.6772 3.98192 40.7079 3.67821 40.6532 12.4645L40.604 20.3615H22.6527C4.76355 20.3615 4.69831 20.3625 3.84871 20.6494C2.52465 21.0964 1.43884 22.0059 0.702336 23.2847C-0.007768 24.5178 0.00221613 24.2575 2.78248e-05 41.7094C-0.00133986 52.1169 0.0477602 58.1931 0.136797 58.6658C0.451776 60.3371 1.68543 61.9083 3.28043 62.67L4.16943 63.0944L12.2388 63.1628L20.3082 63.2312L20.3458 65.4533L20.3834 67.6754H18.1233H15.8632V68.8377V70.0001H30.4975H45.1317V68.8377V67.6754H42.8716H40.6115L40.6491 65.4533L40.6867 63.2312L48.7593 63.1628L56.8318 63.0944L57.7242 62.6551C58.7519 62.1491 59.7251 61.2489 60.2477 60.321C60.8468 59.2571 60.9919 58.2115 60.9946 54.9414L60.9969 51.9847L63.2878 51.9178C65.2053 51.862 65.7047 51.8026 66.3518 51.5537C67.8289 50.9855 69.0324 49.7877 69.6428 48.2785L69.9553 47.5055L69.9918 26.3783C70.0174 11.6252 69.9837 5.03582 69.8805 4.53752C69.55 2.94389 68.3918 1.37255 67.0384 0.68226C65.6817 -0.00980791 65.5939 -0.0148675 55.3265 0.0050973C50.0579 0.0153532 45.5933 0.0495395 45.4053 0.0809909ZM66.133 2.79333C66.5476 3.04973 66.9599 3.46188 67.2164 3.87635C67.5731 4.45328 67.6369 4.70271 67.6785 5.68467L67.7266 6.82376H55.3179H42.9091L42.9706 5.69561C43.0072 5.02501 43.1234 4.39312 43.2573 4.13754C43.5793 3.52314 44.2849 2.85733 44.9236 2.56565C45.4436 2.32813 46.0198 2.31609 55.4686 2.347L65.4635 2.37954L66.133 2.79333ZM67.6986 24.8058V40.5998H55.321H42.9434V24.8058V9.01169H55.321H67.6986V24.8058ZM45.1647 18.0711L45.2001 24.8058L55.3552 24.8408L65.5103 24.8759V18.1061V11.3364H55.3198H45.1291L45.1647 18.0711ZM63.1852 18.0369V22.5495H55.321H47.4568V18.0369V13.5243H55.321H63.1852V18.0369ZM40.6184 23.7118V24.8741H22.5649H4.51135V31.643V38.4119H22.5649H40.6184L40.6192 42.3433C40.6196 44.5057 40.6792 46.637 40.7518 47.0798C41.0281 48.7665 42.0986 50.3347 43.5572 51.1894C44.7419 51.8835 45.4512 51.9448 52.3463 51.9474L58.6719 51.9497V53.0436V54.1376H30.4975H2.32305V39.6175C2.32305 25.4031 2.32879 25.0854 2.59508 24.5353C2.98351 23.733 3.69594 23.0997 4.53638 22.8096C5.22706 22.5709 6.14998 22.5582 22.941 22.554L40.6184 22.5495V23.7118ZM40.6184 31.5746V36.0872H23.7274H6.83642V31.5746V27.0621H23.7274H40.6184V31.5746ZM45.1604 28.1902L45.2001 29.3184L55.3552 29.3534L65.5103 29.3885V28.2252V27.0621H55.3155H45.1207L45.1604 28.1902ZM45.1317 32.737V33.8993H55.321H65.5103V32.737V31.5746H55.321H45.1317V32.737ZM45.1317 37.2496V38.4119H53.0643H60.9969V37.2496V36.0872H53.0643H45.1317V37.2496ZM63.2425 36.2717C63.2037 36.3732 63.1902 36.8809 63.2127 37.3999L63.2536 38.3435L64.382 38.3832L65.5103 38.423V37.255V36.0872H64.4119C63.6162 36.0872 63.294 36.1381 63.2425 36.2717ZM4.51135 46.2737V51.9497H12.4455H20.3796L20.3439 46.3089L20.3082 40.6682L12.4098 40.6329L4.51135 40.5976V46.2737ZM22.5649 41.7622V42.9245H30.4975H38.43V41.7622V40.5998H30.4975H22.5649V41.7622ZM18.0515 46.2748V49.625H12.444H6.83642V46.2748V42.9245H12.444H18.0515V46.2748ZM67.6736 45.158C67.6306 47.372 67.6267 47.3973 67.2164 48.0602C66.9602 48.474 66.5471 48.8867 66.133 49.1429L65.4635 49.5566L55.537 49.5948C44.2749 49.6381 44.9054 49.6953 43.8621 48.5352C43.0693 47.6534 42.9434 47.1498 42.9434 44.8573V42.9245H55.3302H67.7171L67.6736 45.158ZM22.5649 46.2748V47.4371H30.4975H38.43V46.2748V45.1124H30.4975H22.5649V46.2748ZM51.9702 46.2748V47.4371H55.321H58.6719V46.2748V45.1124H55.321H51.9702V46.2748ZM22.5649 50.7859V51.9497H28.2462H33.9278L33.888 50.8215L33.8483 49.6934L28.2066 49.6577L22.5649 49.622V50.7859ZM36.1962 49.7162C36.146 49.7663 36.105 50.2893 36.105 50.8786V51.9497H37.2675H38.43V50.7874V49.625H37.3587C36.7694 49.625 36.2463 49.666 36.1962 49.7162ZM58.671 57.3169C58.6706 57.7871 58.6094 58.3909 58.5348 58.6591C58.3567 59.3003 57.5532 60.2248 56.845 60.6035L56.2784 60.9065H30.4975H4.71651L4.16943 60.6109C2.90008 59.9247 2.32305 58.9288 2.32305 57.4239V56.4623H30.4975H58.6719L58.671 57.3169ZM38.3993 65.4533L38.4369 67.6754H30.5009H22.5649V65.5103C22.5649 64.3194 22.6064 63.3036 22.6572 63.2529C22.7079 63.202 26.2621 63.1765 30.5556 63.1959L38.3617 63.2312L38.3993 65.4533Z" fill="white"/>
</svg>
