<svg width="59" height="70" viewBox="0 0 59 70" fill="none" xmlns="http://www.w3.org/2000/svg">
<path fill-rule="evenodd" clip-rule="evenodd" d="M24.6175 0.0829812C17.8884 0.605557 12.312 1.925 7.90607 4.03706C3.53735 6.13133 0.844805 8.8032 0.202178 11.6816C0.0185119 12.5039 0.0224665 57.4754 0.206269 58.2983C1.29777 63.1877 8.35003 67.3646 18.4817 69.1228C25.2352 70.2946 33.1193 70.2923 39.8865 69.1163C45.002 68.2273 50.1138 66.3944 53.1663 64.3544C55.8245 62.5781 57.5533 60.4242 58.0284 58.2968C58.211 57.4788 58.2131 12.4922 58.0306 11.6746C56.7848 6.09479 48.0251 1.60472 35.7984 0.278707C33.456 0.0246739 26.8559 -0.0908457 24.6175 0.0829812ZM32.3214 2.95893C41.9283 3.48396 49.9227 6.00336 53.5322 9.64332C55.8227 11.9533 55.8234 14.2204 53.5341 16.5095C46.7326 23.3105 26.1986 25.4486 12.346 20.7985C10.3699 20.1351 7.30653 18.609 6.00218 17.638C3.43113 15.7241 2.4828 13.7481 3.20765 11.8149C4.88887 7.33005 14.3893 3.57526 25.6047 2.96303C28.5128 2.80426 29.4816 2.80371 32.3214 2.95893ZM5.5964 20.8881C13.982 26.0534 29.526 27.6818 42.616 24.7663C46.8085 23.8325 51.5803 21.8119 54.042 19.928L55.3098 18.9578L55.2692 23.7931L55.2285 28.6284L54.8615 29.3383C54.3271 30.3716 53.8512 30.9316 52.7379 31.838C49.2747 34.657 43.6149 36.5764 35.9334 37.5371C33.1006 37.8913 25.1367 37.8914 22.2995 37.5373C13.3334 36.4183 6.53109 33.7312 3.95472 30.2908C2.97476 28.9822 2.93754 28.7346 2.93754 23.5152V18.9432L3.78974 19.6217C4.25851 19.9949 5.07144 20.5647 5.5964 20.8881ZM3.85982 34.2514C4.93755 35.1326 5.79629 35.6674 7.52524 36.5338C18.2609 41.9137 37.1819 42.2636 49.0927 37.3026C51.1153 36.4601 53.3598 35.1562 54.6149 34.0943L55.2285 33.5752L55.2696 34.6543C55.2922 35.2479 55.2922 37.4273 55.2696 39.4975L55.2285 43.2614L54.836 44.0101C53.3582 46.8293 48.7245 49.4427 42.4796 50.9791C34.9792 52.8245 25.4835 52.9853 17.6636 51.3994C10.4771 49.942 5.02727 47.1156 3.39213 43.9982L3.00571 43.2614L2.96508 38.4367C2.94285 35.7832 2.95894 33.612 3.00108 33.612C3.04321 33.612 3.42963 33.8997 3.85982 34.2514ZM5.76793 50.1921C9.68396 52.5758 15.2582 54.2356 22.1002 55.0552C25.0215 55.4051 33.2131 55.4049 36.1392 55.0548C44.2447 54.0852 50.6441 51.9027 54.4495 48.8101L55.3067 48.1134L55.2677 52.9417L55.2285 57.7698L54.8294 58.591C54.3467 59.5842 53.0217 60.9507 51.6816 61.8372C43.0635 67.5385 24.9036 68.8127 12.346 64.5974C10.3699 63.934 7.30653 62.4078 6.00218 61.4369C4.69211 60.4617 3.88709 59.5713 3.38218 58.5392L3.00571 57.7698L2.96658 52.9417L2.92758 48.1134L3.78469 48.8101C4.2562 49.1932 5.14862 49.8151 5.76793 50.1921Z" fill="white"/>
</svg>
