<svg width="70" height="70" viewBox="0 0 70 70" fill="none" xmlns="http://www.w3.org/2000/svg">
<path fill-rule="evenodd" clip-rule="evenodd" d="M39.9798 0.0660294C28.3207 0.694108 20.5019 2.96914 18.5409 6.30402L18.1534 6.96317L18.1124 13.0716L18.0714 19.1801H13.8734H9.67554L4.83784 24.0182L0 28.8564V42.0964V55.3366H9.03304H18.0661L18.1097 59.1853L18.1534 63.034L18.5409 63.6932C20.1635 66.4527 25.9667 68.5456 34.6821 69.5147C41.4853 70.2711 49.7243 70.1358 56.226 69.1611C63.4292 68.0813 68.1721 66.1426 69.6152 63.6885L70 63.034V34.9986V6.96317L69.6152 6.30868C67.7012 3.05375 59.9566 0.725462 49.0212 0.117439C46.6555 -0.0140518 41.963 -0.0407454 39.9798 0.0660294ZM48.9506 2.37525C55.8623 2.78045 61.7294 3.93054 65.1968 5.55984C66.5323 6.1875 67.3475 6.80117 67.6286 7.39069C67.8465 7.84717 67.8465 7.91524 67.6286 8.37172C66.9008 9.89764 62.5601 11.5724 56.8618 12.5256C46.5309 14.2539 33.4846 13.6908 25.5203 11.1727C22.7504 10.2969 20.9657 9.29625 20.5248 8.37172C20.3071 7.91538 20.3071 7.84703 20.5243 7.39154C21.5922 5.15266 29.7635 2.92042 38.8496 2.38541C41.6643 2.21974 46.2189 2.21508 48.9506 2.37525ZM30.7195 4.68898C30.1455 4.94052 29.5578 5.66012 29.4478 6.24611C29.3987 6.5074 29.3804 7.42261 29.4069 8.28006C29.4591 9.96458 29.58 10.2763 30.4277 10.909C30.8153 11.1983 30.9058 11.2003 44.0767 11.2003C57.2476 11.2003 57.3381 11.1983 57.7256 10.909C58.6284 10.2352 58.6983 10.0174 58.6983 7.88121C58.6983 5.745 58.6284 5.52722 57.7256 4.85338C57.339 4.56469 57.2219 4.56187 44.243 4.53122C33.5741 4.50608 31.0705 4.53517 30.7195 4.68898ZM56.5086 7.88121V9.0111H44.0767H31.6448V7.88121V6.75131H44.0767H56.5086V7.88121ZM21.6852 12.0679C24.6149 13.5784 29.2835 14.7146 35.0379 15.318L37.2957 15.5549V21.1809C37.2957 26.4449 37.2797 26.8069 37.0484 26.8067C36.9125 26.8066 35.943 26.7084 34.894 26.5884C28.6144 25.8702 23.8894 24.5561 21.3674 22.8268C20.3251 22.112 20.3431 22.2228 20.3431 16.4918C20.3431 13.685 20.3908 11.4103 20.449 11.437C20.5072 11.4635 21.0636 11.7474 21.6852 12.0679ZM67.8093 16.5319C67.8085 21.2521 67.7883 21.6823 67.5504 22.043C66.4152 23.7641 61.3531 25.5098 54.9691 26.3816L53.7829 26.5436L53.1158 25.8867L52.4487 25.2297L51.7285 25.5947C51.3325 25.7954 50.9745 25.9595 50.933 25.9595C50.8916 25.9595 50.8577 23.6169 50.8577 20.7538V15.5479L52.5883 15.3789C58.4756 14.8033 63.7082 13.5521 66.4682 12.0594C67.0898 11.7233 67.646 11.4401 67.7043 11.4302C67.7627 11.4203 67.8099 13.7161 67.8093 16.5319ZM48.5974 20.9809C48.5974 23.8745 48.5674 26.2419 48.5308 26.2419C48.4941 26.2419 48.1286 26.0935 47.7185 25.9122L46.9728 25.5825L46.5116 24.0761L46.0507 22.5698H42.8033H39.556V19.1448V15.7198H44.0767H48.5974V20.9809ZM18.0827 37.2584V53.0769H10.1715H2.26034V41.7779V30.479H6.78103H11.3017V25.9595V21.4399H14.6922H18.0827V37.2584ZM9.04137 25.677V28.2193H6.46458H3.88793L6.42785 25.677C7.82488 24.2788 8.9843 23.1347 9.00464 23.1347C9.02484 23.1347 9.04137 24.2788 9.04137 25.677ZM13.5621 24.8296V25.9595H14.6922H15.8224V24.8296V23.6997H14.6922H13.5621V24.8296ZM23.2099 26.3061C26.2472 27.4908 30.7083 28.4442 35.4388 28.9196C36.2435 29.0006 36.9904 29.0667 37.0987 29.0667C37.2639 29.0667 37.2957 29.9793 37.2957 34.7161C37.2957 40.0025 37.2798 40.3656 37.0484 40.3654C36.9125 40.3653 35.943 40.2671 34.894 40.1471C28.6144 39.4289 23.8894 38.1148 21.3674 36.3855C20.3244 35.6702 20.3431 35.7868 20.3431 30.0021V24.8502L21.1396 25.3297C21.5777 25.5934 22.5092 26.0328 23.2099 26.3061ZM44.8157 26.1794L45.2098 27.4584L46.2326 27.7862C46.795 27.9664 47.7605 28.367 48.3778 28.6764L49.5004 29.2388L50.7478 28.6276L51.9954 28.0163L53.7884 29.8089L55.5814 31.6014L54.97 32.8487L54.3586 34.0958L54.9211 35.2181C55.2306 35.8353 55.6313 36.8005 55.8115 37.3628L56.1394 38.3853L57.4188 38.7795L58.6983 39.1738V41.7779V44.3821L57.4188 44.7764L56.1394 45.1706L55.8115 46.1931C55.6313 46.7554 55.2306 47.7206 54.9211 48.3378L54.3586 49.4601L54.97 50.7072L55.5814 51.9545L53.7884 53.747L51.9954 55.5396L50.7478 54.9283L49.5004 54.3171L48.3778 54.8795C47.7605 55.1889 46.795 55.5895 46.2326 55.7697L45.2098 56.0975L44.8157 57.3765L44.4214 58.6557L41.9887 58.6944L39.556 58.733V56.4328V54.1325H41.6398C43.3417 54.1326 43.9306 54.0761 44.8537 53.8246C50.2524 52.3533 53.885 47.9183 54.2003 42.4135C54.6216 35.0592 48.4996 28.9894 41.0747 29.3998L39.556 29.4837V27.1533V24.8229L41.9887 24.8615L44.4214 24.9002L44.8157 26.1794ZM67.8093 30.0906C67.8085 34.8108 67.7883 35.241 67.5504 35.6017C66.9796 36.4672 65.1987 37.4488 62.7245 38.262L61.0999 38.796L61.057 38.1705L61.014 37.5451L59.5191 37.0797L58.0241 36.6143L57.4711 35.324L56.9178 34.0337L57.6433 32.5887L58.3686 31.1436L57.0881 29.8579L55.8077 28.5723L57.6768 28.2414C61.4524 27.5731 65.0548 26.4654 66.892 25.4078C67.2805 25.1841 67.646 24.9943 67.7043 24.9859C67.7627 24.9776 67.8099 27.2748 67.8093 30.0906ZM13.5621 29.3491V30.479H14.6922H15.8224V29.3491V28.2193H14.6922H13.5621V29.3491ZM44.8537 32.0893C46.4568 32.5997 47.6487 33.3432 48.951 34.6451C50.2419 35.9357 50.9844 37.1188 51.5216 38.7414C51.8518 39.7391 51.8956 40.0944 51.8956 41.7779C51.8956 43.4615 51.8518 43.8168 51.5216 44.8145C50.9844 46.4371 50.2419 47.6202 48.951 48.9108C47.6564 50.2051 46.4703 50.9477 44.8537 51.4762C43.9077 51.7855 43.4472 51.8482 42.0283 51.8611C41.0959 51.8694 40.1581 51.8275 39.9445 51.7677C39.5622 51.6608 39.556 51.6412 39.556 50.5302V49.4013L40.1564 49.5089C41.238 49.7027 43.245 49.6183 44.0767 49.344C46.6531 48.4942 48.5201 46.6303 49.3916 44.0377C49.7542 42.9588 49.7537 40.5937 49.3903 39.5182C48.1604 35.8774 44.822 33.5978 41.1919 33.9201C40.6418 33.969 40.0488 34.0484 39.8739 34.0965C39.5632 34.1821 39.556 34.1582 39.556 33.0405C39.556 31.9687 39.5759 31.8925 39.8739 31.829C40.0488 31.7917 40.3189 31.7298 40.4743 31.6917C41.2179 31.5086 43.7528 31.7389 44.8537 32.0893ZM4.52069 33.8687V34.9986H10.1715H15.8224V33.8687V32.7388H10.1715H4.52069V33.8687ZM44.1373 36.668C45.412 37.2645 46.2367 38.0754 46.8689 39.3543C47.3675 40.3628 47.3966 40.4962 47.3966 41.7779C47.3966 43.0597 47.3675 43.1931 46.8689 44.2016C46.2331 45.4881 45.4141 46.289 44.1021 46.9081C43.263 47.304 43.0176 47.3534 41.887 47.3549C41.1856 47.3559 40.3781 47.2728 40.0858 47.1692L39.556 46.9818V41.7779V36.5741L40.0151 36.4312C40.8811 36.1614 41.0416 36.1435 42.1341 36.1932C42.9855 36.2319 43.4308 36.3375 44.1373 36.668ZM4.52069 38.3883V39.5182H10.1715H15.8224V38.3883V37.2584H10.1715H4.52069V38.3883ZM23.3719 39.9205C26.6016 41.1564 31.1807 42.0935 36.2714 42.5601L37.2957 42.654V48.2891C37.2957 53.5619 37.2797 53.9243 37.0484 53.9241C36.9125 53.924 35.943 53.8258 34.894 53.7058C28.5649 52.982 23.7585 51.6371 21.3533 49.9174C20.3189 49.1776 20.3431 49.3297 20.3431 43.5608V38.4089L21.1469 38.8928C21.5891 39.159 22.5903 39.6214 23.3719 39.9205ZM67.8103 43.6276C67.8103 49.5282 67.8839 49.1906 66.3805 50.1917C64.8306 51.2237 61.9561 52.2029 58.0626 53.0253L57.7094 53.0999L58.0367 52.7515L58.3639 52.403L57.6409 50.9626L56.9178 49.5222L57.4711 48.2319L58.0241 46.9416L59.5267 46.4738L61.0293 46.006V43.5616V41.1172L62.1241 40.8233C63.7463 40.3876 65.4932 39.7191 66.6095 39.1067C67.1534 38.8083 67.646 38.5565 67.7043 38.5469C67.7627 38.5373 67.8103 40.8236 67.8103 43.6276ZM4.52069 46.2975V50.8171H10.1715H15.8224V46.2975V41.7779H10.1715H4.52069V46.2975ZM13.5621 46.2975V48.5573H10.1715H6.78103V46.2975V44.0377H10.1715H13.5621V46.2975ZM23.3719 53.4792C26.6016 54.7151 31.1807 55.6522 36.2714 56.1188L37.2957 56.2127V61.8564V67.5001L36.2714 67.4092C34.2747 67.2321 30.3927 66.633 28.5943 66.2246C24.2757 65.2435 21.1699 63.8699 20.5467 62.6648C20.3804 62.3432 20.3431 61.3289 20.3431 57.1195V51.9676L21.1469 52.4515C21.5891 52.7177 22.5903 53.1801 23.3719 53.4792ZM67.8097 57.208C67.8092 63.0765 67.8627 62.8086 66.5117 63.7052C64.146 65.275 59.3195 66.5714 53.2593 67.2645C52.2104 67.3845 51.2408 67.4827 51.1049 67.4828C50.8742 67.483 50.8577 67.1535 50.8577 62.5397C50.8577 59.8209 50.8916 57.5964 50.933 57.5964C50.9745 57.5964 51.3331 57.761 51.7301 57.9621L52.4518 58.3278L53.7385 57.0594L55.0252 55.7911L57.003 55.4742C60.8678 54.8547 64.617 53.7585 66.6095 52.6654C67.1534 52.367 67.646 52.1152 67.7043 52.1056C67.7627 52.096 67.81 54.3922 67.8097 57.208ZM48.5266 67.6008C48.399 67.7283 42.3457 67.807 40.9153 67.6998L39.556 67.5978V64.292V60.9861H42.8007H46.0454L46.5176 59.4678L46.9897 57.9495L47.7582 57.6411L48.5267 57.3326L48.5639 62.4295C48.5842 65.2328 48.5674 67.56 48.5266 67.6008Z" fill="white"/>
</svg>
