<svg width="50" height="70" viewBox="0 0 50 70" fill="none" xmlns="http://www.w3.org/2000/svg">
<path fill-rule="evenodd" clip-rule="evenodd" d="M20.0454 0.104982C19.3145 0.322929 18.3168 1.09389 17.9129 1.75238C17.3736 2.6321 17.2749 3.54836 17.2718 7.7081L17.2691 11.2841L16.1444 11.7325C8.72139 14.692 3.20254 20.8691 1.17683 28.4852C0.580392 30.7277 0.362402 32.4493 0.359403 34.9408C0.356404 37.4485 0.594843 39.3682 1.13825 41.2091L1.50157 42.4404L1.5805 52.5648C1.65534 62.1591 1.67307 62.7166 1.91928 63.2144C2.20952 63.8009 2.9367 64.3479 3.6043 64.4818L4.04519 64.5703V66.6406C4.04519 69.3945 4.24177 70 5.13581 70C6.03109 70 6.22644 69.3953 6.22644 66.6235V64.5361L6.73768 64.5331C7.43241 64.529 8.30423 64.1086 8.66114 63.6054C9.13188 62.942 9.22567 62.0023 9.22567 57.948V54.1335L10.0777 54.7944C12.9491 57.0218 16.5786 58.6775 20.3365 59.4744C22.1224 59.8531 26.0749 59.9941 28.1447 59.7531C32.2637 59.2732 36.6261 57.5384 39.8998 55.0786L41.1063 54.1719L41.1506 58.4306C41.1907 62.2907 41.219 62.7382 41.4546 63.2144C41.7448 63.8009 42.472 64.3479 43.1396 64.4818L43.5805 64.5703V66.6406C43.5805 69.3945 43.7771 70 44.6711 70C45.5664 70 45.7618 69.3953 45.7618 66.6235V64.5361L46.273 64.5331C46.9677 64.529 47.8395 64.1086 48.1964 63.6054C48.3585 63.377 48.5519 62.8689 48.6262 62.4762C48.7069 62.0488 48.761 57.9835 48.761 52.343V42.9234L49.0974 41.7581C49.8145 39.2746 49.919 38.4142 49.9194 34.9839C49.9198 32.171 49.8807 31.5748 49.6068 30.2181C49.1475 27.9436 48.4731 25.9935 47.3982 23.8335C46.1827 21.3904 45.0095 19.7447 42.9993 17.6632C40.4969 15.0719 37.8622 13.2582 34.6298 11.9014L33.109 11.263L33.0588 7.08176C33.0123 3.20481 32.9882 2.85593 32.7267 2.285C32.3223 1.40227 31.7859 0.820391 30.9865 0.397083L30.2885 0.0275443L25.3806 0.00250699C22.6599 -0.0114482 20.2823 0.0342482 20.0454 0.104982ZM30.0353 2.23507C30.9505 2.67082 30.9019 1.89905 30.9019 16.035C30.9019 30.1709 30.9505 29.3991 30.0353 29.8349C29.6308 30.0275 28.9564 30.0586 25.1761 30.0586C20.3452 30.0586 20.0554 30.0149 19.6488 29.2261C19.3516 28.6492 19.3505 3.42276 19.6477 2.84595C20.0547 2.05625 20.3091 2.01794 25.1555 2.01452C28.9592 2.01178 29.6301 2.04216 30.0353 2.23507ZM23.9193 12.9267C21.6644 15.1896 21.4953 15.3941 21.4953 15.8582C21.4953 16.2343 21.5837 16.427 21.8545 16.6407C22.1708 16.8905 22.4017 16.9243 23.7899 16.9243H25.3662L23.7715 18.5446C22.4385 19.8991 22.1769 20.2332 22.1769 20.5816C22.1769 21.1761 22.5808 21.6216 23.12 21.6216C23.5092 21.6216 23.8603 21.3219 26.1518 19.0336C27.5772 17.61 28.7912 16.3226 28.8496 16.1725C28.9868 15.8203 28.7625 15.1778 28.4427 15.006C28.3056 14.9324 27.4838 14.872 26.6166 14.872C25.7494 14.872 25.0398 14.8247 25.0398 14.7668C25.0398 14.709 25.6533 14.0483 26.4031 13.2987C27.5748 12.1271 27.7664 11.8728 27.7664 11.4885C27.7664 10.9096 27.3551 10.4939 26.7822 10.4939C26.3953 10.4939 26.0564 10.7818 23.9193 12.9267ZM17.2691 15.3378V17.1718L16.2807 17.6842C11.1915 20.3231 7.72006 24.7938 6.2518 30.5998C5.91221 31.9429 5.88699 32.2453 5.88699 34.9839C5.88699 37.7475 5.90989 38.0161 6.26502 39.4231C8.13 46.8115 13.3907 52.091 20.7528 53.9626C22.1548 54.319 22.4224 54.342 25.1761 54.342C27.9298 54.342 28.1974 54.319 29.5995 53.9626C33.3613 53.0063 36.3851 51.287 39.0135 48.6098C41.4944 46.0828 43.1716 43.0465 44.0879 39.4231C44.447 38.0032 44.4662 37.7692 44.459 34.9155C44.4518 31.9925 44.4392 31.8594 44.0268 30.3039C42.5693 24.8068 39.1941 20.4517 34.3467 17.8136L33.0897 17.1295L33.0865 15.3167C33.0847 14.3197 33.1109 13.5039 33.1448 13.5039C33.3271 13.5039 35.5034 14.5362 36.4635 15.078C38.1963 16.0559 39.7 17.2346 41.3311 18.8932C44.5313 22.1475 46.5266 25.8615 47.5575 30.4828C47.8413 31.755 47.874 32.2386 47.8669 35.0524C47.8601 37.7736 47.8185 38.3822 47.5592 39.5529C46.5131 44.2762 44.3048 48.2637 40.9399 51.5057C37.8771 54.4566 34.3722 56.337 30.005 57.3723C28.4606 57.7384 28.2208 57.7573 25.1761 57.7538C22.3717 57.7503 21.8027 57.7119 20.6103 57.4452C14.5353 56.0868 9.49683 52.6526 6.12393 47.571C4.63085 45.3215 3.43089 42.4331 2.79301 39.5529C2.53371 38.3822 2.49213 37.7736 2.48531 35.0524C2.47822 32.2386 2.51094 31.755 2.79478 30.4828C3.2842 28.2889 3.83142 26.7322 4.7954 24.7912C7.02956 20.2928 10.6416 16.6597 15.0329 14.4939C16.5933 13.7243 17.0248 13.5261 17.1668 13.5132C17.223 13.508 17.2691 14.3292 17.2691 15.3378ZM17.2691 21.489V23.4542L16.7409 23.8216C15.9799 24.3508 14.2724 26.16 13.6307 27.117C12.0105 29.5332 11.262 32.0157 11.2587 34.9839C11.2547 38.7104 12.4891 41.8693 14.9796 44.5056C16.3081 45.912 17.4672 46.7751 19.1095 47.5811C24.5325 50.2427 30.9704 49.094 35.1581 44.7176C36.9448 42.8504 38.0492 40.923 38.6972 38.5412C38.9753 37.5186 39.0125 37.0811 39.006 34.9155C38.999 32.6358 38.9707 32.3615 38.6256 31.2215C38.1687 29.7119 37.5173 28.3006 36.7508 27.1593C36.0832 26.1654 34.3844 24.3593 33.6113 23.8216L33.0832 23.4542V21.489C33.0832 20.4082 33.1256 19.5238 33.1775 19.5238C33.409 19.5238 35.1612 20.6808 36.1978 21.5181C40.2068 24.7566 42.4899 29.6427 42.4899 34.9839C42.4899 37.9523 42.0109 40.0464 40.7199 42.7231C38.7624 46.7816 34.9629 50.1032 30.6293 51.5447C28.2055 52.3508 24.6085 52.6059 22.1578 52.1453C15.7752 50.9457 10.7201 46.5622 8.67804 40.4566C7.5506 37.0852 7.57937 32.7443 8.75234 29.2957C9.49383 27.1157 10.9712 24.6716 12.6179 22.9007C13.5919 21.8535 16.727 19.5238 17.1626 19.5238C17.2211 19.5238 17.2691 20.4082 17.2691 21.489ZM17.7532 30.0166C18.1275 30.7845 18.6139 31.2641 19.5027 31.7411C20.0524 32.0363 20.1681 32.0424 25.1761 32.0424C30.1842 32.0424 30.2999 32.0363 30.8496 31.7411C32.4339 30.8906 32.9163 29.9965 33.04 27.6821L33.1257 26.0759L33.7286 26.6649C35.1051 28.0098 36.3975 30.4471 36.8311 32.5161C37.0922 33.7616 37.0956 36.1901 36.838 37.4193C35.8711 42.032 32.1744 45.74 27.5851 46.7003C26.3409 46.9607 24.0113 46.9607 22.7672 46.7003C18.6668 45.8423 15.206 42.7392 13.8573 38.7114C13.4647 37.5387 13.4032 37.1555 13.3468 35.5286C13.2989 34.1503 13.3386 33.4073 13.5022 32.6132C13.942 30.4793 15.034 28.3607 16.4932 26.8109L17.2009 26.0591L17.3031 27.6811C17.3867 29.0074 17.4687 29.4332 17.7532 30.0166ZM4.19678 48.3577C4.6772 49.1524 5.92898 50.8338 6.5171 51.4739L7.04769 52.0517L7.01197 57.2336L6.97625 62.4155H5.40847H3.84069L3.80538 55.1301C3.78602 51.123 3.79639 47.8446 3.82842 47.8446C3.86046 47.8446 4.02624 48.0756 4.19678 48.3577ZM46.5155 62.3174C46.4652 62.4491 46.0652 62.4832 44.9123 62.4542L43.376 62.4155L43.3403 57.2336L43.3046 52.0517L43.8352 51.4739C44.4559 50.7982 45.7683 49.0383 46.2063 48.2945L46.5116 47.7762L46.547 54.959C46.5665 58.9096 46.5523 62.2208 46.5155 62.3174Z" fill="white"/>
</svg>
