<svg width="70" height="70" viewBox="0 0 70 70" fill="none" xmlns="http://www.w3.org/2000/svg">
<path fill-rule="evenodd" clip-rule="evenodd" d="M52.1851 0.103483C51.384 0.15217 50.7826 0.256519 50.6452 0.370304C50.3689 0.599242 50.1929 1.2494 50.0662 2.50843C49.9339 3.82434 49.8862 3.91105 49.096 4.27661L48.4007 4.59813L47.1149 3.79795C45.5663 2.83419 45.1154 2.76937 44.5043 3.4224C42.985 5.0463 42.0849 6.1062 42.004 6.36673C41.8844 6.75185 42.0396 7.03946 43.1072 8.41131L43.9759 9.52755L43.7581 10.0524C43.6382 10.3411 43.524 10.5948 43.5041 10.6162C43.4844 10.6376 42.3434 10.1606 40.9686 9.55627C39.5937 8.95192 38.3563 8.45753 38.2185 8.45753C37.649 8.45753 37.266 9.13942 35.2611 13.7228L33.2273 18.3727L33.1919 10.1766C33.1534 1.25624 33.1868 1.62235 32.3942 1.42377C32.0087 1.32722 31.3149 1.64027 31.1892 1.96754C31.1425 2.08925 31.1041 3.25241 31.1041 4.55218V6.91541L30.0426 7.00937C25.9797 7.3685 21.6264 9.11535 18.4298 11.6688C16.0798 13.5461 13.4343 16.6804 13.4343 17.5872C13.4343 18.1081 13.9392 18.5778 14.4993 18.5778C14.8783 18.5778 15.0244 18.4501 15.7116 17.518C18.6703 13.5048 22.1513 11.0512 26.8071 9.69713C27.7436 9.42471 30.1522 9.00704 30.7959 9.0054L31.1041 9.00458V30.8863V52.7681H27.8032C23.1078 52.7681 23.1596 52.805 23.1596 49.461C23.1596 47.8617 23.1128 47.2919 22.9642 47.0801C22.8567 46.9269 22.2866 46.5162 21.6972 46.1675C17.0677 43.4286 13.628 38.5574 12.4708 33.1017C12.1111 31.4058 11.9756 28.353 12.1874 26.7151C12.2749 26.0382 12.5044 24.8444 12.6972 24.0622C13.083 22.4984 13.0364 22.1714 12.3855 21.8752C11.9184 21.6628 11.7413 21.6836 11.3414 21.9976C11.0622 22.2168 10.9226 22.5659 10.6441 23.7413C10.1002 26.0369 9.96566 27.4283 10.0522 29.8606C10.2063 34.186 11.4043 37.8695 13.8571 41.5594C15.0584 43.3667 17.8444 46.1301 19.7009 47.3561L21.1049 48.2832V50.0226C21.1049 52.0282 21.2798 52.7171 22.0031 53.5606C22.2629 53.8637 22.7526 54.2457 23.0915 54.4094L23.7075 54.7071V57.4698C23.7075 60.4864 23.8395 61.3389 24.4744 62.4204C25.5857 64.3139 27.5981 65.3501 30.1639 65.3501H31.1041V67.318C31.1041 68.9912 31.14 69.329 31.3438 69.5741C31.7096 70.0139 32.3346 70.0804 32.7843 69.7273L33.1588 69.4331V56.8518C33.1588 44.3409 33.1603 44.271 33.4322 44.3572C33.8206 44.4803 43.5823 48.7699 43.6675 48.855C43.7063 48.8937 43.6845 49.2123 43.6192 49.5631C43.5138 50.129 43.4432 50.2237 42.9926 50.4027L42.4849 50.6044L41.4435 49.8856C39.9482 48.8536 39.8558 48.8707 38.2788 50.4683C36.7093 52.0583 36.6908 52.1573 37.6953 53.5853C38.3767 54.5541 38.3919 54.5967 38.2401 55.1029C38.0684 55.675 38.0589 55.6798 36.5832 55.9313C35.0094 56.1996 34.9394 56.3083 34.9394 58.4875C34.9394 60.7927 34.9785 60.85 36.7683 61.1718L38.0559 61.4032L38.2604 61.923L38.4649 62.4429L37.7295 63.5112C37.3194 64.107 36.9941 64.7317 36.9941 64.9232C36.9941 65.4273 39.5358 67.9486 40.044 67.9486C40.2583 67.9486 40.8491 67.6485 41.4811 67.219L42.5545 66.4892L43.0274 66.7016C43.2876 66.8184 43.5186 66.924 43.541 66.9361C43.5633 66.9483 43.6815 67.5019 43.8037 68.1664C44.132 69.9519 44.2009 70 46.4207 70C48.6588 70 48.7852 69.926 49.0368 68.4699C49.3122 66.8764 49.298 66.9061 49.8679 66.7184C50.3869 66.5473 50.4055 66.5538 51.3909 67.2469C52.8465 68.2709 52.9456 68.2507 54.5698 66.6001C55.3898 65.7668 55.8967 65.1429 55.8967 64.9671C55.8967 64.8106 55.5575 64.1881 55.1431 63.5839L54.3894 62.4851L54.6016 61.9556L54.8138 61.4262L55.9835 61.2444C56.6929 61.1343 57.2834 60.9605 57.4838 60.8032C57.8048 60.5512 57.8144 60.4885 57.8144 58.654C57.8144 56.344 57.7745 56.2704 56.3761 55.9965C55.4745 55.8199 55.6788 55.8075 59.8005 55.7879C62.9571 55.773 64.2637 55.7206 64.4697 55.6011C64.6271 55.5098 65.7788 54.3492 67.0291 53.0222C68.7716 51.1728 69.3219 50.5024 69.3862 50.1502C69.4322 49.8976 69.4517 45.7315 69.4293 40.8922L69.3888 32.0934L69.0044 31.7634L68.6201 31.4334H62.5341H56.448L56.7972 30.647C56.9892 30.2146 57.4603 29.1389 57.8439 28.2568L58.5416 26.6529L57.9746 25.189C57.6627 24.3838 57.4221 23.7199 57.4397 23.7138C57.4574 23.7076 57.8155 23.5402 58.2353 23.3418L58.9986 22.9809L60.0845 23.6634C61.6891 24.6722 61.9803 24.7809 62.4391 24.5421C62.7919 24.3585 65.1088 21.8716 65.3832 21.3821C65.5939 21.0063 65.3933 20.5781 64.4136 19.3108L63.4769 18.0992L63.7532 17.3346L64.0293 16.5699L65.3929 16.2629C67.0779 15.8835 67.3462 15.7641 67.5292 15.312C67.7115 14.8615 67.5176 11.2524 67.288 10.824C67.0884 10.4519 66.9701 10.4159 65.1612 10.1788C64.3474 10.072 63.6688 9.96423 63.6532 9.9392C63.6377 9.91404 63.4835 9.58184 63.3108 9.20096L62.9964 8.50827L63.8298 7.18757C64.3226 6.40653 64.6631 5.71452 64.6631 5.49392C64.6631 5.10142 64.2039 4.61099 62.2967 2.96671C61.6462 2.40586 61.255 2.16652 60.9886 2.16652C60.7278 2.16652 60.2118 2.47054 59.3456 3.13438L58.0828 4.1021L57.3003 3.84171L56.5177 3.58132L56.1519 2.02416C55.6321 -0.187818 55.7815 -0.115471 52.1851 0.103483ZM54.382 3.51335C54.545 4.21643 54.7521 4.91118 54.8424 5.05711C54.9338 5.20494 55.34 5.41815 55.7597 5.53864C56.1741 5.65762 56.8721 5.90407 57.3108 6.08651C57.8133 6.29534 58.219 6.38369 58.4066 6.32515C58.5706 6.27414 59.203 5.84923 59.8121 5.38096L60.9195 4.52975L61.6224 5.13438L62.3254 5.739L61.5789 6.89435C61.1683 7.52974 60.7969 8.19112 60.7534 8.36399C60.6991 8.58034 60.8689 9.04957 61.299 9.87041C61.6426 10.5262 61.9236 11.1439 61.9236 11.2432C61.9236 11.6713 62.4865 11.9272 63.8111 12.1017C64.5434 12.1981 65.2197 12.2792 65.3138 12.2819C65.4333 12.2853 65.485 12.5656 65.485 13.2116V14.1364L64.081 14.4482C63.2898 14.6238 62.5785 14.8619 62.4514 14.9936C62.3273 15.122 62.1213 15.5945 61.9936 16.0437C61.866 16.4927 61.6439 17.0903 61.5001 17.3716C61.084 18.186 61.1586 18.4654 62.1344 19.7421L63.03 20.9141L62.7641 21.2845C62.618 21.4883 62.3415 21.801 62.1499 21.9796L61.8014 22.3042L60.5807 21.5352C59.9093 21.1122 59.2279 20.766 59.0667 20.766C58.9055 20.766 58.3502 20.9814 57.8329 21.2447C57.3154 21.508 56.832 21.7234 56.7584 21.7234C56.6481 21.7234 56.31 20.9736 55.8249 19.654C55.7641 19.4887 55.9077 19.3514 56.379 19.1235C57.3608 18.649 58.5675 17.4518 59.0497 16.4734C60.5376 13.4561 59.3568 9.98337 56.3364 8.49295C55.3137 7.98844 55.2652 7.97887 53.7122 7.97887C52.2226 7.97887 52.0767 8.00403 51.2227 8.40802C49.7173 9.12014 48.6019 10.3208 48.0855 11.7848C47.9484 12.1737 47.7851 12.4819 47.723 12.4694C47.2429 12.374 45.4866 11.515 45.4866 11.3757C45.4866 11.2793 45.6407 10.8526 45.829 10.4274C46.0173 10.0022 46.1714 9.50156 46.1714 9.31489C46.1714 9.10468 45.8287 8.53726 45.2711 7.82433L44.3708 6.67307L44.9414 5.99255C45.2552 5.61824 45.5364 5.31203 45.5661 5.31203C45.596 5.31203 46.1658 5.65051 46.8325 6.06421C47.4991 6.47792 48.1979 6.8164 48.3852 6.8164C48.5725 6.8164 49.1837 6.58568 49.7432 6.30355C50.3029 6.02154 50.9574 5.71014 51.1976 5.61181C51.6754 5.41624 51.8429 5.04712 51.9855 3.87604C52.0313 3.49994 52.1029 2.96425 52.1445 2.68567L52.2203 2.17897L53.0654 2.13862C53.5303 2.11633 53.95 2.12891 53.9982 2.16652C54.0464 2.20413 54.2192 2.81012 54.382 3.51335ZM9.72541 6.66911C9.50515 6.88902 9.32503 7.20754 9.32503 7.37685C9.32503 7.7435 13.1909 11.7079 13.6641 11.8265C13.8282 11.8677 14.0908 11.8606 14.2478 11.8108C14.6086 11.6964 14.9865 10.9819 14.8897 10.5967C14.7717 10.1278 10.7993 6.26936 10.4343 6.26936C10.2647 6.26936 9.94566 6.4492 9.72541 6.66911ZM55.0316 10.1432C56.9133 10.8359 58.0282 12.9266 57.4941 14.7611C57.2102 15.7362 56.598 16.5721 55.7957 17.08C55.4451 17.3021 55.114 17.4838 55.0601 17.4838C55.0059 17.4838 54.7971 17.0532 54.5957 16.5271C54.3944 16.001 54.0919 15.4626 53.9236 15.3305C53.7552 15.1985 52.7743 14.7224 51.7436 14.2727C49.6798 13.3722 49.6535 13.3418 50.0733 12.3388C50.4278 11.4917 51.0735 10.8183 51.9513 10.3804C52.6442 10.0347 52.9471 9.96368 53.6928 9.9723C54.1892 9.97804 54.7917 10.0549 55.0316 10.1432ZM45.3911 13.7439C48.9467 15.2975 51.8736 16.5818 51.8951 16.5981C51.9167 16.6142 51.2849 18.104 50.4911 19.9085C49.6973 21.7131 49.0479 23.3144 49.0479 23.4671C49.0479 23.6197 49.1559 23.8691 49.2876 24.0215C49.4194 24.1737 50.9759 24.9301 52.7463 25.7021C54.5167 26.4743 55.9853 27.1201 56.0098 27.1374C56.0344 27.1548 55.6381 28.1284 55.1291 29.3011L54.2038 31.4334L52.3449 31.4354C51.1267 31.4367 50.3828 31.4956 50.1859 31.6064C49.6708 31.8963 45.5637 36.3558 45.3915 36.8123C45.2764 37.1174 45.2258 38.7128 45.2203 42.2033C45.216 44.9301 45.1815 47.1609 45.1436 47.1609C45.0776 47.1609 44.0323 46.7075 36.5147 43.4183L33.2273 41.9799L33.1921 32.8348L33.1568 23.6896L35.7697 17.7488C37.2068 14.4814 38.4677 11.6081 38.5716 11.3637C38.6757 11.1193 38.798 10.9192 38.8435 10.9192C38.889 10.9192 41.8353 12.1903 45.3911 13.7439ZM54.4541 21.867C55.0199 23.3189 55.4604 24.5294 55.433 24.5569C55.3871 24.6027 51.6492 22.9948 51.5294 22.8778C51.5003 22.8494 51.867 21.9305 52.3441 20.8359C52.9199 19.5143 53.2473 18.9095 53.3183 19.0361C53.3772 19.141 53.8882 20.4148 54.4541 21.867ZM0.832545 28.4246C0.651189 28.6057 0.558594 28.8805 0.558594 29.2374C0.558594 30.1532 0.732142 30.2025 3.95394 30.2025C5.65614 30.2025 6.84618 30.1461 7.01206 30.0574C7.60242 29.7419 7.589 28.6045 6.9911 28.285C6.85097 28.2101 5.49903 28.1511 3.92353 28.1511C1.28908 28.1511 1.08869 28.1689 0.832545 28.4246ZM65.3718 34.1344C65.0695 34.4918 64.5218 35.0768 64.1545 35.4349L63.4869 36.0857L56.1315 36.0503L48.776 36.0149L49.9505 34.7498L51.1249 33.4848H58.5232H65.9214L65.3718 34.1344ZM67.2657 42.5292V49.7957L66.1719 50.9058L65.0782 52.0159L65.0761 50.1293C65.0742 48.3098 65.0621 48.2306 64.7378 47.9069C64.3228 47.4924 63.6742 47.4645 63.2934 47.8447C63.0376 48.1 63.0194 48.3005 63.0194 50.8577C63.0194 52.9388 62.9778 53.6132 62.8464 53.6636C62.7512 53.7 60.9629 53.7135 58.8724 53.6934L55.0714 53.6571L55.4155 53.1515C56.0372 52.2383 55.9283 51.9265 54.4848 50.4853C52.9124 48.9153 52.7911 48.8934 51.3184 49.9157L50.3052 50.6189L49.7792 50.4099C49.2589 50.203 49.2512 50.1889 49.037 49.057C48.7284 47.4265 48.546 47.1609 47.7354 47.1609H47.4042V42.6478V38.1347H55.2118H63.0194V40.8699C63.0194 43.4228 63.0376 43.6233 63.2934 43.8786C63.7013 44.2859 64.4344 44.2434 64.7901 43.7918C65.0576 43.4524 65.0741 43.2591 65.0741 40.4525V37.4736L66.1156 36.3681C66.6885 35.7601 67.1816 35.2627 67.2114 35.2627C67.2413 35.2627 67.2657 38.5326 67.2657 42.5292ZM13.4891 46.7319C12.6542 47.3436 9.73787 50.3915 9.71979 50.671C9.67281 51.3953 10.1152 51.9475 10.7423 51.9475C11.0872 51.9475 11.468 51.6356 13.1214 49.999C14.2041 48.9272 15.1247 47.9117 15.1673 47.7424C15.2941 47.2375 15.0998 46.769 14.6719 46.5479C14.1392 46.2729 14.1089 46.2776 13.4891 46.7319ZM47.1403 50.2449C47.3322 51.4326 47.6068 51.8591 48.331 52.0931C48.6123 52.184 49.1333 52.4039 49.4886 52.5817C49.8439 52.7594 50.2503 52.9049 50.3917 52.9049C50.533 52.9049 51.0805 52.6021 51.6083 52.232L52.5679 51.5591L52.9928 51.9832L53.4176 52.4075L52.8211 53.2595C51.986 54.452 51.9715 54.5461 52.4616 55.5917C52.6935 56.0865 52.8832 56.5816 52.8832 56.6916C52.8832 56.8019 53.0528 57.061 53.2599 57.2677C53.5583 57.5653 53.8573 57.6789 54.6982 57.8142L55.7597 57.9849V58.5755C55.7597 59.2339 55.7534 59.2379 54.4194 59.4117C53.5137 59.5296 53.118 59.8346 52.8924 60.5884C52.7953 60.9132 52.5993 61.4073 52.4571 61.6863C52.0606 62.4641 52.1282 62.8515 52.8409 63.8836L53.4835 64.814L53.0805 65.2164L52.6775 65.6187L51.6739 64.9374C51.122 64.5627 50.5788 64.256 50.4667 64.256C50.3548 64.256 49.9435 64.401 49.5528 64.5781C49.1622 64.7553 48.6188 64.9731 48.3454 65.062C47.6169 65.299 47.4386 65.5767 47.2368 66.7891L47.0552 67.8802L46.4879 67.9216C45.8479 67.9686 45.876 68.0116 45.6122 66.581C45.4229 65.5544 45.2338 65.2854 44.5454 65.0631C44.272 64.9747 43.7575 64.757 43.4022 64.5792C43.0469 64.4016 42.612 64.256 42.436 64.256C42.2598 64.256 41.7218 64.533 41.2403 64.8715C40.7589 65.2099 40.304 65.4869 40.2293 65.4869C40.0589 65.4869 39.4596 64.9326 39.4596 64.7749C39.4596 64.7105 39.737 64.245 40.076 63.7403C40.415 63.2358 40.6924 62.6818 40.6924 62.5092C40.6924 62.3367 40.5467 61.9053 40.3687 61.5505C40.1907 61.1957 39.9718 60.6795 39.8822 60.4035C39.6565 59.7068 39.4507 59.5774 38.1769 59.3314L37.0626 59.1163L37.0207 58.5452C36.9739 57.908 36.8876 57.9604 38.4211 57.6955C39.3546 57.5344 39.6591 57.3094 39.8841 56.6151C39.9726 56.3421 40.1907 55.8284 40.3687 55.4737C40.5467 55.1189 40.6924 54.7082 40.6924 54.5612C40.6924 54.414 40.3853 53.8428 40.01 53.2918L39.3276 52.2897L39.723 51.8949L40.1185 51.5001L41.1703 52.2025C41.7488 52.5888 42.2812 52.9049 42.3532 52.9049C42.4254 52.9049 42.8801 52.7202 43.3634 52.4946C43.8468 52.2689 44.3421 52.0843 44.464 52.0843C44.5859 52.0843 44.8526 51.915 45.0567 51.7082C45.346 51.4147 45.4662 51.0992 45.603 50.2722L45.7783 49.2123H46.3759H46.9734L47.1403 50.2449ZM45.1148 54.0517C43.6425 54.5338 42.5509 55.5341 42.0501 56.8601C41.8158 57.4806 41.7726 57.8403 41.819 58.7856C41.8847 60.123 42.1571 60.7744 43.0595 61.7518C45.2441 64.118 49.2164 63.5067 50.6546 60.5829C50.9842 59.9128 51.0339 59.6494 51.0334 58.5805C51.0328 57.6067 50.9705 57.2149 50.7349 56.7045C50.3149 55.7949 49.2872 54.7509 48.3981 54.331C47.475 53.895 45.9815 53.768 45.1148 54.0517ZM31.1041 59.0792V63.3389L29.8279 63.2629C28.2742 63.1703 27.4946 62.8445 26.7175 61.9631C25.8921 61.0268 25.7621 60.4051 25.7621 57.3931V54.8195H28.4331H31.1041V59.0792ZM47.8723 56.424C49.9822 57.908 49.0063 61.1105 46.444 61.1105C44.9054 61.1105 43.842 60.0363 43.8435 58.4834C43.8456 56.4248 46.1782 55.2324 47.8723 56.424Z" fill="white"/>
</svg>
