<svg width="62" height="71" viewBox="0 0 62 71" fill="none" xmlns="http://www.w3.org/2000/svg">
<path fill-rule="evenodd" clip-rule="evenodd" d="M10.3279 0.853934L9.48528 1.70591L12.3967 4.61591L15.3082 7.52591L16.1509 6.67393L16.9936 5.82195L14.0822 2.91195L11.1707 0.00195312L10.3279 0.853934ZM48.1906 2.9208L45.2819 5.8336L46.1335 6.67673L46.9851 7.51972L49.8938 4.60707L52.8026 1.69427L51.951 0.851133L51.0993 0.00814396L48.1906 2.9208ZM29.1518 4.0866C21.4702 5.08259 15.4353 10.6096 13.8118 18.1356C13.4361 19.8771 13.4364 23.4721 13.8126 25.2108C14.5886 28.799 16.0612 31.435 19.0367 34.5614C20.8081 36.4228 21.4808 37.379 22.1032 38.9208C22.5171 39.9458 22.89 41.7359 22.89 42.6975C22.89 43.1987 22.9759 43.4406 23.2517 43.7164L23.6132 44.0782H31.1408H38.6684L39.03 43.7164C39.3058 43.4406 39.3917 43.1987 39.3917 42.6975C39.3917 40.9079 40.2328 38.3365 41.3349 36.7568C41.6648 36.2842 42.6091 35.1977 43.4336 34.3424C46.8496 30.7985 48.5643 26.9632 48.7685 22.4102C49.1713 13.4243 42.6879 5.53938 33.7935 4.19803C32.5041 4.00346 30.2157 3.94863 29.1518 4.0866ZM33.2972 6.50295C41.6673 7.66771 47.6372 15.7316 46.2545 24.0051C45.6629 27.5439 44.5 29.7546 41.6372 32.7812C38.9243 35.6495 37.7658 37.726 37.2666 40.6143L37.0882 41.6461H31.1408H25.1934L25.0166 40.6143C24.5123 37.671 23.323 35.5578 20.5366 32.6546C18.8537 30.9013 18.2611 30.1027 17.4736 28.5274C13.6767 20.9316 16.7105 11.7922 24.2897 7.99406C27.1063 6.58269 30.1952 6.07136 33.2972 6.50295ZM19.7156 16.139L19.3539 16.5007V21.6732V26.8457L19.7156 27.2074L20.0772 27.5693H31.1408H42.2045L42.566 27.2074L42.9278 26.8457V21.6732V16.5007L42.566 16.139L42.2045 15.7772H31.1408H20.0772L19.7156 16.139ZM40.5704 21.6732V25.2108H31.1408H21.7113V21.6732V18.1356H31.1408H40.5704V21.6732ZM1.67349 21.6732V22.8524H5.79892H9.92434V21.6732V20.494H5.79892H1.67349V21.6732ZM24.0687 21.6732V22.8524H26.426H28.7834V21.6732V20.494H26.426H24.0687V21.6732ZM31.1408 21.6732V22.8524H34.6769H38.213V21.6732V20.494H34.6769H31.1408V21.6732ZM52.3573 21.6732V22.8524H56.4827H60.6082V21.6732V20.494H56.4827H52.3573V21.6732ZM2.85218 38.3748C2.12906 38.6029 0.8957 39.8805 0.673959 40.6314C0.415972 41.5048 0.415972 66.6983 0.673959 67.5717C0.926199 68.4259 2.13716 69.6135 2.99952 69.8524C3.50827 69.9933 6.11363 70.0249 14.1971 69.9876C24.5721 69.9398 24.7495 69.9341 25.9104 69.6099C27.3775 69.2003 29.3511 68.2668 30.3607 67.5048L31.1274 66.9261L32.0735 67.5876C33.3003 68.4456 34.8961 69.1962 36.3713 69.6091C37.5332 69.9344 37.7003 69.9397 48.0845 69.9876C56.168 70.0249 58.7734 69.9933 59.2821 69.8524C60.1445 69.6135 61.3554 68.4259 61.6077 67.5717C61.8621 66.7098 61.866 41.5023 61.6117 40.6532C61.5153 40.3316 61.1499 39.7495 60.7995 39.3596C59.7243 38.1632 59.8755 38.1822 51.4471 38.1822H44.1064V39.3614V40.5406H51.4062H58.7062L59.0678 40.9025L59.4295 41.2642V54.1015V66.9389L59.0614 67.3071L58.6934 67.6753L48.1953 67.6299L37.6973 67.5845L36.6659 67.2381C35.2873 66.775 34.0327 66.1357 33.093 65.4173L32.3195 64.826V62.1169V59.408H31.1408H29.9621V62.1169V64.826L29.1886 65.4173C28.2489 66.1357 26.9943 66.775 25.6157 67.2381L24.5843 67.5845L14.0863 67.6299L3.58828 67.6753L3.22023 67.3071L2.85218 66.9389V54.1015V41.2642L3.2139 40.9025L3.57546 40.5406H10.8754H18.1752V39.3614V38.1822L10.7715 38.1972C5.82485 38.2072 3.1968 38.2662 2.85218 38.3748ZM24.0687 46.4367V47.6159H31.1408H38.213V46.4367V45.2575H31.1408H24.0687V46.4367ZM6.38826 47.6159V48.7951H11.6924H16.9965V47.6159V46.4367H11.6924H6.38826V47.6159ZM45.2851 47.6159V48.7951H50.5893H55.8934V47.6159V46.4367H50.5893H45.2851V47.6159ZM25.5902 49.1757C25.2202 49.5458 25.2117 49.5977 25.277 51.0676C25.3347 52.3652 25.4084 52.7164 25.7988 53.551C26.4321 54.9047 27.2716 55.7625 28.6125 56.4253C29.6645 56.9455 29.8037 56.9759 31.1408 56.9759C32.4779 56.9759 32.6171 56.9455 33.6691 56.4253C35.01 55.7625 35.8496 54.9047 36.4828 53.551C36.8732 52.7164 36.9469 52.3652 37.0047 51.0676C37.0699 49.5977 37.0614 49.5458 36.6914 49.1757L36.311 48.7951H31.1408H25.9706L25.5902 49.1757ZM34.6769 51.3944C34.6769 52.9792 32.8406 54.6911 31.1408 54.6911C29.441 54.6911 27.6047 52.9792 27.6047 51.3944C27.6047 51.1781 27.967 51.1535 31.1408 51.1535C34.3146 51.1535 34.6769 51.1781 34.6769 51.3944ZM6.38826 53.5119V54.6911H12.8711H19.3539V53.5119V52.3327H12.8711H6.38826V53.5119ZM42.9278 53.5119V54.6911H49.4106H55.8934V53.5119V52.3327H49.4106H42.9278V53.5119ZM6.38826 59.408V60.5872H14.0498H21.7113V59.408V58.2288H14.0498H6.38826V59.408ZM40.5704 59.408V60.5872H48.2319H55.8934V59.408V58.2288H48.2319H40.5704V59.408Z" fill="white"/>
</svg>
