<svg width="70" height="47" viewBox="0 0 70 47" fill="none" xmlns="http://www.w3.org/2000/svg">
<path fill-rule="evenodd" clip-rule="evenodd" d="M15.8506 0.896732C14.3257 1.18973 13.429 1.51343 12.2335 2.20297C6.96969 5.23896 2.95786 13.2353 0.898438 24.7963C0.209681 28.6632 0.00334199 30.8757 5.37179e-05 34.4343C-0.00323456 37.9286 0.143505 39.3734 0.699086 41.3136C1.93808 45.6411 4.93068 47.6243 8.92045 46.762C12.1294 46.0685 15.9201 43.6651 21.3057 38.9097C23.3727 37.0847 24.4482 36.3971 26.3989 35.6537C32.3228 33.3962 41.1432 33.8917 45.9327 36.7511C46.4566 37.0639 47.6955 38.0353 48.6858 38.9097C55.5648 44.9838 60.0546 47.3608 63.7257 46.8724C66.9523 46.4431 68.9267 43.9645 69.7397 39.3222C70.0799 37.3799 70.0882 31.9669 69.7553 29.2022C68.7406 20.7747 66.3808 12.7717 63.5849 8.27578C61.1023 4.2841 58.4734 2.02962 55.205 1.08991C54.274 0.822243 53.7891 0.77488 51.9852 0.77543C49.5312 0.776256 48.815 0.898797 43.1907 2.27966C38.7835 3.3616 36.5241 3.77356 34.9958 3.77356C33.4972 3.77356 31.4075 3.39602 26.8317 2.29866C24.8036 1.81221 22.4353 1.28391 21.5687 1.1246C19.4971 0.743624 17.1374 0.649584 15.8506 0.896732ZM22.3222 4.48361C23.2265 4.68339 24.9479 5.09453 26.1476 5.39744C31.5427 6.75944 34.1381 7.14537 36.2745 6.90318C38.3006 6.67352 39.5973 6.42073 43.3535 5.52315C48.907 4.19612 49.4979 4.09354 51.5742 4.09712C53.2021 4.09974 53.5552 4.1438 54.5199 4.46461C57.5206 5.46243 59.7314 7.73109 61.85 11.987C63.9311 16.1674 65.3693 21.3669 66.3922 28.4083C66.7935 31.171 66.8468 37.5744 66.4827 39.2534C65.6681 43.0074 64.1955 44.2635 61.3853 43.6014C58.7751 42.9864 55.4645 40.8174 50.8891 36.7248C48.2471 34.3615 46.7612 33.4042 44.4146 32.5535C41.6281 31.5435 39.4047 31.145 35.9549 31.0378C32.1694 30.92 29.3832 31.286 26.1585 32.3246C23.303 33.2443 21.2455 34.5204 18.2119 37.2532C15.8876 39.3471 12.8998 41.5336 11.1558 42.4171C7.7808 44.1268 5.66383 43.9993 4.48046 42.0154C3.93393 41.0989 3.67785 40.2658 3.39903 38.4961C3.10336 36.6198 3.21544 31.0799 3.60565 28.2836C4.88081 19.1463 7.5798 11.5154 10.921 7.60125C12.3956 5.8737 14.4097 4.60326 16.2937 4.21196C17.7182 3.91607 20.2743 4.03131 22.3222 4.48361ZM18.0553 9.52735C17.0535 9.65485 15.9313 10.2143 15.1972 10.952C14.5205 11.6319 13.7593 13.0671 13.7592 13.6633C13.759 14.0358 13.5465 14.1944 13.0481 14.1944C12.8954 14.1944 12.3842 14.3797 11.9121 14.6061C9.71197 15.6613 8.56258 18.0532 9.1494 20.3552C9.64579 22.3021 10.9007 23.5751 12.8531 24.1121C13.6698 24.3368 13.6895 24.3536 13.7822 24.8987C14.0151 26.2695 15.2533 27.7987 16.648 28.438C19.2922 29.6499 22.4469 28.3151 23.4768 25.5487C23.633 25.1292 23.7608 24.6722 23.7608 24.5333C23.7608 24.3438 23.9021 24.2581 24.3266 24.1898C25.7834 23.9557 27.2829 22.7489 27.9835 21.2464C28.4873 20.1663 28.5113 18.3359 28.0353 17.2923C27.24 15.5485 26.011 14.5499 24.1554 14.1397C23.8679 14.0763 23.7795 13.9574 23.7108 13.5423C23.5701 12.69 23.0228 11.6845 22.3093 10.9676C21.1891 9.84183 19.6578 9.32344 18.0553 9.52735ZM48.9012 10.1754C46.7678 11.1782 46.5894 14.2093 48.5859 15.5356C49.0849 15.8671 49.2895 15.9151 50.1946 15.9127C51.089 15.9102 51.3115 15.8581 51.8126 15.5333C52.1321 15.326 52.5637 14.8981 52.7716 14.5822C53.1017 14.0809 53.1498 13.8741 53.1498 12.9552C53.1498 12.0364 53.1017 11.8293 52.7718 11.3286C52.1811 10.4315 51.4371 10.0099 50.3563 9.95955C49.6887 9.92844 49.3059 9.9853 48.9012 10.1754ZM19.7513 12.9018C20.3199 13.2636 20.5004 13.7268 20.6027 15.088C20.7414 16.9299 21.1845 17.3612 22.9388 17.3612C24.0728 17.3612 24.6106 17.5875 24.9994 18.2285C25.5272 19.0981 25.1984 20.393 24.3466 20.7999C24.1375 20.8999 23.4426 21.0119 22.8023 21.0491C21.0456 21.1513 20.6096 21.5809 20.6096 23.2104C20.6096 24.8343 19.9788 25.6209 18.6757 25.6218C17.5192 25.6228 16.9103 24.8402 16.9103 23.353C16.9103 21.5704 16.3109 20.9424 14.6085 20.9416C13.0304 20.9408 12.2519 20.337 12.2519 19.1139C12.2519 17.9915 13.0401 17.3663 14.4715 17.3535C16.3395 17.3365 16.8057 16.8772 16.9149 14.9462C16.9825 13.751 17.0188 13.6198 17.3893 13.2311C18.0383 12.5504 18.9904 12.4177 19.7513 12.9018ZM43.0055 16.2685C42.377 16.4522 41.4971 17.2819 41.2295 17.9432C40.3964 20.0031 41.7968 22.2 43.9429 22.1998C45.2392 22.1996 46.2011 21.603 46.7237 20.4752C47.2704 19.2953 47.1058 18.1395 46.2558 17.1922C45.4084 16.2476 44.2265 15.9118 43.0055 16.2685ZM55.205 16.3807C53.5989 17.1211 52.941 18.8819 53.681 20.4591C54.2345 21.6384 55.1254 22.1999 56.4434 22.1999C58.0673 22.1999 59.4034 20.858 59.4034 19.2268C59.4034 17.9008 58.8452 17.0057 57.6712 16.4493C56.8433 16.057 55.9603 16.0325 55.205 16.3807ZM49.2417 22.5291C46.4758 23.3859 46.566 27.5105 49.3684 28.3293C51.2803 28.8878 53.2061 27.4443 53.2153 25.4459C53.2213 24.122 52.3299 22.8855 51.1064 22.5203C50.2928 22.2774 50.0503 22.2787 49.2417 22.5291Z" fill="white"/>
</svg>
