<svg width="70" height="70" viewBox="0 0 70 70" fill="none" xmlns="http://www.w3.org/2000/svg">
<path fill-rule="evenodd" clip-rule="evenodd" d="M31.474 0.88101C26.4163 1.38874 22.3004 2.64174 17.8526 5.02756C12.8524 7.70984 7.95416 12.3928 4.97751 17.3369C1.63362 22.8907 -0.00294452 28.8313 3.97688e-06 35.4048C0.00162565 39.0705 0.32655 41.57 1.26771 45.1583C1.5888 46.3822 2.65645 49.4139 2.7365 49.3289C2.75567 49.3087 2.54647 48.3953 2.27182 47.299C1.41528 43.8802 1.26299 42.4289 1.2571 37.6288C1.25297 34.2504 1.30589 33.0148 1.50772 31.771C3.02649 22.4087 8.62156 13.7438 16.506 8.544C20.9253 5.62933 25.5733 3.86979 30.958 3.07313C33.4606 2.70286 37.9231 2.73371 40.6335 3.13987C46.5531 4.02717 52.0205 6.40103 57.036 10.2619C58.2347 11.1845 60.9436 13.8538 62.0341 15.187C63.1446 16.5443 63.5053 16.9413 63.3094 16.5904C62.6026 15.3243 60.5351 12.7419 58.9291 11.1195C53.5677 5.70315 47.0206 2.34085 39.5215 1.15296C38.1699 0.938736 32.7296 0.755075 31.474 0.88101ZM31.1417 6.46939C30.3542 7.13302 30.3873 8.7061 31.2026 9.34818C31.6207 9.67756 32.4542 9.74798 33.0861 9.50748C33.7374 9.25945 33.5335 9.04153 32.7478 9.14591C32.3195 9.20275 31.9092 9.17559 31.7276 9.0783C31.3452 8.87323 31.053 8.01206 31.1759 7.45162C31.309 6.84498 31.6698 6.57864 32.4326 6.52446C33.3357 6.46009 33.2724 6.19228 32.3413 6.13795C31.7111 6.10133 31.5138 6.15581 31.1417 6.46939ZM38.6241 6.68051C38.6241 6.84483 38.508 7.05286 38.3661 7.14277C38.1889 7.25512 38.1639 7.32997 38.2859 7.38179C38.412 7.43524 38.4381 7.73273 38.3756 8.40315C38.3139 9.06294 38.3437 9.41713 38.4738 9.57406C38.6827 9.82608 39.4419 9.87908 39.5824 9.65143C39.6325 9.57023 39.5867 9.50276 39.4805 9.50157C39.05 9.49655 38.8578 9.22239 38.8927 8.66403C38.9479 7.78691 39.0514 7.5845 39.4448 7.5845C39.917 7.5845 39.9058 7.32052 39.4286 7.20064C39.1541 7.13155 39.0654 7.02318 39.0969 6.79552C39.1248 6.59488 39.0486 6.46629 38.8821 6.43307C38.7045 6.39779 38.6241 6.47485 38.6241 6.68051ZM40.5406 6.70945C40.5406 6.92072 40.6201 7.0003 40.797 6.96619C41.1812 6.89208 41.2241 6.4034 40.8463 6.4034C40.6353 6.4034 40.5406 6.49818 40.5406 6.70945ZM27.7339 6.74931C27.5297 6.99572 27.7738 7.35478 28.0684 7.24154C28.1982 7.19164 28.3044 7.05625 28.3044 6.9405C28.3044 6.65512 27.919 6.52594 27.7339 6.74931ZM42.2923 6.91954C42.1803 7.05699 41.9253 7.33322 41.7258 7.53356C41.4556 7.80463 41.4105 7.92702 41.549 8.0128C41.6968 8.10418 41.6827 8.33686 41.4814 9.13971C41.2355 10.12 41.2618 10.2697 41.6789 10.2621C41.7414 10.2609 41.8953 9.84055 42.0209 9.32825C42.2256 8.49365 42.2909 8.39163 42.6481 8.34985C43.1142 8.29523 43.1778 8.03406 42.752 7.92259C42.5899 7.88007 42.4572 7.76152 42.4572 7.6592C42.4572 7.38238 42.83 7.12417 43.087 7.22294C43.2107 7.27047 43.3584 7.23401 43.4153 7.14188C43.5508 6.92234 43.4829 6.86728 42.945 6.7595C42.6214 6.69469 42.439 6.73927 42.2923 6.91954ZM33.9736 7.20876C33.5042 7.67869 33.4809 8.55935 33.9229 9.122C34.1983 9.47249 34.3198 9.51309 34.9801 9.47397C35.4538 9.44606 35.7508 9.35526 35.7936 9.22549C35.8462 9.0659 35.7477 9.04213 35.346 9.11772C34.9591 9.19036 34.7466 9.14592 34.4917 8.93922C33.945 8.49587 34.1927 8.17505 35.0814 8.17505C35.7743 8.17505 35.823 8.15069 35.823 7.80596C35.823 6.91186 34.6487 6.53258 33.9736 7.20876ZM36.5022 7.07987C36.453 7.20832 36.4127 7.80625 36.4127 8.40861C36.4127 9.27746 36.4579 9.50379 36.6311 9.50379C36.8677 9.50379 36.9756 9.17013 37.0368 8.24887C37.0719 7.72328 37.1288 7.64282 37.5553 7.51703C37.8189 7.43937 38.0344 7.28981 38.0344 7.18484C38.0344 6.94109 37.5612 6.93681 37.3176 7.17849C37.1686 7.32628 37.1025 7.31166 36.9859 7.10468C36.805 6.78356 36.6194 6.77412 36.5022 7.07987ZM43.784 7.43686C43.784 7.6592 43.8609 7.73893 44.042 7.70409C44.1838 7.67662 44.3 7.55645 44.3 7.43686C44.3 7.31728 44.1838 7.1971 44.042 7.16964C43.8609 7.13479 43.784 7.21452 43.784 7.43686ZM35.2334 7.35094C35.2334 7.38489 35.2736 7.51777 35.3228 7.64621C35.3955 7.83578 35.2984 7.87977 34.8069 7.87977C34.1588 7.87977 34.1551 7.87712 34.2909 7.52279C34.3678 7.322 35.2334 7.16432 35.2334 7.35094ZM40.2577 8.21196C39.9987 9.49493 39.9949 10.0205 40.2446 10.0205C40.3975 10.0205 40.5132 9.75034 40.6238 9.13469C40.7114 8.64749 40.8293 8.06624 40.8858 7.84286C40.9716 7.50374 40.9412 7.43686 40.7013 7.43686C40.473 7.43686 40.382 7.59572 40.2577 8.21196ZM28.035 7.71324C27.8807 7.81112 27.873 7.96688 27.9982 8.44921C28.0855 8.78568 28.2258 9.32662 28.3101 9.65143C28.4573 10.2191 28.8941 10.4983 28.8941 10.0247C28.8941 9.63844 28.4092 7.5845 28.3185 7.58671C28.2702 7.58804 28.1427 7.64488 28.035 7.71324ZM25.7158 8.38455C25.4964 8.54518 25.4296 8.77224 25.4296 9.35704C25.4296 10.0099 25.4893 10.1713 25.8433 10.4763C26.0708 10.6722 26.3836 10.8325 26.5385 10.8325C26.8785 10.8325 27.8621 10.3799 27.8621 10.2234C27.8621 10.0313 27.5922 9.9346 27.495 10.092C27.328 10.3626 26.2659 10.2702 26.1061 9.97121C25.9793 9.7341 26.0612 9.66885 26.7644 9.44695C27.6355 9.1719 27.7511 8.9497 27.2724 8.47032C26.9251 8.12249 26.1333 8.07894 25.7158 8.38455ZM43.221 9.38966C42.9925 10.3009 42.96 10.6312 43.0909 10.7122C43.1871 10.7716 43.3097 10.7732 43.3635 10.7156C43.5449 10.5223 44.0939 8.46649 44.0035 8.32003C43.7536 7.91521 43.5058 8.25418 43.221 9.38966ZM26.8331 8.69532C27.0585 8.96742 27.0051 9.0312 26.4079 9.20275C25.9835 9.3247 25.9456 9.30714 25.9456 8.98912C25.9456 8.48258 26.5037 8.29788 26.8331 8.69532ZM24.3734 8.71157C24.2524 8.76102 24.2417 8.92106 24.3366 9.25251C24.4106 9.51147 24.4684 9.9563 24.4647 10.2409L24.4581 10.7587L23.8125 10.0374C23.3486 9.519 23.0963 9.34316 22.9159 9.4124C22.6972 9.49641 22.6782 9.64729 22.7696 10.5749L22.8744 11.641L22.2423 10.8626C21.8826 10.4199 21.5118 10.1032 21.3822 10.1283C21.2569 10.1524 21.1605 10.2302 21.1681 10.3012C21.1844 10.4512 22.736 12.2857 22.8584 12.2996C22.9036 12.3048 23.0621 12.22 23.2104 12.1114C23.4559 11.9317 23.4635 11.8441 23.2958 11.1437C23.1943 10.7202 23.1537 10.3313 23.2054 10.2793C23.2573 10.2275 23.5874 10.5125 23.939 10.9127C24.4992 11.5502 24.6083 11.6156 24.819 11.4405C25.0094 11.2822 25.0428 11.0673 24.9788 10.4091C24.8047 8.61516 24.7798 8.54518 24.3734 8.71157ZM44.7728 9.06324C44.0491 9.63327 43.9497 10.7392 44.5754 11.2593C44.8799 11.5124 45.7245 11.5487 45.8077 11.3124C45.8484 11.1965 45.7347 11.1278 45.5022 11.1278C45.0912 11.1278 44.6685 10.7819 44.6685 10.4456C44.6685 10.0626 45.0975 9.38022 45.3984 9.28455C45.5585 9.23376 45.826 9.26535 45.9929 9.35482C46.4879 9.62013 46.6608 9.3529 46.1936 9.04449C45.6529 8.68735 45.2431 8.69281 44.7728 9.06324ZM47.062 9.82918C47.0944 9.92692 47.3322 10.0617 47.5902 10.1287C47.958 10.2241 48.0593 10.3292 48.0593 10.6154C48.0593 11.0428 47.9688 11.0596 47.3459 10.7484C46.7859 10.4686 46.3297 10.5842 46.1129 11.0608C45.8655 11.6045 46.2926 12.1613 46.957 12.1613C47.3144 12.1613 47.4696 12.2283 47.4696 12.3827C47.4696 12.8667 47.8718 12.5606 48.2498 11.7889C48.7864 10.6932 48.7699 10.3114 48.1699 9.94508C47.6362 9.61924 46.9688 9.54941 47.062 9.82918ZM49.9225 10.4634C49.8759 10.5852 49.6984 10.6849 49.5282 10.6849C49.2844 10.6849 49.239 10.7484 49.3139 10.9847C49.3749 11.1773 49.2731 11.5167 49.0289 11.9338C48.5629 12.73 48.5495 13.1082 48.9767 13.4078C49.391 13.6985 49.681 13.7019 49.681 13.4162C49.681 13.2944 49.5815 13.1947 49.4598 13.1947C49.1212 13.1947 49.1952 12.6637 49.6242 12.0144C49.9505 11.5207 50.0531 11.4541 50.2907 11.5815C50.7321 11.818 50.9571 11.5713 50.568 11.2774C50.2921 11.0689 50.2632 10.9747 50.3979 10.7227C50.5272 10.4809 50.5133 10.4011 50.3297 10.3306C50.0189 10.2111 50.0192 10.2111 49.9225 10.4634ZM19.5695 11.1378C19.2655 11.2986 19.0166 11.5282 19.0166 11.6481C19.0166 11.9279 19.0494 11.9239 19.6449 11.5719C20.0992 11.3035 20.1677 11.2979 20.4273 11.5074C20.6205 11.663 20.6551 11.7609 20.5351 11.8112C20.0257 12.0254 19.6063 12.5084 19.6063 12.8807C19.6063 13.394 19.8519 13.6376 20.3695 13.6376C20.6457 13.6376 20.8591 13.5151 21.0253 13.2612C21.1608 13.054 21.3508 12.9151 21.4475 12.9522C21.5442 12.9894 21.7068 12.9681 21.8088 12.9049C21.9488 12.8184 21.8927 12.6303 21.5824 12.1434C20.689 10.7414 20.4988 10.6465 19.5695 11.1378ZM47.6735 11.2821C47.9221 11.5134 47.6331 11.866 47.1951 11.866C46.712 11.866 46.4795 11.5069 46.7508 11.1796C46.9194 10.976 47.4022 11.0298 47.6735 11.2821ZM51.7449 11.2754C51.7449 11.4978 51.8219 11.5775 52.0029 11.5427C52.1447 11.5152 52.2609 11.395 52.2609 11.2754C52.2609 11.1559 52.1447 11.0357 52.0029 11.0082C51.8219 10.9734 51.7449 11.0531 51.7449 11.2754ZM50.6024 12.837C49.9161 13.8888 49.8765 14.0107 50.1822 14.1282C50.4205 14.2199 51.8092 12.2373 51.6675 12.0077C51.4785 11.7015 51.2033 11.9157 50.6024 12.837ZM17.7713 12.2964C17.7255 12.3706 17.9205 12.7366 18.2049 13.1097C18.7471 13.8212 18.8399 14.1985 18.5449 14.4939C18.217 14.8223 17.9028 14.6748 17.3498 13.9329C16.794 13.1875 16.6061 13.0678 16.4326 13.349C16.3233 13.526 17.4554 15.0898 17.7846 15.2163C18.1126 15.3424 18.7045 15.0184 18.8897 14.6112C18.9798 14.4133 19.1378 14.284 19.2411 14.3237C19.7024 14.501 19.5708 14.0001 18.9246 13.1187C18.2569 12.2082 17.9575 11.9946 17.7713 12.2964ZM21.0228 12.3712C21.067 12.4867 21.0273 12.7232 20.9345 12.8969C20.726 13.287 20.1491 13.246 20.0709 12.8354C19.9767 12.3406 20.8482 11.9156 21.0228 12.3712ZM33.0957 12.5648C32.5232 12.7083 32.0101 13.2061 31.7608 13.8597C31.5399 14.439 31.5327 14.6078 31.7031 15.2234C31.9331 16.0546 32.7538 17.9036 33.1466 18.4753C33.2991 18.6972 33.6446 19.2365 33.9143 19.6737C34.555 20.712 34.6199 20.5391 34.6333 17.7573C34.6414 16.0601 34.6333 16.9683 34.6333 15.1123C34.6333 13.8597 34.6333 13.9598 34.6333 13.5009C34.5395 11.8895 33.9247 12.3569 33.0957 12.5648ZM51.6128 13.4214C51.3576 13.7123 51.1552 14.1092 51.1552 14.3185C51.1552 14.7712 51.8919 15.5569 52.3163 15.5569C53.5295 15.5569 54.2594 14.0754 53.447 13.2619C52.891 12.705 52.1871 12.7663 51.6128 13.4214ZM14.7783 13.512C14.647 13.6436 14.7139 13.8207 15.0596 14.2579L15.5131 14.8313L14.943 15.3356C14.6293 15.613 14.3123 15.8426 14.2384 15.846C14.1646 15.8494 13.9204 15.6461 13.6959 15.3942C13.31 14.9612 12.9669 14.9197 12.9766 15.3073C12.9849 15.6384 15.17 17.8083 15.4046 17.7182C15.7262 17.5945 15.6801 17.4359 15.1836 16.9595C14.9403 16.7261 14.7413 16.4673 14.7413 16.3844C14.7413 16.3016 14.9871 15.9817 15.2875 15.6736L15.8339 15.1133L16.3829 15.6502C16.7488 16.0081 17.0131 16.1558 17.1757 16.0933C17.3858 16.0125 17.3584 15.9232 16.9766 15.4461C16.7329 15.1416 16.1774 14.5431 15.742 14.1161C15.1385 13.5241 14.9095 13.3806 14.7783 13.512ZM53.2232 13.6452C53.5364 14.2314 52.6029 15.3545 52.0766 15.0246C51.6992 14.7879 51.6839 14.1979 52.0435 13.7403C52.4203 13.2606 52.993 13.2145 53.2232 13.6452ZM29.4205 14.8658C29.2152 15.1353 28.9436 15.6498 28.817 16.0093C28.6081 16.6024 28.6082 16.7191 28.8185 17.2704C28.946 17.6047 29.2391 18.0465 29.4698 18.2525C30.2816 18.977 33.3802 20.8719 33.7529 20.8719C33.9421 20.8719 32.7802 18.6132 31.864 17.1997C31.1787 16.1428 29.9168 14.3758 29.8469 14.3758C29.8176 14.3758 29.6258 14.5963 29.4205 14.8658ZM53.8757 15.3371C53.2283 16.0754 53.066 16.3484 53.1968 16.4794C53.3274 16.6102 53.5431 16.4789 54.0993 15.9303C54.772 15.2668 54.86 15.223 55.2041 15.3801C55.7432 15.626 55.6681 15.9719 54.907 16.7456C54.3213 17.3411 54.265 17.4516 54.4629 17.616C54.6551 17.7758 54.7904 17.6952 55.3529 17.0866C55.7177 16.692 56.0581 16.2167 56.1094 16.0309C56.2286 15.5986 55.8103 15.114 55.3182 15.114C55.0657 15.114 54.9811 15.0505 55.0375 14.9033C55.0819 14.7874 55.03 14.6194 54.9222 14.5298C54.7696 14.403 54.5379 14.5818 53.8757 15.3371ZM39.5502 15.2274C39.2895 15.6117 38.6986 16.4575 38.2374 17.1071C37.4176 18.2618 36.0688 20.7244 36.1898 20.8456C36.2235 20.8791 36.7682 20.6234 37.4006 20.2774C40.23 18.7288 41.2778 17.7265 41.2778 16.568C41.2778 16.0624 40.4476 14.5214 40.1778 14.5261C40.0935 14.5276 39.8112 14.8431 39.5502 15.2274ZM35.3228 15.3425C35.2303 16.0331 35.2351 18.1927 35.3622 19.617L35.4545 20.6504L36.2983 19.2892C37.0913 18.0101 37.5921 17.0156 37.5921 16.72C37.5921 16.6487 38.5999 14.1137 38.2374 13.4078C37.9479 12.9627 36.8421 12.3499 35.921 12.3499C35.5463 12.1558 35.4605 14.1915 35.3228 15.3425ZM9.79579 18.7472C8.31741 20.6677 6.6636 23.8475 5.92663 26.1868C5.68352 26.9583 5.29521 28.4531 5.06375 29.5087C4.66231 31.3385 4.64285 31.6001 4.64565 35.1189C4.64845 38.6662 4.66674 38.8998 5.11299 41.1182C5.6707 43.8895 6.32099 45.8947 7.41724 48.2221C8.26582 50.0237 8.69984 50.6519 7.97819 49.0338C7.19713 47.2829 6.34192 44.5459 6.02643 42.7878C5.56794 40.2331 5.57723 34.8234 6.04486 31.9447C6.74749 27.6201 8.25889 23.6126 10.3759 20.4606L11.1975 19.2374L10.7144 18.7094L10.2311 18.1815L9.79579 18.7472ZM27.6638 18.5466C27.4816 19.2767 27.8982 20.3323 28.6026 20.9259C29.2566 21.4771 30.0005 21.6251 31.8763 21.578L33.538 21.5363L32.6959 20.9817C31.8426 20.4197 27.9576 18.2144 27.821 18.2144C27.7801 18.2144 27.7094 18.3638 27.6638 18.5466ZM41.3503 18.6055C40.5358 19.0382 38.347 20.2983 37.2604 20.96C36.8752 21.1946 36.5602 21.4434 36.5602 21.5131C36.5602 21.5828 37.4061 21.6164 38.4398 21.5879C40.193 21.5398 40.3676 21.5079 41.0333 21.1161C41.542 20.8167 41.8271 20.5196 42.0252 20.0826C42.2991 19.4786 42.416 18.2144 42.198 18.2144C42.1365 18.2144 41.7551 18.3904 41.3503 18.6055ZM60.8906 21.6916C62.5574 25.6778 63.6045 29.347 64.0466 32.7505C64.3352 34.9713 64.3353 36.2848 64.0475 38.9269C63.7434 41.7197 63.3703 43.5018 62.6465 45.6177C60.4955 51.9081 56.6303 56.8868 51.0861 60.5088C44.8973 64.5518 40.7366 65.7344 33.3168 65.5595C30.5135 65.4935 29.7257 65.4226 28.2307 65.1027C25.8688 64.5973 23.9963 63.9594 22.0528 62.9979C18.1131 61.049 15.3829 59.0669 12.6429 56.1665C11.3215 54.7677 11.3396 54.9164 12.7107 56.7236C13.4561 57.706 13.8227 58.0785 15.6259 59.6855C17.9188 61.729 19.181 62.6392 21.4179 63.8621C24.4284 65.5079 27.3352 66.4273 31.4114 67.0223C33.4769 67.3239 38.5622 67.4687 39.417 67.2502C39.7512 67.1649 40.5592 66.9932 41.2126 66.8686C43.8782 66.3604 47.6894 64.9243 50.3444 63.4276C57.727 59.266 62.9833 52.0348 64.6436 43.7557C66.1289 36.3492 65.0064 28.9707 61.3014 21.7859C60.2291 19.7061 60.0424 19.6633 60.8906 21.6916ZM66.1311 21.6905C67.1908 24.2304 68.2127 27.9582 68.578 30.616C68.8685 32.7296 68.8198 38.919 68.494 41.3197C67.8607 45.9852 66.0723 51.0911 63.7366 54.9024C62.4287 57.0368 59.8567 60.1333 58.0105 61.7965C55.0114 64.4981 53.0349 65.8022 48.5016 68.0703C47.0015 68.8208 45.8485 69.437 45.9393 69.4398C46.0302 69.4425 46.7599 69.2494 47.561 69.0108C59.5901 65.4275 67.9718 55.3716 69.6573 42.5008C70.5941 35.3492 69.6233 28.9719 66.584 22.3114C66.0642 21.1722 65.7153 20.6938 66.1311 21.6905ZM30.4789 22.0155C29.6883 22.0419 29.0415 22.1118 29.0415 22.1705C29.0415 22.4042 29.8503 23.1315 30.336 23.3348C30.8212 23.5378 30.8946 23.5277 31.6048 23.1613C32.5464 22.6754 33.3145 22.1614 33.3158 22.0161C33.3164 21.9553 33.0018 21.9192 32.6166 21.9362C32.2313 21.9532 31.2695 21.9889 30.4789 22.0155ZM36.9287 22.2812C37.172 22.4814 37.7691 22.8527 38.2556 23.1062L39.1401 23.5673L39.7168 23.2899C40.2446 23.0361 40.9776 22.2824 40.8256 22.1497C40.7905 22.1191 39.7998 22.0543 38.6241 22.0057L36.4865 21.9173L36.9287 22.2812ZM27.7147 26.1956C27.7147 27.0496 27.7679 27.5001 27.8621 27.4418C27.9432 27.3916 28.0095 27.1552 28.0095 26.9163C28.0095 26.5001 28.0371 26.4821 28.6729 26.4821C29.3358 26.4821 29.3364 26.4826 29.3364 27.0111C29.3364 27.3685 29.3962 27.5203 29.5206 27.4791C29.6446 27.4379 29.7189 26.9989 29.7475 26.138C29.7832 25.0658 29.7533 24.8581 29.5632 24.8581C29.4015 24.8581 29.3364 25.009 29.3364 25.3833V25.9086L28.7098 25.8631C28.1217 25.8206 28.0804 25.7884 28.0371 25.3379C28.0116 25.0741 27.9287 24.8581 27.8528 24.8581C27.7768 24.8581 27.7147 25.46 27.7147 26.1956ZM30.5158 25.8808C30.5158 26.8099 30.5513 26.9317 30.9042 27.2095C31.4143 27.6114 31.7758 27.5959 32.2178 27.1531C32.5284 26.8422 32.5797 26.6537 32.5797 25.8244C32.5797 25.0639 32.5327 24.8581 32.3586 24.8581C32.1871 24.8581 32.1374 25.053 32.1374 25.7259C32.1374 26.7095 31.9213 27.0139 31.3285 26.865C30.9804 26.7774 30.958 26.7138 30.958 25.815C30.958 25.0629 30.9107 24.8581 30.7369 24.8581C30.5616 24.8581 30.5158 25.0701 30.5158 25.8808ZM33.4368 26.113C33.0821 26.946 32.9564 27.4012 33.0627 27.4669C33.1507 27.5213 33.3183 27.4218 33.4352 27.2456C33.7312 26.7991 34.5727 26.8056 34.9407 27.2572C35.1666 27.5343 35.2261 27.5515 35.3004 27.361C35.4136 27.0705 34.4016 24.8581 34.1555 24.8581C34.0541 24.8581 33.7306 25.4228 33.4368 26.113ZM35.3808 24.9799C35.3808 25.1413 36.0734 27.1765 36.1959 27.3749C36.3479 27.6213 36.6351 27.2974 36.8543 26.6318C36.9618 26.3058 37.0968 26.0392 37.1543 26.0392C37.2119 26.0392 37.3414 26.3339 37.4421 26.6941C37.6204 27.3321 37.9362 27.6464 38.1123 27.3612C38.2287 27.1726 38.919 25.1349 38.919 24.9799C38.919 24.9129 38.8242 24.8581 38.7083 24.8581C38.5798 24.8581 38.4056 25.1748 38.2619 25.6701C38.1323 26.1167 37.9774 26.4821 37.9178 26.4821C37.8583 26.4821 37.7102 26.1333 37.5891 25.707C37.3135 24.7375 37.0293 24.7099 36.7203 25.6227C36.5917 26.0027 36.4486 26.3507 36.4023 26.3961C36.356 26.4414 36.2033 26.1139 36.0631 25.6683C35.9083 25.1767 35.724 24.8581 35.5944 24.8581C35.4769 24.8581 35.3808 24.9129 35.3808 24.9799ZM39.4235 25.0565C39.3816 25.1656 39.3671 25.7469 39.3912 26.3484L39.435 27.4418H40.3174C41.0407 27.4418 41.2089 27.3951 41.2498 27.1834C41.2912 26.9677 41.188 26.925 40.6251 26.925C40.0569 26.925 39.9509 26.8802 39.9509 26.6395C39.9509 26.4449 40.0696 26.3392 40.3241 26.3073C40.5293 26.2816 40.6972 26.1942 40.6972 26.113C40.6972 26.0318 40.5293 25.9444 40.3241 25.9187C40.0696 25.8868 39.9509 25.7811 39.9509 25.5866C39.9509 25.3466 40.0568 25.301 40.6144 25.301C41.1057 25.301 41.2778 25.2436 41.2778 25.0796C41.2778 24.7791 39.538 24.7574 39.4235 25.0565ZM41.8986 26.138C41.9272 26.9989 42.0015 27.4379 42.1255 27.4791C42.2639 27.525 42.3097 27.2061 42.3097 26.1991C42.3097 25.0905 42.2704 24.8581 42.0829 24.8581C41.8928 24.8581 41.8629 25.0658 41.8986 26.138ZM34.3995 26.0696C34.5027 26.4651 34.458 26.5202 34.0851 26.4572C33.8514 26.4178 33.8197 26.3444 33.9201 26.0761C34.0783 25.6536 34.2901 25.6506 34.3995 26.0696ZM11.3505 29.6498C11.3505 29.8976 13.6652 29.9296 36.4127 29.9958C52.1328 30.0415 58.6739 29.9349 58.6739 29.6332C58.6739 29.4681 54.7172 29.4349 35.0122 29.4349C14.3957 29.4349 11.3505 29.4625 11.3505 29.6498ZM31.4003 32.3829C30.3425 32.5866 29.505 32.9374 28.7489 33.4933C27.8981 34.1187 27.384 34.772 26.8579 35.8962C26.4844 36.6942 26.4617 36.8662 26.4639 38.8837C26.466 40.8888 26.4911 41.0777 26.8579 41.8658C27.6138 43.4898 29.3175 44.7216 31.332 45.1006C32.5225 45.3245 34.6553 45.177 35.7454 44.7955C36.2296 44.6259 36.6847 44.4282 36.7567 44.3562C36.8329 44.2798 36.7868 43.9212 36.6463 43.498L36.4051 42.7707L35.5976 43.0437C34.502 43.4141 32.8448 43.5369 31.8205 43.3237C29.6128 42.8643 28.4089 40.6883 28.7648 37.8009C29.1472 34.698 31.7908 33.2453 35.0045 34.372C35.5679 34.5696 36.0757 34.7021 36.1332 34.6666C36.296 34.5657 36.7116 33.2516 36.625 33.1114C36.5824 33.0426 36.1071 32.8499 35.5687 32.6833C34.4617 32.341 32.3926 32.1919 31.4003 32.3829ZM13.5619 38.8034V45.2321H14.6676H15.7733V42.3532V39.4742H18.8674C21.7242 39.4742 21.96 39.494 21.9401 39.7326C21.9281 39.8746 21.9289 41.1703 21.9418 42.6115L21.9651 45.2321H22.9971H24.0291V38.8099V32.3876H22.9971H21.9651V35.0544V37.7212L18.9061 37.675L15.847 37.6288L15.7733 35.0451L15.6996 32.4615L14.6307 32.418L13.5619 32.3746V38.8034ZM39.2837 32.5657C39.2435 32.6708 39.2278 35.5471 39.2491 38.9575L39.2875 45.1583H40.3932H41.4989V38.8099V32.4615L40.428 32.418C39.6551 32.3867 39.3366 32.4278 39.2837 32.5657ZM48.2936 32.514C48.2507 32.5835 47.8892 33.4639 47.4904 34.4702C47.0915 35.4767 45.9643 38.2931 44.9854 40.7292L43.2055 45.1583L44.1804 45.2024C44.7166 45.2268 45.237 45.2151 45.337 45.1767C45.4369 45.1384 45.7007 44.6202 45.9228 44.0253C46.1451 43.4305 46.4477 42.6613 46.5951 42.3163L46.8634 41.6888H49.4516C51.863 41.6888 52.0398 41.7073 52.0398 41.9594C52.0398 42.1084 52.0895 42.2795 52.1503 42.3397C52.2112 42.4001 52.4971 43.0589 52.7857 43.8039L53.3106 45.1583L54.3191 45.2024C54.8737 45.2268 55.4102 45.2148 55.5113 45.176C55.6414 45.126 55.4611 44.5322 54.8927 43.1388C53.1332 38.8257 52.6143 37.5623 51.9624 36.0048C51.5887 35.1115 51.1117 33.9322 50.9028 33.3842L50.5228 32.3876H49.4472C48.8555 32.3876 48.3365 32.4445 48.2936 32.514ZM49.5336 35.3901C49.5336 35.5703 49.6222 35.8487 49.7305 36.0087C49.8387 36.1689 50.199 37.0308 50.5309 37.924C50.8629 38.8173 51.1806 39.6674 51.2369 39.8132C51.3326 40.0608 51.2117 40.0765 49.4046 40.0511C48.3403 40.0362 47.4696 39.9657 47.4696 39.8947C47.4696 39.8237 47.5351 39.6501 47.6153 39.5091C47.8122 39.1623 49.2387 35.2319 49.2387 35.036C49.2387 34.9502 49.305 34.9211 49.3861 34.9713C49.4672 35.0215 49.5336 35.2099 49.5336 35.3901ZM11.3505 48.3325C11.3505 48.6266 11.4489 48.6278 35.0122 48.6278C58.5756 48.6278 58.6739 48.6266 58.6739 48.3325C58.6739 48.0384 58.5756 48.0372 35.0122 48.0372C11.4489 48.0372 11.3505 48.0384 11.3505 48.3325ZM8.63261 50.5903C8.68804 50.7359 8.77045 50.8178 8.81586 50.7724C8.86127 50.727 8.816 50.6079 8.71517 50.5077C8.56951 50.363 8.5527 50.3799 8.63261 50.5903ZM4.12849 52.5065C4.12465 52.7556 5.03323 54.6 5.81576 55.9314C8.68391 60.8119 13.1795 64.9894 18.2058 67.4449C20.3346 68.4849 24.0723 69.7255 23.8135 69.3061C23.768 69.2324 23.3832 69.0598 22.9585 68.9228C21.81 68.5521 18.5164 66.8129 16.7815 65.661C11.708 62.2922 7.05944 57.506 4.4686 52.9831C4.28255 52.6583 4.12952 52.4438 4.12849 52.5065ZM23.3621 53.4019C22.9138 53.6063 22.5548 54.1692 22.5548 54.6679C22.5548 55.1064 23.0662 55.6273 23.865 56.0018C25.4725 56.7558 24.7652 57.6284 22.9722 57.1029C22.597 56.9929 22.4444 57.6306 22.7861 57.8808C23.1433 58.1424 24.5302 58.13 25.0504 57.8606C25.5185 57.6182 25.6507 57.3684 25.6507 56.726C25.6507 56.0382 25.4135 55.7478 24.4565 55.2639C23.728 54.8957 23.5763 54.7564 23.6144 54.4896C23.6509 54.2312 23.7731 54.1549 24.2072 54.1187C24.5078 54.0938 24.8875 54.145 25.0512 54.2327C25.3081 54.3704 25.3618 54.3399 25.4446 54.009C25.4974 53.7982 25.4775 53.5626 25.4001 53.4851C25.1532 53.2378 23.8401 53.1842 23.3621 53.4019ZM26.6827 54.0114C26.6827 54.2241 26.5603 54.4409 26.3879 54.5333C26.0564 54.7109 25.9845 55.2715 26.2931 55.2715C26.4386 55.2715 26.5158 55.6019 26.5761 56.4828C26.6717 57.8801 26.8236 58.0766 27.8079 58.0766C28.4806 58.0766 28.667 57.9328 28.535 57.5159C28.481 57.3455 28.309 57.255 28.0462 57.2588C27.6478 57.2644 27.6402 57.2478 27.5973 56.268L27.5538 55.2715H28.0126C28.4262 55.2715 28.4668 55.2315 28.4247 54.8655C28.3881 54.5466 28.2911 54.4494 27.9727 54.4128C27.6542 54.376 27.5673 54.2889 27.5673 54.0068C27.5673 53.7059 27.4952 53.6475 27.125 53.6475C26.7532 53.6475 26.6827 53.7055 26.6827 54.0114ZM30.0735 54.4899C28.8786 54.9273 28.5711 56.9779 29.5809 57.7733C30.1892 58.2526 31.2659 58.1926 31.8771 57.6458C32.3222 57.2476 32.3586 57.146 32.3586 56.3057C32.3586 55.4442 32.3297 55.3698 31.8079 54.891C31.2681 54.3957 30.6938 54.2628 30.0735 54.4899ZM33.2677 54.4841C33.2136 54.5382 33.1694 55.3686 33.1694 56.3296V58.0766H33.6117H34.054V57.0022C34.054 55.7258 34.2884 55.2715 34.9469 55.2715C35.3307 55.2715 35.3808 55.2204 35.3808 54.8286C35.3808 54.4643 35.3203 54.3856 35.0404 54.3856C34.8531 54.3856 34.5749 54.4772 34.4222 54.5891C34.1862 54.762 34.1138 54.762 33.9412 54.5891C33.7231 54.3707 33.427 54.3245 33.2677 54.4841ZM36.1548 54.5379C35.9332 54.627 35.823 54.7955 35.823 55.0453C35.823 55.4783 35.7909 55.4665 36.3933 55.2561C36.9968 55.0454 37.5921 55.1917 37.5921 55.5508C37.5921 55.7726 37.4474 55.8384 36.8276 55.898C35.9529 55.9822 35.5282 56.3618 35.5282 57.0595C35.5282 57.8937 36.6072 58.3778 37.4545 57.9238C37.651 57.8184 37.7396 57.8184 37.7396 57.9238C37.7396 58.0078 37.9386 58.0766 38.1818 58.0766H38.6241V56.6627C38.6241 55.2967 38.6095 55.2341 38.1932 54.8172C37.845 54.4685 37.6399 54.3874 37.1244 54.395C36.7735 54.4001 36.3373 54.4645 36.1548 54.5379ZM40.1374 54.6964C39.2862 55.2427 39.1109 56.9667 39.8283 57.7361C40.1299 58.0596 40.267 58.0971 40.9461 58.0417C41.7961 57.9722 41.7884 57.9679 41.5605 58.3945C41.4237 58.6505 41.2822 58.6857 40.5654 58.6431C39.8138 58.5983 39.7254 58.624 39.6862 58.8988C39.6318 59.2797 40.1743 59.553 40.9847 59.553C41.4215 59.553 41.6904 59.4405 42.0874 59.0913L42.6124 58.6296L42.5717 56.5584L42.5309 54.4874L41.5726 54.4388C40.7994 54.3997 40.5222 54.4494 40.1374 54.6964ZM43.9661 54.891C43.4443 55.3698 43.4154 55.4442 43.4154 56.3057C43.4154 57.146 43.4518 57.2476 43.8969 57.6458C44.3112 58.0165 44.4962 58.0763 45.2237 58.0744C46.1904 58.0717 46.49 57.9375 46.4117 57.5421C46.3648 57.3061 46.2448 57.2718 45.6084 57.3132C44.8342 57.3634 44.3737 57.1209 44.3737 56.6636C44.3737 56.4991 44.622 56.4526 45.4988 56.4526H46.6238L46.5398 55.8251C46.4307 55.0102 45.7769 54.3856 45.0327 54.3856C44.6508 54.3856 44.3737 54.517 43.9661 54.891ZM31.1055 55.4191C31.4419 55.756 31.5171 56.8671 31.2234 57.1612C30.9738 57.4112 30.5124 57.3811 30.1957 57.0941C29.7898 56.7263 29.8257 55.654 30.2538 55.3537C30.6754 55.0578 30.7505 55.0636 31.1055 55.4191ZM41.5439 55.2505C41.6755 55.3342 41.722 55.6465 41.6913 56.2419C41.65 57.0411 41.6135 57.1226 41.2386 57.2541C40.6671 57.4544 40.3195 57.0845 40.3401 56.2977C40.3636 55.4054 40.9645 54.8826 41.5439 55.2505ZM45.3199 55.2135C45.7978 55.3971 45.572 55.7144 44.9634 55.7144C44.3041 55.7144 44.2757 55.6859 44.6053 55.3558C44.8595 55.1014 44.9706 55.0793 45.3199 55.2135ZM37.5921 56.8189C37.5921 57.0864 37.4928 57.2101 37.2239 57.2777C36.4769 57.4655 36.06 56.8804 36.7445 56.6048C37.3471 56.3622 37.5921 56.4241 37.5921 56.8189Z" fill="white"/>
</svg>
