<svg width="70" height="70" viewBox="0 0 70 70" fill="none" xmlns="http://www.w3.org/2000/svg">
<path d="M31.7951 13.5585C32.0456 12.8988 32.5611 12.3963 33.1361 12.2514C33.9688 12.0416 34.5864 11.5698 34.6807 13.1964V14.8229C34.6807 16.6963 34.6889 15.7795 34.6807 17.4927C34.6672 20.3006 34.6021 20.4751 33.9585 19.427C33.6875 18.9858 33.3405 18.4414 33.1872 18.2174C32.7927 17.6404 31.9683 15.774 31.7372 14.935C31.566 14.3136 31.5733 14.1433 31.7951 13.5585Z" fill="white"/>
<path d="M28.838 15.7283C28.9652 15.3654 29.238 14.8461 29.4443 14.5741C29.6505 14.302 29.8431 14.0795 29.8726 14.0795C29.9428 14.0795 31.2105 15.863 31.8988 16.9299C32.8192 18.3566 33.9863 20.6365 33.7963 20.6365C33.4219 20.6365 30.3093 18.7238 29.4938 17.9925C29.262 17.7847 28.9676 17.3386 28.8395 17.0012C28.6283 16.4448 28.6282 16.3269 28.838 15.7283Z" fill="white"/>
<path d="M38.3011 16.8364C38.7644 16.1807 39.3579 15.327 39.6199 14.9391C39.882 14.5511 40.1656 14.2327 40.2503 14.2312C40.5213 14.2264 41.3552 15.7819 41.3552 16.2922C41.3552 17.4616 40.3027 18.4733 37.4605 20.0364C36.8252 20.3857 36.278 20.6438 36.2443 20.61C36.1227 20.4876 37.4776 18.0019 38.3011 16.8364Z" fill="white"/>
<path d="M35.4129 19.3698C35.2852 17.9322 35.2803 15.7523 35.3733 15.0553C35.5116 13.8934 35.5978 11.8386 35.9743 12.0346C36.8995 12.0346 38.0103 12.6531 38.3011 13.1023C38.6653 13.8149 37.6529 16.3737 37.6529 16.4457C37.6529 16.744 37.1498 17.7478 36.3533 19.039L35.5056 20.413L35.4129 19.3698Z" fill="white"/>
<path d="M28.6227 20.6911C27.9151 20.0918 27.4966 19.0263 27.6797 18.2894C27.7254 18.1049 27.7965 17.9541 27.8375 17.9541C27.9748 17.9541 31.8773 20.1801 32.7345 20.7474L33.5804 21.3071L31.9112 21.3493C30.0269 21.3968 29.2796 21.2474 28.6227 20.6911Z" fill="white"/>
<path d="M37.3197 20.7255C38.4111 20.0576 40.6099 18.7856 41.4281 18.3489C41.8347 18.1317 42.2179 17.9541 42.2796 17.9541C42.4986 17.9541 42.3812 19.2302 42.106 19.8398C41.907 20.2809 41.6206 20.5808 41.1097 20.883C40.4409 21.2785 40.2656 21.3107 38.5044 21.3593C37.466 21.388 36.6163 21.3541 36.6163 21.2837C36.6163 21.2134 36.9327 20.9623 37.3197 20.7255Z" fill="white"/>
<path d="M29.0636 21.9473C29.0636 21.888 29.7133 21.8175 30.5075 21.7909C31.3017 21.764 32.2678 21.728 32.6548 21.7108C33.0418 21.6937 33.3578 21.7301 33.3572 21.7914C33.3559 21.9381 32.5843 22.457 31.6385 22.9474C30.9251 23.3173 30.8514 23.3274 30.364 23.1225C29.876 22.9173 29.0636 22.1832 29.0636 21.9473Z" fill="white"/>
<path d="M38.3193 22.8918C37.8306 22.636 37.2309 22.2612 36.9865 22.0591L36.5422 21.6918L38.6896 21.781C39.8706 21.83 40.8658 21.8955 40.901 21.9263C41.0537 22.0603 40.3174 22.8211 39.7872 23.0772L39.2079 23.3572L38.3193 22.8918Z" fill="white"/>
<path fill-rule="evenodd" clip-rule="evenodd" d="M33.0779 0.571747C32.0199 0.628425 30.7109 0.743975 29.8677 0.85514C24.7252 1.53297 19.8032 3.37919 15.4445 6.26524C5.78592 12.6605 0.002377 23.4288 8.78654e-07 35.0211C-0.000999594 39.7297 0.852403 44.3377 2.46735 48.3441C2.88036 49.3686 3.35671 50.4503 3.39485 50.4503C3.40298 50.4503 3.25916 49.9931 3.07526 49.4344C1.86432 45.7546 1.18781 41.3288 1.18781 37.0868C1.18781 29.9458 3.38454 23.0108 7.48372 17.2104C13.1733 9.15968 21.9596 3.93408 31.6709 2.82531C34.6759 2.48217 37.9314 2.54623 40.8952 3.00674C49.7623 4.38438 57.7481 9.19431 63.1514 16.4117C63.4866 16.8595 63.9387 17.4936 64.156 17.8209C64.6196 18.5189 64.7421 18.6657 64.4956 18.228C61.7675 13.3825 58.077 9.38971 53.4949 6.32649C48.6585 3.09304 43.088 1.15463 37.2167 0.661869C36.3964 0.59304 33.7544 0.535485 33.0779 0.571747ZM31.8585 5.85446C30.9852 6.06608 30.5291 6.75531 30.5921 7.76807C30.6664 8.96027 31.312 9.55317 32.4508 9.47495C32.8604 9.44683 33.5781 9.23176 33.5781 9.13713C33.5781 9.12304 33.5383 9.01594 33.4895 8.8992L33.401 8.68683L33.0362 8.83708C32.0015 9.2632 31.1985 8.6914 31.2034 7.53196C31.2072 6.62704 31.9325 6.10272 32.8256 6.35924C33.0722 6.43008 33.1097 6.40465 33.1605 6.13171C33.1957 5.94239 33.1867 5.93224 32.9222 5.86554C32.6191 5.78907 32.1487 5.78419 31.8585 5.85446ZM40.6283 6.177C40.5009 6.25127 40.4785 6.60757 40.5939 6.72312C40.6352 6.76445 40.7562 6.79827 40.8628 6.79827C41.1018 6.79827 41.2067 6.70026 41.2067 6.47705C41.2067 6.16986 40.907 6.01441 40.6283 6.177ZM38.6026 6.5321C38.5556 6.79088 38.5271 6.83209 38.3828 6.84881C38.2666 6.86234 38.2054 6.91463 38.178 7.02392C38.1296 7.21688 38.1763 7.2993 38.334 7.2993C38.4804 7.2993 38.4798 7.26961 38.3539 8.19551C38.2235 9.15473 38.2748 9.38107 38.6626 9.55737C38.9204 9.67461 39.351 9.71557 39.5445 9.64116C39.6076 9.61693 39.6435 9.5268 39.6435 9.39222C39.6435 9.19556 39.6318 9.1836 39.4715 9.2156C39.2222 9.26533 38.9661 9.14765 38.9196 8.96196C38.8855 8.82618 38.9588 8.06249 39.0555 7.54568C39.0846 7.39048 39.0967 7.38654 39.4114 7.42894C39.7751 7.47798 39.8046 7.46457 39.864 7.22377C39.9091 7.04064 39.9105 7.04139 39.3775 6.95559L39.1428 6.91776L39.1829 6.57619L39.223 6.23461H38.9398H38.6565L38.6026 6.5321ZM27.736 6.45826C27.6198 6.57475 27.6066 6.86722 27.7128 6.97363C27.7541 7.01496 27.8751 7.04878 27.9817 7.04878C28.2207 7.04878 28.3256 6.95077 28.3256 6.72756C28.3256 6.51757 28.1781 6.35987 27.9817 6.35987C27.9007 6.35987 27.7901 6.40415 27.736 6.45826ZM42.3615 6.60137C42.1946 6.70332 42.052 6.94175 41.9303 7.32209C41.903 7.40764 41.8507 7.43075 41.7348 7.40858C41.6082 7.38435 41.5579 7.4146 41.4827 7.56027C41.3905 7.73895 41.3922 7.74352 41.5791 7.80872C41.6838 7.84529 41.7695 7.88631 41.7695 7.8999C41.7695 7.91349 41.6437 8.38227 41.49 8.94154C41.3362 9.50088 41.2307 9.97754 41.2555 10.0009C41.2802 10.0242 41.4074 10.0722 41.5381 10.1076C41.8215 10.1842 41.7747 10.276 42.1188 8.97029L42.3635 8.0422L42.5511 8.08447C42.6543 8.10771 42.7964 8.14008 42.867 8.15637C42.9607 8.17797 43.0157 8.1414 43.0703 8.02153C43.1829 7.77396 43.1706 7.7563 42.8275 7.67388C42.528 7.60192 42.5123 7.5882 42.5504 7.43276C42.6547 7.00751 42.8578 6.89891 43.2088 7.08072C43.3867 7.17285 43.3939 7.17047 43.4871 6.98985C43.5397 6.88789 43.5828 6.78762 43.5828 6.76702C43.5828 6.74641 43.4632 6.67514 43.3171 6.60869C42.9803 6.45557 42.6049 6.45275 42.3615 6.60137ZM34.2972 6.71466C33.9999 6.87198 33.8814 6.99762 33.7475 7.29773C33.6013 7.62509 33.576 8.27154 33.6955 8.62702C33.789 8.90522 34.1058 9.19882 34.4272 9.30504C34.7036 9.39641 35.4606 9.35508 35.7251 9.2342C35.8779 9.16437 35.8972 9.12748 35.8651 8.96672C35.8446 8.86413 35.8187 8.77107 35.8076 8.75992C35.7965 8.74871 35.6068 8.78384 35.3861 8.83795C35.0449 8.92162 34.9482 8.924 34.7381 8.85367C34.48 8.76731 34.2943 8.53076 34.2555 8.23872L34.2347 8.08215L35.102 8.06468L35.9694 8.04721L35.9417 7.72022C35.8812 7.00663 35.4786 6.60807 34.8232 6.61289C34.637 6.61427 34.4004 6.66005 34.2972 6.71466ZM36.4918 6.93918C36.4738 7.08561 36.443 7.50127 36.4235 7.86295C36.404 8.22463 36.3712 8.71075 36.3507 8.94329L36.3133 9.36604H36.6247H36.9362L36.9763 8.84935C36.9984 8.56521 37.0167 8.20096 37.0168 8.04C37.0172 7.81849 37.0557 7.70143 37.1756 7.55877C37.3498 7.3514 37.6994 7.20654 37.8839 7.26523C38.0084 7.30481 38.0776 7.16721 38.0794 6.87655C38.0811 6.58928 37.437 6.73777 37.1745 7.08511C37.0897 7.1974 37.0836 7.19032 37.0818 6.97783C37.0797 6.74034 36.9906 6.67589 36.6615 6.67389C36.5471 6.67314 36.5192 6.71679 36.4918 6.93918ZM43.7726 7.04465C43.6213 7.32786 43.7854 7.61244 44.1001 7.61244C44.2715 7.61244 44.4582 7.41428 44.4582 7.23241C44.4582 6.95453 43.9022 6.80222 43.7726 7.04465ZM35.1754 7.20254C35.2598 7.28708 35.3289 7.428 35.3289 7.51568C35.3289 7.67394 35.3252 7.67507 34.7974 7.67507C34.3011 7.67507 34.2659 7.66649 34.2659 7.54499C34.2659 7.47347 34.3481 7.33255 34.4487 7.23185C34.6819 6.99824 34.9603 6.98703 35.1754 7.20254ZM40.1763 8.40381C40.0469 9.08803 39.9374 9.67392 39.9329 9.70573C39.9245 9.76604 40.4462 9.89807 40.496 9.84821C40.5411 9.80306 41.021 7.28032 40.9903 7.24963C40.9752 7.23441 40.8388 7.20798 40.6872 7.19089L40.4117 7.15976L40.1763 8.40381ZM28.1224 7.43727C27.9935 7.47153 27.8879 7.53559 27.8879 7.57956C27.8879 7.6658 28.442 10.0672 28.4679 10.0931C28.4765 10.1017 28.6152 10.0806 28.7761 10.0462C28.9525 10.0085 29.0593 9.95431 29.0448 9.90971C29.0317 9.86907 28.9051 9.32846 28.7636 8.70844C28.4606 7.38096 28.4549 7.35998 28.3996 7.36838C28.3761 7.37195 28.2514 7.40295 28.1224 7.43727ZM26.0764 7.95871C25.6185 8.16489 25.3867 8.54147 25.3867 9.07939C25.3867 9.72872 25.7526 10.3759 26.2193 10.5522C26.6616 10.7192 27.4281 10.5264 27.9019 10.1289C28.0035 10.0437 28.0023 10.028 27.8815 9.85798L27.7532 9.67755L27.5746 9.80494C27.3056 9.99677 26.8809 10.129 26.663 10.0887C26.4659 10.0523 26.2714 9.88228 26.1444 9.6354C26.0757 9.50181 26.0993 9.48948 26.9215 9.22832L27.7695 8.95895L27.5743 8.56871C27.467 8.35415 27.2914 8.11597 27.1843 8.03957C26.9337 7.86082 26.383 7.82062 26.0764 7.95871ZM43.5147 8.13589C43.4766 8.27856 43.3216 8.84453 43.1703 9.39353C43.0189 9.94253 42.895 10.4102 42.895 10.4327C42.895 10.5009 43.4072 10.6319 43.4573 10.5765C43.5392 10.4854 44.1648 8.11184 44.1189 8.06587C44.0946 8.04151 43.9643 7.98902 43.8294 7.94907L43.584 7.87654L43.5147 8.13589ZM26.8201 8.4635C26.9259 8.55268 27.0125 8.66266 27.0125 8.70787C27.0125 8.75528 26.8278 8.84635 26.5769 8.92275C26.3372 8.99559 26.0937 9.0735 26.0357 9.09579C25.8541 9.16556 25.9652 8.61706 26.168 8.44239C26.3825 8.25758 26.5835 8.26409 26.8201 8.4635ZM24.527 8.47352C24.287 8.59289 24.2895 8.555 24.445 9.71049C24.5099 10.1927 24.557 10.5934 24.5497 10.6008C24.5387 10.612 23.9072 9.87646 23.3476 9.20076L23.2156 9.04143L22.9568 9.1737C22.6583 9.3262 22.6683 9.23627 22.8175 10.4307C22.8798 10.9302 22.9259 11.3453 22.9199 11.3532C22.9138 11.3612 22.621 11.0159 22.2691 10.586C21.9173 10.1562 21.6034 9.80444 21.5717 9.80444C21.4775 9.80444 21.0722 10.0118 21.0722 10.0601C21.0722 10.0956 22.4524 11.6929 22.7931 12.0517C22.863 12.1253 22.9185 12.1206 23.1616 12.0204C23.4942 11.8835 23.4846 11.9387 23.355 10.8981C23.3037 10.486 23.2615 10.0985 23.2612 10.0369C23.2609 9.97084 23.5078 10.2153 23.862 10.6318C24.1927 11.0207 24.4881 11.3482 24.5185 11.3597C24.5489 11.3711 24.7002 11.3322 24.8547 11.2731L25.1357 11.1656L25.0993 10.8451C25.0793 10.6689 25.0161 10.0479 24.959 9.46518C24.9019 8.88248 24.8271 8.39824 24.7927 8.3891C24.7583 8.37995 24.6388 8.41797 24.527 8.47352ZM44.9897 8.66635C44.4896 8.90534 44.1886 9.41958 44.1587 10.0863C44.1356 10.6028 44.2436 10.8291 44.6379 11.0905C44.8599 11.2376 45.6647 11.4415 45.7291 11.3669C45.7425 11.3515 45.7701 11.2509 45.7905 11.1434C45.8268 10.952 45.8216 10.9471 45.5482 10.9096C44.9297 10.8247 44.6621 10.5083 44.7767 9.99739C44.8592 9.62983 44.9811 9.41082 45.2112 9.21692C45.4723 8.99678 45.6947 9.00974 46.0769 9.26727L46.395 9.48171L46.5308 9.29069L46.6665 9.09968L46.516 8.98024C46.0201 8.58681 45.4162 8.46262 44.9897 8.66635ZM47.0667 9.34844C47.0516 9.37537 47.0215 9.47194 46.9997 9.56307C46.9576 9.74018 47.0337 9.80318 47.2928 9.80581C47.5133 9.80807 47.9421 10.0322 48.0544 10.2039C48.1424 10.3383 48.1472 10.3986 48.0846 10.5882C48.0439 10.7118 47.9922 10.8043 47.9696 10.7937C47.9471 10.7831 47.777 10.6947 47.5918 10.5972C47.1998 10.3909 46.6907 10.3221 46.4611 10.4442C46.0866 10.6437 45.9185 11.1769 46.1121 11.5518C46.2826 11.8821 46.815 12.0926 47.2379 11.9971C47.4468 11.9499 47.4526 11.9537 47.4203 12.115C47.3916 12.259 47.4186 12.2966 47.6201 12.3929C47.7483 12.4541 47.8713 12.4816 47.8935 12.4539C47.9157 12.4262 48.0987 12.058 48.3 11.6356C48.8381 10.5074 48.835 10.0753 48.2864 9.71269C47.9196 9.47013 47.1307 9.23458 47.0667 9.34844ZM49.924 10.24C49.7853 10.4499 49.735 10.4826 49.5934 10.4542C49.473 10.4301 49.3924 10.4584 49.3045 10.5558C49.183 10.6902 49.1832 10.6914 49.3318 10.8037L49.4811 10.9165L49.0644 11.6267C48.7101 12.2307 48.6477 12.3809 48.6477 12.6315C48.6477 12.8983 48.6716 12.9466 48.9012 13.1434C49.1102 13.3226 49.6282 13.5404 49.6924 13.4761C49.7018 13.4668 49.7267 13.3724 49.7479 13.2664C49.7807 13.102 49.7647 13.0671 49.6391 13.0287C49.4156 12.9603 49.273 12.8082 49.273 12.6381C49.273 12.5223 49.8494 11.4246 50.0029 11.2482C50.0243 11.2235 50.1781 11.3018 50.5349 11.5188C50.6168 11.5686 50.668 11.5489 50.7673 11.4295C50.8373 11.3452 50.8955 11.2562 50.8967 11.2319C50.8978 11.2075 50.7651 11.1109 50.6018 11.0172C50.4384 10.9235 50.2943 10.839 50.2815 10.8295C50.2687 10.82 50.3321 10.6861 50.4222 10.532C50.5123 10.3779 50.5861 10.2361 50.5861 10.2168C50.5861 10.1868 50.1742 9.99232 50.1104 9.99232C50.0979 9.99232 50.014 10.1038 49.924 10.24ZM20.155 10.6221C19.8801 10.6793 19.428 10.955 19.1661 11.2252C19.0452 11.3499 18.9462 11.4709 18.9462 11.4941C18.9462 11.5173 19.0142 11.6002 19.0973 11.6783L19.2483 11.8205L19.4739 11.5704C19.7013 11.3184 20.0331 11.1196 20.2267 11.1196C20.2843 11.1196 20.4171 11.2054 20.5217 11.3102L20.712 11.5008L20.345 11.7188C20.1431 11.8387 19.8865 12.0344 19.7747 12.1536C19.6039 12.3358 19.5715 12.418 19.5719 12.6687C19.5733 13.6942 20.8638 13.8072 21.2789 12.8184C21.3669 12.6088 21.3678 12.6084 21.4619 12.7431L21.5565 12.8784L21.7833 12.7443C21.9081 12.6706 22.0101 12.5865 22.0101 12.5573C22.0101 12.528 21.7973 12.1504 21.5371 11.718C20.9376 10.7217 20.6752 10.5136 20.155 10.6221ZM51.7526 10.7958C51.6957 10.8588 51.6491 10.9715 51.6491 11.0463C51.6491 11.2167 51.8589 11.4328 52.0243 11.4328C52.1854 11.4328 52.3995 11.2183 52.3995 11.057C52.3995 10.887 52.1822 10.6812 52.0027 10.6812C51.9221 10.6812 51.8095 10.7328 51.7526 10.7958ZM47.5082 10.9678L47.8313 11.1291L47.7505 11.3279C47.6476 11.581 47.4298 11.6967 47.147 11.6486C46.6531 11.5646 46.5001 11.2609 46.8003 10.9602C46.9941 10.7662 47.1065 10.7673 47.5082 10.9678ZM50.6226 12.598C50.1123 13.3651 49.9098 13.7195 49.9525 13.7707C49.9862 13.811 50.0963 13.8926 50.1973 13.9519L50.381 14.0599L51.1124 12.9605C51.6227 12.1935 51.8252 11.839 51.7825 11.7879C51.7488 11.7476 51.6387 11.666 51.5377 11.6067L51.3541 11.4987L50.6226 12.598ZM17.9457 11.9713C17.8254 12.0574 17.7342 12.1557 17.7432 12.1897C17.7523 12.2238 17.9968 12.5726 18.2866 12.9649C18.8048 13.6662 18.8125 13.6821 18.7497 13.91C18.6573 14.2452 18.4298 14.4514 18.1791 14.4272C18.0004 14.4099 17.9085 14.3154 17.3871 13.6133L16.7973 12.8189L16.5599 12.987C16.4294 13.0795 16.322 13.1692 16.3213 13.1865C16.3206 13.2038 16.5873 13.5776 16.914 14.0173C17.7015 15.0769 17.974 15.2333 18.5082 14.9326C18.7555 14.7934 19.0087 14.4205 19.0087 14.1956C19.0087 14.0405 19.0865 14.0246 19.1963 14.1571C19.3022 14.2848 19.3832 14.2727 19.5979 14.0969C19.7638 13.961 19.7725 13.9359 19.6917 13.8221C19.2009 13.1309 18.2203 11.8152 18.1958 11.815C18.1786 11.8148 18.0661 11.8851 17.9457 11.9713ZM21.0299 12.078C21.1617 12.3232 21.1152 12.5006 20.8491 12.7667C20.5242 13.0917 20.0468 12.8551 20.1551 12.4227C20.1926 12.2733 20.7 11.8737 20.8548 11.8719C20.8899 11.8715 20.9687 11.9642 21.0299 12.078ZM52.0181 12.7474C51.5599 12.99 51.1529 13.6198 51.1503 14.0904C51.1473 14.6224 51.5969 15.1667 52.1661 15.3202C52.6974 15.4635 53.2359 15.2115 53.6082 14.6451C53.8897 14.2171 53.9535 13.8454 53.8102 13.4696C53.7003 13.1812 53.3164 12.7845 53.0487 12.6825C52.7903 12.5841 52.2639 12.6173 52.0181 12.7474ZM14.7727 13.2647L14.5765 13.4682L15.0728 14.0095L15.5691 14.5509L14.9401 15.1317L14.311 15.7127L13.841 15.2011C13.5825 14.9197 13.3363 14.6895 13.2939 14.6895C13.2516 14.6895 13.1362 14.7738 13.0375 14.8769L12.8583 15.0644L13.0102 15.2356C13.1526 15.3961 14.8506 17.2282 15.173 17.5691L15.3199 17.7245L15.5493 17.4947L15.7787 17.2649L15.2263 16.6835L14.6739 16.1022L15.2937 15.5152L15.9135 14.9283L16.4636 15.5029L17.0138 16.0775L17.2296 15.9127C17.3484 15.822 17.4455 15.7182 17.4455 15.6821C17.4455 15.6078 15.0821 13.0611 15.0132 13.0611C14.9888 13.0611 14.8806 13.1527 14.7727 13.2647ZM53.1248 13.3367C53.2418 13.4538 53.3372 13.6017 53.3368 13.6655C53.3358 13.8558 53.0536 14.3955 52.8607 14.5758C52.5771 14.8411 52.3663 14.8972 52.1101 14.7754C51.6545 14.5589 51.6109 14.1075 51.9968 13.6013C52.398 13.075 52.7752 12.9865 53.1248 13.3367ZM53.8551 15.083L52.9659 16.036L53.1877 16.2552L53.4095 16.4744L54.0513 15.7918L54.6931 15.1093L54.998 15.1438C55.3276 15.181 55.5885 15.3973 55.5885 15.6335C55.5885 15.7032 55.2913 16.0778 54.9034 16.4972L54.2183 17.2379L54.4407 17.4511L54.6632 17.6643L55.319 16.9754C56.0324 16.2262 56.2489 15.8672 56.1869 15.5361C56.1159 15.157 55.6549 14.8147 55.2153 14.8147C55.0038 14.8147 54.9874 14.7768 55.1216 14.5991C55.2051 14.4885 55.1981 14.4611 55.0454 14.3016C54.9529 14.2049 54.8474 14.1267 54.8108 14.1279C54.7742 14.1291 54.3442 14.5589 53.8551 15.083ZM9.81088 18.5247C8.07294 20.8762 6.90789 23.1034 5.99908 25.8118C4.58979 30.0118 4.20248 34.8633 4.91463 39.3964C5.32464 42.0062 5.51973 42.8653 6.09525 44.5946C6.76507 46.6073 7.70633 48.6551 8.8156 50.5129C9.46372 51.5985 9.67507 51.8593 9.22167 51.014C7.28988 47.4126 6.2587 44.2164 5.87765 40.649C5.70851 39.0655 5.73677 35.8031 5.94199 33.2219C6.07324 31.5716 6.6794 28.7184 7.30489 26.8072C8.21594 24.0235 9.59934 21.287 11.0187 19.4608L11.326 19.0654L11.1091 18.8032C10.9897 18.659 10.7556 18.3928 10.5889 18.2116L10.2859 17.882L9.81088 18.5247ZM59.776 19.0369C59.8076 19.1202 59.9163 19.3527 60.0175 19.5536C60.6223 20.7543 61.8846 23.9425 62.4558 25.7123C64.1291 30.8968 64.5464 34.6587 63.9632 39.3024C63.4449 43.4282 62.1585 47.3424 60.2445 50.617C58.6299 53.3794 56.3183 56.0762 53.6501 58.3103C52.9228 58.9192 50.7807 60.3972 49.4606 61.2008C45.6689 63.509 42.3637 64.6288 38.0177 65.0776C35.9304 65.2931 32.8706 65.291 30.733 65.0726C26.2008 64.6096 23.0281 63.4333 18.2095 60.4293C15.5582 58.7764 12.9842 56.3486 10.7954 53.4363C10.4542 52.9824 10.1599 52.5969 10.1415 52.5797C9.96408 52.4145 11.5422 54.7937 12.3842 55.9609C13.1126 56.9705 13.69 57.603 14.9673 58.7903C19.8926 63.3688 24.6515 65.7083 30.9206 66.6333C33.2329 66.9744 36.6297 67.1682 38.1632 67.0464C42.5829 66.6955 48.3008 64.6383 52.305 61.9584C56.9252 58.8662 60.7112 54.303 62.9179 49.1664C64.1255 46.3557 64.7746 43.8351 65.1356 40.555C65.2969 39.0888 65.297 34.8814 65.1357 33.5093C64.9746 32.1387 64.8094 31.2095 64.5011 29.9395C63.5945 26.2048 61.9626 22.2832 60.1466 19.4754C59.9368 19.151 59.7546 18.8856 59.7418 18.8856C59.729 18.8856 59.7444 18.9537 59.776 19.0369ZM65.4594 20.1381C67.7021 24.7738 68.8466 29.8875 68.8441 35.2618C68.8392 45.9712 65.0268 55.0821 57.8396 61.5605C56.8012 62.4965 55.7048 63.4021 54.9007 63.988C53.1388 65.2718 50.5222 66.7538 47.3759 68.2496C45.7967 69.0005 45.6532 69.0787 45.7245 69.1502C45.8539 69.2798 49.43 68.1641 50.9558 67.518C55.1835 65.7279 59.2271 62.7946 62.1653 59.3863C66.6552 54.1781 69.2421 47.7912 69.9194 40.2419C70.041 38.8867 70.0212 35.094 69.8859 33.8225C69.4125 29.3745 68.3698 25.6757 66.5312 21.923C65.9789 20.7956 65.1095 19.204 64.9577 19.0421C64.9253 19.0077 65.1511 19.5009 65.4594 20.1381ZM27.6378 25.9V27.1525H27.8853H28.1328L28.151 26.6672L28.1693 26.1818H28.7321H29.2948L29.3131 26.6672L29.3313 27.1525H29.5788H29.8263V25.9V24.6474H29.5762H29.3261V25.1484V25.6494H28.7321H28.138V25.1484V24.6474H27.8879H27.6378V25.9ZM30.5142 25.558C30.5142 26.3303 30.5322 26.5039 30.6333 26.701C30.8034 27.0327 31.0872 27.1817 31.5459 27.18C31.9857 27.1783 32.2538 27.0562 32.4633 26.762C32.5976 26.5733 32.6105 26.4839 32.6302 25.6025L32.6514 24.6474H32.4004H32.1494L32.129 25.5298C32.1087 26.4082 32.1079 26.4128 31.9332 26.5631C31.6551 26.8024 31.2242 26.7311 31.0838 26.4225C31.0443 26.3357 31.0144 25.9197 31.0144 25.4586V24.6474H30.7643H30.5142V25.558ZM33.4835 25.7864C33.2088 26.4129 32.9639 26.9765 32.9392 27.039C32.9001 27.1378 32.9284 27.1525 33.158 27.1519C33.4062 27.1513 33.428 27.1365 33.5266 26.9014L33.6313 26.6515H34.1993H34.7672L34.8673 26.902C34.9628 27.1412 34.9798 27.1525 35.2428 27.1525H35.5182L35.4325 26.949C35.3854 26.837 35.1402 26.2733 34.8876 25.6964L34.4284 24.6474H34.2056H33.9829L33.4835 25.7864ZM35.3439 24.7257C35.3594 24.7688 35.5523 25.3321 35.7726 25.9777L36.1731 27.1514L36.4024 27.152L36.6317 27.1525L36.8345 26.5419C37.1992 25.4432 37.1474 25.4581 37.4551 26.363L37.7236 27.1525H37.9493H38.175L38.5966 25.9405C38.8285 25.274 39.0182 24.7087 39.0182 24.6844C39.0182 24.6601 38.8997 24.6488 38.755 24.6595L38.4919 24.6787L38.2392 25.4757C38.1002 25.914 37.9715 26.2734 37.9534 26.2742C37.9352 26.275 37.7996 25.9093 37.652 25.4616L37.3838 24.6474H37.1832H36.9826L36.6999 25.5041L36.4173 26.3608L36.1431 25.5041L35.8689 24.6474H35.5922C35.3975 24.6474 35.3239 24.6706 35.3439 24.7257ZM39.4559 25.9V27.1525H40.3938H41.3318V26.9333V26.7141H40.6439H39.9561V26.401V26.0878H40.3938H40.8315V25.8686V25.6494H40.3938H39.9561V25.3989V25.1484H40.6127H41.2692V24.8979V24.6474H40.3626H39.4559V25.9ZM41.8945 25.9V27.1525H42.1446H42.3948V25.9V24.6474H42.1446H41.8945V25.9ZM34.3795 25.7289C34.5713 26.1924 34.5641 26.2131 34.2138 26.2131C34.0476 26.2131 33.8957 26.1972 33.8763 26.1778C33.8345 26.1359 34.1428 25.3989 34.2021 25.3989C34.2245 25.3989 34.3044 25.5474 34.3795 25.7289ZM11.3176 29.4071V29.7203H35.0163H58.715V29.4071V29.094H35.0163H11.3176V29.4071ZM31.8585 32.0388C30.9162 32.1607 29.9474 32.4855 29.1698 32.9403C28.5889 33.2798 27.6245 34.2469 27.2906 34.8245C26.8152 35.6468 26.5715 36.3541 26.4168 37.361C26.1765 38.925 26.3901 40.524 27.0065 41.7763C27.6679 43.12 28.746 44.0277 30.2676 44.5219C31.7525 45.0042 34.0252 45.0229 35.6056 44.5658C36.1815 44.3992 36.8825 44.1286 36.9277 44.0553C36.9477 44.0229 36.8464 43.643 36.7026 43.211C36.4855 42.5582 36.4239 42.4327 36.3385 42.4681C35.2047 42.9373 34.2754 43.132 33.1717 43.1314C32.1668 43.1309 31.5875 43.0164 30.9119 42.6846C29.956 42.2152 29.2311 41.2928 28.9183 40.1479C28.7805 39.6433 28.7213 37.9054 28.8221 37.3224C29.1606 35.3648 30.3117 34.1256 32.0774 33.8178C33.1576 33.6295 34.4985 33.8173 35.6576 34.3192C35.9372 34.4403 36.1729 34.5324 36.1814 34.5239C36.2077 34.4977 36.7671 32.958 36.7671 32.9121C36.7671 32.7811 35.3679 32.2978 34.5114 32.1331C33.8764 32.0109 32.4624 31.9607 31.8585 32.0388ZM13.6312 38.5196V44.8764H14.7567H15.8822V42.0268V39.1772H18.9149H21.9476V42.0268V44.8764H23.0419H24.1361V38.5196V32.1628H23.0419H21.9476V34.7619V37.361H18.9149H15.8822V34.7619V32.1628H14.7567H13.6312V38.5196ZM39.2683 38.5196V44.8764H40.4251H41.5819V38.5196V32.1628H40.4251H39.2683V38.5196ZM48.3146 32.2083C48.2904 32.2481 43.4424 44.2749 43.2645 44.7368L43.2097 44.8791L44.3746 44.8621L45.5396 44.8451L46.1714 43.17L46.8031 41.4949L49.4061 41.4947L52.0091 41.4944L52.0761 41.6667C52.1129 41.7614 52.3239 42.3039 52.5449 42.8723C52.766 43.4406 53.0277 44.1238 53.1265 44.3903L53.3062 44.875L54.5099 44.8757C55.1719 44.8761 55.7135 44.8527 55.7135 44.8238C55.7135 44.7948 54.5489 41.9413 53.1253 38.4826L50.5371 32.1941L49.4407 32.177C48.8376 32.1676 48.3309 32.1817 48.3146 32.2083ZM49.5212 34.9012C49.5641 35.0657 49.7084 35.4821 49.842 35.8266C50.6901 38.0136 51.3289 39.7066 51.3123 39.7233C51.3017 39.734 50.435 39.7352 49.3864 39.7261L47.4798 39.7095L48.1579 37.9246C48.5308 36.9429 48.9539 35.7822 49.0982 35.3453C49.2425 34.9083 49.3792 34.5623 49.402 34.5764C49.4248 34.5905 49.4785 34.7367 49.5212 34.9012ZM11.3176 48.0704V48.3836H35.0163H58.715V48.0704V47.7573H35.0163H11.3176V48.0704ZM3.60058 50.9513C3.68574 51.2567 4.33242 52.7488 4.75418 53.613C5.79549 55.7468 7.07234 57.7121 8.68066 59.6567C9.403 60.53 11.2423 62.3795 12.0992 63.0941C15.5314 65.9565 19.2408 67.9522 22.8275 68.8662C23.4998 69.0375 24.3953 69.1755 24.3237 69.0968C24.3065 69.0778 23.786 68.8606 23.1669 68.6141C20.1681 67.4199 17.2555 65.7416 14.5379 63.642C9.82451 60.0005 6.31761 55.9793 3.90709 51.4524C3.7145 51.0907 3.57656 50.8652 3.60058 50.9513ZM9.6293 51.8281C9.66613 51.897 9.71027 51.9534 9.72747 51.9534C9.74466 51.9534 9.72866 51.897 9.69183 51.8281C9.655 51.7592 9.61085 51.7029 9.59365 51.7029C9.57646 51.7029 9.59247 51.7592 9.6293 51.8281ZM39.797 52.9213C39.4311 53.2877 39.798 53.9328 40.3004 53.8064C40.7184 53.7014 40.8644 53.1515 40.5417 52.8974C40.313 52.7171 39.9904 52.7275 39.797 52.9213ZM22.9111 53.0562C22.6079 53.164 22.2751 53.4711 22.1572 53.752C22.0387 54.0345 22.0543 54.5059 22.1923 54.8103C22.3378 55.1312 22.5591 55.2995 23.3653 55.7025C23.7151 55.8774 24.0458 56.084 24.1 56.1616C24.2953 56.4409 24.1989 56.7703 23.8725 56.9394C23.628 57.066 23.1106 57.025 22.6264 56.8407C22.4447 56.7716 22.2759 56.7357 22.2513 56.7611C22.2267 56.7864 22.1495 56.9534 22.0795 57.1323L21.9523 57.4574L22.3095 57.6006C22.6115 57.7216 22.7833 57.7439 23.4219 57.7451C24.1554 57.7465 24.1861 57.741 24.4849 57.5561C25.0036 57.2352 25.2427 56.588 25.0743 55.9616C24.9688 55.5694 24.6379 55.277 23.9033 54.9272C23.1609 54.5737 23.0106 54.4454 23.0106 54.1649C23.0106 53.997 23.0507 53.9303 23.2138 53.8272C23.3823 53.7207 23.4842 53.7044 23.8095 53.732C24.0253 53.7503 24.3322 53.8229 24.4914 53.8934C24.6505 53.964 24.7883 54.0141 24.7976 54.0048C24.8069 53.9955 24.855 53.812 24.9046 53.5969L24.9949 53.2058L24.5902 53.0806C24.1077 52.9314 23.2957 52.9196 22.9111 53.0562ZM42.0692 53.3141L41.8376 53.3384L41.8191 53.7576L41.8007 54.1767L41.6017 54.196C41.4139 54.2142 41.3997 54.2338 41.3506 54.5405L41.2986 54.8656L41.5279 54.8846L41.7572 54.9035L41.7804 55.9806C41.807 57.218 41.8651 57.4174 42.2648 57.6423C42.4418 57.742 42.6109 57.7778 42.9035 57.7775C43.2979 57.7772 43.7398 57.6902 43.7941 57.6022C43.8096 57.5771 43.7917 57.4228 43.7543 57.2593L43.6864 56.962L43.4627 57.0069C43.1109 57.0773 42.9394 57.0488 42.819 56.8999C42.7231 56.7813 42.7074 56.6309 42.7074 55.8294V54.8969H43.1679H43.6283L43.6681 54.6063C43.7346 54.1207 43.7593 54.1454 43.2076 54.1454H42.7074V53.707V53.2686L42.5042 53.2791C42.3924 53.2849 42.1967 53.3007 42.0692 53.3141ZM26.8695 54.1684C26.1914 54.3588 25.762 54.9762 25.7125 55.832C25.672 56.533 25.8114 56.9735 26.19 57.3406C26.5426 57.6825 26.8277 57.7778 27.4978 57.7778C28.0819 57.7778 28.8574 57.5748 28.8042 57.4358C28.7866 57.39 28.7376 57.2368 28.6954 57.0954C28.6531 56.9541 28.5983 56.8384 28.5737 56.8384C28.5491 56.8384 28.4058 56.8822 28.2553 56.9356C27.8805 57.0688 27.3396 57.0694 27.0838 56.9369C26.8931 56.8382 26.6424 56.4395 26.6387 56.2292C26.6377 56.172 26.9203 56.148 27.7464 56.1353C29.0243 56.1156 28.9446 56.1658 28.825 55.4558C28.7352 54.9225 28.4676 54.4898 28.1032 54.2891C27.779 54.1105 27.2573 54.0595 26.8695 54.1684ZM30.628 54.1667C30.0027 54.3427 29.5728 54.8632 29.4499 55.5934C29.3682 56.0787 29.4291 56.6098 29.6107 56.9929C29.7509 57.2888 30.1409 57.6299 30.4316 57.7107C30.7873 57.8097 31.5031 57.787 31.8585 57.6655C32.1448 57.5677 32.1704 57.5428 32.1619 57.3708C32.1568 57.2674 32.1227 57.1063 32.0861 57.0128L32.0196 56.8428L31.7828 56.9428C31.6525 56.9977 31.4025 57.0451 31.2272 57.048C30.6356 57.0579 30.3681 56.7287 30.37 55.9929C30.3713 55.4541 30.4986 55.1306 30.7762 54.9612C31.0355 54.8028 31.3001 54.8008 31.703 54.9541L32.0177 55.0739L32.1119 54.8481C32.3096 54.3744 32.3064 54.3633 31.941 54.25C31.4644 54.1024 30.9684 54.0709 30.628 54.1667ZM38.4925 54.1449C38.3926 54.1765 38.2219 54.2887 38.1132 54.3942C37.8953 54.6058 37.8301 54.5894 37.8301 54.3228V54.1454H37.3924H36.9547V55.9303V57.7152H37.4237H37.8926V56.5959V55.4766L38.1726 55.218C38.421 54.9887 38.487 54.9596 38.758 54.9596H39.0634L39.1274 54.5681C39.1626 54.3529 39.1829 54.1673 39.1724 54.1558C39.1232 54.1012 38.6542 54.0937 38.4925 54.1449ZM32.8277 55.5413C32.8277 56.8644 32.8351 56.9517 32.9684 57.2161C33.1757 57.627 33.4394 57.7778 33.9506 57.7778C34.3132 57.7778 34.4127 57.7503 34.7195 57.5653L35.0718 57.3528L35.0909 57.5184C35.1093 57.6769 35.1278 57.6847 35.5321 57.7024L35.9542 57.7209V55.9332V54.1454H35.4852H35.0163V55.3883C35.0163 56.7571 35.0305 56.7051 34.5973 56.9248C34.3688 57.0407 34.1239 57.0552 33.9519 56.9629C33.7581 56.8591 33.7038 56.4932 33.7035 55.2884L33.7032 54.1454H33.2655H32.8277V55.5413ZM39.7477 54.1872C39.7248 54.2101 39.706 55.0133 39.706 55.9721V57.7152H40.175H40.6439V55.9303V54.1454H40.2167C39.9816 54.1454 39.7706 54.1642 39.7477 54.1872ZM43.958 54.183C43.958 54.2038 44.2416 54.9961 44.5882 55.9439C45.0444 57.1911 45.2075 57.7111 45.1786 57.8264C45.1566 57.9139 45.0409 58.0836 44.9213 58.2034C44.7118 58.4132 44.6907 58.4199 44.3394 58.388L43.9749 58.3549L43.8983 58.6975C43.8563 58.8859 43.8388 59.0571 43.8595 59.0779C43.8802 59.0986 44.134 59.1281 44.4236 59.1433C44.8771 59.1671 44.9904 59.1514 45.2412 59.0297C45.5506 58.8797 45.8342 58.5479 46.0225 58.1155C46.14 57.8455 47.4597 54.2279 47.4597 54.1756C47.4597 54.159 47.251 54.1454 46.9959 54.1454H46.5322L46.1306 55.351L45.729 56.5566L45.3293 55.351L44.9296 54.1454H44.4439C44.1766 54.1454 43.958 54.1624 43.958 54.183ZM27.6412 54.8988C27.7602 54.9626 27.9504 55.2678 27.9504 55.3948C27.9504 55.4364 27.72 55.4606 27.3251 55.4606C26.9303 55.4606 26.6999 55.4364 26.6999 55.3948C26.6999 55.2751 26.8856 54.9668 26.9969 54.9019C27.1396 54.8187 27.4887 54.817 27.6412 54.8988Z" fill="white"/>
</svg>
