<svg width="70" height="70" viewBox="0 0 70 70" fill="none" xmlns="http://www.w3.org/2000/svg">
<path fill-rule="evenodd" clip-rule="evenodd" d="M32.5854 0.591745C25.6161 0.989592 19.1633 3.35362 13.6576 7.52612C12.2536 8.59014 11.3323 9.39736 10.0314 10.7032C3.59523 17.1639 0 25.8774 0 35.0154C0 39.5818 0.855646 44.3164 2.36992 48.1294C2.6692 48.8831 3.38752 50.5195 3.40815 50.4948C3.41571 50.4857 3.2682 50.0131 3.0803 49.4447C1.38795 44.3258 0.790515 38.1012 1.47108 32.6801C3.16344 19.1993 12.8012 7.86159 25.8465 4.00507C34.5012 1.44656 43.8548 2.40072 51.7848 6.65101C56.6247 9.24503 60.9731 13.1445 63.9549 17.5644C64.5888 18.5042 64.7355 18.6908 64.4717 18.2221C62.8783 15.3907 61.053 12.9792 58.7561 10.671C52.9491 4.83534 45.4126 1.34059 37.1599 0.656508C36.0422 0.563874 33.6633 0.530177 32.5854 0.591745ZM31.7844 5.87699C30.8998 6.15727 30.5183 6.7548 30.5809 7.76137C30.6556 8.95974 31.2948 9.54699 32.4389 9.46838C32.8483 9.44026 33.5658 9.22518 33.5658 9.13054C33.5658 9.11645 33.5246 9.00608 33.4742 8.88533L33.3826 8.66574L33.1306 8.79451C32.3356 9.20094 31.5106 8.91339 31.2847 8.15108C31.1189 7.5917 31.2006 6.96982 31.4815 6.65327C31.7541 6.34605 32.335 6.2149 32.8136 6.35244C33.0605 6.4234 33.0975 6.39804 33.1488 6.12283C33.1852 5.9271 33.1808 5.9229 32.8727 5.85664C32.4707 5.77026 32.0991 5.77722 31.7844 5.87699ZM40.6134 6.17018C40.486 6.24446 40.4637 6.60078 40.579 6.71634C40.6202 6.75768 40.7412 6.7915 40.8478 6.7915C41.0867 6.7915 41.1915 6.69348 41.1915 6.47025C41.1915 6.16304 40.8919 6.00758 40.6134 6.17018ZM38.5884 6.52531C38.5415 6.78411 38.5129 6.82532 38.3687 6.84204C38.2525 6.85557 38.1914 6.90787 38.1639 7.01717C38.1156 7.21014 38.1623 7.29256 38.3199 7.29256C38.4663 7.29256 38.4656 7.26288 38.3398 8.18885C38.2094 9.14814 38.2608 9.37449 38.6484 9.55081C38.9192 9.67401 39.4102 9.71033 39.5558 9.61789C39.602 9.58851 39.6298 9.48842 39.6183 9.39241C39.5996 9.2357 39.5723 9.21854 39.3237 9.20683C39.0228 9.19261 38.8788 9.06465 38.8788 8.81142C38.8788 8.67989 38.9497 8.12559 39.0378 7.56828L39.0685 7.37424L39.394 7.42579C39.7516 7.48247 39.788 7.46575 39.8493 7.21703C39.8945 7.03389 39.8959 7.03464 39.363 6.94883L39.1284 6.911L39.1685 6.5694L39.2085 6.2278H38.9254H38.6423L38.5884 6.52531ZM27.7259 6.45146C27.6097 6.56796 27.5965 6.86046 27.7027 6.96687C27.744 7.00821 27.8649 7.04203 27.9715 7.04203C28.2104 7.04203 28.3153 6.94401 28.3153 6.72079C28.3153 6.51078 28.1678 6.35307 27.9715 6.35307C27.8905 6.35307 27.78 6.39735 27.7259 6.45146ZM42.3459 6.59458C42.1791 6.69655 42.0365 6.93499 41.9149 7.31536C41.8875 7.40092 41.8353 7.42403 41.7195 7.40186C41.5937 7.37775 41.5427 7.40768 41.4702 7.54817C41.3542 7.77302 41.3557 7.79344 41.4884 7.79457C41.7709 7.79708 41.7703 7.85889 41.4774 8.92516C41.3222 9.48986 41.2155 9.97101 41.2403 9.99438C41.265 10.0177 41.3938 10.0662 41.5264 10.102C41.734 10.1582 41.7717 10.1525 41.7979 10.0609C41.8146 10.0024 41.9457 9.5317 42.0892 9.01498C42.3727 7.99406 42.341 8.03383 42.7886 8.13642C42.9542 8.17432 42.9892 8.15841 43.0543 8.01523C43.167 7.7672 43.1548 7.74966 42.8118 7.66717C42.5124 7.59521 42.4966 7.58149 42.5347 7.42604C42.639 7.00076 42.842 6.89215 43.1929 7.07397C43.3717 7.16661 43.3775 7.16448 43.4776 6.9705C43.574 6.78367 43.5733 6.76858 43.4639 6.70369C43.0563 6.4618 42.6311 6.42033 42.3459 6.59458ZM34.2846 6.72141C33.827 6.93198 33.6135 7.32977 33.6085 7.98153C33.603 8.67444 33.812 9.04561 34.3295 9.26219C34.6043 9.37725 35.2407 9.38264 35.5972 9.2729C35.8258 9.20257 35.8465 9.17833 35.8376 8.99137C35.8322 8.87881 35.8158 8.77466 35.801 8.75987C35.7863 8.74509 35.5937 8.77722 35.3732 8.83134C35.032 8.91502 34.9354 8.9174 34.7253 8.84706C34.4673 8.76069 34.2817 8.52412 34.2429 8.23206L34.2221 8.07548L35.0816 8.05807L35.941 8.04066V7.77284C35.941 7.38244 35.687 6.91013 35.3858 6.74052C35.0833 6.57015 34.6304 6.56232 34.2846 6.72141ZM36.4784 6.93242C36.4604 7.07886 36.4296 7.49456 36.4101 7.85626C36.3906 8.21797 36.3579 8.70413 36.3373 8.93669L36.2999 9.35946H36.6113H36.9226L36.9628 8.84274C36.9848 8.55857 37.0031 8.1943 37.0033 8.03333C37.0036 7.81179 37.0421 7.69473 37.162 7.55205C37.3361 7.34468 37.6855 7.1998 37.87 7.25849C37.9945 7.29808 38.0636 7.16047 38.0654 6.86979C38.0661 6.74834 38.0335 6.72887 37.8302 6.72887C37.5891 6.72887 37.3692 6.8443 37.1776 7.07141C37.0726 7.19592 37.0703 7.19385 37.0682 6.97157C37.0663 6.76801 37.0459 6.74045 36.8708 6.70538C36.5371 6.63849 36.513 6.65258 36.4784 6.93242ZM43.7565 7.0379C43.6052 7.32113 43.7693 7.60573 44.0838 7.60573C44.2552 7.60573 44.4419 7.40756 44.4419 7.22567C44.4419 6.94777 43.886 6.79544 43.7565 7.0379ZM35.1625 7.1958C35.2469 7.28035 35.316 7.42128 35.316 7.50896C35.316 7.66724 35.3122 7.66836 34.7847 7.66836C34.2885 7.66836 34.2534 7.65978 34.2534 7.53828C34.2534 7.46675 34.3356 7.32582 34.4361 7.22511C34.6692 6.99149 34.9475 6.98028 35.1625 7.1958ZM40.1616 8.39704C40.0322 9.08137 39.9227 9.66737 39.9182 9.69918C39.9099 9.7595 40.4313 9.89153 40.4811 9.84168C40.519 9.80372 41.0085 7.27609 40.9829 7.25048C40.9719 7.23945 40.8356 7.21296 40.6799 7.1916L40.3969 7.15277L40.1616 8.39704ZM28.1121 7.43055C27.9824 7.46506 27.8777 7.53207 27.8777 7.58068C27.8777 7.67125 28.4305 10.0595 28.4579 10.0869C28.4662 10.0953 28.6047 10.0741 28.7656 10.0397C28.9419 10.002 29.0487 9.94778 29.0342 9.90318C29.0211 9.86253 28.8946 9.32188 28.7531 8.70181C28.4502 7.37424 28.4445 7.35326 28.3892 7.36165C28.3657 7.36522 28.2411 7.39622 28.1121 7.43055ZM26.1366 7.9199C25.4452 8.21327 25.1964 8.93243 25.5026 9.75242C25.7365 10.3788 26.1641 10.6582 26.7898 10.5935C27.1143 10.56 27.6773 10.3228 27.8917 10.1292C27.9935 10.0373 27.9924 10.0218 27.8713 9.85145L27.743 9.671L27.5645 9.7984C27.2956 9.99024 26.8711 10.1225 26.6532 10.0822C26.4563 10.0458 26.2618 9.87575 26.1351 9.62922C26.0668 9.49644 26.089 9.48435 26.7992 9.26664C27.8775 8.93612 27.7903 9.01648 27.5635 8.56158C27.3167 8.06671 27.0898 7.89967 26.6317 7.87568C26.4403 7.86566 26.2176 7.88551 26.1366 7.9199ZM43.4987 8.12922C43.4606 8.2719 43.3056 8.83791 43.1544 9.38696C43.003 9.936 42.8792 10.4037 42.8792 10.4262C42.8792 10.4947 43.3913 10.6253 43.4429 10.57C43.5089 10.4993 44.1382 8.16473 44.1123 8.08694C44.101 8.05274 43.9738 7.98992 43.8298 7.94727L43.568 7.86986L43.4987 8.12922ZM26.8103 8.45685C26.9161 8.54604 27.0026 8.65603 27.0026 8.70125C27.0026 8.74866 26.818 8.83973 26.5672 8.91614C26.3276 8.98899 26.0885 9.06521 26.0359 9.0855C25.9635 9.11331 25.9403 9.07861 25.941 8.94339C25.9422 8.69812 26.0682 8.46919 26.2538 8.37512C26.482 8.2595 26.5961 8.27622 26.8103 8.45685ZM24.518 8.46688C24.2781 8.58625 24.2807 8.54836 24.4361 9.70395C24.501 10.1862 24.5478 10.5871 24.5402 10.5949C24.528 10.6073 23.5732 9.49293 23.3095 9.15866C23.2107 9.03321 23.2103 9.03321 22.9501 9.16624C22.6498 9.31975 22.66 9.22925 22.8092 10.4242C22.8715 10.9237 22.9176 11.3389 22.9116 11.3468C22.9055 11.3548 22.6128 11.0095 22.2611 10.5796C21.9093 10.1496 21.5977 9.79789 21.5687 9.79789C21.5396 9.79789 21.3998 9.84994 21.258 9.91352L21.0002 10.0292L21.8212 10.9626C22.2727 11.476 22.6926 11.9492 22.7542 12.0142C22.8641 12.1299 22.8722 12.1299 23.1528 12.0142C23.485 11.8773 23.4749 11.9357 23.3455 10.8964C23.214 9.83967 23.204 9.8604 23.6117 10.3464C23.8094 10.582 24.0948 10.918 24.2459 11.093L24.5208 11.4112L24.8085 11.2854C24.9668 11.2162 25.1012 11.1559 25.1072 11.1515C25.1509 11.1191 24.8326 8.39547 24.7836 8.38245C24.7493 8.3733 24.6298 8.41132 24.518 8.46688ZM45.1097 8.60542C44.5653 8.77998 44.1293 9.46368 44.1296 10.1424C44.1298 10.5927 44.262 10.8457 44.6214 11.0841C44.8433 11.2312 45.6479 11.4351 45.7123 11.3605C45.7256 11.3451 45.7532 11.2445 45.7736 11.1369C45.8099 10.9456 45.8047 10.9406 45.5315 10.9031C44.9132 10.8182 44.6456 10.5018 44.7602 9.99087C44.8427 9.62327 44.9645 9.40425 45.1945 9.21033C45.4556 8.99018 45.6779 9.00314 46.0599 9.26069L46.3779 9.47515L46.5143 9.28324C46.648 9.09503 46.6483 9.08964 46.5307 9.00145C46.0325 8.62784 45.5014 8.47984 45.1097 8.60542ZM47.0469 9.34587C47.0332 9.37055 47.0042 9.46537 46.9824 9.55651C46.9403 9.73363 47.0164 9.79664 47.2754 9.79927C47.4958 9.80153 47.9244 10.0256 48.0367 10.1974C48.1247 10.3318 48.1294 10.3921 48.0669 10.5817C48.0262 10.7053 47.9745 10.7966 47.9519 10.7846C47.1639 10.3632 46.7202 10.278 46.3914 10.4847C46.2776 10.5563 46.144 10.712 46.0945 10.8307C45.8211 11.4864 46.2699 12.0248 47.0734 12.0051C47.4107 11.9968 47.4225 12.002 47.395 12.1463C47.3711 12.2713 47.4054 12.3123 47.6029 12.395C47.7329 12.4495 47.8566 12.4722 47.8778 12.4456C47.8989 12.419 48.0801 12.0534 48.2803 11.6332C48.811 10.5195 48.8158 10.1044 48.3021 9.7315C47.9732 9.49275 47.1124 9.22831 47.0469 9.34587ZM49.9019 10.2391C49.7588 10.4559 49.7108 10.4871 49.569 10.4559C49.4485 10.4294 49.371 10.4555 49.2839 10.5519C49.1656 10.6829 49.1659 10.6856 49.3136 10.7972L49.4629 10.91L49.0463 11.6203C48.6921 12.2243 48.6298 12.3746 48.6298 12.6252C48.6298 12.892 48.6536 12.9403 48.8832 13.1371C49.0921 13.3163 49.6099 13.5342 49.6741 13.4698C49.6834 13.4605 49.7089 13.3632 49.7308 13.2538C49.7612 13.1015 49.7487 13.0548 49.6774 13.0548C49.5092 13.0548 49.2548 12.8032 49.2548 12.6369C49.2548 12.5174 49.8276 11.4222 49.9844 11.2418C50.0058 11.2171 50.1596 11.2953 50.5162 11.5124C50.5981 11.5622 50.6493 11.5425 50.7485 11.423C50.8185 11.3387 50.8767 11.2513 50.8779 11.2288C50.8791 11.2062 50.7464 11.1104 50.5831 11.016C50.4198 10.9216 50.2757 10.8356 50.263 10.825C50.2502 10.8144 50.3135 10.6796 50.4036 10.5255C50.4937 10.3714 50.5675 10.2296 50.5675 10.2103C50.5675 10.1803 50.1557 9.9858 50.0919 9.9858C50.0794 9.9858 49.9939 10.0998 49.9019 10.2391ZM19.7207 10.7948C19.5488 10.8946 19.2966 11.092 19.1603 11.2334L18.9125 11.4906L19.0766 11.655L19.2406 11.8194L19.4435 11.5878C19.6508 11.3513 20.0418 11.1132 20.223 11.1132C20.2786 11.1132 20.4097 11.1989 20.5143 11.3038L20.7045 11.4944L20.3376 11.7118C19.7917 12.0354 19.5643 12.3184 19.5649 12.6738C19.5653 12.9906 19.7164 13.2779 19.9513 13.4085C20.1464 13.5169 20.5315 13.5136 20.7477 13.4016C20.9709 13.2859 21.2398 12.9688 21.2923 12.7596L21.3324 12.5993L21.4368 12.7379L21.5412 12.8766L21.7716 12.7403C21.8985 12.6654 22.0022 12.5816 22.0022 12.5541C22.0022 12.5267 21.7841 12.1427 21.5177 11.7008C21.1985 11.1713 20.9609 10.8486 20.8209 10.7547C20.5145 10.549 20.1192 10.5634 19.7207 10.7948ZM51.7335 10.7893C51.6766 10.8523 51.6301 10.9651 51.6301 11.0398C51.6301 11.2103 51.8397 11.4264 52.0051 11.4264C52.1661 11.4264 52.3801 11.2119 52.3801 11.0506C52.3801 10.8806 52.1629 10.6748 51.9835 10.6748C51.9029 10.6748 51.7904 10.7263 51.7335 10.7893ZM47.4924 10.9622C47.6711 11.0514 47.8171 11.143 47.8169 11.1657C47.8168 11.1885 47.7619 11.2972 47.6949 11.4073C47.5335 11.6726 47.2296 11.7361 46.8979 11.5737C46.5937 11.4248 46.5481 11.1891 46.779 10.9578C46.977 10.7594 47.0876 10.7601 47.4924 10.9622ZM50.6025 12.594C50.0934 13.3595 49.8914 13.7133 49.9341 13.7645C49.9678 13.8047 50.0779 13.8863 50.1788 13.9457L50.3624 14.0536L51.09 12.9595C51.4902 12.3577 51.8176 11.8549 51.8176 11.8421C51.8176 11.8293 51.7083 11.7464 51.5749 11.6579L51.3321 11.4969L50.6025 12.594ZM17.9393 11.9649C17.8189 12.051 17.7279 12.1493 17.7369 12.1833C17.7459 12.2174 17.9906 12.5666 18.2806 12.9593C18.7584 13.6064 18.8029 13.6906 18.7555 13.8564C18.6295 14.2965 18.3526 14.5302 18.0792 14.427C18.0015 14.3976 17.6797 14.0226 17.3641 13.5935L16.7903 12.8134L16.5535 12.9811C16.4233 13.0733 16.3162 13.1629 16.3154 13.1802C16.3147 13.1975 16.5814 13.5714 16.908 14.011C17.6952 15.0707 17.9676 15.2272 18.5016 14.9264C18.7487 14.7873 19.0019 14.4143 19.0019 14.1894C19.0019 14.0343 19.0796 14.0184 19.1894 14.1509C19.2952 14.2786 19.3762 14.2665 19.5908 14.0907C19.7567 13.9548 19.7653 13.9297 19.6846 13.8159C19.1939 13.1247 18.2138 11.8089 18.1893 11.8086C18.1721 11.8084 18.0596 11.8788 17.9393 11.9649ZM21.0254 12.0774C21.1621 12.3318 21.1266 12.482 20.8683 12.7408C20.637 12.9726 20.3662 12.9934 20.2243 12.7903C20.0335 12.5174 20.144 12.2908 20.6253 11.9683C20.8434 11.8223 20.896 11.8365 21.0254 12.0774ZM51.9989 12.7411C51.7111 12.8935 51.3959 13.2535 51.239 13.6091C50.8844 14.4121 51.5321 15.3424 52.4418 15.3367C52.8321 15.3342 53.0749 15.2264 53.3739 14.9227C53.9511 14.3364 54.0207 13.6126 53.5514 13.0771C53.1561 12.6259 52.489 12.4815 51.9989 12.7411ZM14.7674 13.2584L14.5713 13.4619L15.0684 14.0043L15.5655 14.5467L14.9658 15.1004C14.6359 15.405 14.346 15.6616 14.3215 15.6707C14.297 15.6798 14.0724 15.4614 13.8224 15.1853C13.5724 14.9092 13.3437 14.6833 13.3144 14.6833C13.243 14.6833 12.8763 14.9947 12.8763 15.0553C12.8763 15.0936 14.5388 16.9159 15.1642 17.5632L15.3144 17.7186L15.5447 17.4878L15.7749 17.257L15.2189 16.679L14.6628 16.1011L15.2853 15.5129L15.9078 14.9247L16.4551 15.5001L17.0024 16.0755L17.2208 15.9086C17.341 15.8168 17.4392 15.7121 17.4392 15.676C17.4392 15.6017 15.0767 13.0548 15.0078 13.0548C14.9835 13.0548 14.8753 13.1465 14.7674 13.2584ZM53.0561 13.2739C53.3135 13.4909 53.3482 13.6881 53.1912 14.0438C53.0326 14.4031 52.7919 14.6696 52.5208 14.7858C52.2488 14.9024 51.931 14.7758 51.785 14.4927C51.6461 14.2237 51.7039 13.9542 51.9776 13.595C52.3513 13.1046 52.7238 12.9937 53.0561 13.2739ZM53.8345 15.078L52.9449 16.0299L53.1677 16.2491L53.3904 16.4683L54.0336 15.7859L54.6768 15.1036L54.9797 15.1378C55.3072 15.1748 55.568 15.3919 55.568 15.6274C55.568 15.6971 55.2709 16.0717 54.8831 16.4912L54.1983 17.232L54.4207 17.4452L54.6432 17.6584L55.2974 16.9694C55.9596 16.2721 56.193 15.9337 56.193 15.6713C56.193 15.2641 55.6762 14.8086 55.2144 14.8086C54.9836 14.8086 54.9651 14.7732 55.1013 14.5929C55.1847 14.4824 55.1777 14.4549 55.0251 14.2954C54.9326 14.1987 54.8271 14.1211 54.7906 14.1228C54.754 14.1247 54.3238 14.5545 53.8345 15.078ZM9.9026 18.3943C9.47549 18.9397 8.38163 20.5943 7.98747 21.2911C5.75763 25.233 4.56345 29.9733 4.56345 34.8825C4.56345 36.7031 4.64664 37.6184 5.05912 40.3382C5.61793 44.0225 7.03594 47.7019 9.2686 51.2611C9.47393 51.5884 9.67157 51.8843 9.70789 51.9188C9.74421 51.9532 9.7312 51.9109 9.67901 51.8248C9.35786 51.2948 8.57347 49.7845 8.23137 49.0376C6.36056 44.9528 5.67062 41.5458 5.77069 36.8868C5.85139 33.1322 6.07603 31.3152 6.80779 28.4994C7.68738 25.1147 9.2826 21.6848 11.0134 19.4569C11.315 19.0686 11.3177 19.0612 11.207 18.9212C10.9383 18.5811 10.3497 17.9402 10.306 17.9402C10.2797 17.9402 10.0981 18.1445 9.9026 18.3943ZM59.6934 18.9124C59.6934 18.9304 59.8026 19.1629 59.9362 19.4291C60.8167 21.1838 62.1085 24.5529 62.7877 26.8655C64.1714 31.5775 64.4845 34.9568 63.9395 39.2982C63.003 46.7575 59.7697 52.932 54.2724 57.7586C52.9841 58.8898 51.305 60.0763 49.1923 61.3484C44.6208 64.1011 40.3191 65.2334 34.4096 65.2396C32.6513 65.2414 31.4898 65.1728 29.8779 64.9719C25.868 64.4719 22.767 63.2698 18.2574 60.4674C15.5782 58.8024 12.8883 56.2616 10.7323 53.3593C10.4253 52.9459 10.1583 52.5936 10.1391 52.5764C9.92516 52.3842 11.771 55.1385 12.6107 56.2644C13.2044 57.0604 13.5444 57.4374 14.4365 58.2888C17.6364 61.3426 20.369 63.2317 23.576 64.607C26.3336 65.7896 29.4801 66.5534 32.9693 66.8872C34.3086 67.0153 37.0812 67.1232 37.8162 67.0757C41.1227 66.8621 45.3299 65.6458 48.9736 63.85C52.0747 62.3216 54.4678 60.5853 56.8832 58.1111C61.0917 53.8001 63.8711 48.3867 64.8159 42.6606C65.1824 40.4392 65.2231 39.8778 65.2231 37.0434C65.2231 34.3141 65.1771 33.621 64.876 31.8135C64.2236 27.8971 62.2813 22.8303 60.176 19.553C59.779 18.9349 59.6934 18.8213 59.6934 18.9124ZM65.4397 20.1324C67.6915 24.8355 68.8211 29.892 68.8186 35.2572C68.8163 40.3012 67.95 45.1156 66.2886 49.3172C64.0207 55.0531 60.4153 59.7552 55.2554 63.7073C53.4225 65.1111 50.3251 66.87 46.6452 68.5968C46.1209 68.8428 45.692 69.0765 45.692 69.1161C45.692 69.2092 45.8951 69.1703 47.02 68.8612C50.4214 67.9266 53.3369 66.5743 56.3493 64.5339C63.0564 59.9907 67.6464 52.8626 69.3124 44.4028C70.229 39.7482 70.2292 34.6156 69.313 30.1556C68.5968 26.6691 67.338 23.2715 65.6446 20.2539C64.9269 18.9749 64.8691 18.9406 65.4397 20.1324ZM27.6277 25.8946V27.1473H27.8751H28.1225L28.1408 26.6619L28.159 26.1765H28.7216H29.2841L29.3024 26.6619L29.3206 27.1473H29.568H29.8154V25.8946V24.642H29.5654H29.3154V25.143V25.6441H28.7216H28.1278V25.143V24.642H27.8777H27.6277V25.8946ZM30.503 25.5527C30.503 26.5885 30.5864 26.8667 30.9568 27.0656C31.2583 27.2275 31.9408 27.2185 32.1666 27.0495C32.5671 26.7498 32.5951 26.6606 32.6182 25.6083L32.6394 24.642H32.3885H32.1376L32.1173 25.5244C32.097 26.4029 32.0961 26.4075 31.9215 26.5579C31.6435 26.7972 31.2128 26.7258 31.0724 26.4172C31.033 26.3304 31.003 25.9144 31.003 25.4533V24.642H30.753H30.503V25.5527ZM33.4712 25.7811C33.1966 26.4076 32.9518 26.9713 32.9271 27.0338C32.888 27.1328 32.9167 27.1473 33.1521 27.1473C33.4087 27.1473 33.4266 27.1352 33.52 26.8968L33.6182 26.6462H34.1864H34.7544L34.8545 26.8968C34.95 27.136 34.9669 27.1473 35.2298 27.1473H35.5052L35.4195 26.9438C35.3724 26.8318 35.1273 26.2681 34.8748 25.6911L34.4158 24.642H34.1931H33.9705L33.4712 25.7811ZM35.3303 24.7203C35.3456 24.7634 35.5384 25.3269 35.7589 25.9725L36.1598 27.1465L36.3891 27.1469L36.6183 27.1473L36.8209 26.5366C37.1873 25.4327 37.1363 25.4476 37.4382 26.3554L37.7016 27.1473H37.9312H38.1609L38.5824 25.9352C38.8142 25.2686 39.0038 24.7033 39.0038 24.679C39.0038 24.6547 38.8854 24.6434 38.7408 24.6541L38.4777 24.6733L38.2251 25.4704C38.0862 25.9087 37.9576 26.2681 37.9394 26.2689C37.9212 26.2698 37.7857 25.904 37.6382 25.4562L37.37 24.642H37.1695H36.969L36.6865 25.4987L36.4039 26.3555L36.1299 25.4987L35.8557 24.642H35.5792C35.3848 24.642 35.3108 24.6652 35.3303 24.7203ZM39.4414 25.8946V27.1473H40.379H41.3166V26.9281V26.7089H40.629H39.9414V26.3957V26.0825H40.379H40.8165V25.8633V25.6441H40.379H39.9414V25.3936V25.143H40.5977H41.254V24.8925V24.642H40.3477H39.4414V25.8946ZM41.8791 25.8946V27.1473H42.1291H42.3792V25.8946V24.642H42.1291H41.8791V25.8946ZM34.3631 25.7235C34.5611 26.1835 34.553 26.2078 34.2013 26.2078C34.0351 26.2078 33.8833 26.1919 33.8639 26.1725C33.8238 26.1322 34.1293 25.393 34.1855 25.3946C34.2056 25.3952 34.2855 25.5432 34.3631 25.7235ZM11.3136 29.4021V29.7153H35.0034H58.6933V29.4021V29.0889H35.0034H11.3136V29.4021ZM32.1282 32.0101C32.0422 32.0227 31.7609 32.0641 31.5031 32.1021C29.5346 32.3917 27.9011 33.5491 27.0486 35.2583C26.5784 36.2011 26.3158 37.4016 26.3158 38.6092C26.3158 41.228 27.4147 43.2064 29.4091 44.1783C30.4216 44.6717 31.5049 44.8901 32.9407 44.8906C33.9585 44.8909 34.5805 44.8207 35.4097 44.612C35.9813 44.4681 36.8583 44.1418 36.9134 44.0526C36.9338 44.0196 36.8329 43.639 36.6892 43.207C36.471 42.551 36.411 42.4289 36.3251 42.4663C34.9446 43.0682 33.137 43.2982 31.8781 43.0323C30.734 42.7906 29.7362 42.0324 29.2633 41.0452C29.1247 40.7561 28.9644 40.3504 28.907 40.1437C28.7688 39.6462 28.7104 37.9033 28.8123 37.3142C29.1841 35.1626 30.4984 33.9204 32.5823 33.751C33.5027 33.6761 34.7864 33.9203 35.733 34.3504C35.9601 34.4536 36.152 34.538 36.1596 34.538C36.1672 34.538 36.3088 34.1692 36.4743 33.7185C36.8183 32.7814 36.8527 32.8845 36.0973 32.5894C34.8934 32.1191 33.1334 31.8623 32.1282 32.0101ZM13.6263 38.5152V44.8725H14.7514H15.8766V42.0227V39.1729H18.9081H21.9397V42.0227V44.8725H23.0335H24.1274V38.5152V32.158H23.0335H21.9397V34.7572V37.3565H18.9081H15.8766V34.7572V32.158H14.7514H13.6263V38.5152ZM39.2538 38.5152V44.8725H40.4102H41.5666V38.5152V32.158H40.4102H39.2538V38.5152ZM48.2971 32.2035C48.2734 32.2426 43.4419 44.234 43.2489 44.733L43.1938 44.8753L44.3594 44.8582L45.525 44.8412L46.1554 43.166L46.7858 41.4908L49.3879 41.4906L51.9899 41.4903L52.0569 41.6626C52.0937 41.7573 52.3046 42.2999 52.5255 42.8683C52.7465 43.4367 53.0081 44.1199 53.1069 44.3864L53.2865 44.8711L54.4897 44.8718C55.1515 44.8722 55.693 44.8497 55.693 44.8217C55.693 44.7937 54.5285 41.94 53.1052 38.48L50.5175 32.1893L49.4219 32.1722C48.8194 32.1628 48.3132 32.1769 48.2971 32.2035ZM49.503 34.8965C49.5458 35.0611 49.6901 35.4775 49.8236 35.822C50.6713 38.0092 51.31 39.7024 51.2933 39.7191C51.2827 39.7297 50.4164 39.731 49.3682 39.7219L47.4623 39.7053L48.1401 37.9202C48.5129 36.9385 48.9359 35.7777 49.0801 35.3407C49.2243 34.9037 49.361 34.5576 49.3838 34.5718C49.4065 34.5859 49.4602 34.7321 49.503 34.8965ZM11.3136 48.0668V48.38H35.0034H58.6933V48.0668V47.7537H35.0034H11.3136V48.0668ZM3.5986 50.9479C3.69805 51.3048 4.49457 53.1077 4.93998 53.9839C7.01944 58.0749 9.92204 61.5365 13.5302 64.2287C15.0044 65.3286 16.7521 66.4191 18.2207 67.1553C20.0062 68.0503 23.4127 69.1707 24.1349 69.1003C24.3037 69.0838 24.1178 68.9916 23.0931 68.5834C19.2237 67.0418 15.5354 64.6983 11.9387 61.4958C8.59509 58.5187 5.86639 55.1179 3.96383 51.5567C3.73899 51.1357 3.5746 50.8618 3.5986 50.9479ZM25.2732 55.3612L25.963 57.7123H26.436H26.9089L27.3753 56.0839C27.781 54.6677 27.9392 54.2337 27.9406 54.5337C27.9408 54.5768 28.1462 55.3025 28.397 56.1465L28.8531 57.681L29.3309 57.6992L29.8086 57.7175L29.9332 57.2921C30.0018 57.0582 30.286 56.0776 30.5648 55.1131C30.8436 54.1485 31.097 53.2818 31.1279 53.1871L31.1841 53.0148L30.7029 53.0151L30.2217 53.0153L29.8227 54.5653C29.6032 55.4177 29.4046 56.1515 29.3814 56.1957C29.3461 56.263 29.1044 55.5095 28.4562 53.3124L28.3684 53.0148L27.8887 53.0153L27.4089 53.0158L26.9435 54.642C26.6876 55.5363 26.4687 56.2586 26.457 56.247C26.4455 56.2354 26.2445 55.5104 26.0106 54.636L25.5851 53.0462L25.0843 53.0281L24.5835 53.0101L25.2732 55.3612ZM31.8781 55.3636V57.7123H33.2533C34.5523 57.7123 34.6284 57.7059 34.6284 57.5958C34.6284 57.5317 34.6463 57.3485 34.6682 57.1887L34.7079 56.8981H33.7618H32.8157V54.9565V53.0148H32.3469H31.8781V55.3636ZM36.5135 53.3437C36.4103 53.6173 34.9356 57.3853 34.8344 57.634C34.8105 57.6927 34.9258 57.7123 35.2954 57.7123H35.7883L35.9976 57.1156L36.2069 56.519L37.0888 56.5363L37.9705 56.5536L38.1839 57.133L38.3973 57.7123H38.8881C39.158 57.7123 39.3789 57.6914 39.3789 57.6657C39.3789 57.6401 38.9656 56.5831 38.4605 55.317L37.5422 53.0148H37.0899H36.6376L36.5135 53.3437ZM40.0039 55.3636V57.7123H40.4405H40.8769L40.8936 56.06L40.9103 54.4077L41.9481 56.0444L42.986 57.681L43.4951 57.6992L44.0043 57.7174V55.3661V53.0148H43.5678H43.1313L43.1147 54.6391L43.098 56.2634L42.0666 54.6397L41.0353 53.0159L40.5196 53.0154L40.0039 53.0148V55.3636ZM37.6073 55.6878C37.5933 55.7018 37.3435 55.705 37.0521 55.695L36.5222 55.6768L36.7652 55.0191C36.8989 54.6574 37.0238 54.3192 37.0428 54.2675C37.0619 54.2151 37.2 54.5028 37.3549 54.918C37.5077 55.3274 37.6213 55.6738 37.6073 55.6878Z" fill="white"/>
</svg>
