<svg width="70" height="69" viewBox="0 0 70 69" fill="none" xmlns="http://www.w3.org/2000/svg">
<path d="M31.7908 12.9352C32.0406 12.2764 32.5548 11.7746 33.1285 11.63C33.9591 11.4205 34.5752 10.9494 34.6693 12.5735V14.1977C34.6693 16.0683 34.6774 15.1529 34.6693 16.8636C34.6558 19.6674 34.5908 19.8416 33.9488 18.7951C33.6785 18.3545 33.3323 17.8109 33.1794 17.5872C32.7859 17.0111 31.9635 15.1474 31.733 14.3097C31.5622 13.6891 31.5695 13.5191 31.7908 12.9352Z" fill="white"/>
<path d="M28.8409 15.1017C28.9678 14.7394 29.24 14.2208 29.4457 13.9493C29.6514 13.6775 29.8436 13.4554 29.873 13.4554C29.943 13.4554 31.2075 15.2363 31.8942 16.3016C32.8123 17.7262 33.9766 20.0028 33.787 20.0028C33.4136 20.0028 30.3086 18.0929 29.4951 17.3627C29.2639 17.1551 28.9702 16.7097 28.8424 16.3728C28.6318 15.8172 28.6316 15.6995 28.8409 15.1017Z" fill="white"/>
<path d="M38.2808 16.2083C38.7429 15.5535 39.335 14.701 39.5963 14.3137C39.8578 13.9263 40.1407 13.6083 40.2252 13.6069C40.4955 13.6021 41.3274 15.1553 41.3274 15.6648C41.3274 16.8325 40.2775 17.8427 37.4423 19.4035C36.8085 19.7523 36.2627 20.0101 36.229 19.9763C36.1077 19.8541 37.4593 17.3721 38.2808 16.2083Z" fill="white"/>
<path d="M35.3996 18.7379C35.2723 17.3024 35.2674 15.1258 35.3602 14.4297C35.4982 13.2696 35.5841 11.2178 35.9596 11.4134C36.8826 11.4134 37.9907 12.0311 38.2808 12.4797C38.644 13.1912 37.6342 15.7462 37.6342 15.8181C37.6342 16.116 37.1323 17.1183 36.3377 18.4076L35.4921 19.7796L35.3996 18.7379Z" fill="white"/>
<path d="M28.6262 20.0572C27.9203 19.4589 27.5028 18.3949 27.6854 17.6591C27.7311 17.4749 27.802 17.3243 27.8429 17.3243C27.9798 17.3243 31.8728 19.547 32.7278 20.1135L33.5716 20.6724L31.9066 20.7145C30.0269 20.762 29.2815 20.6127 28.6262 20.0572Z" fill="white"/>
<path d="M37.3018 20.0916C38.3905 19.4247 40.5839 18.1546 41.4001 17.7185C41.8057 17.5017 42.1879 17.3243 42.2495 17.3243C42.468 17.3243 42.3508 18.5985 42.0764 19.2073C41.8778 19.6477 41.5921 19.9471 41.0824 20.2489C40.4153 20.6438 40.2404 20.676 38.4836 20.7245C37.4477 20.7532 36.6001 20.7193 36.6001 20.649C36.6001 20.5788 36.9158 20.3281 37.3018 20.0916Z" fill="white"/>
<path d="M29.0659 21.3117C29.0659 21.2524 29.714 21.182 30.5063 21.1554C31.2986 21.1286 32.2623 21.0926 32.6483 21.0755C33.0344 21.0584 33.3496 21.0947 33.349 21.156C33.3477 21.3024 32.578 21.8206 31.6345 22.3103C30.9229 22.6796 30.8493 22.6897 30.3631 22.4851C29.8764 22.2802 29.0659 21.5472 29.0659 21.3117Z" fill="white"/>
<path d="M38.2989 22.2548C37.8114 21.9993 37.2131 21.625 36.9694 21.4233L36.5262 21.0565L38.6683 21.1456C39.8464 21.1945 40.8391 21.2599 40.8743 21.2907C41.0266 21.4245 40.2921 22.1841 39.7632 22.4399L39.1853 22.7195L38.2989 22.2548Z" fill="white"/>
<path fill-rule="evenodd" clip-rule="evenodd" d="M31.5199 0.0507112C30.0189 0.186376 27.7824 0.554904 26.2859 0.913178C25.1095 1.19476 22.6665 1.95536 22.0742 2.22439C21.9392 2.28566 21.424 2.50253 20.9292 2.70619C19.8267 3.16002 18.0575 4.02536 17.8913 4.19211C17.824 4.25961 17.7367 4.31482 17.6974 4.31482C17.521 4.31482 15.5249 5.57263 14.264 6.47849C12.626 7.6551 11.3486 8.76675 9.69224 10.4568C7.96959 12.2146 6.78375 13.7372 5.08515 16.3721C4.36547 17.4886 3.0662 20.0488 2.53904 21.3895C2.4207 21.6904 2.32387 21.957 2.32387 21.9817C2.32387 22.0065 2.23522 22.2217 2.12686 22.4598C2.0185 22.698 1.77691 23.4097 1.59012 24.0412C1.40325 24.6728 1.17942 25.4295 1.09281 25.7227C0.854088 26.5302 0.551904 28.0826 0.366341 29.4547C0.274827 30.1314 0.154772 30.9988 0.0994875 31.3822C-0.0331625 32.3024 -0.0331625 36.759 0.0994875 37.698C0.153709 38.0814 0.254628 38.875 0.323816 39.4615C0.455648 40.5793 0.756686 42.3166 0.96343 43.1525C1.32597 44.6186 1.91807 46.5507 2.12906 46.9563C2.19065 47.0747 2.24127 47.201 2.2416 47.237C2.2425 47.3579 3.00527 49.2196 3.15575 49.4682C3.3818 49.8418 3.35072 49.6925 3.0532 48.9761C2.73384 48.2071 1.95822 44.9773 1.70797 43.3743C1.32883 40.9457 1.22521 39.4909 1.2248 36.5907C1.22431 33.7024 1.29988 32.7352 1.71353 30.3311C1.96158 28.8901 2.85455 25.4665 3.05467 25.1895C3.08722 25.1444 3.23557 24.7569 3.38425 24.3283C3.53301 23.8997 3.76094 23.3181 3.89081 23.0357C4.02068 22.7534 4.27224 22.1912 4.44987 21.7864C4.62741 21.3816 4.92101 20.7881 5.10216 20.4674C5.2833 20.1468 5.43157 19.8591 5.43157 19.8284C5.43157 19.7975 5.55122 19.5886 5.69753 19.3641C5.84384 19.1396 6.17636 18.6052 6.43659 18.1766C6.89661 17.4189 7.42173 16.6325 7.78631 16.1554C7.88486 16.0265 8.15899 15.6626 8.39551 15.3468C8.63202 15.0311 8.86673 14.7358 8.91719 14.6907C8.96757 14.6456 9.1726 14.4056 9.37272 14.1575C10.3185 12.9853 12.0016 11.2986 13.3235 10.1984C13.8633 9.74922 14.3988 9.30277 14.5136 9.20639C14.7557 9.00306 15.0989 8.75478 15.6388 8.39224C15.8497 8.25067 16.0652 8.0931 16.1176 8.04216C16.17 7.99115 16.5012 7.77059 16.8536 7.55192C17.206 7.33324 17.5128 7.13106 17.5353 7.10251C17.5578 7.07397 17.6314 7.02631 17.6988 6.9967C17.7663 6.96709 18.1343 6.76081 18.5166 6.53836C20.493 5.38833 23.3998 4.12764 25.4272 3.54118C26.0119 3.37205 26.6253 3.18315 26.7902 3.12147C27.4212 2.88541 31.1027 2.24161 32.624 2.10127C33.7957 1.99325 37.3417 1.99604 38.5941 2.10611C40.2721 2.25343 43.2881 2.79281 44.5641 3.17372C46.0946 3.63058 47.2942 4.01691 47.59 4.14831C47.77 4.22812 48.2257 4.41136 48.6026 4.55539C49.5638 4.92269 51.3 5.76448 52.4902 6.44035C53.767 7.16543 55.7479 8.46499 56.3189 8.9522C56.4226 9.04071 56.654 9.2223 56.833 9.35567C58.3482 10.4845 60.87 12.9595 62.2317 14.6539C62.6829 15.2154 63.1111 15.7672 63.1831 15.88C63.2552 15.9928 63.3912 16.1727 63.4852 16.2799C63.5794 16.3871 63.7715 16.6548 63.9121 16.8746C64.0528 17.0945 64.186 17.2744 64.2081 17.2744C64.3093 17.2744 63.0846 15.3272 62.2218 14.1165C60.8299 12.1634 58.3634 9.53686 56.45 7.97023C56.03 7.62647 55.5392 7.22366 55.3593 7.07512C54.1939 6.11308 51.6266 4.51897 49.5528 3.47007C46.3568 1.85332 42.4537 0.697376 38.3896 0.16382C37.2832 0.0186402 32.7081 -0.0567383 31.5199 0.0507112ZM31.6638 5.32878C30.8802 5.62217 30.5786 6.10955 30.5892 7.06585C30.6021 8.23803 31.1827 8.86518 32.256 8.86633C32.7068 8.86682 33.5645 8.65036 33.5645 8.53602C33.5645 8.51937 33.5225 8.4134 33.4713 8.30053C33.3819 8.10376 33.3685 8.10048 33.1398 8.21909C32.7571 8.4175 32.1621 8.4563 31.8649 8.30218C31.2312 7.97343 30.9794 6.86522 31.3902 6.21257C31.6466 5.80508 31.9674 5.67508 32.5786 5.7306C33.0185 5.77063 33.063 5.75956 33.1047 5.59962C33.1297 5.50357 33.118 5.39267 33.0786 5.35314C32.9497 5.22387 31.9882 5.2073 31.6638 5.32878ZM40.5455 5.66835C40.5195 5.7361 40.5213 5.88374 40.5495 5.99644C40.5897 6.15696 40.653 6.20133 40.8417 6.20133C40.9962 6.20133 41.113 6.14441 41.1673 6.0427C41.2768 5.83748 41.2755 5.82657 41.1235 5.67401C40.9603 5.51029 40.6072 5.50685 40.5455 5.66835ZM38.5941 5.95527C38.5573 6.17328 38.4962 6.28336 38.4118 6.28336C38.29 6.28336 38.0705 6.504 38.0651 6.63195C38.0636 6.66583 38.1587 6.69347 38.2765 6.69347C38.4586 6.69347 38.4831 6.72095 38.4406 6.87802C38.4133 6.97956 38.367 7.41724 38.3378 7.85072C38.2888 8.57908 38.2977 8.65184 38.4553 8.8099C38.6498 9.00495 39.1089 9.11469 39.4113 9.03857C39.5631 9.00035 39.6163 8.93268 39.6163 8.77799C39.6163 8.61115 39.5854 8.57876 39.4636 8.61755C39.3796 8.64429 39.2087 8.62723 39.084 8.57966L38.8571 8.4932L38.9133 7.8189C39.0009 6.76376 39.0053 6.75457 39.3914 6.81995C39.6265 6.85981 39.7381 6.84406 39.7887 6.76393C39.9278 6.54386 39.8558 6.45659 39.4901 6.40155L39.1185 6.34569L39.1723 5.98643L39.226 5.62718H38.9376C38.665 5.62718 38.6463 5.64497 38.5941 5.95527ZM27.6961 5.88612C27.4618 6.12103 27.6706 6.48382 28.0109 6.43321C28.2592 6.39622 28.3973 6.16229 28.2809 5.97577C28.1709 5.79959 27.8339 5.74791 27.6961 5.88612ZM42.2719 6.08855C42.1625 6.20699 42.0303 6.4223 41.9781 6.56707C41.9021 6.77787 41.8463 6.82331 41.6982 6.79493C41.5603 6.76844 41.4982 6.8074 41.4536 6.94839C41.4208 7.05232 41.4263 7.14877 41.466 7.1628C41.7565 7.26525 41.7572 7.31331 41.4854 8.35877C41.3376 8.92719 41.2341 9.40964 41.2554 9.43097C41.2767 9.4523 41.4011 9.48182 41.5317 9.49651C41.7953 9.5262 41.7606 9.60182 42.1687 8.10893C42.333 7.50828 42.372 7.43807 42.5184 7.47982C42.609 7.50557 42.7453 7.54404 42.8213 7.56512C42.9059 7.58874 42.9963 7.53453 43.0546 7.42519C43.1638 7.22063 43.0813 7.13245 42.7036 7.0501C42.5799 7.02312 42.4787 6.99268 42.4787 6.98251C42.4787 6.97234 42.5186 6.84931 42.5673 6.70905C42.6704 6.41246 42.8879 6.31592 43.1438 6.45323C43.2947 6.53418 43.3424 6.52565 43.4332 6.40106C43.5945 6.17976 43.5702 6.12284 43.2582 5.99209C42.8219 5.80927 42.501 5.84068 42.2719 6.08855ZM34.4429 6.07157C34.0674 6.20707 33.9131 6.33027 33.7745 6.60546C33.4763 7.19717 33.5727 8.07194 33.9792 8.46253C34.1809 8.65635 34.3071 8.7008 34.7313 8.72771C35.4497 8.77315 35.8135 8.6666 35.8135 8.41069C35.8135 8.25756 35.7753 8.21646 35.6499 8.23483C34.8646 8.34967 34.7856 8.34909 34.6009 8.2277C34.3934 8.09138 34.1603 7.62705 34.2527 7.53428C34.2835 7.50344 34.6748 7.46341 35.1224 7.44537C35.8886 7.41453 35.9362 7.40239 35.9357 7.23761C35.9335 6.37309 35.1983 5.79885 34.4429 6.07157ZM36.4805 6.58643C36.4529 6.89344 36.4062 7.50442 36.3765 7.94431L36.3227 8.74403H36.6122H36.9018L36.9597 7.89141C37.0161 7.06282 37.0247 7.03353 37.2689 6.85243C37.4072 6.74998 37.6212 6.66615 37.7445 6.66615C37.9026 6.66615 37.9823 6.61571 38.0145 6.49522C38.0833 6.23849 38.0759 6.21667 37.902 6.16131C37.7236 6.10455 37.4616 6.21774 37.1833 6.47193L36.9993 6.64007V6.37965C36.9993 6.20962 36.9591 6.11931 36.8833 6.11931C36.8196 6.11931 36.7141 6.09881 36.649 6.07379C36.5556 6.03778 36.5201 6.14564 36.4805 6.58643ZM43.8485 6.37194C43.6519 6.48685 43.6661 6.83061 43.8721 6.94117C44.2664 7.15288 44.6209 6.70946 44.2792 6.43198C44.0695 6.2617 44.0435 6.25809 43.8485 6.37194ZM35.1847 6.61464C35.2831 6.70659 35.3637 6.83118 35.3637 6.89147C35.3637 7.0145 35.0136 7.10358 34.5302 7.10358C34.2337 7.10358 34.2122 7.08873 34.2638 6.91903C34.4072 6.44715 34.8491 6.30107 35.1847 6.61464ZM40.3977 6.68945C40.3772 6.75933 40.3035 7.11178 40.2337 7.47268C40.1639 7.83358 40.0557 8.36222 39.9931 8.64749C39.8721 9.19991 39.868 9.19122 40.2792 9.25692L40.4923 9.29087L40.7202 8.05373C40.8456 7.37327 40.9636 6.77467 40.9825 6.72357C41.0028 6.66862 40.8976 6.61661 40.7258 6.59652C40.5128 6.57158 40.4247 6.59652 40.3977 6.68945ZM28.0647 6.83422C27.9409 6.853 27.8398 6.88048 27.8398 6.89516C27.8398 6.91895 28.2624 8.82531 28.3724 9.29768C28.4012 9.42162 28.4753 9.48182 28.5978 9.481C29.0264 9.47805 29.0315 9.42515 28.7331 8.05422C28.58 7.35096 28.4176 6.78099 28.3722 6.78779C28.3268 6.79452 28.1884 6.81544 28.0647 6.83422ZM26.1223 7.35957C25.8007 7.48777 25.4726 7.84826 25.3882 8.16594C25.2487 8.69113 25.566 9.55843 25.9931 9.81967C26.4397 10.0928 27.3379 9.96371 27.8564 9.55187C27.9776 9.45558 27.9809 9.42137 27.8814 9.28817C27.7702 9.13938 27.7571 9.13995 27.4095 9.30867C26.8156 9.59706 26.3606 9.53686 26.1576 9.14315C26.0398 8.91464 26.043 8.90307 26.2477 8.82499C26.3645 8.78045 26.4796 8.74403 26.5034 8.74403C26.5272 8.74403 26.8009 8.6666 27.1115 8.57203C27.7381 8.38108 27.7819 8.30373 27.513 7.86155C27.2073 7.35867 26.639 7.15353 26.1223 7.35957ZM43.3848 8.02633C43.2885 8.39855 43.1373 8.93449 43.0487 9.21738C42.9601 9.50028 42.8876 9.76496 42.8876 9.80556C42.8876 9.89111 43.3677 10.0124 43.4359 9.94402C43.4611 9.91868 43.5887 9.51841 43.7196 9.05449C43.8505 8.59048 44.0069 8.03929 44.0672 7.82964L44.1769 7.44832L43.931 7.39902C43.7956 7.37188 43.6568 7.34965 43.6224 7.34965C43.588 7.34965 43.481 7.65412 43.3848 8.02633ZM26.8212 7.8791C26.9316 7.98983 27.0219 8.11295 27.0219 8.15273C27.0219 8.21031 26.1712 8.49796 26.0009 8.49796C25.9149 8.49796 25.9624 8.03265 26.061 7.90789C26.2803 7.63066 26.5628 7.61999 26.8212 7.8791ZM24.5372 7.86352L24.3014 7.94472L24.3566 8.60886C24.3869 8.9741 24.4518 9.4322 24.5006 9.62684C24.5495 9.8214 24.5727 9.9975 24.5521 10.0182C24.5315 10.0388 24.3163 9.80671 24.0737 9.50241C23.2766 8.50223 23.2236 8.45917 22.9368 8.57835C22.7996 8.63535 22.6891 8.72361 22.691 8.77446C22.693 8.8254 22.745 9.29153 22.8067 9.81032C22.8683 10.3291 22.9118 10.7607 22.9033 10.7694C22.8947 10.7781 22.7046 10.5589 22.4809 10.2824C21.6053 9.19991 21.5975 9.19343 21.3088 9.31343C21.1675 9.37208 21.0519 9.43712 21.0519 9.45787C21.0519 9.50774 22.7545 11.4319 22.8523 11.4925C22.9585 11.5584 23.4242 11.304 23.4204 11.1821C23.4188 11.1269 23.3688 10.6941 23.3093 10.2204C23.2498 9.74676 23.2085 9.3496 23.2176 9.33796C23.2268 9.32631 23.3964 9.5075 23.5946 9.7406C23.793 9.97371 24.0861 10.3108 24.2463 10.4897L24.5375 10.8149L24.7983 10.6796C25.0225 10.5634 25.0586 10.5013 25.0548 10.2388C25.0489 9.82189 24.846 7.84564 24.8055 7.81053C24.7876 7.79495 24.6669 7.81882 24.5372 7.86352ZM45.1443 8.00944C44.5404 8.19005 44.0454 9.0631 44.15 9.76267C44.2354 10.3338 44.7451 10.7126 45.4282 10.7126C45.7169 10.7126 45.75 10.6915 45.75 10.5075C45.75 10.3351 45.7115 10.3025 45.5085 10.3025C45.149 10.3025 44.8735 10.1464 44.7638 9.8807C44.6309 9.55884 44.7912 8.99567 45.1002 8.69867C45.2998 8.50698 45.3807 8.48172 45.6704 8.52068C45.856 8.54562 46.08 8.63149 46.1681 8.71138C46.3218 8.85091 46.335 8.84992 46.4973 8.68711L46.6664 8.51749L46.3104 8.27347C45.9087 7.99812 45.495 7.90445 45.1443 8.00944ZM47.0302 8.92563C46.9804 9.11625 47.0875 9.2328 47.3143 9.23493C47.5454 9.23707 48.0179 9.47067 48.0708 9.60896C48.1403 9.79047 48.1326 9.99414 48.0515 10.1224C47.9982 10.2066 47.8997 10.1847 47.5907 10.0199C47.327 9.8793 47.0689 9.81032 46.8065 9.81032C46.4727 9.81032 46.3921 9.84338 46.2569 10.0359C46.0112 10.3859 45.977 10.5919 46.1114 10.9146C46.2608 11.2731 46.6954 11.4882 47.1477 11.4274C47.4065 11.3925 47.442 11.4073 47.4085 11.5357C47.3813 11.6399 47.4451 11.7234 47.6214 11.815C47.8729 11.9454 47.8731 11.9452 47.9873 11.6776C48.0502 11.5303 48.2349 11.1085 48.3979 10.7403C48.5608 10.3721 48.6941 9.95501 48.6941 9.81344C48.6941 9.45902 48.2506 9.01298 47.7468 8.86091C47.2184 8.70138 47.0855 8.71344 47.0302 8.92563ZM49.9151 9.65432C49.7872 9.83452 49.6994 9.88496 49.58 9.84699C49.3409 9.77087 49.1522 10.0472 49.3175 10.2311C49.4247 10.3502 49.4038 10.4249 49.1273 10.9133C48.9565 11.215 48.7713 11.5423 48.7158 11.6408C48.5249 11.9791 48.587 12.3253 48.8781 12.5475C49.2253 12.8124 49.5873 12.9052 49.683 12.7537C49.794 12.578 49.7744 12.5342 49.5324 12.4184C49.207 12.2627 49.1985 11.949 49.5063 11.4473C49.6443 11.2223 49.7573 11.0207 49.7573 10.9993C49.7573 10.978 49.8186 10.8887 49.8936 10.8008C50.0278 10.6436 50.0345 10.6435 50.3337 10.7966C50.6331 10.9499 50.6395 10.9498 50.783 10.7908C50.863 10.7021 50.9133 10.6191 50.8949 10.6063C50.8764 10.5935 50.7234 10.5115 50.5546 10.4241C50.386 10.3367 50.248 10.2537 50.248 10.2395C50.248 10.2254 50.3207 10.071 50.4095 9.89637L50.571 9.57886L50.3297 9.49454C50.1111 9.41809 50.0723 9.43302 49.9151 9.65432ZM19.717 10.217C19.5 10.3408 19.245 10.5198 19.1502 10.6149C19.0012 10.7643 18.9911 10.8167 19.0755 11.0023L19.1729 11.2168L19.5514 10.8827C19.9975 10.489 20.2795 10.4529 20.5612 10.7536C20.6669 10.8664 20.7119 10.9586 20.6613 10.9586C20.5026 10.9586 19.8382 11.448 19.6644 11.6929C19.4365 12.0139 19.4557 12.2673 19.7328 12.6003C19.9279 12.8346 20.0226 12.8825 20.2913 12.8825C20.6934 12.8825 21.0177 12.6766 21.1915 12.3111C21.3061 12.07 21.3377 12.0491 21.4191 12.1607C21.505 12.2785 21.537 12.2781 21.7734 12.1555C21.9163 12.0814 22.0333 12.0025 22.0333 11.9801C22.0333 11.9365 21.6135 11.2733 21.5426 11.2047C21.5192 11.1821 21.4268 11.022 21.3373 10.8487C21.1044 10.3979 20.6121 9.97232 20.336 9.98314C20.2125 9.98798 19.9339 10.0932 19.717 10.217ZM51.7399 10.2333C51.5057 10.4682 51.7145 10.831 52.0548 10.7804C52.303 10.7434 52.4412 10.5095 52.3247 10.323C52.2147 10.1468 51.8777 10.0951 51.7399 10.2333ZM47.4191 10.3351C47.5696 10.3982 47.7189 10.4921 47.7507 10.5438C47.8351 10.6807 47.579 11.03 47.3525 11.087C47.1349 11.1418 46.6551 10.9297 46.6399 10.772C46.6192 10.5582 46.666 10.4216 46.7935 10.323C46.9635 10.1916 47.082 10.1939 47.4191 10.3351ZM50.9294 11.5146C50.7 11.8629 50.3712 12.3644 50.1988 12.629L49.8853 13.11L50.0756 13.2647C50.3351 13.4754 50.3707 13.4647 50.5846 13.1117C50.687 12.9426 50.7951 12.7857 50.8245 12.7631C50.9 12.7054 51.8156 11.2703 51.7856 11.2568C51.772 11.2507 51.6677 11.1637 51.5537 11.0635L51.3464 10.8813L50.9294 11.5146ZM17.9278 11.3888L17.7069 11.5588L18.1195 12.1573C18.3465 12.4866 18.5838 12.799 18.647 12.8516C18.9521 13.1054 18.6188 13.8294 18.197 13.8294C17.9663 13.8294 17.8482 13.7061 17.0781 12.6599C16.8448 12.3431 16.7647 12.2848 16.6519 12.3497C16.2857 12.5603 16.2832 12.5659 16.4424 12.8143C16.5255 12.9441 16.6605 13.124 16.7425 13.2143C16.8244 13.3045 17.02 13.5722 17.177 13.8092C17.4503 14.2216 17.795 14.4856 18.06 14.4856C18.4807 14.4856 19.0073 13.9527 19.0073 13.5268C19.0073 13.4074 19.0233 13.4084 19.164 13.536C19.3115 13.6699 19.333 13.6701 19.532 13.5393C19.6483 13.463 19.7434 13.3849 19.7434 13.366C19.7434 13.3249 18.6599 11.8608 18.2304 11.3214C18.1665 11.2413 18.1002 11.2561 17.9278 11.3888ZM21.0149 11.4863C21.1535 11.6983 21.1032 11.8887 20.8243 12.2095C20.6474 12.4128 20.2624 12.3953 20.1467 12.1786C20.02 11.9411 20.1556 11.6604 20.4982 11.4509C20.8368 11.2438 20.8575 11.2452 21.0149 11.4863ZM51.9937 12.1937C51.0037 12.6852 50.8753 14.0317 51.7694 14.5458C52.6756 15.0668 53.7511 14.4387 53.8302 13.3423C53.8619 12.9027 53.8459 12.8502 53.5907 12.5589C53.1165 12.0171 52.5913 11.897 51.9937 12.1937ZM14.7751 12.6544C14.6739 12.7252 14.5911 12.8153 14.5911 12.8546C14.5911 12.8938 14.812 13.1569 15.082 13.4392L15.5728 13.9525L14.9392 14.5401L14.3056 15.1278L13.8219 14.6426C13.5559 14.3758 13.3166 14.1583 13.29 14.1593C13.2634 14.1603 13.1514 14.2308 13.0411 14.3158L12.8405 14.4704L13.3028 14.9907C13.5571 15.2768 14.1094 15.871 14.5302 16.3113L15.2953 17.1117L15.512 16.8848L15.7287 16.658L15.1774 16.0816L14.6262 15.5052L15.2661 14.9173L15.906 14.3293L16.4705 14.9201L17.035 15.5109L17.2541 15.2941L17.4731 15.0774L16.6262 14.1868C16.1604 13.697 15.6164 13.121 15.4174 12.9067C15.2183 12.6923 15.0338 12.519 15.0073 12.5213C14.9808 12.5237 14.8764 12.5836 14.7751 12.6544ZM53.0949 12.6843C53.3414 12.9146 53.3255 13.3066 53.0524 13.729C52.8179 14.0918 52.4339 14.3364 52.2179 14.2606C51.9539 14.168 51.72 13.8809 51.72 13.6495C51.72 13.3754 52.0288 12.8525 52.3039 12.6604C52.5691 12.4753 52.8812 12.4847 53.0949 12.6843ZM53.9077 14.4415C53.4241 14.9544 53.0285 15.4077 53.0285 15.4487C53.0285 15.4897 53.1144 15.6042 53.2194 15.7031L53.4104 15.883L54.0577 15.1798C54.6475 14.539 54.7265 14.4807 54.9462 14.5233C55.0787 14.549 55.2719 14.6257 55.3755 14.6938C55.7111 14.9143 55.6172 15.1563 54.9025 15.9135L54.2413 16.6142L54.4217 16.8683L54.6021 17.1225L55.3284 16.3577C55.7278 15.9371 56.0938 15.4744 56.1416 15.3295C56.312 14.8138 55.8164 14.2395 55.201 14.2395C55.0067 14.2395 54.9946 14.2225 55.0786 14.0652C55.1566 13.919 55.1406 13.8602 54.9792 13.6999L54.7868 13.509L53.9077 14.4415ZM9.87551 17.8586C9.64906 18.1464 9.39553 18.4924 9.3122 18.6277C9.22878 18.7631 9.05622 19.01 8.92881 19.1764C8.61247 19.5893 7.77936 21.0361 7.42631 21.7856C7.26692 22.124 7.03196 22.6082 6.90405 22.8617C6.62109 23.4229 5.92545 25.3297 5.63603 26.3379C5.38193 27.2226 4.97531 29.1559 4.81649 30.2339C4.42566 32.8865 4.48242 37.0436 4.93745 39.0924C4.98259 39.2954 5.0957 39.9271 5.18893 40.4962C5.28216 41.0652 5.44556 41.8837 5.55196 42.3148C5.78111 43.2428 6.56401 45.5264 6.91771 46.2984C7.0551 46.5982 7.25073 47.0314 7.35246 47.2611C7.57638 47.7667 8.7834 50.0258 8.86035 50.0834C8.89045 50.1059 9.01615 50.2998 9.13956 50.514C9.26297 50.7282 9.38048 50.9036 9.40068 50.9036C9.4208 50.9036 9.30606 50.673 9.14561 50.391C8.98523 50.1091 8.73245 49.62 8.58401 49.3042C8.4355 48.9884 8.18238 48.4492 8.02144 48.106C7.68531 47.3892 7.43604 46.7401 6.98526 45.4081C6.56916 44.1783 6.36822 43.361 6.12116 41.8932C6.00985 41.2324 5.90223 40.6364 5.88194 40.5688C5.86166 40.5011 5.80679 39.7293 5.76001 38.8535C5.58091 35.4993 5.88522 31.744 6.58486 28.6755C6.83527 27.577 7.5624 25.2563 7.88265 24.5334C7.96264 24.3529 8.1778 23.8505 8.36091 23.417C8.94958 22.0228 9.96498 20.2736 11.0237 18.8299L11.2965 18.4579L10.7919 17.8968L10.2873 17.3356L9.87551 17.8586ZM60.1091 19.1814C60.31 19.6438 60.525 20.1144 60.587 20.2272C60.649 20.34 60.8707 20.8752 61.0797 21.4165C61.2887 21.9579 61.5141 22.5192 61.5807 22.6639C61.6473 22.8086 61.88 23.4545 62.0977 24.0993C62.3155 24.7441 62.5303 25.3638 62.5752 25.4766C62.6201 25.5894 62.8279 26.3461 63.0371 27.1581C63.2462 27.9701 63.4515 28.7452 63.4932 28.8806C63.6135 29.27 63.8796 30.7526 64.038 31.9154C64.2323 33.3418 64.2321 36.339 64.0376 38.1081C63.6242 41.8671 62.694 45.1863 61.1988 48.2379C59.669 51.36 58.0862 53.5492 55.5927 55.9915C53.7066 57.8389 53.1806 58.27 51.4338 59.4C51.029 59.6618 50.6794 59.9 50.6569 59.9293C50.6344 59.9585 50.2848 60.18 49.8799 60.4217C49.4751 60.6632 49.1255 60.8843 49.103 60.9131C49.0805 60.9418 48.6941 61.1603 48.2443 61.3985C47.7945 61.6366 47.3897 61.8604 47.3447 61.8958C47.2997 61.9312 46.9133 62.1154 46.486 62.3051C46.0587 62.4949 45.5251 62.7346 45.3002 62.8378C44.9497 62.9985 43.7219 63.4047 42.2931 63.8327C40.9717 64.2285 38.5652 64.5603 36.0731 64.6901C33.3175 64.8337 30.122 64.6153 27.758 64.1217C26.5339 63.866 24.5216 63.2508 23.7315 62.8906C23.4496 62.7622 22.9063 62.5174 22.524 62.3468C22.1416 62.1763 21.792 62.0081 21.747 61.9732C21.702 61.9383 21.2604 61.6991 20.7656 61.4417C20.2709 61.1843 19.8476 60.9492 19.8252 60.9192C19.8027 60.8893 19.4346 60.6653 19.0073 60.4215C18.58 60.1776 18.212 59.9554 18.1895 59.9276C18.167 59.8997 17.9462 59.7544 17.6988 59.6047C15.7217 58.4084 13.094 55.9198 11.1099 53.3643C10.4636 52.5319 10.3278 52.3919 10.5858 52.8242C10.7929 53.1713 11.5754 54.3431 11.8228 54.6766C11.9064 54.7894 12.2746 55.2877 12.641 55.7839C14.0446 57.685 17.5037 60.7034 20.0296 62.2312C20.3445 62.4217 20.7677 62.6791 20.9701 62.8033C22.3969 63.6787 25.597 64.9644 27.4717 65.4154C28.0565 65.5562 28.6453 65.7048 28.7803 65.7459C29.4231 65.9414 31.627 66.2609 33.4009 66.4158C34.978 66.5534 38.4208 66.5549 39.3301 66.4183C40.3264 66.2687 41.9119 65.941 42.5605 65.7507C45.8297 64.7915 48.0961 63.8747 50.5342 62.5255C51.5277 61.9756 53.8132 60.429 54.2544 60.0081C54.3253 59.9404 54.5293 59.7749 54.7078 59.6402C55.6388 58.9375 58.718 55.6898 59.2582 54.8407C59.33 54.7279 59.4699 54.5434 59.5692 54.4306C59.7805 54.1905 61.1249 52.1661 61.1249 52.0879C61.1249 52.0586 61.24 51.8637 61.3807 51.6546C62.0653 50.6371 63.4763 47.4122 63.9699 45.7362C64.9299 42.4776 65.241 40.2221 65.2427 36.5087C65.2442 33.5411 64.9826 31.0754 64.4817 29.3317C64.3974 29.0385 64.1747 28.2449 63.9868 27.5682C63.7989 26.8915 63.5952 26.2271 63.5342 26.0918C63.4731 25.9565 63.2414 25.3474 63.0193 24.7384C62.7972 24.1294 62.556 23.5204 62.4834 23.385C62.4108 23.2497 62.1822 22.7514 61.9754 22.2777C61.7685 21.8041 61.5705 21.3796 61.5351 21.3345C61.4997 21.2894 61.2765 20.8834 61.0389 20.4322C60.8013 19.9811 60.5271 19.5013 60.4295 19.3659C60.332 19.2306 60.1525 18.9446 60.0308 18.7303C59.9091 18.5159 59.7947 18.3407 59.7768 18.3407C59.7588 18.3407 59.9083 18.719 60.1091 19.1814ZM65.3561 19.3454C65.4879 19.5822 65.7354 20.1082 65.9061 20.5143C66.0768 20.9203 66.2885 21.4142 66.3765 21.612C66.4645 21.8096 66.7113 22.4954 66.9249 23.1358C67.1385 23.7761 67.3353 24.3359 67.3623 24.3797C67.439 24.5042 67.9066 26.3981 68.1292 27.4862C68.6974 30.263 68.8489 32.1204 68.7892 35.5791C68.7402 38.4173 68.6165 39.8113 68.23 41.8811C67.9551 43.3539 67.4658 45.5152 67.348 45.7772C67.3075 45.8674 67.0907 46.5133 66.8662 47.2126C66.2179 49.2321 65.2154 51.468 64.1488 53.2738C63.925 53.6526 63.7419 53.9726 63.7419 53.9848C63.7419 54.0112 62.6694 55.5935 62.4097 55.9501C62.3103 56.0867 62.0826 56.4004 61.9036 56.6473C61.7248 56.8943 61.537 57.1332 61.4864 57.1783C61.4358 57.2234 61.1782 57.5372 60.914 57.8755C60.1191 58.8933 57.5012 61.4516 56.2724 62.4112C56.0401 62.5926 55.7893 62.7998 55.7151 62.8715C55.641 62.9433 55.3912 63.1311 55.1601 63.289C54.929 63.4469 54.64 63.6544 54.518 63.7502C53.7103 64.3841 50.4421 66.2828 48.8986 67.015C48.5837 67.1642 47.8109 67.5354 47.1811 67.8397C46.5514 68.144 45.9442 68.4316 45.8317 68.4786C45.3727 68.6709 45.9292 68.6203 46.8651 68.3847C49.2025 67.7963 52.0547 66.6423 53.9571 65.5153C54.3487 65.2833 54.6907 65.0935 54.7171 65.0935C54.7434 65.0935 54.9354 64.9701 55.1439 64.8194C55.3524 64.6686 55.5781 64.5256 55.6455 64.5015C55.7819 64.4529 57.8314 62.9924 58.0039 62.821C58.064 62.7613 58.248 62.612 58.4128 62.4893C59.6123 61.5961 62.2564 58.8943 63.0989 57.7009C63.2381 57.5037 63.3952 57.3055 63.448 57.2603C63.5008 57.2152 63.7324 56.8943 63.9626 56.5472C64.1927 56.2 64.4728 55.7939 64.585 55.6449C64.6972 55.4958 64.8893 55.1893 65.0118 54.9637C65.1344 54.7382 65.3148 54.4429 65.4127 54.3075C65.5107 54.1722 65.7504 53.7477 65.9454 53.3643C66.1404 52.9808 66.328 52.6302 66.3621 52.5851C66.3963 52.54 66.5791 52.1524 66.7683 51.7238C66.9575 51.2953 67.2138 50.7232 67.3379 50.4525C67.5856 49.9117 68.3352 47.808 68.5799 46.9665C68.7984 46.2153 69.282 44.1253 69.4624 43.1525C69.8862 40.8675 70.0917 37.4677 69.9609 34.9046C69.813 32.0042 69.5446 30.3012 68.7403 27.1581C68.5563 26.4393 67.5916 23.6587 67.3802 23.2381C67.3075 23.0934 67.1219 22.6708 66.9678 22.2991C66.5293 21.2415 65.2807 18.9148 65.1515 18.9148C65.1323 18.9148 65.2244 19.1086 65.3561 19.3454ZM27.6762 25.3072V26.5429H27.9215H28.1669V26.0508V25.5586H28.6985H29.2301V26.0508V26.5429H29.5163H29.8025V25.3126V24.0822H29.5163H29.2301V24.6154V25.1485H28.7024H28.1747L28.1504 24.6359C28.127 24.1446 28.1167 24.1222 27.9011 24.0973L27.6762 24.0713V25.3072ZM30.5113 24.1369C30.4313 24.2172 30.4485 25.4651 30.5348 25.8381C30.6895 26.5071 31.3877 26.8124 32.046 26.499C32.5374 26.2652 32.6089 26.0824 32.617 25.0399L32.624 24.1233L32.3582 24.0976L32.0924 24.0718V24.9666C32.0924 25.9659 32.0147 26.1328 31.5495 26.1328C31.0637 26.1328 30.9948 25.9994 30.9604 24.9923C30.9305 24.1159 30.9227 24.0822 30.7476 24.0822C30.6477 24.0822 30.5413 24.1068 30.5113 24.1369ZM33.8069 24.4581C33.7186 24.6649 33.6463 24.846 33.6463 24.8606C33.6463 24.8753 33.4807 25.2428 33.2782 25.6772C33.0758 26.1117 32.9102 26.4842 32.9102 26.505C32.9102 26.5259 33.0197 26.5429 33.1534 26.5429C33.3411 26.5429 33.4258 26.4866 33.5236 26.2968C33.6455 26.0603 33.6718 26.0508 34.2029 26.0508C34.7417 26.0508 34.7577 26.0569 34.848 26.2968C34.9233 26.4971 34.9877 26.5429 35.193 26.5429C35.3319 26.5429 35.4455 26.5071 35.4455 26.4634C35.4455 26.4196 35.3402 26.1705 35.2116 25.9097C35.0829 25.649 34.8529 25.1316 34.7004 24.76C34.4472 24.1429 34.4035 24.0843 34.1953 24.0833C34.0023 24.0824 33.9431 24.1395 33.8069 24.4581ZM35.3637 24.1408C35.3637 24.173 35.5381 24.7283 35.7512 25.3748L36.1388 26.5504L36.3811 26.5262C36.6093 26.5033 36.6386 26.4566 36.8858 25.7227L37.1482 24.9435L37.2546 25.2306C37.3132 25.3884 37.4361 25.7391 37.5278 26.0098C37.6779 26.4528 37.719 26.5043 37.9407 26.5262L38.1869 26.5504L38.5745 25.3748C38.7876 24.7283 38.9621 24.173 38.9621 24.1408C38.9621 24.1086 38.8603 24.0822 38.736 24.0822C38.5221 24.0822 38.4943 24.1283 38.2189 24.9386L37.9279 25.795L37.652 24.9386C37.394 24.1379 37.362 24.0822 37.1603 24.0822C36.9584 24.0822 36.9299 24.1323 36.7144 24.8642C36.5878 25.2943 36.4584 25.6621 36.4269 25.6816C36.3955 25.7011 36.2496 25.3492 36.1028 24.8997C35.8466 24.115 35.8264 24.0822 35.5998 24.0822C35.4699 24.0822 35.3637 24.1086 35.3637 24.1408ZM39.4528 25.3126V26.5429H40.3933H41.3337V26.3379C41.3337 26.1344 41.3283 26.1328 40.5977 26.1328H39.8617V25.8047V25.4766H40.3524C40.8212 25.4766 40.8431 25.4675 40.8431 25.2716C40.8431 25.0756 40.8212 25.0665 40.3524 25.0665H39.8617V24.8204V24.5744H40.5568H41.252V24.3283V24.0822H40.3524H39.4528V25.3126ZM41.9062 25.3126V26.5429H42.1516H42.3969V25.3126V24.0822H42.1516H41.9062V25.3126ZM34.329 25.046C34.3919 25.1701 34.4689 25.3547 34.5001 25.4561C34.5532 25.6289 34.533 25.6407 34.1833 25.6407C33.9779 25.6407 33.8098 25.6252 33.8098 25.6065C33.8098 25.5248 34.1352 24.8204 34.1729 24.8204C34.1958 24.8204 34.266 24.922 34.329 25.046ZM11.3199 28.8395V29.1676H35.0366H58.7533V28.8395V28.5115H35.0366H11.3199V28.8395ZM31.6748 31.5003C31.6551 31.5201 31.3773 31.591 31.0576 31.6578C29.2503 32.0358 27.7168 33.2403 26.9806 34.8599C26.4946 35.9292 26.3288 36.7631 26.3344 38.1081C26.3389 39.1591 26.366 39.3881 26.5672 40.0766C26.8856 41.1657 27.2714 41.8651 27.9139 42.5184C28.5981 43.2142 28.9333 43.4508 29.6667 43.7561C30.6032 44.1459 31.3463 44.282 32.7467 44.3205C34.1013 44.3576 34.646 44.2847 35.977 43.8879C36.9975 43.5836 36.9752 43.6221 36.6751 42.6826L36.4221 41.8903L35.8724 42.1008C34.9115 42.4688 34.5302 42.5458 33.4418 42.5919C32.1704 42.6457 31.5698 42.5313 30.7803 42.085C30.1471 41.7271 29.9664 41.5677 29.5339 40.9849C29.0151 40.2859 28.8027 39.5185 28.7605 38.1901C28.7066 36.4991 28.9607 35.5552 29.7337 34.5745C30.1617 34.0314 31.0036 33.4915 31.6887 33.3206C32.5829 33.0977 34.3003 33.1925 34.9957 33.5033C35.0856 33.5435 35.3864 33.6694 35.6641 33.7829L36.169 33.9892L36.2521 33.7725C36.4574 33.2367 36.7565 32.3421 36.7358 32.3253C36.5198 32.1492 35.5541 31.8307 34.6315 31.6313C34.0751 31.5111 33.5573 31.4643 32.7845 31.4643C32.194 31.4643 31.6946 31.4805 31.6748 31.5003ZM13.6097 37.9851V44.3418H14.7138H15.8179V41.471V38.6002H18.8847H21.9515V41.471V44.3418H23.0555H24.1596V38.2414C24.1596 34.8862 24.1366 32.0256 24.1085 31.8846L24.0574 31.6283H23.0044H21.9515V34.256V36.8837L18.8847 36.8737L15.8179 36.8638V34.2461V31.6283H14.7138H13.6097V37.9851ZM39.2892 37.9851V44.3418H40.4341H41.5791V37.9851V31.6283H40.4341H39.2892V37.9851ZM48.1183 32.141C48.0155 32.4229 47.9029 32.6915 47.8681 32.7378C47.8333 32.7842 47.6041 33.3378 47.3589 33.9682C46.7766 35.4647 45.034 39.8247 44.9336 40.0356C44.8908 40.1258 44.6686 40.6795 44.44 41.266C44.2114 41.8524 43.9697 42.4514 43.9028 42.5971C43.8359 42.7428 43.7313 43.0011 43.6704 43.1713C43.6095 43.3414 43.4826 43.6743 43.3883 43.9112L43.2171 44.3418H44.3517H45.4862L45.895 43.296C46.1199 42.7208 46.4093 41.9458 46.5381 41.5738L46.7722 40.8973L49.3892 40.8976L52.0063 40.8978L52.4033 41.9431C52.6217 42.518 52.9148 43.2929 53.0546 43.6651L53.309 44.3418H54.5181C55.6669 44.3418 55.8193 44.3138 55.658 44.1326C55.6199 44.0898 55.3948 43.5583 55.1578 42.9516C54.9209 42.3449 54.6948 41.7912 54.6553 41.7213C54.616 41.6513 54.384 41.0958 54.1399 40.4867C53.8957 39.8777 53.5258 38.955 53.3177 38.4362C53.1097 37.9174 52.8488 37.3009 52.738 37.0662C52.6272 36.8314 52.4305 36.3516 52.3008 35.9999C52.1711 35.6482 51.9725 35.1573 51.8595 34.9092C51.7464 34.6611 51.5083 34.089 51.3303 33.6379C51.1525 33.1867 50.9273 32.6424 50.83 32.4283C50.7327 32.2141 50.618 31.9466 50.5752 31.8336C50.4975 31.6286 50.4955 31.6283 49.4013 31.6283H48.3052L48.1183 32.141ZM49.5875 34.5992C49.5909 34.6768 49.6801 34.9352 49.7856 35.1733C49.9759 35.6026 50.1726 36.1118 50.499 37.0213C50.5922 37.2807 50.7197 37.6037 50.7825 37.739C50.8979 37.9879 51.3111 39.0856 51.3111 39.1431C51.3111 39.1604 50.4463 39.1744 49.3892 39.1744C48.3322 39.1744 47.4674 39.1573 47.4674 39.1364C47.4674 39.0851 47.7793 38.2722 47.8777 38.0671C47.9961 37.8202 48.7629 35.7226 49.0901 34.7505L49.3782 33.8946L49.4798 34.1763C49.5356 34.3313 49.5841 34.5216 49.5875 34.5992ZM11.3199 47.5407V47.8688H35.0366H58.7533V47.5407V47.2126H35.0366H11.3199V47.5407ZM3.71416 50.7602C3.71416 50.7917 3.81957 51.0491 3.94838 51.3322C4.07719 51.6152 4.30307 52.1237 4.45028 52.462C4.75663 53.1662 5.75592 55.0503 6.08166 55.5379C6.2022 55.7183 6.39971 56.0387 6.5205 56.2498C6.64137 56.4609 6.78621 56.6828 6.84239 56.743C6.89857 56.8032 7.07121 57.0365 7.22603 57.2614C8.59718 59.2537 11.0918 61.858 13.0886 63.382C13.3978 63.6179 13.669 63.834 13.6915 63.8623C13.7472 63.9323 15.0237 64.7928 15.8437 65.3132C17.0685 66.0903 18.4483 66.7995 19.6616 67.2754C20.1789 67.4783 20.6627 67.6773 20.7368 67.7177C21.2222 67.9822 24.1052 68.7024 24.2195 68.5877C24.2444 68.5627 24.2135 68.5245 24.1508 68.5027C23.547 68.2925 22.2203 67.7714 22.1559 67.7191C22.111 67.6825 21.8375 67.5565 21.5483 67.4391C20.9784 67.2077 18.8515 66.0781 18.0794 65.5966C17.0951 64.9829 15.5986 63.9724 15.1767 63.6366C14.9365 63.4454 14.7157 63.2888 14.686 63.2886C14.6563 63.2884 14.5216 63.1855 14.3867 63.0599C14.2517 62.9344 13.9632 62.6961 13.7454 62.5305C11.801 61.0513 8.56913 57.8305 7.13173 55.9392C6.4316 55.0181 5.91319 54.2977 5.61419 53.8304C5.44629 53.568 5.1397 53.0882 4.93287 52.7641C4.72596 52.44 4.42803 51.9309 4.2706 51.6325C3.97202 51.0664 3.71416 50.6623 3.71416 50.7602ZM32.8704 52.7591C32.8024 52.9225 32.7467 53.0823 32.7467 53.1141C32.7467 53.1783 32.392 54.0855 32.2146 54.4748C32.1522 54.6119 31.9363 55.1656 31.7349 55.7051C31.5334 56.2447 31.311 56.7969 31.2406 56.9323L31.1125 57.1783L31.5729 57.2033C31.826 57.217 32.0782 57.2109 32.1331 57.1897C32.1881 57.1686 32.3187 56.9082 32.4232 56.6111L32.6134 56.071H33.4851H34.3567L34.5517 56.6452L34.7466 57.2193H35.2992H35.852L35.6807 56.7887C35.5865 56.5518 35.4578 56.2137 35.3946 56.0371C35.3314 55.8606 35.2488 55.676 35.211 55.627C35.1732 55.578 34.9475 55.0211 34.7094 54.3896C34.4714 53.758 34.25 53.2043 34.2174 53.1592C34.1849 53.1141 34.1138 52.9388 34.0595 52.7696L33.9607 52.462H33.4775C32.9994 52.462 32.9929 52.4652 32.8704 52.7591ZM36.3451 54.8407V57.2193H36.8358H37.3264V54.8407V52.462H36.8358H36.3451V54.8407ZM33.7259 54.4306C33.8293 54.7238 33.9312 55.0099 33.9524 55.0662C33.9808 55.1418 33.8491 55.1688 33.4518 55.1688H32.9126L33.0879 54.7382C33.1843 54.5013 33.3027 54.1889 33.3512 54.0438C33.4581 53.7233 33.4872 53.7533 33.7259 54.4306Z" fill="white"/>
</svg>
