<svg width="70" height="70" viewBox="0 0 70 70" fill="none" xmlns="http://www.w3.org/2000/svg">
<path d="M31.9371 14.0524C32.1813 13.4095 32.6839 12.9199 33.2445 12.7787C34.0564 12.5743 34.6585 12.1146 34.7504 13.6995V15.2845C34.7504 17.1099 34.7584 16.2166 34.7504 17.886C34.7373 20.6221 34.6738 20.7921 34.0463 19.7709C33.782 19.3409 33.4437 18.8104 33.2943 18.5922C32.9097 18.0299 32.1059 16.2113 31.8806 15.3937C31.7137 14.7882 31.7208 14.6222 31.9371 14.0524Z" fill="white"/>
<path d="M29.054 16.1667C29.1781 15.8131 29.444 15.307 29.6452 15.042C29.8461 14.7769 30.034 14.5601 30.0627 14.5601C30.1312 14.5601 31.3671 16.298 32.0382 17.3375C32.9355 18.7278 34.0734 20.9494 33.8882 20.9494C33.5232 20.9494 30.4885 19.0856 29.6934 18.373C29.4674 18.1705 29.1804 17.7358 29.0555 17.4071C28.8496 16.8649 28.8495 16.75 29.054 16.1667Z" fill="white"/>
<path d="M38.2802 17.2465C38.7318 16.6076 39.3105 15.7756 39.5659 15.3976C39.8215 15.0197 40.098 14.7093 40.1805 14.7079C40.4448 14.7032 41.2578 16.219 41.2578 16.7162C41.2578 17.8556 40.2317 18.8415 37.4606 20.3646C36.8412 20.705 36.3077 20.9565 36.2748 20.9235C36.1563 20.8043 37.4772 18.3822 38.2802 17.2465Z" fill="white"/>
<path d="M35.4643 19.7151C35.3398 18.3142 35.335 16.1901 35.4257 15.5109C35.5605 14.3788 35.6445 12.3765 36.0116 12.5674C36.9136 12.5674 37.9966 13.1702 38.2802 13.6079C38.6352 14.3023 37.6482 16.7956 37.6482 16.8657C37.6482 17.1565 37.1577 18.1346 36.3811 19.3927L35.5546 20.7316L35.4643 19.7151Z" fill="white"/>
<path d="M28.8441 21.0025C28.1543 20.4186 27.7462 19.3804 27.9247 18.6623C27.9693 18.4825 28.0386 18.3356 28.0786 18.3356C28.2124 18.3356 32.0172 20.5046 32.8529 21.0574L33.6776 21.6028L32.0503 21.6439C30.2132 21.6903 29.4846 21.5446 28.8441 21.0025Z" fill="white"/>
<path d="M37.3233 21.0361C38.3874 20.3852 40.5311 19.1459 41.3288 18.7202C41.7253 18.5087 42.0988 18.3356 42.159 18.3356C42.3726 18.3356 42.2581 19.579 41.9898 20.1731C41.7958 20.6029 41.5165 20.8951 41.0184 21.1896C40.3664 21.575 40.1954 21.6063 38.4784 21.6537C37.466 21.6817 36.6375 21.6486 36.6375 21.58C36.6375 21.5115 36.9461 21.2668 37.3233 21.0361Z" fill="white"/>
<path d="M29.2739 22.2267C29.2739 22.1689 29.9074 22.1002 30.6817 22.0742C31.456 22.0481 32.398 22.0129 32.7753 21.9962C33.1525 21.9795 33.4606 22.015 33.4601 22.0748C33.4588 22.2177 32.7065 22.7233 31.7843 23.2012C31.0888 23.5616 31.0169 23.5715 30.5418 23.3718C30.066 23.1719 29.2739 22.4565 29.2739 22.2267Z" fill="white"/>
<path d="M38.2979 23.147C37.8215 22.8977 37.2367 22.5325 36.9985 22.3356L36.5653 21.9776L38.6589 22.0646C39.8103 22.1124 40.7806 22.1761 40.815 22.2062C40.9638 22.3368 40.2459 23.0781 39.7291 23.3277L39.1642 23.6005L38.2979 23.147Z" fill="white"/>
<path fill-rule="evenodd" clip-rule="evenodd" d="M30.8447 1.00805C26.6742 1.45936 22.9437 2.52791 19.3013 4.31421C17.5927 5.15225 15.1875 6.56477 14.5932 7.07947C14.5188 7.14384 14.2929 7.30964 14.0913 7.44777C12.1822 8.75576 9.45407 11.3601 7.57668 13.6667C6.76808 14.6602 5.30425 16.7158 5.30425 16.8578C5.30425 16.9034 5.2332 17.0198 5.14643 17.1167C5.00133 17.2786 3.74282 19.4476 3.74282 19.5357C3.74282 19.5569 3.56337 19.9396 3.34399 20.3861C3.12472 20.8327 2.77083 21.6247 2.55781 22.1463C2.34467 22.6679 2.12518 23.1951 2.06997 23.3179C2.01476 23.4406 1.81568 24.0431 1.62753 24.6568C1.43949 25.2704 1.21487 25.9984 1.12832 26.2746C0.901913 26.9977 0.451553 29.3322 0.213547 31.0165C-0.0902619 33.1664 -0.0660598 37.7393 0.261617 40.1098C0.520814 41.9856 0.875369 43.8879 1.11416 44.6843C1.19691 44.9605 1.35094 45.4876 1.45633 45.8558C1.74252 46.8553 1.95041 47.4905 2.11347 47.8642C2.19377 48.0483 2.42654 48.6126 2.63064 49.1182C3.04051 50.1336 3.20736 50.3048 2.86362 49.3573C2.30764 47.8246 1.70817 44.885 1.34558 41.9126C1.11349 40.0102 1.11572 34.8545 1.34926 33.1567C2.06384 27.9622 3.46355 23.8631 5.94666 19.6917C6.94397 18.0163 7.56843 17.1361 9.23625 15.0539C9.95931 14.1513 12.7554 11.4042 13.7806 10.5894C16.4489 8.46834 19.4917 6.63607 22.1049 5.57667C22.6485 5.35631 23.1937 5.1306 23.3164 5.07515C24.0458 4.74533 27.1047 3.84872 28.3911 3.58753C32.9852 2.65477 37.0717 2.58448 41.6074 3.36014C43.7263 3.72242 46.3667 4.44074 47.7416 5.02896C47.9256 5.10762 48.5174 5.35174 49.0565 5.57143C50.2009 6.03748 52.1305 7.00616 53.1167 7.60956C53.4967 7.84196 54.0488 8.17881 54.3435 8.35811C55.179 8.86599 57.2358 10.4296 58.2812 11.3514C59.9353 12.81 60.2076 13.0851 61.8984 15.0056C62.1692 15.3131 63.351 16.8045 63.6691 17.24C64.0449 17.7547 63.3918 16.642 62.8158 15.7866C62.2997 15.02 61.828 14.4061 60.5513 12.8395C59.4254 11.4579 56.8745 9.05935 55.1893 7.79767C54.7123 7.44052 54.3052 7.1087 54.2848 7.06028C54.2642 7.01185 54.2066 6.97224 54.1565 6.97224C54.0778 6.97224 53.0803 6.35245 52.7605 6.10475C52.2196 5.68579 48.8385 3.94044 47.7416 3.514C47.3736 3.37085 47.0222 3.21889 46.9609 3.17616C46.729 3.0146 43.3477 1.96312 42.3324 1.73674C38.5673 0.897364 34.3434 0.629475 30.8447 1.00805ZM31.5697 6.23719C30.12 6.88176 30.2556 9.25606 31.7633 9.62871C32.3388 9.77097 33.5255 9.57003 33.5198 9.33126C33.5129 9.04228 33.3247 8.99877 32.8383 9.17371C32.3981 9.33204 32.2801 9.33639 31.9643 9.20551C31.7634 9.12228 31.5048 8.89958 31.3896 8.71057C31.1585 8.33133 31.1057 7.42981 31.2942 7.07768C31.4839 6.72299 32.0515 6.49471 32.592 6.55563C33.0006 6.60171 33.0753 6.57961 33.0753 6.41259C33.0753 6.30403 32.9959 6.18464 32.8989 6.14738C32.6033 6.03391 31.9235 6.07987 31.5697 6.23719ZM40.6223 6.48879C40.481 6.63005 40.5486 6.94859 40.735 7.02022C40.9719 7.11115 41.2696 6.82374 41.18 6.59044C41.1122 6.4137 40.7612 6.34966 40.6223 6.48879ZM38.5986 6.84929C38.5557 7.04443 38.4372 7.1964 38.2997 7.23232C38.0594 7.29514 38.1133 7.53011 38.3679 7.53011C38.4829 7.53011 38.4947 7.6254 38.4198 7.94852C38.3663 8.1787 38.3214 8.62767 38.3199 8.94633C38.3168 9.63128 38.5554 9.87317 39.2344 9.87317C39.5812 9.87317 39.6556 9.83379 39.6556 9.65002C39.6556 9.47597 39.5812 9.42688 39.3176 9.42688C38.8845 9.42688 38.8212 9.25081 38.944 8.3879C39.0399 7.7141 39.0503 7.6977 39.3768 7.7064C39.6829 7.71444 39.8727 7.59661 39.877 7.39567C39.8779 7.35249 39.7053 7.28454 39.4935 7.24482C39.1386 7.17821 39.1133 7.14697 39.1728 6.84918C39.2305 6.56031 39.2072 6.52595 38.9534 6.52595C38.7309 6.52595 38.6542 6.59579 38.5986 6.84929ZM27.6838 6.79897C27.5767 7.07824 27.7287 7.32181 27.987 7.28499C28.1562 7.26077 28.2238 7.17152 28.2238 6.97224C28.2238 6.64712 27.7948 6.50955 27.6838 6.79897ZM42.2338 6.9593C42.104 7.08917 41.9978 7.29581 41.9978 7.41854C41.9978 7.56314 41.9234 7.64169 41.7867 7.64169C41.5192 7.64169 41.396 7.9406 41.6133 8.06232C41.7552 8.14177 41.7458 8.27298 41.543 9.0415C41.2338 10.2127 41.2338 10.2179 41.5208 10.3272C41.7405 10.4108 41.7815 10.3746 41.8822 10.008C42.3959 8.13708 42.3182 8.29618 42.7012 8.33323C43.1529 8.37674 43.2693 8.03979 42.8398 7.93201C42.5168 7.85089 42.4581 7.52677 42.7261 7.30418C42.8542 7.19785 42.9629 7.19283 43.1628 7.28387C43.379 7.38239 43.4419 7.37157 43.4978 7.22585C43.5942 6.97436 43.4343 6.85264 42.9165 6.78313C42.5594 6.73526 42.4224 6.77063 42.2338 6.9593ZM34.0122 7.24002C33.6725 7.57988 33.633 7.68353 33.633 8.2356C33.633 8.73579 33.6874 8.91654 33.9217 9.19514C34.1924 9.51703 34.2582 9.53845 34.9747 9.53845C35.7554 9.53845 35.9145 9.46626 35.7987 9.16434C35.7479 9.03202 35.6704 9.01718 35.4565 9.09851C35.0145 9.26666 34.7573 9.22292 34.4645 8.92981C33.9643 8.42963 34.0827 8.31113 35.0829 8.31113C36.0721 8.31113 36.1047 8.27945 35.8197 7.59695C35.4767 6.77587 34.6411 6.61086 34.0122 7.24002ZM36.4861 7.22329C36.4581 7.3613 36.4102 7.9387 36.3797 8.50639L36.3242 9.53845H36.6516H36.9789V8.71894C36.9789 7.81307 37.1489 7.52253 37.6973 7.49084C37.8542 7.4818 37.9826 7.44074 37.9826 7.3998C37.9827 7.35874 38.0131 7.24582 38.0504 7.14875C38.1551 6.87573 37.6567 6.92527 37.3443 7.21893L37.0819 7.46551L37.0174 7.21893C36.9314 6.89001 36.5531 6.89314 36.4861 7.22329ZM43.8567 7.26981C43.7255 7.40091 43.7771 7.72738 43.9387 7.78941C44.1708 7.87856 44.5005 7.59583 44.4173 7.37893C44.3472 7.19617 43.9981 7.12822 43.8567 7.26981ZM35.1721 7.44085C35.4571 7.72593 35.3183 7.86484 34.7483 7.86484C34.1642 7.86484 34.0739 7.77446 34.3659 7.48225C34.5739 7.27416 34.9844 7.25308 35.1721 7.44085ZM40.3439 7.83125C40.2866 8.06456 40.1813 8.60681 40.1098 9.03637C40.0384 9.46593 39.9697 9.86759 39.9572 9.92896C39.9447 9.99033 40.069 10.056 40.2334 10.0751C40.5123 10.1074 40.5373 10.0738 40.6083 9.57304C40.6502 9.27781 40.7566 8.71671 40.8447 8.32586C40.9329 7.93513 40.99 7.60253 40.9716 7.58668C40.9533 7.57084 40.8279 7.52398 40.6931 7.48247C40.4801 7.41709 40.4343 7.46272 40.3439 7.83125ZM28.0239 7.71946C27.8974 7.75237 27.8457 7.83973 27.8829 7.95755C27.9153 8.05998 27.9872 8.36971 28.0428 8.64586C28.371 10.2773 28.4575 10.4506 28.8268 10.2167C28.9595 10.1326 28.9616 10.0084 28.8404 9.40947C28.6592 8.51375 28.3867 7.63778 28.2946 7.65463C28.2557 7.66177 28.1339 7.69089 28.0239 7.71946ZM25.7361 8.47727C25.3476 8.8044 25.2546 9.16836 25.4066 9.76751C25.5814 10.456 25.9673 10.7659 26.6496 10.7653C27.3574 10.7649 28.0446 10.4068 27.8314 10.1498C27.7153 10.0097 27.6673 10.0103 27.462 10.1541C27.3323 10.2451 27.0195 10.3195 26.767 10.3195C26.3832 10.3195 26.2866 10.2728 26.1784 10.0353C26.1071 9.87897 26.0489 9.73582 26.0489 9.71708C26.0489 9.69845 26.3877 9.59368 26.8018 9.48434C27.2158 9.37488 27.5969 9.24735 27.6486 9.20072C27.7494 9.10989 27.4436 8.5663 27.1658 8.3426C26.8624 8.09836 26.101 8.1701 25.7361 8.47727ZM43.6365 8.28324C43.5431 8.44804 43.1183 9.82654 43.0156 10.2979C42.9123 10.7718 42.9149 10.778 43.1985 10.7442C43.5036 10.7079 43.5014 10.7125 43.9567 9.11134C44.1292 8.50449 44.135 8.39102 43.9977 8.3041C43.8015 8.17981 43.6984 8.1739 43.6365 8.28324ZM26.8805 8.78432C27.0488 9.02454 27.0414 9.03938 26.6917 9.16635C26.1071 9.37834 25.9374 9.35034 25.9374 9.04195C25.9374 8.54209 26.5867 8.36469 26.8805 8.78432ZM24.4492 8.72474C24.3005 8.76312 24.2618 8.84424 24.3093 9.01863C24.3453 9.15118 24.4038 9.61097 24.4393 10.0405L24.5039 10.8216L23.8504 10.1114C23.3857 9.6064 23.1336 9.41382 22.9778 9.44484C22.7783 9.48445 22.762 9.56779 22.7945 10.378C22.814 10.8674 22.8568 11.3683 22.8894 11.491C22.9309 11.6469 22.8528 11.5999 22.6307 11.3356C21.6199 10.1324 21.5315 10.0588 21.265 10.2015C21.0153 10.3352 21.0174 10.3406 21.5516 10.9187C21.8475 11.2392 22.2484 11.6873 22.4426 11.9145C22.8019 12.3354 22.9721 12.4012 23.2484 12.2262C23.3698 12.1493 23.3862 11.9544 23.3241 11.3239C23.2805 10.8817 23.2179 10.4496 23.185 10.3639C23.0559 10.0269 23.3435 10.2559 23.9052 10.9367C24.4596 11.6089 24.5104 11.6432 24.7755 11.5224C25.0513 11.3966 25.0555 11.3761 24.9909 10.4942C24.8951 9.18554 24.8186 8.64418 24.7316 8.6588C24.6894 8.66594 24.5623 8.69562 24.4492 8.72474ZM44.9089 9.00044C43.7211 9.81236 43.9404 11.3673 45.2636 11.5164C45.6999 11.5656 45.7898 11.5448 45.7898 11.3939C45.7898 11.279 45.6962 11.2121 45.5359 11.2121C45.0692 11.2121 44.786 10.9107 44.786 10.4141C44.786 9.5235 45.4199 9.06761 46.0676 9.49226C46.3274 9.66252 46.5705 9.63139 46.5705 9.42788C46.5705 9.27324 45.9506 8.87325 45.604 8.80418C45.3807 8.75977 45.1767 8.81735 44.9089 9.00044ZM47.0167 9.81303C47.0167 9.9081 47.1974 10.0248 47.4498 10.0929C47.9871 10.2376 48.1781 10.4548 48.0871 10.8175L48.0174 11.0954L47.6565 10.8752C47.2527 10.629 46.6061 10.5906 46.339 10.7972C46.1021 10.9802 46.0055 11.4013 46.127 11.7207C46.2539 12.0548 46.8226 12.3528 47.1678 12.2661C47.3729 12.2147 47.446 12.2518 47.4929 12.4311C47.6045 12.8582 47.8716 12.6683 48.2821 11.87C48.7564 10.9476 48.8 10.4618 48.4387 10.1232C47.9708 9.68472 47.0167 9.47664 47.0167 9.81303ZM49.9118 10.5513C49.8436 10.6787 49.72 10.7571 49.6372 10.7253C49.4221 10.6427 49.2177 10.9147 49.3759 11.0729C49.4659 11.163 49.4013 11.3554 49.1363 11.7862C48.505 12.8126 48.5825 13.4135 49.3715 13.6105C49.7703 13.7101 49.8889 13.4061 49.5173 13.2367C49.1869 13.0861 49.1812 12.9524 49.4809 12.3819C49.9859 11.4206 50.0102 11.3979 50.3176 11.5994C50.4685 11.6983 50.6407 11.7491 50.7003 11.7123C50.8964 11.591 50.8136 11.3617 50.5265 11.2308C50.2563 11.1076 50.2514 11.0887 50.4105 10.7808C50.502 10.604 50.5453 10.4279 50.5068 10.3894C50.3582 10.2408 50.0302 10.3301 49.9118 10.5513ZM19.6887 11.0621C19.0996 11.4569 18.9074 11.687 19.0368 11.8429C19.1366 11.9633 19.2234 11.9377 19.4971 11.7073C19.7332 11.5085 19.9382 11.4335 20.1803 11.4572C20.658 11.5038 20.6656 11.7741 20.1976 12.0756C19.6089 12.455 19.4115 12.8133 19.5745 13.2066C19.7654 13.6678 20.1596 13.8188 20.6439 13.6164C20.8559 13.5277 21.0877 13.3274 21.1589 13.1713C21.2495 12.972 21.3272 12.9198 21.4192 12.9962C21.5063 13.0685 21.6187 13.0549 21.7542 12.9559C21.9475 12.8145 21.9359 12.7692 21.5326 12.0931C21.2985 11.7005 21.0056 11.2665 20.8817 11.1284C20.6109 10.8265 20.0839 10.7972 19.6887 11.0621ZM51.8295 11.0165C51.629 11.2171 51.6781 11.5245 51.923 11.6022C52.2074 11.6925 52.3701 11.5902 52.3701 11.321C52.3701 11.0447 52.0062 10.8397 51.8295 11.0165ZM47.6224 11.2484C47.7638 11.3519 47.8015 11.4695 47.7477 11.6389C47.6862 11.8331 47.5843 11.8815 47.2377 11.8815C46.7471 11.8815 46.5163 11.6335 46.6954 11.2986C46.8215 11.063 47.3313 11.0354 47.6224 11.2484ZM50.6511 12.8611C50.1161 13.6734 49.9666 13.9819 50.0557 14.0899C50.1212 14.1692 50.2406 14.2194 50.321 14.2015C50.5299 14.1547 51.8042 12.213 51.7385 12.0416C51.5814 11.632 51.3417 11.8127 50.6511 12.8611ZM17.8731 12.2645C17.6842 12.4078 17.7074 12.4666 18.2429 13.2008C18.8119 13.981 18.8135 13.9854 18.6366 14.3274C18.334 14.913 17.999 14.8014 17.3379 13.8951C16.832 13.2014 16.7495 13.1334 16.5589 13.2524C16.4417 13.3257 16.3458 13.4169 16.3458 13.4552C16.3458 13.6328 17.5098 15.0781 17.759 15.21C18.1502 15.417 18.6202 15.2064 18.8504 14.7211C18.9699 14.4692 19.0832 14.3665 19.1943 14.4091C19.2854 14.444 19.4332 14.4119 19.5225 14.3377C19.6897 14.1989 19.599 14.0399 18.4897 12.5272C18.145 12.057 18.1461 12.0575 17.8731 12.2645ZM21.0111 12.2999C21.1271 12.5255 21.0716 12.7487 20.831 13.0251C20.6068 13.2825 20.2855 13.2733 20.1422 13.0053C19.9898 12.7205 20.0984 12.4684 20.4578 12.2731C20.8407 12.0649 20.8915 12.0674 21.0111 12.2999ZM51.8609 13.1578C51.6728 13.3062 51.4268 13.632 51.3141 13.8818C51.1155 14.3225 51.1155 14.3498 51.314 14.7901C51.5688 15.3551 52.0198 15.6099 52.6223 15.5291C53.1399 15.4596 53.4942 15.1583 53.7652 14.5571C53.9337 14.1834 53.9414 14.0714 53.8188 13.7754C53.4774 12.9507 52.5102 12.6457 51.8609 13.1578ZM14.7557 13.5252C14.5847 13.7142 14.6009 13.7567 15.0134 14.2037C15.2554 14.466 15.4535 14.725 15.4535 14.7794C15.4535 14.8338 15.19 15.1303 14.868 15.4386L14.2825 15.9989L13.7526 15.4784C13.2605 14.9951 13.2096 14.9711 13.039 15.1418C12.8684 15.3125 12.8877 15.364 13.3095 15.8629C13.5593 16.1585 14.1095 16.741 14.5319 17.1575C15.2679 17.883 15.3079 17.9061 15.4859 17.7092C15.6616 17.515 15.6425 17.4732 15.1296 16.9353L14.5875 16.3667L15.1634 15.7978C15.4802 15.4848 15.7928 15.2287 15.8582 15.2287C15.9234 15.2287 16.1824 15.4547 16.4337 15.7308C16.9313 16.2779 17.0284 16.3181 17.2392 16.0641C17.3865 15.8866 17.1964 15.6487 15.5653 13.9693C14.9685 13.3547 14.9292 13.3333 14.7557 13.5252ZM53.126 13.5057C53.2635 13.602 53.3739 13.797 53.3739 13.9434C53.3739 14.1788 52.952 14.8139 52.6507 15.0318C52.4161 15.2015 52.0363 15.1105 51.8608 14.8425C51.6278 14.4869 51.8049 13.886 52.2381 13.5626C52.6019 13.2909 52.8013 13.2782 53.126 13.5057ZM53.8874 15.3496C53.421 15.8456 53.0393 16.2853 53.0393 16.3268C53.0393 16.3684 53.1347 16.462 53.2512 16.5347C53.4371 16.6509 53.542 16.5842 54.1092 15.9893C54.7361 15.3318 54.7674 15.3144 55.1521 15.4096C55.7769 15.5641 55.7392 15.8816 54.999 16.6997C54.6573 17.0775 54.3777 17.4222 54.3777 17.4656C54.3777 17.509 54.46 17.6129 54.5607 17.6964C54.722 17.8303 54.8272 17.7562 55.4519 17.0685C56.0085 16.4558 56.1604 16.2127 56.1612 15.9342C56.1624 15.5003 55.731 15.1172 55.2412 15.1172C54.9576 15.1172 54.9287 15.0922 55.0468 14.9498C55.1576 14.8162 55.1576 14.7486 55.0468 14.6151C54.9705 14.523 54.8692 14.4477 54.8217 14.4477C54.7743 14.4477 54.3538 14.8535 53.8874 15.3496ZM9.92819 18.6073C9.53025 19.0811 8.4271 20.6524 8.4271 20.7455C8.4271 20.782 8.2917 21.0242 8.1263 21.2839C7.07022 22.9406 5.78271 26.1823 5.29532 28.4118C4.63339 31.4397 4.60283 31.7327 4.59848 35.0889C4.59413 38.4423 4.58599 38.3607 5.29298 42.0623C5.47199 42.9994 5.83636 44.27 6.25727 45.4254C6.47777 46.0303 6.71276 46.6759 6.77968 46.86C6.94943 47.3276 8.39498 50.1786 8.5944 50.4392C8.68462 50.557 8.4851 50.051 8.15106 49.3146C6.91006 46.5791 6.59655 45.534 5.8416 41.616C5.66739 40.7118 5.68445 34.0635 5.86346 33.0806C5.93618 32.6817 6.03533 32.0792 6.08395 31.7417C6.13247 31.4042 6.22928 30.877 6.29899 30.5702C6.36858 30.2634 6.50532 29.6609 6.60279 29.2313C7.05092 27.2568 8.02838 24.6501 9.02936 22.76C9.70223 21.4896 10.7566 19.8218 11.0308 19.5944C11.2861 19.3826 11.2768 19.3561 10.7368 18.7508L10.2582 18.2143L9.92819 18.6073ZM60.1746 19.9981C60.6593 21.0105 61.4595 22.9822 62.1557 24.8799C62.6555 26.2419 63.3732 28.8663 63.7882 30.8491C64.6917 35.166 64.3864 39.892 62.8802 44.9075C62.5004 46.1718 61.2704 49.2673 61.0181 49.5936C60.9469 49.6856 60.7201 50.0873 60.514 50.4862C60.308 50.8851 60.0976 51.2281 60.0468 51.2486C59.9958 51.2691 59.9542 51.3371 59.9542 51.4C59.9542 51.5815 58.5499 53.5475 57.668 54.6008C56.3285 56.2007 54.4591 58.0142 52.9204 59.2068C52.2774 59.7051 49.7754 61.3271 48.522 62.058C47.6423 62.5709 45.4186 63.6519 45.243 63.6519C45.1799 63.6519 44.9634 63.7222 44.762 63.808C43.0822 64.5239 41.0839 64.9909 38.2615 65.327C35.3049 65.6791 31.0033 65.5721 28.6141 65.0871C26.8261 64.7242 25.4873 64.3731 24.8778 64.1075C24.7552 64.054 24.4038 63.9227 24.0971 63.8157C23.3527 63.5561 21.0838 62.4457 19.9478 61.7852C19.4446 61.4925 18.742 61.0835 18.3863 60.8763C16.3438 59.6856 14.2001 57.809 11.7402 55.0581C11.149 54.397 11.1206 54.3781 11.4056 54.8369C12.0573 55.8855 13.4397 57.6284 14.1177 58.2564C14.506 58.6159 14.982 59.0606 15.1758 59.2447C15.3695 59.4288 15.6779 59.705 15.8613 59.8584C16.0445 60.0118 16.492 60.3907 16.8557 60.7003C20.0556 63.4253 24.2657 65.5054 28.4468 66.4273C31.3607 67.0698 35.0215 67.4095 37.7701 67.2926C42.3323 67.0985 48.4942 64.8492 53.048 61.7159C55.158 60.2641 58.1259 57.295 59.7451 55.0161C61.2563 52.8889 62.7983 50.0018 63.4726 48.0371C63.6948 47.3898 63.9189 46.7786 63.9706 46.6791C64.0755 46.4776 64.6568 44.0232 64.8659 42.8991C65.4105 39.9711 65.4361 34.6441 64.9178 32.1322C64.54 30.3022 64.3912 29.6458 64.2347 29.1197C63.2545 25.8247 62.0671 22.9799 60.6822 20.6079C60.1069 19.6227 59.8431 19.3058 60.1746 19.9981ZM65.7538 20.8718C65.7538 20.9318 65.8218 21.08 65.9049 21.201C65.988 21.322 66.1701 21.7224 66.3097 22.0905C66.4491 22.4587 66.6597 23.011 66.7776 23.3179C67.3573 24.8257 68.1208 27.6419 68.3659 29.1755C68.8125 31.9689 68.9024 33.2963 68.8457 36.2605C68.7923 39.0575 68.7273 39.8742 68.3665 42.2855C68.1168 43.954 67.2908 47.2654 66.915 48.1042C66.8284 48.2975 66.7576 48.5092 66.7576 48.5746C66.7576 48.64 66.6875 48.8583 66.602 49.0598C65.737 51.0974 65.1349 52.4627 65.0512 52.5756C64.9956 52.6509 64.8021 52.9977 64.6214 53.346C64.094 54.363 62.4378 56.8847 61.7479 57.721C59.4405 60.5185 56.7108 63.0878 54.2928 64.7384C53.5187 65.267 52.558 65.8389 50.6972 66.8793C50.0875 67.2201 47.1677 68.6662 46.2667 69.0734C45.8052 69.2821 45.5997 69.527 45.985 69.4092C46.0923 69.3763 46.4562 69.2762 46.7936 69.1867C51.5727 67.9182 55.9385 65.5351 59.7794 62.0981C61.8217 60.2707 64.2295 57.2828 65.4957 55.0049C66.932 52.4209 67.9078 50.1415 68.6003 47.7526C68.707 47.3844 68.8567 46.8823 68.9327 46.6369C69.08 46.1623 69.5356 43.6148 69.8207 41.6718C70.0609 40.0356 70.0594 34.9244 69.8184 33.3037C69.5535 31.5227 69.1154 29.192 68.9166 28.5061C68.1515 25.8671 67.4439 23.9769 66.5216 22.1075C65.977 21.0036 65.7538 20.6444 65.7538 20.8718ZM27.6103 26.163C27.6103 27.3159 27.6238 27.3903 27.8334 27.3903C28.0235 27.3903 28.0565 27.3159 28.0565 26.8882V26.3862H28.6699H29.2833V26.896C29.2833 27.3609 29.3054 27.4027 29.5342 27.3702C29.7763 27.3358 29.7852 27.293 29.7852 26.163C29.7852 25.033 29.7763 24.9902 29.5342 24.9558C29.3054 24.9233 29.2833 24.9651 29.2833 25.43V25.9399H28.6699H28.0565V25.4378C28.0565 25.0101 28.0235 24.9357 27.8334 24.9357C27.6238 24.9357 27.6103 25.0101 27.6103 26.163ZM30.5101 25.8592C30.5101 26.9148 30.6398 27.1938 31.2194 27.3851C31.6585 27.5301 32.0457 27.417 32.3954 27.0414C32.5939 26.8283 32.6292 26.6504 32.6292 25.863C32.6292 25.0101 32.6114 24.9357 32.4062 24.9357C32.2062 24.9357 32.1831 25.0101 32.1831 25.6537C32.1831 26.6823 32.0601 26.944 31.5764 26.944C31.0681 26.944 30.9563 26.7239 30.9563 25.7241C30.9563 25.0101 30.9352 24.9357 30.7332 24.9357C30.5281 24.9357 30.5101 25.0101 30.5101 25.8592ZM33.8353 25.2983C33.4644 26.0334 32.9638 27.1711 32.9638 27.2791C32.9638 27.4781 33.3525 27.3963 33.4956 27.1672C33.6071 26.9885 33.7557 26.944 34.2398 26.944C34.7468 26.944 34.8563 26.9802 34.9156 27.1672C34.9545 27.2899 35.0833 27.3903 35.2019 27.3903C35.3204 27.3903 35.4175 27.3721 35.4175 27.3499C35.4175 27.2868 34.7976 25.7985 34.5819 25.3438C34.342 24.8382 34.0758 24.8219 33.8353 25.2983ZM35.7395 26.1598C36.0863 27.2134 36.1761 27.3844 36.3841 27.3871C36.5855 27.3898 36.6702 27.257 36.8931 26.5877L37.1606 25.785L37.4462 26.5598C37.6555 27.1272 37.7915 27.3436 37.9547 27.3683C38.1102 27.3919 38.1958 27.3245 38.2383 27.1452C38.2718 27.0038 38.4223 26.5619 38.5728 26.163C39.0432 24.9165 39.0439 24.9123 38.7459 24.9544C38.5344 24.9844 38.4421 25.1228 38.2615 25.68C38.1388 26.0587 38.0048 26.402 37.9636 26.4429C37.9225 26.4839 37.8004 26.2243 37.6924 25.866C37.3526 24.7386 36.9896 24.6302 36.7601 25.5875C36.6866 25.894 36.5606 26.235 36.4799 26.3452C36.3497 26.5235 36.3069 26.4567 36.0938 25.7407C35.8858 25.0418 35.82 24.9357 35.5953 24.9357H35.3364L35.7395 26.1598ZM39.4326 26.163V27.3903H40.3806C41.2542 27.3903 41.3286 27.3728 41.3286 27.1672C41.3286 26.9669 41.2542 26.944 40.6036 26.944H39.8787V26.6093C39.8787 26.2932 39.9035 26.2746 40.3248 26.2746C40.647 26.2746 40.7709 26.2281 40.7709 26.1072C40.7709 25.9864 40.647 25.9399 40.3248 25.9399C39.9233 25.9399 39.8787 25.912 39.8787 25.6609C39.8787 25.3944 39.9085 25.382 40.5479 25.382C41.1427 25.382 41.2171 25.3572 41.2171 25.1588C41.2171 24.9543 41.1427 24.9357 40.3248 24.9357H39.4326V26.163ZM41.8862 26.163V27.3903H42.1651H42.4439V26.163V24.9357H42.1651H41.8862V26.163ZM34.3771 26.045C34.5199 26.4232 34.4768 26.4977 34.1163 26.4977C33.8229 26.4977 33.7996 26.409 33.9855 26.0009C34.1523 25.6346 34.2254 25.6428 34.3771 26.045ZM11.2154 29.6776V29.9565H34.9714H58.7274V29.6776V29.3987H34.9714H11.2154V29.6776ZM32.2389 32.2574C31.134 32.401 30.4654 32.5872 29.6737 32.9717C27.8943 33.8358 26.8284 35.3058 26.4196 37.4594C26.1245 39.014 26.3813 40.9081 27.0709 42.2642C27.4188 42.9484 28.5828 44.0286 29.3948 44.4208C31.2983 45.3401 34.344 45.3801 36.5079 44.5139C37.0115 44.3123 37.0079 44.3822 36.5758 43.1626L36.4123 42.7009L35.8313 42.9242C34.3883 43.479 32.1942 43.5177 31.0086 43.0093C30.4014 42.7488 29.5563 41.984 29.2824 41.447C28.729 40.3616 28.5662 38.4854 28.9057 37.1044C29.3941 35.1181 30.8898 33.9732 32.9965 33.9732C33.6932 33.9732 35.2424 34.3232 35.7824 34.6026C35.9612 34.695 36.1226 34.7544 36.1411 34.7346C36.2046 34.6664 36.7558 33.3106 36.7554 33.2234C36.7552 33.1756 36.5168 33.044 36.2256 32.9312C35.9345 32.8183 35.5959 32.6819 35.4732 32.6282C34.9879 32.4153 32.8819 32.1738 32.2389 32.2574ZM13.5575 38.7709V45.1306H14.6728H15.7881V42.2855V39.4403H18.8552H21.9223V42.2895V45.1386L23.0097 45.1067L24.0971 45.0748V38.7709V32.4669L23.0097 32.435L21.9223 32.4031V35.033V37.6631L18.8552 37.6498L15.7881 37.6365V35.0238V32.4112H14.6728H13.5575V38.7709ZM39.2095 38.7709V45.1306H40.3806H41.5517V38.7709V32.4112H40.3806H39.2095V38.7709ZM48.3069 32.5103C48.2733 32.5649 48.0677 33.0795 47.8503 33.654C47.633 34.2284 47.3853 34.8491 47.3001 35.0331C47.138 35.383 44.6339 41.5818 43.8745 43.5128C43.6332 44.1264 43.3882 44.7157 43.3301 44.8222C43.2721 44.9288 43.2246 45.0418 43.2246 45.0733C43.2246 45.1048 43.7447 45.1306 44.3804 45.1306H45.5362L45.914 44.101C46.1217 43.5348 46.3942 42.7942 46.5194 42.4553L46.7472 41.8392L49.3852 41.8093L52.0231 41.7794L52.1937 42.144C52.2874 42.3445 52.542 43.0031 52.7595 43.6075C53.3565 45.2672 53.1961 45.1306 54.5489 45.1306C55.1908 45.1306 55.716 45.1119 55.716 45.0889C55.716 44.9698 55.3675 44.0873 55.0644 43.4386C54.8751 43.0337 54.6496 42.5082 54.5633 42.2707C54.3975 41.8154 53.5617 39.7624 52.5933 37.432C52.2745 36.6649 51.8155 35.5603 51.5732 34.9774C51.331 34.3944 51.0039 33.5784 50.8463 33.1643L50.5598 32.4112H49.464C48.8613 32.4112 48.3406 32.4558 48.3069 32.5103ZM49.5809 35.3679C49.5822 35.4906 49.6623 35.7416 49.759 35.9257C49.8556 36.1098 49.9992 36.4362 50.0782 36.651C50.2346 37.0766 51.1741 39.4843 51.3101 39.8083C51.3894 39.9973 51.284 40.0076 49.4843 39.987C48.1796 39.9722 47.5744 39.9263 47.5748 39.8423C47.575 39.7746 47.7294 39.3176 47.9179 38.8267C48.1065 38.3357 48.4766 37.3316 48.7402 36.5952C49.3945 34.7682 49.3714 34.8179 49.4842 34.9959C49.536 35.0778 49.5795 35.2451 49.5809 35.3679ZM11.2359 48.3384L11.2711 48.6452L34.9992 48.6733L58.7274 48.7015V48.3665V48.0315H34.964H11.2005L11.2359 48.3384ZM3.85435 52.0029C3.85435 52.3537 6.6512 57.5063 6.96772 57.7385C7.00955 57.7692 7.16569 57.97 7.31469 58.1848C9.02446 60.6491 12.029 63.5454 14.8379 65.4371C15.6399 65.9772 17.8692 67.267 18.4251 67.5125C18.7844 67.6712 19.279 67.8919 19.5244 68.0029C20.8002 68.58 24.1529 69.5415 24.1529 69.3302C24.1529 69.2754 24.0978 69.2306 24.0303 69.2306C23.963 69.2306 23.7496 69.1588 23.5563 69.0711C23.363 68.9833 22.8536 68.7753 22.4242 68.6087C21.1096 68.0989 18.7778 66.8716 17.4253 65.9777C17.0683 65.7417 16.7466 65.5487 16.7107 65.5487C16.6747 65.5487 16.3896 65.3571 16.0772 65.123C15.7649 64.8888 15.1078 64.4006 14.617 64.0379C14.1263 63.6752 13.5218 63.2015 13.2739 62.9853C13.0258 62.7689 12.5505 62.366 12.2176 62.0899C11.2901 61.3206 8.79749 58.7993 7.91562 57.7385C6.36334 55.8713 5.20398 54.2302 4.3936 52.753C3.9825 52.0037 3.85435 51.8254 3.85435 52.0029ZM20.807 55.5628V57.9616H21.9544C23.3961 57.9616 23.9234 57.7394 24.4239 56.921C25.0119 55.9596 24.9189 54.5009 24.2284 53.8519C23.7973 53.4468 22.7733 53.164 21.7375 53.164H20.807V55.5628ZM29.8688 53.5725C29.7922 53.6036 29.7294 53.7466 29.7294 53.8905C29.7294 54.139 29.5223 54.4386 29.2936 54.5208C29.2357 54.5416 29.154 54.6966 29.1122 54.8655C29.0444 55.1386 29.0666 55.1723 29.3146 55.1723C29.5922 55.1723 29.5934 55.1765 29.6351 56.396C29.6713 57.4561 29.7066 57.6424 29.8984 57.7899C30.2277 58.0431 30.5665 58.1068 31.1315 58.0221C31.6208 57.9487 31.6373 57.9336 31.604 57.5912C31.5716 57.2555 31.5477 57.2383 31.1596 57.2721C30.6203 57.3191 30.5101 57.106 30.5101 56.0165V55.1723H30.9497C31.4257 55.1723 31.4471 55.1557 31.5564 54.6981C31.6289 54.3944 31.624 54.3913 31.0699 54.3913H30.5101V53.945C30.5101 53.5539 30.479 53.4998 30.2592 53.5075C30.1211 53.5123 29.9456 53.5416 29.8688 53.5725ZM10.8808 54.05C10.8808 54.1078 10.9304 54.1856 10.9911 54.2231C11.0542 54.2622 11.0729 54.2174 11.0349 54.1181C10.9607 53.9249 10.8808 53.8895 10.8808 54.05ZM23.0728 54.1824C23.5795 54.4443 23.8101 54.8564 23.8138 55.507C23.82 56.5512 23.2366 57.1806 22.2625 57.1806H21.8108V55.6186V54.0565H22.32C22.6001 54.0565 22.9388 54.1132 23.0728 54.1824ZM25.9097 54.5209C25.6493 54.6161 25.6138 54.6777 25.6742 54.9305C25.7819 55.3819 25.7848 55.3831 26.3874 55.2063C26.8947 55.0576 26.9777 55.059 27.2247 55.2209C27.559 55.4401 27.6055 55.8488 27.2866 55.7653C26.8658 55.6553 25.8421 55.9532 25.605 56.2548C25.2954 56.6485 25.3074 57.3071 25.6309 57.6834C25.9529 58.0579 26.6639 58.1723 27.153 57.9282C27.3474 57.8312 27.5244 57.8012 27.5602 57.8591C27.595 57.9155 27.8213 57.9616 28.063 57.9616H28.5026L28.5024 56.7064C28.5023 55.3143 28.3399 54.7871 27.8334 54.534C27.5041 54.3693 26.346 54.3615 25.9097 54.5209ZM32.5456 54.5104C32.1524 54.6301 32.1297 54.6824 32.2884 55.1002C32.3928 55.3748 32.3986 55.3759 32.9227 55.2181C33.6605 54.996 34.0732 55.1518 34.0774 55.654C34.0787 55.8065 34.0236 55.8392 33.8553 55.7857C33.7323 55.7467 33.3525 55.7726 33.0114 55.8434C32.5023 55.9492 32.3528 56.0353 32.1762 56.3254C31.7027 57.102 32.0616 57.9217 32.9258 58.0376C33.2409 58.0799 33.5083 58.0404 33.7606 57.9146C33.9926 57.7987 34.1464 57.7729 34.1706 57.8455C34.1918 57.9093 34.4098 57.9616 34.6549 57.9616H35.1006L35.0638 56.5134C35.0281 55.1058 35.0185 55.0566 34.7216 54.7598C34.4568 54.4951 34.3156 54.4508 33.6621 54.4273C33.2473 54.4124 32.745 54.4497 32.5456 54.5104ZM36.6847 54.5801C36.1543 54.8447 35.8635 55.455 35.864 56.3032C35.8645 57.1535 36.1004 57.6138 36.6759 57.8869C37.1271 58.1011 37.6327 58.1228 38.2409 57.9537C38.6457 57.8414 38.6627 57.8183 38.5903 57.4802C38.4938 57.0292 38.4917 57.0275 38.2226 57.1716C38.0987 57.238 37.8195 57.2922 37.6023 57.2922C37.3007 57.2922 37.1625 57.2241 37.0186 57.0045C36.773 56.6293 36.7765 55.8297 37.0255 55.4495C37.1964 55.1886 37.2789 55.1572 37.6855 55.1986C37.941 55.2246 38.2288 55.2815 38.3252 55.3249C38.4571 55.3845 38.5296 55.3083 38.6194 55.0157C38.7341 54.6421 38.7258 54.6231 38.3997 54.5094C37.9184 54.3416 37.0949 54.3755 36.6847 54.5801ZM39.8787 54.5744C39.4418 54.885 39.3247 55.0247 39.1497 55.4437C38.8147 56.2459 39.0313 57.2564 39.6372 57.7189C40.1537 58.1128 41.2502 58.1462 41.7382 57.7826C42.2326 57.4145 42.4599 56.9305 42.4599 56.2461C42.4599 55.5773 42.2834 55.1479 41.8375 54.731C41.4441 54.3635 40.3036 54.2722 39.8787 54.5744ZM43.2246 56.1765V57.9616H43.6707H44.1169V56.7983C44.1169 55.6743 44.1268 55.627 44.4107 55.4036C44.7394 55.145 45.1195 55.1042 45.3214 55.3062C45.4097 55.3945 45.4552 55.869 45.4552 56.7009V57.9616H45.9013H46.3475V56.8112C46.3475 55.8076 46.3765 55.6295 46.5749 55.4165C46.8244 55.1486 47.2311 55.0968 47.4405 55.3062C47.5288 55.3945 47.5743 55.869 47.5743 56.7009V57.9616H48.0204H48.4665L48.465 56.5949C48.4632 54.9628 48.4319 54.8195 48.0231 54.578C47.5966 54.326 47.0654 54.343 46.6122 54.6231L46.2374 54.8549L45.9428 54.6231C45.5809 54.3384 44.9922 54.323 44.5448 54.5865C44.2292 54.7725 44.2082 54.7725 44.1038 54.5865C44.0325 54.4594 43.8598 54.3913 43.6094 54.3913H43.2246V56.1765ZM41.2889 55.46C41.3927 55.6186 41.4773 55.9654 41.4773 56.2322C41.4773 56.8736 41.2004 57.2922 40.7763 57.2922C40.1963 57.2922 39.9099 56.7795 40.0222 55.9422C40.1003 55.3593 40.2713 55.1723 40.7262 55.1723C41.0053 55.1723 41.1483 55.2454 41.2889 55.46ZM27.6103 56.6785C27.6103 56.9915 27.1756 57.3077 26.7961 57.2709C26.4354 57.2359 26.2964 57.0107 26.4263 56.6721C26.5157 56.4392 27.6103 56.4452 27.6103 56.6785ZM34.0791 56.7862C34.0791 56.9492 33.986 57.111 33.8506 57.1835C33.5198 57.3607 33.0291 57.2765 32.9832 57.0347C32.9078 56.6369 33.0496 56.5112 33.5738 56.5112C34.0365 56.5112 34.0791 56.5344 34.0791 56.7862Z" fill="white"/>
</svg>
