<svg width="70" height="70" viewBox="0 0 70 70" fill="none" xmlns="http://www.w3.org/2000/svg">
<path fill-rule="evenodd" clip-rule="evenodd" d="M33.2727 0.200065C32.4242 0.512338 31.824 1.06214 31.341 1.97027C30.665 3.24099 29.9478 3.59113 28.9 3.16228C27.9973 2.79278 26.8293 2.84591 25.9058 3.29864C25.0224 3.73158 23.9436 4.8545 23.5402 5.76065C23.2001 6.52481 23.1845 7.76401 23.5054 8.52194C23.9519 9.57619 23.5876 10.3343 22.3057 11.0189C20.8889 11.7754 20.3317 12.8091 20.3317 14.6809C20.3317 15.2832 20.4231 16.0354 20.5348 16.3527L20.738 16.9296L13.659 16.971L6.58015 17.0124L5.63799 17.4596C4.32687 18.0819 3.5101 18.8829 2.87569 20.1689L2.3489 21.2366L2.31111 40.0017L2.27331 58.7666H1.13665H0L0.0461206 62.2717L0.0922411 65.7768L0.619031 66.8441C1.25344 68.1295 2.07063 68.9308 3.38133 69.5528L4.32348 70H35H65.6765L66.6187 69.5528C67.9294 68.9308 68.7466 68.1295 69.381 66.8441L69.9078 65.7768L69.9539 62.2717L70 58.7666H68.8633H67.7267L67.6889 40.0017L67.6511 21.2366L67.1243 20.1689C66.4899 18.8829 65.6731 18.0819 64.362 17.4596L63.4199 17.0124L56.341 16.971L49.262 16.9296L49.4652 16.3527C49.5769 16.0354 49.6683 15.2832 49.6683 14.6809C49.6683 12.8091 49.1111 11.7754 47.6943 11.0189C46.4124 10.3343 46.0481 9.57619 46.4946 8.52194C46.8214 7.75002 46.7999 6.52608 46.4454 5.72307C46.075 4.88431 44.7822 3.58717 43.9482 3.21753C43.1247 2.85255 42.0265 2.82783 41.1766 3.15508C40.0885 3.57403 39.3123 3.24155 38.7408 2.11157C38.2753 1.19114 37.5211 0.478285 36.7256 0.206706C35.9268 -0.0658624 34.0058 -0.0696775 33.2727 0.200065ZM36.2374 2.46596C36.4093 2.58677 36.6863 3.00276 36.8529 3.39062C37.2221 4.25044 37.9919 4.93673 39.0367 5.33732C39.9772 5.69778 40.7297 5.70555 41.7698 5.36544C42.7085 5.05853 43.0674 5.15207 43.7838 5.89079C44.5196 6.64957 44.6028 6.97329 44.2999 7.89853C43.9599 8.93638 43.9661 9.69332 44.3223 10.6256C44.7257 11.6814 45.2969 12.3307 46.2211 12.7837C47.2483 13.2872 47.4116 13.5474 47.4116 14.6809C47.4116 15.814 47.2183 16.1284 46.2696 16.5372C45.4114 16.9071 44.7264 17.6783 44.3265 18.7251C43.9663 19.6683 43.959 20.4224 44.2999 21.4634C44.6028 22.3886 44.5196 22.7123 43.7838 23.4711C43.0674 24.2098 42.7085 24.3033 41.7698 23.9964C40.7419 23.6603 39.9676 23.6635 39.049 24.0079C38.0296 24.39 37.2217 25.1123 36.8529 25.9713C36.4448 26.9216 36.131 27.1154 35 27.1154C33.869 27.1154 33.5552 26.9216 33.1471 25.9713C32.7779 25.1114 32.0081 24.4251 30.9633 24.0246C30.0218 23.6637 29.2691 23.6563 28.23 23.9979C27.6719 24.1813 27.3554 24.2159 27.1017 24.1211C26.6082 23.9368 25.8346 23.1722 25.6089 22.6455C25.4413 22.2546 25.4533 22.1053 25.7112 21.3738C26.0748 20.342 26.0059 19.4114 25.4844 18.307C25.0725 17.4349 24.512 16.89 23.6158 16.491C22.7793 16.1187 22.5884 15.7821 22.5884 14.6809C22.5884 13.5798 22.7793 13.2432 23.6158 12.8709C24.512 12.4719 25.0725 11.927 25.4844 11.0549C26.0059 9.95049 26.0748 9.01989 25.7112 7.98811C25.4533 7.2566 25.4413 7.10725 25.6089 6.71641C25.8346 6.18964 26.6082 5.42507 27.1017 5.24081C27.3554 5.146 27.6719 5.18062 28.23 5.36402C29.2568 5.70159 30.0314 5.69862 30.951 5.35399C31.9704 4.97192 32.7783 4.24959 33.1471 3.39062C33.3137 3.00276 33.5907 2.58677 33.7626 2.46596C34.1883 2.16739 35.8117 2.16739 36.2374 2.46596ZM33.378 6.93246C32.1039 7.17239 30.4978 8.06526 29.4472 9.11795C26.3587 12.212 26.3451 17.1363 29.4166 20.2134C31.0245 21.8241 32.7071 22.519 35 22.519C37.2426 22.519 39.0035 21.8102 40.5094 20.3016C43.6382 17.167 43.6654 12.2565 40.5713 9.126C38.7053 7.23823 36.0519 6.429 33.378 6.93246ZM37.3172 9.5687C38.5898 10.1654 39.4132 10.9768 40.0443 12.2562C40.5421 13.2651 40.5711 13.3986 40.5711 14.6809C40.5711 15.9632 40.5421 16.0968 40.0443 17.1057C39.4099 18.3918 38.5933 19.1928 37.2821 19.8151C36.43 20.2195 36.2117 20.2623 35 20.2623C33.7883 20.2623 33.57 20.2195 32.718 19.8151C31.4067 19.1928 30.5901 18.3918 29.9557 17.1057C29.4585 16.0979 29.4289 15.9621 29.4289 14.6883C29.4289 13.466 29.471 13.2494 29.8753 12.3947C30.442 11.1962 31.2489 10.3189 32.3013 9.75691C33.4123 9.16373 34.0202 9.0295 35.3172 9.09138C36.1637 9.1318 36.6146 9.23933 37.3172 9.5687ZM33.8717 11.4744C33.1794 11.693 31.9988 12.9178 31.7865 13.6376C31.3958 14.9624 31.6713 16.0186 32.668 17.0172C34.0949 18.4467 35.9051 18.4467 37.332 17.0172C38.7102 15.6364 38.7514 13.8799 37.4399 12.4184C36.5271 11.4014 35.2083 11.0523 33.8717 11.4744ZM6.79171 13.5505V14.6809H7.92004H9.04837V13.5505V12.4201H7.92004H6.79171V13.5505ZM11.305 13.5505V14.6809H12.4334H13.5617V13.5505V12.4201H12.4334H11.305V13.5505ZM15.8184 13.5505V14.6809H16.9467H18.075V13.5505V12.4201H16.9467H15.8184V13.5505ZM51.925 13.5505V14.6809H53.0533H54.1816V13.5505V12.4201H53.0533H51.925V13.5505ZM56.4383 13.5505V14.6809H57.5666H58.695V13.5505V12.4201H57.5666H56.4383V13.5505ZM60.9516 13.5505V14.6809H62.08H63.2083V13.5505V12.4201H62.08H60.9516V13.5505ZM35.7821 13.8974C36.4818 14.5983 35.986 15.8113 35 15.8113C34.7253 15.8113 34.4361 15.6832 34.2179 15.4644C33.9996 15.2459 33.8717 14.9562 33.8717 14.6809C33.8717 14.4057 33.9996 14.116 34.2179 13.8974C34.4361 13.6787 34.7253 13.5505 35 13.5505C35.2747 13.5505 35.5639 13.6787 35.7821 13.8974ZM23.622 19.7184C23.7115 20.031 23.6886 20.3468 23.545 20.7782L23.3407 21.3927L15.7816 21.4634C8.4237 21.5322 8.21214 21.5418 7.83316 21.8254C7.61906 21.9856 7.313 22.2922 7.15306 22.5069C6.86336 22.8956 6.86223 22.9568 6.86223 38.9846C6.86223 55.0124 6.86336 55.0736 7.15306 55.4623C7.313 55.677 7.61906 55.9836 7.8333 56.1438L8.22286 56.4352H35H61.7771L62.1667 56.1438C62.3809 55.9836 62.687 55.677 62.8469 55.4623C63.1366 55.0736 63.1378 55.0124 63.1378 38.9846C63.1378 22.9568 63.1366 22.8956 62.8469 22.5069C62.687 22.2922 62.3809 21.9856 62.1668 21.8254C61.7879 21.5418 61.5763 21.5322 54.2184 21.4634L46.6593 21.3927L46.455 20.7782C46.3114 20.3468 46.2885 20.031 46.378 19.7184L46.5055 19.2732L54.4689 19.2332C60.4319 19.2033 62.5919 19.2367 63.0672 19.3666C63.8922 19.5921 65.0513 20.7292 65.2934 21.5504C65.4242 21.9939 65.465 26.4806 65.465 40.4493V58.7666H35H4.53505V40.4493C4.53505 26.4806 4.57581 21.9939 4.70655 21.5504C4.91868 20.831 6.09906 19.6062 6.79171 19.3867C7.13233 19.2787 9.79773 19.2369 15.39 19.2517L23.4945 19.2732L23.622 19.7184ZM23.9797 24.3545C25.2786 26.1667 27.0107 26.822 28.8475 26.1965C29.5392 25.9609 29.6643 25.9557 30.1531 26.1421C30.6752 26.3412 30.8226 26.5105 31.6081 27.8137C32.2498 28.8782 33.3319 29.3762 35.0033 29.3762C36.8711 29.3762 37.9007 28.8173 38.659 27.3916C39.3336 26.1237 40.0493 25.7729 41.1 26.1952C41.8573 26.4996 43.0999 26.5054 43.8103 26.2081C44.5424 25.9016 45.4675 25.1257 46.0203 24.3545L46.4722 23.7242H53.712H60.9516V38.9846V54.245H35H9.04837V38.9846V23.7242H16.288H23.5278L23.9797 24.3545ZM11.305 39.5498V47.4626H12.9975H14.69V49.7234V51.9842H35H55.31V49.7234V47.4626H57.0025H58.695V39.5498V31.637H54.1816H49.6683V39.5498V47.4626H51.3608H53.0533V48.593V49.7234H48.54H44.0267V48.593V47.4626H45.7192H47.4116V39.5498V31.637H42.8983H38.385V39.5498V47.4626H40.0775H41.77V48.593V49.7234H35H28.23V48.593V47.4626H29.9225H31.615V39.5498V31.637H27.1017H22.5884V39.5498V47.4626H24.2809H25.9734V48.593V49.7234H21.46H16.9467V48.593V47.4626H18.6392H20.3317V39.5498V31.637H15.8184H11.305V39.5498ZM18.075 39.5498V45.2018H15.8184H13.5617V39.5498V33.8978H15.8184H18.075V39.5498ZM29.3583 39.5498V45.2018H27.1017H24.845V39.5498V33.8978H27.1017H29.3583V39.5498ZM45.155 39.5498V45.2018H42.8983H40.6417V39.5498V33.8978H42.8983H45.155V39.5498ZM56.4383 39.5498V45.2018H54.1816H51.925V39.5498V33.8978H54.1816H56.4383V39.5498ZM67.7216 62.9539C67.7216 64.0535 67.648 65.1301 67.5501 65.462C67.3212 66.2382 66.1528 67.4087 65.3781 67.638C64.5339 67.8878 5.46606 67.8878 4.62193 67.638C3.84719 67.4087 2.6788 66.2382 2.44989 65.462C2.35201 65.1301 2.27838 64.0535 2.27838 62.9539V61.0274H35H67.7216V62.9539ZM51.925 64.4186V65.549H53.0533H54.1816V64.4186V63.2882H53.0533H51.925V64.4186ZM56.4383 64.4186V65.549H57.5666H58.695V64.4186V63.2882H57.5666H56.4383V64.4186ZM60.9516 64.4186V65.549H62.08H63.2083V64.4186V63.2882H62.08H60.9516V64.4186Z" fill="white"/>
</svg>
