<svg width="70" height="70" viewBox="0 0 70 70" fill="none" xmlns="http://www.w3.org/2000/svg">
<path fill-rule="evenodd" clip-rule="evenodd" d="M7.8957 0.121523C7.49547 0.179776 7.13781 0.257584 7.10099 0.294505C7.03995 0.355356 7.41526 1.987 7.53462 2.17994C7.56227 2.22466 7.95715 2.20141 8.41199 2.12812L9.23913 1.99506V0.988348C9.23913 -0.1506 9.33618 -0.0879706 7.8957 0.121523ZM11.2942 0.779812C11.2166 1.05535 11.1167 1.50046 11.0722 1.76916L10.9913 2.25761L11.786 2.55011C12.223 2.71092 12.5914 2.82948 12.6046 2.81376C12.6178 2.79789 12.8209 2.40161 13.0559 1.93326L13.4833 1.08161L12.9694 0.820426C12.6869 0.676707 12.2262 0.496204 11.9456 0.419079C11.4364 0.279189 11.4352 0.279873 11.2942 0.779812ZM36.7512 1.41745V2.44304H39.2834H41.8156V1.41745V0.391867H39.2834H36.7512V1.41745ZM43.8688 1.41745V2.44304H51.397H58.9251V1.41745V0.391867H51.397H43.8688V1.41745ZM4.06098 1.62886C3.59861 1.93736 3.19482 2.23136 3.16375 2.28223C3.13282 2.3331 3.41095 2.70409 3.78216 3.10666L4.45682 3.83866L5.13354 3.38015C5.5057 3.128 5.80984 2.86011 5.80957 2.7849C5.80916 2.70969 5.6048 2.29262 5.35528 1.85805L4.90153 1.06807L4.06098 1.62886ZM14.6719 3.05402L14.0136 3.8094L14.587 4.47439L15.1605 5.13951L15.9639 4.5857C16.4058 4.28103 16.7673 3.98484 16.7673 3.92754C16.7673 3.87011 16.444 3.48025 16.0487 3.06085L15.3301 2.29864L14.6719 3.05402ZM1.40435 4.39165C1.17084 4.74842 0.615942 5.82064 0.615942 5.91472C0.615942 5.95 0.939244 6.10097 1.33454 6.25029C1.72984 6.39962 2.15539 6.56234 2.28049 6.61198C2.45446 6.6809 2.59093 6.53664 2.86222 5.99718C3.05713 5.60937 3.21659 5.2444 3.21659 5.18601C3.21659 5.09097 1.79458 4.08398 1.66031 4.08398C1.63019 4.08398 1.51494 4.22236 1.40435 4.39165ZM8.14413 4.27405C7.73008 4.36608 7.13685 4.5738 6.82601 4.7357C6.00968 5.16071 5.0046 6.22294 4.59644 7.09209C4.29038 7.74382 4.24316 8.02729 4.24316 9.21191C4.24316 10.3991 4.29011 10.6793 4.59917 11.3377C6.47205 15.3269 12.0062 15.3269 13.8791 11.3377C14.1882 10.6793 14.2351 10.3991 14.2351 9.21191C14.2351 8.02729 14.1879 7.74382 13.8818 7.09209C13.1988 5.63754 11.7482 4.53141 10.1324 4.23289C9.17781 4.05663 9.11759 4.05786 8.14413 4.27405ZM17.1779 6.19874C16.9145 6.29843 16.5354 6.4442 16.3356 6.52269L15.9723 6.66531L16.1837 7.50301L16.3949 8.34071L17.2996 8.24827C17.7973 8.1974 18.2463 8.11645 18.2975 8.06845C18.4846 7.8926 17.9906 5.98733 17.7631 6.00798C17.7048 6.01331 17.4414 6.09919 17.1779 6.19874ZM10.1381 6.33589C10.9426 6.5752 11.5678 7.11206 11.9783 7.91598C12.423 8.78705 12.3286 10.1392 11.7664 10.9495C11.2453 11.7004 10.1353 12.2887 9.23913 12.2887C8.34301 12.2887 7.23294 11.7004 6.71185 10.9495C6.37884 10.4694 6.29493 10.1911 6.2514 9.42264C6.205 8.60203 6.24524 8.39664 6.56827 7.80371C6.98875 7.03179 7.52928 6.58121 8.33849 6.3281C9.07899 6.09645 9.33714 6.09768 10.1381 6.33589ZM47.9751 7.22911V8.32307H50.9863H53.9976V7.22911V6.13515H50.9863H47.9751V7.22911ZM36.7902 9.03551C36.341 10.3358 34.8395 14.7391 33.4537 18.8204C31.621 24.2179 30.8966 26.19 30.7971 26.0534C30.7218 25.9502 29.9255 24.5324 29.0274 22.9028C28.1295 21.2732 27.3422 19.9573 27.278 19.9788C27.2138 20.0001 25.792 22.5399 24.1185 25.6228L21.0759 31.2278L12.4542 31.2962L3.83253 31.3646L2.94284 31.7878C1.8121 32.3255 0.961828 33.1749 0.423631 34.3046L0 35.1934V50.5772V65.961L0.317689 66.7469C0.942118 68.2917 2.48581 69.5412 4.15912 69.8562C5.17734 70.0479 64.7663 70.0479 65.7846 69.8562C67.294 69.5721 68.766 68.4915 69.439 67.1736C70.0161 66.0434 70.0278 65.6762 69.9849 50.0986L69.9437 35.1934L69.52 34.3046C68.9818 33.1749 68.1316 32.3255 67.0008 31.7878L66.1111 31.3646L56.7525 31.2962L47.394 31.2278L42.5678 19.0167C39.9135 12.3006 37.7114 6.77539 37.6743 6.73833C37.6374 6.70141 37.2395 7.73507 36.7902 9.03551ZM61.0945 6.82038C59.6043 7.05545 58.0888 7.82368 57.0209 8.88509C56.3286 9.57333 55.4399 10.8835 55.3072 11.4116C55.2231 11.7468 55.1783 11.7652 54.6415 11.6871C53.8733 11.5753 52.625 11.7945 51.8346 12.1801C51.0152 12.5799 49.9119 13.6792 49.5151 14.4912C48.2615 17.057 49.3806 20.1992 51.9743 21.3957L52.8342 21.7924L57.8986 21.8354C61.2949 21.8641 63.2335 21.8269 63.7842 21.7223C66.6678 21.1745 69.1837 18.6472 69.7475 15.732C70.1079 13.8678 69.6602 11.6748 68.5901 10.0642C67.0064 7.68078 63.9703 6.36666 61.0945 6.82038ZM21.6949 8.93842V9.96401H25.6643H29.6337V8.93842V7.91284H25.6643H21.6949V8.93842ZM0.068438 9.27208V10.396L0.444847 10.3256C0.651941 10.2867 1.11376 10.2166 1.47142 10.1695L2.12158 10.0839V9.20357C2.12158 8.38201 2.10091 8.32293 1.81361 8.32184C1.64416 8.32129 1.18234 8.28191 0.787037 8.23446L0.068438 8.14817V9.27208ZM63.4421 8.92858C68.6225 10.0384 69.3823 17.0272 64.5701 19.3046L63.6474 19.7413L58.6514 19.785C53.2122 19.8328 52.9443 19.8044 52.1395 19.0986C50.6435 17.7864 50.6941 15.4586 52.243 14.3377C53.3292 13.5515 54.3651 13.4937 55.7636 14.141C56.1693 14.3288 56.5279 14.4558 56.5605 14.4231C56.5932 14.3906 56.7151 13.943 56.8315 13.4289C57.3654 11.0705 58.9628 9.38941 61.1152 8.92023C62.1141 8.70254 62.3914 8.70363 63.4421 8.92858ZM16.2223 10.8412C16.1354 11.2591 16.0636 11.6458 16.0627 11.7005C16.0602 11.8615 17.7576 12.448 17.8779 12.3278C18.0664 12.1395 18.4398 10.4857 18.3191 10.3741C18.2561 10.3159 17.794 10.2261 17.2924 10.1749L16.3801 10.0815L16.2223 10.8412ZM1.57407 12.1367C1.08474 12.3245 0.664944 12.4908 0.641264 12.5062C0.597875 12.5345 1.32469 13.9861 1.54205 14.3054C1.62828 14.4319 1.87192 14.3258 2.48498 13.8945L3.31158 13.3129L2.88767 12.5541L2.46377 11.7954L1.57407 12.1367ZM43.5952 27.1939C46.698 35.0533 49.2674 41.5607 49.3049 41.6546C49.3582 41.7882 48.7266 41.8256 46.4156 41.8256H43.4581V42.8512V43.8767H48.3857H53.3132V42.8512V41.8256H52.4449H51.5765L49.967 37.7574C49.0818 35.5199 48.3264 33.6124 48.2885 33.5183C48.2343 33.3842 49.0023 33.3474 51.8614 33.3474H55.5032V47.227V61.1066H32.7134H9.92351V47.227V33.3474H14.9251H19.9267L19.2709 34.5522C18.9102 35.2149 17.876 37.1218 16.9726 38.7898L15.3301 41.8226L13.8587 41.8241L12.3873 41.8256V42.8512V43.8767H17.3148H22.2424V42.8512V41.8256H19.9725C18.5781 41.8256 17.7202 41.7748 17.7483 41.694C17.8686 41.3467 27.2487 24.1856 27.3181 24.1856C27.3621 24.1855 28.2828 25.7868 29.3642 27.7439C30.5306 29.8549 31.368 31.2315 31.4228 31.1283C31.4737 31.0326 32.9194 26.8118 34.6357 21.7487C36.4268 16.4647 37.7982 12.62 37.8549 12.7235C37.9091 12.8228 40.4922 19.3345 43.5952 27.1939ZM14.5243 14.0119L13.9922 14.6155L14.6893 15.3519L15.3865 16.0884L16.0769 15.359C16.4566 14.9579 16.7673 14.5731 16.7673 14.5041C16.7673 14.3666 15.3303 13.3747 15.1611 13.3955C15.1035 13.4026 14.817 13.6801 14.5243 14.0119ZM3.83896 15.3337C3.49595 15.7253 3.23575 16.1081 3.26052 16.1843C3.31267 16.3444 4.71251 17.3482 4.88374 17.3482C5.08933 17.3482 5.90141 15.535 5.72347 15.4733C5.63423 15.4423 5.31394 15.238 5.01185 15.0193L4.46243 14.6217L3.83896 15.3337ZM11.8388 15.8875C11.4253 16.0404 11.0642 16.1826 11.0365 16.2035C11.0087 16.2243 11.0922 16.6745 11.2221 17.204C11.4505 18.1357 11.4698 18.1639 11.8201 18.0819C12.409 17.9438 13.4823 17.4608 13.4823 17.3337C13.4823 17.2691 13.2818 16.8546 13.0365 16.4128L12.5908 15.6092L11.8388 15.8875ZM7.28276 17.1623C7.16574 17.6782 7.1129 18.1448 7.16532 18.1991C7.21761 18.2533 7.70557 18.3391 8.24979 18.3895L9.23913 18.4814V17.4363V16.391L8.86273 16.3895C8.65563 16.3887 8.26334 16.3512 7.99082 16.3061L7.4952 16.2242L7.28276 17.1623ZM37.9186 23.3115C37.4691 23.4945 37.0544 23.6911 36.9969 23.7486C36.9148 23.8306 39.6445 30.796 39.8415 31.0069C39.9155 31.0863 41.5364 30.4585 41.6243 30.3163C41.6792 30.2278 38.9165 23.1834 38.7554 23.0011C38.7447 22.989 38.3681 23.1286 37.9186 23.3115ZM3.90097 24.2538V25.2794H7.32287H10.7448V24.2538V23.2283H7.32287H3.90097V24.2538ZM12.7979 24.2538V25.2794H13.9614H15.1248V24.2538V23.2283H13.9614H12.7979V24.2538ZM24.7403 33.3734C24.2809 34.2186 23.9357 34.9599 23.9733 35.0206C24.0109 35.0814 24.4025 35.3132 24.8436 35.5356L25.6454 35.9399L25.9091 35.4984C26.4431 34.6041 27.3068 32.9683 27.3065 32.852C27.3062 32.7587 26.186 32.0911 25.6656 31.8741C25.6162 31.8534 25.1998 32.528 24.7403 33.3734ZM41.5491 32.6073C41.1391 32.7933 40.775 32.9739 40.7402 33.0088C40.6898 33.059 41.3527 34.9373 41.4771 35.097C41.4944 35.1192 41.9209 34.9723 42.425 34.7708C43.2608 34.4364 43.3343 34.3752 43.2593 34.0762C43.1208 33.5252 42.5219 32.2529 42.4049 32.2614C42.3442 32.2656 41.9592 32.4213 41.5491 32.6073ZM7.87037 47.2404V61.1334L6.05677 61.0818C4.53553 61.0385 4.15487 60.9834 3.69565 60.7398C2.99416 60.3678 2.6183 59.9599 2.26995 59.1922C1.9962 58.5889 1.99073 58.356 1.98854 47.2954C1.98703 39.7548 2.03439 35.8407 2.13143 35.4914C2.31704 34.824 3.12844 33.9228 3.83253 33.6026C4.2693 33.4039 4.73317 33.3527 6.1252 33.3504L7.87037 33.3474V47.2404ZM66.1111 33.6026C66.8152 33.9228 67.6266 34.824 67.8122 35.4914C67.9093 35.8407 67.9566 39.7548 67.9551 47.2954C67.9529 58.356 67.9475 58.5889 67.6737 59.1922C67.3263 59.9577 66.9516 60.3656 66.248 60.7438C65.7284 61.0232 65.4933 61.0404 61.6284 61.0799L57.5564 61.1216V47.2345V33.3474L61.56 33.3504C65.1374 33.3531 65.6219 33.3799 66.1111 33.6026ZM12.2504 36.3558V37.4588L13.7903 37.4201L15.3301 37.3814V36.3558V35.3302L13.7903 35.2915L12.2504 35.2528V36.3558ZM29.4604 37.8632C27.7134 38.3041 26.1953 39.7041 25.6396 41.387C25.3243 42.3421 25.1814 44.8262 25.3616 46.2184C25.4362 46.7953 25.6652 47.6365 25.8742 48.1017C26.3859 49.2407 27.6655 50.4439 28.8078 50.86L29.6337 51.1609V54.0142V56.8675H30.7287H31.8237V54.0221V51.1767L32.7476 50.8135C33.2915 50.5997 33.6914 50.5076 33.7197 50.5898C33.8373 50.9305 34.6882 51.9071 35.2214 52.3134C35.5426 52.558 36.1105 52.8665 36.4836 52.9989L37.1618 53.2395V55.0536V56.8675H38.2569H39.3519V55.0536V53.2395L40.0394 52.9956C41.4116 52.5088 42.8173 50.9802 43.2011 49.5577C43.4478 48.6433 43.2981 46.9262 42.8967 46.0644C41.8327 43.7802 39.1943 42.6146 36.7692 43.3572C36.2177 43.5261 36.072 43.3756 36.0689 42.633C36.0638 41.4451 35.134 39.6963 34.0808 38.8938C33.1779 38.2058 32.1644 37.837 31.0291 37.7831C30.4499 37.7558 29.744 37.7917 29.4604 37.8632ZM31.836 39.9619C32.6214 40.2423 33.2891 40.8368 33.6648 41.5901C33.975 42.2117 34.0137 42.4561 34.0137 43.7874C34.0137 45.1055 33.9728 45.369 33.673 45.9826C33.4855 46.3662 33.2925 46.9877 33.2439 47.3637C33.1953 47.7398 33.0563 48.1615 32.9348 48.3007C32.7335 48.5317 32.0762 48.9363 31.9024 48.9363C31.863 48.9363 31.8137 47.9672 31.7929 46.7826L31.7552 44.6288H30.7287H29.7021L29.6645 46.7826C29.6437 47.9672 29.5944 48.9363 29.555 48.9363C29.3462 48.9363 28.6906 48.4938 28.3061 48.0933C27.5479 47.3037 27.4437 46.8638 27.4437 44.4549C27.4437 42.4081 27.4628 42.2511 27.7925 41.5901C28.3525 40.4674 29.4611 39.7864 30.7287 39.7864C31.0674 39.7864 31.5658 39.8653 31.836 39.9619ZM3.90097 44.9707V48.9363H4.92754H5.95411V44.9707V41.0051H4.92754H3.90097V44.9707ZM61.4463 44.2729C59.7571 45.0395 59.0423 47.0254 59.8744 48.6412C61.1064 51.0337 64.5265 50.9315 65.6462 48.4688C66.1466 47.368 65.8117 45.6841 64.9315 44.8766C64.0397 44.0582 62.5051 43.7925 61.4463 44.2729ZM39.1559 45.3082C41.4279 45.9841 42.0368 49.0632 40.198 50.5774C39.3969 51.2372 39.3519 51.1789 39.3519 49.4833V47.9791H38.2569H37.1618V49.4833C37.1618 50.3106 37.128 50.9875 37.0866 50.9875C36.8366 50.9875 36.1668 50.5106 35.8692 50.1208C35.2383 49.2944 35.1877 48.9373 35.5885 48.1402C35.7831 47.7529 35.9786 47.1304 36.0229 46.757C36.1182 45.9532 36.4509 45.582 37.3183 45.3116C38.099 45.0682 38.3477 45.0678 39.1559 45.3082ZM63.4919 46.4251C64.2284 47.1611 63.7355 48.3073 62.6824 48.3073C61.6553 48.3073 61.2025 47.0614 61.9851 46.3887C62.4852 45.9591 63.0387 45.9725 63.4919 46.4251ZM48.855 48.1601C48.8149 48.2645 48.8008 48.7432 48.8236 49.2242L48.8648 50.0986H50.5757H52.2867V49.073V48.0475L50.6072 48.009C49.2755 47.9785 48.9128 48.0099 48.855 48.1601ZM13.0717 50.2354V51.261H19.1626H25.2536V50.2354V49.2098H19.1626H13.0717V50.2354ZM3.90097 52.1498V53.3121H4.92754H5.95411V52.1498V50.9875H4.92754H3.90097V52.1498ZM43.7319 53.7224V54.8163H46.6747H49.6176V53.7224V52.6284H46.6747H43.7319V53.7224ZM18.6836 54.6112V55.6368H21.7633H24.843V54.6112V53.5856H21.7633H18.6836V54.6112ZM14.0298 57.8247V58.9187H16.7673H19.5048V57.8247V56.7308H16.7673H14.0298V57.8247ZM2.58942 62.4855C3.77655 63.1853 2.28624 63.1545 34.9718 63.1545C67.6574 63.1545 66.1671 63.1853 67.3542 62.4855C67.6202 62.3288 67.8651 62.2006 67.8983 62.2006C67.9317 62.2006 67.9576 62.9237 67.956 63.8073C67.9535 65.128 67.9033 65.5236 67.6737 66.0294C67.3263 66.7949 66.9516 67.2028 66.248 67.5811L65.7005 67.8755H34.9718H4.24316L3.69565 67.5811C2.99211 67.2028 2.61734 66.7949 2.26995 66.0294C2.04041 65.5236 1.99018 65.128 1.98771 63.8073C1.98607 62.9237 2.01194 62.2006 2.04534 62.2006C2.0786 62.2006 2.32347 62.3288 2.58942 62.4855Z" fill="white"/>
</svg>
