<svg width="70" height="70" viewBox="0 0 70 70" fill="none" xmlns="http://www.w3.org/2000/svg">
<path fill-rule="evenodd" clip-rule="evenodd" d="M20.6401 0.346472L20.2929 0.692802V8.81421V16.9355H19.7273H19.1616V12.7658V8.59603L18.8144 8.2497C18.4702 7.90605 18.4455 7.90323 15.7677 7.90323C13.0899 7.90323 13.0651 7.90605 12.7209 8.2497L12.3737 8.59603V12.7569V16.9178L7.81313 16.9619L3.25253 17.006L2.36147 17.4883C1.37172 18.0239 0.945495 18.4633 0.381111 19.5313L0 20.252V38.3871V56.5222L0.381111 57.2429C0.945495 58.3108 1.37172 58.7503 2.36147 59.2859L3.25253 59.7681L15.5083 59.8071L27.764 59.8462L27.0216 62.0652L26.279 64.2843L24.1216 64.3548C21.4112 64.4435 21.4242 64.4336 21.4242 66.4169V67.7419H15.5492H9.674L9.32697 68.0884C8.86766 68.5467 8.86766 69.1953 9.32697 69.6535L9.674 70H35H60.326L60.673 69.6535C61.1323 69.1953 61.1323 68.5467 60.673 68.0884L60.326 67.7419H54.4508H48.5758V66.4169C48.5758 64.4336 48.5888 64.4435 45.8784 64.3548L43.721 64.2843L42.9784 62.0652L42.236 59.8462L54.4917 59.8071L66.7475 59.7681L67.6385 59.2859C68.6283 58.7503 69.0545 58.3108 69.6189 57.2429L70 56.5222V38.3871V20.252L69.6189 19.5313C69.0538 18.4622 68.6266 18.022 67.6501 17.5027C66.8875 17.0969 66.5983 17.0258 65.4714 16.967L64.172 16.8992L64.8575 15.9061C67.0592 12.7166 67.2411 8.57218 65.3309 5.12764C64.5961 3.80258 62.6808 1.92345 61.3737 1.24518C59.5979 0.32375 58.5169 0.0692944 56.4242 0.0800202C54.3247 0.0908872 53.1958 0.378085 51.4511 1.34482C50.1802 2.04919 48.3665 3.85931 47.6607 5.12764C45.7438 8.5726 45.9296 12.7149 48.145 15.9243L48.843 16.9355H41.9215H35V11.0723V5.20893L34.6528 4.8626C34.3086 4.51895 34.2839 4.51613 31.6061 4.51613C28.9282 4.51613 28.9035 4.51895 28.5593 4.8626L28.2121 5.20893V11.0723V16.9355H27.6465H27.0808V8.81421V0.692802L26.7336 0.346472C26.3894 0.00282258 26.3647 0 23.6869 0C21.0091 0 20.9843 0.00282258 20.6401 0.346472ZM24.8182 15.2419V28.2258H23.6869H22.5556V15.2419V2.25806H23.6869H24.8182V15.2419ZM55.3636 6.03468V9.67016L52.7438 12.2796C50.6215 14.3936 50.0968 14.8489 49.9806 14.6774C49.6656 14.2125 49.1664 13.1542 48.9156 12.4194C48.5486 11.3444 48.5475 8.98427 48.9133 7.90323C49.5529 6.01294 50.8726 4.29865 52.3556 3.43127C53.129 2.97895 54.6048 2.41669 55.0455 2.40653L55.3636 2.39919V6.03468ZM59.0862 2.72788C60.3772 3.19544 61.2021 3.71423 62.0954 4.62C62.9996 5.53692 63.4836 6.31101 63.9434 7.57524C64.5186 9.15659 64.7742 9.03226 60.9495 9.03226H57.6263V5.71573C57.6263 1.89875 57.5017 2.15377 59.0862 2.72788ZM32.7374 17.5V28.2258H31.6061H30.4747V17.5V6.77419H31.6061H32.7374V17.5ZM16.899 19.1935V28.2258H15.7677H14.6364V19.1935V10.1613H15.7677H16.899V19.1935ZM64.2727 11.5662C64.2727 11.9772 63.669 13.5593 63.221 14.3222C62.6692 15.2618 61.3456 16.5173 60.3652 17.0307C58.9028 17.7969 58.1243 17.9897 56.4949 17.9899C54.8222 17.99 53.6706 17.6843 52.462 16.9194L51.7829 16.4897L54.385 13.8899L56.9871 11.2903H60.6299C64.1501 11.2903 64.2727 11.2996 64.2727 11.5662ZM12.3737 23.7097V28.2258H11.8081H11.2424V24.6207V21.0154L10.8953 20.6691C10.5511 20.3254 10.5263 20.3226 7.84848 20.3226C5.17067 20.3226 5.14592 20.3254 4.80172 20.6691L4.45455 21.0154V25.4032V29.7911L4.80172 30.1374L5.14875 30.4839H23.6869H42.225L42.572 30.1374L42.9192 29.7911V25.4032V21.0154L42.572 20.6691C42.2278 20.3254 42.2031 20.3226 39.5252 20.3226C36.8474 20.3226 36.8227 20.3254 36.4785 20.6691L36.1313 21.0154V24.6207V28.2258H35.5657H35V23.7097V19.1935H43.3898H51.7795L52.6787 19.5582C53.7676 19.9998 55.3793 20.3226 56.4949 20.3226C57.6106 20.3226 59.2223 19.9998 60.3111 19.5582C61.1551 19.216 61.357 19.1935 63.5946 19.1935C66.3092 19.1935 66.6947 19.2892 67.3298 20.1202L67.7374 20.6534L67.7746 35.7299L67.8119 50.8064H35.0018H2.19192V35.9265C2.19192 25.7295 2.23943 20.9215 2.34281 20.6493C2.42568 20.4308 2.63257 20.101 2.8024 19.9166C3.42576 19.2391 3.68073 19.205 8.16667 19.1991L12.3737 19.1935V23.7097ZM20.2929 23.7097V28.2258H19.7273H19.1616V23.7097V19.1935H19.7273H20.2929V23.7097ZM28.2121 23.7097V28.2258H27.6465H27.0808V23.7097V19.1935H27.6465H28.2121V23.7097ZM48.8982 24.0315C46.6012 26.3238 46.3131 26.6627 46.3131 27.0721C46.3131 27.6875 46.8499 28.2258 47.4637 28.2258C47.8639 28.2258 48.1999 27.9483 50.1978 25.9677L52.4754 23.7097H57.5321H62.5886L62.9357 23.3632C63.1546 23.1449 63.2828 22.8556 63.2828 22.5806C63.2828 22.3057 63.1546 22.0164 62.9357 21.7981L62.5886 21.4516H57.0359H51.4832L48.8982 24.0315ZM8.9798 25.4032V28.2258H7.84848H6.71717V25.4032V22.5806H7.84848H8.9798V25.4032ZM40.6566 25.4032V28.2258H39.5252H38.3939V25.4032V22.5806H39.5252H40.6566V25.4032ZM4.80172 31.9594C4.58281 32.1777 4.45455 32.467 4.45455 32.7419C4.45455 33.0169 4.58281 33.3062 4.80172 33.5245L5.14875 33.871H11.8081H18.4674L18.8144 33.5245C19.2738 33.0662 19.2738 32.4176 18.8144 31.9594L18.4674 31.6129H11.8081H5.14875L4.80172 31.9594ZM20.6401 31.9594C20.4212 32.1777 20.2929 32.467 20.2929 32.7419C20.2929 33.0169 20.4212 33.3062 20.6401 33.5245C20.9433 33.8272 21.1138 33.871 21.9899 33.871C22.866 33.871 23.0365 33.8272 23.3397 33.5245C23.5586 33.3062 23.6869 33.0169 23.6869 32.7419C23.6869 32.467 23.5586 32.1777 23.3397 31.9594C23.0365 31.6567 22.866 31.6129 21.9899 31.6129C21.1138 31.6129 20.9433 31.6567 20.6401 31.9594ZM42.9192 32.9264C42.2647 33.1323 41.0348 34.3713 40.8606 35C40.7394 35.4378 40.0486 36.001 34.7862 39.9532L28.8485 44.4123L28.1912 43.8255C26.7373 42.5277 24.9882 42.5868 23.5824 43.9815L22.8414 44.7164L17.0295 42.3L11.2175 39.8835L10.9302 39.2735C10.3815 38.1088 9.06648 37.2581 7.81454 37.2581C6.08137 37.2581 4.45455 38.8853 4.45455 40.6186C4.45455 41.533 4.77131 42.241 5.51034 42.9786C6.95149 44.4167 8.75057 44.4074 10.2156 42.954L10.9566 42.219L16.7685 44.6354L22.5804 47.052L22.8678 47.662C23.6009 49.2185 25.337 49.9943 26.9937 49.5058C27.7302 49.2886 28.9503 48.1023 29.1394 47.4194C29.2606 46.9816 29.9514 46.4183 35.2138 42.4662L41.1515 38.007L41.8088 38.5938C43.2255 39.8584 44.9906 39.8268 46.3573 38.5121L47.0397 37.8556L52.9596 41.3037C58.4356 44.493 58.8868 44.7848 58.9769 45.1943C59.0343 45.4548 59.3729 45.9331 59.7998 46.3565C60.8151 47.3636 61.8667 47.6397 63.1957 47.2477C63.9725 47.0187 65.144 45.8496 65.3735 45.0744C65.7652 43.7511 65.489 42.6962 64.4897 41.6988C63.0837 40.2957 61.2719 40.2764 59.8448 41.6492L59.1623 42.3057L53.2424 38.8576C47.7664 35.6682 47.3152 35.3765 47.2251 34.967C47.0882 34.345 45.8272 33.1295 45.0947 32.9135C44.3997 32.7086 43.5964 32.7134 42.9192 32.9264ZM44.8346 35.3465C45.0536 35.5648 45.1818 35.8541 45.1818 36.129C45.1818 36.4039 45.0536 36.6933 44.8346 36.9116C44.6159 37.1301 44.326 37.2581 44.0505 37.2581C43.775 37.2581 43.4851 37.1301 43.2664 36.9116C43.0475 36.6933 42.9192 36.4039 42.9192 36.129C42.9192 35.8541 43.0475 35.5648 43.2664 35.3465C43.4851 35.128 43.775 35 44.0505 35C44.326 35 44.6159 35.128 44.8346 35.3465ZM8.63263 39.8626C9.33418 40.5626 8.83711 41.7742 7.84848 41.7742C7.26713 41.7742 6.71717 41.2253 6.71717 40.6452C6.71717 40.065 7.26713 39.5161 7.84848 39.5161C8.12396 39.5161 8.41386 39.6441 8.63263 39.8626ZM62.9357 43.2497C63.1546 43.468 63.2828 43.7573 63.2828 44.0323C63.2828 44.3072 63.1546 44.5965 62.9357 44.8148C62.7169 45.0333 62.427 45.1613 62.1515 45.1613C61.876 45.1613 61.5861 45.0333 61.3674 44.8148C61.1485 44.5965 61.0202 44.3072 61.0202 44.0323C61.0202 43.7573 61.1485 43.468 61.3674 43.2497C61.5861 43.0312 61.876 42.9032 62.1515 42.9032C62.427 42.9032 62.7169 43.0312 62.9357 43.2497ZM48.9229 44.3787C48.704 44.5971 48.5758 44.8864 48.5758 45.1613C48.5758 45.4362 48.704 45.7255 48.9229 45.9439C49.2608 46.2812 49.3268 46.2903 51.404 46.2903C53.4813 46.2903 53.5473 46.2812 53.8852 45.9439C54.1041 45.7255 54.2323 45.4362 54.2323 45.1613C54.2323 44.8864 54.1041 44.5971 53.8852 44.3787C53.5473 44.0414 53.4813 44.0323 51.404 44.0323C49.3268 44.0323 49.2608 44.0414 48.9229 44.3787ZM26.7336 45.5078C27.4352 46.2078 26.9381 47.4194 25.9495 47.4194C25.3681 47.4194 24.8182 46.8705 24.8182 46.2903C24.8182 45.7101 25.3681 45.1613 25.9495 45.1613C26.225 45.1613 26.5149 45.2893 26.7336 45.5078ZM44.3977 47.7658C44.1788 47.9841 44.0505 48.2735 44.0505 48.5484C44.0505 48.8233 44.1788 49.1126 44.3977 49.3309L44.7447 49.6774H49.1414H53.5381L53.8852 49.3309C54.1041 49.1126 54.2323 48.8233 54.2323 48.5484C54.2323 48.2735 54.1041 47.9841 53.8852 47.7658L53.5381 47.4194H49.1414H44.7447L44.3977 47.7658ZM67.7852 54.6071C67.7336 56.2739 67.6107 56.5881 66.7637 57.2191L66.3731 57.5101H35.014H3.65471L3.12044 57.1033C2.37604 56.5367 2.19192 56.0027 2.19192 54.4098V53.0645H35.0124H67.8331L67.7852 54.6071ZM4.80172 54.54C4.58281 54.7583 4.45455 55.0477 4.45455 55.3226C4.45455 55.5975 4.58281 55.8868 4.80172 56.1051L5.14875 56.4516H8.9798H12.8108L13.1579 56.1051C13.6172 55.6469 13.6172 54.9983 13.1579 54.54L12.8108 54.1936H8.9798H5.14875L4.80172 54.54ZM14.9835 54.54C14.7646 54.7583 14.6364 55.0477 14.6364 55.3226C14.6364 55.5975 14.7646 55.8868 14.9835 56.1051C15.2867 56.4079 15.4573 56.4516 16.3333 56.4516C17.2094 56.4516 17.3799 56.4079 17.6831 56.1051C17.902 55.8868 18.0303 55.5975 18.0303 55.3226C18.0303 55.0477 17.902 54.7583 17.6831 54.54C17.3799 54.2373 17.2094 54.1936 16.3333 54.1936C15.4573 54.1936 15.2867 54.2373 14.9835 54.54ZM40.5982 62.1321L41.3423 64.3548H34.9994H28.6564L29.3536 62.2732C29.737 61.1282 30.0809 60.1114 30.1177 60.0133C30.17 59.8734 31.2268 59.8429 35.0194 59.8722L39.8542 59.9093L40.5982 62.1321ZM46.3131 67.1774V67.7419H35H23.6869V67.1774V66.6129H35H46.3131V67.1774Z" fill="white"/>
</svg>
