<svg width="69" height="70" viewBox="0 0 69 70" fill="none" xmlns="http://www.w3.org/2000/svg">
<path fill-rule="evenodd" clip-rule="evenodd" d="M9.17865 0.209641C7.38319 0.771875 6.21441 2.07965 5.87815 3.90237C5.77693 4.45148 5.72932 9.17735 5.72932 18.6955V32.6818H6.88883H8.04833L8.05161 18.7046C8.05338 10.8079 8.10876 4.49413 8.17888 4.19107C8.34967 3.45345 8.70775 3.00495 9.41519 2.64271L10.0159 2.33514H37.1924C56.0621 2.33514 64.4863 2.37956 64.7529 2.48058C65.2755 2.67838 65.8815 3.26823 66.1086 3.80025C66.2658 4.16824 66.296 8.13477 66.2943 28.0639L66.2919 51.8877L65.9873 52.4216C65.5958 53.1076 65.111 53.4622 64.3673 53.6061C64.0403 53.6694 58.3249 53.7238 51.6662 53.7271L39.5596 53.7331V54.8997V56.0664L52.2119 56.0274L64.8641 55.9886L65.6344 55.6765C67.0912 55.0863 68.1547 53.8351 68.4767 52.3325C68.5887 51.8103 68.6193 45.0493 68.589 27.5557L68.5472 3.49706L68.1874 2.74523C67.5703 1.45563 66.5146 0.563959 65.1855 0.209368C64.1384 -0.0699032 10.0705 -0.0697665 9.17865 0.209641ZM10.4634 4.7451C10.4106 4.798 10.3673 5.32305 10.3673 5.91208V6.98283H11.6005H12.8338L12.7941 5.85508L12.7546 4.72733L11.657 4.6881C11.0532 4.6665 10.5162 4.69206 10.4634 4.7451ZM15.1418 5.8209V6.98283H16.3013H17.4608V5.8209V4.65898H16.3013H15.1418V5.8209ZM19.7798 5.8209V6.98283H20.9393H22.0988V5.8209V4.65898H20.9393H19.7798V5.8209ZM10.4583 9.39785C10.4083 9.44788 10.3673 9.97074 10.3673 10.5598V11.6305H37.1724H63.9774V10.4686V9.30667H37.2634C22.5705 9.30667 10.5083 9.34768 10.4583 9.39785ZM10.8477 15.5111C10.6684 15.6907 10.4838 16.0443 10.4373 16.2971C10.3909 16.5498 10.3716 19.3815 10.3942 22.5895L10.4356 28.4225L10.7662 28.775L11.097 29.1277L18.5417 29.1233C24.179 29.12 26.0391 29.0786 26.2031 28.9524C26.7116 28.5612 26.7368 28.291 26.7368 23.2482V18.3076L26.3381 17.908L25.9394 17.5085H23.0946H20.2499L19.2987 16.5415C18.7755 16.0096 18.1817 15.4867 17.9792 15.3796C17.6902 15.2267 16.9157 15.1846 14.3921 15.1846C11.1809 15.1846 11.1727 15.1854 10.8477 15.5111ZM29.4546 15.5842L29.0559 15.9838V22.0841C29.0559 28.5059 29.0834 28.8149 29.6758 29.0428C29.7973 29.0894 33.1982 29.1277 37.2334 29.1277C44.4492 29.1277 44.576 29.123 44.9295 28.8443L45.2889 28.5611V23.456C45.2889 20.6483 45.2507 18.2514 45.2042 18.1298C45.0019 17.6016 44.4604 17.5085 41.5874 17.5085H38.8271L37.6422 16.3465L36.4573 15.1846H33.1553H29.8533L29.4546 15.5842ZM48.0902 15.5091C47.8963 15.7034 47.7309 16.074 47.6783 16.4318C47.63 16.7609 47.6097 19.6036 47.6333 22.7491L47.6761 28.4681L48.0589 28.798L48.4417 29.1277L55.8344 29.1233C61.4306 29.12 63.2798 29.0785 63.4437 28.9524C63.9522 28.5612 63.9774 28.291 63.9774 23.2482V18.3076L63.5787 17.908L63.18 17.5085H60.3528H57.5257L56.3229 16.3465L55.12 15.1846H51.767C48.4196 15.1846 48.4135 15.1852 48.0902 15.5091ZM18.1505 18.6704L19.3354 19.8323H21.8766H24.4178V23.3181V26.8038H18.6203H12.8228V22.1562V17.5085H14.8942H16.9656L18.1505 18.6704ZM36.7104 18.6704L37.9132 19.8323H40.4415H42.9699V23.3181V26.8038H37.1724H31.3749V22.1562V17.5085H33.4412H35.5076L36.7104 18.6704ZM55.3911 18.6704L56.576 19.8323H59.1172H61.6584V23.3181V26.8038H55.8609H50.0634V22.1562V17.5085H52.1348H54.2062L55.3911 18.6704ZM14.365 33.0112C13.9895 33.3344 13.981 33.3747 13.9141 35.1407L13.8459 36.9407L12.7853 37.3611L11.7246 37.7814L10.5902 36.6718C9.32734 35.4365 8.92601 35.2129 8.35526 35.4257C7.9126 35.5908 3.07665 40.364 2.77613 40.9325C2.45106 41.5473 2.65145 41.9513 3.91586 43.2303L5.08709 44.4149L4.64689 45.5093L4.20669 46.6035L2.45488 46.6484C0.819975 46.6902 0.679743 46.7154 0.351535 47.0246L0 47.3561V51.3409V55.3257L0.351944 55.6572C0.67988 55.9662 0.822567 55.9919 2.45638 56.0363L4.20901 56.0839L4.64634 57.171L5.08368 58.2583L3.83769 59.5313C2.53577 60.8617 2.42828 61.0906 2.78595 61.7709C3.08674 62.3428 8.09772 67.264 8.39755 67.2818C9.04319 67.3202 9.27741 67.1765 10.4356 66.0321L11.6633 64.8188L12.5499 65.2033C13.0376 65.4149 13.544 65.6253 13.6753 65.6709C13.8857 65.7439 13.9141 65.9586 13.9141 67.4774C13.9141 69.2 13.9142 69.201 14.3128 69.6004L14.7115 70H18.467C22.3886 70 22.7552 69.9521 23.0383 69.404C23.1214 69.2431 23.2048 68.3555 23.2238 67.4317L23.2583 65.752L24.375 65.301L25.4915 64.8501L26.5576 65.9359C27.6749 67.0739 28.1894 67.4002 28.7092 67.3006C28.8864 67.2666 30.2098 66.0449 31.7669 64.4777C35.1559 61.0669 35.072 61.3414 33.2773 59.5353L32.0422 58.2925L32.4929 57.1763L32.9436 56.0601L34.4826 56.0586C36.3206 56.0567 36.858 55.8858 37.0858 55.231C37.2971 54.6234 37.2971 48.0584 37.0858 47.4508C36.858 46.796 36.3206 46.6251 34.4826 46.6232L32.9436 46.6217L32.4929 45.5055L32.0422 44.3893L33.2773 43.1465C35.069 41.3434 35.1483 41.6095 31.8182 38.248C30.3364 36.7521 28.983 35.4726 28.8106 35.4045C28.3098 35.2069 27.725 35.5565 26.5437 36.7599C25.4764 37.8469 25.4593 37.8575 25.0883 37.6652C24.8818 37.5582 24.3702 37.3422 23.9514 37.1853L23.1901 36.8997V35.1259C23.1901 33.3835 23.1837 33.3463 22.8292 33.017L22.4682 32.6818H18.608H14.7478L14.365 33.0112ZM32.6026 35.0056V36.2359H34.1343H35.6661L36.7971 37.3637L37.9281 38.4914L40.449 38.5364L42.9699 38.5815V42.0563V45.5313H41.2648H39.5596V46.6932V47.8551H41.9536C44.4414 47.8551 45.0078 47.7469 45.2042 47.2338C45.2507 47.1122 45.2889 44.7216 45.2889 41.9215V36.8304L44.9733 36.5331C44.6698 36.2475 44.5462 36.2359 41.7984 36.2359H38.9393L37.8516 35.1395C37.1312 34.4133 36.6023 33.9979 36.286 33.9099C36.0233 33.8368 35.0869 33.7766 34.2054 33.7762L32.6026 33.7754V35.0056ZM48.6138 33.8652C48.4544 33.8989 48.1781 34.082 48 34.272L47.6761 34.6173L47.6366 40.4834C47.6103 44.3684 47.6465 46.5342 47.7438 46.8963C48.0123 47.8955 47.758 47.8669 56.0092 47.8244L63.3191 47.7868L63.6483 47.4032L63.9774 47.0196V42.0995C63.9774 36.9361 63.9353 36.5431 63.3574 36.3208C63.236 36.2742 61.8753 36.2359 60.3337 36.2359H57.5309L56.3115 35.0398L55.0919 33.8437L51.9978 33.8236C50.2962 33.8127 48.7733 33.8313 48.6138 33.8652ZM20.8937 36.6321C20.9467 38.5234 21.0326 38.6885 22.149 39.0461C22.534 39.1696 23.4494 39.5474 24.1831 39.8858C25.1854 40.3482 25.6094 40.4787 25.8882 40.4106C26.0924 40.361 26.7516 39.832 27.3532 39.2353L28.4469 38.1504L30.0725 39.7836L31.6982 41.4169L30.5816 42.5823C29.2689 43.9526 29.2324 44.1144 29.9233 45.5005C30.1754 46.0062 30.5176 46.834 30.6839 47.3402C31.1813 48.8541 31.2042 48.8689 33.1698 48.9487L34.8534 49.0171V51.3409V53.6647L33.189 53.703C31.5933 53.7398 31.5133 53.7556 31.2537 54.0863C31.1048 54.2762 30.8476 54.8432 30.6823 55.3467C30.517 55.8501 30.1754 56.6756 29.9233 57.1813C29.2324 58.5674 29.2689 58.7292 30.5816 60.0995L31.6982 61.2649L30.0725 62.8982L28.4469 64.5314L27.3532 63.4465C26.7516 62.8498 26.0924 62.3208 25.8882 62.2712C25.6094 62.2031 25.1854 62.3336 24.1831 62.7959C23.4494 63.1344 22.534 63.5122 22.149 63.6357C21.0326 63.9933 20.9467 64.1584 20.8937 66.0497L20.8483 67.6761H18.5406H16.2331V66.1226C16.2331 64.2705 16.0953 64.0001 14.9695 63.6425C14.5766 63.5177 13.662 63.1359 12.9371 62.794C11.9186 62.3138 11.533 62.1942 11.24 62.2679C11.0315 62.3204 10.3637 62.8497 9.75594 63.4442L8.65087 64.525L7.02565 62.8922L5.40043 61.2593L6.5197 60.1101C7.85299 58.7414 7.90537 58.4981 7.18089 57.0446C6.9288 56.5389 6.5894 55.7197 6.42653 55.224C5.95181 53.7786 5.87637 53.7331 3.95064 53.7331H2.31901V51.3409V48.9487H3.93222C5.848 48.9487 5.94281 48.8895 6.4594 47.3686C6.6366 46.8469 6.97463 46.0371 7.21035 45.5694C7.9036 44.1943 7.84262 43.9297 6.5197 42.5717L5.40043 41.4225L7.02565 39.7896L8.65087 38.1568L9.75594 39.2376C10.3637 39.8321 11.0243 40.3596 11.224 40.4098C11.4952 40.478 11.9242 40.3456 12.9211 39.8858C13.6547 39.5474 14.5766 39.1674 14.9695 39.0413C16.0956 38.6803 16.2331 38.4102 16.2331 36.5592V35.0056H18.5406H20.8483L20.8937 36.6321ZM55.1825 37.2076C55.7057 37.742 56.3312 38.2649 56.5727 38.3695C56.8908 38.5074 57.6513 38.5598 59.335 38.5598H61.6584V42.0455V45.5313H55.8609H50.0634V40.8836V36.2359H52.1473H54.2313L55.1825 37.2076ZM16.6134 43.4113C13.9542 44.0856 11.6687 46.2476 10.8322 48.8804C10.4178 50.1849 10.3608 52.0941 10.6987 53.3557C11.3155 55.659 12.9241 57.6284 15.0054 58.6285C18.2572 60.1911 21.8691 59.5588 24.4178 56.9807C25.7854 55.5978 26.7321 53.2903 26.7321 51.3409C26.7321 47.9676 24.315 44.6132 21.1538 43.5994C19.9893 43.2259 17.716 43.1317 16.6134 43.4113ZM19.9844 45.7173C21.0892 46.0136 21.9829 46.5439 22.7544 47.3615C24.8696 49.6025 24.9021 53.0232 22.8292 55.2439C19.967 58.3102 15.1346 57.5428 13.3152 53.7331C12.9199 52.9053 12.891 52.7419 12.891 51.3409C12.891 49.9373 12.9193 49.778 13.3174 48.9487C14.0834 47.3524 15.1392 46.4012 16.7591 45.8479C17.7987 45.4929 18.9699 45.4454 19.9844 45.7173Z" fill="white"/>
</svg>
