<svg width="70" height="70" viewBox="0 0 70 70" fill="none" xmlns="http://www.w3.org/2000/svg">
<path fill-rule="evenodd" clip-rule="evenodd" d="M13.6328 0.0754695C12.3327 0.416166 11.1869 1.35866 10.6031 2.56764C10.3271 3.13933 10.2604 3.5042 10.2546 4.4761C10.2483 5.52095 10.298 5.774 10.6346 6.41524C11.1462 7.38969 11.8861 8.11052 12.8092 8.53378L13.5623 8.87928V11.2014V13.5236H8.25059C4.49272 13.5236 2.76897 13.574 2.35797 13.6955C1.58268 13.925 0.413472 15.0961 0.1844 15.8726C-0.0614668 16.706 -0.0614668 35.222 0.1844 36.0554C0.413472 36.8319 1.58268 38.003 2.35797 38.2324C2.76897 38.354 4.49272 38.4043 8.25059 38.4043H13.5623V40.6662V42.9281H8.25059C4.49272 42.9281 2.76897 42.9784 2.35797 43.1C1.58268 43.3294 0.413472 44.5005 0.1844 45.2771C-0.0614668 46.1104 -0.0614668 64.6265 0.1844 65.4598C0.413472 66.2364 1.58268 67.4075 2.35797 67.6369C3.19606 67.8849 30.7033 67.8849 31.5413 67.6369C32.3166 67.4075 33.4858 66.2364 33.7149 65.4598C33.9608 64.6265 33.9608 46.1104 33.7149 45.2771C33.4858 44.5005 32.3166 43.3294 31.5413 43.1C31.1169 42.9745 28.9214 42.9281 23.3905 42.9281H15.8205V40.6662V38.4043H21.1322C24.8901 38.4043 26.6138 38.354 27.0248 38.2324C27.8001 38.003 28.9693 36.8319 29.1984 36.0554C29.441 35.2329 29.4446 16.7036 29.2022 15.8935C29.1099 15.5851 28.7599 15.0268 28.4243 14.6529C27.4217 13.5361 27.3418 13.5236 21.1588 13.5236H15.8205V11.2014V8.87928L16.5615 8.53491C17.505 8.09624 18.3057 7.29427 18.7437 6.34922L19.0875 5.60704H34.0445H49.0014L49.3478 5.9541C49.6816 6.28829 49.6943 6.37128 49.6943 8.21598V10.1308H46.6409C43.0145 10.1308 42.7019 10.1978 41.715 11.1863C40.8661 12.0366 40.6613 12.6235 40.6613 14.2063V15.3508L39.7792 15.9423C38.5795 16.7465 35.8051 19.5769 34.9441 20.8747C31.8294 25.5704 30.8802 31.1351 32.2747 36.5229C33.7951 42.397 38.4109 47.5223 44.0276 49.5728L45.1072 49.9669L45.1778 57.8707L45.2484 65.7742L45.7755 66.8423C46.4104 68.1286 47.2279 68.9301 48.5398 69.5526C49.3924 69.9572 49.6109 70 50.8234 70C52.036 70 52.2544 69.9572 53.1071 69.5526C54.419 68.9301 55.2365 68.1286 55.8713 66.8421L56.3985 65.7741L56.4393 57.8955L56.4802 50.017L57.4978 49.6322C62.0661 47.9054 65.8343 44.5035 68.035 40.1195C68.2834 39.6245 68.7326 38.4794 69.0333 37.5749C70.8924 31.98 70.0459 25.9151 66.7027 20.8747C65.8418 19.5769 63.0674 16.7465 61.8677 15.9423L60.9855 15.3508V14.2063C60.9855 12.7167 60.7841 12.0893 60.0398 11.2601C59.1073 10.2211 58.7067 10.1308 55.0325 10.1308H51.9525V8.2034C51.9525 7.10328 51.8789 6.0262 51.7809 5.69413C51.5518 4.91759 50.3826 3.7465 49.6074 3.51706C49.1673 3.38686 45.3975 3.34516 34.0569 3.34516H19.0875L18.7426 2.59082C18.0534 1.08271 16.5981 0.0855067 14.9737 0.00817857C14.4691 -0.0157126 13.8657 0.0145401 13.6328 0.0754695ZM15.5847 2.40705C17.0348 3.01394 17.3883 4.91816 16.2606 6.04783C15.345 6.96474 14.0378 6.96474 13.1222 6.04783C11.3769 4.29953 13.3027 1.45211 15.5847 2.40705ZM47.436 14.6546V16.9165H50.8234H54.2108V14.6546V12.3927H56.1226C57.9643 12.3927 58.0471 12.4054 58.3808 12.7397L58.7273 13.0867V20.3093V27.5319L58.3808 27.8788L58.0344 28.2259H50.8234H43.6124L43.266 27.8788L42.9195 27.5319V20.3093V13.0867L43.266 12.7397C43.5997 12.4054 43.6825 12.3927 45.5243 12.3927H47.436V14.6546ZM51.9525 13.5236V14.6546H50.8234H49.6943V13.5236V12.3927H50.8234H51.9525V13.5236ZM26.7653 16.1326L27.1118 16.4795V25.964V35.4485L26.7653 35.7954L26.4189 36.1425H14.6914H2.96388L2.61752 35.7954L2.27102 35.4485V25.964V16.4795L2.61752 16.1326L2.96388 15.7855H14.6914H26.4189L26.7653 16.1326ZM18.0788 19.1783V20.3093H15.8205H13.5623V21.4402V22.5712H11.304H9.04578V23.7021V24.833H6.78753H4.52927V29.3568V33.8806H14.6914H24.8535V25.964V18.0474H21.4662H18.0788V19.1783ZM40.6613 19.618V21.0472L39.946 21.8311C35.8883 26.278 35.0116 32.7581 37.7326 38.1923C38.4932 39.7114 38.9704 40.3829 40.2212 41.6942C41.5294 43.0656 42.6553 43.9225 44.1192 44.6606C48.4634 46.8508 53.1465 46.8639 57.457 44.6982C60.1394 43.3505 62.5586 40.9139 63.9163 38.1923C66.6178 32.7772 65.7341 26.2511 61.7009 21.8311L60.9855 21.0472V19.618C60.9855 18.7151 61.04 18.1888 61.1336 18.1888C61.215 18.1888 61.8999 18.8091 62.6554 19.5671C65.1818 22.102 66.6909 24.8844 67.4283 28.3672C67.7449 29.8628 67.7799 33.2126 67.494 34.6581C66.8093 38.1203 65.2246 41.1046 62.7593 43.5737C60.3548 45.9821 57.522 47.5296 54.2108 48.2437C52.7133 48.5667 49.2487 48.6057 47.7889 48.316C44.3339 47.6306 41.3419 46.038 38.8845 43.5768C36.4893 41.1777 35.011 38.4593 34.2143 34.9886C33.8882 33.5681 33.8882 29.7032 34.2143 28.2647C34.9959 24.8159 36.53 22.0277 38.9996 19.5671C39.7605 18.8089 40.4456 18.1888 40.5221 18.1888C40.6044 18.1888 40.6613 18.773 40.6613 19.618ZM22.5953 25.964V31.6187H21.4662H20.337V25.964V20.3093H21.4662H22.5953V25.964ZM18.0788 27.0949V31.6187H16.9497H15.8205V27.0949V22.5712H16.9497H18.0788V27.0949ZM40.9982 28.5476C41.3427 29.2461 42.3366 30.1124 43.0334 30.3215C43.8152 30.5562 57.8316 30.5562 58.6134 30.3215C59.3102 30.1124 60.3041 29.2461 60.6486 28.5476C60.846 28.1475 60.9299 27.5757 60.984 26.2648L61.0561 24.516L61.6618 25.6564C62.8576 27.9084 63.3521 30.0747 63.1972 32.3848C62.7711 38.7429 57.8205 43.6461 51.4586 44.0111C45.2845 44.3652 39.6818 39.916 38.6197 33.8154C38.1162 30.924 38.5113 28.5099 39.937 25.7658L40.5907 24.5073L40.6628 26.2606C40.7169 27.5757 40.8007 28.1473 40.9982 28.5476ZM13.5623 28.2259V31.6187H12.4332H11.304V28.2259V24.833H12.4332H13.5623V28.2259ZM9.04578 29.3568V31.6187H7.91665H6.78753V29.3568V27.0949H7.91665H9.04578V29.3568ZM40.6613 33.8806V35.0115H41.7904H42.9195V33.8806V32.7496H41.7904H40.6613V33.8806ZM45.1778 33.8806V35.0115H46.3069H47.436V33.8806V32.7496H46.3069H45.1778V33.8806ZM49.6943 33.8806V35.0115H50.8234H51.9525V33.8806V32.7496H50.8234H49.6943V33.8806ZM54.2108 33.8806V35.0115H55.3399H56.469V33.8806V32.7496H55.3399H54.2108V33.8806ZM58.7273 33.8806V35.0115H59.8564H60.9855V33.8806V32.7496H59.8564H58.7273V33.8806ZM31.2818 45.537L31.6283 45.884V55.3684V64.8529L31.2818 65.1999L30.9354 65.5469H16.9497H2.96388L2.61752 65.1999L2.27102 64.8529V55.3684V45.884L2.61752 45.537L2.96388 45.19H16.9497H30.9354L31.2818 45.537ZM4.52927 53.1066V58.7613H10.1749H15.8205V53.1066V47.4519H10.1749H4.52927V53.1066ZM18.0788 48.5828V49.7137H23.7244H29.37V48.5828V47.4519H23.7244H18.0788V48.5828ZM13.5623 53.1066V56.4994H10.1749H6.78753V53.1066V49.7137H10.1749H13.5623V53.1066ZM50.8234 50.774C51.7161 50.774 52.8436 50.7231 53.3287 50.6609L54.2108 50.548V57.7129C54.2108 62.9253 54.1641 65.0366 54.0392 65.4598C53.6808 66.6748 52.1283 67.8088 50.8234 67.8088C49.5186 67.8088 47.966 66.6748 47.6077 65.4598C47.4828 65.0366 47.436 62.9253 47.436 57.7129V50.548L48.3182 50.6609C48.8034 50.7231 49.9307 50.774 50.8234 50.774ZM18.0788 53.1066V54.2375H23.7244H29.37V53.1066V51.9756H23.7244H18.0788V53.1066ZM18.0788 57.6303V58.7613H23.7244H29.37V57.6303V56.4994H23.7244H18.0788V57.6303ZM4.52927 62.1541V63.285H16.9497H29.37V62.1541V61.0232H16.9497H4.52927V62.1541Z" fill="white"/>
</svg>
