<svg width="70" height="62" viewBox="0 0 70 62" fill="none" xmlns="http://www.w3.org/2000/svg">
<path fill-rule="evenodd" clip-rule="evenodd" d="M2.20134 0.374049C1.5306 0.586778 0.386587 1.77872 0.180908 2.4792C-0.0603028 3.30083 -0.0603028 49.892 0.180908 50.7136C0.402714 51.469 1.53483 52.6081 2.28553 52.8313C2.71274 52.9582 6.58415 52.9985 18.3777 52.9985H33.9073V56.2988V59.599H25.223H16.5386L16.2032 59.9366C15.7593 60.3831 15.7593 61.0151 16.2032 61.4616L16.5386 61.7992H35.0006H53.4626L53.798 61.4616C54.2419 61.0151 54.2419 60.3831 53.798 59.9366L53.4626 59.599H44.7782H36.0939V56.2988V52.9985H51.6493C69.2672 52.9985 68.019 53.0772 69.0707 51.9001C69.3957 51.5364 69.7346 50.9933 69.824 50.6933C70.0587 49.9053 70.0587 3.28749 69.824 2.49955C69.7346 2.19951 69.3957 1.65648 69.0707 1.29276C67.9933 0.0869256 71.3188 0.192534 34.9421 0.208348C11.838 0.218386 2.54382 0.265415 2.20134 0.374049ZM67.4644 2.73209L67.7999 3.06954V26.5964V50.1233L67.4644 50.4608L67.129 50.7983H35.0006H2.87223L2.53685 50.4608L2.20134 50.1233V26.5964V3.06954L2.53685 2.73209L2.87223 2.3945H35.0006H67.129L67.4644 2.73209ZM13.9551 9.216C10.8587 10.3481 9.95454 14.1902 12.2428 16.4927C13.1456 17.4011 13.9541 17.7228 15.3211 17.718C16.3054 17.7145 16.5892 17.6582 17.1806 17.3498C18.21 16.8131 18.6392 16.396 19.1554 15.4307C19.5779 14.6409 19.6189 14.4608 19.6199 13.3954C19.6213 12.02 19.2999 11.2043 18.3993 10.2981C17.2763 9.16828 15.3612 8.70199 13.9551 9.216ZM24.403 9.33261L24.0675 9.67006V13.3954V17.1207L24.403 17.4581C24.6145 17.671 24.8946 17.7957 25.1608 17.7957C25.4271 17.7957 25.7072 17.671 25.9186 17.4581L26.2541 17.1207V13.3954V9.67006L25.9186 9.33261C25.7072 9.11974 25.4271 8.99502 25.1608 8.99502C24.8946 8.99502 24.6145 9.11974 24.403 9.33261ZM30.9629 9.33261L30.6274 9.67006V13.3954V17.1207L30.9629 17.4581C31.1743 17.671 31.4545 17.7957 31.7207 17.7957C31.9869 17.7957 32.2671 17.671 32.4785 17.4581L32.814 17.1207V13.3954V9.67006L32.4785 9.33261C32.2671 9.11974 31.9869 8.99502 31.7207 8.99502C31.4545 8.99502 31.1743 9.11974 30.9629 9.33261ZM37.5227 9.33261L37.1872 9.67006V13.3954V17.1207L37.5227 17.4581C37.7342 17.671 38.0143 17.7957 38.2805 17.7957C38.5468 17.7957 38.8269 17.671 39.0383 17.4581L39.3739 17.1207V13.3954V9.67006L39.0383 9.33261C38.8269 9.11974 38.5468 8.99502 38.2805 8.99502C38.0143 8.99502 37.7342 9.11974 37.5227 9.33261ZM46.7544 9.216C43.658 10.3481 42.7538 14.1902 45.0421 16.4927C45.9449 17.4011 46.7534 17.7228 48.1203 17.718C49.1047 17.7145 49.3884 17.6582 49.9799 17.3498C51.0093 16.8131 51.4385 16.396 51.9547 15.4307C52.3771 14.6409 52.4181 14.4608 52.4192 13.3954C52.4206 12.02 52.0991 11.2043 51.1985 10.2981C50.0756 9.16828 48.1605 8.70199 46.7544 9.216ZM57.2023 9.33261L56.8668 9.67006V13.3954V17.1207L57.2023 17.4581C57.4137 17.671 57.6939 17.7957 57.9601 17.7957C58.2263 17.7957 58.5065 17.671 58.7179 17.4581L59.0534 17.1207V13.3954V9.67006L58.7179 9.33261C58.5065 9.11974 58.2263 8.99502 57.9601 8.99502C57.6939 8.99502 57.4137 9.11974 57.2023 9.33261ZM16.186 11.3828C17.5901 11.9731 17.9324 13.8254 16.8405 14.9242C15.9539 15.8161 14.6882 15.8161 13.8016 14.9242C12.1116 13.2236 13.9764 10.4539 16.186 11.3828ZM48.9853 11.3828C50.3894 11.9731 50.7317 13.8254 49.6398 14.9242C48.7532 15.8161 47.4874 15.8161 46.6009 14.9242C44.9109 13.2236 46.7757 10.4539 48.9853 11.3828ZM11.2833 22.5337L10.9478 22.8711V26.5964V30.3217L11.2833 30.6592C11.4947 30.872 11.7749 30.9968 12.0411 30.9968C12.3073 30.9968 12.5875 30.872 12.7989 30.6592L13.1344 30.3217V26.5964V22.8711L12.7989 22.5337C12.5875 22.3208 12.3073 22.1961 12.0411 22.1961C11.7749 22.1961 11.4947 22.3208 11.2833 22.5337ZM20.515 22.417C17.4186 23.5492 16.5144 27.3912 18.8027 29.6937C19.7055 30.6021 20.514 30.9239 21.8809 30.9191C22.8653 30.9155 23.149 30.8593 23.7405 30.5508C24.7698 30.0141 25.1991 29.597 25.7153 28.6317C26.1377 27.842 26.1787 27.6619 26.1798 26.5964C26.1812 25.221 25.8597 24.4053 24.9591 23.4991C23.8362 22.3693 21.9211 21.903 20.515 22.417ZM30.9629 22.5337L30.6274 22.8711V26.5964V30.3217L30.9629 30.6592C31.1743 30.872 31.4545 30.9968 31.7207 30.9968C31.9869 30.9968 32.2671 30.872 32.4785 30.6592L32.814 30.3217V26.5964V22.8711L32.4785 22.5337C32.2671 22.3208 31.9869 22.1961 31.7207 22.1961C31.4545 22.1961 31.1743 22.3208 30.9629 22.5337ZM37.5227 22.5337L37.1872 22.8711V26.5964V30.3217L37.5227 30.6592C37.7342 30.872 38.0143 30.9968 38.2805 30.9968C38.5468 30.9968 38.8269 30.872 39.0383 30.6592L39.3739 30.3217V26.5964V22.8711L39.0383 22.5337C38.8269 22.3208 38.5468 22.1961 38.2805 22.1961C38.0143 22.1961 37.7342 22.3208 37.5227 22.5337ZM44.0826 22.5337L43.7471 22.8711V26.5964V30.3217L44.0826 30.6592C44.294 30.872 44.5742 30.9968 44.8404 30.9968C45.1066 30.9968 45.3868 30.872 45.5982 30.6592L45.9337 30.3217V26.5964V22.8711L45.5982 22.5337C45.3868 22.3208 45.1066 22.1961 44.8404 22.1961C44.5742 22.1961 44.294 22.3208 44.0826 22.5337ZM53.3142 22.417C50.2178 23.5492 49.3137 27.3912 51.602 29.6937C52.5048 30.6021 53.3133 30.9239 54.6802 30.9191C55.6646 30.9155 55.9483 30.8593 56.5398 30.5508C57.5691 30.0141 57.9984 29.597 58.5146 28.6317C58.937 27.842 58.978 27.6619 58.9791 26.5964C58.9804 25.221 58.659 24.4053 57.7584 23.4991C56.6354 22.3693 54.7204 21.903 53.3142 22.417ZM22.7459 24.5838C24.1499 25.1741 24.4923 27.0264 23.4003 28.1253C22.5138 29.0172 21.248 29.0172 20.3615 28.1253C18.6715 26.4247 20.5363 23.6549 22.7459 24.5838ZM55.5451 24.5838C56.9492 25.1741 57.2915 27.0264 56.1996 28.1253C55.3131 29.0172 54.0473 29.0172 53.1608 28.1253C51.4708 26.4247 53.3355 23.6549 55.5451 24.5838ZM13.9551 35.6181C10.8587 36.7502 9.95454 40.5923 12.2428 42.8948C13.1456 43.8032 13.9541 44.1249 15.3211 44.1201C16.3054 44.1165 16.5892 44.0603 17.1806 43.7519C18.21 43.2152 18.6392 42.7981 19.1554 41.8328C19.5779 41.043 19.6189 40.8629 19.6199 39.7975C19.6213 38.4221 19.2999 37.6064 18.3993 36.7002C17.2763 35.5704 15.3612 35.1041 13.9551 35.6181ZM24.403 35.7347L24.0675 36.0722V39.7975V43.5228L24.403 43.8602C24.6145 44.0731 24.8946 44.1978 25.1608 44.1978C25.4271 44.1978 25.7072 44.0731 25.9186 43.8602L26.2541 43.5228V39.7975V36.0722L25.9186 35.7347C25.7072 35.5218 25.4271 35.3971 25.1608 35.3971C24.8946 35.3971 24.6145 35.5218 24.403 35.7347ZM30.9629 35.7347L30.6274 36.0722V39.7975V43.5228L30.9629 43.8602C31.1743 44.0731 31.4545 44.1978 31.7207 44.1978C31.9869 44.1978 32.2671 44.0731 32.4785 43.8602L32.814 43.5228V39.7975V36.0722L32.4785 35.7347C32.2671 35.5218 31.9869 35.3971 31.7207 35.3971C31.4545 35.3971 31.1743 35.5218 30.9629 35.7347ZM40.1945 35.6181C37.0981 36.7502 36.194 40.5923 38.4823 42.8948C39.3851 43.8032 40.1936 44.1249 41.5605 44.1201C42.5449 44.1165 42.8286 44.0603 43.4201 43.7519C44.4494 43.2152 44.8787 42.7981 45.3948 41.8328C45.8173 41.043 45.8583 40.8629 45.8594 39.7975C45.8607 38.4221 45.5393 37.6064 44.6387 36.7002C43.5157 35.5704 41.6007 35.1041 40.1945 35.6181ZM50.6424 35.7347L50.3069 36.0722V39.7975V43.5228L50.6424 43.8602C50.8539 44.0731 51.134 44.1978 51.4003 44.1978C51.6665 44.1978 51.9466 44.0731 52.1581 43.8602L52.4936 43.5228V39.7975V36.0722L52.1581 35.7347C51.9466 35.5218 51.6665 35.3971 51.4003 35.3971C51.134 35.3971 50.8539 35.5218 50.6424 35.7347ZM57.2023 35.7347L56.8668 36.0722V39.7975V43.5228L57.2023 43.8602C57.4137 44.0731 57.6939 44.1978 57.9601 44.1978C58.2263 44.1978 58.5065 44.0731 58.7179 43.8602L59.0534 43.5228V39.7975V36.0722L58.7179 35.7347C58.5065 35.5218 58.2263 35.3971 57.9601 35.3971C57.6939 35.3971 57.4137 35.5218 57.2023 35.7347ZM16.186 37.7849C17.5901 38.3752 17.9324 40.2275 16.8405 41.3263C15.3051 42.8713 12.7889 41.4875 13.1929 39.3202C13.4344 38.0256 14.9317 37.2575 16.186 37.7849ZM42.4254 37.7849C43.8295 38.3752 44.1718 40.2275 43.0799 41.3263C41.5445 42.8713 39.0284 41.4875 39.4323 39.3202C39.6738 38.0256 41.1711 37.2575 42.4254 37.7849Z" fill="white"/>
</svg>
