<svg width="70" height="70" viewBox="0 0 70 70" fill="none" xmlns="http://www.w3.org/2000/svg">
<path fill-rule="evenodd" clip-rule="evenodd" d="M15.1667 0.183704C14.4509 0.409329 13.2301 1.67353 13.0107 2.41647C12.7549 3.28251 12.7549 31.7069 13.0107 32.5729C13.2474 33.3741 14.4554 34.5823 15.2565 34.819C15.688 34.9465 17.6635 34.9963 22.2819 34.9963H28.7071L27.9402 37.2934L27.1731 39.5905L25.8366 39.6325L24.5 39.6744V40.8358V41.997H35H45.5V40.8358V39.6744L44.1634 39.6325L42.8269 39.5905L42.0598 37.2934L41.2929 34.9963H47.7454C55.1794 34.9963 55.1368 35.0022 56.1894 33.8313C56.5362 33.4455 56.8979 32.8696 56.9933 32.5514C57.2421 31.7209 57.2421 3.26851 56.9933 2.43806C56.8979 2.11982 56.5362 1.54387 56.1894 1.15811C55.0591 -0.0992387 56.7283 -0.00881386 34.9376 0.00795854C21.3405 0.0184595 15.527 0.0702351 15.1667 0.183704ZM54.4753 2.68469L54.8333 3.0426V15.5192V27.9957H35H15.1667V15.5192V3.0426L15.5247 2.68469L15.8826 2.32663H35H54.1174L54.4753 2.68469ZM32.5847 5.7905C32.2789 7.18625 32.1692 7.40415 31.7154 7.51805C31.4434 7.58631 31.0852 7.43973 30.2457 6.91629L29.1356 6.22439L27.6083 7.7517L26.0811 9.27901L26.7633 10.4028C27.2711 11.2392 27.4226 11.6171 27.3564 11.8811C27.2431 12.3322 27.0174 12.4464 25.6302 12.7529L24.5 13.0028V15.1612V17.3195L25.6302 17.5694C27.0174 17.876 27.2431 17.9902 27.3564 18.4413C27.4226 18.7052 27.2711 19.0831 26.7633 19.9196L26.0811 21.0433L27.6083 22.5706L29.1356 24.0979L30.2457 23.406C31.0852 22.8826 31.4434 22.736 31.7154 22.8043C32.1692 22.9182 32.2789 23.1361 32.5847 24.5318L32.8323 25.6621H35H37.1677L37.4153 24.5318C37.7205 23.1387 37.8311 22.9182 38.2798 22.8054C38.5437 22.7392 38.9216 22.8908 39.758 23.3986L40.8816 24.0809L42.4002 22.562L43.9189 21.0433L43.2511 19.9433C42.8838 19.3384 42.5833 18.7493 42.5833 18.6344C42.5833 18.1647 42.9873 17.9161 44.2247 17.6244L45.5 17.3238V15.1612V12.9985L44.2247 12.698C42.9873 12.4063 42.5833 12.1576 42.5833 11.688C42.5833 11.573 42.8838 10.984 43.2511 10.379L43.9189 9.27901L42.4002 7.7603L40.8816 6.24146L39.758 6.92373C38.9216 7.43157 38.5437 7.5831 38.2798 7.51689C37.8311 7.40415 37.7205 7.18363 37.4153 5.7905L37.1677 4.66018H35H32.8323L32.5847 5.7905ZM22.9714 5.93211C22.1829 6.93219 21.0137 9.167 20.5848 10.4941C20.1582 11.8138 19.8332 13.8265 19.8339 15.1438C19.8348 16.8314 20.3353 19.6042 20.7152 20.0266C20.7772 20.0956 21.1784 20.0377 21.6067 19.8978C22.9461 19.4604 22.8866 19.5561 22.5737 18.3409C21.943 15.8924 22.122 12.897 23.0412 10.5221C23.4112 9.56604 24.2567 8.11982 25.1609 6.89645C25.3852 6.59309 25.367 6.55473 24.7122 5.94845C23.6771 4.9898 23.7141 4.99009 22.9714 5.93211ZM45.4545 5.93007C44.7001 6.58084 44.6587 6.64924 44.8553 6.92081C44.9715 7.08124 45.3044 7.5567 45.5951 7.97733L46.1236 8.74229L46.942 8.28448C48.2549 7.55014 48.2389 7.6216 47.3658 6.40874C46.9411 5.81894 46.5198 5.3127 46.4292 5.28382C46.3388 5.2548 45.9002 5.54577 45.4545 5.93007ZM35.4298 7.54854C35.512 7.85379 35.6199 8.30694 35.6697 8.55575C35.7524 8.96923 35.884 9.05922 37.2057 9.60527C38.0008 9.93371 38.6994 10.2022 38.758 10.2019C38.8166 10.2018 39.2519 9.96799 39.7254 9.68257C40.4658 9.23598 40.6149 9.19208 40.7916 9.369C40.9685 9.54576 40.9246 9.69482 40.4781 10.4353C40.1927 10.9088 39.9589 11.3442 39.9588 11.4028C39.9585 11.4615 40.227 12.1601 40.5554 12.9552C41.1014 14.277 41.1914 14.4087 41.6048 14.4914C42.82 14.7346 43.1667 14.8832 43.1667 15.1612C43.1667 15.4391 42.82 15.5878 41.6048 15.8309C41.1914 15.9136 41.1014 16.0453 40.5554 17.3671C40.227 18.1623 39.9585 18.8609 39.9588 18.9195C39.9589 18.9781 40.1927 19.4135 40.4781 19.887C40.9246 20.6275 40.9685 20.7766 40.7916 20.9533C40.6149 21.1302 40.4658 21.0863 39.7254 20.6398C39.2519 20.3543 38.8166 20.1205 38.758 20.1204C38.6994 20.1201 38.0008 20.3886 37.2057 20.7171C35.884 21.2631 35.7524 21.3531 35.6697 21.7666C35.4266 22.9819 35.278 23.3286 35 23.3286C34.7219 23.3286 34.5734 22.9821 34.3299 21.7642C34.2468 21.3484 34.1164 21.2587 32.8058 20.7147C32.0176 20.3876 31.3205 20.12 31.2569 20.12C31.1933 20.12 30.7562 20.3575 30.2859 20.6479C29.5196 21.121 29.4076 21.1527 29.2084 20.9533C29.009 20.7541 29.0407 20.6421 29.5138 19.8757C29.8041 19.4053 30.0417 18.9737 30.0417 18.9166C30.0417 18.8595 29.773 18.1623 29.4446 17.3671C28.8986 16.0453 28.8086 15.9136 28.3952 15.8309C27.18 15.5878 26.8333 15.4391 26.8333 15.1612C26.8333 14.8832 27.18 14.7346 28.3952 14.4914C28.8086 14.4087 28.8986 14.277 29.4446 12.9552C29.773 12.1601 30.0417 11.4628 30.0417 11.4057C30.0417 11.3486 29.8041 10.917 29.5138 10.4467C29.0407 9.68023 29.009 9.56822 29.2084 9.369C29.4076 9.16962 29.5196 9.20127 30.2859 9.6744C30.7562 9.96478 31.1933 10.2024 31.2569 10.2024C31.3205 10.2024 32.0176 9.93474 32.8058 9.6076C34.1164 9.06359 34.2468 8.9739 34.3299 8.55809C34.5734 7.34027 34.7219 6.99373 35 6.99373C35.2014 6.99373 35.3226 7.15023 35.4298 7.54854ZM48.4896 10.3769C48.249 10.4623 47.8485 10.6144 47.5997 10.7153L47.1475 10.8986L47.4221 11.9725C48.3646 15.6591 47.5478 19.7946 45.281 22.8137L44.6272 23.6845L45.246 24.3199C46.2437 25.3448 46.2751 25.3465 47.0072 24.4135C47.759 23.4556 48.8838 21.3753 49.3029 20.1678C50.3037 17.284 50.4028 13.3557 49.5377 10.8587C49.3166 10.2206 49.1487 10.1434 48.4896 10.3769ZM6.524 12.7932L4.66667 14.6548V26.1382C4.66667 36.4611 4.64363 37.6216 4.43844 37.6216C4.04119 37.6216 2.70346 39.1009 2.51067 39.7533C2.10671 41.1207 2.39152 42.2109 3.42212 43.2416C4.89752 44.7172 6.76915 44.7172 8.24454 43.2416C9.27514 42.2109 9.55996 41.1207 9.156 39.7533C8.96321 39.1009 7.62548 37.6216 7.22823 37.6216C7.02319 37.6216 7 36.5079 7 26.644V15.6664L8.53125 14.1402C9.37344 13.3009 10.0625 12.5448 10.0625 12.4601C10.0625 12.2673 8.71821 10.9316 8.5241 10.9316C8.4455 10.9316 7.54542 11.7693 6.524 12.7932ZM60.6247 11.6293C60.2468 12.0132 59.9375 12.3917 59.9375 12.4706C59.9375 12.5495 60.6266 13.3009 61.4687 14.1402L63 15.6664V26.644C63 36.5079 62.9768 37.6216 62.7718 37.6216C62.3745 37.6216 61.0368 39.1009 60.844 39.7533C60.44 41.1207 60.7249 42.2109 61.7555 43.2416C62.5107 43.997 63.2494 44.3305 64.1667 44.3305C65.084 44.3305 65.8226 43.997 66.5779 43.2416C68.0646 41.7547 68.0543 39.8999 66.5509 38.3873C66.1324 37.9662 65.6871 37.6216 65.5616 37.6216C65.3564 37.6216 65.3333 36.4606 65.3333 26.1341V14.6465L63.4719 12.7891C62.4482 11.7674 61.5434 10.9316 61.4613 10.9316C61.3791 10.9316 61.0027 11.2456 60.6247 11.6293ZM33.8333 11.8515C33.1176 12.0771 31.8968 13.3413 31.6773 14.0842C31.2734 15.4517 31.5582 16.5419 32.5888 17.5726C34.0642 19.0481 35.9358 19.0481 37.4112 17.5726C38.8363 16.1474 38.8789 14.3344 37.5228 12.8259C36.5789 11.7761 35.2154 11.4158 33.8333 11.8515ZM35.8086 14.3524C36.5321 15.0758 36.0195 16.3279 35 16.3279C34.7159 16.3279 34.417 16.1957 34.1914 15.9699C33.9656 15.7443 33.8333 15.4453 33.8333 15.1612C33.8333 14.8771 33.9656 14.5781 34.1914 14.3524C34.417 14.1267 34.7159 13.9944 35 13.9944C35.2841 13.9944 35.583 14.1267 35.8086 14.3524ZM22.8567 22.1722L21.8699 22.7645L22.1276 23.2016C22.2695 23.4419 22.6667 23.9974 23.0106 24.4359C23.7105 25.3281 23.6806 25.3293 24.7122 24.3739C25.3651 23.7693 25.3846 23.7284 25.164 23.4259C25.0372 23.252 24.6954 22.7652 24.4045 22.3441C24.1134 21.9231 23.8682 21.5787 23.8595 21.5792C23.8509 21.5796 23.3997 21.8465 22.8567 22.1722ZM54.8333 31.138C54.8333 31.8023 54.7693 32.0109 54.4753 32.3047L54.1174 32.6628H35H15.8826L15.5247 32.3047C15.2307 32.0109 15.1667 31.8023 15.1667 31.138V30.3292H35H54.8333V31.138ZM39.6066 37.3664L40.3738 39.6634H34.9994H29.6249L30.3438 37.5122C30.7392 36.3289 31.0939 35.2778 31.1319 35.1762C31.1857 35.0322 32.0432 35 35.0201 35.0303L38.8392 35.0693L39.6066 37.3664ZM6.64198 40.0215C7.36546 40.7449 6.85285 41.997 5.83333 41.997C5.23381 41.997 4.66667 41.4298 4.66667 40.8302C4.66667 40.2306 5.23381 39.6634 5.83333 39.6634C6.11742 39.6634 6.41637 39.7957 6.64198 40.0215ZM64.9753 40.0215C65.2011 40.2471 65.3333 40.5461 65.3333 40.8302C65.3333 41.1143 65.2011 41.4133 64.9753 41.6389C64.7497 41.8647 64.4507 41.997 64.1667 41.997C63.8826 41.997 63.5836 41.8647 63.358 41.6389C63.1323 41.4133 63 41.1143 63 40.8302C63 40.5461 63.1323 40.2471 63.358 40.0215C63.5836 39.7957 63.8826 39.6634 64.1667 39.6634C64.4507 39.6634 64.7497 39.7957 64.9753 40.0215ZM37.3333 44.5212C36.6176 44.7468 35.3968 46.011 35.1773 46.7539C34.7699 48.1331 35.0566 49.2081 36.1158 50.2738C36.5343 50.6949 36.9795 51.0395 37.1051 51.0395C37.3065 51.0395 37.3333 51.4982 37.3333 54.944V58.8484L38.6466 60.1557L39.9598 61.4629L40.7948 60.6278L41.6299 59.7926L40.6483 58.8034L39.6667 57.8141V54.4268C39.6667 51.4504 39.6944 51.0395 39.8949 51.0395C40.2921 51.0395 41.6299 49.5602 41.8227 48.9078C42.2266 47.5403 41.9418 46.4501 40.9112 45.4194C39.885 44.3933 38.6906 44.0934 37.3333 44.5212ZM29.1247 45.4658C28.7468 45.8497 28.4375 46.2289 28.4375 46.3087C28.4375 46.3884 28.8641 46.8766 29.3854 47.3933L30.3333 48.3329V51.728C30.3333 54.7116 30.3056 55.1232 30.1051 55.1232C29.9795 55.1232 29.5343 55.4678 29.1158 55.8889C28.0566 56.9546 27.7699 58.0297 28.1773 59.4088C28.414 60.2099 29.6221 61.4181 30.4232 61.6548C31.7905 62.0588 32.8806 61.774 33.9112 60.7433C34.9418 59.7126 35.2266 58.6224 34.8227 57.2549C34.6299 56.6025 33.2921 55.1232 32.8949 55.1232C32.6935 55.1232 32.6667 54.6645 32.6667 51.2187V47.3143L31.3877 46.0412C30.6844 45.341 30.042 44.7681 29.9604 44.7681C29.8788 44.7681 29.5027 45.0821 29.1247 45.4658ZM4.66667 46.8547C3.95092 47.0803 2.73015 48.3445 2.51067 49.0875C2.38277 49.5204 2.33333 51.5441 2.33333 56.3434V62.9989H1.16667H0V64.9874C0 66.1224 0.0761249 67.2336 0.177333 67.5762C0.414021 68.3773 1.6221 69.5855 2.42317 69.8223C2.87117 69.9547 5.81408 69.9996 14.0274 69.9996C26.5541 69.9996 25.9248 70.056 27.0228 68.8346C27.8603 67.903 28 67.3528 28 64.9874V62.9989H26.8333H25.6667V56.3434C25.6667 51.6235 25.6162 49.5195 25.4933 49.1091C25.3979 48.7908 25.0362 48.2149 24.6894 47.8291C23.6066 46.6247 23.9552 46.6619 13.9376 46.679C7.99662 46.689 5.01287 46.7456 4.66667 46.8547ZM39.3086 47.0221C39.5344 47.2478 39.6667 47.5468 39.6667 47.8309C39.6667 48.115 39.5344 48.414 39.3086 48.6396C39.083 48.8654 38.7841 48.9976 38.5 48.9976C38.2159 48.9976 37.917 48.8654 37.6913 48.6396C37.4656 48.414 37.3333 48.115 37.3333 47.8309C37.3333 47.5468 37.4656 47.2478 37.6913 47.0221C37.917 46.7964 38.2159 46.6641 38.5 46.6641C38.7841 46.6641 39.083 46.7964 39.3086 47.0221ZM46.6667 46.8547C45.9509 47.0803 44.7301 48.3445 44.5107 49.0875C44.3828 49.5204 44.3333 51.5441 44.3333 56.3434V62.9989H43.1667H42V64.9874C42 66.1224 42.0761 67.2336 42.1773 67.5762C42.414 68.3773 43.6221 69.5855 44.4232 69.8223C44.8712 69.9547 47.8141 69.9996 56.0274 69.9996C68.5541 69.9996 67.9248 70.056 69.0228 68.8346C69.8603 67.903 70 67.3528 70 64.9874V62.9989H68.8333H67.6667V56.3434C67.6667 51.6235 67.6162 49.5195 67.4933 49.1091C67.3979 48.7908 67.0362 48.2149 66.6894 47.8291C65.6066 46.6247 65.9552 46.6619 55.9376 46.679C49.9966 46.689 47.0129 46.7456 46.6667 46.8547ZM22.9753 49.3557L23.3333 49.7136V56.3563V62.9989H14H4.66667V56.3563V49.7136L5.02469 49.3557L5.38256 48.9976H14H22.6174L22.9753 49.3557ZM64.9753 49.3557L65.3333 49.7136V56.3563V62.9989H56H46.6667V56.3563V49.7136L47.0247 49.3557L47.3826 48.9976H56H64.6174L64.9753 49.3557ZM32.3086 57.5231C33.0321 58.2465 32.5195 59.4986 31.5 59.4986C30.9005 59.4986 30.3333 58.9314 30.3333 58.3318C30.3333 57.7323 30.9005 57.1651 31.5 57.1651C31.7841 57.1651 32.083 57.2974 32.3086 57.5231ZM25.6667 66.1412C25.6667 66.8055 25.6026 67.0141 25.3086 67.308L24.9508 67.666H14H3.04923L2.69135 67.308C2.39735 67.0141 2.33333 66.8055 2.33333 66.1412V65.3325H14H25.6667V66.1412ZM67.6667 66.1412C67.6667 66.8055 67.6026 67.0141 67.3086 67.308L66.9508 67.666H56H45.0492L44.6913 67.308C44.3974 67.0141 44.3333 66.8055 44.3333 66.1412V65.3325H56H67.6667V66.1412Z" fill="white"/>
</svg>
