<svg width="71" height="70" viewBox="0 0 71 70" fill="none" xmlns="http://www.w3.org/2000/svg">
<path fill-rule="evenodd" clip-rule="evenodd" d="M8.76164 0.241592C6.37563 0.882849 4.50415 2.7801 3.87472 5.19557C3.59579 6.26588 3.56248 18.1952 3.83576 19.1199C4.06486 19.895 5.23422 21.0637 6.00961 21.2927C6.40852 21.4105 7.90198 21.4643 10.7737 21.4643H14.9568V35.3313V49.1982L14.2114 49.9341C13.4937 50.6426 13.4365 50.6701 12.6863 50.6701C11.2744 50.6701 10.9473 50.9267 5.90571 55.9913C1.71781 60.1983 1.25933 60.7054 0.840087 61.5943C-0.0324155 63.4443 0.135987 65.7606 1.26032 67.3776C2.06139 68.5296 3.0464 69.2706 4.37555 69.7214C5.71938 70.1771 7.3444 70.0686 8.68555 69.4337C9.5287 69.0346 10.0339 68.6044 12.353 66.3107C13.8323 64.8476 15.0798 63.6504 15.1252 63.6504C15.1705 63.6504 15.2486 63.8681 15.2986 64.1343C15.6183 65.8379 17.4378 68.0835 19.2781 69.0461C21.225 70.0644 19.7965 70.0092 43.0812 69.9669L64.0095 69.9289L64.8333 69.6149C67.9971 68.4088 69.976 65.8843 70.2448 62.7112C70.3255 61.7574 70.31 61.6812 69.9642 61.3355C69.6062 60.9777 69.5558 60.9697 67.686 60.9697H65.774V33.6173C65.774 15.6026 65.7249 6.00585 65.6299 5.50568C65.1569 3.01233 63.1396 0.891597 60.6158 0.234538C59.3974 -0.0826338 9.943 -0.0760025 8.76164 0.241592ZM12.295 2.69036C13.2645 3.14594 13.8755 3.72837 14.4022 4.69921L14.8862 5.59161L14.9279 12.3992L14.9695 19.2069H10.7925H6.6156L6.26256 18.854L5.90938 18.501L5.95131 12.0464L5.99323 5.59161L6.34274 4.88616C6.94436 3.67193 8.08337 2.73918 9.38104 2.39844C10.0736 2.21644 11.6152 2.37093 12.295 2.69036ZM60.8378 2.66497C61.8436 3.16584 62.4379 3.73528 62.9608 4.69921L63.4449 5.59161L63.4819 33.2806L63.519 60.9697H46.36H29.201L28.8778 61.2928C28.6295 61.541 28.5335 61.8406 28.464 62.584C28.1504 65.9403 24.953 68.3312 21.7619 67.5954C19.3939 67.0496 17.484 64.8797 17.2624 62.4839L17.174 61.5288L18.1137 60.556C19.2307 59.3996 19.6077 58.6514 19.612 57.5825L19.6151 56.8055L23.4758 52.9487L27.3363 49.0918L28.0281 49.4381C30.3949 50.6228 33.6266 51.0681 36.4835 50.6033C40.2926 49.9837 43.6438 47.9309 46.0092 44.7688C46.7365 43.7966 47.7683 41.7307 48.1437 40.4957L48.439 39.5239H50.4549H52.4708L52.6482 39.952C52.8892 40.5333 53.9186 41.4128 54.5952 41.6154C56.1796 42.0899 57.8781 41.3689 58.6915 39.8766C59.0091 39.2938 59.0067 37.4929 58.6874 36.9037C58.1009 35.8211 56.7933 35.009 55.6371 35.009C54.468 35.009 53.0456 35.8797 52.6482 36.8384L52.4708 37.2665H50.6529H48.8349V36.1562C48.8349 35.0501 48.5331 32.9166 48.2642 32.1219C48.127 31.7164 48.1747 31.6518 49.8531 29.9702L51.5833 28.2367H53.1564H54.7293L54.9067 28.6647C55.1477 29.246 56.1772 30.1256 56.8537 30.3282C58.4381 30.8027 60.1367 30.0817 60.95 28.5894C61.2676 28.0065 61.2652 26.2057 60.9459 25.6165C60.3594 24.5339 59.0519 23.7218 57.8956 23.7218C56.7266 23.7218 55.3041 24.5924 54.9067 25.5511L54.7293 25.9792H52.677H50.6245L48.8997 27.6837L47.1748 29.3881L46.7346 28.6361C46.4927 28.2224 46.0751 27.5945 45.8069 27.241L45.3194 26.598L48.0502 23.871L50.7812 21.1442L51.2407 21.3042C53.2435 22.002 55.6106 20.2545 55.6106 18.0781C55.6106 17.1907 55.2877 16.476 54.5567 15.7453C53.1286 14.3179 51.3169 14.3179 49.8888 15.7453C48.9113 16.7224 48.5924 17.905 48.9952 19.0597L49.1552 19.5189L46.427 22.2486L43.6987 24.9782L43.0555 24.4908C42.7017 24.2228 42.0736 23.8054 41.6597 23.5636L40.9073 23.1237L42.6125 21.3995L44.3179 19.6756V17.6241V15.5728L44.7461 15.3954C45.7053 14.9983 46.5764 13.5765 46.5764 12.408C46.5764 11.2523 45.7639 9.94538 44.6808 9.35915C44.0766 9.0321 42.2902 9.03789 41.6778 9.36875C40.2066 10.1636 39.4925 11.8669 39.9668 13.4494C40.1695 14.1256 41.0495 15.1546 41.631 15.3954L42.0593 15.5728V17.145V18.7173L40.3301 20.4407L38.6009 22.1643L37.9657 21.9738C36.7649 21.614 34.8407 21.4225 33.3442 21.5141L31.8959 21.6027V19.7165V17.8302L32.3242 17.6529C33.2833 17.2557 34.1544 15.8339 34.1544 14.6654C34.1544 13.5098 33.3419 12.2028 32.2588 11.6166C31.6546 11.2896 29.8683 11.2953 29.2558 11.6262C27.7846 12.4211 27.0705 14.1243 27.5448 15.7068C27.7475 16.3831 28.6275 17.412 29.2091 17.6529L29.6373 17.8302V20.0132C29.6373 22.1332 29.6286 22.1985 29.3316 22.2761C28.6732 22.4481 26.2742 23.7188 25.4356 24.3396C21.7243 27.0868 19.4719 31.5619 19.4745 36.1832C19.4756 38.156 20.0656 40.7395 20.8791 42.3334L21.1942 42.9506L19.24 44.9075L17.2859 46.8644L17.2154 26.087L17.1448 5.30943L16.8163 4.49618C16.6356 4.04892 16.274 3.36534 16.0127 2.97734L15.5377 2.27175L37.8679 2.30913L60.1982 2.34652L60.8378 2.66497ZM49.9642 4.71783C49.2714 4.9361 48.0898 6.15907 47.8773 6.87779C47.4863 8.20066 47.762 9.25531 48.7596 10.2524C49.7323 11.2247 50.088 11.3058 53.3786 11.3058C56.6845 11.3058 57.1369 11.1967 58.0525 10.1787C59.3182 8.77165 59.3182 7.06756 58.0525 5.66046C57.1272 4.63177 56.6941 4.53047 53.2916 4.54782C51.6621 4.55614 50.2484 4.62838 49.9642 4.71783ZM56.3933 7.13726C56.6118 7.35552 56.7398 7.64476 56.7398 7.9196C56.7398 8.19445 56.6118 8.48368 56.3933 8.70195C56.0497 9.04551 56.025 9.04833 53.352 9.04833C50.679 9.04833 50.6543 9.04551 50.3108 8.70195C50.0922 8.48368 49.9642 8.19445 49.9642 7.9196C49.9642 7.64476 50.0922 7.35552 50.3108 7.13726C50.6543 6.7937 50.679 6.79088 53.352 6.79088C56.025 6.79088 56.0497 6.7937 56.3933 7.13726ZM43.9713 11.6522C44.6716 12.352 44.1754 13.5632 43.1886 13.5632C42.6083 13.5632 42.0593 13.0145 42.0593 12.4345C42.0593 11.8545 42.6083 11.3058 43.1886 11.3058C43.4636 11.3058 43.7529 11.4337 43.9713 11.6522ZM31.5493 13.9096C32.2496 14.6094 31.7534 15.8207 30.7666 15.8207C30.4916 15.8207 30.2023 15.6927 29.9839 15.4743C29.7654 15.256 29.6373 14.9668 29.6373 14.692C29.6373 14.4171 29.7654 14.1279 29.9839 13.9096C30.2023 13.6912 30.4916 13.5632 30.7666 13.5632C31.0416 13.5632 31.331 13.6912 31.5493 13.9096ZM53.0055 17.2958C53.7058 17.9956 53.2096 19.2069 52.2228 19.2069C51.6424 19.2069 51.0935 18.6582 51.0935 18.0781C51.0935 17.4981 51.6424 16.9494 52.2228 16.9494C52.4977 16.9494 52.7871 17.0774 53.0055 17.2958ZM37.2629 24.1296C44.3015 26.0156 48.1979 33.2832 45.875 40.1925C44.7103 43.6569 41.6772 46.6885 38.2112 47.8526C29.2508 50.8622 20.3155 43.2788 21.9312 34.036C22.8156 28.9778 26.8322 24.8866 31.8456 23.9376C33.3192 23.6587 35.8384 23.748 37.2629 24.1296ZM32.1782 26.181C29.1337 26.827 26.4792 28.8378 25.1399 31.5125C24.2751 33.2396 24.0624 34.1931 24.0767 36.2788C24.087 37.782 24.1436 38.2092 24.4598 39.1712C24.9911 40.7881 25.7333 41.9717 27.0255 43.2632C28.8732 45.1101 30.9332 46.0699 33.4293 46.247C39.5607 46.682 44.664 41.6012 44.2676 35.4564C44.1706 33.9514 43.6493 32.25 42.8872 30.9511C42.205 29.7881 40.3486 27.9673 39.1891 27.3237C37.1082 26.1687 34.3523 25.7195 32.1782 26.181ZM58.6518 26.3256C59.3521 27.0254 58.8559 28.2367 57.8691 28.2367C57.2888 28.2367 56.7398 27.688 56.7398 27.1079C56.7398 26.5279 57.2888 25.9792 57.8691 25.9792C58.1441 25.9792 58.4335 26.1072 58.6518 26.3256ZM35.6459 28.3875C37.0082 28.6327 38.6628 29.5134 39.6897 30.5398C41.2726 32.122 41.9846 33.8586 41.9846 36.1377C41.9846 38.401 41.2719 40.1542 39.7223 41.7029C38.1728 43.2518 36.4187 43.9642 34.1544 43.9642C31.8741 43.9642 30.1368 43.2525 28.5538 41.6703C25.2174 38.3355 25.6047 32.7534 29.3705 29.9C31.2245 28.4953 33.371 27.9779 35.6459 28.3875ZM56.3933 37.6128C56.6118 37.8311 56.7398 38.1203 56.7398 38.3952C56.7398 38.67 56.6118 38.9593 56.3933 39.1775C56.1749 39.3959 55.8855 39.5239 55.6106 39.5239C55.3356 39.5239 55.0462 39.3959 54.8278 39.1775C54.6093 38.9593 54.4813 38.67 54.4813 38.3952C54.4813 38.1203 54.6093 37.8311 54.8278 37.6128C55.0462 37.3944 55.3356 37.2665 55.6106 37.2665C55.8855 37.2665 56.1749 37.3944 56.3933 37.6128ZM23.8466 46.4618L25.2826 47.8969L21.8139 51.3639L18.3452 54.831L16.899 53.3855L15.4528 51.9402L18.9091 48.4833C20.8101 46.582 22.3757 45.0264 22.3881 45.0264C22.4005 45.0264 23.0569 45.6724 23.8466 46.4618ZM43.1886 50.8112V51.9399H52.2228H61.2569V50.8112V49.6824H52.2228H43.1886V50.8112ZM15.2763 55.0103C17.1613 56.8977 17.3565 57.1394 17.3565 57.586C17.3565 58.0453 17.0453 58.3891 12.8041 62.6147C10.3003 65.1093 8.02945 67.2663 7.75772 67.4081C7.07169 67.766 5.33444 67.7649 4.65222 67.406C3.96294 67.0434 3.27014 66.3619 2.91399 65.6962C2.5124 64.9456 2.48826 63.2504 2.86896 62.5217C3.01083 62.2501 5.16886 59.9804 7.66469 57.4777C11.9044 53.2265 12.2353 52.9275 12.6993 52.9275C13.151 52.9275 13.3842 53.116 15.2763 55.0103ZM44.5225 54.3958C43.0984 55.0158 42.762 56.9081 43.8777 58.0234C45.4636 59.6086 48.0625 58.1888 47.6453 55.9651C47.3955 54.6351 45.8068 53.8367 44.5225 54.3958ZM51.2982 54.3958C49.874 55.0158 49.5376 56.9081 50.6533 58.0234C52.2393 59.6086 54.8381 58.1888 54.4209 55.9651C54.1712 54.6351 52.5824 53.8367 51.2982 54.3958ZM58.0738 54.3958C56.6496 55.0158 56.3132 56.9081 57.429 58.0234C59.0149 59.6086 61.6138 58.1888 61.1965 55.9651C60.9468 54.6351 59.358 53.8367 58.0738 54.3958ZM67.8914 63.4199C67.8914 63.5258 67.6684 64.058 67.3959 64.6025C66.7937 65.8054 65.9466 66.6205 64.6701 67.2249L63.7272 67.6715L46.0982 67.7094C31.8716 67.7401 28.4955 67.7128 28.606 67.5684C28.6814 67.4699 28.9416 67.1353 29.1841 66.8249C29.7337 66.1216 30.4477 64.5637 30.5695 63.8019L30.6616 63.2271H49.2765C64.915 63.2271 67.8914 63.2579 67.8914 63.4199Z" fill="white"/>
</svg>
