<svg width="68" height="70" viewBox="0 0 68 70" fill="none" xmlns="http://www.w3.org/2000/svg">
<path fill-rule="evenodd" clip-rule="evenodd" d="M27.689 0.404065L27.288 0.803669V3.34333V5.88299H26.1458C24.5101 5.88299 24.5012 5.89557 23.9859 8.97401C23.6503 10.9779 23.5248 11.4629 23.2906 11.659C23.1334 11.7906 22.8952 11.8982 22.7613 11.8982C22.6274 11.8982 21.5384 11.5294 20.3415 11.0787C19.1444 10.6279 17.9924 10.2588 17.7815 10.2584C17.2874 10.2574 16.9268 10.6341 16.2443 11.8638L15.6956 12.8525L12.1287 12.8197L8.56175 12.7868L8.52347 10.9802L8.4852 9.1736L9.01667 8.90347C10.6823 8.05668 11.3537 5.8696 10.4567 4.21294C9.76105 2.92814 8.45611 2.22518 7.03594 2.37009C5.7701 2.49942 4.63335 3.33636 4.13508 4.50591C3.87401 5.11878 3.85412 6.33195 4.09379 7.03355C4.31247 7.67376 5.18869 8.65916 5.74266 8.88788L6.14065 9.05207L6.18509 11.786L6.22954 14.5199L6.61449 14.8495L6.99945 15.1793H10.6959H14.3923V15.5026C14.3923 15.9773 14.7244 16.3235 16.7044 17.9135C17.6875 18.703 18.4956 19.4259 18.5 19.5198C18.5061 19.6512 17.8627 19.6907 15.7177 19.6907C14.1831 19.6907 11.6282 19.731 10.0404 19.7803L7.15323 19.8699L7.0546 19.5601C7.00041 19.3898 6.73495 19.0066 6.46496 18.7087C4.30204 16.3231 0.395183 17.7877 0.400396 20.9821C0.40506 23.8658 3.53598 25.469 5.91319 23.805C6.34547 23.5023 6.63727 23.1422 7.10097 22.3393C7.16229 22.2332 8.61676 22.1556 11.7857 22.0891L16.3815 21.9928L15.8328 22.444C14.6948 23.3797 14.3923 23.7473 14.3923 24.1948C14.3923 24.4851 14.7706 25.2786 15.5584 26.6395L16.7245 28.6544V31.208V33.7617L13.7087 33.801L10.6927 33.8402L10.5388 33.4694C10.3142 32.9285 9.1802 31.9253 8.55407 31.7138C5.9601 30.8371 3.36257 33.1208 3.95468 35.7573C4.29518 37.2737 5.69835 38.4335 7.22402 38.4599C7.65795 38.4674 8.25651 38.3913 8.55407 38.2906C9.17992 38.0792 10.3139 37.0761 10.5391 36.535L10.6933 36.1643H14.544H18.3948L18.7256 35.7807C19.0549 35.3992 19.0567 35.3798 19.0581 32.2262L19.0594 29.0553L20.8212 28.406C21.7903 28.0489 22.6781 27.7566 22.794 27.7566C22.9099 27.7566 23.1334 27.8643 23.2906 27.9958C23.5248 28.1919 23.6503 28.6769 23.9859 30.6808C24.4534 33.4734 24.6023 33.7718 25.5284 33.7718H26.0533V36.7111V39.6504H24.1403C22.316 39.6504 22.2096 39.6657 21.8424 39.9803L21.4575 40.3101L21.4204 49.1056L21.3833 57.9012L16.173 63.1002C11.1635 68.0989 10.9626 68.3193 10.9626 68.8142C10.9626 69.1784 11.0611 69.427 11.2994 69.6644L11.636 70H30.7725H49.9088L50.2869 69.676C50.5719 69.4317 50.665 69.2283 50.665 68.8497C50.665 68.3737 50.4525 68.1357 46.5905 64.2855L42.516 60.2236V57.1006V53.9777L43.8209 51.815L45.1257 49.6522L46.8733 50.6743C47.8345 51.2364 49.5068 52.1388 50.5898 52.6797L52.5587 53.6631H56.5121H60.4656L60.8195 53.3318L61.1736 53.0002V49.5204V46.0405L62.374 44.8183L63.5744 43.5961L63.6216 41.6232L63.6688 39.6504H64.7756C65.7072 39.6504 65.9747 39.5965 66.4644 39.3105C67.2183 38.8703 67.685 37.971 67.5876 37.1461C67.5501 36.8287 66.6933 34.7229 65.6616 32.4128L63.8031 28.2512L64.1849 27.6963C65.6224 25.6077 66.0918 23.6006 65.8324 20.6523C65.5166 17.0623 64.4281 13.9851 62.3949 10.934C61.2861 9.27012 58.6611 6.64242 57.0279 5.56131C55.457 4.52164 51.1374 2.32853 50.6604 2.32853C50.3935 2.32853 50.1211 2.5053 49.7093 2.94591L49.1324 3.5633L45.2412 3.52693L41.3498 3.49057L41.2813 2.00836C41.1795 -0.19117 41.8583 0.00446186 34.3274 0.00446186H28.09L27.689 0.404065ZM38.949 3.5525C38.949 4.22566 39.0229 4.93778 39.113 5.13492C39.4343 5.83761 39.715 5.88299 43.7438 5.88299C45.7849 5.88299 47.4547 5.91813 47.4547 5.96119C47.4547 6.00425 46.6213 7.19937 45.6027 8.61719C44.5841 10.035 43.7507 11.2917 43.7507 11.4099C43.7507 11.5967 43.4546 11.6248 41.4962 11.6248C39.382 11.6248 39.2366 11.6083 39.157 11.3584C39.0017 10.8707 38.3118 10.2577 37.9182 10.2577C37.7137 10.2577 36.5573 10.6268 35.3485 11.078C34.1399 11.5291 33.0424 11.8982 32.9099 11.8982C32.2895 11.8982 32.1286 11.5112 31.6916 8.96991C31.2113 6.17665 31.0643 5.88299 30.1451 5.88299H29.6202V4.10576V2.32853H34.2846H38.949V3.5525ZM8.25308 5.07832C8.3893 5.24182 8.49316 5.59221 8.49316 5.88819C8.49316 7.12377 6.73728 7.37587 6.29032 6.2044C6.12199 5.7631 6.4511 4.96717 6.87515 4.79068C7.32157 4.60475 7.97156 4.74037 8.25308 5.07832ZM53.047 6.00685C55.2742 7.12254 56.5649 8.00214 58.0505 9.41654C61.2155 12.4298 63.1446 16.4765 63.4844 20.8154C63.696 23.5167 63.2983 25.0603 61.9635 26.7176C61.3325 27.5011 61.2507 27.6854 61.3041 28.2039C61.3178 28.3372 62.2132 30.4289 63.2939 32.8521L65.2588 37.2579L63.5935 37.3263C62.6775 37.3639 61.8447 37.4482 61.7427 37.5139C61.3303 37.7789 61.1736 38.5351 61.1736 40.2612V41.9744H60.6537C59.3965 41.9744 57.7995 41.326 56.5767 40.3192C56.2192 40.0247 55.7929 39.7504 55.6295 39.7096C54.893 39.5253 54.072 40.348 54.2575 41.0845C54.4802 41.9687 56.8797 43.5454 58.7064 44.0076C59.577 44.228 59.654 44.2738 59.4445 44.447C58.9251 44.8761 58.8414 45.421 58.8414 48.3742V51.2283L56.0633 51.3138L53.2853 51.3994L51.3294 50.4327C49.5902 49.5733 45.1273 46.9946 44.0232 46.2112L43.6093 45.9174L43.6457 42.0176L43.6821 38.1179L46.3483 37.0564C48.018 36.3916 49.1077 35.8803 49.2636 35.6885C49.4854 35.4155 49.5126 35.0862 49.5126 32.6708V29.9594L47.7977 27.6692L46.0829 25.3792V18.6714V11.9637L48.5586 8.51316C49.9202 6.61549 51.0631 5.06273 51.0983 5.06273C51.1336 5.06273 52.0105 5.48763 53.047 6.00685ZM29.2771 8.65137C29.3216 8.89567 29.5021 9.95449 29.6785 11.004C29.9532 12.6384 30.0458 12.949 30.3241 13.1676C30.8079 13.5476 32.2271 14.3538 32.5577 14.4365C32.728 14.4792 33.7429 14.1717 35.0287 13.6879C36.229 13.2365 37.2556 12.8944 37.3101 12.9281C37.3645 12.9616 37.6888 13.4811 38.0307 14.0823L38.6523 15.1756L36.8731 16.6348C35.8945 17.4373 35.0353 18.203 34.9637 18.3365C34.7487 18.7366 34.8018 21.0887 35.0331 21.4179C35.143 21.5742 36.0054 22.3337 36.9497 23.1056L38.6664 24.5092L38.301 25.1417C37.7304 26.1291 37.3043 26.7996 37.2474 26.7996C37.2187 26.7996 36.4015 26.5012 35.4313 26.1363C32.4112 25.0007 32.8303 25.0296 31.3921 25.8567C30.697 26.2565 30.0963 26.7004 30.0369 26.8581C29.978 27.0139 29.7975 27.9412 29.6354 28.9186C29.4736 29.8961 29.3063 30.8651 29.2639 31.0718L29.1868 31.4478H27.8399H26.493L26.3461 30.5933C26.2653 30.1235 26.0931 29.0929 25.9633 28.3034C25.6965 26.6796 25.5697 26.4911 24.2626 25.7751C22.9888 25.0774 23.1235 25.07 20.6972 25.969C19.4732 26.4224 18.4252 26.7648 18.3681 26.7296C18.3111 26.6945 17.9876 26.1787 17.649 25.5835L17.0337 24.501L18.3511 23.4288C19.0759 22.839 19.9322 22.118 20.2545 21.8265L20.8401 21.2964V19.9377C20.8401 19.1905 20.7776 18.4625 20.701 18.3201C20.6245 18.1775 19.7654 17.409 18.7918 16.6121L17.0218 15.1633L17.6412 14.1118C17.9818 13.5334 18.3026 13.0153 18.354 12.9605C18.4055 12.9055 19.3409 13.2019 20.4327 13.6191C21.5246 14.0362 22.6339 14.3835 22.898 14.3906C23.3597 14.4032 24.505 13.8313 25.353 13.1647C25.6877 12.9014 25.7618 12.5993 26.3254 9.19821L26.4897 8.20706H27.8429H29.1962L29.2771 8.65137ZM48.4151 13.9434V16.273H49.5845H50.7539L50.7163 13.9831L50.6787 11.6932L49.5469 11.6535L48.4151 11.6137V13.9434ZM43.6135 16.3413V18.7337L40.8354 18.7298L38.0573 18.7257L38.4796 18.3538C38.7117 18.1492 39.4372 17.5349 40.0916 16.9888C41.1972 16.066 41.2813 15.9598 41.2803 15.485C41.2799 15.204 41.1568 14.7897 41.0069 14.5641C40.8569 14.3385 40.7339 14.1077 40.7335 14.0514C40.7329 13.9951 41.3807 13.9489 42.173 13.9489H43.6135V16.3413ZM26.5335 15.3623C25.1876 15.8065 24.174 16.6821 23.6046 17.8923C23.1098 18.9443 23.0866 20.6488 23.5536 21.6621C24.0257 22.6866 24.7057 23.4197 25.6645 23.9377C26.4813 24.379 26.6117 24.4072 27.8368 24.4065C28.9918 24.406 29.2214 24.3632 29.8552 24.0308C30.8889 23.4888 31.4352 22.9592 31.965 21.9854C32.3984 21.1889 32.4326 21.0363 32.4326 19.8958C32.4326 18.8506 32.3778 18.5492 32.0693 17.8932C31.3186 16.2977 29.829 15.3093 28.0501 15.2263C27.4884 15.2002 26.8519 15.2572 26.5335 15.3623ZM28.9398 17.8182C30.5188 18.6502 30.5535 20.9621 29.0001 21.8388C27.8792 22.4714 26.4178 22.0521 25.8205 20.9266C25.3143 19.9727 25.4339 19.0516 26.165 18.2728C26.9253 17.4629 27.9476 17.2953 28.9398 17.8182ZM48.4151 19.9012V21.0689L49.5469 21.0291L50.6787 20.9895L50.7185 19.8616L50.7584 18.7337H49.5867H48.4151V19.9012ZM4.36762 20.0274C5.36347 20.5406 4.95479 22.1515 3.82874 22.1515C2.67265 22.1515 2.32282 20.5788 3.34858 19.9926C3.71501 19.7831 3.90625 19.7897 4.36762 20.0274ZM43.6135 23.3819V25.7059H42.173C41.3807 25.7059 40.7325 25.6767 40.7325 25.6409C40.7325 25.6051 40.8557 25.3744 41.0063 25.1282C41.3009 24.6469 41.3599 24.0571 41.1522 23.6705C41.0812 23.5383 40.4021 22.9193 39.6431 22.2949C38.8842 21.6705 38.2631 21.1367 38.2631 21.1087C38.2631 21.0808 39.4669 21.0578 40.9383 21.0578H43.6135V23.3819ZM48.4151 24.5494V25.717L49.5469 25.6772L50.6787 25.6376L50.7185 24.5097L50.7584 23.3819H49.5867H48.4151V24.5494ZM58.0807 23.7175C57.7678 24.0292 57.7439 24.1505 57.7439 25.4264V26.7996L56.4749 26.8017C55.058 26.8039 54.6133 26.9556 54.3361 27.5314C54.1132 27.9947 54.2154 28.4745 54.6161 28.8465C54.8898 29.1006 55.0945 29.1237 57.0726 29.1237C58.2595 29.1237 59.3305 29.0854 59.4526 29.0388C59.9421 28.8516 60.0761 28.2527 60.0761 26.2528C60.0761 23.7738 59.9052 23.3819 58.824 23.3819C58.5751 23.3819 58.2866 23.5122 58.0807 23.7175ZM35.295 28.5775C36.492 29.0283 37.6412 29.3971 37.8488 29.3971C38.3239 29.3971 38.8603 28.9836 39.0843 28.4448L39.2568 28.03L42.2239 28.0348L45.1911 28.0396L46.1857 29.3834L47.1804 30.7273V31.7027V32.6782H44.8482H42.516V33.835V34.992L43.7849 35.0312L45.0539 35.0706L44.025 35.4655C42.035 36.2295 41.5909 36.482 41.4304 36.9409C41.3483 37.1752 41.2813 37.8808 41.2813 38.5087V39.6504H34.902H28.5227V36.7111V33.7718H29.5607C31.2309 33.7718 31.1939 33.8284 31.756 30.4224C32.0559 28.6054 32.167 28.1952 32.412 27.9988C32.5742 27.869 32.7996 27.7617 32.9127 27.7604C33.0259 27.7591 34.0979 28.1268 35.295 28.5775ZM33.1871 33.8402V35.0022H34.3532H35.5193V33.8402V32.6782H34.3532H33.1871V33.8402ZM37.8515 33.8402V35.0022H39.0176H40.1837V33.8402V32.6782H39.0176H37.8515V33.8402ZM8.1757 34.2058C8.87578 34.8611 8.38944 36.0959 7.43132 36.0959C6.79901 36.0959 6.49157 35.9066 6.31789 35.4102C6.15176 34.9351 6.30609 34.3574 6.67349 34.0794C7.03594 33.8052 7.81791 33.871 8.1757 34.2058ZM30.8216 50.5209L30.857 58.9989L29.7241 60.2899L28.5913 61.5807L28.5541 58.8182L28.5171 56.0556H27.2851H26.0533L26.053 60.2594L26.0528 64.4632L24.6534 66.0696L23.254 67.6759H19.066H14.8781L19.2996 63.2621L23.7211 58.8484V50.5026C23.7211 45.9124 23.7634 42.1147 23.8148 42.0633C23.8664 42.0119 25.4561 41.9862 27.3474 42.0063L30.7863 42.0428L30.8216 50.5209ZM35.5193 45.7593V49.5441L37.8515 51.882C39.4609 53.4953 40.1837 54.3136 40.1837 54.5225V54.8252H36.6854H33.1871V48.3998V41.9744H34.3532H35.5193V45.7593ZM41.2813 44.2781C41.2813 45.6161 41.3452 46.7646 41.4338 47.0179C41.5373 47.3134 41.8247 47.6059 42.3255 47.9253C42.732 48.1844 43.0647 48.4251 43.0647 48.4601C43.0647 48.5711 41.3869 51.3301 41.1914 51.5406C41.0294 51.715 40.7927 51.532 39.4278 50.1757L37.8515 48.6094V45.2918V41.9744H39.5664H41.2813V44.2781ZM26.1499 46.7087C26.0968 46.7616 26.0533 47.2867 26.0533 47.8758V48.9467H27.2935H28.5338L28.4939 47.8188L28.4541 46.6909L27.3503 46.6517C26.7431 46.6301 26.203 46.6557 26.1499 46.7087ZM26.1133 51.4489C26.0732 51.5529 26.0588 52.0937 26.0812 52.6507L26.1219 53.6631H27.288H28.4541V52.5011V51.3391L27.3201 51.2993C26.4529 51.2689 26.169 51.3041 26.1133 51.4489ZM35.5193 62.4126V67.6759H30.9807C28.4844 67.6759 26.4625 67.6264 26.4878 67.5659C26.5129 67.5053 27.9534 65.8394 29.6888 63.8638C31.4242 61.8882 32.9192 60.1383 33.0108 59.9751C33.1069 59.8042 33.1794 59.1426 33.1823 58.4138L33.1871 57.1493H34.3532H35.5193V62.4126ZM40.1837 59.1592V61.1691L43.4381 64.4225L46.6927 67.6759H42.272H37.8515V62.4126V57.1493H39.0176H40.1837V59.1592Z" fill="white"/>
</svg>
