<svg width="70" height="68" viewBox="0 0 70 68" fill="none" xmlns="http://www.w3.org/2000/svg">
<path fill-rule="evenodd" clip-rule="evenodd" d="M24.3893 0.409348C24.1278 0.568343 23.7837 0.911645 23.6243 1.17247C23.3532 1.616 23.3344 1.91202 23.3339 5.76254L23.3333 9.87868L23.6914 10.2357L24.0492 10.5928H35H45.9508L46.3086 10.2357L46.6667 9.87868L46.6664 5.83527C46.6662 1.31779 46.6239 1.09115 45.6607 0.449351L45.1652 0.119141L35.0149 0.119722C25.1437 0.120159 24.8515 0.12816 24.3893 0.409348ZM44.3333 5.35596V8.2653H43.1667H42V6.87682C42 5.59641 41.9721 5.4604 41.642 5.13121L41.2841 4.77409H35H28.7159L28.358 5.13121C28.0279 5.4604 28 5.59641 28 6.87682V8.2653H26.8333H25.6667V5.35596V2.44661H35H44.3333V5.35596ZM39.6667 7.68343V8.2653H35H30.3333V7.68343V7.10156H35H39.6667V7.68343ZM1.38542 10.7982C0.849042 11.0359 0.362542 11.5482 0.155604 12.0933C0.0513333 12.3676 0 15.5282 0 21.6644V30.8259L0.358021 31.1829L0.715896 31.54H8.16667H15.6174L15.9753 31.1829L16.3333 30.8259V25.9461V21.0664H20.797H25.2605L28.2345 23.5489C29.87 24.9143 31.2063 26.0763 31.2037 26.131C31.2012 26.1857 31.0536 26.3941 30.8755 26.5942C30.5737 26.9335 30.4598 26.958 29.1667 26.9597C27.9177 26.9613 27.6853 27.0067 26.8071 27.42C25.591 27.9924 24.6533 28.8432 24.1211 29.8571C23.7736 30.519 23.6199 30.6659 23.1209 30.8127C19.8807 31.7662 17.3641 35.3043 17.5249 38.6801L17.5729 39.6869L16.1672 39.6865C15.0361 39.6862 14.7047 39.7359 14.4706 39.9408C14.3106 40.0807 13.572 41.0136 12.8291 42.0137C12.0862 43.0138 11.4276 43.8889 11.3657 43.9584C11.3035 44.0281 10.8949 43.8807 10.4576 43.6311C10.0202 43.3816 9.50629 43.1787 9.31554 43.1805C9.12479 43.1822 7.00073 44.3138 4.59535 45.6952C1.05248 47.7299 0.195563 48.2817 0.0828334 48.6014C-0.119437 49.175 0.129646 49.7546 0.689792 50.0144L1.1604 50.2326L1.16346 55.0759L1.16667 59.9194L1.52469 60.2763L1.88256 60.6335H9.33333H16.7841L17.142 60.2763L17.5 59.9194L17.5032 55.0759L17.5063 50.2326L17.9769 50.0144C18.5386 49.7538 18.7858 49.1755 18.583 48.5961C18.4724 48.2801 17.9223 47.8978 15.9663 46.7774C14.554 45.9686 13.497 45.2732 13.5068 45.1594C13.5163 45.0496 14.0273 44.2969 14.6422 43.4867L15.7606 42.0137H17.0316H18.3025L18.6598 42.6853C19.112 43.5358 20.4671 44.9152 21.3671 45.4413C22.6189 46.173 23.8796 46.5438 25.4115 46.6305L26.8333 46.7109V55.9103V65.1098L27.2408 65.8877C27.5374 66.454 27.8419 66.7853 28.3593 67.1046L29.0704 67.5432L34.7696 67.5849C41.0836 67.6312 41.202 67.6171 42.1426 66.7042C43.2024 65.6759 43.16 66.1272 43.1635 55.8694L43.1667 46.6686H44.0877C47.8364 46.6686 51.0727 44.3481 52.1426 40.8931C53.5042 36.496 50.7717 31.7469 46.2292 30.616C45.6458 30.4707 45.4151 30.3414 45.3832 30.1418C45.359 29.9907 45.1713 29.3714 44.9658 28.7655L44.5925 27.6641L46.0106 24.3652L47.4286 21.0664H49.3809H51.3333V23.6167C51.3333 26.515 51.4267 26.8991 52.2903 27.5569C52.8233 27.9629 52.9019 27.9775 54.7725 28.0235L56.7042 28.0709L56.3522 29.1036C55.9097 30.401 55.9107 30.7369 56.358 31.1829L56.7159 31.54H60.6667H64.6174L64.9753 31.1829C65.4226 30.7369 65.4236 30.401 64.9811 29.1036L64.6291 28.0709L66.5752 28.0235C68.6879 27.972 68.9462 27.8833 69.6264 26.9746C69.9176 26.5854 69.9271 26.4008 69.9271 21.0808V15.5887L69.5068 15.0391C68.7514 14.0511 68.9557 14.0719 60.4542 14.1166C52.9961 14.1557 52.8032 14.1638 52.4102 14.4567C51.5369 15.1072 51.4102 15.431 51.357 17.149L51.3075 18.7389H48.7845C46.5919 18.7389 46.2226 18.7722 45.9649 18.9935C45.8017 19.1336 45.0978 20.59 44.4007 22.2301C43.7036 23.8703 43.0875 25.2967 43.0315 25.3999C42.9565 25.5382 42.7789 25.4659 42.3555 25.1246C41.6293 24.5393 39.8927 23.7242 39.1036 23.5984L38.5 23.5021V22.1292C38.5 21.3742 38.439 20.6428 38.3647 20.504C38.2901 20.3653 36.7151 19.2468 34.8647 18.0186L31.5 15.7854V14.3528V12.9202H30.3333H29.1667V14.8209C29.1667 15.8662 29.2276 16.8351 29.302 16.9738C29.3765 17.1126 30.9515 18.2311 32.802 19.4593L36.1667 21.6925V22.5814V23.4705L35.4213 23.6471C35.0115 23.7442 34.3172 23.9875 33.8784 24.188L33.0808 24.5521L29.5865 21.6455L26.0921 18.7389H21.2204H16.3486L16.3045 15.4178L16.2604 12.0968L15.8401 11.5475C15.1044 10.5861 15.154 10.5922 8.13487 10.5984C3.20075 10.603 1.7274 10.6465 1.38542 10.7982ZM14 18.7389V24.5576H8.16667H2.33333V18.7389V12.9202H8.16667H14V18.7389ZM6.70906 14.3177C3.90819 15.333 2.72052 18.3485 4.10287 20.9353C4.62481 21.9123 5.09017 22.3573 6.18231 22.9233C6.81362 23.2504 7.11608 23.3102 8.16667 23.3147C9.31933 23.3198 9.47275 23.2838 10.3542 22.8001C13.7185 20.9541 13.5918 16.1681 10.1354 14.532C9.18342 14.0814 7.62942 13.9842 6.70906 14.3177ZM9.08965 16.6099C10.5995 17.2392 10.9508 19.1621 9.77083 20.3391C8.80615 21.3013 7.49992 21.3083 6.54529 20.3562C4.74192 18.5572 6.73181 15.6272 9.08965 16.6099ZM67.6667 19.3208V22.2301H60.6667H53.6667V19.3208V16.4115H60.6667H67.6667V19.3208ZM67.6667 25.1395V25.7214H60.6667H53.6667V25.1395V24.5576H60.6667H67.6667V25.1395ZM36.1667 28.267C36.1667 30.3481 36.1363 30.6672 35.9384 30.6672C35.5412 30.6672 34.2035 32.1427 34.0107 32.7934C33.6067 34.1573 33.8915 35.2446 34.9221 36.2727C35.6774 37.026 36.416 37.3587 37.3333 37.3587C38.2506 37.3587 38.9893 37.026 39.7445 36.2727C41.2313 34.7896 41.221 32.9396 39.7176 31.4309C39.299 31.011 38.8538 30.6672 38.7282 30.6672C38.5303 30.6672 38.5 30.3481 38.5 28.267C38.5 26.3354 38.5389 25.8668 38.6992 25.8668C39.1771 25.8668 40.9863 26.9329 41.5577 27.5515C42.4057 28.4689 43.0058 29.808 43.1212 31.0393C43.2464 32.3776 43.4961 32.6248 44.8496 32.7496C46.9303 32.9415 48.7005 34.207 49.6322 36.1688C50.0496 37.0476 50.0938 37.2728 50.0938 38.5225C50.0938 39.7722 50.0496 39.9973 49.6322 40.8761C48.9965 42.2146 48.161 43.0719 46.8736 43.7065C45.9605 44.1567 45.624 44.2418 44.5038 44.3055L43.1982 44.3797L43.146 43.1488C43.0779 41.5429 42.6081 40.7045 41.4342 40.0926L40.6542 39.6862H35.0658C31.4994 39.6862 29.3288 39.7418 29.0668 39.8398C27.5918 40.3916 26.8333 41.5664 26.8333 43.2989V44.3814L25.5119 44.3064C24.3743 44.2416 24.0427 44.1583 23.1264 43.7065C21.839 43.0719 21.0035 42.2146 20.3678 40.8761C19.9504 39.9973 19.9062 39.7722 19.9062 38.5225C19.9062 37.2728 19.9504 37.0476 20.3678 36.1688C21.1848 34.4487 22.6581 33.2446 24.4315 32.8482C25.3189 32.65 25.6187 32.3906 25.8453 31.6254C25.9557 31.2527 26.2954 30.7576 26.7555 30.2986C27.8364 29.2204 28.8982 28.9757 30.4197 29.4542C31.1361 29.6794 31.213 29.6794 31.5588 29.4535C31.7626 29.3202 32.1498 28.8678 32.419 28.4481C32.6884 28.0285 33.1613 27.464 33.4702 27.1938C34.0194 26.7133 35.6226 25.8671 35.9844 25.867C36.1229 25.8668 36.1667 26.4437 36.1667 28.267ZM14 28.0488V29.2126H8.16667H2.33333V28.0488V26.8851H8.16667H14V28.0488ZM62.3582 28.6671L62.5472 29.2126H60.6636C59.2199 29.2126 58.7949 29.1701 58.844 29.0307C58.8792 28.9308 58.9749 28.6666 59.0565 28.4438L59.205 28.0386L60.6871 28.0801L62.1692 28.1216L62.3582 28.6671ZM38.142 33.0609C38.3677 33.2859 38.5 33.5841 38.5 33.8675C38.5 34.1509 38.3677 34.4491 38.142 34.6741C37.9164 34.8993 37.6174 35.0312 37.3333 35.0312C37.0492 35.0312 36.7503 34.8993 36.5247 34.6741C35.8012 33.9526 36.3138 32.7038 37.3333 32.7038C37.6174 32.7038 37.9164 32.8357 38.142 33.0609ZM24.5 36.195V37.3587H25.6667H26.8333V36.195V35.0312H25.6667H24.5V36.195ZM29.1667 36.195V37.3587H30.3333H31.5V36.195V35.0312H30.3333H29.1667V36.195ZM43.1667 36.195V37.3587H44.3333H45.5V36.195V35.0312H44.3333H43.1667V36.195ZM57.1549 39.9528C56.1995 40.2016 54.7362 40.9774 54.2844 41.4746C54.062 41.7194 54.0988 41.7869 54.873 42.5592L55.6986 43.3827L56.0334 43.069C56.5454 42.5891 57.6979 42.1363 58.6189 42.0529C59.66 41.9588 60.8258 42.2805 61.6801 42.8978L62.3102 43.3531L63.1257 42.5397L63.9412 41.7262L63.4341 41.298C62.3163 40.3537 60.4177 39.6791 58.9225 39.6946C58.4781 39.6991 57.6826 39.8154 57.1549 39.9528ZM40.5417 42.3046C40.7686 42.531 40.8333 42.7894 40.8333 43.4683V44.3411H35H29.1667V43.4683C29.1667 41.9377 28.8623 42.0137 35 42.0137C40.0556 42.0137 40.2608 42.0244 40.5417 42.3046ZM57.5127 43.5182C57.1013 43.7143 56.7156 43.9543 56.6555 44.0515C56.587 44.1619 56.8435 44.5247 57.3406 45.0206C58.0991 45.7772 58.1535 45.805 58.5362 45.631C58.85 45.4884 59.0371 45.4864 59.3967 45.6218C59.8415 45.7893 59.8812 45.7704 60.6261 45.0366C61.0495 44.6196 61.3958 44.2297 61.3958 44.1704C61.3958 44.111 61.0979 43.8883 60.7337 43.6755C59.7603 43.1064 58.5048 43.0452 57.5127 43.5182ZM11.2629 46.7777L13.0165 47.7596L11.1749 47.8004C10.1621 47.8228 8.51594 47.8228 7.51683 47.8004L5.70048 47.7596L7.40746 46.7819C8.34648 46.2441 9.20339 45.8024 9.31204 45.8C9.42054 45.7977 10.2985 46.2377 11.2629 46.7777ZM40.8333 53.651V60.6335H35H29.1667V53.651V46.6686H35H40.8333V53.651ZM53.0724 47.9752C52.946 48.049 52.2406 49.0149 51.5047 50.1216L50.1667 52.1337V55.4446V58.7556L50.5247 59.1126C50.8318 59.4191 51.018 59.4697 51.8372 59.4697C52.606 59.4697 52.7917 59.5139 52.7917 59.6974C52.7917 60.0936 54.2709 61.428 54.9232 61.6203C56.3022 62.0267 57.3771 61.7408 58.4427 60.6842C58.8637 60.2667 59.2083 59.8226 59.2083 59.6974C59.2083 59.5161 59.3865 59.4697 60.0833 59.4697C60.7801 59.4697 60.9583 59.5161 60.9583 59.6974C60.9583 59.8226 61.3029 60.2667 61.724 60.6842C62.7896 61.7408 63.8645 62.0267 65.2435 61.6203C65.8958 61.428 67.375 60.0936 67.375 59.6974C67.375 59.5139 67.5606 59.4697 68.3295 59.4697C69.1486 59.4697 69.3349 59.4191 69.642 59.1126C69.9969 58.7587 70 58.7316 70 56.0012C70 53.5946 69.9678 53.2072 69.7448 52.9329C69.5605 52.7061 69.0037 52.4975 67.7396 52.1817C66.7771 51.9411 65.743 51.6797 65.4417 51.6007C64.9553 51.4734 64.7636 51.2636 63.7382 49.737C63.1028 48.7908 62.4746 47.9752 62.342 47.9246C61.9614 47.7788 53.328 47.8261 53.0724 47.9752ZM33.2886 49.2204C31.9722 49.5739 30.1875 50.6349 30.1875 51.0636C30.1875 51.1465 30.5187 51.5345 30.9237 51.9258L31.6597 52.6373L32.2726 52.2167C32.6096 51.9854 33.1994 51.6898 33.5832 51.5598C34.9328 51.1029 36.4563 51.3444 37.7274 52.2167L38.3403 52.6373L39.0763 51.9258C39.4813 51.5345 39.8125 51.1465 39.8125 51.0636C39.8125 50.8386 38.9896 50.1911 38.19 49.7869C36.6686 49.0179 34.8323 48.8057 33.2886 49.2204ZM15.1667 54.2329V58.306H14H12.8333V55.7538C12.8333 52.2765 13.0592 52.4873 9.33333 52.4873C5.60744 52.4873 5.83333 52.2765 5.83333 55.7538V58.306H4.66667H3.5V54.2329V50.1598H9.33333H15.1667V54.2329ZM56 50.7417V51.3236H54.7584H53.5167L53.9028 50.7417C54.2802 50.1728 54.3077 50.1598 55.1444 50.1598H56V50.7417ZM61.5972 50.7417L61.9832 51.3236H60.1583H58.3333V50.7417V50.1598H59.7723H61.2112L61.5972 50.7417ZM33.9062 52.6629C33.6656 52.7467 33.25 52.9781 32.9828 53.177L32.4968 53.5387L33.3085 54.3104C34.082 55.0459 34.1409 55.0744 34.5602 54.9166C34.8899 54.7924 35.1113 54.793 35.4445 54.9184C35.8693 55.0784 35.9247 55.0519 36.6887 54.3254L37.4885 53.5651L37.1515 53.2493C36.4465 52.5886 34.9137 52.3116 33.9062 52.6629ZM65.8475 54.1055L67.6667 54.5599V55.8511C67.6667 56.6149 67.6072 57.1423 67.5208 57.1423C67.4406 57.1423 67.375 57.0398 67.375 56.9146C67.375 56.5183 65.8958 55.184 65.2435 54.9917C63.8645 54.5852 62.7896 54.8712 61.724 55.9277C61.3029 56.3452 60.9583 56.7893 60.9583 56.9146C60.9583 57.0958 60.7801 57.1423 60.0833 57.1423C59.3865 57.1423 59.2083 57.0958 59.2083 56.9146C59.2083 56.5183 57.7291 55.184 57.0768 54.9917C55.6978 54.5852 54.6229 54.8712 53.5573 55.9277C53.1363 56.3452 52.7917 56.7893 52.7917 56.9146C52.7917 57.0398 52.726 57.1423 52.6458 57.1423C52.5567 57.1423 52.5 56.4634 52.5 55.3966V53.651H58.2642H64.0284L65.8475 54.1055ZM10.5 56.5604V58.306H9.33333H8.16667V56.5604V54.8148H9.33333H10.5V56.5604ZM34.1504 56.3151C33.4262 57.0842 33.9602 58.306 35.0204 58.306C35.6936 58.306 36.1667 57.8172 36.1667 57.1219C36.1667 56.0891 34.8569 55.5649 34.1504 56.3151ZM56.8086 57.4994C57.0344 57.7244 57.1667 58.0226 57.1667 58.306C57.1667 58.5894 57.0344 58.8876 56.8086 59.1126C56.583 59.3378 56.2841 59.4697 56 59.4697C55.7159 59.4697 55.417 59.3378 55.1913 59.1126C54.9656 58.8876 54.8333 58.5894 54.8333 58.306C54.8333 58.0226 54.9656 57.7244 55.1913 57.4994C55.417 57.2742 55.7159 57.1423 56 57.1423C56.2841 57.1423 56.583 57.2742 56.8086 57.4994ZM64.9753 57.4994C65.2011 57.7244 65.3333 58.0226 65.3333 58.306C65.3333 58.5894 65.2011 58.8876 64.9753 59.1126C64.7497 59.3378 64.4507 59.4697 64.1667 59.4697C63.8826 59.4697 63.5836 59.3378 63.358 59.1126C63.1323 58.8876 63 58.5894 63 58.306C63 58.0226 63.1323 57.7244 63.358 57.4994C63.5836 57.2742 63.8826 57.1423 64.1667 57.1423C64.4507 57.1423 64.7497 57.2742 64.9753 57.4994ZM40.8333 63.8337C40.8333 65.3643 41.1377 65.2884 35 65.2884C28.8623 65.2884 29.1667 65.3643 29.1667 63.8337V62.9609H35H40.8333V63.8337Z" fill="white"/>
</svg>
