<svg width="70" height="52" viewBox="0 0 70 52" fill="none" xmlns="http://www.w3.org/2000/svg">
<path fill-rule="evenodd" clip-rule="evenodd" d="M2.56233 0.5858C1.60096 0.915433 0.943288 1.46509 0.425342 2.37145L0 3.11598V25.6219V48.1277L0.360959 48.892C0.868767 49.967 1.59315 50.7043 2.6489 51.2201L3.55589 51.6634H34.9971H66.4384L67.2082 51.3051C68.2911 50.801 69.0338 50.0819 69.5534 49.0338L70 48.1335V25.6247V3.11598L69.5751 2.36805C69.3412 1.95669 68.8916 1.4228 68.5759 1.1817C67.3748 0.264463 69.8814 0.327833 34.9408 0.332728C4.63671 0.336944 3.25671 0.347687 2.56233 0.5858ZM67.4197 2.16992C67.7867 2.38342 68.1189 2.71958 68.2879 3.04839C68.5579 3.57385 68.5616 3.85276 68.5595 23.4746L68.5571 43.3682L68.2484 43.9094C68.0752 44.2128 67.7001 44.5851 67.3945 44.757L66.8493 45.0635L44.6233 45.0659L22.3973 45.068V43.9801V42.8922H43.9649H65.5326L65.917 42.5641L66.3014 42.2358V23.4722C66.3014 5.21113 66.2944 4.70064 66.0404 4.42214L65.7794 4.13588H35H4.22055L3.95959 4.42214C3.70562 4.70064 3.69863 5.21113 3.69863 23.4722V42.2358L4.08301 42.5641C4.45836 42.8846 4.52452 42.8922 6.92548 42.8922H9.38356V43.9871V45.0818L6.11918 45.041L2.85466 45L2.37123 44.6337C1.36301 43.8699 1.43836 45.5789 1.43836 23.4541C1.43836 3.89056 1.4426 3.5729 1.71068 3.05125C1.8737 2.73399 2.21712 2.38206 2.56685 2.17413L3.15068 1.82668L34.9879 1.82532L66.8252 1.8241L67.4197 2.16992ZM64.863 23.4461V41.3964L43.4589 41.389L22.0548 41.3816L21.6438 40.7476C21.3558 40.3032 21.013 40.0002 20.4981 39.735L19.7633 39.3566H15.9934C13.5286 39.3566 12.0399 39.4112 11.6929 39.5145C11.066 39.7009 10.1453 40.4464 9.85589 41.002L9.65055 41.3964H7.3937H5.13699V23.4461V5.49576H35H64.863V23.4461ZM41.3014 8.2155C40.9716 8.54282 40.9588 8.73769 41.2407 9.13708C41.434 9.4111 41.5684 9.43938 42.6759 9.43938C43.8095 9.43938 43.9132 9.41613 44.1101 9.11777C44.2667 8.88034 44.2882 8.70709 44.1922 8.45633C44.0219 8.01193 43.8086 7.94353 42.5915 7.94353C41.7579 7.94353 41.5262 7.99234 41.3014 8.2155ZM47.637 8.15145C47.2784 8.40221 47.2337 8.9176 47.544 9.22575C47.7321 9.41246 48.4118 9.43938 52.9275 9.43938C56.7648 9.43938 58.1382 9.39736 58.2603 9.2762C58.3507 9.18645 58.4237 8.9569 58.4226 8.76625C58.4178 7.9884 58.5963 8.01478 53.053 7.97371C48.5715 7.94053 47.9074 7.96229 47.637 8.15145ZM21.491 10.508C20.8055 10.826 20.286 11.4772 20.0675 12.2917C19.8856 12.97 19.9797 14.0442 20.2693 14.5941C20.7049 15.4215 21.81 16.1058 22.7011 16.0998C23.631 16.0936 24.8011 15.2877 25.1282 14.4281C25.3805 13.7651 25.3085 12.2156 24.9973 11.6099C24.4019 10.4513 22.7389 9.92867 21.491 10.508ZM30.8486 11.5132C30.7215 11.6067 29.8262 13.6262 28.8589 16.0008C27.8918 18.3755 27.0726 20.3461 27.0385 20.3798C27.0045 20.4137 26.5921 19.7159 26.1221 18.8293C25.6522 17.9427 25.1715 17.1807 25.0541 17.136C24.9367 17.0913 23.9562 17.0547 22.8753 17.0547C20.7522 17.0547 20.4795 17.139 20.4795 17.7957C20.4795 18.3621 20.8132 18.4779 22.6536 18.5505L24.3762 18.6185L25.4336 20.6583C26.0152 21.7802 26.6086 22.7761 26.7525 22.8713C26.9274 22.9871 27.1214 23.0049 27.3388 22.9251C27.6115 22.8249 27.9864 22.0125 29.6782 17.8565L31.6927 12.9071L38.7364 12.8391C44.4285 12.7841 45.8234 12.7353 46.0064 12.5845C46.3219 12.3244 46.2986 11.6596 45.9679 11.484C45.5544 11.2643 31.1492 11.2921 30.8486 11.5132ZM23.5037 12.1487C24.5036 13.1412 23.5512 14.8972 22.2562 14.4492C21.4218 14.1605 21.1674 12.9077 21.793 12.1696C22.2764 11.5993 22.9421 11.5911 23.5037 12.1487ZM33.1096 15.858C32.709 16.2556 32.93 16.6942 34.1385 17.8994L35.3316 19.0894L33.8645 20.5675C33.0575 21.3804 32.3973 22.1505 32.3973 22.2788C32.3973 22.7232 32.6708 23.0381 33.0566 23.0381C33.3645 23.0381 34.0067 22.466 36.6134 19.8697C38.363 18.1272 39.7945 16.6018 39.7945 16.48C39.7945 16.3581 39.6362 16.1349 39.4425 15.9836C38.9459 15.5958 38.6381 15.752 37.4141 17.0139L36.3851 18.0746L35.1762 16.8847C33.9521 15.68 33.5101 15.4604 33.1096 15.858ZM10.4842 17.1817C10.2547 17.6076 10.304 17.7148 11.121 18.5651L11.8996 19.3754L11.1895 20.0891C10.467 20.8154 10.2958 21.3055 10.6438 21.651C10.9925 21.9971 11.4859 21.8262 12.233 21.1003L12.9678 20.3864L13.5386 21.0146C14.319 21.8734 14.649 22.0315 15.0777 21.7528C15.6179 21.4014 15.514 20.9257 14.726 20.1435C14.3493 19.7695 14.0411 19.4324 14.0411 19.3942C14.0411 19.356 14.3493 19.0012 14.726 18.6057C15.4414 17.855 15.5573 17.4913 15.1958 17.1323C14.8201 16.7596 14.423 16.8885 13.6686 17.628L12.9452 18.3373L12.2218 17.628C11.6545 17.0718 11.4041 16.9187 11.0622 16.9187C10.7712 16.9187 10.5789 17.0063 10.4842 17.1817ZM42.213 17.1674C41.8508 17.5646 41.9408 17.839 42.6911 18.6267L43.3959 19.3665L42.6911 20.1062C42.3034 20.5131 41.9863 20.9455 41.9863 21.0671C41.9863 21.5265 42.2619 21.8142 42.7021 21.8142C43.0471 21.8142 43.2668 21.6716 43.7938 21.1056L44.4534 20.3971L45.1719 21.0866C46.0199 21.9004 46.2405 21.9977 46.6281 21.7283C47.1262 21.3819 46.9985 20.8839 46.2078 20.0891L45.4977 19.3754L46.2763 18.5651C46.7044 18.1194 47.0548 17.685 47.0548 17.5997C47.0548 17.2021 46.7553 16.9187 46.3351 16.9187C45.9931 16.9187 45.7427 17.0718 45.1755 17.628L44.4521 18.3373L43.7286 17.628C42.9615 16.876 42.5834 16.7611 42.213 17.1674ZM52.3288 23.0325C51.2615 23.4737 50.6053 25.4749 51.3014 26.1658C51.6311 26.4931 51.8274 26.5059 52.2297 26.2261C52.4716 26.058 52.5342 25.8817 52.5342 25.3693C52.5342 24.6695 52.7058 24.3968 53.1438 24.4C53.5823 24.4033 53.8014 24.6062 53.8014 25.0091C53.8014 25.2964 53.4916 25.6877 52.4144 26.7608C51.3878 27.7834 51.0274 28.2317 51.0274 28.4867C51.0274 29.094 51.2284 29.1575 53.1507 29.1575C55.0785 29.1575 55.274 29.095 55.274 28.4776C55.274 27.9519 55.0279 27.7977 54.1892 27.7977H53.4333L54.2011 27.0157C55.1473 26.0521 55.2741 25.8118 55.2734 24.9849C55.2725 23.7742 54.4022 22.8957 53.2192 22.9112C52.8801 22.9157 52.4795 22.9703 52.3288 23.0325ZM21.1358 25.8853C20.0301 26.2369 19.3041 27.3372 19.4159 28.4919C19.6018 30.4128 22.0523 31.3628 23.477 30.0663C23.9118 29.6707 24.3084 28.7913 24.3121 28.2146C24.3164 27.5348 23.813 26.6078 23.2323 26.2263C22.6768 25.8613 21.707 25.7036 21.1358 25.8853ZM24.1484 30.4808C20.713 33.8861 19.3836 35.2889 19.3836 35.5092C19.3836 35.8746 19.9508 36.2844 20.303 36.1732C20.4395 36.1303 22.6308 34.0272 25.1727 31.4998C30.0893 26.6114 30.2033 26.4654 29.49 25.9696C29.3226 25.8532 29.1244 25.7579 29.0495 25.7579C28.9745 25.7579 26.769 27.8832 24.1484 30.4808ZM44.2466 25.955C43.077 26.3811 42.1112 27.9581 42.5467 28.7309C42.9242 29.4008 43.9041 29.1461 43.9041 28.3781C43.9041 28.1954 44.0825 27.8718 44.3045 27.6512C44.6938 27.2647 44.7432 27.2537 46.0777 27.2537C47.3314 27.2537 47.4838 27.2821 47.8348 27.5818C48.161 27.8605 48.2192 28.0133 48.2192 28.5926C48.2192 29.2705 48.2103 29.2843 46.9521 30.5579C45.6148 31.9117 45.4373 32.2926 45.9355 32.7401C46.0733 32.8639 46.3415 32.9652 46.5316 32.9652C47.4251 32.9652 48.3981 34.1741 48.2282 35.073C48.0744 35.8866 47.6374 36.0929 46.0668 36.0929C44.7442 36.0929 44.6934 36.0815 44.3045 35.6954C44.0825 35.4748 43.9041 35.1512 43.9041 34.9685C43.9041 34.1937 42.896 33.9376 42.5637 34.6282C42.1618 35.4631 43.0633 36.9433 44.247 37.3921C44.7116 37.5683 45.1792 37.608 46.3273 37.5687C48.0047 37.5115 48.4423 37.34 49.1595 36.4592C49.5197 36.0167 49.5888 35.8053 49.6344 35.0032C49.7 33.8499 49.3771 33.0861 48.5001 32.3198L47.9137 31.8074L48.6488 30.9924C49.5351 30.0098 49.7034 29.5561 49.634 28.3368C49.5888 27.5419 49.519 27.329 49.1595 26.8874C48.4323 25.9942 48.009 25.8318 46.3014 25.7913C45.2388 25.766 44.633 25.8143 44.2466 25.955ZM22.5342 27.5257C22.8973 27.8861 22.8963 28.6283 22.5325 28.9552C21.9005 29.5228 20.8904 29.0906 20.8904 28.2525C20.8904 27.6806 21.3003 27.2537 21.8493 27.2537C22.0777 27.2537 22.3821 27.3746 22.5342 27.5257ZM34.8381 30.0415C34.7214 30.2957 34.7214 30.4671 34.8381 30.7214L34.9941 31.0614H37.0548H39.1155L39.2715 30.7214C39.3882 30.4671 39.3882 30.2957 39.2715 30.0415L39.1155 29.7015H37.0548H34.9941L34.8381 30.0415ZM26.5068 31.4858C26.0693 31.6585 25.4418 32.2483 25.1933 32.7204C24.9478 33.1868 24.9447 34.2024 25.1868 34.7778C25.5851 35.7239 26.7441 36.3264 27.8496 36.1618C28.3466 36.0878 28.6126 35.9421 29.0584 35.4997C30.0162 34.5487 30.1255 33.3197 29.3488 32.2367C28.8195 31.4988 27.4144 31.1276 26.5068 31.4858ZM28.1507 33.1012C28.3014 33.2507 28.4247 33.5288 28.4247 33.7192C28.4247 34.1674 27.8514 34.733 27.3973 34.733C26.9822 34.733 26.3699 34.1802 26.3699 33.8056C26.3699 33.6627 26.4977 33.3846 26.6538 33.1875C27.0096 32.7385 27.7427 32.6962 28.1507 33.1012ZM34.9527 33.0779C34.6515 33.4084 34.6667 33.7222 35 34.0531C35.2453 34.2966 35.4566 34.325 37.0242 34.325C38.9338 34.325 39.3836 34.185 39.3836 33.5904C39.3836 32.9406 39.0393 32.8292 37.031 32.8292C35.4112 32.8292 35.1511 32.8603 34.9527 33.0779ZM19.7649 40.9868C20.6177 41.3711 20.8836 42.0236 20.8874 43.7422L20.8904 45.068H15.8789H10.8675L10.9132 43.4468C10.9558 41.938 10.9827 41.7999 11.3014 41.4576C11.9419 40.7695 12.2026 40.7273 15.8219 40.7247C18.8566 40.7227 19.2342 40.7477 19.7649 40.9868ZM35 46.4959H67.2603L67.9249 46.1237L68.5896 45.7516L68.5414 46.8825C68.4999 47.857 68.4358 48.1056 68.0786 48.679C67.8218 49.0912 67.4089 49.5011 66.9934 49.7561L66.3229 50.1676H35H3.67712L3.00658 49.7561C2.5911 49.5011 2.17822 49.0912 1.92137 48.679C1.56425 48.1056 1.50014 47.857 1.45863 46.8825L1.41041 45.7516L2.07507 46.1237L2.73973 46.4959H35Z" fill="white"/>
</svg>
