<svg width="70" height="70" viewBox="0 0 70 70" fill="none" xmlns="http://www.w3.org/2000/svg">
<path fill-rule="evenodd" clip-rule="evenodd" d="M14.7076 0.27288C14.4279 0.423059 13.9988 0.792991 13.7541 1.09511L13.3092 1.64435L13.2631 4.19769L13.2169 6.75103L8.55721 6.7953L3.89754 6.83972L3.13092 7.24393C2.12843 7.77257 1.45152 8.37873 0.908587 9.23406C-0.0518468 10.747 0.000505899 9.42925 0.000505899 32.0769C0.000505899 52.2341 0.00609396 52.6452 0.295357 53.5622C0.821382 55.2305 1.9399 56.4091 3.65563 57.1031L4.48577 57.4388L15.3313 57.4826C21.2964 57.5067 26.1781 57.5729 26.1796 57.6297C26.1812 57.6865 25.9733 59.0011 25.7177 60.5513L25.2528 63.3696L23.8286 63.4196C22.5793 63.4633 22.3317 63.5176 21.8134 63.8609C20.9456 64.4358 20.677 65.1082 20.677 66.7054C20.677 68.303 20.9456 68.9752 21.814 69.55L22.4052 69.9414L34.7689 69.9823C48.5094 70.0278 47.9955 70.0617 48.7612 69.0576C49.5279 68.0519 49.566 65.4683 48.8291 64.4332C48.3202 63.7182 47.4431 63.3959 46.0062 63.3959H44.7521L44.285 60.5644C44.0283 59.0072 43.8193 57.6865 43.8209 57.6297C43.8224 57.5729 48.7043 57.5067 54.6692 57.4826L65.5147 57.4388L66.3449 57.1031C68.0606 56.4091 69.1791 55.2305 69.7051 53.5622C69.9809 52.6882 70 52.2231 70 46.4114C70 40.3455 70 39.9 70 39.2C69.3 39.2 68.46 39.2 67.76 39.2C67.76 39.6678 67.7941 40.3642 67.7941 44.8089V49.4223H65.9559H64.1177V32.0386C64.1177 14.717 64.1167 14.6526 63.8109 14.0211C63.6423 13.6725 63.2948 13.2379 63.0389 13.0553C62.5892 12.7345 62.4464 12.7219 58.7868 12.6796C56.7041 12.6555 54.9995 12.5893 54.9986 12.5326C54.9902 11.9274 53.3389 3.2844 53.1689 2.95551C52.8334 2.3064 52.0081 1.73937 51.286 1.66171C50.5341 1.58081 45.9394 2.38745 45.3165 2.70972C44.3106 3.22998 43.839 4.40008 44.1037 5.7186C44.1924 6.16002 44.2649 6.57628 44.2649 6.64365C44.2649 6.71102 42.7515 6.76618 40.9017 6.76618H37.5385L37.4636 6.10162C37.4224 5.7361 37.2211 5.18378 37.0164 4.8743C36.3633 3.88733 36.0726 3.82437 32.1632 3.82437H28.709L28.6538 2.73193C28.6057 1.78041 28.5416 1.56904 28.156 1.09276C27.255 -0.0208594 27.3925 2.73031e-05 20.9562 2.73031e-05C15.6466 2.73031e-05 15.1783 0.0204728 14.7076 0.27288ZM26.4366 6.14104L26.4758 10.0022H20.9587H15.4416V6.20238C15.4416 4.11238 15.4864 2.35759 15.5414 2.30272C15.5963 2.24771 18.0614 2.22021 21.0193 2.24139L26.3974 2.27993L26.4366 6.14104ZM51.8688 7.35454C52.2098 9.25568 52.475 10.9405 52.4578 11.0983C52.4304 11.3507 52.1347 11.4363 50.0197 11.8043C48.6959 12.0347 47.5787 12.1891 47.5371 12.1475C47.4133 12.0235 46.2016 4.96006 46.2725 4.77516C46.3412 4.59616 50.2525 3.8307 50.8818 3.87321C51.2425 3.89748 51.2587 3.95455 51.8688 7.35454ZM35.258 27.7633L35.2954 49.4223H31.986H28.6768V27.8246C28.6768 15.9458 28.7222 6.18149 28.7777 6.12604C28.8331 6.07059 30.3054 6.04293 32.0497 6.0647L35.2208 6.10427L35.258 27.7633ZM55.7461 7.15376C55.3494 7.65828 55.3614 7.9807 55.796 8.48625L56.1507 8.89899L60.9308 8.97253L65.7109 9.04608L66.3418 9.48985C66.7352 9.76652 67.1272 10.2297 67.3834 10.7201L67.7941 11.5066V24.4797C67.76 37.38 67.76 37.3043 67.76 39.2C68.1624 39.2 68.6916 39.2 69.02 39.2C69.3484 39.2 69.7068 39.2 70 39.2C70 38.8374 70 37.3318 70 24.4783C70 11.903 69.9909 11.4753 69.7051 10.5692C69.1782 8.89825 68.0218 7.68108 66.3761 7.06506C65.6334 6.78721 65.2425 6.76618 60.814 6.76618H56.0508L55.7461 7.15376ZM13.2357 29.1974V49.4223H10.6616H8.08751L8.12486 32.176L8.16221 14.9297L9.77985 14.838C10.6695 14.7877 11.4115 14.738 11.4285 14.7277C11.4456 14.7174 11.5945 14.5642 11.7594 14.3871C12.1459 13.9723 12.1416 13.382 11.7492 12.9609C11.4519 12.6415 11.3581 12.6301 9.43308 12.6757C7.12251 12.7305 6.73663 12.8906 6.18958 14.0211C5.8837 14.653 5.88282 14.7073 5.88282 32.7463C5.88282 50.6224 5.88635 50.8415 6.17634 51.1529C6.33781 51.3263 6.68516 51.5076 6.9484 51.5559C7.21163 51.6043 10.4934 51.6238 14.2411 51.5994L23.2964 51.5938V51.1424C23.2964 50.54 23.2964 50.68 23.2964 49.84V49.4223H18.2985H15.4416V45.5244V41.6266H20.9562H26.4709V45.5244V49.4223H25.0111C23.609 49.4223 23.8 49.4223 23.2964 49.4223C23.2964 50.26 23.2964 50.54 23.2964 51.1424V51.5938H45.7416L67.8319 51.6325L67.7585 52.2838C67.6619 53.1415 67.0316 54.1929 66.3391 54.6513C66.0331 54.8538 65.3915 55.0835 64.9134 55.1618C63.724 55.3567 6.26502 55.3548 5.074 55.1599C3.91607 54.9703 3.14475 54.4215 2.6171 53.4113L2.20637 52.6248V32.1178C2.20637 14.0379 2.23299 11.5469 2.43152 11.0718C2.78343 10.2291 3.31357 9.62591 4.00106 9.28554C4.6018 8.98812 4.84371 8.97283 8.93427 8.97268L13.2357 8.97253V29.1974ZM44.7062 9.08285C44.7062 9.14345 44.9037 10.2853 45.145 11.6202C45.4674 13.4033 45.5844 14.5056 45.5861 15.7755L45.5884 17.5038H41.5406H37.4927L37.5333 15.1871L37.5738 12.8704L40.4414 12.7857C42.0186 12.7391 43.323 12.6894 43.34 12.6754C43.6975 12.3809 43.9708 11.9236 43.9708 11.6202C43.9708 11.4079 43.8358 11.0895 43.6709 10.9125C43.3818 10.602 43.2661 10.5905 40.4357 10.5905H37.5002V9.78153V8.97253H41.1031C43.0848 8.97253 44.7061 9.02225 44.7062 9.08285ZM26.4709 13.3117V14.4149H20.9562H15.4416V13.3117V12.2085H20.9562H26.4709V13.3117ZM53.0747 14.3046C53.777 17.821 57.3323 38.6149 57.2448 38.6943C57.0445 38.876 52.4784 39.605 52.3626 39.4738C52.21 39.3006 47.8728 14.5815 47.9768 14.4774C48.0471 14.4071 52.2375 13.5897 52.747 13.5469C52.8428 13.5388 52.9895 13.8784 53.0747 14.3046ZM61.8756 32.176L61.913 49.4223H61.4614C61.0729 49.4223 61.023 49.3801 61.1054 49.1208C61.158 48.9549 61.1993 48.5413 61.1971 48.2015C61.1951 47.8617 59.899 40.2569 58.3173 31.302C56.7355 22.347 55.4413 14.982 55.4413 14.9353C55.4413 14.8886 56.8807 14.8682 58.6398 14.89L61.8383 14.9297L61.8756 32.176ZM26.4709 25.8144V35.0075H20.9562H15.4416V25.8144V16.6212H20.9562H26.4709V25.8144ZM45.5884 20.8133V21.9165H41.5443H37.5002V20.8133V19.7101H41.5443H45.5884V20.8133ZM31.1825 20.3263C30.8894 20.6409 30.8826 20.8068 30.8826 27.653C30.8826 34.4992 30.8894 34.6651 31.1825 34.9797C31.5856 35.4124 32.3856 35.4124 32.7887 34.9797C33.0817 34.6651 33.0885 34.4992 33.0885 27.653C33.0885 20.8068 33.0817 20.6409 32.7887 20.3263C32.5931 20.1162 32.3139 20.0043 31.9856 20.0043C31.6572 20.0043 31.3781 20.1162 31.1825 20.3263ZM45.5884 31.0361V37.9493H41.5443H37.5002V31.0361V24.1228H41.5443H45.5884V31.0361ZM51.7582 49.2385C51.7632 49.3767 51.2732 49.4223 49.7796 49.4223H47.7943L47.8074 38.2067L47.8206 26.9911L49.786 38.0228C50.8671 44.0903 51.7545 49.1374 51.7582 49.2385ZM26.4709 38.317V39.4202H20.9562H15.4416V38.317V37.2139H20.9562H26.4709V38.317ZM45.5884 41.2588V42.362H41.5443H37.5002V41.2588V40.1557H41.5443H45.5884V41.2588ZM57.7954 41.0014C57.796 41.0622 58.0607 42.5988 58.3836 44.4164C59.0521 48.1799 59.0758 48.478 58.713 48.5729C57.6252 48.8574 54.2481 49.3173 54.1281 49.1973C53.9916 49.0608 52.7942 42.6772 52.7942 42.0862C52.7942 41.8407 52.9944 41.7654 54.2281 41.5465C55.0167 41.4068 56.092 41.2082 56.6177 41.1056C57.8342 40.8679 57.7941 40.8714 57.7954 41.0014ZM45.5884 46.9954V49.4223H41.5443H37.5002V46.9954V44.5684H41.5443H45.5884V46.9954ZM41.9677 60.0496C42.1946 61.4452 42.4155 62.769 42.4586 62.9914L42.537 63.3959H37.8326C33.2959 63.3959 33.1934 63.3959 32.76 63.3959C32.76 63.98 32.76 64.96 32.76 65.52C33.46 65.52 33.32 65.52 40.04 65.52H47.04V66.64V67.7351H35.0003H23.015V66.7054V65.6758L26.765 65.5959C28.8275 65.552 32.76 65.52 32.76 65.52C32.76 65.4733 32.76 65.24 32.76 64.8955C32.76 64.54 32.76 63.84 32.76 63.3959C29.0917 63.3959 30.3359 63.3959 28.8151 63.3959H27.4635L27.5419 62.9914C27.585 62.769 27.8059 61.4452 28.0328 60.0496L28.4454 57.5123H35.0003H41.5551L41.9677 60.0496Z" fill="white"/>
</svg>
