<svg width="52" height="70" viewBox="0 0 52 70" fill="none" xmlns="http://www.w3.org/2000/svg">
<path fill-rule="evenodd" clip-rule="evenodd" d="M32.9571 1.02763C33.1189 3.13285 32.5299 5.85021 31.4687 7.8948C30.8038 9.17589 29.4059 10.5671 27.1682 12.1748C21.7931 16.0366 20.195 17.4169 18.7332 19.4603C17.1434 21.6827 16.5261 23.2462 16.5261 25.051C16.5261 27.6146 17.8881 30.5227 20.5938 33.7367C21.5249 34.8428 23.8041 37.0595 24.2881 37.3299C24.3924 37.3882 24.2092 36.8593 23.881 36.1548C21.9656 32.0418 20.6663 27.1995 20.8107 24.7126C20.8584 23.8913 20.9583 23.5042 21.2735 22.9197C21.7648 22.0088 23.519 20.2677 25.9324 18.2962C31.4802 13.7638 33.212 11.8159 34.2054 8.99032C34.5358 8.05054 34.5761 7.73906 34.5795 6.08998C34.584 3.90758 34.3938 3.06114 33.4881 1.23168L32.8781 0L32.9571 1.02763ZM37.0908 15.5945C33.2493 17.3295 30.2568 19.2304 28.2507 21.21C27.164 22.2825 26.7605 22.7894 26.3969 23.5388C25.9527 24.4548 25.9328 24.5627 25.9414 26.0022C25.9567 28.5404 26.6569 30.3815 28.544 32.8448C30.0846 34.8559 30.1701 35.0569 30.0835 36.4658C30.0335 37.2796 29.8848 37.9872 29.5941 38.7951C29.3643 39.4332 29.1976 39.9765 29.2234 40.0024C29.316 40.0945 31.2649 38.1703 31.8603 37.3992C33.0766 35.824 33.6468 34.0229 33.4053 32.5199C33.2375 31.4755 32.7727 30.4253 31.8152 28.9271C30.4608 26.8084 30.1201 26.0261 30.124 25.0442C30.1275 24.1054 30.4969 23.0847 31.2148 22.0301C31.903 21.0192 34.5971 18.4083 36.7804 16.6363C37.8378 15.7781 38.7616 15.0249 38.8333 14.9623C39.1071 14.7237 38.6592 14.8861 37.0908 15.5945ZM45.706 37.5163C44.5976 37.6859 42.2044 38.4796 42.2044 38.6778C42.2044 38.7439 42.4476 38.798 42.7448 38.798C44.1442 38.798 46.4541 39.5731 47.3774 40.3526C47.9642 40.8479 48.5225 41.9957 48.515 42.6909C48.4938 44.6441 46.1402 47.4888 42.0132 50.5496C41.4926 50.9358 41.0983 51.2516 41.1371 51.2516C41.4669 51.2516 44.3445 50.2865 45.4796 49.7954C47.6127 48.872 48.7444 48.1531 49.9925 46.9288C52.0182 44.9416 52.3835 43.1539 51.3098 40.4813C50.5809 38.6666 49.1075 37.6191 47.1299 37.5095C46.5733 37.4786 45.9326 37.4817 45.706 37.5163ZM14.3044 38.5292C12.1486 38.6648 10.5516 38.8927 8.9192 39.2972C6.28106 39.9511 5.3815 40.7905 5.90935 42.1056C6.43142 43.4058 8.9766 44.3839 13.1619 44.8927C17.0618 45.3668 24.483 45.2955 28.4041 44.7462C32.8453 44.124 37.2651 42.7355 39.2685 41.333C39.798 40.9623 39.7986 40.9604 39.3894 41.0385C34.4256 41.9851 30.7272 42.3156 23.598 42.4495C17.5641 42.5628 12.2858 42.225 11.0786 41.6485C9.78594 41.031 11.6165 39.8237 15.2903 38.8706C16.0833 38.6649 16.7579 38.472 16.7894 38.442C16.8557 38.3786 16.4962 38.3912 14.3044 38.5292ZM13.3679 46.9936C11.7776 47.5059 10.7588 48.2372 10.7588 48.8661C10.7588 49.8315 12.6553 50.8678 15.4902 51.4513C19.5116 52.2791 24.0738 52.2363 30.3265 51.312C31.979 51.0677 37.0799 50.078 37.5168 49.9168C37.7994 49.8126 37.7105 49.72 36.549 48.9094C35.8456 48.4185 35.198 47.9745 35.1101 47.9228C35.0222 47.8711 34.5279 47.9268 34.0116 48.0465C29.964 48.9852 23.89 49.5827 20.1651 49.4085C14.3169 49.1349 12.3848 48.4448 13.7944 47.1325C14.0289 46.9142 14.1988 46.7387 14.172 46.7428C14.1451 46.7468 13.7832 46.8597 13.3679 46.9936ZM14.9801 54.3393C13.4855 54.7003 12.8186 55.2672 12.8186 56.1766C12.8186 58.2121 16.8391 59.5173 23.6666 59.6981C26.8536 59.7825 28.9064 59.628 31.4937 59.1091C33.1059 58.7857 36.5114 57.7591 36.6354 57.5592C36.6664 57.5093 35.8939 56.9852 34.9188 56.3946C33.2993 55.4137 33.1009 55.3284 32.6286 55.4094C27.5703 56.2759 26.8829 56.3549 24.4219 56.3517C20.8514 56.3472 16.8309 55.8455 16.1485 55.3192C15.9301 55.1507 15.9258 54.5049 16.1417 54.2898C16.3597 54.0724 16.0262 54.0867 14.9801 54.3393ZM8.56176 59.2819C5.79304 59.4834 2.40859 60.1249 1.375 60.6444C-0.513933 61.5936 -0.276924 63.2617 1.90189 64.351C3.87335 65.3366 7.78949 65.9788 13.8787 66.3154C17.6807 66.5254 28.402 66.406 31.3564 66.1208C38.5324 65.4276 43.8925 64.2467 46.7488 62.7294C48.242 61.9362 48.6873 61.0784 48.0893 60.1471L47.7817 59.6681L47.6971 60.1518C47.6507 60.4178 47.5657 60.7112 47.5083 60.8037C47.1982 61.3036 44.6985 62.1012 41.4492 62.737C32.0133 64.5832 19.8054 64.8792 10.0036 63.4995C6.7132 63.0364 4.29985 62.3039 4.18986 61.7351C4.06614 61.0952 5.52486 60.3424 8.21847 59.6558C9.92532 59.2209 9.96281 59.18 8.56176 59.2819ZM50.5808 63.9909C49.896 64.577 46.7673 66.0831 45.2018 66.5802C42.2095 67.5303 39.8672 67.9534 35.9565 68.2498C33.4873 68.437 15.9316 68.4965 12.4753 68.3293C10.7759 68.2472 10.7264 68.2521 11.4454 68.4314C14.5609 69.208 22.9492 69.999 28.0799 70C34.2068 70.0012 41.7432 69.205 45.15 68.1967C47.8457 67.3987 50.1916 65.826 50.9735 64.2924C51.4236 63.4097 51.3374 63.3433 50.5808 63.9909Z" fill="white"/>
</svg>
