<svg width="64" height="70" viewBox="0 0 64 70" fill="none" xmlns="http://www.w3.org/2000/svg">
<path fill-rule="evenodd" clip-rule="evenodd" d="M28.7112 0.127074C26.1786 0.545848 22.3092 1.6571 20.8836 2.37518C19.6707 2.98623 19.0576 4.0422 19.1442 5.37133C19.1892 6.06244 19.3705 6.55238 20.2546 8.3709C20.8971 9.69264 21.3111 10.7156 21.3111 10.9815C21.3111 11.5046 21.1272 11.683 19.4692 12.7688C18.0851 13.6752 16.2327 15.1913 15.213 16.2523C14.4116 17.086 14.0544 17.2618 13.5505 17.0704C13.3523 16.9952 12.3671 16.286 11.3612 15.4944C10.3555 14.7029 9.30224 13.9592 9.0209 13.8418C8.22443 13.5095 6.83199 13.6349 6.12419 14.1026C4.81877 14.9654 2.28329 19.5667 0.89044 23.6006C0.102335 25.883 0.177843 26.9308 1.20782 28.003C1.84943 28.671 2.20066 28.8135 4.49865 29.3374C7.24434 29.9633 7.44003 30.0336 7.6682 30.4742C7.82373 30.7746 7.83429 31.0587 7.72205 31.934C7.58474 33.0041 7.65655 38 7.82319 38.9861C7.88979 39.3801 7.84278 39.5488 7.58556 39.8392C7.31217 40.1475 6.91298 40.282 4.88359 40.7499C3.57405 41.052 2.24821 41.4387 1.93727 41.6095C1.22358 42.0016 0.527289 43.0229 0.401077 43.8628C0.329681 44.3385 0.381344 44.76 0.603208 45.5133C1.73172 49.344 4.75121 54.9986 6.20559 56.0052C6.667 56.3246 6.97574 56.4221 7.66518 56.4658C8.14605 56.4965 8.75861 56.4493 9.02638 56.361C9.29415 56.2727 10.364 55.5195 11.4038 54.6871C12.4437 53.8548 13.4286 53.1118 13.5926 53.036C14.0727 52.8144 14.4727 53.004 15.5292 53.9543C16.6609 54.9722 17.1097 55.0886 17.6858 54.5131C18.2819 53.9179 18.1239 53.5337 16.7709 52.2881C15.6964 51.2989 15.216 51.0288 14.3491 50.9267C13.213 50.7927 12.7084 51.0371 10.4802 52.8002C7.68998 55.0079 7.59502 55.0063 6.16489 52.7278C5.04652 50.9458 3.59913 47.9211 2.93929 45.9872C2.43719 44.5156 2.38703 44.2621 2.52955 43.9185C2.75278 43.3803 2.97821 43.289 5.48326 42.7228C7.97913 42.1586 8.48193 41.9448 9.15232 41.1627C9.87738 40.3168 9.99633 39.7102 9.79489 37.888C9.67895 36.8399 9.65826 35.5994 9.72897 33.9377C9.78571 32.6055 9.83093 31.2017 9.82969 30.8183C9.82572 29.659 9.08311 28.5579 8.00051 28.1064C7.72699 27.9921 6.52873 27.6808 5.33787 27.4143C3.01603 26.8949 2.59012 26.7113 2.45432 26.1708C2.22875 25.2732 3.96036 20.9972 5.8286 17.8386C6.80815 16.1823 7.25023 15.7087 7.81661 15.7087C8.2972 15.7087 8.51139 15.8504 10.8277 17.6998C12.4399 18.9871 12.8285 19.1775 13.8426 19.1775C14.9106 19.1775 15.3564 18.9384 16.726 17.6307C18.1472 16.2737 19.6742 15.0658 21.3081 14.0059C22.9313 12.9529 23.3667 12.2949 23.3667 10.895C23.3667 10.0766 23.2941 9.87096 22.2704 7.78817C21.6674 6.56141 21.1741 5.38515 21.1741 5.17426C21.1741 4.55691 21.5679 4.24844 23.0241 3.72579C25.3506 2.89057 29.7353 1.87799 30.0865 2.09476C30.1683 2.14526 30.2186 4.67091 30.2186 8.73192V15.2876L29.6362 15.4334C26.9156 16.1144 24.3933 17.2399 22.3726 18.6742C21.7545 19.1131 20.6614 20.0577 19.9438 20.7734C17.1252 23.5839 15.3111 26.9698 14.445 31.0364C14.0088 33.0847 14.0083 36.51 14.4438 38.5634C15.3135 42.6636 17.0917 45.9851 19.9393 48.829C22.5443 51.4306 25.7673 53.257 29.2251 54.0914L30.2186 54.3311V61.0826C30.2186 65.2693 30.1684 67.865 30.0865 67.9156C29.7443 68.1268 25.3403 67.1187 23.1654 66.3315C21.8371 65.8508 21.3111 65.4531 21.3111 64.9293C21.3111 64.7462 21.8448 63.4655 22.4971 62.0834C23.5617 59.8274 23.6844 59.4855 23.6961 58.7394C23.7146 57.5675 23.3415 57.0553 21.6644 55.9509C20.1867 54.9778 19.6652 54.8573 19.2342 55.3888C18.9723 55.7118 18.9049 56.2957 19.0948 56.5946C19.1548 56.6891 19.7199 57.1201 20.3502 57.5526C20.9805 57.9851 21.5521 58.4312 21.6202 58.5441C21.708 58.6897 21.3971 59.4998 20.5493 61.3336C19.8551 62.8356 19.3266 64.1681 19.2874 64.5155C19.1366 65.8512 19.9514 67.2181 21.2359 67.7838C23.1588 68.631 27.3142 69.7369 29.4789 69.9776C30.511 70.0924 31.3775 69.7625 31.8757 69.0649C32.1684 68.655 32.2109 68.4292 32.2517 67.0633L32.2977 65.5237H37.2556H42.2137L42.4492 66.1863C42.7896 67.1433 43.6352 68.0329 44.7036 68.5583C45.4634 68.9318 45.7629 69.0031 46.5808 69.0051C48.0476 69.0089 48.884 68.6674 49.9066 67.6467C50.6401 66.9147 50.792 66.6715 51.0545 65.8082C51.2893 65.0363 51.3367 64.64 51.2661 64.0406C51.084 62.4932 50.1738 61.1272 48.8289 60.3832C48.1606 60.0135 47.9916 59.9811 46.7317 59.9811C45.5548 59.9811 45.2651 60.0284 44.6797 60.3161C43.5513 60.8705 42.6745 61.9146 42.2296 63.2332C42.1535 63.4584 41.8245 63.472 37.2455 63.4384L32.3427 63.4024L32.3056 60.6311L32.2686 57.8598H43.4147H54.5609L54.8739 58.6142C55.2757 59.5822 56.1907 60.5184 57.1849 60.9789C57.8236 61.2748 58.1723 61.3426 59.068 61.3458C60.0383 61.3492 60.2746 61.2968 61.0835 60.8991C62.6585 60.1248 63.5163 58.8202 63.6219 57.0387C63.6712 56.2061 63.6246 55.8586 63.375 55.1982C63.0031 54.2132 62.0855 53.1872 61.1234 52.68C60.5121 52.3579 60.2828 52.3174 59.0651 52.3174C57.8025 52.3172 57.637 52.3491 56.9618 52.7226C56.0265 53.2399 55.0907 54.2784 54.7851 55.1377L54.5464 55.8087L43.4445 55.7736L32.3427 55.7386L32.2684 54.694C32.1471 52.9898 31.7447 52.6323 29.1355 51.9119C23.4218 50.3341 18.7829 45.8727 17.0168 40.2568C15.8491 36.544 15.8979 32.4345 17.1509 28.9516C18.7651 24.4648 21.9688 20.8666 26.1532 18.8412C27.1758 18.3462 28.9959 17.7153 30.4523 17.351C31.1121 17.186 31.7817 16.6734 32.0735 16.1099C32.1977 15.87 32.2742 15.3286 32.2742 14.6892V13.6559L43.4085 13.6583L54.5428 13.6606L54.8636 14.4008C55.3112 15.4337 55.9525 16.1282 56.9648 16.6763C57.7713 17.113 57.9177 17.1456 59.0651 17.143C60.0755 17.1408 60.4153 17.0828 60.9447 16.8222C61.9178 16.3432 62.7724 15.5187 63.2028 14.6432C63.5377 13.9622 63.5873 13.7022 63.5873 12.6295C63.5873 11.5575 63.5376 11.2967 63.2036 10.6174C62.7186 9.63119 61.6929 8.69853 60.6687 8.3126C60.0453 8.07762 59.6794 8.02999 58.8595 8.0768C57.6263 8.14701 56.785 8.48859 55.9483 9.25881C55.4122 9.75244 54.6113 11.0699 54.6113 11.4585C54.6113 11.5614 51.3085 11.5944 43.477 11.5697L32.3427 11.5347L32.3056 8.7634L32.2686 5.9921H37.197H42.1255L42.4935 6.81103C42.9228 7.76641 43.892 8.74109 44.8519 9.18299C45.3643 9.41879 45.7542 9.48037 46.7317 9.47996C47.8139 9.47942 48.0538 9.43289 48.6891 9.09965C49.6567 8.59219 50.4503 7.77394 50.8872 6.83348C51.1801 6.20285 51.2462 5.85894 51.2462 4.96569C51.2462 4.07244 51.1801 3.72853 50.8872 3.0979C50.4503 2.15744 49.6567 1.33919 48.6891 0.831736C48.0538 0.498496 47.8139 0.451966 46.7317 0.451418C45.7542 0.451008 45.3643 0.512592 44.8519 0.748392C43.892 1.19029 42.9228 2.16497 42.4935 3.12035L42.1255 3.93928H37.213H32.3006L32.2532 2.67338C32.1974 1.18988 31.9198 0.65492 30.9859 0.23122C30.3787 -0.044131 29.884 -0.0667119 28.7112 0.127074ZM47.6632 2.61878C48.4457 2.94531 49.2654 4.14593 49.2654 4.96569C49.2654 5.78545 48.4457 6.98607 47.6632 7.3126C46.6521 7.73453 45.3503 7.36598 44.6602 6.46247C44.3097 6.00346 44.265 5.83417 44.265 4.96569C44.265 4.09721 44.3097 3.92793 44.6602 3.46892C45.3503 2.5654 46.6521 2.19686 47.6632 2.61878ZM60.1722 10.3572C62.057 11.2121 62.0504 13.9744 60.1614 14.8876C58.4035 15.7375 56.3758 14.3469 56.5614 12.4186C56.7316 10.6497 58.5402 9.61709 60.1722 10.3572ZM30.6982 23.9294C26.7343 24.4992 23.2021 27.3346 21.7956 31.0765C19.7026 36.6444 22.4288 42.9968 27.8962 45.2907C30.031 46.1866 29.5933 46.1588 41.5927 46.1588C53.8955 46.1588 53.3609 46.1997 55.7762 45.0725C59.699 43.2414 62.1484 39.3718 62.1484 35.0052C62.1484 30.5964 59.6934 26.7449 55.7074 24.9006C53.6271 23.9381 53.2587 23.92 48.3794 23.8516C46.1394 23.8516 45.5794 23.8516 44.5994 23.8516C44.5994 24.2716 44.5994 24.64 44.5994 25.8134H48.0994C53.0854 25.8762 53.2692 25.9732 55.1595 26.8992C56.5485 27.5796 58.3192 29.3226 59.0427 30.7217C61.9701 36.3814 58.4966 43.1231 52.1836 44.0348C50.8783 44.2233 32.4607 44.2166 31.0967 44.0272C29.0105 43.7374 27.3282 42.9047 25.8453 41.4278C24.7653 40.3521 24.0349 39.1575 23.5501 37.6738C23.2486 36.7516 23.1923 36.331 23.1923 35.0052C23.1923 33.6793 23.2486 33.2588 23.5501 32.3365C24.5073 29.4076 26.6468 27.2683 29.6019 26.2854C30.6901 25.9235 30.4581 25.8663 35.2194 25.8134C39.9794 25.8134 41.7317 25.8134 44.5994 25.8134C44.5994 24.5 44.5994 24.5516 44.5994 23.8516H40.3839L35.9521 23.8315C33.5148 23.8204 31.1505 23.8644 30.6982 23.9294ZM28.7735 29.7301L28.4371 30.066V34.8683V39.6707L28.7735 40.0065C29.1027 40.3354 29.1564 40.3425 31.3149 40.3425C33.4734 40.3425 33.5271 40.3354 33.8563 40.0065C34.2879 39.5756 34.296 38.9818 33.8756 38.5872C33.5889 38.3183 33.4108 38.2897 32.0256 38.2897H30.4927V37.1264V35.9632H31.6619C33.4887 35.9632 34.1192 35.5484 33.8601 34.5172C33.731 34.0036 33.051 33.7735 31.6619 33.7735H30.4927V32.6102V31.447H32.0448C33.4898 31.447 33.6173 31.4252 33.8948 31.1303C34.29 30.71 34.2745 30.1478 33.8563 29.7301C33.5271 29.4013 33.4734 29.3942 31.3149 29.3942C29.1564 29.3942 29.1027 29.4013 28.7735 29.7301ZM38.0921 29.7301L37.7557 30.066V34.8683V39.6707L38.0921 40.0065C38.5215 40.4354 39.1184 40.4456 39.5085 40.0309C39.7668 39.7562 39.8063 39.5337 39.8407 38.1621L39.8798 36.6053L41.4557 38.4085C42.3225 39.4003 43.1703 40.2478 43.34 40.292C43.8424 40.4227 44.3145 40.2288 44.536 39.8008C44.8281 39.2369 44.6529 38.8669 43.4687 37.5458C41.9789 35.8838 42.0414 36.0083 42.5849 35.7816C44.3948 35.0264 45.182 32.8801 44.2657 31.1989C43.4984 29.791 42.5891 29.3942 40.1304 29.3942C38.5061 29.3942 38.4131 29.4095 38.0921 29.7301ZM48.8681 29.6556C48.5883 29.935 48.5817 30.0535 48.5817 34.863C48.5817 39.7495 48.5839 39.7865 48.8816 40.0635C49.258 40.4137 49.8245 40.4211 50.2452 40.0812C50.5472 39.8372 50.5717 39.7108 50.6141 38.1819L50.6594 36.5437L51.7789 36.4829C53.0693 36.4127 53.9105 36.0946 54.5839 35.4221C55.9258 34.082 56.0201 32.0668 54.8072 30.6517C53.9329 29.6315 53.4711 29.4753 51.1635 29.4188C49.2733 29.3724 49.1375 29.3865 48.8681 29.6556ZM42.1142 31.7876C42.5998 32.1957 42.7097 32.6424 42.4668 33.2197C42.2394 33.7594 41.5796 34.0472 40.5693 34.0472H39.8113V32.7471V31.447H40.76C41.571 31.447 41.7676 31.4965 42.1142 31.7876ZM52.9185 31.7106C53.5488 32.0944 53.7507 32.7969 53.4232 33.4664C53.0964 34.1343 52.4453 34.4572 51.4252 34.4575L50.6372 34.4578V32.9524V31.447L51.5623 31.4475C52.2324 31.4478 52.6061 31.5203 52.9185 31.7106ZM60.5573 54.7598C61.2881 55.3164 61.6441 56.0984 61.5704 56.9853C61.3929 59.123 59.0204 60.0654 57.3979 58.6428C56.5238 57.8763 56.2983 56.8029 56.7876 55.7386C57.2534 54.7255 58.0282 54.2797 59.2199 54.3391C59.8868 54.3722 60.1625 54.459 60.5573 54.7598ZM47.8905 62.236C49.3783 62.9941 49.6678 65.0187 48.4608 66.2241C47.2538 67.4295 45.2264 67.1403 44.4674 65.6545C44.1466 65.0264 44.1084 63.8994 44.3898 63.3614C44.5998 62.9601 45.1988 62.3654 45.6354 62.1248C46.0874 61.8757 47.3006 61.9356 47.8905 62.236Z" fill="white"/>
</svg>
