<svg width="70" height="70" viewBox="0 0 70 70" fill="none" xmlns="http://www.w3.org/2000/svg">
<path fill-rule="evenodd" clip-rule="evenodd" d="M32.2342 0.0349697C31.9533 0.0682441 31.0913 0.163689 30.3185 0.247167C24.9604 0.825967 18.9212 3.01741 14.3942 6.02568C1.05636 14.8889 -3.64944 30.5831 2.97802 44.0985C6.79945 51.8913 13.9966 58.0311 22.7465 60.9625L24.4279 61.526L24.5009 65.023C24.581 68.8606 24.5868 68.8856 25.5785 69.6261C25.9644 69.9143 26.1655 69.927 30.3374 69.927C34.5093 69.927 34.7103 69.9143 35.0963 69.6261C36.0625 68.9046 36.0967 68.7792 36.1461 65.7651L36.1913 63.0102L36.8027 62.9352C37.139 62.8939 37.9722 62.8197 38.6543 62.7705C40.1469 62.6628 42.7853 62.2266 44.3143 61.8348C44.9272 61.6777 45.4391 61.5626 45.4516 61.5788C45.4642 61.5951 46.5747 63.3816 47.9196 65.5488C49.2645 67.716 50.4949 69.6042 50.654 69.7446C50.919 69.9785 51.4213 70 56.6243 70H62.3053L62.6634 69.6417C62.8694 69.4358 63.0216 69.1137 63.0216 68.8838C63.0216 68.6147 61.8499 66.6089 59.4355 62.7449C57.4632 59.5882 55.8711 56.95 55.8972 56.8821C55.9234 56.8143 56.6343 56.241 57.477 55.6081C69.3924 46.659 73.3172 31.5261 67.0256 18.7912C62.078 8.77666 51.9581 1.85835 39.8946 0.243519C38.6794 0.0807951 33.1246 -0.0703993 32.2342 0.0349697ZM40.0405 2.63519C43.8602 3.19823 47.241 4.23251 50.5462 5.84909C54.1229 7.59848 56.9 9.57685 59.5533 12.2655C64.0608 16.8332 66.8655 22.6179 67.5354 28.7296C68.5835 38.2903 64.0923 47.8772 55.6722 54.0531C55.0999 54.4728 54.5913 54.8175 54.542 54.8193C54.3488 54.8257 52.9028 52.2852 53.0682 52.23C53.5522 52.0687 56.8317 49.7445 57.889 48.8135C60.0034 46.9516 62.0584 44.327 63.2416 41.9772C63.8823 40.7045 64.6744 38.4104 65.0054 36.8676C65.3693 35.172 65.3778 31.4631 65.0218 29.6939C63.0797 20.0418 54.3117 12.6088 42.7399 10.8045C40.4329 10.4448 35.4364 10.4398 33.1826 10.795C29.6813 11.3468 26.909 12.2195 23.8443 13.7347C16.8839 17.1758 12.1881 22.933 10.8278 29.6939C10.4351 31.6448 10.4744 35.1802 10.9105 37.1516C11.7028 40.7322 13.3109 43.8521 15.8753 46.7832C17.6303 48.7892 20.8083 51.2172 23.3552 52.4981L24.5009 53.0741V56.0643C24.5009 57.7089 24.4803 59.0545 24.4554 59.0545C24.2797 59.0545 21.7226 58.1139 20.7072 57.6756C16.118 55.6955 11.575 52.2825 8.5558 48.5467C5.64602 44.9465 3.56488 40.484 2.73654 36.0688C2.30785 33.7837 2.26933 29.3903 2.65921 27.2394C3.71911 21.3912 6.41075 16.2786 10.6445 12.0721C16.1114 6.64053 23.3985 3.28682 31.5776 2.43832C33.3427 2.25516 38.2348 2.369 40.0405 2.63519ZM40.864 12.946C50.2017 13.9024 57.9744 18.8366 61.3334 25.9406C64.5681 32.7811 63.0683 40.3236 57.3313 46.0678C55.7046 47.6966 54.7525 48.4408 52.7074 49.6817L51.4381 50.4519L50.5923 49.6147C50.1271 49.1543 49.795 48.7378 49.8544 48.6893C49.9139 48.6409 50.3565 48.484 50.838 48.3407C51.8632 48.0355 53.6647 47.165 54.6604 46.4934C55.0459 46.2334 55.9522 45.4197 56.6744 44.6852C58.524 42.8041 59.6861 40.7219 60.3548 38.0905C60.7232 36.6411 60.7229 30.9716 60.3545 29.5215C59.6715 26.8342 58.4749 24.7211 56.5358 22.7791C55.0055 21.2462 53.3579 20.1691 51.5335 19.5088C49.1164 18.6341 48.8638 18.6195 36.8701 18.6627C26.131 18.7013 25.9758 18.706 25.5785 19.0029C25.3568 19.1683 25.0402 19.485 24.8747 19.7067C24.5765 20.1062 24.5733 20.2428 24.5009 35.2789L24.4279 50.4481L23.2621 49.7834C21.5854 48.8278 19.6422 47.3017 18.2106 45.8163C9.23852 36.5075 11.799 23.1127 23.8443 16.3443C28.6921 13.6201 35.0503 12.3507 40.864 12.946ZM49.454 21.2852C52.6431 22.2401 54.8109 23.7995 56.4713 26.3336C57.1854 27.423 57.6065 28.3938 58.0361 29.9393C58.3861 31.1985 58.3861 36.415 58.0361 37.6742C57.6067 39.2194 57.1854 40.1903 56.4716 41.2799C54.4092 44.4285 51.1784 46.3285 47.415 46.606C45.9947 46.711 45.5122 47.018 45.5122 47.817C45.5122 48.3302 45.7035 48.5383 47.2563 49.7143C48.4478 50.6166 49.7632 51.9854 50.6925 53.2898C51.3065 54.1516 59.6656 67.4869 59.6656 67.6045C59.6656 67.6378 57.9375 67.6649 55.8251 67.6649H51.9846L46.833 59.417C41.2179 50.4269 40.9409 50.0602 39.274 49.4056C38.5967 49.1397 38.0653 49.0648 36.5096 49.0164C34.6034 48.9568 34.58 48.9601 34.2115 49.3287L33.8393 49.701V58.683V67.6649H30.3374H26.8355V44.3092V20.9535L37.7424 20.9989C47.3711 21.039 48.7436 21.0726 49.454 21.2852ZM34.1975 28.3274L33.8393 28.6856V34.9743V41.263L34.1975 41.6211L34.5555 41.9794H39.8572C44.1472 41.9794 45.3228 41.9368 46.0168 41.756C49.7645 40.7797 52.0763 36.954 51.1253 33.3021C50.4697 30.7849 48.525 28.8461 45.9947 28.1869C45.3282 28.0132 44.0861 27.9691 39.8572 27.9691H34.5555L34.1975 28.3274ZM46.5045 30.8758C47.5291 31.4314 47.9712 31.8898 48.5421 32.9885C48.8711 33.6219 48.9297 33.9202 48.9325 34.9743C48.9354 36.1103 48.8938 36.2923 48.4399 37.1343C47.8895 38.1552 47.4356 38.5949 46.3303 39.1781L45.5852 39.5714L40.8795 39.6171L36.1738 39.6626V34.9743V30.2859L40.8795 30.3315L45.5852 30.3772L46.5045 30.8758ZM38.059 51.4622C38.7738 51.6672 39.5955 52.2784 40.0211 52.9219L40.3897 53.4788L40.0691 53.5648C39.8928 53.612 38.9444 53.6516 37.9613 53.6526L36.1738 53.6547V52.4871V51.3196H36.8679C37.2496 51.3196 37.7856 51.3838 38.059 51.4622ZM42.9555 57.6184C43.7226 58.837 44.0172 59.4243 43.8986 59.4977C43.4524 59.7734 39.6213 60.385 37.1587 60.5734L36.1738 60.6489V58.3192V55.9897L37.9613 55.9726C38.9444 55.9633 40.1755 55.9119 40.6971 55.8584C41.2187 55.805 41.6893 55.7803 41.7427 55.8036C41.7963 55.8268 42.342 56.6435 42.9555 57.6184Z" fill="white"/>
</svg>
