<svg width="70" height="68" viewBox="0 0 70 68" fill="none" xmlns="http://www.w3.org/2000/svg">
<path fill-rule="evenodd" clip-rule="evenodd" d="M6.63144 1.52628C3.72136 1.88054 1.19606 2.1895 1.01969 2.21288C0.763321 2.24683 1.59465 2.96203 5.16335 5.77752L9.62786 9.29954L14.9374 10.7358L20.247 12.1721L20.2834 20.06L20.3199 27.9481L20.0013 28.0111C18.5392 28.3006 10.7899 30.4823 10.2624 30.7529C8.80739 31.4995 7.62347 32.8456 7.13909 34.3041L6.88738 35.0621H3.44369H0V36.1312V37.2002H3.45399H6.90784L7.1889 37.7218C7.69317 38.6582 8.86157 39.3383 9.96536 39.3383C10.2869 39.3383 14.7633 38.2279 15.6448 37.9293C15.7521 37.893 15.2802 38.4203 14.5962 39.101C11.2801 42.4013 8.88161 46.4592 7.69825 50.7714C7.37162 51.9618 7.02946 53.908 6.83631 55.6749L6.75221 56.4433H3.37611H0V61.7886V67.1339H34.9914H69.9828V61.7886V56.4433H66.6078H63.2327L63.1399 55.5413C62.8746 52.9656 62.2967 50.4277 61.5193 48.4253C58.9416 41.7859 53.7732 36.4098 47.055 33.3798C45.4383 32.6507 42.5518 31.6829 41.517 31.5231C41.1873 31.4722 40.9174 31.3882 40.9174 31.3364C40.9174 31.2847 44.0443 30.4232 47.8663 29.4219C52.8194 28.1245 55.125 27.5799 55.8938 27.5262C57.0474 27.4456 58.4072 27.0406 59.4302 26.4728C60.2651 26.0093 61.4853 24.8351 62.011 23.9889L62.4343 23.3078L64.746 23.3051C67.5619 23.3019 67.9828 23.2013 68.9294 22.3048C70.3569 20.9528 70.3569 19.2378 68.9294 17.8858C67.9828 16.9893 67.5619 16.8887 64.746 16.8854L62.4343 16.8828L62.011 16.2003C61.4278 15.2601 60.1206 14.0626 59.1514 13.581C57.9885 13.0032 57.09 12.7575 55.6544 12.6254C54.62 12.53 50.6169 11.456 33.4972 6.68061C22.0052 3.47504 12.4496 0.858922 12.2625 0.867207C12.0756 0.875492 9.54151 1.17202 6.63144 1.52628ZM10.6617 3.49803C10.0884 5.20839 9.6383 6.32528 9.52387 6.32047C9.38151 6.31446 6.13478 3.80685 6.22833 3.77505C6.38621 3.72146 9.88282 3.28903 10.2741 3.27473C10.6645 3.26043 10.7288 3.29758 10.6617 3.49803ZM32.1695 8.53984C42.3742 11.3794 50.7714 13.7462 50.83 13.7993C50.8885 13.8525 50.68 14.0732 50.3666 14.2896C49.7152 14.7396 48.6396 16.0182 48.2083 16.8552C48.0076 17.2444 47.8465 17.4031 47.6968 17.3586C47.5766 17.323 39.449 15.1252 29.6356 12.4749C19.8221 9.82458 11.7609 7.62579 11.722 7.58891C11.683 7.55203 11.9874 6.55994 12.3984 5.38438C13.0116 3.63059 13.188 3.25856 13.3807 3.31188C13.5099 3.34769 21.9649 5.70029 32.1695 8.53984ZM23.865 13.152L24.8326 13.425V20.073V26.721L23.9258 26.9498C23.4269 27.0757 22.9189 27.2151 22.797 27.2595C22.5968 27.3321 22.5751 26.6299 22.5751 20.1096C22.5751 14.7783 22.6174 12.8791 22.7362 12.8791C22.8248 12.8791 23.3328 13.002 23.865 13.152ZM37.36 16.7852L47.4182 19.4939L47.3777 20.0944L47.3372 20.6946L37.2489 23.3972C31.7004 24.8836 27.1447 26.1017 27.1254 26.1042C27.1061 26.1067 27.0901 23.4027 27.0901 20.0953C27.0901 16.7879 27.1378 14.0806 27.1959 14.0792C27.2541 14.0776 31.8279 15.2954 37.36 16.7852ZM57.627 15.2605C58.9001 15.8248 59.7238 16.5921 60.3552 17.8022C60.8532 18.7563 60.8822 18.8826 60.8822 20.0953C60.8822 21.308 60.8532 21.4343 60.3552 22.3884C59.7206 23.6047 58.9037 24.3623 57.5919 24.9508C56.7396 25.3333 56.5211 25.3738 55.309 25.3738C54.0969 25.3738 53.8784 25.3333 53.0261 24.9508C51.7143 24.3623 50.8974 23.6047 50.2628 22.3884C49.7654 21.4354 49.7358 21.3069 49.7358 20.1022C49.7358 18.9463 49.778 18.7415 50.1823 17.9331C50.7493 16.7997 51.5565 15.9699 52.6093 15.4385C53.7207 14.8775 54.3288 14.7505 55.6263 14.8091C56.4732 14.8473 56.9242 14.949 57.627 15.2605ZM54.1802 17.0628C53.4878 17.2695 52.3067 18.4278 52.0943 19.1086C51.7035 20.3615 51.979 21.3604 52.9761 22.3048C54.4036 23.6567 56.2144 23.6567 57.6419 22.3048C59.0206 20.9989 59.0618 19.3377 57.7498 17.9556C56.8366 16.9937 55.5174 16.6636 54.1802 17.0628ZM56.0914 19.3543C56.7913 20.0171 56.2954 21.1643 55.309 21.1643C54.729 21.1643 54.1802 20.6447 54.1802 20.0953C54.1802 19.5459 54.729 19.0262 55.309 19.0262C55.5839 19.0262 55.8731 19.1474 56.0914 19.3543ZM67.3789 19.3543C67.5973 19.561 67.7253 19.835 67.7253 20.0953C67.7253 20.3556 67.5973 20.6296 67.3789 20.8363C67.0448 21.1529 66.9647 21.1643 65.0861 21.1643H63.1397V20.0953V19.0262H65.0861C66.9647 19.0262 67.0448 19.0377 67.3789 19.3543ZM48.2086 23.3359C48.6399 24.1731 49.7155 25.4513 50.3679 25.9019C50.7522 26.1674 50.8808 26.326 50.7607 26.387C50.6626 26.4368 46.9315 27.4415 42.4694 28.6194C36.2093 30.2721 34.0826 30.7815 33.1572 30.8498C29.2222 31.1403 25.6474 32.0752 22.1518 33.7278C21.0699 34.2393 19.7749 34.6353 15.436 35.7809C12.4795 36.5616 9.96677 37.2002 9.85206 37.2002C9.73749 37.2002 9.4965 37.0519 9.3166 36.8706C9.03371 36.5854 9.00098 36.4503 9.07378 35.8684C9.25382 34.4284 10.2443 33.0976 11.545 32.5479C11.9078 32.3947 16.2047 31.2075 21.0936 29.9098C31.8566 27.053 38.7115 25.2253 43.8804 23.8343C46.0144 23.2601 47.7954 22.7852 47.8382 22.779C47.8809 22.7729 48.0476 23.0234 48.2086 23.3359ZM33.8627 35.0621V37.2002H34.9914H36.1202V35.0525V32.9048L36.9315 32.9889C39.5187 33.2575 40.8986 33.5134 42.7557 34.0691C43.7992 34.3813 43.862 34.4213 43.746 34.6989C43.6779 34.8619 43.2992 35.7339 42.9047 36.6367C42.51 37.5394 42.1872 38.2965 42.1872 38.3193C42.1872 38.3418 42.6363 38.5317 43.1853 38.741C44.026 39.0615 44.2035 39.0913 44.31 38.9293C44.3794 38.8235 44.7661 37.9702 45.1691 37.0332C45.5721 36.0962 45.9566 35.3294 46.0234 35.3294C46.5657 35.3294 49.8776 37.2943 51.5511 38.6088L52.5198 39.3699L50.9181 40.8913L49.3163 42.4126L50.1253 43.1788L50.9344 43.945L52.5406 42.4279L54.1469 40.9109L54.9505 41.8284C56.3325 43.4068 58.4131 46.5499 58.4131 47.0597C58.4131 47.1207 57.5242 47.5205 56.4378 47.9481C55.3513 48.3758 54.4624 48.7801 54.4624 48.8468C54.4624 48.9617 55.1521 50.584 55.2383 50.6718C55.2727 50.7068 56.7592 50.1464 58.8609 49.3057L59.3793 49.0984L59.7413 50.1316C60.455 52.1685 60.9528 55.1718 60.9528 57.4403V58.5814H64.339H67.7253V61.7886V64.9957H66.5965H65.4678V63.9267V62.8576H64.339H63.2103V63.9267V64.9957H62.0815H60.9528V62.8576V60.7195H59.824H58.6953V62.8576V64.9957H57.5665H56.4378V63.9267V62.8576H55.309H54.1802V63.9267V64.9957H53.0515H51.9227V62.8576V60.7195H50.794H49.6652V62.8576V64.9957H48.5365H47.4077V63.9267V62.8576H46.279H45.1502V63.9267V64.9957H44.0215H42.8927V62.8576V60.7195H41.7639H40.6352V62.8576V64.9957H39.5064H38.3777V63.9267V62.8576H37.2489H36.1202V63.9267V64.9957H34.9914H33.8627L33.8631 63.8933L33.8634 62.7908L35.0977 62.7871C36.1818 62.7837 36.4464 62.7323 37.2743 62.3641C38.5473 61.7981 39.3958 61.0257 39.9988 59.884C40.2712 59.3684 40.4941 58.8643 40.4941 58.7639C40.4941 58.6121 41.6511 58.5814 47.3585 58.5814H54.2229L54.1389 56.8776C53.9678 53.407 53.0032 50.4802 51.1112 47.6904C48.299 43.5437 43.7266 40.6172 38.5484 39.6498C36.8072 39.3246 33.3894 39.3258 31.5652 39.6521C30.2478 39.888 30.1613 39.8885 29.6661 39.666C28.9428 39.3409 28.0551 39.2723 27.2665 39.4807C26.3848 39.7134 25.2139 40.7909 25.0263 41.5421C24.9139 41.9924 24.7375 42.1724 23.7706 42.8231C22.3897 43.7525 20.0672 46.018 19.119 47.3606C17.0813 50.2461 16.0104 53.356 15.8417 56.8776L15.76 58.5814H22.6243C28.0218 58.5814 29.4887 58.6171 29.4889 58.7484C29.4892 59.1519 30.3625 60.6081 30.9561 61.1948L31.6051 61.8364V63.4161V64.9957H30.4764H29.3476V63.9267V62.8576H28.2189H27.0901V63.9267V64.9957H25.9614H24.8326V62.8576V60.7195H23.7039H22.5751V62.8576V64.9957H21.4463H20.3176V63.9267V62.8576H19.1888H18.0601V63.9267V64.9957H16.9313H15.8026V62.8576V60.7195H14.6738H13.5451V62.8576V64.9957H12.4163H11.2876V63.9267V62.8576H10.1588H9.03004V63.9267V64.9957H7.90129H6.77253V62.8576V60.7195H5.64378H4.51502V62.8576V64.9957H3.38627H2.25751V61.7886V58.5814H5.62219H8.98687L9.0718 56.6771C9.17311 54.4066 9.56394 52.1431 10.158 50.3867C10.5674 49.1761 10.6096 49.1103 10.9045 49.2208C11.0763 49.2854 11.9968 49.6439 12.9501 50.0176C13.9032 50.3913 14.7026 50.6971 14.7266 50.6971C14.7504 50.6971 14.9509 50.2717 15.1719 49.7518C15.5102 48.9556 15.5417 48.7875 15.3707 48.6866C15.2589 48.6208 14.3582 48.2546 13.3687 47.8729C12.3792 47.4912 11.5697 47.1271 11.5697 47.0638C11.5697 46.5502 13.6444 43.4135 15.0323 41.8284L15.8359 40.9109L17.4422 42.4279L19.0484 43.945L19.8575 43.1788L20.6665 42.4126L19.0659 40.8923L17.4652 39.372L18.3183 38.6997C18.7876 38.3298 19.598 37.739 20.1194 37.3866C21.1324 36.7019 23.6732 35.3294 23.9276 35.3294C24.012 35.3294 24.4107 36.0962 24.8137 37.0332C25.2167 37.9702 25.6034 38.8235 25.6728 38.9293C25.7794 39.0913 25.9569 39.0615 26.7975 38.741C27.3465 38.5317 27.7956 38.3374 27.7956 38.3094C27.7956 38.2643 26.9321 36.2633 26.3238 34.8989L26.1022 34.4018L27.478 34.0025C29.0268 33.553 30.6061 33.2399 32.1695 33.0722C34.0845 32.8668 33.8627 32.6061 33.8627 35.0621ZM28.9214 41.7803C29.0911 41.9475 30.2639 44.3679 31.5275 47.159L33.825 52.2339L33.3776 52.3849C33.1315 52.468 32.6701 52.6615 32.3522 52.815L31.7745 53.0942L29.4319 47.9201C28.1435 45.0744 27.0896 42.6079 27.0897 42.4393C27.09 42.2705 27.246 41.9849 27.4365 41.8045C27.88 41.3844 28.5087 41.3742 28.9214 41.7803ZM38.6599 41.8608C41.8387 42.5478 44.5878 43.9937 46.9264 46.2085C49.7258 48.8599 51.262 51.8801 51.8434 55.8753L51.9261 56.4433H46.2101C41.4731 56.4433 40.4941 56.412 40.4941 56.2607C40.4941 55.7974 39.4522 54.1488 38.8295 53.627C38.2489 53.1403 37.2017 52.5754 36.5392 52.3915C36.3352 52.3349 31.5163 41.9169 31.64 41.7999C31.6702 41.7713 32.135 41.6903 32.6729 41.6197C34.1226 41.43 37.2484 41.5558 38.6599 41.8608ZM27.753 49.6462L30.084 54.8013L29.7512 55.6204L29.4182 56.4394L23.748 56.4413L18.0779 56.4433L18.147 55.9422C18.6489 52.3066 19.8963 49.6034 22.285 46.9749C23.187 45.9823 25.0917 44.3928 25.3036 44.4559C25.3688 44.4752 26.4709 46.8109 27.753 49.6462ZM36.0333 54.4677C37.2458 54.8069 38.3777 56.2769 38.3777 57.5123C38.3777 59.1682 36.7397 60.7195 34.9914 60.7195C33.2431 60.7195 31.6051 59.1682 31.6051 57.5123C31.6051 56.6725 31.928 55.9948 32.6586 55.3014C33.6483 54.3619 34.7144 54.0986 36.0333 54.4677ZM34.209 56.7713C33.5091 57.4342 34.005 58.5814 34.9914 58.5814C35.2663 58.5814 35.5555 58.4602 35.7738 58.2533C35.9922 58.0466 36.1202 57.7727 36.1202 57.5123C36.1202 57.252 35.9922 56.9781 35.7738 56.7713C35.5555 56.5645 35.2663 56.4433 34.9914 56.4433C34.7166 56.4433 34.4273 56.5645 34.209 56.7713Z" fill="white"/>
</svg>
