<svg width="70" height="66" viewBox="0 0 70 66" fill="none" xmlns="http://www.w3.org/2000/svg">
<path fill-rule="evenodd" clip-rule="evenodd" d="M1.22719 0.391614C0.780528 0.603402 0.530332 0.837808 0.300781 1.25997C0.0133985 1.78867 -0.0101172 1.9781 0.0273438 3.46794C0.0630274 4.88388 0.10582 5.14502 0.354375 5.45988C0.738418 5.94642 1.47014 6.40046 1.87018 6.40046C2.04942 6.40046 2.22537 6.47281 2.26133 6.5611C2.29715 6.64951 2.31055 11.5795 2.29113 17.5168L2.25586 28.3118L1.12793 27.2936L0 26.2752V46.0885V65.9016H22.3155C44.1923 65.9016 44.6258 65.8968 44.3614 65.6589C44.2131 65.5255 37.2627 59.3589 28.916 51.9553C20.5693 44.5517 13.7197 38.4441 13.6947 38.3829C13.6691 38.3204 20.5637 38.2715 29.3832 38.2715H45.1172V47.4367C45.1172 57.6012 45.1027 57.4212 46.0032 58.4101C46.2682 58.7012 46.7505 59.0601 47.0748 59.2076C47.6561 59.4721 47.8054 59.476 57.5378 59.476C68.4238 59.476 67.9423 59.5103 68.8888 58.6662C69.1424 58.4402 69.4955 57.966 69.6737 57.6125L69.9973 56.97L69.9987 42.6316C70.0002 26.4457 70.0706 27.5204 68.9426 26.49C67.9435 25.5773 67.7245 25.5488 61.7037 25.5488H56.4649V22.4002V19.2517H61.0383C65.6197 19.2517 66.605 19.1779 67.4707 18.7703C68.3478 18.3572 69.0292 17.7031 69.4805 16.841L69.9317 15.9794L69.9314 13.8565C69.9311 11.8888 69.9078 11.6894 69.6109 11.1276C69.1306 10.2187 68.3446 9.45557 67.4505 9.03007L66.6504 8.64942L61.5522 8.61009L56.4541 8.57077L56.4936 7.52262L56.5332 6.47461L56.9618 6.39249C57.5678 6.27657 58.171 5.83732 58.4305 5.3234C58.5997 4.98811 58.6524 4.48871 58.6524 3.2194C58.6524 1.39311 58.5278 1.04715 57.6512 0.436465L57.2651 0.167618L29.5522 0.13459L1.83928 0.101562L1.22719 0.391614ZM56.4649 3.31616V4.34426H29.3945H2.32422V3.31616V2.28807H29.3945H56.4649V3.31616ZM54.1407 7.55707V8.58516H44.399H34.6575L30.4377 11.2303C28.1169 12.6852 26.2713 13.9214 26.3366 13.9775C26.4018 14.0337 28.3154 15.2434 30.5892 16.6656L34.7232 19.2517H44.432H54.1407V22.4002V25.5488H44.5703H35V26.6411V27.7335H40.1858H45.3715L45.2444 28.1502C45.1745 28.3795 45.1172 28.8421 45.1172 29.1783V29.7897H40.0586H35V30.882V31.9744H40.0586H45.1172V34.0948V36.2153L28.1299 36.2108L11.1426 36.2061L7.82715 33.2459L4.51172 30.2855V18.4072V6.52897H29.3262H54.1407V7.55707ZM60.9766 11.798V12.8261H48.5352H36.0938V11.798V10.7699H48.5352H60.9766V11.798ZM66.8045 11.1207C67.5308 11.6076 67.6758 12.0789 67.6758 13.9509C67.6758 15.4654 67.6481 15.6536 67.3682 16.0402C66.7587 16.8819 66.4534 16.9982 64.7268 17.0459L63.1641 17.0891V13.9187V10.7484L64.7705 10.7912C66.1701 10.8286 66.4321 10.871 66.8045 11.1207ZM33.9063 13.921V16.1724L32.2315 15.1251C31.3103 14.5492 30.5036 14.0325 30.4387 13.9771C30.351 13.9025 33.6725 11.6695 33.8713 11.6695C33.8905 11.6695 33.9063 12.6826 33.9063 13.921ZM15.9349 12.9867C15.9057 13.0751 15.471 16.0967 14.9684 19.7015C14.4658 23.3062 14.012 26.4575 13.9599 26.7042L13.8652 27.153L12.307 25.3227L10.7487 23.4926H8.79239H6.83594V24.5207V25.5488L8.23731 25.5551L9.63868 25.5614L12.5074 28.9522C14.0853 30.817 15.398 32.3224 15.4246 32.2975C15.4602 32.264 17.9102 15.2589 17.9102 15.0459C17.9102 15.0266 19.2022 15.0108 20.7813 15.0108H23.6524V13.9184V12.8261H19.82C16.8733 12.8261 15.9753 12.8632 15.9349 12.9867ZM60.9766 16.0389V17.067H48.5352H36.0938V16.0389V15.0108H48.5352H60.9766V16.0389ZM20.3354 19.2181L19.5507 19.9558L21.976 22.2382L24.4014 24.5207L21.976 26.8032L19.5507 29.0855L20.3354 29.8232L21.1202 30.5609L23.5483 28.2811L25.9766 26.0013L28.4048 28.2811L30.833 30.5609L31.6177 29.8232L32.4025 29.0855L29.9771 26.8032L27.5517 24.5207L29.9771 22.2382L32.4025 19.9558L31.6177 19.2181L30.833 18.4805L28.4048 20.7603L25.9766 23.0401L23.5483 20.7603L21.1202 18.4805L20.3354 19.2181ZM35 22.4002V23.4926H43.4766H51.9532V22.4002V21.3079H43.4766H35V22.4002ZM67.3595 28.0129L67.6758 28.2924V42.5406V56.7889L67.3402 57.1043L67.0047 57.4198H57.6948C47.8407 57.4198 47.763 57.4153 47.5263 56.8357C47.4797 56.7213 47.4414 50.2685 47.4414 42.496V28.3643L47.7771 28.049L48.1126 27.7335H57.5778H67.0429L67.3595 28.0129ZM49.7201 29.8754C49.6699 29.9224 49.6289 31.8308 49.6289 34.1163V38.2715H57.5586H65.4883V34.0306V29.7897H57.6498C53.3385 29.7897 49.7702 29.8282 49.7201 29.8754ZM20.9863 47.8439C30.5361 56.3102 38.4709 63.3451 38.6192 63.4769C38.8826 63.7112 38.4585 63.7169 20.6065 63.7169H2.32422V62.6888V61.6607H3.41797H4.51172V60.5683V59.476H3.41797H2.32422V58.4479V57.4198H3.41797H4.51172V56.3274V55.2351H3.41797H2.32422V54.207V53.1789H3.41797H4.51172V52.0865V50.9942H3.41797H2.32422V49.9661V48.938H3.41797H4.51172V47.8456V46.7533H3.41797H2.32422V45.7252V44.6971H3.41797H4.51172V43.6047V42.5124H3.41797H2.32422V41.4843V40.4562H3.41797H4.51172V39.3638V38.2715H3.41797H2.32422V34.7744V31.2772L2.97363 31.864C3.33088 32.1867 11.4365 39.3777 20.9863 47.8439ZM63.1641 34.0948V36.2153H57.5586H51.9532V34.0948V31.9744H57.5586H63.1641V34.0948ZM51.9532 41.4791V42.502L50.8252 42.5394L49.6973 42.5766L49.6576 43.6368L49.6179 44.6971H50.7856H51.9532V45.7252V46.7533H53.0469H54.1407V45.7252V44.6971H55.3028H56.4649V43.6047V42.5124H55.3028H54.1407V41.4843V40.4562H53.0469H51.9532V41.4791ZM6.83594 50.3359V59.476H17.1886C27.2669 59.476 27.5341 59.4697 27.2716 59.2382C27.1232 59.1075 22.571 55.0738 17.1555 50.2745C11.7399 45.4752 7.20262 41.4691 7.07246 41.3722C6.84866 41.2053 6.83594 41.6887 6.83594 50.3359ZM58.7097 42.6857C58.6708 42.7811 58.6573 43.2583 58.6799 43.746L58.7207 44.6328L62.1045 44.6671L65.4883 44.7016V43.6069V42.5124H62.1345C59.4459 42.5124 58.7665 42.5468 58.7097 42.6857ZM15.2878 51.5284C18.6476 54.5082 21.5178 57.0527 21.6661 57.1829C21.9283 57.4132 21.7585 57.4198 15.4796 57.4198H9.02344V51.7652C9.02344 48.6552 9.05844 46.1107 9.10124 46.1107C9.14417 46.1107 11.928 48.5487 15.2878 51.5284ZM49.6289 49.9661V50.9942H53.0469H56.4649V49.9661V48.938H53.0469H49.6289V49.9661ZM59.7461 50.0303L59.0035 50.7371L59.7461 51.444L60.4888 52.1508L59.7757 52.8294L59.0625 53.5082L59.8514 54.2421L60.6404 54.9759L61.3538 54.3053L62.0673 53.6346L62.7909 54.3063L63.5145 54.978L64.3261 54.2071L65.1376 53.4363L64.4256 52.7586L63.7136 52.081L64.4285 51.409L65.1434 50.737L64.3604 50.001L63.5774 49.265L62.8533 49.9373L62.1293 50.6094L61.4555 49.9665C61.085 49.6128 60.7159 49.3235 60.6352 49.3235C60.5547 49.3235 60.1545 49.6416 59.7461 50.0303ZM49.6289 54.207V55.2351H53.0469H56.4649V54.207V53.1789H53.0469H49.6289V54.207Z" fill="white"/>
</svg>
