<svg width="70" height="68" viewBox="0 0 70 68" fill="none" xmlns="http://www.w3.org/2000/svg">
<path fill-rule="evenodd" clip-rule="evenodd" d="M22.7609 0.791167C22.3849 0.862492 21.559 1.17034 20.9255 1.47559C19.4318 2.19513 17.9194 3.66427 17.2545 5.04145C16.3625 6.88948 16.3623 6.89099 16.2997 13.9898L16.243 20.4459L11.7763 20.4483C6.76693 20.451 6.10457 20.5298 4.5578 21.3083C2.52137 22.3331 1.16398 23.9104 0.394014 26.1465C0.0985243 27.0049 -0.0748585 28.3508 0.0473846 28.8376C0.255772 29.667 1.28404 30.0161 1.88103 29.4603C2.19512 29.168 2.22219 29.0837 2.44329 27.7106C2.81809 25.3816 4.46714 23.577 6.76747 22.9783C7.47017 22.7953 9.7921 22.7688 25.0855 22.7688C40.3789 22.7688 42.7008 22.7953 43.4035 22.9783C45.7076 23.578 47.3682 25.3999 47.7305 27.7262C47.8116 28.2464 47.8461 31.6088 47.817 36.1668C47.7651 44.2756 47.7844 44.0433 47.0499 45.4356C46.2884 46.8789 44.5183 48.0736 42.7664 48.3268C42.2922 48.3952 37.8752 48.4526 32.9509 48.4541L23.9975 48.4568L16.645 55.7994L9.29233 63.1421V56.1348V49.1276L8.96881 48.8043C8.73471 48.5704 8.42309 48.4559 7.84072 48.3899C6.23105 48.2073 5.03953 47.6544 4.03423 46.623C3.10688 45.6716 2.64184 44.6952 2.40501 43.2024C2.25378 42.2492 2.14384 41.9246 1.90783 41.7335C1.45605 41.368 0.736677 41.4171 0.310877 41.8426C-0.0242657 42.1775 -0.0391701 42.251 0.0393171 43.1748C0.295836 46.1929 1.98714 48.6245 4.75648 49.9569C5.1831 50.1621 5.85503 50.4065 6.24992 50.5001L6.96779 50.6703V58.4346V66.199L7.32181 66.6193C7.59774 66.9471 7.78562 67.0397 8.17368 67.0397C8.64966 67.0397 9.03143 66.6806 16.8101 58.915L24.9487 50.7902L34.1785 50.7488L43.4083 50.7073L44.5022 50.3366C46.599 49.6262 48.3303 48.1303 49.2811 46.2072C50.1292 44.492 50.1717 44.061 50.1744 37.15L50.1768 30.9671L51.0314 30.9707L51.886 30.9742L56.3299 38.7932C58.7741 43.0936 60.9095 46.7505 61.0754 46.9197C61.4739 47.3262 62.0899 47.317 62.578 46.8974L62.9617 46.5677L62.9992 38.7205L63.0365 30.8735L63.8862 30.6374C67.2661 29.6984 69.6204 26.9057 69.9524 23.4415C70.0534 22.3876 69.904 22.0088 69.2846 21.7485C68.8205 21.5535 68.2355 21.6766 67.9411 22.0312C67.8509 22.1399 67.6913 22.7633 67.5866 23.4167C67.3521 24.8805 66.8788 25.8633 65.9446 26.8263C65.055 27.7434 63.8054 28.3508 62.4607 28.5195C61.6669 28.6191 61.0768 28.8238 60.8115 29.0915C60.7947 29.1086 60.7485 31.9397 60.709 35.383L60.6372 41.6436L57.0527 35.3745C55.0814 31.9266 53.3536 29.0017 53.2134 28.8749C53.0097 28.6907 52.6818 28.6443 51.5852 28.6443H50.212L50.118 27.8125C49.9323 26.1731 49.1719 24.4229 48.1257 23.2276C47.0382 21.9849 45.1265 20.8841 43.554 20.5951C43.0075 20.4946 38.8233 20.4459 30.73 20.4459H18.7172L18.7565 13.8531L18.7956 7.26032L19.2322 6.33924C19.7143 5.32237 20.6493 4.29649 21.6032 3.73791C22.9968 2.92205 22.0574 2.9562 43.0884 2.9562C56.8258 2.9562 62.5403 3.0002 63.0576 3.10992C64.1631 3.34453 65.2101 3.93836 66.0115 4.78525C66.8925 5.71617 67.3711 6.71677 67.6053 8.11759C67.8254 9.43424 67.8863 9.57744 68.3084 9.76969C68.8536 10.0178 69.1757 9.95333 69.6233 9.50611C70.0333 9.09633 70.0406 9.06641 69.9591 8.10557C69.6881 4.9059 67.5192 2.14321 64.3974 1.02113L63.5087 0.701668L43.4766 0.681719C31.337 0.669558 23.1753 0.712736 22.7609 0.791167ZM35.2847 6.48859C34.657 6.66963 34.4704 7.14158 34.1692 9.3099C34.0126 10.4372 33.8544 11.4514 33.8178 11.5639C33.7755 11.6931 33.5994 11.4859 33.3385 11.0001C32.7272 9.86151 32.0003 9.62089 31.2965 10.3242C31.0766 10.5439 30.8968 10.852 30.8968 11.0089C30.8968 11.3655 33.2844 16.1681 33.6694 16.5859C34.3368 17.3102 35.4448 16.7749 35.6132 15.6466C35.6622 15.3178 35.8996 13.6653 36.1406 11.9743L36.5788 8.89998L41.521 8.83166L46.4633 8.76334L46.8159 8.43213C47.3017 7.97562 47.3017 7.22807 46.8159 6.7717L46.4631 6.44049L41.0388 6.41699C38.0553 6.40401 35.466 6.43625 35.2847 6.48859ZM22.8706 9.37986C22.4586 9.5456 22.1175 10.243 22.2296 10.6899C22.2791 10.8866 22.6889 11.4421 23.1404 11.9243L23.9612 12.8013L23.0362 13.7587C22.1583 14.6674 22.1154 14.742 22.1927 15.224C22.2932 15.8512 22.7095 16.2101 23.3363 16.2101C23.7364 16.2101 23.9594 16.0695 24.7227 15.3358L25.6324 14.4614L26.571 15.3358C27.3258 16.0389 27.5967 16.2101 27.9541 16.2101C28.64 16.2101 29.1192 15.7569 29.1192 15.1084C29.1192 14.6373 29.0139 14.4621 28.2423 13.6494L27.3654 12.7259L28.2423 11.8168C28.9698 11.0627 29.1185 10.8299 29.1149 10.4504C29.1099 9.93543 28.9262 9.63865 28.457 9.38888C27.9503 9.11915 27.4755 9.3308 26.5555 10.2366L25.7011 11.078L24.9147 10.3039C24.4822 9.87818 23.9551 9.46498 23.7434 9.38573C23.298 9.2189 23.2708 9.21876 22.8706 9.37986ZM49.0856 10.1002C48.6266 10.3324 48.4036 10.8206 48.4012 11.5986L48.3992 12.2476L47.7497 12.2497C46.9476 12.2521 46.4724 12.4807 46.2333 12.9791C46.0111 13.4421 46.1129 13.9216 46.5123 14.2934C46.7404 14.5059 46.9953 14.5705 47.6046 14.5705H48.3992V15.2627C48.3992 16.3503 48.7918 16.8812 49.6018 16.889C49.9021 16.8918 50.1645 16.7814 50.388 16.5579C50.6704 16.2759 50.7237 16.0914 50.7237 15.3965V14.5705H51.5503C52.2457 14.5705 52.4303 14.5172 52.7126 14.235C52.9363 14.0116 53.0467 13.7494 53.0439 13.4494C53.0361 12.6399 52.5049 12.2476 51.4164 12.2476H50.7237L50.7193 11.462C50.7148 10.6397 50.5803 10.3484 50.0832 10.0837C49.7056 9.88269 49.5094 9.88597 49.0856 10.1002ZM55.2255 10.3242C54.9846 10.5649 54.8258 10.8676 54.8258 11.0862C54.8258 11.3048 54.9846 11.6075 55.2255 11.8482C55.6029 12.2254 55.6885 12.2476 56.7563 12.2476H57.8872L56.3566 13.7979C54.7893 15.3854 54.6527 15.63 54.9849 16.2533C55.307 16.8578 55.4485 16.8845 58.353 16.889C61.1199 16.8933 61.1292 16.8924 61.4637 16.5579C61.9241 16.098 61.917 15.4116 61.4472 14.9706C61.1476 14.6895 60.9307 14.6324 59.9998 14.5902L58.9048 14.5406L60.3522 13.0729C61.557 11.8511 61.7994 11.5351 61.7994 11.1861C61.7994 10.0356 61.4869 9.92477 58.2406 9.92477H55.6252L55.2255 10.3242ZM38.3428 10.8068C37.8152 11.3339 37.8982 11.8295 38.6684 12.7529C39.032 13.1889 39.4354 13.6329 39.5647 13.7396C39.7808 13.9175 39.7257 14.0084 38.8899 14.8499C38.0848 15.6606 37.9798 15.8269 37.9798 16.2909C37.9798 16.6893 38.0672 16.8907 38.343 17.1278C39.0779 17.7595 39.3301 17.6293 41.6044 15.4431C44.7372 12.4317 44.844 12.3086 44.844 11.7117C44.844 11.0537 44.398 10.608 43.7395 10.608C43.3537 10.608 43.0976 10.7614 42.3337 11.4505L41.3996 12.2929L40.5529 11.3822C39.7984 10.5704 39.6505 10.4713 39.1924 10.4713C38.8289 10.4713 38.5801 10.5696 38.3428 10.8068ZM53.2097 21.753C52.4435 22.0749 52.2991 22.9766 52.9149 23.592C53.3045 23.9813 54.0668 23.9496 54.4901 23.5265C55.3672 22.6502 54.368 21.2663 53.2097 21.753ZM57.8691 21.7488C57.3199 21.9794 57.0583 22.627 57.2893 23.1839C57.4922 23.6735 57.7948 23.8619 58.3783 23.8619C59.2913 23.8619 59.7824 22.7863 59.2046 22.0523C58.875 21.6336 58.4 21.5257 57.8691 21.7488ZM62.5209 21.7476C61.7807 22.0585 61.6626 23.1783 62.3175 23.6757C62.4462 23.7734 62.7778 23.8552 63.0543 23.8575C63.4377 23.8608 63.6245 23.7764 63.8405 23.5019C64.6083 22.5265 63.6618 21.2682 62.5209 21.7476ZM40.215 24.0215C38.8861 24.2543 37.7727 25.2933 37.461 26.5911C37.1681 27.8113 37.6075 28.5645 38.5957 28.5363C39.0864 28.5225 39.648 27.9891 39.648 27.5368C39.648 27.1563 40.0045 26.5079 40.2695 26.4063C41.4658 25.9476 42.4884 27.2292 41.6649 28.155C41.4342 28.4143 41.1404 28.5344 40.4899 28.6352C38.442 28.9529 37.3262 30.3438 37.3243 32.5816C37.3235 33.4612 37.4711 33.9107 37.8585 34.2079C38.0122 34.3258 38.885 34.3757 40.8506 34.3787C43.6175 34.3831 43.6268 34.3821 43.9614 34.0476C44.4218 33.5876 44.4145 32.9015 43.9446 32.4598C43.6106 32.1459 43.4888 32.1262 41.62 32.0843C40.5354 32.0599 39.648 32.0098 39.648 31.9728C39.648 31.8137 39.9838 31.2956 40.1831 31.1472C40.3024 31.0584 40.7077 30.9439 41.0837 30.8929C42.492 30.7019 43.396 30.062 43.9707 28.8492C44.7189 27.2702 44.1219 25.354 42.5879 24.4102C42.0386 24.0723 40.946 23.8933 40.215 24.0215ZM9.81042 26.5076C9.39857 26.8204 9.27086 27.3719 9.48937 27.8944C9.93116 28.9513 11.6169 28.6209 11.6169 27.4775C11.6169 26.8134 11.1589 26.3204 10.5472 26.3258C10.2707 26.3281 9.93909 26.4099 9.81042 26.5076ZM14.3668 26.6469C13.9367 27.1042 13.946 27.7546 14.3889 28.197C15.1034 28.9111 16.2659 28.4263 16.2659 27.4145C16.2659 26.4181 15.0455 25.9249 14.3668 26.6469ZM19.0245 26.6376C18.6129 27.0755 18.6262 27.8186 19.0529 28.2192C20.0999 29.2022 21.61 27.6931 20.6263 26.6469C20.2116 26.2057 19.4348 26.2013 19.0245 26.6376ZM23.6597 26.6814C23.281 27.1625 23.2918 27.8352 23.6839 28.1983C24.2953 28.7644 25.2035 28.6127 25.5038 27.8944C25.8549 27.0549 25.3685 26.3337 24.446 26.3258C24.0625 26.3225 23.8758 26.4069 23.6597 26.6814ZM28.361 26.6568C27.6726 27.3447 28.1361 28.5076 29.0987 28.5076C30.0723 28.5076 30.5875 27.7234 30.1584 26.8945C29.8066 26.2144 28.9208 26.0973 28.361 26.6568ZM5.08096 33.5671C4.91728 33.7194 4.74923 33.9807 4.70766 34.1478C4.66596 34.3148 4.64982 36.655 4.67184 39.3482L4.71163 44.245L5.09531 44.5747C5.47763 44.9032 5.48994 44.9042 8.74538 44.9042C11.9848 44.9042 12.0149 44.9015 12.3886 44.5804C12.6756 44.3336 12.7655 44.134 12.7655 43.7428C12.7655 43.3516 12.6756 43.152 12.3886 42.9052C12.0216 42.5899 11.946 42.5814 9.48978 42.5814H6.96779V41.42V40.2585H8.82277C10.6828 40.2585 11.0955 40.1742 11.4416 39.7239C11.7286 39.3503 11.6501 38.6396 11.2812 38.2711C10.9556 37.9456 10.886 37.9357 8.95664 37.9357H6.96779V36.7743V35.6128L9.39488 35.6108C12.0386 35.6086 12.3758 35.534 12.6889 34.8814C12.9111 34.4183 12.8092 33.9389 12.4098 33.5671C12.1276 33.3043 11.9386 33.29 8.74538 33.29C5.55215 33.29 5.36318 33.3043 5.08096 33.5671ZM23.0344 35.9384C22.2128 36.3266 21.7103 36.8367 21.3363 37.6624C21.0837 38.2199 21.0575 38.5553 21.0547 41.2553L21.0517 44.2335L21.3874 44.5688C21.822 45.0032 22.4228 45.0054 22.9242 44.5747L23.3079 44.2451L23.3763 41.3512C23.4433 38.5135 23.4509 38.4523 23.7675 38.1965C24.2064 37.8418 24.7871 37.8687 25.2487 38.2651L25.6324 38.5947L25.6743 41.397L25.7162 44.1992L26.069 44.5517C26.5156 44.9981 27.0705 45.0066 27.5733 44.5748L27.957 44.2452L27.9988 41.4429L28.0408 38.6407L28.3936 38.2882C28.8401 37.8418 29.395 37.8333 29.8978 38.2651L30.2815 38.5947L30.3183 41.3053C30.3403 42.9167 30.4156 44.1347 30.5042 44.3085C30.6691 44.6317 31.1693 44.9042 31.5975 44.9042C31.7501 44.9042 32.0548 44.7246 32.2747 44.5048C32.6681 44.1117 32.6745 44.0809 32.6836 42.5577C32.6922 41.1062 32.7034 41.0441 32.8657 41.5566C33.2811 42.8691 34.1905 43.9121 35.4091 44.4733C36.1868 44.8314 38.0056 45.0372 38.7477 44.851C39.25 44.7251 39.6487 44.2355 39.6436 43.7512C39.6351 42.93 39.0916 42.5814 37.82 42.5814C36.7827 42.5814 36.3101 42.4299 35.7684 41.9236C34.9762 41.1836 34.8009 40.2069 35.2821 39.2137C35.7041 38.3427 36.2953 38.0394 37.7792 37.9324C38.8928 37.8522 39.0383 37.8089 39.3282 37.4722C39.7579 36.9728 39.7391 36.4242 39.2759 35.9615C38.9129 35.5987 38.8705 35.5908 37.5325 35.6358C35.8978 35.6907 35.01 36.0371 34.0553 36.9921C33.4585 37.5893 32.8297 38.7088 32.7965 39.2337C32.7869 39.384 32.7243 39.177 32.6572 38.7737C32.4947 37.7966 32.1787 37.1653 31.5436 36.5493C30.5074 35.5445 28.693 35.3326 27.4346 36.0695L26.8441 36.4153L26.0481 36.014C25.0218 35.4968 24.0225 35.4717 23.0344 35.9384ZM14.6641 36.9076C13.973 37.2078 13.8335 38.1237 14.3877 38.7213C14.6531 39.0077 14.7868 39.0288 16.3343 39.0288C17.8943 39.0288 18.014 39.0095 18.2932 38.7126C18.6301 38.3541 18.6866 37.5954 18.4041 37.2237C18.3063 37.0951 18.0581 36.9261 17.8525 36.8479C17.3072 36.6408 15.1869 36.6804 14.6641 36.9076ZM14.5329 40.4613C13.8833 40.916 13.9255 42.0706 14.605 42.434C14.7565 42.5151 15.5643 42.5814 16.3999 42.5814C17.8306 42.5814 17.9388 42.5619 18.2548 42.2459C18.7115 41.7897 18.7115 41.0502 18.2548 40.594C17.938 40.2774 17.8325 40.2585 16.3709 40.2585C15.2233 40.2585 14.7477 40.311 14.5329 40.4613Z" fill="white"/>
</svg>
