<svg width="70" height="53" viewBox="0 0 70 53" fill="none" xmlns="http://www.w3.org/2000/svg">
<path fill-rule="evenodd" clip-rule="evenodd" d="M17.6511 0.958922C13.239 1.3199 8.36637 2.15243 7.24 2.73775C6.76135 2.98649 6.55023 3.49283 6.55023 4.39229V5.13295L4.99886 5.18838C3.79389 5.23134 3.30228 5.30991 2.79702 5.53993C1.89005 5.95287 0.832775 6.99313 0.381154 7.91684L0 8.69644V29.0663V49.4363L0.380879 50.2157C0.830155 51.1349 1.88495 52.1751 2.79702 52.5986L3.44749 52.9005H35.2333H67.0192L67.7949 52.5178C68.7096 52.0663 69.7448 51.0064 70.1662 50.0899L70.4667 49.4363V29.0663V8.69644L70.0855 7.91684C69.6339 6.99313 68.5766 5.95287 67.6697 5.53993C67.1644 5.30991 66.6728 5.23134 65.4678 5.18838L63.9164 5.13295V4.37885C63.9164 2.86358 63.6007 2.64671 60.4462 1.99446C56.6446 1.20849 53.1201 0.867188 48.8039 0.867188C44.5505 0.867188 40.5998 1.27098 36.9642 2.07733L35.3165 2.44274L33.172 2.00485C29.0363 1.1604 25.8617 0.860952 21.3744 0.891853C19.63 0.903909 17.9545 0.934118 17.6511 0.958922ZM28.2377 3.98378C29.2821 4.11265 30.9576 4.38384 31.961 4.58657L33.7854 4.95503L33.8204 23.6744L33.8553 42.3939L32.7172 42.1459C30.8189 41.7324 27.5458 41.345 24.4947 41.1727C20.0842 40.9238 14.5335 41.3062 10.5143 42.1357L9.30725 42.3848L9.34214 23.6704L9.37717 4.95586L10.4804 4.71821C11.9054 4.41114 15.0658 3.94665 16.8237 3.7859C18.9855 3.5883 26.0196 3.71024 28.2377 3.98378ZM55.5418 3.98378C56.5863 4.11265 58.2617 4.38384 59.2651 4.58657L61.0895 4.95503L61.1245 23.6744L61.1594 42.3939L60.0213 42.1459C58.1014 41.7277 54.7501 41.3315 51.736 41.1666C47.373 40.928 41.7849 41.317 37.8184 42.1357L36.6114 42.3848L36.6463 23.6789L36.6813 4.97276L37.7845 4.72652C39.1635 4.41876 42.3099 3.95219 44.1279 3.7859C46.2896 3.5883 53.3237 3.71024 55.5418 3.98378ZM6.58319 26.3763L6.61918 44.8181L7.00612 45.1526C7.48395 45.5656 8.00507 45.5793 9.42309 45.2165C12.8026 44.3518 16.8232 43.9191 21.5123 43.9152C26.1216 43.9114 29.9668 44.3077 33.4172 45.1424C35.1757 45.5678 35.291 45.5678 37.0495 45.1424C40.4745 44.314 44.3313 43.9135 48.8854 43.9135C53.4395 43.9135 57.2963 44.314 60.7213 45.1424C62.5214 45.5779 62.9666 45.5796 63.4605 45.1526L63.8475 44.8181L63.8835 26.363L63.9195 7.90769L65.2182 7.95564C66.6822 8.00968 67.1095 8.21199 67.536 9.0527C67.7623 9.49849 67.7772 10.7384 67.7772 29.0663C67.7772 47.3915 67.7622 48.6348 67.536 49.0871C67.4035 49.3523 67.0841 49.7109 66.8264 49.8838L66.3578 50.1984H35.2333H4.10885L3.64027 49.8838C3.38254 49.7109 3.06289 49.3523 2.92981 49.0871C2.70214 48.6331 2.69001 47.449 2.72296 28.9032C2.75799 9.22204 2.75827 9.20125 3.04358 8.81048C3.51644 8.16294 4.13299 7.93471 5.41104 7.93458L6.54719 7.9343L6.58319 26.3763ZM45.0667 9.31876C44.505 9.55087 44.3204 10.0697 44.045 12.1888C43.6544 15.1937 43.6962 15.1105 43.1645 13.9474C42.9168 13.4059 42.5686 12.8602 42.3906 12.7349C41.9132 12.3989 41.2533 12.4487 40.77 12.8573C39.9917 13.5154 40.027 13.6945 41.6473 17.3076C43.328 21.0556 43.3134 21.0284 43.7477 21.2273C44.4472 21.5475 45.2437 21.3062 45.5817 20.6717C45.6998 20.45 46.8128 12.7442 46.8159 12.1261C46.8168 11.9912 47.7527 11.9529 51.0335 11.9529H55.25L55.6531 11.5478C56.1819 11.0163 56.2117 10.2102 55.7236 9.63955L55.3908 9.25072L50.3799 9.22231C47.6239 9.20666 45.233 9.25003 45.0667 9.31876ZM18.2696 10.1681C17.0171 10.2307 15.3478 10.3725 14.5601 10.483C12.8447 10.724 12.4551 10.9926 12.4301 11.9519C12.4173 12.443 12.4847 12.5961 12.8633 12.936C13.3867 13.4059 13.3359 13.403 15.9274 13.1188C18.7582 12.8082 24.2696 12.8143 27.3489 13.1313C29.71 13.3743 29.7423 13.3739 30.1069 13.1028C30.673 12.682 30.8702 12.1776 30.6869 11.6193C30.4394 10.8659 30.139 10.6988 28.6588 10.4913C27.3646 10.3101 22.0428 9.99083 21.0297 10.0338C20.7642 10.045 19.5222 10.1054 18.2696 10.1681ZM49.5059 13.8852C48.5293 14.2869 48.4237 15.277 49.2333 16.4391C49.5349 16.8721 49.8383 17.3099 49.9074 17.412C49.9949 17.5413 49.8175 17.9214 49.3213 18.6667C48.5524 19.8221 48.5361 19.8752 48.7578 20.5144C49.1775 21.7243 50.8169 21.6293 51.4953 20.3556L51.6838 20.0016L52.3256 20.6886C52.8754 21.2771 53.0422 21.3757 53.4882 21.3757C54.2202 21.3757 54.8151 20.7729 54.8151 20.0314C54.8151 19.6115 54.6683 19.2925 54.129 18.5397L53.443 17.5822L53.7652 17.1574C54.6034 16.0533 54.8151 15.6413 54.8151 15.1143C54.8151 14.7269 54.7205 14.478 54.4822 14.2386C53.7738 13.5269 52.8311 13.6911 52.1892 14.6381C52.0027 14.9131 51.8122 15.1385 51.7656 15.139C51.7189 15.1396 51.5117 14.8947 51.305 14.5948C50.8204 13.8923 50.1407 13.6242 49.5059 13.8852ZM17.1685 17.9154C14.6174 18.1147 13.2884 18.3077 12.9544 18.5275C12.7829 18.6406 12.57 18.9539 12.4813 19.2238C12.345 19.6385 12.3591 19.7946 12.5723 20.2326C12.9395 20.9866 13.2214 21.0367 15.8146 20.8102C17.0522 20.7021 19.6472 20.6135 21.5813 20.6135C23.5153 20.6135 26.1103 20.7021 27.348 20.8102C29.9412 21.0367 30.223 20.9866 30.5903 20.2326C30.8034 19.7946 30.8175 19.6385 30.6813 19.2238C30.443 18.498 30.0715 18.3328 28.1773 18.1107C26.0949 17.8664 19.3328 17.7465 17.1685 17.9154ZM18.0017 25.5379C15.4231 25.683 13.5641 25.9 13.1075 26.1091C12.9213 26.1943 12.6669 26.4801 12.5422 26.7442C12.3438 27.1645 12.3391 27.2868 12.5047 27.724C12.6116 28.0061 12.8751 28.33 13.1102 28.4679C13.5027 28.6983 13.6478 28.7 15.6578 28.4975C18.5069 28.2107 24.6556 28.2107 27.5048 28.4975C29.5148 28.7 29.6598 28.6983 30.0523 28.4679C30.6254 28.1315 30.9149 27.3587 30.662 26.8401C30.2958 26.0893 29.937 25.9561 27.7146 25.7465C24.9364 25.4844 20.6048 25.3914 18.0017 25.5379ZM45.3058 25.5376C40.9986 25.7807 40.233 25.9619 39.8047 26.8401C39.5518 27.3587 39.8413 28.1315 40.4144 28.4679C40.8068 28.6983 40.9519 28.7 42.9619 28.4975C45.805 28.2114 51.9601 28.2107 54.7971 28.4964C56.7002 28.688 56.9582 28.6882 57.3246 28.4978C57.8013 28.2502 58.1667 27.4814 58.043 26.9863C57.917 26.4816 57.2657 25.9955 56.5831 25.8965C54.1234 25.5403 48.4561 25.3599 45.3058 25.5376ZM16.2721 33.2846C13.4914 33.5506 13.3103 33.5853 12.9059 33.9273C12.4016 34.3535 12.2849 34.8273 12.5356 35.4302C12.8758 36.2483 13.335 36.383 15.0691 36.1735C17.0833 35.9302 26.0871 35.9313 28.107 36.175C29.4956 36.3426 29.6295 36.3374 30.034 36.1001C30.6257 35.7528 30.9187 34.988 30.662 34.4615C30.3467 33.8152 29.8835 33.5948 28.4763 33.4222C26.9381 33.2336 17.8737 33.1313 16.2721 33.2846ZM43.5763 33.2846C40.7955 33.5506 40.6144 33.5853 40.21 33.9273C39.7057 34.3535 39.589 34.8273 39.8397 35.4302C40.1799 36.2483 40.6391 36.383 42.3732 36.1735C44.3874 35.9302 53.3913 35.9313 55.4111 36.175C56.7997 36.3426 56.9336 36.3374 57.3381 36.1001C57.9298 35.7528 58.2228 34.988 57.9661 34.4615C57.6508 33.8152 57.1876 33.5948 55.7804 33.4222C54.2422 33.2336 45.1778 33.1313 43.5763 33.2846Z" fill="white"/>
</svg>
