<svg width="70" height="70" viewBox="0 0 70 70" fill="none" xmlns="http://www.w3.org/2000/svg">
<path fill-rule="evenodd" clip-rule="evenodd" d="M58.1055 0.185228C55.8713 0.730352 54.0608 2.72663 53.7642 4.97168C53.6134 6.11294 53.7823 7.33831 54.217 8.25747L54.5861 9.03769L50.4774 13.1476L46.3687 17.2575L45.5186 16.8759C43.6979 16.0587 41.3313 16.3096 39.7663 17.4858C39.3643 17.788 38.961 18.0065 38.87 17.9717C38.779 17.9368 37.2504 16.7884 35.4729 15.4199C32.4667 13.1052 32.247 12.9068 32.3233 12.5754C32.664 11.0954 32.7119 10.4663 32.5516 9.56968C32.2055 7.63166 31.1616 6.20758 29.4772 5.37485C28.3105 4.798 27.2144 4.61337 25.9808 4.78596C24.7976 4.95158 23.8813 5.39413 22.9428 6.25381C21.669 7.42023 21.0547 8.8145 21.0547 10.5386C21.0547 11.4831 21.4197 12.8704 21.8179 13.4389C22.0037 13.7043 21.795 13.9385 17.8875 17.8488L13.7607 21.9784L13.2199 21.7025C10.8559 20.4961 8.10975 20.9734 6.28018 22.9084C3.3451 26.0129 4.73443 31.1193 8.86115 32.3943C13.6819 33.8838 17.9361 28.7827 15.684 24.2132L15.3943 23.6256L19.507 19.5116L23.6198 15.3976L24.3656 15.7505C25.3623 16.2222 26.5572 16.4034 27.6493 16.2488C28.694 16.1008 29.2429 15.8837 30.1494 15.26L30.832 14.7902L34.249 17.425C36.7604 19.3615 37.6562 20.1263 37.629 20.3107C37.6085 20.4485 37.5237 20.9387 37.4406 21.3997C36.7828 25.0441 40.1965 28.463 43.9525 27.9219C45.9136 27.6392 47.6038 26.3946 48.4488 24.6108C48.8478 23.7684 48.877 23.6045 48.877 22.2025C48.877 20.8286 48.8424 20.623 48.4776 19.8328L48.0782 18.9675L52.2015 14.843L56.3248 10.7185L56.9075 11.0184C57.7906 11.4727 58.3965 11.6163 59.4445 11.6196C61.1453 11.6249 62.4384 11.0963 63.607 9.91787C66.7904 6.70771 65.297 1.33333 60.9034 0.188647C59.9421 -0.0617603 59.1222 -0.0628544 58.1055 0.185228ZM60.8325 2.66537C61.6362 2.99646 62.1708 3.50179 62.561 4.29951C63.4356 6.08778 62.6933 8.21303 60.9112 9.02278C60.2242 9.335 58.8317 9.35702 58.1353 9.06682C57.4647 8.78742 56.6311 7.97629 56.3149 7.29564C55.9762 6.56685 55.9742 5.16137 56.3105 4.42068C57.0905 2.70325 59.0643 1.93698 60.8325 2.66537ZM28.6515 7.56711C31.6549 9.32775 30.3115 13.9558 26.7969 13.9558C23.7706 13.9558 22.2607 10.2822 24.3779 8.07039C24.9341 7.48916 25.4469 7.22275 26.2367 7.10445C27.0635 6.98068 27.9362 7.1478 28.6515 7.56711ZM44.677 19.0676C46.0082 19.7312 46.6952 20.9272 46.5901 22.3977C46.5173 23.4148 46.2834 23.9552 45.6354 24.6034C44.6448 25.5942 42.9002 25.8942 41.6497 25.2887C39.923 24.4526 39.1937 22.3254 40.0549 20.637C40.9276 18.9257 42.9886 18.226 44.677 19.0676ZM12.0996 23.7422C13.2478 24.3332 13.9372 25.4858 13.9423 26.8225C13.9475 28.189 13.3476 29.2052 12.1502 29.858C10.8654 30.5585 9.28484 30.3741 8.16826 29.3934C7.45363 28.7658 7.07574 27.8985 7.07109 26.8761C7.06467 25.4197 7.751 24.335 9.0918 23.6827C9.6574 23.4076 9.92879 23.3597 10.6641 23.4054C11.196 23.4385 11.7722 23.5736 12.0996 23.7422ZM53.035 23.5402C52.9158 23.6319 52.7465 23.8413 52.659 24.0055C52.5401 24.229 52.5 29.7653 52.5 45.9896V67.6751H51.3398H50.1796L50.1435 54.0029L50.1074 40.3306L49.7961 40.0192L49.4848 39.7077L43.507 39.6659C37.2124 39.6218 36.6814 39.663 36.3895 40.2189C36.2678 40.4506 36.2188 43.9303 36.1945 54.0675L36.1621 67.6067H35H33.8379L33.7695 48.0722L33.7012 28.5376L33.3784 28.2762C33.0712 28.0273 32.7563 28.0147 26.8577 28.0147H20.6598L20.2762 28.3447L19.8926 28.6749L19.857 48.1749L19.8215 67.6751H18.6607H17.5V56.4001V45.125L17.1701 44.7413L16.8401 44.3575H10.5502H4.26029L3.90756 44.689L3.55469 45.0207V56.3478V67.6751H1.77734H0V68.8375V70H35H70V68.8375V67.6751H68.2227H66.4453V45.8557V24.0363L66.1097 23.7007L65.7742 23.3649L59.513 23.3693C54.8069 23.3726 53.1981 23.415 53.035 23.5402ZM64.1211 46.6825V67.6751H59.4727H54.8242V46.6825V25.6898H59.4727H64.1211V46.6825ZM31.4453 49.0074V67.6751H26.7969H22.1484V49.0074V30.3397H26.7969H31.4453V49.0074ZM47.8516 54.8197V67.6751H43.2031H38.5547V54.8197V41.9642H43.2031H47.8516V54.8197ZM15.1758 57.1446V67.6751H10.5273H5.87891V57.1446V46.6141H10.5273H15.1758V57.1446Z" fill="white"/>
</svg>
