<svg width="70" height="58" viewBox="0 0 70 58" fill="none" xmlns="http://www.w3.org/2000/svg">
<path fill-rule="evenodd" clip-rule="evenodd" d="M0.346472 1.06784L0 1.41484V6.3767V11.3386L0.346472 11.6856L0.692802 12.0327H5.64516H10.5975L10.9439 11.6856C11.2776 11.3513 11.2903 11.2683 11.2903 9.42317V7.5079H12.4194H13.5484V17.6887V27.8695H12.4194H11.2903V25.9542C11.2903 24.1091 11.2776 24.0261 10.9439 23.6918L10.5975 23.3447H5.64516H0.692802L0.346472 23.6918L0 24.0388V29.0007V33.9626L0.346472 34.3096L0.692802 34.6567H5.64516H10.5975L10.9439 34.3096C11.2776 33.9753 11.2903 33.8923 11.2903 32.0472V30.1319H12.4194H13.5484V40.3127V50.4935H12.4194H11.2903V48.5782C11.2903 46.7331 11.2776 46.6501 10.9439 46.3158L10.5975 45.9687H5.64516H0.692802L0.346472 46.3158L0 46.6628V51.6247V56.5866L0.346472 56.9336L0.692802 57.2807H5.64516H10.5975L10.9439 56.9336C11.2776 56.5993 11.2903 56.5163 11.2903 54.6712V52.7559H13.2019C15.0435 52.7559 15.1264 52.7432 15.46 52.4088L15.8065 52.0618V41.0968V30.1319H16.371H16.9355V30.916C16.9355 32.0889 17.2146 32.3072 18.9899 32.5233C19.7617 32.6171 20.4929 32.7226 20.6149 32.7577C20.7381 32.7932 20.9493 33.1816 21.0907 33.633C21.2306 34.0794 21.5623 34.8781 21.8279 35.4078L22.3108 36.3712L21.3167 37.679C19.8854 39.5622 19.8681 39.4821 22.2034 41.8219C24.5387 44.1616 24.4588 44.1444 26.3383 42.7103L27.6436 41.7143L28.6052 42.1981C29.1338 42.4642 29.9311 42.7965 30.3766 42.9367C30.8271 43.0784 31.2148 43.29 31.2502 43.4135C31.2852 43.5356 31.3905 44.2682 31.4842 45.0415C31.7405 47.1556 31.6452 47.0999 35 47.0999C38.3548 47.0999 38.2595 47.1556 38.5158 45.0415C38.6095 44.2682 38.7148 43.5356 38.7498 43.4135C38.7852 43.29 39.1729 43.0784 39.6234 42.9367C40.0689 42.7965 40.8681 42.4631 41.3995 42.1957L42.3655 41.7096L43.6683 42.7079C45.5422 44.1441 45.4615 44.1613 47.7966 41.8219C50.1316 39.4823 50.1144 39.5631 48.6809 37.6856L47.6845 36.3804L48.1697 35.4125C48.4366 34.8801 48.7694 34.0794 48.9093 33.633C49.0507 33.1816 49.2619 32.7932 49.3851 32.7577C49.5071 32.7226 50.2383 32.6171 51.0101 32.5233C52.7854 32.3072 53.0645 32.0889 53.0645 30.916V30.1319H53.629H54.1936V41.0968V52.0618L54.54 52.4088C54.8736 52.7432 54.9565 52.7559 56.7981 52.7559H58.7097V54.6712C58.7097 56.5163 58.7224 56.5993 59.0561 56.9336L59.4025 57.2807H64.3548H69.3072L69.6535 56.9336L70 56.5866V51.6247V46.6628L69.6535 46.3158L69.3072 45.9687H64.3548H59.4025L59.0561 46.3158C58.7224 46.6501 58.7097 46.7331 58.7097 48.5782V50.4935H57.5806H56.4516V40.3127V30.1319H57.5806H58.7097V32.0472C58.7097 33.8923 58.7224 33.9753 59.0561 34.3096L59.4025 34.6567H64.3548H69.3072L69.6535 34.3096L70 33.9626V29.0007V24.0388L69.6535 23.6918L69.3072 23.3447H64.3548H59.4025L59.0561 23.6918C58.7224 24.0261 58.7097 24.1091 58.7097 25.9542V27.8695H57.5806H56.4516V17.6887V7.5079H57.5806H58.7097V9.42317C58.7097 11.2683 58.7224 11.3513 59.0561 11.6856L59.4025 12.0327H64.3548H69.3072L69.6535 11.6856L70 11.3386V6.3767V1.41484L69.6535 1.06784L69.3072 0.720703H64.3548H59.4025L59.0561 1.06784C58.7224 1.40211 58.7097 1.48511 58.7097 3.33024V5.2455H56.7981C54.9565 5.2455 54.8736 5.25823 54.54 5.59264L54.1936 5.93964V16.9046V27.8695H53.629H53.0645V27.0854C53.0645 25.9125 52.7854 25.6942 51.0101 25.4781C50.2383 25.3843 49.5071 25.2788 49.3851 25.2437C49.2619 25.2082 49.0507 24.8198 48.9093 24.3684C48.7694 23.922 48.4366 23.1213 48.1697 22.5889L47.6845 21.621L48.6809 20.3158C50.1144 18.4383 50.1316 18.5191 47.7966 16.1795C45.4615 13.8401 45.5422 13.8573 43.6683 15.2935L42.3655 16.2918L41.3995 15.8057C40.8681 15.5383 40.0689 15.2049 39.6234 15.0647C39.1729 14.9231 38.7852 14.7114 38.7498 14.5879C38.7148 14.4658 38.6095 13.7332 38.5158 12.9599C38.2595 10.8458 38.3548 10.9015 35 10.9015C31.6452 10.9015 31.7405 10.8458 31.4842 12.9599C31.3905 13.7332 31.2852 14.4658 31.2502 14.5879C31.2148 14.7114 30.8271 14.9231 30.3766 15.0647C29.9311 15.2049 29.1338 15.5372 28.6052 15.8033L27.6436 16.2871L26.3383 15.2911C24.4588 13.857 24.5387 13.8398 22.2034 16.1795C19.8684 18.5191 19.8856 18.4383 21.3191 20.3158L22.3155 21.621L21.8303 22.5889C21.5634 23.1213 21.2306 23.922 21.0907 24.3684C20.9493 24.8198 20.7381 25.2082 20.6149 25.2437C20.4929 25.2788 19.7617 25.3843 18.9899 25.4781C17.2146 25.6942 16.9355 25.9125 16.9355 27.0854V27.8695H16.371H15.8065V16.9046V5.93964L15.46 5.59264C15.1264 5.25823 15.0435 5.2455 13.2019 5.2455H11.2903V3.33024C11.2903 1.48511 11.2776 1.40211 10.9439 1.06784L10.5975 0.720703H5.64516H0.692802L0.346472 1.06784ZM9.03226 6.3767V9.7703H5.64516H2.25806V6.3767V2.9831H5.64516H9.03226V6.3767ZM67.7419 6.3767V9.7703H64.3548H60.9677V6.3767V2.9831H64.3548H67.7419V6.3767ZM36.2747 13.27C36.2771 13.3282 36.3692 14.0074 36.4793 14.779C36.6175 15.7484 36.7592 16.262 36.9378 16.4408C37.08 16.5832 37.6594 16.8284 38.2258 16.9857C39.256 17.2717 40.4421 17.7854 41.6309 18.4605C41.979 18.6581 42.3733 18.8199 42.5072 18.8199C42.6411 18.8199 43.2981 18.4063 43.9671 17.9008C44.636 17.3953 45.2241 16.9817 45.2741 16.9817C45.3984 16.9817 46.996 18.5744 46.996 18.6984C46.996 18.7532 46.5832 19.3462 46.0786 20.0164C45.5741 20.6867 45.1613 21.3449 45.1613 21.4791C45.1613 21.6133 45.322 22.0083 45.5185 22.357C46.1688 23.5118 46.7266 24.8089 47.0037 25.8111C47.1543 26.3551 47.3937 26.9168 47.5358 27.0591C47.7143 27.2382 48.2269 27.3801 49.1945 27.5186C49.9646 27.6288 50.6423 27.7212 50.7006 27.7236C50.7589 27.7261 50.8064 28.3008 50.8064 29.0007C50.8064 29.7006 50.7589 30.2753 50.7006 30.2778C50.6423 30.2802 49.9646 30.3726 49.1945 30.4829C48.2269 30.6213 47.7143 30.7633 47.5358 30.9423C47.3937 31.0847 47.1543 31.6463 47.0037 32.1903C46.7266 33.1925 46.1688 34.4896 45.5185 35.6444C45.322 35.9931 45.1613 36.3881 45.1613 36.5223C45.1613 36.6565 45.5741 37.3147 46.0786 37.985C46.5832 38.6552 46.996 39.2482 46.996 39.303C46.996 39.427 45.3984 41.0197 45.2741 41.0197C45.2241 41.0197 44.636 40.6061 43.9671 40.1006C43.2981 39.5951 42.6411 39.1815 42.5072 39.1815C42.3733 39.1815 41.979 39.3426 41.6309 39.5394C40.4783 40.191 39.1838 40.7498 38.1834 41.0275C37.6405 41.1784 37.08 41.4182 36.9378 41.5606C36.7592 41.7394 36.6175 42.253 36.4793 43.2224C36.3692 43.9941 36.2771 44.6731 36.2747 44.7315C36.2721 44.7899 35.6986 44.8375 35 44.8375C34.3014 44.8375 33.7279 44.7899 33.7253 44.7315C33.7229 44.6731 33.6308 43.9941 33.5207 43.2224C33.3825 42.253 33.2408 41.7394 33.0622 41.5606C32.92 41.4182 32.3595 41.1784 31.8166 41.0275C30.8162 40.7498 29.5217 40.191 28.3691 39.5394C28.021 39.3426 27.6267 39.1815 27.4928 39.1815C27.3589 39.1815 26.7019 39.5951 26.0329 40.1006C25.364 40.6061 24.7759 41.0197 24.7259 41.0197C24.6016 41.0197 23.004 39.427 23.004 39.303C23.004 39.2482 23.4168 38.6552 23.9214 37.985C24.4259 37.3147 24.8387 36.6565 24.8387 36.5223C24.8387 36.3881 24.678 35.9931 24.4815 35.6444C23.8312 34.4896 23.2734 33.1925 22.9963 32.1903C22.6199 30.8296 22.472 30.714 20.8014 30.4769C20.0335 30.368 19.3575 30.2775 19.2994 30.276C19.2412 30.2746 19.1935 29.7006 19.1935 29.0007C19.1935 28.3008 19.2412 27.7268 19.2994 27.7254C19.3575 27.7239 20.0335 27.6334 20.8014 27.5245C21.778 27.3858 22.2765 27.2472 22.4601 27.0632C22.6045 26.9186 22.851 26.3362 23.008 25.7687C23.2935 24.7365 23.8062 23.5482 24.48 22.357C24.6773 22.0083 24.8387 21.6133 24.8387 21.4791C24.8387 21.3449 24.4259 20.6867 23.9214 20.0164C23.4168 19.3462 23.004 18.7532 23.004 18.6984C23.004 18.5744 24.6016 16.9817 24.7259 16.9817C24.7759 16.9817 25.364 17.3953 26.0329 17.9008C26.7019 18.4063 27.3589 18.8199 27.4928 18.8199C27.6267 18.8199 28.021 18.6588 28.3691 18.462C29.5217 17.8104 30.8162 17.2516 31.8166 16.9739C32.3595 16.8231 32.92 16.5832 33.0622 16.4408C33.2408 16.262 33.3825 15.7484 33.5207 14.779C33.6308 14.0074 33.7229 13.3282 33.7253 13.27C33.7279 13.2117 34.3014 13.1639 35 13.1639C35.6986 13.1639 36.2721 13.2117 36.2747 13.27ZM33.2166 18.9647C31.1945 19.3304 29.46 20.2701 27.8726 21.86C26.5831 23.1516 25.8413 24.3359 25.3046 25.9606C24.9746 26.9595 24.9309 27.3152 24.9309 29.0007C24.9309 30.6862 24.9746 31.042 25.3046 32.0408C25.8411 33.6652 26.5829 34.8497 27.8726 36.1418C29.1622 37.4339 30.3444 38.1771 31.9657 38.7147C32.9627 39.0453 33.3177 39.0892 35 39.0892C36.6823 39.0892 37.0373 39.0453 38.0343 38.7147C39.6556 38.1771 40.8378 37.4339 42.1274 36.1418C43.4171 34.8497 44.1589 33.6652 44.6954 32.0408C45.0254 31.042 45.0691 30.6862 45.0691 29.0007C45.0691 27.3152 45.0254 26.9595 44.6954 25.9606C44.1589 24.3362 43.4171 23.1517 42.1274 21.8596C40.1583 19.8866 38.124 18.9846 35.4234 18.8871C34.6084 18.8577 33.6152 18.8926 33.2166 18.9647ZM36.4912 21.2335C37.8843 21.4849 39.4653 22.3406 40.5562 23.4338C43.657 26.5403 43.6535 31.4705 40.5482 34.5818C37.4559 37.68 32.5346 37.6644 29.4229 34.5468C25.62 30.7367 26.6831 24.331 31.5138 21.9485C33.1825 21.1254 34.6916 20.9087 36.4912 21.2335ZM9.03226 29.0007V32.3943H5.64516H2.25806V29.0007V25.6071H5.64516H9.03226V29.0007ZM67.7419 29.0007V32.3943H64.3548H60.9677V29.0007V25.6071H64.3548H67.7419V29.0007ZM9.03226 51.6247V55.0183H5.64516H2.25806V51.6247V48.2311H5.64516H9.03226V51.6247ZM67.7419 51.6247V55.0183H64.3548H60.9677V51.6247V48.2311H64.3548H67.7419V51.6247Z" fill="white"/>
</svg>
