<svg width="64" height="71" viewBox="0 0 64 71" fill="none" xmlns="http://www.w3.org/2000/svg">
<path fill-rule="evenodd" clip-rule="evenodd" d="M2.96641 0.348425L2.61961 0.694755V5.42907V10.1632H3.74972H4.87984V6.21163V2.26002H8.83524H12.7906V1.13098V0.00195312H8.05193H3.31307L2.96641 0.348425ZM27.5926 0.211671C24.8949 0.896711 22.6775 3.13897 22.0443 5.82211C21.7111 7.23382 21.7666 9.07598 22.1787 10.2864C22.4971 11.2218 22.5058 11.312 22.2846 11.3816C20.5949 11.9125 19.5713 13.1666 19.5713 14.7059C19.5713 16.0016 20.5794 17.4144 21.8141 17.849C22.1539 17.9685 22.8909 18.0665 23.4514 18.0665H24.4708L24.6328 18.6066C24.8748 19.4135 25.833 20.812 26.7076 21.6342C27.4364 22.3197 27.4821 22.4025 27.4821 23.0372V23.7116H22.1784H16.8745L16.5278 24.0581C16.243 24.3425 16.181 24.5443 16.181 25.1871V25.9697H9.73453C5.08608 25.9697 3.1259 26.0175 2.70662 26.1413C1.4926 26.4996 0.359375 28.052 0.359375 29.3568C0.359375 30.6615 1.4926 32.2139 2.70662 32.5723C3.1259 32.696 5.08608 32.7439 9.73453 32.7439H16.181V33.5264C16.181 34.1693 16.243 34.3711 16.5278 34.6555C16.8745 35.0019 16.8749 35.0019 19.9181 35.0019H22.9617V45.3813V55.7607L23.3085 56.1071C23.5931 56.3916 23.7951 56.4535 24.4386 56.4535H25.2219V59.8406V63.2277H24.426C23.1999 63.2277 22.5568 63.4815 21.7561 64.2814C20.7578 65.2787 20.4819 66.3337 20.8732 67.6569C21.1025 68.4321 22.2727 69.6012 23.0487 69.8303C23.4766 69.9566 25.8477 70.0019 32.0292 70.0019C41.6323 70.0019 41.3111 70.0369 42.3572 68.8746C43.2501 67.8824 43.5028 66.8173 43.1358 65.5936C43.0434 65.2857 42.6931 64.7283 42.3572 64.355C41.6405 63.5588 40.8326 63.2277 39.6057 63.2277H38.7833V59.8406V56.4535H39.5666C40.2101 56.4535 40.4121 56.3916 40.6967 56.1071L41.0435 55.7607V45.3813V35.0019H44.0871C47.1303 35.0019 47.1308 35.0019 47.4774 34.6555C47.7622 34.3711 47.8242 34.1693 47.8242 33.5264V32.7439H54.2972C61.7468 32.7439 61.6762 32.7533 62.6992 31.6165C63.5964 30.6196 63.8439 29.5651 63.4741 28.3147C63.2448 27.5395 62.0746 26.3703 61.2986 26.1413C60.8793 26.0175 58.9191 25.9697 54.2707 25.9697H47.8242V25.1871C47.8242 24.5443 47.7622 24.3425 47.4774 24.0581L47.1308 23.7116H41.8268H36.5231V23.0542C36.5231 22.428 36.57 22.3501 37.509 21.4177C38.4294 20.5035 39.4896 18.8129 39.4896 18.2592C39.4896 18.1143 39.7398 18.0665 40.4974 18.0665C41.9397 18.0665 42.5466 17.8446 43.3792 17.0128C44.1108 16.2819 44.4339 15.5671 44.4339 14.6794C44.4339 13.1825 43.2621 11.7509 41.7383 11.3861L41.3735 11.2988L41.7021 9.84894C42.3766 6.87267 42.2585 3.95935 41.3946 2.25592C40.1613 -0.175446 36.9544 -0.70101 34.8641 1.1856C34.5534 1.46602 34.2624 1.6955 34.2175 1.6955C34.1726 1.6955 33.8357 1.49312 33.4688 1.24586C31.9082 0.193606 29.4009 -0.247704 27.5926 0.211671ZM51.2146 1.13098V2.26002H55.17H59.1254V6.21163V10.1632H60.2555H61.3856V5.42907V0.694755L61.0388 0.348425L60.6921 0.00195312H55.9533H51.2146V1.13098ZM31.4799 2.72292C31.9003 2.91514 32.6037 3.39766 33.0432 3.79522C34.1795 4.82348 34.4127 4.79568 35.8097 3.46624C36.4175 2.8879 37.0815 2.37278 37.2849 2.32169C38.3074 2.0654 39.3041 2.7352 39.6449 3.90784C39.9161 4.84112 39.8839 7.68134 39.5868 9.0191C39.4594 9.59293 39.3243 10.0931 39.2866 10.1308C39.2491 10.1685 37.9363 9.17491 36.3695 7.9231C33.271 5.44755 33.0176 5.3259 32.3494 5.99358C32.1193 6.22334 32.0026 6.49896 32.0026 6.81255C32.0026 7.07251 31.8375 7.61614 31.6357 8.02062C31.0659 9.1632 30.5713 9.38293 27.6142 9.80703C26.2596 10.0012 25.0193 10.191 24.8582 10.2287C24.1996 10.3828 23.8467 7.65199 24.3197 6.0609C25.0278 3.67822 27.1413 2.18776 29.6287 2.31689C30.3926 2.35655 30.943 2.47735 31.4799 2.72292ZM35.8218 10.3396L37.6557 11.7862L37.6191 14.4754L37.5826 17.1648L37.0549 18.2307C36.4195 19.5147 35.6012 20.3149 34.2883 20.9363C33.4349 21.3402 33.2162 21.383 32.0026 21.383C30.789 21.383 30.5703 21.3402 29.717 20.9363C28.404 20.3149 27.5857 19.5147 26.9503 18.2306L26.4227 17.1645L26.3736 14.7365L26.3246 12.3087L26.7268 12.2289C26.948 12.1852 27.8569 12.0462 28.7465 11.92C29.6361 11.7938 30.6979 11.5658 31.1059 11.4132C31.9595 11.0941 33.0906 10.1387 33.4886 9.40043C33.639 9.12142 33.8129 8.89308 33.8751 8.89308C33.9372 8.89308 34.8132 9.54396 35.8218 10.3396ZM24.0918 14.6794V15.8084H23.3085C22.3658 15.8084 21.8316 15.4 21.8316 14.6794C21.8316 13.9588 22.3658 13.5503 23.3085 13.5503H24.0918V14.6794ZM41.8268 13.8968C42.0455 14.1151 42.1736 14.4044 42.1736 14.6794C42.1736 15.4 41.6394 15.8084 40.6967 15.8084H39.9134V14.6794V13.5503H40.6967C41.3402 13.5503 41.5422 13.6123 41.8268 13.8968ZM13.4263 14.8435C13.0379 14.9165 12.2081 15.2227 11.5823 15.524C9.43194 16.5596 7.704 18.8013 7.29108 21.0914C7.01222 22.638 6.97634 22.5826 8.25394 22.5826H9.36781L9.46231 21.8258C9.58634 20.8347 10.224 19.5092 10.9617 18.7099C11.6902 17.9202 13.214 17.1342 14.2721 17.0021L15.0509 16.905V15.7922V14.6794L14.5918 14.6952C14.3393 14.7038 13.8148 14.7707 13.4263 14.8435ZM48.9543 15.774V16.905L49.7331 17.0021C50.7912 17.1342 52.315 17.9202 53.0435 18.7099C53.7812 19.5092 54.4189 20.8347 54.5429 21.8258L54.6374 22.5826H55.7695H56.9016L56.8037 21.717C56.6059 19.9718 55.8103 18.3219 54.5488 17.0413C53.2979 15.7716 51.5908 14.9409 49.8207 14.7408L48.9543 14.643V15.774ZM13.9208 19.3799C13.2274 19.5983 12.0449 20.8216 11.8323 21.5405C11.5253 22.5786 11.5287 22.5826 12.7597 22.5826C13.8562 22.5826 13.8592 22.5816 14.0222 22.1503C14.1257 21.8762 14.3438 21.6583 14.6182 21.5549C15.0499 21.392 15.0509 21.3891 15.0509 20.2936C15.0509 19.0651 15.0144 19.0356 13.9208 19.3799ZM48.9543 20.2936C48.9543 21.3891 48.9553 21.392 49.387 21.5549C49.6614 21.6583 49.8795 21.8762 49.983 22.1503C50.146 22.5816 50.149 22.5826 51.2455 22.5826C52.1684 22.5826 52.3447 22.5456 52.3447 22.352C52.3447 21.285 51.2143 19.7895 50.1283 19.4199C48.974 19.027 48.9543 19.0415 48.9543 20.2936ZM32.0026 23.641C32.5853 23.641 33.3391 23.5915 33.6776 23.5311L34.2931 23.4212L34.2421 24.5448C34.1873 25.7502 33.9975 26.1568 33.2196 26.7371C32.6726 27.1451 31.3326 27.1451 30.7856 26.7371C30.0077 26.1568 29.818 25.7502 29.7631 24.5448L29.7121 23.4212L30.3276 23.5311C30.6661 23.5915 31.4199 23.641 32.0026 23.641ZM27.9479 26.7227C28.3721 27.6487 29.0943 28.3888 30.0649 28.8925C30.697 29.2204 30.9725 29.2748 32.0026 29.2748C33.0327 29.2748 33.3082 29.2204 33.9403 28.8925C34.911 28.3888 35.6331 27.6487 36.0573 26.7227L36.4026 25.9697H40.9832H45.564V29.3568V32.7439H42.5205C39.4772 32.7439 39.4768 32.7439 39.1301 33.0903L38.7833 33.4367V38.171V42.9051H32.0026H25.2219V38.171V33.4367L24.8751 33.0903C24.5284 32.7439 24.528 32.7439 21.4848 32.7439H18.4412V29.3568V25.9697H23.022H27.6026L27.9479 26.7227ZM16.181 29.3568V30.4858H9.7471H3.31307L2.96641 30.1393C2.74773 29.921 2.61961 29.6317 2.61961 29.3568C2.61961 29.0819 2.74773 28.7925 2.96641 28.5742L3.31307 28.2277H9.7471H16.181V29.3568ZM61.0388 28.5742C61.2575 28.7925 61.3856 29.0819 61.3856 29.3568C61.3856 29.6317 61.2575 29.921 61.0388 30.1393L60.6921 30.4858H54.2581H47.8242V29.3568V28.2277H54.2581H60.6921L61.0388 28.5742ZM30.8725 49.6793V54.1955H28.0472H25.2219V49.6793V45.1632H28.0472H30.8725V49.6793ZM38.7833 49.6793V54.1955H35.958H33.1327V49.6793V45.1632H35.958H38.7833V49.6793ZM30.8725 62.0987V67.7438H27.2639H23.6552L23.3085 67.3974C22.8497 66.9391 22.8497 66.2905 23.3085 65.8322C23.635 65.5061 23.7468 65.4858 25.2219 65.4858C26.697 65.4858 26.8089 65.4655 27.1353 65.1393L27.4821 64.793V60.6232V56.4535H29.1773H30.8725V62.0987ZM36.5231 60.6232V64.793L36.8699 65.1393C37.1963 65.4655 37.3082 65.4858 38.7833 65.4858C40.2584 65.4858 40.3703 65.5061 40.6967 65.8322C40.9154 66.0506 41.0435 66.3399 41.0435 66.6148C41.0435 66.8897 40.9154 67.179 40.6967 67.3974L40.3501 67.7438H36.7413H33.1327V62.0987V56.4535H34.8279H36.5231V60.6232ZM2.61961 64.5748V69.3091L2.96641 69.6554L3.31307 70.0019H8.05193H12.7906V68.8729V67.7438H8.83524H4.87984V63.7922V59.8406H3.74972H2.61961V64.5748ZM59.1254 63.7922V67.7438H55.17H51.2146V68.8729V70.0019H55.9533H60.6921L61.0388 69.6554L61.3856 69.3091V64.5748V59.8406H60.2555H59.1254V63.7922Z" fill="white"/>
</svg>
