<svg width="67" height="70" viewBox="0 0 67 70" fill="none" xmlns="http://www.w3.org/2000/svg">
<path fill-rule="evenodd" clip-rule="evenodd" d="M15.6181 0.19069C13.8269 0.753233 12.6608 2.06173 12.3254 3.88545C12.2273 4.41872 12.1769 7.9034 12.1769 14.1495V23.6062L6.61169 27.4649C2.43407 30.3616 0.959104 31.4565 0.696038 31.856C-0.229387 33.2613 -0.0632189 35.1135 1.09247 36.2751C1.29865 36.4822 3.87692 38.3202 6.82208 40.3595L12.1769 44.0674V54.6932C12.1769 61.7524 12.2266 65.5913 12.3248 66.1305C12.6125 67.7098 13.5311 68.8897 15.0185 69.5907L15.7833 69.9511L32.855 69.9873C48.0709 70.0197 50.0068 70.0002 50.6652 69.8079C52.4393 69.2895 53.6032 67.9829 53.9448 66.1262C54.0438 65.5875 54.0932 61.7852 54.0932 54.6989V44.0789L59.4348 40.3745C62.3728 38.3371 64.9686 36.4649 65.2035 36.2141C65.9146 35.4547 66.1299 34.9056 66.1329 33.8433C66.1351 33.0356 66.0726 32.7713 65.7329 32.1536C65.274 31.3192 65.5081 31.4974 58.6183 26.7344L54.0932 23.6063V14.1495C54.0932 7.9034 54.0429 4.41872 53.9448 3.88545C53.6048 2.03738 52.4511 0.735452 50.6871 0.208881C50.0408 0.0160322 48.1055 -0.00680869 33.0763 0.00139763C19.5117 0.00878331 16.0788 0.0459853 15.6181 0.19069ZM22.8601 4.27689C24.2091 5.66772 24.9641 6.33722 25.4459 6.57028L26.1263 6.89921H33.1351H40.1438L40.9312 6.49847C41.5329 6.19238 42.1381 5.65185 43.4964 4.20754L45.2741 2.31736H47.5454C49.6325 2.31736 49.8653 2.34225 50.416 2.62509C51.1218 2.98754 51.479 3.43629 51.6494 4.17431C51.7175 4.46946 51.7746 8.6499 51.7764 13.4643L51.7797 22.2177L51.3033 22.5997C50.9107 22.9144 50.827 23.0721 50.827 23.4959C50.827 23.9043 50.9253 24.1061 51.3033 24.4744L51.7797 24.9383V33.8631V42.7879L51.3374 43.1246C51.094 43.3098 46.9756 46.1786 42.1852 49.5C34.7107 54.682 33.4173 55.5316 33.067 55.4893C32.7999 55.4572 29.602 53.3212 23.8128 49.3081C18.9475 45.9354 14.8597 43.0822 14.7286 42.9677C14.5064 42.7734 14.4905 42.1646 14.4905 33.8489V24.9383L14.9668 24.4744C15.3448 24.1061 15.4431 23.9043 15.4431 23.4959C15.4431 23.0721 15.3594 22.9144 14.9668 22.5997L14.4905 22.2177L14.4937 13.4643C14.4955 8.6499 14.5527 4.46946 14.6207 4.17431C14.7911 3.43629 15.1483 2.98754 15.8541 2.62509C16.4035 2.34307 16.641 2.31722 18.7041 2.31503L20.9548 2.31257L22.8601 4.27689ZM41.7015 2.69348C39.8603 4.81112 40.6018 4.64248 33.1351 4.64248C25.6684 4.64248 26.4098 4.81112 24.5686 2.69348L24.2416 2.31736H33.1351H42.0285L41.7015 2.69348ZM32.0882 9.82326C31.6391 10.1151 31.2315 10.4586 31.1826 10.5867C30.9937 11.0816 31.0961 11.6328 31.4417 11.98C31.7358 12.2756 31.8676 12.3158 32.2922 12.2399C32.5687 12.1905 32.9479 12.15 33.1351 12.15C33.3222 12.15 33.7015 12.1905 33.9779 12.2399C34.4025 12.3158 34.5344 12.2756 34.8285 11.98C35.174 11.6328 35.2765 11.0816 35.0876 10.5867C34.9791 10.3029 33.455 9.29272 33.1351 9.29272C33.0086 9.29272 32.5375 9.53153 32.0882 9.82326ZM38.083 13.1182C37.4711 13.3726 37.1801 14.1816 37.4906 14.7647C37.7264 15.2076 40.3567 16.952 40.7885 16.952C41.2212 16.952 41.8357 16.4265 41.8606 16.0349C41.9152 15.1803 41.8636 15.1155 40.2402 14.0015C38.8679 13.0598 38.5432 12.9269 38.083 13.1182ZM26.0569 13.9908C24.5229 15.0217 24.3707 15.1868 24.3707 15.8199C24.3707 16.4019 24.9172 16.952 25.4954 16.952C25.9264 16.952 28.5526 15.1909 28.792 14.7413C29.0007 14.3493 28.8264 13.5808 28.4723 13.3315C27.9142 12.9387 27.4229 13.0727 26.0569 13.9908ZM32.6587 16.4704C32.4342 16.5745 30.1693 17.9732 27.6257 19.5788C24.6323 21.4683 22.9408 22.6175 22.8305 22.8366C22.7024 23.0908 22.6595 24.5436 22.658 28.6725L22.656 34.1699L22.9622 34.5147C23.3241 34.9221 32.8072 40.887 33.093 40.887C33.3823 40.887 33.4956 40.8203 38.3746 37.776C40.8447 36.2349 43.0341 34.7955 43.2399 34.5773L43.6141 34.1808L43.6121 28.678C43.6106 24.5503 43.5676 23.0896 43.4399 22.8331C43.3271 22.6066 41.639 21.468 38.4405 19.461C35.7845 17.7943 33.4889 16.3971 33.3392 16.3559C33.1895 16.3147 32.8833 16.3663 32.6587 16.4704ZM19.3918 18.6001C17.8609 19.6836 17.7022 19.8563 17.7022 20.4396C17.7022 21.0127 18.0525 21.4223 18.6445 21.5413C18.9886 21.6104 19.2572 21.4905 20.3039 20.7998C20.9906 20.3465 21.6784 19.8492 21.8321 19.6948C22.2289 19.2959 22.2107 18.4608 21.7967 18.0699C21.2512 17.555 20.6956 17.6775 19.3918 18.6001ZM44.4544 18.0891C44.0639 18.5068 44.0558 19.3106 44.438 19.6948C44.9503 20.2096 47.178 21.6022 47.4894 21.6022C47.9306 21.6022 48.4778 21.1195 48.5831 20.6375C48.7139 20.0386 48.4357 19.7002 46.9651 18.6698C45.5173 17.6552 44.9768 17.5302 44.4544 18.0891ZM36.6437 21.0708C38.5687 22.2832 40.1612 23.2905 40.1826 23.3095C40.2038 23.3285 38.6269 24.3438 36.6782 25.5656L33.1351 27.7872L29.585 25.5612L26.0349 23.3354L26.7611 22.8862C27.1605 22.6391 28.7427 21.6391 30.2771 20.6639C31.8116 19.6889 33.0842 18.8855 33.1053 18.8789C33.1262 18.8722 34.7185 19.8586 36.6437 21.0708ZM28.8772 27.8561L31.9002 29.7401L31.9052 33.6083L31.9102 37.4765L31.5897 37.3011C31.4134 37.2047 29.8517 36.235 28.1194 35.1462L24.9695 33.1664V29.2856V25.405L25.4118 25.6885C25.655 25.8444 27.2145 26.8198 28.8772 27.8561ZM41.3006 29.3068V33.1817L37.9435 35.2906C36.097 36.4504 34.5344 37.4201 34.4709 37.4457C34.4075 37.4712 34.3719 35.7503 34.3917 33.6214L34.4279 29.7509L37.8302 27.5999C39.7015 26.417 41.2479 25.4452 41.2666 25.4404C41.2852 25.4356 41.3006 27.1755 41.3006 29.3068ZM12.1769 33.859V41.192L11.8026 40.9499C9.87204 39.7011 2.75062 34.6586 2.58799 34.4252C2.29403 34.0036 2.32683 33.5759 2.68448 33.1642C2.97517 32.8297 11.8599 26.5589 12.0748 26.5367C12.1309 26.5308 12.1769 29.8259 12.1769 33.859ZM58.6848 29.6092C61.1371 31.3051 63.3118 32.8755 63.5176 33.0991C63.7234 33.3227 63.8919 33.6575 63.8919 33.8433C63.8919 34.029 63.7234 34.3623 63.5176 34.5842C63.1992 34.9273 54.323 41.1606 54.1527 41.1606C54.12 41.1606 54.0932 37.8678 54.0932 33.8433C54.0932 29.8188 54.1232 26.526 54.1598 26.526C54.1965 26.526 56.2327 27.9134 58.6848 29.6092ZM23.0683 51.6239C27.5946 54.7632 31.5122 57.4266 31.7741 57.5423C32.5476 57.8838 33.5187 57.9094 34.2918 57.6086C34.6661 57.463 38.6774 54.7724 43.2059 51.6295C47.7343 48.4866 51.5185 45.8841 51.6153 45.8462C51.758 45.7902 51.7836 47.1282 51.7514 52.9403C51.7161 59.3009 51.6864 60.1494 51.4864 60.5138C51.1946 61.0454 50.7203 61.4843 50.2398 61.6672C49.976 61.7677 44.6489 61.8131 33.1351 61.8131C21.6213 61.8131 16.2941 61.7677 16.0303 61.6672C15.5498 61.4843 15.0755 61.0454 14.7837 60.5138C14.5837 60.1494 14.554 59.3009 14.5188 52.9403C14.486 47.0438 14.5109 45.7893 14.6589 45.8465C14.758 45.8847 18.5422 48.4846 23.0683 51.6239ZM15.5668 63.9495C16.0634 64.1057 19.0898 64.1383 33.1351 64.1383C50.4888 64.1383 50.3937 64.1407 51.5415 63.6613C51.7529 63.5731 51.779 63.6522 51.7737 64.363C51.7606 66.1321 51.4315 66.8651 50.416 67.3866L49.8167 67.6943H33.1351H16.4535L15.8541 67.3866C14.8375 66.8645 14.5001 66.1316 14.4937 64.4314C14.4909 63.656 14.5162 63.5727 14.7286 63.6613C14.8597 63.716 15.2368 63.8457 15.5668 63.9495Z" fill="white"/>
</svg>
