<svg width="63" height="70" viewBox="0 0 63 70" fill="none" xmlns="http://www.w3.org/2000/svg">
<mask id="path-1-outside-1_485_3347" maskUnits="userSpaceOnUse" x="-0.359375" y="0" width="63" height="70" fill="black">
<rect fill="white" x="-0.359375" width="63" height="70"/>
<path fill-rule="evenodd" clip-rule="evenodd" d="M23.3483 1.28289C21.95 1.76502 20.8803 2.86125 20.5668 4.13358C20.4909 4.44117 20.1683 4.72684 19.3489 5.2124C18.7358 5.57563 17.7435 6.37251 17.1438 6.98318C15.4262 8.73221 14.4421 10.6262 13.9985 13.0369L13.7636 14.3139L12.733 14.5034C6.80412 15.5935 2.83412 21.3995 4.06217 27.1847C4.18928 27.7829 4.2913 28.3425 4.28912 28.4281C4.28694 28.5136 3.93522 28.8204 3.50749 29.11C2.56262 29.7496 1.48036 31.1482 0.997952 32.3537C0.697947 33.1032 0.640625 33.5331 0.640625 35.0338C0.640625 37.1348 0.920225 38.029 2.04314 39.5197C2.55966 40.2053 4.05625 41.4685 4.56202 41.6456C4.5815 41.6523 4.45159 42.0384 4.27355 42.5036C3.58631 44.2986 3.74784 46.5599 4.69692 48.4286C5.61858 50.2436 7.75584 51.858 9.79668 52.2808L10.6313 52.4536L10.5615 54.3517C10.4764 56.6615 10.7154 57.8446 11.6508 59.7467C12.1751 60.8129 12.5729 61.3409 13.7128 62.4838C14.8876 63.6615 15.3558 64.0112 16.494 64.5609C17.339 64.9691 18.3658 65.3193 19.1778 65.4762C20.4311 65.7187 20.5009 65.754 20.6568 66.2235C21.2735 68.0813 23.4953 69.34 25.4105 68.9163C25.8328 68.8229 26.4488 68.5689 26.7795 68.3518L27.3808 67.9573L28.2593 68.3493C30.2037 69.2169 32.2776 69.2169 34.222 68.3493L35.1005 67.9573L35.7018 68.3533C36.0324 68.5713 36.6585 68.8252 37.0929 68.9179C39.0146 69.3274 41.2088 68.0779 41.8244 66.2235C41.9804 65.754 42.0501 65.7187 43.3034 65.4762C44.1154 65.3193 45.1422 64.9691 45.9873 64.5609C47.1255 64.0112 47.5937 63.6615 48.7685 62.4838C49.9084 61.3409 50.3062 60.8129 50.8305 59.7467C51.7659 57.8446 52.0048 56.6615 51.9198 54.3517L51.85 52.4536L52.6846 52.2808C54.7254 51.858 56.8627 50.2436 57.7843 48.4286C58.7353 46.5564 58.8949 44.2986 58.2041 42.4943C58.0071 41.9795 57.9399 41.6185 58.0354 41.5866C58.5015 41.4315 59.907 40.2087 60.4736 39.4656C61.5551 38.0469 61.8406 37.1215 61.8406 35.0338C61.8406 33.5331 61.7833 33.1032 61.4833 32.3537C61.0009 31.1482 59.9186 29.7496 58.9738 29.11C58.546 28.8204 58.1943 28.5136 58.1921 28.4281C58.1899 28.3425 58.292 27.7829 58.4191 27.1847C59.6474 21.3975 55.67 15.5921 49.7277 14.4996L48.7177 14.3139L48.4828 13.0369C48.0392 10.6262 47.055 8.73221 45.3374 6.98318C44.7377 6.37251 43.7396 5.57206 43.1192 5.20463C42.154 4.63265 41.9688 4.45251 41.8346 3.95546C41.1565 1.44282 37.7521 0.236083 35.643 1.76067L35.038 2.19789L34.4703 1.90724C32.5702 0.934573 29.911 0.934573 28.011 1.90724L27.4432 2.19789L26.8418 1.76316C26.2949 1.3679 25.0865 0.987419 24.4182 1.00032C24.2725 1.00312 23.7911 1.13026 23.3483 1.28289ZM25.9172 3.12485C26.504 3.5585 27.035 4.38708 27.035 4.86922C27.035 5.83986 28.1924 6.40406 28.6051 5.63469C28.7761 5.31576 28.7249 4.31745 28.5083 3.7548C28.4035 3.48203 28.9856 3.1592 29.9722 2.943L30.4618 2.8356L30.4609 8.32685C30.4604 11.8053 30.3978 14.0458 30.2901 14.4397C30.1526 14.9428 29.5677 15.6165 27.2219 17.9738C24.6039 20.6044 24.2464 20.9085 23.5274 21.1171C21.7015 21.6468 20.6489 22.9543 20.5274 24.8436C20.411 26.6536 21.1679 27.9727 22.7721 28.7559C23.757 29.2366 25.0042 29.324 26.0094 28.9827C26.77 28.7244 27.889 27.7105 28.3295 26.8808C28.7999 25.9947 28.7999 24.1781 28.3295 23.292C27.9731 22.6204 26.7015 21.3562 26.3825 21.3562C26.2767 21.3562 27.3574 20.1842 28.7839 18.7518C30.5444 16.9842 31.4796 15.9232 31.6952 15.449C31.9967 14.7855 32.0128 14.4519 32.016 8.79313L32.0195 2.8356L32.509 2.943C33.4956 3.1592 34.0777 3.48203 33.9729 3.7548C33.7564 4.31745 33.7052 5.31576 33.8762 5.63469C34.2888 6.40406 35.4463 5.83986 35.4463 4.86922C35.4463 4.38708 35.9773 3.5585 36.5641 3.12485C36.796 2.95342 37.3139 2.78913 37.7323 2.75447C38.6613 2.67707 39.5584 3.14273 40.0327 3.94846C40.3345 4.46106 40.3556 4.77425 40.3998 9.40303L40.4467 14.3136L39.7749 14.5697C38.2004 15.1697 37.0821 16.7669 37.0924 18.401C37.0999 19.5725 37.3966 20.3499 38.1468 21.1619C39.1076 22.2018 39.8158 22.5147 41.2096 22.5147C42.6034 22.5147 43.3117 22.2018 44.2724 21.1619C45.0349 20.3364 45.3242 19.5607 45.3155 18.3643C45.3036 16.7361 44.1608 15.1092 42.6696 14.5979L42.0663 14.391L42.0247 10.4907C42.0003 8.19614 42.042 6.59057 42.1262 6.59057C42.2048 6.59057 42.6933 6.90873 43.2117 7.29746C44.215 8.05003 45.3572 9.4436 45.9866 10.6831C46.4742 11.6434 46.973 13.577 46.973 14.5076C46.973 15.5544 47.2521 15.8581 48.3319 15.9858C48.8267 16.0446 49.4945 16.1604 49.8157 16.2435L50.3998 16.3945L50.3989 18.448C50.3984 19.5773 50.3205 20.7811 50.2255 21.123C50.0869 21.6232 49.4945 22.3069 47.196 24.6201C44.4848 27.3487 44.2924 27.5091 43.4269 27.7609C41.516 28.3167 40.3419 29.9608 40.4612 31.9136C40.5339 33.1024 40.8565 33.8525 41.6251 34.6192C42.3934 35.3861 43.1452 35.708 44.3366 35.7806C48.0954 36.0094 50.0909 31.546 47.4501 28.8167C47.1448 28.5013 46.7549 28.1671 46.5835 28.0744C46.2986 27.9199 46.487 27.6881 48.7811 25.369C50.161 23.974 51.421 22.5879 51.5811 22.2887C51.8156 21.8504 51.888 21.2814 51.9537 19.3597L52.0353 16.9748L53.007 17.6228C56.2225 19.7674 57.6854 23.8889 56.5812 27.6928C56.3627 28.4457 56.2662 29.0587 56.3365 29.2481C56.4002 29.4202 56.775 29.7217 57.1692 29.9182C59.2999 30.9799 60.6442 33.6282 60.2196 35.9275C59.8752 37.7917 58.7569 39.2849 56.9969 40.23C55.7366 40.9069 55.6983 41.019 56.2895 42.2986C56.5627 42.89 56.7862 43.5607 56.7862 43.789V44.204H51.0478H45.3094L45.1003 43.572C44.5855 42.0156 42.9537 40.889 41.2096 40.8858C38.8893 40.8816 37.0893 42.6822 37.1158 44.9811C37.1293 46.1644 37.4217 46.9296 38.1803 47.7673C40.2009 49.9991 43.8762 49.3091 45.0399 46.4796L45.3374 45.7562L51.1007 45.796L56.8641 45.836L56.8133 46.2245C56.7854 46.4382 56.599 46.9751 56.399 47.4174C55.534 49.3304 53.6145 50.6109 51.4641 50.7091C49.7588 50.7869 49.6328 50.9483 50.0196 52.5574C50.3532 53.9457 50.3848 55.7169 50.0976 56.949C49.2836 60.4422 46.1851 63.3506 42.7257 63.8682L41.9885 63.9785V63.188V62.3977L42.7617 62.0657C43.6913 61.6667 44.8239 60.508 45.113 59.6603C45.2279 59.3232 45.3192 58.6626 45.3156 58.1924C45.2952 55.4201 42.6941 53.5475 39.9285 54.3139C38.3512 54.751 37.0996 56.4905 37.1035 58.2402C37.1072 59.9492 38.0019 61.2962 39.63 62.0439L40.4648 62.4272L40.4063 64.0018C40.3576 65.3166 40.288 65.6732 39.9842 66.1635C39.2683 67.3193 37.5878 67.6992 36.5578 66.938C35.9767 66.5086 35.4463 65.6784 35.4463 65.1983C35.4463 64.5746 35.0366 64.0987 34.4996 64.0987C33.8752 64.0987 33.6505 64.5981 33.8224 65.602C33.8932 66.0148 33.9545 66.4176 33.9589 66.4975C33.9745 66.7936 32.411 67.1943 31.2406 67.1943C30.0702 67.1943 28.5068 66.7936 28.5224 66.4975C28.5267 66.4176 28.5881 66.0148 28.6588 65.602C28.8308 64.5981 28.606 64.0987 27.9817 64.0987C27.4596 64.0987 27.035 64.5709 27.035 65.1512C27.035 65.6733 26.6554 66.3288 26.067 66.8229L25.5552 67.2526L25.5122 58.254C25.4885 53.3047 25.5111 49.0805 25.5625 48.8668C25.7077 48.2634 31.4931 42.5314 32.0858 42.404C33.3363 42.1349 34.7531 40.9109 35.1454 39.7612C35.6109 38.3963 35.2692 36.6962 34.2991 35.551C33.0129 34.033 30.3858 33.814 28.715 35.0855C27.28 36.1776 26.7156 38.3807 27.4541 40.0074C27.7909 40.7496 28.7565 41.8048 29.2383 41.9574C29.3971 42.0078 29.5272 42.0975 29.5272 42.1568C29.5272 42.2162 28.4007 43.383 27.024 44.7498C25.6472 46.1165 24.3679 47.5146 24.1813 47.8565C23.8446 48.4731 23.8414 48.5552 23.7981 57.8488L23.7545 67.2193L23.2812 66.9413C22.679 66.5875 22.2487 65.8953 22.1159 65.0659C22.0586 64.7081 21.9327 64.3522 21.8363 64.2748C21.7399 64.1974 21.0772 64.057 20.3638 63.9627C19.6504 63.8683 19.002 63.7513 18.923 63.7026C18.8397 63.6512 18.7794 61.2494 18.7794 57.9747V52.3355L19.38 52.1558C20.2559 51.8941 21.3223 50.887 21.7333 49.9335C22.0104 49.2905 22.0696 48.9125 22.0201 48.1013C21.9473 46.9125 21.6247 46.1624 20.8562 45.3956C20.0878 44.6288 19.3361 44.3069 18.1446 44.2343C14.9393 44.0392 12.8466 47.3246 14.3235 50.2333C14.7826 51.137 15.3681 51.6676 16.3519 52.0714L17.0649 52.3639L17.0653 57.6096C17.0656 60.4948 17.0195 62.8553 16.9628 62.8553C16.6468 62.8553 15.2278 61.7565 14.4798 60.9326C12.3846 58.6251 11.6715 55.5098 12.5111 52.3322C12.8636 50.9983 12.6799 50.7974 11.0205 50.7016C8.84418 50.5759 7.07468 49.4184 6.12918 47.5018C5.65363 46.538 5.61718 46.3534 5.61718 44.9067C5.61718 43.4365 5.6474 43.2899 6.15707 42.2927C6.7996 41.0351 6.76066 40.9156 5.48431 40.23C3.72432 39.2849 2.60608 37.7917 2.26168 35.9275C1.83706 33.6282 3.18132 30.9799 5.31204 29.9182C5.70628 29.7217 6.08105 29.4202 6.14476 29.2481C6.21501 29.0587 6.11859 28.4457 5.90005 27.6928C4.95674 24.4431 5.82497 21.0486 8.19666 18.7139C8.761 18.1582 9.51553 17.5418 9.87332 17.344L10.5238 16.9843L10.5272 20.8411C10.5303 24.3858 10.5564 24.7544 10.8481 25.3963C11.0637 25.8706 11.9989 26.9315 13.7594 28.6992C15.1859 30.1316 16.2666 31.3035 16.1608 31.3035C15.8418 31.3035 14.5701 32.5678 14.2137 33.2394C13.743 34.1261 13.7433 35.9421 14.2144 36.8294C15.337 38.9445 17.7373 39.7354 19.8152 38.675C21.4096 37.8613 22.1568 36.4774 22.0084 34.6126C21.871 32.8861 20.7617 31.5709 19.0158 31.0645C18.2968 30.8559 17.9393 30.5517 15.3214 27.9211C12.9755 25.5639 12.3907 24.8901 12.2531 24.387C12.1528 24.0202 12.0829 22.2545 12.0824 20.08L12.0815 16.3945L12.6656 16.2435C12.9869 16.1604 13.6545 16.0446 14.1494 15.9858C15.2433 15.8564 15.5074 15.5573 15.5106 14.4438C15.518 11.9371 17.1504 8.82593 19.2756 7.26855C19.726 6.93842 20.5126 6.45846 21.0233 6.202C21.9165 5.7536 21.9592 5.70479 22.1325 4.92999C22.3637 3.89655 22.6902 3.4096 23.4151 3.01652C24.1393 2.62407 25.308 2.67474 25.9172 3.12485ZM42.5774 16.4112C44.5952 17.6488 43.6055 20.8899 41.2096 20.8899C39.3984 20.8899 38.1887 18.9584 39.0027 17.3662C39.6943 16.0135 41.2511 15.5976 42.5774 16.4112ZM25.9172 23.0196C27.4012 24.1162 27.4122 26.0488 25.941 27.1356C24.9293 27.8829 23.2847 27.5521 22.5572 26.4553C21.4188 24.7386 22.7193 22.4802 24.7489 22.6492C25.1673 22.6838 25.6852 22.8481 25.9172 23.0196ZM45.6675 29.5352C46.3982 29.8814 46.8527 30.5749 46.9395 31.477C47.0655 32.7847 46.3828 33.7576 45.0968 34.1031C43.3868 34.5625 41.6757 32.88 42.1336 31.1894C42.5732 29.5674 44.1633 28.8231 45.6675 29.5352ZM19.0814 32.853C20.8461 33.7513 20.8263 36.3263 19.0478 37.2317C17.4674 38.0363 15.5083 36.8457 15.5083 35.0807C15.5083 33.1759 17.3994 31.9967 19.0814 32.853ZM32.6654 36.3569C33.7103 37.0371 34.0252 38.7076 33.2942 39.693C32.776 40.3917 32.0366 40.7846 31.2406 40.7846C29.4323 40.7846 28.2197 38.8531 29.0314 37.2656C29.4118 36.5214 29.6501 36.3094 30.4215 36.028C31.1504 35.7621 31.9262 35.8757 32.6654 36.3569ZM42.1955 42.7063C43.7958 43.3735 44.186 45.4671 42.9414 46.7092C41.1914 48.4554 38.3236 46.8913 38.784 44.4416C39.0593 42.9784 40.7659 42.1102 42.1955 42.7063ZM18.6146 45.911C19.8548 46.266 20.6649 47.6515 20.3389 48.8598C19.9926 50.143 19.0177 50.8243 17.7071 50.6985C16.3667 50.57 15.5083 49.6152 15.5083 48.2527C15.5083 47.154 16.0821 46.3714 17.1725 45.9835C17.9023 45.7238 17.9512 45.7213 18.6146 45.911ZM42.6344 56.2516C43.6793 56.9318 43.9942 58.6023 43.2632 59.5877C42.745 60.2864 42.0056 60.6793 41.2096 60.6793C39.4013 60.6793 38.1887 58.7478 39.0004 57.1602C39.3808 56.4161 39.6191 56.2041 40.3905 55.9227C41.1194 55.6568 41.8952 55.7704 42.6344 56.2516Z"/>
</mask>
<path fill-rule="evenodd" clip-rule="evenodd" d="M23.3483 1.28289C21.95 1.76502 20.8803 2.86125 20.5668 4.13358C20.4909 4.44117 20.1683 4.72684 19.3489 5.2124C18.7358 5.57563 17.7435 6.37251 17.1438 6.98318C15.4262 8.73221 14.4421 10.6262 13.9985 13.0369L13.7636 14.3139L12.733 14.5034C6.80412 15.5935 2.83412 21.3995 4.06217 27.1847C4.18928 27.7829 4.2913 28.3425 4.28912 28.4281C4.28694 28.5136 3.93522 28.8204 3.50749 29.11C2.56262 29.7496 1.48036 31.1482 0.997952 32.3537C0.697947 33.1032 0.640625 33.5331 0.640625 35.0338C0.640625 37.1348 0.920225 38.029 2.04314 39.5197C2.55966 40.2053 4.05625 41.4685 4.56202 41.6456C4.5815 41.6523 4.45159 42.0384 4.27355 42.5036C3.58631 44.2986 3.74784 46.5599 4.69692 48.4286C5.61858 50.2436 7.75584 51.858 9.79668 52.2808L10.6313 52.4536L10.5615 54.3517C10.4764 56.6615 10.7154 57.8446 11.6508 59.7467C12.1751 60.8129 12.5729 61.3409 13.7128 62.4838C14.8876 63.6615 15.3558 64.0112 16.494 64.5609C17.339 64.9691 18.3658 65.3193 19.1778 65.4762C20.4311 65.7187 20.5009 65.754 20.6568 66.2235C21.2735 68.0813 23.4953 69.34 25.4105 68.9163C25.8328 68.8229 26.4488 68.5689 26.7795 68.3518L27.3808 67.9573L28.2593 68.3493C30.2037 69.2169 32.2776 69.2169 34.222 68.3493L35.1005 67.9573L35.7018 68.3533C36.0324 68.5713 36.6585 68.8252 37.0929 68.9179C39.0146 69.3274 41.2088 68.0779 41.8244 66.2235C41.9804 65.754 42.0501 65.7187 43.3034 65.4762C44.1154 65.3193 45.1422 64.9691 45.9873 64.5609C47.1255 64.0112 47.5937 63.6615 48.7685 62.4838C49.9084 61.3409 50.3062 60.8129 50.8305 59.7467C51.7659 57.8446 52.0048 56.6615 51.9198 54.3517L51.85 52.4536L52.6846 52.2808C54.7254 51.858 56.8627 50.2436 57.7843 48.4286C58.7353 46.5564 58.8949 44.2986 58.2041 42.4943C58.0071 41.9795 57.9399 41.6185 58.0354 41.5866C58.5015 41.4315 59.907 40.2087 60.4736 39.4656C61.5551 38.0469 61.8406 37.1215 61.8406 35.0338C61.8406 33.5331 61.7833 33.1032 61.4833 32.3537C61.0009 31.1482 59.9186 29.7496 58.9738 29.11C58.546 28.8204 58.1943 28.5136 58.1921 28.4281C58.1899 28.3425 58.292 27.7829 58.4191 27.1847C59.6474 21.3975 55.67 15.5921 49.7277 14.4996L48.7177 14.3139L48.4828 13.0369C48.0392 10.6262 47.055 8.73221 45.3374 6.98318C44.7377 6.37251 43.7396 5.57206 43.1192 5.20463C42.154 4.63265 41.9688 4.45251 41.8346 3.95546C41.1565 1.44282 37.7521 0.236083 35.643 1.76067L35.038 2.19789L34.4703 1.90724C32.5702 0.934573 29.911 0.934573 28.011 1.90724L27.4432 2.19789L26.8418 1.76316C26.2949 1.3679 25.0865 0.987419 24.4182 1.00032C24.2725 1.00312 23.7911 1.13026 23.3483 1.28289ZM25.9172 3.12485C26.504 3.5585 27.035 4.38708 27.035 4.86922C27.035 5.83986 28.1924 6.40406 28.6051 5.63469C28.7761 5.31576 28.7249 4.31745 28.5083 3.7548C28.4035 3.48203 28.9856 3.1592 29.9722 2.943L30.4618 2.8356L30.4609 8.32685C30.4604 11.8053 30.3978 14.0458 30.2901 14.4397C30.1526 14.9428 29.5677 15.6165 27.2219 17.9738C24.6039 20.6044 24.2464 20.9085 23.5274 21.1171C21.7015 21.6468 20.6489 22.9543 20.5274 24.8436C20.411 26.6536 21.1679 27.9727 22.7721 28.7559C23.757 29.2366 25.0042 29.324 26.0094 28.9827C26.77 28.7244 27.889 27.7105 28.3295 26.8808C28.7999 25.9947 28.7999 24.1781 28.3295 23.292C27.9731 22.6204 26.7015 21.3562 26.3825 21.3562C26.2767 21.3562 27.3574 20.1842 28.7839 18.7518C30.5444 16.9842 31.4796 15.9232 31.6952 15.449C31.9967 14.7855 32.0128 14.4519 32.016 8.79313L32.0195 2.8356L32.509 2.943C33.4956 3.1592 34.0777 3.48203 33.9729 3.7548C33.7564 4.31745 33.7052 5.31576 33.8762 5.63469C34.2888 6.40406 35.4463 5.83986 35.4463 4.86922C35.4463 4.38708 35.9773 3.5585 36.5641 3.12485C36.796 2.95342 37.3139 2.78913 37.7323 2.75447C38.6613 2.67707 39.5584 3.14273 40.0327 3.94846C40.3345 4.46106 40.3556 4.77425 40.3998 9.40303L40.4467 14.3136L39.7749 14.5697C38.2004 15.1697 37.0821 16.7669 37.0924 18.401C37.0999 19.5725 37.3966 20.3499 38.1468 21.1619C39.1076 22.2018 39.8158 22.5147 41.2096 22.5147C42.6034 22.5147 43.3117 22.2018 44.2724 21.1619C45.0349 20.3364 45.3242 19.5607 45.3155 18.3643C45.3036 16.7361 44.1608 15.1092 42.6696 14.5979L42.0663 14.391L42.0247 10.4907C42.0003 8.19614 42.042 6.59057 42.1262 6.59057C42.2048 6.59057 42.6933 6.90873 43.2117 7.29746C44.215 8.05003 45.3572 9.4436 45.9866 10.6831C46.4742 11.6434 46.973 13.577 46.973 14.5076C46.973 15.5544 47.2521 15.8581 48.3319 15.9858C48.8267 16.0446 49.4945 16.1604 49.8157 16.2435L50.3998 16.3945L50.3989 18.448C50.3984 19.5773 50.3205 20.7811 50.2255 21.123C50.0869 21.6232 49.4945 22.3069 47.196 24.6201C44.4848 27.3487 44.2924 27.5091 43.4269 27.7609C41.516 28.3167 40.3419 29.9608 40.4612 31.9136C40.5339 33.1024 40.8565 33.8525 41.6251 34.6192C42.3934 35.3861 43.1452 35.708 44.3366 35.7806C48.0954 36.0094 50.0909 31.546 47.4501 28.8167C47.1448 28.5013 46.7549 28.1671 46.5835 28.0744C46.2986 27.9199 46.487 27.6881 48.7811 25.369C50.161 23.974 51.421 22.5879 51.5811 22.2887C51.8156 21.8504 51.888 21.2814 51.9537 19.3597L52.0353 16.9748L53.007 17.6228C56.2225 19.7674 57.6854 23.8889 56.5812 27.6928C56.3627 28.4457 56.2662 29.0587 56.3365 29.2481C56.4002 29.4202 56.775 29.7217 57.1692 29.9182C59.2999 30.9799 60.6442 33.6282 60.2196 35.9275C59.8752 37.7917 58.7569 39.2849 56.9969 40.23C55.7366 40.9069 55.6983 41.019 56.2895 42.2986C56.5627 42.89 56.7862 43.5607 56.7862 43.789V44.204H51.0478H45.3094L45.1003 43.572C44.5855 42.0156 42.9537 40.889 41.2096 40.8858C38.8893 40.8816 37.0893 42.6822 37.1158 44.9811C37.1293 46.1644 37.4217 46.9296 38.1803 47.7673C40.2009 49.9991 43.8762 49.3091 45.0399 46.4796L45.3374 45.7562L51.1007 45.796L56.8641 45.836L56.8133 46.2245C56.7854 46.4382 56.599 46.9751 56.399 47.4174C55.534 49.3304 53.6145 50.6109 51.4641 50.7091C49.7588 50.7869 49.6328 50.9483 50.0196 52.5574C50.3532 53.9457 50.3848 55.7169 50.0976 56.949C49.2836 60.4422 46.1851 63.3506 42.7257 63.8682L41.9885 63.9785V63.188V62.3977L42.7617 62.0657C43.6913 61.6667 44.8239 60.508 45.113 59.6603C45.2279 59.3232 45.3192 58.6626 45.3156 58.1924C45.2952 55.4201 42.6941 53.5475 39.9285 54.3139C38.3512 54.751 37.0996 56.4905 37.1035 58.2402C37.1072 59.9492 38.0019 61.2962 39.63 62.0439L40.4648 62.4272L40.4063 64.0018C40.3576 65.3166 40.288 65.6732 39.9842 66.1635C39.2683 67.3193 37.5878 67.6992 36.5578 66.938C35.9767 66.5086 35.4463 65.6784 35.4463 65.1983C35.4463 64.5746 35.0366 64.0987 34.4996 64.0987C33.8752 64.0987 33.6505 64.5981 33.8224 65.602C33.8932 66.0148 33.9545 66.4176 33.9589 66.4975C33.9745 66.7936 32.411 67.1943 31.2406 67.1943C30.0702 67.1943 28.5068 66.7936 28.5224 66.4975C28.5267 66.4176 28.5881 66.0148 28.6588 65.602C28.8308 64.5981 28.606 64.0987 27.9817 64.0987C27.4596 64.0987 27.035 64.5709 27.035 65.1512C27.035 65.6733 26.6554 66.3288 26.067 66.8229L25.5552 67.2526L25.5122 58.254C25.4885 53.3047 25.5111 49.0805 25.5625 48.8668C25.7077 48.2634 31.4931 42.5314 32.0858 42.404C33.3363 42.1349 34.7531 40.9109 35.1454 39.7612C35.6109 38.3963 35.2692 36.6962 34.2991 35.551C33.0129 34.033 30.3858 33.814 28.715 35.0855C27.28 36.1776 26.7156 38.3807 27.4541 40.0074C27.7909 40.7496 28.7565 41.8048 29.2383 41.9574C29.3971 42.0078 29.5272 42.0975 29.5272 42.1568C29.5272 42.2162 28.4007 43.383 27.024 44.7498C25.6472 46.1165 24.3679 47.5146 24.1813 47.8565C23.8446 48.4731 23.8414 48.5552 23.7981 57.8488L23.7545 67.2193L23.2812 66.9413C22.679 66.5875 22.2487 65.8953 22.1159 65.0659C22.0586 64.7081 21.9327 64.3522 21.8363 64.2748C21.7399 64.1974 21.0772 64.057 20.3638 63.9627C19.6504 63.8683 19.002 63.7513 18.923 63.7026C18.8397 63.6512 18.7794 61.2494 18.7794 57.9747V52.3355L19.38 52.1558C20.2559 51.8941 21.3223 50.887 21.7333 49.9335C22.0104 49.2905 22.0696 48.9125 22.0201 48.1013C21.9473 46.9125 21.6247 46.1624 20.8562 45.3956C20.0878 44.6288 19.3361 44.3069 18.1446 44.2343C14.9393 44.0392 12.8466 47.3246 14.3235 50.2333C14.7826 51.137 15.3681 51.6676 16.3519 52.0714L17.0649 52.3639L17.0653 57.6096C17.0656 60.4948 17.0195 62.8553 16.9628 62.8553C16.6468 62.8553 15.2278 61.7565 14.4798 60.9326C12.3846 58.6251 11.6715 55.5098 12.5111 52.3322C12.8636 50.9983 12.6799 50.7974 11.0205 50.7016C8.84418 50.5759 7.07468 49.4184 6.12918 47.5018C5.65363 46.538 5.61718 46.3534 5.61718 44.9067C5.61718 43.4365 5.6474 43.2899 6.15707 42.2927C6.7996 41.0351 6.76066 40.9156 5.48431 40.23C3.72432 39.2849 2.60608 37.7917 2.26168 35.9275C1.83706 33.6282 3.18132 30.9799 5.31204 29.9182C5.70628 29.7217 6.08105 29.4202 6.14476 29.2481C6.21501 29.0587 6.11859 28.4457 5.90005 27.6928C4.95674 24.4431 5.82497 21.0486 8.19666 18.7139C8.761 18.1582 9.51553 17.5418 9.87332 17.344L10.5238 16.9843L10.5272 20.8411C10.5303 24.3858 10.5564 24.7544 10.8481 25.3963C11.0637 25.8706 11.9989 26.9315 13.7594 28.6992C15.1859 30.1316 16.2666 31.3035 16.1608 31.3035C15.8418 31.3035 14.5701 32.5678 14.2137 33.2394C13.743 34.1261 13.7433 35.9421 14.2144 36.8294C15.337 38.9445 17.7373 39.7354 19.8152 38.675C21.4096 37.8613 22.1568 36.4774 22.0084 34.6126C21.871 32.8861 20.7617 31.5709 19.0158 31.0645C18.2968 30.8559 17.9393 30.5517 15.3214 27.9211C12.9755 25.5639 12.3907 24.8901 12.2531 24.387C12.1528 24.0202 12.0829 22.2545 12.0824 20.08L12.0815 16.3945L12.6656 16.2435C12.9869 16.1604 13.6545 16.0446 14.1494 15.9858C15.2433 15.8564 15.5074 15.5573 15.5106 14.4438C15.518 11.9371 17.1504 8.82593 19.2756 7.26855C19.726 6.93842 20.5126 6.45846 21.0233 6.202C21.9165 5.7536 21.9592 5.70479 22.1325 4.92999C22.3637 3.89655 22.6902 3.4096 23.4151 3.01652C24.1393 2.62407 25.308 2.67474 25.9172 3.12485ZM42.5774 16.4112C44.5952 17.6488 43.6055 20.8899 41.2096 20.8899C39.3984 20.8899 38.1887 18.9584 39.0027 17.3662C39.6943 16.0135 41.2511 15.5976 42.5774 16.4112ZM25.9172 23.0196C27.4012 24.1162 27.4122 26.0488 25.941 27.1356C24.9293 27.8829 23.2847 27.5521 22.5572 26.4553C21.4188 24.7386 22.7193 22.4802 24.7489 22.6492C25.1673 22.6838 25.6852 22.8481 25.9172 23.0196ZM45.6675 29.5352C46.3982 29.8814 46.8527 30.5749 46.9395 31.477C47.0655 32.7847 46.3828 33.7576 45.0968 34.1031C43.3868 34.5625 41.6757 32.88 42.1336 31.1894C42.5732 29.5674 44.1633 28.8231 45.6675 29.5352ZM19.0814 32.853C20.8461 33.7513 20.8263 36.3263 19.0478 37.2317C17.4674 38.0363 15.5083 36.8457 15.5083 35.0807C15.5083 33.1759 17.3994 31.9967 19.0814 32.853ZM32.6654 36.3569C33.7103 37.0371 34.0252 38.7076 33.2942 39.693C32.776 40.3917 32.0366 40.7846 31.2406 40.7846C29.4323 40.7846 28.2197 38.8531 29.0314 37.2656C29.4118 36.5214 29.6501 36.3094 30.4215 36.028C31.1504 35.7621 31.9262 35.8757 32.6654 36.3569ZM42.1955 42.7063C43.7958 43.3735 44.186 45.4671 42.9414 46.7092C41.1914 48.4554 38.3236 46.8913 38.784 44.4416C39.0593 42.9784 40.7659 42.1102 42.1955 42.7063ZM18.6146 45.911C19.8548 46.266 20.6649 47.6515 20.3389 48.8598C19.9926 50.143 19.0177 50.8243 17.7071 50.6985C16.3667 50.57 15.5083 49.6152 15.5083 48.2527C15.5083 47.154 16.0821 46.3714 17.1725 45.9835C17.9023 45.7238 17.9512 45.7213 18.6146 45.911ZM42.6344 56.2516C43.6793 56.9318 43.9942 58.6023 43.2632 59.5877C42.745 60.2864 42.0056 60.6793 41.2096 60.6793C39.4013 60.6793 38.1887 58.7478 39.0004 57.1602C39.3808 56.4161 39.6191 56.2041 40.3905 55.9227C41.1194 55.6568 41.8952 55.7704 42.6344 56.2516Z" fill="white"/>
<path fill-rule="evenodd" clip-rule="evenodd" d="M23.3483 1.28289C21.95 1.76502 20.8803 2.86125 20.5668 4.13358C20.4909 4.44117 20.1683 4.72684 19.3489 5.2124C18.7358 5.57563 17.7435 6.37251 17.1438 6.98318C15.4262 8.73221 14.4421 10.6262 13.9985 13.0369L13.7636 14.3139L12.733 14.5034C6.80412 15.5935 2.83412 21.3995 4.06217 27.1847C4.18928 27.7829 4.2913 28.3425 4.28912 28.4281C4.28694 28.5136 3.93522 28.8204 3.50749 29.11C2.56262 29.7496 1.48036 31.1482 0.997952 32.3537C0.697947 33.1032 0.640625 33.5331 0.640625 35.0338C0.640625 37.1348 0.920225 38.029 2.04314 39.5197C2.55966 40.2053 4.05625 41.4685 4.56202 41.6456C4.5815 41.6523 4.45159 42.0384 4.27355 42.5036C3.58631 44.2986 3.74784 46.5599 4.69692 48.4286C5.61858 50.2436 7.75584 51.858 9.79668 52.2808L10.6313 52.4536L10.5615 54.3517C10.4764 56.6615 10.7154 57.8446 11.6508 59.7467C12.1751 60.8129 12.5729 61.3409 13.7128 62.4838C14.8876 63.6615 15.3558 64.0112 16.494 64.5609C17.339 64.9691 18.3658 65.3193 19.1778 65.4762C20.4311 65.7187 20.5009 65.754 20.6568 66.2235C21.2735 68.0813 23.4953 69.34 25.4105 68.9163C25.8328 68.8229 26.4488 68.5689 26.7795 68.3518L27.3808 67.9573L28.2593 68.3493C30.2037 69.2169 32.2776 69.2169 34.222 68.3493L35.1005 67.9573L35.7018 68.3533C36.0324 68.5713 36.6585 68.8252 37.0929 68.9179C39.0146 69.3274 41.2088 68.0779 41.8244 66.2235C41.9804 65.754 42.0501 65.7187 43.3034 65.4762C44.1154 65.3193 45.1422 64.9691 45.9873 64.5609C47.1255 64.0112 47.5937 63.6615 48.7685 62.4838C49.9084 61.3409 50.3062 60.8129 50.8305 59.7467C51.7659 57.8446 52.0048 56.6615 51.9198 54.3517L51.85 52.4536L52.6846 52.2808C54.7254 51.858 56.8627 50.2436 57.7843 48.4286C58.7353 46.5564 58.8949 44.2986 58.2041 42.4943C58.0071 41.9795 57.9399 41.6185 58.0354 41.5866C58.5015 41.4315 59.907 40.2087 60.4736 39.4656C61.5551 38.0469 61.8406 37.1215 61.8406 35.0338C61.8406 33.5331 61.7833 33.1032 61.4833 32.3537C61.0009 31.1482 59.9186 29.7496 58.9738 29.11C58.546 28.8204 58.1943 28.5136 58.1921 28.4281C58.1899 28.3425 58.292 27.7829 58.4191 27.1847C59.6474 21.3975 55.67 15.5921 49.7277 14.4996L48.7177 14.3139L48.4828 13.0369C48.0392 10.6262 47.055 8.73221 45.3374 6.98318C44.7377 6.37251 43.7396 5.57206 43.1192 5.20463C42.154 4.63265 41.9688 4.45251 41.8346 3.95546C41.1565 1.44282 37.7521 0.236083 35.643 1.76067L35.038 2.19789L34.4703 1.90724C32.5702 0.934573 29.911 0.934573 28.011 1.90724L27.4432 2.19789L26.8418 1.76316C26.2949 1.3679 25.0865 0.987419 24.4182 1.00032C24.2725 1.00312 23.7911 1.13026 23.3483 1.28289ZM25.9172 3.12485C26.504 3.5585 27.035 4.38708 27.035 4.86922C27.035 5.83986 28.1924 6.40406 28.6051 5.63469C28.7761 5.31576 28.7249 4.31745 28.5083 3.7548C28.4035 3.48203 28.9856 3.1592 29.9722 2.943L30.4618 2.8356L30.4609 8.32685C30.4604 11.8053 30.3978 14.0458 30.2901 14.4397C30.1526 14.9428 29.5677 15.6165 27.2219 17.9738C24.6039 20.6044 24.2464 20.9085 23.5274 21.1171C21.7015 21.6468 20.6489 22.9543 20.5274 24.8436C20.411 26.6536 21.1679 27.9727 22.7721 28.7559C23.757 29.2366 25.0042 29.324 26.0094 28.9827C26.77 28.7244 27.889 27.7105 28.3295 26.8808C28.7999 25.9947 28.7999 24.1781 28.3295 23.292C27.9731 22.6204 26.7015 21.3562 26.3825 21.3562C26.2767 21.3562 27.3574 20.1842 28.7839 18.7518C30.5444 16.9842 31.4796 15.9232 31.6952 15.449C31.9967 14.7855 32.0128 14.4519 32.016 8.79313L32.0195 2.8356L32.509 2.943C33.4956 3.1592 34.0777 3.48203 33.9729 3.7548C33.7564 4.31745 33.7052 5.31576 33.8762 5.63469C34.2888 6.40406 35.4463 5.83986 35.4463 4.86922C35.4463 4.38708 35.9773 3.5585 36.5641 3.12485C36.796 2.95342 37.3139 2.78913 37.7323 2.75447C38.6613 2.67707 39.5584 3.14273 40.0327 3.94846C40.3345 4.46106 40.3556 4.77425 40.3998 9.40303L40.4467 14.3136L39.7749 14.5697C38.2004 15.1697 37.0821 16.7669 37.0924 18.401C37.0999 19.5725 37.3966 20.3499 38.1468 21.1619C39.1076 22.2018 39.8158 22.5147 41.2096 22.5147C42.6034 22.5147 43.3117 22.2018 44.2724 21.1619C45.0349 20.3364 45.3242 19.5607 45.3155 18.3643C45.3036 16.7361 44.1608 15.1092 42.6696 14.5979L42.0663 14.391L42.0247 10.4907C42.0003 8.19614 42.042 6.59057 42.1262 6.59057C42.2048 6.59057 42.6933 6.90873 43.2117 7.29746C44.215 8.05003 45.3572 9.4436 45.9866 10.6831C46.4742 11.6434 46.973 13.577 46.973 14.5076C46.973 15.5544 47.2521 15.8581 48.3319 15.9858C48.8267 16.0446 49.4945 16.1604 49.8157 16.2435L50.3998 16.3945L50.3989 18.448C50.3984 19.5773 50.3205 20.7811 50.2255 21.123C50.0869 21.6232 49.4945 22.3069 47.196 24.6201C44.4848 27.3487 44.2924 27.5091 43.4269 27.7609C41.516 28.3167 40.3419 29.9608 40.4612 31.9136C40.5339 33.1024 40.8565 33.8525 41.6251 34.6192C42.3934 35.3861 43.1452 35.708 44.3366 35.7806C48.0954 36.0094 50.0909 31.546 47.4501 28.8167C47.1448 28.5013 46.7549 28.1671 46.5835 28.0744C46.2986 27.9199 46.487 27.6881 48.7811 25.369C50.161 23.974 51.421 22.5879 51.5811 22.2887C51.8156 21.8504 51.888 21.2814 51.9537 19.3597L52.0353 16.9748L53.007 17.6228C56.2225 19.7674 57.6854 23.8889 56.5812 27.6928C56.3627 28.4457 56.2662 29.0587 56.3365 29.2481C56.4002 29.4202 56.775 29.7217 57.1692 29.9182C59.2999 30.9799 60.6442 33.6282 60.2196 35.9275C59.8752 37.7917 58.7569 39.2849 56.9969 40.23C55.7366 40.9069 55.6983 41.019 56.2895 42.2986C56.5627 42.89 56.7862 43.5607 56.7862 43.789V44.204H51.0478H45.3094L45.1003 43.572C44.5855 42.0156 42.9537 40.889 41.2096 40.8858C38.8893 40.8816 37.0893 42.6822 37.1158 44.9811C37.1293 46.1644 37.4217 46.9296 38.1803 47.7673C40.2009 49.9991 43.8762 49.3091 45.0399 46.4796L45.3374 45.7562L51.1007 45.796L56.8641 45.836L56.8133 46.2245C56.7854 46.4382 56.599 46.9751 56.399 47.4174C55.534 49.3304 53.6145 50.6109 51.4641 50.7091C49.7588 50.7869 49.6328 50.9483 50.0196 52.5574C50.3532 53.9457 50.3848 55.7169 50.0976 56.949C49.2836 60.4422 46.1851 63.3506 42.7257 63.8682L41.9885 63.9785V63.188V62.3977L42.7617 62.0657C43.6913 61.6667 44.8239 60.508 45.113 59.6603C45.2279 59.3232 45.3192 58.6626 45.3156 58.1924C45.2952 55.4201 42.6941 53.5475 39.9285 54.3139C38.3512 54.751 37.0996 56.4905 37.1035 58.2402C37.1072 59.9492 38.0019 61.2962 39.63 62.0439L40.4648 62.4272L40.4063 64.0018C40.3576 65.3166 40.288 65.6732 39.9842 66.1635C39.2683 67.3193 37.5878 67.6992 36.5578 66.938C35.9767 66.5086 35.4463 65.6784 35.4463 65.1983C35.4463 64.5746 35.0366 64.0987 34.4996 64.0987C33.8752 64.0987 33.6505 64.5981 33.8224 65.602C33.8932 66.0148 33.9545 66.4176 33.9589 66.4975C33.9745 66.7936 32.411 67.1943 31.2406 67.1943C30.0702 67.1943 28.5068 66.7936 28.5224 66.4975C28.5267 66.4176 28.5881 66.0148 28.6588 65.602C28.8308 64.5981 28.606 64.0987 27.9817 64.0987C27.4596 64.0987 27.035 64.5709 27.035 65.1512C27.035 65.6733 26.6554 66.3288 26.067 66.8229L25.5552 67.2526L25.5122 58.254C25.4885 53.3047 25.5111 49.0805 25.5625 48.8668C25.7077 48.2634 31.4931 42.5314 32.0858 42.404C33.3363 42.1349 34.7531 40.9109 35.1454 39.7612C35.6109 38.3963 35.2692 36.6962 34.2991 35.551C33.0129 34.033 30.3858 33.814 28.715 35.0855C27.28 36.1776 26.7156 38.3807 27.4541 40.0074C27.7909 40.7496 28.7565 41.8048 29.2383 41.9574C29.3971 42.0078 29.5272 42.0975 29.5272 42.1568C29.5272 42.2162 28.4007 43.383 27.024 44.7498C25.6472 46.1165 24.3679 47.5146 24.1813 47.8565C23.8446 48.4731 23.8414 48.5552 23.7981 57.8488L23.7545 67.2193L23.2812 66.9413C22.679 66.5875 22.2487 65.8953 22.1159 65.0659C22.0586 64.7081 21.9327 64.3522 21.8363 64.2748C21.7399 64.1974 21.0772 64.057 20.3638 63.9627C19.6504 63.8683 19.002 63.7513 18.923 63.7026C18.8397 63.6512 18.7794 61.2494 18.7794 57.9747V52.3355L19.38 52.1558C20.2559 51.8941 21.3223 50.887 21.7333 49.9335C22.0104 49.2905 22.0696 48.9125 22.0201 48.1013C21.9473 46.9125 21.6247 46.1624 20.8562 45.3956C20.0878 44.6288 19.3361 44.3069 18.1446 44.2343C14.9393 44.0392 12.8466 47.3246 14.3235 50.2333C14.7826 51.137 15.3681 51.6676 16.3519 52.0714L17.0649 52.3639L17.0653 57.6096C17.0656 60.4948 17.0195 62.8553 16.9628 62.8553C16.6468 62.8553 15.2278 61.7565 14.4798 60.9326C12.3846 58.6251 11.6715 55.5098 12.5111 52.3322C12.8636 50.9983 12.6799 50.7974 11.0205 50.7016C8.84418 50.5759 7.07468 49.4184 6.12918 47.5018C5.65363 46.538 5.61718 46.3534 5.61718 44.9067C5.61718 43.4365 5.6474 43.2899 6.15707 42.2927C6.7996 41.0351 6.76066 40.9156 5.48431 40.23C3.72432 39.2849 2.60608 37.7917 2.26168 35.9275C1.83706 33.6282 3.18132 30.9799 5.31204 29.9182C5.70628 29.7217 6.08105 29.4202 6.14476 29.2481C6.21501 29.0587 6.11859 28.4457 5.90005 27.6928C4.95674 24.4431 5.82497 21.0486 8.19666 18.7139C8.761 18.1582 9.51553 17.5418 9.87332 17.344L10.5238 16.9843L10.5272 20.8411C10.5303 24.3858 10.5564 24.7544 10.8481 25.3963C11.0637 25.8706 11.9989 26.9315 13.7594 28.6992C15.1859 30.1316 16.2666 31.3035 16.1608 31.3035C15.8418 31.3035 14.5701 32.5678 14.2137 33.2394C13.743 34.1261 13.7433 35.9421 14.2144 36.8294C15.337 38.9445 17.7373 39.7354 19.8152 38.675C21.4096 37.8613 22.1568 36.4774 22.0084 34.6126C21.871 32.8861 20.7617 31.5709 19.0158 31.0645C18.2968 30.8559 17.9393 30.5517 15.3214 27.9211C12.9755 25.5639 12.3907 24.8901 12.2531 24.387C12.1528 24.0202 12.0829 22.2545 12.0824 20.08L12.0815 16.3945L12.6656 16.2435C12.9869 16.1604 13.6545 16.0446 14.1494 15.9858C15.2433 15.8564 15.5074 15.5573 15.5106 14.4438C15.518 11.9371 17.1504 8.82593 19.2756 7.26855C19.726 6.93842 20.5126 6.45846 21.0233 6.202C21.9165 5.7536 21.9592 5.70479 22.1325 4.92999C22.3637 3.89655 22.6902 3.4096 23.4151 3.01652C24.1393 2.62407 25.308 2.67474 25.9172 3.12485ZM42.5774 16.4112C44.5952 17.6488 43.6055 20.8899 41.2096 20.8899C39.3984 20.8899 38.1887 18.9584 39.0027 17.3662C39.6943 16.0135 41.2511 15.5976 42.5774 16.4112ZM25.9172 23.0196C27.4012 24.1162 27.4122 26.0488 25.941 27.1356C24.9293 27.8829 23.2847 27.5521 22.5572 26.4553C21.4188 24.7386 22.7193 22.4802 24.7489 22.6492C25.1673 22.6838 25.6852 22.8481 25.9172 23.0196ZM45.6675 29.5352C46.3982 29.8814 46.8527 30.5749 46.9395 31.477C47.0655 32.7847 46.3828 33.7576 45.0968 34.1031C43.3868 34.5625 41.6757 32.88 42.1336 31.1894C42.5732 29.5674 44.1633 28.8231 45.6675 29.5352ZM19.0814 32.853C20.8461 33.7513 20.8263 36.3263 19.0478 37.2317C17.4674 38.0363 15.5083 36.8457 15.5083 35.0807C15.5083 33.1759 17.3994 31.9967 19.0814 32.853ZM32.6654 36.3569C33.7103 37.0371 34.0252 38.7076 33.2942 39.693C32.776 40.3917 32.0366 40.7846 31.2406 40.7846C29.4323 40.7846 28.2197 38.8531 29.0314 37.2656C29.4118 36.5214 29.6501 36.3094 30.4215 36.028C31.1504 35.7621 31.9262 35.8757 32.6654 36.3569ZM42.1955 42.7063C43.7958 43.3735 44.186 45.4671 42.9414 46.7092C41.1914 48.4554 38.3236 46.8913 38.784 44.4416C39.0593 42.9784 40.7659 42.1102 42.1955 42.7063ZM18.6146 45.911C19.8548 46.266 20.6649 47.6515 20.3389 48.8598C19.9926 50.143 19.0177 50.8243 17.7071 50.6985C16.3667 50.57 15.5083 49.6152 15.5083 48.2527C15.5083 47.154 16.0821 46.3714 17.1725 45.9835C17.9023 45.7238 17.9512 45.7213 18.6146 45.911ZM42.6344 56.2516C43.6793 56.9318 43.9942 58.6023 43.2632 59.5877C42.745 60.2864 42.0056 60.6793 41.2096 60.6793C39.4013 60.6793 38.1887 58.7478 39.0004 57.1602C39.3808 56.4161 39.6191 56.2041 40.3905 55.9227C41.1194 55.6568 41.8952 55.7704 42.6344 56.2516Z" stroke="white" mask="url(#path-1-outside-1_485_3347)"/>
</svg>
