<svg width="70" height="70" viewBox="0 0 70 70" fill="none" xmlns="http://www.w3.org/2000/svg">
<path fill-rule="evenodd" clip-rule="evenodd" d="M2.2683 0.20613C1.48969 0.491498 0.878008 1.00631 0.447344 1.73908L0.0683594 2.38393L0.0280273 7.62872C-0.0170898 13.507 0.0144922 13.7623 0.90248 14.6767C1.61178 15.4071 2.34473 15.728 3.50424 15.8157L4.51172 15.892V16.966V18.0402H3.41797H2.32422V19.2025V20.3647H5.67383H9.02344V23.895C9.02344 28.0314 9.10437 28.4785 10.0248 29.4257C11.0886 30.5204 10.6935 30.4832 21.2741 30.4832H30.6049L30.9355 31.2011C31.356 32.1145 32.2201 32.9751 33.1659 33.4226L33.9062 33.773V34.9252V36.0777L28.4614 36.1177L23.0166 36.1578L22.5121 36.4996C21.8371 36.957 21.4648 37.7501 21.4648 38.7306V39.5078H16.704C11.2589 39.5078 11.0318 39.543 10.033 40.5421C9.11094 41.4641 9.02344 41.9449 9.02344 46.0851V49.6046L5.77637 49.6497L2.5293 49.6947L1.81098 50.0927C1.41586 50.3116 0.93666 50.6953 0.746074 50.9451C0.0278906 51.8868 0 52.1346 0.000820313 57.5401C0.00123047 60.5679 0.0574219 62.7493 0.143008 63.0572C0.527324 64.4415 1.8442 65.3828 3.51449 65.4672L4.51172 65.5176V66.5965V67.6755H2.25586H0V68.8377V70H35H70V68.8377V67.6755H67.7441H65.4883V66.5965V65.5176L66.4855 65.4672C68.1558 65.3828 69.4727 64.4415 69.857 63.0572C69.9426 62.7493 69.9988 60.5679 69.9992 57.5401C70 52.1346 69.9721 51.8868 69.2539 50.9451C69.0633 50.6953 68.5841 50.3116 68.189 50.0927L67.4707 49.6947L64.2297 49.6497L60.9886 49.6047L60.9484 45.817C60.9085 42.0604 60.9053 42.0235 60.5589 41.3509C60.1657 40.5872 59.3074 39.8621 58.5464 39.6508C58.2408 39.5659 56.1371 39.5091 53.2861 39.5086L48.5352 39.5078V38.6819C48.5352 37.6486 48.1849 36.9176 47.4798 36.4793C46.9629 36.1578 46.9626 36.1578 41.5283 36.1177L36.0938 36.0777V34.9313V33.785L36.8318 33.447C37.7725 33.0163 38.6265 32.1622 39.0571 31.2213L39.3951 30.4832L48.716 30.4824C54.7154 30.482 58.2185 30.4313 58.5464 30.3402C59.3074 30.1289 60.1657 29.4038 60.5589 28.6402C60.9055 27.9674 60.9085 27.9315 60.9485 24.1633L60.9887 20.3647H64.3323H67.6758V19.2025V18.0402H66.582H65.4883V16.966V15.892L66.5094 15.8147C68.2381 15.684 69.4202 14.803 69.8573 13.3197C69.9709 12.9338 70.0051 11.267 69.9746 7.57991L69.9316 2.38393L69.5465 1.72869C69.0957 0.961734 68.3367 0.36953 67.5114 0.141043C67.0819 0.0220828 64.9379 -0.0107339 59.541 0.0189378C52.2576 0.0588648 52.1507 0.0633771 51.602 0.357223C50.8871 0.739948 50.1233 1.58771 49.8847 2.26346C49.7386 2.67723 49.6973 3.93862 49.6973 7.99011C49.6973 13.7377 49.6844 13.6424 50.603 14.6888C51.1965 15.3648 51.9959 15.7123 53.188 15.8122L54.1406 15.8921V16.9662V18.0402H53.0469H51.9531V19.2025V20.3647H55.3027H58.6523V23.9645C58.6523 27.5504 58.6511 27.5653 58.336 27.8614L58.0195 28.1587H48.7133H39.4071L39.0424 27.4131C38.6079 26.5248 37.559 25.5362 36.7052 25.2101L36.0938 24.9766V22.6707V20.3647H39.5117H42.9297V19.2025V18.0402H41.7676H40.6055V16.9463V15.8524H41.214C42.8947 15.8524 44.0766 15.2153 44.7353 13.9543L45.1172 13.2233V8.02457C45.1172 4.47476 45.0669 2.65781 44.9585 2.29614C44.7531 1.61041 44.0073 0.745554 43.291 0.362419C42.7254 0.059822 42.7135 0.0594118 35 0.0594118C27.2865 0.0594118 27.2746 0.059822 26.709 0.362419C25.9927 0.745554 25.2469 1.61041 25.0415 2.29614C24.9331 2.65781 24.8828 4.47476 24.8828 8.02457V13.2233L25.2647 13.9543C25.9234 15.2153 27.1053 15.8524 28.786 15.8524H29.3945V16.9463V18.0402H28.227H27.0592L27.099 19.1683L27.1387 20.2964L30.5225 20.3329L33.9062 20.3695V22.6731V24.9766L33.2568 25.2242C32.3887 25.5553 31.1183 26.8238 30.8893 27.5882L30.7184 28.1587H21.3303H11.9422L11.6449 27.8423C11.3553 27.534 11.3477 27.4333 11.3477 23.9453V20.3647H14.6973H18.0469V19.2025V18.0402H16.9531H15.8594V16.9662V15.8921L16.812 15.8122C18.0041 15.7123 18.8035 15.3648 19.397 14.6888C20.3156 13.6424 20.3027 13.7377 20.3027 7.99011C20.3027 3.29063 20.2789 2.73247 20.0536 2.14847C19.7282 1.30508 18.6843 0.354215 17.8541 0.145145C17.436 0.0398585 14.9557 -0.00594816 10.0224 0.000615181C4.11441 0.00854588 2.70566 0.0458749 2.2683 0.20613ZM17.7635 2.67586C18.0306 3.01538 18.0469 3.20831 18.0469 6.0259V9.01564H10.1855H2.32422V5.98201C2.32422 3.05558 2.33475 2.9373 2.62145 2.63197L2.91881 2.31556H10.1995H17.4802L17.7635 2.67586ZM42.5385 2.57673C42.858 2.83529 42.8617 2.86866 42.9028 5.92676L42.9442 9.01564H35H27.0558L27.0972 5.92676C27.1383 2.86866 27.142 2.83529 27.4615 2.57673C27.77 2.32705 28.1013 2.31556 35 2.31556C41.8987 2.31556 42.23 2.32705 42.5385 2.57673ZM67.3594 2.61282C67.6718 2.9064 67.6758 2.94879 67.6758 5.96286V9.01564H59.8145H51.9531V6.0259C51.9531 3.20831 51.9694 3.01538 52.2365 2.67586L52.5198 2.31556H59.7814H67.0429L67.3594 2.61282ZM18.0469 12.0984C18.0469 12.7212 17.9869 12.9167 17.7112 13.1922L17.3757 13.5279H10.2102C3.16805 13.5279 3.03844 13.523 2.68447 13.2445C2.3677 12.9953 2.32422 12.8634 2.32422 12.1506V11.3402H10.1855H18.0469V12.0984ZM42.9297 11.9645C42.9297 12.6225 42.7548 13.0762 42.3947 13.3526C42.0813 13.5933 27.9187 13.5933 27.6053 13.3526C27.2452 13.0762 27.0703 12.6225 27.0703 11.9645V11.3402H35H42.9297V11.9645ZM67.6758 12.1506C67.6758 12.8634 67.6323 12.9953 67.3155 13.2445C66.9616 13.523 66.832 13.5279 59.7898 13.5279H52.6243L52.2888 13.1922C52.0131 12.9167 51.9531 12.7212 51.9531 12.0984V11.3402H59.8145H67.6758V12.1506ZM13.5352 16.9463V18.0402H10.1855H6.83594V16.9463V15.8524H10.1855H13.5352V16.9463ZM38.418 16.9463V18.0402H35H31.582V16.9463V15.8524H35H38.418V16.9463ZM63.1641 16.9463V18.0402H59.8145H56.4648V16.9463V15.8524H59.8145H63.1641V16.9463ZM35.8995 27.3241C37.6033 28.0981 37.7247 30.3706 36.1106 31.2778C34.6041 32.1246 32.8125 31.0616 32.8125 29.321C32.8125 28.418 33.2056 27.7935 34.0389 27.3725C34.7741 27.001 35.1656 26.9908 35.8995 27.3241ZM28.27 40.6359L28.2324 42.8579L26.0107 42.8955L23.7891 42.9331V40.6735V38.4139H26.0483H28.3076L28.27 40.6359ZM39.5117 40.6701V42.9262H35H30.4883V40.6701V38.4139H35H39.5117V40.6701ZM46.3477 40.6701V42.9262H44.0918H41.8359V40.6701V38.4139H44.0918H46.3477V40.6701ZM21.487 42.7703C21.5303 43.5366 21.6095 43.7997 21.9196 44.2062C22.6249 45.1311 22.5012 45.114 28.499 45.114H33.9062V47.3702V49.6263H31.0419C29.4664 49.6263 27.8642 49.6934 27.4813 49.7756C26.5351 49.9785 25.7198 50.6228 25.2588 51.5319L24.8828 52.2734V57.4631C24.8828 61.0062 24.9331 62.8209 25.0415 63.1826C25.1288 63.4739 25.4122 63.9599 25.6714 64.2628C26.3545 65.0608 27.0741 65.3842 28.335 65.4595L29.3945 65.5228V66.5991V67.6755H22.627H15.8594V66.5996V65.5237L16.8506 65.459C18.0238 65.3823 18.745 65.0555 19.4411 64.2848C20.2884 63.3468 20.3027 63.2347 20.3027 57.557C20.3027 51.7037 20.285 51.59 19.2147 50.6034C18.2839 49.7453 17.6809 49.6263 14.2622 49.6263H11.3477V46.0457C11.3477 42.5577 11.3553 42.4571 11.6449 42.1487L11.9422 41.8323H16.688H21.4339L21.487 42.7703ZM58.336 42.1296C58.6511 42.4258 58.6523 42.4407 58.6523 46.0266V49.6263H55.7378C52.3191 49.6263 51.7161 49.7453 50.7853 50.6034C49.715 51.59 49.6973 51.7037 49.6973 57.557C49.6973 63.2347 49.7116 63.3468 50.5589 64.2848C51.255 65.0555 51.9762 65.3823 53.1494 65.459L54.1406 65.5237V66.5996V67.6755H47.373H40.6055V66.5991V65.5228L41.665 65.4595C42.9259 65.3842 43.6455 65.0608 44.3286 64.2628C44.5878 63.9599 44.8712 63.4739 44.9585 63.1826C45.0669 62.8209 45.1172 61.004 45.1172 57.4542V52.2555L44.7353 51.5245C44.2637 50.6213 43.4429 49.9739 42.5187 49.7756C42.1358 49.6934 40.5321 49.6263 38.9547 49.6263H36.0869L36.1245 47.4043L36.1621 45.1824L41.6552 45.114C46.9338 45.0484 47.163 45.0346 47.5256 44.7637C48.2429 44.228 48.4546 43.8031 48.5122 42.7851L48.5661 41.8323H53.2927C57.9577 41.8323 58.0236 41.8362 58.336 42.1296ZM17.7112 52.2865L18.0469 52.6221V55.6365V58.6509H10.1855H2.32422V55.5843V52.5176L2.68447 52.2343C3.03844 51.9557 3.16805 51.9508 10.2102 51.9508H17.3757L17.7112 52.2865ZM42.3947 52.1261C42.8768 52.4964 42.9297 52.8563 42.9297 55.7704V58.6509H35H27.0703V55.7704C27.0703 52.8563 27.1232 52.4964 27.6053 52.1261C27.9187 51.8855 42.0813 51.8855 42.3947 52.1261ZM67.3155 52.2343L67.6758 52.5176V55.5843V58.6509H59.8145H51.9531V55.6365V52.6221L52.2888 52.2865L52.6243 51.9508H59.7898C66.832 51.9508 66.9616 51.9557 67.3155 52.2343ZM18.0469 61.7336C18.0469 62.3564 17.9869 62.552 17.7112 62.8275L17.3757 63.1632H10.1664H2.95709L2.64059 62.8659C2.38014 62.621 2.32422 62.4278 2.32422 61.772V60.9754H10.1855H18.0469V61.7336ZM42.9297 61.5976C42.9297 62.283 42.6512 62.9466 42.3083 63.0783C42.1866 63.1249 38.8689 63.1632 34.9356 63.1632C26.6264 63.1632 27.2028 63.2623 27.0982 61.8162L27.0375 60.9754H34.9836H42.9297V61.5976ZM67.6758 61.7529C67.6758 62.3629 67.6118 62.5985 67.3786 62.8468L67.0812 63.1632H59.8005H52.5198L52.2365 62.8029C52.0298 62.5401 51.9531 62.2442 51.9531 61.709V60.9754H59.8145H67.6758V61.7529ZM13.5352 66.5816V67.6755H10.1855H6.83594V66.5816V65.4877H10.1855H13.5352V66.5816ZM38.418 66.5816V67.6755H35H31.582V66.5816V65.4877H35H38.418V66.5816ZM63.1641 66.5816V67.6755H59.8145H56.4648V66.5816V65.4877H59.8145H63.1641V66.5816Z" fill="white"/>
</svg>
