<svg width="70" height="70" viewBox="0 0 70 70" fill="none" xmlns="http://www.w3.org/2000/svg">
<path fill-rule="evenodd" clip-rule="evenodd" d="M5.87494 0.165166C5.35351 0.404195 4.88455 0.902159 4.68554 1.42794C4.58074 1.70466 4.53505 10.4843 4.53505 30.3358C4.53505 54.3376 4.50458 58.8463 4.34238 58.8463C4.23646 58.8463 3.70445 59.0694 3.16017 59.3418C1.95766 59.9441 1.14286 60.7914 0.538637 62.0682L0.0922411 63.0113L0.0461206 66.5056L0 70H10.3176H20.6351L21.5765 69.4547C22.918 68.6777 24.1883 68.2068 25.6161 67.9576C27.4416 67.6389 42.5593 67.6391 44.3848 67.9577C45.7857 68.2023 47.3665 68.7923 48.5518 69.513L49.3527 70H59.6763H70L69.9539 66.5056L69.9078 63.0113L69.4614 62.0682C68.8571 60.7914 68.0423 59.9441 66.8398 59.3418C66.2955 59.0694 65.764 58.8463 65.6586 58.8463C65.4978 58.8463 65.4611 54.2132 65.4307 30.1252L65.3944 1.40422L65.1036 1.01426C64.4307 0.11208 64.2132 0.042193 62.08 0.042193C59.9467 0.042193 59.7294 0.11208 59.0563 1.01412C58.7747 1.39151 58.7642 1.59567 58.7259 7.46464L58.6862 13.5255H56.3634C54.4943 13.5255 54.0406 13.4878 54.0406 13.3326C54.0406 13.2266 53.8177 12.694 53.5455 12.1492C52.9439 10.9454 52.0975 10.1298 50.822 9.52497C49.97 9.12089 49.7517 9.07811 48.54 9.07811C47.3283 9.07811 47.11 9.12089 46.2579 9.52497C44.9825 10.1298 44.1361 10.9454 43.5344 12.1492C43.2622 12.694 43.0394 13.2266 43.0394 13.3326C43.0394 13.4905 42.3993 13.5255 39.5133 13.5255C36.6273 13.5255 35.9873 13.4905 35.9873 13.3326C35.9873 13.2266 35.7644 12.694 35.4922 12.1492C34.8906 10.9454 34.0442 10.1298 32.7687 9.52497C31.9167 9.12089 31.6984 9.07811 30.4867 9.07811C29.278 9.07811 29.0555 9.12132 28.2146 9.52017C27.7021 9.76329 26.988 10.2449 26.6279 10.5902L25.9734 11.2181L25.3188 10.5902C24.9587 10.2449 24.2446 9.76329 23.7321 9.52017C22.8912 9.12132 22.6687 9.07811 21.46 9.07811C20.2483 9.07811 20.03 9.12089 19.178 9.52497C17.9025 10.1298 17.0561 10.9454 16.4545 12.1492C16.1823 12.694 15.9594 13.2266 15.9594 13.3326C15.9594 13.4878 15.5057 13.5255 13.6366 13.5255H11.3138L11.2741 7.46464C11.2358 1.59567 11.2253 1.39151 10.9437 1.01412C10.2895 0.137353 10.0283 0.0452991 8.08661 0.00675524C6.8044 -0.0186583 6.17832 0.026239 5.87494 0.165166ZM9.04837 30.4678V58.7051H7.92004H6.79171V30.4678V2.23058H7.92004H9.04837V30.4678ZM63.2083 30.4678V58.7051H62.08H60.9516V30.4678V2.23058H62.08H63.2083V30.4678ZM22.5015 11.4382C23.7136 11.7967 24.845 13.3497 24.845 14.655C24.845 16.4044 23.2077 18.0434 21.46 18.0434C19.7124 18.0434 18.075 16.4044 18.075 14.655C18.075 13.7676 18.3977 13.0517 19.128 12.319C20.1174 11.3265 21.1832 11.0482 22.5015 11.4382ZM31.5281 11.4382C32.7402 11.7967 33.8717 13.3497 33.8717 14.655C33.8717 16.4044 32.2343 18.0434 30.4867 18.0434C28.739 18.0434 27.1017 16.4044 27.1017 14.655C27.1017 13.7676 27.4244 13.0517 28.1547 12.319C29.1441 11.3265 30.2098 11.0482 31.5281 11.4382ZM49.5814 11.4382C50.7935 11.7967 51.925 13.3497 51.925 14.655C51.925 16.4044 50.2876 18.0434 48.54 18.0434C46.7923 18.0434 45.155 16.4044 45.155 14.655C45.155 13.7676 45.4777 13.0517 46.208 12.319C47.1974 11.3265 48.2631 11.0482 49.5814 11.4382ZM15.9594 15.9773C15.9594 16.0834 16.1823 16.6159 16.4545 17.1607C17.0561 18.3645 17.9025 19.1801 19.178 19.785C20.03 20.1891 20.2483 20.2318 21.46 20.2318C22.6687 20.2318 22.8912 20.1886 23.7321 19.7898C24.2446 19.5467 24.9587 19.0651 25.3188 18.7197L25.9734 18.0919L26.6279 18.7197C26.988 19.0651 27.7021 19.5467 28.2146 19.7898C29.0555 20.1886 29.278 20.2318 30.4867 20.2318C31.6984 20.2318 31.9167 20.1891 32.7687 19.785C34.0442 19.1801 34.8906 18.3645 35.4922 17.1607C35.7644 16.6159 35.9873 16.0834 35.9873 15.9773C35.9873 15.8195 36.6273 15.7845 39.5133 15.7845C42.3993 15.7845 43.0394 15.8195 43.0394 15.9773C43.0394 16.0834 43.2622 16.6159 43.5344 17.1607C44.1361 18.3645 44.9825 19.1801 46.2579 19.785C47.11 20.1891 47.3283 20.2318 48.54 20.2318C49.7517 20.2318 49.97 20.1891 50.822 19.785C52.0975 19.1801 52.9439 18.3645 53.5455 17.1607C53.8177 16.6159 54.0406 16.0834 54.0406 15.9773C54.0406 15.8222 54.4949 15.7845 56.3678 15.7845H58.695V22.5614V29.3383H57.4961C56.5769 29.3383 56.2973 29.2933 56.2973 29.1455C56.2973 29.0395 56.0744 28.5069 55.8022 27.9621C55.2005 26.7583 54.3541 25.9427 53.0787 25.3378C52.2267 24.9338 52.0083 24.891 50.7966 24.891C49.5879 24.891 49.3655 24.9342 48.5246 25.333C48.0121 25.5762 47.298 26.0577 46.9379 26.4031L46.2833 27.0309L45.6287 26.4031C45.2687 26.0577 44.5546 25.5762 44.042 25.333C43.2011 24.9342 42.9787 24.891 41.77 24.891C40.5583 24.891 40.34 24.9338 39.4879 25.3378C38.2125 25.9427 37.3661 26.7583 36.7644 27.9621C36.4922 28.5069 36.2694 29.0395 36.2694 29.1455C36.2694 29.3033 35.6293 29.3383 32.7433 29.3383C29.8573 29.3383 29.2173 29.3033 29.2173 29.1455C29.2173 29.0395 28.9945 28.5069 28.7222 27.9621C28.1206 26.7583 27.2742 25.9427 25.9987 25.3378C25.1467 24.9338 24.9284 24.891 23.7167 24.891C22.505 24.891 22.2867 24.9338 21.4346 25.3378C20.1592 25.9427 19.3128 26.7583 18.7111 27.9621C18.4389 28.5069 18.2161 29.0395 18.2161 29.1455C18.2161 29.3032 17.587 29.3383 14.7606 29.3383H11.305V22.5614V15.7845H13.6322C15.5051 15.7845 15.9594 15.8222 15.9594 15.9773ZM24.7581 27.251C25.9702 27.6095 27.1017 29.1626 27.1017 30.4678C27.1017 32.2173 25.4643 33.8563 23.7167 33.8563C21.969 33.8563 20.3317 32.2173 20.3317 30.4678C20.3317 29.5805 20.6544 28.8645 21.3847 28.1319C22.3741 27.1394 23.4398 26.8611 24.7581 27.251ZM42.8114 27.251C44.0236 27.6095 45.155 29.1626 45.155 30.4678C45.155 32.2173 43.5176 33.8563 41.77 33.8563C40.0223 33.8563 38.385 32.2173 38.385 30.4678C38.385 29.5805 38.7077 28.8645 39.438 28.1319C40.4274 27.1394 41.4931 26.8611 42.8114 27.251ZM51.8381 27.251C53.0502 27.6095 54.1816 29.1626 54.1816 30.4678C54.1816 32.2173 52.5443 33.8563 50.7966 33.8563C49.049 33.8563 47.4116 32.2173 47.4116 30.4678C47.4116 29.5805 47.7344 28.8645 48.4647 28.1319C49.4541 27.1394 50.5198 26.8611 51.8381 27.251ZM18.2161 31.7902C18.2161 31.8962 18.4389 32.4288 18.7111 32.9736C19.3128 34.1774 20.1592 34.993 21.4346 35.5978C22.2867 36.0019 22.505 36.0447 23.7167 36.0447C24.9284 36.0447 25.1467 36.0019 25.9987 35.5978C27.2742 34.993 28.1206 34.1774 28.7222 32.9736C28.9945 32.4288 29.2173 31.8962 29.2173 31.7902C29.2173 31.6323 29.8573 31.5973 32.7433 31.5973C35.6293 31.5973 36.2694 31.6323 36.2694 31.7902C36.2694 31.8962 36.4922 32.4288 36.7644 32.9736C37.3661 34.1774 38.2125 34.993 39.4879 35.5978C40.34 36.0019 40.5583 36.0447 41.77 36.0447C42.9787 36.0447 43.2011 36.0015 44.042 35.6026C44.5546 35.3595 45.2687 34.8779 45.6287 34.5326L46.2833 33.9047L46.9379 34.5326C47.298 34.8779 48.0121 35.3595 48.5246 35.6026C49.3655 36.0015 49.5879 36.0447 50.7966 36.0447C52.0083 36.0447 52.2267 36.0019 53.0787 35.5978C54.3541 34.993 55.2005 34.1774 55.8022 32.9736C56.0744 32.4288 56.2973 31.8962 56.2973 31.7902C56.2973 31.6424 56.5769 31.5973 57.4961 31.5973H58.695V38.3743V45.1512H57.4961C56.5769 45.1512 56.2973 45.1062 56.2973 44.9584C56.2973 44.8523 56.0744 44.3198 55.8022 43.7749C55.2005 42.5712 54.3541 41.7555 53.0787 41.1507C52.2267 40.7466 52.0083 40.7038 50.7966 40.7038C49.5879 40.7038 49.3655 40.747 48.5246 41.1459C48.0121 41.389 47.298 41.8706 46.9379 42.2159L46.2833 42.8438L45.6287 42.2159C45.2687 41.8706 44.5546 41.389 44.042 41.1459C43.2011 40.747 42.9787 40.7038 41.77 40.7038C40.5583 40.7038 40.34 40.7466 39.4879 41.1507C38.2125 41.7555 37.3661 42.5712 36.7644 43.7749C36.4922 44.3198 36.2694 44.8523 36.2694 44.9584C36.2694 45.107 35.9788 45.1512 35 45.1512C34.0212 45.1512 33.7306 45.107 33.7306 44.9584C33.7306 44.8523 33.5078 44.3198 33.2356 43.7749C32.6339 42.5712 31.7875 41.7555 30.5121 41.1507C29.66 40.7466 29.4417 40.7038 28.23 40.7038C27.0213 40.7038 26.7989 40.747 25.958 41.1459C25.4454 41.389 24.7313 41.8706 24.3713 42.2159L23.7167 42.8438L23.0621 42.2159C22.702 41.8706 21.9879 41.389 21.4754 41.1459C20.6345 40.747 20.4121 40.7038 19.2034 40.7038C17.9917 40.7038 17.7733 40.7466 16.9213 41.1507C15.6459 41.7555 14.7995 42.5712 14.1978 43.7749C13.9256 44.3198 13.7027 44.8523 13.7027 44.9584C13.7027 45.1062 13.4231 45.1512 12.5039 45.1512H11.305V38.3743V31.5973H14.7606C17.587 31.5973 18.2161 31.6325 18.2161 31.7902ZM20.2448 43.0639C21.4569 43.4224 22.5884 44.9754 22.5884 46.2807C22.5884 47.586 21.4569 49.139 20.2448 49.4975C18.9224 49.8886 17.8681 49.6128 16.8714 48.6151C15.4445 47.1867 15.4445 45.3763 16.8714 43.9448C17.8608 42.9522 18.9265 42.674 20.2448 43.0639ZM29.2715 43.0639C30.0462 43.2931 31.2146 44.4626 31.4435 45.2382C31.8342 46.5619 31.5587 47.6173 30.562 48.6151C29.8315 49.3463 29.1172 49.6692 28.23 49.6692C26.4824 49.6692 24.845 48.0301 24.845 46.2807C24.845 45.3933 25.1677 44.6774 25.898 43.9448C26.8874 42.9522 27.9531 42.674 29.2715 43.0639ZM42.8114 43.0639C44.0236 43.4224 45.155 44.9754 45.155 46.2807C45.155 48.0301 43.5176 49.6692 41.77 49.6692C40.8828 49.6692 40.1685 49.3463 39.438 48.6151C38.0111 47.1867 38.0111 45.3763 39.438 43.9448C40.4274 42.9522 41.4931 42.674 42.8114 43.0639ZM51.8381 43.0639C53.0502 43.4224 54.1816 44.9754 54.1816 46.2807C54.1816 48.0301 52.5443 49.6692 50.7966 49.6692C49.9095 49.6692 49.1951 49.3463 48.4647 48.6151C47.0378 47.1867 47.0378 45.3763 48.4647 43.9448C49.4541 42.9522 50.5198 42.674 51.8381 43.0639ZM13.7027 47.6031C13.7027 47.7091 13.9256 48.2416 14.1978 48.7865C14.7995 49.9902 15.6459 50.8059 16.9213 51.4107C17.7733 51.8148 17.9917 51.8576 19.2034 51.8576C20.4121 51.8576 20.6345 51.8144 21.4754 51.4155C21.9879 51.1724 22.702 50.6908 23.0621 50.3455L23.7167 49.7176L24.3713 50.3455C24.7313 50.6908 25.4454 51.1724 25.958 51.4155C26.7989 51.8144 27.0213 51.8576 28.23 51.8576C29.4417 51.8576 29.66 51.8148 30.5121 51.4107C31.7875 50.8059 32.6339 49.9902 33.2356 48.7865C33.5078 48.2416 33.7306 47.7091 33.7306 47.6031C33.7306 47.4544 34.0212 47.4102 35 47.4102C35.9788 47.4102 36.2694 47.4544 36.2694 47.6031C36.2694 47.7091 36.4922 48.2416 36.7644 48.7865C37.3661 49.9902 38.2125 50.8059 39.4879 51.4107C40.34 51.8148 40.5583 51.8576 41.77 51.8576C42.9787 51.8576 43.2011 51.8144 44.042 51.4155C44.5546 51.1724 45.2687 50.6908 45.6287 50.3455L46.2833 49.7176L46.9379 50.3455C47.298 50.6908 48.0121 51.1724 48.5246 51.4155C49.3655 51.8144 49.5879 51.8576 50.7966 51.8576C52.0083 51.8576 52.2267 51.8148 53.0787 51.4107C54.3541 50.8059 55.2005 49.9902 55.8022 48.7865C56.0744 48.2416 56.2973 47.7091 56.2973 47.6031C56.2973 47.4552 56.5769 47.4102 57.4961 47.4102H58.695V53.0576V58.7051H35H11.305V53.0576V47.4102H12.5039C13.4231 47.4102 13.7027 47.4552 13.7027 47.6031ZM65.3781 61.1358C66.1528 61.3649 67.3212 62.5345 67.5501 63.31C67.648 63.6417 67.7216 64.7174 67.7216 65.8161V67.741H58.9161H50.1106L48.8669 67.1184C47.3614 66.3647 45.7313 65.8401 44.2574 65.6348C42.4721 65.3863 27.066 65.4315 25.4797 65.69C23.935 65.9417 22.612 66.3821 21.0753 67.1564L19.9148 67.741H11.0966H2.27838V65.8161C2.27838 64.7174 2.35201 63.6417 2.44989 63.31C2.66216 62.5908 3.84282 61.367 4.53505 61.1486C5.28172 60.9131 64.5826 60.9005 65.3781 61.1358Z" fill="white"/>
</svg>
