<svg width="70" height="70" viewBox="0 0 70 70" fill="none" xmlns="http://www.w3.org/2000/svg">
<path fill-rule="evenodd" clip-rule="evenodd" d="M10.1028 5.64516L10.1385 11.2903L12.9808 11.3273L15.8231 11.3644V14.7144V18.0645H21.4392H27.0553V24.2913V30.5181H28.2196H29.3839V23.1965V15.8749H23.6993H18.0147V13.6168V11.3587H20.8228H23.6308V5.67937V0H16.8489H10.067L10.1028 5.64516ZM28.1838 5.64516L28.2196 11.2903L31.0619 11.3273L33.9042 11.3644V20.9412V30.5181H35H36.0958V20.9412V11.3644L38.9381 11.3273L41.7804 11.2903L41.8162 5.64516L41.8519 0H35H28.1481L28.1838 5.64516ZM46.3692 5.67937V11.3587H49.1772H51.9852V13.6168V15.8749H46.3007H40.6161V23.1965V30.5181H41.7804H42.9447V24.2913V18.0645H48.5608H54.1769V14.7144V11.3644L57.0192 11.3273L59.8615 11.2903L59.8972 5.64516L59.933 0H53.1511H46.3692V5.67937ZM21.4392 5.67937V9.03226H16.9189H12.3987V5.67937V2.32649H16.9189H21.4392V5.67937ZM39.5203 5.67937V9.03226H35H30.4797V5.67937V2.32649H35H39.5203V5.67937ZM57.6013 5.67937V9.03226H53.0811H48.5608V5.67937V2.32649H53.0811H57.6013V5.67937ZM14.6191 5.64516L14.6588 6.77419L16.8847 6.81183L19.1106 6.84946V5.6828V4.51613H16.845H14.5792L14.6191 5.64516ZM32.7301 4.69732C32.6904 4.80078 32.6763 5.31042 32.6989 5.82978L32.7399 6.77419H35H37.2601V5.67937V4.58456L35.0312 4.54692C33.2412 4.51668 32.7882 4.54637 32.7301 4.69732ZM50.8894 5.6828V6.84946L53.1153 6.81183L55.3412 6.77419L55.3809 5.64516L55.4208 4.51613H53.155H50.8894V5.6828ZM8.31864 16.1337C6.78147 16.6642 5.44676 17.934 4.81899 19.4631L4.52243 20.1857L4.48586 39.428L4.44929 58.6704L3.49716 58.7502C1.92684 58.8817 0.847593 59.5452 0.248178 60.7477C-0.107142 61.4607 -0.0765962 63.2708 0.31201 64.5317C1.03607 66.8803 3.10745 68.9524 5.47553 69.6969L6.44012 70H35H63.5599L64.5245 69.6969C66.8925 68.9524 68.9639 66.8803 69.688 64.5317C70.0766 63.2708 70.1071 61.4607 69.7518 60.7477C69.1521 59.5446 68.0733 58.8817 66.5005 58.7499L65.5461 58.67V39.7645C65.5461 19.1781 65.5758 20.0034 64.7869 18.6583C64.2656 17.7693 63.2939 16.8876 62.292 16.3945L61.3755 15.9433L58.9404 15.898L56.5055 15.8527V16.9466V18.0404L58.6629 18.0886C61.0985 18.1431 61.5456 18.2816 62.3915 19.2439C63.2739 20.2481 63.2174 18.8517 63.2174 39.6828V58.7097H35H6.78257V39.6828C6.78257 18.8517 6.72613 20.2481 7.60854 19.2439C8.45438 18.2816 8.90148 18.1431 11.3371 18.0886L13.4945 18.0404V16.9577V15.8749L11.2686 15.8794C9.47761 15.883 8.9012 15.9326 8.31864 16.1337ZM10.1233 20.6517C9.88881 20.7944 9.54979 21.1176 9.36994 21.3696L9.0427 21.828L9.00681 38.2598L8.97093 54.6918L9.28803 55.2908C9.50528 55.7011 9.79279 55.9891 10.2015 56.2049L10.7981 56.52H35H59.2019L59.7985 56.2049C60.2072 55.9891 60.4947 55.7011 60.712 55.2908L61.0291 54.6918L60.9932 38.2491L60.9573 21.8066L60.5735 21.304C59.8494 20.3556 60.172 20.391 52.2661 20.391H45.1364V21.4858V22.5806H51.9168H58.6972V38.3871V54.1936H56.4395H54.1818L54.1451 50.961L54.1084 47.7284L52.62 47.254C51.5776 46.9219 51.1127 46.708 51.0689 46.5404C51.0343 46.4087 50.8059 45.8445 50.561 45.2864L50.1158 44.2718L50.8348 42.8233L51.5538 41.375L48.5672 38.3935L45.5807 35.4119L44.1475 36.1801C43.3592 36.6024 42.6768 36.9105 42.6308 36.8646C42.5849 36.8188 42.0357 36.5768 41.4104 36.3271L40.2736 35.8728L39.7257 34.3245L39.1778 32.7761H35H30.8222L30.2743 34.3245L29.7264 35.8728L28.5896 36.3271C27.9643 36.5768 27.418 36.8159 27.3755 36.8583C27.3331 36.9007 26.6513 36.5919 25.8607 36.1719L24.423 35.4082L21.4347 38.3916L18.4462 41.375L19.1652 42.8233L19.8842 44.2718L19.439 45.2864C19.1941 45.8445 18.9656 46.4087 18.9311 46.5402C18.8876 46.707 18.418 46.9249 17.3801 47.2602L15.8916 47.7411L15.8549 50.9673L15.8182 54.1936H13.5605H11.3028V38.3871V22.5806H18.0832H24.8636V21.4858V20.391L17.7065 20.3916C10.9201 20.392 10.5274 20.4055 10.1233 20.6517ZM37.9969 36.3685L38.4127 37.7028L39.2747 37.9527C39.7487 38.0903 40.7333 38.4823 41.4627 38.8243L42.7888 39.4459L43.9892 38.8081L45.1894 38.1701L47.0021 39.9775L48.8149 41.7849L48.1971 43.0139L47.5792 44.243L48.1975 45.5575C48.5375 46.2805 48.922 47.255 49.052 47.7233L49.2884 48.5747L50.6368 48.9932L51.9852 49.4117V51.8026V54.1936H49.6109H47.2364L47.361 53.3382C47.4296 52.8679 47.4496 51.9226 47.4055 51.2378C47.0599 45.8683 43.3447 41.3665 38.082 39.9405C36.5126 39.5152 33.4874 39.5152 31.918 39.9405C26.6553 41.3665 22.9401 45.8683 22.5945 51.2378C22.5504 51.9226 22.5704 52.8679 22.639 53.3382L22.7636 54.1936H20.3891H18.0147V51.8026V49.4117L19.3632 48.9932L20.7116 48.5747L20.948 47.7233C21.078 47.255 21.4625 46.2805 21.8025 45.5575L22.4208 44.243L21.8029 43.0139L21.1851 41.7849L23.0038 39.9716L24.8225 38.1581L26.0155 38.8027L27.2086 39.4472L28.5359 38.8249C29.266 38.4826 30.2513 38.0903 30.7253 37.9527L31.5873 37.7028L32.0031 36.3685L32.4187 35.0342H35H37.5813L37.9969 36.3685ZM37.4966 42.141C40.4054 42.8842 42.7851 44.8339 44.1064 47.5562C44.914 49.2201 45.1869 50.5375 45.1101 52.4015C45.0768 53.2063 45.0039 53.9387 44.948 54.0292C44.8753 54.1466 44.1876 54.1936 42.5406 54.1936H40.2352L40.4417 53.4894C40.7684 52.3759 40.6307 50.7672 40.1143 49.6647C39.1197 47.5412 37.3192 46.393 34.9837 46.393C31.9342 46.393 29.5699 48.6315 29.4102 51.6699C29.3709 52.4195 29.4194 53.0162 29.5583 53.4894L29.7648 54.1936H27.4594C25.8123 54.1936 25.1247 54.1466 25.052 54.0292C24.9961 53.9387 24.9232 53.2063 24.8899 52.4015C24.7886 49.9432 25.4932 47.6999 26.9836 45.7348C28.208 44.1207 30.3873 42.687 32.4289 42.1526C33.8076 41.7917 36.109 41.7864 37.4966 42.141ZM35.8877 48.7353C37.9191 49.2987 38.9547 51.6016 38.0054 53.4446L37.6548 54.1251H34.9919H32.3289L31.9879 53.4409C30.7079 50.8724 33.1161 47.9666 35.8877 48.7353ZM25.9866 62.1128C26.0585 63.352 26.4586 64.1976 27.2635 64.811C28.2107 65.5329 28.29 65.5403 35 65.5403C41.71 65.5403 41.7893 65.5329 42.7365 64.811C43.5414 64.1976 43.9415 63.352 44.0134 62.1128L44.0757 61.0362H55.5458H67.0158L67.3931 61.3326C67.758 61.6194 67.7681 61.6628 67.705 62.6669C67.6214 63.9974 67.1642 65.0327 66.2198 66.0303C65.4883 66.8031 64.1224 67.6051 63.538 67.6051H63.2174V65.4154V63.2258H59.8615H56.5055V65.4839V67.7419H55.3412H54.1769V65.4839V63.2258H50.8209H47.465V65.4856V67.7455L26.8841 67.7095L6.30315 67.6735L5.51552 67.2872C4.37998 66.7299 3.35648 65.738 2.81254 64.6673C2.44106 63.9361 2.34161 63.56 2.29161 62.6963C2.23162 61.662 2.24134 61.6198 2.60694 61.3326L2.98417 61.0362H14.4541H25.9243L25.9866 62.1128ZM41.8489 61.5632C41.8489 62.2572 41.6071 62.9253 41.2956 63.0918C41.143 63.1734 38.6811 63.2258 35 63.2258C31.3189 63.2258 28.857 63.1734 28.7044 63.0918C28.3929 62.9253 28.1511 62.2572 28.1511 61.5632V61.0362H35H41.8489V61.5632ZM51.9852 66.6471V67.7419H50.8209H49.6566V66.6471V65.5523H50.8209H51.9852V66.6471ZM61.0258 66.6471V67.7419H59.8615H58.6972V66.6471V65.5523H59.8615H61.0258V66.6471Z" fill="white"/>
</svg>
