<svg width="70" height="70" viewBox="0 0 70 70" fill="none" xmlns="http://www.w3.org/2000/svg">
<path fill-rule="evenodd" clip-rule="evenodd" d="M46.1194 1.50163L45.6521 3.00327L44.3576 3.55826L43.0632 4.1134L41.6313 3.37755L40.1995 2.64155L37.2382 5.60458L34.2769 8.56762L34.9245 9.85776C35.2806 10.5673 35.572 11.1809 35.572 11.2213C35.572 11.2617 28.2299 11.2947 19.2562 11.2947C6.85848 11.2947 2.80105 11.336 2.35969 11.4664C1.58464 11.6955 0.415782 12.8651 0.186779 13.6406C-0.0622597 14.4842 -0.0622597 62.3199 0.186779 63.1635C0.415782 63.939 1.58464 65.1086 2.35969 65.3377C2.80373 65.469 7.73695 65.5101 23.3128 65.5122L43.6852 65.5151L44.1084 66.2316C45.5675 68.7014 48.4736 70.1976 51.3867 69.9789C54.6409 69.7346 57.2822 67.6184 58.3753 64.3799C58.7389 63.3026 58.7389 60.9394 58.3753 59.8621C57.4458 57.1078 55.304 55.0773 52.6802 54.4626L51.9394 54.2891V47.475V40.661H50.8106H49.6818V47.5084C49.6818 54.0163 49.6691 54.3559 49.427 54.3559C48.9154 54.3559 47.4104 54.9579 46.5809 55.4944C44.2802 56.9823 43.0045 59.272 42.9878 61.9437L42.9797 63.2488L22.9726 63.2496L2.96543 63.2505L2.61917 62.9039L2.27278 62.5574V44.8323V27.1073H18.9224C28.0797 27.1073 35.572 27.1404 35.572 27.1808C35.572 27.2211 35.2806 27.8347 34.9245 28.5443L34.2769 29.8345L37.2302 32.7894L40.1835 35.7446L41.6288 35.0189L43.0739 34.2932L44.363 34.8461L45.6521 35.3988L46.1194 36.9004L46.5867 38.4021H50.8106H55.0345L55.5019 36.9004L55.9692 35.3988L57.2583 34.8461L58.5473 34.2932L59.9925 35.0189L61.4377 35.7446L64.3909 32.7896L67.3441 29.8346L66.6189 28.3885L65.8936 26.9424L66.4418 25.6629L66.9898 24.3833L68.4949 23.9029L70 23.4224V19.1985V14.9746L68.4993 14.5069L66.9986 14.0393L66.4462 12.7495L65.8936 11.4596L66.6189 10.0136L67.3441 8.56747L64.3909 5.61249L61.4377 2.65751L59.9925 3.38319L58.5473 4.10888L57.2583 3.556L55.9692 3.00327L55.5019 1.50163L55.0345 0H50.8106H46.5867L46.1194 1.50163ZM53.8061 3.60824L54.1999 4.8868L55.2215 5.21449C55.7832 5.39464 56.7475 5.79504 57.3641 6.10438L58.4852 6.66657L59.7311 6.05553L60.9772 5.44448L62.768 7.23639L64.5588 9.0283L63.9482 10.2751L63.3375 11.5218L63.9047 12.6505C64.2167 13.2714 64.6099 14.234 64.7785 14.7897L65.0853 15.8001L66.3786 16.199L67.6719 16.5979V19.201V21.8042L66.394 22.1984L65.1162 22.5924L64.7887 23.6146C64.6086 24.1766 64.2085 25.1415 63.8993 25.7585L63.3375 26.8803L63.9482 28.127L64.5588 29.3738L62.768 31.1657L60.9772 32.9576L59.7311 32.3465L58.4852 31.7355L57.3641 32.2977C56.7475 32.607 55.7832 33.0074 55.2215 33.1876L54.1999 33.5153L53.8061 34.7938L53.4122 36.0725H50.8106H48.209L47.8104 34.7784L47.4117 33.4843L46.4656 33.1953C45.9453 33.0364 44.9799 32.6446 44.3204 32.3245L43.1213 31.7427L41.8826 32.3502L40.6441 32.9576L38.8532 31.1657L37.0624 29.3738L37.6731 28.127L38.2838 26.8803L37.7219 25.7585C37.4128 25.1415 37.0119 24.1744 36.8309 23.6095L36.5018 22.5824L35.2256 22.1905L33.9494 21.7985V19.201V16.6035L35.2256 16.2116L36.5018 15.8197L36.8309 14.7926C37.0119 14.2277 37.4128 13.2606 37.7219 12.6436L38.2838 11.5218L37.6731 10.2751L37.0624 9.0283L38.8532 7.23639L40.6441 5.44448L41.8826 6.05186L43.1213 6.65937L44.3204 6.07755C44.9799 5.75749 45.9471 5.36514 46.4697 5.20546L47.4202 4.91518L47.7193 3.90981C47.884 3.35693 48.0743 2.75789 48.1425 2.57859L48.2663 2.25259L50.8394 2.29099L53.4125 2.32954L53.8061 3.60824ZM48.5028 7.00259C43.5644 7.8953 39.4777 12.031 38.6091 17.0151C37.1327 25.4866 44.4856 32.8998 52.9044 31.4277C59.6524 30.2478 64.2007 23.8101 63.0286 17.098C61.8362 10.27 55.353 5.76426 48.5028 7.00259ZM53.8442 9.51595C55.4454 10.0262 56.6359 10.7694 57.9365 12.0708C59.2259 13.361 59.9675 14.5437 60.5039 16.1656C60.8338 17.1629 60.8776 17.5181 60.8776 19.201C60.8776 20.884 60.8338 21.2392 60.5039 22.2365C59.9675 23.8584 59.2259 25.0411 57.9365 26.3313C56.6472 27.6214 55.4652 28.3635 53.8442 28.9002C52.8475 29.2303 52.4925 29.2741 50.8106 29.2741C49.1287 29.2741 48.7737 29.2303 47.777 28.9002C46.1641 28.3661 44.984 27.6249 43.6857 26.3308C42.3961 25.0452 41.6563 23.8659 41.1173 22.2365C40.7874 21.2392 40.7437 20.884 40.7437 19.201C40.7437 17.5181 40.7874 17.1629 41.1173 16.1656C41.6539 14.5434 42.3955 13.3608 43.6847 12.0712C45.2718 10.4838 47.0059 9.54546 49.0276 9.18036C50.2886 8.95248 52.5763 9.11202 53.8442 9.51595ZM50.8106 11.2669C50.8106 11.4125 48.7262 26.067 48.635 26.5618C48.5679 26.9268 48.5871 26.9369 49.6392 27.0935C50.2293 27.1813 50.7399 27.2252 50.7741 27.1911C50.8479 27.1171 53.084 11.5459 53.0287 11.4906C52.9821 11.4438 51.2331 11.1561 50.987 11.1547C50.8901 11.154 50.8106 11.2045 50.8106 11.2669ZM34.7425 13.804C34.6581 13.962 34.0567 14.2235 33.1149 14.5119L31.6212 14.9693V19.201V23.4327L33.1149 23.8902C34.0567 24.1786 34.6581 24.4401 34.7425 24.5981C34.8703 24.8371 34.1386 24.8484 18.5746 24.8484H2.27278V19.5476V14.2467L2.61917 13.9003L2.96543 13.5537H18.921C34.1534 13.5537 34.8703 13.565 34.7425 13.804ZM44.5655 16.6083L42.6238 19.2017L44.5727 21.7983L46.5214 24.3949L47.346 23.7777C47.7994 23.4383 48.202 23.1289 48.2407 23.0904C48.2792 23.0517 47.666 22.1608 46.8779 21.1105L45.4451 19.201L46.8857 17.2812L48.3262 15.3614L47.981 15.0961C47.7913 14.9503 47.3819 14.6473 47.0715 14.4229L46.5071 14.0149L44.5655 16.6083ZM54.2753 14.6244C53.8218 14.9638 53.4192 15.2732 53.3806 15.3117C53.3421 15.3504 53.9553 16.2413 54.7433 17.2915L56.1762 19.201L54.7433 21.1105C53.9553 22.1608 53.3421 23.0517 53.3806 23.0904C53.4192 23.1289 53.8218 23.4383 54.2753 23.7777L55.0999 24.3949L57.0489 21.798L58.998 19.201L57.0489 16.6041L55.0999 14.0072L54.2753 14.6244ZM5.86373 16.009C5.28988 16.2621 4.70334 16.9812 4.59356 17.5665C4.5446 17.8277 4.52626 18.7426 4.55279 19.5997C4.60485 21.2836 4.72563 21.5952 5.57236 22.2277C5.95262 22.5118 6.11743 22.5189 12.4319 22.5189C18.7463 22.5189 18.9111 22.5118 19.2914 22.2277C20.193 21.5542 20.2628 21.3364 20.2628 19.201C20.2628 17.0656 20.193 16.8481 19.2915 16.1743C18.9134 15.8917 18.7191 15.8822 12.5981 15.8512C7.57229 15.8257 6.20688 15.8577 5.86373 16.009ZM9.0455 19.201V20.3305H7.91671H6.78793V19.201V18.0716H7.91671H9.0455V19.201ZM13.5606 19.201V20.3305H12.4319H11.3031V19.201V18.0716H12.4319H13.5606V19.201ZM18.0758 19.201V20.3305H16.947H15.8182V19.201V18.0716H16.947H18.0758V19.201ZM9.0455 29.5508C8.77389 29.6365 8.23207 30.0272 7.84137 30.4188C7.114 31.1483 6.78793 31.8674 6.78793 32.7421C6.78793 33.4764 6.26121 33.8842 5.31274 33.8842H4.53035V35.0137V36.1431H5.31274C6.26121 36.1431 6.78793 36.5509 6.78793 37.2852C6.78793 38.1606 7.11386 38.8789 7.84137 39.6069C8.64111 40.4072 9.28339 40.661 10.5081 40.661H11.3031V39.5315V38.4021H10.5207C9.51973 38.4021 9.0455 38.0021 9.0455 37.1577C9.0455 36.8327 8.88084 36.2798 8.64407 35.8101L8.24251 35.0137L8.64407 34.2172C8.88084 33.7475 9.0455 33.1946 9.0455 32.8696C9.0455 32.0252 9.51973 31.6252 10.5207 31.6252H11.3031V30.4958V29.3663L10.4212 29.3807C9.93625 29.3886 9.31711 29.4653 9.0455 29.5508ZM13.5606 30.4958V31.6252H20.3334H27.1061V30.4958V29.3663H20.3334H13.5606V30.4958ZM13.5606 35.0137V36.1431H20.3334H27.1061V35.0137V33.8842H20.3334H13.5606V35.0137ZM40.6515 41.5451V45.8175L38.394 48.0732L36.1364 50.3289V52.3958V54.4627L35.7083 54.6402C34.7598 55.0333 33.8788 56.4602 33.8788 57.6031C33.8788 59.3525 35.5168 60.9915 37.2652 60.9915C39.0135 60.9915 40.6515 59.3525 40.6515 57.6031C40.6515 56.4602 39.7705 55.0333 38.8221 54.6402L38.394 54.4627V52.89V51.3172L40.6515 49.0615L42.9091 46.8058V42.0393V37.2726H41.7803H40.6515V41.5451ZM58.7121 42.0393V46.8058L60.9697 49.0615L63.2273 51.3172V52.89V54.4627L62.7992 54.6402C61.8507 55.0333 60.9697 56.4602 60.9697 57.6031C60.9697 59.3525 62.6077 60.9915 64.3561 60.9915C66.1044 60.9915 67.7424 59.3525 67.7424 57.6031C67.7424 56.4602 66.8614 55.0333 65.9129 54.6402L65.4849 54.4627V52.3958V50.3289L63.2273 48.0732L60.9697 45.8175V41.5451V37.2726H59.8409H58.7121V42.0393ZM13.5606 39.5315V40.661H18.0758H22.5909V39.5315V38.4021H18.0758H13.5606V39.5315ZM24.8485 39.5315V40.661H25.9773H27.1061V39.5315V38.4021H25.9773H24.8485V39.5315ZM4.53035 44.0494V45.1789H15.8182H27.1061V44.0494V42.92H15.8182H4.53035V44.0494ZM9.0455 48.5673V49.6968H15.8182H22.5909V48.5673V47.4379H15.8182H9.0455V48.5673ZM24.8485 48.5673V49.6968H25.6309C26.596 49.6968 27.1061 50.1023 27.1061 50.8693C27.1061 51.4568 27.3417 52.1798 27.7017 52.697C27.9679 53.0794 27.9679 53.091 27.7017 53.4735C27.3417 53.9906 27.1061 54.7136 27.1061 55.3011C27.1061 56.0682 26.596 56.4736 25.6309 56.4736H24.8485V57.6031V58.7326H25.6435C26.8682 58.7326 27.5105 58.4787 28.3102 57.6785C29.0377 56.9504 29.3637 56.2322 29.3637 55.3567C29.3637 54.6224 29.8904 54.2147 30.8389 54.2147H31.6212V53.0852V51.9557H30.8389C29.8904 51.9557 29.3637 51.548 29.3637 50.8137C29.3637 50.0221 29.0441 49.2621 28.4182 48.5656C27.7024 47.7691 26.8954 47.4379 25.67 47.4379H24.8485V48.5673ZM9.0455 53.0852V54.2147H10.1743H11.3031V53.0852V51.9557H10.1743H9.0455V53.0852ZM13.5606 53.0852V54.2147H18.0758H22.5909V53.0852V51.9557H18.0758H13.5606V53.0852ZM9.0455 57.6031V58.7326H15.8182H22.5909V57.6031V56.4736H15.8182H9.0455V57.6031ZM38.0476 56.8202C38.266 57.0387 38.394 57.3281 38.394 57.6031C38.394 57.8781 38.266 58.1676 38.0476 58.386C37.8293 58.6045 37.54 58.7326 37.2652 58.7326C36.9903 58.7326 36.7011 58.6045 36.4828 58.386C36.2644 58.1676 36.1364 57.8781 36.1364 57.6031C36.1364 57.3281 36.2644 57.0387 36.4828 56.8202C36.7011 56.6017 36.9903 56.4736 37.2652 56.4736C37.54 56.4736 37.8293 56.6017 38.0476 56.8202ZM53.1287 57.013C54.4019 57.6092 55.2256 58.4199 55.857 59.6983C56.3549 60.7063 56.384 60.8398 56.384 62.121C56.384 63.4022 56.3549 63.5357 55.857 64.5437C55.2223 65.8288 54.4054 66.6292 53.0936 67.2509C52.2412 67.655 52.0228 67.6978 50.8106 67.6978C49.5984 67.6978 49.38 67.655 48.5276 67.2509C47.2159 66.6292 46.3989 65.8288 45.7642 64.5437C45.2669 63.5368 45.2372 63.4011 45.2372 62.1283C45.2372 60.9071 45.2794 60.6907 45.6838 59.8366C46.2507 58.6391 47.058 57.7625 48.1108 57.201C49.2223 56.6083 49.8304 56.4742 51.1279 56.536C51.9748 56.5764 52.4259 56.6839 53.1287 57.013ZM65.1385 56.8202C65.3569 57.0387 65.4849 57.3281 65.4849 57.6031C65.4849 57.8781 65.3569 58.1676 65.1385 58.386C64.9202 58.6045 64.6309 58.7326 64.3561 58.7326C64.0812 58.7326 63.792 58.6045 63.5737 58.386C63.3553 58.1676 63.2273 57.8781 63.2273 57.6031C63.2273 57.3281 63.3553 57.0387 63.5737 56.8202C63.792 56.6017 64.0812 56.4736 64.3561 56.4736C64.6309 56.4736 64.9202 56.6017 65.1385 56.8202ZM49.6818 58.9171C48.9893 59.1355 47.8082 60.3593 47.5958 61.0785C47.205 62.4022 47.4806 63.4576 48.4777 64.4553C49.2085 65.1865 49.9231 65.5094 50.8106 65.5094C51.6981 65.5094 52.4128 65.1865 53.1435 64.4553C54.5224 63.0757 54.5636 61.3206 53.2515 59.8604C52.3383 58.8441 51.019 58.4954 49.6818 58.9171ZM51.593 61.3381C51.8114 61.5565 51.9394 61.846 51.9394 62.121C51.9394 62.396 51.8114 62.6855 51.593 62.9039C51.3747 63.1224 51.0855 63.2505 50.8106 63.2505C50.5358 63.2505 50.2465 63.1224 50.0282 62.9039C49.8098 62.6855 49.6818 62.396 49.6818 62.121C49.6818 61.846 49.8098 61.5565 50.0282 61.3381C50.2465 61.1196 50.5358 60.9915 50.8106 60.9915C51.0855 60.9915 51.3747 61.1196 51.593 61.3381Z" fill="white"/>
</svg>
