<svg width="70" height="70" viewBox="0 0 70 70" fill="none" xmlns="http://www.w3.org/2000/svg">
<path fill-rule="evenodd" clip-rule="evenodd" d="M54.1936 7.90429V15.8086H62.0968H70V7.90429V0H62.0968H54.1936V7.90429ZM67.7419 7.90429V13.5502H62.0968H56.4516V7.90429V2.25837H62.0968H67.7419V7.90429ZM58.7097 5.64592V6.7751H62.0968H65.4839V5.64592V4.51673H62.0968H58.7097V5.64592ZM29.1598 6.92303C28.2667 7.14745 26.9957 7.89977 26.3787 8.56923C26.0619 8.91307 25.6015 9.61881 25.3559 10.1372C24.9515 10.991 24.9093 11.2074 24.9093 12.4284C24.9093 13.7008 24.9389 13.8365 25.4364 14.8431C26.0712 16.1278 26.8883 16.928 28.2004 17.5496C29.053 17.9536 29.2714 17.9964 30.4839 17.9964C31.6963 17.9964 31.9148 17.9536 32.7673 17.5496C34.0794 16.928 34.8966 16.1278 35.5314 14.8431C36.0294 13.8353 36.0585 13.7019 36.0585 12.421C36.0585 11.1401 36.0294 11.0067 35.5314 9.99892C34.5777 8.06901 32.8835 6.93658 30.8013 6.83749C30.1998 6.80884 29.4611 6.84737 29.1598 6.92303ZM47.4194 12.9856V19.1961H48.5484H49.6774V14.1148V9.03347H50.8064H51.9355V7.90429V6.7751H49.6774H47.4194V12.9856ZM31.526 9.20511C32.7388 9.56348 33.871 11.1161 33.871 12.421C33.871 14.17 32.2326 15.8086 30.4839 15.8086C29.1791 15.8086 27.6267 14.6763 27.2684 13.4633C26.8776 12.1403 27.1531 11.0855 28.1504 10.0857C29.1405 9.09346 30.2068 8.81526 31.526 9.20511ZM58.7097 10.1627V11.2918H62.0968H65.4839V10.1627V9.03347H62.0968H58.7097V10.1627ZM9.03226 22.5837V30.488H7.90323H6.77419V24.842V19.1961H3.3871H0V25.9712V32.7463H12.4194H24.8387V27.1004V21.4545H21.4516H18.0645V25.9712V30.488H16.9355H15.8065V22.5837V14.6794H12.4194H9.03226V22.5837ZM13.5484 23.7129V30.488H12.4194H11.2903V23.7129V16.9378H12.4194H13.5484V23.7129ZM29.3548 26.5358V32.7463H33.871H38.3871V31.6171V30.488H35H31.6129V25.4066V20.3253H30.4839H29.3548V26.5358ZM50.7809 21.3317C50.3543 22.6566 50.1478 22.754 48.9973 22.1731C48.522 21.9331 48.0513 21.7368 47.9513 21.7368C47.7157 21.7368 42.0564 27.3992 42.0564 27.6349C42.0564 27.7336 42.2528 28.2032 42.4927 28.6786C43.0736 29.8292 42.9762 30.0357 41.6514 30.4624L40.6452 30.7865V35.0047V39.2229L41.6514 39.547C42.9762 39.9737 43.0736 40.1802 42.4927 41.3308C42.2528 41.8062 42.0564 42.2758 42.0564 42.3743C42.0564 42.4727 43.204 43.7024 44.6067 45.1067L47.1569 47.66L47.6958 49.8024L48.2349 51.9448L47.8625 52.0343C45.511 52.5985 44.4188 55.2783 45.757 57.2002C46.0233 57.5826 46.0233 57.5942 45.757 57.9765C45.1661 58.8251 45.0199 59.8292 45.3329 60.889C45.6534 61.9737 47.241 63.2343 48.2866 63.2343C48.4242 63.2343 48.5334 63.5363 48.6397 64.211C49.0632 66.9007 51.0634 69.105 53.7055 69.7933C57.4773 70.7758 61.3858 68.1472 62.0055 64.211C62.1117 63.5363 62.221 63.2343 62.3586 63.2343C62.9863 63.2343 63.7804 62.8303 64.4302 62.1805C65.5686 61.042 65.7855 59.7788 65.0824 58.3846L64.6807 57.5884L65.0824 56.7922C65.5183 55.9278 65.587 55.2131 65.32 54.3219C65.0142 53.301 63.909 52.3045 62.7827 52.0343L62.4102 51.9448L62.9493 49.8024L63.4883 47.66L66.0385 45.1067C67.4412 43.7024 68.5887 42.4727 68.5887 42.3743C68.5887 42.2758 68.3924 41.8062 68.1525 41.3308C67.5716 40.1802 67.669 39.9737 68.9938 39.547L70 39.2229V35.0047V30.7865L68.9938 30.4624C67.669 30.0357 67.5716 29.8292 68.1525 28.6786C68.3924 28.2032 68.5887 27.7325 68.5887 27.6324C68.5887 27.3968 62.927 21.7368 62.6914 21.7368C62.5927 21.7368 62.1232 21.9331 61.6478 22.1731C60.4974 22.754 60.2909 22.6566 59.8643 21.3317L59.5402 20.3253H55.3226H51.1049L50.7809 21.3317ZM4.51613 25.9712V30.488H3.3871H2.25806V25.9712V21.4545H3.3871H4.51613V25.9712ZM58.2185 23.3693L58.498 24.1549L59.6623 24.6203L60.8265 25.0855L61.5603 24.7455L62.2941 24.4056L64.1072 26.2189L65.9202 28.0323L65.5804 28.7661L65.2404 29.5001L65.7056 30.6644L66.1709 31.8289L66.9564 32.1083L67.7419 32.3878V35.0047V37.6216L66.9564 37.901L66.1709 38.1805L65.7056 39.345L65.2404 40.5093L65.5804 41.2433L65.9202 41.9771L64.1072 43.7904L62.2941 45.6038L61.5603 45.2639L60.8265 44.9239L59.6623 45.3891L58.498 45.8545L58.2185 46.6401L57.9391 47.4257H55.3226H52.706L52.4266 46.6397L52.1472 45.8535L50.9916 45.3846L49.836 44.9157L49.0936 45.2598L48.3511 45.6038L46.538 43.7904L44.7249 41.9771L45.0648 41.2433L45.4047 40.5093L44.9396 39.345L44.4743 38.1805L43.6888 37.901L42.9032 37.6216V35.0047V32.3878L43.6888 32.1083L44.4743 31.8289L44.9396 30.6644L45.4047 29.5001L45.0648 28.7661L44.7249 28.0323L46.538 26.2189L48.3511 24.4056L49.0936 24.7496L49.836 25.0937L50.9916 24.6248L52.1472 24.1559L52.4266 23.3697L52.706 22.5837H55.3226H57.9391L58.2185 23.3693ZM22.5806 27.1004V30.488H21.4516H20.3226V27.1004V23.7129H21.4516H22.5806V27.1004ZM53.3615 26.1894C51.8037 26.5275 50.1755 27.4387 48.9687 28.648C45.4378 32.1861 45.4087 37.8155 48.9036 41.2858C50.6295 42.9995 52.5198 43.8655 54.8156 43.9943C58.9346 44.2252 62.7124 41.5933 63.9708 37.6159C64.4143 36.2148 64.4143 33.7946 63.9708 32.3935C62.5491 27.9 57.9294 25.1984 53.3615 26.1894ZM56.9396 28.4457C59.3738 29.0799 61.2487 30.9611 61.8862 33.4087C62.8003 36.9187 60.554 40.6221 56.9396 41.5637C53.414 42.4821 49.7071 40.2414 48.7645 36.622C47.5077 31.7961 52.1144 27.1888 56.9396 28.4457ZM54.2641 30.6105C52.9626 30.9525 51.8195 31.8914 51.2337 33.0992C50.9553 33.6731 50.8906 34.0289 50.8869 35.0047C50.8827 36.1048 50.9222 36.2784 51.3618 37.0938C51.8958 38.0844 52.3387 38.5121 53.4022 39.0648C54.0169 39.3842 54.2995 39.4394 55.3226 39.4394C56.3456 39.4394 56.6283 39.3842 57.2429 39.0648C58.3065 38.5121 58.7493 38.0844 59.2834 37.0938C59.7224 36.2794 59.7626 36.1034 59.7598 35.0047C59.7571 33.9852 59.7004 33.6967 59.3822 33.0841C58.8322 32.0256 58.4012 31.5766 57.4469 31.0679C56.5371 30.583 55.1353 30.3814 54.2641 30.6105ZM56.2158 32.9389C57.6657 33.5448 58.0193 35.4461 56.8917 36.574C55.3061 38.1598 52.7077 36.7394 53.1249 34.5148C53.3743 33.186 54.9205 32.3975 56.2158 32.9389ZM11.2903 37.2631V39.5214H24.8387H38.3871V38.3922V37.2631H25.9677H13.5484V36.1339V35.0047H12.4194H11.2903V37.2631ZM11.2903 46.2965V48.5549H12.4194H13.5484V47.4257V46.2965H25.9677H38.3871V45.1673V44.0382H24.8387H11.2903V46.2965ZM50.2695 47.6021C50.392 47.6993 50.6316 48.2074 50.8019 48.7313L51.1117 49.6841H55.326H59.5402L59.8643 48.6777C60.0984 47.9506 60.278 47.6304 60.5113 47.5241C61.1672 47.2253 61.182 47.5474 60.6172 49.8159L60.0878 51.9424H55.3226H50.5574L50.0326 49.8347C49.744 48.6754 49.5498 47.6592 49.6009 47.5763C49.7251 47.3755 49.9967 47.3859 50.2695 47.6021ZM10.6552 49.8266C8.60619 50.201 6.83756 51.1485 5.27992 52.7063C4.00821 53.9782 3.26685 55.1754 2.70855 56.8591C2.3951 57.804 2.34966 58.1829 2.34994 59.8467C2.35022 61.5288 2.39411 61.8846 2.72393 62.8814C3.2605 64.5029 4.00228 65.6853 5.29192 66.9751C6.58155 68.2649 7.76379 69.0068 9.38508 69.5435C10.382 69.8735 10.7371 69.9172 12.4194 69.9172C14.1016 69.9172 14.4567 69.8735 15.4536 69.5435C17.0749 69.0068 18.2572 68.2649 19.5468 66.9751C20.8364 65.6853 21.5782 64.5029 22.1148 62.8814C22.4447 61.8843 22.4885 61.5292 22.4885 59.8467C22.4885 58.1642 22.4447 57.8091 22.1148 56.8121C21.5782 55.1905 20.8364 54.0081 19.5468 52.7183C17.5776 50.7489 15.5434 49.8485 12.8427 49.7511C12.0277 49.7218 11.0433 49.7556 10.6552 49.8266ZM13.9105 52.0933C16.6297 52.5831 19.0365 54.7598 19.987 57.5884C20.3809 58.7606 20.3502 61.0311 19.9237 62.2731C19.0782 64.7355 17.2218 66.5546 14.6774 67.4141C13.6027 67.7771 11.2394 67.7777 10.1613 67.4154C6.33528 66.1294 4.06437 62.5525 4.62607 58.6975C4.99554 56.1626 6.61443 53.9487 8.93318 52.8071C10.6019 51.9855 12.111 51.7691 13.9105 52.0933ZM62.8793 54.5473C63.0978 54.7657 63.2258 55.055 63.2258 55.33C63.2258 55.605 63.0978 55.8943 62.8793 56.1127L62.533 56.4592H55.3226H48.1122L47.7658 56.1127C47.5474 55.8943 47.4194 55.605 47.4194 55.33C47.4194 55.055 47.5474 54.7657 47.7658 54.5473L48.1122 54.2008H55.3226H62.533L62.8793 54.5473ZM13.0917 58.6794L10.1662 61.6053L9.48853 60.9378C9.11581 60.5705 8.74718 60.2702 8.66927 60.2702C8.48764 60.2702 7.19758 61.5758 7.19758 61.7596C7.19758 61.8359 7.8647 62.5634 8.68014 63.3761L10.1628 64.854L13.9019 61.1164C15.9584 59.0605 17.6411 57.3123 17.6411 57.2311C17.6411 57.0466 16.3398 55.7534 16.1541 55.7534C16.0788 55.7534 14.7008 57.0701 13.0917 58.6794ZM62.8793 59.0641C63.0978 59.2824 63.2258 59.5718 63.2258 59.8467C63.2258 60.1217 63.0978 60.411 62.8793 60.6294L62.533 60.9759H55.3226H48.1122L47.7658 60.6294C47.5474 60.411 47.4194 60.1217 47.4194 59.8467C47.4194 59.5718 47.5474 59.2824 47.7658 59.0641L48.1122 58.7175H55.3226H62.533L62.8793 59.0641ZM59.7708 63.9004C59.6588 64.6482 59.1844 65.6656 58.6542 66.2959C58.4599 66.5268 57.9006 66.9318 57.4114 67.1956C56.5994 67.6336 56.4182 67.6752 55.3226 67.6752C54.227 67.6752 54.0458 67.6336 53.2337 67.1956C52.7446 66.9318 52.1853 66.5268 51.9909 66.2959C51.4607 65.6656 50.9864 64.6482 50.8743 63.9004L50.7744 63.2343H55.3226H59.8707L59.7708 63.9004Z" fill="white"/>
</svg>
