<svg width="70" height="70" viewBox="0 0 70 70" fill="none" xmlns="http://www.w3.org/2000/svg">
<path fill-rule="evenodd" clip-rule="evenodd" d="M2.26027 7.93232V15.8646H5.61644H8.9726V18.5303V21.1958L8.05027 23.0435L7.12795 24.8911H4.30342C1.59973 24.8911 1.45945 24.9042 1.02603 25.1988C0.776986 25.3681 0.444247 25.6802 0.286575 25.8926C0.010411 26.2647 0 26.4313 0 30.4849V34.691L0.394795 35.2077C1.05137 36.0673 1.26329 36.1057 5.33808 36.1057H8.9726V44.8343C8.9726 54.7032 8.94411 54.4109 10.0088 55.4737C10.9719 56.4353 11.2931 56.4836 16.7373 56.4836H21.4384L21.4414 61.92C21.4442 67.0931 21.4579 67.3861 21.7234 67.9718C22.0674 68.7305 22.5704 69.2732 23.2877 69.6597C23.8341 69.954 23.8653 69.955 34.6995 69.9922C41.9763 70.0172 45.7399 69.9822 46.0978 69.8859C46.9226 69.6642 47.7593 68.9552 48.1849 68.1173L48.5616 67.3756V61.9297V56.4836H53.2627C58.7068 56.4836 59.0281 56.4353 59.9912 55.4737C61.0559 54.4109 61.0274 54.7032 61.0274 44.8343V36.1057H64.6619C68.7367 36.1057 68.9486 36.0673 69.6052 35.2077L70 34.691V28.2283C70 21.8851 69.9947 21.7584 69.7134 21.3794C69.5557 21.167 69.223 20.8549 68.974 20.6856C68.5316 20.385 68.4344 20.3779 64.7742 20.3779H61.0274V18.1212V15.8646H64.3836H67.7397V7.93232V0H59.863H51.9863V7.93232V15.8646H55.3425H58.6986V18.6018V21.3392L57.8073 23.1151L56.9159 24.8911H54.1636C51.0199 24.8911 50.7037 24.9689 50.0905 25.894L49.726 26.4439V30.4984V34.5529L50.0905 35.1028C50.729 36.0661 50.9253 36.1057 55.0549 36.1057H58.6986V44.8348V53.5638L58.3816 53.8613C58.0686 54.1548 58.0029 54.1586 53.3189 54.1586H48.5732L48.5331 48.5855L48.4931 43.0123L48.1133 42.3671C47.6679 41.6108 46.7823 40.957 45.9404 40.7632C45.604 40.6858 43.32 40.6241 40.7192 40.6222L36.0959 40.6189V38.3623V36.1057H39.8427C43.5131 36.1057 43.599 36.0994 44.0518 35.7947C44.306 35.6238 44.6542 35.2761 44.8255 35.0223L45.137 34.5608V28.2418V21.9227L44.8288 21.4706C44.1289 20.4439 44.1738 20.4539 39.956 20.3779L36.1644 20.3095L36.1267 18.0895L36.0892 15.8694L39.4829 15.8329L42.8767 15.7963L42.9121 7.89813L42.9474 0H35H27.0526L27.0879 7.89813L27.1233 15.7963L30.5137 15.8328L33.9041 15.8694V18.4674V21.0654L32.9442 22.9782L31.9845 24.8911H29.1974C26.5253 24.8911 26.3914 24.9039 25.9482 25.2021C25.694 25.373 25.3458 25.7207 25.1745 25.9745C24.8678 26.4287 24.863 26.4993 24.863 30.4984C24.863 34.4975 24.8678 34.5681 25.1745 35.0223C25.3458 35.2761 25.694 35.6238 25.9482 35.7947C26.401 36.0994 26.4868 36.1057 30.1573 36.1057H33.9041V38.3623V40.6189L29.2808 40.6222C26.68 40.6241 24.396 40.6858 24.0596 40.7632C23.2177 40.957 22.3321 41.6108 21.8867 42.3671L21.5068 43.0123L21.4668 48.5855L21.4268 54.1586H16.6619H11.8971L11.5992 53.8421L11.3014 53.5255V44.8157V36.1057H14.937C19.0552 36.1057 19.3307 36.0477 19.9519 35.05L20.274 34.5329V28.2318V21.9307L19.9095 21.3807C19.271 20.4175 19.0747 20.3779 14.9451 20.3779H11.3014V18.1212V15.8646H14.6575H18.0137V7.93232V0H10.137H2.26027V7.93232ZM15.8219 7.93232V13.5396H10.137H4.45205V7.93232V2.32499H10.137H15.8219V7.93232ZM40.6164 7.93232V13.5396H35H29.3836V7.93232V2.32499H35H40.6164V7.93232ZM65.5479 7.93232V13.5396H59.863H54.1781V7.93232V2.32499H59.863H65.5479V7.93232ZM6.78082 5.67571V6.83821H10.137H13.4932V5.67571V4.51322H10.137H6.78082V5.67571ZM31.6041 5.64152L31.6438 6.76982H35H38.3562L38.3959 5.64152L38.4358 4.51322H35H31.5642L31.6041 5.64152ZM56.5068 5.67571V6.83821H59.863H63.2192V5.67571V4.51322H59.863H56.5068V5.67571ZM6.78082 10.1889V11.3514H10.137H13.4932V10.1889V9.02643H10.137H6.78082V10.1889ZM31.6041 10.1547L31.6438 11.283H35H38.3562L38.3959 10.1547L38.4358 9.02643H35H31.5642L31.6041 10.1547ZM56.5068 10.1889V11.3514H59.863H63.2192V10.1889V9.02643H59.863H56.5068V10.1889ZM18.0137 23.7286V24.8911H13.9041C11.3018 24.8911 9.79452 24.8417 9.79452 24.7566C9.79452 24.6826 10.0238 24.1595 10.304 23.5941L10.8136 22.5661H14.4136H18.0137V23.7286ZM42.9452 23.7286V24.8911H38.7671C36.4692 24.8911 34.589 24.8589 34.589 24.8197C34.589 24.7804 34.8363 24.2573 35.1385 23.6572L35.6879 22.5661H39.3166H42.9452V23.7286ZM67.7397 23.7286V24.8911H63.6301C61.3699 24.8911 59.5205 24.8589 59.5205 24.8197C59.5205 24.7804 59.7678 24.2573 60.07 23.6572L60.6195 22.5661H64.1796H67.7397V23.7286ZM18.0137 30.4984V33.9175H10.137H2.26027V30.4984V27.0793H10.137H18.0137V30.4984ZM42.9452 30.4984V33.9175H35H27.0548V30.4984V27.0793H35H42.9452V30.4984ZM67.7397 30.4984V33.9175H59.863H51.9863V30.4984V27.0793H59.863H67.7397V30.4984ZM45.9693 43.2965C46.297 43.6444 46.3019 43.6892 46.343 46.6472L46.3847 49.6454H35H23.6153L23.657 46.6472C23.6981 43.6892 23.703 43.6444 24.0307 43.2965L24.3629 42.9439H35H45.6371L45.9693 43.2965ZM25.9589 46.2947V47.4571H27.0548H28.1507V46.2947V45.1322H27.0548H25.9589V46.2947ZM30.4795 46.2947V47.4571H31.5753H32.6712V46.2947V45.1322H31.5753H30.4795V46.2947ZM46.3699 55.3211V58.6718H35H23.6301V55.3211V51.9704H35H46.3699V55.3211ZM37.2492 54.3431C37.2103 54.4446 37.1967 54.9524 37.2193 55.4714L37.2603 56.4152L38.3904 56.4549L39.5205 56.4947V55.3266V54.1586H38.4204C37.6234 54.1586 37.3007 54.2095 37.2492 54.3431ZM41.8493 55.3211V56.4836H42.9452H44.0411V55.3211V54.1586H42.9452H41.8493V55.3211ZM46.3699 63.7801C46.3699 66.6569 46.2729 67.3205 45.8166 67.5643C45.4755 67.7465 24.5245 67.7465 24.1834 67.5643C23.7271 67.3205 23.6301 66.6569 23.6301 63.7801V60.9968H35H46.3699V63.7801ZM25.9589 64.3475V65.51H27.0548H28.1507V64.3475V63.185H27.0548H25.9589V64.3475ZM30.4795 64.3475V65.51H31.5753H32.6712V64.3475V63.185H31.5753H30.4795V64.3475Z" fill="white"/>
</svg>
