<svg width="70" height="70" viewBox="0 0 70 70" fill="none" xmlns="http://www.w3.org/2000/svg">
<path fill-rule="evenodd" clip-rule="evenodd" d="M14.5822 0.20584C11.692 0.757834 9.41584 1.9749 7.3326 4.08222C5.51548 5.92018 4.34531 8.00887 3.71275 10.5434C3.37777 11.8854 3.37763 15.2326 3.71233 16.5738C5.06846 22.0061 9.31297 25.9783 14.7385 26.8926L15.7333 27.0603L15.7711 30.462L15.8088 33.8639L14.7128 33.9532C7.79809 34.5157 2.95771 36.3232 0.985097 39.0794C-0.0386025 40.5096 0.000341884 39.9774 0.000341884 52.5538C0.000341884 64.852 -0.0418478 64.1833 0.811117 65.4188C1.88844 66.9795 5.33938 68.5594 9.31311 69.3111C12.1261 69.8434 13.4303 69.9527 16.9327 69.9502C21.4536 69.947 24.3167 69.5674 27.6535 68.5285C30.9923 67.4891 32.8933 66.1642 33.6468 64.3515C33.8246 63.9238 33.865 63.1466 33.865 60.149V56.4714L37.2861 56.5093L40.7075 56.5471L40.8116 57.3821C41.0527 59.3154 41.9748 61.7456 43.1295 63.4915C43.8109 64.5219 45.3971 66.2035 46.4594 67.0217C50.8646 70.4147 56.8861 70.9534 61.9444 68.4072C63.39 67.6795 64.0764 67.1876 65.3636 65.9574C67.7888 63.639 69.2574 60.8851 69.7794 57.6765C70.8134 51.3208 67.5821 45.1186 61.6973 42.1632C60.5383 41.5813 58.6145 40.994 57.3585 40.8388L56.5119 40.7344L56.4755 32.7938L56.439 24.8533H61.7505C65.5082 24.8533 67.2318 24.803 67.6427 24.6816C68.4177 24.4525 69.5866 23.283 69.8156 22.5075C70.0614 21.6753 70.0614 3.18449 69.8156 2.35226C69.5866 1.57679 68.4177 0.407297 67.6427 0.178169C66.8603 -0.0530752 58.4665 -0.0619692 57.7003 0.167581C56.8925 0.409838 56.2702 1.00023 54.8758 2.84779L53.6106 4.5241H48.5869C45.0551 4.5241 43.3908 4.57507 42.9824 4.69577C42.2074 4.9249 41.0385 6.09439 40.8095 6.86987C40.7032 7.22986 40.6379 8.39893 40.6379 9.94211V12.4334L35.5324 12.3963L30.4267 12.3593L30.2592 11.364C30.0098 9.8824 29.6739 8.83728 29.0395 7.56868C27.2329 3.95488 23.9361 1.31858 20.0187 0.354638C18.7598 0.0450414 15.8425 -0.0348636 14.5822 0.20584ZM67.3832 2.61189C67.7296 2.95833 67.7296 2.95875 67.7296 6.00009V9.0417H55.3126H42.8955V8.25889C42.8955 7.61583 42.9575 7.41395 43.2419 7.12949L43.5882 6.7829H49.1644H54.7407L56.242 4.77116C57.0677 3.66463 57.8702 2.64817 58.0251 2.51236C58.2805 2.28845 58.7162 2.2653 62.6719 2.2653H67.0369L67.3832 2.61189ZM13.1802 3.75978C12.472 4.81633 11.758 6.18277 11.3607 7.24172L11.1091 7.9123H9.14492H7.18063L7.43546 7.46915C7.88713 6.68436 9.73261 4.83059 10.7093 4.18105C11.5339 3.63258 13.6801 2.63461 13.7927 2.74727C13.8144 2.76901 13.5389 3.22473 13.1802 3.75978ZM18.8586 5.1193C19.2003 5.64065 19.6688 6.46653 19.8995 6.95457L20.3191 7.84171L18.6259 7.88138C17.6946 7.90312 16.1663 7.90312 15.2297 7.88138L13.5267 7.84171L14.104 6.68831C14.7209 5.45572 15.6681 4.07305 16.4744 3.22854L16.9699 2.70944L17.6036 3.4403C17.9521 3.84223 18.5168 4.59779 18.8586 5.1193ZM22.7699 3.91239C23.6978 4.46763 26.0103 6.70723 26.4298 7.45673L26.6847 7.9123H24.7204H22.7562L22.5047 7.24172C22.1076 6.18361 21.3935 4.81662 20.6871 3.76274C20.3296 3.2291 20.0369 2.76986 20.0369 2.74191C20.0369 2.6109 22.0002 3.45174 22.7699 3.91239ZM58.699 5.6535V6.7829H59.8278H60.9567V5.6535V4.5241H59.8278H58.699V5.6535ZM63.2143 5.6535V6.7829H64.3431H65.4719V5.6535V4.5241H64.3431H63.2143V5.6535ZM10.3432 11.0534C10.198 12.1885 10.198 14.9301 10.3432 16.0652L10.4559 16.9475H8.32892H6.2018L6.06197 16.5795C5.98507 16.377 5.84679 15.6147 5.75479 14.8854C5.58321 13.5265 5.7332 11.4043 6.06197 10.5391L6.2018 10.1711H8.32892H10.4559L10.3432 11.0534ZM21.2627 11.3005C21.5364 13.0302 21.4539 15.4657 21.0797 16.7026C21.0095 16.9344 20.7177 16.9492 16.8872 16.9143L12.7701 16.8769L12.6026 15.8181C12.3289 14.0884 12.4114 11.6529 12.7856 10.416C12.8558 10.1842 13.1476 10.1694 16.9781 10.2043L21.0952 10.2417L21.2627 11.3005ZM27.9221 10.9476C28.1835 11.8923 28.1835 15.2263 27.9221 16.171L27.727 16.8769L25.5708 16.9159L23.4148 16.9548L23.5248 15.9982C23.5855 15.4721 23.635 14.3746 23.635 13.5593C23.635 12.744 23.5855 11.6465 23.5248 11.1204L23.4148 10.1638L25.5708 10.2027L27.727 10.2417L27.9221 10.9476ZM67.7296 16.6009V21.9015L67.3832 22.2479L67.0369 22.5945H55.3126H43.5882L43.2419 22.2479L42.8955 21.9015V16.6009V11.3005H55.3126H67.7296V16.6009ZM13.5462 13.5593V14.6887H14.675H15.8038V13.5593V12.4299H14.675H13.5462V13.5593ZM18.0615 13.5593V14.6887H19.1903H20.3191V13.5593V12.4299H19.1903H18.0615V13.5593ZM40.6379 18.3076C40.6379 20.7362 40.6943 22.1176 40.8095 22.5075C41.0385 23.283 42.2074 24.4525 42.9824 24.6816C43.3933 24.803 45.1169 24.8533 48.8746 24.8533H54.1861L54.1496 32.7938L54.1132 40.7344L53.2786 40.8387C48.5611 41.4281 44.1381 44.7115 42.0468 49.1765C41.4401 50.4718 40.9693 52.0481 40.8116 53.3121L40.7075 54.1471L37.2861 54.185L33.865 54.2228V47.7518C33.865 42.4427 33.8274 41.1542 33.6556 40.5755C33.027 38.4578 30.5053 36.52 26.8098 35.3151C24.6751 34.6191 22.4296 34.2197 19.1525 33.9532L18.0565 33.8639L18.0942 30.4623L18.132 27.0606L19.227 26.8756C22.5715 26.3107 25.637 24.4534 27.6913 21.7475C28.9885 20.0388 30.3323 16.7333 30.3364 15.2417C30.337 15.0411 30.3797 14.8345 30.4315 14.7829C30.4832 14.7311 32.8008 14.6887 35.5818 14.6887H40.6379V18.3076ZM45.1532 19.2063V20.3357H46.282H47.4108V19.2063V18.0769H46.282H45.1532V19.2063ZM49.6685 19.2063V20.3357H50.7973H51.9261V19.2063V18.0769H50.7973H49.6685V19.2063ZM54.1837 19.2063V20.3357H55.3126H56.4414V19.2063V18.0769H55.3126H54.1837V19.2063ZM11.3607 19.8769C11.758 20.9358 12.472 22.3023 13.1802 23.3588C13.5389 23.8939 13.8151 24.349 13.7941 24.3699C13.6764 24.4877 11.596 23.5274 10.7505 22.9651C9.73952 22.2925 7.89447 20.4472 7.43546 19.6495L7.18063 19.2063H9.14492H11.1091L11.3607 19.8769ZM20.1024 19.7357C19.5536 21.0527 18.1183 23.2222 17.2614 24.0297L16.8621 24.4059L16.0173 23.3732C15.1755 22.3441 13.9749 20.3944 13.7037 19.616L13.5609 19.2063H16.9418H20.3229L20.1024 19.7357ZM26.4298 19.6495C25.9708 20.4472 24.1258 22.2925 23.1148 22.9651C22.2693 23.5274 20.1889 24.4877 20.0712 24.3699C20.0502 24.349 20.3265 23.8939 20.6851 23.3588C21.3933 22.3023 22.1073 20.9358 22.5047 19.8769L22.7562 19.2063H24.7204H26.6847L26.4298 19.6495ZM21.8271 36.4909C27.4411 37.3175 31.6073 39.5767 31.6073 41.7943C31.6073 44.0096 27.4702 46.2371 21.7301 47.1122C19.7249 47.4179 14.5666 47.4568 12.5585 47.1814C9.44871 46.7549 6.25105 45.7531 4.53467 44.6676C1.51663 42.7588 1.51663 40.8298 4.53467 38.921C6.29084 37.8103 9.67659 36.7627 12.5585 36.4381C13.2957 36.3551 14.1212 36.2614 14.3928 36.2298C15.4145 36.1107 20.4454 36.2875 21.8271 36.4909ZM10.1597 38.5906C9.88811 38.6763 9.34627 39.0669 8.95556 39.4586C7.95839 40.4585 7.68296 41.5135 8.07367 42.8367C8.30268 43.6122 9.47157 44.7817 10.2466 45.0108C11.0681 45.2537 22.7972 45.2537 23.6187 45.0108C24.3937 44.7817 25.5626 43.6122 25.7916 42.8367C26.161 41.5859 25.9138 40.5311 25.0177 39.5338C23.9971 38.3979 24.0404 38.4038 16.8723 38.4205C12.7707 38.43 10.4854 38.488 10.1597 38.5906ZM23.3592 41.0115C23.5776 41.2299 23.7056 41.5193 23.7056 41.7943C23.7056 42.0693 23.5776 42.3587 23.3592 42.5771L23.0129 42.9237H16.9327H10.8524L10.5061 42.5771C10.2877 42.3587 10.1597 42.0693 10.1597 41.7943C10.1597 41.5193 10.2877 41.2299 10.5061 41.0115L10.8524 40.6649H16.9327H23.0129L23.3592 41.0115ZM57.5051 43.1404C59.9496 43.5669 62.2592 44.7807 64.0663 46.5889C67.907 50.4314 68.8044 56.1682 66.3259 61.0342C66.0465 61.5828 65.756 62.0522 65.6802 62.0775C65.6044 62.1026 65.3581 61.7898 65.1326 61.3822C64.9071 60.9746 64.1741 60.0948 63.5034 59.4271C62.5328 58.4604 62.0343 58.089 61.0583 57.6051L59.8324 56.9973L60.3856 56.3967C62.771 53.8076 62.587 49.5983 59.9799 47.1104C56.1952 43.4984 50.0757 45.2707 48.7502 50.3626C48.2131 52.4251 48.8107 54.8459 50.2395 56.3967L50.7928 56.9973L49.5669 57.6051C48.5909 58.089 48.0923 58.4604 47.1217 59.4271C46.451 60.0948 45.718 60.9746 45.4925 61.3822C45.267 61.7898 45.0207 62.1026 44.9449 62.0775C44.8691 62.0522 44.5786 61.5828 44.2992 61.0342C41.8184 56.1632 42.7144 50.4352 46.5588 46.5889C49.467 43.6791 53.4326 42.4299 57.5051 43.1404ZM4.58618 47.2616C7.5482 48.7394 11.1923 49.5108 15.8744 49.651C22.0179 49.8349 27.6708 48.5782 31.0076 46.2866L31.6073 45.8748V47.9988V50.1228L31.1123 50.6711C29.8816 52.034 26.5111 53.2526 22.224 53.8848C19.8409 54.2362 14.0244 54.2362 11.6413 53.8848C7.35419 53.2526 3.98367 52.034 2.75297 50.6711L2.25798 50.1228V47.9988V45.8748L2.85767 46.2866C3.18743 46.5131 3.96532 46.9519 4.58618 47.2616ZM57.4364 48.0214C58.3906 48.5302 58.8215 48.9793 59.3714 50.0379C59.6896 50.6506 59.7463 50.9392 59.749 51.9589C59.7518 53.0578 59.7116 53.2339 59.2726 54.0484C58.7387 55.0392 58.2959 55.467 57.2325 56.0198C56.618 56.3393 56.3354 56.3945 55.3126 56.3945C54.2897 56.3945 54.0071 56.3393 53.3926 56.0198C52.3292 55.467 51.8864 55.0392 51.3525 54.0484C50.913 53.2329 50.8735 53.0592 50.8777 51.9589C50.8829 50.5429 51.2178 49.6959 52.1344 48.7795C53.543 47.3713 55.6519 47.0696 57.4364 48.0214ZM5.78555 54.8385C7.61142 55.4478 9.30719 55.8301 11.5866 56.1464C13.7783 56.4505 19.5469 56.4933 21.7301 56.2215C25.3163 55.7752 28.52 54.8951 30.5843 53.7892L31.6073 53.2412V55.0703V56.8992L31.1123 57.4475C29.8816 58.8104 26.5111 60.029 22.224 60.6612C19.8409 61.0126 14.0244 61.0126 11.6413 60.6612C7.35419 60.029 3.98367 58.8104 2.75297 57.4475L2.25798 56.8992V55.0703V53.2412L3.28098 53.7926C3.84355 54.096 4.97068 54.5666 5.78555 54.8385ZM58.9982 59.1826C60.2431 59.651 61.0292 60.129 61.8426 60.9124C62.6059 61.6475 63.5401 63.0238 63.7899 63.7808C63.951 64.2691 63.9391 64.304 63.48 64.6976C62.7022 65.3642 61.207 66.314 60.3111 66.7106C58.6592 67.4419 57.3852 67.692 55.3126 67.692C53.1274 67.692 51.7928 67.4071 50.0082 66.5598C48.8807 66.0245 46.7045 64.4659 46.7067 64.1953C46.7094 63.8708 47.3799 62.606 47.9466 61.8567C48.7276 60.824 49.6847 60.0536 50.8774 59.4977C52.2811 58.8434 52.9412 58.746 55.6653 58.7912C57.8204 58.8271 58.159 58.8667 58.9982 59.1826ZM5.78555 61.6149C7.6069 62.2226 9.30112 62.6051 11.5866 62.9244C14.0274 63.2655 19.838 63.2655 22.2787 62.9244C25.6741 62.45 28.6725 61.5998 30.5843 60.569L31.6073 60.0176V61.8467V63.6756L31.1123 64.2239C29.8816 65.5868 26.5111 66.8054 22.224 67.4376C19.8409 67.789 14.0244 67.789 11.6413 67.4376C7.35419 66.8054 3.98367 65.5868 2.75297 64.2239L2.25798 63.6756V61.8467V60.0176L3.28098 60.569C3.84355 60.8724 4.97068 61.343 5.78555 61.6149Z" fill="white"/>
</svg>
