<svg width="70" height="70" viewBox="0 0 70 70" fill="none" xmlns="http://www.w3.org/2000/svg">
<path fill-rule="evenodd" clip-rule="evenodd" d="M50.4214 0.148142C45.68 0.948306 41.6035 3.56484 39.0003 7.47878C37.1098 10.3212 36.2018 13.1958 36.1618 16.4658L36.143 18.0043L18.9825 18.0051L1.82217 18.0058L1.22712 18.3209C0.81954 18.5367 0.532605 18.8246 0.316038 19.2345L0 19.833L0.0356619 38.5441L0.0711871 57.2551L0.357029 57.6414C0.514296 57.8539 0.846183 58.1661 1.09459 58.3355C1.54603 58.6432 1.54931 58.6434 7.53804 58.6434H13.5298V60.901V63.1587H8.67977H3.82976L2.12072 66.5793L0.411683 70H25.8947C39.9104 70 51.3778 69.9695 51.3778 69.9323C51.3778 69.8951 50.6252 68.3558 49.7053 66.5116L48.0328 63.1587H43.2151H38.3974V60.901V58.6434H44.3892H50.3809L50.8452 58.3344C51.1006 58.1645 51.4478 57.7513 51.6169 57.416C51.9019 56.8509 51.9244 56.6265 51.9244 54.3298V51.8529L52.71 51.9074C53.768 51.9807 55.3182 51.6342 56.5476 51.0496C58.5044 50.1189 60.2068 47.9721 60.6851 45.8316C60.8289 45.188 60.8905 45.0975 61.1846 45.0975C61.6293 45.0975 62.4467 44.6216 62.7869 44.1646C63.0491 43.8126 63.0629 43.527 63.1285 37.1239L63.1968 30.4502L63.9501 29.8037C65.6331 28.3594 67.2532 26.297 68.22 24.3683C68.7246 23.3615 69.3473 21.5195 69.6307 20.195C69.9775 18.5743 69.9833 15.2295 69.6422 13.6274C68.9047 10.1652 67.4109 7.38231 64.9745 4.93215C62.6095 2.55397 59.7444 0.996332 56.4112 0.276896C54.9963 -0.028501 51.867 -0.0958197 50.4214 0.148142ZM55.8584 2.48733C60.3684 3.41502 64.0856 6.23926 66.1085 10.2751C67.2044 12.4617 67.6374 14.3156 67.6374 16.8219C67.6374 20.2225 66.7319 23.0044 64.7514 25.6878C64.0199 26.6791 62.5964 28.0824 61.5841 28.8105L60.9423 29.272V31.5804V33.8888L59.8151 33.849L58.6878 33.8093L58.6505 31.2844L58.6131 28.7596L59.603 27.7616L60.5931 26.7636L59.7805 25.9414L58.9679 25.119L57.7006 26.3829L56.4333 27.6466V30.7678V33.8888L55.3061 33.849L54.1788 33.8093L54.1424 30.4229L54.1057 27.0364H53.0151H51.9244V30.4625V33.8888L50.7971 33.849L49.6699 33.8093L49.6332 30.7255L49.5966 27.6417L48.3318 26.3804L47.067 25.119L46.2544 25.9414L45.4418 26.7636L46.4286 27.7584L47.4154 28.7532V31.321V33.8888L46.2881 33.849L45.1609 33.8093L45.1235 31.534L45.0862 29.2586L44.0607 28.4721C42.1234 26.9862 40.549 24.9698 39.5937 22.7508C38.8002 20.9075 38.5188 19.6003 38.4399 17.3901C38.3618 15.1995 38.6386 13.4537 39.3621 11.575C40.5738 8.42863 43.1992 5.48726 46.1966 3.91799C47.3748 3.30118 49.3492 2.60596 50.4368 2.42508C51.6992 2.21518 54.7028 2.24967 55.8584 2.48733ZM49.6015 5.44676V6.43369L48.9165 5.75804L48.2315 5.08225L45.8437 7.47056L43.4558 9.85888L44.167 10.5801L44.8783 11.3013H43.8924H42.9064V14.6536V18.0058H43.8924H44.8783L44.167 18.727L43.4558 19.4482L45.8437 21.8366L48.2315 24.2249L48.9098 23.5558L49.588 22.8868L49.629 23.8327L49.6699 24.7787L53.0516 24.8153L56.4333 24.8519V23.8627V22.8734L57.1184 23.5491L57.8034 24.2249L60.1912 21.8366L62.5791 19.4482L61.8679 18.727L61.1565 18.0058H62.1425H63.1285V14.6536V11.3013H62.2403C61.7519 11.3013 61.3522 11.2572 61.3522 11.2033C61.3522 11.1496 61.6282 10.8249 61.9654 10.482L62.5788 9.85847L60.1911 7.47043L57.8034 5.08225L57.1184 5.75804L56.4333 6.43369V5.44676V4.45997H53.0174H49.6015V5.44676ZM54.1392 7.89391L54.1788 9.00166L55.1771 9.42131L56.1754 9.84082L56.9875 9.036L57.7997 8.23132L58.6198 9.04394L59.4398 9.85669L58.6292 10.6816L57.8184 11.5065L58.238 12.4985L58.6576 13.4905H59.8H60.9423V14.6482V15.8059L59.765 15.8455L58.5879 15.885L58.2048 16.8428L57.8218 17.8006L58.6308 18.6255L59.4398 19.4504L58.6497 20.2336L57.8594 21.0167L57.1121 20.2554C56.2688 19.3961 56.2071 19.3883 54.8832 19.9746L54.1105 20.3168V21.419V22.5211H53.0174H51.9244V21.3797V20.2383L50.9986 19.8746C50.4895 19.6746 50.0149 19.5109 49.9437 19.5109C49.8726 19.5109 49.4726 19.8497 49.0549 20.2636L48.2953 21.0163L47.4838 20.1952L46.6725 19.3741L47.4565 18.5806L48.2407 17.7872L47.8521 16.8361L47.4633 15.885L46.3122 15.8166L45.1609 15.7482L45.1213 14.6248L45.0816 13.5013L46.2616 13.4618L47.4417 13.4221L47.8607 12.4225L48.2797 11.4228L47.4747 10.6081L46.6696 9.79334L47.451 9.01096L48.2323 8.22845L49.0506 9.03929L49.8688 9.85012L50.8624 9.43772L51.856 9.02533L51.8957 7.90567L51.9354 6.78602H53.0174H54.0995L54.1392 7.89391ZM51.5878 11.5826C49.8286 12.4615 49.1621 14.5143 50.0848 16.212C51.5199 18.8525 55.2939 18.4972 56.2442 15.632C56.7746 14.0329 55.8925 12.1576 54.2957 11.4894C53.6282 11.2102 52.2378 11.2581 51.5878 11.5826ZM53.7751 13.8264C54.3688 14.4208 54.1827 15.3956 53.4252 15.6601C52.9191 15.8367 52.4496 15.6856 52.1431 15.2475C51.384 14.1621 52.8423 12.8922 53.7751 13.8264ZM36.6691 21.2005C36.789 21.6781 36.926 22.1707 36.9737 22.2951C37.0539 22.5044 35.8634 22.5211 20.7861 22.5211H4.51184V38.3239V54.1269L19.166 54.1616L33.8202 54.1965L33.8598 55.3253L33.8995 56.4541H18.1125H2.32567V38.393V20.3319H19.3884H36.4513L36.6691 21.2005ZM38.7967 26.0471C39.3195 26.8901 40.0332 27.7353 41.222 28.9193L42.9064 30.5969V32.5468V34.4967L40.8028 36.6L38.6991 38.7033L38.2547 38.5482C37.6858 38.3496 36.7861 38.3496 36.217 38.5483L35.772 38.7036L32.3888 35.3177L29.0055 31.9318L29.1997 31.297C29.5339 30.2048 29.2362 29.072 28.3736 28.1532C27.2939 27.0033 25.6943 26.7563 24.324 27.528C22.9967 28.2755 22.3313 29.8043 22.687 31.289L22.8558 31.9936L19.5249 35.3351C16.8208 38.0479 16.1428 38.6604 15.9209 38.5907C15.7706 38.5434 15.292 38.4721 14.8573 38.4321C13.8455 38.3391 13.0505 38.6316 12.3162 39.3669C10.7931 40.8922 11.0829 43.4852 12.9022 44.6115C13.8137 45.1759 15.1432 45.2671 16.05 44.8276C17.5869 44.0824 18.4108 42.2392 17.8838 40.7251L17.7287 40.2799L20.0977 37.9047C21.4005 36.5984 22.4823 35.5454 22.5015 35.5647C22.5208 35.584 22.0472 36.9058 21.449 38.5022L20.3616 41.4046V46.6717V51.9389H13.5981H6.83464V38.393V24.8472L22.4452 24.8499L38.0559 24.8525L38.7967 26.0471ZM26.7213 29.6984C27.3991 30.377 26.9188 31.5517 25.9636 31.5517C25.3922 31.5517 24.8705 31.0201 24.8705 30.4379C24.8705 29.4577 26.0217 28.9977 26.7213 29.6984ZM26.3331 34.0488C26.4798 34.2426 27.0567 35.7518 27.0567 35.9423C27.0567 36.0109 26.5393 36.067 25.9069 36.067H24.7571L25.1076 35.1434C25.5191 34.0585 25.6414 33.8777 25.9636 33.8777C26.0955 33.8777 26.2617 33.9548 26.3331 34.0488ZM34.0437 40.7244C33.814 41.3843 33.8605 42.4912 34.1441 43.1165C34.7015 44.3453 35.8698 45.0915 37.236 45.0915C39.0971 45.0915 40.5728 43.6695 40.5806 41.8683C40.5822 41.4845 40.5138 40.9699 40.4284 40.7247C40.2739 40.2807 40.2781 40.2742 41.5898 38.9606L42.9064 37.6422V40.5972C42.9064 43.444 42.9177 43.5689 43.2171 44.0136C43.5985 44.5805 44.34 45.0975 44.7712 45.0975H45.0926V48.5182V51.9389H38.3291H31.5657V46.6887V41.4385L30.4726 38.5298C29.8714 36.9301 29.3795 35.5831 29.3795 35.5368C29.3795 35.4902 30.4638 36.5381 31.7892 37.8653L34.199 40.2785L34.0437 40.7244ZM60.9423 37.23V38.393H53.0174H45.0926V37.3212C45.0926 36.7317 45.1336 36.2083 45.1837 36.1582C45.2337 36.108 48.7999 36.067 53.1086 36.067H60.9423V37.23ZM28.4362 39.5218L28.8254 40.5822H25.9599C24.3838 40.5822 23.0943 40.5668 23.0944 40.548C23.0944 40.5178 23.2905 39.9958 23.7638 38.7657L23.91 38.3859L25.9784 38.4237L28.0468 38.4614L28.4362 39.5218ZM15.5042 40.9983C15.8578 41.346 15.8575 42.1432 15.5038 42.4975C15.3569 42.6445 15.0396 42.8043 14.7987 42.8526C14.4303 42.9264 14.2944 42.874 13.9452 42.5244C13.4826 42.0612 13.4199 41.621 13.7494 41.1502C14.1757 40.5408 14.969 40.4721 15.5042 40.9983ZM38.0184 40.9677C38.1481 41.0948 38.2936 41.3964 38.3418 41.6376C38.4155 42.0065 38.3631 42.1426 38.014 42.4923C37.5308 42.9763 37.076 43.0224 36.5866 42.6368C36.1512 42.2937 36.0156 41.7688 36.2412 41.298C36.5785 40.5933 37.4682 40.4279 38.0184 40.9677ZM60.9423 41.7453V42.9083H53.0174H45.0926V41.8365C45.0926 41.2469 45.1336 40.7236 45.1837 40.6735C45.2337 40.6233 48.7999 40.5822 53.1086 40.5822H60.9423V41.7453ZM24.8705 47.4236V51.9389H23.7091H22.5477V47.4236V42.9083H23.7091H24.8705V47.4236ZM29.3795 47.4236V51.9389H28.2181H27.0567V47.4236V42.9083H28.2181H29.3795V47.4236ZM58.4309 45.5287C58.1568 46.9006 56.9935 48.2937 55.5073 49.0291C54.502 49.5267 54.4167 49.5444 53.0217 49.5444C51.6533 49.5444 51.5269 49.5198 50.628 49.0764C49.4484 48.4951 48.5589 47.619 47.9897 46.4781C47.2335 44.9627 46.7411 45.0975 53.0345 45.0975H58.517L58.4309 45.5287ZM49.2143 50.9244L49.6015 51.1249V53.7896V56.4541H47.3416H45.0815L45.1213 55.3253L45.1609 54.1965L46.2881 54.1568L47.4154 54.117V51.8617V49.6064L48.1212 50.1652C48.5094 50.4725 49.0013 50.8141 49.2143 50.9244ZM38.3687 55.3253L38.4085 56.4541H37.2415H36.0746V55.3824C36.0746 54.7928 36.1179 54.2671 36.171 54.214C36.224 54.1611 36.7312 54.1353 37.2982 54.1571L38.3291 54.1965L38.3687 55.3253ZM42.8777 55.3253L42.9175 56.4541H41.7505H40.5836V55.3824C40.5836 54.7928 40.6269 54.2671 40.6799 54.214C40.7329 54.1611 41.2401 54.1353 41.8072 54.1571L42.8381 54.1965L42.8777 55.3253ZM36.0746 60.901V63.1587H25.9636H15.8526V60.901V58.6434H25.9636H36.0746V60.901ZM60.3162 61.1637C58.3709 61.6076 56.318 63.1043 55.3025 64.8188C54.6125 65.9837 54.2858 67.0982 54.1695 68.684L54.0731 70H62.0365H70L69.9224 68.6659C69.8788 67.916 69.7214 66.9382 69.563 66.4327C68.846 64.1456 66.7975 62.0929 64.5047 61.364C63.3595 61.0001 61.4364 60.908 60.3162 61.1637ZM63.5225 63.4471C64.9307 63.7649 66.3957 64.9556 67.0894 66.346C67.8151 67.8 68.2948 67.674 62.0354 67.674C57.754 67.674 56.57 67.6369 56.5701 67.5029C56.5704 67.0445 57.4532 65.5403 58.1041 64.8888C59.5452 63.4468 61.3702 62.9612 63.5225 63.4471ZM47.1805 66.5132C47.4599 67.0789 47.6887 67.5715 47.6887 67.6079C47.6887 67.6441 37.881 67.674 25.8938 67.674H4.09893L4.64848 66.5793L5.19802 65.4847H25.9352H46.6722L47.1805 66.5132Z" fill="white"/>
</svg>
