<svg width="64" height="70" viewBox="0 0 64 70" fill="none" xmlns="http://www.w3.org/2000/svg">
<path fill-rule="evenodd" clip-rule="evenodd" d="M28.5586 0.211935C28.3696 0.398237 28.3435 1.13576 28.3435 6.27507V12.1261L28.6479 12.336C28.9002 12.5102 29.4505 12.5461 31.8664 12.5461H34.7803V14.6712V16.7964L30.8971 18.9207L27.0139 21.0451H22.8168C18.8324 21.0451 18.6197 21.0325 18.6197 20.7968C18.6197 20.3173 17.7842 18.9084 17.1679 18.3489C16.3322 17.59 15.4764 17.2375 14.2853 17.1616C12.0772 17.0207 10.1353 18.3002 9.48818 20.3221L9.25687 21.0451L8.49431 21.0464C7.05136 21.0488 5.57581 22.0428 5.13852 23.3067C4.95788 23.8292 4.92432 24.7966 4.92432 29.4899V35.0537L4.47922 35.1463C3.16843 35.4191 1.72973 36.6861 1.22081 38.0157C0.979769 38.6456 0.936766 38.9927 0.983467 39.9317C1.04921 41.2521 1.32037 41.8909 2.2292 42.8658C2.78414 43.4612 4.18203 44.2483 4.68465 44.2485C4.91049 44.2486 4.92432 44.7692 4.92432 53.2915C4.92432 63.111 4.89789 62.7473 5.68647 63.7657C5.87492 64.0092 6.31989 64.3767 6.67514 64.5824C7.24337 64.9115 7.49933 64.9645 8.80328 65.0238L10.2855 65.0913L10.526 65.7928C10.8787 66.8212 11.4633 67.5691 12.3633 68.1428C13.4707 68.8491 14.2234 68.9699 17.1624 68.9139C19.4965 68.8693 19.6925 68.8453 20.4001 68.5176C21.2914 68.1047 22.19 67.257 22.582 66.4595C23.5168 64.5572 23.1306 62.5452 21.5592 61.1305C20.4557 60.1371 19.9449 59.9996 17.0987 59.9305C14.3217 59.8631 13.3708 60.0238 12.2781 60.7448C11.5332 61.2363 10.5937 62.5112 10.4603 63.2113L10.3719 63.6748H9.25221C7.89746 63.6748 7.07272 63.3342 6.6394 62.5956C6.37932 62.1523 6.35988 61.8535 6.32112 57.7053C6.29852 55.2754 6.30605 53.2872 6.33796 53.2872C6.36987 53.2872 6.69651 53.4183 7.06396 53.5787C7.54494 53.7886 8.10563 53.888 9.06719 53.934C10.1028 53.9834 10.4025 54.041 10.4025 54.1905C10.4025 54.6774 11.1522 55.8818 11.8417 56.5025C12.923 57.476 13.4699 57.6283 16.1546 57.7035C19.5632 57.7992 20.6612 57.5043 21.9106 56.1577C22.5509 55.4675 22.8823 54.761 23.0766 53.6719C23.181 53.0875 22.9323 51.7924 22.5874 51.1233C22.2033 50.3781 21.2704 49.5175 20.4214 49.1255C19.6587 48.7733 19.602 48.7679 16.7024 48.7679C13.8037 48.7679 13.7458 48.7734 12.9843 49.1251C12.559 49.3215 11.9528 49.7365 11.6373 50.0473C11.0626 50.6134 10.4063 51.7877 10.4039 52.2543C10.4026 52.4823 10.2894 52.4992 9.04253 52.4567C7.52536 52.4049 7.14517 52.2355 6.63625 51.3843C6.38631 50.9665 6.35851 50.6393 6.31934 47.654C6.27894 44.5925 6.29222 44.3763 6.52477 44.2984C8.65838 43.5831 9.90329 42.2992 10.2417 40.4652C10.4054 39.5785 10.2357 38.3739 9.83933 37.6086C9.24714 36.4653 7.88733 35.3852 6.73897 35.1463L6.29386 35.0537L6.29469 29.7695C6.2951 26.7176 6.35234 24.2832 6.43027 24.007C6.50436 23.744 6.78183 23.3218 7.0467 23.069C7.47331 22.6616 7.6293 22.6028 8.41118 22.5537C9.287 22.4988 9.29453 22.5014 9.38848 22.8847C9.5064 23.3666 10.0411 24.3928 10.3689 24.7668C10.8828 25.353 11.9158 26.0133 12.5817 26.1814L13.2728 26.3558L13.3099 35.1336C13.3452 43.5041 13.3593 43.9357 13.6123 44.4379C13.9504 45.1094 14.5959 45.7452 15.2776 46.0783C15.7756 46.3217 16.1965 46.3424 21.4273 46.3805L27.0424 46.4214L30.8771 48.5398L34.7119 50.6582L34.7514 51.8378L34.791 53.0174H31.7939C29.0643 53.0174 28.7765 53.0394 28.5701 53.2641C28.3733 53.4783 28.3435 53.912 28.3435 56.5616C28.3435 59.5613 28.3486 59.6159 28.6479 59.8223C28.9002 59.9965 29.4505 60.0324 31.8664 60.0324H34.7803V61.0442V62.056H31.7771C29.2296 62.056 28.7412 62.0881 28.5586 62.2679C28.3757 62.4483 28.3435 62.9385 28.3435 65.5461C28.3435 67.7511 28.3896 68.6578 28.5078 68.7742C28.7446 69.0074 42.1856 69.0074 42.4224 68.7742C42.5408 68.6575 42.5867 67.735 42.5867 65.4737C42.5867 62.5088 42.5721 62.3275 42.3218 62.1956C42.1627 62.1117 40.8774 62.056 39.1034 62.056H36.1499V61.0442V60.0324H39.0638C41.4797 60.0324 42.03 59.9965 42.2823 59.8223C42.5818 59.6158 42.5867 59.5624 42.5867 56.5269C42.5867 53.9017 42.5547 53.4097 42.3716 53.2293C42.1889 53.0495 41.7002 53.0174 39.1478 53.0174H36.1392L36.1788 51.8463L36.2183 50.675L40.1776 48.501C42.3551 47.3052 44.2267 46.1935 44.3367 46.0305C44.5122 45.77 44.5116 45.6969 44.3321 45.4297C44.0525 45.0135 35.6686 40.4227 35.342 40.5068C35.2035 40.5425 33.2588 41.5837 31.0204 42.8206L26.9507 45.0696L21.5869 45.0301C16.3478 44.9915 16.2119 44.9837 15.7437 44.6963C15.4801 44.5346 15.1411 44.2007 14.9905 43.9544C14.7242 43.5192 14.7165 43.2674 14.7165 34.9646V26.4227L15.4287 26.1852C16.8833 25.7001 17.9851 24.6206 18.438 23.2373L18.6697 22.529L22.9246 22.5347L27.1794 22.5403L30.9456 24.6126L34.7119 26.6847V28.8227V30.9605L31.7095 30.9969C29.7764 31.0204 28.6426 31.0864 28.5254 31.182C28.3839 31.2978 28.3435 32.0139 28.3435 34.4075C28.3435 37.0246 28.3757 37.5158 28.5586 37.6962C28.7485 37.883 29.5603 37.9081 35.4154 37.9081C39.7316 37.9081 42.1497 37.8593 42.3218 37.7685C42.5721 37.6365 42.5867 37.4551 42.5867 34.4798C42.5867 32.0261 42.5466 31.2979 42.4048 31.182C42.2876 31.0864 41.1538 31.0204 39.2207 30.9969L36.2183 30.9605V28.8267V26.693L39.9846 24.616L43.7508 22.539L48.8321 22.534C53.8909 22.529 53.9154 22.5304 54.3787 22.8352C55.2506 23.409 55.323 23.728 55.3232 26.9973L55.3235 29.9141L54.2367 29.976C52.3031 30.0863 50.9152 30.9884 50.1369 32.6406C49.6704 33.631 49.6492 35.2184 50.0895 36.184C50.8053 37.754 52.3366 38.7655 54.246 38.9296L55.3235 39.0221V42.0401V45.058H52.2468C49.3451 45.058 49.162 45.0729 49.0284 45.3189C48.937 45.4871 48.8866 47.6189 48.8866 51.3126C48.8866 56.3442 48.9129 57.0711 49.1018 57.2573C49.2843 57.4371 49.7727 57.4692 52.3202 57.4692H55.3235V58.6133C55.3235 59.7504 55.3211 59.758 54.9468 59.8446C54.2803 59.9991 52.9974 60.7363 52.5793 61.2054C52.3558 61.456 52.0037 61.9777 51.7967 62.3645C51.459 62.9957 51.4205 63.206 51.4205 64.4168C51.4205 65.6317 51.4583 65.8366 51.8017 66.4786C52.2973 67.4054 53.1501 68.2155 54.0909 68.6532C54.7307 68.9508 55.0296 69.003 56.0767 68.9999C57.1499 68.9968 57.4067 68.9477 58.0625 68.62C59.0889 68.1074 59.8832 67.3076 60.346 66.3212C60.6775 65.6146 60.7322 65.3313 60.7267 64.3493C60.7214 63.3827 60.6612 63.082 60.3441 62.435C59.7342 61.1908 58.5352 60.2527 57.0011 59.8194C56.8814 59.7855 56.8299 59.4252 56.8299 58.6201V57.4692H59.8351C62.7854 57.4692 62.8443 57.4637 63.0536 57.1693C63.2383 56.9098 63.2668 56.1191 63.2668 51.2636C63.2668 46.4081 63.2383 45.6175 63.0536 45.3579C62.8443 45.0635 62.7854 45.058 59.8351 45.058H56.8299V42.0426V39.0271L57.9749 38.9404C58.6047 38.8928 59.3781 38.7641 59.6935 38.6544C62.7319 37.5985 63.6946 33.7406 61.5042 31.3998C60.6341 30.4701 59.6203 30.0449 58.1076 29.9753L56.8517 29.9174L56.8065 26.7966L56.7615 23.6757L56.3553 22.9531C56.1318 22.5559 55.7346 22.0567 55.4727 21.844C54.533 21.0809 54.2349 21.0451 48.8491 21.0451H43.9298L40.2111 19.0046C38.1657 17.8824 36.4153 16.9036 36.3211 16.8296C36.1975 16.7326 36.1499 16.12 36.1499 14.6279V12.5607L39.1422 12.5197C41.4285 12.4884 42.1878 12.4349 42.3606 12.2936C42.5645 12.1265 42.5867 11.527 42.5867 6.19386C42.5867 0.484441 42.5775 0.274395 42.3218 0.139626C42.1497 0.0488353 39.7316 0 35.4154 0C29.5603 0 28.7485 0.0250922 28.5586 0.211935ZM41.2172 6.27305V11.0621H35.4651H29.713V6.27305V1.48395H35.4651H41.2172V6.27305ZM31.8276 3.29854C31.5499 3.71621 31.6796 4.15586 32.1304 4.32463C32.5773 4.49204 38.3598 4.48948 38.8077 4.32166C39.2687 4.14911 39.4143 3.58589 39.0895 3.23231C38.8606 2.98327 38.6493 2.96789 35.447 2.96789H32.0475L31.8276 3.29854ZM31.8436 5.83097C31.5618 6.22718 31.5746 6.4205 31.9043 6.74521C32.163 7.00005 32.3608 7.01502 35.4651 7.01502C38.5694 7.01502 38.7672 7.00005 39.0259 6.74521C39.3556 6.4205 39.3684 6.22718 39.0866 5.83097C38.8761 5.53472 38.8318 5.53107 35.4651 5.53107C32.0984 5.53107 32.0541 5.53472 31.8436 5.83097ZM31.8436 8.39415C31.5618 8.79036 31.5746 8.98368 31.9043 9.30839C32.163 9.56323 32.3608 9.5782 35.4651 9.5782C38.5694 9.5782 38.7672 9.56323 39.0259 9.30839C39.3556 8.98368 39.3684 8.79036 39.0866 8.39415C38.8761 8.0979 38.8318 8.09425 35.4651 8.09425C32.0984 8.09425 32.0541 8.0979 31.8436 8.39415ZM38.2935 19.5738C39.7886 20.397 41.2788 21.2221 41.6052 21.4073L42.1987 21.7441L38.9118 23.5531C37.1042 24.548 35.5603 25.362 35.481 25.362C35.278 25.362 28.8913 21.8508 28.8913 21.7393C28.8913 21.6481 35.3161 18.0818 35.4859 18.0788C35.5351 18.0778 36.7985 18.7506 38.2935 19.5738ZM15.4376 18.8704C17.6846 19.9996 17.8361 23.1699 15.7051 24.4677C14.0941 25.4487 11.9557 24.8454 11.0533 23.1554C10.6648 22.4274 10.6408 21.0561 11.0048 20.3705C11.892 18.6996 13.8076 18.0513 15.4376 18.8704ZM12.2592 21.3516C11.9927 21.7524 12.1304 22.2462 12.5529 22.4045C12.9906 22.5684 14.9462 22.5646 15.3886 22.3988C15.8496 22.2263 15.9951 21.6631 15.6703 21.3095C15.4575 21.0778 15.2433 21.0451 13.9452 21.0451C12.555 21.0451 12.4505 21.0641 12.2592 21.3516ZM33.3446 21.2644C33.0277 21.5766 33.1346 22.1503 33.5477 22.3553C33.9067 22.5332 36.7655 22.5978 37.3588 22.4413C37.8096 22.3223 37.9968 21.7722 37.7254 21.3641C37.5185 21.053 37.4635 21.0451 35.5402 21.0451C33.9014 21.0451 33.5297 21.0822 33.3446 21.2644ZM59.818 31.8723C61.4757 32.9537 61.7021 35.2339 60.2869 36.5944C59.465 37.3847 58.9238 37.5034 56.1452 37.5034C53.4135 37.5034 52.8328 37.3829 52.0546 36.6544C51.4244 36.0648 51.0844 35.2881 51.0809 34.43C51.0758 33.2241 51.6795 32.2447 52.7558 31.7127C53.3041 31.4417 53.5084 31.4273 56.2925 31.4626L59.2476 31.5001L59.818 31.8723ZM41.2172 34.4006V36.4241H35.4651H29.713V34.4906C29.713 33.427 29.7541 32.5164 29.8044 32.467C29.8545 32.4175 32.4429 32.377 35.5564 32.377H41.2172V34.4006ZM31.8455 33.938C31.5367 34.2423 31.5797 34.7551 31.9348 35C32.1893 35.1756 32.767 35.21 35.4651 35.21C38.1632 35.21 38.7409 35.1756 38.9954 35C39.3861 34.7304 39.4094 34.063 39.035 33.8657C38.8729 33.7803 37.4659 33.7261 35.4154 33.7261C32.5484 33.7261 32.0295 33.7568 31.8455 33.938ZM53.6193 34.0326C53.3528 34.4334 53.4906 34.9272 53.9131 35.0855C54.0959 35.154 55.0908 35.21 56.1237 35.21C58.1785 35.21 58.6104 35.0816 58.6104 34.4701C58.6104 33.7973 58.3604 33.7261 56.0017 33.7261C53.8874 33.7261 53.8172 33.7351 53.6193 34.0326ZM7.08341 36.8127C7.77831 37.1619 8.5306 38.0198 8.73699 38.6984C9.08882 39.8549 8.84039 40.8775 7.97826 41.8219C6.66419 43.2618 4.554 43.2618 3.23992 41.8219C2.30234 40.7948 2.07814 39.599 2.6072 38.4477C3.41728 36.6849 5.39298 35.9632 7.08341 36.8127ZM38.8184 43.8598C40.5896 44.833 42.0389 45.6747 42.0389 45.73C42.0389 45.8805 35.5974 49.3955 35.408 49.3482C35.1222 49.2769 28.8913 45.8182 28.8913 45.7308C28.8913 45.6203 35.2098 42.1098 35.4288 42.0988C35.5218 42.094 37.0471 42.8865 38.8184 43.8598ZM61.7603 51.2636V56.1202H56.0767H50.3931V51.2636V46.4071H56.0767H61.7603V51.2636ZM52.4748 48.1878C52.3844 48.2768 52.3105 48.5075 52.3105 48.7004C52.3105 49.359 52.3999 49.375 56.107 49.375H59.5749L59.7309 49.0377C59.8476 48.7854 59.8476 48.6154 59.7309 48.3632L59.5749 48.0259H56.107C53.5924 48.0259 52.594 48.0704 52.4748 48.1878ZM20.2383 50.624C21.461 51.4216 21.9577 52.9496 21.4337 54.3011C21.1355 55.0706 20.1855 55.9046 19.3797 56.1044C18.5963 56.2988 14.6764 56.3 13.895 56.1061C13.1405 55.919 12.2227 55.1557 11.8934 54.4414C11.5947 53.7936 11.5596 52.6466 11.8197 52.035C12.0983 51.3803 12.6642 50.7851 13.313 50.4643C13.8602 50.1938 14.0666 50.1788 16.7814 50.2142L19.6679 50.2518L20.2383 50.624ZM52.4748 50.751C52.3844 50.84 52.3105 51.0707 52.3105 51.2636C52.3105 51.9222 52.3999 51.9381 56.107 51.9381H59.5749L59.7309 51.6009C59.8476 51.3486 59.8476 51.1786 59.7309 50.9263L59.5749 50.5891H56.107C53.5924 50.5891 52.594 50.6336 52.4748 50.751ZM52.4748 53.3142C52.3844 53.4032 52.3105 53.6339 52.3105 53.8268C52.3105 54.4854 52.3999 54.5013 56.107 54.5013H59.5749L59.7309 54.1641C59.8476 53.9118 59.8476 53.7418 59.7309 53.4895L59.5749 53.1523H56.107C53.5924 53.1523 52.594 53.1968 52.4748 53.3142ZM41.2172 56.5249V58.5484H35.4651H29.713V56.5249V54.5013H35.4651H41.2172V56.5249ZM57.5116 61.5174C58.1499 61.8417 58.82 62.5443 59.0827 63.1646C59.5222 64.2024 59.2264 65.7734 58.4307 66.6268C57.645 67.4695 55.9058 67.8298 54.8055 67.3778C52.5071 66.4336 52.0901 63.2782 54.0744 61.8463C55.1232 61.0895 56.4242 60.965 57.5116 61.5174ZM19.8499 61.6616C20.6784 62.0318 20.9302 62.2745 21.3084 63.0677C21.9238 64.3584 21.6451 65.711 20.5663 66.6691C19.758 67.387 19.2403 67.4792 16.3067 67.4286C13.5463 67.381 13.3351 67.3321 12.5371 66.5541C11.9781 66.0092 11.6415 65.2025 11.6381 64.3995C11.6326 63.1549 12.2263 62.2122 13.3362 61.703C13.9912 61.4026 14.1834 61.3841 16.6339 61.3857C18.9554 61.3872 19.3022 61.4169 19.8499 61.6616ZM41.2172 65.5649V67.59L35.4993 67.5548L29.7815 67.5196L29.7436 65.5297L29.7058 63.5399H35.4614H41.2172V65.5649Z" fill="white" stroke="white" stroke-width="0.5"/>
</svg>
