<svg width="70" height="70" viewBox="0 0 70 70" fill="none" xmlns="http://www.w3.org/2000/svg">
<path fill-rule="evenodd" clip-rule="evenodd" d="M2.27231 0.179405C1.57994 0.39779 0.399049 1.62142 0.18674 2.34053C-0.0622467 3.18371 -0.0622467 48.7554 0.18674 49.5986C0.415695 50.374 1.58431 51.5435 2.3592 51.7726C2.79962 51.9027 6.69003 51.9442 18.4751 51.9442H34.0102L33.9224 53.3912C33.7184 56.7524 34.6705 60.1531 36.649 63.13C37.5188 64.4389 39.4426 66.364 40.7506 67.2344C46.9291 71.3463 54.6184 70.8374 60.2313 65.9453C61.5326 64.811 62.9782 62.8605 63.8559 61.054C65.0622 58.5716 65.5809 56.0312 65.4206 53.3912L65.3329 51.9442H66.1968C66.6721 51.9442 67.3221 51.867 67.6415 51.7726C68.4164 51.5435 69.585 50.374 69.8139 49.5986C70.0595 48.7669 70.0632 3.18131 69.8177 2.36142C69.7255 2.05339 69.3756 1.49593 69.0402 1.12254C67.9288 -0.114504 71.2221 -0.00693495 34.94 0.00929921C11.9138 0.0196044 2.62568 0.0680245 2.27231 0.179405ZM67.382 2.60013C67.7284 2.94655 67.7284 2.94698 67.7284 5.98813V9.02957H35.0003H2.27231V5.98813C2.27231 2.94698 2.27231 2.94655 2.61863 2.60013L2.96481 2.25357H35.0003H67.0359L67.382 2.60013ZM4.52941 5.64157V6.7709H5.65796H6.78652V5.64157V4.51223H5.65796H4.52941V5.64157ZM9.04362 5.64157V6.7709H10.1722H11.3007V5.64157V4.51223H10.1722H9.04362V5.64157ZM13.5578 5.64157V6.7709H14.6864H15.8149V5.64157V4.51223H14.6864H13.5578V5.64157ZM67.7284 30.1403V48.9926L67.382 49.339C67.0724 49.649 66.9171 49.6856 65.9123 49.6856H64.7886L64.5459 48.9444C63.3877 45.4074 60.4151 41.9988 56.9075 40.1859C49.0813 36.141 39.5315 39.2556 35.5714 47.1446C35.2791 47.7269 34.9308 48.5369 34.7972 48.9444L34.5544 49.6856H18.7596H2.96481L2.61863 49.339L2.27231 48.9926V30.1403V11.2882H35.0003H67.7284V30.1403ZM6.78652 13.7314C6.09415 13.9498 4.91326 15.1734 4.70095 15.8925C4.45521 16.7247 4.45521 35.2144 4.70095 36.0466C4.92991 36.822 6.09852 37.9915 6.87342 38.2206C7.71108 38.4682 35.2043 38.4682 36.042 38.2206C36.8169 37.9915 37.9855 36.822 38.2145 36.0466C38.457 35.2253 38.4605 16.7223 38.2183 15.9134C38.126 15.6054 37.7762 15.0479 37.4407 14.6745C36.3604 13.4721 37.4115 13.5449 21.3973 13.5613C11.5358 13.5713 7.13143 13.6227 6.78652 13.7314ZM40.6431 14.6762V15.8056H41.7717H42.9002V14.6762V13.5469H41.7717H40.6431V14.6762ZM45.1573 14.6762V15.8056H55.3143H65.4713V14.6762V13.5469H55.3143H45.1573V14.6762ZM35.7826 16.1521L36.1289 16.4986V25.9696V35.4406L35.7826 35.787L35.4364 36.1336H21.4577H7.47903L7.13284 35.787L6.78652 35.4406V25.9696V16.4986L7.13284 16.1521L7.47903 15.8056H21.4577H35.4364L35.7826 16.1521ZM27.7353 20.3229L25.4814 22.5816H22.1275H18.7734L13.9085 26.8427L9.04362 31.1038V32.4893V33.8749H21.4577H33.8718V25.9696V18.0642H31.9304H29.9891L27.7353 20.3229ZM40.6431 19.1936V20.3229H53.0572H65.4713V19.1936V18.0642H53.0572H40.6431V19.1936ZM31.6147 25.9696V31.6162H29.3576H27.1005V27.9124V24.2087L29.0383 22.2658C30.3877 20.9128 31.073 20.3229 31.2954 20.3229H31.6147V25.9696ZM40.6431 23.7109V24.8402H44.0288H47.4144V23.7109V22.5816H44.0288H40.6431V23.7109ZM49.6715 23.7109V24.8402H57.5714H65.4713V23.7109V22.5816H57.5714H49.6715V23.7109ZM24.8434 28.2282V31.6162H22.5863H20.3292V28.2282V24.8402H22.5863H24.8434V28.2282ZM18.0254 31.5688C17.9962 31.598 16.624 31.6048 14.976 31.5838L11.9796 31.5457L14.9905 28.9133L18.0015 26.281L18.04 28.8984C18.0612 30.338 18.0546 31.5396 18.0254 31.5688ZM40.6431 28.2282V29.3576H53.0572H65.4713V28.2282V27.0989H53.0572H40.6431V28.2282ZM40.6431 32.7456V33.8749H48.543H56.4428V32.7456V31.6162H48.543H40.6431V32.7456ZM58.7 32.7456V33.8749H59.8285H60.9571V32.7456V31.6162H59.8285H58.7V32.7456ZM63.2142 32.7456V33.8749H64.3427H65.4713V32.7456V31.6162H64.3427H63.2142V32.7456ZM4.52941 41.7802V42.9096H5.65796H6.78652V41.7802V40.6509H5.65796H4.52941V41.7802ZM9.04362 41.7802V42.9096H19.2006H29.3576V41.7802V40.6509H19.2006H9.04362V41.7802ZM52.9367 41.0541C55.4514 41.7153 57.4236 42.8589 59.2693 44.7264C61.086 46.5642 62.2559 48.6528 62.8883 51.1872C63.2232 52.5291 63.2233 55.8761 62.8887 57.2172C62.2339 59.8408 61.1237 61.7965 59.1919 63.7298C57.2589 65.6639 55.2986 66.7779 52.6838 67.4278C51.3016 67.7714 48.1261 67.7713 46.7091 67.4275C41.576 66.1824 37.7382 62.3616 36.4548 57.2186C36.1197 55.876 36.1197 52.5298 36.4548 51.1872C37.0982 48.6086 38.2651 46.5456 40.1423 44.6671C42.3585 42.4492 44.4414 41.4046 47.9787 40.737C48.8059 40.5807 51.8859 40.7778 52.9367 41.0541ZM4.52941 46.2976V47.4269H5.65796H6.78652V46.2976V45.1682H5.65796H4.52941V46.2976ZM9.04362 46.2976V47.4269H19.2006H29.3576V46.2976V45.1682H19.2006H9.04362V46.2976ZM42.9002 54.2029V62.8138L51.4349 58.5442C56.129 56.1959 59.9696 54.2423 59.9696 54.2029C59.9696 54.1635 56.129 52.2099 51.4349 49.8616L42.9002 45.592V54.2029ZM54.8911 54.2029C54.8911 54.2427 52.701 55.3706 50.0242 56.7093L45.1573 59.1432V54.2029V49.2626L50.0242 51.6965C52.701 53.0352 54.8911 54.1631 54.8911 54.2029Z" fill="white"/>
</svg>
