<svg width="70" height="70" viewBox="0 0 70 70" fill="none" xmlns="http://www.w3.org/2000/svg">
<path fill-rule="evenodd" clip-rule="evenodd" d="M31.9677 0.331936C31.6867 0.612359 31.6208 0.859335 31.5443 1.91964C31.391 4.04462 31.4072 4.00073 30.6661 4.27494C30.1337 4.47182 29.9678 4.4841 29.7841 4.34043C29.6596 4.24305 29.0862 3.76645 28.5098 3.28125C26.9282 1.94998 26.9124 1.95407 24.5816 4.28002C22.2149 6.64196 22.2276 6.57874 23.761 8.39648C24.3461 9.09027 24.8006 9.72352 24.7708 9.80368C24.7411 9.88398 24.6326 10.1842 24.5298 10.4708C24.3205 11.0545 24.2964 11.0623 22.1435 11.2306C21.1589 11.3077 20.8966 11.3807 20.6233 11.6535C20.3001 11.9759 20.2929 12.0421 20.2929 14.6774C20.2929 17.3127 20.3001 17.3789 20.6233 17.7014C20.8966 17.9742 21.1589 18.0472 22.1435 18.1242C24.2964 18.2926 24.3205 18.3004 24.5298 18.8841C24.6326 19.1707 24.7411 19.4709 24.7708 19.5512C24.8006 19.6313 24.3461 20.2646 23.761 20.9584C22.2276 22.7761 22.2149 22.7129 24.5816 25.0748C26.9124 27.4008 26.9282 27.4049 28.5098 26.0736C29.0862 25.5886 29.6596 25.1118 29.7841 25.0144C29.9678 24.8708 30.1337 24.883 30.6661 25.0799C31.4072 25.3541 31.391 25.3102 31.5443 27.4352C31.6208 28.4955 31.6867 28.7425 31.9677 29.0229C32.2936 29.3482 32.354 29.3549 35 29.3549C37.6406 29.3549 37.7069 29.3477 38.0301 29.0252C38.3034 28.7524 38.3765 28.4906 38.4538 27.508C38.6225 25.3595 38.6302 25.3354 39.2151 25.1265C39.5023 25.0239 39.8031 24.9156 39.8836 24.886C39.9639 24.8562 40.5984 25.3098 41.2936 25.8938C43.1151 27.4241 43.0517 27.4368 45.4184 25.0748C47.7851 22.7129 47.7724 22.7761 46.239 20.9584C45.6539 20.2646 45.1994 19.6313 45.2292 19.5512C45.2589 19.4709 45.3685 19.1676 45.4727 18.8772C45.6865 18.281 45.7026 18.2757 47.7836 18.1262C48.846 18.0499 49.0935 17.9841 49.3745 17.7037C49.7004 17.3784 49.7071 17.3181 49.7071 14.6774C49.7071 12.0421 49.6999 11.9759 49.3767 11.6535C49.1034 11.3807 48.841 11.3077 47.8565 11.2306C45.7036 11.0623 45.6795 11.0545 45.4702 10.4708C45.3674 10.1842 45.2589 9.88398 45.2292 9.80368C45.1994 9.72352 45.6539 9.09027 46.239 8.39648C47.7724 6.57874 47.7851 6.64196 45.4184 4.28002C43.0517 1.91809 43.1151 1.93079 41.2936 3.46105C40.5984 4.04504 39.9639 4.49863 39.8836 4.46885C39.8031 4.43922 39.5023 4.33097 39.2151 4.22837C38.6302 4.0195 38.6225 3.99537 38.4538 1.84682C38.3765 0.864275 38.3034 0.60248 38.0301 0.329678C37.7069 0.00719764 37.6406 0 35 0C32.354 0 32.2936 0.00663309 31.9677 0.331936ZM36.3422 3.63055C36.4694 5.3241 36.5691 5.59577 37.1533 5.84049C37.4079 5.94718 38.0934 6.24059 38.6768 6.49265C40.3496 7.21551 40.2933 7.22355 41.7067 6.06107L42.9472 5.04085L43.8016 5.89355L44.656 6.74626L43.6338 7.98424C42.4689 9.39483 42.477 9.33866 43.2013 11.0081C43.4539 11.5902 43.7479 12.2744 43.8548 12.5285C44.1 13.1115 44.3722 13.211 46.0692 13.338L47.4444 13.4409V14.6774V15.914L46.0692 16.0169C44.3722 16.1439 44.1 16.2434 43.8548 16.8264C43.7479 17.0804 43.4539 17.7646 43.2013 18.3468C42.477 20.0162 42.4689 19.96 43.6338 21.3706L44.656 22.6086L43.8016 23.4613L42.9472 24.314L41.7067 23.2938C40.2933 22.1313 40.3496 22.1394 38.6768 22.8622C38.0934 23.1143 37.4079 23.4077 37.1533 23.5144C36.5691 23.7591 36.4694 24.0308 36.3422 25.7243L36.2391 27.0968H35.0075H33.7761L33.6332 25.5219C33.4787 23.8186 33.3303 23.5395 32.4721 23.3358C32.268 23.2874 31.6106 23.0266 31.0111 22.7562C30.2978 22.4346 29.8094 22.2942 29.597 22.3501C29.4187 22.3971 28.7749 22.8598 28.1664 23.3785L27.0603 24.3215L26.2021 23.465L25.344 22.6086L26.3538 21.3857C26.9091 20.7131 27.3636 20.0375 27.3636 19.8843C27.3636 19.7311 27.2279 19.3401 27.0619 19.0153C26.8958 18.6906 26.6103 18.0103 26.4275 17.5038C25.9675 16.2293 25.8176 16.1357 24.0417 16.0149L22.5556 15.9139V14.68V13.4459L23.9154 13.3463C25.5967 13.2231 25.8999 13.1119 26.1452 12.5285C26.2521 12.2744 26.5461 11.5902 26.7987 11.0081C27.523 9.33866 27.5311 9.39483 26.3662 7.98424L25.344 6.74626L26.1984 5.89355L27.0528 5.04085L28.2933 6.06107C29.7067 7.22355 29.6504 7.21551 31.3232 6.49265C31.9066 6.24059 32.5921 5.94718 32.8467 5.84049C33.4309 5.59577 33.5306 5.3241 33.6578 3.63055L33.7609 2.25807H35H36.2391L36.3422 3.63055ZM33.3189 8.12636C29.7333 9.08872 27.5149 12.7938 28.4286 16.2945C29.1282 18.975 31.3528 20.9632 34.0933 21.3571C38.7455 22.026 42.7543 17.593 41.5769 13.0817C40.6222 9.42376 36.8713 7.17289 33.3189 8.12636ZM4.25911 9.1892C3.38192 9.39468 2.09788 10.149 1.4724 10.8262C1.15493 11.1699 0.693636 11.8756 0.447576 12.394L0 13.3367V32.7493V52.1619L0.528182 53.2283C1.16426 54.5128 1.98305 55.3129 3.29778 55.9344L4.24242 56.3811L15.6616 56.4203L27.0808 56.4597V58.6967V60.9338L25.3485 60.997C23.894 61.0502 23.5027 61.1146 22.9091 61.3988C22.0129 61.8278 21.1623 62.6733 20.7162 63.5787C20.394 64.2325 20.3649 64.4681 20.3194 66.7844L20.2702 69.2845L20.6286 69.6423L20.9871 70.0001H35H49.0129L49.3736 69.64L49.7342 69.28L49.6843 66.7822L49.6342 64.2843L49.1503 63.3917C48.624 62.4207 48.02 61.8458 47.0246 61.3679C46.5064 61.1191 46.0525 61.0482 44.6515 60.997L42.9192 60.9338V58.6967V56.4597L54.3459 56.4203L65.7726 56.3811L66.841 55.854C68.128 55.2192 68.9296 54.4019 69.5524 53.09L70 52.1472V32.742V13.3367L69.5524 12.394C68.9298 11.0822 68.128 10.2647 66.8411 9.62995L65.7727 9.10283L57.74 9.06204L49.7071 9.02126V10.1558V11.2903H57.2917C62.8333 11.2903 65.0331 11.3366 65.4583 11.4619C66.2351 11.691 67.4066 12.8601 67.6361 13.6353C67.7665 14.0759 67.8081 17.9532 67.8081 29.6888V45.1613H35H2.19192V29.6888C2.19192 17.9532 2.23349 14.0759 2.36388 13.6353C2.59339 12.8601 3.76487 11.691 4.54166 11.4619C4.96689 11.3366 7.16673 11.2903 12.7083 11.2903H20.2929V10.1613V9.03227L12.5505 9.04638C8.29224 9.05428 4.56103 9.1185 4.25911 9.1892ZM36.9091 10.5971C37.8023 11.0187 38.6543 11.8637 39.1019 12.7722C39.5951 13.7731 39.5924 15.5586 39.0962 16.5827C38.6601 17.4825 37.8107 18.3301 36.9091 18.7654C35.883 19.2606 34.0938 19.2633 33.0909 18.771C32.1894 18.3287 31.3413 17.4824 30.8981 16.5827C30.4049 15.5818 30.4076 13.7962 30.9038 12.7722C31.4887 11.5653 32.6367 10.6243 33.9394 10.2842C34.6975 10.0864 36.1515 10.2395 36.9091 10.5971ZM27.4506 31.8442C26.9661 31.9927 26.5368 32.2786 26.0128 32.8015C24.8786 33.9335 24.8182 34.2454 24.8182 38.9773V42.9033H25.9495H27.0808V41.2097V39.5162H28.7778H30.4747V41.2097V42.9033H31.6061H32.7374V38.9773C32.7374 34.2468 32.6768 33.9332 31.5445 32.8034C30.422 31.6829 29.0363 31.3583 27.4506 31.8442ZM34.2159 31.9594L33.8687 32.3057V37.6046V42.9033H35H36.1313V40.6452V38.3871H37.5203C39.341 38.3871 40.0379 38.1505 40.8403 37.2598C42.1553 35.8001 42.114 34.0457 40.7321 32.6666C39.7935 31.7299 39.3466 31.6129 36.7096 31.6129C34.6189 31.6129 34.5538 31.622 34.2159 31.9594ZM42.9192 37.2581V42.9033H44.0505H45.1818V37.2581V31.6129H44.0505H42.9192V37.2581ZM29.9666 34.4278C30.3756 34.8359 30.4073 34.9419 30.454 36.0612L30.5037 37.2581H28.7778H27.0518L27.1016 36.0698C27.145 35.0356 27.1973 34.8322 27.505 34.502C27.9781 33.9941 28.3168 33.8631 28.9767 33.9328C29.3552 33.9728 29.667 34.1287 29.9666 34.4278ZM39.1781 34.2175C39.397 34.4358 39.5252 34.7251 39.5252 35C39.5252 35.2749 39.397 35.5643 39.1781 35.7826C38.8581 36.1021 38.7258 36.1291 37.4811 36.1291H36.1313V35V33.871H37.4811C38.7258 33.871 38.8581 33.898 39.1781 34.2175ZM67.8081 49.3436C67.8081 50.4418 67.7343 51.5171 67.6361 51.8486C67.4066 52.6238 66.2351 53.7929 65.4583 54.022C64.612 54.2715 5.38802 54.2715 4.54166 54.022C3.76487 53.7929 2.59339 52.6238 2.36388 51.8486C2.26574 51.5171 2.19192 50.4418 2.19192 49.3436V47.4194H35H67.8081V49.3436ZM29.3434 50.8065V51.9355H35H40.6566V50.8065V49.6775H35H29.3434V50.8065ZM40.6566 58.7097V60.9678H35H29.3434V58.7097V56.4517H35H40.6566V58.7097ZM46.4001 63.5874C47.247 64.2186 47.3699 64.5327 47.4215 66.1995L47.4695 67.742H35.0124H22.5556V66.4104C22.5556 64.9802 22.6804 64.4764 23.166 63.9489C23.8424 63.2137 23.5231 63.2319 35.1664 63.2652C45.8729 63.296 46.0146 63.3001 46.4001 63.5874Z" fill="white"/>
</svg>
