<svg width="70" height="70" viewBox="0 0 70 70" fill="none" xmlns="http://www.w3.org/2000/svg">
<path fill-rule="evenodd" clip-rule="evenodd" d="M12.7365 0.221204C11.9678 0.493687 10.8691 1.64955 10.6588 2.40691C10.291 3.73154 10.5563 4.84919 11.4705 5.82681C12.8169 7.26639 14.7888 7.37448 16.2493 6.08864C16.5947 5.78465 16.9597 5.33669 17.0605 5.09323L17.2438 4.65066H22.6218H28V6.98457V9.31847H14.358H0.715896L0.358021 9.67658L0 10.0345V32.6575V55.2805L0.358021 55.6385L0.715896 55.9966H13.7747H26.8333V59.4974V62.9983H20.7747H14.7159L14.358 63.3564C14.0029 63.7114 14 63.737 14 66.4991C14 69.2613 14.0029 69.2868 14.358 69.6419L14.7159 70H35H55.2841L55.642 69.6419C55.9971 69.2868 56 69.2613 56 66.4991C56 63.737 55.9971 63.7114 55.642 63.3564L55.2841 62.9983H49.2253H43.1667V59.4974V55.9966H56.2253H69.2841L69.642 55.6385L70 55.2805V32.6575V10.0345L69.642 9.67658L69.2841 9.31847H55.642H42V6.98457V4.65066H47.3782H52.7562L52.9395 5.09323C53.0403 5.33669 53.4053 5.78465 53.7507 6.08864C55.1619 7.33115 57.0762 7.26712 58.4376 5.93198C61.0366 3.38321 58.4411 -0.879378 54.9232 0.160231C54.2709 0.353069 52.7917 1.69113 52.7917 2.08847C52.7917 2.29211 52.12 2.31676 46.5872 2.31676H40.3826L40.0247 2.67487C39.6667 3.03283 39.6667 3.03327 39.6667 6.17572V9.31847H35H30.3333V6.17572C30.3333 3.03327 30.3333 3.03283 29.9753 2.67487L29.6174 2.31676H23.4306H17.2438L17.0605 1.87419C16.8115 1.27321 15.748 0.363864 15.049 0.154396C14.302 -0.069513 13.4902 -0.0460281 12.7365 0.221204ZM14.8086 2.67487C15.5321 3.39838 15.0195 4.65066 14 4.65066C13.4005 4.65066 12.8333 4.08338 12.8333 3.48371C12.8333 2.88404 13.4005 2.31676 14 2.31676C14.2841 2.31676 14.583 2.44906 14.8086 2.67487ZM56.8086 2.67487C57.5321 3.39838 57.0195 4.65066 56 4.65066C55.4005 4.65066 54.8333 4.08338 54.8333 3.48371C54.8333 2.88404 55.4005 2.31676 56 2.31676C56.2841 2.31676 56.583 2.44906 56.8086 2.67487ZM28 17.37V23.0878L26.3958 24.7141C24.4067 26.7307 24.3693 26.892 25.5854 28.2181L26.3794 29.0837L25.1347 29.1567C23.5979 29.2467 23.3333 29.4741 23.3333 30.7045V31.4906H17.3718H11.4104L11.2271 31.048C10.8166 30.0568 9.34704 29.1567 8.13925 29.1567C6.30933 29.1567 4.66827 30.8118 4.66827 32.6575C4.66827 34.5032 6.30933 36.1584 8.13925 36.1584C9.34704 36.1584 10.8166 35.2582 11.2271 34.267L11.4104 33.8245H17.3718H23.3333V34.6333C23.3333 35.2978 23.3974 35.5063 23.6914 35.8003C24.0126 36.1218 24.1706 36.1584 25.2347 36.1584H26.4203L25.606 37.0584C24.3304 38.4684 24.3555 38.5546 26.7299 40.9296C29.1025 43.3028 29.17 43.3223 30.539 42.0296L31.4271 41.1909L31.5 42.4806C31.6062 44.3587 31.5462 44.327 35 44.327C38.4538 44.327 38.3938 44.3587 38.5 42.4806L38.5729 41.1909L39.461 42.0296C40.83 43.3223 40.8975 43.3028 43.2701 40.9296C45.6445 38.5546 45.6696 38.4684 44.394 37.0584L43.5797 36.1584H44.7653C45.8294 36.1584 45.9874 36.1218 46.3086 35.8003C46.6026 35.5063 46.6667 35.2978 46.6667 34.6333V33.8245H52.6282H58.5896L58.7729 34.267C58.8736 34.5105 59.2387 34.9585 59.584 35.2625C60.9993 36.5086 62.9647 36.4387 64.281 35.0957C65.6743 33.6744 65.6699 31.5812 64.2709 30.2093C63.2938 29.251 62.0693 28.946 60.7565 29.334C60.1042 29.5269 58.625 30.8649 58.625 31.2623C58.625 31.4658 57.9741 31.4906 52.6458 31.4906H46.6667V30.7045C46.6667 29.4741 46.4021 29.2467 44.8653 29.1567L43.6206 29.0837L44.4146 28.2181C45.6307 26.892 45.5933 26.7307 43.6042 24.7141L42 23.0878V17.37V11.6524H54.8333H67.6667V30.3236V48.9949H35H2.33333V30.3236V11.6524H15.1667H28V17.37ZM39.6667 17.3707V23.0892L39.2006 23.5702C38.9442 23.8348 38.6817 24.0513 38.6172 24.0513C38.5528 24.0513 38.5 23.5232 38.5 22.8777C38.5 21.8262 38.4628 21.6669 38.142 21.3461C37.787 20.9909 37.7615 20.988 35 20.988C32.2385 20.988 32.213 20.9909 31.858 21.3461C31.5372 21.6669 31.5 21.8262 31.5 22.8777C31.5 23.5232 31.4539 24.0513 31.3976 24.0513C31.3412 24.0513 31.0787 23.8415 30.8143 23.5851L30.3333 23.1189V17.3856V11.6524H35H39.6667V17.3707ZM5.02469 14.3444C4.79894 14.5701 4.66667 14.8691 4.66667 15.1532C4.66667 15.4374 4.79894 15.7364 5.02469 15.9621C5.38256 16.3202 5.383 16.3202 8.52469 16.3202H11.6667V21.2134V26.1067L12.0247 26.4647L12.3826 26.8228H16.3333H20.2841L20.642 26.4647C21.1156 25.991 21.1156 25.3206 20.642 24.847C20.2841 24.4889 20.2837 24.4889 17.142 24.4889H14V19.5957V14.7024L13.642 14.3444L13.2841 13.9863H9.33333H5.38256L5.02469 14.3444ZM56.358 14.3444L56 14.7024V19.5957V24.4889H52.858C49.7163 24.4889 49.7159 24.4889 49.358 24.847C49.1323 25.0726 49 25.3717 49 25.6558C49 25.94 49.1323 26.239 49.358 26.4647L49.7159 26.8228H53.6667H57.6174L57.9753 26.4647L58.3333 26.1067V21.2134V16.3202H61.4753C64.617 16.3202 64.6174 16.3202 64.9753 15.9621C65.2011 15.7364 65.3333 15.4374 65.3333 15.1532C65.3333 14.8691 65.2011 14.5701 64.9753 14.3444L64.6174 13.9863H60.6667H56.7159L56.358 14.3444ZM36.1667 24.2504C36.1667 25.4482 36.4172 25.7709 37.7557 26.296C38.9794 26.7764 39.2063 26.7342 40.1091 25.8591L40.7705 25.2182L41.5558 26.0138L42.3412 26.8092L41.7381 27.4639C40.917 28.3547 40.8822 28.604 41.399 29.8905C41.9619 31.292 42.2104 31.4906 43.4016 31.4906H44.3333V32.6575V33.8245H43.3936C42.6243 33.8245 42.3875 33.884 42.0888 34.1527C41.7161 34.4879 40.9792 36.133 40.9792 36.6298C40.9792 36.7812 41.3052 37.2501 41.7038 37.6716L42.4286 38.4382L41.6628 39.1945C41.2417 39.6105 40.836 39.951 40.7613 39.951C40.6868 39.951 40.3465 39.677 40.0054 39.3423C39.2585 38.6088 38.8194 38.5654 37.588 39.1029C36.2826 39.6727 36.1667 39.827 36.1667 40.9947V41.9931H35H33.8333V41.0532C33.8333 40.2837 33.7738 40.0468 33.5052 39.7481C33.1546 39.358 31.5169 38.6382 30.9802 38.6382C30.8003 38.6382 30.3208 38.9401 29.9005 39.3182L29.1444 39.9981L28.4 39.2536L27.6557 38.5091L28.2488 37.8655C29.0955 36.9468 29.1166 36.7779 28.5571 35.4056C28.006 34.0535 27.6936 33.8245 26.4005 33.8245H25.6667V32.6575V31.4906H26.5949C27.7925 31.4906 28.1151 31.24 28.6401 29.9012C29.1203 28.6772 29.0781 28.4502 28.2033 27.5471L27.5625 26.8856L28.3551 26.1028L29.1476 25.3199L29.9021 25.9985C30.3212 26.3754 30.8004 26.6769 30.9802 26.6769C31.5169 26.6769 33.1546 25.957 33.5052 25.567C33.7738 25.2682 33.8333 25.0313 33.8333 24.2619V23.3219H35H36.1667V24.2504ZM33.5424 28.2234C31.4716 28.9784 30.1976 30.8929 30.368 32.9936C30.7443 37.6292 36.8285 38.9239 39.0714 34.8456C39.555 33.9661 39.5926 33.8076 39.5905 32.6575C39.5885 31.5265 39.5446 31.3367 39.0909 30.495C38.2591 28.9519 37.0001 28.1538 35.2285 28.0468C34.5046 28.003 34.0029 28.0555 33.5424 28.2234ZM35.923 30.5226C37.4213 31.1488 37.7866 33.1137 36.6214 34.2793C35.6754 35.2254 34.3246 35.2254 33.3786 34.2793C31.5752 32.4753 33.5651 29.5372 35.923 30.5226ZM8.97531 31.8487C9.20106 32.0743 9.33333 32.3734 9.33333 32.6575C9.33333 32.9417 9.20106 33.2407 8.97531 33.4664C8.74971 33.6922 8.45075 33.8245 8.16667 33.8245C7.88258 33.8245 7.58362 33.6922 7.35802 33.4664C7.13227 33.2407 7 32.9417 7 32.6575C7 32.3734 7.13227 32.0743 7.35802 31.8487C7.58362 31.6229 7.88258 31.4906 8.16667 31.4906C8.45075 31.4906 8.74971 31.6229 8.97531 31.8487ZM62.642 31.8487C63.3655 32.5722 62.8529 33.8245 61.8333 33.8245C61.2338 33.8245 60.6667 33.2572 60.6667 32.6575C60.6667 32.0579 61.2338 31.4906 61.8333 31.4906C62.1174 31.4906 62.4164 31.6229 62.642 31.8487ZM67.6667 52.4957V53.6627H35H2.33333V52.4957V51.3288H35H67.6667V52.4957ZM40.8333 59.4974V62.9983H35H29.1667V59.4974V55.9966H35H40.8333V59.4974ZM53.6667 66.4991V67.6661H35H16.3333V66.4991V65.3322H35H53.6667V66.4991Z" fill="white"/>
</svg>
