<svg width="70" height="70" viewBox="0 0 70 70" fill="none" xmlns="http://www.w3.org/2000/svg">
<path fill-rule="evenodd" clip-rule="evenodd" d="M26.3365 0.136553C25.2425 0.398187 23.6528 1.33477 22.8793 2.17351C22.4854 2.60068 21.9132 3.47747 21.6079 4.12156L21.0526 5.29295L20.9979 11.0275L20.9433 16.7622L13.1032 16.8143L5.26316 16.8666L4.09123 17.4216C2.46018 18.1938 1.44439 19.188 0.655263 20.7841L0 22.1091V33.6132V45.1174L0.655263 46.4424C1.44439 48.0385 2.46018 49.0326 4.09123 49.8049L5.26316 50.3599L10.2979 50.4157L15.3328 50.4716L15.3856 57.615L15.4386 64.7584L16.0939 66.083C16.883 67.6786 17.8993 68.6729 19.5298 69.445L20.7018 70H32.193H43.6842L44.8561 69.445C46.4867 68.6729 47.503 67.6786 48.2921 66.0832L48.9474 64.7587L49.0021 59.0144L49.0567 53.27L56.8968 53.2179L64.7368 53.1656L65.9088 52.6106C67.5398 51.8384 68.5556 50.8443 69.3447 49.2481L70 47.9231V36.419V24.9148L69.3447 23.5898C68.5556 21.9937 67.5398 20.9996 65.9088 20.2273L64.7368 19.6723L59.7021 19.6165L54.6672 19.5606L54.6144 12.4172L54.5614 5.27384L53.9061 3.94918C53.117 2.3536 52.1007 1.35932 50.4702 0.587223L49.2982 0.0322153L38.1579 0.00293053C31.7888 -0.0139038 26.7258 0.043263 26.3365 0.136553ZM48.927 2.9635C49.8907 3.2481 51.344 4.70077 51.6288 5.66401C51.9284 6.67775 51.9349 29.6682 51.6358 30.666C51.3767 31.5307 50.3025 32.7654 49.4344 33.1966C48.8077 33.5077 48.0118 33.5303 34.7275 33.6132L20.683 33.7009L19.3575 34.3559C17.7611 35.1446 16.7663 36.1603 15.9939 37.7903L15.4386 38.9617L15.3812 43.3018L15.3239 47.6419H10.8402C7.83263 47.6419 6.11877 47.5717 5.63439 47.4286C4.6707 47.144 3.21737 45.6914 2.93263 44.7281C2.62807 43.6975 2.62807 23.5289 2.93263 22.4984C3.21737 21.5351 4.6707 20.0825 5.63439 19.7978C6.17825 19.6372 10.3063 19.5846 22.3528 19.5846H38.3493L38.7798 19.1541C39.0514 18.8828 39.2105 18.5233 39.2105 18.1818C39.2105 17.8402 39.0514 17.4807 38.7798 17.2094L38.3493 16.7789H31.0605H23.7719V11.5823C23.7719 8.01485 23.8388 6.15957 23.9853 5.66401C24.2493 4.77073 25.7179 3.25073 26.5789 2.97945C27.493 2.69152 47.9565 2.67696 48.927 2.9635ZM29.6404 7.20558C27.8703 7.9761 27.4523 10.328 28.8389 11.7142C30.81 13.6843 34.04 11.9197 33.5214 9.15591C33.2111 7.50299 31.2365 6.51064 29.6404 7.20558ZM64.3656 22.6036C65.3293 22.8882 66.7826 24.3408 67.0674 25.3041C67.3719 26.3347 67.3719 46.5033 67.0674 47.5339C66.7826 48.4971 65.3293 49.9498 64.3656 50.2344C63.8218 50.395 59.6937 50.4476 47.6472 50.4476H31.6507L31.2202 50.8781C30.6504 51.4475 30.6504 52.2534 31.2202 52.8228L31.6507 53.2533H38.9395H46.2281V58.4499C46.2281 62.0174 46.1612 63.8726 46.0147 64.3682C45.73 65.3314 44.2767 66.7841 43.313 67.0687C42.2819 67.3731 22.104 67.3731 21.073 67.0687C20.1093 66.7841 18.656 65.3314 18.3712 64.3682C18.0716 63.3545 18.0651 40.364 18.3642 39.3662C18.6233 38.5015 19.6975 37.2668 20.5656 36.8356C21.1923 36.5245 21.9881 36.5019 35.2632 36.419L49.2982 36.3313L50.4702 35.7763C52.1005 35.0044 53.117 34.0099 53.9061 32.4147L54.5614 31.0902L54.6188 26.7403L54.6761 22.3903H59.1598C62.1674 22.3903 63.8812 22.4605 64.3656 22.6036ZM38.0614 57.7086C36.2914 58.4792 35.8733 60.8311 37.26 62.2173C39.2311 64.1874 42.4611 62.4228 41.9425 59.659C41.6321 58.006 39.6575 57.0137 38.0614 57.7086Z" fill="white"/>
</svg>
