<svg width="70" height="70" viewBox="0 0 70 70" fill="none" xmlns="http://www.w3.org/2000/svg">
<path fill-rule="evenodd" clip-rule="evenodd" d="M30.4276 0.083201C29.4758 0.328253 28.8355 0.843798 28.3601 1.74755C28.1442 2.15789 28.0965 2.66285 28.0363 5.17168L27.9658 8.11451L26.8716 8.41663C24.772 8.99639 22.4626 9.97344 20.478 11.1218L19.6917 11.5767L17.6743 9.55526C15.5901 7.46681 15.0716 7.10996 14.1226 7.11147C12.8989 7.11326 12.6439 7.28515 10.0829 9.83482C7.44798 12.4581 7.10894 12.9446 7.10894 14.103C7.10894 15.2694 7.38083 15.6927 9.50919 17.8401L11.4887 19.8374L10.7345 21.2093C9.75208 22.9964 9.11803 24.5281 8.5019 26.6034L8.00175 28.288L5.12775 28.291C1.87353 28.2945 1.48266 28.3848 0.724836 29.3093C0.0616569 30.1182 -0.00317028 30.5576 0.000112104 34.2171C0.00339449 37.9084 0.0631613 38.2306 0.897845 39.0614C1.71283 39.8723 1.86328 39.9043 5.0889 39.9521L8.06083 39.9959L8.20047 40.5709C8.70281 42.6403 9.84002 45.4722 10.9147 47.3296L11.4693 48.288L9.52368 50.2862C8.45376 51.3852 7.4726 52.5104 7.34363 52.7865C7.0236 53.4711 7.037 54.6997 7.37153 55.3496C7.51609 55.6302 8.76231 56.9824 10.141 58.3542C12.525 60.7264 12.683 60.8562 13.3612 60.9989C14.8478 61.312 15.4246 60.9977 17.8333 58.5612L19.7361 56.6362L20.4319 57.0506C22.1934 58.0998 25.0561 59.2995 27.0995 59.8452L28.011 60.0886L28.0605 62.9936C28.1146 66.1577 28.1851 66.5009 28.9382 67.2589C29.7824 68.1087 30.0731 68.1614 33.9151 68.1614C36.9966 68.1614 37.4665 68.1322 37.9509 67.911C38.5392 67.6423 39.3086 66.8516 39.5563 66.2614C39.6449 66.0503 39.7326 64.6798 39.7658 62.9867L39.823 60.075L40.5275 59.9064C40.9151 59.8137 41.5476 59.6293 41.9334 59.4966L42.6346 59.2554L42.8662 60.1155C44.064 64.5647 47.562 68.1578 52.105 69.6053C53.661 70.1012 54.3713 70.1268 54.7156 69.6992C55.3197 68.9492 54.8579 68.1685 53.6524 67.9016C49.1384 66.9022 45.561 63.2433 44.6447 58.6889C44.4658 57.8 44.4291 57.1276 44.487 55.8011C44.5756 53.7707 44.7937 52.8733 45.6149 51.1609C46.7685 48.755 48.6653 46.8491 51.0639 45.6858C53.0042 44.7447 53.7432 44.5873 56.208 44.5896C58.0391 44.5914 58.4668 44.6353 59.3476 44.9113C63.4813 46.2069 66.2675 49.0143 67.5118 53.1374C67.8295 54.1901 67.8781 54.597 67.8864 56.2724C67.8976 58.547 67.6474 59.6456 66.6647 61.6355C65.1928 64.6164 62.7941 66.6222 59.422 67.6921C58.2805 68.0541 58.0239 68.1879 57.871 68.5006C57.6333 68.9865 57.7637 69.4799 58.2068 69.7718C58.5197 69.978 58.6559 69.9849 59.4013 69.8314C61.3973 69.4206 63.7942 68.1441 65.4499 66.6101C71.2366 61.2486 71.5451 52.3488 66.1384 46.7373C64.2538 44.7813 62.1302 43.5129 59.6613 42.8683C59.3417 42.7849 59.0801 42.6683 59.0801 42.6093C59.0801 42.5503 59.168 42.1969 59.2755 41.8239C59.383 41.4508 59.5392 40.8826 59.6227 40.5612L59.7744 39.9768L62.4703 39.976C64.0187 39.9756 65.3991 39.9105 65.7132 39.8231C66.4792 39.6098 67.4826 38.5748 67.696 37.7778C67.9239 36.9266 67.8016 35.9946 67.4211 35.6848C66.7108 35.1064 65.7816 35.6683 65.7816 36.6764C65.7816 37.0904 65.693 37.3281 65.4458 37.5765L65.1102 37.9141H61.9605H58.8109L58.3944 38.2922C58.0529 38.6023 57.907 38.9427 57.5834 40.1831C56.9447 42.6317 57.1675 42.4001 55.364 42.4898C54.5118 42.5323 53.3684 42.6848 52.823 42.8289C52.2776 42.973 51.8315 43.0688 51.8315 43.042C51.8315 43.0151 51.9783 42.7011 52.1578 42.3444C52.6031 41.4591 53.2713 39.4153 53.5687 38.029C53.9212 36.3852 53.916 32.0002 53.5595 30.3507C53.15 28.4565 52.679 27.0861 51.8343 25.3314C50.8075 23.1984 49.6349 21.5433 47.9336 19.8257C45.1361 17.0012 41.5868 15.1194 37.5345 14.3122C35.8933 13.9852 32.3171 13.9885 30.5051 14.3186C24.2976 15.4494 18.8753 19.5181 16.0452 25.1689C15.3952 26.4669 14.5598 29.0413 14.2745 30.6258C13.9464 32.4491 13.9449 36.0421 14.2715 37.7029C15.4287 43.5847 18.7181 48.302 23.7944 51.3596C26.9112 53.2369 30.2641 54.1592 33.9809 54.1617C36.8408 54.1634 39.5522 53.6072 41.8214 52.553C42.3861 52.2906 42.8708 52.0985 42.8983 52.1263C42.9258 52.1539 42.8496 52.5412 42.729 52.9869C42.6085 53.4324 42.4684 54.5658 42.418 55.5055L42.3262 57.2138L41.3159 57.5236C40.7602 57.694 39.889 57.936 39.38 58.0615C37.7994 58.451 37.8252 58.3846 37.7445 62.2509C37.6825 65.2228 37.652 65.5533 37.4156 65.8157C37.1648 66.0939 37.0339 66.1047 33.9151 66.1047C30.7963 66.1047 30.6654 66.0939 30.4146 65.8157C30.1782 65.5533 30.1477 65.2228 30.0856 62.2509C30.003 58.2943 30.0813 58.4644 28.1244 57.9824C25.7331 57.3934 23.4648 56.4382 20.9929 54.9796C19.4309 54.0578 19.471 54.042 16.8972 56.6001C14.6024 58.8806 14.2656 59.1466 13.8545 59.004C13.7175 58.9563 12.6053 57.9208 11.3829 56.7025C9.48635 54.8126 9.16043 54.4268 9.16043 54.072C9.16043 53.7189 9.47089 53.3456 11.2212 51.5951C12.3547 50.4615 13.3769 49.3538 13.4929 49.1335C13.7979 48.5541 13.6574 47.8805 13.0099 46.8165C11.7398 44.7304 10.9515 42.8411 10.2418 40.1831C9.91716 38.967 9.75769 38.5963 9.42863 38.2922L9.01929 37.9141H5.89432C2.9399 37.9141 2.74966 37.8985 2.40897 37.629L2.04859 37.3441V34.1224C2.04859 31.0841 2.06419 30.8851 2.32213 30.6258C2.57843 30.3681 2.77852 30.3507 5.50194 30.3499C7.10032 30.3495 8.63963 30.2846 8.92232 30.2057C9.58824 30.0197 9.80214 29.6692 10.1955 28.119C10.7881 25.7834 11.7601 23.4416 12.9911 21.3836C14.093 19.5415 14.122 19.6248 11.4171 16.8742C9.39635 14.8196 9.16043 14.5311 9.16043 14.1157C9.16043 13.6996 9.38951 13.4215 11.3875 11.4127C13.2517 9.5382 13.6797 9.17338 14.0149 9.17338C14.3492 9.17338 14.7782 9.53573 16.609 11.3641C17.8154 12.5689 18.9675 13.6179 19.1692 13.6949C19.6519 13.8792 20.1864 13.7174 21.3181 13.0444C23.5077 11.7424 25.352 10.9692 27.9658 10.2569C28.8285 10.0218 29.5869 9.73114 29.7437 9.57547C29.9984 9.32272 30.022 9.07162 30.0856 5.94287C30.1464 2.95741 30.1812 2.55435 30.398 2.33653C30.6145 2.11884 30.9811 2.08666 33.668 2.0494C37.0221 2.00278 37.363 2.06301 37.5989 2.74371C37.6846 2.9911 37.7445 4.39568 37.7445 6.16083C37.7445 9.8527 37.6455 9.66114 39.8644 10.2604C42.4617 10.962 44.3155 11.7383 46.5121 13.0444C47.6438 13.7174 48.1783 13.8792 48.6609 13.6949C48.8627 13.6179 50.0148 12.5689 51.2212 11.3641C53.052 9.53573 53.481 9.17338 53.8152 9.17338C54.1505 9.17338 54.5785 9.5382 56.4427 11.4127C58.4407 13.4215 58.6698 13.6996 58.6698 14.1157C58.6698 14.5311 58.4338 14.8196 56.4131 16.8742C53.699 19.634 53.738 19.5171 54.8776 21.481C56.1799 23.7251 56.9343 25.5884 57.7399 28.5501C58.2197 30.3139 58.1055 30.2668 62.1098 30.3507C65.8053 30.4282 65.7816 30.4209 65.7816 31.4834C65.7816 31.8627 65.8771 32.1093 66.1174 32.3509C66.8533 33.091 67.8342 32.5206 67.8317 31.3539C67.8302 30.6029 67.3643 29.4847 66.8578 29.0166C66.1529 28.3652 65.7082 28.288 62.6554 28.288H59.7938L59.4897 27.1546C58.9049 24.9754 57.8353 22.3996 56.8119 20.7057L56.311 19.8765L58.3057 17.8546C59.4888 16.6554 60.3862 15.6268 60.5109 15.3266C60.7805 14.6778 60.7802 13.5695 60.5105 12.9203C60.2757 12.3551 56.3707 8.30634 55.416 7.63802C55.0084 7.35267 54.6012 7.20347 54.0836 7.1497C52.7951 7.01604 52.3144 7.30111 50.0315 9.55251L48.0216 11.5348L47.0745 10.9787C45.2609 9.91362 43.4254 9.14147 41.1637 8.49226L39.8644 8.11932L39.7908 5.24278C39.7312 2.91217 39.6717 2.26241 39.4766 1.81823C39.1707 1.12158 38.7764 0.698032 38.0865 0.324678C37.5733 0.0470345 37.3315 0.0269572 34.1886 0.00302956C32.3457 -0.010997 30.6532 0.025032 30.4276 0.083201ZM32.821 17.2154C32.821 18.5379 33.0061 18.3681 31.2482 18.6579C30.0844 18.8498 28.6108 19.2867 27.7003 19.7097L27.0247 20.0236L26.8052 19.6522C26.6844 19.4478 26.4206 18.9936 26.2187 18.6425L25.8519 18.0045L26.9935 17.5113C28.2903 16.9511 30.3822 16.3817 31.7952 16.2043C32.3218 16.1381 32.768 16.0761 32.7868 16.0665C32.8055 16.057 32.821 16.5739 32.821 17.2154ZM37.8129 16.5153C38.8623 16.744 40.3231 17.232 41.334 17.6915L41.9829 17.9866L41.6075 18.6442C41.401 19.0059 41.1374 19.4438 41.0219 19.6174L40.8117 19.933L39.5174 19.4482C38.3722 19.0192 36.9958 18.6867 35.3853 18.4499L34.8725 18.3744V17.3034C34.8725 16.7144 34.9019 16.2029 34.9378 16.1667C35.033 16.071 36.7033 16.2736 37.8129 16.5153ZM24.7035 20.1328L25.2088 21.0415L24.8777 21.2999C23.5522 22.3341 22.305 23.5876 21.2086 24.9876L20.9394 25.3314L20.0321 24.8501C19.5332 24.5854 19.0927 24.3189 19.0533 24.2577C18.9477 24.0939 20.3568 22.3061 21.427 21.2463C22.4705 20.2127 23.9406 19.0642 24.0961 19.1607C24.1522 19.1956 24.4254 19.6331 24.7035 20.1328ZM44.8018 19.7916C46.2621 20.9014 48.8226 23.6601 48.8226 24.1235C48.8226 24.2519 47.1713 25.2634 46.9642 25.2617C46.8956 25.2612 46.6856 25.0329 46.4976 24.7543C46.026 24.0554 44.1064 22.1273 43.3128 21.5554C42.9529 21.2959 42.6759 21.0183 42.6974 20.9385C42.7692 20.6724 43.6926 19.0778 43.7761 19.0761C43.8212 19.0752 44.2828 19.3972 44.8018 19.7916ZM37.1291 20.8421C39.0689 21.37 41.0386 22.3271 42.2109 23.3113C43.2698 24.2002 44.6615 25.6546 45.1564 26.3895C47.6991 30.1647 48.1913 35.2239 46.4195 39.3715C45.4773 41.5772 45.6328 42.0494 47.6993 43.2564L48.9587 43.9921L48.6828 44.3814C48.5312 44.5957 48.1467 44.9714 47.8284 45.2164C46.9287 45.9092 46.1284 46.7041 45.3632 47.6652C43.855 49.5594 40.3602 51.2778 36.7985 51.8767C34.9429 52.1886 31.7836 52.1007 30.0841 51.6898C26.6517 50.8599 23.6786 49.2218 21.3466 46.8755C20.5067 46.0306 19.0064 44.1716 19.0085 43.9786C19.009 43.9331 19.5281 43.6002 20.1622 43.2388C20.7962 42.8773 21.4728 42.393 21.6658 42.1625C22.1226 41.6167 22.1268 40.8399 21.6784 39.8713C19.9018 36.0344 20.0012 31.4701 21.9418 27.7718C23.8553 24.1254 27.4964 21.4116 31.3849 20.7335C31.8363 20.6548 32.3594 20.5628 32.5474 20.529C33.3106 20.3921 36.202 20.5898 37.1291 20.8421ZM18.9452 26.5984C19.4309 26.8792 19.8282 27.1916 19.8282 27.2928C19.8282 27.3939 19.7423 27.6436 19.6373 27.848C19.3 28.5036 18.7698 30.2868 18.6015 31.3308C18.3079 33.1537 18.4738 32.9635 17.1777 32.9635C16.0731 32.9635 16.038 32.9536 16.0786 32.6541C16.3216 30.8591 16.4871 29.977 16.7557 29.0443C17.081 27.9153 17.8391 26.0878 17.9821 26.0878C18.0263 26.0878 18.4597 26.3175 18.9452 26.5984ZM50.4345 27.0847C51.153 28.8465 51.5772 30.4697 51.7643 32.1728L51.8511 32.9635H50.6945H49.5379L49.4441 32.1728C49.3051 31.001 48.8869 29.389 48.4135 28.2007C48.1834 27.6223 48.0118 27.1336 48.0326 27.1143C48.2078 26.9525 49.7466 26.097 49.8698 26.093C49.9568 26.0901 50.2109 26.5363 50.4345 27.0847ZM32.6842 31.1197C31.502 31.6338 30.7695 32.7733 30.7695 34.0986C30.7695 34.837 30.8372 35.0831 31.214 35.714C32.0555 37.1231 33.8633 37.647 35.322 36.9044L35.9547 36.5824L39.0537 38.5064C42.2937 40.5178 42.6788 40.6713 43.229 40.1706C43.5624 39.8671 43.5702 39.0962 43.243 38.7671C43.1077 38.6311 41.6614 37.6938 40.0289 36.6841L37.0607 34.8482L37.0577 34.0778C37.0506 32.2651 35.678 30.8928 33.8853 30.9062C33.488 30.9092 32.9475 31.0052 32.6842 31.1197ZM34.6927 33.2625C35.398 33.9287 34.9053 35.1638 33.9342 35.1638C33.2805 35.1638 32.821 34.7177 32.821 34.0829C32.821 33.0832 33.9697 32.5796 34.6927 33.2625ZM18.3775 35.3813C18.4232 35.501 18.4605 35.777 18.4605 35.9948C18.4605 36.6331 18.9812 38.6959 19.4213 39.8009C19.6451 40.363 19.8282 40.8745 19.8282 40.9379C19.8282 41.0013 19.3986 41.3022 18.8734 41.6066L17.9188 42.16L17.6286 41.5153C16.8884 39.8713 16.3341 37.7357 16.0961 35.6107L16.0461 35.1638H17.1703C18.0692 35.1638 18.3112 35.2074 18.3775 35.3813ZM51.7628 36.0232C51.5793 37.674 51.0483 39.6569 50.3545 41.2832C50.1609 41.737 49.9917 42.1255 49.9784 42.1467C49.9487 42.194 48.002 41.0712 48.002 41.0067C48.002 40.9811 48.1888 40.4911 48.4171 39.9177C48.8872 38.7375 49.3054 37.1234 49.4441 35.9545L49.5379 35.1638H50.6981H51.8583L51.7628 36.0232ZM59.2364 51.4643C58.9838 51.5746 57.8902 52.5434 56.8063 53.6172L54.8354 55.5697L54.1882 54.9304C53.8323 54.5787 53.3122 54.1953 53.0325 54.0785C51.7229 53.5309 50.3913 54.0888 49.7657 55.4473C49.1645 56.7529 49.5844 57.6312 51.8223 59.7495C53.9247 61.7393 54.6027 62.0286 55.831 61.46C56.4934 61.1533 62.2528 55.5449 62.5482 54.9189C62.9872 53.9888 62.7279 52.5772 61.9959 51.9115C61.3092 51.2872 60.0935 51.0901 59.2364 51.4643ZM60.6935 53.7344C60.7277 54.0301 60.2907 54.5141 57.8683 56.8629C56.2922 58.3911 54.9189 59.6415 54.8166 59.6415C54.7143 59.6415 53.9245 58.9294 53.0614 58.0591C51.7266 56.7131 51.5146 56.441 51.6423 56.237C51.9417 55.7589 52.2491 55.8882 53.3319 56.9476C54.8942 58.4763 54.7446 58.5214 57.6614 55.6442C59.5139 53.8169 60.1087 53.3069 60.3468 53.3408C60.5582 53.3711 60.6654 53.4928 60.6935 53.7344Z" fill="white"/>
</svg>
