<svg width="64" height="64" viewBox="0 0 64 64" fill="none" xmlns="http://www.w3.org/2000/svg">
<path fill-rule="evenodd" clip-rule="evenodd" d="M1.0424 0.684979L0.71875 1.0085V32.0014V62.9942L1.0424 63.3177L1.36592 63.6414H26.5581H51.7502L52.0738 63.3177L52.3974 62.9942V41.9297V20.8654L58.1981 15.0593C63.5976 9.6548 63.9987 9.22172 63.9987 8.7992C63.9987 8.38616 63.7811 8.1275 61.5888 5.93525C59.4012 3.7476 59.1373 3.52533 58.7271 3.52533C58.3124 3.52533 57.9922 3.80785 54.8086 6.98319L51.3417 10.4409L46.2956 5.40119L41.2496 0.361328H21.3077H1.36592L1.0424 0.684979ZM44.5533 6.68933L48.7704 10.908H45.3106H41.8507V8.27134V5.63467H40.7961H39.7414V9.00235V12.3702L40.0651 12.6937L40.3886 13.0173H44.5801H48.7715L36.413 25.3767L24.0547 37.7361L22.9333 41.095C22.3166 42.9423 21.8121 44.5913 21.8121 44.7593C21.8121 45.1531 22.3711 45.712 22.7648 45.712C22.9328 45.712 24.5818 45.2074 26.4291 44.5907L29.788 43.4694L40.038 33.2204L50.2881 22.9714V42.2517V61.532H26.5581H2.82808V32.0014V2.47066H21.5822H40.3362L44.5533 6.68933ZM60.1109 7.48152L61.4255 8.80104L45.3105 24.9161L29.1955 41.031L27.8444 39.6799L26.4932 38.3287L42.5761 22.2454C51.4217 13.3995 58.69 6.162 58.7277 6.162C58.7654 6.162 59.3879 6.75578 60.1109 7.48152ZM14.0028 9.81774L11.27 12.5505L10.637 11.9271C10.2888 11.584 9.94445 11.3035 9.87167 11.3035C9.69818 11.3035 8.49692 12.5249 8.49692 12.7013C8.49692 12.7763 9.0232 13.3529 9.66641 13.9822C11.3911 15.6698 11.0234 15.816 14.9836 11.8674C16.7816 10.0747 18.2526 8.54476 18.2526 8.46764C18.2526 8.29348 17.0384 7.08483 16.8635 7.08483C16.7932 7.08483 15.506 8.31458 14.0028 9.81774ZM6.31573 8.06765L5.99208 8.39117V13.0173V17.6435L6.31573 17.967L6.63925 18.2907H11.2654H15.8916L16.2151 17.967C16.5269 17.6554 16.5387 17.578 16.5387 15.8577V14.072H15.4841H14.4294V15.1267V16.1813H11.2654H8.10142V13.0173V9.85334H9.68342H11.2654V8.79867V7.744H8.9524C6.67221 7.744 6.63464 7.74862 6.31573 8.06765ZM14.0028 23.5284L11.27 26.2612L10.637 25.6378C10.2888 25.2947 9.94445 25.0142 9.87167 25.0142C9.69818 25.0142 8.49692 26.2356 8.49692 26.412C8.49692 26.487 9.0232 27.0635 9.66641 27.6929C11.3911 29.3805 11.0234 29.5267 14.9836 25.578C16.7816 23.7854 18.2526 22.2554 18.2526 22.1783C18.2526 22.0042 17.0384 20.7955 16.8635 20.7955C16.7932 20.7955 15.506 22.0253 14.0028 23.5284ZM6.31573 21.7783L5.99208 22.1019V26.728V31.3542L6.31573 31.6777L6.63925 32.0014H11.2654H15.8916L16.2151 31.6777C16.5269 31.3661 16.5387 31.2887 16.5387 29.5684V27.7827H15.4841H14.4294V28.8374V29.892H11.2654H8.10142V26.728V23.564H9.68342H11.2654V22.5093V21.4547H8.9524C6.67221 21.4547 6.63464 21.4593 6.31573 21.7783ZM6.31573 35.489L5.99208 35.8125V40.4387V45.0649L6.31573 45.3884L6.63925 45.712H11.2654H15.8916L16.2151 45.3884L16.5387 45.0649V40.4387V35.8125L16.2151 35.489L15.8916 35.1654H11.2654H6.63925L6.31573 35.489ZM14.4294 40.4387V43.6027H11.2654H8.10142V40.4387V37.2747H11.2654H14.4294V40.4387ZM25.9435 42.512C25.2405 42.7478 24.648 42.923 24.6265 42.9015C24.6048 42.88 24.7768 42.2871 25.0084 41.5839L25.4295 40.3055L26.3254 41.1946L27.2213 42.0837L25.9435 42.512ZM6.31573 49.1997L5.99208 49.5232V54.1494V58.7755L6.31573 59.0991L6.63925 59.4227H11.2654H15.8916L16.2151 59.0991L16.5387 58.7755V54.1494V49.5232L16.2151 49.1997L15.8916 48.876H11.2654H6.63925L6.31573 49.1997ZM14.4294 54.1494V57.3134H11.2654H8.10142V54.1494V50.9854H11.2654H14.4294V54.1494ZM37.6321 58.368V59.4227H38.6867H39.7414V58.368V57.3134H38.6867H37.6321V58.368ZM41.8507 58.368V59.4227H42.9054H43.9601V58.368V57.3134H42.9054H41.8507V58.368ZM46.0694 58.368V59.4227H47.1241H48.1787V58.368V57.3134H47.1241H46.0694V58.368Z" fill="white"/>
</svg>
