<svg width="70" height="70" viewBox="0 0 70 70" fill="none" xmlns="http://www.w3.org/2000/svg">
<path fill-rule="evenodd" clip-rule="evenodd" d="M8.32695 0.0861479C6.26258 0.46256 4.49282 1.41101 2.94946 2.96779C1.65288 4.27584 0.910563 5.4603 0.374696 7.07626C0.0438655 8.074 0 8.42937 0 10.113C0 11.7966 0.0438655 12.152 0.374696 13.1497C0.912685 14.7723 1.65642 15.9555 2.94946 17.2462C4.2425 18.5369 5.42786 19.2792 7.05343 19.8162C8.053 20.1465 8.40902 20.1902 10.0957 20.1902C11.7824 20.1902 12.1384 20.1465 13.138 19.8162C14.7636 19.2792 15.9489 18.5369 17.242 17.2462C18.535 15.9555 19.2787 14.7723 19.8167 13.1497C20.3656 11.4943 20.3656 8.73163 19.8167 7.07626C19.2787 5.45366 18.535 4.27047 17.242 2.97979C15.2676 1.00903 13.228 0.108041 10.5202 0.010583C9.70305 -0.0187956 8.71607 0.0151027 8.32695 0.0861479ZM58.1355 0.0861479C56.0711 0.46256 54.3014 1.41101 52.758 2.96779C51.4614 4.27584 50.7191 5.4603 50.1833 7.07626C49.8524 8.074 49.8086 8.42937 49.8086 10.113C49.8086 11.7966 49.8524 12.152 50.1833 13.1497C50.7213 14.7723 51.465 15.9555 52.758 17.2462C54.0511 18.5369 55.2364 19.2792 56.862 19.8162C57.8616 20.1465 58.2176 20.1902 59.9043 20.1902C61.591 20.1902 61.947 20.1465 62.9466 19.8162C64.5721 19.2792 65.7575 18.5369 67.0505 17.2462C68.3436 15.9555 69.0873 14.7723 69.6253 13.1497C69.9561 12.152 70 11.7966 70 10.113C70 8.42937 69.9561 8.074 69.6253 7.07626C69.0873 5.45366 68.3436 4.27047 67.0505 2.97979C65.0762 1.00903 63.0366 0.108041 60.3288 0.010583C59.5116 -0.0187956 58.5246 0.0151027 58.1355 0.0861479ZM31.4145 1.27923C28.7602 1.61694 26.2747 2.24448 23.8398 3.19166C22.113 3.86341 20.9913 4.42146 20.9913 4.60903C20.9913 4.72217 21.7581 6.20027 21.9352 6.4281C21.9599 6.45988 22.474 6.25564 23.0776 5.974C30.4645 2.52796 39.4207 2.49434 46.7329 5.88558C47.4421 6.2144 48.0421 6.45804 48.0661 6.42683C48.2539 6.18347 49.0087 4.71821 49.0087 4.59702C49.0087 4.21383 44.8648 2.59095 42.2166 1.937C39.1575 1.18163 34.4401 0.89434 31.4145 1.27923ZM11.5908 2.35437C14.335 2.84773 16.7157 4.99688 17.682 7.8531C18.046 8.92866 18.0466 11.2939 17.6833 12.3729C16.8112 14.9628 14.9622 16.8082 12.3597 17.6854C11.2822 18.0487 8.91262 18.0493 7.83169 17.6867C3.99558 16.3999 1.71868 12.8206 2.28186 8.96299C2.65231 6.4264 4.27547 4.21101 6.60034 3.06863C8.27346 2.24646 9.78654 2.02993 11.5908 2.35437ZM61.3994 2.35437C62.779 2.60239 64.3825 3.46143 65.4446 4.5216C67.0576 6.13163 67.7534 7.81666 67.7535 10.113C67.7537 11.8 67.4496 12.925 66.6519 14.1876L66.1913 14.9168L65.5769 13.9839C65.2185 13.4398 64.6154 12.7821 64.13 12.4056C63.3398 11.7931 63.3082 11.7453 63.5107 11.4664C64.2351 10.4682 64.3579 10.0678 64.3597 8.70056C64.3619 7.13332 64.1056 6.45663 63.1423 5.4853C62.3265 4.66298 61.4534 4.27118 60.2862 4.20366C59.1093 4.13573 58.2637 4.35748 57.4218 4.95493C55.3314 6.43841 54.8633 9.27669 56.3625 11.3782L56.6517 11.7836L56.1909 12.0696C55.4841 12.5083 54.5841 13.4924 54.1295 14.3237L53.7191 15.0741L53.2529 14.349C50.7215 10.4114 52.197 5.13813 56.4089 3.06863C58.082 2.24646 59.5951 2.02993 61.3994 2.35437ZM5.49847 5.66948C4.73337 5.96058 3.95143 6.75536 3.57843 7.62089C3.20586 8.4853 3.2551 9.61694 3.70267 10.4763C3.86144 10.7815 5.26471 12.297 6.82094 13.8442C9.29793 16.3069 9.70574 16.6572 10.0957 16.6572C10.4857 16.6572 10.8935 16.3069 13.3705 13.8442C14.9267 12.297 16.3369 10.7768 16.5043 10.4661C16.906 9.72019 16.9297 8.15267 16.55 7.42937C15.8315 6.06044 14.5646 5.35409 13.0706 5.48926C12.1147 5.57584 11.6696 5.78657 10.7678 6.57965L10.0957 7.17089L9.42358 6.57965C9.05398 6.25451 8.56099 5.88996 8.32808 5.76962C7.72797 5.45917 6.19353 5.40493 5.49847 5.66948ZM61.1437 6.72245C61.8167 7.13191 62.1672 7.78968 62.1677 8.64434C62.1685 9.57527 61.7537 10.2145 60.8632 10.6558C58.4161 11.8679 56.4899 8.28968 58.7655 6.75889C59.3847 6.34236 60.4914 6.32541 61.1437 6.72245ZM8.46845 8.8418C9.43405 9.76482 9.73206 9.97174 10.0957 9.97174C10.4594 9.97174 10.7574 9.76482 11.723 8.8418C12.7554 7.85493 12.9699 7.71186 13.417 7.71186C14.061 7.71186 14.6238 8.22598 14.6238 8.81426C14.6238 9.37923 14.1067 10.026 11.9502 12.159L10.0957 13.9931L8.2412 12.159C6.08471 10.026 5.56766 9.37923 5.56766 8.81426C5.56766 8.22598 6.13042 7.71186 6.77439 7.71186C7.22154 7.71186 7.43605 7.85493 8.46845 8.8418ZM31.9513 12.7196C31.6434 13.0268 31.604 13.1884 31.604 14.1393V15.2121L31.0944 15.4247L30.5849 15.6371L29.7606 14.8525C28.5358 13.6864 28.5279 13.689 26.197 16.0154C23.8664 18.3419 23.8638 18.3499 25.0321 19.5725L25.8181 20.3952L25.6053 20.9038L25.3923 21.4124H24.3175C23.3649 21.4124 23.203 21.4518 22.8952 21.7592C22.5507 22.103 22.5479 22.1277 22.5479 24.8023C22.5479 27.4768 22.5507 27.5015 22.8952 27.8453C23.203 28.1527 23.3649 28.1921 24.3175 28.1921H25.3923L25.6053 28.7007L25.8181 29.2093L25.0321 30.0321C23.8638 31.2547 23.8664 31.2626 26.197 33.5891C28.5279 35.9155 28.5358 35.9181 29.7606 34.752L30.5849 33.9674L31.0944 34.1798L31.604 34.3924V35.4652C31.604 36.4161 31.6434 36.5777 31.9513 36.8849C32.2958 37.2288 32.3205 37.2316 35 37.2316C37.6795 37.2316 37.7042 37.2288 38.0487 36.8849C38.3566 36.5777 38.396 36.4161 38.396 35.4652V34.3924L38.9056 34.1798L39.4151 33.9674L40.2394 34.752C41.4642 35.9181 41.4721 35.9155 43.803 33.5891C46.1336 31.2626 46.1362 31.2547 44.9679 30.0321L44.1819 29.2093L44.3947 28.7007L44.6077 28.1921H45.6825C46.6351 28.1921 46.797 28.1527 47.1048 27.8453C47.4493 27.5015 47.4521 27.4768 47.4521 24.8023C47.4521 22.1277 47.4493 22.103 47.1048 21.7592C46.797 21.4518 46.6351 21.4124 45.6825 21.4124H44.6077L44.3947 20.9038L44.1819 20.3952L44.9679 19.5725C46.1362 18.3499 46.1336 18.3419 43.803 16.0154C41.4721 13.689 41.4642 13.6864 40.2394 14.8525L39.4151 15.6371L38.9056 15.4247L38.396 15.2121V14.1393C38.396 13.1884 38.3566 13.0268 38.0487 12.7196C37.7042 12.3757 37.6795 12.3729 35 12.3729C32.3205 12.3729 32.2958 12.3757 31.9513 12.7196ZM61.7438 13.5832C62.1718 13.7812 62.7663 14.1778 63.0649 14.4645C63.6186 14.9962 64.2908 16.1367 64.2908 16.5441C64.2908 16.8647 62.4431 17.684 61.2536 17.8908C59.5546 18.1862 57.5723 17.8521 56.0901 17.0205L55.5435 16.7138L55.7317 16.1815C56.1662 14.9523 57.2218 13.8862 58.4502 13.436C59.3635 13.1014 60.8454 13.1675 61.7438 13.5832ZM36.132 15.5193C36.132 16.6326 36.3389 16.9401 37.2995 17.2539C37.7081 17.3874 38.3427 17.6467 38.7098 17.8302C39.0768 18.0137 39.5094 18.1638 39.671 18.1638C39.8324 18.1638 40.2837 17.866 40.6736 17.502L41.3826 16.84L42.1797 17.6357L42.9769 18.4313L42.3137 19.139C41.949 19.5282 41.6506 19.9787 41.6506 20.1398C41.6506 20.3011 41.801 20.7329 41.9848 21.0993C42.1686 21.4657 42.4284 22.0991 42.5621 22.5069C42.8765 23.4658 43.1846 23.6723 44.2999 23.6723H45.1881V24.8023V25.9322H44.2999C43.1846 25.9322 42.8765 26.1387 42.5621 27.0976C42.4284 27.5054 42.1686 28.1388 41.9848 28.5052C41.801 28.8716 41.6506 29.3034 41.6506 29.4647C41.6506 29.6258 41.949 30.0763 42.3137 30.4655L42.9769 31.1732L42.1797 31.9688L41.3826 32.7645L40.6736 32.1025C40.2837 31.7386 39.8324 31.4407 39.671 31.4407C39.5094 31.4407 39.0768 31.5908 38.7098 31.7743C38.3427 31.9578 37.7081 32.2171 37.2995 32.3506C36.3389 32.6644 36.132 32.9719 36.132 34.0852V34.9717H35H33.868V34.0852C33.868 32.9719 33.6611 32.6644 32.7005 32.3506C32.2919 32.2171 31.6573 31.9578 31.2903 31.7743C30.9232 31.5908 30.4906 31.4407 30.329 31.4407C30.1676 31.4407 29.7163 31.7386 29.3264 32.1025L28.6174 32.7645L27.8204 31.9688L27.0231 31.1732L27.6863 30.4655C28.051 30.0763 28.3494 29.6258 28.3494 29.4647C28.3494 29.3034 28.199 28.8716 28.0152 28.5052C27.8314 28.1388 27.5716 27.5054 27.4379 27.0976C27.1235 26.1387 26.8154 25.9322 25.7001 25.9322H24.8119V24.8023V23.6723H25.7001C26.8154 23.6723 27.1235 23.4658 27.4379 22.5069C27.5716 22.0991 27.8314 21.4657 28.0152 21.0993C28.199 20.7329 28.3494 20.3011 28.3494 20.1398C28.3494 19.9787 28.051 19.5282 27.6863 19.139L27.0231 18.4313L27.8204 17.6357L28.6174 16.84L29.3264 17.502C29.7163 17.866 30.1676 18.1638 30.329 18.1638C30.4906 18.1638 30.9232 18.0137 31.2903 17.8302C31.6573 17.6467 32.2919 17.3874 32.7005 17.2539C33.6611 16.9401 33.868 16.6326 33.868 15.5193V14.6328H35H36.132V15.5193ZM33.6724 19.3006C32.777 19.5251 31.5026 20.278 30.884 20.9479C30.5663 21.2919 30.1048 21.9982 29.8585 22.5169C29.453 23.3713 29.4107 23.5878 29.4107 24.8096C29.4107 26.0829 29.4404 26.2186 29.9392 27.226C30.5757 28.5116 31.395 29.3123 32.7105 29.9343C33.5653 30.3386 33.7844 30.3814 35 30.3814C36.2156 30.3814 36.4347 30.3386 37.2895 29.9343C38.605 29.3123 39.4243 28.5116 40.0608 27.226C40.5602 26.2175 40.5893 26.084 40.5893 24.8023C40.5893 23.5205 40.5602 23.387 40.0608 22.3785C39.1047 20.4473 37.406 19.3141 35.3182 19.215C34.7152 19.1863 33.9745 19.2249 33.6724 19.3006ZM62.6636 21.3777C62.1188 21.5797 61.6545 21.7575 61.6319 21.7729C61.6091 21.7881 61.8076 22.5237 62.0728 23.4075C62.338 24.2911 62.663 25.6179 62.7953 26.3559C62.9275 27.0939 63.0647 27.8412 63.1002 28.0167C63.1583 28.3037 63.225 28.3277 63.7632 28.2565C65.3452 28.0472 65.2815 28.0753 65.2798 27.5854C65.2775 26.885 64.6606 24.0429 64.1619 22.4364C63.9149 21.6402 63.6995 20.9936 63.6834 20.9997C63.6672 21.0056 63.2083 21.1758 62.6636 21.3777ZM36.0448 21.5842C36.8221 21.8134 37.9943 22.9835 38.224 23.7593C38.6159 25.0836 38.3396 26.1394 37.3396 27.1376C35.908 28.5665 34.092 28.5665 32.6604 27.1376C31.2288 25.7086 31.2288 23.8975 32.6604 22.4654C33.653 21.4725 34.7222 21.1941 36.0448 21.5842ZM5.5978 23.2839C5.06123 25.1374 4.43565 28.9328 4.43565 30.3353C4.43565 30.3994 4.94506 30.452 5.56766 30.452C6.25664 30.452 6.69968 30.3945 6.69968 30.3052C6.69968 29.1644 7.34393 25.283 7.76334 23.897C7.87881 23.5157 7.97319 23.1243 7.97319 23.0273C7.97319 22.8681 6.45474 22.2599 6.05726 22.2599C5.96769 22.2599 5.76081 22.7206 5.5978 23.2839ZM58.1355 29.4647C56.0711 29.8411 54.3014 30.7895 52.758 32.3463C51.4614 33.6544 50.7191 34.8388 50.1833 36.4548C49.8524 37.4525 49.8086 37.8079 49.8086 39.4915C49.8086 41.1751 49.8524 41.5305 50.1833 42.5282C50.7213 44.1508 51.465 45.334 52.758 46.6247C54.0511 47.9154 55.2364 48.6578 56.862 49.1948C57.8616 49.525 58.2176 49.5688 59.9043 49.5688C61.591 49.5688 61.947 49.525 62.9466 49.1948C64.5721 48.6578 65.7575 47.9154 67.0505 46.6247C68.3436 45.334 69.0873 44.1508 69.6253 42.5282C69.9561 41.5305 70 41.1751 70 39.4915C70 37.8079 69.9561 37.4525 69.6253 36.4548C69.0873 34.8322 68.3436 33.649 67.0505 32.3583C65.0762 30.3876 63.0366 29.4866 60.3288 29.3891C59.5116 29.3597 58.5246 29.3936 58.1355 29.4647ZM8.32695 31.7246C6.26258 32.101 4.49282 33.0494 2.94946 34.6062C1.65288 35.9143 0.910563 37.0987 0.374696 38.7147C0.0438655 39.7124 0 40.0678 0 41.7514C0 43.435 0.0438655 43.7904 0.374696 44.7881C0.912685 46.4107 1.65642 47.5939 2.94946 48.8846C4.2425 50.1753 5.42786 50.9177 7.05343 51.4547C8.053 51.7849 8.40902 51.8287 10.0957 51.8287C11.7824 51.8287 12.1384 51.7849 13.138 51.4547C14.7636 50.9177 15.9489 50.1753 17.242 48.8846C18.535 47.5939 19.2787 46.4107 19.8167 44.7881C20.1476 43.7904 20.1914 43.435 20.1914 41.7514C20.1914 40.0678 20.1476 39.7124 19.8167 38.7147C19.2787 37.0921 18.535 35.9089 17.242 34.6182C15.2676 32.6475 13.228 31.7465 10.5202 31.649C9.70305 31.6196 8.71607 31.6535 8.32695 31.7246ZM58.7723 32.2175V32.7119H59.9043H61.0363V32.2175C61.0363 31.6195 61.1788 31.5989 62.42 32.0174C64.662 32.773 66.6351 34.7425 67.3921 36.9804C67.8114 38.2193 67.7907 38.3616 67.1916 38.3616H66.6964V39.4915V40.6215H67.1916C67.7907 40.6215 67.8114 40.7637 67.3921 42.0027C66.6351 44.2405 64.662 46.21 62.42 46.9657C61.1788 47.3842 61.0363 47.3636 61.0363 46.7655V46.2712H59.9043H58.7723V46.7655C58.7723 47.3636 58.6298 47.3842 57.3885 46.9657C55.1466 46.21 53.1735 44.2405 52.4164 42.0027C51.9972 40.7637 52.0178 40.6215 52.617 40.6215H53.1122V39.4915V38.3616H52.5984C52.0975 38.3616 52.0866 38.3501 52.1609 37.9025C52.28 37.1853 52.801 35.9024 53.2233 35.287C54.3495 33.6452 55.6478 32.628 57.4208 31.9979C58.5548 31.5948 58.7723 31.6301 58.7723 32.2175ZM11.5908 33.9928C14.335 34.4862 16.7157 36.6353 17.682 39.4915C18.046 40.5671 18.0466 42.9323 17.6833 44.0113C16.8112 46.6013 14.9622 48.4466 12.3597 49.3239C11.2822 49.6871 8.91262 49.6877 7.83169 49.3251C3.99558 48.0383 1.71868 44.459 2.28186 40.6014C2.65231 38.0648 4.27547 35.8494 6.60034 34.7071C8.27346 33.8849 9.78654 33.6684 11.5908 33.9928ZM58.7723 36.8172C58.7723 38.6143 58.8307 39.9017 58.92 40.0681C59.0297 40.2726 63.636 42.7401 63.9082 42.7401C63.9951 42.7401 64.9083 40.7671 64.8476 40.7106C64.8138 40.6792 63.9425 40.2328 62.9112 39.7184L61.0363 38.7833V36.3126V33.8418H59.9043H58.7723V36.8172ZM8.9637 35.6609C8.9637 36.2951 8.92946 36.364 8.53439 36.5274C7.58321 36.9206 6.69968 38.3482 6.69968 39.4915C6.69968 41.2354 8.34251 42.8814 10.0831 42.8814C10.6779 42.8814 11.2277 43.4243 11.2277 44.0113C11.2277 44.5919 10.6774 45.1412 10.0957 45.1412C9.62353 45.1412 8.9637 44.6099 8.9637 44.2295C8.9637 44.0508 8.75838 44.0113 7.83169 44.0113C6.56808 44.0113 6.56285 44.0168 6.86608 45.0273C7.06928 45.7042 7.9514 46.7343 8.53439 46.9754C8.92946 47.1388 8.9637 47.2078 8.9637 47.8419V48.5311H10.0957H11.2277V47.8419C11.2277 47.2078 11.262 47.1388 11.657 46.9754C12.6082 46.5822 13.4918 45.1547 13.4918 44.0113C13.4918 42.2674 11.8489 40.6215 10.1083 40.6215C9.51358 40.6215 8.9637 40.0785 8.9637 39.4915C8.9637 38.9109 9.514 38.3616 10.0957 38.3616C10.5679 38.3616 11.2277 38.8929 11.2277 39.2733C11.2277 39.452 11.433 39.4915 12.3597 39.4915C13.6234 39.4915 13.6286 39.486 13.3253 38.4756C13.1222 37.7986 12.24 36.7685 11.657 36.5274C11.262 36.364 11.2277 36.2951 11.2277 35.6609V34.9717H10.0957H8.9637V35.6609ZM33.868 40.6215V41.7514H35H36.132V40.6215V39.4915H35H33.868V40.6215ZM27.4233 44.358L27.0759 44.7047V48.3128V51.9209H24.095C22.2943 51.9209 21.0049 51.9792 20.8381 52.0684C20.495 52.2517 18.0198 57.1503 18.0198 57.6462C18.0198 57.8448 18.1762 58.1631 18.3672 58.3538C18.6523 58.6386 18.8547 58.7006 19.4992 58.7006H20.2838V63.4386V68.1767L20.6312 68.5233C20.9785 68.8701 20.9789 68.8701 24.0273 68.8701C26.6827 68.8701 27.0759 68.8982 27.0759 69.0883C27.0759 69.2083 27.2323 69.4626 27.4233 69.6533L27.7705 70H35H42.2295L42.5767 69.6533C42.7677 69.4626 42.9241 69.2083 42.9241 69.0883C42.9241 68.8982 43.3173 68.8701 45.9727 68.8701C49.0211 68.8701 49.0215 68.8701 49.3688 68.5233L49.7162 68.1767V63.4386V58.7006H50.5008C51.1453 58.7006 51.3477 58.6386 51.6328 58.3538C51.8238 58.1631 51.9802 57.8448 51.9802 57.6462C51.9802 57.1503 49.505 52.2517 49.1619 52.0684C48.9951 51.9792 47.7057 51.9209 45.905 51.9209H42.9241V48.3128V44.7047L42.5767 44.358L42.2295 44.0113H35H27.7705L27.4233 44.358ZM40.6601 57.0056V67.7401H39.528H38.396V65.8144C38.396 63.5237 38.2605 62.9908 37.4478 62.0887C36.1071 60.6001 34.1087 60.5694 32.6604 62.015C31.738 62.9357 31.604 63.4177 31.604 65.8144V67.7401H30.4719H29.3399V57.0056V46.2712H35H40.6601V57.0056ZM31.604 49.661V50.791H32.736H33.868V49.661V48.5311H32.736H31.604V49.661ZM36.132 49.661V50.791H37.264H38.396V49.661V48.5311H37.264H36.132V49.661ZM54.9458 51.5833C54.5988 51.9415 53.8946 52.5994 53.3806 53.0455L52.4463 53.8564L52.8146 54.3445C53.0173 54.613 53.3257 55.0117 53.5004 55.2308L53.8177 55.6288L54.4909 55.0814C54.861 54.7802 55.665 54.0575 56.2775 53.4751L57.3908 52.4164L56.5605 51.6746C56.1037 51.2665 55.6955 50.9326 55.6533 50.9325C55.6111 50.9323 55.2927 51.2253 54.9458 51.5833ZM14.5884 52.8308C14.2188 53.2515 13.9163 53.6222 13.9163 53.6544C13.9163 53.6866 14.4269 54.1431 15.051 54.6688L16.1857 55.6246L16.5014 55.2295C16.675 55.0123 16.9895 54.6031 17.2004 54.3203L17.5836 53.8062L16.9174 53.2989C16.5509 53.0198 16.0967 52.6274 15.908 52.4268C15.7193 52.2263 15.4964 52.063 15.4128 52.064C15.329 52.065 14.958 52.41 14.5884 52.8308ZM31.604 54.1808V55.3107H32.736H33.868V54.1808V53.0508H32.736H31.604V54.1808ZM36.132 54.1808V55.3107H37.264H38.396V54.1808V53.0508H37.264H36.132V54.1808ZM27.0759 55.3107V56.4407H24.0321H20.9882L21.5573 55.3107L22.1265 54.1808H24.6012H27.0759V55.3107ZM48.4427 55.3107L49.0118 56.4407H45.9679H42.9241V55.3107V54.1808H45.3988H47.8735L48.4427 55.3107ZM31.604 58.7006V59.8305H32.736H33.868V58.7006V57.5706H32.736H31.604V58.7006ZM36.132 58.7006V59.8305H37.264H38.396V58.7006V57.5706H37.264H36.132V58.7006ZM27.0759 62.6554V66.6102H24.8119H22.5479V62.6554V58.7006H24.8119H27.0759V62.6554ZM47.4521 62.6554V66.6102H45.1881H42.9241V62.6554V58.7006H45.1881H47.4521V62.6554ZM35.7846 63.5671C36.1193 63.901 36.132 63.9839 36.132 65.827V67.7401H35H33.868V65.827C33.868 63.9839 33.8807 63.901 34.2154 63.5671C34.4343 63.3484 34.7244 63.2203 35 63.2203C35.2756 63.2203 35.5657 63.3484 35.7846 63.5671Z" fill="white"/>
</svg>
