<svg width="70" height="70" viewBox="0 0 70 70" fill="none" xmlns="http://www.w3.org/2000/svg">
<path fill-rule="evenodd" clip-rule="evenodd" d="M50.5289 0.358021C50.1931 0.693729 50.171 0.813458 50.171 2.28637V3.85671L49.1868 2.89275C48.0374 1.76677 47.6614 1.54408 47.132 1.67577C46.6914 1.78529 41.8186 6.5399 41.4726 7.19804C41.1418 7.82702 41.332 8.24979 42.4771 9.43104L43.5134 10.5H41.9512C40.487 10.5 40.3665 10.5225 40.0312 10.858L39.6732 11.2159V15.1667V19.1174L40.0312 19.4753C40.3668 19.8112 40.4865 19.8333 41.9591 19.8333H43.5291L42.5654 20.8177C41.4396 21.9673 41.217 22.3434 41.3486 22.8729C41.4581 23.3136 46.2117 28.1875 46.8697 28.5336C47.4986 28.8645 47.9212 28.6742 49.1022 27.5288L50.171 26.4924V28.0548C50.171 29.5194 50.1934 29.6399 50.5289 29.9753L50.8867 30.3333H54.8366H58.7865L59.1443 29.9753C59.4798 29.6399 59.5023 29.5194 59.5023 28.0548V26.4924L60.571 27.5288C61.752 28.6742 62.1747 28.8645 62.8035 28.5336C63.4615 28.1875 68.2151 23.3136 68.3246 22.8729C68.4563 22.3434 68.2336 21.9673 67.1079 20.8177L66.1441 19.8333H67.7141C69.1867 19.8333 69.3064 19.8112 69.6421 19.4753L70 19.1174V15.1667V11.2159L69.6421 10.858C69.3064 10.5222 69.1867 10.5 67.7141 10.5H66.1441L67.1079 9.51562C68.2336 8.36602 68.4563 7.98992 68.3246 7.4604C68.2151 7.01969 63.4615 2.14579 62.8035 1.79973C62.1747 1.46883 61.752 1.65915 60.571 2.80452L59.5023 3.84096V2.2785C59.5023 0.813896 59.4798 0.693437 59.1443 0.358021L58.7865 0H54.8366H50.8867L50.5289 0.358021ZM57.1727 3.31771C57.1766 4.5411 57.5293 5.383 58.2093 5.79206C59.3763 6.49425 60.3174 6.32785 61.4986 5.21062L62.2874 4.4644L63.9119 6.08942L65.5366 7.71429L64.7905 8.50325C63.6735 9.68465 63.5072 10.626 64.2092 11.7932C64.6182 12.4734 65.4599 12.8262 66.683 12.8301L67.6672 12.8333V15.1667V17.5L66.683 17.5032C65.4599 17.5071 64.6182 17.8599 64.2092 18.5401C63.5072 19.7073 63.6735 20.6487 64.7905 21.8301L65.5366 22.619L63.9119 24.2439L62.2874 25.8689L61.4986 25.1227C60.3174 24.0055 59.3763 23.8391 58.2093 24.5413C57.5293 24.9503 57.1766 25.7922 57.1727 27.0156L57.1694 28H54.8366H52.5038L52.5006 27.0156C52.4966 25.7922 52.144 24.9503 51.4639 24.5413C50.2969 23.8391 49.3558 24.0055 48.1746 25.1227L47.3859 25.8689L45.7613 24.2439L44.1367 22.619L44.8827 21.8301C45.9997 20.6487 46.1661 19.7073 45.464 18.5401C45.0551 17.8599 44.2134 17.5071 42.9902 17.5032L42.0061 17.5V15.1667V12.8333L42.9902 12.8301C44.2134 12.8262 45.0551 12.4734 45.464 11.7932C46.1661 10.626 45.9997 9.68465 44.8827 8.50325L44.1367 7.71429L45.7613 6.08942L47.3859 4.4644L48.1746 5.21062C49.3558 6.32785 50.2969 6.49425 51.4639 5.79206C52.144 5.383 52.4966 4.5411 52.5006 3.31771L52.5038 2.33333H54.8366H57.1694L57.1727 3.31771ZM53.4687 9.48617C52.5461 9.71804 51.233 10.4953 50.5955 11.187C50.2682 11.5423 49.7926 12.2714 49.5389 12.8071C49.121 13.6892 49.0774 13.9128 49.0774 15.1742C49.0774 16.4889 49.1081 16.6291 49.622 17.6692C50.2778 18.9965 51.122 19.8233 52.4775 20.4655C53.3583 20.8829 53.584 20.9271 54.8366 20.9271C56.0892 20.9271 56.3149 20.8829 57.1957 20.4655C58.5512 19.8233 59.3954 18.9965 60.0512 17.6692C60.5658 16.6279 60.5958 16.4901 60.5958 15.1667C60.5958 13.8432 60.5658 13.7054 60.0512 12.6642C59.066 10.6702 57.3157 9.50017 55.1645 9.39779C54.5431 9.36819 53.78 9.408 53.4687 9.48617ZM2.34799 11.8573C1.6324 12.0829 0.41189 13.347 0.192458 14.0898C-0.0641528 14.9586 -0.0641528 51.5414 0.192458 52.4102C0.429095 53.2112 1.63692 54.4193 2.43781 54.656C2.88221 54.7874 5.5202 54.8333 12.6075 54.8333H22.177V58.3333V61.8333H19.0357C14.8708 61.8333 15.1785 61.5541 15.1785 65.3333C15.1785 68.0948 15.1815 68.1204 15.5365 68.4753C15.7868 68.7259 16.0555 68.8333 16.4314 68.8333C16.8553 68.8333 17.1017 68.9563 17.6012 69.4167L18.2338 70H20.4274H22.621L23.2536 69.4167L23.8864 68.8333H30.3419H36.7974L37.4302 69.4167L38.0629 70H40.2564H42.45L43.0827 69.4167C43.5822 68.9563 43.8286 68.8333 44.2524 68.8333C44.6283 68.8333 44.897 68.7259 45.1474 68.4753C45.5024 68.1204 45.5053 68.0948 45.5053 65.3333C45.5053 61.5541 45.8131 61.8333 41.6481 61.8333H38.5068V58.3333V54.8333H47.5206C57.8183 54.8333 57.4424 54.8731 58.5253 53.6684C58.872 53.2827 59.2336 52.7068 59.3289 52.3886C59.4552 51.967 59.5023 49.211 59.5023 42.2383V32.6667H58.3359H57.1694V42.2253V51.7841L56.8115 52.142L56.4537 52.5H29.7587H3.06373L2.70593 52.142L2.34799 51.7841V33.25V14.7159L2.70593 14.358L3.06373 14H20.2021H37.3404V12.8333V11.6667L20.0994 11.6815C7.97463 11.692 2.70681 11.7442 2.34799 11.8573ZM55.9132 11.844C57.1662 12.2143 58.3359 13.8184 58.3359 15.1667C58.3359 16.9737 56.6432 18.6667 54.8366 18.6667C53.03 18.6667 51.3374 16.9737 51.3374 15.1667C51.3374 14.2501 51.671 13.5106 52.4259 12.7539C53.4487 11.7286 54.5504 11.4412 55.9132 11.844ZM19.4526 17.7621C18.4884 18.1065 17.6371 18.6705 17.1393 19.2945C16.5925 19.9799 9.82019 32.5835 9.53821 33.4408C8.96243 35.1902 9.82966 37.1645 11.5869 38.1046L12.1896 38.4271H21.0106C29.7829 38.4271 29.8348 38.4253 30.4226 38.1106C32.1798 37.1697 33.0565 35.1829 32.483 33.4408C32.1417 32.4033 25.3858 19.9354 24.7583 19.1844C23.5897 17.786 21.1876 17.142 19.4526 17.7621ZM22.1041 20.109C22.4249 20.257 22.8285 20.5345 23.001 20.7255C23.4738 21.2495 30.2129 33.8383 30.2983 34.3576C30.395 34.9441 30.0219 35.6609 29.4719 35.9454C28.8295 36.2776 13.1917 36.2776 12.5493 35.9454C11.9993 35.6609 11.6262 34.9441 11.7229 34.3576C11.8083 33.8383 18.5474 21.2495 19.0203 20.7255C19.4411 20.2595 20.3843 19.8398 21.0106 19.8398C21.2913 19.8398 21.7834 19.9609 22.1041 20.109ZM19.8442 26.8333V30.3333H21.0106H22.177V26.8333V23.3333H21.0106H19.8442V26.8333ZM31.5083 24.5V25.6667H35.0076H38.5068V36.1667V46.6667H35.0076H31.5083V43.75V40.8333H30.3419H29.1755V43.75V46.6667H25.6763H22.177V43.75V40.8333H21.0106H19.8442V43.75V46.6667H16.345H12.8457V43.75V40.8333H11.6793H10.5129V43.75V46.6667H8.18006H5.84723V47.8333V49H29.7587H53.6702V47.8333V46.6667H51.9206H50.171V39.4413V32.2159L49.813 31.858L49.4552 31.5H45.1474H40.8396V27.7747V24.0492L40.4817 23.6914L40.1239 23.3333H35.8161H31.5083V24.5ZM20.2021 31.858C19.4788 32.5814 19.9913 33.8333 21.0106 33.8333C21.2946 33.8333 21.5935 33.7011 21.8191 33.4753C22.0448 33.2497 22.177 32.9507 22.177 32.6667C22.177 32.3826 22.0448 32.0836 21.8191 31.858C21.5935 31.6323 21.2946 31.5 21.0106 31.5C20.7266 31.5 20.4277 31.6323 20.2021 31.858ZM47.8381 40.25V46.6667H44.3389H40.8396V40.25V33.8333H44.3389H47.8381V40.25ZM29.1755 56.8086C29.1755 58.7116 29.1886 58.7972 29.5335 59.142C30.0069 59.6156 30.677 59.6156 31.1504 59.142C31.4952 58.7972 31.5083 58.7116 31.5083 56.8086V54.8333H33.8412H36.174V58.3333V61.8333H30.3419H24.5099V58.3333V54.8333H26.8427H29.1755V56.8086ZM43.1725 65.3333V66.5H30.3419H17.5114V65.3333V64.1667H30.3419H43.1725V65.3333Z" fill="white"/>
</svg>
