<svg width="70" height="71" viewBox="0 0 70 71" fill="none" xmlns="http://www.w3.org/2000/svg">
<path fill-rule="evenodd" clip-rule="evenodd" d="M2.34238 0.192583C1.6267 0.418276 0.406036 1.68286 0.186577 2.42602C-0.0621923 3.26869 -0.0621923 13.0749 0.186577 13.9175C0.423243 14.7189 1.63122 15.9275 2.43221 16.1643C2.76234 16.2619 3.40206 16.3417 3.85395 16.3417H4.6755V17.5088V18.6759H3.85395C3.40206 18.6759 2.76234 18.7557 2.43221 18.8533C1.63122 19.0901 0.423243 20.2986 0.186577 21.1C-0.0621923 21.9427 -0.0621923 31.7489 0.186577 32.5915C0.423243 33.3929 1.63122 34.6015 2.43221 34.8382C2.76234 34.9359 3.40206 35.0157 3.85395 35.0157H4.6755V36.1828V37.3499H3.85395C3.40206 37.3499 2.76234 37.4297 2.43221 37.5273C1.63122 37.7641 0.423243 38.9726 0.186577 39.774C-0.0621923 40.6167 -0.0621923 50.4229 0.186577 51.2655C0.423243 52.0669 1.63122 53.2755 2.43221 53.5122C2.8809 53.6449 5.89106 53.6897 14.353 53.6897H25.6736L25.6751 58.6135C25.6764 63.4718 25.681 63.547 26.0186 64.2723C27.6829 67.848 37.7565 70.2866 49.5881 69.9776C60.3934 69.6955 68.1616 67.4873 69.6579 64.2723L70 63.5373V45.5198V27.5023L69.6579 26.7673C68.2789 23.8043 61.6455 21.7198 51.7295 21.133L48.7259 20.9553L48.5539 20.5401C48.3149 19.963 47.24 19.053 46.554 18.8475C46.2392 18.7531 45.612 18.6759 45.1601 18.6759H44.3386V17.5088V16.3417H45.1601C45.612 16.3417 46.2517 16.2619 46.5819 16.1643C47.3829 15.9275 48.5908 14.7189 48.8275 13.9175C49.0763 13.0749 49.0763 3.26869 48.8275 2.42602C48.5908 1.62465 47.3829 0.416088 46.5819 0.179307C45.7622 -0.063017 3.11231 -0.0501786 2.34238 0.192583ZM46.3137 2.69432L46.6717 3.05233V8.17178V13.2912L46.3137 13.6492L45.9559 14.0074H24.507H3.05821L2.70037 13.6492L2.34238 13.2912V8.17178V3.05233L2.70037 2.69432L3.05821 2.33615H24.507H45.9559L46.3137 2.69432ZM5.03349 5.02857C4.67842 5.38366 4.6755 5.40919 4.6755 8.17178C4.6755 11.9218 4.42703 11.6732 8.17519 11.6732C11.9233 11.6732 11.6749 11.9218 11.6749 8.17178C11.6749 4.42181 11.9233 4.6704 8.17519 4.6704C5.41394 4.6704 5.38842 4.67332 5.03349 5.02857ZM14.366 5.02857C14.0109 5.38366 14.008 5.40919 14.008 8.17178C14.008 11.9218 13.7595 11.6732 17.5077 11.6732C21.2558 11.6732 21.0074 11.9218 21.0074 8.17178C21.0074 4.42181 21.2558 4.6704 17.5077 4.6704C14.7464 4.6704 14.7209 4.67332 14.366 5.02857ZM23.3405 5.83753V7.00465H31.5064H39.6723V5.83753V4.6704H31.5064H23.3405V5.83753ZM42.0055 5.83753V7.00465H43.172H44.3386V5.83753V4.6704H43.172H42.0055V5.83753ZM9.34175 8.17178V9.3389H8.17519H7.00863V8.17178V7.00465H8.17519H9.34175V8.17178ZM18.6742 8.17178V9.3389H17.5077H16.3411V8.17178V7.00465H17.5077H18.6742V8.17178ZM23.3405 10.506V11.6732H31.5064H39.6723V10.506V9.3389H31.5064H23.3405V10.506ZM42.0055 10.506V11.6732H43.172H44.3386V10.506V9.3389H43.172H42.0055V10.506ZM11.6749 17.5088V18.6759H9.34175H7.00863V17.5088V16.3417H9.34175H11.6749V17.5088ZM35.0061 17.5088V18.6759H24.507H14.008V17.5088V16.3417H24.507H35.0061V17.5088ZM42.0055 17.5088V18.6759H39.6723H37.3392V17.5088V16.3417H39.6723H42.0055V17.5088ZM43.0115 21.1702C33.9839 21.7482 27.3354 23.938 26.0186 26.7673C25.7003 27.4511 25.6764 27.6828 25.6751 30.0918L25.6736 32.6814H14.366H3.05821L2.70037 32.3232L2.34238 31.9652V26.8458V21.7263L2.70037 21.3683L3.05821 21.0102L23.9537 21.0313C36.1907 21.0437 44.0876 21.1012 43.0115 21.1702ZM5.03349 23.7026C4.67842 24.0577 4.6755 24.0832 4.6755 26.8458C4.6755 30.5958 4.42703 30.3472 8.17519 30.3472C11.9233 30.3472 11.6749 30.5958 11.6749 26.8458C11.6749 23.0958 11.9233 23.3444 8.17519 23.3444C5.41394 23.3444 5.38842 23.3473 5.03349 23.7026ZM14.366 23.7026C14.0109 24.0577 14.008 24.0832 14.008 26.8458C14.008 30.5958 13.7595 30.3472 17.5077 30.3472C20.2689 30.3472 20.2944 30.3442 20.6494 29.989C21.0044 29.6339 21.0074 29.6084 21.0074 26.8458C21.0074 23.0958 21.2558 23.3444 17.5077 23.3444C14.7464 23.3444 14.7209 23.3473 14.366 23.7026ZM52.4316 23.4938C56.6134 23.771 60.2478 24.3725 63.0877 25.2578C65.7587 26.0904 67.6698 27.2394 67.6698 28.0129C67.6698 29.0179 64.7083 30.4821 60.8892 31.3653C59.1816 31.7603 56.345 32.2048 54.1814 32.4163C51.7196 32.6572 43.957 32.6572 41.4951 32.4163C36.1875 31.8972 31.6808 30.7721 29.287 29.3685C27.8151 28.5054 27.6566 27.7906 28.76 26.9909C32.3667 24.377 42.7063 22.8494 52.4316 23.4938ZM9.34175 26.8458V28.0129H8.17519H7.00863V26.8458V25.6787H8.17519H9.34175V26.8458ZM18.6742 26.8458V28.0129H17.5077H16.3411V26.8458V25.6787H17.5077H18.6742V26.8458ZM29.3191 31.9776C32.0007 33.2553 35.5497 34.0949 40.7301 34.6772C43.8543 35.0285 51.8222 35.0285 54.9464 34.6772C60.845 34.0141 64.1392 33.1583 67.5604 31.4003C67.6207 31.3694 67.6698 33.2949 67.6698 35.6793V40.0145L67.1787 40.4779C66.5274 41.0923 64.8722 41.8846 63.0765 42.4415C53.2776 45.4802 35.6139 44.7496 29.2948 41.0443C27.9445 40.2525 28.0067 40.5144 28.0067 35.6275C28.0067 33.2717 28.056 31.3694 28.1161 31.4003C28.1762 31.4311 28.7176 31.691 29.3191 31.9776ZM11.6749 36.1828V37.3499H9.34175H7.00863V36.1828V35.0157H9.34175H11.6749V36.1828ZM25.6736 36.1828V37.3499H19.8408H14.008V36.1828V35.0157H19.8408H25.6736V36.1828ZM46.6717 39.6842V40.8513H47.8383H49.0048V39.6842V38.517H47.8383H46.6717V39.6842ZM25.6736 45.5198V51.3554H14.366H3.05821L2.70037 50.9972L2.34238 50.6392V45.5198V40.4003L2.70037 40.0423L3.05821 39.6842H14.366H25.6736V45.5198ZM5.03349 42.3766C4.67842 42.7317 4.6755 42.7572 4.6755 45.5198C4.6755 49.2697 4.42703 49.0212 8.17519 49.0212C11.9233 49.0212 11.6749 49.2697 11.6749 45.5198C11.6749 41.7698 11.9233 42.0184 8.17519 42.0184C5.41394 42.0184 5.38842 42.0213 5.03349 42.3766ZM14.366 42.3766C14.0109 42.7317 14.008 42.7572 14.008 45.5198C14.008 49.2697 13.7595 49.0212 17.5077 49.0212C20.2689 49.0212 20.2944 49.0182 20.6494 48.663C21.0044 48.3079 21.0074 48.2824 21.0074 45.5198C21.0074 41.7698 21.2558 42.0184 17.5077 42.0184C14.7464 42.0184 14.7209 42.0213 14.366 42.3766ZM29.3191 43.6489C32.0007 44.9266 35.5497 45.7662 40.7301 46.3484C42.3911 46.5352 44.1885 46.5983 47.8383 46.5983C52.9418 46.5983 55.164 46.4393 58.8835 45.8075C62.5401 45.1863 64.8823 44.4478 67.5604 43.0716C67.6207 43.0407 67.6698 44.9661 67.6698 47.3506V51.6857L67.1787 52.1492C65.7625 53.4854 61.3314 54.8652 56.4129 55.5015C50.4581 56.2718 42.6004 56.1322 37.0476 55.1572C33.0174 54.4494 29.6982 53.2817 28.4978 52.1492L28.0067 51.6857V47.3506C28.0067 44.9661 28.056 43.0407 28.1161 43.0716C28.1762 43.1024 28.7176 43.3622 29.3191 43.6489ZM9.34175 45.5198V46.6869H8.17519H7.00863V45.5198V44.3527H8.17519H9.34175V45.5198ZM18.6742 45.5198V46.6869H17.5077H16.3411V45.5198V44.3527H17.5077H18.6742V45.5198ZM46.6717 52.5225V53.6897H47.8383H49.0048V52.5225V51.3554H47.8383H46.6717V52.5225ZM29.3191 55.3201C32.0007 56.5978 35.5497 57.4374 40.7301 58.0197C42.3911 58.2064 44.1885 58.2696 47.8383 58.2696C52.9418 58.2696 55.164 58.1106 58.8835 57.4787C62.5401 56.8575 64.8823 56.119 67.5604 54.7428C67.6207 54.7119 67.6698 56.6374 67.6698 59.0218V63.3569L67.1787 63.8204C65.522 65.3835 60.3119 66.8306 54.1814 67.4301C51.6882 67.674 43.9453 67.6722 41.4951 67.4273C35.9876 66.8767 31.3129 65.689 29.1142 64.2819C28.6757 64.0012 28.2472 63.6411 28.1619 63.4817C27.9835 63.1483 27.9391 54.6518 28.1161 54.7428C28.1762 54.7736 28.7176 55.0335 29.3191 55.3201ZM46.6717 63.0267V64.1938H47.8383H49.0048V63.0267V61.8595H47.8383H46.6717V63.0267Z" fill="white"/>
</svg>
