<svg width="70" height="71" viewBox="0 0 70 71" fill="none" xmlns="http://www.w3.org/2000/svg">
<path fill-rule="evenodd" clip-rule="evenodd" d="M2.34814 0.187204C1.6327 0.412825 0.412457 1.67701 0.193073 2.41994C-0.0643576 3.29165 -0.0643576 53.8726 0.193073 54.7443C0.429658 55.5455 1.63722 56.7536 2.43794 56.9903C2.8872 57.1231 5.97389 57.1677 14.7191 57.1677C22.0646 57.1677 26.4003 57.2195 26.4003 57.3074C26.4003 57.3841 25.8488 59.4679 25.1748 61.938C24.5007 64.4079 23.8751 66.7078 23.7843 67.0487L23.6194 67.6685H22.313H21.0068V68.8353V70.002H35.0007H48.9947V68.8353V67.6685H47.6884H46.382L46.2172 67.0487C46.1263 66.7078 45.5007 64.4079 44.8267 61.938C44.1526 59.4679 43.6012 57.3841 43.6012 57.3074C43.6012 57.2195 47.9467 57.1677 55.3097 57.1677C68.6257 57.1677 67.9071 57.2288 69.0088 56.0027C69.3554 55.6169 69.7169 55.041 69.8123 54.7227C70.0626 53.8868 70.0626 3.27751 69.8123 2.44152C69.7169 2.12329 69.3554 1.54735 69.0088 1.16159C67.8613 -0.115278 71.1201 -0.00531124 34.9383 0.0114609C11.9949 0.0221076 2.71301 0.0721323 2.34814 0.187204ZM67.2954 2.68815L67.6533 3.04605V24.8565V46.6669H60.0732H52.4932V45.8806V45.0944L51.1448 44.5041C50.4032 44.1795 49.5001 43.7875 49.138 43.6329C48.5423 43.3788 48.4422 43.261 48.0881 42.3981L47.6966 41.4445L48.5021 39.4363L49.3075 37.4283L47.354 35.474L45.4007 33.5196L43.4082 34.3195L41.4158 35.1196L40.4487 34.7358C39.5655 34.3851 39.4574 34.2946 39.2001 33.6911C39.0453 33.3278 38.6524 32.4219 38.3272 31.6783L37.7359 30.3261L34.9721 30.3657L32.2085 30.4052L31.3706 32.3656L30.5329 34.3261L29.5783 34.7305L28.6238 35.1349L26.6124 34.3272L24.6007 33.5196L22.6474 35.474L20.6939 37.4283L21.5012 39.441L22.3085 41.4535L21.9064 42.4034L21.5043 43.3533L19.5063 44.2267L17.5083 45.1002V45.8835V46.6669H9.9282H2.34814V24.8565V3.04605L2.70601 2.68815L3.06373 2.3301H35.0007H66.9377L67.2954 2.68815ZM8.17896 4.85423C7.46352 5.07985 6.24327 6.34403 6.02389 7.08697C5.77083 7.9441 5.77083 24.7183 6.02389 25.5754C6.26047 26.3765 7.46804 27.5847 8.26875 27.8214C8.71656 27.9538 11.6582 27.9988 19.868 27.9988C32.3892 27.9988 31.7602 28.0552 32.8577 26.8337C33.2044 26.448 33.5659 25.872 33.6612 25.5538C33.9074 24.7317 33.9074 7.93068 33.6612 7.10855C33.5659 6.79032 33.2044 6.21438 32.8577 5.82862C31.758 4.60484 32.4037 4.66157 19.7782 4.67849C12.139 4.6887 8.53041 4.74339 8.17896 4.85423ZM46.7352 4.86663C41.3875 5.89731 37.2975 10.0279 36.3708 15.3338C35.665 19.3745 37.0198 23.6319 39.9419 26.5553C42.2368 28.8515 45.1309 30.1112 48.5209 30.2894L50.1608 30.3756V24.5202V18.6647H56.0134H61.8658L61.7796 17.0239C61.4726 11.1791 57.7938 6.62274 52.1287 5.07052C50.7935 4.70474 48.1028 4.60294 46.7352 4.86663ZM31.1444 7.35518C31.4382 7.64905 31.5022 7.85761 31.5022 8.52193V9.33064H19.8406H8.17896V8.52193C8.17896 7.85761 8.24295 7.64905 8.53683 7.35518L8.89455 6.99713H19.8406H30.7866L31.1444 7.35518ZM52.0802 7.47725C53.7924 8.02314 55.0437 8.79408 56.3689 10.12C57.9989 11.7508 59.0327 13.6978 59.2871 15.6154L59.382 16.3312H54.4444H49.5071L46.044 12.8685C44.1392 10.9641 42.5808 9.35471 42.5808 9.29214C42.5808 9.06768 44.3496 8.0405 45.389 7.66116C46.8699 7.1208 47.6698 7.00311 49.432 7.06626C50.5323 7.10564 51.2767 7.22114 52.0802 7.47725ZM44.3653 14.5434L47.8285 18.0061V22.9483V27.8905L47.0883 27.7922C46.1175 27.6635 44.6841 27.1356 43.6388 26.5224C42.4347 25.8159 40.5538 23.8988 39.8882 22.6998C38.3378 19.9064 38.0989 16.6544 39.2289 13.7289C39.6413 12.6614 40.5777 11.0808 40.7979 11.0808C40.8553 11.0808 42.4607 12.639 44.3653 14.5434ZM31.5022 18.3066V24.9493L31.1444 25.3072L30.7866 25.6652H19.8406H8.89455L8.53683 25.3072L8.17896 24.9493V18.3066V11.6642H19.8406H31.5022V18.3066ZM12.1142 16.5505L10.0036 18.666L12.1519 20.8155L14.3003 22.9649L15.1367 22.1281L15.973 21.2914L14.6665 19.978L13.3599 18.6647L14.6324 17.3856C15.3322 16.6822 15.9048 16.0398 15.9048 15.9583C15.9048 15.7694 14.5579 14.4352 14.3673 14.4352C14.2888 14.4352 13.2749 15.3871 12.1142 16.5505ZM24.4633 15.1329C24.0856 15.5168 23.7764 15.8928 23.7764 15.9688C23.7764 16.0446 24.349 16.6822 25.0488 17.3856L26.3213 18.6647L25.0147 19.978L23.7082 21.2914L24.5445 22.1281L25.3809 22.9649L27.5293 20.8155L29.6776 18.666L27.567 16.5505C26.4062 15.3871 25.3876 14.4352 25.3033 14.4352C25.2192 14.4352 24.8411 14.7492 24.4633 15.1329ZM18.7559 18.7486C18.1147 20.3568 17.6731 21.6567 17.7451 21.7255C17.8153 21.7928 18.2871 22.0147 18.7938 22.2189L19.7148 22.5903L19.9092 22.1224C21.0896 19.2829 22.0047 16.8348 21.9169 16.7515C21.8339 16.6726 20.0162 15.8937 19.9152 15.8937C19.9039 15.8937 19.3821 17.1784 18.7559 18.7486ZM52.4932 26.8527V32.7071L54.0602 32.6242C55.9005 32.5268 56.9899 32.2599 58.4151 31.5569C60.9961 30.2841 63.0386 27.7946 63.7962 24.9983C63.9249 24.5228 64.0676 23.4283 64.1132 22.566L64.196 20.9982H58.3447H52.4932V26.8527ZM61.6767 23.6734C61.6767 24.1625 61.1589 25.6008 60.7015 26.3828C60.176 27.2813 59.0326 28.4711 58.1507 29.0375C57.3339 29.5618 55.7207 30.1864 55.1833 30.1864H54.8255V26.7591V23.3317H58.2511H61.6767V23.6734ZM5.84663 32.6658V33.8325H12.8436H19.8406V32.6658V31.499H12.8436H5.84663V32.6658ZM36.9673 34.4029L37.6948 36.137L39.5337 36.8899L41.3725 37.6427L43.0271 36.9774C43.9372 36.6113 44.7482 36.3119 44.8293 36.3119C45.0284 36.3119 46.5166 37.7924 46.5166 37.9904C46.5166 38.0769 46.2173 38.8926 45.8514 39.8031L45.1864 41.4586L45.9386 43.2971L46.6908 45.1355L48.4622 45.8954L50.2337 46.6552L47.209 46.661L44.1842 46.6669V46.3263C44.1842 46.1391 44.0477 45.5647 43.8808 45.0502C42.6188 41.1602 39.0161 38.5047 35.0007 38.5047C31.6837 38.5047 28.5132 40.3604 26.9112 43.2395C26.3815 44.1913 25.8172 45.7836 25.8172 46.3263V46.6669L22.7924 46.661L19.7677 46.6552L21.5393 45.8954L23.3107 45.1355L24.0628 43.2971L24.815 41.4586L24.15 39.8031C23.7841 38.8926 23.4849 38.0811 23.4849 38.0001C23.4849 37.8008 24.9646 36.3119 25.1625 36.3119C25.249 36.3119 26.0645 36.6115 26.975 36.9777L28.6305 37.6435L30.4673 36.8953L32.304 36.1472L33.0328 34.408L33.7617 32.6688H35.0007H36.2398L36.9673 34.4029ZM5.84663 37.3328V38.4996H11.0944H16.3421V37.3328V36.1661H11.0944H5.84663V37.3328ZM52.4932 37.3328V38.4996H58.324H64.1548V37.3328V36.1661H58.324H52.4932V37.3328ZM5.84663 41.9998V43.1666H11.0944H16.3421V41.9998V40.8331H11.0944H5.84663V41.9998ZM36.671 41.0564C37.9492 41.3895 39.119 42.0779 40.0292 43.0326C40.8342 43.8769 41.6082 45.2633 41.7938 46.1929L41.8884 46.6669H35.0007H28.1131L28.2077 46.1929C28.3932 45.2633 29.1673 43.8769 29.9722 43.0326C31.7209 41.1984 34.2982 40.4381 36.671 41.0564ZM52.4932 41.9998V43.1666H58.324H64.1548V41.9998V40.8331H58.324H52.4932V41.9998ZM67.6533 51.5592C67.6533 54.0818 67.6482 54.1233 67.2954 54.4761L66.9377 54.8342H35.0007H3.06373L2.70601 54.4761C2.35324 54.1233 2.34814 54.0818 2.34814 51.5592V49.0004H35.0007H67.6533V51.5592ZM41.2767 57.7875C41.3675 58.1284 41.9932 60.4283 42.6672 62.8982C43.3413 65.3682 43.8927 67.4521 43.8927 67.5288C43.8927 67.6163 40.5691 67.6685 35.0007 67.6685C29.4323 67.6685 26.1087 67.6163 26.1087 67.5288C26.1087 67.4521 26.6602 65.3682 27.3342 62.8982C28.0083 60.4283 28.6339 58.1284 28.7247 57.7875L28.8896 57.1677H35.0007H41.1118L41.2767 57.7875Z" fill="white"/>
</svg>
