<svg width="70" height="70" viewBox="0 0 70 70" fill="none" xmlns="http://www.w3.org/2000/svg">
<path fill-rule="evenodd" clip-rule="evenodd" d="M10.0925 1.44968C9.70342 2.89766 9.48982 3.25228 9.00657 3.25228C8.86553 3.25228 8.17348 2.92448 7.46858 2.5237L6.18712 1.79512L3.98815 3.99399L1.78917 6.19286L2.51779 7.47426C3.27887 8.81284 3.36259 9.11904 3.06993 9.49582C2.93793 9.66579 0.458578 10.452 0.0546708 10.452C0.0212118 10.452 0.0110471 11.8635 0.0319413 13.5888L0.0699179 16.7256L1.48098 17.1146C2.84518 17.4906 3.2464 17.7375 3.2464 18.2007C3.2464 18.3177 2.92311 18.982 2.52795 19.677L1.80936 20.9406L4.02753 23.162L6.24557 25.3831L7.57277 24.617C8.80624 23.9049 8.9268 23.8637 9.28031 24.0334C9.56309 24.1692 9.71033 24.3973 9.85405 24.9219C9.96036 25.3101 10.1418 25.9614 10.257 26.3689L10.4665 27.1101H13.6017H16.7371L17.1324 25.6402C17.4833 24.3358 17.5716 24.1523 17.9185 24.0086C18.3213 23.8418 18.479 23.91 20.5479 25.147L20.9789 25.4046L23.1851 23.1868L25.3914 20.9692L24.6174 19.6399C23.9151 18.4336 23.8584 18.2745 24.0045 17.9217C24.1472 17.5773 24.3335 17.4878 25.6354 17.1377L27.1053 16.7424V15.7147V14.6871H30.4936H33.8818V15.4824C33.8818 15.9199 33.959 16.5392 34.0535 16.8588C34.2826 17.6343 35.4521 18.8037 36.2276 19.0329C37.0599 19.2788 55.5509 19.2788 56.3832 19.0329C57.1587 18.8037 58.3282 17.6343 58.5573 16.8588C58.6518 16.5392 58.729 15.9134 58.729 15.4682V14.6586L61.1013 14.7081L63.4737 14.7577L64.5403 15.2849C65.8248 15.9199 66.6253 16.7376 67.2469 18.0498L67.6937 18.9928V24.2867V29.5805L67.2469 30.5236C66.6253 31.8357 65.8248 32.6534 64.5401 33.2884L63.4735 33.8157L55.4542 33.8565L47.4348 33.8973V33.0964C47.4348 32.6559 47.3576 32.0341 47.2631 31.7145C47.034 30.939 45.8645 29.7696 45.089 29.5405C44.2568 29.2945 25.7657 29.2945 24.9335 29.5405C24.158 29.7696 22.9885 30.939 22.7593 31.7145C22.6649 32.0341 22.5877 32.6534 22.5877 33.0909V33.8862H14.9195C10.0946 33.8862 6.94058 33.9422 6.41357 34.0372C3.4168 34.5769 0.689968 37.3036 0.150248 40.3002C-0.0500826 41.4125 -0.0500826 51.206 0.150248 52.3183C0.514202 54.3393 2.09581 56.5811 3.87577 57.5995C5.4242 58.4853 6.05088 58.6255 8.7876 58.6976L11.2935 58.7637V59.5432C11.2935 59.9721 11.3707 60.5844 11.4652 60.904C11.6943 61.6794 12.8638 62.8489 13.6393 63.078C14.4715 63.3239 32.9626 63.3239 33.7949 63.078C34.5703 62.8489 35.7399 61.6794 35.969 60.904C36.0634 60.5844 36.1407 59.9641 36.1407 59.5256V58.7283L40.6936 58.7655L45.2466 58.8028L45.2841 59.1557C45.5532 61.6882 46.9581 64.5139 48.9001 66.4293C53.7507 71.2132 61.5501 71.1868 66.3671 66.37C71.2145 61.5229 71.2104 53.6971 66.3579 48.8449C61.5212 44.0083 53.7655 43.9779 48.9001 48.7765C46.9581 50.6919 45.5532 53.5175 45.2841 56.05L45.2466 56.4029L40.6936 56.4402L36.1407 56.4775V55.6801C36.1407 55.2416 36.0634 54.6213 35.969 54.3017C35.7399 53.5263 34.5703 52.3568 33.7949 52.1277C32.9626 51.8818 14.4715 51.8818 13.6393 52.1277C12.8638 52.3568 11.6943 53.5263 11.4652 54.3017C11.3707 54.6213 11.2935 55.2472 11.2935 55.6924V56.502L8.92878 56.4518C6.6163 56.4025 6.54317 56.3916 5.621 55.9554C4.30904 55.335 3.4912 54.5345 2.85605 53.2492L2.32875 52.1825V46.3092V40.436L2.85605 39.3693C3.49106 38.0844 4.30848 37.2841 5.621 36.6624L6.56406 36.2156L14.5759 36.1748L22.5877 36.134V36.9348C22.5877 37.3753 22.6649 37.9971 22.7593 38.3167C22.9885 39.0922 24.158 40.2616 24.9335 40.4908C25.7657 40.7367 44.2568 40.7367 45.089 40.4908C45.8645 40.2616 47.034 39.0922 47.2631 38.3167C47.3576 37.9971 47.4348 37.3806 47.4348 36.9467V36.1578L55.5878 36.116L63.7408 36.0744L64.6754 35.7103C66.0229 35.1854 66.7646 34.7139 67.6748 33.8038C68.5378 32.941 69.2677 31.7433 69.6895 30.4982C69.9281 29.7939 69.9526 29.2168 69.9526 24.2867C69.9526 19.3458 69.9286 18.781 69.6883 18.0752C68.9338 15.8592 67.5253 14.2077 65.6028 13.285C64.1393 12.5827 63.2654 12.4284 60.7501 12.4284H58.729V11.633C58.729 10.4963 58.4802 9.81402 57.783 9.03857C56.7278 7.86502 57.1934 7.9109 46.3319 7.9109C39.2676 7.9109 36.6586 7.95523 36.2276 8.08257C35.4521 8.31169 34.2826 9.48114 34.0535 10.2566C33.959 10.5762 33.8818 11.1955 33.8818 11.633V12.4284H30.4936H27.1053V11.4457V10.4628L26.5053 10.306C24.5136 9.78565 24.2108 9.66057 24.0285 9.28336C23.859 8.93255 23.9007 8.81044 24.6121 7.57845L25.3783 6.2513L23.1614 4.03775L20.9444 1.82406L19.7078 2.53824C19.0277 2.93098 18.3614 3.25228 18.227 3.25228C17.7305 3.25228 17.4923 2.8762 17.1094 1.48695L16.7203 0.0759497L13.6013 0.0379748L10.4821 0L10.0925 1.44968ZM15.2496 3.28757C15.4132 3.85042 15.5747 4.40861 15.6084 4.5279C15.6423 4.64761 16.2811 4.98585 17.0357 5.28344C18.5613 5.88511 18.3514 5.90586 19.9472 4.99545L20.6245 4.60921L21.6041 5.5895L22.5837 6.56979L21.943 7.69308L21.3022 8.81637L21.7184 9.74005C21.9473 10.2481 22.1942 10.8543 22.267 11.0872C22.388 11.4742 22.5052 11.5395 23.6277 11.8466L24.856 12.1826L24.816 13.6028L24.7759 15.0231L23.6866 15.3161C23.0874 15.4772 22.5392 15.6717 22.4684 15.7481C22.3975 15.8245 22.2596 16.1411 22.1619 16.4517C22.0643 16.7623 21.831 17.3224 21.6436 17.6964L21.3027 18.3764L21.9343 19.461L22.5659 20.5456L21.5749 21.5509L20.5838 22.5562L19.4794 21.9305L18.3749 21.3049L17.7653 21.6159C17.43 21.7868 16.8372 22.0336 16.4482 22.164L15.7406 22.4012L15.4122 23.4498C15.2316 24.0265 15.059 24.5779 15.0285 24.6749C14.9889 24.8004 14.5708 24.8513 13.5807 24.8513H12.1884L11.8468 23.6277C11.5355 22.5123 11.4677 22.3922 11.0817 22.2717C10.8488 22.199 10.2426 21.9523 9.73448 21.7234L8.81075 21.3073L7.68741 21.948L6.56406 22.5887L5.58373 21.6091L4.6034 20.6295L4.98966 19.9523C5.90237 18.3526 5.88105 18.5564 5.29149 17.0734C5.00123 16.3433 4.74034 15.7197 4.71168 15.6878C4.68316 15.6558 4.13525 15.491 3.49417 15.3216L2.32875 15.0135L2.2888 13.6074L2.24884 12.2014L3.5128 11.8755C4.63982 11.585 4.78679 11.5096 4.86951 11.1796C4.92062 10.976 5.17036 10.3596 5.42434 9.80979L5.88627 8.81016L5.25168 7.71171L4.61709 6.61327L5.61239 5.61816L6.60754 4.62291L7.71522 5.26297L8.8229 5.90304L9.46426 5.57835C9.81706 5.39962 10.424 5.14933 10.8132 5.02213L11.5206 4.79076L11.8602 3.52742L12.1997 2.26409H13.5759H14.9521L15.2496 3.28757ZM12.1986 6.99104C9.44873 7.58932 7.38825 9.77548 6.91178 12.6006C6.35512 15.9006 8.57499 19.2366 11.9288 20.1403C13.649 20.604 15.7417 20.2478 17.3037 19.2258C18.681 18.3246 19.5573 17.1539 20.0516 15.5546C20.76 13.2624 20.1639 10.7776 18.4715 8.96869C17.5075 7.93815 16.3414 7.27267 15.0022 6.98892C13.8506 6.74498 13.3277 6.7454 12.1986 6.99104ZM15.4778 9.52519C16.38 9.93825 17.2084 10.7507 17.6573 11.6628C17.9434 12.244 17.999 12.5657 17.9967 13.6283C17.9943 14.7269 17.9435 14.9944 17.6206 15.6047C17.1731 16.451 16.3941 17.2198 15.5288 17.6696C15.0019 17.9433 14.6767 18.0002 13.6229 18.0022C12.5607 18.0042 12.2384 17.9485 11.6573 17.6625C9.58652 16.6434 8.60873 14.2511 9.36403 12.0513C9.6389 11.2507 10.4748 10.2085 11.2031 9.75826C12.4338 8.99777 14.1245 8.90559 15.4778 9.52519ZM56.1236 10.5162C56.4673 10.8598 56.4701 10.8845 56.4701 13.5577C56.4701 16.2309 56.4673 16.2556 56.1236 16.5992L55.7771 16.9458H46.3054H36.8337L36.4872 16.5992C36.1435 16.2556 36.1407 16.2309 36.1407 13.5577C36.1407 10.8845 36.1435 10.8598 36.4872 10.5162L36.8337 10.1696H46.3054H55.7771L56.1236 10.5162ZM38.3995 13.5577V14.6871H39.5289H40.6583V13.5577V12.4284H39.5289H38.3995V13.5577ZM42.9172 13.5577V14.6871H44.0466H45.176V13.5577V12.4284H44.0466H42.9172V13.5577ZM47.4348 13.5577V14.6871H48.5642H49.6937V13.5577V12.4284H48.5642H47.4348V13.5577ZM51.9525 13.5577V14.6871H53.0819H54.2113V13.5577V12.4284H53.0819H51.9525V13.5577ZM44.8294 31.9741C45.1732 32.3177 45.176 32.3424 45.176 35.0156C45.176 37.6888 45.1732 37.7135 44.8294 38.0571L44.4829 38.4037H35.0112H25.5395L25.1931 38.0571C24.8493 37.7135 24.8465 37.6888 24.8465 35.0156C24.8465 32.3424 24.8493 32.3177 25.1931 31.9741L25.5395 31.6275H35.0112H44.4829L44.8294 31.9741ZM27.1053 35.0156V36.145H28.2347H29.3642V35.0156V33.8862H28.2347H27.1053V35.0156ZM31.623 35.0156V36.145H32.7524H33.8818V35.0156V33.8862H32.7524H31.623V35.0156ZM36.1407 35.0156V36.145H37.2701H38.3995V35.0156V33.8862H37.2701H36.1407V35.0156ZM40.6583 35.0156V36.145H41.7877H42.9172V35.0156V33.8862H41.7877H40.6583V35.0156ZM60.6349 47.9187C62.2369 48.4289 63.4281 49.172 64.7294 50.4733C66.0195 51.7634 66.7615 52.9459 67.2983 54.5677C67.6284 55.5649 67.6721 55.9201 67.6721 57.6029C67.6721 59.2856 67.6284 59.6408 67.2983 60.638C66.7615 62.2598 66.0195 63.4424 64.7294 64.7324C63.4394 66.0224 62.2567 66.7644 60.6349 67.3011C59.6376 67.6312 59.2824 67.6749 57.5996 67.6749C55.9167 67.6749 55.5615 67.6312 54.5643 67.3011C52.9424 66.7644 51.7598 66.0224 50.4697 64.7324C49.1796 63.4424 48.4376 62.2598 47.9008 60.638C47.5709 59.6411 47.527 59.2852 47.5267 57.6029C47.5264 55.9387 47.5719 55.5598 47.8855 54.6147C48.444 52.9308 49.1856 51.7334 50.4577 50.4613C52.0159 48.9032 53.7851 47.9556 55.8349 47.5812C57.074 47.3547 59.3713 47.5164 60.6349 47.9187ZM58.2724 56.4354L54.2164 60.4912L53.5383 59.8235C53.1655 59.4561 52.7967 59.1557 52.7188 59.1557C52.5371 59.1557 51.2466 60.4616 51.2466 60.6454C51.2466 60.7217 51.9141 61.4493 52.7298 62.2623L54.213 63.7405L59.0828 58.8725C61.7612 56.1951 63.9525 53.9384 63.9525 53.8573C63.9525 53.673 62.6506 52.3796 62.465 52.3796C62.3898 52.3796 60.5032 54.2046 58.2724 56.4354ZM33.5352 54.5613C33.879 54.905 33.8818 54.9297 33.8818 57.6029C33.8818 60.2761 33.879 60.3008 33.5352 60.6444L33.1888 60.9909H23.7171H14.2454L13.8989 60.6444C13.5552 60.3008 13.5523 60.2761 13.5523 57.6029C13.5523 54.9297 13.5552 54.905 13.8989 54.5613L14.2454 54.2148H23.7171H33.1888L33.5352 54.5613ZM15.8112 57.6029V58.7322H16.9406H18.07V57.6029V56.4735H16.9406H15.8112V57.6029ZM20.3288 57.6029V58.7322H21.4582H22.5877V57.6029V56.4735H21.4582H20.3288V57.6029ZM24.8465 57.6029V58.7322H25.9759H27.1053V57.6029V56.4735H25.9759H24.8465V57.6029ZM29.3642 57.6029V58.7322H30.4936H31.623V57.6029V56.4735H30.4936H29.3642V57.6029Z" fill="white"/>
</svg>
