<svg width="70" height="68" viewBox="0 0 70 68" fill="none" xmlns="http://www.w3.org/2000/svg">
<path fill-rule="evenodd" clip-rule="evenodd" d="M38.0404 0.387018C37.4342 0.662562 36.5037 1.59605 36.3484 2.08418C36.257 2.37144 36.1701 2.38217 33.9299 2.38217H31.6061V6.89927V11.4164H30.2144C28.9799 11.4164 28.1902 11.551 27.3283 11.9086C27.0979 12.0042 27.0808 11.8335 27.0808 9.43392V6.85664L25.2778 6.94063C23.2363 7.03577 21.6423 7.30891 20.0452 7.83741C13.3297 10.059 8.43366 15.5951 7.0437 22.5383C6.73852 24.0628 6.70246 28.1874 6.98048 29.7671C7.63707 33.4972 8.86582 36.6997 10.7537 39.6015C11.1663 40.2357 12.3091 41.8238 13.2932 43.1305L15.0824 45.5064L14.1877 45.693C12.6843 46.0065 10.5607 46.6969 9.27861 47.2888C8.14602 47.8118 8.02087 47.8401 7.4941 47.6935C7.13675 47.594 5.90008 47.552 4.14541 47.5797C1.09907 47.628 0.994848 47.6554 0.291596 48.5956C0.00551519 48.978 0 49.1296 0 56.5874C0 64.0451 0.00551519 64.1967 0.291596 64.5791C0.994848 65.5194 1.09907 65.5468 4.14541 65.595C5.8998 65.6227 7.13675 65.5808 7.4941 65.4813C8.01663 65.3359 8.14659 65.3633 9.16859 65.8353C10.6886 66.5373 12.8743 67.2299 14.5657 67.5456C15.8411 67.7837 16.7639 67.8095 23.9697 67.8095C32.5146 67.8095 32.1542 67.8362 33.894 67.0734L34.6969 66.7213L35.2374 67.1421C36.0924 67.8078 36.509 67.8801 39.4946 67.8801C42.7956 67.8801 43.1512 67.7992 44.126 66.8262C45.2667 65.6876 45.484 64.4244 44.7795 63.03L44.377 62.2337L44.7795 61.4375C45.0521 60.898 45.1818 60.4265 45.1818 59.9752C45.1818 59.5239 45.0521 59.0524 44.7795 58.5129L44.377 57.7166L44.7795 56.9204C45.4839 55.5263 45.2667 54.2637 44.126 53.1226C43.7344 52.731 43.1914 52.3405 42.9192 52.2548C42.5085 52.1256 42.7946 52.0967 44.5998 52.0847C47.2675 52.067 47.7177 51.9483 48.6513 51.0164C50.082 49.5883 50.082 47.7766 48.6513 46.3485C47.7705 45.4694 47.2217 45.2946 45.3422 45.2946C44.5539 45.2946 43.9091 45.2576 43.9091 45.2125C43.9091 45.1673 44.1245 44.8656 44.3878 44.542C45.6877 42.9439 47.1169 40.2981 47.9084 38.0249C48.1787 37.2485 48.7302 35.1206 49.1339 33.2961C49.5377 31.4716 49.8997 29.8677 49.9384 29.7318C50.0052 29.498 49.3957 29.4848 38.5448 29.4848H27.0808V26.1056V22.7262L24.4038 22.6824C21.475 22.6344 21.3547 22.6018 20.6552 21.6667C20.2464 21.1201 20.2464 19.781 20.6552 19.2345C21.311 18.3577 21.571 18.2665 23.5613 18.216L25.396 18.1693L25.694 18.5476C26.2462 19.2482 26.7233 19.6318 27.505 20.0035C28.1762 20.3227 28.5105 20.3807 29.9444 20.4269L31.6061 20.4804V23.8532V27.2262H41.7879H51.9697V24.8114C51.9697 22.6342 51.9925 22.4053 52.2009 22.4852C52.3282 22.5339 53.0122 22.6079 53.7211 22.6495C56.0561 22.787 55.9871 22.7488 58.6613 25.38C59.9694 26.6672 61.1397 27.9303 61.2619 28.1869C61.3842 28.4437 61.709 28.8248 61.9837 29.0339L62.483 29.4142H65.5594C68.945 29.4142 68.9892 29.4039 69.7084 28.4423C69.9929 28.0619 70 27.897 70 21.5798C70 15.2627 69.9929 15.0978 69.7084 14.7174C68.9974 13.7667 68.9286 13.7496 65.6211 13.7026L62.6056 13.6595L61.1345 12.1498C60.3253 11.3194 59.1914 9.97301 58.6147 9.15782C55.1343 4.23827 50.0282 1.07418 44.376 0.334649C42.03 0.0276269 38.7715 0.0545881 38.0404 0.387018ZM44.3152 2.60252C48.5932 3.22969 52.7261 5.51195 55.4082 8.72813C55.8966 9.3138 56.675 10.3256 57.138 10.9765C57.6009 11.6274 58.6638 12.8755 59.5 13.75L61.0202 15.34V19.894V24.4478L59.4692 22.9379C57.4233 20.9465 56.771 20.6266 54.387 20.4459C51.5808 20.2333 49.6611 19.6468 47.5859 18.3679C45.63 17.1627 42.9192 14.0448 42.9192 13.0006C42.9192 12.4936 43.3051 11.8668 43.763 11.6305C44.7102 11.1417 45.6031 11.5244 46.2733 12.7064C46.7753 13.5919 47.9948 14.7878 48.8293 15.2127C49.8329 15.7238 50.9401 15.9335 52.6358 15.9335H54.2323V14.8042V13.6749H52.7732C51.2046 13.6749 50.0144 13.417 49.5794 12.9828C49.4399 12.8436 49.2818 12.4501 49.2282 12.1083C49.1745 11.7666 48.8386 10.8835 48.4819 10.1459C47.9398 9.02541 47.6443 8.61915 46.6843 7.67508C45.2583 6.2728 44.5125 5.8736 41.2836 4.7847C39.8887 4.31435 38.668 3.82326 38.5707 3.69354C38.3153 3.35264 38.3529 2.98774 38.6768 2.66448C38.9319 2.40983 39.1481 2.38217 40.8859 2.38217C41.9454 2.38217 43.4885 2.48126 44.3152 2.60252ZM36.7525 5.04034C37.2021 5.71028 37.8245 6.0245 40.4147 6.88938C42.978 7.74523 44.1 8.25651 44.6145 8.80308L44.91 9.11716L44.1194 9.19861C42.0255 9.4143 40.4886 11.2821 40.701 13.3528C40.8922 15.2158 43.4556 18.3992 46.187 20.1658C46.6232 20.4479 47.5936 20.9597 48.3436 21.303L49.7071 21.9274V23.4475V24.9677H41.7879H33.8687V21.5885V18.2091L31.1917 18.1653C28.2629 18.1173 28.1425 18.0847 27.4431 17.1496C27.0343 16.603 27.0343 15.2639 27.4431 14.7174C28.1425 13.7822 28.2629 13.7496 31.1917 13.7016L33.8687 13.6578V9.14921V4.64072L35.1768 4.64114C36.4546 4.64156 36.4911 4.65074 36.7525 5.04034ZM24.8182 12.5286V15.8994L23.0859 15.9627C21.088 16.0357 20.3464 16.2968 19.3703 17.2711C18.4516 18.1882 18.1161 19.0349 18.1109 20.4506C18.1067 21.5508 18.1463 21.7244 18.5868 22.5399C19.1231 23.5326 19.5693 23.9619 20.6313 24.5072C21.2659 24.8329 21.564 24.8855 23.0859 24.9399L24.8182 25.0017V27.2433V29.4848H17.0468H9.2755L9.16335 28.9554C8.94232 27.9118 9.03905 23.9914 9.31735 22.7091C10.0377 19.3903 11.5876 16.552 13.9874 14.1564C16.8942 11.255 20.2003 9.71031 24.6414 9.17899C24.7784 9.16262 24.8182 9.91485 24.8182 12.5286ZM67.8081 21.5798V27.2262H65.5454H63.2828V21.5798V15.9335H65.5454H67.8081V21.5798ZM24.8182 33.9933V36.2433L27.4951 36.2871C30.424 36.3351 30.5443 36.3677 31.2438 37.3029C31.6526 37.8494 31.6526 39.1885 31.2438 39.7351C30.5443 40.6702 30.424 40.7028 27.4951 40.7508L24.8182 40.7946V43.0447V45.2946H21.2804H17.7425L15.2067 41.9052C11.9802 37.5928 10.7895 35.4716 9.91822 32.4844L9.70214 31.7433H17.2602H24.8182V33.9933ZM47.0936 32.0609C47.0533 32.2357 46.8017 33.3414 46.5346 34.5182C45.9563 37.0654 45.1835 39.1117 44.1229 40.9032C43.2989 42.2951 42.9909 42.7182 41.4911 44.5182C39.8231 46.5199 38.4779 48.7914 37.6249 51.0469C37.3743 51.7096 37.1608 52.0703 37.0192 52.0703C36.1133 52.0703 34.6451 53.0567 34.2949 53.9005L34.1171 54.3288H30.0262H25.9351L26.3234 53.7995C26.5369 53.5084 26.7469 53.2261 26.7902 53.1724C26.8333 53.1187 27.8476 52.9096 29.0439 52.7077C31.4921 52.2949 32.0391 52.1094 32.7145 51.4631C33.4927 50.7185 33.7861 50.0191 33.7925 48.8942C33.7987 47.7728 33.5297 47.0831 32.8034 46.358C31.9501 45.5064 31.4727 45.37 29.1667 45.3197L27.0808 45.2743V44.1723V43.0701L28.8131 43.0083C30.335 42.9539 30.6331 42.9013 31.2677 42.5756C32.3297 42.0303 32.7758 41.601 33.3122 40.6083C33.751 39.796 33.7927 39.6148 33.7927 38.519C33.7927 37.4231 33.751 37.2419 33.3122 36.4297C32.7758 35.4369 32.3297 35.0076 31.2677 34.4623C30.6331 34.1367 30.335 34.084 28.8131 34.0297L27.0808 33.9678V32.8555V31.7433H37.1239H47.167L47.0936 32.0609ZM31.1927 47.9658C31.6558 48.4281 31.7181 48.9038 31.3963 49.5246C31.1325 50.0342 30.8373 50.1245 27.9293 50.5851C26.646 50.7884 25.4649 51.0083 25.3048 51.0737C25.1303 51.145 24.9421 51.4307 24.8353 51.7864C24.6198 52.5045 23.6968 53.5397 22.9155 53.9395C22.5551 54.124 21.964 54.257 21.3182 54.2992L20.2929 54.3659V55.4968V56.6277L21.409 56.5514L22.5252 56.475L22.5903 59.0368C22.6451 61.1856 22.704 61.7314 22.9556 62.4223C23.2991 63.3651 24.0094 64.6558 24.3319 64.923C24.4522 65.0226 24.6167 65.2273 24.6973 65.3775C24.8411 65.6457 24.7598 65.6495 20.2703 65.5832C16.3537 65.5253 15.5143 65.4745 14.4242 65.2291C12.9308 64.8932 10.9394 64.2043 9.79293 63.6271L8.9798 63.2178V56.5762V49.9345L10.1465 49.3913C12.071 48.4954 14.2991 47.8687 16.3333 47.6513C16.6056 47.6222 19.9673 47.5882 23.8038 47.5758L30.7794 47.5532L31.1927 47.9658ZM47.0973 47.8997C47.3162 48.1181 47.4444 48.4075 47.4444 48.6824C47.4444 48.9574 47.3162 49.2468 47.0973 49.4652L46.7502 49.8117H43.6899H40.6297L41.021 49.1412C41.2362 48.7724 41.5445 48.265 41.7061 48.0136L42 47.5567L44.375 47.5549C46.7094 47.5532 46.7562 47.5591 47.0973 47.8997ZM6.71717 56.5874V63.363H4.45455H2.19192V56.5874V49.8117H4.45455H6.71717V56.5874ZM42.572 54.6754C42.7909 54.8937 42.9192 55.1831 42.9192 55.4581C42.9192 55.7331 42.7909 56.0224 42.572 56.2408C42.2278 56.5845 42.2031 56.5874 39.5252 56.5874C36.8474 56.5874 36.8227 56.5845 36.4785 56.2408C36.2596 56.0224 36.1313 55.7331 36.1313 55.4581C36.1313 55.1831 36.2596 54.8937 36.4785 54.6754C36.8227 54.3316 36.8474 54.3288 39.5252 54.3288C42.2031 54.3288 42.2278 54.3316 42.572 54.6754ZM34.3873 57.1531L34.6937 57.7166L34.3873 58.2802L34.0808 58.8437L29.4495 58.8448L24.8182 58.8459V57.7166V56.5874L29.4495 56.5885L34.0808 56.5896L34.3873 57.1531ZM42.572 59.1925C42.7909 59.4108 42.9192 59.7002 42.9192 59.9752C42.9192 60.2502 42.7909 60.5396 42.572 60.7579C42.2278 61.1017 42.2031 61.1045 39.5252 61.1045C36.8474 61.1045 36.8227 61.1017 36.4785 60.7579C36.2596 60.5396 36.1313 60.2502 36.1313 59.9752C36.1313 59.7002 36.2596 59.4108 36.4785 59.1925C36.8227 58.8487 36.8474 58.8459 39.5252 58.8459C42.2031 58.8459 42.2278 58.8487 42.572 59.1925ZM34.3966 61.6872L34.7122 62.2676L34.4328 62.6595C34.2791 62.8749 34.0694 63.3914 33.9667 63.8071C33.7836 64.549 33.7623 64.5719 32.8026 65.0569C31.8889 65.5187 31.7367 65.551 30.4781 65.551C29.2594 65.551 29.0415 65.5085 28.1867 65.1042C26.9079 64.4995 26.0592 63.684 25.456 62.4805C25.183 61.9358 24.9596 61.4033 24.9596 61.2973C24.9596 61.1383 25.7594 61.1046 29.5202 61.1056L34.0808 61.1067L34.3966 61.6872ZM42.572 63.7096C42.7909 63.9279 42.9192 64.2173 42.9192 64.4923C42.9192 64.7673 42.7909 65.0566 42.572 65.275C42.2278 65.6188 42.2031 65.6216 39.5252 65.6216C36.8474 65.6216 36.8227 65.6188 36.4785 65.275C36.2596 65.0566 36.1313 64.7673 36.1313 64.4923C36.1313 64.2173 36.2596 63.9279 36.4785 63.7096C36.8227 63.3658 36.8474 63.363 39.5252 63.363C42.2031 63.363 42.2278 63.3658 42.572 63.7096Z" fill="white"/>
</svg>
