<svg width="70" height="70" viewBox="0 0 70 70" fill="none" xmlns="http://www.w3.org/2000/svg">
<path fill-rule="evenodd" clip-rule="evenodd" d="M19.6952 0.389001C19.3883 0.695582 19.2863 0.951044 19.2137 1.594C18.9977 3.51195 19.1214 3.31704 17.7544 3.89425L16.5299 4.41119L15.543 3.64494C14.5029 2.83769 14.1267 2.67216 13.6232 2.80051C13.454 2.8437 12.6088 3.58808 11.7452 4.45465C10.2965 5.90842 10.1749 6.07039 10.1749 6.54823C10.1749 6.97154 10.3196 7.25092 10.9677 8.07841C11.4305 8.66929 11.7325 9.17953 11.6932 9.30405C11.6561 9.42146 11.4756 9.88659 11.2917 10.3376C11.1078 10.7887 10.9238 11.2567 10.8826 11.3775C10.8269 11.5416 10.4833 11.6382 9.53065 11.7578C8.679 11.8648 8.12984 12.0079 7.88262 12.1872C7.5488 12.4295 7.2827 12.4562 5.20549 12.4562C2.4917 12.4562 1.78877 12.6085 1.00839 13.3659C-0.0350661 14.3781 0.0489361 12.6479 0.00802949 33.9839C-0.0172806 47.2228 0.0166486 53.3376 0.118299 53.8272C0.322696 54.812 0.927402 55.5941 1.79725 55.9987C2.4824 56.3174 2.61661 56.329 5.62592 56.3303L12.8241 56.3316L12.4884 55.9961C12.9165 56.4236 12.6562 56.1639 12.4884 55.9961L12.8241 54.2814H5.78804C4.12099 54.2814 2.72223 54.223 2.58104 54.1476C2.15296 53.9186 2.02846 53.2285 2.02846 51.0831V49.0191H35H67.9715V51.0831C67.9715 53.2285 67.847 53.9186 67.419 54.1476C67.2581 54.2336 57.459 54.2814 39.9964 54.2814H12.8241L12.4884 55.9961C12.0603 55.5685 12.0954 55.6036 12.4884 55.9961L12.8241 56.3316H20.2866H27.749V59.1337V61.9357L24.9786 61.9362C22.4555 61.9366 22.1683 61.961 21.7623 62.2084C20.8586 62.7588 20.7727 63.0773 20.7722 65.8789C20.7715 68.7828 20.8619 69.1176 21.7933 69.6629L22.369 70L35.012 69.9978L47.6551 69.9955L48.1881 69.6903C49.1303 69.1505 49.2285 68.7928 49.2278 65.9017C49.2273 63.0747 49.1429 62.7596 48.2377 62.2084C47.8317 61.961 47.5445 61.9366 45.0214 61.9362L42.251 61.9357V59.1337V56.3316L54.8719 56.3303L67.4927 56.3289L68.2028 55.9987C69.0726 55.5941 69.6773 54.812 69.8817 53.8272C69.9834 53.3376 70.0173 47.2228 69.992 33.9839C69.9511 12.6479 70.0351 14.3781 68.9916 13.3659C68.217 12.6142 67.502 12.4562 64.875 12.4562C62.4965 12.4562 62.0809 12.5432 61.8301 13.0928C61.6165 13.5612 61.6383 13.7355 61.9618 14.1463L62.2453 14.5065H64.6904C67.0778 14.5065 67.1445 14.5143 67.5192 14.8363L67.9031 15.1663L67.9438 30.3157C67.9718 40.7922 67.9391 45.6211 67.8379 45.9705C67.7573 46.2484 67.5306 46.6021 67.3341 46.7564L66.9769 47.0372H34.9837H2.99052L2.54369 46.6383L2.09687 46.2395V30.7029V15.1663L2.48076 14.8363C2.85261 14.5167 2.93415 14.5065 5.10152 14.5065H7.33852L7.38545 15.8705C7.42895 17.1305 7.46001 17.2619 7.79273 17.5942C8.09659 17.8975 8.34326 17.9759 9.36607 18.0946C10.0333 18.1719 10.6306 18.2811 10.6935 18.3372C10.8238 18.4532 11.7421 20.5249 11.7421 20.7026C11.7421 20.7669 11.4013 21.2574 10.9848 21.793C10.5682 22.3286 10.1919 22.9084 10.1484 23.0815C10.0106 23.63 10.354 24.1389 11.8681 25.6294C13.2556 26.9954 13.3759 27.0814 13.9001 27.0814C14.4509 27.0814 14.8619 26.842 16.1624 25.7637L16.547 25.445L17.1885 25.7694C17.5415 25.9479 18.0879 26.1708 18.4029 26.2648C19.0299 26.4522 19.0065 26.3955 19.2113 28.2187C19.2735 28.7732 19.4028 29.1356 19.6379 29.4147L19.9751 29.815H22.3449H24.7148L25.05 29.4172C25.2927 29.1289 25.4108 28.7804 25.4781 28.1528C25.6599 26.4581 25.6628 26.4514 26.29 26.264C26.6033 26.1704 27.1484 25.9479 27.5014 25.7694L28.1429 25.445L28.5275 25.7637C29.8196 26.8351 30.2405 27.0814 30.779 27.0814C31.2884 27.0814 31.4259 26.9834 32.8155 25.6295C34.9131 23.586 34.9636 23.2947 33.5226 21.5557L32.8512 20.7456L33.31 19.7535C33.5623 19.208 33.7687 18.6654 33.7687 18.5477C33.7687 18.4299 33.7842 18.3299 33.8029 18.3253C33.8216 18.3208 34.4443 18.2356 35.1863 18.1361C36.3273 17.983 36.5913 17.8995 36.8965 17.5949C37.23 17.2618 37.2609 17.1312 37.3045 15.8705L37.3514 14.5065H47.8731C58.2124 14.5065 58.3995 14.5017 58.6684 14.2331C59.0141 13.8877 59.0196 13.2657 58.6805 12.8473L58.419 12.5246L47.7698 12.4562C38.0944 12.3942 37.0892 12.3669 36.7785 12.1583C36.5904 12.032 35.8642 11.8475 35.1649 11.7482L33.8932 11.5678L33.4228 10.406C33.1641 9.76699 32.9514 9.19388 32.9502 9.13251C32.9489 9.071 33.2286 8.6764 33.5716 8.25568C34.4008 7.23876 34.6257 6.7806 34.5235 6.31614C34.4705 6.0749 33.8522 5.35663 32.8262 4.34421C30.798 2.34289 30.8006 2.3433 29.0227 3.73911L28.1644 4.4131L26.9307 3.8922C25.8107 3.41927 25.6918 3.33344 25.6372 2.95906C25.189 -0.120828 25.4328 0.0993689 22.4084 0.043192L20.0846 0L19.6952 0.389001ZM23.6025 3.31143C23.7768 4.82766 23.9316 5.01095 25.4916 5.54908C26.0936 5.7567 26.8378 6.07326 27.1454 6.25272C28.1333 6.82884 28.5956 6.71881 29.9816 5.57723L30.6408 5.03419L31.4435 5.82764L32.2461 6.62122L31.5012 7.57254C31.0914 8.09576 30.7181 8.6753 30.6716 8.86065C30.6121 9.09779 30.7535 9.54816 31.1497 10.3826C31.4593 11.0345 31.8072 11.8874 31.9228 12.2779C32.046 12.6937 32.2753 13.0997 32.4761 13.2575C32.8102 13.5201 33.0626 13.5813 34.5607 13.7625L35.2843 13.8501L35.2448 14.9615L35.2052 16.0728L34.036 16.2123C32.5266 16.3923 32.2125 16.6003 31.9217 17.6121C31.797 18.0465 31.4488 18.9106 31.1481 19.5321C30.4869 20.899 30.5094 21.105 31.4481 22.264C31.8215 22.725 32.127 23.1539 32.127 23.2171C32.127 23.2802 31.7907 23.6636 31.3798 24.0691L30.6326 24.8064L29.8407 24.1878C28.4135 23.0729 28.2813 23.0518 26.9443 23.7246C26.4301 23.9832 25.5979 24.3276 25.0949 24.49C23.9578 24.857 23.7891 25.0967 23.6059 26.6054L23.4653 27.7648H22.3236C21.3293 27.7648 21.1815 27.7339 21.1775 27.5256C21.1633 26.7625 20.9036 25.386 20.7218 25.1086C20.5825 24.8964 20.1904 24.683 19.5804 24.4875C19.0693 24.3238 18.2354 23.9792 17.7274 23.722C16.411 23.0554 16.2712 23.077 14.8802 24.1635C14.4617 24.4903 14.0594 24.7578 13.9863 24.7578C13.9131 24.7578 13.5291 24.4297 13.1328 24.0288L12.4122 23.2999L13.1641 22.3398C14.1738 21.0508 14.2049 20.8724 13.6199 19.7368C13.3578 19.2282 12.998 18.3578 12.8204 17.8028C12.4216 16.5573 12.2034 16.3971 10.6539 16.2123L9.48468 16.0728L9.44514 14.9615L9.4056 13.8501L10.1292 13.7625C11.6273 13.5813 11.8797 13.5201 12.2135 13.2576C12.4036 13.1084 12.6231 12.7326 12.706 12.4147C12.7884 12.0992 13.1347 11.2396 13.4756 10.5045C13.8822 9.62771 14.0688 9.06184 14.0181 8.85969C13.9755 8.69034 13.6034 8.11791 13.191 7.58771L12.4413 6.62368L13.2272 5.84677L14.0129 5.06986L15.0097 5.82436C16.2118 6.73426 16.5084 6.76474 17.8384 6.11508C18.3606 5.86003 19.1416 5.54129 19.574 5.40693C20.7113 5.05319 20.8887 4.80579 21.0721 3.31881L21.2261 2.06829H22.3429H23.4598L23.6025 3.31143ZM21.3189 8.31063C19.9689 8.52509 18.264 9.47176 17.3367 10.5219C16.2256 11.7802 15.688 13.2187 15.688 14.9334C15.688 16.8134 16.3231 18.3547 17.6349 19.6585C20.2047 22.2124 24.264 22.2776 26.8787 19.8071C28.3322 18.4337 28.9803 16.9474 28.9803 14.9871C28.9803 11.7561 26.9235 9.17256 23.7575 8.42695C22.9339 8.23286 22.0679 8.19158 21.3189 8.31063ZM24.2663 10.7329C24.6688 10.9169 25.2939 11.3647 25.6552 11.7277L26.3125 12.3879L24.3713 12.4258C23.3036 12.4465 21.5182 12.4465 20.4037 12.4258L18.3774 12.3879L19.0143 11.7481C20.4619 10.2936 22.4612 9.90723 24.2663 10.7329ZM26.8986 15.4291C26.8214 16.5041 26.4751 17.2691 25.6722 18.1394C24.4824 19.4291 22.3956 19.919 20.744 19.2964C19.7797 18.9329 18.6781 17.9661 18.2368 17.096C17.9039 16.4396 17.5994 15.0057 17.724 14.6812C17.7765 14.5442 18.781 14.5065 22.3779 14.5065H26.9649L26.8986 15.4291ZM46.8108 16.8874C46.243 17.1411 46.1028 17.4315 45.9441 18.6814C45.8018 19.803 45.7422 19.9736 45.4922 19.9742C45.4026 19.9745 44.9599 20.1493 44.5084 20.363L43.6875 20.7512L42.7501 20.0207C41.9708 19.4137 41.7195 19.2904 41.2609 19.2904C40.7495 19.2904 40.6147 19.3828 39.4157 20.5547C38.7042 21.2502 38.0293 21.9968 37.9159 22.2138C37.6167 22.7865 37.7743 23.2965 38.552 24.2729L39.2323 25.1269L38.7779 26.2062L38.3236 27.2853L37.2432 27.4281C36.074 27.5827 35.6317 27.7618 35.4136 28.169C35.2274 28.5167 35.2329 32.173 35.4202 32.5838C35.6416 33.0695 36.0019 33.2298 37.2308 33.3903L38.3519 33.5367L38.7919 34.6352L39.2319 35.7339L38.7136 36.3625C37.3376 38.0311 37.3426 38.0679 39.2043 39.9553C40.0118 40.7739 40.8122 41.4788 40.9829 41.5216C41.4776 41.6457 41.8562 41.4888 42.7747 40.7784L43.635 40.1132L44.7087 40.534C45.9095 41.0045 45.7591 40.7545 46.0284 42.7279C46.0817 43.12 46.2358 43.4633 46.4574 43.6847C46.7972 44.0243 46.8387 44.0301 48.9155 44.0301H51.028L51.4139 43.6445C51.7431 43.3157 51.8141 43.1075 51.8965 42.2285C51.9497 41.6618 52.0329 41.1434 52.0814 41.0764C52.13 41.0096 52.6232 40.7568 53.1773 40.5149L54.1848 40.0751L55.1408 40.8224C56.5642 41.9352 56.7188 41.9077 58.4305 40.2372C59.1814 39.5041 59.8735 38.7249 59.9684 38.5054C60.2061 37.9551 60.0457 37.4952 59.2735 36.5132L58.6276 35.6919L58.9763 34.8379C59.1681 34.3682 59.3567 33.8852 59.3952 33.7645C59.4472 33.602 59.7786 33.5047 60.6703 33.3896C61.6558 33.2625 61.9382 33.1713 62.2214 32.8884C62.562 32.548 62.5675 32.5088 62.5675 30.4158V28.2891L62.1322 27.9005C61.7607 27.5689 61.5376 27.498 60.6134 27.4175L59.53 27.323L59.0904 26.2488C58.8231 25.5956 58.6945 25.1038 58.7622 24.9938C58.8235 24.8944 59.1413 24.4639 59.4687 24.0373C59.9246 23.4431 60.0638 23.1428 60.0638 22.7545C60.0638 22.2906 59.9365 22.1217 58.5674 20.7689C56.7265 18.9501 56.5793 18.9155 55.1797 19.9738C54.6826 20.3497 54.2312 20.6573 54.1766 20.6573C54.0586 20.6573 52.3748 19.9477 52.1519 19.8041C52.0668 19.7493 51.9533 19.2367 51.8996 18.6651C51.8181 17.7954 51.7393 17.5554 51.4161 17.1938L51.0301 16.7618L49.1374 16.7277C47.7374 16.7025 47.1316 16.7441 46.8108 16.8874ZM49.9863 19.8525C50.1742 21.2138 50.3719 21.4936 51.3665 21.8055C51.8084 21.9441 52.5838 22.2652 53.0899 22.5192C53.596 22.7731 54.1279 22.9809 54.2721 22.9809C54.4163 22.9809 54.8333 22.7657 55.199 22.5029C56.657 21.4545 56.4177 21.4966 57.1028 22.1684C57.4372 22.4962 57.7107 22.82 57.7107 22.8878C57.7107 22.9557 57.4631 23.3069 57.1603 23.668C56.2703 24.7299 56.2311 24.9933 56.7886 26.1596C57.0489 26.7041 57.3674 27.4715 57.4964 27.8646C57.8703 29.0048 58.034 29.1329 59.3568 29.3212L60.5153 29.4862L60.5555 30.395L60.5959 31.3039L60.1451 31.3735C59.8973 31.4119 59.4063 31.4799 59.0542 31.5245C58.2254 31.6298 57.7549 32.01 57.5668 32.727C57.484 33.0424 57.1704 33.8382 56.8698 34.4955C56.2375 35.8786 56.2458 35.9688 57.1097 37.082C57.4402 37.5079 57.7107 37.9101 57.7107 37.976C57.7107 38.0419 57.4399 38.3612 57.1091 38.6857L56.5076 39.2755L55.596 38.5774C54.5447 37.7724 54.1543 37.7099 53.2887 38.2088C52.9743 38.39 52.2374 38.7064 51.6512 38.912C50.3062 39.3834 50.1101 39.6237 49.9855 40.9526L49.889 41.9799H48.9431C48.4228 41.9799 47.9959 41.9338 47.9943 41.8774C47.9789 41.2896 47.6738 39.8059 47.5204 39.5722C47.4007 39.3896 46.9692 39.1589 46.4088 38.978C45.9051 38.8155 45.1346 38.5017 44.6968 38.2809C43.5307 37.6929 43.3292 37.7271 42.061 38.7286L41.3865 39.2612L40.7283 38.6136C40.3285 38.2203 40.114 37.9088 40.1817 37.8202C40.2432 37.74 40.5492 37.3459 40.8618 36.9445C41.547 36.0646 41.5747 35.7004 41.0389 34.6292C40.8237 34.1992 40.5099 33.4296 40.3418 32.9193C39.9935 31.8617 39.7571 31.6532 38.7623 31.5255C37.2177 31.3272 37.3258 31.4156 37.3258 30.351V29.405L37.8388 29.399C39.2689 29.3824 40.1014 28.9464 40.2744 28.1235C40.3237 27.8886 40.6039 27.1805 40.8971 26.55C41.1903 25.9193 41.4301 25.231 41.4301 25.0203C41.4301 24.7698 41.1887 24.3227 40.7314 23.7268L40.0327 22.816L40.6231 22.215C40.9479 21.8845 41.2675 21.614 41.3334 21.614C41.3994 21.614 41.802 21.8866 42.2283 22.2197C43.2999 23.0571 43.5767 23.1018 44.5516 22.5949C44.9907 22.3666 45.7526 22.0498 46.2448 21.891C47.4319 21.5078 47.6831 21.2183 47.854 20.0371C47.9298 19.5138 47.9928 19.0057 47.9943 18.9082C47.9964 18.777 48.2357 18.7416 48.9199 18.7716L49.8427 18.812L49.9863 19.8525ZM47.7604 24.4918C46.306 24.7785 44.7738 25.7989 43.9614 27.0218C43.1761 28.2035 42.9026 29.2183 42.9639 30.7219C43.0089 31.8299 43.0715 32.0852 43.5177 32.9875C44.1417 34.2489 45.1771 35.2643 46.4567 35.87C47.3304 36.2833 47.4683 36.3075 48.9548 36.3075C50.4419 36.3075 50.5788 36.2835 51.4548 35.8689C53.2171 35.035 54.5264 33.2964 54.8613 31.3458C55.555 27.304 51.8134 23.6926 47.7604 24.4918ZM50.4906 26.7774C51.3349 27.1505 52.0594 27.8299 52.4781 28.6409C52.7691 29.2046 52.8388 29.5329 52.8455 30.3711C52.8528 31.262 52.7966 31.5176 52.441 32.2125C51.9649 33.143 51.0291 33.934 50.0952 34.1952C49.1742 34.4529 47.7328 34.3005 46.9927 33.8672C45.6133 33.0595 44.903 31.7061 45.018 30.1043C45.0979 28.9936 45.4434 28.2828 46.2764 27.5156C47.4828 26.4048 49.0329 26.1332 50.4906 26.7774ZM40.1675 59.0995L40.1304 61.8673H35H29.8696L29.8325 59.0995L29.7956 56.3316H35H40.2044L40.1675 59.0995ZM47.1762 65.9678V67.9497H35H22.8238V65.9678V63.9859H35H47.1762V65.9678Z" fill="white"/>
</svg>
