<svg width="70" height="66" viewBox="0 0 70 66" fill="none" xmlns="http://www.w3.org/2000/svg">
<path fill-rule="evenodd" clip-rule="evenodd" d="M19.1822 1.01908C18.9015 1.15757 18.4868 1.51393 18.2605 1.8109L17.8488 2.35115L17.8025 5.86403L17.7559 9.37706H16.9122C15.8957 9.37706 15.3143 9.82498 15.3143 10.608C15.3143 11.3937 15.8953 11.839 16.9203 11.839H17.772V16.7629V21.6868H16.3059C14.9329 21.6868 14.8142 21.7122 14.4415 22.0855C14.0738 22.4538 14.0505 22.5568 14.133 23.442C14.248 24.6762 14.7216 25.9318 15.4156 26.8421C16.1126 27.7567 17.5562 28.6981 18.5914 28.9135C19.1413 29.0278 24.3909 29.0664 35.4394 29.0377L51.4887 28.9957L52.3698 28.5821C53.381 28.1074 54.616 26.9426 55.0852 26.0212C55.4946 25.2174 55.8665 23.7947 55.8665 23.0322C55.8665 22.6109 55.7586 22.3341 55.4894 22.0645C55.1418 21.7162 54.9981 21.6868 53.6461 21.6868H52.1799V16.7629V11.839H53.0317C54.0567 11.839 54.6376 11.3937 54.6376 10.608C54.6376 9.82498 54.0562 9.37706 53.0398 9.37706H52.196L52.1495 5.86403L52.1031 2.35115L51.6893 1.80813C50.8383 0.691183 51.9386 0.759809 34.9528 0.76381C21.1377 0.766887 19.6437 0.791199 19.1822 1.01908ZM49.7222 12.4545V21.6868H46.604H43.4858L43.2985 20.7782C42.8821 18.7589 41.0451 16.1774 39.4104 15.3145L38.8527 15.02L39.3574 14.3143C40.5411 12.659 40.6908 10.4222 39.7376 8.63064C38.8177 6.90189 37.3911 5.99374 35.4038 5.87172C32.1739 5.67369 29.7251 7.97253 29.7352 11.1931C29.7391 12.4243 30.144 13.6595 30.8031 14.4502L31.2426 14.9775L30.3828 15.5361C28.5843 16.7044 27.0533 18.8732 26.6425 20.8351L26.4642 21.6868H23.347H20.2297V12.4545V3.22221H34.976H49.7222V12.4545ZM36.3571 8.5854C37.9718 9.45292 38.4195 11.6694 37.2497 13.0041C36.1133 14.3008 34.4437 14.4427 33.1997 13.3483C32.4774 12.7133 32.1942 12.1254 32.1894 11.2524C32.1828 10.0112 32.8021 8.975 33.8239 8.518C34.4986 8.21641 35.7311 8.24919 36.3571 8.5854ZM8.31833 9.75482C7.96335 10.1104 7.94123 10.2323 7.94123 11.839C7.94123 13.4457 7.96335 13.5676 8.31833 13.9232C8.55596 14.1614 8.87085 14.3009 9.17008 14.3009C9.95439 14.3009 10.3989 13.719 10.3989 12.6922V11.839H11.2507C12.2757 11.839 12.8566 11.3937 12.8566 10.608C12.8566 10.3083 12.7173 9.99286 12.4795 9.75482C12.1245 9.39922 12.0029 9.37706 10.3989 9.37706C8.79497 9.37706 8.67332 9.39922 8.31833 9.75482ZM57.4724 9.75482C57.2346 9.99286 57.0953 10.3083 57.0953 10.608C57.0953 11.3937 57.6763 11.839 58.7013 11.839H59.553V12.6922C59.553 13.3931 59.6205 13.6131 59.9301 13.9232C60.4289 14.423 61.1349 14.423 61.6336 13.9232C61.9886 13.5676 62.0107 13.4457 62.0107 11.839C62.0107 10.2323 61.9886 10.1104 61.6336 9.75482C61.2786 9.39922 61.157 9.37706 59.553 9.37706C57.9491 9.37706 57.8274 9.39922 57.4724 9.75482ZM60.3759 16.6092C59.6346 16.9057 59.553 17.2567 59.553 20.1533C59.553 22.6315 59.5785 22.8871 59.855 23.1844C60.2707 23.6314 60.7258 23.7477 61.2341 23.5368C61.9176 23.2532 62.0107 22.8285 62.0107 19.9956C62.0107 17.5147 61.9949 17.3781 61.6651 17.0148C61.2551 16.563 60.8276 16.4285 60.3759 16.6092ZM8.63246 16.7949C7.98884 17.1646 7.95121 17.3539 7.94614 20.2427C7.94153 22.8337 7.96365 23.0587 8.25965 23.4355C8.70926 24.0082 9.6309 24.0082 10.0805 23.4355C10.3748 23.0608 10.3989 22.8282 10.3989 20.3653C10.3989 17.5224 10.3075 17.0646 9.68359 16.7798C9.21893 16.5678 9.02292 16.5705 8.63246 16.7949ZM37.6312 17.1968C38.9206 17.8326 40.1619 19.1459 40.6288 20.3682C40.8146 20.8546 40.9666 21.3503 40.9666 21.4697C40.9666 21.6529 40.0284 21.6868 34.9594 21.6868H28.952L29.0526 21.2636C29.4031 19.7888 30.7539 18.0469 32.0745 17.367C33.2697 16.7517 33.9146 16.6098 35.3027 16.657C36.4311 16.6953 36.7767 16.7755 37.6312 17.1968ZM53.1485 24.4468C53.0134 24.9645 51.9911 26.0258 51.3437 26.3205C50.7514 26.5899 49.9432 26.6039 34.976 26.6039C19.9619 26.6039 19.2027 26.5907 18.6169 26.3183C17.9029 25.9866 17.092 25.1787 16.8636 24.5719L16.7045 24.1487H34.9654C52.9529 24.1487 53.2252 24.1532 53.1485 24.4468ZM60.2443 26.0272C59.6023 26.396 59.563 26.5896 59.5579 29.4102C59.5532 32.0469 59.5644 32.146 59.9128 32.5518C60.4063 33.1265 61.1574 33.1265 61.651 32.5518C61.9975 32.1482 62.0107 32.0375 62.0107 29.5328C62.0107 26.7574 61.9169 26.2958 61.2954 26.0121C60.8307 25.8001 60.6347 25.8028 60.2443 26.0272ZM8.25965 26.7084C7.96396 27.0847 7.94123 27.3142 7.94123 29.9106C7.94123 32.4787 7.96596 32.734 8.24322 33.0322C8.65888 33.4792 9.11401 33.5955 9.6223 33.3845C10.3085 33.0999 10.3989 32.6796 10.3989 29.7786C10.3989 27.3157 10.3748 27.083 10.0805 26.7084C9.83504 26.3955 9.62675 26.3029 9.17008 26.3029C8.71341 26.3029 8.50512 26.3955 8.25965 26.7084ZM13.4711 35.8395C11.9081 36.9353 10.5774 37.8342 10.5141 37.8374C10.4509 37.8406 10.3989 37.5632 10.3989 37.2208C10.3989 36.4361 9.86991 35.8429 9.17008 35.8429C8.87085 35.8429 8.55596 35.9825 8.31833 36.2207C7.96826 36.5712 7.94123 36.7086 7.94123 38.1345V39.6708L4.17679 42.3032C2.10618 43.751 0.301452 45.1051 0.165971 45.312C-0.131411 45.7667 -0.0237332 46.3257 0.445381 46.7635C0.843836 47.1354 1.34045 47.1608 1.95825 46.8407L2.41139 46.6061V55.9262V65.2464L2.7885 65.624L3.16545 66.0017H16.5432H29.9209L30.2979 65.624C30.6612 65.2602 30.675 65.1699 30.675 63.162V61.0778H31.834C32.8597 61.0778 33.0364 61.0344 33.37 60.7001C33.8689 60.2005 33.8689 59.4933 33.37 58.9936C33.0364 58.6593 32.8597 58.6159 31.834 58.6159H30.675V52.6149C30.675 49.3144 30.7269 46.6161 30.7902 46.6189C30.8535 46.6215 31.0397 46.7253 31.2036 46.8497C32.2779 47.6636 33.7459 46.1232 32.8639 45.1075C32.6524 44.8641 20.1807 35.9268 17.6825 34.2285C17.3702 34.0163 16.9343 33.8437 16.7137 33.8451C16.451 33.8468 15.3331 34.5344 13.4711 35.8395ZM45.2779 39.3546C40.9325 42.3834 37.2427 45.042 37.0782 45.2626C36.7237 45.7386 36.81 46.2962 37.3109 46.7635C37.7094 47.1354 38.206 47.1608 38.8238 46.8407L39.277 46.6061V52.6109V58.6159H38.118C37.0922 58.6159 36.9156 58.6593 36.5819 58.9936C36.083 59.4933 36.083 60.2005 36.5819 60.7001C36.9156 61.0344 37.0922 61.0778 38.118 61.0778H39.277V63.162C39.277 65.1699 39.2908 65.2602 39.6541 65.624L40.031 66.0017H53.4088H66.7865L67.1635 65.624L67.5406 65.2464V55.9301C67.5406 50.8062 67.5923 46.6161 67.6558 46.6189C67.7192 46.6215 67.9052 46.7253 68.0691 46.8497C69.1431 47.6633 70.6122 46.1225 69.7295 45.1083C69.5817 44.9384 67.7671 43.5979 65.6973 42.1292L61.9339 39.4589L61.9774 37.7259C62.0192 36.0571 62.0067 35.9788 61.6387 35.6101C61.1762 35.1468 60.4997 35.1102 59.9931 35.521C59.7052 35.7545 59.6154 36.0083 59.5536 36.7608L59.4762 37.7069L56.9792 35.9336C54.1289 33.9094 54.0173 33.8417 53.5341 33.8452C53.3187 33.8468 50.0604 36.021 45.2779 39.3546ZM22.6143 40.7282L28.2002 44.6905L28.2088 54.1152L28.2173 63.5398H16.5432H4.8691V54.1833V44.8269L10.7445 40.7237C13.9761 38.4671 16.7119 36.6534 16.8241 36.6932C16.9364 36.7331 19.5419 38.5489 22.6143 40.7282ZM59.3409 40.6542L65.0061 44.6959L65.0457 54.1179L65.0852 63.5398H53.41H41.7347V54.1822V44.8247L47.6101 40.7245C50.8417 38.4694 53.5284 36.6215 53.5806 36.6183C53.6329 36.6149 56.225 38.4311 59.3409 40.6542ZM8.31833 44.8375L7.94123 45.2151V50.3068V55.3986L8.31833 55.7762C8.69528 56.154 8.69574 56.1539 12.0049 56.1539H15.3143V57.3849V58.6159H13.2337C11.2293 58.6159 11.1392 58.6297 10.776 58.9936C10.5383 59.2317 10.3989 59.5471 10.3989 59.8469C10.3989 60.1466 10.5383 60.462 10.776 60.7001L11.153 61.0778H16.5432H21.9334L22.3103 60.7001C22.5481 60.462 22.6875 60.1466 22.6875 59.8469C22.6875 59.5471 22.5481 59.2317 22.3103 58.9936C21.9472 58.6297 21.8571 58.6159 19.8526 58.6159H17.772V57.3849V56.1539H21.0815C24.3906 56.1539 24.3911 56.154 24.7681 55.7762L25.1452 55.3986V50.3068V45.2151L24.7681 44.8375L24.3911 44.4597H16.5432H8.69528L8.31833 44.8375ZM45.1839 44.8375L44.8068 45.2151V50.3068V55.3986L45.1839 55.7762C45.5608 56.154 45.5613 56.1539 48.8705 56.1539H52.1799V57.3849V58.6159H50.0993C48.0949 58.6159 48.0047 58.6297 47.6416 58.9936C47.4038 59.2317 47.2645 59.5471 47.2645 59.8469C47.2645 60.1466 47.4038 60.462 47.6416 60.7001L48.0186 61.0778H53.4088H58.799L59.1759 60.7001C59.4137 60.462 59.553 60.1466 59.553 59.8469C59.553 59.5471 59.4137 59.2317 59.1759 58.9936C58.8128 58.6297 58.7226 58.6159 56.7182 58.6159H54.6376V57.3849V56.1539H57.9471C61.2562 56.1539 61.2567 56.154 61.6336 55.7762L62.0107 55.3986V50.3068V45.2151L61.6336 44.8375L61.2567 44.4597H53.4088H45.5608L45.1839 44.8375ZM22.6875 50.3068V53.692H16.5432H10.3989V50.3068V46.9217H16.5432H22.6875V50.3068ZM59.553 50.3068V53.692H53.4088H47.2645V50.3068V46.9217H53.4088H59.553V50.3068Z" fill="white"/>
</svg>
