<svg width="58" height="70" viewBox="0 0 58 70" fill="none" xmlns="http://www.w3.org/2000/svg">
<path fill-rule="evenodd" clip-rule="evenodd" d="M4.56648 0.106442C3.71512 0.307881 2.47244 1.03955 1.86747 1.69577C1.55999 2.02936 1.11321 2.71406 0.874897 3.21704L0.441406 4.1318V35.0189V65.906L0.952966 66.9408C1.56903 68.1872 2.36205 68.9635 3.6354 69.5666L4.55032 70H28.8614H53.1725L54.0874 69.5666C55.3608 68.9635 56.1538 68.1872 56.7699 66.9408L57.2814 65.906V35.0189V4.1318L56.8479 3.21704C56.2447 1.94404 55.4683 1.15102 54.2218 0.535065L53.1867 0.0235937L29.1425 0.00223102C14.9327 -0.0105044 4.88068 0.0322209 4.56648 0.106442ZM52.8827 2.31268C53.635 2.53494 54.7696 3.66935 54.9919 4.42156C55.2342 5.24142 55.2342 64.7822 54.9919 65.602C54.7696 66.3542 53.635 67.4887 52.8827 67.7109C52.0643 67.9526 5.6585 67.9526 4.84014 67.7109C4.08779 67.4887 2.95319 66.3542 2.73089 65.602C2.48861 64.7822 2.48861 5.24142 2.73089 4.42156C2.93703 3.72399 4.08355 2.53699 4.75577 2.32515C5.47976 2.097 52.1116 2.08495 52.8827 2.31268ZM5.09201 5.76892L4.75577 6.10497V33.3685V60.6321L5.09201 60.9681L5.42812 61.3043H28.8614H52.2947L52.6308 60.9681L52.967 60.6321V33.3685V6.10497L52.6308 5.76892L52.2947 5.43273H28.8614H5.42812L5.09201 5.76892ZM50.7756 33.3685V59.1133H28.8614H6.94719V33.3685V7.62377H28.8614H50.7756V33.3685ZM23.0588 11.3554C22.8721 11.5248 21.6578 13.1733 20.3603 15.0185C19.0629 16.8638 17.9081 18.4816 17.7943 18.6135C17.6009 18.8377 17.5353 18.804 16.7972 18.1C16.1854 17.5165 15.9108 17.3465 15.5799 17.3465C15.0023 17.3465 14.4802 17.8763 14.4802 18.4626C14.4802 18.8415 14.6754 19.101 15.8156 20.2391C17.2959 21.7164 17.7105 21.9268 18.2897 21.4944C18.6928 21.1934 24.6937 12.7928 24.8025 12.3772C24.957 11.7867 24.3453 11.0473 23.7024 11.0473C23.535 11.0473 23.2453 11.186 23.0588 11.3554ZM11.6663 13.4376L11.33 13.7736V19.1267V24.4799L11.6663 24.8159L12.0024 25.1521H17.3564H22.7105L23.0466 24.8159C23.3739 24.4888 23.3829 24.4248 23.3829 22.4133C23.3829 20.4018 23.3739 20.3378 23.0466 20.0107C22.6019 19.5659 21.9724 19.5659 21.5277 20.0107C21.2176 20.3206 21.1914 20.4486 21.1914 21.654V22.9611H17.3564H13.5215V19.1267V15.2924H15.9245C18.2934 15.2924 18.3324 15.2876 18.6638 14.9562C18.8758 14.7444 19 14.4637 19 14.1969C19 13.9301 18.8758 13.6494 18.6638 13.4376L18.3277 13.1014H15.165H12.0024L11.6663 13.4376ZM27.0062 15.6286C26.7942 15.8405 26.67 16.1212 26.67 16.3879C26.67 16.6547 26.7942 16.9354 27.0062 17.1473L27.3423 17.4835H37.0792H46.8161L47.1522 17.1473C47.3643 16.9354 47.4885 16.6547 47.4885 16.3879C47.4885 16.1212 47.3643 15.8405 47.1522 15.6286L46.8161 15.2924H37.0792H27.3423L27.0062 15.6286ZM27.0062 20.0107C26.7942 20.2225 26.67 20.5033 26.67 20.77C26.67 21.0368 26.7942 21.3175 27.0062 21.5294L27.3423 21.8655H33.2443H39.1462L39.4823 21.5294C39.6943 21.3175 39.8185 21.0368 39.8185 20.77C39.8185 20.5033 39.6943 20.2225 39.4823 20.0107L39.1462 19.6745H33.2443H27.3423L27.0062 20.0107ZM42.3462 20.0107C41.6667 20.6899 42.1481 21.8655 43.1056 21.8655C43.6687 21.8655 44.2014 21.333 44.2014 20.77C44.2014 20.2071 43.6687 19.6745 43.1056 19.6745C42.8388 19.6745 42.5581 19.7987 42.3462 20.0107ZM23.0588 26.6927C22.8721 26.8622 21.6578 28.5106 20.3603 30.3558C19.0629 32.2011 17.9081 33.8189 17.7943 33.9508C17.6009 34.175 17.5353 34.1413 16.7972 33.4373C16.1854 32.8538 15.9108 32.6838 15.5799 32.6838C15.0023 32.6838 14.4802 33.2136 14.4802 33.7999C14.4802 34.1788 14.6754 34.4383 15.8156 35.5764C17.2926 37.0504 17.7109 37.2638 18.2849 36.8353C18.6851 36.5365 24.6946 28.127 24.8025 27.7148C24.957 27.124 24.3454 26.3846 23.7024 26.3846C23.535 26.3846 23.2453 26.5231 23.0588 26.6927ZM11.6663 28.7749L11.33 29.1109V34.464V39.8172L11.6663 40.1532L12.0024 40.4894H17.3564H22.7105L23.0466 40.1532C23.3739 39.8261 23.3829 39.7621 23.3829 37.7506C23.3829 35.7391 23.3739 35.6751 23.0466 35.348C22.8347 35.136 22.5539 35.0118 22.2871 35.0118C22.0203 35.0118 21.7396 35.136 21.5277 35.348C21.2176 35.6579 21.1914 35.7859 21.1914 36.9913V38.2984H17.3564H13.5215V34.464V30.6297H15.9245C18.2934 30.6297 18.3324 30.6249 18.6638 30.2935C18.8758 30.0817 19 29.8009 19 29.5342C19 29.2674 18.8758 28.9867 18.6638 28.7749L18.3277 28.4387H15.165H12.0024L11.6663 28.7749ZM27.0062 30.9659C26.7942 31.1777 26.67 31.4585 26.67 31.7252C26.67 31.992 26.7942 32.2727 27.0062 32.4846L27.3423 32.8208H37.0792H46.8161L47.1522 32.4846C47.3643 32.2727 47.4885 31.992 47.4885 31.7252C47.4885 31.4585 47.3643 31.1777 47.1522 30.9659L46.8161 30.6297H37.0792H27.3423L27.0062 30.9659ZM27.0062 35.348C26.7942 35.5598 26.67 35.8406 26.67 36.1073C26.67 36.3741 26.7942 36.6548 27.0062 36.8667L27.3423 37.2028H33.2443H39.1462L39.4823 36.8667C39.6943 36.6548 39.8185 36.3741 39.8185 36.1073C39.8185 35.8406 39.6943 35.5598 39.4823 35.348L39.1462 35.0118H33.2443H27.3423L27.0062 35.348ZM42.3462 35.348C42.1342 35.5598 42.0099 35.8406 42.0099 36.1073C42.0099 36.3741 42.1342 36.6548 42.3462 36.8667C42.5581 37.0786 42.8388 37.2028 43.1056 37.2028C43.3725 37.2028 43.6532 37.0786 43.8651 36.8667C44.0771 36.6548 44.2014 36.3741 44.2014 36.1073C44.2014 35.8406 44.0771 35.5598 43.8651 35.348C43.6532 35.136 43.3725 35.0118 43.1056 35.0118C42.8388 35.0118 42.5581 35.136 42.3462 35.348ZM23.0588 42.03C22.8721 42.1995 21.6578 43.8479 20.3603 45.6931C19.0629 47.5384 17.9081 49.1562 17.7943 49.2881C17.6009 49.5122 17.5353 49.4786 16.7972 48.7746C16.1854 48.1911 15.9108 48.0211 15.5799 48.0211C15.0023 48.0211 14.4802 48.5509 14.4802 49.1372C14.4802 49.5161 14.6754 49.7756 15.8156 50.9137C17.2926 52.3877 17.7109 52.6011 18.2849 52.1726C18.6851 51.8738 24.6946 43.4643 24.8025 43.0521C24.957 42.4613 24.3454 41.7219 23.7024 41.7219C23.535 41.7219 23.2453 41.8604 23.0588 42.03ZM11.6663 44.1121L11.33 44.4482V49.8013V55.1545L11.6663 55.4905L12.0024 55.8267H17.3564H22.7105L23.0466 55.4905C23.3739 55.1634 23.3829 55.0994 23.3829 53.0879C23.3829 51.0764 23.3739 51.0124 23.0466 50.6853C22.8347 50.4733 22.5539 50.3491 22.2871 50.3491C22.0203 50.3491 21.7396 50.4733 21.5277 50.6853C21.2176 50.9952 21.1914 51.1232 21.1914 52.3286V53.6357H17.3564H13.5215V49.8013V45.967H15.9245C18.2934 45.967 18.3324 45.9622 18.6638 45.6308C18.8758 45.419 19 45.1382 19 44.8715C19 44.6047 18.8758 44.324 18.6638 44.1121L18.3277 43.776H15.165H12.0024L11.6663 44.1121ZM27.0062 46.3032C26.7942 46.515 26.67 46.7958 26.67 47.0625C26.67 47.3293 26.7942 47.61 27.0062 47.8219L27.3423 48.158H37.0792H46.8161L47.1522 47.8219C47.3643 47.61 47.4885 47.3293 47.4885 47.0625C47.4885 46.7958 47.3643 46.515 47.1522 46.3032L46.8161 45.967H37.0792H27.3423L27.0062 46.3032ZM27.0062 50.6853C26.7942 50.8971 26.67 51.1779 26.67 51.4446C26.67 51.7114 26.7942 51.9921 27.0062 52.2039L27.3423 52.5401H33.2443H39.1462L39.4823 52.2039C39.6943 51.9921 39.8185 51.7114 39.8185 51.4446C39.8185 51.1779 39.6943 50.8971 39.4823 50.6853L39.1462 50.3491H33.2443H27.3423L27.0062 50.6853ZM42.3462 50.6853C42.1342 50.8971 42.0099 51.1779 42.0099 51.4446C42.0099 51.7114 42.1342 51.9921 42.3462 52.2039C42.5581 52.4159 42.8388 52.5401 43.1056 52.5401C43.3725 52.5401 43.6532 52.4159 43.8651 52.2039C44.0771 51.9921 44.2014 51.7114 44.2014 51.4446C44.2014 51.1779 44.0771 50.8971 43.8651 50.6853C43.6532 50.4733 43.3725 50.3491 43.1056 50.3491C42.8388 50.3491 42.5581 50.4733 42.3462 50.6853ZM24.8148 63.8315C24.6028 64.0434 24.4786 64.3241 24.4786 64.5909C24.4786 64.8576 24.6028 65.1384 24.8148 65.3502L25.1509 65.6864H28.8614H32.5719L32.908 65.3502C33.12 65.1384 33.2443 64.8576 33.2443 64.5909C33.2443 64.3241 33.12 64.0434 32.908 63.8315L32.5719 63.4953H28.8614H25.1509L24.8148 63.8315Z" fill="white"/>
</svg>
