<svg width="70" height="70" viewBox="0 0 70 70" fill="none" xmlns="http://www.w3.org/2000/svg">
<path fill-rule="evenodd" clip-rule="evenodd" d="M32.4668 0.0921798C24.502 1.07581 17.7307 5.53915 13.7664 12.4184C11.9584 15.5559 10.8988 19.145 10.6318 23.0371L10.5341 24.4602H8.97053C6.4459 24.4602 4.88471 25.0156 3.36744 26.4534C2.42752 27.3442 1.73352 28.5226 1.40018 29.7939C0.439991 33.4566 2.76952 37.2724 6.56578 38.2547C7.19999 38.4189 8.28725 38.4724 10.9823 38.4724H14.5573L14.9178 38.1141L15.2785 37.7559V31.4663V25.1767L14.9178 24.8185C14.6195 24.5219 14.413 24.4602 13.721 24.4602H12.8846L12.9838 23.0578C13.265 19.0831 14.5375 15.3746 16.7627 12.0442C17.9951 10.1997 20.902 7.31068 22.7549 6.0884C26.6125 3.5443 30.6131 2.34713 35.258 2.34713C39.9402 2.34713 43.871 3.52255 47.7547 6.08417C49.6092 7.30746 52.5191 10.1968 53.7468 12.0343C55.9624 15.3505 57.2529 19.1084 57.5323 23.0578L57.6315 24.4602H56.7951C56.103 24.4602 55.8966 24.5219 55.5983 24.8185L55.2376 25.1767V31.4663V37.7559L55.5983 38.1141C55.8943 38.4084 56.1044 38.4724 56.7735 38.4724H57.5881V40.4495C57.5881 42.3541 57.5749 42.4398 57.2275 42.7849L56.867 43.1432H52.3974H47.9279L47.7432 42.7004C47.4924 42.099 46.421 41.1891 45.7169 40.9795C44.9621 40.7548 41.9972 40.7586 41.2249 40.9853C40.4179 41.2222 39.2009 42.4313 38.9625 43.2331C38.5558 44.6008 38.8423 45.6914 39.8807 46.7273C40.8589 47.7034 41.4449 47.8618 43.8025 47.7875C45.3011 47.7402 45.7192 47.6759 46.2167 47.4158C46.8676 47.0754 47.6611 46.2638 47.8156 45.7801C47.9102 45.484 47.9934 45.4786 52.4024 45.4786C55.4986 45.4786 57.0807 45.4234 57.4976 45.3011C58.3046 45.0642 59.5216 43.855 59.76 43.0533C59.862 42.7104 59.9387 41.5983 59.9387 40.4625V38.4724H61.5238C64.0719 38.4724 65.6268 37.9214 67.1486 36.4792C70.0427 33.7366 70.0427 29.1961 67.1486 26.4534C65.6314 25.0156 64.0702 24.4602 61.5455 24.4602H59.982L59.8843 23.0371C59.4568 16.8073 57.0654 11.5406 52.6712 7.15158C49.0163 3.5008 44.5687 1.19623 39.4449 0.298276C37.8486 0.0184694 33.9867 -0.0955259 32.4668 0.0921798ZM30.9176 4.96786C30.5637 5.31933 30.557 5.37129 30.557 7.74564C30.557 9.80675 30.5229 10.1782 30.3271 10.253C30.1681 10.3134 29.5618 9.81536 28.3669 8.64271C26.8461 7.15041 26.5766 6.9449 26.1403 6.9449C25.6915 6.9449 25.3724 7.21463 22.8117 9.75873C20.251 12.303 19.9796 12.62 19.9796 13.0659C19.9796 13.4994 20.1864 13.7671 21.6884 15.2781C22.8687 16.4653 23.3699 17.0677 23.3091 17.2257C23.2339 17.4202 22.86 17.4541 20.7855 17.4541C18.3957 17.4541 18.3434 17.4608 17.9897 17.8124L17.629 18.1706V22.1248V26.0791L17.9897 26.4372C18.3434 26.7889 18.3957 26.7956 20.7855 26.7956C22.86 26.7956 23.2339 26.8294 23.3091 27.024C23.3699 27.1819 22.8687 27.7843 21.6884 28.9716C20.1864 30.4825 19.9796 30.7502 19.9796 31.1837C19.9796 31.6297 20.251 31.9467 22.8117 34.4909C25.3724 37.035 25.6915 37.3048 26.1403 37.3048C26.5766 37.3048 26.8461 37.0993 28.3669 35.6069C29.5618 34.4343 30.1681 33.9363 30.3271 33.9967C30.5229 34.0714 30.557 34.4429 30.557 36.504C30.557 38.8784 30.5637 38.9303 30.9176 39.2818L31.2781 39.6401H35.258H39.2379L39.5984 39.2818C39.9524 38.9303 39.9591 38.8784 39.9591 36.504C39.9591 34.4429 39.9932 34.0714 40.189 33.9967C40.348 33.9363 40.9543 34.4343 42.1492 35.6069C43.67 37.0993 43.9394 37.3048 44.3758 37.3048C44.8246 37.3048 45.1437 37.035 47.7044 34.4909C50.265 31.9467 50.5365 31.6297 50.5365 31.1837C50.5365 30.7502 50.3297 30.4825 48.8277 28.9716C47.6474 27.7843 47.1462 27.1819 47.207 27.024C47.2822 26.8294 47.6561 26.7956 49.7306 26.7956C52.1203 26.7956 52.1726 26.7889 52.5264 26.4372L52.8871 26.0791V22.1248V18.1706L52.5264 17.8124C52.1726 17.4608 52.1203 17.4541 49.7306 17.4541C47.6561 17.4541 47.2822 17.4202 47.207 17.2257C47.1462 17.0677 47.6474 16.4653 48.8277 15.2781C50.3297 13.7671 50.5365 13.4994 50.5365 13.0659C50.5365 12.62 50.265 12.303 47.7044 9.75873C45.1437 7.21463 44.8246 6.9449 44.3758 6.9449C43.9394 6.9449 43.67 7.15041 42.1492 8.64271C40.9543 9.81536 40.348 10.3134 40.189 10.253C39.9932 10.1782 39.9591 9.80675 39.9591 7.74564C39.9591 5.37129 39.9524 5.31933 39.5984 4.96786L39.2379 4.60952H35.258H31.2781L30.9176 4.96786ZM37.6086 9.12614C37.6086 11.6948 37.6485 11.7765 39.2246 12.4244C41.0095 13.1585 40.9172 13.1863 42.7977 11.343L44.45 9.72341L46.0939 11.3628L47.7379 13.0023L46.1087 14.6376C44.2541 16.4992 44.2819 16.4086 45.0214 18.1839C45.6736 19.7498 45.7558 19.7895 48.3411 19.7895H50.5365V22.1248V24.4602H48.3411C45.7558 24.4602 45.6736 24.4999 45.0214 26.0658C44.2819 27.8411 44.2541 27.7505 46.1087 29.612L47.7379 31.2474L46.0939 32.8868L44.45 34.5262L42.7977 32.9067C40.9172 31.0633 41.0095 31.0912 39.2246 31.8252C37.6485 32.4732 37.6086 32.5549 37.6086 35.1235V37.3048H35.258H32.9075V35.1235C32.9075 32.5549 32.8675 32.4732 31.2915 31.8252C29.5047 31.0905 29.5959 31.0629 27.7222 32.9055L26.0763 34.5242L24.4262 32.8908L22.7761 31.2575L24.4062 29.6158C26.2615 27.7475 26.2334 27.8392 25.4946 26.0658C24.8425 24.4999 24.7603 24.4602 22.175 24.4602H19.9796V22.1248V19.7895H22.175C24.7603 19.7895 24.8425 19.7498 25.4946 18.1839C26.2334 16.4105 26.2615 16.5021 24.4062 14.6338L22.7761 12.9922L24.4262 11.3589L26.0763 9.72545L27.7222 11.3442C29.5959 13.1868 29.5047 13.1592 31.2915 12.4244C32.8675 11.7765 32.9075 11.6948 32.9075 9.12614V6.9449H35.258H37.6086V9.12614ZM33.5116 15.3495C29.7867 16.3448 27.4822 20.1767 28.4313 23.7972C29.3409 27.2666 32.7045 29.5335 36.2 29.0332C39.3255 28.5859 41.7596 26.1761 42.2077 23.0857C42.9118 18.2297 38.2509 14.0831 33.5116 15.3495ZM37.2413 17.9036C40.7269 19.5469 40.8542 24.3456 37.4617 26.1998C36.576 26.6838 36.4163 26.7214 35.258 26.7194C34.1189 26.7173 33.9278 26.6734 33.0801 26.2193C29.4264 24.2618 29.855 19.1091 33.7897 17.6886C34.7168 17.354 36.2823 17.4515 37.2413 17.9036ZM8.22688 31.483V36.1702L7.52906 36.0677C6.60897 35.9327 5.22642 35.1915 4.69108 34.5462C3.86898 33.5553 3.61424 32.8267 3.61424 31.4663C3.61424 30.451 3.67888 30.0931 3.9705 29.4959C4.70695 27.9873 6.32353 26.8815 7.89633 26.8105L8.22688 26.7956V31.483ZM12.9279 31.4663V36.1371H11.7527H10.5774V31.4663V26.7956H11.7527H12.9279V31.4663ZM59.9387 31.4663V36.1371H58.7634H57.5881V31.4663V26.7956H58.7634H59.9387V31.4663ZM64.2707 27.2479C65.2305 27.6962 65.8738 28.314 66.4103 29.3025C66.8682 30.1463 66.9114 30.3324 66.9114 31.4663C66.9114 32.5994 66.868 32.7868 66.4122 33.6267C66.1376 34.1326 65.7161 34.711 65.4758 34.912C64.8197 35.4604 63.7608 35.951 62.9825 36.0669L62.2892 36.1702V31.4663V26.7624L62.9807 26.8655C63.3612 26.9221 63.9416 27.0942 64.2707 27.2479ZM45.4748 43.5015C45.7022 43.7273 45.8354 44.0266 45.8354 44.3109C45.8354 44.5952 45.7022 44.8944 45.4748 45.1202C45.1353 45.4576 45.0189 45.4786 43.4849 45.4786C41.9509 45.4786 41.8345 45.4576 41.495 45.1202C41.2676 44.8944 41.1344 44.5952 41.1344 44.3109C41.1344 44.0266 41.2676 43.7273 41.495 43.5015C41.8345 43.1642 41.9509 43.1432 43.4849 43.1432C45.0189 43.1432 45.1353 43.1642 45.4748 43.5015ZM9.7628 47.0046C9.46664 47.2987 9.40214 47.5074 9.40214 48.1723V48.9816H5.06173H0.721174L0.36066 49.34L0 49.6982V58.3231V66.9481L0.36066 67.3063L0.721174 67.6646H5.06173H9.40214V68.474C9.40214 69.1388 9.46664 69.3476 9.7628 69.6417L10.1233 70H15.2785H20.4336L20.7942 69.6417C21.109 69.329 21.1548 69.1524 21.1548 68.2533V67.2231L22.1999 67.7461C24.3897 68.8417 24.281 68.8326 35.1714 68.8301C45.7132 68.8278 45.8878 68.8163 47.491 68.0103C47.9136 67.7977 51.4657 65.7844 55.3845 63.536C59.3033 61.2876 63.7656 58.7283 65.3008 57.8486C69.4248 55.4856 70.0034 54.8074 70 52.3387C69.9979 50.8429 69.8075 50.2851 68.9561 49.2795C67.7931 47.9063 65.394 47.3067 63.8006 47.991C63.5752 48.0878 60.7619 49.6716 57.5485 51.5107L51.7059 54.8547L50.9974 54.1961C50.6078 53.834 50.0967 53.4394 49.8618 53.3193C49.6269 53.1993 45.3029 51.9995 40.2529 50.6533C28.7876 47.5968 29.7015 47.6964 24.6439 48.9519L21.1548 49.818V48.5905C21.1548 47.4816 21.1199 47.328 20.7942 47.0046L20.4336 46.6463H15.2785H10.1233L9.7628 47.0046ZM18.8043 58.3231V67.6646H15.2785H11.7527V58.3231V48.9816H15.2785H18.8043V58.3231ZM66.6226 50.4237C66.8647 50.5624 67.2175 50.9023 67.4068 51.1789C67.6906 51.5937 67.7408 51.8242 67.6937 52.4942C67.6572 53.0113 67.5247 53.4623 67.329 53.7348C67.1151 54.033 63.9284 55.938 56.8458 60.0017C51.249 63.2128 46.3665 65.9715 45.9956 66.132C45.3476 66.4126 44.943 66.4257 35.6253 66.4704C28.5199 66.5044 25.7134 66.4704 25.1214 66.3429C24.677 66.2473 23.6028 65.8154 22.7341 65.3831L21.1548 64.597V58.413V52.2291L24.752 51.3353C27.3688 50.6848 28.6175 50.4412 29.334 50.4412C30.1415 50.4412 31.9081 50.8629 39.1422 52.782C43.9951 54.0695 48.2477 55.2248 48.5925 55.3493C49.4598 55.6628 49.9847 56.3808 50.0541 57.3484C50.1515 58.7111 49.1669 59.784 47.8211 59.7817C47.4965 59.7813 44.0316 58.9274 40.121 57.8842C36.2104 56.8412 32.8974 55.9878 32.7587 55.9878C32.6199 55.9878 32.3322 56.1239 32.1193 56.2903C31.631 56.6719 31.5774 57.5548 32.0184 57.9514C32.3404 58.2408 32.4057 58.2596 40.9081 60.5165C46.6292 62.0349 47.1469 62.1477 48.1067 62.0851C50.4224 61.9342 52.1787 60.2297 52.4328 57.8861L52.5198 57.0842L54.65 55.8634C62.7029 51.2484 64.6089 50.1741 64.8647 50.1057C65.2986 49.9898 66.1266 50.1395 66.6226 50.4237ZM9.40214 58.3231V65.3292H5.87634H2.35054V58.3231V51.317H5.87634H9.40214V58.3231ZM14.4639 63.3522C14.1488 63.6651 14.1032 63.8412 14.1032 64.7454C14.1032 65.6496 14.1488 65.8257 14.4639 66.1386C14.6911 66.3646 14.9923 66.4969 15.2785 66.4969C15.5647 66.4969 15.8658 66.3646 16.0931 66.1386C16.4082 65.8257 16.4538 65.6496 16.4538 64.7454C16.4538 63.8412 16.4082 63.6651 16.0931 63.3522C15.8658 63.1263 15.5647 62.9939 15.2785 62.9939C14.9923 62.9939 14.6911 63.1263 14.4639 63.3522Z" fill="white"/>
</svg>
