<svg width="68" height="70" viewBox="0 0 68 70" fill="none" xmlns="http://www.w3.org/2000/svg">
<path fill-rule="evenodd" clip-rule="evenodd" d="M17.685 0.249925C17.0486 0.644885 16.9601 1.1648 16.9593 4.51587L16.9584 7.47157L15.7073 8.26423C11.575 10.8823 7.85533 14.8931 5.48561 19.2862L4.79082 20.5743L3.04298 21.5932C2.08171 22.1537 1.1567 22.7599 0.987479 22.9405L0.679688 23.2689V33.9656C0.679688 44.2914 0.688716 44.6735 0.940968 44.9849C1.18488 45.2858 1.31305 45.3107 2.85789 45.3562L4.51354 45.405L5.29273 46.9287C9.31672 54.7975 16.8744 60.5722 25.5082 62.3748C27.838 62.8612 30.0396 63.0529 32.5589 62.9889L34.7419 62.9334V66.1233V69.3132L35.0778 69.6486L35.4135 69.9843H50.816C67.4866 69.9843 66.547 70.133 67.231 69.5178C67.3762 67.2354 67.2994 63.5025 67.2994 62.0855C66.9652 62.0855 65.7947 62.0855 65.3687 62.0855C65.3687 62.4088 65.3687 62.6139 65.3687 65.143V67.9336H60.0414H54.7142V59.3891V50.8447H60.0431H65.372L65.3687 54.6162C65.3687 58.6753 65.3687 61.3151 65.3687 62.0855C66.2075 62.0855 66.8829 62.0855 67.2994 62.0855C67.2994 58.439 67.2994 58.1914 67.2994 54.0694V49.763L67.0376 49.3088C66.6407 48.8643 66.6321 48.8621 65.0882 48.794L63.5375 48.7256L63.4691 47.6114C63.3671 45.9483 62.863 45.5129 61.04 45.5129C59.9922 45.5129 59.9618 45.5035 59.8275 45.137C59.7008 44.7913 59.7533 44.6922 60.4785 43.9086C61.5734 42.7254 61.6971 41.9274 60.9272 41.0131L60.574 40.5935L60.7841 39.6696C61.366 37.111 61.5997 32.5602 61.2768 30.0742L61.145 29.0585L62.0826 28.0919C63.5357 26.5938 64.4483 25.076 65.1137 23.0507C65.5114 21.84 65.2188 21.1783 64.2854 21.1783C63.6575 21.1783 63.5493 21.3049 63.1333 22.5272C61.9968 25.8668 59.5257 28.2914 56.2189 29.3115C55.7805 29.4467 54.7748 29.5741 53.809 29.6168C51.7399 29.7081 50.5349 29.4669 48.8577 28.6259C43.3887 25.8836 41.4889 19.3873 44.6111 14.1054C45.2647 12.9995 46.9435 11.3464 48.1099 10.6597C49.9716 9.56367 52.2517 9.06577 54.3961 9.28683C55.7191 9.42327 57.5536 10.023 58.6267 10.6699C60.8402 12.0042 62.6063 14.3773 63.2725 16.912C63.5747 18.0617 63.7779 18.3073 64.4267 18.3073C65.5138 18.3073 65.6813 17.4888 64.9988 15.5103C63.9335 12.4218 61.6999 9.90326 58.6908 8.39752C55.6953 6.89875 51.9108 6.79581 48.5484 8.12177L47.9228 8.3684L46.8384 7.70904C43.4973 5.67764 39.149 4.23083 35.0497 3.78665L33.5108 3.61986V2.48311C33.5108 1.12255 33.2886 0.502431 32.6904 0.193327C32.3302 0.00712555 31.8762 -0.0226776 29.9464 0.0132776L27.634 0.0563417L27.2551 0.435169C26.8946 0.795404 26.8729 0.891512 26.8078 2.4034L26.7394 3.99281L25.5766 4.23124C24.9371 4.36234 24.2445 4.51382 24.0376 4.56768L23.6614 4.66584V2.80752V0.949341L23.2625 0.502841L22.8638 0.0563417L20.4924 0.0177891C18.3282 -0.0173458 18.0832 0.00288749 17.685 0.249925ZM21.6095 3.74755V5.45645H20.3099H19.0104V3.74755V2.03866H20.3099H21.6095V3.74755ZM31.4588 3.74755V5.45645H30.1593H28.8597V3.74755V2.03866H30.1593H31.4588V3.74755ZM37.2393 6.20576C39.9328 6.76669 42.8471 7.83181 45.0378 9.0562L45.9211 9.54986L44.6747 10.8206C43.2089 12.3153 42.3217 13.7295 41.7252 15.522C40.6879 18.6394 40.8723 21.7959 42.2615 24.6998C43.2765 26.822 44.6082 28.3708 46.5126 29.6437C48.8021 31.1743 50.9679 31.7748 53.8156 31.6687C55.917 31.5904 56.8537 31.361 59.0475 30.3878C59.3226 30.2658 59.407 31.4612 59.3176 34.2196C59.2335 36.8209 58.9833 38.7708 58.7405 38.7178C58.6703 38.7025 58.4245 38.6165 58.1944 38.5268C57.5084 38.2594 56.8643 38.471 56.0215 39.2409C55.2839 39.9146 55.2552 39.9269 54.785 39.7719L54.3038 39.6131V38.66C54.3038 37.6076 54.106 37.087 53.5357 36.6387C53.2048 36.3785 52.9953 36.3534 51.1732 36.3553C49.0129 36.3575 48.7121 36.4316 48.2302 37.0803C48.0106 37.3757 47.9325 37.7164 47.8949 38.5439L47.8459 39.6224L47.3741 39.7781C46.9153 39.9295 46.8825 39.915 46.1756 39.2469C44.812 37.9581 44.0989 38.0999 42.2219 40.033C40.3887 41.9211 40.3336 42.3519 41.7385 43.814C42.5109 44.6179 42.5348 44.6646 42.3897 45.0808L42.2389 45.5129H41.1512C39.3013 45.5129 38.7104 46.0671 38.7096 47.8028L38.709 48.794H37.2065C35.7396 48.794 35.6932 48.8036 35.2571 49.1928L34.8103 49.5916L34.7718 55.1902L34.7332 60.7886L34.103 60.8749C32.9528 61.0325 29.8664 60.9645 28.1541 60.7437C20.3463 59.7373 13.1725 55.3099 8.79129 48.794C8.10006 47.7659 6.83551 45.4984 6.83551 45.3543C6.83551 45.3121 7.78338 45.3799 8.94177 45.3543C10.8026 45.3543 11.0078 45.3882 14.7463 45.3482C14.7463 44.989 14.7463 43.8668 14.7463 43.3375C14.2675 43.3375 10.8651 43.3255 6.95015 43.3255H2.72971L2.76487 33.7235L2.80003 24.1215L7.8474 21.146C10.6234 19.5096 12.9472 18.1706 13.0115 18.1706C13.0756 18.1706 13.1281 18.9387 13.1281 19.8773C13.1281 21.5699 13.1314 21.5879 13.5273 22.0305C14.2562 22.8457 14.5343 22.7588 19.2506 20.2423C21.527 19.0277 23.42 18.0339 23.4571 18.0339C23.4943 18.0339 23.5246 18.8327 23.5246 19.809C23.5246 21.5771 23.5263 21.5858 23.9238 22.0305C24.6595 22.8534 24.9313 22.7688 29.655 20.2474C31.9358 19.03 33.8288 18.0339 33.8615 18.0339C33.8943 18.0339 33.9212 23.7245 33.9212 30.6797V43.3255H24.4588C15.8459 43.3255 15.1801 43.3375 14.7463 43.3375C14.7463 43.6701 14.7463 44.8631 14.7463 45.3482C15.1801 45.3882 15.3063 45.3543 24.8044 45.3482C30.1572 45.3703 34.737 45.3521 34.9819 45.3077C35.2267 45.2633 35.5499 45.0951 35.7001 44.9339C35.9693 44.6452 35.9731 44.4429 35.9731 30.5719V16.5027L35.508 16.0379C35.0144 15.5447 34.3314 15.4172 33.7753 15.7146C33.516 15.8534 33.5108 15.7562 33.5108 10.7753V5.6946L34.606 5.79002C35.2083 5.84252 36.3932 6.02968 37.2393 6.20576ZM26.7749 12.8003L26.7394 19.4608L26.1922 19.768L25.645 20.0753L25.5766 18.2228L25.5082 16.3703L25.0614 15.9717C24.7491 15.6931 24.4713 15.5731 24.138 15.5731H23.6614V11.2022V6.83122L24.3796 6.62492C25.3756 6.33892 26.1365 6.16994 26.5013 6.15367L26.8104 6.14L26.7749 12.8003ZM21.6095 12.0745V16.642L20.4481 17.2695C19.8093 17.6147 19.2245 17.8972 19.1485 17.8972C19.058 17.8972 19.0104 16.107 19.0104 12.7022V7.50712H20.3099H21.6095V12.0745ZM31.4264 12.2535L31.3904 16.9998L30.1251 17.6634L28.8597 18.3269V12.9171V7.50712H30.161H31.4624L31.4264 12.2535ZM16.9584 14.5355V19.103L16.1035 19.5725L15.2485 20.0419L15.1795 18.3202C15.1047 16.4534 14.9928 16.1056 14.362 15.7795C13.5987 15.3851 13.5764 15.3933 10.574 17.164C9.50783 17.7929 8.59759 18.3073 8.55121 18.3073C8.26271 18.3073 10.5071 15.447 12.0186 13.8887C13.2132 12.657 16.5649 9.96793 16.9054 9.96793C16.9345 9.96793 16.9584 12.0234 16.9584 14.5355ZM52.6622 11.0616C52.4003 11.3234 52.3886 11.5173 52.3886 15.6315V19.928L52.7491 20.2113C53.0914 20.4805 53.2777 20.4947 56.4487 20.4947H59.7881L60.1238 20.1591C60.3085 19.9745 60.4596 19.6642 60.4596 19.4694C60.4596 19.2746 60.3085 18.9642 60.1238 18.7797C59.7903 18.4462 59.7707 18.444 57.1143 18.444H54.4406V15.1833C54.4406 11.8185 54.3569 11.1728 53.8881 10.922C53.4857 10.7069 52.957 10.767 52.6622 11.0616ZM6.10448 26.6649C5.51488 27.0074 5.46755 27.4587 5.46755 32.7328C5.46755 38.0571 5.49847 38.328 6.14401 38.6732C6.29777 38.7555 7.47996 38.814 8.98964 38.814H11.5722L11.9398 38.4306L12.3074 38.0472V32.6782V27.3092L11.9075 26.9096L11.5077 26.51L8.93219 26.5141C7.35616 26.5167 6.25892 26.5752 6.10448 26.6649ZM15.3063 26.9096L14.9065 27.3092V32.662V38.0148L15.3063 38.4144L15.7062 38.814H18.3082C20.8614 38.814 20.9174 38.8079 21.294 38.4842L21.6779 38.1544L21.7169 32.9189C21.7449 29.1458 21.711 27.5753 21.5954 27.2964C21.2883 26.5554 21.0973 26.51 18.2855 26.51H15.7062L15.3063 26.9096ZM24.8456 26.6649C24.2571 27.0067 24.2086 27.4632 24.2086 32.662C24.2086 37.9037 24.2565 38.3371 24.8721 38.6664C25.042 38.7572 26.1444 38.814 27.7377 38.814H30.3271L30.6878 38.4537L31.0484 38.0932V32.6556V27.2179L30.6275 26.864C30.2071 26.5104 30.2034 26.51 27.6522 26.5141C26.0912 26.5167 24.9997 26.5754 24.8456 26.6649ZM10.2554 32.662V36.7634H8.88746H7.5195V32.662V28.5607H8.88746H10.2554V32.662ZM19.6944 32.662V36.7634H18.3264H16.9584V32.662V28.5607H18.3264H19.6944V32.662ZM28.9965 32.662V36.7634H27.6285H26.2606V32.662V28.5607H27.6285H28.9965V32.662ZM52.2518 39.3407C52.2518 40.6401 52.5451 41.0506 53.8939 41.6395C54.458 41.8857 55.141 42.0888 55.4118 42.0912C55.9263 42.0953 56.6546 41.6559 57.306 40.9484L57.6408 40.5847L58.4278 41.3632L59.2149 42.1416L58.4702 42.9455C57.4271 44.0714 57.3668 44.4982 58.0194 46.1359C58.475 47.2791 58.938 47.5636 60.3431 47.5636H61.4172V48.1817V48.7996L58.6471 48.7627L55.8769 48.7256L55.7884 47.8313C55.6256 46.1872 54.6181 44.7316 53.141 44.0064C52.554 43.718 52.2632 43.6703 51.0891 43.6689C49.8556 43.6677 49.6501 43.7049 48.9983 44.048C47.4835 44.8453 46.5357 46.2594 46.4023 47.9205L46.3321 48.794H43.5465H40.761V48.1788V47.5636H41.8351C43.2605 47.5636 43.6941 47.2874 44.2047 46.0546C44.5985 45.1033 44.6824 44.3062 44.4387 43.8292C44.3549 43.665 43.9855 43.2211 43.618 42.8428L42.9497 42.1549L43.7658 41.3479L44.582 40.5407L45.3973 41.3179C46.4087 42.2821 46.795 42.3219 48.3359 41.6202C49.6602 41.017 49.9251 40.635 49.9258 39.3267L49.9263 38.4039H51.0891H52.2518V39.3407ZM52.5473 46.0443C53.2814 46.5095 53.7566 47.3652 53.7566 48.222V48.794H51.0891H48.4215V48.256C48.4215 47.5345 48.6244 47.0407 49.1481 46.4879C49.7275 45.8764 50.2479 45.6614 51.1649 45.655C51.7732 45.6507 52.0488 45.7282 52.5473 46.0443ZM41.1714 53.6609V56.4772L41.6365 56.942L42.1016 57.4068H44.7281H47.3545L47.8196 56.942L48.2848 56.4772V53.6609V50.8447H50.4735H52.6622V59.3891V67.9336H44.7281H36.7939V59.3891V50.8447H38.9826H41.1714V53.6609ZM46.2328 53.1004V55.3561H44.7281H43.2233V53.1004V50.8447H44.7281H46.2328V53.1004Z" fill="white"/>
</svg>
