<svg width="70" height="70" viewBox="0 0 70 70" fill="none" xmlns="http://www.w3.org/2000/svg">
<path fill-rule="evenodd" clip-rule="evenodd" d="M22.0272 0.0947371C20.4734 0.420754 20.2086 0.641154 14.4068 6.43572C9.63422 11.2023 8.86369 12.0289 8.54957 12.7188C8.0311 13.8576 7.8523 15.0544 8.04531 16.0932C8.34426 17.7021 8.74039 18.3111 10.9152 20.5052L12.9192 22.5271H9.02389C4.93051 22.5271 4.19948 22.6093 3.04361 23.1995C1.73491 23.8677 0.606109 25.3056 0.204233 26.8161C-0.0650505 27.8285 -0.0694246 42.11 0.199312 43.1169C0.459575 44.0918 0.854752 44.8056 1.58373 45.617L2.21894 46.3242L1.76553 46.7249C1.13005 47.2866 0.472287 48.4386 0.218313 49.4345C0.0321377 50.1648 0.00821659 51.3291 0.0423897 57.9925L0.0818937 65.7051L0.591209 66.7363C1.21384 67.997 2.12339 68.8903 3.40037 69.4959L4.31935 69.9316L12.0181 69.9711C18.6692 70.0053 19.8319 69.9814 20.5614 69.7951C21.5565 69.5409 22.7075 68.8825 23.2687 68.2465L23.6691 67.7927L24.3766 68.4294C25.2208 69.1891 26.0665 69.637 27.0511 69.8462C27.5357 69.9491 30.1854 70 35.0531 70C41.0709 70 42.4666 69.9646 43.1154 69.7955C44.1803 69.5179 44.8013 69.1813 45.6379 68.4285L46.3444 67.7927L46.7448 68.2465C47.3061 68.8825 48.457 69.5409 49.4521 69.7951C50.1817 69.9814 51.3444 70.0053 57.9954 69.9711L65.6942 69.9316L66.6132 69.4959C67.8902 68.8903 68.7997 67.997 69.4223 66.7363L69.9317 65.7051L69.9712 57.9925C70.0053 51.3291 69.9814 50.1648 69.7952 49.4345C69.5413 48.4386 68.8835 47.2866 68.248 46.7249L67.7946 46.3242L68.4298 45.617C69.182 44.7797 69.5183 44.1582 69.7956 43.0923C69.9646 42.443 70 41.0461 70 35.0232C70 30.1512 69.9492 27.4993 69.8464 27.0143C69.6374 26.0289 69.1898 25.1824 68.4308 24.3375L67.7946 23.6294L68.248 23.2287C68.8835 22.6669 69.5413 21.515 69.7952 20.519C69.9814 19.7889 70.0053 18.6252 69.9712 11.9684L69.9317 4.26305L69.4963 3.34328C68.8913 2.06493 67.9987 1.15487 66.7388 0.531707L65.7084 0.0219544H57.6365H49.5645L48.7782 0.339763C47.7403 0.759221 46.7355 1.5705 46.1372 2.47249C45.1858 3.90666 45.2033 3.74057 45.1534 11.7784C45.1257 16.2435 45.1616 19.3627 45.2473 19.9132C45.427 21.0676 46.0421 22.3032 46.8138 23.0593L47.4268 23.6599L46.8637 24.227L46.3007 24.794L45.734 24.2268C44.9928 23.4852 44.1514 23.0016 43.1454 22.7394C42.4901 22.5687 41.4626 22.5271 37.8923 22.5271H33.4541L35.4372 20.5092C37.6058 18.3024 38.0372 17.64 38.308 16.1014C38.4246 15.4392 38.4223 15.0096 38.2983 14.3362C37.9563 12.479 37.8733 12.3742 32.2867 6.7497C29.4599 3.90365 26.8564 1.35995 26.5011 1.09714C25.3113 0.216908 23.4415 -0.20214 22.0272 0.0947371ZM24.2764 2.4298C24.7376 2.55539 25.6529 3.40594 30.1275 7.86716C33.045 10.7759 35.559 13.3596 35.7142 13.6088C35.8902 13.8913 36.0231 14.3935 36.0671 14.9424C36.2 16.5993 36.273 16.5033 30.4437 22.3423C27.578 25.2128 25.018 27.6744 24.7549 27.8127C24.4077 27.9951 23.9765 28.0646 23.1829 28.066C22.239 28.0676 22.0051 28.0177 21.4742 27.7013C21.1359 27.4996 18.6018 25.0678 15.8427 22.2973C12.1144 18.5535 10.755 17.1018 10.5488 16.6443C10.1789 15.8232 10.1788 14.5927 10.5487 13.7713C10.9461 12.8888 20.8658 2.96049 21.7476 2.56278C22.4327 2.25373 23.4366 2.20106 24.2764 2.4298ZM65.8022 2.56839C66.5909 2.96459 66.9627 3.33001 67.348 4.08752L67.6762 4.73285L67.6732 12.3645C67.6699 20.8593 67.7 20.5669 66.7255 21.5422C65.7642 22.5045 66.2262 22.4543 57.9027 22.4992C52.2334 22.5297 50.2333 22.498 49.7695 22.3699C48.9696 22.1492 47.8463 21.0474 47.612 20.2539C47.3677 19.4263 47.3869 5.14561 47.6332 4.45595C47.9135 3.67094 48.5077 3.00358 49.2608 2.62804L49.96 2.27931H57.5933C65.0899 2.27931 65.237 2.28451 65.8022 2.56839ZM53.0502 7.8885V8.98298H56.4729H59.8958L59.8561 10.1117L59.8164 11.2403L56.6944 11.3087C52.7147 11.3959 53.0502 11.0978 53.0502 14.548C53.0502 17.0958 53.1115 17.4731 53.585 17.837C53.7443 17.9593 54.9021 18.0049 57.9369 18.008L62.0718 18.0124V16.9179V15.8235H58.7229H55.3739V14.6606V13.4977H58.3873H61.4008L61.7363 13.1618C62.0695 12.8284 62.0718 12.8076 62.0718 10.1705C62.0718 7.69108 62.0531 7.49107 61.7885 7.15452L61.5053 6.79402H57.2776H53.0502V7.8885ZM20.3124 10.2078C20.162 10.2701 19.5931 10.7828 19.0479 11.3475L18.0569 12.3741V14.1671V15.9603H19.1505H20.244V14.6911C20.244 13.7382 20.2996 13.3423 20.4672 13.1027L20.6904 12.7838L23.9214 16.0154L27.1523 19.247L27.9671 18.4228L28.7819 17.5987L25.2307 14.0343C23.2773 12.0738 21.5132 10.3814 21.3102 10.2736C20.8984 10.0547 20.7122 10.0424 20.3124 10.2078ZM17.575 27.1711C20.0178 29.6017 20.7555 30.118 22.0303 30.2891L22.5678 30.3612V36.3129C22.5678 40.515 22.5201 42.4239 22.4052 42.8072C22.1837 43.5475 21.1933 44.6186 20.4794 44.89C19.9701 45.0837 19.0023 45.1049 12.2367 45.0709L4.571 45.0323L3.90203 44.6183C3.48758 44.3618 3.07559 43.9494 2.81929 43.5346L2.40566 42.8651L2.36424 35.2612C2.33704 30.2573 2.37163 27.4896 2.46567 27.1665C2.70064 26.3587 3.34159 25.606 4.12867 25.2134L4.8515 24.8529H10.0481H15.2449L17.575 27.1711ZM43.143 25.1088C43.8449 25.428 44.5473 26.1311 44.8663 26.8336C45.0985 27.3453 45.116 27.9152 45.116 34.9768C45.116 43.4451 45.1483 43.138 44.1546 44.1325C43.161 45.1269 43.4679 45.0947 35.0068 45.0947C26.5457 45.0947 26.8525 45.1269 25.8589 44.1325C24.8828 43.1555 24.8978 43.277 24.8946 36.3951L24.8915 30.2206L25.6775 29.8401C26.2768 29.5502 27.0156 28.9131 28.7873 27.1585L31.111 24.8573L36.8521 24.8581C42.1194 24.8588 42.6386 24.8796 43.143 25.1088ZM66.1115 25.3353C66.5261 25.5919 66.9378 26.0041 67.1943 26.4191L67.6079 27.0888V34.9768V42.8648L67.1943 43.5345C66.9378 43.9494 66.5261 44.3616 66.1115 44.6183L65.4425 45.0323L57.7768 45.0709C51.0113 45.1049 50.0435 45.0837 49.5342 44.89C48.8202 44.6186 47.8299 43.5475 47.6083 42.8072C47.3795 42.0431 47.378 27.9158 47.6065 27.1522C47.8165 26.4508 48.726 25.4269 49.4225 25.1082C49.9415 24.8705 50.4376 24.8574 57.7085 24.8883L65.4425 24.9213L66.1115 25.3353ZM31.0611 31.9549C30.7503 33.5284 30.4959 34.9472 30.4959 35.1077C30.4959 35.2683 30.647 35.5507 30.8315 35.7354C31.1628 36.0672 31.197 36.0713 33.6337 36.0713H36.1003V38.3286V40.586H37.2622H38.4241V38.3286V36.0713H39.5176H40.6112V34.9768V33.8823H39.5176H38.4241V31.6249V29.3676H37.2622H36.1003V31.6249V33.8823H34.5967C33.2753 33.8823 33.0931 33.8543 33.0931 33.6508C33.0931 33.5234 33.2596 32.5715 33.463 31.5356C33.6664 30.4995 33.8035 29.6225 33.7674 29.5865C33.7208 29.5398 31.8017 29.0952 31.6421 29.0941C31.6335 29.094 31.372 30.3813 31.0611 31.9549ZM9.03524 30.4621V31.5565H11.3658C14.2319 31.5565 14.6396 31.7014 14.6396 32.7194C14.6396 33.6377 14.1497 33.8809 12.2885 33.8867C10.8143 33.8912 10.5841 33.9666 10.2761 34.5449C10.0638 34.9437 10.177 35.4308 10.5663 35.7938C10.8255 36.0355 11.0463 36.0713 12.28 36.0713C14.1499 36.0713 14.6396 36.3126 14.6396 37.2341C14.6396 38.2521 14.2319 38.397 11.3658 38.397H9.03524V39.4915V40.586L11.6666 40.583C14.5519 40.5797 15.0568 40.4694 15.9166 39.6544C16.9527 38.6723 17.2057 37.0057 16.52 35.6797L16.1447 34.9545L16.4774 34.3843C17.4473 32.7216 16.8084 30.632 15.0584 29.7438C14.3258 29.372 14.2865 29.3676 11.6763 29.3676H9.03524V30.4621ZM53.4412 29.6292C53.121 29.8886 53.1185 29.9125 53.1185 32.7025C53.1185 35.2178 53.1442 35.54 53.3622 35.7585C53.5776 35.9743 53.9686 36.0108 56.7112 36.0713L59.8164 36.1397L59.8561 37.2683L59.8958 38.397H56.4729H53.0502V39.4915V40.586H57.2254H61.4008L61.7363 40.2501C62.0697 39.9164 62.0718 39.8974 62.0718 37.2341C62.0718 34.5709 62.0697 34.5518 61.7363 34.2182L61.4008 33.8823H58.3873H55.3739V32.7194V31.5565H58.7229H62.0718V30.4621V29.3676H57.9179C54.0316 29.3676 53.743 29.3844 53.4412 29.6292ZM24.2792 46.8321L23.7297 47.4006L23.1581 46.8472L22.5868 46.2937L23.1499 45.7263L23.7133 45.1591L24.2708 45.7114L24.8285 46.2636L24.2792 46.8321ZM46.867 46.8356L46.314 47.4074L45.7471 46.8438L45.1804 46.28L45.7322 45.7219L46.2839 45.1637L46.852 45.7136L47.4199 46.2636L46.867 46.8356ZM20.2965 47.5928C21.0893 47.8273 22.1902 48.9516 22.4107 49.7522C22.5387 50.2164 22.5704 52.2182 22.5399 57.8924C22.4951 66.223 22.5452 65.7606 21.5837 66.7227C20.6092 67.6981 20.9014 67.6679 12.4139 67.6712L4.78876 67.6742L4.14398 67.3458C3.38711 66.9601 3.02201 66.588 2.62615 65.7986C2.34251 65.2329 2.33732 65.0857 2.33732 57.5826V49.9428L2.68575 49.243C3.06097 48.4893 3.72775 47.8946 4.51209 47.614C5.20116 47.3675 19.4696 47.3483 20.2965 47.5928ZM42.8305 47.5891C43.5701 47.8109 44.6403 48.8021 44.9115 49.5166C45.1051 50.0264 45.1262 50.995 45.0922 57.7664L45.0537 65.4386L44.64 66.1082C44.3836 66.5231 43.9717 66.9352 43.5572 67.1918L42.888 67.6058H35.0068H27.1255L26.4564 67.1918C26.0418 66.9352 25.63 66.5231 25.3735 66.1082L24.9599 65.4386L24.9213 57.7664C24.8873 50.995 24.9085 50.0264 25.102 49.5166C25.3578 48.8431 26.4304 47.8153 27.1023 47.6001C27.777 47.3839 42.113 47.3739 42.8305 47.5891ZM65.5015 47.614C66.2858 47.8946 66.9526 48.4893 67.3278 49.243L67.6762 49.9428V57.5818V65.2207L67.348 65.866C66.9627 66.6235 66.5909 66.989 65.8022 67.3852C65.237 67.669 65.0899 67.6742 57.5933 67.6742H49.96L49.2608 67.3255C48.5077 66.95 47.9135 66.2826 47.6332 65.4976C47.3869 64.8079 47.3677 50.5272 47.612 49.6997C47.8177 49.0028 48.962 47.8169 49.6328 47.6053C50.3673 47.3736 64.8518 47.3816 65.5015 47.614ZM8.27728 52.277L7.9417 52.6127V57.5257C7.9417 62.2887 7.95031 62.4496 8.22506 62.799L8.50829 63.1595H12.379C15.9848 63.1595 16.2717 63.1416 16.5723 62.8982C16.887 62.6435 16.8961 62.5747 16.9381 60.1385C16.9857 57.376 16.9566 57.1349 16.5258 56.7333C16.2455 56.4717 16.0533 56.4559 13.1731 56.4559H10.1177L10.1575 55.3272L10.1971 54.1985L12.4103 54.161L14.6236 54.1234L14.6657 54.7083L14.708 55.293L15.8357 55.3327L16.9634 55.3725V54.1267C16.9634 52.8879 16.8428 52.4349 16.4285 52.1165C16.2702 51.9949 15.1831 51.9487 12.4122 51.9455L8.61272 51.9412L8.27728 52.277ZM30.8315 52.277C30.647 52.4617 30.4959 52.7539 30.4959 52.9266C30.4959 53.2016 31.5444 56.5667 31.6775 56.7191C31.7512 56.8035 33.7765 56.1509 33.7765 56.0427C33.7765 55.9925 33.6535 55.5936 33.5032 55.1562C33.3528 54.7188 33.2298 54.3089 33.2298 54.2454C33.2298 54.1821 34.0602 54.1301 35.0751 54.1301C36.4947 54.1301 36.9205 54.171 36.9205 54.3073C36.9205 54.476 35.2043 62.3084 35.0686 62.7589C35.0173 62.9293 35.223 63.0216 36.0583 63.203C36.6383 63.329 37.1543 63.3861 37.2048 63.33C37.3184 63.204 39.5176 53.2776 39.5176 52.8916C39.5176 52.7382 39.3666 52.4617 39.182 52.277L38.8466 51.9412H35.0068H31.1669L30.8315 52.277ZM54.9551 52.3174C53.2086 53.2039 52.5705 55.2571 53.5155 56.9495L53.8543 57.5561L53.4863 58.2657C53.1941 58.8296 53.1196 59.1592 53.1236 59.8704C53.1296 60.9386 53.4474 61.6377 54.2619 62.3741C55.045 63.0821 55.5452 63.1885 57.8459 63.1364C59.7902 63.0922 59.8558 63.0809 60.5077 62.6771C61.4582 62.0883 61.9537 61.2352 62.0337 60.0497C62.0896 59.2213 62.0526 59.038 61.6824 58.312C61.2771 57.5168 61.2737 57.493 61.5126 57.1491C62.4226 55.8394 62.2361 54.1486 61.0513 52.9626C60.168 52.0785 59.6859 51.9412 57.4671 51.9412C55.8061 51.9412 55.6503 51.9645 54.9551 52.3174ZM59.214 54.3419C59.963 54.7295 60.0428 55.6568 59.3726 56.1844C59.0765 56.4174 58.8168 56.4559 57.5364 56.4559C56.1352 56.4559 56.0247 56.4356 55.7095 56.12C55.138 55.5481 55.2739 54.6311 55.9754 54.3255C56.5817 54.0613 58.6924 54.072 59.214 54.3419ZM14.6396 59.8077V60.9706H12.3842H10.1288V59.8989C10.1288 59.3094 10.1698 58.7861 10.22 58.7361C10.27 58.6859 11.2849 58.6448 12.4754 58.6448H14.6396V59.8077ZM59.1382 58.8435C59.9543 59.1847 60.0757 60.1456 59.3726 60.6991C59.0765 60.9321 58.8168 60.9706 57.5364 60.9706C56.1352 60.9706 56.0247 60.9503 55.7095 60.6347C55.1276 60.0523 55.3147 59.0961 56.0698 58.7939C56.5912 58.5853 58.5984 58.6177 59.1382 58.8435Z" fill="white"/>
</svg>
