<svg width="70" height="70" viewBox="0 0 70 70" fill="none" xmlns="http://www.w3.org/2000/svg">
<path fill-rule="evenodd" clip-rule="evenodd" d="M48.4821 1.14967C43.6842 1.88174 40.8621 2.37532 40.5389 2.53883C39.9184 2.85243 39.271 3.44359 39.0196 3.92595C38.9151 4.1265 37.6631 7.37551 36.2373 11.146C33.8616 17.4285 33.6446 18.0805 33.6401 18.9494C33.6366 19.6437 33.7183 20.0537 33.9455 20.4809C34.1162 20.8018 36.5097 23.7216 39.2644 26.9695C44.4482 33.0814 44.8076 33.4352 46.013 33.6122C46.7997 33.7275 61.9274 31.4513 62.5869 31.1181C63.1902 30.8134 63.8351 30.2186 64.0888 29.7327C64.1965 29.5267 65.4695 26.2063 66.9179 22.3543C68.7208 17.5591 69.5511 15.1676 69.5511 14.7694C69.5511 13.4755 69.3069 13.1221 64.3713 7.27589C61.7659 4.18995 59.3178 1.36671 58.9308 1.00206C58.1813 0.295668 57.4103 -0.0205542 56.4899 0.00103291C56.1785 0.00832585 52.5749 0.525249 48.4821 1.14967ZM57.1269 2.44213C57.4952 2.67623 66.1802 13.045 66.0819 13.1333C65.9532 13.2488 53.1702 15.1616 52.5442 15.159C51.9952 15.1568 52.1371 15.3088 46.6924 8.88515C44.6185 6.43837 42.9862 4.41166 43.0654 4.38147C43.3146 4.28607 56.0485 2.3498 56.5068 2.33755C56.7472 2.33113 57.0264 2.37824 57.1269 2.44213ZM54.6604 5.29513L54.2732 6.37273L55.2984 6.75153C55.8621 6.95981 56.3715 7.10042 56.4304 7.0641C56.5896 6.96565 57.1912 5.25137 57.1304 5.06919C57.0858 4.935 55.4089 4.21767 55.1401 4.21767C55.0892 4.21767 54.8734 4.7025 54.6604 5.29513ZM45.8551 11.4816L50.3255 16.7763L47.8301 23.442C46.4576 27.108 45.2906 30.1525 45.2366 30.2074C45.1076 30.3385 36.1868 19.777 35.9933 19.2639C35.8634 18.9197 36.1408 18.0767 38.1371 12.7465C41.102 4.83027 40.7863 5.55548 41.1162 5.90336C41.2638 6.05928 43.3964 8.56936 45.8551 11.4816ZM49.0849 6.86661C48.8721 7.44115 48.7498 7.9553 48.8129 8.00912C48.9498 8.12566 50.5775 8.73929 50.75 8.73929C50.8764 8.73929 51.6939 6.71812 51.6037 6.62827C51.5536 6.57825 49.5902 5.82211 49.5105 5.82211C49.4892 5.82211 49.2977 6.29222 49.0849 6.86661ZM53.4628 8.48345C53.2516 9.0558 53.1286 9.57244 53.1896 9.63165C53.2505 9.69073 53.73 9.90018 54.2551 10.0969L55.2098 10.4546L55.6081 9.42672C55.8272 8.86137 55.9548 8.34737 55.892 8.2845C55.8292 8.22164 55.3433 8.00649 54.8122 7.80638L53.8467 7.44275L53.4628 8.48345ZM58.0275 9.57798C57.9459 9.79866 57.7742 10.2596 57.6456 10.6022C57.5172 10.945 57.4379 11.2466 57.4696 11.2727C57.5749 11.3594 59.5471 12.0903 59.5816 12.0554C59.7431 11.8928 60.3497 9.97821 60.263 9.90456C60.1201 9.78335 58.4942 9.17687 58.312 9.17687C58.2371 9.17687 58.109 9.35729 58.0275 9.57798ZM11.9443 9.52197C11.1488 9.81894 10.9232 10.0167 5.56813 15.1088C0.231302 20.1835 -0.0166137 20.4865 0.000730259 21.9106C0.0102038 22.6779 3.00575 34.2246 3.47913 35.3181C3.77966 36.0124 4.55008 36.7836 5.24413 37.0848C6.21495 37.5061 18.7046 40.4351 19.5599 40.4421C20.0783 40.4464 20.5931 40.3409 21.0173 40.1437C21.4626 39.9367 23.2642 38.3266 26.6286 35.1284C29.3541 32.5376 31.7551 30.2031 31.9643 29.9405C32.457 29.3216 32.7388 28.296 32.63 27.5166C32.4887 26.5034 29.3146 14.8363 29.0257 14.2681C28.7154 13.6578 27.9628 12.9572 27.3495 12.7077C26.5852 12.3967 14.1198 9.447 13.2927 9.38136C12.8087 9.343 12.2745 9.39857 11.9443 9.52197ZM52.4983 11.1095C52.4215 11.2899 52.2335 11.7659 52.0806 12.167L51.8026 12.8963L52.837 13.2961C53.406 13.5159 53.9186 13.6471 53.9762 13.5878C54.0337 13.5283 54.2445 13.0424 54.4444 12.5078L54.8081 11.536L53.7908 11.1587C53.2312 10.9511 52.7431 10.7813 52.7058 10.7813C52.6687 10.7813 52.5752 10.9291 52.4983 11.1095ZM19.0515 13.0439C22.2571 13.807 24.9954 14.4797 25.1369 14.5389C25.3444 14.6257 24.6947 15.3134 21.7757 18.0961C16.4566 23.1668 16.1125 23.471 15.697 23.471C15.497 23.471 12.759 22.8482 9.61261 22.087C6.46637 21.3259 3.74745 20.6689 3.57066 20.6274C3.29709 20.5629 3.87265 19.9593 7.43296 16.5779C12.3015 11.9539 12.6361 11.6565 12.9716 11.6565C13.1101 11.6565 15.8461 12.2807 19.0515 13.0439ZM13.6571 14.7565C13.096 14.9138 12.6095 15.0681 12.5761 15.0998C12.4502 15.2188 13.0683 17.3507 13.2136 17.2984C13.2972 17.2685 13.8072 17.126 14.3469 16.9818C15.4488 16.6873 15.4031 16.8288 14.912 15.2331L14.6773 14.471L13.6571 14.7565ZM66.9277 15.5716C66.9277 15.8062 62.241 28.2135 62.0268 28.5463C61.9082 28.7304 61.6671 28.9425 61.4909 29.0176C61.1883 29.1467 47.5223 31.237 47.4634 31.1633C47.4483 31.1442 48.5867 28.0602 49.9935 24.3097C52.4811 17.6774 52.5617 17.4908 52.9368 17.4908C53.2725 17.4908 61.6569 16.2506 65.1787 15.68C66.7172 15.4307 66.9277 15.4177 66.9277 15.5716ZM41.6903 16.6168C41.4798 17.179 41.3622 17.6727 41.4291 17.714C41.4958 17.7554 41.9828 17.9519 42.511 18.151C43.4031 18.487 43.4777 18.4945 43.5614 18.257C43.6109 18.1164 43.7997 17.6273 43.9808 17.1704L44.3102 16.3393L43.3366 15.967C42.8011 15.7622 42.2979 15.5947 42.218 15.5947C42.1381 15.5947 41.9007 16.0545 41.6903 16.6168ZM28.8897 22.288C30.0407 26.592 30.357 27.9693 30.2568 28.2415C30.1055 28.6528 20.9876 37.347 20.8572 37.2044C20.8091 37.1519 20.063 34.4506 19.199 31.2015L17.6283 25.2943L18.9219 24.0422C25.3482 17.8235 27.1921 16.1426 27.291 16.4125C27.3468 16.5643 28.0662 19.2083 28.8897 22.288ZM60.6565 19.1898C60.5719 19.4186 60.3969 19.8877 60.2678 20.2324C60.1296 20.601 60.0871 20.909 60.1644 20.9802C60.3057 21.11 61.9039 21.7207 62.1024 21.7207C62.2119 21.7207 63.0392 19.6672 62.9562 19.6014C62.9361 19.5855 62.5589 19.4379 62.118 19.2735C61.6771 19.1091 61.2026 18.9294 61.0634 18.8741C60.8732 18.7989 60.7721 18.8774 60.6565 19.1898ZM14.8231 19.2779C14.2619 19.4353 13.7773 19.588 13.7461 19.6173C13.6995 19.6612 14.0228 21.0073 14.2404 21.6754C14.2818 21.8021 14.5827 21.7683 15.3616 21.5495C15.9472 21.3848 16.4464 21.2321 16.4709 21.2099C16.5286 21.1577 16.0651 19.3641 15.9394 19.153C15.8717 19.0397 15.5413 19.0766 14.8231 19.2779ZM24.8796 21.3893C24.3987 21.5138 23.9859 21.631 23.9626 21.65C23.9001 21.7006 24.3939 23.6717 24.4992 23.7922C24.6171 23.9271 26.5955 23.4252 26.6544 23.2454C26.7548 22.9384 26.1816 21.2128 25.971 21.1883C25.8518 21.1745 25.3606 21.2649 24.8796 21.3893ZM55.4833 23.0418C55.2672 23.608 55.1139 24.0947 55.1427 24.1235C55.2312 24.2117 57.2049 24.9359 57.2456 24.8951C57.41 24.7296 58.019 22.8148 57.931 22.7401C57.7956 22.6252 56.1666 22.0124 55.9964 22.0124C55.9303 22.0124 55.6995 22.4757 55.4833 23.0418ZM9.68403 24.4979L15.3301 25.8641L15.469 26.3086C15.8799 27.6226 18.5498 37.8037 18.4974 37.8562C18.4278 37.9256 17.8647 37.7977 10.9608 36.1453C7.83187 35.3965 5.99036 34.8881 5.83368 34.73C5.68749 34.5826 4.96969 32.1629 4.04827 28.7116C3.2009 25.5371 2.50744 22.9012 2.50744 22.8539C2.50744 22.8066 2.85169 22.8498 3.27261 22.9499C3.69353 23.0498 6.57859 23.7464 9.68403 24.4979ZM51.9061 25.9142C51.8245 26.1347 51.6521 26.5972 51.5229 26.9419C51.3855 27.3084 51.3427 27.6169 51.4196 27.685C51.6003 27.8448 53.3693 28.4829 53.4385 28.4133C53.5292 28.3223 54.255 26.3469 54.2131 26.3052C54.1646 26.2569 52.1929 25.5131 52.1134 25.5131C52.0809 25.5131 51.9876 25.6936 51.9061 25.9142ZM21.3853 25.9694C20.8263 26.1289 20.352 26.2762 20.3313 26.2969C20.2813 26.3469 20.8426 28.3039 20.9329 28.3943C20.9717 28.4333 21.4658 28.3516 22.0307 28.2132C22.7262 28.0425 23.0578 27.8916 23.0578 27.7456C23.0578 27.4136 22.5698 25.6576 22.4808 25.6693C22.4373 25.675 21.9444 25.81 21.3853 25.9694ZM26.0456 25.9124C25.5646 26.036 25.1563 26.1483 25.1382 26.1618C25.1201 26.1755 25.243 26.6933 25.4112 27.3127C25.6534 28.2044 25.7662 28.4245 25.9541 28.3713C26.0847 28.3343 26.5895 28.1958 27.0762 28.0635L27.9609 27.823L27.6724 26.741C27.3502 25.5329 27.4083 25.5625 26.0456 25.9124ZM10.0618 28.993C9.60736 29.1247 9.1949 29.2733 9.14505 29.3233C9.04901 29.4197 9.48362 31.1934 9.65167 31.391C9.78299 31.5453 11.6975 31.0598 11.7749 30.8525C11.8909 30.5415 11.3286 28.799 11.1048 28.7758C10.9855 28.7634 10.5161 28.8611 10.0618 28.993ZM22.5343 30.4928L21.5008 30.7826L21.7856 31.8308C21.9422 32.4072 22.0928 32.9031 22.1201 32.9327C22.1913 33.0105 24.2162 32.5003 24.2787 32.3888C24.3551 32.2526 23.7725 30.1785 23.6616 30.1918C23.6102 30.198 23.1028 30.3335 22.5343 30.4928ZM38.0594 37.5184C35.8623 38.1399 34.438 39.9271 34.3115 42.2213C34.2475 43.3835 34.2608 43.4381 35.5887 47.4467C36.3268 49.6747 36.9081 51.5179 36.8807 51.5424C36.8533 51.5671 36.2555 51.6835 35.5524 51.801L34.2738 52.0149L33.571 50.7608C33.1844 50.0712 32.3496 48.5558 31.7159 47.3936C29.8938 44.0516 28.5092 42.865 26.1409 42.6166C25.6665 42.5669 24.8068 42.6367 23.9429 42.7954C22.62 43.0383 22.4755 43.0399 21.8071 42.8186C20.5374 42.3983 19.8567 42.3827 17.6969 42.7245C15.757 43.0316 15.6041 43.0365 14.9518 42.8141C14.0237 42.4976 12.4593 42.5167 10.7672 42.8652L9.37577 43.1516L8.54764 42.6526C6.21014 41.2439 3.16738 42.1413 1.9689 44.5927C1.40471 45.7466 1.39407 47.2612 1.94179 48.4129C2.15167 48.8541 4.19125 51.9062 6.47409 55.1953C9.9557 60.2114 10.7283 61.2393 11.2666 61.5711C11.8223 61.9139 34.0674 69.1254 36.6293 69.7935C37.4203 69.9997 37.7465 69.9695 46.2486 68.9027C54.5887 67.8562 55.0569 67.8121 55.195 68.0605C55.5306 68.6639 56.6833 69.6495 57.2534 69.8204C57.6726 69.9462 59.2282 70 62.4369 70C67.7886 70 67.9985 69.9628 69.0117 68.8349C69.3583 68.4491 69.7198 67.8731 69.8151 67.5548C70.064 66.7231 70.0605 51.0976 69.8111 50.253C69.5746 49.4518 68.3672 48.2435 67.5667 48.0068C66.7295 47.7593 58.0896 47.7593 57.2524 48.0068C56.4855 48.2336 55.198 49.486 55.0531 50.146C54.9958 50.4069 54.8731 50.6482 54.7805 50.682C54.6878 50.716 53.0164 50.1372 51.0663 49.396L47.5206 48.0482L45.6862 43.9134C44.1322 40.4105 43.7451 39.6615 43.1531 39.0133C41.9086 37.6506 39.79 37.0288 38.0594 37.5184ZM40.2952 39.8157C41.339 40.1058 41.6754 40.637 43.6704 45.1452C44.6966 47.4639 45.6193 49.4946 45.721 49.6581C45.8508 49.8662 47.241 50.4546 50.3683 51.625L54.8307 53.2948V59.3866C54.8307 62.7371 54.8142 65.4797 54.7942 65.4814C54.7743 65.4832 50.8623 65.9679 46.1012 66.5588L37.4446 67.633L25.0407 63.691C18.2185 61.523 12.5564 59.6859 12.4582 59.6087C12.0297 59.2719 4.04113 47.5595 3.91025 47.0761C3.64587 46.0993 4.30027 44.8197 5.24967 44.4575C5.82333 44.2387 6.77958 44.3132 7.27468 44.6153C7.55699 44.7876 9.20831 46.8541 11.4409 49.8292C13.4751 52.54 15.4211 55.0114 15.7653 55.3215C16.1096 55.6314 16.7563 56.0524 17.2024 56.2569C18.7278 56.9557 19.1118 56.9236 29.0142 55.2715C33.9259 54.452 37.9635 53.8043 37.987 53.832C38.0103 53.8598 38.9573 55.2774 40.0917 56.9821C41.226 58.6869 42.1897 60.0816 42.2332 60.0816C42.2767 60.0816 42.7071 59.8134 43.1896 59.4855C43.7306 59.1178 44.0381 58.8144 43.9919 58.6937C43.9506 58.5863 42.9399 57.0331 41.7456 55.2423L39.5744 51.9864L38.0934 47.5377C36.3371 42.2622 36.2778 41.7375 37.3139 40.6275C38.0932 39.7923 39.1631 39.5011 40.2952 39.8157ZM21.3995 45.1773C21.7104 45.3369 22.1123 45.6257 22.2928 45.8192C22.9256 46.4982 26.8328 53.1494 26.6541 53.2437C26.3065 53.4272 24.056 53.7001 23.9315 53.5738C23.7023 53.3412 17.9864 45.1321 18.0247 45.0904C18.0453 45.0681 18.3499 44.9894 18.7017 44.9158C19.6023 44.727 20.7363 44.837 21.3995 45.1773ZM14.832 45.3385C15.4926 45.7177 15.8692 46.1891 18.4392 49.8543C20.0175 52.1052 21.3088 54.0054 21.3088 54.0772C21.3088 54.2245 20.2626 54.3931 19.3495 54.3931C18.9859 54.3931 18.4335 54.2389 17.9716 54.0086C17.2584 53.6529 16.9667 53.3121 14.0803 49.4629C12.3643 47.1744 10.9898 45.2723 11.0259 45.2359C11.1788 45.0831 12.1238 44.9412 13.0741 44.9286C13.9479 44.9169 14.2001 44.9757 14.832 45.3385ZM27.3152 45.3904C27.6592 45.5921 28.0486 45.8789 28.1805 46.0275C28.4344 46.3138 31.8335 52.3753 31.7681 52.4252C31.7469 52.4414 31.2135 52.5357 30.5824 52.6351C29.6352 52.7841 29.4036 52.7815 29.2544 52.6198C28.8588 52.1911 24.6931 45.0745 24.7831 44.9813C25.0021 44.7549 26.6993 45.0291 27.3152 45.3904ZM60.6606 54.8307V59.4982H61.8265H62.9925V54.8307V50.1632H64.9667C66.8685 50.1632 66.9541 50.1763 67.2986 50.5213L67.6564 50.8792V58.9147V66.9502L67.2986 67.3082L66.941 67.6663H62.4095H57.8781L57.5204 67.3082L57.1626 66.9502V58.9147V50.8792L57.5204 50.5213C57.8503 50.1911 57.9865 50.1632 59.2694 50.1632H60.6606V54.8307ZM0.029734 58.9147V62.9988H1.19571H2.36169V58.9147V54.8307H1.19571H0.029734V58.9147ZM4.69364 63.5822V66.4994H5.85962H7.0256V63.5822V60.665H5.85962H4.69364V63.5822ZM60.6606 63.5822V65.3325H61.8265H62.9925V63.5822V61.8319H61.8265H60.6606V63.5822ZM9.35755 67.6663V70H10.5235H11.6895V67.6663V65.3325H10.5235H9.35755V67.6663Z" fill="white"/>
</svg>
