<svg width="70" height="70" viewBox="0 0 70 70" fill="none" xmlns="http://www.w3.org/2000/svg">
<path fill-rule="evenodd" clip-rule="evenodd" d="M23.2292 0.0717778C20.3265 0.289248 16.5099 1.3458 13.902 2.65391C10.56 4.33016 6.93252 7.41935 4.80937 10.3974C0.343033 16.662 -1.06332 24.0793 0.803653 31.524C2.34247 37.6605 6.41881 43.1868 12.0104 46.7171C13.175 47.4523 15.564 48.5575 17.1396 49.0899C23.382 51.1997 30.1299 50.7974 36.0242 47.9643C36.8521 47.5663 37.8374 47.0476 38.2137 46.8113L38.898 46.3822L50.3245 57.7787C58.8887 66.3203 61.9053 69.2478 62.3668 69.4649C65.6461 71.0074 69.3153 69.0736 69.9312 65.4782C70.1179 64.3882 69.9219 63.2246 69.3759 62.1805C69.1089 61.67 66.1487 58.6189 57.7234 50.1699L46.4288 38.8434L46.8807 38.0578C52.0956 28.9914 51.4615 18.2207 45.2236 9.90308C44.141 8.45962 41.6472 6.01025 40.1702 4.94001C35.1659 1.3135 29.2702 -0.38068 23.2292 0.0717778ZM28.7714 2.93734C32.5867 3.55759 36.1467 5.11327 39.1717 7.48204C42.9181 10.4158 45.8541 14.9251 47.0509 19.5833C48.1847 23.996 47.9013 28.971 46.2698 33.2929C43.9826 39.3526 38.6358 44.521 32.6031 46.5038C29.5463 47.5086 27.4398 47.8164 24.4094 47.7013C21.512 47.5914 19.6517 47.2174 17.008 46.2137C13.1867 44.7628 9.58444 41.9875 7.01873 38.5174C2.60344 32.5455 1.45613 24.4399 4.03387 17.4275C5.28395 14.0267 7.46293 10.8143 10.1313 8.43827C15.2817 3.85211 22.0722 1.84821 28.7714 2.93734ZM22.2029 5.52015C14.7943 6.69304 8.71233 11.8177 6.35052 18.8775C5.725 20.7474 5.43913 22.2646 5.34211 24.2286C5.24824 26.1286 5.37988 26.5973 6.09052 26.8943C6.45439 27.0464 6.65842 27.0564 7.01367 26.9391C7.71185 26.7086 7.84925 26.3686 7.95421 24.6126C8.23638 19.8952 9.85895 16.1949 13.0255 13.048C16.5824 9.5133 21.1421 7.7292 25.9805 7.97925C27.7039 8.06834 27.7057 8.0682 28.1358 7.70621C28.4999 7.39978 28.5662 7.25006 28.5662 6.73369C28.5662 5.94976 28.1461 5.52563 27.2471 5.40246C26.24 5.26436 23.3997 5.3306 22.2029 5.52015ZM33.8347 18.5003C32.5489 18.9262 31.7897 19.5845 31.2838 20.7121C30.8999 21.5675 30.8589 23.0898 31.2022 23.7386L31.4277 24.1648L30.1124 25.6308C29.0368 26.8297 28.7449 27.0818 28.5106 27.0145C27.2716 26.6587 25.9232 26.8775 24.931 27.5957L24.3924 27.9856L22.1345 26.9355L19.8765 25.8855L19.7762 25.0919C19.5974 23.675 18.7951 22.4895 17.5767 21.8417C16.7584 21.4065 14.926 21.4038 14.1132 21.8363C13.2491 22.296 12.7858 22.7426 12.3443 23.5406C11.9917 24.1782 11.9406 24.4094 11.9401 25.3687C11.9397 26.1549 12.0134 26.6313 12.1995 27.0447L12.4595 27.6223L11.139 29.353C10.0616 30.7651 9.81844 31.1704 9.81844 31.554C9.81844 32.2387 10.437 32.8242 11.1605 32.8242C11.785 32.8242 12.0004 32.6205 13.5724 30.5438L14.5211 29.2907L15.4882 29.3609C16.2629 29.4172 16.6084 29.3733 17.2237 29.1403C17.6462 28.9803 18.1022 28.7277 18.237 28.5787C18.3718 28.4298 18.5556 28.3078 18.6455 28.3078C18.7353 28.3078 19.787 28.7692 20.9827 29.3332L23.1564 30.3585L23.3013 31.215C23.4979 32.3762 23.8227 32.991 24.6185 33.7065C26.5843 35.474 29.5567 34.9159 30.7754 32.5505C31.1941 31.7378 31.2865 30.3133 30.9716 29.5263C30.7089 28.8698 30.6113 29.0453 32.235 27.2544C33.3181 26.0598 33.3948 26.003 33.7422 26.1379C33.9436 26.216 34.4931 26.279 34.9633 26.2778C36.8276 26.2726 38.4896 24.9042 38.7714 23.1425C38.857 22.6061 38.8586 22.6049 39.8355 22.3567C42.5988 21.6549 43.0717 21.3703 43.0717 20.4094C43.0717 19.8046 42.4481 19.1375 41.8849 19.1399C41.6721 19.1407 40.7591 19.3483 39.8559 19.6012L38.2137 20.0608L37.6664 19.512C37.3653 19.2101 36.8489 18.8418 36.5186 18.6938C35.759 18.3531 34.5436 18.2655 33.8347 18.5003ZM35.7215 21.3296C36.7494 22.1382 35.9469 23.8374 34.6521 23.5945C33.6777 23.4117 33.317 22.2678 33.9837 21.4754C34.4175 20.9597 35.1711 20.8966 35.7215 21.3296ZM16.312 24.2588C16.8477 24.4827 17.0712 24.8286 17.0712 25.4338C17.0712 26.0114 16.8713 26.3466 16.3729 26.6043C15.6118 26.9981 14.7 26.5151 14.5382 25.6325C14.438 25.0864 14.7187 24.5936 15.2942 24.3049C15.8648 24.0186 15.7496 24.0238 16.312 24.2588ZM28.3056 30.0665C28.5187 30.3373 28.5715 30.5483 28.5143 30.9007C28.2514 32.5208 25.9594 32.4281 25.9691 30.7978C25.9769 29.512 27.4956 29.0366 28.3056 30.0665ZM45.8786 42.1321L46.8307 43.0916L44.9514 44.9711L43.0723 46.8505L42.0993 45.8774L41.1265 44.9045L42.9543 43.0513C43.9597 42.0321 44.8147 41.1923 44.8544 41.1853C44.8941 41.1783 45.3548 41.6044 45.8786 42.1321ZM57.8124 54.0716C64.1364 60.3999 66.9366 63.2922 67.0832 63.6474C67.68 65.0932 66.8537 66.7783 65.3494 67.1834C64.6556 67.3702 63.9737 67.2558 63.2563 66.8323C62.9553 66.6545 58.7068 62.5023 53.8151 57.6052L44.9215 48.7014L46.7659 46.8531C47.7801 45.8364 48.642 45.0047 48.6809 45.0047C48.7197 45.0047 52.8289 49.0849 57.8124 54.0716Z" fill="white"/>
</svg>
