<svg width="48" height="70" viewBox="0 0 48 70" fill="none" xmlns="http://www.w3.org/2000/svg">
<path fill-rule="evenodd" clip-rule="evenodd" d="M14.0766 0.291469C13.0896 0.671059 11.9072 1.77446 11.4165 2.77403C11.071 3.47806 11.0246 3.73023 11.0246 4.90562C11.0246 6.05436 11.0759 6.34835 11.396 7.03133C11.8867 8.07818 12.735 8.90289 13.8791 9.44512L14.8121 9.8873L18.4944 9.93445L22.1766 9.9816V13.0514V16.1211L17.4649 16.1617L12.7529 16.2021L12.485 16.5334C12.2563 16.816 12.2169 17.0987 12.2169 18.4583V20.0519L6.59333 20.0916L0.969735 20.1313L0.701665 20.4626C0.442712 20.7826 0.433594 21.1794 0.433594 32.145C0.433594 43.309 0.438223 43.5007 0.714149 43.7767C0.986008 44.0487 1.18169 44.0574 7.06256 44.0574H13.1304L17.6535 48.5838L22.1766 53.1101V56.5004V59.8904L18.4944 59.9376L14.8121 59.9847L13.9003 60.419C12.7893 60.9481 11.934 61.7806 11.4147 62.8384C11.0711 63.5384 11.0246 63.7925 11.0246 64.9664C11.0246 66.1418 11.071 66.394 11.4165 67.098C11.9162 68.1159 13.0826 69.1935 14.1462 69.62C14.9472 69.9412 15.0003 69.9434 22.5049 69.9896C27.4625 70.0199 30.3941 69.9837 31.0372 69.8838C33.1532 69.5554 34.6278 68.2723 35.2772 66.1943C35.3487 65.9655 35.7541 65.9487 41.1799 65.9487C46.8188 65.9487 47.0148 65.9397 47.2864 65.668C47.5623 65.392 47.5669 65.2003 47.5669 54.0363C47.5669 43.0706 47.5578 42.6739 47.2988 42.3539L47.0308 42.0226L40.1096 41.9839L33.1884 41.945L28.7346 37.4941L24.2808 33.0433V29.6466V26.2498L28.9223 26.2077L33.5638 26.1655L33.9022 25.7717L34.2405 25.3779V21.2527C34.2405 16.8849 34.1986 16.5664 33.5873 16.2877C33.3594 16.184 31.7493 16.1319 28.7631 16.1319H24.2808V13.0568V9.9816L27.9631 9.93389L31.6454 9.88632L32.5182 9.48343C33.5506 9.00702 34.6633 7.90221 35.109 6.91106C35.3426 6.39171 35.4138 5.95079 35.4221 4.97326C35.4319 3.81555 35.3938 3.62821 34.9726 2.77234C34.4104 1.62922 33.4098 0.684671 32.3347 0.282348C31.5887 0.00309347 31.3038 -0.0056069 23.1883 0.00140955C15.1374 0.00842599 14.7834 0.0196523 14.0766 0.291469ZM32.0756 2.55511C33.1454 3.28076 33.5976 4.48801 33.2639 5.72767C33.0378 6.56796 32.1117 7.47406 31.2598 7.68863C30.422 7.89968 16.0384 7.91891 15.2865 7.70996C13.3934 7.18386 12.5365 5.06855 13.5519 3.42824C13.8261 2.9855 14.1836 2.63959 14.5886 2.42573L15.2069 2.09905H23.305H31.4033L32.0756 2.55511ZM32.1364 21.1136V23.9904H23.2287H14.3211V21.1136V18.2369H23.2287H32.1364V21.1136ZM12.2214 23.8149C12.2262 25.5952 12.3057 25.8357 12.974 26.0898C13.2097 26.1795 15.0556 26.2356 17.767 26.2356H22.1766V29.6378V33.0399L17.7237 37.4962L13.2707 41.9525H7.90423H2.53776V32.0593V22.1661H7.37734H12.2169L12.2214 23.8149ZM27.2269 47.0736L23.1586 51.1434L19.1262 47.1095L15.0939 43.0756L19.1604 39.0058L23.2269 34.936L27.2612 38.9699L31.2953 43.0037L27.2269 47.0736ZM45.4628 53.9506V63.8438H40.3426C35.8261 63.8438 35.2225 63.8182 35.2225 63.6277C35.2225 62.9381 34.0909 61.3808 33.1516 60.7779C31.9992 60.0382 31.1971 59.9146 27.5479 59.9146H24.2808V56.5124V53.1101L28.8039 48.5838L33.327 44.0574H39.3949H45.4628V53.9506ZM31.7857 62.3827C32.9951 63.0143 33.6358 64.4626 33.2608 65.7172C33.0155 66.5377 32.6407 67.0104 31.8818 67.4567L31.2246 67.8431H23.2287C15.3112 67.8431 15.2274 67.8402 14.6718 67.541C13.2397 66.77 12.6745 65.1941 13.3202 63.7723C13.6217 63.1086 14.4494 62.3389 14.9899 62.2197C15.2008 62.1733 15.4363 62.1131 15.5135 62.0861C15.5906 62.0591 19.1572 62.0488 23.4391 62.0633C31.0349 62.089 31.2382 62.0968 31.7857 62.3827Z" fill="white"/>
</svg>
