<svg width="70" height="71" viewBox="0 0 70 71" fill="none" xmlns="http://www.w3.org/2000/svg">
<path fill-rule="evenodd" clip-rule="evenodd" d="M29.1605 5.36858C24.0583 10.4661 23.7891 10.76 23.7891 11.2323C23.7891 11.5179 23.9002 11.8668 24.0502 12.0522C24.3087 12.3717 24.3421 12.3754 27.3998 12.4164L30.4883 12.4579V13.5444V14.6309H31.6523H32.8165L32.8061 13.0928C32.8003 12.2469 32.7343 11.3193 32.6592 11.0316C32.4547 10.247 32.022 10.1191 29.5701 10.1191H27.5495L31.2747 6.39383L35 2.66865L38.7253 6.39383L42.4505 10.1191H40.4547C38.3782 10.1191 37.6853 10.2468 37.4581 10.6714C37.3845 10.8089 37.3242 11.7561 37.3242 12.7761V14.6309H38.418H39.5117V13.5444V12.4579L42.6002 12.4164C45.6579 12.3754 45.6913 12.3717 45.9498 12.0522C46.0998 11.8668 46.2109 11.5179 46.2109 11.2323C46.2109 10.76 45.9417 10.4661 40.8395 5.36858C35.8617 0.395293 35.4338 0.00195312 35 0.00195312C34.5662 0.00195312 34.1383 0.395293 29.1605 5.36858ZM30.9259 17.2324C30.5724 17.5617 30.5013 17.8287 30.4549 19.0015L30.4199 19.8857L29.4629 20.242C28.9365 20.4379 28.236 20.7377 27.9062 20.908L27.3066 21.218L26.3222 20.2402C25.298 19.2228 24.8778 19.0487 24.2618 19.3858C23.7519 19.6649 19.2773 24.2879 19.2616 24.5519C19.2237 25.188 19.3516 25.4172 20.2572 26.3359L21.216 27.3085L20.9061 27.9082C20.7357 28.238 20.4359 28.9385 20.24 29.4649L19.8837 30.4219L18.9995 30.4569C17.8268 30.5032 17.5597 30.5743 17.2304 30.9279C16.9657 31.2119 16.9531 31.3973 16.9531 35.002C16.9531 39.643 16.8721 39.463 18.9995 39.5471L19.8837 39.5821L20.24 40.5391C20.4359 41.0655 20.7357 41.766 20.9061 42.0958L21.216 42.6954L20.2572 43.668C19.3516 44.5868 19.2237 44.8159 19.2616 45.4521C19.2773 45.7161 23.7519 50.3391 24.2618 50.6182C24.8778 50.9553 25.298 50.7811 26.3222 49.7638L27.3066 48.786L27.9062 49.0959C28.236 49.2663 28.9365 49.5661 29.4629 49.762L30.4199 50.1183L30.4549 51.0025C30.5013 52.1752 30.5724 52.4422 30.9259 52.7716C31.2099 53.0363 31.3953 53.0489 35 53.0489C39.6411 53.0489 39.461 53.13 39.5451 51.0025L39.5801 50.1183L40.5371 49.762C41.0635 49.5661 41.764 49.2663 42.0938 49.0959L42.6934 48.786L43.6778 49.7638C44.702 50.7811 45.1222 50.9553 45.7382 50.6182C46.2481 50.3391 50.7227 45.7161 50.7384 45.4521C50.7762 44.8159 50.6484 44.5868 49.7428 43.668L48.784 42.6954L49.0939 42.0958C49.2643 41.766 49.5641 41.0655 49.76 40.5391L50.1163 39.5821L51.0005 39.5471C52.1732 39.5007 52.4403 39.4296 52.7696 39.0761C53.0343 38.7921 53.0469 38.6067 53.0469 35.002C53.0469 30.3609 53.128 30.541 51.0005 30.4569L50.1163 30.4219L49.76 29.4649C49.5641 28.9385 49.2643 28.238 49.0939 27.9082L48.784 27.3085L49.7428 26.3359C50.6484 25.4172 50.7762 25.188 50.7384 24.5519C50.7227 24.2879 46.2481 19.6649 45.7382 19.3858C45.1222 19.0487 44.702 19.2228 43.6778 20.2402L42.6934 21.218L42.0938 20.908C41.764 20.7377 41.0635 20.4379 40.5371 20.242L39.5801 19.8857L39.5451 19.0015C39.4987 17.8287 39.4276 17.5617 39.0741 17.2324C38.7901 16.9677 38.6047 16.9551 35 16.9551C31.3953 16.9551 31.2099 16.9677 30.9259 17.2324ZM37.3242 20.2503C37.3618 20.8218 37.4715 21.3842 37.568 21.5002C37.6645 21.6161 38.2797 21.8775 38.9352 22.0812C39.5906 22.2849 40.7218 22.7588 41.4489 23.1341C42.43 23.6406 42.8529 23.792 43.0895 23.7212C43.2648 23.6688 43.7935 23.2488 44.2643 22.7881L45.1203 21.9501L46.5861 23.4159L48.0519 24.8816L47.2139 25.7376C46.7532 26.2085 46.3332 26.7372 46.2808 26.9125C46.21 27.1491 46.3613 27.572 46.8679 28.5531C47.2432 29.2802 47.7189 30.4175 47.925 31.0806C48.373 32.522 48.5654 32.6871 49.91 32.7833L50.8659 32.8517L50.8285 35.0548L50.791 37.2578L49.7517 37.3262C49.1802 37.3638 48.6177 37.4734 48.5018 37.57C48.3859 37.6665 48.1245 38.2817 47.9207 38.9372C47.717 39.5926 47.2432 40.7238 46.8679 41.4509C46.3613 42.432 46.21 42.8548 46.2808 43.0915C46.3332 43.2668 46.7532 43.7955 47.2139 44.2663L48.0519 45.1223L46.5861 46.5881L45.1203 48.0538L44.2643 47.2159C43.7935 46.7552 43.2648 46.3352 43.0895 46.2828C42.8531 46.2121 42.429 46.3632 41.4489 46.8674C40.7218 47.2415 39.5799 47.7239 38.9115 47.9398C37.4653 48.4066 37.3138 48.5832 37.2187 49.912L37.1503 50.8679L34.9472 50.8305L32.7441 50.793L32.6758 49.7378C32.6313 49.0512 32.5358 48.6152 32.4023 48.4894C32.2896 48.3832 31.6743 48.1271 31.0352 47.9203C30.396 47.7134 29.2782 47.239 28.5511 46.8659C27.5715 46.363 27.1467 46.2121 26.9105 46.2828C26.7352 46.3352 26.2065 46.7552 25.7357 47.2159L24.8797 48.0538L23.4139 46.5881L21.9481 45.1223L22.7861 44.2663C23.2468 43.7955 23.6668 43.2668 23.7192 43.0915C23.79 42.8548 23.6387 42.432 23.1321 41.4509C22.7568 40.7238 22.2811 39.5864 22.075 38.9234C21.627 37.4819 21.4346 37.3169 20.09 37.2207L19.1341 37.1523L19.1715 34.9492L19.209 32.7461L20.2483 32.6778C20.8198 32.6402 21.3823 32.5305 21.4982 32.434C21.6141 32.3375 21.8755 31.7222 22.0793 31.0668C22.283 30.4114 22.7568 29.2802 23.1321 28.5531C23.6387 27.572 23.79 27.1491 23.7192 26.9125C23.6668 26.7372 23.2468 26.2085 22.7861 25.7376L21.9481 24.8816L23.4139 23.4159L24.8797 21.9501L25.7357 22.7881C26.2065 23.2488 26.7352 23.6688 26.9105 23.7212C27.1471 23.792 27.57 23.6406 28.5511 23.1341C29.2782 22.7588 30.4155 22.283 31.0786 22.077C32.5201 21.629 32.6851 21.4366 32.7813 20.092L32.8497 19.136L35.0528 19.1735L37.2559 19.211L37.3242 20.2503ZM33.8859 23.8066C30.8226 24.0587 27.7136 25.8394 25.8954 28.3833C23.4932 31.7441 23.0817 36.1053 24.8203 39.775C26.0166 42.3 27.7951 44.048 30.3963 45.2552C31.8912 45.9491 33.2382 46.2362 35 46.2362C37.9542 46.2362 40.6072 45.1808 42.7753 43.1433C44.2557 41.7521 45.5495 39.4749 46.003 37.4629C46.3049 36.1239 46.3049 33.8801 46.003 32.541C45.5495 30.5291 44.2557 28.2519 42.7753 26.8606C40.3478 24.5792 37.2848 23.5269 33.8859 23.8066ZM5.36662 29.1624C0.40373 34.1299 0 34.569 0 34.9997C0 35.4299 0.399082 35.8662 5.22949 40.7172C8.10578 43.6057 10.6334 46.045 10.8464 46.1381C11.331 46.3497 11.8044 46.2657 12.1256 45.9111C12.346 45.6678 12.3776 45.3035 12.4145 42.5758L12.4559 39.5137H13.5424H14.6289V38.42V37.3262H12.7742C11.7541 37.3262 10.8069 37.3865 10.6694 37.4601C10.2449 37.6873 10.1172 38.3802 10.1172 40.4567V42.4525L6.39187 38.7273L2.6667 35.002L6.39187 31.2767L10.1172 27.5515V29.5721C10.1172 32.0188 10.2441 32.4496 11.0291 32.6675C11.3172 32.7475 12.2449 32.8133 13.0908 32.8137L14.6289 32.8145V31.6524V30.4903H13.5424H12.4559L12.4145 27.4018C12.3735 24.3441 12.3698 24.3107 12.0503 24.0522C11.8649 23.9022 11.516 23.791 11.2304 23.791C10.758 23.791 10.4642 24.0602 5.36662 29.1624ZM57.9497 24.0522C57.6302 24.3107 57.6265 24.3441 57.5855 27.4018L57.5441 30.4903H56.4576H55.3711V31.6524V32.8145L56.9092 32.8137C57.7552 32.8133 58.6828 32.7475 58.9709 32.6675C59.7559 32.4496 59.8828 32.0188 59.8828 29.5721V27.5515L63.6081 31.2767L67.3333 35.002L63.6081 38.7273L59.8828 42.4525V40.4567C59.8828 38.3802 59.7551 37.6873 59.3306 37.4601C59.1931 37.3865 58.2459 37.3262 57.2258 37.3262H55.3711V38.42V39.5137H56.4576H57.5441L57.5855 42.5758C57.6224 45.3035 57.654 45.6678 57.8744 45.9111C58.1956 46.2657 58.669 46.3497 59.1536 46.1381C59.3666 46.045 61.8942 43.6057 64.7705 40.7172C69.6009 35.8662 70 35.4299 70 34.9997C70 34.569 69.5963 34.1299 64.6334 29.1624C59.5358 24.0602 59.242 23.791 58.7696 23.791C58.484 23.791 58.1351 23.9022 57.9497 24.0522ZM37.8941 26.4867C40.6391 27.433 42.5878 29.3971 43.563 32.2006C43.9 33.1694 43.943 33.4865 43.943 35.002C43.943 36.5175 43.9 36.8346 43.563 37.8034C42.5891 40.6031 40.6621 42.5476 37.8872 43.5309C36.8136 43.9114 36.5572 43.9485 35 43.9485C33.4428 43.9485 33.1864 43.9114 32.1128 43.5309C29.3379 42.5476 27.4109 40.6031 26.437 37.8034C26.1 36.8346 26.057 36.5175 26.057 35.002C26.057 33.4865 26.1 33.1694 26.437 32.2006C27.5357 29.042 29.8936 26.9257 33.1543 26.1717C34.478 25.8657 36.4777 25.9986 37.8941 26.4867ZM33.4499 28.508C31.8961 29.0971 30.6172 30.7528 30.5722 32.2334L30.5566 32.7461L31.6183 32.786C32.7461 32.8286 32.706 32.8513 32.8783 32.0717C33.0064 31.4927 33.8833 30.6694 34.494 30.5548C35.9464 30.2823 37.2103 31.3021 37.2103 32.7461C37.2103 33.8041 36.426 34.7754 35.4404 34.9385C34.681 35.0641 34.185 35.2834 34.0378 35.5586C33.9655 35.6938 33.9062 36.3928 33.9062 37.1121V38.42H35H36.0938V37.8087C36.0938 37.2033 36.1007 37.1941 36.8341 36.8473C37.7858 36.3971 38.6405 35.5419 39.0886 34.5918C39.5939 33.5201 39.5939 31.9722 39.0886 30.9004C38.6598 29.9912 37.8089 29.1146 36.9407 28.688C36.1382 28.2936 34.2695 28.1972 33.4499 28.508ZM33.9062 41.7696V42.9317H35H36.0938V41.7696V40.6075H35H33.9062V41.7696ZM30.4883 56.4596V57.5461L27.3998 57.5875C24.3421 57.6285 24.3087 57.6322 24.0502 57.9517C23.9002 58.1371 23.7891 58.486 23.7891 58.7717C23.7891 59.244 24.0583 59.5378 29.1605 64.6354C34.1383 69.6087 34.5662 70.002 35 70.002C35.4338 70.002 35.8617 69.6087 40.8395 64.6354C45.9417 59.5378 46.2109 59.244 46.2109 58.7717C46.2109 58.486 46.0998 58.1371 45.9498 57.9517C45.6913 57.6322 45.6579 57.6285 42.6002 57.5875L39.5117 57.5461V56.4596V55.3731H38.418H37.3242V57.2278C37.3242 58.2479 37.3845 59.1951 37.4581 59.3326C37.6853 59.7571 38.3782 59.8848 40.4547 59.8848H42.4505L38.7253 63.6101L35 67.3353L31.2747 63.6101L27.5495 59.8848H29.5701C32.022 59.8848 32.4547 59.757 32.6592 58.9724C32.7343 58.6847 32.8003 57.7572 32.8061 56.9112L32.8165 55.3731H31.6523H30.4883V56.4596Z" fill="white"/>
</svg>
