<svg width="70" height="70" viewBox="0 0 70 70" fill="none" xmlns="http://www.w3.org/2000/svg">
<path fill-rule="evenodd" clip-rule="evenodd" d="M10.0989 0.198045C5.11942 1.09769 1.07045 5.2227 0.183273 10.3002C-0.518986 14.3189 0.820035 18.3904 3.80298 21.3066L4.90457 22.3834L4.41349 22.8594C3.74256 23.5096 3.11921 24.5131 2.68699 25.6392C2.33141 26.5657 2.32421 26.6584 2.2741 30.9828C2.21736 35.8934 2.32633 36.9363 3.09324 38.821C3.98465 41.0115 5.92049 43.172 7.93791 44.2278L9.01678 44.7925L9.01833 46.3605L9.01988 47.9287L8.20823 48.4655C7.13868 49.1727 5.47316 50.7885 4.69622 51.8728C3.90673 52.9746 3.02929 54.8413 2.63532 56.2574C2.34694 57.2937 2.32661 57.7159 2.27777 63.678L2.22597 70L15.751 69.9595L29.276 69.9191L30.2415 69.5923C31.4009 69.2 40.6927 64.9835 41.2256 64.6079C41.5586 64.3734 41.8873 64.3439 44.1735 64.3439C45.7377 64.3439 46.9641 64.2788 47.3009 64.1779C47.9774 63.9752 49.0069 63.0952 49.2478 62.5136L49.4253 62.0853H58.2493C64.7649 62.0853 67.2255 62.0404 67.6545 61.9136C68.8676 61.5552 70 60.0024 70 58.6973C70 57.3922 68.8676 55.8394 67.6545 55.481C67.2608 55.3646 65.8365 55.3093 63.237 55.3093H59.4003L59.0539 54.9627C58.7705 54.6794 58.7074 54.4757 58.7074 53.8443V53.0724L62.2089 53.0262L65.7105 52.9801L66.7767 52.4528C68.0608 51.8179 68.8613 50.9999 69.4827 49.6881L69.9294 48.7451V32.7228V16.7005L69.4827 15.7575C68.8642 14.452 68.0567 13.6221 66.8393 13.041C66.2874 12.7776 65.7246 12.5265 65.5888 12.4829C65.4228 12.4298 65.3418 12.2584 65.3418 11.961C65.3418 11.4049 64.9986 10.0225 64.6085 9.00693C64.0605 7.58073 63.0466 6.03356 61.8834 4.84875C57.0558 -0.0691822 49.2639 -0.136235 44.3628 4.69813C42.421 6.61346 41.0164 9.43904 40.7473 11.9714L40.7098 12.3243L32.7697 12.3607L24.8295 12.3973V11.9205C24.8295 10.9986 24.3917 8.9475 23.9689 7.8889C22.6882 4.68175 20.0367 2.03744 16.8681 0.806893C14.8326 0.016506 12.343 -0.207383 10.0989 0.198045ZM15.4426 2.71108C17.0444 3.22125 18.2354 3.96435 19.5366 5.26561C20.8265 6.55559 21.5684 7.73813 22.1051 9.35985C22.4351 10.357 22.4788 10.7122 22.4788 12.3949C22.4788 14.0759 22.4348 14.4342 22.1055 15.4329C21.4495 17.4228 20.0916 19.3125 18.4485 20.5221L17.6244 21.1288L16.8159 20.7498L16.0072 20.3708L12.2665 20.3753C8.80984 20.3795 8.46584 20.4025 7.73563 20.678L6.94529 20.9761L6.46521 20.615C2.91298 17.9436 1.42701 13.4556 2.73216 9.34022C3.23129 7.76594 3.97731 6.569 5.27878 5.25361C6.81839 3.69769 8.58385 2.74976 10.6432 2.37355C11.8821 2.14712 14.1792 2.30876 15.4426 2.71108ZM11.7016 8.655L9.94108 13.9496L9.26733 12.6076L8.59373 11.2656H6.54821H4.50284V12.3949V13.5242H5.84327H7.18356L8.73757 16.6299C9.59228 18.338 10.3181 19.7355 10.3506 19.7355C10.383 19.7355 11.0966 17.671 11.9363 15.1476C12.7761 12.6243 13.4973 10.5598 13.5389 10.5598C13.5807 10.5598 13.9193 11.4809 14.2916 12.6067L14.9684 14.6536H17.6405H20.3125V13.5283V12.4031L18.4529 12.3637L16.5933 12.3243L15.1021 7.84231C14.2818 5.37728 13.5773 3.3603 13.5365 3.3603C13.4956 3.3603 12.6699 5.7429 11.7016 8.655ZM56.096 3.8404C57.6978 4.35058 58.8888 5.09367 60.19 6.39494C61.4799 7.68491 62.2218 8.86746 62.7585 10.4892C63.0885 11.4864 63.1323 11.8415 63.1323 13.5242C63.1323 15.2069 63.0885 15.5621 62.7585 16.5593C62.2218 18.181 61.4799 19.3636 60.19 20.6535C58.9001 21.9435 57.7176 22.6855 56.096 23.2222C55.0988 23.5522 54.7437 23.596 53.0611 23.596C51.3785 23.596 51.0233 23.5522 50.0262 23.2222C48.4046 22.6855 47.2221 21.9435 45.9322 20.6535C44.6423 19.3636 43.9004 18.181 43.3637 16.5593C43.0337 15.5621 42.9899 15.2069 42.9899 13.5242C42.9899 11.8415 43.0337 11.4864 43.3637 10.4892C43.8983 8.87409 44.6388 7.69028 45.9322 6.38294C47.4718 4.82701 49.2373 3.87908 51.2966 3.50288C52.5355 3.27645 54.8326 3.43808 56.096 3.8404ZM46.2855 9.00693V10.1363H47.4148H48.544V9.00693V7.8776H47.4148H46.2855V9.00693ZM50.8026 9.00693V10.1363H55.3196H59.8366V9.00693V7.8776H55.3196H50.8026V9.00693ZM46.2855 13.5242V14.6536H47.4148H48.544V13.5242V12.3949H47.4148H46.2855V13.5242ZM50.8026 13.5242V14.6536H55.3196H59.8366V13.5242V12.3949H55.3196H50.8026V13.5242ZM40.7473 15.0771C41.0164 17.6094 42.421 20.435 44.3628 22.3503C51.1979 29.0923 62.7692 25.8117 65.1124 16.4678C65.2386 15.9647 65.3418 15.4142 65.3418 15.2445C65.3418 14.3217 67.214 15.8197 67.5776 17.0333C67.6964 17.4299 67.7415 20.903 67.7415 29.6688V41.7574H44.4372H21.1329L21.224 41.0869C21.2787 40.6838 21.1432 38.7228 20.8843 36.171C20.6475 33.8362 20.4537 31.8509 20.4537 31.7596C20.4537 31.6443 20.8483 31.5935 21.743 31.5935C23.4739 31.5935 24.0396 31.4049 24.9049 30.5395C26.333 29.1113 26.333 27.2996 24.9049 25.8714C24.0258 24.9923 23.478 24.8175 21.6018 24.8175C20.5516 24.8175 20.1713 24.7706 20.1712 24.641C20.1712 24.5441 19.9844 24.07 19.7563 23.5877L19.3415 22.7107L20.2721 21.9702C22.0888 20.5244 23.7682 17.9207 24.3562 15.6378L24.6103 14.6513L32.6601 14.6877L40.7098 14.7241L40.7473 15.0771ZM28.2173 18.0415V19.1709H33.8636H39.5099V18.0415V16.9122H33.8636H28.2173V18.0415ZM46.2855 18.0415V19.1709H47.4148H48.544V18.0415V16.9122H47.4148H46.2855V18.0415ZM50.8026 18.0415V19.1709H55.3196H59.8366V18.0415V16.9122H55.3196H50.8026V18.0415ZM28.2173 22.5588V23.6882H33.8636H39.5099V22.5588V21.4295H33.8636H28.2173V22.5588ZM15.7085 22.7305C16.3399 22.9171 17.7717 24.212 17.7717 24.5966C17.7717 24.7783 17.5753 24.8175 16.6675 24.8175C14.4831 24.8175 13.6788 25.3881 12.4727 27.793L11.6995 29.3348H8.08161H4.46374L4.53545 28.075C4.62071 26.5818 5.11589 25.3593 6.04315 24.3532C6.66749 23.6759 7.9492 22.9214 8.8248 22.7158C9.67457 22.5164 15.0222 22.5278 15.7085 22.7305ZM28.2173 27.0762V28.2055H33.8636H39.5099V27.0762V25.9468H33.8636H28.2173V27.0762ZM23.3537 27.4227C23.5723 27.6411 23.7003 27.9305 23.7003 28.2055C23.7003 28.4805 23.5723 28.7699 23.3537 28.9882L23.0073 29.3348H18.6233H14.2392L14.7325 28.355C15.0038 27.8161 15.3382 27.3099 15.4754 27.23C15.6283 27.1409 17.1341 27.0831 19.366 27.0804L23.0073 27.0762L23.3537 27.4227ZM41.7685 29.3348V30.4641H53.6257H65.483V29.3348V28.2055H53.6257H41.7685V29.3348ZM28.2173 34.9814V39.4987H33.8636H39.5099V34.9814V30.4641H33.8636H28.2173V34.9814ZM7.41182 31.9111C7.09605 32.4053 6.76136 33.6944 6.76136 34.4168C6.76136 35.7724 7.45614 37.3327 8.51793 38.3618L9.01988 38.8482V40.5297C9.01988 42.4608 9.0467 42.4404 7.82894 41.443C6.23301 40.1361 5.10883 38.3384 4.71514 36.4637C4.59177 35.8754 4.50679 34.6899 4.50524 33.5345L4.50284 31.5935H6.05882H7.6148L7.41182 31.9111ZM18.1951 31.7569C18.1951 31.8468 18.3913 33.8627 18.631 36.2367C19.0974 40.8539 19.0884 41.1603 18.4642 41.954C17.8743 42.704 17.2557 42.8867 15.307 42.8867H13.5369V44.016V45.1454H14.6662H15.7955V45.6889V46.2325L14.5603 46.3209C13.8811 46.3694 12.8646 46.5305 12.3018 46.6787L11.2784 46.9482V42.4224V37.8966L10.3054 36.8931C8.65231 35.1882 8.56945 33.6996 10.0441 32.1934L10.6313 31.5935H14.4132C17.1844 31.5935 18.1951 31.6371 18.1951 31.7569ZM37.2514 34.9814V37.2401H33.8636H30.4758V34.9814V32.7228H33.8636H37.2514V34.9814ZM41.7685 33.8521V34.9814H53.6257H65.483V33.8521V32.7228H53.6257H41.7685V33.8521ZM41.7685 38.3694V39.4987H42.8977H44.027V38.3694V37.2401H42.8977H41.7685V38.3694ZM46.2855 38.3694V39.4987H55.8842H65.483V38.3694V37.2401H55.8842H46.2855V38.3694ZM67.7415 45.9407C67.7415 47.0392 67.6678 48.1148 67.5698 48.4464C67.3407 49.2218 66.1714 50.3912 65.396 50.6203C64.9521 50.7515 60.1701 50.792 45.1173 50.792H25.4196L24.5952 49.9982C23.0985 48.5569 20.8818 47.2806 18.9819 46.7664L18.054 46.5151V45.7105C18.054 44.9082 18.0555 44.9052 18.6195 44.6509C18.9304 44.5107 19.2558 44.3105 19.3425 44.2061C19.4735 44.0482 23.5831 44.016 43.6207 44.016H67.7415V45.9407ZM54.1903 47.404V48.5333H55.3196H56.4489V47.404V46.2747H55.3196H54.1903V47.404ZM58.7074 47.404V48.5333H59.8366H60.9659V47.404V46.2747H59.8366H58.7074V47.404ZM63.2244 47.404V48.5333H64.3537H65.483V47.404V46.2747H64.3537H63.2244V47.404ZM17.207 48.6837C21.2676 49.3395 24.7105 52.3513 25.9333 56.3168C26.2479 57.3373 27.0087 62.2852 26.8961 62.5786C26.858 62.6783 26.5361 62.8707 26.181 63.0064C25.8258 63.142 25.5353 63.3096 25.5353 63.3789C25.5353 63.4842 26.3411 65.1762 26.4509 65.3016C26.4702 65.3237 27.9648 64.6713 29.7722 63.852C31.5794 63.0325 33.077 62.3809 33.1 62.4039C33.1923 62.4961 34.2781 64.9257 34.3165 65.1257C34.3678 65.3932 30.4212 67.2245 29.1442 67.5258C26.7877 68.0816 24.3852 67.4027 22.629 65.685C21.4844 64.5654 21.0842 63.7248 20.047 60.2621C19.5723 58.6771 19.158 57.3545 19.1265 57.3229C19.0057 57.2022 17.066 57.8709 17.0676 58.0327C17.0722 58.516 18.8294 63.9916 19.2648 64.8798C19.5628 65.4878 20.1188 66.2831 20.6219 66.8208L21.4741 67.7319H12.9885H4.50284L4.50397 63.1793C4.5051 58.1768 4.58372 57.3826 5.25464 55.5997C6.35257 52.6818 8.75437 50.3065 11.6904 49.2349C13.552 48.5555 15.3199 48.3789 17.207 48.6837ZM33.8636 56.2767V59.5028L31.5272 60.5748C30.0004 61.2755 29.171 61.5884 29.1336 61.478C29.1021 61.3849 28.9434 60.356 28.7808 59.1914C28.4391 56.7414 28.1034 55.392 27.5104 54.0844C27.2782 53.572 27.0881 53.1298 27.0881 53.1018C27.0881 53.0737 28.6126 53.0507 30.4758 53.0507H33.8636V56.2767ZM45.1561 54.2153L45.1558 55.3799H42.8623C40.8398 55.3799 40.4584 55.418 39.6357 55.7023C38.5457 56.0792 37.6455 56.6231 36.7581 57.4412L36.1222 58.0275V55.539V53.0507H40.6392H45.1562L45.1561 54.2153ZM56.4489 53.846C56.4489 54.2835 56.5261 54.9027 56.6205 55.2223C56.8496 55.9978 58.019 57.1672 58.7943 57.3963C59.188 57.5126 60.6123 57.568 63.2119 57.568H67.0485L67.3949 57.9145C67.6134 58.1329 67.7415 58.4223 67.7415 58.6973C67.7415 58.9723 67.6134 59.2617 67.3949 59.48L67.0485 59.8266H58.2903C51.3779 59.8266 49.5321 59.7895 49.532 59.6502C49.5317 59.224 48.6579 57.6857 48.0641 57.0658L47.4148 56.3881V54.7194V53.0507H51.9318H56.4489V53.846ZM45.0693 57.7396C45.4353 57.8477 45.9131 58.1743 46.3609 58.6219C47.43 59.6912 47.742 61.0651 47.0682 61.7387C46.7345 62.0726 46.6517 62.0853 44.8097 62.0853H42.8977V61.4751C42.8977 60.2308 42.021 58.6833 41.0092 58.1418C40.2239 57.7214 40.5844 57.6147 42.8814 57.5872C43.7908 57.5763 44.7404 57.6425 45.0693 57.7396ZM39.7969 60.0408C40.5929 60.4524 40.8627 61.5054 40.3762 62.3031C40.1725 62.6372 39.7146 62.9132 38.3143 63.5462C37.3244 63.9937 36.4988 64.3404 36.4797 64.3165C36.4607 64.2928 36.1581 63.6292 35.8075 62.8421L35.17 61.4106L36.8812 60.6212C38.6946 59.7847 39.1329 59.6974 39.7969 60.0408Z" fill="white"/>
</svg>
