<svg width="70" height="70" viewBox="0 0 70 70" fill="none" xmlns="http://www.w3.org/2000/svg">
<path fill-rule="evenodd" clip-rule="evenodd" d="M48.7569 0.0447805C43.9894 0.760449 40.3905 2.50359 37.2681 5.60971C35.355 7.5127 33.9296 9.67934 32.9331 12.1993C32.6455 12.9264 32.3739 13.5041 32.3296 13.4828C32.2852 13.4615 31.5823 13.1115 30.7674 12.7051C28.9427 11.795 27.4956 11.4119 25.4764 11.3044C22.8721 11.1659 20.3372 11.7728 17.9829 13.0985C16.3893 13.9959 14.0005 16.4029 13.1036 18.015C12.5306 19.0449 11.7481 21.1515 11.5171 22.2857C11.4525 22.6028 11.3485 22.6674 10.7778 22.7457C10.4125 22.7958 9.59333 23.0888 8.95756 23.3968C4.16418 25.7189 3.04869 32.1626 6.78627 35.9384C7.77237 36.9346 8.51086 37.4097 9.8686 37.9213C10.702 38.2353 11.0726 38.2801 13.3071 38.3365L15.8115 38.3997V40.6435V42.8871H12.4252H9.03897V46.2762V49.6653H5.98655C4.00234 49.6653 2.73094 49.7254 2.35338 49.837C1.57835 50.0662 0.409525 51.236 0.18053 52.0117C-0.0601766 52.8273 -0.0601766 62.3191 0.18053 63.1348C0.409525 63.9105 1.57835 65.0803 2.35338 65.3095C2.67281 65.4039 3.54576 65.4812 4.29342 65.4812H5.65272V66.6109V67.7406H4.52397H3.39521V68.8703V70H10.1677H16.9402V68.8703V67.7406H15.8115H14.6827V66.6109V65.4812H16.042C17.8446 65.4812 18.401 65.2996 19.2731 64.4269C20.2596 63.4395 20.3265 63.1267 20.3265 59.4985V56.4435H22.584H24.8415V59.4985C24.8415 63.1267 24.9084 63.4395 25.8949 64.4269C26.767 65.2996 27.3233 65.4812 29.126 65.4812H30.4853V66.6109V67.7406H29.3565H28.2278V68.8703V70H35.0003H41.7728V68.8703V67.7406H40.644H39.5153V66.6109V65.4812H40.8746C42.6772 65.4812 43.2335 65.2996 44.1056 64.4269C45.0921 63.4395 45.159 63.1267 45.159 59.4985V56.4435H47.4165H49.674V59.4985C49.674 63.1267 49.7409 63.4395 50.7274 64.4269C51.5995 65.2996 52.1559 65.4812 53.9585 65.4812H55.3178V66.6109V67.7406H54.189H53.0603V68.8703V70H59.8328H66.6053V68.8703V67.7406H65.4766H64.3478V66.6109V65.4812H65.7071C66.4548 65.4812 67.3277 65.4039 67.6471 65.3095C68.4222 65.0803 69.591 63.9105 69.82 63.1348C70.0577 62.3294 70.061 52.8249 69.8238 52.0326C69.7315 51.7245 69.3816 51.1668 69.0461 50.7933C68.1139 49.7555 67.7135 49.6653 64.0405 49.6653H60.9615V46.2762V42.8871H57.5719H54.1824L54.2209 40.472L54.2596 38.0569L55.539 37.7333C62.6873 35.9255 68.2036 30.064 69.6651 22.7232C70.003 21.0263 70.0026 17.2981 69.6642 15.5989C69.3764 14.1524 68.5974 11.8441 67.9872 10.6291C65.3119 5.30272 60.2459 1.4435 54.4362 0.306166C53.3089 0.0854499 49.6177 -0.0844297 48.7569 0.0447805ZM52.1428 2.51206C53.0857 2.86509 54.3861 4.01796 55.2082 5.22943C55.7433 6.0181 56.7231 7.9756 56.9344 8.67814L57.03 8.99587H50.8028H44.5756L44.6711 8.67814C44.8825 7.9756 45.8622 6.0181 46.3974 5.22943C47.1944 4.05481 48.5221 2.86537 49.4227 2.51898C50.3858 2.14843 51.1667 2.14646 52.1428 2.51206ZM44.8768 3.40382C44.8768 3.43475 44.6453 3.80021 44.3623 4.2158C43.7774 5.07466 42.7762 7.15205 42.4157 8.2545L42.1733 8.99587H39.7017H37.2298L37.9611 8.15099C39.4639 6.41491 41.3235 4.98019 43.3851 3.9667C44.5683 3.3849 44.8768 3.26854 44.8768 3.40382ZM57.9561 3.84116C59.659 4.62856 61.3494 5.83636 62.831 7.32418C63.5877 8.08391 64.2067 8.77091 64.2067 8.8507C64.2067 8.94432 63.36 8.99587 61.8194 8.99587H59.4322L59.1919 8.2545C58.8516 7.20458 57.8359 5.10629 57.2369 4.2158C56.9574 3.80021 56.7287 3.43475 56.7287 3.40382C56.7287 3.29212 56.9044 3.35482 57.9561 3.84116ZM41.4437 11.573C41.1529 12.765 40.6748 16.5755 40.6463 17.9276C40.645 17.9858 39.7242 18.0335 38.6 18.0335H36.5558L36.2131 17.4903C36.0247 17.1915 35.5359 16.5446 35.127 16.0529L34.3835 15.1587L34.6086 14.3014C34.7322 13.8299 35.0578 12.9517 35.3321 12.3497L35.8307 11.2553H38.676H41.5212L41.4437 11.573ZM57.9564 12.1026C58.1562 12.9842 58.5007 15.4846 58.6326 17.0097L58.7211 18.0335H50.7993H42.8774L42.9678 16.9391C43.1315 14.9593 43.6442 11.6902 43.8429 11.3599C43.8785 11.3009 47.0289 11.2691 50.844 11.2893L57.7804 11.3259L57.9564 12.1026ZM66.0896 11.926C66.7595 13.2654 67.3654 15.3578 67.5615 17.0097L67.683 18.0335H64.3408H60.9985L60.911 17.504C60.8629 17.2128 60.8226 16.6885 60.8213 16.339C60.8192 15.7042 60.3661 12.3779 60.1819 11.6436L60.0844 11.2553H62.9192H65.7539L66.0896 11.926ZM26.8397 13.7144C32.0765 14.7246 35.7441 18.9172 36.0843 24.2822C36.1324 25.0395 36.1863 25.659 36.2041 25.659C36.2219 25.659 36.6726 25.488 37.2057 25.279C38.0068 24.965 38.4073 24.8978 39.5153 24.8907C40.7367 24.8831 40.9393 24.922 41.7982 25.3293C43.1099 25.9512 43.9269 26.7517 44.5615 28.0371C45.0589 29.0442 45.0885 29.1799 45.0885 30.4529C45.0885 31.6744 45.0463 31.8909 44.6419 32.7451C44.0205 34.058 43.2207 34.8756 41.9364 35.5108L40.8703 36.0382H25.9702H11.0702L10.0041 35.5108C8.71982 34.8756 7.91996 34.058 7.29858 32.7451C6.89477 31.892 6.85202 31.6735 6.85202 30.4603C6.85202 29.2471 6.89477 29.0285 7.29858 28.1755C7.91361 26.8762 8.72193 26.0438 9.96751 25.4279C10.8505 24.9911 11.1768 24.9082 12.258 24.8465L13.5188 24.7746L13.612 23.8399C13.9201 20.7452 15.3958 17.9232 17.6845 16.0513C19.0919 14.9003 21.4565 13.8595 23.2189 13.6157C24.187 13.4816 25.8712 13.5275 26.8397 13.7144ZM24.8415 16.8726V17.971L25.843 18.1288C28.0105 18.4704 30.0153 19.9622 30.9267 21.9115C31.1642 22.4193 31.3932 22.8348 31.4357 22.8348C31.4783 22.8348 31.9484 22.705 32.4806 22.5464C33.0804 22.3676 33.4482 22.1826 33.4482 22.0597C33.4482 21.6764 32.3248 19.6942 31.6785 18.937C30.9066 18.0327 29.5691 17.0449 28.4404 16.5453C27.591 16.1694 25.9588 15.7741 25.2556 15.7741H24.8415V16.8726ZM40.6945 20.8225C40.7426 21.1138 40.7827 21.638 40.7836 21.9875L40.7853 22.6229L39.4897 22.6049L38.1942 22.5867L37.9436 21.5458C37.8056 20.9732 37.6902 20.457 37.687 20.3988C37.6837 20.3407 38.3394 20.2929 39.144 20.2929H40.6071L40.6945 20.8225ZM58.6372 21.3873C58.5191 22.8078 58.1762 25.2379 57.9548 26.2239L57.7804 27.0006L52.2105 27.0343L46.6405 27.0681L46.2172 26.3456C45.7189 25.4951 44.3829 24.1229 43.689 23.749C43.2252 23.499 43.196 23.4382 43.118 22.56C43.0728 22.0509 43.0034 21.3327 42.9637 20.9637L42.8918 20.2929H50.81H58.7282L58.6372 21.3873ZM67.5615 21.3167C67.3654 22.9686 66.7595 25.061 66.0896 26.4004L65.7539 27.0712H62.9192H60.0844L60.1819 26.6828C60.3661 25.9485 60.8192 22.6222 60.8213 21.9875C60.8226 21.638 60.8629 21.1138 60.911 20.8225L60.9985 20.2929H64.3408H67.683L67.5615 21.3167ZM15.8115 27.2557C15.119 27.4742 13.9379 28.6982 13.7255 29.4176C13.3347 30.7416 13.6103 31.7972 14.6074 32.7951C16.0348 34.2238 17.8456 34.2238 19.2731 32.7951C20.6519 31.4152 20.6931 29.6597 19.381 28.1992C18.4679 27.1827 17.1486 26.8339 15.8115 27.2557ZM24.8415 27.2557C24.149 27.4742 22.9679 28.6982 22.7556 29.4176C22.3647 30.7416 22.6403 31.7972 23.6374 32.7951C25.0648 34.2238 26.8756 34.2238 28.3031 32.7951C29.6819 31.4152 29.7231 29.6597 28.411 28.1992C27.4979 27.1827 26.1786 26.8339 24.8415 27.2557ZM33.8715 27.2557C33.179 27.4742 31.9979 28.6982 31.7856 29.4176C31.3947 30.7416 31.6703 31.7972 32.6674 32.7951C34.0949 34.2238 35.9057 34.2238 37.3331 32.7951C38.7119 31.4152 38.7531 29.6597 37.441 28.1992C36.5279 27.1827 35.2087 26.8339 33.8715 27.2557ZM17.7226 29.6773C18.4226 30.3777 17.9266 31.59 16.9402 31.59C16.6654 31.59 16.3761 31.4619 16.1579 31.2433C15.9395 31.0249 15.8115 30.7354 15.8115 30.4603C15.8115 30.1852 15.9395 29.8957 16.1579 29.6773C16.3761 29.4587 16.6654 29.3306 16.9402 29.3306C17.2151 29.3306 17.5043 29.4587 17.7226 29.6773ZM26.7526 29.6773C27.4526 30.3777 26.9566 31.59 25.9702 31.59C25.6954 31.59 25.4062 31.4619 25.1879 31.2433C24.9695 31.0249 24.8415 30.7354 24.8415 30.4603C24.8415 30.1852 24.9695 29.8957 25.1879 29.6773C25.4062 29.4587 25.6954 29.3306 25.9702 29.3306C26.2451 29.3306 26.5343 29.4587 26.7526 29.6773ZM35.7826 29.6773C36.4826 30.3777 35.9866 31.59 35.0003 31.59C34.7254 31.59 34.4362 31.4619 34.2179 31.2433C33.9995 31.0249 33.8715 30.7354 33.8715 30.4603C33.8715 30.1852 33.9995 29.8957 34.2179 29.6773C34.4362 29.4587 34.7254 29.3306 35.0003 29.3306C35.2751 29.3306 35.5644 29.4587 35.7826 29.6773ZM56.9344 29.6483C56.7231 30.3508 55.7433 32.3083 55.2082 33.097C54.3782 34.3202 53.0875 35.4598 52.1128 35.8301C51.39 36.1047 51.1272 36.1303 49.8151 36.0535C48.6147 35.9834 45.9431 35.5286 45.7815 35.3669C45.7604 35.3457 45.959 34.9856 46.223 34.5666C46.9876 33.3529 47.3286 32.1513 47.3379 30.6376L47.346 29.3323L52.1879 29.3314L57.03 29.3306L56.9344 29.6483ZM64.2067 29.4698C64.2067 29.7792 61.3758 32.4301 60.2396 33.1844C59.0562 33.9701 56.9052 35.0616 56.7823 34.9386C56.7488 34.905 56.9517 34.535 57.2331 34.1163C57.8355 33.2209 58.8508 31.1244 59.1919 30.0719L59.4322 29.3306H61.8194C63.2941 29.3306 64.2067 29.3838 64.2067 29.4698ZM45.0179 37.4392C46.7167 37.9822 48.2083 38.2417 50.1326 38.3291L51.9315 38.4109V41.7787V45.1465H55.3178H58.704V47.4059V49.6653H55.6516C52.0265 49.6653 51.714 49.7322 50.7274 50.7196C49.9277 51.52 49.674 52.1628 49.674 53.3885V54.1841H47.4165H45.159V53.3885C45.159 52.2515 44.9104 51.569 44.2136 50.7933C43.2813 49.7555 42.8809 49.6653 39.208 49.6653H36.129V44.0326V38.3997L38.6334 38.3336C41.2547 38.2644 41.8621 38.1423 43.2646 37.4022C43.5693 37.2413 43.8504 37.1078 43.8892 37.1054C43.928 37.103 44.4359 37.2531 45.0179 37.4392ZM33.8715 44.0168V49.6653H30.8191C27.194 49.6653 26.8814 49.7322 25.8949 50.7196C25.0952 51.52 24.8415 52.1628 24.8415 53.3885V54.1841H22.584H20.3265V53.3885C20.3265 52.2515 20.0779 51.569 19.381 50.7933C18.4488 49.7555 18.0484 49.6653 14.3754 49.6653H11.2965V47.4059V45.1465H14.6827H18.069V41.7573V38.3682H25.9702H33.8715V44.0168ZM17.7226 52.2714C18.069 52.6179 18.069 52.6183 18.069 55.6605V58.7029H10.1677H2.26646V55.6605C2.26646 52.6183 2.26646 52.6179 2.61285 52.2714L2.95909 51.9247H10.1677H17.3764L17.7226 52.2714ZM42.5551 52.2714C42.9015 52.6179 42.9015 52.6183 42.9015 55.6605V58.7029H35.0003H27.099V55.6605C27.099 52.6183 27.099 52.6179 27.4454 52.2714L27.7916 51.9247H35.0003H42.2089L42.5551 52.2714ZM67.3877 52.2714C67.7341 52.6179 67.7341 52.6183 67.7341 55.6605V58.7029H59.8328H51.9315V55.6605C51.9315 52.6183 51.9315 52.6179 52.2779 52.2714L52.6242 51.9247H59.8328H67.0414L67.3877 52.2714ZM18.069 61.7454C18.069 62.3886 18.007 62.5905 17.7226 62.8751L17.3764 63.2218H10.1677H2.95909L2.61285 62.8751C2.3284 62.5905 2.26646 62.3886 2.26646 61.7454V60.9624H10.1677H18.069V61.7454ZM42.9015 61.7454C42.9015 62.3886 42.8396 62.5905 42.5551 62.8751L42.2089 63.2218H35.0003H27.7916L27.4454 62.8751C27.1609 62.5905 27.099 62.3886 27.099 61.7454V60.9624H35.0003H42.9015V61.7454ZM67.7341 61.7454C67.7341 62.3886 67.6721 62.5905 67.3877 62.8751L67.0414 63.2218H59.8328H52.6242L52.2779 62.8751C51.9935 62.5905 51.9315 62.3886 51.9315 61.7454V60.9624H59.8328H67.7341V61.7454ZM12.4252 66.6109V67.7406H10.1677H7.91022V66.6109V65.4812H10.1677H12.4252V66.6109ZM37.2578 66.6109V67.7406H35.0003H32.7428V66.6109V65.4812H35.0003H37.2578V66.6109ZM62.0903 66.6109V67.7406H59.8328H57.5753V66.6109V65.4812H59.8328H62.0903V66.6109Z" fill="white"/>
</svg>
