<svg width="70" height="71" viewBox="0 0 70 71" fill="none" xmlns="http://www.w3.org/2000/svg">
<path fill-rule="evenodd" clip-rule="evenodd" d="M30.9589 0.0652244C25.8056 0.371044 21.871 0.898707 17.8837 1.81849C8.40027 4.00628 2.04315 7.86856 0.359452 12.4657L0 13.4472V35.8092V58.1713L0.359452 59.1528C1.28247 61.6729 3.6063 64.0102 7.19986 66.0328C7.87082 66.4105 8.45178 66.7195 8.49082 66.7195C8.52973 66.7195 8.56164 62.7894 8.56164 57.9859V49.2522L10.0084 48.6159C11.7114 47.867 14.5173 46.9037 16.4278 46.4123C18.1603 45.9665 22.2108 45.1548 23.3052 45.034C24.5025 44.9019 24.509 44.8941 24.3673 43.7912L24.2466 42.853L23.7671 42.8945C23.5034 42.9174 22.363 43.0927 21.2329 43.2842C20.1027 43.4758 19.1164 43.6417 19.0411 43.6531C18.9586 43.6654 18.9041 43.1949 18.9041 42.4699V41.266L19.7133 40.9376C21.1314 40.3622 22.1319 39.3371 22.6658 37.9127C22.9473 37.1611 22.9558 36.9573 22.9168 31.856L22.8767 26.5772L22.4768 25.764C21.7007 24.1858 20.0812 23.05 18.3496 22.8692C16.8184 22.7095 15.0462 23.4036 14.0274 24.5622C13.5625 25.0908 12.8085 26.5657 12.8084 26.9469C12.8082 27.1445 12.7092 27.1681 12.153 27.1023C11.3392 27.0061 9.91849 27.35 9.21521 27.8135C8.93438 27.9985 8.67233 28.1501 8.63301 28.1501C8.59384 28.1501 8.56164 26.7988 8.56164 25.1471V22.1442L7.56849 21.5737C3.46945 19.2189 1.47986 16.2669 2.19069 13.5942C2.51644 12.3698 3.04452 11.5127 4.17808 10.369C10.6319 3.85707 28.6099 0.532298 45.5479 2.71804C52.6652 3.63645 59.4666 5.79183 63.2877 8.33974L64.3836 9.0705L58.4589 9.1062L52.5342 9.14176V16.6628V24.1837H50.274H48.0137V33.6386V43.0934L47.0205 42.9959C46.4742 42.9421 45.9673 42.8881 45.8938 42.8757C45.8203 42.8632 45.7044 43.2752 45.6362 43.7912C45.4904 44.8944 45.4964 44.9015 46.6948 45.0346C48.0452 45.1845 52.0392 46.0081 54.0286 46.547C56.17 47.1269 58.296 47.8666 60.1329 48.6709L61.4384 49.2426V57.9811C61.4384 62.7872 61.4785 66.7195 61.5277 66.7195C61.6758 66.7195 63.7666 65.4921 64.863 64.7614C66.21 63.8639 68.2495 61.8165 68.8845 60.7244C69.1616 60.2479 69.526 59.4786 69.6941 59.0148L70 58.1713V35.8092V13.4472L69.6405 12.4657C67.2396 5.91027 55.5338 1.06557 39.7945 0.113231C37.7522 -0.0102733 32.6944 -0.0377643 30.9589 0.0652244ZM40.2055 5.37769V6.40347H41.2329H42.2603V5.37769V4.3519H41.2329H40.2055V5.37769ZM35.0667 6.95233L34.3904 7.63797L35.1044 8.35082L35.8184 9.06367L36.5051 8.38843C36.8827 8.01696 37.1918 7.65151 37.1918 7.57628C37.1918 7.39041 36.0758 6.2667 35.891 6.2667C35.8097 6.2667 35.4388 6.57525 35.0667 6.95233ZM45.7134 6.85317C45.3964 7.17568 45.137 7.50119 45.137 7.57628C45.137 7.65151 45.446 8.01696 45.8237 8.38843L46.5104 9.06367L47.2244 8.35082L47.9384 7.63797L47.2621 6.95233C46.89 6.57525 46.519 6.2667 46.4378 6.2667C46.3564 6.2667 46.0305 6.53067 45.7134 6.85317ZM39.9137 8.66033C38.4864 9.11878 37.2594 10.337 36.9047 11.6477C36.6737 12.5007 36.8129 14.1522 37.1751 14.8552C37.6347 15.7475 38.3653 16.4753 39.2245 16.8965C39.8878 17.2218 40.1684 17.2768 41.1644 17.2768C42.1604 17.2768 42.441 17.2218 43.1042 16.8965C45.3016 15.8191 46.2199 13.1608 45.1464 10.9838C44.4167 9.50379 43.0948 8.61984 41.4538 8.51467C40.8749 8.47747 40.319 8.53012 39.9137 8.66033ZM22.1108 9.12467C21.6896 9.25925 21.0423 9.57806 20.6725 9.833C20.0347 10.2729 19.9366 10.2973 18.7671 10.3079C18.0482 10.3143 17.3811 10.3939 17.1668 10.4988C16.8545 10.6519 16.6652 10.6426 15.9036 10.4367C13.7725 9.86063 11.7133 10.7959 10.7325 12.7852C10.3697 13.5208 10.2884 13.8498 10.2855 14.5917C10.2784 16.3873 11.2022 17.898 12.7804 18.6718L13.5616 19.0548H19.2466H24.9315L25.7089 18.691C26.7969 18.1818 27.6571 17.3411 28.1849 16.2712C28.7821 15.0608 28.8786 13.4537 28.4264 12.2502C27.4636 9.68748 24.6726 8.30637 22.1108 9.12467ZM42.5095 10.9527C43.5525 11.6418 43.8586 13.1559 43.1663 14.2004C42.4966 15.211 41.2612 15.5489 40.1234 15.033C39.3325 14.6743 38.931 14.055 38.8607 13.0853C38.8125 12.4192 38.8592 12.2001 39.1584 11.6905C39.8512 10.51 41.3425 10.1816 42.5095 10.9527ZM25.2127 11.3926C25.6185 11.63 25.9633 11.9889 26.2399 12.4619C26.6163 13.1053 26.6522 13.2681 26.6136 14.1566C26.5586 15.4228 26.1049 16.1406 25.0088 16.6955L24.2659 17.0716H19.2166C14.4614 17.0716 14.1363 17.0559 13.6377 16.8019C11.8395 15.8859 11.8942 13.341 13.7297 12.5304C14.5171 12.1826 15.3771 12.2722 16.1497 12.7826C16.6256 13.0972 16.7268 13.1187 16.9762 12.9588C18.1745 12.1901 18.8088 12.1156 19.8864 12.6166L20.5948 12.9459L20.9722 12.4024C21.9712 10.9629 23.7531 10.5386 25.2127 11.3926ZM67.0534 11.8258C67.674 12.8027 67.9412 13.7266 67.9284 14.8505C67.9186 15.7081 67.8475 15.9836 67.4069 16.8741C66.5712 18.5623 64.9289 20.1159 62.4315 21.5808L61.4384 22.1633V23.1735V24.1837H58.0137H54.589V17.6871V11.1905H60.6195H66.6499L67.0534 11.8258ZM32.6256 11.9655C32.5753 12.0156 32.5342 12.4772 32.5342 12.9913V13.9259H33.5616H34.589V12.9001V11.8743H33.653C33.1381 11.8743 32.6758 11.9153 32.6256 11.9655ZM47.7397 12.9001V13.9259H48.7671H49.7945V12.9001V11.8743H48.7671H47.7397V12.9001ZM57.1918 14.9517V15.9774H58.2192H59.2466V14.9517V13.9259H58.2192H57.1918V14.9517ZM61.3014 14.9517V15.9774H62.3288H63.3562V14.9517V13.9259H62.3288H61.3014V14.9517ZM35.0975 17.4524C34.7426 17.8124 34.4521 18.1685 34.4521 18.244C34.4521 18.3195 34.7603 18.6843 35.137 19.0548L35.8219 19.7284L36.5068 19.0548C36.8836 18.6843 37.1918 18.315 37.1918 18.2342C37.1918 18.091 35.9496 16.7981 35.8121 16.7981C35.7741 16.7981 35.4526 17.0925 35.0975 17.4524ZM45.7844 17.4506C45.4284 17.8115 45.137 18.1685 45.137 18.244C45.137 18.3195 45.446 18.6851 45.8237 19.0566L46.5104 19.7318L47.2263 19.0172L47.9421 18.3024L47.1868 17.5484L46.4316 16.7944L45.7844 17.4506ZM40.2055 20.4165V21.4483H41.2389H42.2723L42.2321 20.4567L42.1918 19.4651L41.1986 19.4249L40.2055 19.3847V20.4165ZM57.1918 20.4225V21.4483H58.2192H59.2466V20.4225V19.3967H58.2192H57.1918V20.4225ZM5.34973 22.6196L6.50685 23.3882V43.2836V63.1789L6.07452 62.9319C5.35137 62.5186 3.1689 60.2671 2.77589 59.5288C1.94904 57.976 1.9863 58.9671 1.9863 38.5017V19.7786L3.08945 20.8148C3.69616 21.3846 4.71329 22.1968 5.34973 22.6196ZM67.8695 57.791C67.6542 58.8332 67.0281 59.9863 66.1526 60.9521C65.4981 61.6743 64.273 62.7214 63.6644 63.0789C63.5277 63.1594 63.4931 59.1629 63.4931 43.2839V23.3882L64.6918 22.5925C65.3511 22.1548 66.3527 21.3546 66.9178 20.8141L67.9452 19.8312L67.981 38.4543C68.0058 51.3427 67.9714 57.2969 67.8695 57.791ZM18.8522 25.0786C19.5567 25.3267 20.26 25.9605 20.6333 26.6837C20.8856 27.1728 20.8979 27.4713 20.861 32.2332L20.8219 37.2657L20.444 37.8356C19.8907 38.6702 19.1156 39.1324 18.1529 39.2019C16.7866 39.3006 15.7348 38.7262 15.0947 37.5319C14.8019 36.9858 14.7945 36.8513 14.7945 32.1164C14.7945 27.295 14.7967 27.2565 15.1167 26.6077C15.4715 25.8884 16.0941 25.3439 16.8833 25.0627C17.5674 24.819 18.1279 24.8234 18.8522 25.0786ZM33.2192 25.3459C29.7671 26.0398 26.9568 28.7067 26.0129 32.1848C25.7305 33.2248 25.5882 39.099 25.8003 40.9631C26.0748 43.3779 26.8855 45.0611 28.5959 46.7675L29.6575 47.8266V49.7506C29.6575 50.8089 29.6363 51.6747 29.6103 51.6747C29.5844 51.6747 27.709 52.0706 25.443 52.5547C20.7711 53.5524 20.2044 53.7632 18.8884 54.9922C17.8495 55.9626 17.1504 57.266 16.9266 58.65C16.8445 59.1581 16.7825 61.7807 16.7819 64.7705L16.7808 70.002H17.8H18.819L18.8616 64.3602L18.9041 58.7184L19.2993 57.864C19.7463 56.8978 20.6041 56.0257 21.4941 55.6326C21.8149 55.4909 24.1066 54.9424 26.5866 54.4139L31.0959 53.4529L35 53.4533L38.9041 53.4537L43.4003 54.4086C45.873 54.9337 48.1647 55.4818 48.4927 55.6268C49.3951 56.0254 50.2515 56.8931 50.7007 57.864L51.0959 58.7184L51.1384 64.3602L51.181 70.002H52.2H53.2192L53.2181 64.7705C53.2175 61.7807 53.1555 59.1581 53.0734 58.65C52.8496 57.266 52.1505 55.9626 51.1116 54.9922C50.6258 54.5384 49.8775 54.0016 49.4488 53.799C48.7832 53.4846 46.3292 52.9034 40.7192 51.7316L40.3425 51.6529V49.7353V47.8177L41.3438 46.8398C43.0334 45.1897 43.9292 43.3431 44.2015 40.9481C44.4118 39.0987 44.2679 33.2195 43.9871 32.1848C42.6847 27.3862 37.9688 24.3911 33.2192 25.3459ZM61.4384 36.5615C61.4384 42.6851 61.3875 46.8877 61.3136 46.8877C61.2448 46.8877 60.6967 46.6775 60.0955 46.4205C57.8595 45.465 54.4066 44.41 51.5781 43.818L50.137 43.5164L50.1018 34.8759L50.0664 26.2353H55.7525H61.4384V36.5615ZM37.2493 27.5968C39.4569 28.3618 41.0441 29.9505 41.8189 32.1709C42.1011 32.9795 42.1589 33.4058 42.1644 34.7151C42.1749 37.2072 41.5518 38.8268 40.0189 40.2918C38.51 41.7338 36.9664 42.3743 35 42.3743C31.7804 42.3743 28.9978 40.2598 28.0704 37.1086C27.7095 35.8817 27.7479 33.4305 28.1468 32.2532C29.0144 29.6922 31.0304 27.9021 33.6986 27.3234C34.5329 27.1425 36.34 27.2816 37.2493 27.5968ZM12.3523 29.1909C12.6475 29.27 12.6501 29.3009 12.6992 33.2579C12.7451 36.9524 12.7703 37.2987 13.0423 37.9715C13.2038 38.3708 13.5044 38.9179 13.71 39.1872C14.1579 39.7736 14.0818 39.9656 13.2199 40.4205C11.7449 41.1994 9.90452 40.5808 9.06274 39.0234C8.78192 38.5038 8.76712 38.3015 8.76712 34.9886C8.76712 31.6031 8.77658 31.4818 9.08931 30.8476C9.6874 29.635 11.1803 28.877 12.3523 29.1909ZM52.8082 30.1332V31.159H53.8356H54.863V30.1332V29.1075H53.8356H52.8082V30.1332ZM56.9178 30.1332V31.159H57.9452H58.9726V30.1332V29.1075H57.9452H56.9178V30.1332ZM52.8082 35.6041V36.6299H53.8356H54.863V35.6041V34.5783H53.8356H52.8082V35.6041ZM56.9178 35.6041V36.6299H57.9452H58.9726V35.6041V34.5783H57.9452H56.9178V35.6041ZM52.8082 41.0749V42.1007H53.8356H54.863V41.0749V40.0491H53.8356H52.8082V41.0749ZM56.9178 41.0749V42.1007H57.9452H58.9726V41.0749V40.0491H57.9452H56.9178V41.0749ZM16.7505 42.7051C16.7132 44.1651 16.7047 44.2007 16.3699 44.301C15.5551 44.5452 12.98 45.2465 12.8981 45.2465C12.8486 45.2465 12.8082 44.6906 12.8082 44.0113C12.8082 42.9555 12.843 42.7647 13.0479 42.6984C13.7999 42.455 14.9916 41.7812 15.3822 41.3786C15.806 40.9414 15.8611 40.9228 16.3108 41.0629L16.7889 41.2117L16.7505 42.7051ZM30.2108 43.1187C30.6499 43.3757 31.46 43.7565 32.0114 43.9649C32.9385 44.3156 33.1627 44.3442 35 44.3449C36.8888 44.3455 37.0408 44.3249 38.097 43.9237C39.4297 43.4174 40.504 42.752 41.4345 41.8564C41.8133 41.4919 42.1233 41.2374 42.1233 41.2909C42.1233 41.6036 41.5212 43.2253 41.1988 43.7811C40.6642 44.7028 39.3555 45.9709 38.4319 46.4625C36.3207 47.5861 33.6764 47.5844 31.5605 46.4585C30.6042 45.9496 29.1386 44.4704 28.6645 43.5356C28.3686 42.9524 27.8767 41.5465 27.8767 41.2843C27.8767 41.2388 28.2223 41.5278 28.6447 41.9266C29.067 42.3254 29.7718 42.8618 30.2108 43.1187ZM10.2018 42.5422L10.761 42.7162L10.7229 44.4L10.6849 46.0836L9.73 46.4857C9.20479 46.7068 8.72699 46.8877 8.66836 46.8877C8.60959 46.8877 8.56164 45.7175 8.56164 44.2873V41.687L9.10205 42.0275C9.39931 42.2149 9.89425 42.4465 10.2018 42.5422ZM35.411 49.3053C36.321 49.2679 37.227 49.1525 37.5562 49.032C37.8695 48.9173 38.1623 48.8597 38.2068 48.9041C38.2512 48.9486 38.2877 49.5285 38.2877 50.1931V51.4011H35H31.7123V50.1931C31.7123 49.5285 31.7426 48.9546 31.7797 48.9177C31.8167 48.8806 32.2945 48.9673 32.8414 49.1101C33.6375 49.3181 34.1493 49.357 35.411 49.3053ZM23.6301 65.8989V70.002H24.6575H25.6849V65.8989V61.7957H24.6575H23.6301V65.8989ZM44.3151 65.8989V70.002H45.3425H46.3699V65.8989V61.7957H45.3425H44.3151V65.8989Z" fill="white"/>
</svg>
