<svg width="66" height="70" viewBox="0 0 66 70" fill="none" xmlns="http://www.w3.org/2000/svg">
<path fill-rule="evenodd" clip-rule="evenodd" d="M14.9059 0.129993C12.6174 0.425911 9.64106 1.64888 7.7191 3.08301C5.49229 4.74459 3.46319 7.33787 2.48549 9.77135C1.50711 12.2068 1.22076 14.2264 1.21364 18.7397C1.21021 20.9709 1.18651 21.1926 0.871254 21.9577C0.412685 23.0704 0.401587 24.4198 0.843441 25.3742L1.15719 26.0522L0.826041 26.8713C0.3735 27.9913 0.434195 29.656 0.970311 30.8223C1.72249 32.459 3.41894 33.6446 5.18978 33.7712C6.11829 33.8376 6.1435 33.8491 6.1435 34.2098C6.1435 35.474 7.21518 38.2694 8.34687 39.9573C12.2148 45.7258 19.5985 47.8164 25.8172 44.9038C26.4715 44.5974 27.0291 44.3466 27.0563 44.3466C27.2207 44.3466 27.0524 45.0056 26.7317 45.6178C26.4058 46.2402 26.3573 46.4909 26.3549 47.5646C26.3529 48.534 26.4118 48.9159 26.6311 49.3542L26.9099 49.9116L26.6314 50.5182C26.4104 50.9995 26.3527 51.408 26.3526 52.4943C26.3523 53.6912 26.3982 53.9616 26.7168 54.6408C27.485 56.2786 29.0051 57.3747 30.8754 57.6394C31.3927 57.7126 31.8257 57.7866 31.8373 57.8037C31.8491 57.8208 31.9567 58.3347 32.0766 58.9457C33.0781 64.054 37.0751 68.2553 42.2454 69.6345C43.4502 69.9559 43.8715 70 45.7391 70C47.5839 70 48.0338 69.9541 49.1658 69.6507C53.1473 68.5831 56.3748 65.9396 58.2418 62.2167C58.7817 61.1401 59.3642 59.3958 59.5107 58.4168C59.5643 58.0589 59.6473 57.7651 59.6954 57.7636C59.7433 57.7621 60.2072 57.6995 60.7264 57.6246C62.5042 57.3677 64.007 56.2556 64.7585 54.6408C65.2655 53.5516 65.3334 52.0083 64.9276 50.8041L64.6355 49.9374L64.9149 49.1909C65.3166 48.1178 65.2914 46.8202 64.8505 45.8736C64.5267 45.1784 64.5092 45.0143 64.5071 42.6556C64.5029 37.6955 64.1262 35.498 62.8138 32.7756C60.4522 27.8763 55.7617 24.5556 50.3516 23.9527C47.8349 23.6722 41.5173 23.7934 39.8299 24.1545C39.4742 24.2307 39.4687 24.2201 39.4135 23.3525C39.3749 22.7471 39.2418 22.2506 38.9861 21.7579L38.6146 21.0422V17.5782C38.6146 13.9442 38.502 12.8902 37.9077 10.9617C36.1652 5.30712 30.8289 0.865885 24.8821 0.120545C23.5601 -0.0451472 16.2068 -0.0381635 14.9059 0.129993ZM16.0081 4.49646V6.80642L16.3692 7.09015C16.7825 7.41524 16.9553 7.43592 17.4334 7.21819C17.9512 6.98252 18.0633 6.43369 18.0633 4.13563V2.03354H19.9814H21.8995V8.74338V15.4532H19.9814H18.0633V12.9131C18.0633 9.80833 17.9349 9.42806 16.8875 9.42806C16.7052 9.42806 16.4329 9.5513 16.2822 9.70193C16.0265 9.95745 16.0081 10.1583 16.0081 12.707V15.4382L11.9321 15.4812C7.24053 15.5306 7.16229 15.5478 5.79631 16.839C5.09675 17.5003 4.36238 18.7148 4.36238 19.2105C4.36238 19.3281 4.3084 19.4244 4.2425 19.4244C4.1766 19.4244 3.92998 19.4628 3.69446 19.5099L3.26631 19.5955L3.2685 17.9694C3.27151 15.6467 3.48991 13.3565 3.82147 12.1668C5.24677 7.05441 9.53666 3.16093 14.7394 2.25784C15.3242 2.15637 15.8489 2.09872 15.9054 2.12994C15.9618 2.16116 16.0081 3.22611 16.0081 4.49646ZM26.6891 2.59292C30.345 3.58406 33.6456 6.42287 35.3335 10.028C36.3033 12.0994 36.4578 12.9335 36.5258 16.4654L36.5861 19.6002L36.2645 19.5142C36.0876 19.4668 35.8659 19.4272 35.7717 19.4263C35.6776 19.4252 35.5999 19.3474 35.5991 19.2532C35.5962 18.8746 34.8688 17.544 34.3935 17.0477C33.7197 16.3441 33.056 15.9328 32.1714 15.6701C31.5822 15.4953 30.7141 15.4532 27.6975 15.4532H23.9547V8.83471C23.9547 5.19442 23.9863 2.18444 24.0249 2.14582C24.1285 2.0423 25.5189 2.27564 26.6891 2.59292ZM31.9697 17.7669C32.2711 17.9063 32.6841 18.1977 32.8872 18.4143C33.6313 19.2073 33.6823 19.521 33.6823 23.3024V26.7785L32.8622 27.4225C32.411 27.7767 31.6573 28.4959 31.1872 29.0207L30.3326 29.9747L19.3684 29.9373L8.40414 29.8999L7.79363 29.5576C7.45796 29.3693 6.99555 28.9482 6.76606 28.6218L6.34901 28.0283L6.30613 24.0344C6.25899 19.6522 6.30229 19.3101 7.00487 18.5104C7.93311 17.4538 7.15997 17.5133 19.9814 17.5133C30.8281 17.5133 31.4501 17.5264 31.9697 17.7669ZM4.22537 23.6694C4.22537 25.2353 4.18016 25.8603 4.06699 25.8603C3.75968 25.8603 2.96078 25.1337 2.77225 24.6827C2.47988 23.9833 2.53002 23.1012 2.89282 22.5632C3.14752 22.1854 3.98465 21.4784 4.17714 21.4784C4.20372 21.4784 4.22537 22.4643 4.22537 23.6694ZM36.7821 22.1843C37.2278 22.6759 37.3815 23.052 37.3815 23.6514C37.3815 24.6598 37.0742 25.0558 36.0457 25.373L35.7374 25.468V23.4697V21.4714L36.1142 21.6672C36.3214 21.775 36.622 22.0076 36.7821 22.1843ZM47.6572 32.5702V39.28H45.7391H43.821V32.5702V25.8603H45.7391H47.6572V32.5702ZM41.7658 32.6293V39.2615L37.7583 39.3049L33.7508 39.3485L32.9733 39.7127C31.9193 40.2067 31.0334 41.0574 30.5348 42.0546C30.3067 42.5109 30.1201 42.9563 30.1201 43.0446C30.1201 43.133 29.8985 43.2732 29.6278 43.3562L29.1357 43.5072L29.1933 40.3324C29.2472 37.3711 29.2758 37.0766 29.6178 35.9547C30.7398 32.2745 32.8961 29.5266 36.0891 27.708C37.6997 26.7907 40.0094 26.0403 41.3205 26.0081L41.7658 25.9973V32.6293ZM51.9864 26.3396C57.1097 27.6386 61.0849 31.8273 62.1229 37.0206C62.2283 37.5478 62.3555 39.1961 62.406 40.6836C62.4939 43.2855 62.4875 43.3879 62.2361 43.3862C61.7749 43.3829 61.3581 43.224 61.3581 43.0516C61.3581 42.9595 61.1715 42.5109 60.9434 42.0546C60.4448 41.0574 59.5589 40.2067 58.5049 39.7127L57.7274 39.3485L53.7199 39.3049L49.7123 39.2615V32.6293V25.9973H50.1743C50.4284 25.9973 51.2438 26.1513 51.9864 26.3396ZM4.36375 28.2416C4.36676 28.5814 5.05195 29.8357 5.51367 30.3465C5.85824 30.7276 6.00649 31.0206 6.00649 31.3201C6.00649 31.7265 5.97922 31.7486 5.47407 31.7486C5.15799 31.7486 4.64311 31.5931 4.20674 31.3661C3.19314 30.8385 2.58126 29.842 2.58126 28.719C2.58126 27.5196 2.59209 27.5094 3.54526 27.8218C3.99465 27.9691 4.36293 28.158 4.36375 28.2416ZM18.9621 32.0224H29.0062L28.4576 33.1924C27.5416 35.1462 27.2211 36.6403 27.1224 39.417L27.0374 41.8133L26.2838 42.3214C25.3828 42.9288 23.8335 43.572 22.5161 43.8853C21.2337 44.1904 18.5908 44.1913 17.3332 43.8872C13.6865 43.0051 10.7414 40.594 9.17043 37.2046C8.50813 35.7756 8.21151 34.6243 8.103 33.0622L8.01833 31.8426L8.46813 31.9325C8.71557 31.982 13.4379 32.0224 18.9621 32.0224ZM15.3854 33.3172C14.8316 33.8705 14.995 34.4189 15.9396 35.1796C16.9649 36.0052 18.129 36.443 19.4863 36.5134C21.3785 36.6115 22.5759 36.2622 23.9817 35.2015C24.7411 34.6284 24.987 34.1501 24.7895 33.6307C24.506 32.8854 23.6527 32.7734 22.9509 33.3893C22.1305 34.1092 21.132 34.4844 20.0329 34.4859C18.8375 34.4875 18.0922 34.2378 17.169 33.5258C16.3438 32.8895 15.8688 32.8339 15.3854 33.3172ZM57.3955 41.4903C58.1115 41.7047 58.8114 42.3138 59.1536 43.0204C59.4237 43.5779 59.44 43.835 59.44 47.5438C59.44 51.8222 59.4013 52.0818 58.6449 52.8881C58.0687 53.5023 57.3092 53.7887 56.2484 53.7922C55.4447 53.7948 55.2712 53.8412 54.981 54.1314C54.5474 54.5646 54.5525 55.0848 54.9947 55.5269C55.3244 55.8563 55.4123 55.8739 56.5018 55.8287L57.6589 55.7808V56.4161C57.6589 56.7655 57.5612 57.5665 57.4417 58.1963C56.4056 63.6581 51.8498 67.6836 46.3556 67.9916C42.9219 68.1841 39.9474 67.0356 37.4354 64.547C35.1746 62.3074 34.0865 59.9892 33.867 56.9447L33.7831 55.7808L42.8216 55.8179C51.815 55.8547 51.8622 55.8535 52.225 55.5682C52.7278 55.1729 52.7296 54.4729 52.2285 54.0791C51.8719 53.7986 51.7604 53.7952 43.0832 53.7922C33.2417 53.7887 33.6752 53.8308 32.7626 52.792C32.0578 51.9897 32.0148 51.6505 32.0629 47.2803L32.1067 43.2989L32.4832 42.7307C32.8998 42.1017 33.292 41.8031 34.0603 41.5289C34.7507 41.2827 56.5814 41.2465 57.3955 41.4903ZM29.9831 47.6366V49.831L29.6063 49.6352C28.8142 49.2233 28.3389 48.4743 28.3389 47.6377C28.3389 46.8883 28.6182 46.2619 29.1529 45.8123C29.9559 45.137 29.9831 45.1966 29.9831 47.6366ZM62.3116 45.8007C62.8925 46.2893 63.1392 46.8157 63.1392 47.5668C63.1392 48.4748 62.6885 49.2106 61.8719 49.6352L61.4951 49.831V47.6366C61.4951 45.2029 61.5239 45.1383 62.3116 45.8007ZM29.5378 51.7788C29.8581 51.8647 30.1201 51.9991 30.1202 52.0776C30.1205 52.4157 30.9436 53.8975 31.3359 54.2658C31.6707 54.5804 31.7642 54.7822 31.7642 55.1918V55.7156L31.1819 55.6309C29.4375 55.3775 28.3389 54.1504 28.3389 52.4554C28.3389 51.7097 28.4586 51.4313 28.7334 51.5371C28.8556 51.5842 29.2175 51.6929 29.5378 51.7788ZM63.0846 51.8159C63.3782 52.9852 62.8145 54.421 61.7976 55.0935C61.3023 55.421 60.0388 55.7598 59.819 55.6241C59.564 55.4666 59.7235 54.6558 60.073 54.3325C60.5603 53.8817 61.0267 53.1286 61.2222 52.4764C61.3688 51.9872 61.4517 51.9148 62.0904 51.7173C63.0341 51.4258 62.9854 51.421 63.0846 51.8159ZM41.3862 56.8994C41.0904 57.0184 40.7946 57.7384 40.8881 58.1113C40.9698 58.4365 41.6687 59.088 42.4509 59.5678C43.9215 60.4702 46.1298 60.6944 47.8286 60.1139C48.9077 59.7453 50.3459 58.741 50.5451 58.2174C50.7958 57.5583 50.2948 56.8078 49.6041 56.8078C49.4592 56.8078 49.0524 57.0278 48.7 57.2968C47.6456 58.1014 46.9067 58.369 45.7391 58.369C44.5715 58.369 43.8326 58.1014 42.7782 57.2968C42.1788 56.8393 41.8027 56.7319 41.3862 56.8994Z" fill="white"/>
</svg>
