<svg width="70" height="54" viewBox="0 0 70 54" fill="none" xmlns="http://www.w3.org/2000/svg">
<path fill-rule="evenodd" clip-rule="evenodd" d="M3.30638 0.530282L2.94371 0.892448V22.0034V43.1143H1.78481C0.0842027 43.1143 0.0759301 43.1283 0.0125562 46.1139C-0.0441701 48.7851 0.0777027 49.4664 0.659591 49.7311C0.938495 49.8582 4.71301 49.903 15.0973 49.903H29.1575L28.0902 50.9766C27.2183 51.8533 27.0229 52.1352 27.0229 52.5154C27.0229 52.8424 27.1385 53.0718 27.4121 53.2867C27.7999 53.5916 27.8531 53.5926 42.534 53.5926C59.9677 53.5926 58.0451 53.8591 58.0451 51.4419V49.903H63.5039C67.3432 49.903 69.0748 49.852 69.3404 49.7311C69.9223 49.4664 70.0442 48.7851 69.9874 46.1139C69.9241 43.1283 69.9158 43.1143 68.2152 43.1143H67.0563V22.0034V0.892448L66.6936 0.530282L66.3311 0.167969H35H3.66889L3.30638 0.530282ZM64.9881 22.6742V43.1143H64.1018H63.2154V23.8549C63.2154 4.79215 63.2125 4.59247 62.92 4.30026C62.6266 4.00716 62.4276 4.0051 35 4.0051C7.57237 4.0051 7.37339 4.00716 7.08001 4.30026C6.78751 4.59247 6.78456 4.79215 6.78456 23.8549V43.1143H5.89821H5.01186V22.6742V2.23411H35H64.9881V22.6742ZM61.1473 24.5928V43.1143H59.5962H58.0451V33.0895V23.0646L57.6558 22.7588C57.4418 22.5905 57.1271 22.4528 56.9566 22.4528C56.7432 22.4528 53.4223 25.6728 46.302 32.7836L35.9574 43.1143H31.7116H27.466V40.753C27.466 38.5884 27.4414 38.367 27.1706 38.0965C26.8824 37.8086 26.6797 37.8013 18.9349 37.8036C14.5679 37.8049 10.9216 37.8546 10.8322 37.9142C10.4238 38.1867 10.33 38.7429 10.33 40.8908V43.1143H9.59133H8.85271V24.5928V6.07124H35H61.1473V24.5928ZM23.4912 15.1844C23.2519 15.381 20.1281 22.4165 19.0567 25.1722C18.973 25.3872 18.7003 24.8733 17.936 23.0604C17.3738 21.7272 16.8105 20.6029 16.6659 20.5256C16.523 20.4493 15.9032 20.3867 15.2885 20.3867C14.3677 20.3867 14.1188 20.4386 13.8753 20.6818C13.1731 21.3834 13.791 22.4528 14.8988 22.4528H15.4392L16.7422 25.5444C17.459 27.2448 18.1594 28.7391 18.2987 28.865C18.6042 29.1412 19.1914 29.1622 19.5376 28.9092C19.6768 28.8076 20.9045 26.1013 22.266 22.8953L24.7414 17.0661L33.9451 16.9923C42.84 16.921 43.1559 16.9089 43.3584 16.6321C43.6574 16.2234 43.6174 15.5658 43.2726 15.2213C42.9832 14.9322 42.7802 14.9262 33.3914 14.9262C24.4804 14.9262 23.7835 14.9443 23.4912 15.1844ZM30.8637 20.1954C30.7418 20.2382 30.1752 20.7304 29.6044 21.2894L28.5666 22.3057L27.5402 21.2725C26.6358 20.362 26.4484 20.2391 25.9643 20.2391C25.5638 20.2391 25.3522 20.3281 25.1847 20.5672C24.7557 21.1789 24.8962 21.5386 26.0138 22.69L27.0728 23.7811L26.0138 24.8721C24.8673 26.0534 24.7308 26.4368 25.2559 27C25.8183 27.6031 26.3416 27.4411 27.5205 26.299L28.5777 25.275L29.6293 26.299C30.7873 27.4265 31.3256 27.5994 31.8978 27.0279C32.4362 26.4899 32.2823 26.0552 31.1342 24.8721L30.0751 23.7811L31.1342 22.69C31.8731 21.9286 32.1932 21.4875 32.1932 21.2304C32.1932 20.5763 31.4431 19.9923 30.8637 20.1954ZM38.8874 20.2415C38.4548 20.4138 38.2034 20.9195 38.32 21.383C38.3723 21.5912 38.8561 22.218 39.3951 22.7757L40.3751 23.7899L39.4016 24.7817C38.335 25.8683 38.1425 26.2537 38.4116 26.764C38.6482 27.2126 38.828 27.318 39.3619 27.3208C39.7205 27.3226 40.0114 27.1192 40.8316 26.2935L41.8541 25.264L42.917 26.2935C44.1133 27.4525 44.6108 27.6185 45.2299 27.0655C45.7752 26.5783 45.5668 26.0067 44.4253 24.8587L43.3623 23.7895L44.4253 22.6941C45.5619 21.5232 45.7666 20.9662 45.2299 20.5058C44.5309 19.906 44.073 20.0735 42.7595 21.4091L41.8773 22.3064L40.8391 21.288C39.7421 20.2116 39.4099 20.0335 38.8874 20.2415ZM33.0904 23.1369C32.6883 23.6475 32.7038 24.0094 33.1468 24.4518C33.4894 24.7942 33.6022 24.8141 35.195 24.8141C36.6765 24.8141 36.9277 24.7771 37.2698 24.5082C37.7636 24.1202 37.7839 23.5069 37.3172 23.0688C37.0049 22.7759 36.8197 22.748 35.1858 22.748C33.4286 22.748 33.391 22.7549 33.0904 23.1369ZM55.9769 27.9684V29.7944L55.2108 29.8679C54.0612 29.9783 53.5697 30.7586 54.1388 31.57C54.3285 31.8407 54.5093 31.8981 55.1729 31.8981H55.9769V32.7098V33.5215H55.2383C54.3666 33.5215 53.9088 33.8736 53.9088 34.5438C53.9088 35.1527 54.5019 35.5876 55.3321 35.5876H55.9769V36.3255V37.0634H55.2383C54.3812 37.0634 53.9088 37.4141 53.9088 38.0502C53.9088 38.7097 54.436 39.1296 55.264 39.1296H55.9769V39.8675V40.6054H55.3321C54.5019 40.6054 53.9088 41.0403 53.9088 41.6492C53.9088 42.3194 54.3666 42.6715 55.2383 42.6715H55.9769V43.3907V44.1099L55.2108 44.1834C54.0612 44.2938 53.5697 45.074 54.1388 45.8854C54.3285 46.1561 54.5093 46.2135 55.1729 46.2135H55.9769V47.0252V47.8369H55.2383C54.3666 47.8369 53.9088 48.189 53.9088 48.8592C53.9088 49.4681 54.5019 49.903 55.3321 49.903H55.9769V50.7148V51.5265H43.236H30.495L43.1987 38.8344C50.1858 31.8538 55.9192 26.1424 55.9397 26.1424C55.9602 26.1424 55.9769 26.9641 55.9769 27.9684ZM45.5848 41.0281C39.4783 47.1225 39.5279 47.058 40.3875 47.7968L40.7895 48.1421L46.4021 48.1002L52.0146 48.0583L52.2969 47.7098C52.5639 47.3804 52.5793 47.0535 52.5793 41.7066V36.0518L52.19 35.746C51.9759 35.5777 51.662 35.44 51.4923 35.44C51.2836 35.44 49.3744 37.246 45.5848 41.0281ZM50.5111 41.0481V43.1143H48.5168C47.42 43.1143 46.5225 43.0654 46.5225 43.0055C46.5225 42.9084 50.3768 38.982 50.4721 38.982C50.4935 38.982 50.5111 39.9118 50.5111 41.0481ZM21.4093 41.4909V43.1143H16.9037H12.3981V41.4909V39.8675H16.9037H21.4093V41.4909ZM25.3979 41.4909V43.1143H24.4377H23.4775V41.4909V39.8675H24.4377H25.3979V41.4909ZM32.5618 46.5094L31.2377 47.8384L16.6845 47.8007L2.13123 47.7631L2.08853 46.4718L2.04584 45.1804H17.9658H33.8859L32.5618 46.5094ZM50.5111 45.6232V46.0659H47.0396C45.1302 46.0659 43.568 46.0205 43.568 45.9647C43.568 45.909 43.7125 45.7098 43.8892 45.5219C44.2055 45.1857 44.2588 45.1804 47.3607 45.1804H50.5111V45.6232ZM67.9115 46.4718L67.8688 47.7631L62.9569 47.8019L58.0451 47.8409V46.5106V45.1804H62.9996H67.9542L67.9115 46.4718Z" fill="white"/>
</svg>
