<svg width="24" height="24" viewBox="0 0 24 24" fill="none" xmlns="http://www.w3.org/2000/svg">
<path fill-rule="evenodd" clip-rule="evenodd" d="M1.621 0.0710681C1.09121 0.199294 0.562358 0.60507 0.278313 1.10133C-0.0166077 1.61649 0.000175239 0.960494 0.000175239 11.9985C0.000175239 23.0366 -0.0166077 22.3806 0.278313 22.8957C0.45205 23.1993 0.800085 23.5474 1.10363 23.7211C1.61865 24.016 0.965057 23.9992 11.9819 24C18.5313 24.0005 22.106 23.9843 22.2685 23.9534C22.8328 23.8464 23.4233 23.4174 23.7199 22.899C24.0169 22.3799 23.9998 23.0433 23.9998 11.9985C23.9998 0.959884 24.0166 1.61672 23.7215 1.10091C23.4215 0.576425 22.835 0.148613 22.272 0.0435007C22.1073 0.012792 18.5191 -0.00225756 11.9585 0.000274146C3.41556 0.00360287 1.85568 0.0142923 1.621 0.0710681ZM11.2968 6.34909V11.2953H6.35098H1.40516V6.65688C1.40516 3.48526 1.42096 1.97674 1.45518 1.88649C1.52171 1.71082 1.6781 1.54569 1.85052 1.46908C1.96458 1.41836 2.87124 1.40621 6.64398 1.40471L11.2968 1.40289V6.34909ZM22.2486 1.523C22.3198 1.57617 22.4216 1.6779 22.4747 1.74912C22.5706 1.87758 22.5715 1.91429 22.5838 6.58693L22.5961 11.2953H17.6497H12.7032V6.34843V1.40157L17.4112 1.41395C22.0835 1.42623 22.1202 1.42708 22.2486 1.523ZM6.03506 2.95295C5.92794 3.00953 5.82312 3.11737 5.7655 3.23031C5.67877 3.40031 5.67122 3.50561 5.67122 4.5422V5.66928H4.54423C3.50725 5.66928 3.40248 5.67683 3.23226 5.76365C3.02425 5.8698 2.85844 6.13989 2.85844 6.37253C2.85844 6.60516 3.02425 6.87526 3.23226 6.9814C3.40248 7.06823 3.50725 7.07578 4.54423 7.07578H5.67122V8.20286C5.67122 9.23992 5.67877 9.3447 5.76559 9.51494C5.87173 9.72296 6.1418 9.88878 6.37442 9.88878C6.60704 9.88878 6.87711 9.72296 6.98325 9.51494C7.07007 9.3447 7.07762 9.23992 7.07762 8.20286V7.07578H8.20461C9.24159 7.07578 9.34637 7.06823 9.51659 6.9814C9.72459 6.87526 9.89041 6.60516 9.89041 6.37253C9.89041 6.13989 9.72459 5.8698 9.51659 5.76365C9.34637 5.67683 9.24159 5.66928 8.20461 5.66928H7.07762V4.5422C7.07762 3.50514 7.07007 3.40035 6.98325 3.23012C6.81026 2.89101 6.3868 2.76724 6.03506 2.95295ZM14.4734 5.76595C14.2755 5.87045 14.1096 6.14707 14.1096 6.37253C14.1096 6.60516 14.2754 6.87526 14.4834 6.9814C14.6631 7.07301 14.7543 7.07578 17.6256 7.07578C20.4968 7.07578 20.5881 7.07301 20.7677 6.9814C20.9757 6.87526 21.1416 6.60516 21.1416 6.37253C21.1416 6.13989 20.9757 5.8698 20.7677 5.76365C20.588 5.67195 20.499 5.66932 17.6157 5.67134C14.7543 5.67336 14.6425 5.67673 14.4734 5.76595ZM11.2968 17.6486V22.5955L6.5888 22.5831C1.91653 22.5708 1.87982 22.57 1.75137 22.4741C1.68016 22.4209 1.57843 22.3192 1.52527 22.248C1.42935 22.1195 1.42851 22.0828 1.41623 17.4102L1.40385 12.7018H6.35033H11.2968V17.6486ZM22.5838 17.4102C22.5715 22.0828 22.5706 22.1195 22.4747 22.248C22.4216 22.3192 22.3198 22.4209 22.2486 22.4741C22.1202 22.57 22.0835 22.5708 17.4112 22.5831L12.7032 22.5955V17.6486V12.7018H17.6497H22.5961L22.5838 17.4102ZM6.03506 14.205C5.83713 14.3095 5.67122 14.5861 5.67122 14.8115C5.67122 15.1683 6.01771 15.5148 6.37442 15.5148C6.73113 15.5148 7.07762 15.1683 7.07762 14.8115C7.07762 14.5789 6.91181 14.3088 6.7038 14.2027C6.47282 14.0849 6.26125 14.0856 6.03506 14.205ZM14.823 14.5144C14.4986 14.6743 14.3485 15.1074 14.5075 15.425C14.5515 15.5131 15.0442 16.044 15.6022 16.6048L16.6169 17.6245L15.6022 18.6443C15.0442 19.2051 14.5539 19.7315 14.5127 19.814C14.2264 20.3873 14.863 21.024 15.4363 20.7377C15.5188 20.6965 16.0452 20.2061 16.6059 19.648L17.6256 18.6333L18.6452 19.648C19.206 20.2061 19.7324 20.6965 19.8149 20.7377C20.3874 21.0236 21.0244 20.3865 20.7385 19.814C20.6973 19.7315 20.207 19.2051 19.6489 18.6443L18.6343 17.6245L19.6489 16.6048C20.207 16.044 20.6973 15.5176 20.7385 15.4351C21.0247 14.8618 20.3882 14.2251 19.8149 14.5114C19.7324 14.5526 19.206 15.043 18.6452 15.6011L17.6256 16.6158L16.6059 15.6011C16.0452 15.043 15.5188 14.5526 15.4363 14.5114C15.246 14.4164 15.0197 14.4175 14.823 14.5144ZM3.22227 17.018C3.02434 17.1225 2.85844 17.3991 2.85844 17.6245C2.85844 17.8572 3.02425 18.1273 3.23226 18.2334C3.4119 18.325 3.50317 18.3278 6.37442 18.3278C9.24567 18.3278 9.33694 18.325 9.51659 18.2334C9.72459 18.1273 9.89041 17.8572 9.89041 17.6245C9.89041 17.3919 9.72459 17.1218 9.51659 17.0157C9.3368 16.924 9.24783 16.9213 6.36458 16.9234C3.50317 16.9254 3.39132 16.9288 3.22227 17.018ZM6.03506 19.831C5.83713 19.9355 5.67122 20.2121 5.67122 20.4376C5.67122 20.7943 6.01771 21.1408 6.37442 21.1408C6.73113 21.1408 7.07762 20.7943 7.07762 20.4376C7.07762 20.2049 6.91181 19.9348 6.7038 19.8287C6.47282 19.7109 6.26125 19.7116 6.03506 19.831Z" fill="#2C2C2C"/>
</svg>
