<svg width="24" height="24" viewBox="0 0 24 24" fill="none" xmlns="http://www.w3.org/2000/svg">
<path fill-rule="evenodd" clip-rule="evenodd" d="M10.4764 0.0619744C10.1277 0.146971 9.68428 0.402429 9.44943 0.653481C9.10804 1.0185 8.96914 1.35314 8.83222 2.14066C8.76603 2.52157 8.69666 2.86259 8.67809 2.89855C8.65953 2.93446 8.46303 3.03779 8.24145 3.12813L7.83855 3.29245L7.35278 2.94478C6.6901 2.47057 6.65982 2.45275 6.3234 2.33939C5.95463 2.21516 5.3984 2.20583 5.06006 2.31825C4.59618 2.47235 4.38594 2.6354 3.46404 3.55639C2.69008 4.32957 2.52161 4.52295 2.39411 4.78451C2.1047 5.37836 2.09368 6.07174 2.36504 6.61214C2.43254 6.74655 2.65844 7.09868 2.86694 7.3946L3.24612 7.93271L3.07174 8.3642L2.89736 8.7957L2.515 8.85318C1.40335 9.02017 1.05923 9.15332 0.63051 9.5821C0.325914 9.88673 0.139583 10.2247 0.0529107 10.6296C-0.0176369 10.9594 -0.0176369 13.1315 0.0529107 13.4613C0.139583 13.8662 0.325914 14.2042 0.63051 14.5088C1.05876 14.9371 1.39697 15.0681 2.50759 15.2358C2.71384 15.2669 2.90571 15.3161 2.93397 15.3449C2.96219 15.3739 3.05486 15.5696 3.13994 15.7799L3.29458 16.1624L2.91222 16.7015C2.38412 17.4459 2.2825 17.6813 2.25845 18.2154C2.23684 18.6944 2.30514 19.0053 2.5158 19.3867C2.67831 19.681 4.34905 21.3588 4.65308 21.533C5.26889 21.8861 6.03821 21.9225 6.62945 21.6266C6.75662 21.5629 7.10064 21.3406 7.39394 21.1325L7.92719 20.7541L8.32376 20.9075C8.61959 21.0219 8.72595 21.0858 8.74231 21.1592C8.75445 21.2134 8.8047 21.5003 8.85402 21.7968C9.00453 22.7017 9.1679 23.0544 9.62985 23.4719C9.8932 23.7098 10.2093 23.8673 10.5842 23.9473C10.9142 24.0177 13.0864 24.0175 13.4156 23.9471C13.8204 23.8604 14.1583 23.6741 14.4629 23.3694C14.8936 22.9386 15.0078 22.641 15.1996 21.4482L15.2595 21.0761L15.6878 20.9025L16.1162 20.7289L16.6603 21.1174C17.2429 21.5333 17.5029 21.6745 17.8222 21.7481C18.2912 21.8563 18.8724 21.7711 19.3324 21.5267C19.489 21.4435 19.8838 21.0877 20.4879 20.4851C21.4777 19.498 21.6356 19.2768 21.7528 18.7129C21.8908 18.0487 21.7233 17.5012 21.1292 16.6744C20.9395 16.4104 20.7716 16.1734 20.7562 16.1476C20.7408 16.1218 20.8069 15.9112 20.9032 15.6795L21.0782 15.2582L21.4492 15.1986C22.6407 15.0069 22.9386 14.8926 23.3692 14.4619C23.6738 14.1573 23.8602 13.8194 23.9468 13.4144C23.9787 13.2657 24 12.6818 24 11.9601C24 10.9354 23.9871 10.7077 23.9142 10.4447C23.7992 10.0301 23.6349 9.76264 23.3158 9.47099C22.8944 9.08581 22.6501 8.99223 21.6446 8.83086C21.3674 8.78637 21.1208 8.72604 21.0965 8.69678C21.0722 8.66748 20.9805 8.4732 20.8927 8.26505L20.7331 7.88653L21.0327 7.46951C21.6628 6.5924 21.7969 6.27998 21.7969 5.68867C21.7969 5.29988 21.6874 4.90157 21.4954 4.59126C21.4236 4.47523 20.9585 3.97453 20.4617 3.47862C19.7081 2.72621 19.5096 2.55378 19.2628 2.437C18.6969 2.16935 18.1037 2.1341 17.5724 2.33653C17.4275 2.39171 17.0411 2.62406 16.7138 2.85279L16.1186 3.26868L15.7351 3.1076C15.5241 3.01899 15.3207 2.92982 15.2832 2.90943C15.2386 2.88528 15.179 2.66466 15.1117 2.27507C15.0549 1.94652 14.9731 1.56852 14.93 1.43505C14.7074 0.745978 14.0942 0.201729 13.3687 0.0491288C13.0256 -0.0230689 10.7843 -0.0130831 10.4764 0.0619744ZM13.2183 1.47897C13.5314 1.60429 13.5858 1.72909 13.758 2.71801C13.8524 3.26001 13.9475 3.66549 14.0018 3.75859C14.1186 3.95864 14.3246 4.093 14.7094 4.22024C14.8821 4.27734 15.2524 4.42886 15.5323 4.55694C16.2996 4.90804 16.1762 4.94705 17.7331 3.86183C18.1304 3.58485 18.3446 3.53844 18.5999 3.67388C18.7515 3.75433 20.2645 5.274 20.3387 5.42032C20.414 5.56893 20.4023 5.83902 20.3131 6.01178C20.2705 6.09429 20.0282 6.45378 19.7747 6.81059C19.5211 7.16746 19.289 7.5419 19.2588 7.64274C19.1943 7.85807 19.2434 8.06665 19.4597 8.49533C19.5348 8.64423 19.6705 8.97123 19.7612 9.222C19.9393 9.71416 20.1151 9.94857 20.3638 10.0254C20.443 10.0498 20.8558 10.1263 21.2812 10.1952C22.1392 10.3342 22.3126 10.3949 22.4658 10.6096C22.5659 10.7501 22.5709 10.8041 22.5851 11.9017C22.607 13.5994 22.613 13.591 21.2578 13.8041C20.8195 13.873 20.3718 13.9682 20.2629 14.0156C20.0441 14.111 19.9184 14.2817 19.798 14.6474C19.7555 14.7763 19.6078 15.1381 19.4698 15.4513C19.2163 16.0263 19.1796 16.2028 19.2662 16.4306C19.2923 16.4993 19.5231 16.8473 19.7789 17.2038C20.0347 17.5603 20.277 17.9157 20.3173 17.9937C20.4027 18.1589 20.4112 18.361 20.3405 18.5472C20.2826 18.6997 18.789 20.2242 18.5999 20.3238C18.4336 20.4113 18.1708 20.4084 17.9942 20.3171C17.9163 20.2768 17.5609 20.0345 17.2044 19.7786C16.848 19.5227 16.5001 19.292 16.4313 19.2659C16.2044 19.1796 16.032 19.2156 15.4542 19.47C15.1399 19.6083 14.7983 19.748 14.6952 19.7804C14.3912 19.8758 14.158 20.0247 14.0572 20.1878C13.9937 20.2906 13.9184 20.612 13.8261 21.1741C13.5913 22.6033 13.6067 22.5913 12.0125 22.5928C10.386 22.5943 10.4259 22.6237 10.191 21.2506C10.0868 20.6413 10.0037 20.2868 9.94153 20.1862C9.84182 20.0249 9.60866 19.8761 9.30454 19.7799C9.20141 19.7473 8.87445 19.6151 8.57797 19.4861C8.02034 19.2436 7.75802 19.199 7.54844 19.3112C7.49233 19.3412 7.14044 19.5847 6.76646 19.8522C5.64441 20.6548 5.69498 20.6612 4.60161 19.5778C4.15484 19.1351 3.75935 18.716 3.7227 18.6464C3.68604 18.5767 3.65604 18.4251 3.65604 18.3094C3.65604 18.0822 3.71459 17.9824 4.40535 17.0328C4.88962 16.367 4.90227 16.2532 4.57105 15.5381C4.47547 15.3319 4.32683 14.9761 4.24072 14.7475C3.98829 14.0775 3.92848 14.0422 2.71853 13.8482C1.40611 13.6378 1.40602 13.6376 1.40602 12.0454C1.40602 10.4442 1.37644 10.4832 2.77928 10.235C3.37455 10.1296 3.71918 10.0465 3.79667 9.98969C3.97161 9.86137 4.10666 9.6392 4.22295 9.28866C4.28024 9.116 4.41871 8.77179 4.53064 8.52379C4.68341 8.1853 4.73418 8.01451 4.73418 7.83871C4.73418 7.61644 4.7083 7.56782 4.22563 6.88316C3.65257 6.07028 3.56229 5.91435 3.56229 5.73756C3.56229 5.49786 3.71224 5.30522 4.53903 4.48296C5.22112 3.80459 5.39798 3.6526 5.51058 3.64809C5.877 3.63328 5.93686 3.66146 6.68645 4.2012C7.06937 4.47692 7.46097 4.72984 7.55669 4.76327C7.77977 4.84114 7.94346 4.80696 8.43734 4.57945C8.65648 4.47846 9.02216 4.32544 9.24997 4.23932C9.69276 4.07195 9.81299 3.98949 9.9224 3.77786C9.96047 3.70431 10.0617 3.24688 10.1474 2.76142C10.238 2.24765 10.3394 1.81596 10.3898 1.72843C10.5565 1.43908 10.7171 1.40551 11.9403 1.40434C12.8347 1.40349 13.063 1.41681 13.2183 1.47897ZM11.5546 7.36328C10.4697 7.45662 9.36299 8.00106 8.6014 8.81614C6.92964 10.6053 6.92964 13.3918 8.6014 15.181C10.4291 17.137 13.5707 17.137 15.3983 15.181C17.0701 13.3918 17.0701 10.6053 15.3983 8.81614C14.6612 8.02727 13.5208 7.45268 12.5446 7.37824C12.361 7.36427 12.1581 7.34701 12.0936 7.33989C12.0292 7.33281 11.7866 7.34331 11.5546 7.36328ZM12.8342 8.86167C14.2685 9.24131 15.2375 10.5061 15.2375 11.9986C15.2375 13.8181 13.8192 15.2366 11.9999 15.2366C10.1806 15.2366 8.76228 13.8181 8.76228 11.9986C8.76228 9.85237 10.7608 8.31278 12.8342 8.86167Z" fill="#2C2C2C"/>
</svg>
