<svg width="24" height="20" viewBox="0 0 24 20" fill="none" xmlns="http://www.w3.org/2000/svg">
<path fill-rule="evenodd" clip-rule="evenodd" d="M12.2042 0.0636273C12.009 0.150868 11.9908 0.175519 10.6356 2.17671C9.61362 3.68576 9.42609 3.93834 9.34594 3.91383C8.29483 3.5925 8.26477 3.59785 6.3663 4.44411C4.85622 5.11719 4.49593 5.31926 4.2629 5.62374C4.09173 5.84733 0.318016 11.9429 0.185067 12.2105C0.129825 12.3217 0.0593877 12.5638 0.0285774 12.7484C-0.144889 13.7869 0.488293 14.8469 1.46794 15.1581L1.72521 15.2398L1.60445 15.4055C1.34638 15.7595 1.31637 15.8808 1.07317 17.5494C0.941865 18.4503 0.834428 19.2451 0.834428 19.3156C0.834428 19.675 1.1679 20.0011 1.53444 20C1.72197 19.9995 1.91959 19.9042 3.10885 19.2409L4.46882 18.4824L4.53916 18.5915C5.19411 19.6077 6.54071 19.8987 7.48898 19.229L7.72805 19.0602L7.96712 19.229C8.5898 19.6688 9.51791 19.7052 10.1659 19.3154C10.8183 18.923 11.2452 18.1522 11.2452 17.3668C11.2452 17.1927 11.2536 17.1803 11.3507 17.2111C11.4087 17.2295 11.5323 17.284 11.6253 17.3321C11.9455 17.4979 12.8887 17.8069 13.438 17.9259C15.4714 18.3665 17.6402 18.1295 19.5105 17.2622L19.7802 17.1371V18.0801C19.7802 18.8505 19.7941 19.0533 19.8563 19.1879C19.9594 19.4109 20.1698 19.5542 20.4324 19.5801C20.6384 19.6004 20.7384 19.5562 22.2202 18.79C23.6969 18.0265 23.796 17.9671 23.8949 17.7859L24 17.5933L23.9887 13.0591C23.9774 8.56369 23.9765 8.52363 23.8806 8.39186C23.8274 8.31872 23.7257 8.21425 23.6545 8.15965C23.5283 8.06292 23.4589 8.05974 20.9375 8.0363L18.3499 8.01222L15.937 6.79485C14.6099 6.12528 13.5162 5.56929 13.5065 5.55937C13.4968 5.5494 13.912 4.92162 14.4291 4.16424C14.9462 3.40685 15.3928 2.74219 15.4215 2.68716C15.4968 2.54258 15.4855 2.19679 15.3998 2.02664C15.3489 1.92563 14.9392 1.60171 14.0813 0.984327C13.3967 0.491695 12.7831 0.0677197 12.7178 0.0422504C12.5567 -0.0206767 12.3759 -0.0131177 12.2042 0.0636273ZM13.6843 2.46381C13.8195 2.56314 13.8393 2.51822 13.3441 3.23713C13.1365 3.53834 12.9953 3.70088 12.955 3.68499C12.9202 3.67127 12.659 3.49168 12.3746 3.28591L11.8575 2.91181L11.934 2.7899C11.9761 2.72284 12.1561 2.45635 12.3341 2.19761L12.6576 1.72727L13.1133 2.05317C13.364 2.23247 13.6209 2.41721 13.6843 2.46381ZM11.656 4.53419C11.9907 4.77536 12.172 4.93515 12.1511 4.97083C12.133 5.00184 11.2137 6.35421 10.1081 7.97611L8.09805 10.9251H7.25262C6.77931 10.9251 6.41404 10.9062 6.42281 10.8823C6.48171 10.7211 11.0439 4.10454 11.0811 4.12635C11.1069 4.14146 11.3656 4.325 11.656 4.53419ZM8.57217 5.17184C8.57217 5.18523 7.65297 6.5442 6.52954 8.19186C4.53307 11.1198 4.48106 11.1908 4.22858 11.3298C3.58677 11.6834 3.06932 12.3793 2.89196 13.1273C2.81262 13.4619 2.71282 13.6114 2.49715 13.7186C2.1437 13.8942 1.73735 13.8126 1.53861 13.526C1.40913 13.3394 1.36369 13.0056 1.44604 12.8459C1.6166 12.5153 5.2735 6.64478 5.37789 6.53399C5.45658 6.45051 5.97116 6.19374 6.81359 5.81767C7.53578 5.49529 8.17942 5.21445 8.2439 5.19365C8.38074 5.14945 8.57217 5.13674 8.57217 5.17184ZM17.0595 8.95743L18.114 9.48068H18.9471H19.7802V12.5068V15.5328L19.2228 15.8015C17.9646 16.4079 17.0354 16.6413 15.7003 16.6862C14.1692 16.7377 12.9591 16.435 11.3624 15.6008L10.7528 15.2823L7.98597 15.2582C5.22585 15.2342 5.21868 15.2339 5.02115 15.1255C4.71061 14.9551 4.50704 14.745 4.36518 14.4485C4.25629 14.2208 4.23477 14.1145 4.23664 13.8138C4.24035 13.2215 4.52186 12.7744 5.05187 12.5192L5.31294 12.3935L8.05632 12.3652C11.0961 12.3338 11.0963 12.3338 11.9252 11.9998C12.4699 11.7803 12.9547 11.4895 13.4356 11.0938C13.8706 10.7359 14.0063 10.5651 14.0437 10.3289C14.1229 9.82772 13.6163 9.36894 13.1559 9.52493C13.0686 9.55454 12.8826 9.68266 12.7425 9.80967C11.999 10.4841 11.1836 10.8462 10.2647 10.91C9.89218 10.9358 9.82953 10.93 9.86235 10.8726C9.88369 10.8353 10.5225 9.89209 11.2817 8.77669L12.6622 6.74872L14.3336 7.59148C15.2529 8.05498 16.4796 8.66966 17.0595 8.95743ZM22.5939 13.2358V16.9909L21.8905 17.3526L21.187 17.7143V13.5975V9.48068H21.8905H22.5939V13.2358ZM4.19917 16.3128C4.28297 16.3483 4.35102 16.3909 4.35032 16.4075C4.34961 16.4242 4.22722 16.6111 4.07837 16.823C3.81041 17.2043 3.80103 17.2119 3.13568 17.5831C2.7661 17.7893 2.45799 17.9518 2.45101 17.9442C2.44407 17.9365 2.48932 17.5837 2.5516 17.16L2.6648 16.3897L2.97084 15.9297L3.27683 15.4697L3.6618 15.859C3.87353 16.0732 4.11537 16.2774 4.19917 16.3128ZM7.02462 17.1487C7.02462 17.7914 6.8535 18.0735 6.42811 18.132C5.96985 18.1951 5.6579 17.911 5.62629 17.4017C5.60988 17.1372 5.62301 17.0776 5.73617 16.902L5.86471 16.7026H6.44466H7.02462V17.1487ZM9.83834 17.1487C9.83834 17.8525 9.64312 18.1229 9.13491 18.1229C8.62671 18.1229 8.43148 17.8525 8.43148 17.1487V16.7026H9.13491H9.83834V17.1487Z" fill="#2C2C2C"/>
</svg>
