<svg width="24" height="20" viewBox="0 0 24 20" fill="none" xmlns="http://www.w3.org/2000/svg">
<path fill-rule="evenodd" clip-rule="evenodd" d="M6.67833 0.0847393C6.19416 0.268317 5.86623 0.678623 5.76178 1.23167L5.70557 1.5293H3.13243C0.646194 1.5293 0.553056 1.53279 0.374147 1.63258C0.254921 1.69908 0.155261 1.80806 0.0944516 1.93843C0.000891499 2.13899 0 2.22293 0 10.7647C0 19.3064 0.000891499 19.3903 0.0944516 19.5909C0.155261 19.7212 0.254921 19.8302 0.374147 19.8967C0.555026 19.9976 0.643754 20 4.22287 20C7.80199 20 7.89072 19.9976 8.0716 19.8967C8.19083 19.8302 8.29049 19.7212 8.3513 19.5909C8.4412 19.3982 8.44575 19.2916 8.44575 17.3854V15.3823H10.2522H12.0587V16.9216V18.4608H11.2826C10.5974 18.4608 10.4848 18.4729 10.3214 18.5641C10.1132 18.6802 9.94721 18.9758 9.94721 19.2304C9.94721 19.485 10.1132 19.7806 10.3214 19.8967C10.503 19.9981 10.5894 20 14.8739 20C19.1584 20 19.2448 19.9981 19.4264 19.8967C19.6346 19.7806 19.8006 19.485 19.8006 19.2304C19.8006 18.9758 19.6346 18.6802 19.4264 18.5641C19.263 18.4729 19.1504 18.4608 18.4652 18.4608H17.6891V16.9232V15.3856L20.3284 15.3711L22.9677 15.3567L23.2343 15.2135C23.5364 15.0513 23.7568 14.8028 23.9012 14.4614L24 14.2279V7.6862V1.1445L23.9012 0.910995C23.7568 0.569646 23.5364 0.321062 23.2343 0.158879L22.9677 0.0157306L14.9443 0.00428908C7.33776 -0.00658811 6.9082 -0.00238085 6.67833 0.0847393ZM22.6158 7.6862V13.8431H14.8739H7.13196V7.6862V1.5293H14.8739H22.6158V7.6862ZM5.72434 3.83814V4.60775H3.56598H1.40762V3.83814V3.06853H3.56598H5.72434V3.83814ZM5.72434 6.91659V7.6862H3.56598H1.40762V6.91659V6.14698H3.56598H5.72434V6.91659ZM5.72434 11.6275C5.72434 14.2672 5.73128 14.344 6.00732 14.7607C6.1828 15.0256 6.49806 15.2509 6.80643 15.3318L7.03812 15.3925V16.9267V18.4608H4.22287H1.40762V13.8431V9.22543H3.56598H5.72434V11.6275ZM16.2815 16.9216V18.4608H14.8739H13.4663V16.9216V15.3823H14.8739H16.2815V16.9216ZM3.88321 16.0525C3.68511 16.1669 3.51906 16.4696 3.51906 16.7163C3.51906 17.1067 3.86585 17.4859 4.22287 17.4859C4.57989 17.4859 4.92669 17.1067 4.92669 16.7163C4.92669 16.4617 4.76073 16.1661 4.55254 16.05C4.32136 15.9211 4.10961 15.9218 3.88321 16.0525Z" fill="#2C2C2C"/>
</svg>
