<svg width="100%" height="100%" viewBox="0 0 45 45" fill="none" xmlns="http://www.w3.org/2000/svg">
<path fill-rule="evenodd" clip-rule="evenodd" d="M17.9252 0.0618114C17.3737 0.196535 16.8892 0.594284 16.6212 1.13241L16.37 1.63681V22.4958V43.3549L16.6376 43.8674C16.8325 44.2406 17.0323 44.4585 17.3725 44.6689L17.8396 44.9578H22.5004H27.1612L27.6284 44.6689C27.9685 44.4585 28.1683 44.2406 28.3633 43.8674L28.6309 43.3549V22.488V1.621L28.3633 1.10855C28.1684 0.735523 27.9684 0.517341 27.6286 0.307015L27.1615 0.0181174L22.6997 0.00173224C20.2457 -0.00727486 18.0971 0.0197463 17.9252 0.0618114ZM33.9951 10.3757C33.5621 10.5633 33.1625 10.9459 32.9326 11.3929C32.7549 11.7386 32.7498 12.1896 32.7498 27.5657C32.7498 41.6255 32.7663 43.4224 32.8981 43.7378C33.0877 44.192 33.3704 44.4926 33.8514 44.7515C34.2253 44.9528 34.3401 44.9585 38.6276 44.9854C43.7315 45.0176 43.7782 45.0118 44.4231 44.279C44.6942 43.9709 44.8405 43.6933 44.9153 43.3451C44.9917 42.9899 45.0135 38.4429 44.9923 27.2714L44.9628 11.6931L44.674 11.2258C44.4637 10.8856 44.2458 10.6856 43.8728 10.4907L43.3605 10.223L38.8454 10.2267C35.0279 10.2299 34.2785 10.253 33.9951 10.3757ZM1.12808 22.7557C0.75508 22.9506 0.537161 23.1505 0.32681 23.4907L0.0380071 23.958L0.00802532 33.4039C-0.0139103 40.3507 0.00773799 42.9868 0.0901162 43.3676C0.179678 43.7819 0.292709 43.976 0.656035 44.3396C1.3324 45.016 1.40798 45.0245 6.45584 44.9885L10.7663 44.9578L11.1932 44.7182C11.4278 44.5865 11.7511 44.2917 11.9116 44.0632L12.2032 43.6477L12.2284 33.8333C12.253 24.3124 12.2482 24.0079 12.0695 23.6605C11.8331 23.2008 11.4348 22.8248 10.9849 22.6368C10.6801 22.5094 9.98096 22.488 6.13457 22.488H1.64036L1.12808 22.7557Z" fill="white" fill-opacity="0.75"/>
</svg>
