<svg width="29" height="24" viewBox="0 0 29 24" fill="none" xmlns="http://www.w3.org/2000/svg">
<path fill-rule="evenodd" clip-rule="evenodd" d="M26.7137 0.130373C24.8499 0.835952 1.87962 9.91729 1.54129 10.0824C0.417061 10.6307 0.285629 11.355 1.22153 11.8449C1.31189 11.8922 2.86667 12.4038 4.67658 12.9819L7.9674 14.033L15.4398 9.22259C19.5496 6.57684 22.995 4.38244 23.0961 4.34621C23.3499 4.25514 23.5683 4.26365 23.6703 4.36858C23.7416 4.44201 23.7446 4.47887 23.6878 4.58679C23.6503 4.6582 20.9212 7.20876 17.6231 10.2547C14.325 13.3006 11.6176 15.8166 11.6067 15.8458C11.5959 15.8749 11.4843 17.3956 11.3588 19.2251L11.1307 22.5515L11.3786 22.5171C11.515 22.4981 11.7309 22.4257 11.8584 22.3561C11.986 22.2866 12.8447 21.4861 13.7666 20.5775C14.6885 19.6687 15.4747 18.9126 15.5137 18.8972C15.5527 18.8818 17.0209 19.952 18.7763 21.2754C20.5316 22.5988 22.1054 23.7471 22.2734 23.827C22.7144 24.0367 23.2111 24.0575 23.5337 23.8799C23.8219 23.7212 24.1035 23.327 24.222 22.9166C24.2678 22.7577 25.2714 17.986 26.4521 12.3128C28.4179 2.86714 28.5989 1.95265 28.5996 1.46241C28.6003 0.999216 28.5815 0.88904 28.4609 0.645243C28.3759 0.473357 28.2309 0.297864 28.0891 0.195295C27.7651 -0.0392589 27.2287 -0.0645628 26.7137 0.130373Z" fill="white" fill-opacity="0.75"/>
</svg>
