<svg width="32" height="21" viewBox="0 0 32 21" fill="none" xmlns="http://www.w3.org/2000/svg">
<path fill-rule="evenodd" clip-rule="evenodd" d="M0.505728 0.495188C0.402482 0.544399 0.247611 0.66652 0.161573 0.766553C-0.572856 1.62046 1.28264 6.71908 3.98095 11.2616C5.32866 13.5305 6.39242 15.0012 7.58508 16.2446C9.22876 17.9582 10.952 19.1242 12.8347 19.7965C14.0293 20.2232 14.6775 20.3452 15.9615 20.385C17.5205 20.4335 18.1741 20.2793 18.5204 19.7814C18.6465 19.6 18.6535 19.4957 18.685 17.3309C18.713 15.4135 18.734 15.0314 18.8228 14.8176C18.955 14.4995 19.1556 14.4133 19.6909 14.4446C20.7183 14.5047 22.1625 15.676 24.4697 18.3204C25.1468 19.0965 25.8378 19.8394 26.0052 19.9712C26.5616 20.4094 26.6083 20.4157 29.1091 20.3935C31.3176 20.3738 31.3584 20.371 31.5826 20.2214C32.1066 19.8718 32.1359 19.283 31.678 18.3048C31.1447 17.1655 29.9597 15.6231 27.742 13.1814C27.0335 12.4013 26.409 11.6702 26.3543 11.5567C26.2996 11.4432 26.2548 11.2135 26.2548 11.0463C26.2548 10.776 26.311 10.6544 26.7599 9.95197C29.6913 5.36587 30.9597 3.06101 31.2622 1.77112C31.4318 1.04792 31.3618 0.77414 30.9502 0.551448C30.6769 0.403546 30.6264 0.400391 28.5171 0.400391C27.0635 0.400391 26.2844 0.425701 26.1208 0.478336C25.7338 0.602673 25.4184 0.943458 25.1845 1.48981C24.0381 4.16776 22.7754 6.47759 21.5585 8.12277C21.0299 8.83737 20.1546 9.74505 19.8144 9.93122C19.2711 10.2286 18.8871 10.0712 18.7521 9.49571C18.7061 9.29967 18.683 7.87617 18.682 5.18769C18.6807 1.38844 18.6743 1.15735 18.5618 0.891561C18.3478 0.385755 18.4543 0.40039 14.979 0.400659C11.9953 0.40086 11.8874 0.405359 11.687 0.536409C11.4346 0.701565 11.2748 1.07625 11.3278 1.37917C11.3488 1.49942 11.5363 1.83436 11.7444 2.12358C12.2178 2.78152 12.4016 3.16326 12.5552 3.80797C12.667 4.27665 12.6763 4.57232 12.676 7.64509C12.6758 9.72901 12.6514 11.0678 12.611 11.2242C12.3844 12.0995 11.4767 11.6993 10.3763 10.2387C8.93798 8.32982 7.57312 5.53862 6.23373 1.76702C5.98575 1.0688 5.73214 0.693643 5.39825 0.530971C5.15634 0.413147 4.96561 0.403412 2.91482 0.404486C1.20111 0.405359 0.650524 0.426104 0.505728 0.495188Z" fill="white" fill-opacity="0.75"/>
</svg>
