<svg width="160" height="160" viewBox="0 0 160 160" fill="none" xmlns="http://www.w3.org/2000/svg">
<path fill-rule="evenodd" clip-rule="evenodd" d="M5.19367 0.409923C3.61109 0.908911 0.911883 3.70479 0.426599 5.34787C-0.1422 7.2735 -0.1422 106.241 0.426599 108.167C0.949931 109.939 3.62109 112.611 5.3923 113.134C6.38028 113.426 12.6448 113.527 29.9096 113.527H53.0997L54.8555 115.982C56.8782 118.811 60.7692 122.832 63.5754 124.991C65.9973 126.856 70.7518 129.681 72.7536 130.446L74.2691 131.025L70.1266 135.178L65.9844 139.331H61.3847H56.7853V134.933C56.7853 132.423 56.617 129.965 56.3932 129.208C55.8699 127.436 53.1987 124.764 51.4275 124.241C49.5399 123.683 17.5982 123.683 15.7106 124.241C13.9394 124.764 11.2683 127.436 10.7449 129.208C10.1948 131.071 10.1948 152.752 10.7449 154.615C11.2683 156.386 13.9394 159.058 15.7106 159.582C17.5982 160.14 49.5399 160.14 51.4275 159.582C53.1987 159.058 55.8699 156.386 56.3932 154.615C56.617 153.857 56.7853 151.399 56.7853 148.889V144.492H62.4891H68.1926L74.036 138.677L79.8794 132.863L82.2784 133.405C85.3568 134.1 94.2763 134.195 97.7362 133.569C102.351 132.735 108.855 130.344 112.117 128.284L113.439 127.449L116.758 130.781L120.077 134.112L119.386 134.991C119.006 135.474 118.695 136.322 118.694 136.875C118.693 137.764 119.832 139.012 128.61 147.749C139.419 158.508 140.088 159.019 144.302 159.741C153.231 161.271 161.265 153.235 159.736 144.302C159.012 140.073 158.512 139.419 147.75 128.606C139.023 119.837 137.762 118.687 136.875 118.687C136.324 118.687 135.476 118.999 134.992 119.38L134.111 120.073L130.839 116.8L127.566 113.527H140.486C155.418 113.527 155.504 113.514 157.808 110.95C158.575 110.097 159.374 108.823 159.585 108.119C160.138 106.273 160.138 7.24222 159.585 5.39561C159.374 4.6918 158.575 3.41804 157.808 2.56489C155.268 -0.26163 162.795 -0.0158457 79.8636 0.0212478C27.2317 0.0447941 6.0014 0.155429 5.19367 0.409923ZM154.018 5.94104L154.809 6.73258V56.7575V106.782L154.018 107.574L153.227 108.366H141.73C130.904 108.366 130.249 108.333 130.478 107.801C131.448 105.555 132.625 101.816 133.255 98.9786C134.215 94.6528 134.299 86.5503 133.428 82.1804C130.775 68.8638 122.014 57.1833 110.205 51.2206L108.28 50.2481L114.697 43.8219L121.114 37.396L121.206 40.6257L121.297 43.8554H123.866H126.434V36.906C126.434 27.6227 127.184 28.3729 117.904 28.3729H110.957V30.9533V33.5337H114.259H117.562L110.201 40.9015L102.841 48.2695L100.397 47.687C99.0531 47.3667 96.5651 46.9496 94.8687 46.7606C93.172 46.5713 91.6945 46.312 91.5855 46.1842C91.4765 46.0565 88.7341 41.6701 85.4916 36.4367C82.2487 31.2033 79.3083 26.6676 78.9568 26.357C78.4006 25.8654 77.5926 25.7925 72.7107 25.7925H67.1037V21.3948C67.1037 16.1637 66.7947 14.9467 64.9429 12.8866C62.5833 10.261 62.9825 10.31 43.948 10.31C31.8637 10.31 26.9957 10.4165 26.029 10.7022C24.2578 11.2257 21.5866 13.8978 21.0633 15.6695C20.5132 17.5326 20.5132 39.2132 21.0633 41.0763C21.5866 42.8481 24.2578 45.5201 26.029 46.0436C26.9957 46.3294 31.8637 46.4358 43.948 46.4358C62.9825 46.4358 62.5833 46.4848 64.9429 43.8593C66.7947 41.7991 67.1037 40.5821 67.1037 35.351V30.9533H71.5628H76.0219L80.9031 38.7752C84.7338 44.9131 85.6657 46.6177 85.231 46.6926C74.0859 48.6143 66.618 52.234 59.6496 59.0918L57.1136 61.5877L55.7403 60.0646C53.0307 57.06 52.6635 56.7575 51.7316 56.7623C51.2302 56.7652 50.6395 56.8823 50.4186 57.0223C50.1977 57.1626 43.5621 64.3091 35.6727 72.9031L21.3286 88.5288L23.1763 90.2145C24.1926 91.1415 25.0968 91.8976 25.1854 91.8947C25.2741 91.8914 31.2233 85.4498 38.4058 77.5792L51.4649 63.2688L52.7173 64.4961L53.9697 65.7235L52.8337 67.611C50.0832 72.1816 48.244 76.9476 47.2312 82.1297C46.625 85.2311 46.4428 92.5633 46.8862 96.0282L47.1438 98.0441H31.3281H15.512V63.2085V28.3729H12.9324H10.3528V64.9468C10.3528 100.474 10.3706 101.543 10.969 102.282L11.5852 103.044L30.0296 103.205L48.4736 103.366L49.1981 105.302C49.597 106.366 50.0317 107.491 50.1642 107.801C50.3925 108.336 49.2436 108.366 28.5911 108.366H6.77656L5.98528 107.574L5.19367 106.782V56.7575V6.73258L5.98528 5.94104L6.77656 5.14918H80.0016H153.227L154.018 5.94104ZM61.1529 16.2627L61.9445 17.0542V28.3729V39.6916L61.1529 40.4831L60.3616 41.275H43.8874H27.4132L26.6219 40.4831L25.8303 39.6916V28.3729V17.0542L26.6219 16.2627L27.4132 15.4708H43.8874H60.3616L61.1529 16.2627ZM30.9895 23.2121V25.7925H43.8874H56.7853V23.2121V20.6317H43.8874H30.9895V23.2121ZM30.9895 33.5337V36.1142H43.8874H56.7853V33.5337V30.9533H43.8874H30.9895V33.5337ZM98.7035 52.523C112.055 55.5776 122.873 65.4044 127.035 78.2578C128.475 82.7077 128.852 85.2053 128.852 90.3029C128.852 92.9897 128.662 95.9408 128.405 97.2377C125.287 112.983 113.9 124.605 98.0064 128.26C94.7474 129.009 85.9517 129.005 82.6334 128.253C66.8657 124.676 55.3391 112.916 52.2346 97.2377C51.5739 93.9016 51.6629 85.9839 52.3997 82.5616C54.8803 71.0362 62.2676 61.2751 72.475 56.035C76.878 53.7745 80.5349 52.6256 85.9669 51.7966C88.1579 51.4621 96.0292 51.9108 98.7035 52.523ZM84.7806 57.2403C72.8423 59.2502 62.6016 67.8991 58.6823 79.2826C56.2823 86.2532 56.2352 94.1132 58.5523 100.928C62.3527 112.105 71.893 120.612 83.3873 123.074C86.7278 123.789 91.374 123.986 94.6294 123.551C109.504 121.564 121.291 109.878 123.51 94.918C124.74 86.6332 122.33 77.1392 117.298 70.4443C115.581 68.1594 111.42 64.1026 109.289 62.6363C102.394 57.8906 93.0881 55.8421 84.7806 57.2403ZM80.8054 70.3243L72.424 78.7307L70.0908 76.2109C68.8075 74.8252 67.7553 73.5708 67.7531 73.4231C67.7434 72.8348 70.2398 70.1685 72.5143 68.3384C75.0278 66.3157 78.6312 64.3407 81.5629 63.3795C83.2409 62.8289 87.2541 62.0057 88.5442 61.9473C88.9692 61.9283 86.3499 64.7635 80.8054 70.3243ZM100.553 63.8449C103.989 65.1758 107.574 67.5417 110.324 70.2924C121.44 81.4121 121.44 99.1937 110.324 110.313C100.056 120.585 84.135 121.476 72.6846 112.418C70.104 110.377 66.9547 106.732 65.7777 104.425L65.1557 103.205H80.3176H95.4791V100.625V98.0441H79.2183H62.9576L62.5359 96.1895C61.9168 93.4655 62.0038 86.4364 62.6887 83.8518C63.3839 81.2289 64.5157 78.3685 64.8588 78.3685C65.0016 78.3685 66.3994 79.8254 67.9652 81.6062C70.7996 84.8301 71.6079 85.3804 72.9883 85.0256C73.3875 84.923 78.7198 79.8206 84.8383 73.6869C97.5308 60.9629 95.8428 62.0202 100.553 63.8449ZM127.565 120.948L130.456 123.853L127.155 127.155L123.855 130.456L120.898 127.499L117.942 124.542L121.14 121.308C122.899 119.529 124.414 118.066 124.506 118.058C124.598 118.049 125.975 119.35 127.565 120.948ZM145.205 133.444C154.132 142.391 154.789 143.27 154.802 146.289C154.823 151.158 151.165 154.819 146.288 154.81C143.227 154.804 142.167 154.01 133.208 145.009L124.989 136.751L130.786 130.945C133.975 127.751 136.66 125.138 136.751 125.138C136.843 125.138 140.648 128.876 145.205 133.444ZM50.8345 129.801L51.6262 130.593V141.911V153.23L50.8345 154.021L50.0433 154.813H33.5691H17.0949L16.3036 154.021L15.512 153.23V141.911V130.593L16.3036 129.801L17.0949 129.009H33.5691H50.0433L50.8345 129.801ZM20.6712 136.75V139.331H33.5691H46.467V136.75V134.17H33.5691H20.6712V136.75ZM20.6712 147.072V149.652H33.5691H46.467V147.072V144.492H33.5691H20.6712V147.072Z" fill="#2C2C2C"/>
</svg>
