<svg width="160" height="160" viewBox="0 0 160 160" fill="none" xmlns="http://www.w3.org/2000/svg">
<path fill-rule="evenodd" clip-rule="evenodd" d="M5.17737 0.371721C3.4454 0.993213 1.94201 2.26089 0.963613 3.92466L0.0968466 5.39899L0.0161736 79.2911C-0.0372958 128.085 0.0421265 153.579 0.24975 154.35C0.712526 156.069 2.2128 157.954 3.91412 158.953L5.41251 159.834L43.9511 159.917L82.4897 160V157.338V154.676H44.4983C6.92373 154.676 6.50004 154.669 5.88154 154.051C5.25961 153.429 5.25617 153.009 5.25617 79.9592C5.25617 6.90989 5.25961 6.48972 5.88154 5.86792C6.50035 5.24924 6.92373 5.24268 46.3397 5.24268C85.0913 5.24268 86.1928 5.25893 86.9108 5.8401L87.649 6.43783L87.7325 31.6314L87.8163 56.8252H90.3122H92.8083V51.667V46.5087L95.5444 46.5068C97.0493 46.5059 98.8107 46.358 99.4589 46.178C101.114 45.7184 102.761 43.9827 103.008 42.4365L103.207 41.1941H110.984H118.761V46.3524V51.5107H116.103H113.446V55.1124C113.446 58.6775 113.438 58.7181 112.642 59.0805C111.926 59.4065 111.473 59.2652 108.525 57.799L105.211 56.1515L101.331 60.0312L97.4502 63.9108L99.098 67.2236C100.565 70.1717 100.706 70.6246 100.38 71.3399C100.017 72.1355 99.9767 72.1437 96.4108 72.1437H92.8083V77.3019V82.4602H84.9108C80.5673 82.4602 76.5312 82.5984 75.9414 82.7675C74.5243 83.1739 72.8655 84.8186 72.4825 86.1979C72.313 86.8072 72.1739 90.8581 72.1729 95.1995L72.1711 103.093H64.5102H56.8494V92.7767V82.4602H64.5102H72.1711V79.9592V77.4582H43.2376C11.23 77.4582 12.968 77.3466 11.3167 79.5109L10.4155 80.692V110.94C10.4155 141.002 10.4196 141.192 11.0603 142.051C11.4148 142.525 12.0934 143.204 12.5683 143.558C13.4279 144.2 13.6183 144.204 55.6997 144.359L97.9677 144.516L98.0537 149.596L98.1396 154.676H92.9725H87.8054V157.333V159.99H113.615H139.424L139.333 157.411L139.242 154.832L134.161 154.746L129.08 154.66V149.51V144.359H142.792C156.497 144.359 156.504 144.359 157.538 143.656C158.106 143.269 158.866 142.555 159.225 142.07C159.876 141.192 159.88 141.032 159.963 113.965C160.046 86.9172 160.042 86.734 159.393 85.3948C158.341 83.2208 157.082 82.6449 153.079 82.5068L149.717 82.3911V77.2672V72.1437H146.326C143.438 72.1437 142.858 72.059 142.418 71.5719C142.133 71.2574 141.9 70.8328 141.9 70.6284C141.9 70.4239 142.616 68.8302 143.491 67.087L145.082 63.9174L141.195 60.0312L137.308 56.145L134.138 57.7356C132.394 58.6103 130.776 59.3262 130.541 59.3262C130.307 59.3262 129.882 59.0689 129.597 58.7544C129.184 58.2977 129.08 57.5124 129.08 54.8466V51.5107H126.422H123.764V46.3124V41.1138L126.188 41.2585C129.021 41.4277 130.67 42.1495 132.197 43.8883C133.648 45.5399 134.083 46.7919 134.083 49.3123V51.5107H136.741H139.399V49.5443C139.399 44.1734 136.675 39.6954 132.012 37.4002C130.273 36.5445 129.5 36.3635 126.941 36.2131L123.921 36.0359L123.75 30.565C123.564 24.6318 123.323 23.5698 121.592 21.0548C120.351 19.2503 118.414 17.6181 116.271 16.5711C114.637 15.7724 114.226 15.7161 108.924 15.5639L103.307 15.4029L103.115 14.465C102.824 13.0454 102.296 12.2338 101.038 11.2735C99.9679 10.4566 99.6684 10.3944 96.3517 10.2959L92.8083 10.1908V8.30011C92.8083 7.26034 92.6451 5.86448 92.4453 5.19828C91.9757 3.63049 90.27 1.65316 88.6318 0.777191L87.3363 0.084422L46.8435 0.017521C13.5599 -0.0375004 6.1417 0.0256492 5.17737 0.371721ZM12.7638 16.2585C10.6594 17.69 10.4255 18.3068 10.3217 22.6929C10.236 26.3174 10.2898 26.7776 10.9471 28.0628C11.4183 28.9835 12.0974 29.7103 12.917 30.1702L14.1677 30.872L46.7425 30.7967C79.0961 30.722 79.3231 30.7169 80.1805 30.0767C82.1242 28.6258 82.3246 28.0537 82.4369 23.6354C82.5532 19.0699 82.379 18.369 80.7318 16.7725L79.6408 15.7155L46.7221 15.6333L13.8038 15.5507L12.7638 16.2585ZM98.124 18.0602V20.5611H95.4662H92.8083V18.0602V15.5592H95.4662H98.124V18.0602ZM25.8278 23.1403L25.7371 25.7194L20.656 25.8054L15.5748 25.8913V23.2262V20.5611H20.7467H25.9188L25.8278 23.1403ZM46.4651 23.1403L46.3744 25.7194L38.6354 25.8029L30.8965 25.8866V23.2237V20.5611H38.7261H46.5561L46.4651 23.1403ZM56.7838 23.1403L56.6931 25.7194L54.1134 25.81L51.5338 25.901V23.2309V20.5611H54.2041H56.8747L56.7838 23.1403ZM67.1024 23.1403L67.0117 25.7194H64.5102H62.0087L61.9181 23.1403L61.8271 20.5611H64.5102H67.1934L67.1024 23.1403ZM77.4211 23.1403L77.3304 25.7194H74.8289H72.3274L72.2367 23.1403L72.1457 20.5611H74.8289H77.512L77.4211 23.1403ZM113.603 21.0788C114.513 21.3886 115.657 22.1305 116.452 22.9258C118.329 24.8022 118.761 26.4775 118.761 31.8777V36.2031L111.057 36.1194L103.352 36.0359L102.952 34.6819C102.116 31.8505 100.33 30.8945 95.857 30.8845L92.8083 30.8776V28.4167V25.956L96.2266 25.815C99.2484 25.6906 99.7866 25.5806 100.868 24.865C102.112 24.0415 103.127 22.4034 103.127 21.2173C103.127 20.5814 103.265 20.5611 107.605 20.5611C110.953 20.5611 112.467 20.6918 113.603 21.0788ZM12.7575 36.8956C10.6585 38.3237 10.4264 38.9389 10.3132 43.3694C10.2226 46.9182 10.2845 47.521 10.8533 48.6358C11.2066 49.3282 11.9561 50.2233 12.5189 50.6247L13.5424 51.3543H46.4298C79.3091 51.3543 79.3172 51.354 80.1999 50.7003C80.6855 50.3405 81.399 49.5812 81.7862 49.0128C82.4281 48.0699 82.4897 47.6176 82.4897 43.8514C82.4897 40.0756 82.429 39.6335 81.7787 38.6688C81.3878 38.0886 80.5929 37.2939 80.0126 36.9031L78.9576 36.1922H46.3744H13.7913L12.7575 36.8956ZM98.124 38.6932V41.1941H95.4662H92.8083V38.6932V36.1922H95.4662H98.124V38.6932ZM25.8278 43.7733L25.7371 46.3524L20.656 46.4384L15.5748 46.5243V43.8592V41.1941H20.7467H25.9188L25.8278 43.7733ZM46.4651 43.7733L46.3744 46.3524L38.6354 46.4359L30.8965 46.5197V43.8567V41.1941H38.7261H46.5561L46.4651 43.7733ZM56.7838 43.7733L56.6931 46.3524L54.1134 46.4431L51.5338 46.534V43.8639V41.1941H54.2041H56.8747L56.7838 43.7733ZM67.1024 43.7733L67.0117 46.3524L64.4321 46.4431L61.8524 46.534V43.8639V41.1941H64.5227H67.1934L67.1024 43.7733ZM77.4867 43.8514V46.5087H74.8289H72.1711V43.8514V41.1941H74.8289H77.4867V43.8514ZM12.8823 57.4208C12.347 57.7468 11.5731 58.4849 11.1625 59.0608C10.4808 60.0165 10.408 60.4626 10.3295 64.1718C10.2504 67.9192 10.2989 68.3309 10.9549 69.457C11.3461 70.1285 12.0634 70.9726 12.549 71.3327C13.4301 71.9861 13.4945 71.9877 46.1884 72.0699L78.9451 72.1521L80.0063 71.4371C80.5901 71.0439 81.3878 70.2473 81.7787 69.6671C82.429 68.7023 82.4897 68.2603 82.4897 64.4844C82.4897 60.7086 82.429 60.2666 81.7787 59.3018C81.3878 58.7216 80.5929 57.9269 80.0126 57.5361L78.9576 56.8252L46.4063 56.8265C14.9939 56.8274 13.821 56.8484 12.8823 57.4208ZM123.922 58.3993C124.21 60.4929 125.703 62.6728 127.487 63.6069C129.513 64.667 131.809 64.5898 134.377 63.3753L136.39 62.4233L137.591 63.6241L138.792 64.8252L137.812 66.9857C136.97 68.8436 136.85 69.4211 136.957 71.1073C137.17 74.4443 139.491 76.8708 142.916 77.3366L144.402 77.5389V79.9995V82.4602H139.273H134.143L134.035 79.5506C133.938 76.9349 133.809 76.4025 132.759 74.2801C131.352 71.4368 129.54 69.6636 126.635 68.2875C124.702 67.3721 124.3 67.298 121.263 67.298C118.219 67.298 117.826 67.3709 115.872 68.2962C113.155 69.583 111.012 71.7316 109.676 74.5074C108.731 76.4713 108.631 76.9502 108.616 79.5666L108.599 82.4564L103.362 82.4583L98.124 82.4602V80.0017V77.5433L99.532 77.3504C104.777 76.6314 107.197 71.7935 104.743 66.9326L103.79 65.0462L105.1 63.7867L106.41 62.5268L108.286 63.4265C111.686 65.0569 115.036 64.5063 117.123 61.975C118.094 60.7977 118.761 59.0351 118.761 57.6487C118.761 56.8287 118.771 56.8252 121.233 56.8252H123.706L123.922 58.3993ZM25.7371 64.4844V66.9854L20.656 67.0714L15.5748 67.1574V64.4844V61.8115L20.656 61.8975L25.7371 61.9835V64.4844ZM46.4651 64.4063L46.3744 66.9854L38.6354 67.0689L30.8965 67.1527V64.4898V61.8272H38.7261H46.5561L46.4651 64.4063ZM56.7838 64.4063L56.6931 66.9854L54.1134 67.0761L51.5338 67.1671V64.4969V61.8272H54.2041H56.8747L56.7838 64.4063ZM67.1681 64.4844V67.1417H64.5102H61.8524V64.4844V61.8272H64.5102H67.1681V64.4844ZM77.4867 64.4844V67.1417H74.8289H72.1711V64.4844V61.8272H74.8289H77.4867V64.4844ZM125.057 73.2907C127.771 74.7678 129.395 78.0156 128.94 81.0549L128.727 82.4714L121.322 82.3877L113.917 82.3039L113.646 81.0196C113.082 78.3451 115.024 74.5302 117.643 73.1653C120.033 71.9202 122.619 71.9639 125.057 73.2907ZM30.8965 92.7767V103.093H23.2356H15.5748V92.7767V82.4602H23.2356H30.8965V92.7767ZM51.5338 92.7767V103.093H43.8729H36.2121V92.7767V82.4602H43.8729H51.5338V92.7767ZM20.5778 92.9455V98.1166L23.1575 98.0256L25.7371 97.9349L25.8231 92.8548L25.9091 87.7747H23.2435H20.5778V92.9455ZM41.2151 92.933V98.0913H43.8729H46.5308V92.933V87.7747H43.8729H41.2151V92.933ZM61.8524 92.933V98.0913H64.5102H67.1681V92.933V87.7747H64.5102H61.8524V92.933ZM154.72 108.408V129.041H149.561H144.402V113.566V98.0913H141.9H139.399V113.566V129.041H136.741H134.083V118.724V108.408H131.581H129.08V118.724V129.041H126.422H123.764V123.883V118.724H121.263H118.761V123.883V129.041H98.124H77.4867V108.408V87.7747H116.103H154.72V108.408ZM85.7729 93.3647C83.2573 94.5196 82.4897 96.189 82.4897 100.506C82.4897 102.189 82.6279 104.049 82.7971 104.638C83.2333 106.158 84.8908 107.748 86.4474 108.14L87.7532 108.469L87.8573 111.955C87.9498 115.041 88.048 115.563 88.7125 116.494C90.1874 118.562 90.9804 118.71 100.637 118.717C108.953 118.724 109.296 118.7 110.641 118.021C111.407 117.634 112.351 116.839 112.74 116.255C113.418 115.234 113.446 114.929 113.446 108.408C113.446 101.868 113.42 101.584 112.735 100.568C112.344 99.9876 111.549 99.1929 110.969 98.8022C109.965 98.1256 109.631 98.0913 104.056 98.0913H98.1981L97.8629 96.7598C97.4752 95.2205 95.9868 93.6595 94.4034 93.1312C92.6436 92.5444 87.2416 92.6904 85.7729 93.3647ZM92.8083 100.592V103.093H90.3069H87.8054V100.592V98.0913H90.3069H92.8083V100.592ZM108.443 108.251V113.41H100.626H92.8083V110.943V108.477L93.9215 108.269C95.54 107.965 97.4333 106.131 97.8545 104.458L98.1981 103.093H103.321H108.443V108.251ZM72.1711 110.909V113.41H43.8729H15.5748V110.909V108.408H43.8729H72.1711V110.909ZM20.5778 121.225V123.726H18.0763H15.5748V121.225V118.724H18.0763H20.5778V121.225ZM30.8965 121.225V123.726H28.395H25.8935V121.225V118.724H28.395H30.8965V121.225ZM41.2151 121.225V123.726H38.7136H36.2121V121.225V118.724H38.7136H41.2151V121.225ZM51.5338 121.225V123.726H49.0323H46.5308V121.225V118.724H49.0323H51.5338V121.225ZM61.8524 121.225V123.726H59.3509H56.8494V121.225V118.724H59.3509H61.8524V121.225ZM72.1711 121.225V123.726H69.6696H67.1681V121.225V118.724H69.6696H72.1711V121.225ZM72.1711 134.199V139.357H67.0117H61.8524V136.7V134.043H59.3509H56.8494V136.7V139.357H51.7026H46.5561L46.4651 136.778L46.3744 134.199L43.7948 134.108L41.2151 134.017V136.688V139.357H36.0558H30.8965V136.7V134.043H28.395H25.8935V136.7V139.357H20.7341H15.5748V134.199V129.041H43.8729H72.1711V134.199ZM134.083 136.7V139.357H105.785H77.4867V136.7V134.043H105.785H134.083V136.7ZM144.402 136.7V139.357H141.9H139.399V136.7V134.043H141.9H144.402V136.7ZM154.72 136.7V139.357H152.219H149.717V136.7V134.043H152.219H154.72V136.7ZM123.764 149.517V154.676H113.446H103.127V149.726C103.127 147.003 103.221 144.682 103.336 144.568C103.45 144.453 108.093 144.359 113.654 144.359H123.764V149.517Z" fill="#2C2C2C"/>
</svg>
