<svg width="155" height="160" viewBox="0 0 155 160" fill="none" xmlns="http://www.w3.org/2000/svg">
<path fill-rule="evenodd" clip-rule="evenodd" d="M12.2637 0.524691C6.94808 1.81353 2.25687 6.34402 0.659833 11.7305C0.265178 13.0619 0.201172 19.9805 0.201172 61.3514C0.201172 108.422 0.213973 109.467 0.820942 111.435C1.61837 114.021 3.39431 116.757 5.51465 118.664C7.30964 120.279 8.66564 121.067 11.4263 122.101C13.0899 122.724 13.8658 122.754 31.0233 122.867L48.8879 122.984L43.5895 133.595L38.291 144.206L30.5643 144.208C26.2053 144.209 22.3309 144.351 21.6746 144.533C19.8843 145.031 17.9725 146.679 16.9668 148.59C16.1616 150.121 16.0795 150.539 16.2006 152.494C16.2752 153.698 16.5722 155.138 16.8603 155.695C17.5775 157.079 19.2177 158.667 20.6823 159.394C21.8738 159.987 23.132 160 77.3212 160C131.51 160 132.769 159.987 133.96 159.394C135.425 158.667 137.065 157.079 137.782 155.695C138.07 155.138 138.367 153.698 138.442 152.494C138.563 150.539 138.481 150.121 137.676 148.59C136.67 146.679 134.758 145.031 132.968 144.533C132.311 144.351 128.437 144.209 124.078 144.208L116.351 144.206L111.053 133.595L105.754 122.984L123.619 122.867C140.777 122.754 141.552 122.724 143.216 122.101C145.977 121.067 147.333 120.279 149.128 118.664C151.248 116.757 153.024 114.021 153.821 111.435C154.428 109.467 154.441 108.422 154.441 61.3514C154.441 19.9805 154.377 13.0619 153.983 11.7305C152.363 6.2674 147.681 1.79602 142.235 0.510305C139.314 -0.179308 15.1109 -0.165547 12.2637 0.524691ZM142.935 6.32995C145.083 7.33888 146.948 9.15033 148.108 11.3552L148.977 13.0078L149.06 54.5253L149.142 96.0428H105.842C82.0274 96.0428 62.6009 95.9875 62.6724 95.9196C62.7439 95.8517 64.6007 95.0561 66.7985 94.1516C69.3388 93.1058 71.0164 92.2242 71.4039 91.7306C71.9581 91.0251 72.0133 90.434 72.0133 85.2282C72.0133 79.731 71.9852 79.4705 71.3108 78.7171C70.8696 78.2242 68.9235 77.2697 66.081 76.1516C63.591 75.1724 61.4267 74.2573 61.2712 74.1184C61.1157 73.9793 60.6174 72.6982 60.164 71.2715L59.3394 68.6772L62.082 64.2987C64.1717 60.9626 64.8256 59.6588 64.8284 58.8212C64.8315 57.9311 64.297 56.9807 62.013 53.8172C58.8573 49.4459 57.6528 48.1887 56.6312 48.1996C56.2474 48.2037 53.7618 48.7582 51.1072 49.4319L46.2812 50.6563L44.2551 49.1898C43.1408 48.3829 42.0929 47.6301 41.9268 47.5166C41.7607 47.4027 41.4476 44.8832 41.2312 41.9174C40.869 36.9585 40.7788 36.4678 40.1116 35.8151C39.2979 35.0194 30.2499 31.9291 28.7334 31.9291C27.6915 31.9291 26.865 32.7091 22.851 37.4804L20.4172 40.3734H17.5329H14.6485L11.3061 36.3327C7.88164 32.1934 7.57815 31.9291 6.24713 31.9291H5.47531L5.57022 22.4685L5.66514 13.0078L6.53438 11.3552C8.0568 8.46071 10.6349 6.37499 13.5439 5.68381C14.2173 5.52368 41.7286 5.42517 77.9456 5.453L141.172 5.50179L142.935 6.32995ZM45.5156 20.3818C44.0821 24.7009 43.0299 28.3447 43.177 28.4792C43.562 28.8317 47.6715 30.1449 47.8454 29.971C47.9253 29.8906 49.163 26.3093 50.5955 22.0125L53.1998 14.1997L50.9761 13.4841C49.7531 13.0903 48.6104 12.7144 48.4371 12.6487C48.2635 12.5831 46.949 16.063 45.5156 20.3818ZM80.1312 16.1478V18.819L82.7071 18.728L85.283 18.6373L85.3735 16.0571L85.4644 13.4769H82.7976H80.1312V16.1478ZM90.7469 16.1353V18.7937H116.037H141.328V16.1353V13.4769H116.037H90.7469V16.1353ZM35.0753 17.1989C31.0501 21.3538 31.0501 21.3038 35.081 25.4136L38.1139 28.5055L39.9917 26.6246L41.8697 24.7434L40.1699 23.0195L38.4702 21.2957L40.1699 19.5718L41.8697 17.8479L39.986 15.9611L38.1024 14.0743L35.0753 17.1989ZM55.944 15.9683L54.0806 17.8545L55.7772 19.5752L57.4735 21.2957L55.7738 23.0195L54.074 24.7434L56.0323 26.6943L57.9903 28.6453L60.9427 25.6153C63.5991 22.8894 63.8954 22.4688 63.8954 21.4233C63.8954 20.3727 63.6026 19.9636 60.8512 17.1714L57.807 14.0818L55.944 15.9683ZM69.2033 26.7688V29.4271H105.265H141.328V26.7688V24.1104H105.265H69.2033V26.7688ZM69.2033 37.4023V40.0606H91.8397H114.476V37.4023V34.7439H91.8397H69.2033V37.4023ZM33.063 38.6755C35.702 39.534 35.7953 39.5965 35.8 40.516C35.8081 42.1016 36.4023 48.7964 36.6074 49.6151C36.7801 50.3047 39.5093 52.5337 43.5126 55.2549C44.9917 56.2604 46.0326 56.2135 51.0941 54.9144L55.3092 53.8326L55.9873 54.662C56.3605 55.118 57.2163 56.2767 57.8891 57.2365L59.1124 58.982L56.5085 63.1813C54.7191 66.0664 53.9042 67.6811 53.9042 68.3413C53.9042 68.8696 54.5486 71.239 55.3364 73.6062C56.3876 76.7665 56.9478 78.0116 57.4439 78.2915C57.8151 78.5013 60.016 79.4496 62.3343 80.3991L66.5494 82.1255L66.638 85.2946L66.7264 88.4636L62.2669 90.2466C59.814 91.2274 57.5063 92.3092 57.1388 92.6511C56.7714 92.9929 56.2965 93.8958 56.0835 94.6577L55.6964 96.0428H48.0874C43.9026 96.0428 40.4784 95.9374 40.4787 95.8083C40.4787 95.6791 40.7729 94.7996 41.1322 93.8536C45.6901 81.8565 39.8128 67.8807 27.9282 62.4557C21.5437 59.5412 13.5264 59.5149 7.38239 62.3881L5.66514 63.191L5.58084 56.9635C5.53432 53.5383 5.53432 47.8465 5.58084 44.315L5.66514 37.8942L8.16295 40.9004C9.53675 42.5539 11.0579 44.3078 11.5434 44.7985L12.4261 45.6901H17.5435H22.6606L23.6859 44.6524C24.2498 44.0817 25.835 42.2546 27.2088 40.5923C28.5826 38.93 29.8471 37.6187 30.0188 37.6784C30.1905 37.7378 31.5606 38.1866 33.063 38.6755ZM69.2033 48.0357V50.6941H91.8397H114.476V48.0357V45.3774H91.8397H69.2033V48.0357ZM120.022 69.3684L119.94 82.751H117.286H114.632L114.548 76.105L114.464 69.4591H111.816H109.168V76.1957V82.9327L106.592 82.8417L104.017 82.751L103.933 74.6852L103.85 66.6193L101.279 66.71L98.7087 66.8007L98.6253 74.8665L98.542 82.9324L95.9714 82.8417L93.4009 82.751L93.3153 77.356L93.2301 71.9611H90.5833H87.9369V77.4342V82.9073H85.283H82.629V85.5673V88.2272L111.9 88.1475L141.172 88.0677L141.262 85.4875L141.353 82.9073H138.686H136.02V72.1175V61.3276H133.37H130.72L130.638 72.0393L130.556 82.751L127.983 82.8417L125.411 82.9327L125.329 69.5498L125.248 56.1672L122.676 56.0765L120.103 55.9855L120.022 69.3684ZM23.306 66.3963C26.3355 67.3161 29.075 68.9768 31.3867 71.2956C37.4395 77.3667 38.9685 86.073 35.3345 93.7754L34.2648 96.0428H19.8868H5.50903V82.7779V69.5129L7.10388 68.5299C11.9574 65.5385 17.9019 64.7557 23.306 66.3963ZM149.133 105.101C149.133 108.17 149.012 109.167 148.458 110.65C147.536 113.119 144.949 115.709 142.484 116.633L140.68 117.31H77.3212H13.9626L12.1579 116.633C9.69286 115.709 7.10669 113.119 6.18437 110.65C5.63017 109.167 5.50903 108.17 5.50903 105.101V101.36H77.3212H149.133V105.101ZM74.7309 106.873C74.6101 106.994 74.5111 108.196 74.5111 109.543V111.993H77.3337H80.1565L80.0657 109.413L79.9751 106.833L77.4629 106.743C76.081 106.694 74.8518 106.752 74.7309 106.873ZM104.952 133.258C107.786 138.934 110.105 143.719 110.105 143.892C110.105 144.101 99.0968 144.206 77.3212 144.206C55.5455 144.206 44.5374 144.101 44.5374 143.892C44.5374 143.719 46.856 138.934 49.69 133.258L54.8427 122.939H77.3212H99.7996L104.952 133.258ZM132.387 150.347C133.718 151.681 133.424 153.582 131.747 154.476C130.764 155 23.8779 155 22.8951 154.476C21.2184 153.582 20.9243 151.681 22.2556 150.347L23.079 149.523H77.3212H131.563L132.387 150.347Z" fill="#2C2C2C"/>
</svg>
