<svg width="160" height="150" viewBox="0 0 160 150" fill="none" xmlns="http://www.w3.org/2000/svg">
<path fill-rule="evenodd" clip-rule="evenodd" d="M71.7985 0.845838C71.2028 1.44255 71.0023 2.15703 70.6774 4.83955C69.9122 11.1556 70.046 10.733 68.6059 11.3779L67.3172 11.9549L63.915 9.29433C60.036 6.2613 59.4349 5.91957 58.4248 6.17423C58.0251 6.27509 55.341 8.73364 52.4599 11.6382C47.9788 16.1554 47.2217 17.0572 47.2217 17.8753C47.2217 18.5979 47.9094 19.7318 50.0362 22.5152C51.5842 24.5412 52.8508 26.248 52.8508 26.3085C52.8508 26.3686 52.6287 26.9741 52.357 27.6538C51.8088 29.0261 52.0511 28.9427 46.7526 29.5805C40.8715 30.2884 40.9672 30.1318 40.9672 39.0598C40.9672 45.6809 41.1873 47.1778 42.245 47.7448C42.5674 47.9177 44.4875 48.2704 46.5121 48.5282C51.9107 49.2164 51.7578 49.1637 52.3842 50.5551C53.025 51.9784 53.2658 51.4854 49.5825 56.2932C47.8112 58.6055 47.2217 59.6175 47.2217 60.3471C47.2217 61.1865 47.945 62.0473 52.5152 66.6468C59.0903 73.2647 58.437 73.1191 63.5979 69.1157L67.2834 66.2568L68.5884 66.8118L69.8934 67.3672L70.5389 72.1575C71.1037 76.3501 71.2738 77.0207 71.903 77.531C72.5588 78.0628 73.2724 78.1139 80.058 78.1139C86.8435 78.1139 87.5571 78.0628 88.2129 77.531C88.8421 77.0207 89.0123 76.3501 89.577 72.1575L90.2225 67.3672L91.541 66.8062L92.8597 66.2452L96.5271 69.11C101.668 73.1257 101.021 73.2694 107.601 66.6468C112.171 62.0473 112.894 61.1865 112.894 60.3471C112.894 59.6175 112.305 58.6055 110.533 56.2932C106.849 51.4835 107.09 51.98 107.736 50.5448C108.358 49.1647 107.997 49.2859 113.778 48.5132C115.727 48.2529 117.576 47.9027 117.889 47.7351C118.927 47.1785 119.149 45.6537 119.149 39.0598C119.149 30.1318 119.244 30.2884 113.363 29.5805C108.065 28.9427 108.307 29.0261 107.759 27.6538C107.487 26.9741 107.265 26.3686 107.265 26.3085C107.265 26.248 108.532 24.5412 110.08 22.5152C112.222 19.7109 112.894 18.6008 112.894 17.8644C112.894 17.0293 112.154 16.1554 107.49 11.4838C103.279 7.26647 101.907 6.07055 101.277 6.07055C100.737 6.07055 99.1912 7.04877 96.6293 9.01085L92.7906 11.9515L91.5059 11.3761L90.2216 10.8007L89.5767 6.04298C89.0129 1.88483 88.8412 1.21169 88.2129 0.702065C87.5568 0.169884 86.8422 0.119141 80.0092 0.119141C72.5969 0.119141 72.5172 0.126345 71.7985 0.845838ZM84.5437 6.14885C84.641 6.70891 84.8912 8.62495 85.0994 10.4069C85.3374 12.4436 85.6623 13.8606 85.9735 14.2218C86.5386 14.8767 92.4275 17.3469 93.4242 17.3469C93.7863 17.3469 94.4806 17.0214 94.9666 16.624C95.4529 16.2262 97.0199 15.0039 98.4494 13.9079L101.048 11.9148L104 14.8595C105.624 16.4792 106.951 17.948 106.948 18.1237C106.946 18.2994 105.828 19.8672 104.464 21.6078C103.1 23.3481 101.895 25.1282 101.786 25.5636C101.653 26.0939 101.839 26.8579 102.35 27.8806C102.77 28.7197 103.357 30.1518 103.655 31.0627C103.963 32.0052 104.501 32.9189 104.903 33.1826C105.291 33.4376 107.495 33.8905 109.799 34.1887L113.989 34.7313L114.076 39.0301C114.177 44.0383 114.826 43.3862 109.012 44.1226C105.167 44.6093 104.348 44.9599 103.959 46.2839C103.851 46.6488 103.268 48.1213 102.661 49.5565C101.343 52.676 101.28 52.447 104.672 56.8586L107.068 59.9752L103.99 63.0703L100.912 66.165L97.4868 63.5254C93.6462 60.5657 93.144 60.4247 90.7585 61.6338C89.9473 62.0451 88.6758 62.5638 87.933 62.7862C85.9391 63.3835 85.5344 64.1036 85.0988 67.8327C84.8908 69.6112 84.641 71.5244 84.5437 72.0842L84.3664 73.1022H80.058H75.7495L75.5722 72.0842C75.475 71.5244 75.2251 69.6112 75.0171 67.8327C74.5815 64.1036 74.1768 63.3835 72.1829 62.7862C71.4402 62.5638 70.1686 62.0451 69.3574 61.6338C66.9719 60.4247 66.4697 60.5657 62.6291 63.5254L59.2041 66.165L56.1288 63.0731L53.0537 59.9815L55.6168 56.6262C57.0263 54.7806 58.2581 52.9573 58.3541 52.5745C58.4586 52.1579 58.2222 51.2652 57.7656 50.3525C57.3459 49.5133 56.7664 48.1031 56.4775 47.2192C56.1885 46.3349 55.6981 45.3811 55.3873 45.0996C55.0151 44.7622 53.5531 44.4236 51.1004 44.1069C49.053 43.8426 47.0575 43.5594 46.6657 43.4776C45.9608 43.3304 45.9542 43.2831 46.0402 39.0301L46.1271 34.7313L50.3171 34.1887C52.6212 33.8905 54.8247 33.4376 55.2134 33.1826C55.6153 32.9189 56.1532 32.0052 56.4612 31.0627C56.7592 30.1518 57.3459 28.7197 57.7656 27.8806C58.2772 26.8579 58.4633 26.0939 58.3304 25.5636C58.2212 25.1282 57.016 23.3481 55.6519 21.6078C54.2877 19.8672 53.1697 18.2994 53.1676 18.1237C53.1654 17.948 54.492 16.4792 56.1156 14.8595L59.0681 11.9148L61.6665 13.9079C63.096 15.0039 64.6631 16.2262 65.1494 16.624C65.6353 17.0214 66.3196 17.3469 66.6695 17.3469C67.8263 17.3469 73.8422 14.7612 74.2663 14.0818C74.4896 13.7241 74.8361 12.022 75.0362 10.2992C75.2367 8.5764 75.4787 6.70891 75.5747 6.14885L75.7495 5.13085H80.058H84.3664L84.5437 6.14885ZM75.7477 21.2463C73.3709 21.823 69.8356 23.6717 67.9814 25.3077C67.1011 26.0842 65.7348 27.6767 64.9451 28.8459C59.256 37.2709 61.4708 48.625 69.9053 54.2754C80.3213 61.2532 94.1675 56.052 97.7523 43.815C98.613 40.8775 98.4847 36.6031 97.4424 33.4783C96.4492 30.5004 94.3452 27.2601 92.1345 25.3033C90.2704 23.6532 86.2484 21.6231 83.8735 21.1339C81.7101 20.6881 77.8279 20.742 75.7477 21.2463ZM85.4553 26.975C94.0178 30.991 96.0045 41.8128 89.3969 48.4458C84.144 53.7191 75.9616 53.689 70.6552 48.3769C63.5341 41.2484 66.616 29.4915 76.4616 26.2258C77.2303 25.9708 78.7977 25.8442 80.5271 25.8972C82.9263 25.9711 83.6537 26.1302 85.4553 26.975ZM78.3239 81.702C77.6443 82.3823 77.5562 82.7425 77.5562 84.8343V87.1976H50.7161H23.8763L23.1962 87.9224C22.5426 88.6197 22.5163 88.9019 22.5163 95.2608V101.874L23.3403 102.523C24.4236 103.377 25.4096 103.344 26.486 102.417L27.3636 101.662L27.4643 96.9357L27.565 92.2093H52.5606H77.5562V94.2306C77.5562 96.6694 77.968 97.683 79.1604 98.1776C79.8538 98.4652 80.2622 98.4652 80.9555 98.1776C82.1479 97.683 82.5598 96.6694 82.5598 94.2306V92.2093H106.483H130.407V96.9219C130.407 101.508 130.428 101.655 131.175 102.403C132.407 103.638 134.177 103.401 134.953 101.897C135.309 101.208 135.411 99.6473 135.411 94.873C135.411 88.7741 135.406 88.7306 134.643 87.9666L133.875 87.1976H108.217H82.5598V84.8343C82.5598 82.7425 82.4716 82.3823 81.792 81.702C81.3082 81.2171 80.6672 80.933 80.058 80.933C79.4488 80.933 78.8077 81.2171 78.3239 81.702ZM66.6236 101.36C66.0463 101.754 65.2794 102.474 64.9195 102.96C64.2709 103.837 64.2653 104.026 64.2653 124.942C64.2653 145.858 64.2709 146.047 64.9195 146.924C65.2794 147.41 66.0463 148.13 66.6236 148.524L67.6734 149.239L79.1038 149.15C90.357 149.062 90.5496 149.05 91.5122 148.362C93.5731 146.89 93.5052 147.689 93.5052 124.942C93.5052 102.195 93.5731 102.994 91.5122 101.522C90.5496 100.834 90.357 100.822 79.1038 100.734L67.6734 100.645L66.6236 101.36ZM88.5016 124.942V144.206H78.8071H69.1125V124.942V105.678H78.8071H88.5016V124.942ZM1.36474 106.358C0.0494108 106.996 0 107.579 0 122.465V136.717L0.767743 137.485L1.53517 138.254H9.83681H18.1381V138.99C18.1381 139.424 17.1777 140.979 15.7927 142.786C13.1742 146.203 12.9122 147.144 14.215 148.449L14.9824 149.218H24.8617H34.7411L35.5085 148.449C36.7973 147.158 36.5411 146.231 33.9389 142.772C32.6533 141.063 31.5979 139.347 31.5935 138.959L31.5854 138.254H39.8867H48.1883L48.9558 137.485L49.7235 136.717L49.7135 122.215C49.7032 106.929 49.7222 107.137 48.2587 106.356C47.3505 105.872 2.3639 105.873 1.36474 106.358ZM113.52 106.54C111.374 107.614 111.332 107.887 111.331 120.752L111.331 132.223L108.829 138.274C107.16 142.31 106.327 144.732 106.327 145.548C106.327 146.991 107.19 148.354 108.43 148.869C109.066 149.132 115.825 149.206 133.607 149.145L157.915 149.061L158.868 148.106C160.596 146.376 160.502 145.716 157.491 138.353L154.8 131.774V120.178C154.8 108.757 154.789 108.569 154.122 107.719C152.753 105.976 152.942 105.992 132.997 105.992C116.122 105.992 114.524 106.038 113.52 106.54ZM44.7199 122.123V133.243H24.8617H5.00362V122.123V111.003H24.8617H44.7199V122.123ZM149.796 120.557V130.11H133.065H116.334V120.557V111.003H133.065H149.796V120.557ZM77.7125 134.398C75.7745 134.927 74.2031 137.42 74.5705 139.383C75.1113 142.269 78.357 143.788 80.9767 142.381C83.7419 140.895 83.8679 136.719 81.2007 134.968C80.3516 134.411 78.6716 134.137 77.7125 134.398ZM152.633 139.664L154.429 144.049L133.299 144.13C121.677 144.174 112.113 144.154 112.044 144.085C111.975 144.017 112.729 141.971 113.718 139.539L115.517 135.117L133.177 135.198L150.836 135.279L152.633 139.664ZM79.3772 138.672C79.4356 138.974 79.2786 139.194 79.0047 139.194C78.424 139.194 78.0731 138.684 78.3483 138.238C78.631 137.78 79.2555 138.043 79.3772 138.672ZM26.5817 139.775C26.5817 141.035 26.7722 141.546 27.6907 142.751L28.7996 144.206H25.0325C22.9607 144.206 21.2654 144.134 21.2654 144.046C21.2654 143.959 21.6876 143.303 22.2036 142.59C22.9391 141.573 23.1418 140.964 23.1418 139.774V138.254H24.8617H26.5817V139.775Z" fill="#2C2C2C"/>
</svg>
