<svg width="160" height="160" viewBox="0 0 160 160" fill="none" xmlns="http://www.w3.org/2000/svg">
<path fill-rule="evenodd" clip-rule="evenodd" d="M29.112 0.505609C27.355 1.12843 24.8437 3.77041 24.363 5.5015C23.5223 8.52924 24.1287 11.0839 26.2183 13.3184C29.2957 16.6089 33.803 16.8559 37.1413 13.9169C37.9307 13.2221 38.765 12.1981 38.9953 11.6417L39.4143 10.6301H51.707H64V15.9647V21.2994H32.8183H1.63633L0.818333 22.1179L0 22.9361V74.6458V126.355L0.818333 127.174L1.63633 127.992H31.485H61.3333V135.994V143.996H47.485H33.6363L32.8183 144.815C32.0067 145.626 32 145.684 32 151.998C32 158.312 32.0067 158.37 32.8183 159.181L33.6363 160H80H126.364L127.182 159.181C127.993 158.37 128 158.312 128 151.998C128 145.684 127.993 145.626 127.182 144.815L126.364 143.996H112.515H98.6667V135.994V127.992H128.515H158.364L159.182 127.174L160 126.355V74.6458V22.9361L159.182 22.1179L158.364 21.2994H127.182H96V15.9647V10.6301H108.293H120.586L121.005 11.6417C121.235 12.1981 122.069 13.2221 122.859 13.9169C126.084 16.7569 130.46 16.6106 133.572 13.5588C139.512 7.73305 133.58 -2.01001 125.539 0.366241C124.048 0.807016 120.667 3.86543 120.667 4.77365C120.667 5.2391 119.131 5.29545 106.485 5.29545H92.303L91.485 6.11398C90.6667 6.93218 90.6667 6.93318 90.6667 14.1159V21.2994H80H69.3333V14.1159C69.3333 6.93318 69.3333 6.93218 68.515 6.11398L67.697 5.29545H53.5557H39.4143L38.9953 4.28387C38.4263 2.9102 35.9953 0.831689 34.3977 0.352905C32.6903 -0.158887 30.8347 -0.105207 29.112 0.505609ZM33.8483 6.11398C35.502 7.76772 34.3303 10.6301 32 10.6301C30.6297 10.6301 29.3333 9.33344 29.3333 7.96277C29.3333 6.5921 30.6297 5.29545 32 5.29545C32.6493 5.29545 33.3327 5.59786 33.8483 6.11398ZM129.848 6.11398C131.502 7.76772 130.33 10.6301 128 10.6301C126.63 10.6301 125.333 9.33344 125.333 7.96277C125.333 6.5921 126.63 5.29545 128 5.29545C128.649 5.29545 129.333 5.59786 129.848 6.11398ZM64 39.7029V52.7721L60.3333 56.4893C55.7867 61.0988 55.7013 61.4675 58.481 64.4986L60.2957 66.4771L57.4507 66.6438C53.938 66.8495 53.3333 67.3693 53.3333 70.1817V71.9785H39.707H26.081L25.662 70.9669C24.7237 68.7013 21.3647 66.6438 18.604 66.6438C14.4213 66.6438 10.6703 70.4271 10.6703 74.6458C10.6703 78.8645 14.4213 82.6477 18.604 82.6477C21.3647 82.6477 24.7237 80.5902 25.662 78.3247L26.081 77.3131H39.707H53.3333V79.1619C53.3333 80.6806 53.4797 81.1574 54.1517 81.8292C54.886 82.564 55.247 82.6477 57.6793 82.6477H60.3893L58.528 84.7049C55.6123 87.9277 55.6697 88.1247 61.097 93.5534C66.52 98.9777 66.6743 99.0224 69.8033 96.0677L71.8333 94.1505L72 97.0986C72.2427 101.391 72.1057 101.319 80 101.319C87.8943 101.319 87.7573 101.391 88 97.0986L88.1667 94.1505L90.1967 96.0677C93.3257 99.0224 93.48 98.9777 98.903 93.5534C104.33 88.1247 104.388 87.9277 101.472 84.7049L99.6107 82.6477H102.321C104.753 82.6477 105.114 82.564 105.848 81.8292C106.52 81.1574 106.667 80.6806 106.667 79.1619V77.3131H120.293H133.919L134.338 78.3247C134.568 78.8811 135.403 79.9051 136.192 80.5999C139.427 83.4483 143.919 83.2886 146.928 80.2188C150.113 76.97 150.103 72.1855 146.905 69.0497C144.672 66.8595 141.873 66.1624 138.872 67.0492C137.381 67.49 134 70.5484 134 71.4567C134 71.9218 132.512 71.9785 120.333 71.9785H106.667V70.1817C106.667 67.3693 106.062 66.8495 102.549 66.6438L99.7043 66.4771L101.519 64.4986C104.299 61.4675 104.213 61.0988 99.6667 56.4893L96 52.7721V39.7029V26.634H125.333H154.667V69.3111V111.988H80H5.33333V69.3111V26.634H34.6667H64V39.7029ZM90.6667 39.7045V52.7754L89.6013 53.8747C89.0153 54.4795 88.4153 54.9743 88.268 54.9743C88.1207 54.9743 88 53.7673 88 52.292C88 49.8884 87.915 49.5243 87.1817 48.7911C86.3703 47.9792 86.312 47.9726 80 47.9726C73.688 47.9726 73.6297 47.9792 72.8183 48.7911C72.085 49.5243 72 49.8884 72 52.292C72 53.7673 71.8947 54.9743 71.766 54.9743C71.637 54.9743 71.037 54.4948 70.4327 53.9087L69.3333 52.8431V39.7386V26.634H80H90.6667V39.7045ZM11.485 32.7872C10.969 33.303 10.6667 33.9865 10.6667 34.636C10.6667 35.2855 10.969 35.969 11.485 36.4848C12.303 37.3033 12.304 37.3033 19.485 37.3033H26.6667V48.4877V59.6724L27.485 60.4906L28.303 61.3092H37.3333H46.3637L47.1817 60.4906C48.2643 59.408 48.2643 57.8757 47.1817 56.7931C46.3637 55.9745 46.3627 55.9745 39.1817 55.9745H32V44.7901V33.6054L31.1817 32.7872L30.3637 31.9686H21.3333H12.303L11.485 32.7872ZM128.818 32.7872L128 33.6054V44.7901V55.9745H120.818C113.637 55.9745 113.636 55.9745 112.818 56.7931C112.302 57.3089 112 57.9924 112 58.6418C112 59.2913 112.302 59.9748 112.818 60.4906L113.636 61.3092H122.667H131.697L132.515 60.4906L133.333 59.6724V48.4877V37.3033H140.515C147.696 37.3033 147.697 37.3033 148.515 36.4848C149.031 35.969 149.333 35.2855 149.333 34.636C149.333 33.9865 149.031 33.303 148.515 32.7872L147.697 31.9686H138.667H129.636L128.818 32.7872ZM82.6667 55.4294C82.6667 58.1674 83.2393 58.9049 86.2987 60.1052C89.0957 61.2031 89.6143 61.1068 91.678 59.1066L93.1897 57.6416L94.9847 59.46L96.78 61.2782L95.4013 62.7745C93.5247 64.8107 93.445 65.3805 94.6263 68.3212C95.913 71.5247 96.481 71.9785 99.2037 71.9785H101.333V74.6458V77.3131H99.1853C97.427 77.3131 96.8857 77.4491 96.203 78.0633C95.351 78.8295 93.6667 82.5897 93.6667 83.7253C93.6667 84.0714 94.412 85.143 95.323 86.1066L96.9797 87.8587L95.2293 89.5874C94.2667 90.5383 93.3393 91.3165 93.1687 91.3165C92.9983 91.3165 92.2207 90.6904 91.441 89.9252C89.7337 88.2488 88.73 88.1494 85.9153 89.378C82.9317 90.6804 82.6667 91.0331 82.6667 93.7021V95.9843H80H77.3333V93.8358C77.3333 92.077 77.1973 91.5356 76.5833 90.8527C75.782 89.9612 72.0387 88.3158 70.812 88.3158C70.4007 88.3158 69.3047 89.0059 68.344 89.8702L66.6157 91.4242L64.9143 89.7225L63.213 88.0207L64.5687 86.5497C66.504 84.4498 66.5523 84.0637 65.2733 80.927C64.0137 77.8365 63.2997 77.3131 60.344 77.3131H58.6667V74.6458V71.9785H60.7883C63.5257 71.9785 64.263 71.4056 65.463 68.3456C66.5607 65.5479 66.4643 65.0291 64.4647 62.9649L63 61.4529L64.8117 59.6634L66.623 57.874L68.3477 59.425C69.3057 60.2866 70.401 60.9758 70.812 60.9758C72.0387 60.9758 75.782 59.3304 76.5833 58.4388C77.1973 57.756 77.3333 57.2145 77.3333 55.4557V53.3072H80H82.6667V55.4294ZM76.6683 64.5106C71.935 66.2364 69.023 70.6124 69.4127 75.414C70.2727 86.0096 84.1793 88.9689 89.306 79.647C90.4113 77.6368 90.4973 77.2744 90.4927 74.6458C90.488 72.0605 90.3877 71.6267 89.3507 69.7029C87.4493 66.1757 84.5717 64.3516 80.5223 64.1069C78.8677 64.0068 77.721 64.1269 76.6683 64.5106ZM82.1097 69.7659C85.5343 71.1973 86.3693 75.6884 83.706 78.3527C81.5437 80.5152 78.4563 80.5152 76.294 78.3527C72.172 74.2293 76.7203 67.5137 82.1097 69.7659ZM20.515 72.797C21.031 73.3128 21.3333 73.9963 21.3333 74.6458C21.3333 75.2953 21.031 75.9788 20.515 76.4946C19.9993 77.0107 19.316 77.3131 18.6667 77.3131C18.0173 77.3131 17.334 77.0107 16.8183 76.4946C16.3023 75.9788 16 75.2953 16 74.6458C16 73.9963 16.3023 73.3128 16.8183 72.797C17.334 72.2809 18.0173 71.9785 18.6667 71.9785C19.316 71.9785 19.9993 72.2809 20.515 72.797ZM143.182 72.797C144.835 74.4507 143.664 77.3131 141.333 77.3131C139.963 77.3131 138.667 76.0164 138.667 74.6458C138.667 73.2751 139.963 71.9785 141.333 71.9785C141.983 71.9785 142.666 72.2809 143.182 72.797ZM154.667 119.99V122.658H80H5.33333V119.99V117.323H80H154.667V119.99ZM93.3333 135.994V143.996H80H66.6667V135.994V127.992H80H93.3333V135.994ZM122.667 151.998V154.665H80H37.3333V151.998V149.331H80H122.667V151.998Z" fill="#2C2C2C"/>
</svg>
