<svg width="160" height="107" viewBox="0 0 160 107" fill="none" xmlns="http://www.w3.org/2000/svg">
<path fill-rule="evenodd" clip-rule="evenodd" d="M36.23 1.19295C32.7444 1.86266 30.6947 2.60255 27.9623 4.17863C15.9307 11.1181 6.76081 29.3953 2.05357 55.8205C0.479271 64.6592 0.00763884 69.7164 0.000122784 77.8504C-0.00739327 85.8372 0.328011 89.1398 1.59791 93.5744C4.4299 103.466 11.2701 107.999 20.3896 106.028C27.7243 104.443 36.3888 98.9494 48.6988 88.0798C53.4233 83.9083 55.8817 82.3367 60.3403 80.6375C73.8807 75.4775 94.0416 76.6101 104.989 83.1458C106.187 83.8608 109.018 86.0811 111.282 88.0798C127.005 101.963 137.268 107.397 145.659 106.28C153.034 105.299 157.547 99.6336 159.405 89.0227C160.183 84.5831 160.202 72.2104 159.441 65.8913C157.121 46.6284 151.728 28.3357 145.337 18.0594C139.662 8.93552 133.653 3.78241 126.183 1.63449C124.055 1.02269 122.946 0.914429 118.823 0.915688C113.214 0.917576 111.577 1.19767 98.7216 4.35393C88.6479 6.82694 83.4837 7.76856 79.9904 7.76856C76.5649 7.76856 71.7885 6.90562 61.3296 4.39736C56.694 3.28548 51.2806 2.07792 49.2998 1.7138C44.5647 0.842988 39.1713 0.628039 36.23 1.19295ZM51.0222 9.39154C53.0891 9.84819 57.0238 10.7879 59.7659 11.4803C72.0976 14.5934 78.0299 15.4756 82.9132 14.922C87.5443 14.397 90.5081 13.8192 99.0937 11.7676C111.787 8.73442 113.138 8.49996 117.884 8.50814C121.605 8.51412 122.412 8.61483 124.617 9.34811C131.476 11.6288 136.529 16.8144 141.371 26.5421C146.128 36.0975 149.416 47.982 151.754 64.0767C152.671 70.3914 152.793 85.0278 151.96 88.8654C150.099 97.446 146.733 100.317 140.309 98.8037C134.343 97.3979 126.776 92.4402 116.318 83.0857C110.279 77.6839 106.883 75.4957 101.519 73.5514C95.1499 71.2427 90.0678 70.3319 82.1825 70.0868C73.53 69.8177 67.1617 70.6542 59.791 73.0281C53.2639 75.1304 48.561 78.0471 41.6272 84.2935C36.3146 89.0797 29.4853 94.0773 25.499 96.0968C17.7847 100.005 12.9459 99.7132 10.2411 95.1785C8.99183 93.0838 8.40652 91.1795 7.76922 87.1345C7.0934 82.8459 7.34957 70.1831 8.24148 63.7916C11.1561 42.9063 17.3253 25.4642 24.9622 16.5176C28.3328 12.5689 32.9364 9.66502 37.2428 8.77061C40.4988 8.09429 46.3413 8.35771 51.0222 9.39154ZM41.2692 20.9201C38.9793 21.2115 36.4145 22.4902 34.7365 24.1764C33.1898 25.7305 31.4498 29.0111 31.4495 30.3738C31.4492 31.2251 30.9634 31.5876 29.8241 31.5876C29.4753 31.5876 28.3068 32.0112 27.2277 32.5286C22.1988 34.9406 19.5716 40.4078 20.9129 45.6694C22.0475 50.1195 24.9158 53.0293 29.3785 54.2567C31.2453 54.7703 31.2904 54.8087 31.5021 56.0547C32.0345 59.1879 34.8646 62.6831 38.0527 64.1444C44.0965 66.9145 51.3072 63.8636 53.6613 57.5404C54.0183 56.5815 54.3105 55.537 54.3105 55.2194C54.3105 54.7864 54.6334 54.5903 55.6036 54.4342C58.9335 53.8992 62.3608 51.1407 63.9624 47.7066C65.1139 45.2377 65.1687 41.0539 64.0807 38.6687C62.2628 34.6828 59.4537 32.4002 55.2124 31.4627C54.5551 31.3176 54.3531 31.046 54.1962 30.0971C53.8746 28.1491 52.6235 25.8507 50.9928 24.212C48.4323 21.6389 44.932 20.454 41.2692 20.9201ZM111.774 22.4015C106.898 24.6935 106.49 31.6216 111.054 34.6532C112.194 35.4111 112.662 35.5206 114.73 35.5152C116.775 35.5096 117.283 35.3903 118.429 34.6479C119.159 34.1742 120.145 33.1961 120.621 32.4742C121.375 31.3283 121.485 30.8556 121.485 28.7552C121.485 26.6551 121.375 26.1818 120.621 25.0372C119.271 22.9868 117.571 22.0232 115.1 21.908C113.574 21.8369 112.699 21.9668 111.774 22.4015ZM45.1459 28.6331C46.4456 29.4602 46.858 30.5189 47.092 33.6301C47.4089 37.8403 48.4217 38.826 52.4315 38.826C55.0236 38.826 56.2528 39.3434 57.1415 40.8084C58.3479 42.7961 57.5963 45.756 55.6493 46.686C55.1714 46.9145 53.583 47.1706 52.1196 47.2556C48.1041 47.4891 47.1076 48.471 47.1076 52.1956C47.1076 55.9074 45.6658 57.7053 42.6872 57.7075C40.0438 57.7097 38.6521 55.9209 38.6521 52.5217C38.6521 48.4471 37.2819 47.0117 33.3908 47.0098C29.7837 47.0079 28.0043 45.6279 28.0043 42.8323C28.0043 40.2668 29.806 38.8377 33.0776 38.8084C37.3474 38.7697 38.4131 37.7198 38.6627 33.306C38.8171 30.5742 38.9001 30.2743 39.7469 29.3859C41.2304 27.8299 43.4066 27.5266 45.1459 28.6331ZM98.2982 36.3284C96.8617 36.7483 94.8505 38.6447 94.2389 40.1563C92.3345 44.8647 95.5354 49.8863 100.441 49.8857C103.404 49.8853 105.603 48.5217 106.797 45.9439C108.047 43.2468 107.67 40.6051 105.728 38.4399C103.791 36.2806 101.089 35.513 98.2982 36.3284ZM126.183 36.5849C122.512 38.2772 121.008 42.302 122.699 45.9071C123.965 48.6026 126.001 49.886 129.014 49.886C132.725 49.886 135.779 46.8188 135.779 43.0904C135.779 40.0594 134.503 38.0134 131.82 36.7417C129.928 35.8451 127.909 35.789 126.183 36.5849ZM112.552 50.6385C106.23 52.5969 106.437 62.0245 112.842 63.896C117.212 65.1725 121.614 61.8731 121.635 57.3053C121.649 54.2794 119.611 51.4529 116.815 50.6183C114.955 50.0632 114.401 50.066 112.552 50.6385Z" fill="#2C2C2C"/>
</svg>
