<svg width="160" height="160" viewBox="0 0 160 160" fill="none" xmlns="http://www.w3.org/2000/svg">
<path fill-rule="evenodd" clip-rule="evenodd" d="M5.36718 0.423429C3.73189 0.939136 0.94276 3.82869 0.44131 5.52682C-0.147103 7.51931 -0.147103 123.133 0.44131 125.125C0.982076 126.956 3.74222 129.718 5.57243 130.259C6.59932 130.562 13.6546 130.664 33.6436 130.664C50.4334 130.664 60.3434 130.783 60.3434 130.984C60.3434 131.159 59.083 135.922 57.5423 141.568C56.0017 147.213 54.5716 152.47 54.364 153.249L53.9872 154.666H51.0011H48.0154V157.333V160H80.0016H111.988V157.333V154.666H109.002H106.016L105.639 153.249C105.432 152.47 104.002 147.213 102.461 141.568C100.92 135.922 99.6598 131.159 99.6598 130.984C99.6598 130.783 109.593 130.664 126.422 130.664C156.859 130.664 155.216 130.804 157.734 128.002C158.527 127.12 159.353 125.803 159.571 125.076C160.143 123.165 160.143 7.48697 159.571 5.57616C159.353 4.84877 158.527 3.53234 157.734 2.6506C155.112 -0.267956 162.56 -0.0166043 79.859 0.021732C27.417 0.0460672 6.20116 0.160409 5.36718 0.423429ZM153.818 6.13987L154.636 6.95793V56.8104V106.663H137.31H119.984V104.865V103.068L116.902 101.719C115.207 100.977 113.143 100.081 112.315 99.7277C110.954 99.147 110.725 98.8776 109.916 96.9055L109.021 94.7257L110.862 90.1356L112.703 85.546L108.238 81.0789L103.773 76.6116L99.2187 78.4401L94.6646 80.2689L92.4542 79.3915C90.4354 78.5901 90.1882 78.3831 89.6002 77.0036C89.2463 76.1732 88.3484 74.1027 87.605 72.4029L86.2536 69.3124L79.9363 69.4027L73.6194 69.4931L71.7042 73.9741L69.7894 78.4551L67.6077 79.3795L65.4259 80.3039L60.8282 78.4577L56.2302 76.6116L51.7655 81.0789L47.3004 85.546L49.1456 90.1463L50.9908 94.7463L50.0719 96.9175L49.1526 99.0887L44.5859 101.085L40.0189 103.082V104.872V106.663H22.693H5.36718V56.8104V6.95793L6.18516 6.13987L7.00281 5.32147H80.0016H153L153.818 6.13987ZM18.6948 11.0909C17.0595 11.6066 14.2703 14.4962 13.7689 16.1943C13.1905 18.1535 13.1905 56.4944 13.7689 58.4535C14.3097 60.2847 17.0698 63.0462 18.9 63.5873C19.9236 63.89 26.6473 63.9926 45.4126 63.9926C74.0325 63.9926 72.5948 64.1216 75.1034 61.3298C75.8957 60.448 76.722 59.1316 76.94 58.4042C77.5027 56.5251 77.5027 18.1228 76.94 16.2436C76.722 15.5163 75.8957 14.1998 75.1034 13.3181C72.5898 10.5209 74.0655 10.6505 45.2073 10.6892C27.7462 10.7126 19.4981 10.8376 18.6948 11.0909ZM106.823 11.1192C94.6 13.4751 85.2514 22.9165 83.1333 35.0441C81.52 44.2801 84.6166 54.0112 91.2958 60.6934C96.5412 65.9418 103.156 68.821 110.905 69.2284L114.653 69.4254V56.0417V42.6577H128.031H141.407L141.211 38.9074C140.509 25.5477 132.1 15.1332 119.151 11.5853C116.099 10.7492 109.949 10.5165 106.823 11.1192ZM71.1871 16.8074C71.8588 17.4791 72.0051 17.9558 72.0051 19.4742V21.3227H45.3499H18.6948V19.4742C18.6948 17.9558 18.841 17.4791 19.5127 16.8074L20.3304 15.989H45.3499H70.3695L71.1871 16.8074ZM119.04 17.0864C122.954 18.3341 125.814 20.0963 128.843 23.1268C132.569 26.8545 134.932 31.3048 135.513 35.6878L135.73 37.3239H124.444H113.159L105.243 29.4093C100.89 25.0563 97.3275 21.3777 97.3275 21.2347C97.3275 20.7217 101.37 18.3738 103.746 17.5067C107.131 16.2716 108.959 16.0026 112.987 16.147C115.502 16.237 117.204 16.501 119.04 17.0864ZM101.406 33.2376L109.322 41.1522V52.4488V63.7453L107.63 63.5206C105.411 63.2262 102.135 62.0198 99.7458 60.618C96.9936 59.0033 92.6945 54.6213 91.1731 51.8807C87.6293 45.4959 87.0832 38.0626 89.6661 31.3758C90.6087 28.9359 92.7491 25.323 93.2522 25.323C93.3835 25.323 97.0529 28.8846 101.406 33.2376ZM72.0051 41.8393V57.0224L71.1871 57.8405L70.3695 58.6589H45.3499H20.3304L19.5127 57.8405L18.6948 57.0224V41.8393V26.6564H45.3499H72.0051V41.8393ZM27.6895 37.8253L22.8653 42.6607L27.7758 47.5737L32.6864 52.4868L34.5982 50.5739L36.5097 48.6615L33.5234 45.6596L30.537 42.6577L33.4454 39.7341C35.045 38.1263 36.3538 36.6579 36.3538 36.4715C36.3538 36.0398 33.2751 32.9903 32.8397 32.9903C32.6601 32.9903 30.3427 35.1661 27.6895 37.8253ZM55.916 34.585C55.0527 35.4624 54.346 36.3218 54.346 36.4955C54.346 36.6689 55.6548 38.1263 57.2545 39.7341L60.1629 42.6577L57.1765 45.6596L54.1901 48.6615L56.1016 50.5739L58.0135 52.4868L62.924 47.5737L67.8345 42.6607L63.0103 37.8253C60.3571 35.1661 58.0288 32.9903 57.8362 32.9903C57.644 32.9903 56.7797 33.708 55.916 34.585ZM42.8707 42.8493C41.405 46.5253 40.3957 49.4965 40.5603 49.6539C40.7206 49.8075 41.7991 50.3149 42.9573 50.7816L45.0624 51.6304L45.5069 50.5609C48.2047 44.0708 50.2965 38.475 50.0959 38.2847C49.906 38.1043 45.7514 36.3238 45.5205 36.3238C45.4945 36.3238 44.302 39.2604 42.8707 42.8493ZM119.984 61.3731V74.7545L123.566 74.5651C127.773 74.3424 130.263 73.7324 133.52 72.1256C139.42 69.2164 144.088 63.5259 145.82 57.1344C146.114 56.0477 146.44 53.5458 146.545 51.575L146.734 47.9914H133.359H119.984V61.3731ZM140.975 54.1062C140.975 55.224 139.792 58.5116 138.746 60.299C137.545 62.3528 134.932 65.0724 132.916 66.3668C131.049 67.5652 127.362 68.993 126.133 68.993H125.315V61.1591V53.3252H133.145H140.975V54.1062ZM13.3637 74.6601V77.327H29.3568H45.3499V74.6601V71.9932H29.3568H13.3637V74.6601ZM84.4967 78.6308L86.1596 82.5944L90.3628 84.3152L94.5657 86.036L98.3477 84.5152C100.428 83.6785 102.282 82.9941 102.467 82.9941C102.922 82.9941 106.324 86.378 106.324 86.8307C106.324 87.0284 105.64 88.8929 104.803 90.974L103.283 94.758L105.003 98.9603L106.722 103.162L110.771 104.899L114.82 106.636L107.906 106.649L100.993 106.663V105.884C100.993 105.456 100.68 104.143 100.299 102.967C97.4144 94.0759 89.1797 88.0061 80.0016 88.0061C72.4199 88.0061 65.173 92.2478 61.5113 98.8286C60.3005 101.004 59.0107 104.644 59.0107 105.884V106.663L52.097 106.649L45.1833 106.636L49.2326 104.899L53.2815 103.162L55.0008 98.9603L56.72 94.758L55.2 90.974C54.3637 88.8929 53.6797 87.0381 53.6797 86.8527C53.6797 86.3974 57.0619 82.9941 57.5143 82.9941C57.7119 82.9941 59.5761 83.6788 61.6572 84.5159L65.4413 86.0377L69.6394 84.3275L73.8376 82.6177L75.5036 78.6424L77.1695 74.6671H80.0016H82.8337L84.4967 78.6308ZM13.3637 85.3276V87.9945H25.3586H37.3534V85.3276V82.6607H25.3586H13.3637V85.3276ZM119.984 85.3276V87.9945H133.312H146.64V85.3276V82.6607H133.312H119.984V85.3276ZM13.3637 95.9951V98.662H25.3586H37.3534V95.9951V93.3282H25.3586H13.3637V95.9951ZM83.8193 93.8386C86.7411 94.6 89.4149 96.1734 91.4953 98.3556C93.3352 100.285 95.1044 103.454 95.5286 105.579L95.7448 106.663H80.0016H64.2584L64.4747 105.579C64.8988 103.454 66.6681 100.285 68.5079 98.3556C72.5049 94.1633 78.396 92.4255 83.8193 93.8386ZM119.984 95.9951V98.662H133.312H146.64V95.9951V93.3282H133.312H119.984V95.9951ZM154.636 117.845C154.636 123.611 154.624 123.706 153.818 124.512L153 125.331H80.0016H7.00281L6.18516 124.512C5.37884 123.706 5.36718 123.611 5.36718 117.845V111.996H80.0016H154.636V117.845ZM94.3468 132.081C94.5543 132.86 95.9844 138.117 97.5251 143.763C99.0657 149.409 100.326 154.172 100.326 154.347C100.326 154.547 92.7295 154.666 80.0016 154.666C67.2738 154.666 59.6771 154.547 59.6771 154.347C59.6771 154.172 60.9375 149.409 62.4782 143.763C64.0189 138.117 65.4489 132.86 65.6565 132.081L66.0333 130.664H80.0016H93.9699L94.3468 132.081Z" fill="#2C2C2C"/>
</svg>
