<svg width="160" height="160" viewBox="0 0 160 160" fill="none" xmlns="http://www.w3.org/2000/svg">
<path fill-rule="evenodd" clip-rule="evenodd" d="M33.3307 0.470491C26.7245 1.73219 21.5219 4.51407 16.7602 9.3308C12.6068 13.5318 9.93215 18.306 8.48629 24.0992C7.72063 27.1666 7.7203 34.8175 8.48532 37.883C11.5851 50.2996 21.2868 59.379 33.688 61.4688L35.9618 61.8521L36.0482 69.6275L36.1343 77.4033L33.6293 77.6072C17.8242 78.8931 6.76048 83.0245 2.25165 89.3243C-0.0882342 92.5934 0.00078145 91.3769 0.00078145 120.123C0.00078145 148.233 -0.0956521 146.705 1.85398 149.529C4.31642 153.096 12.2043 156.707 21.2871 158.425C27.7169 159.642 30.6979 159.892 38.7032 159.886C49.0368 159.879 55.581 159.011 63.208 156.637C70.8394 154.261 75.1848 151.232 76.907 147.089C77.3134 146.111 77.4056 144.335 77.4056 137.484V129.078L85.2255 129.164L93.0456 129.251L93.2836 131.159C93.8348 135.578 95.9425 141.133 98.5817 145.123C100.139 147.479 103.765 151.322 106.193 153.193C116.262 160.948 130.025 162.179 141.587 156.359C144.891 154.696 146.46 153.572 149.402 150.76C154.946 145.461 158.303 139.166 159.496 131.832C161.859 117.305 154.473 103.128 141.022 96.373C138.373 95.0429 133.976 93.7005 131.105 93.3459L129.17 93.1071L129.087 74.9573L129.003 56.8076H141.144C149.733 56.8076 153.673 56.6927 154.612 56.4152C156.383 55.8914 159.055 53.2183 159.579 51.4458C160.14 49.5436 160.14 7.27884 159.579 5.37661C159.055 3.60409 156.383 0.930964 154.612 0.407245C152.823 -0.121315 133.638 -0.141644 131.886 0.383043C130.04 0.936772 128.618 2.28624 125.431 6.50923L122.538 10.3408H111.056C102.983 10.3408 99.179 10.4573 98.2456 10.7332C96.474 11.2569 93.8022 13.93 93.2788 15.7025C93.0359 16.5254 92.8866 19.1976 92.8866 22.7248V28.4193L81.2169 28.3344L69.5468 28.2499L69.164 25.9749C68.5937 22.5883 67.8261 20.1995 66.3761 17.2998C62.2465 9.03973 54.7112 3.0139 45.757 0.810602C42.8795 0.102952 36.2114 -0.0796883 33.3307 0.470491ZM154.019 5.97002C154.81 6.7619 154.81 6.76286 154.81 13.7145V20.6667H126.429H98.0469V18.8775C98.0469 17.4076 98.1885 16.9462 98.8387 16.296L99.6302 15.5038H112.376H125.122L128.553 10.9055C130.441 8.37629 132.275 6.05295 132.629 5.74253C133.213 5.23075 134.209 5.17783 143.25 5.17783H153.227L154.019 5.97002ZM30.1261 8.59378C28.5074 11.0088 26.8754 14.132 25.9672 16.5525L25.3922 18.0853H20.9027H16.4129L16.9953 17.0723C18.0277 15.2785 22.246 11.0414 24.4785 9.55668C26.3633 8.30304 31.2688 6.02198 31.5262 6.27948C31.5758 6.32917 30.946 7.3708 30.1261 8.59378ZM43.1053 11.7012C43.8864 12.8929 44.9572 14.7806 45.4845 15.8962L46.4437 17.9239L42.5735 18.0146C40.4448 18.0643 36.9516 18.0643 34.8107 18.0146L30.9182 17.9239L32.2376 15.2876C33.6477 12.4702 35.8128 9.30982 37.6557 7.37952L38.7884 6.193L40.2368 7.86354C41.0334 8.78223 42.3241 10.5092 43.1053 11.7012ZM52.0456 8.94261C54.1664 10.2117 59.4522 15.3308 60.4111 17.044L60.9936 18.0853H56.5037H52.0143L51.4392 16.5525C50.5316 14.134 48.8994 11.0094 47.2848 8.60056C46.4676 7.38081 45.7987 6.33111 45.7987 6.26722C45.7987 5.96777 50.2862 7.88968 52.0456 8.94261ZM134.169 12.9223V15.5038H136.749H139.33V12.9223V10.3408H136.749H134.169V12.9223ZM144.49 12.9223V15.5038H147.07H149.65V12.9223V10.3408H147.07H144.49V12.9223ZM23.6415 25.265C23.3096 27.8594 23.3096 34.126 23.6415 36.7204L23.8992 38.7371H19.0375H14.1755L13.8559 37.8959C13.6802 37.4332 13.3641 35.6907 13.1538 34.0237C12.7616 30.9178 13.1045 26.0669 13.8559 24.0895L14.1755 23.2482H19.0375H23.8992L23.6415 25.265ZM48.6004 25.8297C49.2261 29.7833 49.0374 35.3502 48.1821 38.1773C48.0218 38.7071 47.3548 38.741 38.5994 38.6613L29.1889 38.5758L28.806 36.1557C28.1803 32.2021 28.369 26.6351 29.2243 23.8081C29.3846 23.2782 30.0516 23.2444 38.8071 23.3241L48.2176 23.4096L48.6004 25.8297ZM63.8221 25.023C64.4194 27.1824 64.4194 34.803 63.8221 36.9624L63.376 38.5758L58.4476 38.6649L53.5195 38.7539L53.771 36.5674C53.9097 35.3648 54.0229 32.8562 54.0229 30.9927C54.0229 29.1292 53.9097 26.6206 53.771 25.418L53.5195 23.2315L58.4476 23.3205L63.376 23.4096L63.8221 25.023ZM154.81 37.945V50.0605L154.019 50.8524L153.227 51.6446H126.429H99.6302L98.8387 50.8524L98.0469 50.0605V37.945V25.8297H126.429H154.81V37.945ZM30.9627 30.9927V33.5742H33.5429H36.123V30.9927V28.4112H33.5429H30.9627V30.9927ZM41.2834 30.9927V33.5742H43.8635H46.4437V30.9927V28.4112H43.8635H41.2834V30.9927ZM92.8866 41.8459C92.8866 47.3971 93.0156 50.5545 93.2788 51.4458C93.8022 53.2183 96.474 55.8914 98.2456 56.4152C99.1848 56.6927 103.124 56.8076 111.713 56.8076H123.854L123.77 74.9573L123.687 93.1071L121.78 93.3456C110.997 94.6928 100.887 102.198 96.107 112.403C94.7201 115.364 93.6442 118.967 93.2836 121.856L93.0456 123.765L85.2255 123.851L77.4056 123.938V109.147C77.4056 97.0119 77.3198 94.0668 76.927 92.7441C75.4902 87.9035 69.7264 83.4743 61.2796 80.7202C56.4002 79.1293 51.2676 78.2165 43.7771 77.6072L41.2721 77.4033L41.3582 69.6282L41.4446 61.8527L43.9474 61.43C51.5921 60.1386 58.5988 55.8934 63.2944 49.7085C66.2593 45.803 69.331 38.2476 69.3404 34.8381C69.3417 34.3796 69.4394 33.9075 69.5578 33.7894C69.6758 33.671 74.9732 33.5742 81.3297 33.5742H92.8866V41.8459ZM103.207 43.9001V46.4816H105.787H108.368V43.9001V41.3186H105.787H103.207V43.9001ZM113.528 43.9001V46.4816H116.108H118.688V43.9001V41.3186H116.108H113.528V43.9001ZM123.849 43.9001V46.4816H126.429H129.009V43.9001V41.3186H126.429H123.849V43.9001ZM25.9672 45.4329C26.8754 47.8533 28.5074 50.9766 30.1261 53.3916C30.946 54.6146 31.5774 55.6549 31.5294 55.7027C31.2604 55.9718 26.5052 53.7769 24.5726 52.4916C22.2618 50.9544 18.0445 46.7365 16.9953 44.913L16.4129 43.9001H20.9027H25.3922L25.9672 45.4329ZM45.9483 45.1102C44.694 48.1205 41.4133 53.0792 39.4547 54.925L38.542 55.785L36.611 53.4245C34.6869 51.0721 31.9425 46.6158 31.3227 44.8366L30.9963 43.9001H38.7242H46.4524L45.9483 45.1102ZM60.4111 44.913C59.3619 46.7365 55.1446 50.9544 52.8338 52.4916C50.9012 53.7769 46.146 55.9718 45.877 55.7027C45.829 55.6549 46.4605 54.6146 47.2803 53.3916C48.899 50.9766 50.531 47.8533 51.4392 45.4329L52.0143 43.9001H56.5037H60.9936L60.4111 44.913ZM49.8905 83.4078C62.7226 85.2971 72.2453 90.4611 72.2453 95.5298C72.2453 100.593 62.789 105.685 49.6689 107.685C45.0856 108.384 33.2952 108.473 28.7051 107.843C21.5971 106.868 14.2881 104.579 10.365 102.097C3.46658 97.7344 3.46658 93.3253 10.365 88.9622C14.3791 86.4237 22.1179 84.029 28.7051 83.2871C30.3903 83.0974 32.277 82.8831 32.8978 82.8109C35.2332 82.5388 46.7323 82.9428 49.8905 83.4078ZM23.2222 88.2071C22.6014 88.403 21.3629 89.2959 20.4699 90.191C18.1906 92.4766 17.561 94.888 18.4541 97.9126C18.9776 99.6851 21.6493 102.358 23.4209 102.882C25.2986 103.437 52.1078 103.437 53.9855 102.882C55.7571 102.358 58.4289 99.6851 58.9523 97.9126C59.7967 95.0536 59.2316 92.6424 57.1833 90.363C54.8505 87.7667 54.9495 87.7802 38.5652 87.8183C29.1902 87.8399 23.9666 87.9725 23.2222 88.2071ZM53.3924 93.7405C53.8917 94.2397 54.1842 94.9013 54.1842 95.5298C54.1842 96.1584 53.8917 96.8199 53.3924 97.3191L52.6009 98.1113H38.7032H24.8055L24.014 97.3191C23.5148 96.8199 23.2222 96.1584 23.2222 95.5298C23.2222 94.9013 23.5148 94.2397 24.014 93.7405L24.8055 92.9484H38.7032H52.6009L53.3924 93.7405ZM131.44 98.6067C137.028 99.5815 142.307 102.356 146.437 106.489C155.216 115.272 157.267 128.384 151.602 139.507C150.963 140.761 150.299 141.834 150.126 141.891C149.953 141.949 149.39 141.234 148.874 140.302C148.359 139.371 146.684 137.36 145.151 135.833C142.932 133.624 141.793 132.775 139.562 131.669L136.76 130.28L138.024 128.907C143.476 122.989 143.056 113.368 137.097 107.681C128.446 99.425 114.459 103.476 111.429 115.115C110.201 119.829 111.567 125.362 114.833 128.907L116.098 130.28L113.296 131.669C111.065 132.775 109.925 133.624 107.707 135.833C106.174 137.36 104.498 139.371 103.983 140.302C103.468 141.234 102.904 141.949 102.731 141.891C102.558 141.834 101.894 140.761 101.255 139.507C95.5848 128.373 97.6328 115.28 106.42 106.489C113.067 99.838 122.132 96.9826 131.44 98.6067ZM10.4827 108.026C17.253 111.404 25.5824 113.168 36.2843 113.488C50.3265 113.908 63.2476 111.036 70.8746 105.798L72.2453 104.857V109.712V114.566L71.1139 115.82C68.3009 118.935 60.5969 121.72 50.7977 123.165C45.3507 123.968 32.0557 123.968 26.6087 123.165C16.8096 121.72 9.10553 118.935 6.29251 115.82L5.1611 114.566V109.712V104.857L6.53182 105.798C7.28555 106.316 9.0636 107.319 10.4827 108.026ZM131.283 109.763C133.464 110.926 134.449 111.953 135.706 114.372C136.433 115.773 136.563 116.432 136.569 118.763C136.576 121.275 136.484 121.677 135.48 123.539C134.26 125.804 133.248 126.782 130.817 128.045C129.413 128.776 128.767 128.902 126.429 128.902C124.091 128.902 123.445 128.776 122.04 128.045C119.61 126.782 118.598 125.804 117.377 123.539C116.373 121.675 116.282 121.278 116.292 118.763C116.304 115.527 117.069 113.591 119.164 111.496C122.384 108.277 127.204 107.588 131.283 109.763ZM13.2241 125.345C17.3975 126.738 21.2736 127.612 26.4836 128.335C31.4933 129.03 44.6785 129.128 49.6689 128.506C57.8657 127.486 65.1886 125.474 69.907 122.947L72.2453 121.694V125.875V130.055L71.1139 131.309C68.3009 134.424 60.5969 137.209 50.7977 138.654C45.3507 139.457 32.0557 139.457 26.6087 138.654C16.8096 137.209 9.10553 134.424 6.29251 131.309L5.1611 130.055V125.875V121.694L7.49938 122.955C8.78526 123.648 11.3616 124.724 13.2241 125.345ZM134.853 135.274C137.699 136.345 139.495 137.438 141.355 139.228C143.099 140.908 145.235 144.054 145.805 145.785C146.174 146.901 146.147 146.98 145.097 147.88C143.319 149.404 139.902 151.575 137.854 152.481C134.078 154.153 131.166 154.725 126.429 154.725C121.434 154.725 118.383 154.073 114.305 152.137C111.727 150.913 106.753 147.351 106.758 146.732C106.764 145.99 108.297 143.1 109.592 141.387C111.377 139.026 113.565 137.265 116.291 135.995C119.5 134.499 121.008 134.277 127.235 134.38C132.161 134.462 132.935 134.553 134.853 135.274ZM13.2241 140.834C17.3872 142.223 21.2597 143.097 26.4836 143.827C32.0625 144.607 45.3439 144.607 50.9229 143.827C58.6837 142.743 65.5372 140.799 69.907 138.443L72.2453 137.183V141.364V145.544L71.1139 146.798C68.3009 149.913 60.5969 152.698 50.7977 154.143C45.3507 154.946 32.0557 154.946 26.6087 154.143C16.8096 152.698 9.10553 149.913 6.29251 146.798L5.1611 145.544V141.364V137.183L7.49938 138.443C8.78526 139.137 11.3616 140.212 13.2241 140.834Z" fill="#2C2C2C"/>
</svg>
