<svg width="154" height="160" viewBox="0 0 154 160" fill="none" xmlns="http://www.w3.org/2000/svg">
<path fill-rule="evenodd" clip-rule="evenodd" d="M62.5752 0.923578L61.6586 1.83696V7.6419V13.4468H59.0478C55.309 13.4468 55.2886 13.4756 54.1108 20.512C53.3438 25.0923 53.0569 26.201 52.5217 26.6491C52.1623 26.95 51.6179 27.196 51.3119 27.196C51.0058 27.196 48.5167 26.3529 45.7808 25.3226C43.0445 24.2924 40.4114 23.4487 39.9295 23.4478C38.8 23.4456 37.9759 24.3065 36.4159 27.1172L35.1616 29.3771L27.0086 29.3021L18.8557 29.2271L18.7682 25.0977L18.6807 20.9682L19.8955 20.3508C23.7026 18.4153 25.2373 13.4162 23.1871 9.62958C21.597 6.6929 18.6143 5.08612 15.3681 5.41735C12.4748 5.71296 9.87651 7.62596 8.73761 10.2992C8.14088 11.7001 8.09541 14.473 8.64323 16.0767C9.14306 17.54 11.1459 19.7924 12.4121 20.3152L13.3218 20.6904L13.4233 26.9394L13.5249 33.1884L14.4048 33.9418L15.2847 34.6955H23.7337H32.1826V35.4345C32.1826 36.5194 32.9418 37.3109 37.4676 40.9451C39.7147 42.7497 41.5616 44.4021 41.5716 44.6167C41.5858 44.917 40.1151 45.0073 35.2121 45.0073C31.7044 45.0073 25.8647 45.0995 22.2354 45.212L15.6362 45.417L15.4108 44.7089C15.2869 44.3196 14.6802 43.4437 14.063 42.7628C9.11923 37.31 0.189268 40.6576 0.201184 47.959C0.211845 54.5505 7.36823 58.2149 12.8018 54.4114C13.7899 53.7196 14.4569 52.8965 15.5168 51.0613C15.6569 50.8188 18.9815 50.6413 26.2247 50.4895L36.7294 50.2692L35.4751 51.3007C32.874 53.4393 32.1826 54.2795 32.1826 55.3023C32.1826 55.966 33.0474 57.7796 34.848 60.8904L37.5134 65.4957V71.3325V77.1696L30.6201 77.2593L23.7265 77.349L23.3746 76.5016C22.8613 75.2651 20.2693 72.9721 18.8381 72.4887C12.9091 70.4848 6.97188 75.7047 8.32526 81.7309C9.10355 85.197 12.3108 87.848 15.798 87.9083C16.7899 87.9255 18.158 87.7515 18.8381 87.5215C20.2687 87.0381 22.8607 84.7454 23.3753 83.5086L23.7277 82.6612H32.5294H41.3311L42.0875 81.7844C42.8401 80.9125 42.8441 80.8682 42.8473 73.6599L42.8504 66.4122L46.8773 64.9279C49.0924 64.1117 51.1215 63.4437 51.3865 63.4437C51.6515 63.4437 52.1623 63.6899 52.5217 63.9905C53.0569 64.4386 53.3438 65.5473 54.1108 70.1276C55.1795 76.5106 55.5197 77.1928 57.6367 77.1928H58.8364V83.9111V90.6294H54.4639C50.294 90.6294 50.0507 90.6644 49.2116 91.3834L48.3317 92.1374L48.247 112.241L48.162 132.346L36.2528 144.229C24.8026 155.655 24.3433 156.158 24.3433 157.29C24.3433 158.122 24.5684 158.69 25.1131 159.233L25.8826 160H69.623H113.363L114.227 159.259C114.879 158.701 115.092 158.236 115.092 157.371C115.092 156.283 114.606 155.739 105.778 146.938L96.4653 137.654V130.516V123.378L99.448 118.434L102.43 113.491L106.425 115.827C108.622 117.112 112.444 119.174 114.92 120.411L119.42 122.659H128.456H137.493L138.302 121.901L139.111 121.143V113.19V105.235L141.855 102.442L144.599 99.6482L144.707 95.1388L144.815 90.6294H147.345C149.474 90.6294 150.085 90.5063 151.205 89.8526C152.928 88.8464 153.995 86.7909 153.772 84.9054C153.686 84.1798 151.728 79.3667 149.37 74.0864L145.122 64.5742L145.994 63.3059C149.28 58.5318 150.353 53.9443 149.76 47.2053C149.038 38.9996 146.55 31.966 141.903 24.992C139.369 21.1888 133.369 15.1827 129.635 12.7116C126.045 10.3352 116.172 5.32236 115.081 5.32236C114.471 5.32236 113.849 5.7264 112.907 6.73352L111.589 8.14468L102.694 8.06156L93.7999 7.97844L93.6431 4.59053C93.4105 -0.436961 94.962 0.0101985 77.7487 0.0101985H63.4917L62.5752 0.923578ZM88.3124 8.11999C88.3124 9.65864 88.4811 11.2864 88.6871 11.737C89.4215 13.3431 90.0631 13.4468 99.2718 13.4468C103.937 13.4468 107.754 13.5271 107.754 13.6256C107.754 13.724 105.849 16.4557 103.521 19.6964C101.192 22.9372 99.2875 25.8095 99.2875 26.0798C99.2875 26.5066 98.6108 26.571 94.1345 26.571C89.302 26.571 88.9696 26.5332 88.7878 25.962C88.4328 24.8474 86.8558 23.4462 85.9562 23.4462C85.4886 23.4462 82.8455 24.2899 80.0826 25.3211C77.32 26.3523 74.8114 27.196 74.5085 27.196C73.0906 27.196 72.7227 26.3113 71.724 20.5026C70.6262 14.118 70.29 13.4468 68.1891 13.4468H66.9893V9.3846V5.32236H77.6509H88.3124V8.11999ZM18.1502 11.6076C18.4615 11.9813 18.6989 12.7822 18.6989 13.4587C18.6989 16.2829 14.6855 16.8591 13.6639 14.1815C13.2791 13.1728 14.0314 11.3535 15.0006 10.9501C16.021 10.5252 17.5067 10.8351 18.1502 11.6076ZM120.536 13.7299C125.627 16.2801 128.577 18.2906 131.973 21.5235C139.207 28.4109 143.617 37.6606 144.393 47.5781C144.877 53.7524 143.968 57.2806 140.917 61.0688C139.475 62.8596 139.288 63.2808 139.41 64.4661C139.441 64.7708 141.488 69.5517 143.958 75.0904L148.449 85.161L144.643 85.3173C142.549 85.4032 140.645 85.596 140.412 85.746C139.469 86.3519 139.111 88.0802 139.111 92.0256V95.9416H137.923C135.049 95.9416 131.399 94.4595 128.604 92.1581C127.787 91.485 126.813 90.8582 126.439 90.7647C124.756 90.3435 122.879 92.224 123.303 93.9073C123.812 95.9284 129.297 99.5323 133.472 100.589C135.462 101.092 135.638 101.197 135.159 101.593C133.972 102.574 133.781 103.82 133.781 110.57V117.093L127.431 117.289L121.081 117.484L116.61 115.275C112.635 113.31 102.434 107.416 99.9106 105.626L98.9645 104.954L99.0476 96.0403L99.1307 87.1265L105.225 84.7004C109.042 83.1808 111.532 82.0121 111.888 81.5737C112.396 80.9497 112.458 80.197 112.458 74.6761V68.4786L108.538 63.244L104.618 58.0096V42.6775V27.3456L110.277 19.4586C113.389 15.1211 116.002 11.572 116.082 11.572C116.163 11.572 118.167 12.5431 120.536 13.7299ZM66.2051 19.7746C66.3067 20.333 66.7194 22.7531 67.1226 25.152C67.7504 28.8877 67.962 29.5977 68.5983 30.0973C69.7039 30.966 72.9479 32.8087 73.7036 32.9978C74.0927 33.0953 76.4126 32.3925 79.3517 31.2866C82.0951 30.2548 84.4416 29.473 84.5661 29.5499C84.6906 29.6264 85.4319 30.8139 86.2133 32.1881L87.6341 34.687L83.5674 38.0225C81.3307 39.8567 79.3667 41.6069 79.2031 41.9119C78.7117 42.8265 78.833 48.2028 79.3617 48.9552C79.6129 49.3124 81.584 51.0485 83.7424 52.8128L87.6664 56.021L86.8311 57.4668C85.5269 59.7236 84.5529 61.2563 84.4228 61.2563C84.3573 61.2563 82.4893 60.5741 80.2717 59.7401C73.3687 57.1444 74.3267 57.2106 71.0395 59.1011C69.4506 60.0148 68.0774 61.0294 67.9417 61.39C67.8071 61.7459 67.3945 63.8655 67.0241 66.0997C66.6541 68.334 66.2719 70.5488 66.175 71.0213L65.9988 71.8806H62.9201H59.8414L59.5056 69.9276C59.3209 68.8536 58.9273 66.4981 58.6307 64.6936C58.0208 60.9819 57.7311 60.551 54.7433 58.9146C51.8318 57.3197 52.1397 57.3028 46.5938 59.3577C43.7961 60.3942 41.4007 61.1766 41.2703 61.0963C41.1399 61.016 40.4004 59.837 39.6265 58.4765L38.2202 56.0023L41.2314 53.5515C42.888 52.2034 44.8454 50.5554 45.5819 49.8892L46.9206 48.6774V45.572C46.9206 43.864 46.7776 42.2 46.6026 41.8744C46.4277 41.5485 44.4641 39.792 42.2386 37.9706L38.1929 34.6589L39.6087 32.2556C40.3873 30.9335 41.1204 29.7492 41.238 29.6239C41.3556 29.4983 43.4939 30.1758 45.9893 31.1295C48.485 32.0828 51.0206 32.8765 51.6242 32.8928C52.6797 32.9215 55.2974 31.6144 57.2356 30.0908C58.0007 29.4889 58.1701 28.7984 59.4582 21.0245L59.8339 18.759H62.927H66.0201L66.2051 19.7746ZM109.949 31.8707V37.1953H112.622H115.295L115.209 31.9613L115.123 26.7272L112.536 26.6366L109.949 26.5457V31.8707ZM98.9739 37.3516V42.82L92.624 42.8109L86.2742 42.8015L87.2393 41.9516C87.7699 41.4838 89.4281 40.0798 90.9238 38.8315C93.4509 36.7222 93.6432 36.4794 93.641 35.3942C93.64 34.752 93.3587 33.8049 93.016 33.2893C92.6733 32.7737 92.392 32.2463 92.391 32.1175C92.3898 31.9888 93.8705 31.8832 95.6814 31.8832H98.9739V37.3516ZM59.9339 35.1139C56.8578 36.1291 54.5408 38.1306 53.2394 40.8967C52.1084 43.3012 52.0554 47.1972 53.1228 49.5133C54.2018 51.855 55.7562 53.5308 57.9477 54.7148C59.8148 55.7235 60.1127 55.7879 62.9129 55.7863C65.5529 55.7851 66.0778 55.6873 67.5265 54.9276C69.8893 53.6886 71.1379 52.4781 72.3489 50.2523C73.3395 48.4318 73.4176 48.0831 73.4176 45.476C73.4176 43.0871 73.2925 42.3981 72.5873 40.8988C70.8714 37.2519 67.4666 34.9927 63.4005 34.803C62.1167 34.7433 60.6617 34.8736 59.9339 35.1139ZM65.434 40.7273C69.0432 42.629 69.1226 47.9134 65.572 49.9173C63.0098 51.3632 59.6696 50.4048 58.3043 47.8321C57.1472 45.652 57.4206 43.5465 59.0917 41.7663C60.8295 39.9152 63.1662 39.5321 65.434 40.7273ZM109.949 45.4885V48.1574L112.536 48.0665L115.123 47.9759L115.214 45.3979L115.305 42.82H112.627H109.949V45.4885ZM9.26912 45.777C11.5454 46.95 10.6112 50.632 8.0374 50.632C5.39491 50.632 4.5953 47.0372 6.93989 45.6973C7.77745 45.2186 8.21457 45.2336 9.26912 45.777ZM98.9739 53.4443V58.7565H95.6814C93.8705 58.7565 92.3888 58.6896 92.3888 58.6077C92.3888 58.5258 92.6704 57.9987 93.0147 57.4359C93.688 56.3357 93.8228 54.9876 93.3481 54.1039C93.186 53.8018 91.6338 52.3869 89.8988 50.9598C88.1641 49.5327 86.7445 48.3124 86.7445 48.2484C86.7445 48.1846 89.4961 48.1321 92.8592 48.1321H98.9739V53.4443ZM109.949 56.1129V58.7818L112.536 58.6908L115.123 58.6002L115.214 56.0223L115.305 53.4443H112.627H109.949V56.1129ZM132.042 54.2114C131.327 54.9239 131.272 55.2011 131.272 58.1174V61.2563L128.371 61.261C125.133 61.266 124.116 61.6128 123.483 62.929C122.973 63.988 123.207 65.0845 124.123 65.9347C124.748 66.5156 125.216 66.5685 129.738 66.5685C132.45 66.5685 134.899 66.481 135.178 66.3744C136.296 65.9466 136.603 64.5776 136.603 60.0064C136.603 54.3402 136.212 53.4443 133.741 53.4443C133.172 53.4443 132.513 53.7421 132.042 54.2114ZM79.9603 65.3201C82.6963 66.3503 85.3231 67.1934 85.7975 67.1934C86.8834 67.1934 88.1095 66.2482 88.6216 65.0167L89.0157 64.0686L95.7977 64.0796L102.58 64.0905L104.853 67.1622L107.127 70.2338V72.4634V74.6929H101.796H96.4653V77.3371V79.9817L99.3659 80.0713L102.266 80.1613L99.9146 81.0641C95.3659 82.8102 94.3509 83.3874 93.984 84.4364C93.7965 84.972 93.6431 86.5847 93.6431 88.0199V90.6294H79.0619H64.4807V83.9111V77.1928H66.8532C70.671 77.1928 70.5863 77.3221 71.8711 69.537C72.5565 65.3838 72.8105 64.4461 73.3706 63.9974C73.7412 63.7005 74.2564 63.4552 74.5151 63.4524C74.7738 63.4493 77.2241 64.2898 79.9603 65.3201ZM75.1423 77.349V80.0051H77.8076H80.473V77.349V74.6929H77.8076H75.1423V77.349ZM85.8038 77.349V80.0051H88.4692H91.1346V77.349V74.6929H88.4692H85.8038V77.349ZM17.9733 78.1846C19.5735 79.6826 18.4619 82.5049 16.2719 82.5049C14.8266 82.5049 14.1239 82.0722 13.7269 80.9375C13.3472 79.8517 13.6999 78.5311 14.5397 77.8959C15.3681 77.269 17.1555 77.4193 17.9733 78.1846ZM69.7353 115.476L69.8162 134.855L67.2267 137.805L64.6375 140.756L64.5526 134.442L64.4679 128.127H61.652H58.8364L58.8358 137.736L58.8352 147.345L55.6367 151.016L52.4379 154.688H42.8655H33.293L43.3995 144.599L53.5056 134.511V115.434C53.5056 104.943 53.6022 96.2622 53.7198 96.1447C53.8377 96.0272 57.4714 95.9684 61.7944 96.0144L69.6547 96.0978L69.7353 115.476ZM80.473 104.593V113.244L85.8038 118.587C89.4823 122.275 91.1346 124.145 91.1346 124.623V125.315H83.1384H75.1423V110.628V95.9416H77.8076H80.473V104.593ZM93.6431 101.207C93.6431 104.265 93.7893 106.891 93.9918 107.47C94.2283 108.145 94.8852 108.814 96.0301 109.544C96.9592 110.136 97.7196 110.686 97.7196 110.766C97.7196 111.02 93.8846 117.326 93.4378 117.807C93.0674 118.206 92.5265 117.787 89.4068 114.687L85.8038 111.107V103.524V95.9416H89.7235H93.6431V101.207ZM59.0572 106.763C58.9358 106.884 58.8364 108.084 58.8364 109.43V111.878H61.6711H64.5061L64.4149 109.3L64.324 106.722L61.8009 106.632C60.4131 106.583 59.1785 106.642 59.0572 106.763ZM58.9734 117.597C58.8819 117.835 58.849 119.071 58.9001 120.344L58.9932 122.659H61.6586H64.324V120.003V117.346L61.732 117.256C59.7499 117.186 59.1008 117.266 58.9734 117.597ZM80.473 142.657V154.688H70.0991C64.3933 154.688 59.7718 154.575 59.8295 154.436C59.8869 154.298 63.1794 150.49 67.1461 145.974C71.1128 141.459 74.5299 137.459 74.7393 137.086C74.9588 136.695 75.1247 135.183 75.1313 133.517L75.1423 130.627H77.8076H80.473V142.657ZM91.1346 135.221V139.815L98.5732 147.251L106.012 154.688H95.9078H85.8038V142.657V130.627H88.4692H91.1346V135.221Z" fill="#2C2C2C"/>
</svg>
