<svg width="146" height="160" viewBox="0 0 146 160" fill="none" xmlns="http://www.w3.org/2000/svg">
<path fill-rule="evenodd" clip-rule="evenodd" d="M65.4819 0.290454C59.6931 1.24765 50.8487 3.78766 47.5902 5.42898C44.8178 6.82567 43.4164 9.23931 43.6144 12.2773C43.7174 13.857 44.1318 14.9769 46.1525 19.1335C47.6212 22.1546 48.5675 24.4928 48.5675 25.1006C48.5675 26.2962 48.1471 26.7041 44.3574 29.1859C41.1937 31.2577 36.9595 34.723 34.6288 37.1482C32.797 39.0538 31.9807 39.4555 30.829 39.0182C30.3757 38.8461 28.1239 37.2251 25.8248 35.4158C23.526 33.6066 21.1186 31.9067 20.4755 31.6384C18.655 30.8789 15.4723 31.1654 13.8545 32.2346C10.8706 34.2065 5.07526 44.7238 1.8916 53.9442C0.0902142 59.1612 0.262804 61.5561 2.61704 64.007C4.08358 65.5338 4.88638 65.8594 10.1389 67.0569C16.4148 68.4876 16.8621 68.6481 17.3836 69.6554C17.7391 70.342 17.7632 70.9914 17.5067 72.9921C17.1929 75.438 17.357 86.8571 17.7379 89.1112C17.8901 90.0118 17.7827 90.3971 17.1947 91.0609C16.5698 91.7657 15.6574 92.0732 11.0188 93.1427C8.02557 93.833 4.99507 94.717 4.28436 95.1074C2.65306 96.0036 1.06154 98.3381 0.773054 100.258C0.609861 101.345 0.727949 102.309 1.23507 104.03C3.81451 112.786 10.7162 125.711 14.0405 128.012C15.0952 128.742 15.8009 128.965 17.3767 129.065C18.4758 129.135 19.876 129.027 20.488 128.825C21.1001 128.623 23.5455 126.902 25.9222 124.999C28.299 123.097 30.5502 121.398 30.9251 121.225C32.0224 120.719 32.9367 121.152 35.3517 123.324C37.9384 125.651 38.9642 125.917 40.281 124.601C41.6435 123.241 41.2824 122.363 38.1899 119.516C35.7338 117.255 34.6357 116.637 32.6542 116.404C30.0575 116.098 28.9042 116.656 23.8111 120.686C17.4334 125.732 17.2163 125.729 13.9475 120.521C11.3912 116.448 8.08289 109.534 6.57469 105.114C5.42702 101.75 5.31237 101.171 5.63813 100.385C6.14838 99.1549 6.66365 98.9462 12.3895 97.6521C18.0943 96.3624 19.2436 95.8738 20.7759 94.0861C22.4332 92.1526 22.7051 90.7663 22.2446 86.6012C21.9796 84.2054 21.9323 81.3701 22.094 77.5719C22.2236 74.5267 22.327 71.3183 22.3242 70.4418C22.3151 67.792 20.6177 65.2751 18.1432 64.2431C17.518 63.9819 14.7791 63.2703 12.0571 62.6612C6.7501 61.4741 5.77658 61.0543 5.46617 59.8191C4.95059 57.7673 8.90856 47.9936 13.1788 40.774C15.4178 36.988 16.4283 35.9057 17.7228 35.9057C18.8213 35.9057 19.3109 36.2295 24.6054 40.4568C28.2903 43.3991 29.1786 43.8342 31.4965 43.8342C33.9378 43.8342 34.9567 43.2877 38.0871 40.2988C41.3356 37.197 44.826 34.4361 48.5606 32.0134C52.2708 29.6067 53.2659 28.1027 53.2659 24.9029C53.2659 23.0323 53.0999 22.5622 50.7601 17.8015C49.3819 14.9975 48.2543 12.3089 48.2543 11.8269C48.2543 10.4158 49.1545 9.71072 52.4828 8.5161C57.8005 6.60702 67.8226 4.29254 68.6254 4.78803C68.8124 4.90346 68.9274 10.6764 68.9274 19.9587V34.9432L67.5962 35.2763C61.3776 36.8329 55.6123 39.4054 50.9938 42.684C49.5808 43.6872 47.0825 45.8462 45.4421 47.4822C38.9996 53.906 34.853 61.6452 32.8734 70.9404C31.8764 75.6222 31.8752 83.4515 32.8706 88.1449C34.8587 97.5167 38.9231 105.109 45.4317 111.609C51.3862 117.556 58.7531 121.73 66.6565 123.638L68.9274 124.185V139.617C68.9274 149.187 68.8128 155.12 68.6254 155.236C67.8433 155.718 57.7771 153.414 52.8058 151.615C49.7697 150.516 48.5675 149.607 48.5675 148.41C48.5675 147.991 49.7872 145.064 51.2782 141.905C53.7116 136.748 53.992 135.967 54.0189 134.262C54.0612 131.583 53.2083 130.412 49.375 127.888C45.9974 125.664 44.8053 125.388 43.8202 126.603C43.2216 127.341 43.0675 128.676 43.5016 129.359C43.6388 129.575 44.9303 130.56 46.3711 131.549C47.8117 132.537 49.1181 133.557 49.2738 133.815C49.4746 134.148 48.7639 135.999 46.8262 140.191C45.2394 143.624 44.0313 146.67 43.9417 147.464C43.5972 150.517 45.4596 153.641 48.3955 154.934C52.7908 156.871 62.2888 159.399 67.2366 159.949C69.5958 160.211 71.5764 159.457 72.715 157.863C73.384 156.926 73.4811 156.41 73.5745 153.288L73.6797 149.768H85.012H96.3447L96.8831 151.283C97.6612 153.471 99.5938 155.504 102.036 156.705C103.773 157.558 104.457 157.721 106.327 157.726C109.679 157.735 111.591 156.954 113.928 154.621C115.605 152.948 115.952 152.392 116.552 150.419C117.089 148.654 117.197 147.749 117.036 146.378C116.62 142.842 114.539 139.719 111.465 138.019C109.938 137.174 109.551 137.1 106.672 137.1C103.982 137.1 103.319 137.208 101.981 137.865C99.4021 139.133 97.3981 141.519 96.381 144.533C96.2072 145.048 95.4551 145.079 84.9889 145.002L73.7824 144.92L73.6976 138.585L73.613 132.251H99.0898H124.567L125.282 133.975C126.201 136.188 128.292 138.328 130.565 139.38C132.025 140.057 132.822 140.212 134.869 140.219C137.087 140.227 137.627 140.107 139.476 139.198C143.076 137.428 145.036 134.446 145.278 130.374C145.39 128.471 145.284 127.677 144.714 126.167C143.863 123.916 141.766 121.571 139.567 120.412C138.17 119.675 137.646 119.583 134.862 119.583C131.976 119.582 131.598 119.655 130.055 120.509C127.917 121.691 125.778 124.065 125.079 126.029L124.534 127.563L99.1581 127.483L73.7824 127.403L73.6127 125.015C73.3355 121.119 72.4155 120.302 66.4516 118.656C53.3918 115.049 42.7887 104.852 38.7518 92.0156C36.0828 83.5291 36.1943 74.136 39.0585 66.175C42.748 55.9196 50.0707 47.6952 59.6351 43.0656C61.9725 41.9342 66.1328 40.4921 69.4614 39.6594C70.9697 39.2822 72.5001 38.1107 73.1673 36.8226C73.4511 36.2742 73.6258 35.0367 73.6258 33.5753V31.2136L99.0757 31.2189L124.526 31.2242L125.259 32.9162C126.282 35.277 127.748 36.8645 130.062 38.1173C131.905 39.1154 132.24 39.1899 134.862 39.1839C137.172 39.1789 137.948 39.0463 139.158 38.4507C141.383 37.3559 143.336 35.4712 144.32 33.4702C145.085 31.9136 145.199 31.3193 145.199 28.8675C145.199 26.4172 145.085 25.821 144.322 24.2682C143.213 22.0141 140.869 19.8823 138.528 19.0002C137.103 18.4631 136.266 18.3543 134.392 18.4613C131.574 18.6217 129.651 19.4025 127.738 21.163C126.513 22.2913 124.682 25.3027 124.682 26.1908C124.682 26.426 117.133 26.5014 99.2323 26.4451L73.7824 26.365L73.6976 20.0306L73.613 13.6962H84.878H96.1433L96.9843 15.5681C97.9656 17.7518 100.181 19.9796 102.375 20.9897C103.546 21.5287 104.437 21.6694 106.672 21.6685C109.145 21.6672 109.694 21.5609 111.146 20.7992C113.357 19.6393 115.171 17.769 116.17 15.6194C116.839 14.1779 116.991 13.3919 116.991 11.3502C116.991 9.30844 116.839 8.52235 116.17 7.08092C115.171 4.9313 113.357 3.06101 111.146 1.90111C109.694 1.13942 109.145 1.03306 106.672 1.03181C104.437 1.03087 103.546 1.17164 102.375 1.71061C100.181 2.72067 97.9656 4.9485 96.9843 7.13223L96.1433 9.00408H84.9146H73.6863L73.5779 6.11059C73.4504 2.71973 72.8158 1.49696 70.6812 0.528502C69.2932 -0.100871 68.1625 -0.152484 65.4819 0.290454ZM108.801 5.98578C110.589 6.73214 112.463 9.47642 112.463 11.3502C112.463 13.2239 110.589 15.9682 108.801 16.7145C106.49 17.6789 103.514 16.8365 101.937 14.7713C101.136 13.7222 101.033 13.3352 101.033 11.3502C101.033 9.36506 101.136 8.97812 101.937 7.92895C103.514 5.86378 106.49 5.02139 108.801 5.98578ZM137.393 23.6736C141.701 25.6277 141.686 31.9415 137.368 34.0288C133.35 35.9714 128.715 32.7929 129.139 28.3854C129.529 24.3421 133.663 21.9819 137.393 23.6736ZM70.0237 54.6959C60.9632 55.9981 52.8897 62.4792 49.6748 71.032C44.8908 83.7587 51.1222 98.2784 63.6191 103.522C68.4986 105.569 67.4981 105.506 94.9254 105.506C123.046 105.506 121.824 105.599 127.345 103.023C136.311 98.8374 141.91 89.9927 141.91 80.0119C141.91 69.9347 136.298 61.1313 127.187 56.9156C122.433 54.7156 121.591 54.6743 110.438 54.5179C105.318 54.5179 104.038 54.5179 101.798 54.5179C101.798 55.4779 101.798 56.32 101.798 59.002H109.798C121.194 59.1456 121.614 59.3674 125.935 61.4838C129.11 63.0391 133.157 67.0231 134.811 70.2209C141.502 83.1575 133.563 98.5671 119.133 100.651C116.15 101.082 74.0521 101.066 70.9346 100.634C66.166 99.9713 62.3208 98.0679 58.9313 94.692C56.4627 92.2333 54.7932 89.5028 53.685 86.1116C52.9959 84.0036 52.8672 83.0424 52.8672 80.0119C52.8672 76.9814 52.9959 76.0201 53.685 73.9121C55.8729 67.2173 60.7634 62.3275 67.5179 60.0809C70.0052 59.2538 69.4749 59.1231 80.3577 59.002C91.2377 59.002 95.2431 59.002 101.798 59.002C101.798 56 101.798 56.1179 101.798 54.5179H92.1624L82.0326 54.4719C76.4615 54.4466 71.0574 54.5473 70.0237 54.6959ZM65.6244 67.9546L64.8554 68.7223V79.6991V90.6759L65.6244 91.4435C66.3768 92.1952 66.4995 92.2114 71.4332 92.2114C76.3669 92.2114 76.4897 92.1952 77.2421 91.4435C78.2287 90.4585 78.2472 89.1012 77.2862 88.1993C76.631 87.5847 76.2238 87.5193 73.0576 87.5193H69.5538V84.8604V82.2015H72.2263C76.402 82.2015 77.8432 81.2534 77.2508 78.8964C76.9558 77.7224 75.4015 77.1966 72.2263 77.1966H69.5538V74.5377V71.8788H73.1015C76.4045 71.8788 76.6958 71.8291 77.3301 71.155C78.2334 70.1943 78.1981 68.9093 77.2421 67.9546C76.4897 67.2029 76.3669 67.1867 71.4332 67.1867C66.4995 67.1867 66.3768 67.2029 65.6244 67.9546ZM86.924 67.9546L86.155 68.7223V79.6991V90.6759L86.924 91.4435C87.9053 92.4238 89.2698 92.447 90.1615 91.4992C90.752 90.8714 90.8422 90.3627 90.9208 87.2278L91.0101 83.6692L94.6122 87.7908C96.5934 90.0577 98.5313 91.995 98.9191 92.096C100.067 92.3947 101.146 91.9515 101.653 90.9733C102.32 89.6842 101.92 88.8387 99.2132 85.8189C95.8081 82.0201 95.9509 82.3048 97.1932 81.7864C101.33 80.0603 103.13 75.1545 101.035 71.3117C99.2812 68.0938 97.2029 67.1867 91.583 67.1867C87.8703 67.1867 87.6576 67.2217 86.924 67.9546ZM111.555 67.7841C110.915 68.4229 110.9 68.6938 110.9 79.6869C110.9 90.856 110.905 90.9405 111.586 91.5736C112.446 92.3741 113.741 92.391 114.702 91.6143C115.393 91.0565 115.449 90.7675 115.546 87.2728L115.649 83.5285L118.208 83.3896C121.157 83.2291 123.08 82.5018 124.62 80.9647C127.687 77.9016 127.902 73.2955 125.13 70.0611C123.131 67.7291 122.076 67.3722 116.801 67.243C112.481 67.1369 112.171 67.1692 111.555 67.7841ZM96.1173 72.6574C97.2274 73.5902 97.4786 74.6112 96.9232 75.9306C96.4036 77.1644 94.8954 77.8222 92.5862 77.8222H90.8535V74.8505V71.8788H93.0219C94.8756 71.8788 95.3251 71.992 96.1173 72.6574ZM120.813 72.4813C122.253 73.3587 122.715 74.9644 121.967 76.4946C121.219 78.0211 119.731 78.7594 117.4 78.76L115.599 78.7606V75.3197V71.8788L117.713 71.8801C119.245 71.8807 120.099 72.0465 120.813 72.4813ZM138.273 125.165C139.943 126.438 140.757 128.225 140.589 130.252C140.183 135.138 134.76 137.292 131.051 134.041C129.054 132.289 128.538 129.835 129.657 127.403C130.721 125.087 132.492 124.068 135.216 124.204C136.74 124.279 137.371 124.478 138.273 125.165ZM109.32 142.254C112.721 143.986 113.383 148.614 110.624 151.369C107.865 154.125 103.231 153.464 101.496 150.067C100.763 148.632 100.675 146.056 101.319 144.826C101.799 143.909 103.168 142.549 104.166 141.999C105.199 141.43 107.972 141.567 109.32 142.254Z" fill="#2C2C2C"/>
</svg>
