<svg width="160" height="160" viewBox="0 0 160 160" fill="none" xmlns="http://www.w3.org/2000/svg">
<path fill-rule="evenodd" clip-rule="evenodd" d="M75.3125 0.486322C70.6906 1.48728 67.0219 3.52763 63.5938 7.00395C60.7309 9.90713 59.0944 12.5166 57.8953 16.091C57.0831 18.5107 57.0528 18.8601 56.9428 26.9696C56.8175 36.2126 56.9094 36.8536 58.7359 39.5086C59.8606 41.1434 62.0397 42.7421 63.8737 43.2778C64.9856 43.6028 65.2862 43.8981 66.1322 45.4972C66.6687 46.5116 67.6884 47.9966 68.3978 48.7972C69.3809 49.907 69.6875 50.5104 69.6875 51.336V52.4192L62.7703 55.0139C55.2094 57.8499 53.6312 58.769 51.5375 61.5556C49.375 64.4338 49.0625 66.1154 49.0625 74.8749V82.4985H80H110.938V74.8749C110.938 66.1426 110.623 64.4307 108.497 61.6019C106.154 58.4831 104.709 57.7099 93.5156 53.583L90.3125 52.402V51.3276C90.3125 50.512 90.6231 49.9023 91.6022 48.7972C92.3116 47.9966 93.3313 46.5116 93.8678 45.4972C94.7138 43.8981 95.0144 43.6028 96.1263 43.2778C99.1353 42.3987 102.054 39.3221 102.819 36.2223C103.051 35.2817 103.137 32.0113 103.068 26.6909L102.964 18.591L101.987 15.8532C100.743 12.3694 99.4106 10.1587 96.9347 7.47239C91.4616 1.53353 83.0413 -1.18684 75.3125 0.486322ZM84.515 5.78705C89.3491 7.04645 93.8891 10.6937 96.0297 15.0375C97.2863 17.5879 98.1106 20.8014 98.1197 23.183L98.125 24.6499L96.7609 24.0465C95.9447 23.6852 94.0934 23.3258 92.1516 23.1511C87.3647 22.7208 84.7847 21.6145 81.6406 18.6442L80 17.0941L78.3594 18.6442C75.2153 21.6145 72.6353 22.7208 67.8484 23.1511C65.9066 23.3258 64.0553 23.6852 63.2391 24.0465L61.875 24.6499L61.8803 23.183C61.8887 20.9602 62.6688 17.7317 63.74 15.4872C66.0425 10.6628 70.2116 7.21083 75.4688 5.77705C77.5963 5.19641 82.2678 5.20172 84.515 5.78705ZM38.6709 25.8509L36.8775 27.6443L39.7606 30.5397L42.6438 33.4351H36.535C29.0631 33.4351 27.7419 33.7313 25.5816 35.8917C23.035 38.4383 23.125 37.397 23.125 64.2738V87.8111H25.7812H28.4375V64.0466V40.2818L29.2047 39.5149C29.9684 38.7508 29.9972 38.7477 36.3078 38.7477H42.6438L39.7575 41.6462L36.8709 44.5447L38.7525 46.4066L40.6338 48.2682L46.6441 42.2581L52.6544 36.2476L46.5594 30.1525L40.4644 24.0574L38.6709 25.8509ZM81.5266 25.1296C83.4038 26.3928 86.0131 27.4234 88.5372 27.8984L90.3556 28.2409L90.2559 34.8223C90.1637 40.9087 90.1031 41.5115 89.4516 42.834C87.8103 46.1647 84.5378 48.536 81.0056 48.9544C77.6112 49.3563 73.545 47.4616 71.5016 44.5256C69.9547 42.3027 69.6875 40.7843 69.6875 34.2148V28.2328L71.4844 27.8947C74.005 27.42 76.6109 26.3846 78.3556 25.1649C79.1741 24.5924 79.8647 24.1099 79.8906 24.0921C79.9162 24.0743 80.6525 24.5412 81.5266 25.1296ZM64.375 33.6498V37.927L63.4325 37.0242C62.3575 35.9942 61.7306 34.0788 62.0106 32.6794C62.2288 31.5888 63.6069 29.3725 64.0669 29.3725C64.2544 29.3725 64.375 31.0475 64.375 33.6498ZM97.5031 31.4104C98.4497 33.366 98.1722 35.2457 96.7034 36.8248L95.6419 37.9664L95.6334 33.6585C95.6253 29.5197 95.6484 29.3631 96.2197 29.6688C96.5466 29.8438 97.1244 30.6275 97.5031 31.4104ZM108.438 36.0667V38.7477H115.27C121.71 38.7477 122.151 38.7849 122.927 39.3955L123.75 40.043V56.8115V73.5796L120.852 70.6933L117.953 67.8067L116.092 69.6873L114.232 71.5677L120.16 77.5019C123.42 80.7657 126.231 83.436 126.406 83.436C126.582 83.436 129.393 80.7657 132.653 77.5019L138.581 71.5677L136.72 69.6873L134.859 67.8067L131.971 70.683L129.083 73.5593L128.995 56.3877C128.908 39.4646 128.897 39.1983 128.231 37.9664C127.434 36.493 125.902 34.9854 124.375 34.1732C123.415 33.6626 122.373 33.5788 115.859 33.4885L108.438 33.3854V36.0667ZM79.1369 53.9708C80.7622 54.0695 82.4537 53.9889 83.3156 53.772C84.1119 53.5714 84.8213 53.4652 84.8919 53.5355C85.0394 53.6833 80.2363 61.8541 80 61.8575C79.855 61.8597 75.3028 54.3308 75.0362 53.648C74.9634 53.4611 75.2081 53.4317 75.6612 53.573C76.0709 53.7008 77.635 53.8798 79.1369 53.9708ZM73.7306 61.685C75.1162 63.9875 76.25 65.9282 76.25 65.9973C76.25 66.2063 71.2734 68.5645 71.1444 68.4167C70.9734 68.2207 67.8069 58.6437 67.8953 58.5906C68.2337 58.3871 70.5484 57.5521 70.84 57.5284C71.0444 57.5118 72.3453 59.3821 73.7306 61.685ZM90.6659 58.0418C91.5078 58.3409 92.145 58.7278 92.0819 58.9012C92.0187 59.0749 91.2944 61.2559 90.4719 63.7482C89.6497 66.2404 88.9228 68.3414 88.8566 68.4167C88.7269 68.5645 83.75 66.2066 83.75 65.9973C83.75 65.7304 88.7981 57.498 88.9616 57.498C89.0569 57.498 89.8238 57.7427 90.6659 58.0418ZM65.6219 68.2698L68.1703 75.9162L74.0853 72.9558L80 69.9952L85.9147 72.9558L91.8297 75.9162L94.3781 68.2698C95.78 64.0641 97.0875 60.6231 97.2838 60.6231C98.2 60.6231 102.008 62.3956 103.1 63.3307C103.771 63.905 104.649 65.0426 105.051 65.8585C105.724 67.226 105.781 67.7326 105.781 72.3421V77.3422H80H54.2188L54.225 72.3421C54.2306 67.7551 54.2909 67.2195 54.9556 65.8585C55.9084 63.9069 57.6978 62.4191 60.2603 61.4475C61.4062 61.0131 62.5078 60.65 62.7084 60.6403C62.9119 60.6309 64.2 64.0041 65.6219 68.2698ZM113.78 88.983C113.612 89.6277 113.196 91.2571 112.856 92.604C112.516 93.9509 112.161 95.1294 112.068 95.2225C111.975 95.3156 110.404 94.5078 108.578 93.4269L105.257 91.4615L98.3603 98.3591L91.4628 105.256L93.4281 108.577C94.5091 110.403 95.3216 111.969 95.2337 112.057C95.1462 112.145 93.4403 112.65 91.4434 113.18L87.8125 114.144V123.911V133.678L91.3281 134.536C93.2619 135.009 94.9622 135.502 95.1069 135.632C95.2516 135.763 94.5134 137.319 93.4663 139.09C92.4191 140.861 91.5625 142.389 91.5625 142.486C91.5625 142.582 94.6413 145.738 98.4041 149.498L105.245 156.334L108.418 154.417C110.164 153.362 111.719 152.5 111.875 152.5C112.168 152.5 112.232 152.695 113.437 157.266L114.157 160H123.883H133.609L134.507 156.484C135.001 154.551 135.517 152.843 135.653 152.69C135.792 152.534 137.375 153.27 139.247 154.362L142.591 156.313L149.458 149.446L156.325 142.579L154.371 139.237C153.289 137.385 152.541 135.783 152.693 135.645C152.845 135.507 154.551 135.009 156.484 134.536L160 133.678V123.904V114.13L157.578 113.49C156.246 113.138 154.558 112.696 153.828 112.507C153.098 112.317 152.5 112.034 152.5 111.877C152.5 111.719 153.363 110.163 154.417 108.417L156.334 105.244L149.498 98.4029C145.738 94.64 142.582 91.5612 142.486 91.5612C142.389 91.5612 140.861 92.4178 139.09 93.465C137.319 94.5122 135.763 95.2503 135.633 95.1056C135.502 94.961 135.009 93.2606 134.537 91.3268L133.678 87.8111H123.883H114.087L113.78 88.983ZM0 126.406V160H25.7812H51.5625V126.406V92.8112H25.7812H0V126.406ZM130.318 95.7019C130.704 97.2916 131.125 98.7101 131.255 98.8538C131.385 98.9973 132.549 99.5748 133.841 100.137L136.192 101.158L138.796 99.641C140.229 98.8066 141.541 98.1238 141.712 98.1238C142.094 98.1238 149.688 105.665 149.688 106.045C149.688 106.195 148.993 107.468 148.145 108.873L146.602 111.427L147.598 113.971L148.594 116.515L151.562 117.258L154.531 118L154.616 123.83L154.701 129.659L153.523 129.966C152.874 130.135 151.522 130.483 150.517 130.739C149.512 130.996 148.663 131.251 148.632 131.306C148.6 131.361 148.13 132.497 147.587 133.83L146.6 136.255L148.184 138.945L149.767 141.636L145.705 145.698L141.644 149.759L138.961 148.175L136.278 146.59L133.842 147.582C132.503 148.128 131.361 148.6 131.306 148.632C131.252 148.663 130.997 149.511 130.74 150.516C130.483 151.521 130.136 152.871 129.968 153.516L129.663 154.687H123.916H118.169L117.697 153.047C117.438 152.145 117.066 150.773 116.87 150C116.518 148.607 116.491 148.584 113.971 147.598L111.428 146.602L108.874 148.144C107.469 148.993 106.2 149.687 106.055 149.687C105.674 149.687 98.125 142.103 98.125 141.721C98.125 141.545 98.8078 140.229 99.6422 138.796L101.159 136.191L100.138 133.841C99.5759 132.548 98.9984 131.384 98.855 131.255C98.7113 131.125 97.2928 130.703 95.7031 130.318L92.8125 129.617V123.905V118.193L95.3906 117.52C96.8087 117.15 98.2188 116.748 98.5244 116.626C98.8297 116.504 99.5575 115.305 100.141 113.962L101.203 111.521L99.6644 108.963C98.8184 107.556 98.1259 106.266 98.1256 106.097C98.1247 105.689 105.681 98.1235 106.089 98.1245C106.263 98.1248 107.557 98.8173 108.964 99.6632L111.522 101.202L113.903 100.166C115.213 99.597 116.357 99.0585 116.445 98.9701C116.534 98.882 116.816 97.9873 117.072 96.9822C117.329 95.9772 117.677 94.6278 117.844 93.9831L118.149 92.8112H123.883H129.617L130.318 95.7019ZM46.5625 126.406V154.687H25.9375H5.3125V126.406V98.1238H25.9375H46.5625V126.406ZM10.3125 105.78V108.437H25.7812H41.25V105.78V103.124H25.7812H10.3125V105.78ZM121.094 103.419C118.419 103.852 116.803 104.389 114.353 105.659C107.499 109.212 103.379 115.974 103.329 123.749C103.306 127.463 103.757 129.39 105.503 133.04C107.757 137.751 111.783 141.34 117.112 143.389C119.026 144.126 119.633 144.2 123.75 144.206C127.89 144.213 128.479 144.141 130.573 143.378C133.814 142.198 136.035 140.787 138.41 138.396C140.81 135.98 142.216 133.767 143.379 130.573C144.141 128.479 144.213 127.889 144.207 123.749C144.201 119.632 144.126 119.025 143.39 117.111C142.146 113.876 140.684 111.635 138.197 109.151C136.386 107.343 135.339 106.602 133.041 105.506C131.454 104.748 129.523 103.981 128.75 103.8C126.688 103.319 122.885 103.129 121.094 103.419ZM127.643 108.915C135.605 110.989 140.68 119.022 139.03 126.937C137.808 132.794 132.794 137.808 126.938 139.029C117.639 140.968 108.438 133.499 108.438 124.011C108.438 113.897 117.978 106.397 127.643 108.915ZM59.1375 117.893L53.125 123.912L59.2184 129.999L65.3122 136.087L67.1044 134.295L68.8966 132.502L65.9388 129.532L62.9812 126.562H72.7406H82.5V123.906V121.249H72.7406H62.9812L65.9353 118.283L68.8894 115.316L67.1897 113.595C66.255 112.648 65.4137 111.874 65.3203 111.874C65.2266 111.874 62.4447 114.583 59.1375 117.893ZM10.3125 116.093V118.775L12.8906 118.684L15.4688 118.593V116.093V113.593L12.8906 113.502L10.3125 113.411V116.093ZM20.625 116.093V118.749H30.9375H41.25V116.093V113.437H30.9375H20.625V116.093ZM121.275 113.92C119.06 114.533 117.833 115.318 116.129 117.213C111.69 122.151 113.312 130.004 119.422 133.156C121.489 134.222 125.202 134.341 127.647 133.419C130.17 132.468 132.468 130.169 133.42 127.646C134.342 125.201 134.223 121.488 133.157 119.421C130.882 115.013 125.812 112.664 121.275 113.92ZM126.406 119.459C127.819 120.249 129.062 122.339 129.062 123.923C129.062 125.536 127.8 127.529 126.263 128.342C124.624 129.209 123.396 129.242 121.688 128.467C120.197 127.789 119.097 126.394 118.849 124.863C118.13 120.432 122.526 117.288 126.406 119.459ZM10.3125 126.406V129.062H25.7812H41.25V126.406V123.749H25.7812H10.3125V126.406ZM10.3125 136.718V139.375H25.7812H41.25V136.718V134.062H25.7812H10.3125V136.718ZM10.3125 147.031V149.687H20.625H30.9375V147.031V144.375H20.625H10.3125V147.031ZM36.25 147.031V149.687H38.75H41.25V147.031V144.375H38.75H36.25V147.031Z" fill="#2C2C2C"/>
</svg>
