<svg width="160" height="160" viewBox="0 0 160 160" fill="none" xmlns="http://www.w3.org/2000/svg">
<path fill-rule="evenodd" clip-rule="evenodd" d="M19.033 0.19691C14.3145 1.05728 10.2693 3.22516 6.74162 6.78351C3.77801 9.77334 2.08129 12.4807 0.856449 16.1743C0.100264 18.4549 0 19.2671 0 23.1154C0 26.9637 0.100264 27.7759 0.856449 30.0565C2.08614 33.7653 3.7861 36.4697 6.74162 39.4198C9.69715 42.37 12.4065 44.0668 16.1221 45.2943C18.4069 46.0491 19.2206 46.1491 23.0759 46.1491C26.9312 46.1491 27.745 46.0491 30.0297 45.2943C33.7453 44.0668 36.4547 42.37 39.4102 39.4198C42.3658 36.4697 44.0657 33.7653 45.2954 30.0565C46.55 26.2728 46.55 19.958 45.2954 16.1743C44.0657 12.4655 42.3658 9.76108 39.4102 6.81095C34.8974 2.30635 30.2354 0.24695 24.0462 0.0241896C22.1784 -0.0429613 19.9225 0.0345205 19.033 0.19691ZM132.881 0.19691C128.163 1.05728 124.117 3.22516 120.59 6.78351C117.626 9.77334 115.929 12.4807 114.705 16.1743C113.948 18.4549 113.848 19.2671 113.848 23.1154C113.848 26.9637 113.948 27.7759 114.705 30.0565C115.934 33.7653 117.634 36.4697 120.59 39.4198C123.545 42.37 126.255 44.0668 129.97 45.2943C132.255 46.0491 133.069 46.1491 136.924 46.1491C140.779 46.1491 141.593 46.0491 143.878 45.2943C147.593 44.0668 150.303 42.37 153.258 39.4198C156.214 36.4697 157.914 33.7653 159.144 30.0565C159.9 27.7759 160 26.9637 160 23.1154C160 19.2671 159.9 18.4549 159.144 16.1743C157.914 12.4655 156.214 9.76108 153.258 6.81095C148.746 2.30635 144.084 0.24695 137.894 0.0241896C136.027 -0.0429613 133.771 0.0345205 132.881 0.19691ZM71.8046 2.92395C65.7376 3.69586 60.0565 5.13024 54.4909 7.29522C50.5441 8.83065 47.9802 10.1062 47.9802 10.5349C47.9802 10.7935 49.7329 14.1721 50.1375 14.6928C50.1941 14.7654 51.3691 14.2986 52.7489 13.6549C69.633 5.77818 90.1043 5.70135 106.818 13.4528C108.439 14.2043 109.81 14.7612 109.865 14.6899C110.295 14.1336 112.02 10.7845 112.02 10.5075C112.02 9.63162 102.548 5.92217 96.495 4.42742C89.5028 2.70086 78.7202 2.04421 71.8046 2.92395ZM26.4933 5.38141C32.7656 6.5091 38.2074 11.4214 40.4161 17.9499C41.248 20.4084 41.2493 25.8147 40.419 28.2809C38.4257 34.2008 34.1994 38.4187 28.2508 40.4239C25.7879 41.2542 20.3717 41.2555 17.901 40.4268C9.13276 37.4854 3.92841 29.3043 5.21567 20.4868C6.06241 14.6889 9.77251 9.62516 15.0865 7.01402C18.9108 5.13476 22.3692 4.63985 26.4933 5.38141ZM140.341 5.38141C143.495 5.94832 147.16 7.91184 149.588 10.3351C153.275 14.0152 154.865 17.8666 154.865 23.1154C154.866 26.9714 154.17 29.5428 152.347 32.4287L151.295 34.0955L149.89 31.9632C149.071 30.7196 147.692 29.2161 146.583 28.3558C144.777 26.9556 144.705 26.8465 145.167 26.2089C146.823 23.9273 147.104 23.0121 147.108 19.887C147.113 16.3047 146.527 14.758 144.325 12.5378C142.461 10.6583 140.465 9.76269 137.797 9.60837C135.107 9.45308 133.174 9.95994 131.25 11.3256C126.472 14.7164 125.402 21.2039 128.829 26.0074L129.49 26.934L128.436 27.5877C126.821 28.5905 124.764 30.8397 123.725 32.7399L122.787 34.4552L121.721 32.7977C115.935 23.7976 119.307 11.7443 128.935 7.01402C132.759 5.13476 136.217 4.63985 140.341 5.38141ZM12.5679 12.9588C10.8191 13.6242 9.03185 15.4408 8.17928 17.4192C7.32768 19.395 7.44024 21.9816 8.46325 23.9457C8.82614 24.6434 12.0336 28.1075 15.5907 31.6439C21.2524 37.2729 22.1845 38.0736 23.0759 38.0736C23.9673 38.0736 24.8994 37.2729 30.5611 31.6439C34.1182 28.1075 37.3416 24.6327 37.7242 23.9225C38.6424 22.2176 38.6964 18.6347 37.8286 16.9814C36.1863 13.8524 33.2906 12.2379 29.8758 12.5469C27.6907 12.7448 26.6735 13.2265 24.6122 15.0392L23.0759 16.3906L21.5396 15.0392C20.6948 14.296 19.568 13.4628 19.0356 13.1877C17.6639 12.4781 14.1566 12.3541 12.5679 12.9588ZM139.757 15.3656C141.295 16.3015 142.096 17.805 142.098 19.7585C142.099 21.8863 141.151 23.3475 139.116 24.3561C133.523 27.1267 129.12 18.9478 134.321 15.4489C135.736 14.4968 138.266 14.4581 139.757 15.3656ZM19.3565 20.2098C21.5636 22.3196 22.2447 22.7926 23.0759 22.7926C23.9071 22.7926 24.5883 22.3196 26.7954 20.2098C29.1552 17.9541 29.6455 17.6271 30.6675 17.6271C32.1395 17.6271 33.4258 18.8022 33.4258 20.1469C33.4258 21.4382 32.2439 22.9165 27.3148 27.7921L23.0759 31.9842L18.837 27.7921C13.9079 22.9165 12.7261 21.4382 12.7261 20.1469C12.7261 18.8022 14.0124 17.6271 15.4843 17.6271C16.5064 17.6271 16.9967 17.9541 19.3565 20.2098ZM73.0317 29.0734C72.3279 29.7756 72.2376 30.1449 72.2376 32.3183V34.7706L71.073 35.2565L69.9083 35.742L68.0243 33.9487C65.2247 31.2833 65.2065 31.2891 59.879 36.6066C54.5517 41.9244 54.5459 41.9425 57.2161 44.737L59.0128 46.6176L58.5264 47.7801L58.0396 48.9427H55.5828C53.4055 48.9427 53.0355 49.0328 52.332 49.7353C51.5444 50.521 51.538 50.5775 51.538 56.6909C51.538 62.8042 51.5444 62.8607 52.332 63.6465C53.0355 64.349 53.4055 64.439 55.5828 64.439H58.0396L58.5264 65.6016L59.0128 66.7642L57.2161 68.6447C54.5459 71.4392 54.5517 71.4573 59.879 76.7751C65.2065 82.0926 65.2247 82.0985 68.0243 79.4331L69.9083 77.6397L71.073 78.1253L72.2376 78.6111V81.0634C72.2376 83.2368 72.3279 83.6061 73.0317 84.3083C73.8189 85.0944 73.8755 85.1009 80 85.1009C86.1245 85.1009 86.1811 85.0944 86.9684 84.3083C87.6722 83.6061 87.7624 83.2368 87.7624 81.0634V78.6111L88.9271 78.1253L90.0917 77.6397L91.9757 79.4331C94.7754 82.0985 94.7935 82.0926 100.121 76.7751C105.448 71.4573 105.454 71.4392 102.784 68.6447L100.987 66.7642L101.474 65.6016L101.96 64.439H104.417C106.595 64.439 106.965 64.349 107.668 63.6465C108.456 62.8607 108.462 62.8042 108.462 56.6909C108.462 50.5775 108.456 50.521 107.668 49.7353C106.965 49.0328 106.595 48.9427 104.417 48.9427H101.96L101.474 47.7801L100.987 46.6176L102.784 44.737C105.454 41.9425 105.448 41.9244 100.121 36.6066C94.7935 31.2891 94.7754 31.2833 91.9757 33.9487L90.0917 35.742L88.9271 35.2565L87.7624 34.7706V32.3183C87.7624 30.1449 87.6722 29.7756 86.9684 29.0734C86.1811 28.2873 86.1245 28.2809 80 28.2809C73.8755 28.2809 73.8189 28.2873 73.0317 29.0734ZM141.129 31.0473C142.107 31.4999 143.466 32.4064 144.148 33.0618C145.414 34.277 146.95 36.8839 146.95 37.815C146.95 38.5478 142.727 40.4206 140.008 40.8933C136.125 41.5683 131.594 40.8048 128.206 38.9039L126.957 38.203L127.387 36.9863C128.38 34.1766 130.793 31.7398 133.6 30.7109C135.688 29.9461 139.075 30.0972 141.129 31.0473ZM82.5875 35.4728C82.5875 38.0174 83.0603 38.7202 85.2561 39.4376C86.1899 39.7427 87.6405 40.3354 88.4794 40.7548C89.3184 41.1742 90.3071 41.5173 90.6765 41.5173C91.0455 41.5173 92.077 40.8365 92.9683 40.0045L94.5887 38.4913L96.4106 40.3102L98.2328 42.1288L96.7169 43.7462C95.8835 44.636 95.2013 45.6655 95.2013 46.0339C95.2013 46.4026 95.5451 47.3895 95.9653 48.2269C96.3854 49.0644 96.9792 50.5123 97.2849 51.4444C98.0035 53.6361 98.7077 54.1081 101.257 54.1081H103.287V56.6909V59.2736H101.257C98.7077 59.2736 98.0035 59.7456 97.2849 61.9374C96.9792 62.8694 96.3854 64.3173 95.9653 65.1548C95.5451 65.9922 95.2013 66.9792 95.2013 67.3478C95.2013 67.7162 95.8835 68.7458 96.7169 69.6355L98.2328 71.2529L96.4106 73.0715L94.5887 74.8904L92.9683 73.3772C92.077 72.5453 91.0455 71.8644 90.6765 71.8644C90.3071 71.8644 89.3184 72.2076 88.4794 72.6269C87.6405 73.0463 86.1899 73.6391 85.2561 73.9441C83.0603 74.6615 82.5875 75.3643 82.5875 77.909V79.9354H80H77.4126V77.909C77.4126 75.3643 76.9397 74.6615 74.7439 73.9441C73.8102 73.6391 72.3596 73.0463 71.5206 72.6269C70.6816 72.2076 69.6929 71.8644 69.3235 71.8644C68.9545 71.8644 67.923 72.5453 67.0317 73.3772L65.4113 74.8904L63.5894 73.0715L61.7672 71.2529L63.2831 69.6355C64.1166 68.7458 64.7987 67.7162 64.7987 67.3478C64.7987 66.9792 64.4549 65.9922 64.0347 65.1548C63.6146 64.3173 63.0208 62.8694 62.7151 61.9374C61.9965 59.7456 61.2924 59.2736 58.7431 59.2736H56.7129V56.6909V54.1081H58.7431C61.2924 54.1081 61.9965 53.6361 62.7151 51.4444C63.0208 50.5123 63.6146 49.0644 64.0347 48.2269C64.4549 47.3895 64.7987 46.4026 64.7987 46.0339C64.7987 45.6655 64.1166 44.636 63.2831 43.7462L61.7672 42.1288L63.5894 40.3102L65.4113 38.4913L67.0317 40.0045C67.923 40.8365 68.9545 41.5173 69.3235 41.5173C69.6929 41.5173 70.6816 41.1742 71.5206 40.7548C72.3596 40.3354 73.8102 39.7427 74.7439 39.4376C76.9397 38.7202 77.4126 38.0174 77.4126 35.4728V33.4463H80H82.5875V35.4728ZM76.9656 44.1156C74.9189 44.6289 72.0061 46.3496 70.592 47.8809C69.8659 48.6673 68.8109 50.2815 68.2481 51.4673C67.3211 53.4202 67.2244 53.9151 67.2244 56.7077C67.2244 59.6181 67.2924 59.9283 68.4324 62.2308C69.8873 65.1693 71.7599 66.9995 74.7669 68.4213C76.7207 69.3453 77.2214 69.4431 80 69.4431C82.7786 69.4431 83.2793 69.3453 85.2331 68.4213C88.2401 66.9995 90.1128 65.1693 91.5676 62.2308C92.709 59.9257 92.7756 59.6206 92.7756 56.6909C92.7756 53.7611 92.709 53.456 91.5676 51.1509C89.3821 46.7367 85.4993 44.1466 80.7274 43.9199C79.3489 43.8544 77.6561 43.9425 76.9656 44.1156ZM143.231 48.8633C141.986 49.3249 140.925 49.7314 140.873 49.7666C140.821 49.8014 141.275 51.4828 141.881 53.5028C142.487 55.5225 143.23 58.5553 143.532 60.2421C143.834 61.929 144.148 63.6371 144.229 64.0381C144.362 64.6941 144.514 64.749 145.744 64.5863C149.36 64.1078 149.215 64.1721 149.211 63.0524C149.206 61.4515 147.796 54.9553 146.656 51.2833C146.091 49.4634 145.599 47.9855 145.562 47.9993C145.525 48.0129 144.476 48.4019 143.231 48.8633ZM82.3882 49.3353C84.1648 49.8592 86.8442 52.5336 87.3691 54.307C88.265 57.334 87.6333 59.7472 85.3476 62.0287C82.0755 65.2949 77.9245 65.2949 74.6524 62.0287C71.3802 58.7625 71.3802 54.6227 74.6524 51.3495C76.9213 49.0799 79.3651 48.4436 82.3882 49.3353ZM12.795 53.2203C11.5685 57.457 10.1386 66.132 10.1386 69.3378C10.1386 69.4844 11.303 69.6045 12.7261 69.6045C14.3009 69.6045 15.3135 69.4731 15.3135 69.2691C15.3135 66.6615 16.7861 57.7898 17.7448 54.6218C18.0087 53.7501 18.2244 52.8555 18.2244 52.6337C18.2244 52.2699 14.7537 50.8797 13.8452 50.8797C13.6404 50.8797 13.1676 51.9328 12.795 53.2203ZM132.881 67.3478C128.163 68.2082 124.117 70.3761 120.59 73.9345C117.626 76.9243 115.929 79.6316 114.705 83.3252C113.948 85.6058 113.848 86.4181 113.848 90.2663C113.848 94.1146 113.948 94.9269 114.705 97.2074C115.934 100.916 117.634 103.621 120.59 106.571C123.545 109.521 126.255 111.218 129.97 112.445C132.255 113.2 133.069 113.3 136.924 113.3C140.779 113.3 141.593 113.2 143.878 112.445C147.593 111.218 150.303 109.521 153.258 106.571C156.214 103.621 157.914 100.916 159.144 97.2074C159.9 94.9269 160 94.1146 160 90.2663C160 86.4181 159.9 85.6058 159.144 83.3252C157.914 79.6164 156.214 76.912 153.258 73.9619C148.746 69.4573 144.084 67.3979 137.894 67.1751C136.027 67.108 133.771 67.1855 132.881 67.3478ZM19.033 72.5133C14.3145 73.3737 10.2693 75.5416 6.74162 79.0999C3.77801 82.0897 2.08129 84.7971 0.856449 88.4907C0.100264 90.7713 0 91.5835 0 95.4318C0 99.2801 0.100264 100.092 0.856449 102.373C2.08614 106.082 3.7861 108.786 6.74162 111.736C9.69715 114.686 12.4065 116.383 16.1221 117.611C18.4069 118.365 19.2206 118.466 23.0759 118.466C26.9312 118.466 27.745 118.365 30.0297 117.611C33.7453 116.383 36.4547 114.686 39.4102 111.736C42.3658 108.786 44.0657 106.082 45.2954 102.373C46.0516 100.092 46.1518 99.2801 46.1518 95.4318C46.1518 91.5835 46.0516 90.7713 45.2954 88.4907C44.0657 84.7819 42.3658 82.0775 39.4102 79.1273C34.8974 74.6227 30.2354 72.5633 24.0462 72.3406C22.1784 72.2734 19.9225 72.3509 19.033 72.5133ZM134.337 73.64V74.77H136.924H139.512V73.64C139.512 72.2731 139.837 72.226 142.674 73.1825C147.799 74.9098 152.309 79.4114 154.039 84.5265C154.997 87.3585 154.95 87.6836 153.581 87.6836H152.449V90.2663V92.8491H153.581C154.95 92.8491 154.997 93.1742 154.039 96.0061C152.309 101.121 147.799 105.623 142.674 107.35C139.837 108.307 139.512 108.26 139.512 106.893V105.763H136.924H134.337V106.893C134.337 108.26 134.011 108.307 131.174 107.35C126.049 105.623 121.539 101.121 119.809 96.0061C118.851 93.1742 118.898 92.8491 120.267 92.8491H121.399V90.2663V87.6836H120.225C119.08 87.6836 119.055 87.6574 119.225 86.6344C119.497 84.995 120.688 82.0626 121.653 80.656C124.227 76.9033 127.195 74.5782 131.248 73.138C133.84 72.2166 134.337 72.2973 134.337 73.64ZM26.4933 77.6978C32.7656 78.8255 38.2074 83.7378 40.4161 90.2663C41.248 92.7248 41.2493 98.1311 40.419 100.597C38.4257 106.517 34.1994 110.735 28.2508 112.74C25.7879 113.571 20.3717 113.572 17.901 112.743C9.13276 109.802 3.92841 101.621 5.21567 92.8032C6.06241 87.0053 9.77251 81.9416 15.0865 79.3304C18.9108 77.4512 22.3692 76.9562 26.4933 77.6978ZM134.337 84.1537C134.337 88.2612 134.47 91.2039 134.674 91.5842C134.925 92.0516 145.454 97.6917 146.076 97.6917C146.275 97.6917 148.362 93.1819 148.223 93.0528C148.146 92.9811 146.154 91.9606 143.797 90.7848L139.512 88.6476V83.0002V77.3527H136.924H134.337V84.1537ZM20.4885 81.5106C20.4885 82.9601 20.4102 83.1177 19.5072 83.4912C17.3331 84.39 15.3135 87.6529 15.3135 90.2663C15.3135 94.2524 19.0686 98.0145 23.0471 98.0145C24.4065 98.0145 25.6634 99.2555 25.6634 100.597C25.6634 101.924 24.4056 103.18 23.0759 103.18C21.9966 103.18 20.4885 101.965 20.4885 101.096C20.4885 100.688 20.0192 100.597 17.901 100.597C15.0128 100.597 15.0008 100.61 15.6939 102.919C16.1584 104.467 18.1746 106.821 19.5072 107.372C20.4102 107.746 20.4885 107.903 20.4885 109.353V110.928H23.0759H25.6634V109.353C25.6634 107.903 25.7417 107.746 26.6447 107.372C28.8188 106.474 30.8383 103.211 30.8383 100.597C30.8383 96.6111 27.0833 92.8491 23.1047 92.8491C21.7453 92.8491 20.4885 91.6081 20.4885 90.2663C20.4885 88.9391 21.7463 87.6836 23.0759 87.6836C24.1552 87.6836 25.6634 88.8981 25.6634 89.7675C25.6634 90.1759 26.1327 90.2663 28.2508 90.2663C31.1391 90.2663 31.1511 90.2537 30.4579 87.9441C29.9935 86.3968 27.9772 84.0423 26.6447 83.4912C25.7417 83.1177 25.6634 82.9601 25.6634 81.5106V79.9354H23.0759H20.4885V81.5106ZM77.4126 92.8491V95.4318H80H82.5875V92.8491V90.2663H80H77.4126V92.8491ZM62.6818 101.39L61.8878 102.182V110.429V118.676H55.0744C50.9584 118.676 48.0113 118.81 47.6299 119.013C46.8456 119.432 41.1881 130.629 41.1881 131.763C41.1881 132.217 41.5455 132.944 41.9822 133.38C42.6339 134.031 43.0964 134.173 44.5696 134.173H46.363V145.002V155.832L47.1571 156.625C47.9508 157.417 47.9517 157.417 54.9195 157.417C60.989 157.417 61.8878 157.482 61.8878 157.916C61.8878 158.19 62.2452 158.772 62.6818 159.207L63.4755 160H80H96.5245L97.3182 159.207C97.7548 158.772 98.1122 158.19 98.1122 157.916C98.1122 157.482 99.011 157.417 105.081 157.417C112.048 157.417 112.049 157.417 112.843 156.625L113.637 155.832V145.002V134.173H115.43C116.904 134.173 117.366 134.031 118.018 133.38C118.454 132.944 118.812 132.217 118.812 131.763C118.812 130.629 113.154 119.432 112.37 119.013C111.989 118.81 109.042 118.676 104.926 118.676H98.1122V110.429V102.182L97.3182 101.39L96.5245 100.597H80H63.4755L62.6818 101.39ZM92.9373 130.299V154.835H90.3498H87.7624V150.433C87.7624 145.197 87.4525 143.979 85.5951 141.917C82.5305 138.515 77.9627 138.444 74.6524 141.749C72.5439 143.853 72.2376 144.955 72.2376 150.433V154.835H69.6502H67.0627V130.299V105.763H80H92.9373V130.299ZM72.2376 113.511V116.094H74.8251H77.4126V113.511V110.928H74.8251H72.2376V113.511ZM82.5875 113.511V116.094H85.1749H87.7624V113.511V110.928H85.1749H82.5875V113.511ZM125.59 117.905C124.797 118.723 123.188 120.227 122.013 121.247L119.877 123.1L120.719 124.216C121.182 124.83 121.887 125.741 122.287 126.242L123.012 127.152L124.551 125.9C125.397 125.212 127.234 123.56 128.634 122.229L131.179 119.809L129.281 118.113C128.237 117.181 127.304 116.417 127.208 116.417C127.111 116.417 126.383 117.086 125.59 117.905ZM33.3449 120.756C32.5001 121.718 31.8086 122.565 31.8086 122.639C31.8086 122.712 32.9759 123.756 34.4022 124.957L36.9958 127.142L37.7174 126.239C38.1142 125.742 38.8332 124.807 39.3151 124.161L40.191 122.986L38.6683 121.826C37.8306 121.188 36.7924 120.291 36.3612 119.833C35.9298 119.374 35.4204 119.001 35.2292 119.003C35.0377 119.006 34.1897 119.794 33.3449 120.756ZM72.2376 123.842V126.425H74.8251H77.4126V123.842V121.259H74.8251H72.2376V123.842ZM82.5875 123.842V126.425H85.1749H87.7624V123.842V121.259H85.1749H82.5875V123.842ZM61.8878 126.425V129.007H54.9304H47.9731L49.2739 126.425L50.5748 123.842H56.2313H61.8878V126.425ZM110.726 126.425L112.027 129.007H105.07H98.1122V126.425V123.842H103.769H109.425L110.726 126.425ZM72.2376 134.173V136.755H74.8251H77.4126V134.173V131.59H74.8251H72.2376V134.173ZM82.5875 134.173V136.755H85.1749H87.7624V134.173V131.59H85.1749H82.5875V134.173ZM61.8878 143.212V152.252H56.7129H51.538V143.212V134.173H56.7129H61.8878V143.212ZM108.462 143.212V152.252H103.287H98.1122V143.212V134.173H103.287H108.462V143.212ZM81.7934 145.296C82.5584 146.059 82.5875 146.249 82.5875 150.462V154.835H80H77.4126V150.462C77.4126 146.249 77.4417 146.059 78.2066 145.296C78.7069 144.796 79.37 144.504 80 144.504C80.6301 144.504 81.2931 144.796 81.7934 145.296Z" fill="#2C2C2C"/>
</svg>
