<svg width="160" height="160" viewBox="0 0 160 160" fill="none" xmlns="http://www.w3.org/2000/svg">
<path fill-rule="evenodd" clip-rule="evenodd" d="M45.0176 0.889037C44.3162 1.58971 44.0829 2.17355 43.9171 3.64299C43.4234 8.02633 43.7061 7.58087 40.5814 8.90006L37.7827 10.0815L35.5268 8.33027C33.1495 6.48535 32.2896 6.10706 31.1388 6.40038C30.752 6.49909 28.82 8.20032 26.8462 10.1808C23.5349 13.5033 23.2569 13.8735 23.2569 14.9656C23.2569 15.933 23.5877 16.5715 25.0691 18.4627C26.127 19.8131 26.8171 20.9792 26.7274 21.2638C26.6426 21.5321 26.2298 22.5952 25.8096 23.626C25.3893 24.6569 24.9687 25.7265 24.8746 26.0026C24.7473 26.3775 23.9618 26.5983 21.7843 26.8717C19.8377 27.1163 18.5825 27.4433 18.0174 27.8532C17.2544 28.4067 16.6462 28.4679 11.8983 28.4679C5.69532 28.4679 4.08861 28.8159 2.3049 30.5468C-0.080151 32.8603 0.111854 28.9059 0.0183531 77.668C-0.0394986 107.925 0.038054 121.9 0.270399 123.019C0.73759 125.269 2.11978 127.057 4.108 127.981C5.67406 128.71 5.98083 128.736 12.8592 128.739L29.3122 128.742L28.5449 127.975C29.5233 128.953 28.9286 128.359 28.5449 127.975L29.3122 124.057H13.2298C9.4194 124.057 6.22224 123.923 5.89952 123.751C4.92105 123.228 4.63648 121.65 4.63648 116.747V112.03H80H155.364V116.747C155.364 121.65 155.079 123.228 154.1 123.751C153.733 123.947 131.335 124.057 91.4202 124.057H29.3122L28.5449 127.975C27.5664 126.998 27.6466 127.078 28.5449 127.975L29.3122 128.742H46.3694H63.4263V135.146V141.55L57.0939 141.551C51.3268 141.552 50.6705 141.608 49.7423 142.173C47.6769 143.431 47.4805 144.159 47.4792 150.562C47.4777 157.199 47.6844 157.964 49.8133 159.21L51.1292 159.98L80.0275 159.975L108.926 159.97L110.144 159.273C112.298 158.039 112.522 157.222 112.521 150.614C112.52 144.153 112.327 143.433 110.258 142.173C109.33 141.608 108.673 141.552 102.906 141.551L96.5737 141.55V135.146V128.742L125.421 128.739L154.269 128.736L155.892 127.981C157.88 127.057 159.262 125.269 159.73 123.019C159.962 121.9 160.04 107.925 159.982 77.668C159.888 28.9059 160.08 32.8603 157.695 30.5468C155.925 28.829 154.29 28.4679 148.286 28.4679C142.849 28.4679 141.899 28.6666 141.326 29.9227C140.838 30.9932 140.887 31.3915 141.627 32.3305L142.275 33.1537H147.864C153.321 33.1537 153.473 33.1715 154.33 33.9074L155.207 34.6615L155.3 69.2846C155.364 93.228 155.289 104.264 155.058 105.063C154.874 105.698 154.356 106.506 153.907 106.859L153.09 107.5H79.9628H6.83547L5.81415 106.589L4.79284 105.677V70.1696V34.6615L5.6703 33.9074C6.52026 33.1771 6.70663 33.1537 11.6606 33.1537H16.7738L16.881 36.2709C16.9805 39.1508 17.0514 39.451 17.812 40.2104C18.5065 40.9035 19.0703 41.0828 21.4081 41.354C22.9332 41.5308 24.2985 41.7804 24.4424 41.9085C24.7401 42.1737 26.839 46.9084 26.839 47.3145C26.839 47.4613 26.06 48.5825 25.1082 49.8064C24.1559 51.0306 23.2957 52.3557 23.1962 52.7512C22.8813 54.0048 23.6662 55.1678 27.127 58.5743C30.2985 61.6963 30.5734 61.8927 31.7717 61.8927C33.0307 61.8927 33.9701 61.3458 36.9427 58.8814L37.8218 58.1529L39.2881 58.8942C40.0949 59.3022 41.3438 59.8117 42.0637 60.0266C43.4969 60.4548 43.4434 60.3252 43.9115 64.4921C44.0538 65.7594 44.3493 66.5875 44.8865 67.2254L45.6574 68.1404H51.0742H56.491L57.2571 67.231C57.8119 66.5722 58.0817 65.7756 58.2356 64.3415C58.6512 60.4683 58.6577 60.453 60.0915 60.0247C60.8076 59.8107 62.0535 59.3022 62.8603 58.8942L64.3266 58.1529L65.2056 58.8814C68.1592 61.3298 69.1211 61.8927 70.3519 61.8927C71.5164 61.8927 71.8307 61.6688 75.0069 58.5746C79.8014 53.9042 79.9168 53.2385 76.623 49.2641L75.0886 47.4126L76.1371 45.1454C76.7137 43.8986 77.1856 42.6585 77.1856 42.3895C77.1856 42.1202 77.2209 41.8919 77.2638 41.8813C77.3066 41.871 78.7298 41.6764 80.4259 41.4489C83.0339 41.0991 83.6372 40.9082 84.3348 40.2119C85.0972 39.4506 85.1679 39.1523 85.2673 36.2709L85.3746 33.1537H109.424C133.057 33.1537 133.485 33.1427 134.099 32.5289C134.889 31.7395 134.902 30.3179 134.127 29.3617L133.529 28.6241L109.188 28.4679C87.0729 28.3261 84.7754 28.2636 84.0653 27.7869C83.6353 27.4983 81.9754 27.0766 80.3768 26.8498L77.4702 26.4375L76.3951 23.7822C75.8037 22.3218 75.3175 21.012 75.3146 20.8718C75.3118 20.7312 75.951 19.8293 76.735 18.8678C78.6303 16.5437 79.1444 15.4966 78.9108 14.4351C78.7898 13.8838 77.3764 12.2422 75.0313 9.92842C70.3954 5.35453 70.4013 5.35547 66.3376 8.5455L64.3757 10.0859L61.556 8.89537C58.9958 7.81453 58.724 7.61836 58.5993 6.76274C57.5748 -0.276145 58.1321 0.227101 51.2193 0.0987125L45.9075 0L45.0176 0.889037ZM53.9486 7.56806C54.347 11.0333 54.7007 11.4522 58.2665 12.6821C59.6425 13.1566 61.3436 13.88 62.0466 14.2902C64.3047 15.6069 65.3613 15.3554 68.5294 12.7464L70.0361 11.5053L71.8708 13.3187L73.7054 15.1324L72.0027 17.3066C71.0661 18.5023 70.2128 19.8268 70.1064 20.2504C69.9704 20.7924 70.2937 21.8217 71.1994 23.7288C71.907 25.2185 72.7022 27.1678 72.9665 28.0603C73.2479 29.0105 73.772 29.9386 74.2311 30.2991C74.9947 30.8992 75.5717 31.0391 78.9959 31.4534L80.6498 31.6536L80.5594 34.1936L80.4691 36.7332L77.7966 37.0522C74.3465 37.4636 73.6285 37.939 72.964 40.2513C72.6788 41.244 71.8829 43.2189 71.1956 44.6393C69.6843 47.7634 69.7359 48.2342 71.8814 50.8829C72.7348 51.9365 73.4331 52.9168 73.4331 53.0611C73.4331 53.2054 72.6644 54.0816 71.7253 55.0085L70.0173 56.6935L68.2073 55.2796C64.9451 52.7315 64.643 52.6834 61.5869 54.221C60.4117 54.812 58.5095 55.5992 57.3597 55.9703C54.7607 56.809 54.3752 57.357 53.9564 60.805L53.635 63.4546H51.0254C48.7526 63.4546 48.4149 63.384 48.4058 62.908C48.3733 61.164 47.7798 58.018 47.3642 57.3841C47.0458 56.899 46.1496 56.4114 44.7552 55.9647C43.5869 55.5904 41.6809 54.8029 40.5198 54.215C37.5109 52.6915 37.1913 52.7409 34.012 55.224C33.0554 55.9709 32.1357 56.5823 31.9687 56.5823C31.8014 56.5823 30.9237 55.8325 30.0177 54.9163L28.3707 53.2504L30.0893 51.0562C32.3971 48.1102 32.4684 47.7025 31.1313 45.1072C30.5321 43.9449 29.7097 41.9556 29.3038 40.687C28.3923 37.8406 27.8935 37.4745 24.3517 37.0522L21.6793 36.7332L21.5889 34.1936L21.4985 31.6536L23.1525 31.4534C26.5766 31.0391 27.1536 30.8992 27.9166 30.2994C28.351 29.9583 28.8529 29.0996 29.0424 28.373C29.2306 27.652 30.0221 25.6874 30.8014 24.0074C31.7308 22.0035 32.1573 20.7103 32.0413 20.2482C31.944 19.8612 31.0935 18.553 30.1509 17.3412L28.4373 15.138L30.2335 13.3624L32.0294 11.5868L34.3078 13.3112C37.0556 15.3907 37.7336 15.4604 40.7734 13.9756C41.9671 13.3927 43.7523 12.6643 44.7405 12.3572C47.3401 11.5487 47.7457 10.9833 48.1647 7.58493L48.5168 4.72695H51.0695H53.6225L53.9486 7.56806ZM48.7288 18.9934C45.6433 19.4835 41.7463 21.6471 39.6267 24.0471C37.0872 26.9229 35.8582 30.2104 35.8582 34.1292C35.8582 38.426 37.3098 41.9484 40.3084 44.9282C46.1821 50.7651 55.4606 50.9141 61.4371 45.2678C64.7594 42.129 66.2407 38.7322 66.2407 34.252C66.2407 26.8679 61.5394 20.9633 54.3029 19.2592C52.4204 18.8157 50.4409 18.7213 48.7288 18.9934ZM55.4659 24.5294C56.3859 24.9499 57.8147 25.9733 58.6405 26.8029L60.1428 28.3117L55.7057 28.3983C53.2653 28.4458 49.1845 28.4458 46.6371 28.3983L42.0055 28.3117L43.4612 26.8495C46.77 23.5254 51.34 22.6423 55.4659 24.5294ZM61.4825 35.2622C61.3061 37.7191 60.5146 39.4675 58.6793 41.4564C55.9597 44.4041 51.1899 45.5236 47.4148 44.1007C45.2108 43.2698 42.6929 41.0603 41.6841 39.0717C40.9232 37.5717 40.2271 34.2945 40.512 33.5529C40.6321 33.2399 42.928 33.1537 51.1495 33.1537H61.6341L61.4825 35.2622ZM106.996 38.595C105.698 39.1748 105.378 39.8386 105.015 42.695C104.69 45.2584 104.554 45.6483 103.982 45.6498C103.777 45.6505 102.765 46.05 101.733 46.5383L99.8572 47.4254L97.7145 45.7561C95.9333 44.3688 95.3588 44.087 94.3106 44.087C93.1417 44.087 92.8337 44.2982 90.0931 46.9765C88.4667 48.5659 86.9241 50.2722 86.6648 50.7682C85.9809 52.0771 86.3412 53.2426 88.1189 55.4742L89.6737 57.426L88.6352 59.8926L87.5967 62.3588L85.1272 62.6852C82.4548 63.0386 81.4438 63.4478 80.9453 64.3784C80.5197 65.1731 80.5322 73.5293 80.9603 74.4683C81.4666 75.5782 82.29 75.9446 85.0991 76.3113L87.6614 76.6459L88.6671 79.1565L89.6728 81.6674L88.4883 83.104C85.343 86.9176 85.3546 87.0016 89.6099 91.3153C91.4556 93.1862 93.2849 94.7971 93.6752 94.8949C94.806 95.1785 95.6712 94.8199 97.7708 93.1965L99.7371 91.6761L102.191 92.6379C104.936 93.7131 104.592 93.1418 105.208 97.652C105.33 98.5479 105.682 99.3326 106.188 99.8386C106.965 100.615 107.06 100.628 111.807 100.628H116.635L117.518 99.7468C118.27 98.9952 118.432 98.5194 118.621 96.5105C118.742 95.2154 118.932 94.0305 119.043 93.8775C119.154 93.7247 120.282 93.1471 121.548 92.5942L123.851 91.589L126.036 93.2971C129.29 95.8402 129.643 95.7774 133.555 91.9594C135.272 90.2841 136.854 88.5032 137.071 88.0016C137.614 86.7439 137.247 85.6928 135.482 83.4486L134.006 81.5715L134.803 79.6198C135.241 78.5464 135.672 77.4425 135.761 77.1666C135.879 76.7952 136.637 76.5728 138.675 76.3098C140.928 76.0192 141.573 75.8109 142.22 75.1643C142.999 74.3864 143.011 74.2968 143.011 69.5133V64.6529L142.016 63.7648C141.167 63.007 140.657 62.8449 138.545 62.6609L136.069 62.445L135.064 59.99C134.453 58.4972 134.159 57.3732 134.314 57.1217C134.454 56.8946 135.18 55.9106 135.928 54.9357C136.97 53.5778 137.289 52.8915 137.289 52.004C137.289 50.9438 136.998 50.5577 133.868 47.466C129.66 43.3092 129.324 43.2301 126.125 45.6489C124.989 46.508 123.957 47.2108 123.832 47.2108C123.563 47.2108 119.714 45.5892 119.204 45.2609C119.01 45.1357 118.75 43.9642 118.628 42.6579C118.441 40.6702 118.261 40.1216 117.523 39.2954L116.64 38.3079L112.314 38.2302C109.114 38.1724 107.729 38.2677 106.996 38.595ZM114.254 45.3715C114.684 48.4828 115.136 49.1223 117.409 49.8351C118.419 50.1519 120.192 50.8857 121.348 51.4661C122.505 52.0465 123.721 52.5213 124.05 52.5213C124.38 52.5213 125.333 52.0296 126.169 51.4289C129.502 49.0329 128.955 49.1292 130.521 50.6645C131.285 51.4136 131.91 52.1536 131.91 52.3086C131.91 52.4638 131.344 53.2663 130.652 54.0916C128.618 56.5185 128.528 57.1205 129.802 59.786C130.398 61.0306 131.126 62.7843 131.42 63.6827C132.275 66.2886 132.649 66.5813 135.673 67.0117L138.321 67.3888L138.413 69.4658L138.505 71.5431L137.475 71.7021C136.908 71.7899 135.786 71.9452 134.981 72.0473C133.087 72.2878 132.011 73.1569 131.581 74.7953C131.392 75.5163 130.675 77.335 129.988 78.8372C128.543 81.9982 128.562 82.2044 130.536 84.7484C131.292 85.7218 131.91 86.6411 131.91 86.7917C131.91 86.9423 131.291 87.672 130.535 88.4136L129.16 89.7615L127.077 88.1662C124.674 86.3263 123.781 86.1835 121.803 87.3237C121.084 87.7379 119.4 88.4611 118.06 88.9309C114.986 90.0083 114.537 90.5575 114.253 93.5944L114.032 95.9423H111.87C110.681 95.9423 109.705 95.837 109.701 95.708C109.666 94.3648 108.969 90.9739 108.618 90.4397C108.345 90.0224 107.358 89.4951 106.077 89.0818C104.926 88.7104 103.165 87.9931 102.164 87.4886C99.4988 86.1448 99.0382 86.2229 96.1394 88.5117L94.5977 89.729L93.0932 88.249C92.1795 87.3499 91.6892 86.638 91.844 86.4356C91.9844 86.2522 92.6839 85.3516 93.3985 84.4342C94.9645 82.4234 95.028 81.5909 93.8031 79.1427C93.3112 78.16 92.5942 76.4013 92.2098 75.2349C91.4137 72.818 90.8733 72.3413 88.5996 72.0495C85.0691 71.5962 85.3161 71.7984 85.3161 69.3652V67.2032L86.4888 67.1895C89.7575 67.1517 91.6604 66.1552 92.0557 64.2743C92.1686 63.7377 92.809 62.1192 93.4791 60.6782C94.1493 59.2369 94.6975 57.6637 94.6975 57.1823C94.6975 56.6097 94.1455 55.5879 93.1004 54.226L91.5034 52.1446L92.8528 50.771C93.5951 50.0157 94.3256 49.3975 94.4764 49.3975C94.6271 49.3975 95.5474 50.0204 96.5218 50.7816C98.9713 52.6956 99.6039 52.7978 101.832 51.6391C102.836 51.1175 104.577 50.3934 105.702 50.0304C108.416 49.1548 108.99 48.4931 109.381 45.7935C109.554 44.5974 109.698 43.4363 109.701 43.2136C109.706 42.9137 110.253 42.8328 111.817 42.9012L113.926 42.9937L114.254 45.3715ZM109.167 55.9744C105.842 56.6297 102.34 58.9617 100.483 61.7565C98.6883 64.4574 98.0632 66.7765 98.2033 70.213C98.3061 72.7452 98.4491 73.3287 99.4691 75.3907C100.895 78.2737 103.262 80.5944 106.187 81.9785C108.184 82.9232 108.499 82.9785 111.897 82.9785C115.296 82.9785 115.609 82.9235 117.611 81.976C121.639 80.0702 124.632 76.0967 125.397 71.6387C126.983 62.4016 118.431 54.1479 109.167 55.9744ZM115.407 61.198C117.337 62.0508 118.993 63.6033 119.95 65.457C120.615 66.7453 120.774 67.4956 120.79 69.4111C120.806 71.4472 120.678 72.0314 119.865 73.6195C118.777 75.7462 116.638 77.554 114.503 78.1509C112.398 78.7398 109.103 78.3915 107.412 77.4012C104.259 75.5554 102.635 72.4622 102.898 68.8014C103.081 66.263 103.871 64.6386 105.775 62.8852C108.532 60.3465 112.075 59.7257 115.407 61.198ZM91.8114 135.068L91.7267 141.394H80H68.2733L68.1886 135.068L68.1041 128.742H80H91.8959L91.8114 135.068ZM107.831 150.765V155.295H80H52.1687V150.765V146.236H80H107.831V150.765Z" fill="#2C2C2C"/>
</svg>
