<svg width="160" height="154" viewBox="0 0 160 154" fill="none" xmlns="http://www.w3.org/2000/svg">
<path fill-rule="evenodd" clip-rule="evenodd" d="M65.2638 0.209093C64.2249 0.600873 50.0312 8.87174 49.3379 9.48945C48.3334 10.3838 47.7346 11.8864 47.7365 13.5064C47.7381 14.5963 48.1694 15.6008 50.0491 18.8912L52.3597 22.9361L51.174 24.6803C50.522 25.6397 49.5216 27.3749 48.951 28.5367L47.9137 30.649H43.4623C38.6863 30.649 37.7485 30.8477 36.3496 32.1554C34.6568 33.7375 34.5879 34.21 34.5933 44.1729C34.5983 53.0771 34.6183 53.3703 35.2976 54.5582C36.6329 56.8926 37.1309 57.0712 42.7921 57.2474L47.8223 57.4039L48.9688 59.5943C49.5996 60.7991 50.6219 62.5361 51.241 63.4542L52.3663 65.1237L50.1614 68.9304C47.4851 73.5507 47.1602 75.1447 48.448 77.3393C49.1548 78.5437 50.0403 79.1492 57.0105 83.1947C63.3147 86.8537 65.0641 87.7336 66.2595 87.8484C69.3731 88.1476 70.3694 87.3631 73.2479 82.3451L75.3789 78.6304H79.9665H84.5544L86.6866 82.3388C89.5704 87.354 90.5831 88.1507 93.6869 87.8459C94.8466 87.732 96.5113 86.9238 101.574 84.0164C110.418 78.9373 110.741 78.7189 111.565 77.2523C112.929 74.8259 112.391 73.086 108.131 66.146L107.542 65.1872L108.689 63.4862C109.32 62.5502 110.352 60.7991 110.982 59.5943L112.129 57.4039L117.103 57.2474C121.677 57.1035 122.159 57.0324 123.101 56.3606C123.664 55.9588 124.403 55.0842 124.744 54.4173C125.318 53.2914 125.363 52.5523 125.363 44.1375C125.363 38.4921 125.237 34.7383 125.03 34.1897C124.577 32.9909 123.226 31.6009 122.008 31.0799C121.309 30.7807 119.626 30.649 116.505 30.649H112.01L111.252 29.0149C110.835 28.1159 109.842 26.377 109.045 25.15L107.595 22.9195L109.791 19.0877C112.135 14.9969 112.575 13.4385 111.933 11.4931C111.736 10.8985 111.192 10.0524 110.722 9.61274C110.253 9.17308 106.491 6.87279 102.363 4.50146C93.8563 -0.38546 93.0922 -0.633921 90.6181 0.68192C89.3851 1.33781 88.9169 1.92954 86.8619 5.4299L84.5143 9.42905L79.9756 9.43249L75.4368 9.43594L73.7153 6.50166C70.8177 1.56342 70.622 1.30808 69.2225 0.6306C67.9407 0.0103874 66.2642 -0.168292 65.2638 0.209093ZM69.4323 9.7692C72.369 14.9327 72.6203 15.1796 74.7532 15.0016C76.8457 14.8267 83.1054 14.8267 85.1979 15.0016C87.318 15.1787 87.5765 14.9293 90.3639 10.0177C91.5916 7.85442 92.7194 5.92338 92.8703 5.72624C93.0625 5.47527 95.1756 6.54077 99.9413 9.29199C103.68 11.4502 106.781 13.2498 106.833 13.2915C106.886 13.3331 105.716 15.46 104.236 18.0182C102.173 21.5811 101.58 22.8622 101.7 23.4934C101.786 23.9465 102.553 25.237 103.404 26.361C104.91 28.3506 107.521 33.1474 107.521 33.9253C107.521 34.1384 107.867 34.6854 108.288 35.1407L109.056 35.9687H114.549H120.042V43.9482V51.9277L114.955 51.9324C109.488 51.9374 108.616 52.1318 107.934 53.4967C107.721 53.9248 106.982 55.4431 106.292 56.871C105.603 58.2988 104.248 60.5494 103.281 61.8721C101.914 63.7446 101.56 64.4562 101.686 65.0855C101.775 65.5299 102.983 67.8555 104.371 70.2541C106.534 73.9907 106.827 74.665 106.42 74.9664C105.429 75.6989 93.101 82.6762 93.0027 82.5597C92.946 82.4928 91.7356 80.4203 90.3129 77.9548C88.7341 75.2186 87.4507 73.3464 87.0191 73.1498C86.5311 72.9277 85.3344 72.9339 83.1599 73.1705C80.863 73.4202 79.1126 73.419 76.7083 73.1652C73.8962 72.8688 73.3043 72.8864 72.7011 73.285C72.312 73.5423 70.8668 75.7421 69.4895 78.1735C67.6809 81.3666 66.858 82.5463 66.5262 82.4217C66.2739 82.3266 63.1416 80.5536 59.5657 78.4817C53.4005 74.9097 53.0828 74.6797 53.4206 74.0389C53.6165 73.6671 54.765 71.6732 55.9723 69.6079C57.3739 67.2099 58.1715 65.5033 58.1787 64.8862C58.1865 64.1965 57.7233 63.2993 56.5623 61.7569C55.6674 60.5675 54.3671 58.3974 53.6728 56.9345C51.7105 52.8005 51.6752 52.7426 50.8557 52.328C50.333 52.0635 48.4351 51.9356 44.996 51.9324L39.9095 51.9277V43.9482V35.9687L45.3091 35.9586C49.085 35.9518 50.8607 35.8332 51.2141 35.5641C51.4924 35.3522 52.4189 33.7022 53.2734 31.8969C54.1283 30.092 55.5544 27.6587 56.4433 26.4896C57.332 25.3208 58.1477 24.0119 58.2557 23.581C58.4106 22.9645 57.8679 21.7851 55.7125 18.0535C54.2056 15.4444 53.0972 13.2602 53.249 13.1998C53.4011 13.1394 56.4837 11.3607 60.0991 9.24756C63.7144 7.13408 66.7604 5.44961 66.8677 5.50406C66.9754 5.55882 68.1295 7.47798 69.4323 9.7692ZM75.2803 20.484C69.0554 21.7557 63.3738 25.595 59.9322 30.8558C50.8238 44.779 58.2473 63.4267 74.4862 67.4143C77.3741 68.1234 82.577 68.1234 85.4649 67.4143C95.5866 64.9287 102.951 56.3597 103.919 45.9409C104.331 41.5071 102.989 35.7346 100.611 31.7016C99.2289 29.3594 94.7258 24.8449 92.427 23.4971C87.1536 20.4061 80.976 19.3205 75.2803 20.484ZM83.8883 25.7999C90.2625 27.138 95.653 32.0186 97.7104 38.3156C98.8176 41.7042 98.8914 46.0767 97.8954 49.2679C96.0057 55.3214 91.3894 59.9614 85.3989 61.8286C83.0951 62.5468 82.423 62.6203 79.2804 62.5005C76.7036 62.4022 75.2481 62.1825 73.893 61.6878C65.082 58.4709 59.8684 49.5035 61.6466 40.6243C62.4332 36.6978 63.9986 33.7729 66.8201 30.9588C71.5464 26.2452 77.4739 24.4537 83.8883 25.7999ZM76.5324 31.1506C70.0793 32.8767 65.7556 39.47 66.8048 45.9841C67.4969 50.2793 70.3829 54.1592 74.3181 56.0843C76.2723 57.0403 76.5571 57.091 79.9756 57.091C83.394 57.091 83.6789 57.0403 85.633 56.0843C90.8986 53.5083 94.0015 47.7558 93.1357 42.1761C91.8971 34.1953 84.2166 29.0953 76.5324 31.1506ZM82.3445 36.429C85.6365 37.4109 87.8833 40.4613 87.8745 43.9366C87.868 46.4685 87.1079 48.2065 85.2937 49.8371C83.1145 51.7957 80.3443 52.4178 77.4185 51.6054C75.7414 51.1398 73.2489 48.7678 72.569 46.9904C70.9294 42.7059 73.2263 37.7673 77.4714 36.4496C79.3223 35.8751 80.4708 35.8701 82.3445 36.429ZM5.22204 81.9377C3.34238 82.5867 1.6762 84.0317 0.67674 85.8799L0 87.1315V117.485V147.839L0.854533 149.292C1.32468 150.091 2.16983 151.134 2.73263 151.608C4.7785 153.333 5.35633 153.439 13.3511 153.567C21.8369 153.702 23.485 153.48 25.8576 151.884L27.4518 150.811L61.9302 150.806C99.9688 150.8 98.7074 150.861 102.973 148.828C106.141 147.318 154.975 117.56 156.718 116.077C157.594 115.331 158.534 114.112 159.065 113.03C160.224 110.671 160.318 107.038 159.278 104.774C157.614 101.152 154.123 98.8668 150.253 98.8665C148.227 98.8661 146.185 99.4929 122.227 107.472C95.2251 116.464 93.0321 117.07 93.6491 115.373C93.7896 114.985 93.9048 113.331 93.9048 111.696C93.9048 108.995 93.8121 108.528 92.8947 106.592C91.6313 103.925 88.7369 100.85 86.2346 99.5167C82.6572 97.6104 82.2997 97.5597 70.7416 97.3147C61.8401 97.1263 59.8173 96.9986 58.3775 96.5346C55.8552 95.7213 53.2099 94.3178 50.5521 92.3824C45.2846 88.5466 40.7021 87.0377 33.4611 86.7554L28.7342 86.5714L28.1511 85.4884C27.8302 84.8929 27.0055 83.9244 26.3181 83.3364C24.244 81.5615 22.9228 81.3412 14.42 81.3528C7.94059 81.3616 6.65347 81.4432 5.22204 81.9377ZM23.0768 87.5315L23.7892 88.244L23.8728 116.946C23.9354 138.571 23.8643 145.87 23.5839 146.547C22.9409 148.1 21.877 148.308 14.5552 148.308C7.54775 148.308 6.19396 148.081 5.50282 146.79C5.26775 146.351 5.16476 137.408 5.16476 117.419C5.16476 86.1618 5.08025 87.6964 6.84159 86.9644C7.21064 86.8111 10.8541 86.7154 14.9384 86.752C22.2057 86.8171 22.3797 86.834 23.0768 87.5315ZM39.394 92.7779C42.2409 93.5424 44.519 94.6633 47.2551 96.6456C50.7299 99.1631 52.725 100.229 56.1864 101.415L59.16 102.434L69.8026 102.629C79.8147 102.812 80.5509 102.865 82.2299 103.522C84.5497 104.429 86.9236 106.583 87.9781 108.738C88.6824 110.176 88.7932 110.754 88.6865 112.431C88.612 113.599 88.3356 114.762 88.0166 115.248L87.4736 116.077H78.4443C68.3179 116.077 65.5205 116.392 61.5327 117.985C59.13 118.944 54.975 121.356 53.9361 122.395C53.0956 123.235 53.1961 125.007 54.1377 125.948C55.2852 127.096 56.4449 126.941 58.9753 125.305C61.4118 123.729 63.1697 122.916 65.8197 122.137C67.3419 121.69 69.9184 121.58 82.9492 121.406L98.287 121.2L123.639 112.693C140.453 107.051 149.424 104.186 150.277 104.186C153.786 104.186 156.004 108.522 153.937 111.341C153.382 112.098 105.734 141.436 101.499 143.629C97.8147 145.536 98.9425 145.482 62.5249 145.487L29.267 145.492V118.689V91.8855L33.4145 92.0857C35.6954 92.1959 38.3864 92.5072 39.394 92.7779Z" fill="#2C2C2C"/>
</svg>
