<svg width="160" height="126" viewBox="0 0 160 126" fill="none" xmlns="http://www.w3.org/2000/svg">
<path fill-rule="evenodd" clip-rule="evenodd" d="M67.101 1.31684C65.5183 1.8178 62.8188 4.6247 62.3335 6.27426C62.1178 7.00739 61.9414 8.42801 61.9414 9.43153V11.256H52.1652C46.6363 11.256 41.5574 11.4062 40.4755 11.6021C33.6303 12.8401 27.4016 19.0948 26.1688 25.9686C25.9724 27.0628 25.8241 32.2378 25.8241 37.9915V48.0932L24.8457 48.5002C23.5171 49.053 21.5068 51.4146 21.0437 52.9667C20.8351 53.6658 20.6645 55.1315 20.6645 56.224C20.6645 57.597 20.54 58.2104 20.2614 58.2107C19.3488 58.2113 15.7596 60.2029 14.3952 61.4658C13.0312 62.7284 10.6677 66.7486 10.6677 67.8066C10.6677 68.1323 10.1466 68.2489 8.68967 68.2489C7.60164 68.2489 6.11438 68.426 5.38429 68.6427C3.61294 69.1682 0.941548 71.8508 0.41817 73.6295C-0.13939 75.5252 -0.13939 107.603 0.41817 109.499C0.941548 111.278 3.61294 113.96 5.38429 114.486C6.11438 114.702 7.60164 114.879 8.68967 114.879C10.1466 114.879 10.6677 114.996 10.6677 115.322C10.6677 115.565 11.1772 116.786 11.7996 118.036C13.1753 120.797 15.1105 122.668 18.0266 124.055L20.1808 125.08H40.1743H60.1677L62.3219 124.055C66.0313 122.291 68.5289 119.302 69.7195 115.203C70.2725 113.299 72.873 110.639 74.7166 110.092C76.4128 109.589 83.563 109.58 85.2218 110.079C86.9374 110.595 89.1041 112.581 89.8136 114.287C92.3511 120.387 93.8303 122.224 97.6781 124.055L99.8323 125.08H119.826H139.819L141.973 124.055C144.89 122.668 146.825 120.797 148.2 118.036C148.823 116.786 149.332 115.565 149.332 115.322C149.332 114.996 149.853 114.879 151.31 114.879C152.398 114.879 153.886 114.702 154.616 114.486C156.387 113.96 159.058 111.278 159.582 109.499C160.139 107.603 160.139 75.5252 159.582 73.6295C159.058 71.8508 156.387 69.1682 154.616 68.6427C153.886 68.426 152.398 68.2489 151.31 68.2489C149.943 68.2489 149.332 68.1239 149.332 67.8441C149.331 66.9277 147.348 63.3235 146.09 61.9534C144.833 60.5837 140.83 58.2104 139.776 58.2104C139.452 58.2104 139.336 57.6871 139.336 56.224C139.336 55.1315 139.165 53.6658 138.956 52.9667C138.496 51.425 136.486 49.0539 135.177 48.5096L134.22 48.1116L134.108 36.8889C133.997 25.7649 133.989 25.6473 133.174 23.5224C132.008 20.484 130.926 18.7547 128.888 16.6755C126.874 14.6202 125.044 13.4547 121.961 12.2627C119.85 11.447 119.701 11.4363 108.942 11.324L98.0586 11.21V9.40854C98.0586 6.82411 97.4866 5.25486 95.8977 3.48031C93.6123 0.927606 93.3653 0.888422 79.862 0.926634C72.3706 0.948006 67.8278 1.08693 67.101 1.31684ZM92.1074 6.86977L92.899 7.66443V27.5945V47.5242H80H67.101V27.5945V7.66443L67.8927 6.86977L68.684 6.07478H80H91.316L92.1074 6.86977ZM61.9414 19.0051V21.5733L52.8314 21.6772C43.8905 21.7796 43.6915 21.7964 42.1091 22.5827C40.0536 23.604 38.1214 25.5443 37.103 27.609C36.3187 29.1993 36.3029 29.391 36.2056 38.3762L36.1065 47.5242H33.5251H30.9437L31.0443 36.919L31.1449 26.3138L32.1656 24.1506C32.7267 22.9612 33.7786 21.3421 34.5026 20.5533C35.9289 18.9995 38.8569 17.2687 40.8573 16.7972C41.5457 16.635 46.5715 16.4876 52.0252 16.4695L61.9414 16.4371V19.0051ZM121.652 17.8085C124.586 19.2651 126.415 21.141 127.834 24.1506L128.855 26.3138L128.956 36.919L129.056 47.5242H126.479H123.902L123.799 38.3762L123.695 29.2282L122.59 27.18C121.395 24.967 120.037 23.66 117.74 22.5117C116.345 21.8145 115.866 21.7767 107.169 21.6772L98.0586 21.5733V18.985V16.397L108.637 16.498L119.217 16.599L121.652 17.8085ZM61.9414 37.1618V47.5242H51.6221H41.3029V39.2877C41.3029 30.753 41.4184 29.8541 42.695 28.4584C44.0923 26.9303 44.7886 26.8257 53.6376 26.8121L61.9414 26.7995V37.1618ZM116.316 27.6291C116.806 27.9963 117.505 28.6987 117.871 29.1903C118.498 30.0325 118.541 30.5824 118.631 38.8039L118.727 47.5242H108.393H98.0586V37.1469V26.7697L106.743 26.8655C114.93 26.9559 115.477 26.9996 116.316 27.6291ZM133.384 53.5004C134.034 54.1529 134.176 54.6159 134.176 56.0909V57.8865H80H25.8241V56.0909C25.8241 54.6159 25.9657 54.1529 26.6158 53.5004L27.4071 52.7054H80H132.593L133.384 53.5004ZM139.137 63.4615C140.908 63.9871 143.58 66.6696 144.103 68.4484C144.665 70.3573 144.665 112.771 144.103 114.68C143.58 116.459 140.908 119.141 139.137 119.667C137.245 120.228 102.407 120.228 100.515 119.667C98.671 119.12 96.0706 116.46 95.5175 114.556C94.3269 110.457 91.8294 107.468 88.1199 105.704L85.9658 104.679H80H74.0342L71.8801 105.704C68.0323 107.535 66.5531 109.372 64.0155 115.472C63.3061 117.178 61.1394 119.164 59.4238 119.68C57.5976 120.229 22.7193 120.217 20.8631 119.667C19.0918 119.141 16.4204 116.459 15.897 114.68C15.3352 112.771 15.3352 70.3573 15.897 68.4484C16.3823 66.7988 19.0818 63.9919 20.6645 63.491C22.3697 62.9515 137.321 62.9226 139.137 63.4615ZM56.7818 77.5663V84.2931L59.5402 91.2478C61.0868 95.1467 62.5902 98.4516 62.962 98.7693C63.5044 99.2327 64.2584 99.336 67.101 99.336C69.9436 99.336 70.6975 99.2327 71.24 98.7693C71.6118 98.4516 73.1151 95.1467 74.6617 91.2478L77.4202 84.2931V77.5663V70.8395H74.8404H72.2606V77.0692V83.2989L70.1058 88.7269C68.0807 93.8277 67.8994 94.1548 67.101 94.1548C66.3025 94.1548 66.1213 93.8277 64.0961 88.7269L61.9414 83.2989V77.0692V70.8395H59.3616H56.7818V77.5663ZM83.3715 71.6345L82.5798 72.4291V85.8827V99.336H85.1596H87.7394V92.8595V86.383H89.8007H91.8623L93.6546 88.3272C95.8735 90.7339 97.3089 93.6869 97.8161 96.8878L98.2041 99.336H100.756H103.307L103.085 97.1582C102.963 95.9604 102.516 93.9427 102.092 92.6743C101.336 90.4136 99.3324 86.6113 98.6849 86.2094C98.5046 86.0977 98.928 85.5909 99.6259 85.0832C103.94 81.9453 104.445 76.9063 100.811 73.2571C98.593 71.0302 97.7678 70.8395 90.3479 70.8395C84.2112 70.8395 84.1567 70.8456 83.3715 71.6345ZM10.3453 91.5642V109.698H8.55713C7.08826 109.698 6.62712 109.556 5.97733 108.903L5.18565 108.109V91.5642V75.0197L5.97733 74.2251C6.62712 73.5722 7.08826 73.4301 8.55713 73.4301H10.3453V91.5642ZM154.023 74.2251L154.814 75.0197V91.5642V108.109L154.023 108.903C153.373 109.556 152.912 109.698 151.443 109.698H149.655V91.5642V73.4301H151.443C152.912 73.4301 153.373 73.5722 154.023 74.2251ZM97.267 76.8156C97.7662 77.3166 98.0586 77.9804 98.0586 78.6113C98.0586 79.2421 97.7662 79.9059 97.267 80.4069C96.5046 81.1727 96.3153 81.2018 92.1074 81.2018H87.7394V78.6113V76.0207H92.1074C96.3153 76.0207 96.5046 76.0498 97.267 76.8156Z" fill="#2C2C2C"/>
</svg>
